<?xml version="1.0" encoding="UTF-8"?>
<svg id="Layer_1" data-name="Layer 1" xmlns="http://www.w3.org/2000/svg" viewBox="0 0 236.943 255.853">
  <defs>
    <style>
      .cls-1 {
        fill: #484848;
      }

      .cls-2 {
        fill: #272626;
      }

      .cls-3 {
        fill: #e65025;
      }

      .cls-4 {
        fill: #505050;
      }

      .cls-5, .cls-6, .cls-7 {
        fill: none;
      }

      .cls-6 {
        stroke: #000;
        stroke-linecap: round;
      }

      .cls-6, .cls-7 {
        stroke-linejoin: round;
      }

      .cls-8 {
        fill: #404040;
      }

      .cls-9 {
        fill: #5c5c5c;
      }

      .cls-10 {
        fill: #353635;
      }

      .cls-7 {
        stroke: #e65025;
        stroke-dasharray: 6.984 4.988;
        stroke-width: 3px;
      }
    </style>
  </defs>
  <g id="LINE">
    <g>
      <g>
        <path class="cls-8" d="M109.53,243.597c-1.38-.6-2.74-1.25-4.08-1.94-1.22-.64-2.43-1.31-3.61-2.01-.07-.04-.14-.09-.21-.13h-.01c-6.71-4.04-12.75-9.24-17.95-15.44-1.71-2.04-3.33-4.2-4.86-6.46l9.42,4.12c7.86,11.66,17.98,20.13,29.35,25.38l-4.94-2.16-2.63-1.15-.48-.21Z"/>
        <path class="cls-4" d="M200.25,60.237c-10.01-4.28-21.09-6.19-32.67-5.41l-9.42-4.12c1.81-.12,3.61-.17,5.39-.17.23,0,.46,0,.68.01h.05c9.45.14,18.6,2.1,27.07,5.8l8.9,3.89Z"/>
        <path class="cls-1" d="M143,53.257c-.13.01-.28.04-.43.08-13.81,3.74-26.91,11.06-38.33,21.1h-.01l-8.29,1.4c-12.59,2.12-22.79,15.4-22.78,29.66l.07,88.51c0,2.53.33,4.96.96,7.22,1.17,4.24,3.38,7.91,6.46,10.58l-2.11,1.33c-.01.03-.03.06-.04.09-.08.16-.15.36-.22.59-.07.26-.12.57-.15.89-.02.29-.03.63.01.98s.12.71.23,1.03c.03.08.05.15.09.23.09.24.21.46.35.67,1.53,2.26,3.15,4.42,4.86,6.46-3.3.02-6.42-.54-9.29-1.61-.48-.17-.96-.36-1.42-.57l-.51-.22c-.19-.09-.38-.18-.57-.28-4.24-2.09-7.86-5.33-10.57-9.44-.64-.96-1.23-1.96-1.76-3-2.44-4.77-3.82-10.45-3.82-16.67l-.06-88.52c-.23-7.05,1.3-13.92,4.16-20.01.94-2,2.02-3.91,3.23-5.72.17-.27.35-.53.55-.79.45-.66.93-1.31,1.44-1.94.9-1.16,1.88-2.27,2.9-3.32,1.07-1.09,2.2-2.12,3.38-3.07,4.88-3.95,10.63-6.64,16.88-7.52l54.61-9.21.18,1.07Z"/>
        <path class="cls-4" d="M143.58,53.317l9.49,4.15c-.27-.09-.57-.11-.88-.06-.07.01-.13.03-.2.05-28.07,7.6-53.15,29.94-67.28,59.93-.58,1.22-.88,2.55-.88,3.85l.06,83.08c0,.92.45,1.65,1.11,1.96l-9.85-4.3c-.04-.02-.07-.04-.1-.06-.14-.09-.28-.26-.37-.48-.04-.09-.08-.2-.11-.31-.03-.12-.05-.25-.07-.38-.01-.07-.02-.14-.02-.22-.01-.1-.01-.21-.01-.32l-.06-83.08c0-1.3.3-2.63.88-3.85,7.17-15.22,17.17-28.48,28.94-38.84h.01c11.42-10.04,24.52-17.36,38.33-21.1.15-.04.3-.07.43-.08s.25-.01.35,0c.02,0,.03.01.05.01.06.01.12.03.18.05Z"/>
        <path class="cls-9" d="M230.69,194.087c.1.03.2.08.3.14.99.6,1.25,2.09.57,3.32-6.06,11.07-13.72,21.04-22.59,29.41-28.09,26.54-63.51,33.04-91.39,20.16-11.37-5.25-21.49-13.72-29.35-25.38-.09-.13-.16-.28-.22-.43-.45-1.19.08-2.71,1.2-3.41l6.9-4.33c2.78-1.74,4.12-5.55,2.99-8.5-1.12-2.96-4.29-3.95-7.06-2.21l-3.79,2.38-1.37.86c-.26.16-.54.27-.82.31-.37.06-.72.02-1.02-.11l-.04-.02c-.66-.31-1.11-1.04-1.11-1.96l-.06-83.08c0-1.3.3-2.63.88-3.85,14.13-29.99,39.21-52.33,67.28-59.93.07-.02.13-.04.2-.05.31-.05.61-.03.88.06l.14.06c.69.3,1.15,1.04,1.15,1.98v4.08l.01,5.36c0,3.4,2.43,5.74,5.43,5.23,3-.5,5.42-3.66,5.42-7.06v-9.67c.11-1.37,1.17-2.54,2.36-2.62,11.58-.78,22.66,1.13,32.67,5.41l.51.22c14.03,6.14,25.94,16.95,34.17,31.59.58,1.02.89,2.25.89,3.55l.06,83.08c0,.32-.06.64-.16.95-.45,1.33-1.72,2.15-2.83,1.83l-5.16-1.49c-2.78-.8-5.94,1.25-7.07,4.59-.64,1.91-.47,3.84.32,5.28,0,0,.01.01.01.02h.01c.41.76,1,1.38,1.74,1.79.29.17.6.3.93.4l6.91,2c.04.01.07.02.11.04ZM229.69,101.727c1.2-2.74.35-5.75-1.89-6.73-2.24-.97-5.02.45-6.22,3.19-1.19,2.73-.35,5.75,1.89,6.72,2.24.98,5.03-.44,6.22-3.18ZM206.57,190.467l-.06-88.51c-.01-8.83-6.33-14.92-14.13-13.6l-24.89,4.2-10.21,1.72-10.23,1.73-.09.01-19.72,3.33c-7.79,1.31-14.1,9.53-14.1,18.36v.28l.01,6.32v3.93l.01,10.15v5.15l.01,15.14.03,39.89.01,7.65c0,8.83,6.33,14.92,14.12,13.6l65.14-10.99c7.79-1.31,14.1-9.53,14.1-18.36ZM163.97,241.907c1.2-2.73.35-5.74-1.89-6.72s-5.02.44-6.22,3.18c-1.19,2.74-.35,5.75,1.89,6.73s5.03-.45,6.22-3.19ZM98.07,123.937c1.19-2.74.35-5.75-1.89-6.73s-5.03.45-6.22,3.19c-1.2,2.73-.35,5.74,1.89,6.72s5.02-.44,6.22-3.18Z"/>
        <path class="cls-2" d="M221.58,98.187c1.2-2.74,3.98-4.16,6.22-3.19,2.24.98,3.09,3.99,1.89,6.73-1.19,2.74-3.98,4.16-6.22,3.18-2.24-.97-3.08-3.99-1.89-6.72Z"/>
        <path class="cls-8" d="M223.67,192.047l-.93-.4c-.74-.41-1.33-1.03-1.74-1.79l9.58,4.19-6.91-2Z"/>
        <path class="cls-10" d="M167.54,163.887c2.71,2.71,3.45,7.5,1.51,11.93-.65,1.48-1.52,2.76-2.54,3.81-2.78,2.87-6.66,4.02-9.95,2.58-4.49-1.96-6.19-8.01-3.79-13.5,2.4-5.5,7.99-8.36,12.48-6.39.87.38,1.64.91,2.29,1.57ZM166,174.487c1.4-3.21.41-6.74-2.22-7.89-2.62-1.15-5.89.52-7.29,3.73s-.41,6.74,2.21,7.89c2.63,1.15,5.9-.52,7.3-3.73Z"/>
        <path class="cls-2" d="M162.08,235.187c2.24.98,3.09,3.99,1.89,6.72-1.19,2.74-3.98,4.17-6.22,3.19s-3.08-3.99-1.89-6.73c1.2-2.74,3.98-4.16,6.22-3.18Z"/>
        <path class="cls-8" d="M154.46,62.077l-.01-8.88c.04-.06.07-.12.11-.18.6-.94,1.48-1.66,2.52-2.06.35-.13.71-.22,1.08-.25l9.42,4.12c-1.19.08-2.25,1.25-2.36,2.62v9.67c0,3.4-2.42,6.56-5.42,7.06-3,.51-5.43-1.83-5.43-5.23l-.01-5.36v-.03c.07-.38.1-.76.1-1.14v-.34Z"/>
        <path class="cls-2" d="M165.36,174.407l-5.15-2.25-.01-5.11c.19-.1.39-.21.59-.31l4.56,2c-.54,1.74-.54,3.46.01,5.67Z"/>
        <path class="cls-2" d="M160.2,167.047l.01,5.11-3.69,3.04c-.38-1.9-.33-3.43.15-5,.84-1.28,1.92-2.25,3.53-3.15Z"/>
        <path class="cls-2" d="M161.01,177.987c-2.05-.98-3.37-1.61-4.34-2.11-.06-.23-.11-.46-.15-.68l3.69-3.04,5.15,2.25c-2.06,1.01-3.37,2.09-4.35,3.58Z"/>
        <path class="cls-10" d="M147.05,96.007l10.23-1.73c-2.84,2.63-6.49,3.42-9.47,2.11l-.32-.14c-.15-.08-.3-.16-.44-.24Z"/>
        <path class="cls-10" d="M150.51,179.567c-4.5-1.97-6.2-8.02-3.8-13.51s7.99-8.35,12.49-6.39l6.05,2.65c-4.49-1.97-10.08.89-12.48,6.39-2.4,5.49-.7,11.54,3.79,13.5l-6.05-2.64Z"/>
        <path class="cls-2" d="M158.7,178.217c-2.62-1.15-3.61-4.68-2.21-7.89s4.67-4.88,7.29-3.73c2.63,1.15,3.62,4.68,2.22,7.89s-4.67,4.88-7.3,3.73ZM156.67,170.197c-.48,1.57-.53,3.1-.15,5,.04.22.09.45.15.68.97.5,2.29,1.13,4.34,2.11.98-1.49,2.29-2.57,4.35-3.58-.55-2.21-.55-3.93-.01-5.67-2.06-.98-3.37-1.61-4.34-2.11-.07.04-.15.07-.22.11-.2.1-.4.21-.59.31-1.61.9-2.69,1.87-3.53,3.15Z"/>
        <path class="cls-1" d="M143.35,53.257c-.1-.01-.22-.01-.35,0l-.18-1.07,10.53-1.78c3.46-.58,6.9-.54,10.2.13-1.78,0-3.58.05-5.39.17-.37.03-.73.12-1.08.25-1.04.4-1.92,1.12-2.52,2.06-.04.06-.07.12-.11.18l.01,8.88-.1.01v-2.58c0-.94-.46-1.68-1.15-1.98l-.14-.06-9.49-4.15c-.06-.02-.12-.04-.18-.05-.02,0-.03-.01-.05-.01Z"/>
        <path class="cls-10" d="M113.21,206.217l-.01-7.65,40.25-6.79c5.73-.97,10.9-5.77,13.06-12.15,1.02-1.05,1.89-2.33,2.54-3.81,1.94-4.43,1.2-9.22-1.51-11.93l-.05-71.33,24.89-4.2c7.8-1.32,14.12,4.77,14.13,13.6l.06,88.51c0,8.83-6.31,17.05-14.1,18.36l-65.14,10.99c-7.79,1.32-14.12-4.77-14.12-13.6Z"/>
        <path class="cls-2" d="M115.13,141.147c-.61.84-1.27,1.63-1.97,2.39v-4.79c.05-.12.05-.26,0-.36l-.01-10.15c.3.97.84,1.79,1.55,2.38.06.05.11.09.16.14,2.62,2.36,2.74,7.01.27,10.39Z"/>
        <path class="cls-2" d="M114.7,130.617c-.71-.59-1.25-1.41-1.55-2.38v-3.93c.3-1.07.83-2.07,1.54-2.9,1.28-1.5,2.07-3.43,2.19-5.38,6.54-2.62,13.43-1.43,18.14,3.41.05.05.1.11.15.16,2.38,2.65,2.13,7.36-.56,10.51-2.25,2.62-2.46,6.54-.47,8.75.15.17.31.32.47.46.06.05.11.1.17.14,2.61,2.36,2.73,7.01.26,10.39-5.61,7.68-14.34,11.2-21.87,8.83l-.01-15.14c.7-.76,1.36-1.55,1.97-2.39,2.47-3.38,2.35-8.03-.27-10.39-.05-.05-.1-.09-.16-.14Z"/>
        <path class="cls-2" d="M113.14,117.987c1.22-.8,2.48-1.45,3.74-1.96-.12,1.95-.91,3.88-2.19,5.38-.71.83-1.24,1.83-1.54,2.9l-.01-6.32Z"/>
        <path class="cls-1" d="M113.2,198.567l-.03-39.89c7.53,2.37,16.26-1.15,21.87-8.83,2.47-3.38,2.35-8.03-.26-10.39-.06-.04-.11-.09-.17-.14-.16-.14-.32-.29-.47-.46-1.99-2.21-1.78-6.13.47-8.75,2.69-3.15,2.94-7.86.56-10.51-.05-.05-.1-.11-.15-.16-4.71-4.84-11.6-6.03-18.14-3.41-1.26.51-2.52,1.16-3.74,1.96v-.28c0-8.83,6.31-17.05,14.1-18.36l19.72-3.33.53.23.32.14c2.98,1.31,6.63.52,9.47-2.11l10.21-1.72.05,71.33c-.65-.66-1.42-1.19-2.29-1.57l-6.05-2.65c-4.5-1.96-10.09.9-12.49,6.39s-.7,11.54,3.8,13.51l6.05,2.64c3.29,1.44,7.17.29,9.95-2.58-2.16,6.38-7.33,11.18-13.06,12.15l-40.25,6.79Z"/>
        <path class="cls-2" d="M89.96,120.397c1.19-2.74,3.98-4.17,6.22-3.19s3.08,3.99,1.89,6.73c-1.2,2.74-3.98,4.16-6.22,3.18s-3.09-3.99-1.89-6.72Z"/>
        <path class="cls-10" d="M142.82,52.187l-54.61,9.21c-6.25.88-12,3.57-16.88,7.52l-.09-.12c-.06-.05-.11-.1-.17-.15-.6-.52-1.21-1.03-1.81-1.55-.62-.56-.92-1.4-.76-2.23h-.01c.16-.84.66-1.6,1.35-2.01,2.56-1.54,5.23-2.73,7.94-3.52,1.22-.38,2.46-.67,3.7-.88l47.11-7.95,18.03-3.04c3.85-.65,7.67-.52,11.28.38l.36.09,5.97,2.61c-.22-.01-.45-.01-.68-.01-3.3-.67-6.74-.71-10.2-.13l-10.53,1.78Z"/>
        <path class="cls-9" d="M26.62,247.887c-.65.03-1.29-.07-1.88-.3-1.64-.78-2.74-2.61-2.74-4.88v-8.8c0-.2,0-.4.02-.6.09-1.07.41-2.09.9-2.99,1.08-2,2.97-3.41,5.03-3.53,15.44-.9,30.93-2.34,46.43-4.32,2.87,1.07,5.99,1.63,9.29,1.61,5.2,6.2,11.24,11.4,17.95,15.44-25.05,4.21-50.07,7-75,8.37Z"/>
        <path class="cls-10" d="M81.48,58.457c-1.24.21-2.48.5-3.7.88v-.02l4.69-6.11c.82-1.06,1.92-1.76,3.07-1.95l35.49-5.99c1.15-.2,2.25.14,3.07.92l4.49,4.32-47.11,7.95Z"/>
        <path class="cls-8" d="M78.54,213.137l2.11-1.33,4.7-2.94c1.28-.8,2.32-2.11,2.9-3.63l3.79-2.38c2.77-1.74,5.94-.75,7.06,2.21,1.13,2.95-.21,6.76-2.99,8.5l-6.9,4.33c-1.12.7-1.65,2.22-1.2,3.41.06.15.13.3.22.43l-9.42-4.12c-.14-.21-.26-.43-.35-.67-.04-.08-.06-.15-.09-.23-.11-.32-.19-.68-.23-1.03s-.03-.69-.01-.98c.03-.32.08-.63.15-.89.07-.23.14-.43.22-.59.01-.03.03-.06.04-.09Z"/>
        <path class="cls-10" d="M80.65,211.807c-3.08-2.67-5.29-6.34-6.46-10.58l.38-.1c.03.11.07.22.11.31.09.22.23.39.37.48.03.02.06.04.1.06l9.85,4.3.04.02c.3.13.65.17,1.02.11.28-.04.56-.15.82-.31l1.37-.86c-.58,1.52-1.62,2.83-2.9,3.63l-4.7,2.94Z"/>
        <path class="cls-10" d="M74.19,201.227c-.63-2.26-.96-4.69-.96-7.22l-.07-88.51c-.01-14.26,10.19-27.54,22.78-29.66l8.29-1.4c-11.77,10.36-21.77,23.62-28.94,38.84-.58,1.22-.88,2.55-.88,3.85l.06,83.08c0,.11,0,.22.01.32,0,.08.01.15.02.22.02.13.04.26.07.38l-.38.1Z"/>
        <path class="cls-2" d="M60.74,80.067c-1.54-.73-2.53-1.21-3.26-1.58-.04-.17-.08-.34-.11-.51l2.76-2.28,3.37,1.47.11.08c-.2.26-.38.52-.55.79l-.11-.08c-.94.57-1.64,1.24-2.21,2.11Z"/>
        <path class="cls-2" d="M60.13,75.697l-2.76,2.28c-.3-1.43-.26-2.58.11-3.75.63-.97,1.45-1.69,2.65-2.36v3.83Z"/>
        <path class="cls-2" d="M63.99,73.127c-1.54-.73-2.53-1.21-3.26-1.58-.05.03-.11.05-.16.08l3.42,1.5ZM57.41,74.197c.7-1.51,2.01-2.66,3.52-2.9,2.24-.36,4.04,1.4,4.02,3.93l.1.08c-.51.63-.99,1.28-1.44,1.94l-.11-.08-3.37-1.47v-3.83c-1.2.67-2.02,1.39-2.65,2.36l-.07-.03Z"/>
        <path class="cls-10" d="M53.41,79.617c-1.29-4.3.9-9.52,4.9-11.65,2.04-1.09,4.15-1.16,5.9-.4h.01c1.68.74,3.02,2.23,3.65,4.34l.08.08c-1.02,1.05-2,2.16-2.9,3.32l-.1-.08c.02-2.53-1.78-4.29-4.02-3.93-1.51.24-2.82,1.39-3.52,2.9l.07.03c-.37,1.17-.41,2.32-.11,3.75.03.17.07.34.11.51.73.37,1.72.85,3.26,1.58.57-.87,1.27-1.54,2.21-2.11l.11.08c-1.21,1.81-2.29,3.72-3.23,5.72l-.19-.08-4.1-1.79c-.36-.16-.75-.2-1.12-.14-.44-.63-.78-1.35-1.01-2.13Z"/>
        <path class="cls-10" d="M54.11,81.827c.1-.03.21-.06.31-.08.37-.06.76-.02,1.12.14l4.1,1.79.19.08c-2.86,6.09-4.39,12.96-4.16,20.01l.06,88.52c0,6.22,1.38,11.9,3.82,16.67l-6.04-2.5c-.09-.04-.18-.09-.27-.14v-.01c-.27-.18-.49-.43-.64-.74-1.25-2.55-2.19-5.31-2.78-8.22-.54-2.57-.82-5.25-.82-8l-.01-8.06v-9.8l-.05-65.85v-4.81c0-1.4.07-2.81.21-4.22.03-.41.08-.81.14-1.22.51-4.06,1.6-8.11,3.22-11.99.18-.43.45-.8.78-1.09.25-.21.52-.38.82-.48Z"/>
        <path class="cls-10" d="M58.31,67.967c-4,2.13-6.19,7.35-4.9,11.65.23.78.57,1.5,1.01,2.13-.1.02-.21.05-.31.08-.3.1-.57.27-.82.48l-1.07-.47c-3.56-1.56-4.99-6.22-3.33-10.6.06-.17.13-.35.21-.52,1.97-4.52,6.58-6.88,10.28-5.26l4.83,2.11c-1.75-.76-3.86-.69-5.9.4Z"/>
        <path class="cls-10" d="M53.51,206.457l6.04,2.5c.53,1.04,1.12,2.04,1.76,3l-.33.22c-1.38.28-2.69.13-3.83-.38-2.01-.88-3.5-2.85-3.91-5.48.09.05.18.1.27.14Z"/>
        <path class="cls-10" d="M52.31,209.687c-.34-.15-.67-.33-.98-.54-1.12-.76-1.94-1.86-2.45-3.14-1.01-2.55-.75-5.84.93-8.66h.01c.59,2.91,1.53,5.67,2.78,8.22.15.31.37.56.64.74v.01c.41,2.63,1.9,4.6,3.91,5.48v.01l-4.84-2.12Z"/>
        <path class="cls-4" d="M40.35,108.057l8.8-11.45c-.14,1.41-.21,2.82-.21,4.22v4.81c-2.08,6.12-3.15,12.48-3.15,18.71l.03,29.51c0,6.23,1.08,12.21,3.17,17.63v8.77l-8.59-8.28-.05-63.92Z"/>
        <path class="cls-2" d="M48.94,105.637l.05,65.85c-2.09-5.42-3.17-11.4-3.17-17.63l-.03-29.51c0-6.23,1.07-12.59,3.15-18.71Z"/>
        <path class="cls-9" d="M49.81,197.347c-1.68,2.82-1.94,6.11-.93,8.66l-.81.4c-.3-.7-.67-1.35-1.13-1.93-4.22-5.36-6.53-12.48-6.53-20.2l-.01-11.25,8.59,8.26.01,8.06c0,2.75.28,5.43.82,8h-.01Z"/>
        <path class="cls-9" d="M52.22,81.837l1.07.47c-.33.29-.6.66-.78,1.09-1.62,3.88-2.71,7.93-3.22,11.99h-.01l-8.93,11.62-.01-11.25c0-7.72,2.29-15.61,6.51-22.4.47-.75.85-1.54,1.14-2.34l.9.22c-1.66,4.38-.23,9.04,3.33,10.6Z"/>
        <path class="cls-10" d="M41.14,65.277c.07-1.85-.47-3.62-1.61-4.9,1.15-.02,2.25.32,3.17.99,2.83,2.04,3.32,6.6,1.1,10.17-4.52,7.27-6.98,15.72-6.97,24l.01,13.71-4.04-1.76v-1.3l-.01-12.41c0-8.28,2.45-16.73,6.97-24,.87-1.41,1.33-2.98,1.38-4.5Z"/>
        <path class="cls-10" d="M36.89,184.047c.01,7.25,1.89,13.99,5.4,19.41l-2.43.47c-4.53-5.74-7-13.36-7.01-21.64l-.01-13.71.64.28,3.4,1.49.01,13.7Z"/>
        <polygon class="cls-1" points="40.35 108.057 40.4 171.977 36.88 169.297 36.84 110.287 40.35 108.057"/>
        <path class="cls-10" d="M13.6,58.187c1.01,1.28,2.28,2.29,3.76,2.94l3.88,1.69.16.07c1.68.74,3.6.99,5.63.65.39-.06.78-.15,1.16-.26.51-.14,1.01-.28,1.52-.42,2.8-.77,5.61-1.53,8.42-2.28.47-.12.94-.19,1.4-.2,1.14,1.28,1.68,3.05,1.61,4.9-6.21,7.98-9.7,18.03-9.69,27.91l.01,14.75,5.38,2.35.04,59.01-5.38-2.35.01,14.75c.01,9.71,3.39,18.46,9.43,24.35.19.63.29,1.3.3,2l-10.67-4.67c-3.18-1.39-6.07-3.42-8.52-6.01l-6.73-2.94c-5.59-5.87-8.7-14.31-8.7-23.6l-.07-88.52c0-8.32,2.48-16.83,7.05-24.12Z"/>
        <path class="cls-1" d="M42.7,61.367c-.92-.67-2.02-1.01-3.17-.99-.46.01-.93.08-1.4.2-2.81.75-5.62,1.51-8.42,2.28l-.38-1.4c3.31-.93,6.63-1.83,9.96-2.71,2.19-.58,4.37-.2,6.1,1.05,3.17,2.29,4.14,6.96,2.6,11.22-.29.8-.67,1.59-1.14,2.34-4.22,6.79-6.51,14.68-6.51,22.4l.01,11.25-3.51,2.24-.01-13.71c-.01-8.28,2.45-16.73,6.97-24,2.22-3.57,1.73-8.13-1.1-10.17Z"/>
        <polygon class="cls-2" points="40.4 171.977 48.99 180.257 48.99 181.287 40.4 173.027 36.88 170.347 33.48 168.857 31.5 166.947 36.88 169.297 40.4 171.977"/>
        <path class="cls-10" d="M38.24,218.567c-3.32.24-6.63.46-9.94.65l-.12-2c2-.13,4.01-.27,6.02-.42,3.59-.26,6.74-3.8,7.03-7.91.02-.28.03-.57.01-.84-.01-.7-.11-1.37-.3-2-.23-.79-.6-1.51-1.08-2.12l2.43-.47c.5.78,1.03,1.52,1.6,2.24,1.03,1.29,1.52,3.06,1.38,4.95-.3,4.11-3.45,7.66-7.03,7.92Z"/>
        <path class="cls-2" d="M40.94,206.047c-6.04-5.89-9.42-14.64-9.43-24.35l-.01-14.75,1.98,1.91-.64-.28.01,13.71c.01,8.28,2.48,15.9,7.01,21.64.48.61.85,1.33,1.08,2.12Z"/>
        <path class="cls-2" d="M36.84,110.287l-5.38-2.35,1.34-1.75v1.3l4.04,1.76,3.51-2.24,8.93-11.62h.01c-.06.41-.11.81-.14,1.22l-8.8,11.45-3.51,2.23Z"/>
        <path class="cls-2" d="M31.45,93.187c-.01-9.88,3.48-19.93,9.69-27.91-.05,1.52-.51,3.09-1.38,4.5-4.52,7.27-6.97,15.72-6.97,24l.01,12.41-1.34,1.75-.01-14.75Z"/>
        <path class="cls-1" d="M27.03,63.537c-2.03.34-3.95.09-5.63-.65l-.16-.07c-3.67-1.69-6.15-5.7-6.16-10.79v-8.8c-.01-6.95,4.63-13.55,10.73-15.27C76.42,13.647,127.41,5.047,178.02,2.277c1.48-.08,2.88.16,4.14.66,3.94,1.57,6.61,5.73,6.62,10.98v8.81c0,.43-.02.88-.05,1.32-.64,7.54-6.48,13.96-13.04,14.35-3.31.19-6.62.41-9.93.65-3.59.26-6.74,3.81-7.04,7.92-.03.39-.03.77,0,1.15l-.21-.09c-.08-.04-.16-.07-.25-.09l-.36-.09v-.14c.4-5.48,4.6-10.2,9.38-10.55,3.32-.25,6.65-.47,9.96-.66,4.37-.25,8.34-3.77,9.95-8.39.38-1.07.62-2.19.72-3.35.03-.36.05-.72.05-1.08l-.01-8.8c0-5.69-3.81-9.8-8.8-9.53-50.47,2.76-101.31,11.34-151.77,25.61-4.05,1.15-7.32,4.93-8.41,9.35-.25,1.02-.38,2.07-.38,3.14l.01,8.8c0,6.11,4.38,10.33,9.78,9.42.31-.05.63-.12.95-.21l.38,1.4c-.51.14-1.01.28-1.52.42-.38.11-.77.2-1.16.26Z"/>
        <path class="cls-9" d="M27.56,56.047c-1.02.28-2.03.24-2.95-.12h-.01c-1.63-.79-2.73-2.59-2.73-4.88l-.01-8.8c0-3.16,2.11-6.16,4.88-6.94,50.17-14.19,100.72-22.72,150.9-25.46.67-.04,1.31.07,1.88.3,1.7.8,2.74,2.67,2.74,4.87l.01,8.81c0,.19-.01.4-.03.6-.29,3.42-2.94,6.34-5.92,6.52-49.48,2.88-99.3,11.29-148.76,25.1Z"/>
        <path class="cls-1" d="M25.97,255.337c-1.6.09-3.09-.19-4.43-.78l-.18-.08c-3.68-1.7-6.14-5.74-6.14-10.78l-.01-8.81c0-.44.02-.88.06-1.32.63-7.54,6.47-13.97,13.03-14.35,3.31-.19,6.62-.41,9.94-.65,3.58-.26,6.73-3.81,7.03-7.92.14-1.89-.35-3.66-1.38-4.95-.57-.72-1.1-1.46-1.6-2.24-3.51-5.42-5.39-12.16-5.4-19.41l-.01-13.7,3.52,2.68.01,11.25c0,7.72,2.31,14.84,6.53,20.2.46.58.83,1.23,1.13,1.93.58,1.39.83,3,.71,4.67-.4,5.48-4.6,10.21-9.38,10.56-3.32.24-6.64.46-9.96.65-4.7.28-8.95,4.33-10.28,9.48-.19.73-.32,1.49-.39,2.26-.03.36-.04.72-.04,1.08l.01,8.81c0,5.68,3.8,9.8,8.8,9.52,27.4-1.5,54.93-4.71,82.47-9.63l2.63,1.15c-28.94,5.34-57.87,8.8-86.67,10.38Z"/>
        <path class="cls-9" d="M19.16,231.767c1.33-5.15,5.58-9.2,10.28-9.48,3.32-.19,6.64-.41,9.96-.65,4.78-.35,8.98-5.08,9.38-10.56.12-1.67-.13-3.28-.71-4.67l.81-.4c.51,1.28,1.33,2.38,2.45,3.14.31.21.64.39.98.54l4.84,2.12v-.01c1.14.51,2.45.66,3.83.38l.33-.22c2.71,4.11,6.33,7.35,10.57,9.44l-.01.02c-14.25,1.74-28.48,3.02-42.68,3.85-2.77.16-5.32,2.12-6.71,4.83-.36.67-.63,1.38-.83,2.12l-2.49-.45Z"/>
        <path class="cls-1" d="M74.38,222.467c-15.5,1.98-30.99,3.42-46.43,4.32-2.06.12-3.95,1.53-5.03,3.53l-.44-.22c1.39-2.71,3.94-4.67,6.71-4.83,14.2-.83,28.43-2.11,42.68-3.85l.01-.02c.19.1.38.19.57.28l.51.22c.46.21.94.4,1.42.57Z"/>
        <path class="cls-9" d="M27.64,33.847c-2.97.84-5.37,3.61-6.16,6.85l-2.51-.39c1.09-4.42,4.36-8.2,8.41-9.35,50.46-14.27,101.3-22.85,151.77-25.61,4.99-.27,8.8,3.84,8.8,9.53l.01,8.8c0,.36-.02.72-.05,1.08-.1,1.16-.34,2.28-.72,3.35l-2.4-.74c.28-.78.46-1.61.53-2.46.02-.26.03-.53.03-.79l-.01-8.8c0-4.17-2.79-7.19-6.45-6.99-50.29,2.75-100.96,11.3-151.25,25.52Z"/>
        <path class="cls-1" d="M21.37,233.877c.05-.56.14-1.12.28-1.66.2-.74.47-1.45.83-2.12l.44.22c-.49.9-.81,1.92-.9,2.99-.02.2-.02.4-.02.6v8.8c0,2.27,1.1,4.1,2.74,4.88.65.31,1.37.46,2.15.42,24.91-1.37,49.92-4.16,74.95-8.36,1.18.7,2.39,1.37,3.61,2.01-25.93,4.45-51.85,7.39-77.66,8.8-3.66.2-6.45-2.82-6.45-6.98l-.01-8.81c0-.26.02-.52.04-.79Z"/>
        <path class="cls-1" d="M21.87,51.047c0,2.29,1.1,4.09,2.73,4.88h.01c.79.38,1.71.52,2.69.35.17-.03.35-.07.52-.12,49.47-13.8,99.29-22.21,148.77-25.09,2.98-.18,5.63-3.1,5.92-6.53.02-.2.03-.4.03-.6l-.01-8.8c0-2.39-1.21-4.29-3.01-4.99-.57-.23-1.21-.34-1.88-.3-50.18,2.74-100.73,11.27-150.9,25.46-2.77.78-4.88,3.78-4.88,6.94l.01,8.8ZM21.48,40.697c.79-3.24,3.19-6.01,6.16-6.85,50.29-14.22,100.96-22.77,151.25-25.52,3.66-.2,6.45,2.82,6.45,6.99l.01,8.8c0,.26-.01.53-.03.79-.07.85-.25,1.68-.53,2.46-1.18,3.39-4.1,5.96-7.29,6.15-49.37,2.88-99.08,11.27-148.43,25.04-.23.07-.46.12-.69.16-3.96.67-7.17-2.42-7.18-6.91v-8.8c0-.78.1-1.56.28-2.31Z"/>
        <path class="cls-10" d="M28.3,219.217c-6.56.38-12.4,6.81-13.03,14.35-.04.44-.06.88-.06,1.32l.01,8.81c0,5.04,2.46,9.08,6.14,10.78l-3.86-1.69c-3.89-1.7-6.31-5.87-6.32-10.86v-8.8c0-.44.01-.88.05-1.32.64-7.55,6.47-13.97,13.04-14.35,1.3-.07,2.6-.15,3.91-.24l.12,2Z"/>
        <path class="cls-9" d="M21.37,233.877c-.02.27-.04.53-.04.79l.01,8.81c0,4.16,2.79,7.18,6.45,6.98,25.81-1.41,51.73-4.35,77.66-8.8,1.34.69,2.7,1.34,4.08,1.94l.48.21c-27.54,4.92-55.07,8.13-82.47,9.63-5,.28-8.8-3.84-8.8-9.52l-.01-8.81c0-.36.01-.72.04-1.08.07-.77.2-1.53.39-2.26l2.49.45c-.14.54-.23,1.1-.28,1.66Z"/>
        <path class="cls-9" d="M21.2,51.807c.01,4.49,3.22,7.58,7.18,6.91.23-.04.46-.09.69-.16,49.35-13.77,99.06-22.16,148.43-25.04,3.19-.19,6.11-2.76,7.29-6.15l2.4.74c-1.61,4.62-5.58,8.14-9.95,8.39-3.31.19-6.64.41-9.96.66-4.78.35-8.98,5.07-9.38,10.55v.14c-3.61-.9-7.43-1.03-11.28-.38l-18.03,3.04-4.49-4.32c-.82-.78-1.92-1.12-3.07-.92l-35.49,5.99c-1.15.19-2.25.89-3.07,1.95l-4.69,6.11v.02c-2.71.79-5.38,1.98-7.94,3.52-.69.41-1.19,1.17-1.35,2.01h.01c-.16.83.14,1.67.76,2.23.6.52,1.21,1.03,1.81,1.55.06.05.11.1.17.15l.09.12c-1.18.95-2.31,1.98-3.38,3.07l-.08-.08c-.63-2.11-1.97-3.6-3.65-4.34h-.01l-4.83-2.11c-3.7-1.62-8.31.74-10.28,5.26-.08.17-.15.35-.21.52l-.9-.22c1.54-4.26.57-8.93-2.6-11.22-1.73-1.25-3.91-1.63-6.1-1.05-3.33.88-6.65,1.78-9.96,2.71-.32.09-.64.16-.95.21-5.4.91-9.78-3.31-9.78-9.42l-.01-8.8c0-1.07.13-2.12.38-3.14l2.51.39c-.18.75-.28,1.53-.28,2.31v8.8Z"/>
        <path class="cls-10" d="M17.36,61.127c-1.48-.65-2.75-1.66-3.76-2.94-1.55-1.97-2.46-4.58-2.54-7.5-.01-.14-.01-.28-.01-.42l-.01-8.81c-.01-6.94,4.63-13.54,10.74-15.26C72.38,11.887,123.37,3.287,173.98.517c1.56-.09,3.06.18,4.44.78l3.74,1.63v.01c-1.26-.5-2.66-.74-4.14-.66C127.41,5.047,76.42,13.647,25.81,27.957c-6.1,1.72-10.74,8.32-10.73,15.27v8.8c.01,5.09,2.49,9.1,6.16,10.79l-3.88-1.69Z"/>
        <path class="cls-10" d="M6.62,170.827c0,9.29,3.11,17.73,8.7,23.6l6.73,2.94c2.45,2.59,5.34,4.62,8.52,6.01l-12.78-5.58c-10.6-4.63-17.22-16.02-17.23-29.62l-.06-88.51c-.01-10.34,3.82-20.86,10.55-28.98h.01c.08,2.92.99,5.53,2.54,7.5-4.57,7.29-7.05,15.8-7.05,24.12l.07,88.52Z"/>
      </g>
      <g>
        <polyline class="cls-6" points="32.84 168.577 33.48 168.857 36.88 170.347"/>
        <line class="cls-6" x1="40.4" y1="173.027" x2="36.88" y2="170.347"/>
        <polyline class="cls-6" points="49 181.297 48.99 181.287 40.4 173.027"/>
        <line class="cls-6" x1="36.88" y1="170.347" x2="36.89" y2="184.047"/>
        <line class="cls-6" x1="40.41" y1="184.277" x2="40.4" y2="173.027"/>
        <path class="cls-6" d="M46.94,204.477c-4.22-5.36-6.53-12.48-6.53-20.2"/>
        <path class="cls-6" d="M36.89,184.047c.01,7.25,1.89,13.99,5.4,19.41.5.78,1.03,1.52,1.6,2.24"/>
        <path class="cls-6" d="M39.4,221.637c4.78-.35,8.98-5.08,9.38-10.56.12-1.67-.13-3.28-.71-4.67-.3-.7-.67-1.35-1.13-1.93"/>
        <path class="cls-6" d="M43.89,205.697c1.03,1.29,1.52,3.06,1.38,4.95-.3,4.11-3.45,7.66-7.03,7.92"/>
        <path class="cls-6" d="M29.44,222.287c3.32-.19,6.64-.41,9.96-.65"/>
        <path class="cls-6" d="M38.24,218.567c-3.32.24-6.63.46-9.94.65"/>
        <path class="cls-6" d="M18.73,235.107c0-.36.01-.72.04-1.08.07-.77.2-1.53.39-2.26,1.33-5.15,5.58-9.2,10.28-9.48"/>
        <path class="cls-6" d="M28.3,219.217c-6.56.38-12.4,6.81-13.03,14.35-.04.44-.06.88-.06,1.32"/>
        <line class="cls-6" x1="18.74" y1="243.917" x2="18.73" y2="235.107"/>
        <line class="cls-6" x1="15.21" y1="234.887" x2="15.22" y2="243.697"/>
        <path class="cls-6" d="M27.54,253.437c-5,.28-8.8-3.84-8.8-9.52"/>
        <path class="cls-6" d="M21.54,254.557c1.34.59,2.83.87,4.43.78"/>
        <path class="cls-6" d="M15.22,243.697c0,5.04,2.46,9.08,6.14,10.78"/>
        <path class="cls-6" d="M110.01,243.807c-27.54,4.92-55.07,8.13-82.47,9.63"/>
        <path class="cls-6" d="M25.97,255.337c28.8-1.58,57.73-5.04,86.67-10.38"/>
        <path class="cls-6" d="M27.79,250.457c25.81-1.41,51.73-4.35,77.66-8.8"/>
        <path class="cls-6" d="M21.34,243.477c0,4.16,2.79,7.18,6.45,6.98"/>
        <line class="cls-6" x1="21.33" y1="234.667" x2="21.34" y2="243.477"/>
        <path class="cls-6" d="M29.19,225.267c-2.77.16-5.32,2.12-6.71,4.83-.36.67-.63,1.38-.83,2.12-.14.54-.23,1.1-.28,1.66-.02.27-.04.53-.04.79"/>
        <path class="cls-6" d="M71.87,221.417c-14.25,1.74-28.48,3.02-42.68,3.85"/>
        <line class="cls-6" x1="32.85" y1="182.287" x2="32.84" y2="168.577"/>
        <path class="cls-6" d="M39.86,203.927c-4.53-5.74-7-13.36-7.01-21.64"/>
        <path class="cls-6" d="M34.2,216.797c3.59-.26,6.74-3.8,7.03-7.91.02-.28.03-.57.01-.84-.01-.7-.11-1.37-.3-2-.23-.79-.6-1.51-1.08-2.12"/>
        <path class="cls-6" d="M24.27,217.457c1.3-.07,2.6-.15,3.91-.24,2-.13,4.01-.27,6.02-.42"/>
        <path class="cls-6" d="M11.18,233.127c0-.44.01-.88.05-1.32.64-7.55,6.47-13.97,13.04-14.35"/>
        <line class="cls-6" x1="11.18" y1="241.927" x2="11.18" y2="233.127"/>
        <path class="cls-6" d="M17.5,252.787c-3.89-1.7-6.31-5.87-6.32-10.86"/>
        <path class="cls-6" d="M101.84,239.647c-25.03,4.2-50.04,6.99-74.95,8.36"/>
        <path class="cls-6" d="M26.89,248.007c-.78.04-1.5-.11-2.15-.42-1.64-.78-2.74-2.61-2.74-4.88"/>
        <line class="cls-6" x1="22" y1="242.707" x2="22" y2="233.907"/>
        <path class="cls-6" d="M22,233.907c0-.2,0-.4.02-.6.09-1.07.41-2.09.9-2.99,1.08-2,2.97-3.41,5.03-3.53"/>
        <path class="cls-6" d="M27.95,226.787c15.44-.9,30.93-2.34,46.43-4.32"/>
        <path class="cls-6" d="M26.62,247.887c-.65.03-1.29-.07-1.88-.3"/>
        <path class="cls-6" d="M101.62,239.517c-25.05,4.21-50.07,7-75,8.37"/>
        <polyline class="cls-6" points="17.5 252.787 21.36 254.477 21.54 254.557"/>
        <path class="cls-6" d="M167.28,37.157c-4.78.35-8.98,5.07-9.38,10.55v.14"/>
        <path class="cls-6" d="M158.72,48.117c-.03-.38-.03-.76,0-1.15.3-4.11,3.45-7.66,7.04-7.92"/>
        <path class="cls-6" d="M177.24,36.497c-3.31.19-6.64.41-9.96.66"/>
        <path class="cls-6" d="M165.76,39.047c3.31-.24,6.62-.46,9.93-.65"/>
        <path class="cls-6" d="M187.96,23.677c0,.36-.02.72-.05,1.08-.1,1.16-.34,2.28-.72,3.35-1.61,4.62-5.58,8.14-9.95,8.39"/>
        <path class="cls-6" d="M175.69,38.397c6.56-.39,12.4-6.81,13.04-14.35.03-.44.05-.89.05-1.32"/>
        <line class="cls-6" x1="187.95" y1="14.877" x2="187.96" y2="23.677"/>
        <line class="cls-6" x1="188.78" y1="22.727" x2="188.78" y2="13.917"/>
        <path class="cls-6" d="M179.15,5.347c4.99-.27,8.8,3.84,8.8,9.53"/>
        <path class="cls-6" d="M188.78,13.917c-.01-5.25-2.68-9.41-6.62-10.98-1.26-.5-2.66-.74-4.14-.66"/>
        <path class="cls-6" d="M27.38,30.957c50.46-14.27,101.3-22.85,151.77-25.61"/>
        <path class="cls-6" d="M178.02,2.277C127.41,5.047,76.42,13.647,25.81,27.957"/>
        <path class="cls-6" d="M18.59,43.447c0-1.07.13-2.12.38-3.14,1.09-4.42,4.36-8.2,8.41-9.35"/>
        <path class="cls-6" d="M25.81,27.957c-6.1,1.72-10.74,8.32-10.73,15.27"/>
        <line class="cls-6" x1="18.6" y1="52.247" x2="18.59" y2="43.447"/>
        <line class="cls-6" x1="15.08" y1="43.227" x2="15.08" y2="52.027"/>
        <path class="cls-6" d="M29.33,61.457c-.32.09-.64.16-.95.21-5.4.91-9.78-3.31-9.78-9.42"/>
        <path class="cls-6" d="M21.4,62.887c1.68.74,3.6.99,5.63.65.39-.06.78-.15,1.16-.26"/>
        <path class="cls-6" d="M15.08,52.027c.01,5.09,2.49,9.1,6.16,10.79"/>
        <path class="cls-6" d="M39.29,58.747c-3.33.88-6.65,1.78-9.96,2.71"/>
        <path class="cls-6" d="M28.19,63.277c.51-.14,1.01-.28,1.52-.42,2.8-.77,5.61-1.53,8.42-2.28"/>
        <path class="cls-6" d="M46.85,73.357c.47-.75.85-1.54,1.14-2.34,1.54-4.26.57-8.93-2.6-11.22-1.73-1.25-3.91-1.63-6.1-1.05"/>
        <path class="cls-6" d="M38.13,60.577c.47-.12.94-.19,1.4-.2,1.15-.02,2.25.32,3.17.99,2.83,2.04,3.32,6.6,1.1,10.17"/>
        <path class="cls-6" d="M40.34,95.757c0-7.72,2.29-15.61,6.51-22.4"/>
        <path class="cls-6" d="M43.8,71.537c-4.52,7.27-6.98,15.72-6.97,24"/>
        <line class="cls-6" x1="36.84" y1="109.247" x2="40.35" y2="107.007"/>
        <line class="cls-6" x1="40.35" y1="107.007" x2="40.34" y2="95.757"/>
        <line class="cls-6" x1="36.83" y1="95.537" x2="36.84" y2="109.247"/>
        <path class="cls-6" d="M178.89,8.327c-50.29,2.75-100.96,11.3-151.25,25.52"/>
        <path class="cls-6" d="M185.34,15.317c0-4.17-2.79-7.19-6.45-6.99"/>
        <line class="cls-6" x1="185.35" y1="24.117" x2="185.34" y2="15.317"/>
        <path class="cls-6" d="M177.5,33.517c3.19-.19,6.11-2.76,7.29-6.15.28-.78.46-1.61.53-2.46.02-.26.03-.53.03-.79"/>
        <path class="cls-6" d="M29.07,58.557c49.35-13.77,99.06-22.16,148.43-25.04"/>
        <path class="cls-6" d="M21.2,51.807c.01,4.49,3.22,7.58,7.18,6.91.23-.04.46-.09.69-.16"/>
        <line class="cls-6" x1="21.2" y1="43.007" x2="21.2" y2="51.807"/>
        <path class="cls-6" d="M27.64,33.847c-2.97.84-5.37,3.61-6.16,6.85-.18.75-.28,1.53-.28,2.31"/>
        <line class="cls-6" x1="40.35" y1="107.007" x2="49.28" y2="95.387"/>
        <line class="cls-6" x1="32.8" y1="107.487" x2="36.84" y2="109.247"/>
        <path class="cls-6" d="M173.98.517c1.56-.09,3.06.18,4.44.78"/>
        <path class="cls-6" d="M21.78,26.197C72.38,11.887,123.37,3.287,173.98.517"/>
        <path class="cls-6" d="M11.04,41.457c-.01-6.94,4.63-13.54,10.74-15.26"/>
        <line class="cls-6" x1="11.05" y1="50.267" x2="11.04" y2="41.457"/>
        <path class="cls-6" d="M17.36,61.127c-1.48-.65-2.75-1.66-3.76-2.94-1.55-1.97-2.46-4.58-2.54-7.5-.01-.14-.01-.28-.01-.42"/>
        <path class="cls-6" d="M39.76,69.777c.87-1.41,1.33-2.98,1.38-4.5.07-1.85-.47-3.62-1.61-4.9"/>
        <path class="cls-6" d="M32.79,93.777c0-8.28,2.45-16.73,6.97-24"/>
        <polyline class="cls-6" points="32.8 107.487 32.8 106.187 32.79 93.777"/>
        <path class="cls-6" d="M26.74,35.307c50.17-14.19,100.72-22.72,150.9-25.46"/>
        <path class="cls-6" d="M177.64,9.847c.67-.04,1.31.07,1.88.3,1.8.7,3.01,2.6,3.01,4.99"/>
        <line class="cls-6" x1="182.53" y1="15.137" x2="182.54" y2="23.937"/>
        <path class="cls-6" d="M182.54,23.937c0,.2-.01.4-.03.6-.29,3.43-2.94,6.35-5.92,6.53"/>
        <path class="cls-6" d="M176.59,31.067c-49.48,2.88-99.3,11.29-148.77,25.09"/>
        <path class="cls-6" d="M24.6,55.927c-1.63-.79-2.73-2.59-2.73-4.88"/>
        <path class="cls-6" d="M27.82,56.157c-.17.05-.35.09-.52.12-.98.17-1.9.03-2.69-.35"/>
        <line class="cls-6" x1="21.87" y1="51.047" x2="21.86" y2="42.247"/>
        <path class="cls-6" d="M21.86,42.247c0-3.16,2.11-6.16,4.88-6.94"/>
        <path class="cls-6" d="M182.27,23.827c0,.19-.01.4-.03.6-.29,3.42-2.94,6.34-5.92,6.52"/>
        <line class="cls-6" x1="182.26" y1="15.017" x2="182.27" y2="23.827"/>
        <path class="cls-6" d="M179.52,10.147c1.7.8,2.74,2.67,2.74,4.87"/>
        <path class="cls-6" d="M27.56,56.047c-1.02.28-2.03.24-2.95-.12h-.01"/>
        <path class="cls-6" d="M176.32,30.947c-49.48,2.88-99.3,11.29-148.76,25.1"/>
        <polyline class="cls-6" points="17.36 61.127 21.24 62.817 21.4 62.887"/>
        <polyline class="cls-6" points="178.42 1.297 182.16 2.927 182.46 3.057"/>
        <path class="cls-6" d="M113.16,138.387c.05.1.05.24,0,.36"/>
        <path class="cls-6" d="M11.05,50.687C4.32,58.807.49,69.327.5,79.667"/>
        <line class="cls-6" x1=".5" y1="79.667" x2=".56" y2="168.177"/>
        <path class="cls-6" d="M.56,168.177c.01,13.6,6.63,24.99,17.23,29.62"/>
        <line class="cls-6" x1="17.79" y1="197.797" x2="30.57" y2="203.377"/>
        <line class="cls-6" x1="36.88" y1="169.297" x2="40.4" y2="171.977"/>
        <line class="cls-6" x1="40.4" y1="171.977" x2="40.35" y2="108.057"/>
        <line class="cls-6" x1="40.35" y1="108.057" x2="36.84" y2="110.287"/>
        <line class="cls-6" x1="36.84" y1="110.287" x2="36.88" y2="169.297"/>
        <line class="cls-6" x1="82.47" y1="53.207" x2="77.78" y2="59.317"/>
        <line class="cls-6" x1="49.15" y1="96.607" x2="40.35" y2="108.057"/>
        <line class="cls-6" x1="32.8" y1="106.187" x2="31.46" y2="107.937"/>
        <line class="cls-6" x1="36.84" y1="110.287" x2="31.46" y2="107.937"/>
        <line class="cls-6" x1="40.4" y1="171.977" x2="48.99" y2="180.257"/>
        <line class="cls-6" x1="128.59" y1="50.507" x2="124.1" y2="46.187"/>
        <path class="cls-6" d="M121.03,45.267c1.15-.2,2.25.14,3.07.92"/>
        <line class="cls-6" x1="121.03" y1="45.267" x2="85.54" y2="51.257"/>
        <path class="cls-6" d="M82.47,53.207c.82-1.06,1.92-1.76,3.07-1.95"/>
        <path class="cls-6" d="M45.82,153.857c0,6.23,1.08,12.21,3.17,17.63"/>
        <line class="cls-6" x1="45.79" y1="124.347" x2="45.82" y2="153.857"/>
        <path class="cls-6" d="M48.94,105.637c-2.08,6.12-3.15,12.48-3.15,18.71"/>
        <line class="cls-6" x1="15.32" y1="194.427" x2="22.05" y2="197.367"/>
        <path class="cls-6" d="M31.45,93.187c-.01-9.88,3.48-19.93,9.69-27.91l.01-.01"/>
        <line class="cls-6" x1="31.46" y1="107.937" x2="31.45" y2="93.187"/>
        <line class="cls-6" x1="31.5" y1="166.947" x2="36.88" y2="169.297"/>
        <line class="cls-6" x1="33.48" y1="168.857" x2="31.5" y2="166.947"/>
        <path class="cls-6" d="M40.94,206.047c-6.04-5.89-9.42-14.64-9.43-24.35"/>
        <line class="cls-6" x1="31.51" y1="181.697" x2="31.5" y2="166.947"/>
        <line class="cls-6" x1="6.62" y1="170.827" x2="6.55" y2="82.307"/>
        <path class="cls-6" d="M22.05,197.367c2.45,2.59,5.34,4.62,8.52,6.01"/>
        <path class="cls-6" d="M6.62,170.827c0,9.29,3.11,17.73,8.7,23.6"/>
        <path class="cls-6" d="M13.6,58.187c-4.57,7.29-7.05,15.8-7.05,24.12"/>
        <polyline class="cls-6" points="30.57 203.377 41.24 208.047 41.25 208.047"/>
        <path class="cls-6" d="M60.98,212.177c-1.38.28-2.69.13-3.83-.38-2.01-.88-3.5-2.85-3.91-5.48"/>
        <path class="cls-6" d="M52.31,209.687c-.34-.15-.67-.33-.98-.54-1.12-.76-1.94-1.86-2.45-3.14-1.01-2.55-.75-5.84.93-8.66"/>
        <line class="cls-6" x1="57.15" y1="211.807" x2="52.31" y2="209.687"/>
        <path class="cls-6" d="M63.84,76.687c-.25-1.31-.2-2.42.15-3.56"/>
        <path class="cls-6" d="M60.74,80.067c.57-.87,1.27-1.54,2.21-2.11"/>
        <path class="cls-6" d="M57.48,78.487c.73.37,1.72.85,3.26,1.58"/>
        <path class="cls-6" d="M57.48,78.487c-.04-.17-.08-.34-.11-.51-.3-1.43-.26-2.58.11-3.75"/>
        <path class="cls-6" d="M60.73,71.547c-.05.03-.11.05-.16.08-.15.08-.3.16-.44.24-1.2.67-2.02,1.39-2.65,2.36"/>
        <path class="cls-6" d="M63.99,73.127c-1.54-.73-2.53-1.21-3.26-1.58"/>
        <path class="cls-6" d="M64.95,75.227c.02-2.53-1.78-4.29-4.02-3.93-1.51.24-2.82,1.39-3.52,2.9-.34.72-.54,1.52-.54,2.34-.01,2.53,1.79,4.29,4.02,3.92.19-.03.37-.07.55-.13"/>
        <path class="cls-6" d="M64.22,67.567c1.68.74,3.02,2.23,3.65,4.34"/>
        <path class="cls-6" d="M54.42,81.747c-.44-.63-.78-1.35-1.01-2.13-1.29-4.3.9-9.52,4.9-11.65,2.04-1.09,4.15-1.16,5.9-.4"/>
        <path class="cls-6" d="M52.22,81.837c-3.56-1.56-4.99-6.22-3.33-10.6.06-.17.13-.35.21-.52,1.97-4.52,6.58-6.88,10.28-5.26"/>
        <line class="cls-6" x1="57.37" y1="77.977" x2="60.13" y2="75.697"/>
        <polyline class="cls-6" points="60.13 75.697 60.13 71.867 60.13 71.857"/>
        <line class="cls-6" x1="60.13" y1="75.697" x2="63.5" y2="77.167"/>
        <line class="cls-6" x1="60.57" y1="71.627" x2="63.99" y2="73.127"/>
        <line class="cls-6" x1="53.29" y1="82.307" x2="52.22" y2="81.837"/>
        <polyline class="cls-6" points="64.22 67.567 64.21 67.567 59.38 65.457"/>
        <path class="cls-6" d="M147.49,96.247c-.15-.08-.3-.16-.44-.24"/>
        <path class="cls-6" d="M157.28,94.277c-2.84,2.63-6.49,3.42-9.47,2.11"/>
        <polyline class="cls-6" points="147.81 96.387 147.49 96.247 146.96 96.017"/>
        <path class="cls-6" d="M165.36,174.407c-.55-2.21-.55-3.93-.01-5.67"/>
        <path class="cls-6" d="M161.01,177.987c.98-1.49,2.29-2.57,4.35-3.58"/>
        <path class="cls-6" d="M156.67,175.877c.97.5,2.29,1.13,4.34,2.11"/>
        <path class="cls-6" d="M156.67,175.877c-.06-.23-.11-.46-.15-.68-.38-1.9-.33-3.43.15-5"/>
        <path class="cls-6" d="M161.01,166.627c-.07.04-.15.07-.22.11-.2.1-.4.21-.59.31-1.61.9-2.69,1.87-3.53,3.15"/>
        <path class="cls-6" d="M165.35,168.737c-2.06-.98-3.37-1.61-4.34-2.11"/>
        <path class="cls-6" d="M158.7,178.217c2.63,1.15,5.9-.52,7.3-3.73s.41-6.74-2.22-7.89c-2.62-1.15-5.89.52-7.29,3.73s-.41,6.74,2.21,7.89Z"/>
        <path class="cls-6" d="M156.56,182.207c-4.49-1.96-6.19-8.01-3.79-13.5,2.4-5.5,7.99-8.36,12.48-6.39.87.38,1.64.91,2.29,1.57,2.71,2.71,3.45,7.5,1.51,11.93-.65,1.48-1.52,2.76-2.54,3.81-2.78,2.87-6.66,4.02-9.95,2.58Z"/>
        <path class="cls-6" d="M150.51,179.567c-4.5-1.97-6.2-8.02-3.8-13.51s7.99-8.35,12.49-6.39"/>
        <line class="cls-6" x1="156.52" y1="175.197" x2="160.21" y2="172.157"/>
        <line class="cls-6" x1="160.21" y1="172.157" x2="160.2" y2="167.047"/>
        <line class="cls-6" x1="160.21" y1="172.157" x2="165.36" y2="174.407"/>
        <polyline class="cls-6" points="160.78 166.737 160.79 166.737 165.35 168.737"/>
        <line class="cls-6" x1="156.56" y1="182.207" x2="150.51" y2="179.567"/>
        <line class="cls-6" x1="165.25" y1="162.317" x2="159.2" y2="159.667"/>
        <path class="cls-6" d="M52.6,205.567c.15.31.37.56.64.74v.01c.09.05.18.1.27.14"/>
        <path class="cls-6" d="M52.6,205.567c-1.25-2.55-2.19-5.31-2.78-8.22-.54-2.57-.82-5.25-.82-8"/>
        <polyline class="cls-6" points="49 189.347 48.99 181.287 48.99 180.257 48.99 171.497 48.99 171.487 48.94 105.637 48.94 100.827"/>
        <path class="cls-6" d="M48.94,100.827c0-1.4.07-2.81.21-4.22.03-.41.08-.81.14-1.22.51-4.06,1.6-8.11,3.22-11.99"/>
        <path class="cls-6" d="M54.11,81.827c-.3.1-.57.27-.82.48-.33.29-.6.66-.78,1.09"/>
        <path class="cls-6" d="M69.84,62.857c-.69.41-1.19,1.17-1.35,2.01"/>
        <path class="cls-6" d="M69.84,62.857c2.56-1.54,5.23-2.73,7.94-3.52,1.22-.38,2.46-.67,3.7-.88"/>
        <polyline class="cls-6" points="81.48 58.457 128.59 50.507 146.62 47.467"/>
        <path class="cls-6" d="M146.62,47.467c3.85-.65,7.67-.52,11.28.38l.36.09"/>
        <path class="cls-6" d="M158.51,48.027c-.08-.04-.16-.07-.25-.09"/>
        <path class="cls-6" d="M55.54,81.887c-.36-.16-.75-.2-1.12-.14-.1.02-.21.05-.31.08"/>
        <path class="cls-6" d="M71.24,68.797c-.06-.05-.11-.1-.17-.15-.6-.52-1.21-1.03-1.81-1.55"/>
        <path class="cls-6" d="M69.26,67.097c-.62-.56-.92-1.4-.76-2.23"/>
        <path class="cls-6" d="M72.96,221.897c.46.21.94.4,1.42.57,2.87,1.07,5.99,1.63,9.29,1.61"/>
        <path class="cls-6" d="M55.73,192.287c0,6.22,1.38,11.9,3.82,16.67.53,1.04,1.12,2.04,1.76,3,2.71,4.11,6.33,7.35,10.57,9.44.19.1.38.19.57.28"/>
        <path class="cls-6" d="M163.55,50.537c-3.3-.67-6.74-.71-10.2-.13"/>
        <path class="cls-6" d="M88.21,61.397c-6.25.88-12,3.57-16.88,7.52-1.18.95-2.31,1.98-3.38,3.07-1.02,1.05-2,2.16-2.9,3.32-.51.63-.99,1.28-1.44,1.94-.2.26-.38.52-.55.79-1.21,1.81-2.29,3.72-3.23,5.72-2.86,6.09-4.39,12.96-4.16,20.01"/>
        <path class="cls-6" d="M78.54,213.137c-.01.03-.03.06-.04.09"/>
        <path class="cls-6" d="M78.46,216.947c-.04-.08-.06-.15-.09-.23-.11-.32-.19-.68-.23-1.03s-.03-.69-.01-.98c.03-.32.08-.63.15-.89.07-.23.14-.43.22-.59"/>
        <path class="cls-6" d="M78.81,217.617c-.14-.21-.26-.43-.35-.67"/>
        <path class="cls-6" d="M78.81,217.617c1.53,2.26,3.15,4.42,4.86,6.46,5.2,6.2,11.24,11.4,17.95,15.44h.01c.07.04.14.09.21.13,1.18.7,2.39,1.37,3.61,2.01,1.34.69,2.7,1.34,4.08,1.94"/>
        <path class="cls-6" d="M143.4,53.267c.06.01.12.03.18.05"/>
        <path class="cls-6" d="M142.57,53.337c.15-.04.3-.07.43-.08s.25-.01.35,0c.02,0,.03.01.05.01"/>
        <path class="cls-6" d="M104.23,74.437c-11.77,10.36-21.77,23.62-28.94,38.84"/>
        <path class="cls-6" d="M142.57,53.337c-13.81,3.74-26.91,11.06-38.33,21.1"/>
        <path class="cls-6" d="M75.15,201.977c-.04-.02-.07-.04-.1-.06-.14-.09-.28-.26-.37-.48-.04-.09-.08-.2-.11-.31-.03-.12-.05-.25-.07-.38-.01-.07-.02-.14-.02-.22"/>
        <path class="cls-6" d="M74.47,200.207c0,.11,0,.22.01.32"/>
        <line class="cls-6" x1="74.41" y1="117.127" x2="74.47" y2="200.207"/>
        <path class="cls-6" d="M75.29,113.277c-.58,1.22-.88,2.55-.88,3.85"/>
        <path class="cls-6" d="M154.56,53.017c-.04.06-.07.12-.11.18"/>
        <path class="cls-6" d="M157.08,50.957c-1.04.4-1.92,1.12-2.52,2.06"/>
        <path class="cls-6" d="M158.16,50.707c-.37.03-.73.12-1.08.25"/>
        <path class="cls-6" d="M191.35,56.347c-8.47-3.7-17.62-5.66-27.07-5.8h-.05c-.22-.01-.45-.01-.68-.01-1.78,0-3.58.05-5.39.17"/>
        <path class="cls-6" d="M88.23,221.737c-.09-.13-.16-.28-.22-.43-.45-1.19.08-2.71,1.2-3.41"/>
        <path class="cls-6" d="M88.23,221.737c7.86,11.66,17.98,20.13,29.35,25.38,27.88,12.88,63.3,6.38,91.39-20.16,8.87-8.37,16.53-18.34,22.59-29.41"/>
        <path class="cls-6" d="M153.21,57.527c.69.3,1.15,1.04,1.15,1.98"/>
        <path class="cls-6" d="M151.99,57.457c.07-.02.13-.04.2-.05.31-.05.61-.03.88.06"/>
        <path class="cls-6" d="M151.99,57.457c-28.07,7.6-53.15,29.94-67.28,59.93"/>
        <polyline class="cls-6" points="86.88 206.097 88.25 205.237 92.04 202.857"/>
        <path class="cls-6" d="M83.83,121.237c0-1.3.3-2.63.88-3.85"/>
        <line class="cls-6" x1="83.83" y1="121.237" x2="83.89" y2="204.317"/>
        <line class="cls-6" x1="227.73" y1="179.967" x2="232.89" y2="181.457"/>
        <path class="cls-6" d="M230.58,194.047c.04.01.07.02.11.04.1.03.2.08.3.14.99.6,1.25,2.09.57,3.32"/>
        <line class="cls-6" x1="230.58" y1="194.047" x2="223.67" y2="192.047"/>
        <polyline class="cls-6" points="78.54 213.137 80.65 211.807 85.35 208.867"/>
        <path class="cls-6" d="M85.35,208.867c1.28-.8,2.32-2.11,2.9-3.63"/>
        <path class="cls-6" d="M154.36,63.557c.07-.38.1-.76.1-1.14"/>
        <polyline class="cls-6" points="154.46 62.417 154.46 62.077 154.45 53.197"/>
        <path class="cls-6" d="M235.88,178.677c0,.32-.06.64-.16.95-.45,1.33-1.72,2.15-2.83,1.83"/>
        <line class="cls-6" x1="235.88" y1="178.677" x2="235.82" y2="95.597"/>
        <path class="cls-6" d="M165.22,57.667v-.22c.11-1.37,1.17-2.54,2.36-2.62"/>
        <line class="cls-6" x1="165.22" y1="57.667" x2="165.22" y2="67.117"/>
        <path class="cls-6" d="M85,206.277c-.66-.31-1.11-1.04-1.11-1.96"/>
        <path class="cls-6" d="M86.88,206.097c-.26.16-.54.27-.82.31-.37.06-.72.02-1.02-.11"/>
        <line class="cls-6" x1="96.11" y1="213.567" x2="89.21" y2="217.897"/>
        <polyline class="cls-6" points="154.37 68.947 154.36 63.587 154.36 63.557 154.36 62.087 154.36 59.507"/>
        <path class="cls-6" d="M92.04,202.857c2.77-1.74,5.94-.75,7.06,2.21,1.13,2.95-.21,6.76-2.99,8.5"/>
        <path class="cls-6" d="M220.99,189.857c0-.01-.01-.02-.01-.02-.79-1.44-.96-3.37-.32-5.28,1.13-3.34,4.29-5.39,7.07-4.59"/>
        <path class="cls-6" d="M223.67,192.047c-.33-.1-.64-.23-.93-.4-.74-.41-1.33-1.03-1.74-1.79"/>
        <path class="cls-6" d="M200.25,60.237c-10.01-4.28-21.09-6.19-32.67-5.41"/>
        <path class="cls-6" d="M234.93,92.047c-8.23-14.64-20.14-25.45-34.17-31.59"/>
        <path class="cls-6" d="M234.93,92.047c.58,1.02.89,2.25.89,3.55"/>
        <path class="cls-6" d="M165.22,67.117c0,3.4-2.42,6.56-5.42,7.06-3,.51-5.43-1.83-5.43-5.23"/>
        <path class="cls-6" d="M206.57,190.467c0,8.83-6.31,17.05-14.1,18.36"/>
        <line class="cls-6" x1="192.47" y1="208.827" x2="127.33" y2="219.817"/>
        <path class="cls-6" d="M127.33,219.817c-7.79,1.32-14.12-4.77-14.12-13.6"/>
        <polyline class="cls-6" points="113.21 206.217 113.2 198.567 113.17 158.677 113.16 143.537 113.16 138.747 113.16 138.387 113.15 128.237 113.15 124.307 113.14 117.987 113.14 117.707"/>
        <path class="cls-6" d="M113.14,117.707c0-8.83,6.31-17.05,14.1-18.36"/>
        <polyline class="cls-6" points="127.24 99.347 146.96 96.017 147.05 96.007 157.28 94.277 167.49 92.557 192.38 88.357"/>
        <path class="cls-6" d="M192.38,88.357c7.8-1.32,14.12,4.77,14.13,13.6"/>
        <line class="cls-6" x1="206.51" y1="101.957" x2="206.57" y2="190.467"/>
        <path class="cls-6" d="M221.58,98.187c1.2-2.74,3.98-4.16,6.22-3.19,2.24.98,3.09,3.99,1.89,6.73-1.19,2.74-3.98,4.16-6.22,3.18-2.24-.97-3.08-3.99-1.89-6.72Z"/>
        <path class="cls-6" d="M155.86,238.367c1.2-2.74,3.98-4.16,6.22-3.18s3.09,3.99,1.89,6.72c-1.19,2.74-3.98,4.17-6.22,3.19s-3.08-3.99-1.89-6.73Z"/>
        <path class="cls-6" d="M89.96,120.397c1.19-2.74,3.98-4.17,6.22-3.19s3.08,3.99,1.89,6.73c-1.2,2.74-3.98,4.16-6.22,3.18s-3.09-3.99-1.89-6.72Z"/>
        <polyline class="cls-6" points="153.35 50.407 142.82 52.187 88.21 61.397"/>
        <line class="cls-6" x1="55.67" y1="103.767" x2="55.73" y2="192.287"/>
        <line class="cls-6" x1="113.2" y1="198.567" x2="153.45" y2="191.777"/>
        <path class="cls-6" d="M153.45,191.777c5.73-.97,10.9-5.77,13.06-12.15"/>
        <line class="cls-6" x1="167.54" y1="163.887" x2="167.49" y2="92.557"/>
        <path class="cls-6" d="M113.14,117.987c1.22-.8,2.48-1.45,3.74-1.96,6.54-2.62,13.43-1.43,18.14,3.41"/>
        <path class="cls-6" d="M135.02,119.437c.05.05.1.11.15.16,2.38,2.65,2.13,7.36-.56,10.51"/>
        <path class="cls-6" d="M114.69,121.407c1.28-1.5,2.07-3.43,2.19-5.38"/>
        <path class="cls-6" d="M134.61,130.107c-2.25,2.62-2.46,6.54-.47,8.75.15.17.31.32.47.46"/>
        <path class="cls-6" d="M114.7,130.617c-.71-.59-1.25-1.41-1.55-2.38"/>
        <path class="cls-6" d="M113.15,124.307c.3-1.07.83-2.07,1.54-2.9"/>
        <path class="cls-6" d="M134.61,139.317c.06.05.11.1.17.14,2.61,2.36,2.73,7.01.26,10.39"/>
        <path class="cls-6" d="M115.13,141.147c2.47-3.38,2.35-8.03-.27-10.39-.05-.05-.1-.09-.16-.14"/>
        <path class="cls-6" d="M135.04,149.847c-5.61,7.68-14.34,11.2-21.87,8.83"/>
        <path class="cls-6" d="M113.16,143.537c.7-.76,1.36-1.55,1.97-2.39"/>
        <line class="cls-6" x1="53.51" y1="206.457" x2="59.55" y2="208.957"/>
        <polyline class="cls-6" points="72.28 221.607 72.45 221.677 72.96 221.897"/>
        <polyline class="cls-6" points="164.28 50.547 158.72 48.117 158.51 48.027"/>
        <line class="cls-6" x1="59.64" y1="83.677" x2="55.54" y2="81.887"/>
        <polyline class="cls-6" points="109.53 243.597 110.01 243.807 112.64 244.957 117.58 247.117 118.95 247.717"/>
        <polyline class="cls-6" points="153.21 57.527 153.07 57.467 143.58 53.317"/>
        <polyline class="cls-6" points="220.98 189.837 230.69 194.087 230.79 194.127"/>
        <polyline class="cls-6" points="75.15 201.977 85 206.277 85.04 206.297"/>
        <polyline class="cls-6" points="191.35 56.347 200.25 60.237 200.76 60.457"/>
        <line class="cls-6" x1="26.89" y1="248.007" x2="26.62" y2="247.887"/>
        <line class="cls-6" x1="182.54" y1="23.937" x2="182.27" y2="23.827"/>
        <line class="cls-6" x1="176.59" y1="31.067" x2="176.32" y2="30.947"/>
        <line class="cls-6" x1="182.53" y1="15.137" x2="182.26" y2="15.017"/>
        <line class="cls-6" x1="27.82" y1="56.157" x2="27.56" y2="56.047"/>
        <line class="cls-6" x1="158.26" y1="47.937" x2="164.23" y2="50.547"/>
        <line class="cls-6" x1="78.81" y1="217.617" x2="88.23" y2="221.737"/>
        <polyline class="cls-6" points="220.99 189.857 221 189.857 230.58 194.047"/>
        <polyline class="cls-6" points="222.64 191.607 222.74 191.647 223.67 192.047"/>
        <line class="cls-6" x1="167.58" y1="54.827" x2="158.16" y2="50.707"/>
        <path class="cls-6" d="M80.65,211.807c-3.08-2.67-5.29-6.34-6.46-10.58-.63-2.26-.96-4.69-.96-7.22"/>
        <line class="cls-6" x1="73.23" y1="194.007" x2="73.16" y2="105.497"/>
        <path class="cls-6" d="M73.16,105.497c-.01-14.26,10.19-27.54,22.78-29.66"/>
        <polyline class="cls-6" points="95.94 75.837 104.23 74.437 104.24 74.437"/>
        <line class="cls-6" x1="154.46" y1="62.077" x2="154.36" y2="62.087"/>
      </g>
    </g>
  </g>
  <ellipse class="cls-7" cx="159.26" cy="153.305" rx="90.391" ry="73.015" transform="translate(-45.599 236.365) rotate(-65.979)"/>
  <g>
    <rect class="cls-5" x="86.069" y="121.957" width="145.535" height="62.318" transform="translate(-19.214 22.841) rotate(-7.758)"/>
    <path class="cls-3" d="M113.451,172.016l-.268-1.962,5.653-19.842-.048-.357-11.948,1.628-.535-3.923,17.298-2.356.535,3.923-6.406,22.306-4.281.584Z"/>
    <path class="cls-3" d="M141.018,142.885c.751.177,1.421.473,2.011.889.589.416,1.066.944,1.433,1.585.365.641.604,1.364.715,2.173l1.992,14.623c.109.809.073,1.571-.107,2.285-.182.715-.5,1.352-.957,1.91-.457.56-1.023,1.023-1.699,1.395s-1.465.617-2.369.74l-6.598.899c-.88.12-1.701.093-2.464-.083-.763-.175-1.438-.47-2.028-.886s-1.067-.944-1.433-1.585c-.366-.64-.604-1.364-.714-2.173l-1.992-14.623c-.11-.809-.075-1.57.106-2.285.181-.715.5-1.352.957-1.911.456-.559,1.028-1.023,1.717-1.396s1.473-.618,2.353-.738l6.598-.899c.904-.123,1.73-.096,2.48.08ZM132.033,148.396c-.413.528-.577,1.102-.493,1.72l1.798,13.196c.084.618.396,1.127.936,1.526.537.398,1.165.55,1.878.452l4.102-.559c.713-.097,1.275-.41,1.688-.938.412-.528.576-1.102.491-1.72l-1.798-13.197c-.084-.617-.395-1.126-.934-1.525-.539-.398-1.165-.549-1.878-.452l-4.102.559c-.713.098-1.277.41-1.688.938Z"/>
    <path class="cls-3" d="M171.027,145.282c.76-.104,1.473-.073,2.137.09.664.164,1.258.435,1.781.811.524.377.95.84,1.278,1.389.33.548.54,1.156.631,1.821l1.87,13.731-4.458.607-1.773-13.018c-.074-.548-.306-.958-.694-1.232-.389-.273-.892-.368-1.511-.284l-2.854.389c-.618.084-1.077.311-1.378.679-.302.367-.414.825-.34,1.372l1.773,13.018-4.459.607-1.773-13.018c-.074-.547-.306-.958-.693-1.231-.39-.274-.893-.369-1.511-.285l-1.962.268c-.499.068-.914.228-1.242.478-.329.251-.596.512-.802.781-.22.345-.4.709-.542,1.091l1.749,12.84-4.458.607-2.478-18.189,3.032-.413.825,2.067.356-.048c.222-.515.509-.978.865-1.391.335-.384.735-.735,1.2-1.053s1.031-.522,1.697-.613l1.783-.242c.856-.117,1.585-.095,2.188.064.604.161,1.091.36,1.463.601.453.302.828.649,1.123,1.046l.179-.024c.18-.461.447-.896.803-1.309.313-.357.735-.688,1.264-.989.527-.302,1.22-.512,2.076-.628l2.854-.389Z"/>
    <path class="cls-3" d="M202.238,141.03c.761-.104,1.474-.073,2.138.09.664.164,1.258.435,1.782.811.523.377.948.84,1.277,1.389.33.548.54,1.156.631,1.821l1.87,13.731-4.458.607-1.773-13.018c-.074-.548-.307-.958-.693-1.232-.39-.273-.894-.368-1.512-.284l-2.854.389c-.618.084-1.077.311-1.379.679-.301.367-.413.825-.339,1.372l1.773,13.018-4.459.607-1.773-13.018c-.074-.547-.306-.958-.694-1.231-.389-.274-.892-.369-1.51-.285l-1.962.268c-.499.068-.913.228-1.242.478-.329.251-.597.512-.802.781-.22.345-.4.709-.542,1.091l1.749,12.84-4.458.607-2.478-18.189,3.032-.413.825,2.067.356-.048c.221-.515.509-.978.864-1.391.336-.384.736-.735,1.201-1.053s1.031-.522,1.696-.613l1.783-.242c.856-.117,1.587-.095,2.188.064.604.161,1.091.36,1.462.601.454.302.829.649,1.123,1.046l.18-.024c.179-.461.446-.896.803-1.309.313-.357.735-.688,1.264-.989.527-.302,1.22-.512,2.075-.628l2.854-.389Z"/>
  </g>
</svg>