<?xml version="1.0" encoding="UTF-8"?>
<svg xmlns="http://www.w3.org/2000/svg" viewBox="0 0 724.89 176.13">
  <g id="Layer_1" data-name="Layer 1">
    <g>
      <g>
        <path d="M239.23,3.53c-2.62.11-5.03.2-7.09.3-2.09.1-3.78.2-4.99.3-1.22.1-1.93.2-2.07.3l3.4-3.1h37.71l.76.69s0,.01.01.02c0,.02,0,.05-.04.07-.01.01-.03.02-.04.02-.17.07-.58.14-1.21.21-.93.1-2.34.2-4.13.3-1.82.1-4,.2-6.43.3-2.46.1-5.11.2-7.82.3-2.74.1-5.48.2-8.06.29Z" style="fill: #e84e0f; stroke-width: 0px;"/>
        <path d="M467.83,26.61c-2.46.1-5.12.2-7.82.3-2.75.1-5.49.2-8.07.3-2.62.1-5.02.2-7.08.3-2.09.1-3.79.2-4.99.3-1.23.1-1.93.2-2.08.3l3.4-3.1h37.71l.76.69h.01s0,.06-.04.08c-.01.01-.03.02-.04.02-.17.07-.58.14-1.21.21-.93.1-2.33.2-4.12.3-1.82.1-4.01.2-6.43.3Z" style="fill: #e84e0f; stroke-width: 0px;"/>
        <path d="M256.96,3.83c-5.83.45-13.59.91-19.39,1.36-5.45.43-8.93.86-8.97,1.29v.07c-1.17-.68-2.34-1.35-3.51-2.03-.04-.03-.05-.05-.02-.08h.01c.14-.11.85-.21,2.07-.31,1.21-.1,2.9-.2,4.99-.3,2.06-.1,4.47-.19,7.09-.3,2.58-.09,5.32-.19,8.06-.29,2.71-.1,5.36-.2,7.82-.3,2.43-.1,4.61-.2,6.43-.3,1.79-.1,3.2-.2,4.13-.3.63-.07,1.04-.14,1.21-.21-.27.16-.54.32-.81.47-.04.03-.09.05-.13.08h-.02c-.71.38-4.05.76-8.96,1.15Z" style="fill: #e84e0f; stroke-width: 0px;"/>
        <path d="M237.57,5.19c5.8-.45,13.56-.91,19.39-1.36,4.91-.39,8.25-.77,8.96-1.15h.02s.09-.05.13-.08v1.49h-.02c-.06.37-2.54.74-6.78,1.1-5.3.47-13.11.93-19.42,1.39-5.98.44-10.36.87-11.13,1.31-.04.02-.08.05-.12.07v-1.48c.04-.43,3.52-.86,8.97-1.29Z" style="fill: #e84e0f; stroke-width: 0px;"/>
        <path d="M260.44,7.91c-6.56.43-15.48.86-22.71,1.29-7.24.43-12.53.86-13.47,1.29h0c1.45-.84,2.89-1.69,4.34-2.53.04-.02.08-.05.12-.07.77-.44,5.15-.87,11.13-1.31,6.31-.46,14.12-.92,19.42-1.39,4.24-.36,6.72-.73,6.78-1.1h.02v-.07c1.47.85,2.94,1.7,4.4,2.55.03.02.05.03.07.05s.03.05.03.07c-.06.41-3.94.81-10.13,1.22Z" style="fill: #e84e0f; stroke-width: 0px;"/>
        <path d="M256.22,9.31c-7.56.44-16.75.89-23.19,1.33-5.58.38-8.93.77-8.93,1.15h0v-1.15h0c0-.05.05-.1.16-.15.94-.43,6.23-.86,13.47-1.29,7.23-.43,16.15-.86,22.71-1.29,6.19-.41,10.07-.81,10.13-1.22v1.14h-.01s-.02.08-.09.12c0,0-.03.02-.04.02-.04.01-.07.02-.11.04-1.17.44-6.72.87-14.1,1.3Z" style="fill: #e84e0f; stroke-width: 0px;"/>
        <path d="M233.03,10.64c6.44-.44,15.63-.89,23.19-1.33,7.38-.43,12.93-.86,14.1-1.3.04-.02.07-.03.11-.04-1.45.84-2.91,1.69-4.36,2.53-.04.03-.09.05-.13.08-.06.03-.15.07-.26.11-1.4.46-6.82.92-13.47,1.38-6.53.46-13.94.91-18.55,1.36-3.22.32-4.98.63-5.02.95h-.04v.07l-4.41-2.55c-.06-.04-.09-.07-.09-.11,0-.38,3.35-.77,8.93-1.15Z" style="fill: #e84e0f; stroke-width: 0px;"/>
        <path d="M233.66,13.43c4.61-.45,12.02-.9,18.55-1.36,6.65-.46,12.07-.92,13.47-1.38.11-.04.2-.08.26-.11.04-.03.09-.05.13-.08v1.49s-.01.06-.04.08c-.47.46-4.88.91-11.05,1.36-6.17.46-13.85.91-19.18,1.37-3.9.33-6.42.66-7.04.99h-.04s-.08.05-.12.07v-1.48h.04c.04-.32,1.8-.63,5.02-.95Z" style="fill: #e84e0f; stroke-width: 0px;"/>
        <path d="M240.69,16.93c7.6-.43,16.32-.86,22.21-1.29,4.86-.35,7.66-.71,7.66-1.06h.01v1.15s-.03.08-.09.11h-.01s0,.01,0,.01c-.78.43-5.83.85-12.89,1.28-7.14.43-16.09.86-22.79,1.29-6.53.42-10.69.84-10.69,1.26v-1.14h.04s0-.07.07-.11c.1-.07.32-.14.66-.22,2.02-.42,8.23-.85,15.83-1.28Z" style="fill: #e84e0f; stroke-width: 0px;"/>
        <path d="M262.9,15.64c-5.89.43-14.61.86-22.21,1.29s-13.81.86-15.83,1.28c-.34.08-.56.15-.66.22h-.01c1.47-.86,2.94-1.71,4.41-2.57.04-.02.08-.05.12-.07h.04c.62-.33,3.14-.66,7.04-.99,5.33-.46,13.01-.91,19.18-1.37,6.17-.45,10.58-.9,11.05-1.36.03-.02.04-.05.04-.08v-.07c1.47.85,2.94,1.7,4.4,2.55.06.04.09.07.09.11,0,.35-2.8.71-7.66,1.06Z" style="fill: #e84e0f; stroke-width: 0px;"/>
        <path d="M234.78,18.42c6.7-.43,15.65-.86,22.79-1.29,7.06-.43,12.11-.85,12.89-1.28-1.46.85-2.93,1.7-4.39,2.55-.04.03-.09.05-.13.08h-.05c-.22.14-.81.28-1.75.43-3.03.45-9.64.91-16.49,1.37-6.87.46-13.65.93-16.87,1.39-1.43.2-2.12.41-2.11.61h-.07v.07c-1.47-.85-2.93-1.7-4.4-2.55h-.01s-.07-.06-.09-.09c0,0,0-.02,0-.03,0-.42,4.16-.84,10.69-1.26Z" style="fill: #e84e0f; stroke-width: 0px;"/>
        <path d="M265.15,20.28c-2.13.46-8.12.93-14.9,1.39-6.81.46-14.11.92-18.13,1.38-1.85.22-2.97.43-3.33.64h-.07s-.08.05-.12.07v-1.48h.07c-.01-.2.68-.41,2.11-.61,3.22-.46,10-.93,16.87-1.39,6.85-.46,13.46-.92,16.49-1.37.94-.15,1.53-.29,1.75-.43h.05s.09-.05.13-.08v1.49h-.05c.02.13-.26.26-.87.39Z" style="fill: #e84e0f; stroke-width: 0px;"/>
        <path d="M259.33,24.92c-6.93.44-16.08.88-23.17,1.31-6.95.43-11.68.86-12.04,1.29-.02.02-.02.04-.02.06h0v-1.14h.05s.02-.07.06-.11c.13-.09.46-.19.99-.28,2.46-.44,9.22-.87,17.11-1.31,7.95-.44,16.75-.88,22.23-1.32,3.89-.31,5.99-.63,5.99-.94h.05v1.15s-.03.08-.1.12h0c-.74.39-4.95.78-11.13,1.17Z" style="fill: #e84e0f; stroke-width: 0px;"/>
        <path d="M250.25,21.67c6.78-.46,12.77-.93,14.9-1.39.61-.13.89-.26.87-.39h.05v-.07c1.46.85,2.93,1.69,4.38,2.54h-.01c.06.05.08.08.08.12,0,.31-2.1.63-5.99.94-5.48.44-14.28.88-22.23,1.32-7.89.44-14.65.87-17.11,1.31-.53.09-.86.19-.99.28h-.01c1.47-.86,2.94-1.71,4.41-2.57.04-.02.08-.05.12-.07h.07c.36-.21,1.48-.42,3.33-.64,4.02-.46,11.32-.92,18.13-1.38Z" style="fill: #e84e0f; stroke-width: 0px;"/>
        <path d="M261.43,27.13c-4.46.46-11.82.91-18.41,1.37-6.6.45-12.13.91-13.83,1.36-.39.11-.58.21-.56.32h-.03v.07l-4.41-2.55h.01c-.07-.05-.1-.08-.1-.12,0-.02,0-.04.02-.06.36-.43,5.09-.86,12.04-1.29,7.09-.43,16.24-.87,23.17-1.31,6.18-.39,10.39-.78,11.13-1.17-1.46.85-2.93,1.7-4.39,2.55-.04.03-.09.05-.13.08h-.06c-.44.25-1.97.5-4.45.75Z" style="fill: #e84e0f; stroke-width: 0px;"/>
        <path d="M263.17,28.5c-3.63.45-10.55.91-17.31,1.36-6.76.46-13.07.91-15.74,1.37-.72.12-1.17.24-1.36.36h-.04s-.08.05-.12.07v-1.48h.03c-.02-.11.17-.21.56-.32,1.7-.45,7.23-.91,13.83-1.36,6.59-.46,13.95-.91,18.41-1.37,2.48-.25,4.01-.5,4.45-.75h.06s.09-.05.13-.08v1.49h-.07c0,.23-.95.47-2.83.71Z" style="fill: #e84e0f; stroke-width: 0px;"/>
        <path d="M225.5,33.9c2.76-.44,9.71-.87,17.62-1.31,7.92-.43,16.51-.87,21.78-1.3,3.65-.3,5.62-.61,5.62-.91h.05v1.15c-.01.05-.06.1-.17.14-.76.34-3.98.68-8.89,1.01-6.32.43-15.22.86-22.64,1.29-7.43.43-13.11.87-14.45,1.3-.21.07-.31.14-.31.2h-.02v-1.13h.06s.02-.08.08-.12c.17-.11.59-.22,1.27-.32Z" style="fill: #e84e0f; stroke-width: 0px;"/>
        <path d="M245.86,29.86c6.76-.45,13.68-.91,17.31-1.36,1.88-.24,2.83-.48,2.83-.71h.07v-.08c1.46.86,2.93,1.7,4.38,2.55h-.01c.06.05.08.08.08.12,0,.3-1.97.61-5.62.91-5.27.43-13.86.87-21.78,1.3-7.91.44-14.86.87-17.62,1.31-.68.1-1.1.21-1.27.32v-.02c1.45-.84,2.91-1.69,4.37-2.54.04-.02.08-.05.12-.07h.04c.19-.12.64-.24,1.36-.36,2.67-.46,8.98-.91,15.74-1.37Z" style="fill: #e84e0f; stroke-width: 0px;"/>
        <path d="M258.07,35.34c-5.59.46-13.38.91-19.43,1.37-6.02.46-10.04.91-10.04,1.37v.07l-4.41-2.55v-.02c-.05-.03-.08-.07-.08-.11,0-.06.1-.13.31-.2,1.34-.43,7.02-.87,14.45-1.3,7.42-.43,16.32-.86,22.64-1.29,4.91-.33,8.13-.67,8.89-1.01v.02c-1.44.83-2.88,1.67-4.33,2.51-.04.03-.09.05-.13.08h-.03c-.66.35-3.52.7-7.84,1.06Z" style="fill: #e84e0f; stroke-width: 0px;"/>
        <path d="M260.19,36.71c-4.97.46-12.62.92-19.07,1.38-6.46.46-11.42.92-12.35,1.38-.02,0-.03.01-.05.02-.04.02-.08.05-.12.07v-1.48c0-.46,4.02-.91,10.04-1.37,6.05-.46,13.84-.91,19.43-1.37,4.32-.36,7.18-.71,7.84-1.06h.03s.09-.05.13-.08v1.49h-.04c-.05.34-2.14.68-5.84,1.02Z" style="fill: #e84e0f; stroke-width: 0px;"/>
        <path d="M241.12,38.09c6.45-.46,14.1-.92,19.07-1.38,3.7-.34,5.79-.68,5.84-1.02h.04v-.08c1.46.85,2.92,1.7,4.37,2.54v.02c.05.04.08.07.08.11,0,.27-1.62.56-4.73.83-4.87.43-13.21.87-21.16,1.3-7.96.43-15.25.87-18.52,1.3-1.08.15-1.71.29-1.9.44l-.02-.03c1.47-.85,2.94-1.7,4.41-2.56.04-.02.08-.05.12-.07.02-.01.03-.02.05-.02.93-.46,5.89-.92,12.35-1.38Z" style="fill: #e84e0f; stroke-width: 0px;"/>
        <path d="M244.63,40.41c7.95-.43,16.29-.87,21.16-1.3,3.11-.27,4.73-.56,4.73-.83h.05v1.15h-.02s-.06.09-.14.13c-.62.3-3.17.6-7.26.9-5.88.44-14.72.87-22.42,1.31-7.71.43-14,.87-15.95,1.3-.44.1-.65.19-.65.3h-.04v-1.13h.06s.02-.06.06-.09c.19-.15.82-.29,1.9-.44,3.27-.43,10.56-.87,18.52-1.3Z" style="fill: #e84e0f; stroke-width: 0px;"/>
        <path d="M253.04,43.62c-6.57.46-14.25.92-19.08,1.38-3.39.33-5.28.65-5.32.98h-.04v.07l-4.41-2.55.02-.03c-.05-.03-.08-.07-.08-.1,0-.11.21-.2.65-.3,1.95-.43,8.24-.87,15.95-1.3,7.7-.44,16.54-.87,22.42-1.31,4.09-.3,6.64-.6,7.26-.9v.02c-1.44.83-2.89,1.68-4.34,2.52-.04.03-.09.05-.13.08-.03.01-.06.03-.11.05-1.09.46-6.23.92-12.79,1.39Z" style="fill: #e84e0f; stroke-width: 0px;"/>
        <path d="M255.39,45c-6.1.46-13.78.91-19.2,1.36-4.11.35-6.8.69-7.43,1.03h-.04s-.08.05-.12.07v-1.48h.04c.04-.33,1.93-.65,5.32-.98,4.83-.46,12.51-.92,19.08-1.38,6.56-.47,11.7-.93,12.79-1.39.05-.02.08-.04.11-.05.04-.03.09-.05.13-.08v1.52c-.16.46-4.46.92-10.68,1.38Z" style="fill: #e84e0f; stroke-width: 0px;"/>
        <path d="M266.95,46.9c-4.28.43-12.22.86-20.2,1.3-7.98.43-15.7.86-19.63,1.29-1.61.18-2.56.35-2.86.53l-.02-.03c1.45-.84,2.91-1.68,4.36-2.53.04-.02.08-.05.12-.07h.04c.63-.34,3.32-.68,7.43-1.03,5.42-.45,13.1-.9,19.2-1.36,6.22-.46,10.52-.92,10.68-1.38v-.11c1.46.85,2.91,1.69,4.36,2.54v.02c.05.04.08.08.08.11,0,.24-1.2.48-3.56.72Z" style="fill: #e84e0f; stroke-width: 0px;"/>
        <path d="M246.75,48.2c7.98-.44,15.92-.87,20.2-1.3,2.36-.24,3.56-.48,3.56-.72h.06v1.15h-.04s-.05.08-.13.13c-.59.29-3.05.59-7.01.88-5.73.43-14.38.86-22.04,1.29s-14.07.86-16.31,1.29c-.61.12-.91.23-.91.35h-.04v-1.13h.07s.04-.08.1-.12c.3-.18,1.25-.35,2.86-.53,3.93-.43,11.65-.86,19.63-1.29Z" style="fill: #e84e0f; stroke-width: 0px;"/>
        <path d="M264.54,50.44c-2.68.46-8.95.91-15.68,1.36-6.74.46-13.66.91-17.31,1.36-1.91.24-2.88.48-2.89.72h-.06v.07l-4.41-2.55.02-.03c-.05-.03-.08-.07-.08-.1,0-.12.3-.23.91-.35,2.24-.43,8.65-.86,16.31-1.29s16.31-.86,22.04-1.29c3.96-.29,6.42-.59,7.01-.88v.02c-1.44.84-2.88,1.68-4.33,2.52-.04.03-.09.05-.13.08h-.04c-.19.12-.64.24-1.36.36Z" style="fill: #e84e0f; stroke-width: 0px;"/>
        <path d="M265.49,51.8c-1.68.46-7.18.91-13.75,1.36-6.58.46-13.95.91-18.43,1.37-2.53.25-4.07.51-4.52.76h-.07s-.08.05-.12.07v-1.48h.06c.01-.24.98-.48,2.89-.72,3.65-.45,10.57-.9,17.31-1.36,6.73-.45,13-.9,15.68-1.36.72-.12,1.17-.24,1.36-.36h.04s.09-.05.13-.08v1.49h-.03c.01.1-.17.21-.55.31Z" style="fill: #e84e0f; stroke-width: 0px;"/>
        <path d="M265.53,56.07c-4.94.43-13.24.86-21.13,1.29s-15.08.86-18.31,1.29c-1.3.18-1.94.35-1.94.52h-.06v-1.13h.06s.03-.07.08-.1c.34-.24,1.83-.46,4.37-.7,4.71-.43,12.88-.86,20.8-1.29s15.31-.86,18.81-1.29c1.54-.19,2.3-.38,2.3-.57h.06v1.14h-.05c0,.05-.07.1-.19.16-.54.22-2.17.45-4.8.68Z" style="fill: #e84e0f; stroke-width: 0px;"/>
        <path d="M268.21,54.66c-3.5.43-10.89.86-18.81,1.29s-16.09.86-20.8,1.29c-2.54.24-4.03.46-4.37.7l-.02-.03c1.46-.84,2.93-1.7,4.39-2.55.04-.02.08-.05.12-.07h.07c.45-.25,1.99-.51,4.52-.76,4.48-.46,11.85-.91,18.43-1.37,6.57-.45,12.07-.9,13.75-1.36.38-.1.56-.21.55-.31h.03v-.08c1.46.85,2.91,1.69,4.36,2.53l-.02.03c.07.04.1.08.1.12,0,.19-.76.38-2.3.57Z" style="fill: #e84e0f; stroke-width: 0px;"/>
        <path d="M244.68,59.98c6.72-.45,13.85-.91,17.83-1.36,1.87-.22,3.01-.43,3.37-.64h.06s.09-.05.13-.08v1.49h-.06c0,.2-.66.39-2,.59-3.1.46-9.7.91-16.49,1.37s-13.47.91-16.69,1.37c-1.12.16-1.8.31-2.05.47h-.06s-.08.05-.12.07v-1.48h.05c-.02-.14.32-.29,1.03-.43,2.28-.46,8.28-.91,15-1.37Z" style="fill: #e84e0f; stroke-width: 0px;"/>
        <path d="M262.51,58.62c-3.98.45-11.11.91-17.83,1.36-6.72.46-12.72.91-15,1.37-.71.14-1.05.29-1.03.43h-.05v.07c-1.45-.84-2.91-1.68-4.36-2.52l.02-.03c-.07-.04-.11-.08-.11-.13,0-.17.64-.34,1.94-.52,3.23-.43,10.42-.86,18.31-1.29s16.19-.86,21.13-1.29c2.63-.23,4.26-.46,4.8-.68l.02.03c-1.43.82-2.85,1.65-4.28,2.48-.04.03-.09.05-.13.08h-.06c-.36.21-1.5.42-3.37.64Z" style="fill: #e84e0f; stroke-width: 0px;"/>
        <path d="M269.36,62.4c-2.52.42-9.15.85-16.89,1.28-7.73.43-16.29.86-21.81,1.29-3.64.28-5.86.57-6.39.85l-.02-.03c1.45-.84,2.9-1.69,4.35-2.53.04-.02.08-.05.12-.07h.06c.25-.16.93-.31,2.05-.47,3.22-.46,9.9-.91,16.69-1.37s13.39-.91,16.49-1.37c1.34-.2,2-.39,2-.59h.06v-.08c1.46.85,2.91,1.69,4.36,2.53l-.02.03c.08.04.12.09.12.13,0,.13-.39.26-1.17.4Z" style="fill: #e84e0f; stroke-width: 0px;"/>
        <path d="M267.11,63.82c-4.2.44-12.08.87-20.06,1.3s-15.77.86-19.79,1.29c-2.07.22-3.1.45-3.1.67h-.07v-1.14h.05s.05-.08.13-.12c.53-.28,2.75-.57,6.39-.85,5.52-.43,14.08-.86,21.81-1.29,7.74-.43,14.37-.86,16.89-1.28.78-.14,1.17-.27,1.17-.4h.04v1.13h-.06s-.02.06-.05.09c-.26.2-1.38.4-3.35.6Z" style="fill: #e84e0f; stroke-width: 0px;"/>
        <path d="M266.89,67.76h-19.4v-.07c6.17-.16,12.32-.77,18.41-1.81h.04s.09-.05.13-.08v1.41c.27.16.55.32.82.48v.07Z" style="fill: #e84e0f; stroke-width: 0px;"/>
        <path d="M265.9,65.88c-6.09,1.04-12.24,1.65-18.41,1.81v.07h-22.44v-.07c-.27-.15-.54-.31-.81-.46v-.03c-.05-.04-.08-.08-.08-.12,0-.22,1.03-.45,3.1-.67,4.02-.43,11.81-.86,19.79-1.29s15.86-.86,20.06-1.3c1.97-.2,3.09-.4,3.35-.6v.03c-1.46.85-2.92,1.7-4.39,2.55-.04.03-.09.05-.13.08h-.04Z" style="fill: #e84e0f; stroke-width: 0px;"/>
        <polygon points="294.73 115.09 294.73 127.73 286.83 127.73 207.83 127.73 199.93 127.73 199.93 115.09 199.93 112.68 294.73 112.68 294.73 115.09" style="fill: #e84e0f; stroke-width: 0px;"/>
        <path d="M286.83,127.73v42.66c0,2.62-2.12,4.74-4.74,4.74h-69.52c-2.61,0-4.74-2.12-4.74-4.74v-42.66h79Z" style="fill: #e84e0f; stroke-width: 0px;"/>
        <path d="M478.64,26.35c-.71.38-4.06.77-8.96,1.15-5.83.46-13.59.91-19.39,1.37-5.46.43-8.94.85-8.97,1.28h-.01v.08c-1.17-.68-2.34-1.36-3.5-2.04-.04-.03-.06-.05-.03-.07h.01c.15-.11.85-.21,2.08-.31,1.2-.1,2.9-.2,4.99-.3,2.06-.1,4.46-.2,7.08-.3,2.58-.1,5.32-.2,8.07-.3,2.7-.1,5.36-.2,7.82-.3,2.42-.1,4.61-.2,6.43-.3,1.79-.1,3.19-.2,4.12-.3.63-.07,1.04-.14,1.21-.21l-.81.48s-.08.05-.12.07h-.02Z" style="fill: #e84e0f; stroke-width: 0px;"/>
        <path d="M478.78,27.69v.07h-.02c-.05.37-2.54.74-6.77,1.11-5.3.46-13.11.92-19.42,1.38-5.98.44-10.36.88-11.13,1.31-.04.03-.09.05-.13.08v-1.49h.01c.03-.43,3.51-.85,8.97-1.28,5.8-.46,13.56-.91,19.39-1.37,4.9-.38,8.25-.77,8.96-1.15h.02s.08-.05.12-.07v1.41Z" style="fill: #e84e0f; stroke-width: 0px;"/>
        <path d="M471.99,28.87c4.23-.37,6.72-.74,6.77-1.11h.02v-.07l4.41,2.55s.05.04.07.05c.02.02.03.05.03.07-.06.41-3.94.81-10.13,1.22-6.56.43-15.49.86-22.72,1.29s-12.52.86-13.47,1.29c1.45-.84,2.89-1.68,4.34-2.52.04-.03.09-.05.13-.08.77-.43,5.15-.87,11.13-1.31,6.31-.46,14.12-.92,19.42-1.38Z" style="fill: #e84e0f; stroke-width: 0px;"/>
        <path d="M473.16,31.58c6.19-.41,10.07-.81,10.13-1.22v1.14h-.02s-.02.08-.08.12l-.06.03s-.05.03-.09.04c-1.17.43-6.72.86-14.11,1.29-7.55.45-16.74.89-23.19,1.33-5.58.38-8.92.77-8.92,1.15h-.01v-1.15h.01c-.01-.05.04-.1.15-.15.95-.43,6.24-.86,13.47-1.29s16.16-.86,22.72-1.29Z" style="fill: #e84e0f; stroke-width: 0px;"/>
        <path d="M483.13,31.65c-1.45.84-2.9,1.69-4.35,2.53-.04.02-.08.05-.12.07h-.01c-.06.04-.14.07-.26.11-1.4.46-6.82.92-13.47,1.39-6.52.45-13.93.9-18.55,1.36-3.21.31-4.97.63-5.01.94h-.05v.08c-1.47-.86-2.93-1.71-4.4-2.56-.06-.04-.09-.07-.09-.11,0-.38,3.34-.77,8.92-1.15,6.45-.44,15.64-.88,23.19-1.33,7.39-.43,12.94-.86,14.11-1.29.04-.01.07-.03.09-.04Z" style="fill: #e84e0f; stroke-width: 0px;"/>
        <path d="M478.78,35.59v.07s0,.06-.04.09c-.46.45-4.88.9-11.04,1.36-6.18.45-13.85.9-19.19,1.36-3.89.33-6.42.66-7.03.99h-.04s-.09.05-.13.08v-1.49h.05c.04-.31,1.8-.63,5.01-.94,4.62-.46,12.03-.91,18.55-1.36,6.65-.47,12.07-.93,13.47-1.39.12-.04.2-.07.26-.11h.01s.08-.05.12-.07v1.41Z" style="fill: #e84e0f; stroke-width: 0px;"/>
        <path d="M478.78,35.59c1.47.85,2.93,1.7,4.4,2.55h.01s.08.07.08.11c0,.35-2.79.71-7.65,1.06-5.89.43-14.61.86-22.21,1.29s-13.82.86-15.84,1.29c-.33.07-.55.14-.65.21h-.01c1.47-.86,2.93-1.71,4.4-2.56.04-.03.09-.05.13-.08h.04c.61-.33,3.14-.66,7.03-.99,5.34-.46,13.01-.91,19.19-1.36,6.16-.46,10.58-.91,11.04-1.36.03-.03.04-.06.04-.09v-.07Z" style="fill: #e84e0f; stroke-width: 0px;"/>
        <path d="M475.62,39.31c4.86-.35,7.65-.71,7.65-1.06h.02v1.15h-.01s-.02.08-.09.12c-.03.02-.05.03-.08.04-.95.41-5.92.82-12.83,1.24-7.14.43-16.09.86-22.78,1.29-6.48.42-10.62.84-10.69,1.26v-1.14h.03s.02-.08.08-.11c.1-.07.32-.14.65-.21,2.02-.43,8.24-.86,15.84-1.29s16.32-.86,22.21-1.29Z" style="fill: #e84e0f; stroke-width: 0px;"/>
        <path d="M478.61,42.15c-.23.14-.81.28-1.75.43-3.03.46-9.65.92-16.49,1.38-6.87.46-13.65.92-16.87,1.38-1.43.2-2.13.41-2.12.61h-.07v.08c-1.47-.86-2.93-1.71-4.4-2.56-.05-.03-.08-.06-.09-.08-.01-.01-.01-.03-.01-.04.07-.42,4.21-.84,10.69-1.26,6.69-.43,15.64-.86,22.78-1.29,6.91-.42,11.88-.83,12.83-1.24-1.44.84-2.89,1.68-4.33,2.52-.04.02-.08.05-.12.07h-.05Z" style="fill: #e84e0f; stroke-width: 0px;"/>
        <path d="M478.78,43.49v.07h-.04c.02.13-.27.26-.88.4-2.12.46-8.11.92-14.9,1.38-6.81.46-14.1.92-18.13,1.39-1.85.21-2.97.42-3.33.63h-.06s-.09.05-.13.08v-1.49h.07c-.01-.2.69-.41,2.12-.61,3.22-.46,10-.92,16.87-1.38,6.84-.46,13.46-.92,16.49-1.38.94-.15,1.52-.29,1.75-.43h.05s.08-.05.12-.07v1.41Z" style="fill: #e84e0f; stroke-width: 0px;"/>
        <path d="M483.23,46.15c0,.31-2.1.63-5.99.94-5.48.44-14.27.88-22.22,1.32-7.89.44-14.65.88-17.11,1.31-.54.1-.87.19-1,.29v-.02c1.47-.85,2.93-1.7,4.4-2.55.04-.03.09-.05.13-.08h.06c.36-.21,1.48-.42,3.33-.63,4.03-.47,11.32-.93,18.13-1.39,6.79-.46,12.78-.92,14.9-1.38.61-.14.9-.27.88-.4h.04v-.07c1.46.84,2.92,1.69,4.38,2.53v.02s.07.07.07.11Z" style="fill: #e84e0f; stroke-width: 0px;"/>
        <path d="M477.24,47.09c3.89-.31,5.99-.63,5.99-.94h.06v1.15s-.04.08-.12.12c-.74.39-4.94.78-11.13,1.17-6.92.44-16.07.88-23.16,1.32-6.95.43-11.68.85-12.05,1.28-.02.02-.02.04-.02.06v-1.14h.04s.02-.07.06-.1c.13-.1.46-.19,1-.29,2.46-.43,9.22-.87,17.11-1.31,7.95-.44,16.74-.88,22.22-1.32Z" style="fill: #e84e0f; stroke-width: 0px;"/>
        <path d="M483.21,47.48c-1.45.83-2.9,1.68-4.35,2.52-.04.03-.09.05-.13.08h-.04c-.19.12-.65.24-1.37.36-2.67.46-8.94.91-15.68,1.36-6.74.46-13.66.91-17.3,1.36-1.92.24-2.89.48-2.89.72h-.07v.07c-1.47-.85-2.93-1.7-4.4-2.55l-.06-.03c-.08-.04-.11-.08-.11-.12,0-.02,0-.04.02-.06.37-.43,5.1-.85,12.05-1.28,7.09-.44,16.24-.88,23.16-1.32,6.19-.39,10.39-.78,11.13-1.17l.04.06Z" style="fill: #e84e0f; stroke-width: 0px;"/>
        <path d="M478.86,51.41v.08h-.04c.02.1-.16.21-.55.31-1.68.46-7.17.91-13.74,1.36-6.58.46-13.95.91-18.44,1.37-2.52.25-4.07.51-4.52.76h-.06s-.09.05-.13.07v-1.48h.07c0-.24.97-.48,2.89-.72,3.64-.45,10.56-.9,17.3-1.36,6.74-.45,13.01-.9,15.68-1.36.72-.12,1.18-.24,1.37-.36h.04s.09-.05.13-.08v1.41Z" style="fill: #e84e0f; stroke-width: 0px;"/>
        <path d="M478.86,51.49v-.08c1.44.85,2.9,1.69,4.35,2.53l-.02.03c.07.04.1.08.1.12,0,.19-.76.38-2.3.57-3.49.43-10.88.86-18.81,1.29-7.91.43-16.08.86-20.79,1.29-2.55.24-4.03.46-4.37.7l-.02-.03c1.46-.84,2.92-1.69,4.38-2.55.04-.02.09-.04.13-.07h.06c.45-.25,2-.51,4.52-.76,4.49-.46,11.86-.91,18.44-1.37,6.57-.45,12.06-.9,13.74-1.36.39-.1.57-.21.55-.31h.04Z" style="fill: #e84e0f; stroke-width: 0px;"/>
        <path d="M480.99,54.66c1.54-.19,2.3-.38,2.3-.57h.07v1.14h-.05s-.04.07-.09.1c-.4.25-2.07.5-4.9.74-4.94.43-13.25.86-21.13,1.29-7.89.43-15.09.86-18.32,1.29-1.3.18-1.94.35-1.94.53h-.05v-1.14h.06s.03-.07.08-.1c.34-.24,1.82-.46,4.37-.7,4.71-.43,12.88-.86,20.79-1.29,7.93-.43,15.32-.86,18.81-1.29Z" style="fill: #e84e0f; stroke-width: 0px;"/>
        <path d="M483.24,55.36c-1.46.84-2.92,1.69-4.38,2.54-.04.03-.09.05-.13.08h-.07c-.36.21-1.49.42-3.37.64-3.97.45-11.11.91-17.82,1.36-6.72.46-12.73.91-15,1.37-.72.14-1.06.29-1.04.43h-.05v.07c-1.47-.85-2.93-1.7-4.4-2.55l.02-.03s-.07-.06-.07-.09c0-.18.64-.35,1.94-.53,3.23-.43,10.43-.86,18.32-1.29,7.88-.43,16.19-.86,21.13-1.29,2.83-.24,4.5-.49,4.9-.74l.02.03Z" style="fill: #e84e0f; stroke-width: 0px;"/>
        <path d="M478.86,59.31v.08h-.07c0,.2-.66.39-2,.59-3.1.46-9.69.91-16.48,1.37s-13.47.91-16.69,1.37c-1.12.16-1.8.31-2.06.47h-.05s-.09.05-.13.07v-1.48h.05c-.02-.14.32-.29,1.04-.43,2.27-.46,8.28-.91,15-1.37,6.71-.45,13.85-.91,17.82-1.36,1.88-.22,3.01-.43,3.37-.64h.07s.09-.05.13-.08v1.41Z" style="fill: #e84e0f; stroke-width: 0px;"/>
        <path d="M465.26,63.68c7.73-.43,14.36-.86,16.89-1.28.78-.14,1.16-.27,1.16-.4h.05v1.13h-.07s-.04.09-.12.13c-.35.19-1.45.37-3.28.56-4.19.44-12.08.87-20.05,1.3-7.99.43-15.77.86-19.79,1.29-2.07.22-3.11.45-3.11.67h-.06v-1.14h.05s.03-.06.07-.09c.41-.29,2.66-.59,6.44-.88,5.52-.43,14.09-.86,21.82-1.29Z" style="fill: #e84e0f; stroke-width: 0px;"/>
        <path d="M482.15,62.4c-2.53.42-9.16.85-16.89,1.28s-16.3.86-21.82,1.29c-3.78.29-6.03.59-6.44.88l-.02-.03c1.47-.85,2.93-1.7,4.4-2.56.04-.02.09-.04.13-.07h.05c.26-.16.94-.31,2.06-.47,3.22-.46,9.9-.91,16.69-1.37s13.38-.91,16.48-1.37c1.34-.2,2-.39,2-.59h.07v-.08c1.45.85,2.9,1.69,4.36,2.53l-.02.03c.07.04.11.09.11.13,0,.13-.38.26-1.16.4Z" style="fill: #e84e0f; stroke-width: 0px;"/>
        <path d="M478.86,67.21c.27.16.54.32.82.48h-19.4c6.17-.16,12.32-.77,18.4-1.81h.05s.09-.05.13-.08v1.41Z" style="fill: #e84e0f; stroke-width: 0px;"/>
        <path d="M483.19,63.29c-1.44.83-2.89,1.67-4.33,2.51-.04.03-.09.05-.13.08h-.05c-6.08,1.04-12.23,1.65-18.4,1.81h-22.44c-.27-.15-.55-.31-.81-.46v-.03s-.09-.08-.09-.12c0-.22,1.04-.45,3.11-.67,4.02-.43,11.8-.86,19.79-1.29,7.97-.43,15.86-.86,20.05-1.3,1.83-.19,2.93-.37,3.28-.56l.02.03Z" style="fill: #e84e0f; stroke-width: 0px;"/>
        <polygon points="507.52 113.52 507.52 127.73 499.62 127.73 420.62 127.73 412.72 127.73 412.72 115.09 412.72 112.62 507.52 112.62 507.52 113.52" style="fill: #e84e0f; stroke-width: 0px;"/>
        <path d="M499.62,127.73v42.66c0,2.62-2.12,4.74-4.74,4.74h-69.52c-2.62,0-4.74-2.12-4.74-4.74v-42.66h79Z" style="fill: #e84e0f; stroke-width: 0px;"/>
      </g>
      <g>
        <polyline points="412.72 127.73 420.62 127.73 499.62 127.73 507.52 127.73" style="fill: none; stroke: #000; stroke-linecap: round; stroke-linejoin: round; stroke-width: 2px;"/>
        <line x1="507.52" y1="113.52" x2="507.52" y2="127.73" style="fill: none; stroke: #000; stroke-linecap: round; stroke-linejoin: round; stroke-width: 2px;"/>
        <line x1="412.72" y1="115.09" x2="412.72" y2="127.73" style="fill: none; stroke: #000; stroke-linecap: round; stroke-linejoin: round; stroke-width: 2px;"/>
        <polyline points="199.93 127.73 207.83 127.73 286.83 127.73 294.73 127.73" style="fill: none; stroke: #000; stroke-linecap: round; stroke-linejoin: round; stroke-width: 2px;"/>
        <line x1="294.73" y1="115.09" x2="294.73" y2="127.73" style="fill: none; stroke: #000; stroke-linecap: round; stroke-linejoin: round; stroke-width: 2px;"/>
        <line x1="199.93" y1="115.09" x2="199.93" y2="127.73" style="fill: none; stroke: #000; stroke-linecap: round; stroke-linejoin: round; stroke-width: 2px;"/>
        <path d="M437.78,28.12s0,.04.03.07" style="fill: none; stroke: #000; stroke-linecap: round; stroke-linejoin: round; stroke-width: .75px;"/>
        <path d="M479.59,25.8c-.17.07-.58.14-1.21.21-.93.1-2.33.2-4.12.3-1.82.1-4.01.2-6.43.3-2.46.1-5.12.2-7.82.3-2.75.1-5.49.2-8.07.3-2.62.1-5.02.2-7.08.3-2.09.1-3.79.2-4.99.3-1.23.1-1.93.2-2.08.3" style="fill: none; stroke: #000; stroke-linecap: round; stroke-linejoin: round; stroke-width: .75px;"/>
        <path d="M479.66,25.7h.01s0,.06-.04.08" style="fill: none; stroke: #000; stroke-linecap: round; stroke-linejoin: round; stroke-width: .75px;"/>
        <line x1="478.9" y1="25.01" x2="441.19" y2="25.01" style="fill: none; stroke: #000; stroke-linecap: round; stroke-linejoin: round; stroke-width: .75px;"/>
        <path d="M437.04,67.2c-.06-.04-.1-.08-.1-.12,0-.22,1.04-.45,3.11-.67,4.02-.43,11.8-.86,19.79-1.29,7.97-.43,15.86-.86,20.05-1.3,1.83-.19,2.93-.37,3.28-.56.08-.04.12-.09.12-.13" style="fill: none; stroke: #000; stroke-linecap: round; stroke-linejoin: round; stroke-width: .75px;"/>
        <path d="M437.04,59.3s-.03-.02-.04-.03c-.04-.03-.07-.06-.07-.09,0-.18.64-.35,1.94-.53,3.23-.43,10.43-.86,18.32-1.29,7.88-.43,16.19-.86,21.13-1.29,2.83-.24,4.5-.49,4.9-.74.05-.03.09-.06.09-.1" style="fill: none; stroke: #000; stroke-linecap: round; stroke-linejoin: round; stroke-width: .75px;"/>
        <path d="M436.92,51.37c-.08-.04-.11-.08-.11-.12,0-.02,0-.04.02-.06.37-.43,5.1-.85,12.05-1.28,7.09-.44,16.24-.88,23.16-1.32,6.19-.39,10.39-.78,11.13-1.17.08-.04.12-.08.12-.12" style="fill: none; stroke: #000; stroke-linecap: round; stroke-linejoin: round; stroke-width: .75px;"/>
        <path d="M483.19,39.52c.07-.04.1-.08.09-.12" style="fill: none; stroke: #000; stroke-linecap: round; stroke-linejoin: round; stroke-width: .75px;"/>
        <path d="M436.91,43.47s-.08-.06-.09-.08c-.01-.01-.01-.03-.01-.04.07-.42,4.21-.84,10.69-1.26,6.69-.43,15.64-.86,22.78-1.29,6.91-.42,11.88-.83,12.83-1.24" style="fill: none; stroke: #000; stroke-linecap: round; stroke-linejoin: round; stroke-width: .75px;"/>
        <path d="M483.19,31.62c.06-.04.09-.08.08-.12" style="fill: none; stroke: #000; stroke-linecap: round; stroke-linejoin: round; stroke-width: .75px;"/>
        <path d="M436.91,35.57c-.06-.04-.09-.07-.09-.11,0-.38,3.34-.77,8.92-1.15,6.45-.44,15.64-.88,23.19-1.33,7.39-.43,12.94-.86,14.11-1.29.04-.01.07-.03.09-.04" style="fill: none; stroke: #000; stroke-linecap: round; stroke-linejoin: round; stroke-width: .75px;"/>
        <path d="M460.28,67.69c6.17-.16,12.32-.77,18.4-1.81" style="fill: none; stroke: #000; stroke-linecap: round; stroke-linejoin: round;"/>
        <path d="M441.43,61.78c-.02-.14.32-.29,1.04-.43,2.27-.46,8.28-.91,15-1.37,6.71-.45,13.85-.91,17.82-1.36,1.88-.22,3.01-.43,3.37-.64" style="fill: none; stroke: #000; stroke-linecap: round; stroke-linejoin: round; stroke-width: .75px;"/>
        <path d="M441.45,53.88c0-.24.97-.48,2.89-.72,3.64-.45,10.56-.9,17.3-1.36,6.74-.45,13.01-.9,15.68-1.36.72-.12,1.18-.24,1.37-.36" style="fill: none; stroke: #000; stroke-linecap: round; stroke-linejoin: round; stroke-width: .75px;"/>
        <path d="M441.38,45.95c-.01-.2.69-.41,2.12-.61,3.22-.46,10-.92,16.87-1.38,6.84-.46,13.46-.92,16.49-1.38.94-.15,1.52-.29,1.75-.43" style="fill: none; stroke: #000; stroke-linecap: round; stroke-linejoin: round; stroke-width: .75px;"/>
        <path d="M441.36,38.05c.04-.31,1.8-.63,5.01-.94,4.62-.46,12.03-.91,18.55-1.36,6.65-.47,12.07-.93,13.47-1.39.12-.04.2-.07.26-.11" style="fill: none; stroke: #000; stroke-linecap: round; stroke-linejoin: round; stroke-width: .75px;"/>
        <path d="M441.32,30.15c.03-.43,3.51-.85,8.97-1.28,5.8-.46,13.56-.91,19.39-1.37,4.9-.38,8.25-.77,8.96-1.15" style="fill: none; stroke: #000; stroke-linecap: round; stroke-linejoin: round; stroke-width: .75px;"/>
        <path d="M483.19,30.24s.05.04.07.05c.02.02.03.05.03.07-.06.41-3.94.81-10.13,1.22-6.56.43-15.49.86-22.72,1.29s-12.52.86-13.47,1.29c-.11.05-.16.1-.15.15" style="fill: none; stroke: #000; stroke-linecap: round; stroke-linejoin: round; stroke-width: .75px;"/>
        <path d="M483.19,38.14s.08.07.08.11c0,.35-2.79.71-7.65,1.06-5.89.43-14.61.86-22.21,1.29s-13.82.86-15.84,1.29c-.33.07-.55.14-.65.21-.06.03-.08.07-.08.11" style="fill: none; stroke: #000; stroke-linecap: round; stroke-linejoin: round; stroke-width: .75px;"/>
        <path d="M483.15,46.04c.06.04.08.07.08.11,0,.31-2.1.63-5.99.94-5.48.44-14.27.88-22.22,1.32-7.89.44-14.65.88-17.11,1.31-.54.1-.87.19-1,.29-.04.03-.06.07-.06.1" style="fill: none; stroke: #000; stroke-linecap: round; stroke-linejoin: round; stroke-width: .75px;"/>
        <path d="M483.19,53.97c.07.04.1.08.1.12,0,.19-.76.38-2.3.57-3.49.43-10.88.86-18.81,1.29-7.91.43-16.08.86-20.79,1.29-2.55.24-4.03.46-4.37.7-.05.03-.08.07-.08.1" style="fill: none; stroke: #000; stroke-linecap: round; stroke-linejoin: round; stroke-width: .75px;"/>
        <path d="M483.2,61.87c.07.04.11.09.11.13,0,.13-.38.26-1.16.4-2.53.42-9.16.85-16.89,1.28s-16.3.86-21.82,1.29c-3.78.29-6.03.59-6.44.88-.04.03-.07.06-.07.09" style="fill: none; stroke: #000; stroke-linecap: round; stroke-linejoin: round; stroke-width: .75px;"/>
        <path d="M477.83,67.69c.63-.13.96-.27.97-.4" style="fill: none; stroke: #000; stroke-linecap: round; stroke-linejoin: round; stroke-width: 3px;"/>
        <path d="M441.56,63.19c.26-.16.94-.31,2.06-.47,3.22-.46,9.9-.91,16.69-1.37s13.38-.91,16.48-1.37c1.34-.2,2-.39,2-.59" style="fill: none; stroke: #000; stroke-linecap: round; stroke-linejoin: round; stroke-width: .75px;"/>
        <path d="M441.57,55.29c.45-.25,2-.51,4.52-.76,4.49-.46,11.86-.91,18.44-1.37,6.57-.45,12.06-.9,13.74-1.36.39-.1.57-.21.55-.31" style="fill: none; stroke: #000; stroke-linecap: round; stroke-linejoin: round; stroke-width: .75px;"/>
        <path d="M441.5,47.36c.36-.21,1.48-.42,3.33-.63,4.03-.47,11.32-.93,18.13-1.39,6.79-.46,12.78-.92,14.9-1.38.61-.14.9-.27.88-.4" style="fill: none; stroke: #000; stroke-linecap: round; stroke-linejoin: round; stroke-width: .75px;"/>
        <path d="M441.48,39.46c.61-.33,3.14-.66,7.03-.99,5.34-.46,13.01-.91,19.19-1.36,6.16-.46,10.58-.91,11.04-1.36.03-.03.04-.06.04-.09" style="fill: none; stroke: #000; stroke-linecap: round; stroke-linejoin: round; stroke-width: .75px;"/>
        <path d="M441.44,31.56c.77-.43,5.15-.87,11.13-1.31,6.31-.46,14.12-.92,19.42-1.38,4.23-.37,6.72-.74,6.77-1.11" style="fill: none; stroke: #000; stroke-linecap: round; stroke-linejoin: round; stroke-width: .75px;"/>
        <line x1="494.88" y1="175.13" x2="425.36" y2="175.13" style="fill: none; stroke: #000; stroke-linecap: round; stroke-linejoin: round; stroke-width: 2px;"/>
        <line x1="478.9" y1="25.01" x2="479.66" y2="25.7" style="fill: none; stroke: #000; stroke-linecap: round; stroke-linejoin: round; stroke-width: .75px;"/>
        <polyline points="441.19 25.01 437.79 28.11 437.78 28.12" style="fill: none; stroke: #000; stroke-linecap: round; stroke-linejoin: round; stroke-width: .75px;"/>
        <path d="M479.63,25.78s-.03.02-.04.02l-.81.48s-.08.05-.12.07" style="fill: none; stroke: #000; stroke-linecap: round; stroke-linejoin: round; stroke-width: .75px;"/>
        <path d="M483.26,63.25s-.05.03-.07.04c-1.44.83-2.89,1.67-4.33,2.51-.04.03-.09.05-.13.08" style="fill: none; stroke: #000; stroke-linecap: round; stroke-linejoin: round; stroke-width: .75px;"/>
        <path d="M483.26,55.35s-.01.01-.02.01c-1.46.84-2.92,1.69-4.38,2.54-.04.03-.09.05-.13.08" style="fill: none; stroke: #000; stroke-linecap: round; stroke-linejoin: round; stroke-width: .75px;"/>
        <path d="M483.26,47.45s-.03.02-.05.03c-1.45.83-2.9,1.68-4.35,2.52-.04.03-.09.05-.13.08" style="fill: none; stroke: #000; stroke-linecap: round; stroke-linejoin: round; stroke-width: .75px;"/>
        <path d="M483.19,39.52s-.05.03-.08.04c-1.44.84-2.89,1.68-4.33,2.52-.04.02-.08.05-.12.07" style="fill: none; stroke: #000; stroke-linecap: round; stroke-linejoin: round; stroke-width: .75px;"/>
        <path d="M483.19,31.62l-.06.03c-1.45.84-2.9,1.69-4.35,2.53-.04.02-.08.05-.12.07" style="fill: none; stroke: #000; stroke-linecap: round; stroke-linejoin: round; stroke-width: .75px;"/>
        <path d="M437.84,67.69c-.27-.15-.55-.31-.81-.46-.02-.01-.03-.02-.05-.03" style="fill: none; stroke: #000; stroke-linecap: round; stroke-linejoin: round; stroke-width: 3px;"/>
        <path d="M441.38,61.85c-1.47-.85-2.93-1.7-4.4-2.55" style="fill: none; stroke: #000; stroke-linecap: round; stroke-linejoin: round; stroke-width: .75px;"/>
        <path d="M441.38,53.95c-1.47-.85-2.93-1.7-4.4-2.55" style="fill: none; stroke: #000; stroke-linecap: round; stroke-linejoin: round; stroke-width: .75px;"/>
        <path d="M441.31,46.03c-1.47-.86-2.93-1.71-4.4-2.56" style="fill: none; stroke: #000; stroke-linecap: round; stroke-linejoin: round; stroke-width: .75px;"/>
        <path d="M441.31,38.13c-1.47-.86-2.93-1.71-4.4-2.56" style="fill: none; stroke: #000; stroke-linecap: round; stroke-linejoin: round; stroke-width: .75px;"/>
        <path d="M441.31,30.23c-1.17-.68-2.34-1.36-3.5-2.04" style="fill: none; stroke: #000; stroke-linecap: round; stroke-linejoin: round; stroke-width: .75px;"/>
        <line x1="436.88" y1="67.08" x2="436.88" y2="65.94" style="fill: none; stroke: #000; stroke-linecap: round; stroke-linejoin: round;"/>
        <line x1="436.88" y1="59.18" x2="436.88" y2="58.04" style="fill: none; stroke: #000; stroke-linecap: round; stroke-linejoin: round; stroke-width: .75px;"/>
        <line x1="436.81" y1="51.25" x2="436.81" y2="50.11" style="fill: none; stroke: #000; stroke-linecap: round; stroke-linejoin: round; stroke-width: .75px;"/>
        <line x1="436.81" y1="43.35" x2="436.81" y2="42.21" style="fill: none; stroke: #000; stroke-linecap: round; stroke-linejoin: round; stroke-width: .75px;"/>
        <line x1="436.81" y1="35.45" x2="436.81" y2="34.31" style="fill: none; stroke: #000; stroke-linecap: round; stroke-linejoin: round; stroke-width: .75px;"/>
        <polyline points="483.36 63.13 483.36 62 483.36 61.99" style="fill: none; stroke: #000; stroke-linecap: round; stroke-linejoin: round; stroke-width: .75px;"/>
        <line x1="483.36" y1="55.23" x2="483.36" y2="54.09" style="fill: none; stroke: #000; stroke-linecap: round; stroke-linejoin: round; stroke-width: .75px;"/>
        <line x1="483.29" y1="47.3" x2="483.29" y2="46.16" style="fill: none; stroke: #000; stroke-linecap: round; stroke-linejoin: round; stroke-width: .75px;"/>
        <line x1="483.29" y1="39.4" x2="483.29" y2="38.26" style="fill: none; stroke: #000; stroke-linecap: round; stroke-linejoin: round; stroke-width: .75px;"/>
        <line x1="483.29" y1="31.5" x2="483.29" y2="30.36" style="fill: none; stroke: #000; stroke-linecap: round; stroke-linejoin: round; stroke-width: .75px;"/>
        <path d="M478.86,67.21c.27.16.54.32.82.48" style="fill: none; stroke: #000; stroke-linecap: round; stroke-linejoin: round; stroke-width: 3px;"/>
        <path d="M478.86,59.31c1.45.85,2.9,1.69,4.36,2.53.01.01.03.02.04.03" style="fill: none; stroke: #000; stroke-linecap: round; stroke-linejoin: round; stroke-width: .75px;"/>
        <path d="M478.86,51.41c1.44.85,2.9,1.69,4.35,2.53.02.01.03.02.05.03" style="fill: none; stroke: #000; stroke-linecap: round; stroke-linejoin: round; stroke-width: .75px;"/>
        <path d="M478.78,43.49c1.46.84,2.92,1.69,4.38,2.53.01.01.02.01.03.02" style="fill: none; stroke: #000; stroke-linecap: round; stroke-linejoin: round; stroke-width: .75px;"/>
        <path d="M478.78,35.59c1.47.85,2.93,1.7,4.4,2.55h.01" style="fill: none; stroke: #000; stroke-linecap: round; stroke-linejoin: round; stroke-width: .75px;"/>
        <path d="M478.78,27.69l4.41,2.55" style="fill: none; stroke: #000; stroke-linecap: round; stroke-linejoin: round; stroke-width: .75px;"/>
        <path d="M436.91,34.19l.06-.03c1.45-.84,2.89-1.68,4.34-2.52.04-.03.09-.05.13-.08" style="fill: none; stroke: #000; stroke-linecap: round; stroke-linejoin: round; stroke-width: .75px;"/>
        <path d="M436.91,42.09c1.47-.85,2.93-1.7,4.4-2.55.04-.03.09-.05.13-.08" style="fill: none; stroke: #000; stroke-linecap: round; stroke-linejoin: round; stroke-width: .75px;"/>
        <path d="M436.91,49.99c1.47-.85,2.93-1.7,4.4-2.55.04-.03.09-.05.13-.08" style="fill: none; stroke: #000; stroke-linecap: round; stroke-linejoin: round; stroke-width: .75px;"/>
        <path d="M436.98,57.92s.01,0,.02,0c1.46-.84,2.92-1.69,4.38-2.55.04-.02.09-.04.13-.07" style="fill: none; stroke: #000; stroke-linecap: round; stroke-linejoin: round; stroke-width: .75px;"/>
        <path d="M436.98,65.82c1.47-.85,2.93-1.7,4.4-2.56.04-.02.09-.04.13-.07" style="fill: none; stroke: #000; stroke-linecap: round; stroke-linejoin: round; stroke-width: .75px;"/>
        <path d="M499.62,170.39c0,2.62-2.12,4.74-4.74,4.74" style="fill: none; stroke: #000; stroke-linecap: round; stroke-linejoin: round; stroke-width: 2px;"/>
        <path d="M425.36,175.13c-2.62,0-4.74-2.12-4.74-4.74" style="fill: none; stroke: #000; stroke-linecap: round; stroke-linejoin: round; stroke-width: 2px;"/>
        <line x1="420.62" y1="170.39" x2="420.62" y2="127.73" style="fill: none; stroke: #000; stroke-linecap: round; stroke-linejoin: round; stroke-width: 2px;"/>
        <line x1="499.62" y1="170.39" x2="499.62" y2="127.73" style="fill: none; stroke: #000; stroke-linecap: round; stroke-linejoin: round; stroke-width: 2px;"/>
        <polyline points="441.38 63.26 441.38 61.85 441.38 61.78" style="fill: none; stroke: #000; stroke-linecap: round; stroke-linejoin: round; stroke-width: .75px;"/>
        <polyline points="441.38 55.36 441.38 53.95 441.38 53.88" style="fill: none; stroke: #000; stroke-linecap: round; stroke-linejoin: round; stroke-width: .75px;"/>
        <polyline points="441.31 47.44 441.31 46.03 441.31 45.95" style="fill: none; stroke: #000; stroke-linecap: round; stroke-linejoin: round; stroke-width: .75px;"/>
        <polyline points="441.31 39.54 441.31 38.13 441.31 38.05" style="fill: none; stroke: #000; stroke-linecap: round; stroke-linejoin: round; stroke-width: .75px;"/>
        <polyline points="441.31 31.64 441.31 30.23 441.31 30.15" style="fill: none; stroke: #000; stroke-linecap: round; stroke-linejoin: round; stroke-width: .75px;"/>
        <polyline points="478.86 67.29 478.86 67.21 478.86 65.8" style="fill: none; stroke: #000; stroke-linecap: round; stroke-linejoin: round;"/>
        <polyline points="478.86 59.39 478.86 59.31 478.86 57.9" style="fill: none; stroke: #000; stroke-linecap: round; stroke-linejoin: round; stroke-width: .75px;"/>
        <polyline points="478.86 51.49 478.86 51.41 478.86 50" style="fill: none; stroke: #000; stroke-linecap: round; stroke-linejoin: round; stroke-width: .75px;"/>
        <polyline points="478.78 43.56 478.78 43.49 478.78 42.08" style="fill: none; stroke: #000; stroke-linecap: round; stroke-linejoin: round; stroke-width: .75px;"/>
        <polyline points="478.78 35.66 478.78 35.59 478.78 34.18" style="fill: none; stroke: #000; stroke-linecap: round; stroke-linejoin: round; stroke-width: .75px;"/>
        <polyline points="478.78 27.76 478.78 27.69 478.78 26.28" style="fill: none; stroke: #000; stroke-linecap: round; stroke-linejoin: round; stroke-width: .75px;"/>
        <path d="M225.07,4.44s-.02.05.02.08" style="fill: none; stroke: #000; stroke-linecap: round; stroke-linejoin: round; stroke-width: .75px;"/>
        <path d="M266.88,2.13c-.17.07-.58.14-1.21.21-.93.1-2.34.2-4.13.3-1.82.1-4,.2-6.43.3-2.46.1-5.11.2-7.82.3-2.74.1-5.48.2-8.06.29-2.62.11-5.03.2-7.09.3-2.09.1-3.78.2-4.99.3-1.22.1-1.93.2-2.07.3" style="fill: none; stroke: #000; stroke-linecap: round; stroke-linejoin: round; stroke-width: .75px;"/>
        <path d="M266.95,2.02s0,.01.01.02c0,.02,0,.05-.04.07" style="fill: none; stroke: #000; stroke-linecap: round; stroke-linejoin: round; stroke-width: .75px;"/>
        <line x1="266.19" y1="1.33" x2="228.48" y2="1.33" style="fill: none; stroke: #000; stroke-linecap: round; stroke-linejoin: round; stroke-width: .75px;"/>
        <path d="M224.25,67.2c-.06-.04-.09-.08-.09-.12,0-.22,1.03-.45,3.1-.67,4.02-.43,11.81-.86,19.79-1.29s15.86-.86,20.06-1.3c1.97-.2,3.09-.4,3.35-.6.03-.03.05-.06.05-.09" style="fill: none; stroke: #000; stroke-linecap: round; stroke-linejoin: round; stroke-width: .75px;"/>
        <path d="M224.26,59.3c-.07-.04-.11-.08-.11-.13,0-.17.64-.34,1.94-.52,3.23-.43,10.42-.86,18.31-1.29s16.19-.86,21.13-1.29c2.63-.23,4.26-.46,4.8-.68.12-.06.19-.11.19-.16" style="fill: none; stroke: #000; stroke-linecap: round; stroke-linejoin: round; stroke-width: .75px;"/>
        <path d="M224.25,51.4s-.03-.01-.04-.03c-.05-.03-.08-.07-.08-.1,0-.12.3-.23.91-.35,2.24-.43,8.65-.86,16.31-1.29s16.31-.86,22.04-1.29c3.96-.29,6.42-.59,7.01-.88.08-.05.12-.09.13-.13" style="fill: none; stroke: #000; stroke-linecap: round; stroke-linejoin: round; stroke-width: .75px;"/>
        <path d="M224.25,43.5s-.03-.02-.04-.03c-.05-.03-.08-.07-.08-.1,0-.11.21-.2.65-.3,1.95-.43,8.24-.87,15.95-1.3,7.7-.44,16.54-.87,22.42-1.31,4.09-.3,6.64-.6,7.26-.9.08-.04.13-.09.14-.13" style="fill: none; stroke: #000; stroke-linecap: round; stroke-linejoin: round; stroke-width: .75px;"/>
        <path d="M224.23,35.6s-.02-.01-.03-.02c-.06-.03-.09-.07-.09-.11,0-.06.1-.13.31-.2,1.34-.43,7.02-.87,14.45-1.3,7.42-.43,16.32-.86,22.64-1.29,4.91-.33,8.13-.67,8.89-1.01.11-.04.16-.09.17-.14" style="fill: none; stroke: #000; stroke-linecap: round; stroke-linejoin: round; stroke-width: .75px;"/>
        <path d="M270.47,23.75c.07-.04.1-.08.1-.12" style="fill: none; stroke: #000; stroke-linecap: round; stroke-linejoin: round; stroke-width: .75px;"/>
        <path d="M224.21,27.7h-.01c-.07-.05-.1-.08-.1-.12,0-.02,0-.04.02-.06.36-.43,5.09-.86,12.04-1.29,7.09-.43,16.24-.87,23.17-1.31,6.18-.39,10.39-.78,11.13-1.17" style="fill: none; stroke: #000; stroke-linecap: round; stroke-linejoin: round; stroke-width: .75px;"/>
        <path d="M270.47,15.85h.01c.06-.04.09-.08.09-.12" style="fill: none; stroke: #000; stroke-linecap: round; stroke-linejoin: round; stroke-width: .75px;"/>
        <path d="M224.19,19.8s-.07-.06-.09-.09c0,0,0-.02,0-.03,0-.42,4.16-.84,10.69-1.26,6.7-.43,15.65-.86,22.79-1.29,7.06-.43,12.11-.85,12.89-1.28" style="fill: none; stroke: #000; stroke-linecap: round; stroke-linejoin: round; stroke-width: .75px;"/>
        <path d="M270.47,7.95c.07-.04.1-.08.09-.12" style="fill: none; stroke: #000; stroke-linecap: round; stroke-linejoin: round; stroke-width: .75px;"/>
        <path d="M224.19,11.9c-.06-.04-.09-.07-.09-.11,0-.38,3.35-.77,8.93-1.15,6.44-.44,15.63-.89,23.19-1.33,7.38-.43,12.93-.86,14.1-1.3.04-.02.07-.03.11-.04" style="fill: none; stroke: #000; stroke-linecap: round; stroke-linejoin: round; stroke-width: .75px;"/>
        <path d="M247.49,67.69c6.17-.16,12.32-.77,18.41-1.81" style="fill: none; stroke: #000; stroke-linecap: round; stroke-linejoin: round;"/>
        <path d="M228.65,61.78c-.02-.14.32-.29,1.03-.43,2.28-.46,8.28-.91,15-1.37,6.72-.45,13.85-.91,17.83-1.36,1.87-.22,3.01-.43,3.37-.64" style="fill: none; stroke: #000; stroke-linecap: round; stroke-linejoin: round; stroke-width: .75px;"/>
        <path d="M228.66,53.88c.01-.24.98-.48,2.89-.72,3.65-.45,10.57-.9,17.31-1.36,6.73-.45,13-.9,15.68-1.36.72-.12,1.17-.24,1.36-.36" style="fill: none; stroke: #000; stroke-linecap: round; stroke-linejoin: round; stroke-width: .75px;"/>
        <path d="M228.64,45.98c.04-.33,1.93-.65,5.32-.98,4.83-.46,12.51-.92,19.08-1.38,6.56-.47,11.7-.93,12.79-1.39.05-.02.08-.04.11-.05" style="fill: none; stroke: #000; stroke-linecap: round; stroke-linejoin: round; stroke-width: .75px;"/>
        <path d="M228.6,38.08c0-.46,4.02-.91,10.04-1.37,6.05-.46,13.84-.91,19.43-1.37,4.32-.36,7.18-.71,7.84-1.06" style="fill: none; stroke: #000; stroke-linecap: round; stroke-linejoin: round; stroke-width: .75px;"/>
        <path d="M228.63,30.18c-.02-.11.17-.21.56-.32,1.7-.45,7.23-.91,13.83-1.36,6.59-.46,13.95-.91,18.41-1.37,2.48-.25,4.01-.5,4.45-.75" style="fill: none; stroke: #000; stroke-linecap: round; stroke-linejoin: round; stroke-width: .75px;"/>
        <path d="M228.67,22.28c-.01-.2.68-.41,2.11-.61,3.22-.46,10-.93,16.87-1.39,6.85-.46,13.46-.92,16.49-1.37.94-.15,1.53-.29,1.75-.43" style="fill: none; stroke: #000; stroke-linecap: round; stroke-linejoin: round; stroke-width: .75px;"/>
        <path d="M228.64,14.38c.04-.32,1.8-.63,5.02-.95,4.61-.45,12.02-.9,18.55-1.36,6.65-.46,12.07-.92,13.47-1.38.11-.04.2-.08.26-.11" style="fill: none; stroke: #000; stroke-linecap: round; stroke-linejoin: round; stroke-width: .75px;"/>
        <path d="M228.6,6.48c.04-.43,3.52-.86,8.97-1.29,5.8-.45,13.56-.91,19.39-1.36,4.91-.39,8.25-.77,8.96-1.15" style="fill: none; stroke: #000; stroke-linecap: round; stroke-linejoin: round; stroke-width: .75px;"/>
        <path d="M270.47,6.57s.05.03.07.05.03.05.03.07c-.06.41-3.94.81-10.13,1.22-6.56.43-15.48.86-22.71,1.29-7.24.43-12.53.86-13.47,1.29-.11.05-.16.1-.16.15" style="fill: none; stroke: #000; stroke-linecap: round; stroke-linejoin: round; stroke-width: .75px;"/>
        <path d="M270.47,14.47c.06.04.09.07.09.11,0,.35-2.8.71-7.66,1.06-5.89.43-14.61.86-22.21,1.29s-13.81.86-15.83,1.28c-.34.08-.56.15-.66.22-.06.04-.08.07-.07.11" style="fill: none; stroke: #000; stroke-linecap: round; stroke-linejoin: round; stroke-width: .75px;"/>
        <path d="M270.44,22.37c.06.04.08.07.08.11,0,.31-2.1.63-5.99.94-5.48.44-14.28.88-22.23,1.32-7.89.44-14.65.87-17.11,1.31-.53.09-.86.19-.99.28-.04.04-.07.07-.06.11" style="fill: none; stroke: #000; stroke-linecap: round; stroke-linejoin: round; stroke-width: .75px;"/>
        <path d="M270.44,30.27c.06.04.08.07.08.11,0,.3-1.97.61-5.62.91-5.27.43-13.86.87-21.78,1.3-7.91.44-14.86.87-17.62,1.31-.68.1-1.1.21-1.27.32-.06.04-.09.08-.08.12" style="fill: none; stroke: #000; stroke-linecap: round; stroke-linejoin: round; stroke-width: .75px;"/>
        <path d="M270.43,38.17c.06.04.09.07.09.11,0,.27-1.62.56-4.73.83-4.87.43-13.21.87-21.16,1.3-7.96.43-15.25.87-18.52,1.3-1.08.15-1.71.29-1.9.44-.04.03-.06.06-.06.09" style="fill: none; stroke: #000; stroke-linecap: round; stroke-linejoin: round; stroke-width: .75px;"/>
        <path d="M270.42,46.07c.06.04.09.08.09.11,0,.24-1.2.48-3.56.72-4.28.43-12.22.86-20.2,1.3-7.98.43-15.7.86-19.63,1.29-1.61.18-2.56.35-2.86.53-.06.04-.1.08-.1.12" style="fill: none; stroke: #000; stroke-linecap: round; stroke-linejoin: round; stroke-width: .75px;"/>
        <path d="M270.41,53.97c.07.04.1.08.1.12,0,.19-.76.38-2.3.57-3.5.43-10.89.86-18.81,1.29s-16.09.86-20.8,1.29c-2.54.24-4.03.46-4.37.7-.05.03-.08.07-.08.1" style="fill: none; stroke: #000; stroke-linecap: round; stroke-linejoin: round; stroke-width: .75px;"/>
        <path d="M270.41,61.87c.08.04.12.09.12.13,0,.13-.39.26-1.17.4-2.52.42-9.15.85-16.89,1.28-7.73.43-16.29.86-21.81,1.29-3.64.28-5.86.57-6.39.85-.08.04-.12.08-.13.12" style="fill: none; stroke: #000; stroke-linecap: round; stroke-linejoin: round; stroke-width: .75px;"/>
        <path d="M265.04,67.69c.63-.13.96-.27.98-.4" style="fill: none; stroke: #000; stroke-linecap: round; stroke-linejoin: round;"/>
        <path d="M228.78,63.19c.25-.16.93-.31,2.05-.47,3.22-.46,9.9-.91,16.69-1.37s13.39-.91,16.49-1.37c1.34-.2,2-.39,2-.59" style="fill: none; stroke: #000; stroke-linecap: round; stroke-linejoin: round; stroke-width: .75px;"/>
        <path d="M228.79,55.29c.45-.25,1.99-.51,4.52-.76,4.48-.46,11.85-.91,18.43-1.37,6.57-.45,12.07-.9,13.75-1.36.38-.1.56-.21.55-.31" style="fill: none; stroke: #000; stroke-linecap: round; stroke-linejoin: round; stroke-width: .75px;"/>
        <path d="M228.76,47.39c.63-.34,3.32-.68,7.43-1.03,5.42-.45,13.1-.9,19.2-1.36,6.22-.46,10.52-.92,10.68-1.38v-.03" style="fill: none; stroke: #000; stroke-linecap: round; stroke-linejoin: round; stroke-width: .75px;"/>
        <path d="M228.72,39.49s.03-.02.05-.02c.93-.46,5.89-.92,12.35-1.38,6.45-.46,14.1-.92,19.07-1.38,3.7-.34,5.79-.68,5.84-1.02" style="fill: none; stroke: #000; stroke-linecap: round; stroke-linejoin: round; stroke-width: .75px;"/>
        <path d="M228.76,31.59c.19-.12.64-.24,1.36-.36,2.67-.46,8.98-.91,15.74-1.37,6.76-.45,13.68-.91,17.31-1.36,1.88-.24,2.83-.48,2.83-.71" style="fill: none; stroke: #000; stroke-linecap: round; stroke-linejoin: round; stroke-width: .75px;"/>
        <path d="M228.79,23.69c.36-.21,1.48-.42,3.33-.64,4.02-.46,11.32-.92,18.13-1.38,6.78-.46,12.77-.93,14.9-1.39.61-.13.89-.26.87-.39" style="fill: none; stroke: #000; stroke-linecap: round; stroke-linejoin: round; stroke-width: .75px;"/>
        <path d="M228.76,15.79c.62-.33,3.14-.66,7.04-.99,5.33-.46,13.01-.91,19.18-1.37,6.17-.45,10.58-.9,11.05-1.36.03-.02.04-.05.04-.08" style="fill: none; stroke: #000; stroke-linecap: round; stroke-linejoin: round; stroke-width: .75px;"/>
        <path d="M228.72,7.89c.77-.44,5.15-.87,11.13-1.31,6.31-.46,14.12-.92,19.42-1.39,4.24-.36,6.72-.73,6.78-1.1" style="fill: none; stroke: #000; stroke-linecap: round; stroke-linejoin: round; stroke-width: .75px;"/>
        <line x1="282.09" y1="175.13" x2="212.57" y2="175.13" style="fill: none; stroke: #000; stroke-linecap: round; stroke-linejoin: round; stroke-width: 2px;"/>
        <line x1="266.19" y1="1.33" x2="266.95" y2="2.02" style="fill: none; stroke: #000; stroke-linecap: round; stroke-linejoin: round; stroke-width: .75px;"/>
        <polyline points="228.48 1.33 225.08 4.43 225.07 4.44" style="fill: none; stroke: #000; stroke-linecap: round; stroke-linejoin: round; stroke-width: .75px;"/>
        <path d="M266.92,2.11s-.03.02-.04.02c-.27.16-.54.32-.81.47-.04.03-.09.05-.13.08" style="fill: none; stroke: #000; stroke-linecap: round; stroke-linejoin: round; stroke-width: .75px;"/>
        <path d="M270.47,63.25c-1.47.85-2.93,1.7-4.4,2.55-.04.03-.09.05-.13.08" style="fill: none; stroke: #000; stroke-linecap: round; stroke-linejoin: round; stroke-width: .75px;"/>
        <path d="M270.47,55.35s-.08.05-.12.07c-1.43.82-2.85,1.65-4.28,2.48-.04.03-.09.05-.13.08" style="fill: none; stroke: #000; stroke-linecap: round; stroke-linejoin: round; stroke-width: .75px;"/>
        <path d="M270.47,47.45l-.06.03c-1.45.84-2.89,1.68-4.34,2.52-.04.03-.09.05-.13.08" style="fill: none; stroke: #000; stroke-linecap: round; stroke-linejoin: round; stroke-width: .75px;"/>
        <path d="M270.47,39.55s-.03.02-.05.03c-1.45.83-2.9,1.68-4.35,2.52-.04.03-.09.05-.13.08" style="fill: none; stroke: #000; stroke-linecap: round; stroke-linejoin: round; stroke-width: .75px;"/>
        <path d="M270.47,31.65s-.04.02-.06.04c-1.45.83-2.89,1.67-4.34,2.51-.04.03-.09.05-.13.08" style="fill: none; stroke: #000; stroke-linecap: round; stroke-linejoin: round; stroke-width: .75px;"/>
        <path d="M270.47,23.75h0c-1.46.85-2.93,1.7-4.39,2.55-.04.03-.09.05-.13.08" style="fill: none; stroke: #000; stroke-linecap: round; stroke-linejoin: round; stroke-width: .75px;"/>
        <path d="M270.47,15.85h0c-1.46.85-2.93,1.7-4.39,2.55-.04.03-.09.05-.13.08" style="fill: none; stroke: #000; stroke-linecap: round; stroke-linejoin: round; stroke-width: .75px;"/>
        <path d="M270.47,7.95s-.03.02-.04.02c-1.45.84-2.91,1.69-4.36,2.53-.04.03-.09.05-.13.08" style="fill: none; stroke: #000; stroke-linecap: round; stroke-linejoin: round; stroke-width: .75px;"/>
        <path d="M225.05,67.69c-.27-.15-.54-.31-.81-.46-.02-.01-.03-.02-.05-.03" style="fill: none; stroke: #000; stroke-linecap: round; stroke-linejoin: round;"/>
        <path d="M228.6,61.85c-1.45-.84-2.91-1.68-4.36-2.52-.02-.01-.03-.02-.05-.03" style="fill: none; stroke: #000; stroke-linecap: round; stroke-linejoin: round; stroke-width: .75px;"/>
        <path d="M228.6,53.95l-4.41-2.55" style="fill: none; stroke: #000; stroke-linecap: round; stroke-linejoin: round; stroke-width: .75px;"/>
        <path d="M228.6,46.05l-4.41-2.55" style="fill: none; stroke: #000; stroke-linecap: round; stroke-linejoin: round; stroke-width: .75px;"/>
        <path d="M228.6,38.15l-4.41-2.55" style="fill: none; stroke: #000; stroke-linecap: round; stroke-linejoin: round; stroke-width: .75px;"/>
        <path d="M228.6,30.25l-4.41-2.55" style="fill: none; stroke: #000; stroke-linecap: round; stroke-linejoin: round; stroke-width: .75px;"/>
        <path d="M228.6,22.35c-1.47-.85-2.93-1.7-4.4-2.55h-.01" style="fill: none; stroke: #000; stroke-linecap: round; stroke-linejoin: round; stroke-width: .75px;"/>
        <path d="M228.6,14.45l-4.41-2.55" style="fill: none; stroke: #000; stroke-linecap: round; stroke-linejoin: round; stroke-width: .75px;"/>
        <path d="M228.6,6.55c-1.17-.68-2.34-1.35-3.51-2.03" style="fill: none; stroke: #000; stroke-linecap: round; stroke-linejoin: round; stroke-width: .75px;"/>
        <line x1="224.09" y1="67.08" x2="224.09" y2="65.94" style="fill: none; stroke: #000; stroke-linecap: round; stroke-linejoin: round;"/>
        <polyline points="224.09 59.18 224.09 59.17 224.09 58.04" style="fill: none; stroke: #000; stroke-linecap: round; stroke-linejoin: round; stroke-width: .75px;"/>
        <polyline points="224.09 51.28 224.09 51.27 224.09 50.14" style="fill: none; stroke: #000; stroke-linecap: round; stroke-linejoin: round; stroke-width: .75px;"/>
        <polyline points="224.09 43.38 224.09 43.37 224.09 42.24" style="fill: none; stroke: #000; stroke-linecap: round; stroke-linejoin: round; stroke-width: .75px;"/>
        <polyline points="224.09 35.48 224.09 35.47 224.09 34.34" style="fill: none; stroke: #000; stroke-linecap: round; stroke-linejoin: round; stroke-width: .75px;"/>
        <line x1="224.09" y1="27.58" x2="224.09" y2="26.44" style="fill: none; stroke: #000; stroke-linecap: round; stroke-linejoin: round; stroke-width: .75px;"/>
        <line x1="224.09" y1="19.68" x2="224.09" y2="18.54" style="fill: none; stroke: #000; stroke-linecap: round; stroke-linejoin: round; stroke-width: .75px;"/>
        <line x1="224.09" y1="11.78" x2="224.09" y2="10.64" style="fill: none; stroke: #000; stroke-linecap: round; stroke-linejoin: round; stroke-width: .75px;"/>
        <polyline points="270.57 63.13 270.57 62 270.57 61.99" style="fill: none; stroke: #000; stroke-linecap: round; stroke-linejoin: round; stroke-width: .75px;"/>
        <line x1="270.57" y1="55.23" x2="270.57" y2="54.09" style="fill: none; stroke: #000; stroke-linecap: round; stroke-linejoin: round; stroke-width: .75px;"/>
        <line x1="270.57" y1="47.33" x2="270.57" y2="46.19" style="fill: none; stroke: #000; stroke-linecap: round; stroke-linejoin: round; stroke-width: .75px;"/>
        <line x1="270.57" y1="39.43" x2="270.57" y2="38.29" style="fill: none; stroke: #000; stroke-linecap: round; stroke-linejoin: round; stroke-width: .75px;"/>
        <line x1="270.57" y1="31.53" x2="270.57" y2="30.39" style="fill: none; stroke: #000; stroke-linecap: round; stroke-linejoin: round; stroke-width: .75px;"/>
        <line x1="270.57" y1="23.63" x2="270.57" y2="22.49" style="fill: none; stroke: #000; stroke-linecap: round; stroke-linejoin: round; stroke-width: .75px;"/>
        <line x1="270.57" y1="15.73" x2="270.57" y2="14.59" style="fill: none; stroke: #000; stroke-linecap: round; stroke-linejoin: round; stroke-width: .75px;"/>
        <line x1="270.57" y1="7.83" x2="270.57" y2="6.69" style="fill: none; stroke: #000; stroke-linecap: round; stroke-linejoin: round; stroke-width: .75px;"/>
        <path d="M266.07,67.21c.27.16.55.32.82.48" style="fill: none; stroke: #000; stroke-linecap: round; stroke-linejoin: round;"/>
        <path d="M266.07,59.31c1.46.85,2.91,1.69,4.36,2.53.01.01.03.02.04.03" style="fill: none; stroke: #000; stroke-linecap: round; stroke-linejoin: round; stroke-width: .75px;"/>
        <path d="M266.07,51.41c1.46.85,2.91,1.69,4.36,2.53.01.01.03.02.04.03" style="fill: none; stroke: #000; stroke-linecap: round; stroke-linejoin: round; stroke-width: .75px;"/>
        <path d="M266.07,43.51c1.46.85,2.91,1.69,4.36,2.54.01,0,.03.01.04.02" style="fill: none; stroke: #000; stroke-linecap: round; stroke-linejoin: round; stroke-width: .75px;"/>
        <path d="M266.07,35.61c1.46.85,2.92,1.7,4.37,2.54.01.01.02.01.03.02" style="fill: none; stroke: #000; stroke-linecap: round; stroke-linejoin: round; stroke-width: .75px;"/>
        <path d="M266.07,27.71c1.46.86,2.93,1.7,4.38,2.55.01,0,.01.01.02.01" style="fill: none; stroke: #000; stroke-linecap: round; stroke-linejoin: round; stroke-width: .75px;"/>
        <path d="M266.07,19.82c1.46.85,2.93,1.69,4.38,2.54.01,0,.01.01.02.01" style="fill: none; stroke: #000; stroke-linecap: round; stroke-linejoin: round; stroke-width: .75px;"/>
        <path d="M266.07,11.92c1.47.85,2.94,1.7,4.4,2.55" style="fill: none; stroke: #000; stroke-linecap: round; stroke-linejoin: round; stroke-width: .75px;"/>
        <path d="M266.07,4.02c1.47.85,2.94,1.7,4.4,2.55" style="fill: none; stroke: #000; stroke-linecap: round; stroke-linejoin: round; stroke-width: .75px;"/>
        <path d="M224.19,10.52s.05-.03.07-.04c1.45-.83,2.89-1.68,4.34-2.52.04-.02.08-.05.12-.07" style="fill: none; stroke: #000; stroke-linecap: round; stroke-linejoin: round; stroke-width: .75px;"/>
        <path d="M224.19,18.42c1.47-.85,2.94-1.7,4.41-2.56.04-.02.08-.05.12-.07" style="fill: none; stroke: #000; stroke-linecap: round; stroke-linejoin: round; stroke-width: .75px;"/>
        <path d="M224.19,26.32c1.47-.85,2.94-1.7,4.41-2.56.04-.02.08-.05.12-.07" style="fill: none; stroke: #000; stroke-linecap: round; stroke-linejoin: round; stroke-width: .75px;"/>
        <path d="M224.19,34.22s.02-.01.03-.02c1.46-.84,2.92-1.69,4.38-2.54.04-.02.08-.05.12-.07" style="fill: none; stroke: #000; stroke-linecap: round; stroke-linejoin: round; stroke-width: .75px;"/>
        <path d="M224.19,42.12c1.47-.85,2.94-1.7,4.41-2.56.04-.02.08-.05.12-.07" style="fill: none; stroke: #000; stroke-linecap: round; stroke-linejoin: round; stroke-width: .75px;"/>
        <path d="M224.19,50.02s.03-.02.05-.03c1.45-.84,2.91-1.68,4.36-2.53.04-.02.08-.05.12-.07" style="fill: none; stroke: #000; stroke-linecap: round; stroke-linejoin: round; stroke-width: .75px;"/>
        <path d="M224.19,57.92s.01,0,.02,0c1.46-.84,2.93-1.7,4.39-2.55.04-.02.08-.05.12-.07" style="fill: none; stroke: #000; stroke-linecap: round; stroke-linejoin: round; stroke-width: .75px;"/>
        <path d="M224.19,65.82l.06-.03c1.45-.84,2.9-1.69,4.35-2.53.04-.02.08-.05.12-.07" style="fill: none; stroke: #000; stroke-linecap: round; stroke-linejoin: round; stroke-width: .75px;"/>
        <path d="M286.83,170.39c0,2.62-2.12,4.74-4.74,4.74" style="fill: none; stroke: #000; stroke-linecap: round; stroke-linejoin: round; stroke-width: 2px;"/>
        <path d="M212.57,175.13c-2.61,0-4.74-2.12-4.74-4.74" style="fill: none; stroke: #000; stroke-linecap: round; stroke-linejoin: round; stroke-width: 2px;"/>
        <line x1="207.83" y1="170.39" x2="207.83" y2="127.73" style="fill: none; stroke: #000; stroke-linecap: round; stroke-linejoin: round; stroke-width: 2px;"/>
        <line x1="286.83" y1="170.39" x2="286.83" y2="127.73" style="fill: none; stroke: #000; stroke-linecap: round; stroke-linejoin: round; stroke-width: 2px;"/>
        <polyline points="228.6 63.26 228.6 61.85 228.6 61.78" style="fill: none; stroke: #000; stroke-linecap: round; stroke-linejoin: round; stroke-width: .75px;"/>
        <polyline points="228.6 55.36 228.6 53.95 228.6 53.88" style="fill: none; stroke: #000; stroke-linecap: round; stroke-linejoin: round; stroke-width: .75px;"/>
        <polyline points="228.6 47.46 228.6 46.05 228.6 45.98" style="fill: none; stroke: #000; stroke-linecap: round; stroke-linejoin: round; stroke-width: .75px;"/>
        <polyline points="228.6 39.56 228.6 38.15 228.6 38.08" style="fill: none; stroke: #000; stroke-linecap: round; stroke-linejoin: round; stroke-width: .75px;"/>
        <polyline points="228.6 31.66 228.6 30.25 228.6 30.18" style="fill: none; stroke: #000; stroke-linecap: round; stroke-linejoin: round; stroke-width: .75px;"/>
        <polyline points="228.6 23.77 228.6 23.76 228.6 22.35 228.6 22.28" style="fill: none; stroke: #000; stroke-linecap: round; stroke-linejoin: round; stroke-width: .75px;"/>
        <polyline points="228.6 15.87 228.6 15.86 228.6 14.45 228.6 14.38" style="fill: none; stroke: #000; stroke-linecap: round; stroke-linejoin: round; stroke-width: .75px;"/>
        <polyline points="228.6 7.97 228.6 7.96 228.6 6.55 228.6 6.48" style="fill: none; stroke: #000; stroke-linecap: round; stroke-linejoin: round; stroke-width: .75px;"/>
        <polyline points="266.07 67.29 266.07 67.21 266.07 65.8" style="fill: none; stroke: #000; stroke-linecap: round; stroke-linejoin: round;"/>
        <polyline points="266.07 59.39 266.07 59.31 266.07 57.9" style="fill: none; stroke: #000; stroke-linecap: round; stroke-linejoin: round; stroke-width: .75px;"/>
        <polyline points="266.07 51.49 266.07 51.41 266.07 50" style="fill: none; stroke: #000; stroke-linecap: round; stroke-linejoin: round; stroke-width: .75px;"/>
        <polyline points="266.07 43.59 266.07 43.51 266.07 42.1" style="fill: none; stroke: #000; stroke-linecap: round; stroke-linejoin: round; stroke-width: .75px;"/>
        <polyline points="266.07 35.69 266.07 35.61 266.07 34.2" style="fill: none; stroke: #000; stroke-linecap: round; stroke-linejoin: round; stroke-width: .75px;"/>
        <polyline points="266.07 27.79 266.07 27.71 266.07 26.3" style="fill: none; stroke: #000; stroke-linecap: round; stroke-linejoin: round; stroke-width: .75px;"/>
        <polyline points="266.07 19.89 266.07 19.82 266.07 18.4" style="fill: none; stroke: #000; stroke-linecap: round; stroke-linejoin: round; stroke-width: .75px;"/>
        <polyline points="266.07 11.99 266.07 11.92 266.07 10.5" style="fill: none; stroke: #000; stroke-linecap: round; stroke-linejoin: round; stroke-width: .75px;"/>
        <polyline points="266.07 4.09 266.07 4.02 266.07 2.6" style="fill: none; stroke: #000; stroke-linecap: round; stroke-linejoin: round; stroke-width: .75px;"/>
        <polyline points="376.83 112.62 412.72 112.62 507.52 112.62 542.91 112.62" style="fill: none; stroke: #000; stroke-linecap: round; stroke-linejoin: round; stroke-width: 3px;"/>
        <polyline points="376.94 67.69 437.84 67.69 460.28 67.69 477.83 67.69 479.68 67.69 543.03 67.69" style="fill: none; stroke: #000; stroke-linecap: round; stroke-linejoin: round; stroke-width: 3px;"/>
        <polyline points="171.96 112.68 199.93 112.68 294.73 112.68 326.85 112.68" style="fill: none; stroke: #000; stroke-linecap: round; stroke-linejoin: round; stroke-width: 3px;"/>
        <polyline points="172.07 67.76 225.05 67.76 247.49 67.76 266.89 67.76 326.97 67.76" style="fill: none; stroke: #000; stroke-linecap: round; stroke-linejoin: round; stroke-width: 3px;"/>
        <line x1="226.39" y1="1.5" x2="171.96" y2="1.5" style="fill: none; stroke: #000; stroke-linecap: round; stroke-linejoin: round; stroke-width: 3px;"/>
        <line x1="542.91" y1="25.78" x2="479.66" y2="25.78" style="fill: none; stroke: #000; stroke-linecap: round; stroke-linejoin: round; stroke-width: 3px;"/>
      </g>
    </g>
  </g>
  <g id="Layer_2" data-name="Layer 2">
    <g>
      <line x1="179.48" y1="17.02" x2="179.48" y2="51.65" style="fill: none; stroke: #000; stroke-linecap: round; stroke-linejoin: round; stroke-width: 2px;"/>
      <polygon points="169.51 19.94 179.48 2.67 189.45 19.94 169.51 19.94" style="fill: #000; stroke-width: 0px;"/>
      <polygon points="169.51 48.74 179.48 66.01 189.45 48.74 169.51 48.74" style="fill: #000; stroke-width: 0px;"/>
    </g>
    <g>
      <line x1="537.45" y1="36.75" x2="537.45" y2="57.01" style="fill: none; stroke: #000; stroke-linecap: round; stroke-linejoin: round; stroke-width: 2px;"/>
      <polygon points="531.47 38.5 537.45 28.13 543.44 38.5 531.47 38.5" style="fill: #000; stroke-width: 0px;"/>
      <polygon points="531.47 55.26 537.45 65.62 543.44 55.26 531.47 55.26" style="fill: #000; stroke-width: 0px;"/>
    </g>
    <g>
      <path d="M47.94,32.98l-3.72-9.72h-.24l-1.2,12h-3.24v-1.32l2.04-15.48h3.72l3.96,10.32h.24l3.96-10.32h3.72l2.04,15.48v1.32h-3.24l-1.2-12h-.24l-3.72,9.72h-2.88Z" style="fill: #e84e0f; stroke-width: 0px;"/>
      <path d="M69.66,35.26l-.36-1.44h-.24c-.19.32-.42.6-.7.84-.26.22-.55.42-.89.59s-.73.25-1.18.25h-1.92c-.51,0-.98-.08-1.4-.25-.42-.17-.79-.4-1.1-.7s-.55-.64-.72-1.03c-.17-.39-.25-.81-.25-1.26v-1.32c0-.45.08-.87.25-1.26.17-.39.41-.74.72-1.03s.68-.53,1.1-.7c.42-.17.89-.25,1.4-.25h4.32v-.84c0-.88-.44-1.32-1.32-1.32h-5.4v-2.52h6.24c.51,0,.98.08,1.4.25.42.17.79.4,1.1.7s.55.64.72,1.03c.17.39.25.81.25,1.26v9h-2.04ZM67.64,32.77c.24-.14.44-.29.6-.47.18-.19.33-.41.46-.65v-1.44h-3.6c-.37,0-.66.11-.88.32-.22.22-.32.51-.32.88v.36c0,.37.11.66.32.88.22.22.51.32.88.32h1.68c.34,0,.62-.07.86-.2Z" style="fill: #e84e0f; stroke-width: 0px;"/>
      <path d="M81.54,23.02h3v1.2l-3.12,4.8,3.36,5.04v1.2h-3l-2.52-4.56h-.24l-2.52,4.56h-3v-1.2l3.36-5.04-3.12-4.8v-1.2h3l2.28,4.44h.24l2.28-4.44Z" style="fill: #e84e0f; stroke-width: 0px;"/>
      <path d="M92.1,21.94c0-.54.09-1.04.28-1.5.18-.46.45-.85.8-1.18s.77-.58,1.26-.77c.49-.18,1.03-.28,1.62-.28h4.2c.61,0,1.15.09,1.63.28.48.18.9.44,1.25.77s.62.72.8,1.18.28.96.28,1.5v9.6c0,.54-.09,1.04-.28,1.5s-.45.85-.8,1.18-.77.58-1.25.77c-.48.18-1.02.28-1.63.28h-7.32v-2.64h6.48c.48,0,.88-.16,1.2-.47.32-.31.48-.68.48-1.09v-2.28h-5.04c-.59,0-1.13-.09-1.62-.28-.49-.18-.91-.44-1.26-.77s-.62-.72-.8-1.18c-.18-.46-.28-.96-.28-1.5v-3.12ZM96.9,20.86c-.48,0-.88.16-1.2.47-.32.31-.48.68-.48,1.09v2.16c0,.42.16.78.48,1.09.32.31.72.47,1.2.47h4.2v-3.72c0-.42-.16-.78-.48-1.09-.32-.31-.72-.47-1.2-.47h-2.52Z" style="fill: #e84e0f; stroke-width: 0px;"/>
      <path d="M121.5,22.78c.51,0,.98.08,1.4.25.42.17.79.4,1.1.7.31.3.55.64.72,1.03.17.39.25.81.25,1.26v9.24h-3v-8.76c0-.37-.12-.66-.35-.88s-.56-.32-.97-.32h-1.92c-.42,0-.74.11-.97.32s-.35.51-.35.88v8.76h-3v-8.76c0-.37-.12-.66-.35-.88s-.56-.32-.97-.32h-1.32c-.34,0-.62.07-.86.2-.24.14-.44.28-.6.44-.18.21-.33.43-.46.67v8.64h-3v-12.24h2.04l.36,1.44h.24c.19-.32.42-.6.7-.84.26-.22.55-.42.89-.59s.73-.25,1.18-.25h1.2c.58,0,1.06.08,1.44.24.38.16.69.34.91.53.27.24.49.5.65.79h.12c.16-.29.38-.55.65-.79.24-.21.55-.39.92-.54.38-.15.85-.23,1.43-.23h1.92Z" style="fill: #e84e0f; stroke-width: 0px;"/>
      <path d="M142.5,22.78c.51,0,.98.08,1.4.25s.79.4,1.1.7c.31.3.55.64.72,1.03.17.39.25.81.25,1.26v9.24h-3v-8.76c0-.37-.12-.66-.35-.88-.23-.22-.56-.32-.97-.32h-1.92c-.42,0-.74.11-.97.32-.23.22-.35.51-.35.88v8.76h-3v-8.76c0-.37-.12-.66-.35-.88-.23-.22-.56-.32-.97-.32h-1.32c-.34,0-.62.07-.86.2-.24.14-.44.28-.6.44-.18.21-.33.43-.46.67v8.64h-3v-12.24h2.04l.36,1.44h.24c.19-.32.42-.6.7-.84.26-.22.55-.42.89-.59.34-.17.73-.25,1.18-.25h1.2c.58,0,1.06.08,1.44.24.38.16.69.34.91.53.27.24.49.5.65.79h.12c.16-.29.38-.55.65-.79.24-.21.55-.39.92-.54s.85-.23,1.43-.23h1.92Z" style="fill: #e84e0f; stroke-width: 0px;"/>
      <path d="M41.7,68.62h-2.16c-.59,0-1.13-.09-1.62-.28-.49-.18-.91-.44-1.26-.77s-.62-.72-.8-1.18-.28-.96-.28-1.5v-15.84c0-.54.09-1.04.28-1.5s.45-.85.8-1.18.77-.58,1.26-.77c.49-.18,1.03-.28,1.62-.28h2.16v2.64h-1.32c-.48,0-.88.16-1.2.47-.32.31-.48.68-.48,1.09v14.88c0,.42.16.78.48,1.09.32.31.72.47,1.2.47h1.32v2.64Z" style="fill: #e84e0f; stroke-width: 0px;"/>
      <path d="M51.18,61.78l-3.72-9.72h-.24l-1.2,12h-3.24v-1.32l2.04-15.48h3.72l3.96,10.32h.24l3.96-10.32h3.72l2.04,15.48v1.32h-3.24l-1.2-12h-.24l-3.72,9.72h-2.88Z" style="fill: #e84e0f; stroke-width: 0px;"/>
      <path d="M72.9,64.06l-.36-1.44h-.24c-.19.32-.42.6-.7.84-.26.22-.55.42-.89.59s-.73.25-1.18.25h-1.92c-.51,0-.98-.08-1.4-.25-.42-.17-.79-.4-1.1-.7s-.55-.64-.72-1.03c-.17-.39-.25-.81-.25-1.26v-1.32c0-.45.08-.87.25-1.26.17-.39.41-.74.72-1.03s.68-.53,1.1-.7c.42-.17.89-.25,1.4-.25h4.32v-.84c0-.88-.44-1.32-1.32-1.32h-5.4v-2.52h6.24c.51,0,.98.08,1.4.25.42.17.79.4,1.1.7s.55.64.72,1.03c.17.39.25.81.25,1.26v9h-2.04ZM70.88,61.57c.24-.14.44-.29.6-.47.18-.19.33-.41.46-.65v-1.44h-3.6c-.37,0-.66.11-.88.32-.22.22-.32.51-.32.88v.36c0,.37.11.66.32.88.22.22.51.32.88.32h1.68c.34,0,.62-.07.86-.2Z" style="fill: #e84e0f; stroke-width: 0px;"/>
      <path d="M84.78,51.82h3v1.2l-3.12,4.8,3.36,5.04v1.2h-3l-2.52-4.56h-.24l-2.52,4.56h-3v-1.2l3.36-5.04-3.12-4.8v-1.2h3l2.28,4.44h.24l2.28-4.44Z" style="fill: #e84e0f; stroke-width: 0px;"/>
      <path d="M94.86,61.42h7.08c.48,0,.88-.16,1.2-.47.32-.31.48-.68.48-1.09v-1.44c0-.42-.16-.78-.48-1.09-.32-.31-.72-.47-1.2-.47h-4.44v-2.64l4.8-4.08v-.24h-6.5l-.82-.82v-1.82h11.28v2.64l-4.8,4.08v.24h1.32c.61,0,1.15.09,1.63.28.48.18.9.44,1.25.77s.62.72.8,1.18.28.96.28,1.5v2.4c0,.54-.09,1.04-.28,1.5-.18.46-.45.85-.8,1.18s-.77.58-1.25.77c-.48.18-1.02.28-1.63.28h-7.92v-2.64Z" style="fill: #e84e0f; stroke-width: 0px;"/>
      <path d="M120.06,46.06v1.32l-9.12,17.88h-2.64v-1.32l9.12-17.88h2.64Z" style="fill: #e84e0f; stroke-width: 0px;"/>
      <path d="M133.26,53.71c-.24.35-.5.63-.77.84-.34.26-.72.46-1.15.62v.24c.5.08.94.24,1.32.48.35.22.66.54.92.95.26.41.4.97.4,1.69v2.04c0,.54-.09,1.04-.28,1.5-.18.46-.45.85-.8,1.18-.35.33-.77.58-1.25.77-.48.18-1.02.28-1.63.28h-4.56c-.59,0-1.13-.09-1.62-.28-.49-.18-.91-.44-1.26-.77s-.62-.72-.8-1.18c-.18-.46-.28-.96-.28-1.5v-2.04c0-.67.14-1.21.41-1.61.27-.4.58-.71.91-.94.38-.27.82-.46,1.32-.58v-.24c-.43-.16-.81-.37-1.13-.62-.32-.22-.59-.51-.82-.85-.22-.34-.34-.77-.34-1.28v-1.68c0-.54.09-1.04.28-1.5s.45-.85.8-1.18.77-.58,1.26-.77c.49-.18,1.03-.28,1.62-.28h3.84c.61,0,1.15.09,1.63.28.48.18.9.44,1.25.77.35.33.62.72.8,1.18.18.46.28.96.28,1.5v1.68c0,.51-.12.94-.36,1.3ZM130.38,57.21c-.32-.31-.72-.47-1.2-.47h-2.88c-.48,0-.88.16-1.2.47-.32.31-.48.68-.48,1.09v1.8c0,.42.16.78.48,1.09.32.31.72.47,1.2.47h2.88c.48,0,.88-.16,1.2-.47.32-.31.48-.68.48-1.09v-1.8c0-.42-.16-.78-.48-1.09ZM130.5,51.22c0-.42-.16-.78-.48-1.09-.32-.31-.72-.47-1.2-.47h-2.16c-.48,0-.88.16-1.2.47-.32.31-.48.68-.48,1.09v1.32c0,.42.16.78.48,1.09.32.31.72.47,1.2.47h2.16c.48,0,.88-.16,1.2-.47.32-.31.48-.68.48-1.09v-1.32Z" style="fill: #e84e0f; stroke-width: 0px;"/>
      <path d="M138.78,47.26v2.16l-1.44,3.12h-1.32v-5.28h2.76ZM143.1,47.26v2.16l-1.44,3.12h-1.32v-5.28h2.76Z" style="fill: #e84e0f; stroke-width: 0px;"/>
      <path d="M144.42,65.98h1.32c.48,0,.88-.16,1.2-.47.32-.31.48-.68.48-1.09v-14.88c0-.42-.16-.78-.48-1.09-.32-.31-.72-.47-1.2-.47h-1.32v-2.64h2.16c.61,0,1.15.09,1.63.28.48.18.9.44,1.25.77.35.33.62.72.8,1.18.18.46.28.96.28,1.5v15.84c0,.54-.09,1.04-.28,1.5-.18.46-.45.85-.8,1.18-.35.33-.77.58-1.25.77-.48.18-1.02.28-1.63.28h-2.16v-2.64Z" style="fill: #e84e0f; stroke-width: 0px;"/>
    </g>
    <g>
      <path d="M571.76,32.8l-3.72-9.72h-.24l-1.2,12h-3.24v-1.32l2.04-15.48h3.72l3.96,10.32h.24l3.96-10.32h3.72l2.04,15.48v1.32h-3.24l-1.2-12h-.24l-3.72,9.72h-2.88Z" style="fill: #e84e0f; stroke-width: 0px;"/>
      <path d="M588.32,21.28h-3v-3.36h3v3.36ZM588.32,35.08h-3v-12.24h3v12.24Z" style="fill: #e84e0f; stroke-width: 0px;"/>
      <path d="M591.2,35.08v-12.24h2.04l.36,1.44h.24c.19-.32.42-.6.7-.84.26-.22.55-.42.89-.59s.73-.25,1.18-.25h2.16c.51,0,.98.08,1.4.25s.79.4,1.1.7c.31.3.55.64.72,1.03.17.39.25.81.25,1.26v9.24h-3v-8.76c0-.37-.12-.66-.35-.88-.23-.22-.56-.32-.97-.32h-1.8c-.34,0-.62.07-.86.2-.24.14-.44.28-.6.44-.18.21-.33.43-.46.67v8.64h-3Z" style="fill: #e84e0f; stroke-width: 0px;"/>
      <path d="M612.68,35.08v-1.32l5.52-12.6v-.24h-8.04v-2.64h11.64v2.64l-6.24,14.16h-2.88Z" style="fill: #e84e0f; stroke-width: 0px;"/>
      <path d="M638.36,22.6c.51,0,.98.08,1.4.25.42.17.79.4,1.1.7s.55.64.72,1.03c.17.39.25.81.25,1.26v9.24h-3v-8.76c0-.37-.12-.66-.35-.88-.23-.22-.56-.32-.97-.32h-1.92c-.42,0-.74.11-.97.32-.23.22-.35.51-.35.88v8.76h-3v-8.76c0-.37-.12-.66-.35-.88-.23-.22-.56-.32-.97-.32h-1.32c-.34,0-.62.07-.86.2-.24.14-.44.28-.6.44-.18.21-.33.43-.46.67v8.64h-3v-12.24h2.04l.36,1.44h.24c.19-.32.42-.6.7-.84.26-.22.55-.42.89-.59s.73-.25,1.18-.25h1.2c.58,0,1.06.08,1.44.24.38.16.69.34.91.53.27.24.49.5.65.79h.12c.16-.29.38-.55.65-.79.24-.21.55-.39.92-.54s.85-.23,1.43-.23h1.92Z" style="fill: #e84e0f; stroke-width: 0px;"/>
      <path d="M659.36,22.6c.51,0,.98.08,1.4.25s.79.4,1.1.7c.31.3.55.64.72,1.03.17.39.25.81.25,1.26v9.24h-3v-8.76c0-.37-.12-.66-.35-.88-.23-.22-.56-.32-.97-.32h-1.92c-.42,0-.74.11-.97.32-.23.22-.35.51-.35.88v8.76h-3v-8.76c0-.37-.12-.66-.35-.88-.23-.22-.56-.32-.97-.32h-1.32c-.34,0-.62.07-.86.2-.24.14-.44.28-.6.44-.18.21-.33.43-.46.67v8.64h-3v-12.24h2.04l.36,1.44h.24c.19-.32.42-.6.7-.84.26-.22.55-.42.89-.59.34-.17.73-.25,1.18-.25h1.2c.58,0,1.06.08,1.44.24.38.16.69.34.91.53.27.24.49.5.65.79h.12c.16-.29.38-.55.65-.79.24-.21.55-.39.92-.54s.85-.23,1.43-.23h1.92Z" style="fill: #e84e0f; stroke-width: 0px;"/>
      <path d="M567.44,68.44h-2.16c-.59,0-1.13-.09-1.62-.28-.49-.18-.91-.44-1.26-.77-.35-.33-.62-.72-.8-1.18-.18-.46-.28-.96-.28-1.5v-15.84c0-.54.09-1.04.28-1.5.18-.46.45-.85.8-1.18.35-.33.77-.58,1.26-.77.49-.18,1.03-.28,1.62-.28h2.16v2.64h-1.32c-.48,0-.88.16-1.2.47-.32.31-.48.68-.48,1.09v14.88c0,.42.16.78.48,1.09.32.31.72.47,1.2.47h1.32v2.64Z" style="fill: #e84e0f; stroke-width: 0px;"/>
      <path d="M576.92,61.6l-3.72-9.72h-.24l-1.2,12h-3.24v-1.32l2.04-15.48h3.72l3.96,10.32h.24l3.96-10.32h3.72l2.04,15.48v1.32h-3.24l-1.2-12h-.24l-3.72,9.72h-2.88Z" style="fill: #e84e0f; stroke-width: 0px;"/>
      <path d="M593.48,50.08h-3v-3.36h3v3.36ZM593.48,63.88h-3v-12.24h3v12.24Z" style="fill: #e84e0f; stroke-width: 0px;"/>
      <path d="M596.36,63.88v-12.24h2.04l.36,1.44h.24c.19-.32.42-.6.7-.84.26-.22.55-.42.89-.59s.73-.25,1.18-.25h2.16c.51,0,.98.08,1.4.25.42.17.79.4,1.1.7.31.3.55.64.72,1.03.17.39.25.81.25,1.26v9.24h-3v-8.76c0-.37-.12-.66-.35-.88-.23-.22-.56-.32-.97-.32h-1.8c-.34,0-.62.07-.86.2s-.44.28-.6.44c-.18.21-.33.43-.46.67v8.64h-3Z" style="fill: #e84e0f; stroke-width: 0px;"/>
      <path d="M621.2,63.88h-3.12v-14.04h-3v-1.8l3.72-.96h2.4v16.8Z" style="fill: #e84e0f; stroke-width: 0px;"/>
      <path d="M635.12,45.88v1.32l-9.12,17.88h-2.64v-1.32l9.12-17.88h2.64Z" style="fill: #e84e0f; stroke-width: 0px;"/>
      <path d="M647.48,57.64h1.92v2.64h-1.92v3.6h-3.12v-3.6h-8.28v-2.64l7.56-10.56h3.84v10.56ZM639.56,57.4v.24h4.8v-6.6h-.24l-4.56,6.36Z" style="fill: #e84e0f; stroke-width: 0px;"/>
      <path d="M653.72,47.08v2.16l-1.44,3.12h-1.32v-5.28h2.76ZM658.04,47.08v2.16l-1.44,3.12h-1.32v-5.28h2.76Z" style="fill: #e84e0f; stroke-width: 0px;"/>
      <path d="M659.36,65.8h1.32c.48,0,.88-.16,1.2-.47.32-.31.48-.68.48-1.09v-14.88c0-.42-.16-.78-.48-1.09-.32-.31-.72-.47-1.2-.47h-1.32v-2.64h2.16c.61,0,1.15.09,1.63.28.48.18.9.44,1.25.77.35.33.62.72.8,1.18.18.46.28.96.28,1.5v15.84c0,.54-.09,1.04-.28,1.5-.18.46-.45.85-.8,1.18-.35.33-.77.58-1.25.77-.48.18-1.02.28-1.63.28h-2.16v-2.64Z" style="fill: #e84e0f; stroke-width: 0px;"/>
    </g>
  </g>
</svg>