<?xml version="1.0" encoding="UTF-8"?>
<svg id="Layer_2" data-name="Layer 2" xmlns="http://www.w3.org/2000/svg" viewBox="0 0 795.02 585.19">
  <defs>
    <style>
      .cls-1, .cls-2, .cls-3, .cls-4, .cls-5 {
        fill: none;
      }

      .cls-1, .cls-6, .cls-7, .cls-5 {
        stroke: #fff;
      }

      .cls-2 {
        stroke: #0570d1;
      }

      .cls-2, .cls-3, .cls-4 {
        stroke-width: 6px;
      }

      .cls-6 {
        font-family: TTSupermolot-Black, TTSupermolot-Black;
        font-size: 26px;
        font-weight: 800;
        isolation: isolate;
        stroke-miterlimit: 10;
      }

      .cls-6, .cls-7 {
        fill: #fff;
      }

      .cls-7, .cls-5 {
        stroke-width: 3px;
      }

      .cls-3 {
        stroke: #ff2400;
      }

      .cls-4 {
        stroke: #1cbc00;
      }
    </style>
  </defs>
  <g id="dark">
    <g id="Layer_1-2" data-name="Layer 1">
      <g id="Legend">
        <line class="cls-7" x1="69.72" y1="513.8" x2="769.72" y2="513.8"/>
        <line class="cls-7" x1="69.72" y1="13.8" x2="69.72" y2="513.8"/>
        <text class="cls-6" transform="translate(749.02 545.89)"><tspan x="0" y="0">100</tspan></text>
        <text class="cls-6" transform="translate(579.29 545.93)"><tspan x="0" y="0">75</tspan></text>
        <text class="cls-6" transform="translate(404.12 545.93)"><tspan x="0" y="0">50</tspan></text>
        <text class="cls-6" transform="translate(229.9 545.93)"><tspan x="0" y="0">25</tspan></text>
        <text class="cls-6" transform="translate(61.59 545.93)"><tspan x="0" y="0">0</tspan></text>
        <text class="cls-6" transform="translate(749.02 545.89)"><tspan x="0" y="0">100</tspan></text>
        <text class="cls-6" transform="translate(749.02 545.89)"><tspan x="0" y="0">100</tspan></text>
        <text class="cls-6" transform="translate(8.3 201.27) rotate(90)"><tspan x="0" y="0">Force (kgf)</tspan></text>
        <text class="cls-6" transform="translate(360.01 576.89)"><tspan x="0" y="0">Travel (%)</tspan></text>
      </g>
      <text class="cls-6" transform="translate(49.52 477.93)"><tspan x="0" y="0">1</tspan></text>
      <text class="cls-6" transform="translate(45.93 431.45)"><tspan x="0" y="0">2</tspan></text>
      <text class="cls-6" transform="translate(46.45 386.42)"><tspan x="0" y="0">3</tspan></text>
      <text class="cls-6" transform="translate(44.67 340.37)"><tspan x="0" y="0">4</tspan></text>
      <text class="cls-6" transform="translate(46.23 294.16)"><tspan x="0" y="0">5</tspan></text>
      <text class="cls-6" transform="translate(44.93 249.27)"><tspan x="0" y="0">6</tspan></text>
      <text class="cls-6" transform="translate(46.23 204.61)"><tspan x="0" y="0">7</tspan></text>
      <text class="cls-6" transform="translate(44.93 159.04)"><tspan x="0" y="0">8</tspan></text>
      <text class="cls-6" transform="translate(45.71 114.01)"><tspan x="0" y="0">9</tspan></text>
      <text class="cls-6" transform="translate(35.38 67.49)"><tspan x="0" y="0">10</tspan></text>
      <text class="cls-6" transform="translate(40.77 22.6)"><tspan x="0" y="0">11</tspan></text>
    </g>
    <g id="Layer_2-2" data-name="Layer 2">
      <g id="grid">
        <line class="cls-1" x1="69.72" y1="469.3" x2="769.72" y2="469.3"/>
        <line class="cls-1" x1="69.72" y1="423.9" x2="769.72" y2="423.9"/>
        <line class="cls-1" x1="69.72" y1="378.4" x2="769.72" y2="378.4"/>
        <line class="cls-1" x1="69.72" y1="332.9" x2="769.72" y2="332.9"/>
        <line class="cls-1" x1="69.72" y1="287.5" x2="769.72" y2="287.5"/>
        <line class="cls-1" x1="69.72" y1="242" x2="769.72" y2="242"/>
        <line class="cls-1" x1="69.72" y1="196.6" x2="769.72" y2="196.6"/>
        <line class="cls-1" x1="69.72" y1="151.1" x2="769.72" y2="151.1"/>
        <line class="cls-1" x1="69.72" y1="105.7" x2="769.72" y2="105.7"/>
        <line class="cls-1" x1="69.72" y1="60.2" x2="769.72" y2="60.2"/>
        <line class="cls-1" x1="69.72" y1="14.8" x2="769.72" y2="14.8"/>
        <line class="cls-1" x1="244.72" y1="14.8" x2="244.72" y2="514.8"/>
        <line class="cls-1" x1="419.72" y1="14.8" x2="419.72" y2="514.8"/>
        <line class="cls-1" x1="594.72" y1="14.8" x2="594.72" y2="514.8"/>
        <line class="cls-1" x1="769.72" y1="14.8" x2="769.72" y2="514.8"/>
        <line class="cls-5" x1="69.72" y1="514.8" x2="769.72" y2="514.8"/>
        <line class="cls-5" x1="69.72" y1="14.8" x2="69.72" y2="514.8"/>
      </g>
      <g id="_0.745" data-name="0.745">
        <line class="cls-2" x1="69.72" y1="434.7" x2="83.22" y2="433.3"/>
        <line class="cls-2" x1="83.22" y1="433.3" x2="96.72" y2="431.8"/>
        <line class="cls-2" x1="96.72" y1="431.8" x2="110.32" y2="430.4"/>
        <line class="cls-2" x1="110.32" y1="430.4" x2="123.82" y2="428.9"/>
        <line class="cls-2" x1="123.82" y1="428.9" x2="137.42" y2="427.5"/>
        <line class="cls-2" x1="137.42" y1="427.5" x2="150.92" y2="426.1"/>
        <line class="cls-2" x1="150.92" y1="426.1" x2="164.52" y2="424.6"/>
        <line class="cls-2" x1="164.52" y1="424.6" x2="178.12" y2="423.2"/>
        <line class="cls-2" x1="178.12" y1="423.2" x2="191.62" y2="421.8"/>
        <line class="cls-2" x1="191.62" y1="421.8" x2="205.22" y2="420.4"/>
        <line class="cls-2" x1="205.22" y1="420.4" x2="218.82" y2="419"/>
        <line class="cls-2" x1="218.82" y1="419" x2="232.42" y2="417.7"/>
        <line class="cls-2" x1="232.42" y1="417.7" x2="246.02" y2="416.3"/>
        <line class="cls-2" x1="246.02" y1="416.3" x2="259.62" y2="414.9"/>
        <line class="cls-2" x1="259.62" y1="414.9" x2="273.32" y2="413.6"/>
        <line class="cls-2" x1="273.32" y1="413.6" x2="286.92" y2="412.2"/>
        <line class="cls-2" x1="286.92" y1="412.2" x2="300.62" y2="410.9"/>
        <line class="cls-2" x1="300.62" y1="410.9" x2="314.32" y2="409.6"/>
        <line class="cls-2" x1="314.32" y1="409.6" x2="328.02" y2="408.3"/>
        <line class="cls-2" x1="328.02" y1="408.3" x2="341.72" y2="407"/>
        <line class="cls-2" x1="341.72" y1="407" x2="355.42" y2="405.7"/>
        <line class="cls-2" x1="355.42" y1="405.7" x2="369.22" y2="404.5"/>
        <line class="cls-2" x1="369.22" y1="404.5" x2="382.92" y2="403.2"/>
        <line class="cls-2" x1="382.92" y1="403.2" x2="396.82" y2="402"/>
        <line class="cls-2" x1="396.82" y1="402" x2="410.62" y2="400.8"/>
        <line class="cls-2" x1="410.62" y1="400.8" x2="424.42" y2="399.6"/>
        <line class="cls-2" x1="424.42" y1="399.6" x2="438.32" y2="398.4"/>
        <line class="cls-2" x1="438.32" y1="398.4" x2="452.22" y2="397.2"/>
        <line class="cls-2" x1="452.22" y1="397.2" x2="466.22" y2="396.1"/>
        <line class="cls-2" x1="466.22" y1="396.1" x2="480.22" y2="394.9"/>
        <line class="cls-2" x1="480.22" y1="394.9" x2="494.22" y2="393.8"/>
        <line class="cls-2" x1="494.22" y1="393.8" x2="508.22" y2="392.7"/>
        <line class="cls-2" x1="508.22" y1="392.7" x2="522.32" y2="391.7"/>
        <line class="cls-2" x1="522.32" y1="391.7" x2="536.42" y2="390.6"/>
        <line class="cls-2" x1="536.42" y1="390.6" x2="550.62" y2="389.6"/>
        <line class="cls-2" x1="550.62" y1="389.6" x2="564.82" y2="388.6"/>
        <line class="cls-2" x1="564.82" y1="388.6" x2="579.12" y2="387.6"/>
        <line class="cls-2" x1="579.12" y1="387.6" x2="593.42" y2="386.7"/>
        <line class="cls-2" x1="593.42" y1="386.7" x2="607.72" y2="385.8"/>
        <line class="cls-2" x1="607.72" y1="385.8" x2="622.12" y2="384.9"/>
        <line class="cls-2" x1="622.12" y1="384.9" x2="636.62" y2="384"/>
        <line class="cls-2" x1="636.62" y1="384" x2="651.12" y2="383.2"/>
        <line class="cls-2" x1="651.12" y1="383.2" x2="665.72" y2="382.4"/>
        <line class="cls-2" x1="665.72" y1="382.4" x2="680.32" y2="381.6"/>
        <line class="cls-2" x1="680.32" y1="381.6" x2="695.02" y2="380.9"/>
        <line class="cls-2" x1="695.02" y1="380.9" x2="709.82" y2="380.2"/>
        <line class="cls-2" x1="709.82" y1="380.2" x2="724.72" y2="379.5"/>
        <line class="cls-2" x1="724.72" y1="379.5" x2="739.62" y2="378.9"/>
        <line class="cls-2" x1="739.62" y1="378.9" x2="754.62" y2="378.3"/>
        <line class="cls-2" x1="754.62" y1="378.3" x2="769.72" y2="377.7"/>
      </g>
      <g id="_2.685" data-name="2.685">
        <line class="cls-3" x1="69.72" y1="493.1" x2="83.22" y2="487.9"/>
        <line class="cls-3" x1="83.22" y1="487.9" x2="96.72" y2="482.6"/>
        <line class="cls-3" x1="96.72" y1="482.6" x2="110.32" y2="477.3"/>
        <line class="cls-3" x1="110.32" y1="477.3" x2="123.82" y2="472.1"/>
        <line class="cls-3" x1="123.82" y1="472.1" x2="137.42" y2="466.8"/>
        <line class="cls-3" x1="137.42" y1="466.8" x2="150.92" y2="461.6"/>
        <line class="cls-3" x1="150.92" y1="461.6" x2="164.52" y2="456.4"/>
        <line class="cls-3" x1="164.52" y1="456.4" x2="178.12" y2="451.1"/>
        <line class="cls-3" x1="178.12" y1="451.1" x2="191.62" y2="445.9"/>
        <line class="cls-3" x1="191.62" y1="445.9" x2="205.22" y2="440.7"/>
        <line class="cls-3" x1="205.22" y1="440.7" x2="218.82" y2="435.5"/>
        <line class="cls-3" x1="218.82" y1="435.5" x2="232.42" y2="430.4"/>
        <line class="cls-3" x1="232.42" y1="430.4" x2="246.02" y2="425.2"/>
        <line class="cls-3" x1="246.02" y1="425.2" x2="259.62" y2="420.1"/>
        <line class="cls-3" x1="259.62" y1="420.1" x2="273.32" y2="414.9"/>
        <line class="cls-3" x1="273.32" y1="414.9" x2="286.92" y2="409.8"/>
        <line class="cls-3" x1="286.92" y1="409.8" x2="300.62" y2="404.7"/>
        <line class="cls-3" x1="300.62" y1="404.7" x2="314.32" y2="399.7"/>
        <line class="cls-3" x1="314.32" y1="399.7" x2="328.02" y2="394.6"/>
        <line class="cls-3" x1="328.02" y1="394.6" x2="341.72" y2="389.6"/>
        <line class="cls-3" x1="341.72" y1="389.6" x2="355.42" y2="384.6"/>
        <line class="cls-3" x1="355.42" y1="384.6" x2="369.22" y2="379.6"/>
        <line class="cls-3" x1="369.22" y1="379.6" x2="382.92" y2="374.7"/>
        <line class="cls-3" x1="382.92" y1="374.7" x2="396.82" y2="369.8"/>
        <line class="cls-3" x1="396.82" y1="369.8" x2="410.62" y2="364.9"/>
        <line class="cls-3" x1="410.62" y1="364.9" x2="424.42" y2="360"/>
        <line class="cls-3" x1="424.42" y1="360" x2="438.32" y2="355.2"/>
        <line class="cls-3" x1="438.32" y1="355.2" x2="452.22" y2="350.5"/>
        <line class="cls-3" x1="452.22" y1="350.5" x2="466.22" y2="345.7"/>
        <line class="cls-3" x1="466.22" y1="345.7" x2="480.22" y2="341.1"/>
        <line class="cls-3" x1="480.22" y1="341.1" x2="494.22" y2="336.4"/>
        <line class="cls-3" x1="494.22" y1="336.4" x2="508.22" y2="331.8"/>
        <line class="cls-3" x1="508.22" y1="331.8" x2="522.32" y2="327.3"/>
        <line class="cls-3" x1="522.32" y1="327.3" x2="536.42" y2="322.8"/>
        <line class="cls-3" x1="536.42" y1="322.8" x2="550.62" y2="318.3"/>
        <line class="cls-3" x1="550.62" y1="318.3" x2="564.82" y2="313.9"/>
        <line class="cls-3" x1="564.82" y1="313.9" x2="579.12" y2="309.6"/>
        <line class="cls-3" x1="579.12" y1="309.6" x2="593.42" y2="305.3"/>
        <line class="cls-3" x1="593.42" y1="305.3" x2="607.72" y2="301.1"/>
        <line class="cls-3" x1="607.72" y1="301.1" x2="622.12" y2="296.9"/>
        <line class="cls-3" x1="622.12" y1="296.9" x2="636.62" y2="292.9"/>
        <line class="cls-3" x1="636.62" y1="292.9" x2="651.12" y2="288.9"/>
        <line class="cls-3" x1="651.12" y1="288.9" x2="665.72" y2="284.9"/>
        <line class="cls-3" x1="665.72" y1="284.9" x2="680.32" y2="281.1"/>
        <line class="cls-3" x1="680.32" y1="281.1" x2="695.02" y2="277.3"/>
        <line class="cls-3" x1="695.02" y1="277.3" x2="709.82" y2="273.6"/>
        <line class="cls-3" x1="709.82" y1="273.6" x2="724.72" y2="270"/>
        <line class="cls-3" x1="724.72" y1="270" x2="739.62" y2="266.5"/>
        <line class="cls-3" x1="739.62" y1="266.5" x2="754.62" y2="263.1"/>
        <line class="cls-3" x1="754.62" y1="263.1" x2="769.72" y2="259.8"/>
      </g>
      <g id="_4.74" data-name="4.74">
        <line class="cls-4" x1="69.72" y1="476.6" x2="83.22" y2="467.3"/>
        <line class="cls-4" x1="83.22" y1="467.3" x2="96.72" y2="458"/>
        <line class="cls-4" x1="96.72" y1="458" x2="110.32" y2="448.7"/>
        <line class="cls-4" x1="110.32" y1="448.7" x2="123.82" y2="439.4"/>
        <line class="cls-4" x1="123.82" y1="439.4" x2="137.42" y2="430.2"/>
        <line class="cls-4" x1="137.42" y1="430.2" x2="150.92" y2="420.9"/>
        <line class="cls-4" x1="150.92" y1="420.9" x2="164.52" y2="411.7"/>
        <line class="cls-4" x1="164.52" y1="411.7" x2="178.12" y2="402.5"/>
        <line class="cls-4" x1="178.12" y1="402.5" x2="191.62" y2="393.2"/>
        <line class="cls-4" x1="191.62" y1="393.2" x2="205.22" y2="384.1"/>
        <line class="cls-4" x1="205.22" y1="384.1" x2="218.82" y2="374.9"/>
        <line class="cls-4" x1="218.82" y1="374.9" x2="232.42" y2="365.8"/>
        <line class="cls-4" x1="232.42" y1="365.8" x2="246.02" y2="356.6"/>
        <line class="cls-4" x1="246.02" y1="356.6" x2="259.62" y2="347.6"/>
        <line class="cls-4" x1="259.62" y1="347.6" x2="273.32" y2="338.5"/>
        <line class="cls-4" x1="273.32" y1="338.5" x2="286.92" y2="329.5"/>
        <line class="cls-4" x1="286.92" y1="329.5" x2="300.62" y2="320.5"/>
        <line class="cls-4" x1="300.62" y1="320.5" x2="314.32" y2="311.6"/>
        <line class="cls-4" x1="314.32" y1="311.6" x2="328.02" y2="302.6"/>
        <line class="cls-4" x1="328.02" y1="302.6" x2="341.72" y2="293.8"/>
        <line class="cls-4" x1="341.72" y1="293.8" x2="355.42" y2="285"/>
        <line class="cls-4" x1="355.42" y1="285" x2="369.22" y2="276.2"/>
        <line class="cls-4" x1="369.22" y1="276.2" x2="382.92" y2="267.5"/>
        <line class="cls-4" x1="382.92" y1="267.5" x2="396.82" y2="258.8"/>
        <line class="cls-4" x1="396.82" y1="258.8" x2="410.62" y2="250.2"/>
        <line class="cls-4" x1="410.62" y1="250.2" x2="424.42" y2="241.6"/>
        <line class="cls-4" x1="424.42" y1="241.6" x2="438.32" y2="233.1"/>
        <line class="cls-4" x1="438.32" y1="233.1" x2="452.22" y2="224.7"/>
        <line class="cls-4" x1="452.22" y1="224.7" x2="466.22" y2="216.4"/>
        <line class="cls-4" x1="466.22" y1="216.4" x2="480.22" y2="208.1"/>
        <line class="cls-4" x1="480.22" y1="208.1" x2="494.22" y2="199.9"/>
        <line class="cls-4" x1="494.22" y1="199.9" x2="508.22" y2="191.8"/>
        <line class="cls-4" x1="508.22" y1="191.8" x2="522.32" y2="183.7"/>
        <line class="cls-4" x1="522.32" y1="183.7" x2="536.42" y2="175.8"/>
        <line class="cls-4" x1="536.42" y1="175.8" x2="550.62" y2="167.9"/>
        <line class="cls-4" x1="550.62" y1="167.9" x2="564.82" y2="160.2"/>
        <line class="cls-4" x1="564.82" y1="160.2" x2="579.12" y2="152.5"/>
        <line class="cls-4" x1="579.12" y1="152.5" x2="593.42" y2="145"/>
        <line class="cls-4" x1="593.42" y1="145" x2="607.72" y2="137.5"/>
        <line class="cls-4" x1="607.72" y1="137.5" x2="622.12" y2="130.2"/>
        <line class="cls-4" x1="622.12" y1="130.2" x2="636.62" y2="123"/>
        <line class="cls-4" x1="636.62" y1="123" x2="651.12" y2="115.9"/>
        <line class="cls-4" x1="651.12" y1="115.9" x2="665.72" y2="109"/>
        <line class="cls-4" x1="665.72" y1="109" x2="680.32" y2="102.2"/>
        <line class="cls-4" x1="680.32" y1="102.2" x2="695.02" y2="95.5"/>
        <line class="cls-4" x1="695.02" y1="95.5" x2="709.82" y2="89"/>
        <line class="cls-4" x1="709.82" y1="89" x2="724.72" y2="82.7"/>
        <line class="cls-4" x1="724.72" y1="82.7" x2="739.62" y2="76.5"/>
        <line class="cls-4" x1="739.62" y1="76.5" x2="754.62" y2="70.5"/>
        <line class="cls-4" x1="754.62" y1="70.5" x2="769.72" y2="64.6"/>
      </g>
    </g>
  </g>
</svg>