<?xml version="1.0" encoding="UTF-8"?>
<svg xmlns="http://www.w3.org/2000/svg" viewBox="0 0 851 625">
  <defs>
    <style>
      .cls-1 {
        stroke: #0570d1;
      }

      .cls-1, .cls-2, .cls-3, .cls-4 {
        fill: none;
      }

      .cls-1, .cls-3, .cls-4 {
        stroke-width: 6px;
      }

      .cls-2 {
        stroke: #969595;
      }

      .cls-5 {
        stroke-width: 3px;
      }

      .cls-5, .cls-6 {
        fill: #fff;
        stroke: #fff;
      }

      .cls-3 {
        stroke: #ff2400;
      }

      .cls-4 {
        stroke: #1cbc00;
      }

      .cls-6 {
        stroke-miterlimit: 10;
      }
    </style>
  </defs>
  <g id="Scales">
    <line class="cls-2" x1="101.27" y1="487.41" x2="801.27" y2="487.41"/>
    <line class="cls-2" x1="101.27" y1="431.85" x2="801.27" y2="431.85"/>
    <line class="cls-2" x1="101.27" y1="376.3" x2="801.27" y2="376.3"/>
    <line class="cls-2" x1="101.27" y1="320.74" x2="801.27" y2="320.74"/>
    <line class="cls-2" x1="101.27" y1="265.19" x2="801.27" y2="265.19"/>
    <line class="cls-2" x1="101.27" y1="209.63" x2="801.27" y2="209.63"/>
    <line class="cls-2" x1="101.27" y1="154.07" x2="801.27" y2="154.07"/>
    <line class="cls-2" x1="101.27" y1="98.52" x2="801.27" y2="98.52"/>
    <line class="cls-2" x1="101.27" y1="42.96" x2="801.27" y2="42.96"/>
    <line class="cls-2" x1="276.27" y1="42.96" x2="276.27" y2="542.96"/>
    <line class="cls-2" x1="451.27" y1="42.96" x2="451.27" y2="542.96"/>
    <line class="cls-2" x1="626.27" y1="42.96" x2="626.27" y2="542.96"/>
    <line class="cls-2" x1="801.27" y1="42.96" x2="801.27" y2="542.96"/>
  </g>
  <g id="Force_curve" data-name="Force curve">
    <line class="cls-3" x1="101.56" y1="425.08" x2="115.39" y2="417.86"/>
    <line class="cls-3" x1="115.39" y1="417.86" x2="129.21" y2="410.64"/>
    <line class="cls-3" x1="129.21" y1="410.64" x2="143.04" y2="403.42"/>
    <line class="cls-3" x1="143.04" y1="403.42" x2="156.85" y2="396.21"/>
    <line class="cls-3" x1="156.85" y1="396.21" x2="170.67" y2="389"/>
    <line class="cls-3" x1="170.67" y1="389" x2="184.48" y2="381.79"/>
    <line class="cls-3" x1="184.48" y1="381.79" x2="198.29" y2="374.59"/>
    <line class="cls-3" x1="198.29" y1="374.59" x2="212.1" y2="367.39"/>
    <line class="cls-3" x1="212.1" y1="367.39" x2="225.91" y2="360.2"/>
    <line class="cls-3" x1="225.91" y1="360.2" x2="239.72" y2="353.03"/>
    <line class="cls-3" x1="239.72" y1="353.03" x2="253.53" y2="345.86"/>
    <line class="cls-3" x1="253.53" y1="345.86" x2="267.34" y2="338.7"/>
    <line class="cls-3" x1="267.34" y1="338.7" x2="281.16" y2="331.56"/>
    <line class="cls-3" x1="281.16" y1="331.56" x2="294.98" y2="324.42"/>
    <line class="cls-3" x1="294.98" y1="324.42" x2="308.8" y2="317.31"/>
    <line class="cls-3" x1="308.8" y1="317.31" x2="322.62" y2="310.21"/>
    <line class="cls-3" x1="322.62" y1="310.21" x2="336.45" y2="303.13"/>
    <line class="cls-3" x1="336.45" y1="303.13" x2="350.28" y2="296.06"/>
    <line class="cls-3" x1="350.28" y1="296.06" x2="364.13" y2="289.02"/>
    <line class="cls-3" x1="364.13" y1="289.02" x2="377.98" y2="282"/>
    <line class="cls-3" x1="377.98" y1="282" x2="391.83" y2="275"/>
    <line class="cls-3" x1="391.83" y1="275" x2="405.7" y2="268.03"/>
    <line class="cls-3" x1="405.7" y1="268.03" x2="419.57" y2="261.08"/>
    <line class="cls-3" x1="419.57" y1="261.08" x2="433.46" y2="254.16"/>
    <line class="cls-3" x1="433.46" y1="254.16" x2="447.36" y2="247.27"/>
    <line class="cls-3" x1="447.36" y1="247.27" x2="461.27" y2="240.41"/>
    <line class="cls-3" x1="461.27" y1="240.41" x2="475.19" y2="233.59"/>
    <line class="cls-3" x1="475.19" y1="233.59" x2="489.13" y2="226.8"/>
    <line class="cls-3" x1="489.13" y1="226.8" x2="503.08" y2="220.04"/>
    <line class="cls-3" x1="503.08" y1="220.04" x2="517.05" y2="213.33"/>
    <line class="cls-3" x1="517.05" y1="213.33" x2="531.03" y2="206.65"/>
    <line class="cls-3" x1="531.03" y1="206.65" x2="545.04" y2="200.02"/>
    <line class="cls-3" x1="545.04" y1="200.02" x2="559.06" y2="193.43"/>
    <line class="cls-3" x1="559.06" y1="193.43" x2="573.1" y2="186.88"/>
    <line class="cls-3" x1="573.1" y1="186.88" x2="587.17" y2="180.39"/>
    <line class="cls-3" x1="587.17" y1="180.39" x2="601.25" y2="173.94"/>
    <line class="cls-3" x1="601.25" y1="173.94" x2="615.36" y2="167.55"/>
    <line class="cls-3" x1="615.36" y1="167.55" x2="629.5" y2="161.21"/>
    <line class="cls-3" x1="629.5" y1="161.21" x2="643.66" y2="154.93"/>
    <line class="cls-3" x1="643.66" y1="154.93" x2="657.85" y2="148.71"/>
    <line class="cls-3" x1="657.85" y1="148.71" x2="672.06" y2="142.56"/>
    <line class="cls-3" x1="672.06" y1="142.56" x2="686.31" y2="136.47"/>
    <line class="cls-3" x1="686.31" y1="136.47" x2="700.59" y2="130.44"/>
    <line class="cls-3" x1="700.59" y1="130.44" x2="714.9" y2="124.49"/>
    <line class="cls-3" x1="714.9" y1="124.49" x2="729.25" y2="118.61"/>
    <line class="cls-3" x1="729.25" y1="118.61" x2="743.63" y2="112.81"/>
    <line class="cls-3" x1="743.63" y1="112.81" x2="758.05" y2="107.09"/>
    <line class="cls-3" x1="758.05" y1="107.09" x2="772.51" y2="101.46"/>
    <line class="cls-3" x1="772.51" y1="101.46" x2="787.01" y2="95.91"/>
    <line class="cls-3" x1="787.01" y1="95.91" x2="801.56" y2="90.45"/>
    <line class="cls-4" x1="101.56" y1="436.06" x2="115.13" y2="429.56"/>
    <line class="cls-4" x1="115.13" y1="429.56" x2="128.7" y2="423.06"/>
    <line class="cls-4" x1="128.7" y1="423.06" x2="142.27" y2="416.58"/>
    <line class="cls-4" x1="142.27" y1="416.58" x2="155.84" y2="410.1"/>
    <line class="cls-4" x1="155.84" y1="410.1" x2="169.42" y2="403.63"/>
    <line class="cls-4" x1="169.42" y1="403.63" x2="183" y2="397.18"/>
    <line class="cls-4" x1="183" y1="397.18" x2="196.59" y2="390.74"/>
    <line class="cls-4" x1="196.59" y1="390.74" x2="210.18" y2="384.32"/>
    <line class="cls-4" x1="210.18" y1="384.32" x2="223.78" y2="377.91"/>
    <line class="cls-4" x1="223.78" y1="377.91" x2="237.38" y2="371.52"/>
    <line class="cls-4" x1="237.38" y1="371.52" x2="250.99" y2="365.15"/>
    <line class="cls-4" x1="250.99" y1="365.15" x2="264.62" y2="358.8"/>
    <line class="cls-4" x1="264.62" y1="358.8" x2="278.25" y2="352.47"/>
    <line class="cls-4" x1="278.25" y1="352.47" x2="291.89" y2="346.17"/>
    <line class="cls-4" x1="291.89" y1="346.17" x2="305.55" y2="339.89"/>
    <line class="cls-4" x1="305.55" y1="339.89" x2="319.22" y2="333.64"/>
    <line class="cls-4" x1="319.22" y1="333.64" x2="332.9" y2="327.42"/>
    <line class="cls-4" x1="332.9" y1="327.42" x2="346.6" y2="321.24"/>
    <line class="cls-4" x1="346.6" y1="321.24" x2="360.32" y2="315.08"/>
    <line class="cls-4" x1="360.32" y1="315.08" x2="374.05" y2="308.96"/>
    <line class="cls-4" x1="374.05" y1="308.96" x2="387.8" y2="302.87"/>
    <line class="cls-4" x1="387.8" y1="302.87" x2="401.57" y2="296.83"/>
    <line class="cls-4" x1="401.57" y1="296.83" x2="415.37" y2="290.82"/>
    <line class="cls-4" x1="415.37" y1="290.82" x2="429.18" y2="284.86"/>
    <line class="cls-4" x1="429.18" y1="284.86" x2="443.02" y2="278.94"/>
    <line class="cls-4" x1="443.02" y1="278.94" x2="456.89" y2="273.07"/>
    <line class="cls-4" x1="456.89" y1="273.07" x2="470.78" y2="267.25"/>
    <line class="cls-4" x1="470.78" y1="267.25" x2="484.69" y2="261.48"/>
    <line class="cls-4" x1="484.69" y1="261.48" x2="498.64" y2="255.76"/>
    <line class="cls-4" x1="498.64" y1="255.76" x2="512.62" y2="250.1"/>
    <line class="cls-4" x1="512.62" y1="250.1" x2="526.63" y2="244.5"/>
    <line class="cls-4" x1="526.63" y1="244.5" x2="540.67" y2="238.97"/>
    <line class="cls-4" x1="540.67" y1="238.97" x2="554.75" y2="233.49"/>
    <line class="cls-4" x1="554.75" y1="233.49" x2="568.87" y2="228.09"/>
    <line class="cls-4" x1="568.87" y1="228.09" x2="583.03" y2="222.75"/>
    <line class="cls-4" x1="583.03" y1="222.75" x2="597.22" y2="217.49"/>
    <line class="cls-4" x1="597.22" y1="217.49" x2="611.46" y2="212.31"/>
    <line class="cls-4" x1="611.46" y1="212.31" x2="625.75" y2="207.2"/>
    <line class="cls-4" x1="625.75" y1="207.2" x2="640.08" y2="202.18"/>
    <line class="cls-4" x1="640.08" y1="202.18" x2="654.46" y2="197.25"/>
    <line class="cls-4" x1="654.46" y1="197.25" x2="668.9" y2="192.41"/>
    <line class="cls-4" x1="668.9" y1="192.41" x2="683.39" y2="187.66"/>
    <line class="cls-4" x1="683.39" y1="187.66" x2="697.93" y2="183.02"/>
    <line class="cls-4" x1="697.93" y1="183.02" x2="712.53" y2="178.47"/>
    <line class="cls-4" x1="712.53" y1="178.47" x2="727.2" y2="174.04"/>
    <line class="cls-4" x1="727.2" y1="174.04" x2="741.93" y2="169.71"/>
    <line class="cls-4" x1="741.93" y1="169.71" x2="756.72" y2="165.51"/>
    <line class="cls-4" x1="756.72" y1="165.51" x2="771.59" y2="161.42"/>
    <line class="cls-4" x1="771.59" y1="161.42" x2="786.54" y2="157.46"/>
    <line class="cls-4" x1="786.54" y1="157.46" x2="801.56" y2="153.64"/>
    <line class="cls-1" x1="101.56" y1="448.59" x2="114.66" y2="442.92"/>
    <line class="cls-1" x1="114.66" y1="442.92" x2="127.78" y2="437.26"/>
    <line class="cls-1" x1="127.78" y1="437.26" x2="140.91" y2="431.62"/>
    <line class="cls-1" x1="140.91" y1="431.62" x2="154.04" y2="426"/>
    <line class="cls-1" x1="154.04" y1="426" x2="167.2" y2="420.4"/>
    <line class="cls-1" x1="167.2" y1="420.4" x2="180.36" y2="414.83"/>
    <line class="cls-1" x1="180.36" y1="414.83" x2="193.54" y2="409.28"/>
    <line class="cls-1" x1="193.54" y1="409.28" x2="206.74" y2="403.75"/>
    <line class="cls-1" x1="206.74" y1="403.75" x2="219.95" y2="398.26"/>
    <line class="cls-1" x1="219.95" y1="398.26" x2="233.18" y2="392.79"/>
    <line class="cls-1" x1="233.18" y1="392.79" x2="246.44" y2="387.36"/>
    <line class="cls-1" x1="246.44" y1="387.36" x2="259.71" y2="381.96"/>
    <line class="cls-1" x1="259.71" y1="381.96" x2="273.01" y2="376.6"/>
    <line class="cls-1" x1="273.01" y1="376.6" x2="286.34" y2="371.28"/>
    <line class="cls-1" x1="286.34" y1="371.28" x2="299.69" y2="366"/>
    <line class="cls-1" x1="299.69" y1="366" x2="313.06" y2="360.76"/>
    <line class="cls-1" x1="313.06" y1="360.76" x2="326.47" y2="355.57"/>
    <line class="cls-1" x1="326.47" y1="355.57" x2="339.91" y2="350.43"/>
    <line class="cls-1" x1="339.91" y1="350.43" x2="353.38" y2="345.34"/>
    <line class="cls-1" x1="353.38" y1="345.34" x2="366.89" y2="340.3"/>
    <line class="cls-1" x1="366.89" y1="340.3" x2="380.43" y2="335.32"/>
    <line class="cls-1" x1="380.43" y1="335.32" x2="394.01" y2="330.39"/>
    <line class="cls-1" x1="394.01" y1="330.39" x2="407.64" y2="325.53"/>
    <line class="cls-1" x1="407.64" y1="325.53" x2="421.3" y2="320.73"/>
    <line class="cls-1" x1="421.3" y1="320.73" x2="435.01" y2="316"/>
    <line class="cls-1" x1="435.01" y1="316" x2="448.77" y2="311.34"/>
    <line class="cls-1" x1="448.77" y1="311.34" x2="462.58" y2="306.75"/>
    <line class="cls-1" x1="462.58" y1="306.75" x2="476.44" y2="302.24"/>
    <line class="cls-1" x1="476.44" y1="302.24" x2="490.35" y2="297.82"/>
    <line class="cls-1" x1="490.35" y1="297.82" x2="504.32" y2="293.47"/>
    <line class="cls-1" x1="504.32" y1="293.47" x2="518.35" y2="289.22"/>
    <line class="cls-1" x1="518.35" y1="289.22" x2="532.45" y2="285.06"/>
    <line class="cls-1" x1="532.45" y1="285.06" x2="546.61" y2="281"/>
    <line class="cls-1" x1="546.61" y1="281" x2="560.84" y2="277.03"/>
    <line class="cls-1" x1="560.84" y1="277.03" x2="575.15" y2="273.18"/>
    <line class="cls-1" x1="575.15" y1="273.18" x2="589.53" y2="269.43"/>
    <line class="cls-1" x1="589.53" y1="269.43" x2="603.99" y2="265.8"/>
    <line class="cls-1" x1="603.99" y1="265.8" x2="618.54" y2="262.29"/>
    <line class="cls-1" x1="618.54" y1="262.29" x2="633.17" y2="258.91"/>
    <line class="cls-1" x1="633.17" y1="258.91" x2="647.9" y2="255.66"/>
    <line class="cls-1" x1="647.9" y1="255.66" x2="662.73" y2="252.55"/>
    <line class="cls-1" x1="662.73" y1="252.55" x2="677.66" y2="249.58"/>
    <line class="cls-1" x1="677.66" y1="249.58" x2="692.69" y2="246.77"/>
    <line class="cls-1" x1="692.69" y1="246.77" x2="707.85" y2="244.12"/>
    <line class="cls-1" x1="707.85" y1="244.12" x2="723.12" y2="241.63"/>
    <line class="cls-1" x1="723.12" y1="241.63" x2="738.52" y2="239.31"/>
    <line class="cls-1" x1="738.52" y1="239.31" x2="754.06" y2="237.19"/>
    <line class="cls-1" x1="754.06" y1="237.19" x2="769.74" y2="235.25"/>
    <line class="cls-1" x1="769.74" y1="235.25" x2="785.57" y2="233.51"/>
    <line class="cls-1" x1="785.57" y1="233.51" x2="801.56" y2="231.99"/>
  </g>
  <g id="Legend_dark" data-name="Legend dark">
    <line class="cls-5" x1="101.57" y1="542.96" x2="801.57" y2="542.96"/>
    <line class="cls-5" x1="101.57" y1="42.96" x2="101.57" y2="542.96"/>
    <g>
      <path class="cls-6" d="m614.41,575.07v-1.43l5.98-13.65v-.26h-8.71v-2.86h12.61v2.86l-6.76,15.34h-3.12Z"/>
      <path class="cls-6" d="m629.88,563.89h4.55c.66,0,1.25.1,1.77.3.52.2.97.48,1.35.83.38.36.67.78.87,1.27s.3,1.04.3,1.62v3.12c0,.59-.1,1.13-.3,1.62s-.49.92-.87,1.27c-.38.36-.83.63-1.35.83-.52.2-1.11.3-1.77.3h-8.32v-2.86h7.41c.52,0,.95-.17,1.3-.51s.52-.73.52-1.18v-2.08c0-.45-.17-.85-.52-1.18s-.78-.51-1.3-.51h-7.02v-9.88h11.57v1.95l-.91.91h-7.28v4.16Z"/>
    </g>
    <g>
      <path class="cls-6" d="m441.06,563.89h4.55c.66,0,1.25.1,1.77.3.52.2.97.48,1.35.83.38.36.67.78.87,1.27s.3,1.04.3,1.62v3.12c0,.59-.1,1.13-.3,1.62s-.49.92-.87,1.27c-.38.36-.83.63-1.35.83-.52.2-1.11.3-1.77.3h-8.32v-2.86h7.41c.52,0,.95-.17,1.3-.51s.52-.73.52-1.18v-2.08c0-.45-.17-.85-.52-1.18s-.78-.51-1.3-.51h-7.02v-9.88h11.57v1.95l-.91.91h-7.28v4.16Z"/>
      <path class="cls-6" d="m463.11,556.91c.52.2.97.48,1.35.83.38.36.67.78.87,1.27s.3,1.04.3,1.62v10.66c0,.59-.1,1.13-.3,1.62-.2.49-.49.92-.87,1.27s-.83.63-1.35.83c-.52.2-1.11.3-1.77.3h-4.81c-.64,0-1.23-.1-1.75-.3-.53-.2-.98-.48-1.37-.83-.38-.36-.67-.78-.87-1.27-.2-.49-.3-1.04-.3-1.62v-10.66c0-.59.1-1.13.3-1.62.2-.49.49-.92.87-1.27.38-.35.84-.63,1.37-.83.53-.2,1.11-.3,1.75-.3h4.81c.66,0,1.25.1,1.77.3Zm-6.97,3.07c-.35.34-.52.73-.52,1.18v9.62c0,.45.17.84.52,1.18s.78.51,1.3.51h2.99c.52,0,.95-.17,1.3-.51s.52-.73.52-1.18v-9.62c0-.45-.17-.85-.52-1.18s-.78-.51-1.3-.51h-2.99c-.52,0-.95.17-1.3.51Z"/>
    </g>
    <g>
      <path class="cls-6" d="m271.91,561.42c0-.45-.17-.84-.52-1.18-.35-.34-.78-.51-1.3-.51h-6.5l-.91-.91v-1.95h8.32c1.3,0,2.34.36,3.12,1.07s1.17,1.66,1.17,2.83v1.56c0,.49-.07.92-.2,1.31-.13.39-.32.77-.56,1.13-.24.36-.54.72-.9,1.08-.36.36-.76.74-1.21,1.16l-5.46,4.94v.26h8.45v2.86h-13.13v-2.86l8.32-7.54c.28-.24.56-.56.86-.96s.44-.86.44-1.38v-.91Z"/>
      <path class="cls-6" d="m281.27,563.89h4.55c.66,0,1.25.1,1.77.3.52.2.97.48,1.35.83.38.36.67.78.87,1.27s.3,1.04.3,1.62v3.12c0,.59-.1,1.13-.3,1.62s-.49.92-.87,1.27c-.38.36-.83.63-1.35.83-.52.2-1.11.3-1.77.3h-8.32v-2.86h7.41c.52,0,.95-.17,1.3-.51s.52-.73.52-1.18v-2.08c0-.45-.17-.85-.52-1.18s-.78-.51-1.3-.51h-7.02v-9.88h11.57v1.95l-.91.91h-7.28v4.16Z"/>
    </g>
    <path class="cls-6" d="m105.64,556.91c.52.2.97.48,1.35.83.38.36.67.78.87,1.27s.3,1.04.3,1.62v10.66c0,.59-.1,1.13-.3,1.62-.2.49-.49.92-.87,1.27s-.83.63-1.35.83c-.52.2-1.11.3-1.77.3h-4.81c-.64,0-1.23-.1-1.75-.3-.53-.2-.98-.48-1.37-.83-.38-.36-.67-.78-.87-1.27-.2-.49-.3-1.04-.3-1.62v-10.66c0-.59.1-1.13.3-1.62.2-.49.49-.92.87-1.27.38-.35.84-.63,1.37-.83.53-.2,1.11-.3,1.75-.3h4.81c.66,0,1.25.1,1.77.3Zm-6.97,3.07c-.35.34-.52.73-.52,1.18v9.62c0,.45.17.84.52,1.18s.78.51,1.3.51h2.99c.52,0,.95-.17,1.3-.51s.52-.73.52-1.18v-9.62c0-.45-.17-.85-.52-1.18s-.78-.51-1.3-.51h-2.99c-.52,0-.95.17-1.3.51Z"/>
    <path class="cls-6" d="m85.37,496.67h-3.38v-15.21h-3.25v-1.95l4.03-1.04h2.6v18.2Z"/>
    <path class="cls-6" d="m82.71,427.42c0-.45-.17-.84-.52-1.18-.35-.34-.78-.51-1.3-.51h-6.5l-.91-.91v-1.95h8.32c1.3,0,2.34.35,3.12,1.07.78.71,1.17,1.66,1.17,2.83v1.56c0,.49-.06.92-.19,1.31-.13.39-.32.77-.56,1.13-.24.36-.54.72-.9,1.08-.36.36-.76.74-1.21,1.16l-5.46,4.94v.26h8.45v2.86h-13.13v-2.86l8.32-7.54c.28-.24.56-.56.86-.96.29-.4.44-.86.44-1.38v-.91Z"/>
    <path class="cls-6" d="m72.96,383.21h7.67c.52,0,.95-.17,1.3-.51s.52-.73.52-1.18v-1.56c0-.45-.17-.84-.52-1.18s-.78-.51-1.3-.51h-4.81v-2.86l5.2-4.42v-.26h-7.05l-.88-.88v-1.98h12.22v2.86l-5.2,4.42v.26h1.43c.66,0,1.25.1,1.77.3.52.2.97.48,1.35.83.38.36.67.78.87,1.27.2.49.3,1.04.3,1.62v2.6c0,.59-.1,1.13-.3,1.62-.2.49-.49.92-.87,1.27-.38.36-.83.63-1.35.83-.52.2-1.11.3-1.77.3h-8.58v-2.86Z"/>
    <path class="cls-6" d="m84.4,323.31h2.08v2.86h-2.08v3.9h-3.38v-3.9h-8.97v-2.86l8.19-11.44h4.16v11.44Zm-8.58-.26v.26h5.2v-7.15h-.26l-4.94,6.89Z"/>
    <path class="cls-6" d="m77.12,262.89h4.55c.66,0,1.25.1,1.77.3.52.2.97.48,1.35.83.38.36.67.78.87,1.27.2.49.3,1.04.3,1.62v3.12c0,.59-.1,1.13-.3,1.62-.2.49-.49.92-.87,1.27-.38.36-.83.63-1.35.83-.52.2-1.11.3-1.77.3h-8.32v-2.86h7.41c.52,0,.95-.17,1.3-.51s.52-.73.52-1.18v-2.08c0-.45-.17-.85-.52-1.18s-.78-.51-1.3-.51h-7.02v-9.88h11.57v1.95l-.91.91h-7.28v4.16Z"/>
    <path class="cls-6" d="m85.66,215.92c-.2.49-.49.92-.87,1.27-.38.36-.83.63-1.35.83-.52.2-1.11.3-1.77.3h-4.55c-.64,0-1.23-.1-1.76-.3-.53-.2-.98-.48-1.36-.83s-.67-.78-.87-1.27c-.2-.49-.3-1.04-.3-1.62v-10.4c0-.59.1-1.13.3-1.62s.49-.92.87-1.27.84-.63,1.36-.83c.53-.2,1.11-.3,1.76-.3h7.93v1.95l-.91.91h-6.11c-.52,0-.95.17-1.3.51-.35.34-.52.73-.52,1.18v2.47h5.46c.66,0,1.25.1,1.77.3.52.2.97.48,1.35.83.38.36.67.78.87,1.27.2.49.3,1.04.3,1.62v3.38c0,.59-.1,1.13-.3,1.62Zm-3.6-.96c.35-.34.52-.73.52-1.18v-2.34c0-.45-.17-.85-.52-1.18s-.78-.51-1.3-.51h-4.55v4.03c0,.45.17.84.52,1.18s.78.51,1.3.51h2.73c.52,0,.95-.17,1.3-.51Z"/>
    <path class="cls-6" d="m76.6,163.07v-1.43l5.98-13.65v-.26h-8.71v-2.86h12.61v2.86l-6.76,15.34h-3.12Z"/>
    <path class="cls-6" d="m85.18,96.86c-.26.38-.54.68-.83.91-.36.28-.78.5-1.25.68v.26c.54.09,1.01.26,1.43.52.38.24.72.59,1,1.03.29.44.43,1.05.43,1.83v2.21c0,.59-.1,1.13-.3,1.62-.2.49-.49.92-.87,1.27s-.83.63-1.35.83-1.11.3-1.77.3h-4.94c-.64,0-1.23-.1-1.75-.3s-.98-.48-1.37-.83-.67-.78-.87-1.27c-.2-.49-.3-1.04-.3-1.62v-2.21c0-.73.15-1.31.44-1.74.29-.43.62-.77.99-1.01.42-.29.89-.5,1.43-.62v-.26c-.47-.17-.88-.4-1.22-.68-.35-.24-.64-.55-.88-.92-.24-.37-.36-.84-.36-1.39v-1.82c0-.59.1-1.13.3-1.62s.49-.92.87-1.27c.38-.35.84-.63,1.37-.83.53-.2,1.11-.3,1.75-.3h4.16c.66,0,1.25.1,1.77.3.52.2.97.48,1.35.83.38.36.67.78.87,1.27s.3,1.04.3,1.62v1.82c0,.55-.13,1.02-.39,1.4Zm-3.12,3.78c-.35-.34-.78-.51-1.3-.51h-3.12c-.52,0-.95.17-1.3.51-.35.34-.52.73-.52,1.18v1.95c0,.45.17.84.52,1.18s.78.51,1.3.51h3.12c.52,0,.95-.17,1.3-.51s.52-.73.52-1.18v-1.95c0-.45-.17-.84-.52-1.18Zm.13-6.49c0-.45-.17-.85-.52-1.18s-.78-.51-1.3-.51h-2.34c-.52,0-.95.17-1.3.51s-.52.73-.52,1.18v1.43c0,.45.17.84.52,1.18.35.34.78.51,1.3.51h2.34c.52,0,.95-.17,1.3-.51.35-.34.52-.73.52-1.18v-1.43Z"/>
    <path class="cls-6" d="m72.57,37.64c0-.59.1-1.13.3-1.62.2-.49.49-.92.87-1.27.38-.35.84-.63,1.37-.83.53-.2,1.11-.3,1.75-.3h4.55c.66,0,1.25.1,1.77.3.52.2.97.48,1.35.83.38.36.67.78.87,1.27s.3,1.04.3,1.62v10.4c0,.59-.1,1.13-.3,1.62s-.49.92-.87,1.27-.83.63-1.35.83-1.11.3-1.77.3h-7.93v-2.86h7.02c.52,0,.95-.17,1.3-.51s.52-.73.52-1.18v-2.47h-5.46c-.64,0-1.23-.1-1.75-.3s-.98-.48-1.37-.83-.67-.78-.87-1.27c-.2-.49-.3-1.04-.3-1.62v-3.38Zm5.2-1.17c-.52,0-.95.17-1.3.51s-.52.73-.52,1.18v2.34c0,.45.17.84.52,1.18s.78.51,1.3.51h4.55v-4.03c0-.45-.17-.85-.52-1.18s-.78-.51-1.3-.51h-2.73Z"/>
    <g>
      <path class="cls-6" d="m787.79,575.03h-3.38v-15.21h-3.25v-1.95l4.03-1.04h2.6v18.2Z"/>
      <path class="cls-6" d="m801.77,556.86c.52.2.97.48,1.35.83.38.36.67.78.87,1.27s.3,1.04.3,1.62v10.66c0,.59-.1,1.13-.3,1.62-.2.49-.49.92-.87,1.27s-.83.63-1.35.83c-.52.2-1.11.3-1.77.3h-4.81c-.64,0-1.23-.1-1.75-.3-.53-.2-.98-.48-1.37-.83-.38-.36-.67-.78-.87-1.27-.2-.49-.3-1.04-.3-1.62v-10.66c0-.59.1-1.13.3-1.62.2-.49.49-.92.87-1.27.38-.35.84-.63,1.37-.83.53-.2,1.11-.3,1.75-.3h4.81c.66,0,1.25.1,1.77.3Zm-6.97,3.07c-.35.34-.52.73-.52,1.18v9.62c0,.45.17.84.52,1.18s.78.51,1.3.51h2.99c.52,0,.95-.17,1.3-.51s.52-.73.52-1.18v-9.62c0-.45-.17-.85-.52-1.18s-.78-.51-1.3-.51h-2.99c-.52,0-.95.17-1.3.51Z"/>
      <path class="cls-6" d="m817.76,556.86c.52.2.97.48,1.35.83.38.36.67.78.87,1.27s.3,1.04.3,1.62v10.66c0,.59-.1,1.13-.3,1.62-.2.49-.49.92-.87,1.27s-.83.63-1.35.83c-.52.2-1.11.3-1.77.3h-4.81c-.64,0-1.23-.1-1.75-.3-.53-.2-.98-.48-1.37-.83-.38-.36-.67-.78-.87-1.27-.2-.49-.3-1.04-.3-1.62v-10.66c0-.59.1-1.13.3-1.62.2-.49.49-.92.87-1.27.38-.35.84-.63,1.37-.83.53-.2,1.11-.3,1.75-.3h4.81c.66,0,1.25.1,1.77.3Zm-6.97,3.07c-.35.34-.52.73-.52,1.18v9.62c0,.45.17.84.52,1.18s.78.51,1.3.51h2.99c.52,0,.95-.17,1.3-.51s.52-.73.52-1.18v-9.62c0-.45-.17-.85-.52-1.18s-.78-.51-1.3-.51h-2.99c-.52,0-.95.17-1.3.51Z"/>
    </g>
    <g>
      <path class="cls-6" d="m40.21,232.25h18.2v12.48h-1.95l-.91-.91v-8.19h-5.59v6.5h-2.86v-6.5h-6.89v-3.38Z"/>
      <path class="cls-6" d="m51.59,246.44c.42.18.8.44,1.12.78.32.34.57.74.75,1.2.18.46.27.97.27,1.52v4.42c0,.55-.09,1.06-.27,1.52s-.43.86-.75,1.2c-.32.34-.69.6-1.12.78s-.88.27-1.37.27h-6.76c-.49,0-.94-.09-1.36-.27-.42-.18-.8-.44-1.12-.78-.32-.34-.57-.74-.75-1.2-.18-.46-.27-.97-.27-1.52v-4.42c0-.55.09-1.06.27-1.52.18-.46.43-.86.75-1.2s.69-.6,1.12-.78c.42-.18.88-.27,1.36-.27h6.76c.49,0,.94.09,1.37.27Zm-1.89,8.44c.4,0,.72-.13.95-.38s.35-.6.35-1.05v-2.6c0-.45-.12-.8-.35-1.05-.23-.25-.55-.38-.95-.38h-5.72c-.4,0-.71.13-.95.38-.23.25-.35.6-.35,1.05v2.6c0,.45.12.8.35,1.05.23.25.55.38.95.38h5.72Z"/>
      <path class="cls-6" d="m50.87,269.17v-2.99c0-.36-.07-.68-.21-.94-.14-.26-.29-.48-.44-.65-.19-.19-.41-.36-.65-.49h-9.36v-3.25h13.26v2.21l-1.56.39v.26c.35.21.65.46.91.75.24.28.46.6.64.96s.27.79.27,1.27v2.47h-2.86Z"/>
      <path class="cls-6" d="m44.24,273.85c-.4,0-.72.13-.95.38-.23.25-.35.6-.35,1.05v5.98h-2.73v-6.89c0-.55.09-1.06.27-1.52.18-.46.43-.86.75-1.2.32-.34.69-.6,1.12-.78.42-.18.88-.27,1.37-.27h6.24c.49,0,.94.09,1.36.27.42.18.8.44,1.12.78s.57.74.75,1.2c.18.46.27.97.27,1.52v6.89h-1.95l-.78-.78v-5.2c0-.45-.12-.8-.35-1.05-.23-.25-.55-.38-.95-.38h-5.2Z"/>
      <path class="cls-6" d="m45.54,294.65v-8.45h-1.3c-.4,0-.72.13-.95.38-.23.25-.35.6-.35,1.05v6.5h-2.73v-7.41c0-.55.09-1.06.27-1.52.18-.46.43-.86.75-1.2.32-.34.69-.6,1.12-.78.42-.18.88-.27,1.37-.27h6.5c.49,0,.94.09,1.37.27.42.18.8.44,1.12.78.32.34.57.74.75,1.2.18.46.27.97.27,1.52v4.16c0,.55-.09,1.06-.27,1.52-.18.46-.43.86-.75,1.2-.32.34-.69.6-1.12.78s-.88.27-1.37.27h-4.68Zm2.73-8.45v5.2h1.43c.4,0,.72-.13.95-.38.23-.25.35-.6.35-1.05v-2.34c0-.45-.12-.8-.35-1.05-.23-.25-.55-.38-.95-.38h-1.43Z"/>
      <path class="cls-6" d="m35.27,310.77v-2.34c0-.64.1-1.23.3-1.75.2-.53.48-.98.83-1.36.36-.38.78-.67,1.27-.87s1.04-.3,1.62-.3h17.16c.59,0,1.13.1,1.62.3.49.2.92.49,1.27.87.35.38.63.84.83,1.36.2.53.3,1.11.3,1.75v2.34h-2.86v-1.43c0-.52-.17-.95-.51-1.3s-.73-.52-1.18-.52h-16.12c-.45,0-.84.17-1.18.52-.34.35-.51.78-.51,1.3v1.43h-2.86Z"/>
      <path class="cls-6" d="m53.47,321.04v3.25h-1.3l-5.07-2.99-5.59,3.25h-1.3v-3.25l5.46-2.73v-2.47h-5.46v-3.25h18.2v3.25h-10.01v2.47l5.07,2.47Z"/>
      <path class="cls-6" d="m53.08,335.6c-.14.38-.34.73-.6,1.04-.24.28-.54.52-.9.73s-.81.31-1.37.31h-1.43c-.49,0-.94-.09-1.36-.27s-.8-.44-1.12-.78-.57-.74-.75-1.2c-.18-.46-.27-.97-.27-1.52v-3.85c-.02-.17-.08-.29-.18-.35s-.22-.09-.34-.09h-.26c-.14,0-.26.04-.35.13-.1.09-.15.2-.17.34v4.47c0,.55-.1,1.07-.31,1.56s-.49.91-.84,1.27c-.36.36-.76.65-1.21.87-.45.22-.92.32-1.4.32h-.78c-.49,0-.95-.11-1.4-.32s-.85-.51-1.21-.87c-.35-.36-.64-.79-.84-1.27s-.31-1-.31-1.56v-5.2c0-.55.1-1.07.31-1.56s.49-.91.84-1.27c.36-.36.76-.65,1.21-.87s.92-.32,1.4-.32h.78c.55,0,1.03.11,1.42.32s.71.46.98.72c.29.31.54.66.73,1.04h.26c.05-.12.13-.23.23-.31.09-.1.19-.19.32-.25.13-.06.29-.09.48-.09h.36c.19,0,.36.04.49.1.14.07.25.15.34.23.09.09.16.19.23.31h.26c.16-.23.36-.42.6-.57.23-.17.49-.32.78-.43.29-.11.66-.17,1.09-.17h1.43c.49,0,.94.09,1.37.27.42.18.8.44,1.12.78.32.34.57.74.75,1.2.18.46.27.97.27,1.52v2.99l2.34,1.43v2.73h-1.3l-1.43-1.56h-.26Zm-11.83-1.69v-3.9c0-.95-.48-1.43-1.43-1.43s-1.43.48-1.43,1.43v3.9c0,.95.48,1.43,1.43,1.43s1.43-.48,1.43-1.43Zm9.75-.91v-2.08c0-.95-.48-1.43-1.43-1.43h-.13c-.95,0-1.43.48-1.43,1.43v2.08c0,.95.48,1.43,1.43,1.43h.13c.95,0,1.43-.48,1.43-1.43Z"/>
      <path class="cls-6" d="m40.21,340.67h14.95c.49,0,.94.09,1.36.27.42.18.8.44,1.12.78s.57.74.75,1.2c.18.46.27.97.27,1.52v4.94h-1.95l-.78-.78v-3.38c0-.45-.12-.78-.35-.99-.23-.21-.55-.31-.95-.31h-2.6v3.9h-2.73v-3.9h-9.1v-3.25Z"/>
      <path class="cls-6" d="m38.13,349.12v1.43c0,.52.17.95.51,1.3.34.35.73.52,1.18.52h16.12c.45,0,.85-.17,1.18-.52s.51-.78.51-1.3v-1.43h2.86v2.34c0,.66-.1,1.25-.3,1.77-.2.52-.48.97-.83,1.35-.36.38-.78.67-1.27.87-.49.2-1.04.3-1.62.3h-17.16c-.59,0-1.13-.1-1.62-.3s-.92-.49-1.27-.87c-.35-.38-.63-.83-.83-1.35-.2-.52-.3-1.11-.3-1.77v-2.34h2.86Z"/>
    </g>
    <g>
      <path class="cls-6" d="m400.73,606.03h-3.38v-15.34h-5.2v-2.86h13.78v1.95l-.91.91h-4.29v15.34Z"/>
      <path class="cls-6" d="m416.07,595.37h-2.99c-.36,0-.68.07-.94.21s-.48.29-.65.44c-.19.19-.35.41-.49.65v9.36h-3.25v-13.26h2.21l.39,1.56h.26c.21-.35.46-.65.75-.91.28-.24.6-.46.96-.64.36-.18.79-.27,1.27-.27h2.47v2.86Z"/>
      <path class="cls-6" d="m426.73,606.03l-.39-1.56h-.26c-.21.35-.46.65-.75.91-.28.24-.6.46-.96.64-.36.18-.79.27-1.27.27h-2.08c-.55,0-1.06-.09-1.52-.27-.46-.18-.86-.43-1.2-.75-.34-.32-.6-.69-.78-1.12-.18-.42-.27-.88-.27-1.37v-1.43c0-.49.09-.94.27-1.37.18-.42.44-.8.78-1.12.34-.32.74-.57,1.2-.75.46-.18.97-.27,1.52-.27h4.68v-.91c0-.95-.48-1.43-1.43-1.43h-5.85v-2.73h6.76c.55,0,1.06.09,1.52.27.46.18.86.43,1.2.75s.6.69.78,1.12c.18.42.27.88.27,1.37v9.75h-2.21Zm-2.18-2.69c.26-.15.48-.32.65-.51.19-.21.36-.44.49-.7v-1.56h-3.9c-.4,0-.71.12-.95.35-.23.23-.35.55-.35.95v.39c0,.4.12.72.35.95s.55.35.95.35h1.82c.36,0,.68-.07.94-.22Z"/>
      <path class="cls-6" d="m430.89,594.07v-1.3h3.25l2.86,9.88h.26l2.86-9.88h3.25v1.3l-4.29,11.96h-3.9l-4.29-11.96Z"/>
      <path class="cls-6" d="m456.63,600.7h-8.45v1.3c0,.4.13.71.38.95.25.23.6.35,1.05.35h6.5v2.73h-7.41c-.55,0-1.06-.09-1.52-.27-.46-.18-.86-.43-1.2-.75-.34-.32-.6-.69-.78-1.12-.18-.42-.27-.88-.27-1.36v-6.5c0-.49.09-.94.27-1.36.18-.42.44-.8.78-1.12.34-.32.74-.57,1.2-.75.46-.18.97-.27,1.52-.27h4.16c.55,0,1.06.09,1.52.27.46.18.86.43,1.2.75.34.32.6.69.78,1.12.18.42.27.88.27,1.36v4.68Zm-8.45-2.73h5.2v-1.43c0-.4-.12-.71-.38-.95-.25-.23-.6-.35-1.05-.35h-2.34c-.45,0-.8.12-1.05.35-.25.23-.38.55-.38.95v1.43Z"/>
      <path class="cls-6" d="m462.87,587.83v14.17c0,.4.13.71.38.95s.6.35,1.05.35h.78v2.73h-1.69c-.55,0-1.07-.09-1.53-.27-.47-.18-.87-.43-1.2-.75-.33-.32-.58-.69-.77-1.12-.18-.42-.27-.88-.27-1.36v-14.69h3.25Z"/>
      <path class="cls-6" d="m480.29,610.97h-2.34c-.64,0-1.23-.1-1.75-.3-.53-.2-.98-.48-1.37-.83-.38-.36-.67-.78-.87-1.27s-.3-1.04-.3-1.62v-17.16c0-.59.1-1.13.3-1.62s.49-.92.87-1.27c.38-.36.84-.63,1.37-.83.53-.2,1.11-.3,1.75-.3h2.34v2.86h-1.43c-.52,0-.95.17-1.3.51-.35.34-.52.73-.52,1.18v16.12c0,.45.17.85.52,1.18.35.34.78.51,1.3.51h1.43v2.86Z"/>
      <path class="cls-6" d="m489.65,593.55c0,.78-.3,1.45-.91,2.01-.61.56-1.43.85-2.47.85h-1.3c-1.04,0-1.86-.28-2.47-.85-.61-.56-.91-1.23-.91-2.01v-3.12c0-.78.3-1.45.91-2.01.61-.56,1.43-.85,2.47-.85h1.3c1.04,0,1.86.28,2.47.85.61.56.91,1.23.91,2.01v3.12Zm-3.64-3.9h-.78c-.78,0-1.17.35-1.17,1.04v2.6c0,.69.39,1.04,1.17,1.04h.78c.78,0,1.17-.35,1.17-1.04v-2.6c0-.69-.39-1.04-1.17-1.04Zm11.57-1.82v1.43l-10.27,16.77h-2.47v-1.43l10.27-16.77h2.47Zm3.25,15.6c0,.78-.3,1.45-.91,2.01-.61.56-1.43.84-2.47.84h-1.3c-1.04,0-1.86-.28-2.47-.84-.61-.56-.91-1.24-.91-2.01v-3.12c0-.78.3-1.45.91-2.01.61-.56,1.43-.84,2.47-.84h1.3c1.04,0,1.86.28,2.47.84.61.56.91,1.24.91,2.01v3.12Zm-3.64-3.9h-.78c-.78,0-1.17.35-1.17,1.04v2.6c0,.69.39,1.04,1.17,1.04h.78c.78,0,1.17-.35,1.17-1.04v-2.6c0-.69-.39-1.04-1.17-1.04Z"/>
      <path class="cls-6" d="m502.12,608.11h1.43c.52,0,.95-.17,1.3-.51s.52-.73.52-1.18v-16.12c0-.45-.17-.84-.52-1.18-.35-.34-.78-.51-1.3-.51h-1.43v-2.86h2.34c.66,0,1.25.1,1.77.3s.97.48,1.35.83c.38.36.67.78.87,1.27.2.49.3,1.04.3,1.62v17.16c0,.59-.1,1.13-.3,1.62-.2.49-.49.92-.87,1.27-.38.35-.83.63-1.35.83-.52.2-1.11.3-1.77.3h-2.34v-2.86Z"/>
    </g>
  </g>
</svg>