<?xml version="1.0" encoding="UTF-8"?>
<svg xmlns="http://www.w3.org/2000/svg" viewBox="0 0 236 260">
  <defs>
    <style>
      .cls-1 {
        fill: none;
        stroke: #000;
        stroke-linecap: round;
        stroke-linejoin: round;
        stroke-width: .71px;
      }

      .cls-2 {
        fill: #333;
      }

      .cls-3 {
        opacity: .45;
      }

      .cls-4 {
        fill: #e84e0f;
      }

      .cls-5 {
        fill: #999;
      }

      .cls-6 {
        fill: #ccc;
      }

      .cls-7 {
        fill: #666;
      }
    </style>
  </defs>
  <g id="down">
    <g id="LINE">
      <g class="cls-3">
        <g>
          <polygon class="cls-7" points="53.82 35.49 53.83 35.49 58.62 36.92 59.29 38.17 41.55 97.57 40.3 98.25 35.51 96.82 9.76 183.05 9.13 183.39 6.74 182.67 5.4 180.18 52.9 21.13 55.39 19.78 57.78 20.5 58.12 21.12 53.82 35.49"/>
          <path class="cls-6" d="m59.23,67.37l-1.72,5.75c-.93.81-2.1,1.28-3.33,1.35l-.47-.14,3-10.06.48.14c.98.74,1.7,1.78,2.04,2.96Z"/>
        </g>
        <g>
          <line class="cls-1" x1="54.18" y1="74.47" x2="53.71" y2="74.33"/>
          <path class="cls-1" d="m57.51,73.12c-.93.81-2.1,1.28-3.33,1.35"/>
          <line class="cls-1" x1="40.3" y1="98.25" x2="41.55" y2="97.57"/>
          <line class="cls-1" x1="56.71" y1="64.27" x2="53.71" y2="74.33"/>
          <line class="cls-1" x1="59.29" y1="38.17" x2="41.55" y2="97.57"/>
          <line class="cls-1" x1="6.74" y1="182.67" x2="9.13" y2="183.39"/>
          <line class="cls-1" x1="52.9" y1="21.13" x2="5.4" y2="180.18"/>
          <line class="cls-1" x1="35.51" y1="96.82" x2="40.3" y2="98.25"/>
          <line class="cls-1" x1="58.62" y1="36.92" x2="53.83" y2="35.49"/>
          <line class="cls-1" x1="57.78" y1="20.5" x2="55.39" y2="19.78"/>
          <polyline class="cls-1" points="52.51 39.88 53.82 35.49 58.12 21.12"/>
          <line class="cls-1" x1="58.62" y1="36.92" x2="59.29" y2="38.17"/>
          <line class="cls-1" x1="55.39" y1="19.78" x2="52.9" y2="21.13"/>
          <line class="cls-1" x1="58.12" y1="21.12" x2="57.78" y2="20.5"/>
          <line class="cls-1" x1="6.74" y1="182.67" x2="5.4" y2="180.18"/>
          <line class="cls-1" x1="9.76" y1="183.05" x2="9.13" y2="183.39"/>
          <path class="cls-1" d="m57.19,64.41c.98.74,1.7,1.78,2.04,2.96"/>
          <line class="cls-1" x1="57.19" y1="64.41" x2="56.71" y2="64.27"/>
          <polyline class="cls-1" points="9.76 183.05 35.51 96.82 36.82 92.42"/>
          <line class="cls-1" x1="59.23" y1="67.37" x2="57.51" y2="73.12"/>
        </g>
      </g>
    </g>
  </g>
  <g id="up">
    <g id="LINE-2" data-name="LINE" class="cls-3">
      <g>
        <g>
          <polygon class="cls-7" points="41.32 77.68 15.57 163.91 14.94 164.25 12.55 163.53 11.2 161.05 58.71 1.99 61.2 .64 63.59 1.36 63.93 1.98 59.64 16.35 64.43 17.78 65.1 19.03 47.36 78.44 46.11 79.11 41.32 77.68"/>
          <path class="cls-6" d="m65.04,48.23l-1.72,5.75c-.93.81-2.1,1.28-3.33,1.36l-.53-.16,3.09-10.04.44.13c.99.74,1.71,1.78,2.05,2.96Z"/>
        </g>
        <g>
          <line class="cls-1" x1="59.99" y1="55.34" x2="59.46" y2="55.18"/>
          <path class="cls-1" d="m63.32,53.98c-.93.81-2.1,1.28-3.33,1.36"/>
          <line class="cls-1" x1="46.11" y1="79.11" x2="47.36" y2="78.44"/>
          <line class="cls-1" x1="62.55" y1="45.14" x2="59.46" y2="55.18"/>
          <line class="cls-1" x1="65.1" y1="19.03" x2="47.36" y2="78.44"/>
          <line class="cls-1" x1="12.55" y1="163.53" x2="14.94" y2="164.25"/>
          <line class="cls-1" x1="58.71" y1="1.99" x2="11.2" y2="161.05"/>
          <line class="cls-1" x1="41.32" y1="77.68" x2="46.11" y2="79.11"/>
          <line class="cls-1" x1="64.43" y1="17.78" x2="59.64" y2="16.35"/>
          <line class="cls-1" x1="63.59" y1="1.36" x2="61.2" y2=".64"/>
          <polyline class="cls-1" points="58.32 20.75 59.64 16.35 63.93 1.98"/>
          <line class="cls-1" x1="64.43" y1="17.78" x2="65.1" y2="19.03"/>
          <line class="cls-1" x1="61.2" y1=".64" x2="58.71" y2="1.99"/>
          <line class="cls-1" x1="63.93" y1="1.98" x2="63.59" y2="1.36"/>
          <line class="cls-1" x1="12.55" y1="163.53" x2="11.2" y2="161.05"/>
          <line class="cls-1" x1="15.57" y1="163.91" x2="14.94" y2="164.25"/>
          <path class="cls-1" d="m62.99,45.27c.99.74,1.71,1.78,2.05,2.96"/>
          <line class="cls-1" x1="62.99" y1="45.27" x2="62.55" y2="45.14"/>
          <polyline class="cls-1" points="15.57 163.91 41.32 77.68 42.63 73.28"/>
          <line class="cls-1" x1="65.04" y1="48.23" x2="63.32" y2="53.98"/>
        </g>
      </g>
    </g>
  </g>
  <g id="Default">
    <g id="LWPOLYLINE">
      <g>
        <g>
          <path class="cls-5" d="m232.82,187.15l1.15,2.58-7.16,18.67-2.57,1.15-7.67-2.94-.46-1.02,2.98-7.78c1.3-1.51,2.01-3.41,2.05-5.36h.01l2.98-7.78,1.03-.46,7.66,2.94Z"/>
          <path class="cls-7" d="m223.41,178.18l1.72,3.88-1,2.61-2.98,7.78h-.01c.05-1.62-.38-3.27-1.31-4.74-2.41-3.79-7.35-5.06-11.28-2.89l-32.16,17.7-12.51,1.09,4.49-11.7,7.46,2.86,11.64-30.36,35.94,13.77Z"/>
          <path class="cls-7" d="m219.83,187.71c.93,1.47,1.36,3.12,1.31,4.74-.04,1.95-.75,3.85-2.05,5.36-.53.62-1.16,1.17-1.88,1.63l-27.28,17.32-11.54,7.33-32,8.57-10.54,2.83-21.39,5.73c-.68.18-1.38.27-2.07.27-2.1,0-4.14-.82-5.66-2.34-3.12-3.13-3.12-8.19,0-11.32l19-19c.95-.95,2.11-1.64,3.38-2.01.51-.15,1.04-.25,1.58-.3l26.49-2.32,6.7-.58h0s12.51-1.1,12.51-1.1l32.16-17.7c3.93-2.17,8.87-.9,11.28,2.89Zm-2.18,4.56c0-2.77-2.24-5-5-5s-5,2.23-5,5,2.24,5,5,5,5-2.24,5-5Zm-81.51,22.22c0-2.62-2.13-4.75-4.75-4.75s-4.75,2.13-4.75,4.75,2.13,4.75,4.75,4.75,4.75-2.13,4.75-4.75Zm-19,19c0-2.62-2.13-4.75-4.75-4.75s-4.75,2.13-4.75,4.75,2.13,4.75,4.75,4.75,4.75-2.13,4.75-4.75Z"/>
          <path class="cls-7" d="m219.09,197.81l-2.98,7.78-1,2.61-21.96,9.79-3.22-1.23,27.28-17.32c.72-.46,1.35-1.01,1.88-1.63Z"/>
          <circle class="cls-5" cx="212.65" cy="192.27" r="5"/>
          <polygon class="cls-5" points="216.39 247.09 216.39 253.99 215.89 254.49 3.39 254.49 2.89 253.99 2.89 249.49 5.89 246.49 8.39 246.49 105.39 246.49 215.79 246.49 216.39 247.09"/>
          <polygon class="cls-5" points="187.47 164.4 187.47 164.41 175.83 194.77 168.37 191.91 180 161.55 180.01 161.54 181.25 161.1 186.85 163.25 187.47 164.4"/>
          <polygon class="cls-7" points="168.37 191.91 163.88 203.61 163.88 203.62 157.18 204.2 153.93 202.96 153.36 201.67 158.55 188.13 169.64 159.18 169.82 158.71 171.11 158.14 180 161.55 168.37 191.91"/>
          <path class="cls-5" d="m169.64,159.18l-11.09,28.95-1.5-.58.25-.66h.01l2.35-6.13c.02-.05.03-.1.05-.15l7.55-19.67.89-2.33,1.49.57Z"/>
          <path class="cls-6" d="m164.71,159.97l-.26-.1-.48,1.26-.15.07s.01-.02.01-.02c.35-.79.63-1.4.83-1.81.1-.19.18-.33.27-.48.03-.05.07-.1.13-.17.04-.05.09-.11.18-.17.04-.04.1-.07.16-.1.08-.04.17-.08.27-.1.1-.01.21-.02.31-.01.11.02.23.05.33.1s.19.12.27.2.14.17.19.26c.04.08.06.17.08.24s.02.13.02.18c.01.06.01.11,0,.15,0,.09-.01.16-.03.23-.03.2-.09.42-.18.72-.02.08-.05.17-.08.26-.1.32-.22.72-.36,1.17-.27.83-.63,1.88-1.04,3.07-.38,1.13-.83,2.42-1.3,3.76s-.97,2.76-1.46,4.17-1,2.83-1.46,4.17c-.45,1.27-.87,2.5-1.25,3.59-.02.05-.03.1-.05.15l-2.35,6.13h-.01c-.1.03-.2.04-.31.04s-.23-.02-.34-.07c-.11-.04-.21-.1-.29-.17-.09-.07-.16-.16-.21-.25-.06-.08-.09-.17-.11-.25-.03-.08-.04-.14-.04-.2-.01-.06-.01-.11,0-.15,0-.08.01-.14.01-.19.03-.17.07-.32.12-.52.04-.16.09-.34.16-.55.05-.18.12-.39.19-.62.24-.76.58-1.77.98-2.95.37-1.08.8-2.32,1.26-3.64.45-1.3.94-2.71,1.44-4.12.49-1.4,1-2.84,1.47-4.2.48-1.36.94-2.68,1.35-3.87.41-1.18.77-2.25,1.07-3.14.29-.87.52-1.58.66-2.07Z"/>
          <path class="cls-5" d="m164.45,159.87l.26.1c-.14.49-.37,1.2-.66,2.07-.3.89-.66,1.96-1.07,3.14-.41,1.19-.87,2.51-1.35,3.87-.47,1.36-.98,2.8-1.47,4.2-.5,1.41-.99,2.82-1.44,4.12-.46,1.32-.89,2.56-1.26,3.64-.4,1.18-.74,2.19-.98,2.95-.07.23-.14.44-.19.62l-1.14-.43.48-1.26,8.34-21.76.48-1.26Z"/>
          <polygon class="cls-5" points="163.97 161.13 155.63 182.89 155.57 182.75 155.57 182.74 155.4 182.37 157.99 175.6 158 175.6 160.86 168.13 163.45 161.36 163.82 161.2 163.97 161.13"/>
          <path class="cls-5" d="m160.86,168.13l-2.86,7.47h-.01l-.51-.2-2.17-.83c.16-.65.32-1.31.49-1.98.37-1.46.75-2.97,1.11-4.43l.36-1.41,3.59,1.38Z"/>
          <path class="cls-6" d="m159.12,156.65c.06.48.02,1.01-.06,1.68-.06.5-.16,1.09-.28,1.74-.2,1.09-.49,2.4-.82,3.82-.21.9-.44,1.87-.69,2.86l-.36,1.41c-.36,1.46-.74,2.97-1.11,4.43-.17.67-.33,1.33-.49,1.98-.19.76-.37,1.5-.54,2.21-.3,1.29-.57,2.5-.78,3.53-.12.62-.22,1.19-.3,1.68.26-.4.55-.87.86-1.39.38-.62.78-1.34,1.21-2.11.17-.29.33-.59.49-.88.12-.22.24-.43.36-.64.13-.23.25-.46.38-.69.16-.29.33-.58.49-.88l.51.2-2.59,6.77.17.37h0c-.03.07-.07.11-.1.16-.5.78-.93,1.37-1.35,1.79-.18.19-.36.35-.61.47-.13.07-.29.14-.48.16-.15.02-.31.01-.47-.03-.22-.06-.42-.19-.56-.34-.13-.13-.22-.28-.27-.42-.09-.21-.13-.4-.15-.59-.05-.49-.01-1.03.07-1.72.07-.51.17-1.1.29-1.75.21-1.1.49-2.41.83-3.83.21-.88.43-1.82.67-2.79.12-.49.25-.98.37-1.48.36-1.46.75-2.97,1.11-4.43.16-.64.32-1.28.48-1.9.19-.79.38-1.55.55-2.28.3-1.29.57-2.49.77-3.51.12-.61.22-1.16.29-1.63-.26.41-.56.89-.89,1.43-.5.84-1.06,1.84-1.65,2.93-.39.71-.8,1.46-1.21,2.23h0s-1.87-.71-1.87-.71c.37-.7.74-1.38,1.09-2.02.65-1.21,1.28-2.32,1.83-3.27.57-.96,1.08-1.77,1.53-2.39.46-.64.78-1.09,1.38-1.39.13-.07.27-.12.45-.14.14-.02.31-.02.47.02.22.06.42.19.56.34.13.13.22.28.28.42.08.2.12.39.14.58Z"/>
          <path class="cls-5" d="m153.26,165.22l2.14.82c-.16.62-.32,1.26-.48,1.9-.36,1.46-.75,2.97-1.11,4.43-.12.5-.25.99-.37,1.48l-3.95-1.51-1.87-.72-2.14-.82c.16-.64.33-1.3.49-1.96.36-1.46.75-2.98,1.11-4.43.12-.48.24-.96.35-1.43h0l3.95,1.52,1.87.72Z"/>
          <path class="cls-6" d="m147.62,171.62l1.87.72c-.39.72-.76,1.42-1.12,2.08-.66,1.2-1.28,2.31-1.84,3.26s-1.07,1.76-1.51,2.36c-.47.65-.78,1.09-1.4,1.39-.12.05-.27.1-.44.12-.14.02-.3.01-.45-.03-.22-.06-.42-.19-.56-.33-.13-.14-.21-.29-.27-.43-.09-.2-.12-.39-.15-.58-.05-.48-.01-1.02.07-1.7.06-.51.16-1.09.28-1.75.21-1.09.5-2.4.83-3.82.21-.89.44-1.85.68-2.83.12-.48.24-.96.36-1.45.37-1.45.75-2.97,1.12-4.43.16-.65.32-1.3.48-1.93.19-.77.37-1.53.54-2.25.31-1.29.58-2.49.78-3.52.12-.61.22-1.17.29-1.65-.26.4-.56.88-.87,1.41-.5.84-1.06,1.84-1.66,2.92-.39.72-.8,1.48-1.22,2.27l-1.87-.71h0c.37-.71.74-1.4,1.1-2.05.65-1.2,1.28-2.32,1.83-3.26.57-.96,1.08-1.77,1.52-2.38.47-.65.79-1.1,1.39-1.4.12-.06.27-.11.45-.13.14-.02.3-.02.46.03.22.05.42.18.56.33.13.13.22.28.28.42.08.2.12.39.14.59.06.47.02,1-.06,1.68-.06.5-.16,1.09-.28,1.74-.21,1.09-.49,2.4-.83,3.82-.21.9-.44,1.86-.69,2.85-.11.47-.23.95-.35,1.43-.36,1.45-.75,2.97-1.11,4.43-.16.66-.33,1.32-.49,1.96-.19.76-.37,1.51-.54,2.22-.3,1.29-.57,2.5-.78,3.52-.12.63-.22,1.19-.3,1.68.26-.4.56-.87.87-1.39.5-.84,1.06-1.84,1.65-2.92.4-.72.81-1.49,1.24-2.29Z"/>
          <path class="cls-7" d="m146.39,232.66v8.43h-17.36c1.18-.39,2.27-1.05,3.16-1.94l3.66-3.66,10.54-2.83Z"/>
          <path class="cls-5" d="m143.43,161.45l2.14.82c-.16.63-.32,1.28-.48,1.93-.37,1.46-.75,2.98-1.12,4.43-.12.49-.24.97-.36,1.45l-3.95-1.51-1.87-.72-2.14-.82c.16-.64.32-1.29.48-1.94.37-1.46.75-2.98,1.12-4.43.12-.49.24-.97.36-1.44l3.95,1.51h0s1.87.72,1.87.72Z"/>
          <path class="cls-6" d="m134.03,174.45c.27-.4.56-.87.87-1.4.5-.84,1.07-1.84,1.66-2.92.39-.72.81-1.49,1.23-2.28l1.87.72c-.38.71-.75,1.4-1.11,2.05-.65,1.2-1.27,2.32-1.83,3.26-.57.96-1.08,1.77-1.52,2.38-.47.64-.78,1.09-1.39,1.39-.12.06-.27.11-.44.13-.15.02-.31.02-.46-.03-.22-.05-.43-.18-.57-.33-.13-.13-.21-.28-.27-.42-.09-.2-.12-.39-.15-.59-.05-.47-.01-1.01.07-1.68.06-.51.16-1.09.28-1.75.2-1.09.49-2.4.82-3.82.22-.9.45-1.86.69-2.84.12-.47.24-.95.36-1.43.36-1.46.74-2.97,1.11-4.43.16-.66.33-1.32.48-1.96h.01c.19-.77.37-1.51.54-2.22.3-1.3.57-2.51.78-3.53.12-.62.22-1.18.29-1.67-.26.4-.55.87-.86,1.4-.5.83-1.06,1.83-1.66,2.91-.39.72-.81,1.49-1.23,2.29l-1.87-.72c.38-.71.75-1.41,1.11-2.07.66-1.2,1.28-2.31,1.84-3.25.56-.96,1.07-1.77,1.51-2.38.47-.64.78-1.09,1.39-1.38.13-.06.28-.11.45-.13.14-.02.3-.01.45.03.22.06.42.18.57.33.13.14.21.29.27.42.08.21.12.4.14.59.06.48.02,1.01-.06,1.69-.07.51-.16,1.1-.28,1.75-.21,1.09-.5,2.4-.83,3.82-.21.9-.44,1.85-.68,2.84-.12.47-.24.95-.36,1.44-.37,1.45-.75,2.97-1.12,4.43-.16.65-.32,1.3-.48,1.94-.19.77-.37,1.52-.54,2.24-.31,1.29-.58,2.5-.78,3.52-.12.62-.22,1.18-.3,1.66Z"/>
          <path class="cls-7" d="m135.85,235.49l-3.66,3.66c-.89.89-1.98,1.55-3.16,1.94-.8.26-1.64.4-2.5.4h-14.14c.69,0,1.39-.09,2.07-.27l21.39-5.73Z"/>
          <path class="cls-5" d="m133.6,157.68l2.13.82c-.15.64-.32,1.3-.48,1.96-.37,1.46-.75,2.97-1.11,4.43-.12.48-.24.96-.36,1.43l-3.95-1.52-1.87-.72-2.14-.82c.15-.63.32-1.27.48-1.91.36-1.46.75-2.98,1.11-4.43.12-.5.24-.99.37-1.47l3.95,1.51,1.87.72Z"/>
          <circle class="cls-5" cx="131.39" cy="214.49" r="4.75"/>
          <path class="cls-6" d="m127.96,164.08l1.87.72c-.38.7-.74,1.38-1.09,2.03-.66,1.2-1.28,2.32-1.84,3.27-.57.96-1.08,1.77-1.52,2.38-.47.65-.79,1.1-1.38,1.39-.13.07-.28.12-.46.14-.14.02-.3.02-.46-.02-.22-.06-.42-.19-.57-.34-.13-.13-.21-.28-.27-.42-.09-.2-.12-.39-.15-.58-.05-.48-.01-1.01.07-1.68.06-.51.16-1.09.28-1.75.2-1.09.49-2.4.82-3.82.21-.9.44-1.86.69-2.85.11-.47.23-.94.35-1.42.37-1.45.75-2.97,1.12-4.43.17-.66.33-1.32.49-1.97.18-.76.36-1.5.53-2.21.31-1.3.58-2.5.78-3.53.13-.62.23-1.19.3-1.68-.26.4-.55.87-.86,1.39-.3.5-.62,1.07-.96,1.67l-1.87-.72c.37-.67.72-1.29,1.06-1.85.56-.95,1.06-1.75,1.5-2.35.24-.31.45-.58.66-.8.19-.2.38-.36.63-.5.13-.07.29-.14.49-.17.15-.02.32-.01.49.03.21.06.42.19.56.34.13.13.21.28.27.42.09.2.12.39.14.59.06.48.02,1.02-.07,1.7-.06.51-.16,1.1-.28,1.76-.21,1.09-.49,2.4-.83,3.82-.21.89-.44,1.83-.67,2.81-.13.48-.25.97-.37,1.47-.36,1.45-.75,2.97-1.11,4.43-.16.64-.33,1.28-.48,1.91-.19.78-.38,1.54-.55,2.27-.3,1.29-.57,2.49-.77,3.51-.12.61-.22,1.16-.3,1.64.27-.4.57-.88.89-1.42.5-.84,1.06-1.84,1.65-2.92.39-.72.8-1.47,1.22-2.25h0Z"/>
          <path class="cls-7" d="m129.1,206.82h0c-1.27.37-2.43,1.06-3.38,2.01l-19,19c-3.12,3.13-3.12,8.19,0,11.32,1.52,1.52,3.56,2.34,5.66,2.34h-7.01c-.04-.85-.17-1.69-.39-2.51l-6.13-23.14,30.24-9.02Z"/>
          <polygon class="cls-5" points="126.34 150.61 126.63 151.26 125.38 154.53 122.51 162 121.26 165.27 120.61 165.55 118.07 164.58 116.2 163.86 115.95 163.76 115.37 162.47 116.82 158.68 118.93 153.19 120.38 149.4 121.67 148.82 123.83 149.65 125.7 150.37 126.34 150.61"/>
          <path class="cls-5" d="m125.38,154.53l.53.2c-.16.65-.32,1.31-.49,1.97-.37,1.46-.75,2.98-1.12,4.43-.12.48-.24.95-.35,1.42l-1.44-.55,2.87-7.47Z"/>
          <path class="cls-6" d="m114.37,157.75c.04-.12.07-.25.1-.38.37-1.45.75-2.97,1.12-4.43.08-.32.16-.63.23-.94.28-1.13.55-2.22.79-3.24.31-1.3.58-2.51.78-3.53.13-.63.23-1.19.3-1.68-.26.39-.55.86-.86,1.38-.49.84-1.05,1.83-1.65,2.91-.55,1.01-1.14,2.11-1.74,3.24h0s-1.87-.71-1.87-.71c.33-.62.65-1.22.96-1.81.68-1.26,1.33-2.45,1.92-3.48.6-1.05,1.15-1.97,1.63-2.69.49-.75.9-1.3,1.33-1.69.16-.15.33-.28.57-.38.12-.06.27-.1.43-.11.14,0,.29,0,.44.04.21.06.41.19.55.34.12.13.21.28.26.42.09.21.12.4.15.6.05.49.01,1.05-.08,1.75-.07.51-.17,1.1-.29,1.76-.21,1.1-.5,2.41-.83,3.84-.28,1.17-.59,2.44-.92,3.75-.04.17-.09.35-.13.53-.37,1.45-.75,2.97-1.11,4.42-.07.27-.14.54-.2.8-.3,1.17-.58,2.31-.83,3.37-.3,1.29-.57,2.49-.77,3.5-.11.59-.21,1.12-.28,1.58.28-.42.59-.91.92-1.47.28-.48.59-1.01.91-1.58l1.87.72c-.35.62-.68,1.21-.99,1.74-.57.96-1.08,1.77-1.53,2.38-.46.65-.78,1.1-1.38,1.4-.13.07-.27.12-.45.15-.15.02-.31.01-.47-.03-.22-.06-.42-.19-.57-.33-.13-.14-.21-.29-.27-.42-.09-.21-.12-.4-.15-.59-.05-.47,0-1,.07-1.67.06-.51.16-1.1.28-1.75.2-1.09.49-2.4.82-3.82.28-1.22.61-2.54.94-3.89Z"/>
          <path class="cls-5" d="m118.93,153.19l-2.11,5.49-.57-.22c.06-.26.13-.53.2-.8.36-1.45.74-2.97,1.11-4.42.04-.18.09-.36.13-.53l1.24.48Z"/>
          <circle class="cls-5" cx="112.39" cy="233.49" r="4.75"/>
          <path class="cls-5" d="m115.82,152c-.07.31-.15.62-.23.94-.37,1.46-.75,2.98-1.12,4.43-.03.13-.06.26-.1.38l-3.7-1.43-3.18-1.22,2.1-5.49,1.98.76,1.87.72,2.38.91Z"/>
          <path class="cls-5" d="m112.72,140.04l.29.65-3.42,8.92-2.1,5.49-2.84,7.4c.12-.7.29-1.52.49-2.43.04-.2.09-.41.14-.62l7.44-19.41Z"/>
          <path class="cls-5" d="m112.72,140.04l-7.44,19.41c.22-.99.48-2.09.76-3.23.34-1.41.72-2.91,1.1-4.4.52-1.47,1.04-2.97,1.53-4.36.47-1.35.91-2.63,1.3-3.76.41-1.19.76-2.24,1.03-3.07.14-.43.26-.81.35-1.12l1.37.53Z"/>
          <path class="cls-6" d="m105.28,159.45c-.05.21-.1.42-.14.62-.2.91-.37,1.73-.49,2.43l2.84-7.4,3.18,1.22c-.54,1.03-1.08,2.03-1.58,2.96-.66,1.2-1.28,2.32-1.84,3.27-.57.96-1.08,1.77-1.52,2.38-.47.65-.79,1.1-1.38,1.4-.13.07-.28.12-.46.15-.14.02-.31.01-.47-.03-.22-.05-.42-.18-.57-.33-.13-.14-.21-.28-.27-.42-.09-.21-.12-.39-.14-.59-.04-.35-.03-.73.01-1.17.01-.16.03-.32.05-.5.06-.51.15-1.09.28-1.74.2-1.09.49-2.4.82-3.82.31-1.33.67-2.79,1.04-4.27.21-.83.42-1.67.63-2.51.5-1.42,1.01-2.87,1.48-4.23.47-1.32.91-2.59,1.29-3.71.39-1.12.72-2.12.98-2.91.19-.59.35-1.09.46-1.46l-.28-.1c.09-.2.17-.38.25-.52.09-.18.16-.32.25-.46.04-.05.07-.1.13-.17.04-.05.09-.1.17-.16.04-.03.09-.07.15-.1.08-.04.18-.07.28-.09.09-.02.2-.03.3-.02.11.01.23.04.33.09s.2.12.28.2c.08.07.14.16.19.25.04.09.07.17.09.25,0,.07.02.13.02.18.01.06,0,.11,0,.15,0,.09-.01.15-.02.22-.04.19-.09.39-.17.67-.03.1-.06.21-.1.33-.09.31-.21.69-.35,1.12-.27.83-.62,1.88-1.03,3.07-.39,1.13-.83,2.41-1.3,3.76-.49,1.39-1.01,2.89-1.53,4.36-.38,1.49-.76,2.99-1.1,4.4-.28,1.14-.54,2.24-.76,3.23Z"/>
          <polygon class="cls-5" points="108.96 134.5 109.6 135.63 108.53 138.43 108.52 138.43 99.22 162.71 98.14 165.51 96.91 165.92 93.18 164.49 92.54 163.36 97.21 151.17 99.32 145.67 103.99 133.48 105.22 133.07 108.96 134.5"/>
          <path class="cls-5" d="m109.2,138.69l.28.1c-.11.37-.27.87-.46,1.46-.26.79-.59,1.79-.98,2.91-.38,1.12-.82,2.39-1.29,3.71-.47,1.36-.98,2.81-1.48,4.23-.21.84-.42,1.68-.63,2.51-.37,1.48-.73,2.94-1.04,4.27-.33,1.42-.62,2.73-.82,3.82-.13.65-.22,1.23-.28,1.74-.02.18-.04.34-.05.5h-.01l-3.22-1.23,9.3-24.28h.01l.67.26Z"/>
          <path class="cls-5" d="m105.39,242.05v4.44H8.39v-5.25c0-.5.03-1,.09-1.5l2.52-20c.37-2.97,1.69-5.74,3.76-7.91l-1.58,7.04c-1.45,6.46,2.62,12.88,9.09,14.33,6.46,1.45,12.88-2.62,14.33-9.09l1.81-8.06,1.61,2.07.02.02,2.12,2.71c1.76,2.25,4.58,3.39,7.41,3l12.93-1.82c.69-.09,1.35-.28,1.97-.54,2.03-.85,3.65-2.51,4.43-4.63l.39-1.07,3.72-10.12c.25-.68.65-1.31,1.17-1.82l7.19-7.16c1-.99,2.24-1.7,3.59-2.06,4.28-1.13,8.65,1.42,9.79,5.69l4.11,15.52,6.13,23.14c.22.82.35,1.66.39,2.51.01.19.01.37.01.56Zm-10.11-20.08c1.03-1.94.94-4.28-.22-6.14.85-2.02.56-4.34-.76-6.09.67-2.09.18-4.38-1.29-6.01.75-3.31-1.32-6.61-4.63-7.36-3.31-.76-6.61,1.32-7.36,4.63-.45,1.95.09,4,1.43,5.49-.41,1.77-.01,3.62,1.09,5.07-.56,1.73-.32,3.61.64,5.15-.71,1.67-.64,3.57.19,5.18-.85,1.61-.94,3.51-.26,5.19-.99,1.52-1.25,3.4-.71,5.14-.82,1.04-1.3,2.35-1.3,3.77,0,3.4,2.76,6.15,6.15,6.15s6.15-2.75,6.15-6.15c0-.63-.09-1.24-.27-1.81,1.35-1.73,1.67-4.05.84-6.08,1.19-1.84,1.31-4.18.31-6.13Z"/>
          <polygon class="cls-5" points="99.32 145.67 97.21 151.17 89.47 148.2 91.57 142.7 99.32 145.67"/>
          <path class="cls-2" d="m95.06,215.83c1.16,1.86,1.25,4.2.22,6.14,1,1.95.88,4.29-.31,6.13.83,2.03.51,4.35-.84,6.08-.77-2.52-3.11-4.34-5.88-4.34-1.97,0-3.73.93-4.85,2.38-.54-1.74-.28-3.62.71-5.14-.68-1.68-.59-3.58.26-5.19-.83-1.61-.9-3.51-.19-5.18-.96-1.54-1.2-3.42-.64-5.15-1.1-1.45-1.5-3.3-1.09-5.07-1.34-1.49-1.88-3.54-1.43-5.49.75-3.31,4.05-5.39,7.36-4.63,3.31.75,5.38,4.05,4.63,7.36,1.47,1.63,1.96,3.92,1.29,6.01,1.32,1.75,1.61,4.07.76,6.09Z"/>
          <path class="cls-6" d="m94.13,234.18c.18.57.27,1.18.27,1.81,0,3.4-2.75,6.15-6.15,6.15s-6.15-2.75-6.15-6.15c0-1.42.48-2.73,1.3-3.77,1.12-1.45,2.88-2.38,4.85-2.38,2.77,0,5.11,1.82,5.88,4.34Zm-3.38,1.81c0-1.38-1.12-2.5-2.5-2.5s-2.5,1.12-2.5,2.5,1.12,2.5,2.5,2.5,2.5-1.12,2.5-2.5Z"/>
          <polygon class="cls-6" points="92.17 139.9 92.31 140.78 91.57 142.7 89.47 148.2 89.46 148.2 88.73 150.12 88.03 150.68 85.88 149.85 85.74 148.97 89.32 139.63 90.01 139.07 92.17 139.9"/>
          <circle class="cls-6" cx="88.25" cy="235.99" r="2.5"/>
          <polygon class="cls-6" points="89.86 138.23 89.32 139.63 85.74 148.97 85.2 150.37 80.53 148.58 79.67 146.65 68 142.17 63.1 142.9 69.61 130.46 71.58 132.83 83.25 137.31 85.19 136.44 89.86 138.23"/>
          <path class="cls-7" d="m82.24,75.97c.04,1.39-.27,2.77-.9,4.02l-.1-3.85-.6-25.14c-.07-3.25-2.23-6.08-5.35-7.01l-5.34-1.59c-.83-.25-1.72.06-2.22.77l-1.99,2.89c-.54.78-.95,1.64-1.22,2.54l-2.59,8.7c-.38-.98-1.03-1.84-1.88-2.47l-.48-.14,4.51-15.09,11.5,3.43c3.53,1.06,5.98,4.26,6.06,7.94l.6,25Z"/>
          <path class="cls-7" d="m81.89,102.95c.06,2.54-.53,5.06-1.71,7.32l-10.57,20.19-6.51,12.44-13.79,26.34c-.48.93-.85,1.92-1.07,2.94l-9.67,43.12-.16.75-1.81,8.06c-1.45,6.47-7.87,10.54-14.33,9.09-6.47-1.45-10.54-7.87-9.09-14.33l1.58-7.04,10.75-47.98c.23-1.02.59-2.01,1.07-2.94l29.82-56.96c1.57-3,2.35-6.36,2.27-9.75l-.3-12.47-.16-6.57,1.53-.04c0,2.15,1.1,4.23,3.09,5.4,1.15.68,2.5.97,3.83.82,1.45.86,3.18,1.09,4.8.65.71.28,1.47.43,2.28.43,3.46,0,6.25-2.8,6.25-6.25l1.25-.03.1,3.85.55,22.96Zm-14.14,25.68c2.75-1.99,3.37-5.83,1.39-8.58-1.99-2.76-5.83-3.38-8.59-1.39-1.57,1.13-2.51,2.93-2.55,4.87-1.57,1.13-2.51,2.94-2.55,4.87h0c-1.51,1.09-2.51,2.86-2.54,4.87h-.01c-1.57,1.14-2.52,2.94-2.55,4.88-2.76,1.98-3.38,5.83-1.39,8.58,1.99,2.76,5.83,3.38,8.59,1.39,1.57-1.13,2.51-2.94,2.55-4.87,1.57-1.13,2.51-2.94,2.55-4.88,1.52-1.09,2.51-2.87,2.55-4.87,1.57-1.13,2.51-2.93,2.55-4.87Zm-38.86,92.86c0-2.21-1.79-4-4-4s-4,1.79-4,4,1.79,4,4,4,4-1.79,4-4Z"/>
          <path class="cls-7" d="m80.64,51l.6,25.14-1.25.03c0-3.45-2.79-6.25-6.25-6.25-.57,0-1.11.07-1.63.22-.94-.37-1.95-.51-2.95-.4-2.98-1.75-6.81-.75-8.56,2.23-.58.99-.86,2.08-.86,3.15l-1.53.04-.1-4.25c-.01-.52.06-1.04.21-1.55l1.65-5.5h0c.14-.1.28-.21.41-.32l1.72-5.75c-.05-.17-.1-.33-.16-.49l2.59-8.7c.27-.9.68-1.76,1.22-2.54l1.99-2.89c.5-.71,1.39-1.02,2.22-.77l5.34,1.59c3.12.93,5.28,3.76,5.35,7.01Zm-1.24.18c0-3.46-2.8-6.25-6.25-6.25s-6.25,2.79-6.25,6.25,2.79,6.25,6.25,6.25,6.25-2.8,6.25-6.25Z"/>
          <path class="cls-6" d="m73.74,69.92c3.46,0,6.25,2.8,6.25,6.25s-2.79,6.25-6.25,6.25c-.81,0-1.57-.15-2.28-.43-2.32-.91-3.97-3.17-3.97-5.82,0-2.89,1.96-5.32,4.62-6.03.52-.15,1.06-.22,1.63-.22Zm2.5,6.25c0-1.38-1.11-2.5-2.5-2.5s-2.5,1.12-2.5,2.5,1.12,2.5,2.5,2.5,2.5-1.12,2.5-2.5Z"/>
          <path class="cls-6" d="m73.15,44.93c3.45,0,6.25,2.79,6.25,6.25s-2.8,6.25-6.25,6.25-6.25-2.8-6.25-6.25,2.79-6.25,6.25-6.25Zm2.5,6.25c0-1.38-1.12-2.5-2.5-2.5s-2.5,1.12-2.5,2.5,1.12,2.5,2.5,2.5,2.5-1.12,2.5-2.5Z"/>
          <circle class="cls-6" cx="73.74" cy="76.17" r="2.5"/>
          <circle class="cls-6" cx="73.15" cy="51.18" r="2.5"/>
          <path class="cls-2" d="m69.16,69.74c1-.11,2.01.03,2.95.4-2.66.71-4.62,3.14-4.62,6.03,0,2.65,1.65,4.91,3.97,5.82-1.62.44-3.35.21-4.8-.65-1.33.15-2.68-.14-3.83-.82-1.99-1.17-3.09-3.25-3.09-5.4,0-1.07.28-2.16.86-3.15,1.75-2.98,5.58-3.98,8.56-2.23Z"/>
          <path class="cls-2" d="m69.14,120.05c1.98,2.75,1.36,6.59-1.39,8.58-.04,1.94-.98,3.74-2.55,4.87v-.11c0-3.4-2.75-6.15-6.15-6.15-1.34,0-2.59.43-3.6,1.17h0c.04-1.94.98-3.75,2.55-4.88.04-1.94.98-3.74,2.55-4.87,2.76-1.99,6.6-1.37,8.59,1.39Z"/>
          <path class="cls-5" d="m69.29,215.79l-.39,1.07c-.78,2.12-2.4,3.78-4.43,4.63h-13.86c-1.99,0-3.94-.42-5.72-1.22v-4.48h24.4Z"/>
          <path class="cls-6" d="m65.2,133.39v.11c-.04,2-1.03,3.78-2.55,4.87-1.01.74-2.26,1.17-3.6,1.17-3.4,0-6.15-2.76-6.15-6.15,0-.04,0-.08.01-.12.03-2.01,1.03-3.78,2.54-4.86,1.01-.74,2.26-1.17,3.6-1.17,3.4,0,6.15,2.75,6.15,6.15Zm-3.65,0c0-1.38-1.12-2.5-2.5-2.5s-2.5,1.12-2.5,2.5,1.12,2.5,2.5,2.5,2.5-1.12,2.5-2.5Z"/>
          <path class="cls-7" d="m40.04,218.14l-.02-.02-1.61-2.07.16-.75,2.24,2.19c1.19,1.17,2.58,2.11,4.08,2.78,1.78.8,3.73,1.22,5.72,1.22h13.86c-.62.26-1.28.45-1.97.54l-12.93,1.82c-2.83.39-5.65-.75-7.41-3l-2.12-2.71Z"/>
          <polygon class="cls-7" points="64.08 39.6 59.57 54.69 56.57 64.75 52.06 79.84 47.27 78.41 59.29 38.17 64.08 39.6"/>
          <polygon class="cls-7" points="56.69 25.91 61.48 27.34 62.15 28.59 59.29 38.17 47.27 78.41 44.41 87.99 43.16 88.66 38.38 87.23 12.62 173.47 12 173.81 9.6 173.09 8.26 170.6 51.9 24.48 56.69 25.91"/>
          <path class="cls-2" d="m62.65,138.37c-.04,1.94-.98,3.75-2.55,4.88-.04,1.93-.98,3.74-2.55,4.87-2.76,1.99-6.6,1.37-8.59-1.39-1.99-2.75-1.37-6.6,1.39-8.58.03-1.94.98-3.74,2.55-4.88h.01s-.01.08-.01.12c0,3.39,2.75,6.15,6.15,6.15,1.34,0,2.59-.43,3.6-1.17Z"/>
          <path class="cls-4" d="m62.09,57.79l-1.72,5.75c-.13.11-.27.22-.41.31-.85.62-1.86.98-2.92,1.04l-.47-.14,3-10.06.48.14c.85.63,1.5,1.49,1.88,2.47.06.16.11.32.16.49Z"/>
          <polygon class="cls-7" points="60.64 10.92 60.98 11.54 56.69 25.91 51.9 24.48 55.76 11.54 58.25 10.2 60.64 10.92"/>
          <circle class="cls-6" cx="59.05" cy="133.39" r="2.5"/>
          <path class="cls-7" d="m59.97,63.86l-1.65,5.5c-.15.51-.22,1.03-.21,1.55l.1,4.25.16,6.57-6.31-1.89,4.51-15.09.47.14c1.06-.06,2.07-.42,2.92-1.04h0Z"/>
          <circle class="cls-5" cx="24.89" cy="221.49" r="4"/>
        </g>
        <g>
          <circle class="cls-1" cx="212.65" cy="192.27" r="5"/>
          <path class="cls-1" d="m80.18,110.27c1.18-2.26,1.77-4.78,1.71-7.32"/>
          <line class="cls-1" x1="215.11" y1="208.2" x2="193.15" y2="217.99"/>
          <line class="cls-1" x1="43.16" y1="88.66" x2="44.41" y2="87.99"/>
          <line class="cls-1" x1="189.93" y1="216.76" x2="193.15" y2="217.99"/>
          <polygon class="cls-1" points="8.39 246.49 5.89 246.49 2.89 249.49 2.89 253.99 3.39 254.49 215.89 254.49 216.39 253.99 216.39 247.09 215.79 246.49 105.39 246.49 8.39 246.49"/>
          <polyline class="cls-1" points="55.38 30.3 56.69 25.91 60.98 11.54"/>
          <line class="cls-1" x1="61.48" y1="27.34" x2="56.69" y2="25.91"/>
          <path class="cls-1" d="m155.57,182.75c-.03.06-.07.1-.1.15-.5.78-.93,1.37-1.35,1.79-.18.19-.36.35-.61.47-.13.07-.29.14-.48.16-.15.02-.31.01-.47-.03-.22-.06-.42-.19-.56-.34-.13-.13-.22-.28-.27-.42-.09-.21-.13-.4-.15-.59-.05-.49-.01-1.03.07-1.72.07-.51.17-1.1.29-1.75.21-1.1.49-2.41.83-3.83.21-.88.43-1.82.67-2.79.12-.49.25-.98.37-1.48.36-1.46.75-2.97,1.11-4.43.16-.64.32-1.28.48-1.9.19-.79.38-1.55.55-2.28.3-1.29.57-2.49.77-3.51.12-.61.22-1.16.29-1.63"/>
          <polyline class="cls-1" points="147.44 162.98 151.39 164.5 153.26 165.22 155.4 166.04"/>
          <line class="cls-1" x1="153.93" y1="202.96" x2="157.18" y2="204.2"/>
          <line class="cls-1" x1="164.45" y1="159.87" x2="164.71" y2="159.97"/>
          <line class="cls-1" x1="60.64" y1="10.92" x2="58.25" y2="10.2"/>
          <polyline class="cls-1" points="58.11 70.91 58.21 75.16 58.37 81.73 58.67 94.2"/>
          <line class="cls-1" x1="82.24" y1="75.97" x2="81.64" y2="50.97"/>
          <line class="cls-1" x1="75.29" y1="43.99" x2="69.95" y2="42.4"/>
          <path class="cls-1" d="m157.01,158.62c-.26.41-.56.89-.89,1.43-.5.84-1.06,1.84-1.65,2.93-.39.71-.8,1.46-1.21,2.23"/>
          <path class="cls-1" d="m60.37,63.54c-.13.11-.27.22-.41.31-.85.62-1.86.98-2.92,1.04"/>
          <path class="cls-1" d="m163.88,203.61l12.51-1.09,32.16-17.7c3.93-2.17,8.87-.9,11.28,2.89.93,1.47,1.36,3.12,1.31,4.74-.04,1.95-.75,3.85-2.05,5.36-.53.62-1.16,1.17-1.88,1.63l-27.28,17.32-11.54,7.33-32,8.57-10.54,2.83-21.39,5.73c-.68.18-1.38.27-2.07.27-2.1,0-4.14-.82-5.66-2.34-3.12-3.13-3.12-8.19,0-11.32l19-19c.95-.95,2.11-1.64,3.38-2.01.51-.15,1.04-.25,1.58-.3l26.49-2.32,6.7-.58"/>
          <line class="cls-1" x1="59.97" y1="63.86" x2="58.32" y2="69.36"/>
          <polyline class="cls-1" points="75.58 43.03 64.08 39.6 59.29 38.17"/>
          <line class="cls-1" x1="60.98" y1="11.54" x2="60.64" y2="10.92"/>
          <polyline class="cls-1" points="159.71 180.61 167.26 160.94 168.15 158.61"/>
          <line class="cls-1" x1="157.31" y1="186.89" x2="159.66" y2="180.76"/>
          <line class="cls-1" x1="157.05" y1="187.55" x2="157.3" y2="186.89"/>
          <line class="cls-1" x1="57.04" y1="64.89" x2="56.57" y2="64.75"/>
          <line class="cls-1" x1="62.09" y1="57.79" x2="60.37" y2="63.54"/>
          <line class="cls-1" x1="61.48" y1="27.34" x2="62.15" y2="28.59"/>
          <path class="cls-1" d="m69.95,42.4c-.83-.25-1.72.06-2.22.77"/>
          <path class="cls-1" d="m151.39,164.5c.37-.7.74-1.38,1.09-2.02.65-1.21,1.28-2.32,1.83-3.27.57-.96,1.08-1.77,1.53-2.39.46-.64.78-1.09,1.38-1.39.13-.07.27-.12.45-.14.14-.02.31-.02.47.02.22.06.42.19.56.34.13.13.22.28.28.42.08.2.12.39.14.58.06.48.02,1.01-.06,1.68-.06.5-.16,1.09-.28,1.74-.2,1.09-.49,2.4-.82,3.82-.21.9-.44,1.87-.69,2.86l-.36,1.41c-.36,1.46-.74,2.97-1.11,4.43-.17.67-.33,1.33-.49,1.98-.19.76-.37,1.5-.54,2.21-.3,1.29-.57,2.5-.78,3.53-.12.62-.22,1.19-.3,1.68"/>
          <line class="cls-1" x1="187.47" y1="164.41" x2="187.47" y2="164.4"/>
          <polyline class="cls-1" points="180 161.55 168.37 191.91 163.88 203.61 163.88 203.62"/>
          <path class="cls-1" d="m58.32,69.36c-.15.51-.22,1.03-.21,1.55"/>
          <polyline class="cls-1" points="47.27 78.41 52.06 79.84 58.37 81.73"/>
          <line class="cls-1" x1="58.25" y1="10.2" x2="55.76" y2="11.54"/>
          <line class="cls-1" x1="64.52" y1="48.6" x2="61.93" y2="57.3"/>
          <line class="cls-1" x1="186.85" y1="163.25" x2="187.47" y2="164.4"/>
          <line class="cls-1" x1="60.05" y1="54.83" x2="59.57" y2="54.69"/>
          <polyline class="cls-1" points="105.26 159.5 105.28 159.45 112.72 140.04"/>
          <circle class="cls-1" cx="73.15" cy="51.18" r="2.5"/>
          <path class="cls-1" d="m157.31,186.89h-.01c-.1.03-.2.04-.31.04s-.23-.02-.34-.07c-.11-.04-.21-.1-.29-.17-.09-.07-.16-.16-.21-.25-.06-.08-.09-.17-.11-.25-.03-.08-.04-.14-.04-.2-.01-.06-.01-.11,0-.15,0-.08.01-.14.01-.19.03-.17.07-.32.12-.52.04-.16.09-.34.16-.55.05-.18.12-.39.19-.62.24-.76.58-1.77.98-2.95.37-1.08.8-2.32,1.26-3.64.45-1.3.94-2.71,1.44-4.12.49-1.4,1-2.84,1.47-4.2.48-1.36.94-2.68,1.35-3.87.41-1.18.77-2.25,1.07-3.14.29-.87.52-1.58.66-2.07h0c.07-.24.12-.43.15-.54.01-.05.02-.09.02-.11"/>
          <path class="cls-1" d="m129.83,164.8c-.38.7-.74,1.38-1.09,2.03-.66,1.2-1.28,2.32-1.84,3.27-.57.96-1.08,1.77-1.52,2.38-.47.65-.79,1.1-1.38,1.39-.13.07-.28.12-.46.14-.14.02-.3.02-.46-.02-.22-.06-.42-.19-.57-.34-.13-.13-.21-.28-.27-.42-.09-.2-.12-.39-.15-.58-.05-.48-.01-1.01.07-1.68.06-.51.16-1.09.28-1.75.2-1.09.49-2.4.82-3.82.21-.9.44-1.86.69-2.85.11-.47.23-.94.35-1.42.37-1.45.75-2.97,1.12-4.43.17-.66.33-1.32.49-1.97.18-.76.36-1.5.53-2.21.31-1.3.58-2.5.78-3.53.13-.62.23-1.19.3-1.68"/>
          <path class="cls-1" d="m131.73,156.96c.38-.71.75-1.41,1.11-2.07.66-1.2,1.28-2.31,1.84-3.25.56-.96,1.07-1.77,1.51-2.38.47-.64.78-1.09,1.39-1.38.13-.06.28-.11.45-.13.14-.02.3-.01.45.03.22.06.42.18.57.33.13.14.21.29.27.42.08.21.12.4.14.59.06.48.02,1.01-.06,1.69-.07.51-.16,1.1-.28,1.75-.21,1.09-.5,2.4-.83,3.82-.21.9-.44,1.85-.68,2.84-.12.47-.24.95-.36,1.44-.37,1.45-.75,2.97-1.12,4.43-.16.65-.32,1.3-.48,1.94-.19.77-.37,1.52-.54,2.24-.31,1.29-.58,2.5-.78,3.52-.12.62-.22,1.18-.3,1.66v.03"/>
          <path class="cls-1" d="m123.83,149.65c.37-.67.72-1.29,1.06-1.85.56-.95,1.06-1.75,1.5-2.35.24-.31.45-.58.66-.8.19-.2.38-.36.63-.5.13-.07.29-.14.49-.17.15-.02.32-.01.49.03.21.06.42.19.56.34.13.13.21.28.27.42.09.2.12.39.14.59.06.48.02,1.02-.07,1.7-.06.51-.16,1.1-.28,1.76-.21,1.09-.49,2.4-.83,3.82-.21.89-.44,1.83-.67,2.81-.13.48-.25.97-.37,1.47-.36,1.45-.75,2.97-1.11,4.43-.16.64-.33,1.28-.48,1.91-.19.78-.38,1.54-.55,2.27-.3,1.29-.57,2.49-.77,3.51-.12.61-.22,1.16-.3,1.64"/>
          <polyline class="cls-1" points="113.01 140.69 109.59 149.61 107.49 155.1 104.65 162.5"/>
          <path class="cls-1" d="m111.57,150.37c.33-.62.65-1.22.96-1.81.68-1.26,1.33-2.45,1.92-3.48.6-1.05,1.15-1.97,1.63-2.69.49-.75.9-1.3,1.33-1.69.16-.15.33-.28.57-.38.12-.06.27-.1.43-.11.14,0,.29,0,.44.04.21.06.41.19.55.34.12.13.21.28.26.42.09.21.12.4.15.6.05.49.01,1.05-.08,1.75-.07.51-.17,1.1-.29,1.76-.21,1.1-.5,2.41-.83,3.84-.28,1.17-.59,2.44-.92,3.75-.04.17-.09.35-.13.53-.37,1.45-.75,2.97-1.11,4.42-.07.27-.14.54-.2.8-.3,1.17-.58,2.31-.83,3.37-.3,1.29-.57,2.49-.77,3.5-.11.59-.21,1.12-.28,1.58"/>
          <path class="cls-1" d="m79.99,76.17c0-3.45-2.79-6.25-6.25-6.25-.57,0-1.11.07-1.63.22-2.66.71-4.62,3.14-4.62,6.03,0,2.65,1.65,4.91,3.97,5.82.71.28,1.47.43,2.28.43,3.46,0,6.25-2.8,6.25-6.25Z"/>
          <polygon class="cls-1" points="125.7 150.37 126.34 150.61 126.63 151.26 125.38 154.53 122.51 162 121.26 165.27 120.61 165.55 118.07 164.58 116.2 163.86 115.95 163.76 115.37 162.47 116.82 158.68 118.93 153.19 120.38 149.4 121.67 148.82 123.83 149.65 125.7 150.37"/>
          <path class="cls-1" d="m137.35,151.08c-.26.4-.55.87-.86,1.4-.5.83-1.06,1.83-1.66,2.91-.39.72-.81,1.49-1.23,2.29"/>
          <polyline class="cls-1" points="108.53 138.43 109.6 135.63 108.96 134.5 105.22 133.07 103.99 133.48 99.32 145.67 97.21 151.17 92.54 163.36 93.18 164.49 96.91 165.92 98.14 165.51 99.22 162.71 108.52 138.43"/>
          <path class="cls-1" d="m110.67,156.32c-.54,1.03-1.08,2.03-1.58,2.96-.66,1.2-1.28,2.32-1.84,3.27-.57.96-1.08,1.77-1.52,2.38-.47.65-.79,1.1-1.38,1.4-.13.07-.28.12-.46.15-.14.02-.31.01-.47-.03-.22-.05-.42-.18-.57-.33-.13-.14-.21-.28-.27-.42-.09-.21-.12-.39-.14-.59-.04-.35-.03-.73.01-1.17.01-.16.03-.32.05-.5.06-.51.15-1.09.28-1.74.2-1.09.49-2.4.82-3.82.31-1.33.67-2.79,1.04-4.27.21-.83.42-1.67.63-2.51"/>
          <path class="cls-1" d="m141.56,160.73c.37-.7.74-1.39,1.1-2.04.65-1.2,1.28-2.32,1.83-3.26.57-.96,1.08-1.77,1.52-2.38.47-.65.79-1.1,1.39-1.4.12-.06.27-.11.45-.13.14-.02.3-.02.46.03.22.05.42.18.56.33.13.13.22.28.28.42.08.2.12.39.14.59.06.47.02,1-.06,1.68-.06.5-.16,1.09-.28,1.74-.21,1.09-.49,2.4-.83,3.82-.21.9-.44,1.86-.69,2.85-.11.47-.23.95-.35,1.43-.36,1.45-.75,2.97-1.11,4.43-.16.66-.33,1.32-.49,1.96-.19.76-.37,1.51-.54,2.22-.3,1.29-.57,2.5-.78,3.52-.12.63-.22,1.19-.3,1.68"/>
          <polyline class="cls-1" points="155.15 184.15 155.63 182.89 163.97 161.13 164.45 159.87"/>
          <path class="cls-1" d="m163.82,161.2s.01-.02.01-.02c.35-.79.63-1.4.83-1.81.1-.19.18-.33.27-.48.03-.05.07-.1.13-.17.04-.05.09-.11.18-.17.04-.04.1-.07.16-.1.08-.04.17-.08.27-.1.1-.01.21-.02.31-.01.11.02.23.05.33.1s.19.12.27.2.14.17.19.26c.04.08.06.17.08.24s.02.13.02.18c.01.06.01.11,0,.15,0,.09-.01.16-.03.23-.03.2-.09.42-.18.72-.02.08-.05.17-.08.26-.1.32-.22.72-.36,1.17-.27.83-.63,1.88-1.04,3.07-.38,1.13-.83,2.42-1.3,3.76s-.97,2.76-1.46,4.17-1,2.83-1.46,4.17c-.45,1.27-.87,2.5-1.25,3.59-.02.05-.03.1-.05.15"/>
          <circle class="cls-1" cx="73.74" cy="76.17" r="2.5"/>
          <path class="cls-1" d="m66.66,81.34c-1.33.15-2.68-.14-3.83-.82-1.99-1.17-3.09-3.25-3.09-5.4,0-1.07.28-2.16.86-3.15,1.75-2.98,5.58-3.98,8.56-2.23"/>
          <polyline class="cls-1" points="158 175.6 160.86 168.13 163.45 161.36"/>
          <line class="cls-1" x1="155.4" y1="182.37" x2="157.99" y2="175.6"/>
          <path class="cls-1" d="m65.74,46.06c-.54.78-.95,1.64-1.22,2.54"/>
          <line class="cls-1" x1="169.82" y1="158.71" x2="171.11" y2="158.14"/>
          <path class="cls-1" d="m107.14,151.82c-.38,1.49-.76,2.99-1.1,4.4-.28,1.14-.54,2.24-.76,3.23-.05.21-.1.42-.14.62-.2.91-.37,1.73-.49,2.43"/>
          <line class="cls-1" x1="187.47" y1="164.41" x2="175.83" y2="194.77"/>
          <path class="cls-1" d="m135.74,158.5c.19-.77.37-1.51.54-2.22.3-1.3.57-2.51.78-3.53.12-.62.22-1.18.29-1.67"/>
          <path class="cls-1" d="m139.66,168.57c-.38.71-.75,1.4-1.11,2.05-.65,1.2-1.27,2.32-1.83,3.26-.57.96-1.08,1.77-1.52,2.38-.47.64-.78,1.09-1.39,1.39-.12.06-.27.11-.44.13-.15.02-.31.02-.46-.03-.22-.05-.43-.18-.57-.33-.13-.13-.21-.28-.27-.42-.09-.2-.12-.39-.15-.59-.05-.47-.01-1.01.07-1.68.06-.51.16-1.09.28-1.75.2-1.09.49-2.4.82-3.82.22-.9.45-1.86.69-2.84.12-.47.24-.95.36-1.43.36-1.46.74-2.97,1.11-4.43.16-.66.33-1.32.48-1.96"/>
          <line class="cls-1" x1="117.69" y1="152.71" x2="118.93" y2="153.19"/>
          <line class="cls-1" x1="168.15" y1="158.61" x2="169.64" y2="159.18"/>
          <polyline class="cls-1" points="81.89 102.95 81.34 79.99 81.24 76.14 80.64 51"/>
          <line class="cls-1" x1="186.85" y1="163.25" x2="181.25" y2="161.1"/>
          <polyline class="cls-1" points="163.45 161.36 163.82 161.2 163.97 161.13"/>
          <line class="cls-1" x1="180" y1="161.55" x2="171.11" y2="158.14"/>
          <polyline class="cls-1" points="175.83 194.77 168.37 191.91 168.36 191.91"/>
          <line class="cls-1" x1="166.58" y1="160.68" x2="167.26" y2="160.94"/>
          <line class="cls-1" x1="157.27" y1="166.75" x2="160.86" y2="168.13"/>
          <polyline class="cls-1" points="62.15 28.59 59.29 38.17 47.27 78.41 44.41 87.99"/>
          <path class="cls-1" d="m81.64,50.97c-.08-3.68-2.53-6.88-6.06-7.94"/>
          <path class="cls-1" d="m153.69,181.99c.26-.4.55-.87.86-1.39.38-.62.78-1.34,1.21-2.11.17-.29.33-.59.49-.88.12-.22.24-.43.36-.64.13-.23.25-.46.38-.69.16-.29.33-.58.49-.88"/>
          <polyline class="cls-1" points="153.36 201.67 158.55 188.13 169.64 159.18 169.82 158.71"/>
          <polyline class="cls-1" points="180 161.55 180.01 161.54 181.25 161.1"/>
          <polyline class="cls-1" points="155.31 174.57 157.48 175.4 157.99 175.6 158 175.6"/>
          <path class="cls-1" d="m81.34,79.99c.63-1.25.94-2.63.9-4.02"/>
          <path class="cls-1" d="m71.46,81.99c-1.62.44-3.35.21-4.8-.65"/>
          <polyline class="cls-1" points="155.4 182.37 155.57 182.74 155.57 182.75 155.63 182.89"/>
          <line class="cls-1" x1="157.05" y1="187.55" x2="158.55" y2="188.13"/>
          <line class="cls-1" x1="155.15" y1="184.15" x2="156.29" y2="184.58"/>
          <path class="cls-1" d="m69.16,69.74c1-.11,2.01.03,2.95.4"/>
          <line class="cls-1" x1="67.73" y1="43.17" x2="65.74" y2="46.06"/>
          <path class="cls-1" d="m60.05,54.83c.85.63,1.5,1.49,1.88,2.47.06.16.11.32.16.49"/>
          <line class="cls-1" x1="226.81" y1="208.4" x2="233.97" y2="189.73"/>
          <path class="cls-1" d="m56.4,103.95c1.57-3,2.35-6.36,2.27-9.75"/>
          <line class="cls-1" x1="233.97" y1="189.73" x2="232.82" y2="187.15"/>
          <line class="cls-1" x1="74.18" y1="203.85" x2="81.37" y2="196.69"/>
          <path class="cls-1" d="m62.5,222.03c.69-.09,1.35-.28,1.97-.54,2.03-.85,3.65-2.51,4.43-4.63"/>
          <polyline class="cls-1" points="25.51 163.85 14.76 211.83 13.18 218.87"/>
          <line class="cls-1" x1="88.73" y1="150.12" x2="88.03" y2="150.68"/>
          <path class="cls-1" d="m81.37,196.69c1-.99,2.24-1.7,3.59-2.06,4.28-1.13,8.65,1.42,9.79,5.69"/>
          <path class="cls-1" d="m67.75,128.63c-.04,1.94-.98,3.74-2.55,4.87"/>
          <polyline class="cls-1" points="94.75 200.32 98.86 215.84 104.99 238.98"/>
          <path class="cls-1" d="m83.4,232.22c-.82,1.04-1.3,2.35-1.3,3.77,0,3.4,2.76,6.15,6.15,6.15s6.15-2.75,6.15-6.15c0-.63-.09-1.24-.27-1.81-.77-2.52-3.11-4.34-5.88-4.34-1.97,0-3.73.93-4.85,2.38Z"/>
          <circle class="cls-1" cx="131.39" cy="214.49" r="4.75"/>
          <path class="cls-1" d="m94.13,234.18c1.35-1.73,1.67-4.05.84-6.08"/>
          <line class="cls-1" x1="89.32" y1="139.63" x2="90.01" y2="139.07"/>
          <line class="cls-1" x1="68" y1="142.17" x2="79.67" y2="146.65"/>
          <line class="cls-1" x1="116.25" y1="158.46" x2="116.82" y2="158.68"/>
          <polyline class="cls-1" points="89.86 138.23 89.32 139.63 85.74 148.97 85.2 150.37"/>
          <line class="cls-1" x1="146.39" y1="241.09" x2="146.39" y2="232.66"/>
          <path class="cls-1" d="m94.97,228.1c1.19-1.84,1.31-4.18.31-6.13"/>
          <line class="cls-1" x1="40.04" y1="218.14" x2="42.16" y2="220.85"/>
          <line class="cls-1" x1="38.41" y1="216.05" x2="40.02" y2="218.12"/>
          <path class="cls-1" d="m62.65,138.37c-.04,1.94-.98,3.75-2.55,4.88"/>
          <line class="cls-1" x1="92.17" y1="139.9" x2="90.01" y2="139.07"/>
          <line class="cls-1" x1="105.39" y1="242.05" x2="105.39" y2="246.49"/>
          <polyline class="cls-1" points="125.82 163.26 127.96 164.08 129.83 164.8 133.78 166.32"/>
          <path class="cls-1" d="m104.99,238.98c.22.82.35,1.66.39,2.51.01.19.01.37.01.56"/>
          <path class="cls-1" d="m49.31,169.24c-.48.93-.85,1.92-1.07,2.94"/>
          <line class="cls-1" x1="88.03" y1="150.68" x2="85.88" y2="149.85"/>
          <line class="cls-1" x1="71.58" y1="132.83" x2="69.61" y2="130.46"/>
          <line class="cls-1" x1="9.6" y1="173.09" x2="12" y2="173.81"/>
          <polyline class="cls-1" points="89.47 148.2 91.57 142.7 92.31 140.78"/>
          <line class="cls-1" x1="88.73" y1="150.12" x2="89.46" y2="148.2"/>
          <path class="cls-1" d="m40.81,217.49c1.19,1.17,2.58,2.11,4.08,2.78,1.78.8,3.73,1.22,5.72,1.22"/>
          <path class="cls-1" d="m58,123.53c.04-1.94.98-3.74,2.55-4.87,2.76-1.99,6.6-1.37,8.59,1.39,1.98,2.75,1.36,6.59-1.39,8.58"/>
          <path class="cls-1" d="m114.37,166.91c.28-.42.59-.91.92-1.47.28-.48.59-1.01.91-1.58"/>
          <polyline class="cls-1" points="68.9 216.86 69.29 215.79 73.01 205.67"/>
          <path class="cls-1" d="m94.3,209.74c.67-2.09.18-4.38-1.29-6.01"/>
          <path class="cls-1" d="m26.58,160.91c-.48.93-.84,1.92-1.07,2.94"/>
          <line class="cls-1" x1="8.48" y1="239.74" x2="11" y2="219.74"/>
          <path class="cls-1" d="m84.11,227.08c-.99,1.52-1.25,3.4-.71,5.14"/>
          <line class="cls-1" x1="40.81" y1="217.49" x2="38.57" y2="215.3"/>
          <path class="cls-1" d="m82.45,206.49c-.41,1.77-.01,3.62,1.09,5.07"/>
          <line class="cls-1" x1="12.62" y1="173.47" x2="12" y2="173.81"/>
          <path class="cls-1" d="m13.18,218.87c-1.45,6.46,2.62,12.88,9.09,14.33,6.46,1.45,12.88-2.62,14.33-9.09"/>
          <line class="cls-1" x1="79.67" y1="146.65" x2="80.53" y2="148.58"/>
          <path class="cls-1" d="m95.28,221.97c1.03-1.94.94-4.28-.22-6.14"/>
          <line class="cls-1" x1="125.38" y1="154.53" x2="125.91" y2="154.73"/>
          <polyline class="cls-1" points="89.46 148.2 89.47 148.2 97.21 151.17"/>
          <path class="cls-1" d="m93.01,203.73c.75-3.31-1.32-6.61-4.63-7.36-3.31-.76-6.61,1.32-7.36,4.63-.45,1.95.09,4,1.43,5.49"/>
          <line class="cls-1" x1="68" y1="142.17" x2="63.1" y2="142.9"/>
          <circle class="cls-1" cx="88.25" cy="235.99" r="2.5"/>
          <line class="cls-1" x1="83.25" y1="137.31" x2="85.19" y2="136.44"/>
          <line class="cls-1" x1="85.19" y1="136.44" x2="89.86" y2="138.23"/>
          <line class="cls-1" x1="92.31" y1="140.78" x2="92.17" y2="139.9"/>
          <line class="cls-1" x1="9.6" y1="173.09" x2="8.26" y2="170.6"/>
          <path class="cls-1" d="m84.37,221.89c-.85,1.61-.94,3.51-.26,5.19"/>
          <line class="cls-1" x1="44.89" y1="215.79" x2="44.89" y2="220.27"/>
          <path class="cls-1" d="m83.54,211.56c-.56,1.73-.32,3.61.64,5.15"/>
          <path class="cls-1" d="m84.18,216.71c-.71,1.67-.64,3.57.19,5.18"/>
          <line class="cls-1" x1="99.22" y1="162.71" x2="102.44" y2="163.94"/>
          <line class="cls-1" x1="85.74" y1="148.97" x2="85.88" y2="149.85"/>
          <line class="cls-1" x1="132.19" y1="239.15" x2="135.85" y2="235.49"/>
          <circle class="cls-1" cx="112.39" cy="233.49" r="4.75"/>
          <polyline class="cls-1" points="107.49 155.1 110.67 156.32 114.37 157.75 114.38 157.75"/>
          <path class="cls-1" d="m50.35,138.15c.03-1.94.98-3.74,2.55-4.88"/>
          <line class="cls-1" x1="146.39" y1="241.09" x2="129.03" y2="241.09"/>
          <line class="cls-1" x1="129.1" y1="206.82" x2="98.86" y2="215.84"/>
          <path class="cls-1" d="m149.49,172.34c-.39.72-.76,1.42-1.12,2.08-.66,1.2-1.28,2.31-1.84,3.26s-1.07,1.76-1.51,2.36c-.47.65-.78,1.09-1.4,1.39-.12.05-.27.1-.44.12-.14.02-.3.01-.45-.03-.22-.06-.42-.19-.56-.33-.13-.14-.21-.29-.27-.43-.09-.2-.12-.39-.15-.58-.05-.48-.01-1.02.07-1.7.06-.51.16-1.09.28-1.75.21-1.09.5-2.4.83-3.82.21-.89.44-1.85.68-2.83.12-.48.24-.96.36-1.45.37-1.45.75-2.97,1.12-4.43.16-.65.32-1.3.48-1.93.19-.77.37-1.53.54-2.25.31-1.29.58-2.49.78-3.52.12-.61.22-1.17.29-1.65"/>
          <polyline class="cls-1" points="127.78 155.45 131.73 156.96 133.6 157.68 135.73 158.5 135.74 158.5"/>
          <path class="cls-1" d="m134.01,174.49s.02-.03.02-.04c.27-.4.56-.87.87-1.4.5-.84,1.07-1.84,1.66-2.92.39-.72.81-1.49,1.23-2.28"/>
          <path class="cls-1" d="m55.45,128.4c.04-1.93.98-3.74,2.55-4.87"/>
          <line class="cls-1" x1="71.58" y1="132.83" x2="83.25" y2="137.31"/>
          <circle class="cls-1" cx="59.05" cy="133.39" r="2.5"/>
          <line class="cls-1" x1="49.57" y1="223.85" x2="62.5" y2="222.03"/>
          <path class="cls-1" d="m147.18,154.85c-.26.4-.56.88-.87,1.41-.5.84-1.06,1.84-1.66,2.92-.39.72-.8,1.48-1.22,2.27"/>
          <line class="cls-1" x1="91.57" y1="142.7" x2="99.32" y2="145.67"/>
          <line class="cls-1" x1="80.53" y1="148.58" x2="85.2" y2="150.37"/>
          <path class="cls-1" d="m126.53,241.49c.86,0,1.7-.14,2.5-.4,1.18-.39,2.27-1.05,3.16-1.94"/>
          <path class="cls-1" d="m127.52,147.31c-.26.4-.55.87-.86,1.39-.3.5-.62,1.07-.96,1.67"/>
          <polyline class="cls-1" points="108.52 138.43 108.53 138.43 109.2 138.69 109.48 138.79"/>
          <path class="cls-1" d="m109.2,138.69c.09-.2.17-.38.25-.52.09-.18.16-.32.25-.46.04-.05.07-.1.13-.17.04-.05.09-.1.17-.16.04-.03.09-.07.15-.1.08-.04.18-.07.28-.09.09-.02.2-.03.3-.02.11.01.23.04.33.09s.2.12.28.2c.08.07.14.16.19.25.04.09.07.17.09.25,0,.07.02.13.02.18.01.06,0,.11,0,.15,0,.09-.01.15-.02.22-.04.19-.09.39-.17.67-.03.1-.06.21-.1.33-.09.31-.21.69-.35,1.12-.27.83-.62,1.88-1.03,3.07-.39,1.13-.83,2.41-1.3,3.76-.49,1.39-1.01,2.89-1.53,4.36"/>
          <line class="cls-1" x1="153.36" y1="201.67" x2="153.93" y2="202.96"/>
          <path class="cls-1" d="m95.06,215.83c.85-2.02.56-4.34-.76-6.09"/>
          <polyline class="cls-1" points="36.6 224.11 38.41 216.05 38.57 215.3 48.24 172.18"/>
          <path class="cls-1" d="m143.86,178.22c.26-.4.56-.87.87-1.39.5-.84,1.06-1.84,1.65-2.92.4-.72.81-1.49,1.24-2.29"/>
          <polyline class="cls-1" points="135.65 167.03 137.79 167.85 139.66 168.57 143.61 170.08"/>
          <polyline class="cls-1" points="137.61 159.22 141.56 160.73 141.56 160.74 143.43 161.45 145.57 162.27"/>
          <polyline class="cls-1" points="145.48 170.8 147.62 171.62 149.49 172.34 153.44 173.85"/>
          <path class="cls-1" d="m124.2,170.68c.27-.4.57-.88.89-1.42.5-.84,1.06-1.84,1.65-2.92.39-.72.8-1.47,1.22-2.25"/>
          <polyline class="cls-1" points="105.38 241.49 112.39 241.49 126.53 241.49"/>
          <line class="cls-1" x1="129.11" y1="206.82" x2="129.1" y2="206.82"/>
          <polyline class="cls-1" points="109.59 149.61 111.57 150.37 113.44 151.09 115.82 152"/>
          <line class="cls-1" x1="111.35" y1="139.51" x2="112.72" y2="140.04"/>
          <line class="cls-1" x1="69.29" y1="215.79" x2="44.89" y2="215.79"/>
          <path class="cls-1" d="m65.2,133.5v-.11c0-3.4-2.75-6.15-6.15-6.15-1.34,0-2.59.43-3.6,1.17-1.51,1.08-2.51,2.85-2.54,4.86-.01.04-.01.08-.01.12,0,3.39,2.75,6.15,6.15,6.15,1.34,0,2.59-.43,3.6-1.17,1.52-1.09,2.51-2.87,2.55-4.87Z"/>
          <line class="cls-1" x1="64.47" y1="221.49" x2="50.61" y2="221.49"/>
          <path class="cls-1" d="m60.1,143.25c-.04,1.93-.98,3.74-2.55,4.87-2.76,1.99-6.6,1.37-8.59-1.39-1.99-2.75-1.37-6.6,1.39-8.58"/>
          <line class="cls-1" x1="122.51" y1="162" x2="123.95" y2="162.55"/>
          <path class="cls-1" d="m118.07,164.58c-.35.62-.68,1.21-.99,1.74-.57.96-1.08,1.77-1.53,2.38-.46.65-.78,1.1-1.38,1.4-.13.07-.27.12-.45.15-.15.02-.31.01-.47-.03-.22-.06-.42-.19-.57-.33-.13-.14-.21-.29-.27-.42-.09-.21-.12-.4-.15-.59-.05-.47,0-1,.07-1.67.06-.51.16-1.1.28-1.75.2-1.09.49-2.4.82-3.82.28-1.22.61-2.54.94-3.89.04-.12.07-.25.1-.38.37-1.45.75-2.97,1.12-4.43.08-.32.16-.63.23-.94.28-1.13.55-2.22.79-3.24.31-1.3.58-2.51.78-3.53.13-.63.23-1.19.3-1.68"/>
          <path class="cls-1" d="m105.27,151.1c.5-1.42,1.01-2.87,1.48-4.23.47-1.32.91-2.59,1.29-3.71.39-1.12.72-2.12.98-2.91.19-.59.35-1.09.46-1.46"/>
          <line class="cls-1" x1="113.01" y1="140.69" x2="112.72" y2="140.04"/>
          <polyline class="cls-1" points="40.02 218.12 40.04 218.14 40.11 218.2"/>
          <path class="cls-1" d="m8.39,241.24c0-.5.03-1,.09-1.5"/>
          <path class="cls-1" d="m11,219.74c.37-2.97,1.69-5.74,3.76-7.91"/>
          <path class="cls-1" d="m42.16,220.85c1.76,2.25,4.58,3.39,7.41,3"/>
          <circle class="cls-1" cx="24.89" cy="221.49" r="4"/>
          <line class="cls-1" x1="8.39" y1="241.24" x2="8.39" y2="246.49"/>
          <path class="cls-1" d="m117.69,143.55c-.26.39-.55.86-.86,1.38-.49.84-1.05,1.83-1.65,2.91-.55,1.01-1.14,2.11-1.74,3.24"/>
          <path class="cls-1" d="m73.01,205.67c.25-.68.65-1.31,1.17-1.82"/>
          <line class="cls-1" x1="225.13" y1="182.06" x2="223.41" y2="178.18"/>
          <circle class="cls-1" cx="73.15" cy="51.18" r="6.25"/>
          <line class="cls-1" x1="224.13" y1="184.67" x2="225.16" y2="184.21"/>
          <line class="cls-1" x1="187.47" y1="164.41" x2="223.41" y2="178.18"/>
          <polyline class="cls-1" points="221.15 192.45 224.13 184.67 225.13 182.06"/>
          <path class="cls-1" d="m80.64,51c-.07-3.25-2.23-6.08-5.35-7.01"/>
          <line class="cls-1" x1="225.16" y1="184.21" x2="232.82" y2="187.15"/>
          <polyline class="cls-1" points="64.08 39.6 59.57 54.69 56.57 64.75 52.06 79.84"/>
          <polyline class="cls-1" points="215.11 208.2 216.11 205.59 219.09 197.81"/>
          <polyline class="cls-1" points="49.31 169.24 63.1 142.9 69.61 130.46 80.18 110.27"/>
          <line class="cls-1" x1="56.4" y1="103.95" x2="26.58" y2="160.91"/>
          <polyline class="cls-1" points="55.76 11.54 51.9 24.48 8.26 170.6"/>
          <polyline class="cls-1" points="12.62 173.47 38.38 87.23 39.69 82.84"/>
          <line class="cls-1" x1="216.11" y1="205.59" x2="216.57" y2="206.61"/>
          <polyline class="cls-1" points="38.37 87.23 38.38 87.23 43.16 88.66"/>
          <line class="cls-1" x1="226.81" y1="208.4" x2="224.24" y2="209.55"/>
          <line class="cls-1" x1="224.24" y1="209.55" x2="216.57" y2="206.61"/>
        </g>
      </g>
    </g>
  </g>
</svg>