<?xml version="1.0" encoding="UTF-8"?>
<svg xmlns="http://www.w3.org/2000/svg" viewBox="0 0 264 260">
  <defs>
    <style>
      .cls-1 {
        fill: none;
        stroke: #000;
        stroke-linecap: round;
        stroke-linejoin: round;
        stroke-width: .71px;
      }

      .cls-2 {
        fill: #333;
      }

      .cls-3 {
        opacity: .4;
      }

      .cls-4 {
        fill: #e84e0f;
      }

      .cls-5 {
        opacity: .55;
      }

      .cls-6 {
        fill: #999;
      }

      .cls-7 {
        fill: #ccc;
      }

      .cls-8 {
        fill: #666;
      }
    </style>
  </defs>
  <g id="max">
    <g id="LWPOLYLINE" class="cls-3">
      <g>
        <g>
          <path class="cls-8" d="m105.79,44.44c3.03,2.1,4.37,5.9,3.31,9.43l-7.15,23.95h0c-1.34,4.5-6.08,7.06-10.58,5.72-3.37-1.01-6.55-2.54-9.45-4.54l-9.87-6.82,8.95-12.96.41.29c1.19.31,2.45.22,3.58-.26l3.41-4.94c.05-1.23-.31-2.44-1.03-3.44l-.4-.29,8.95-12.96,9.87,6.82Zm-2.33,7c0-1.38-1.12-2.5-2.5-2.5s-2.5,1.12-2.5,2.5,1.12,2.5,2.5,2.5,2.5-1.12,2.5-2.5Zm-7.15,23.95c0-1.38-1.12-2.5-2.5-2.5s-2.5,1.12-2.5,2.5,1.11,2.5,2.5,2.5,2.5-1.12,2.5-2.5Z"/>
          <circle class="cls-8" cx="100.96" cy="51.44" r="2.5"/>
          <polygon class="cls-8" points="93.12 22.32 97.23 25.16 97.48 26.56 91.8 34.78 67.94 69.34 67.93 69.34 62.25 77.57 60.86 77.83 56.75 74.99 56.74 74.99 5.6 149.04 4.91 149.17 2.85 147.75 2.34 144.97 96.67 8.37 99.45 7.86 101.51 9.28 101.64 9.98 93.12 22.32"/>
          <polygon class="cls-8" points="95.92 37.62 86.97 50.58 81 59.22 72.05 72.18 67.94 69.34 91.8 34.78 95.92 37.62"/>
          <circle class="cls-8" cx="93.81" cy="75.39" r="2.5"/>
          <path class="cls-7" d="m87.37,50.87c.72,1,1.08,2.21,1.03,3.44l-3.41,4.94c-1.13.48-2.39.57-3.58.26l-.41-.29,5.97-8.64.4.29Z"/>
        </g>
        <g>
          <line class="cls-1" x1="96.67" y1="8.37" x2="2.34" y2="144.97"/>
          <polyline class="cls-1" points="5.6 149.04 56.74 74.99 59.35 71.21"/>
          <polyline class="cls-1" points="95.92 37.62 86.97 50.58 81 59.22 72.05 72.18"/>
          <line class="cls-1" x1="93.12" y1="22.32" x2="101.64" y2="9.98"/>
          <line class="cls-1" x1="90.51" y1="26.09" x2="93.11" y2="22.32"/>
          <path class="cls-1" d="m109.1,53.87c1.06-3.53-.28-7.33-3.31-9.43"/>
          <line class="cls-1" x1="67.93" y1="69.34" x2="62.25" y2="77.57"/>
          <polyline class="cls-1" points="97.48 26.56 91.8 34.78 67.94 69.34"/>
          <line class="cls-1" x1="97.23" y1="25.16" x2="97.48" y2="26.56"/>
          <line class="cls-1" x1="99.45" y1="7.86" x2="96.67" y2="8.37"/>
          <polyline class="cls-1" points="97.23 25.16 93.12 22.32 93.11 22.32"/>
          <path class="cls-1" d="m84.99,59.25c-1.13.48-2.39.57-3.58.26"/>
          <line class="cls-1" x1="88.4" y1="54.31" x2="84.99" y2="59.25"/>
          <polyline class="cls-1" points="67.93 69.34 67.94 69.34 72.05 72.18 81.92 79"/>
          <line class="cls-1" x1="101.95" y1="77.82" x2="109.1" y2="53.87"/>
          <line class="cls-1" x1="101.64" y1="9.98" x2="101.51" y2="9.28"/>
          <circle class="cls-1" cx="100.96" cy="51.44" r="2.5"/>
          <circle class="cls-1" cx="93.81" cy="75.39" r="2.5"/>
          <line class="cls-1" x1="56.75" y1="74.99" x2="60.86" y2="77.83"/>
          <polyline class="cls-1" points="105.79 44.44 95.92 37.62 91.8 34.78"/>
          <path class="cls-1" d="m87.37,50.87c.72,1,1.08,2.21,1.03,3.44"/>
          <line class="cls-1" x1="87.37" y1="50.87" x2="86.97" y2="50.58"/>
          <line class="cls-1" x1="101.51" y1="9.28" x2="99.45" y2="7.86"/>
          <line class="cls-1" x1="5.6" y1="149.04" x2="4.91" y2="149.17"/>
          <line class="cls-1" x1="81.41" y1="59.51" x2="81" y2="59.22"/>
          <line class="cls-1" x1="60.86" y1="77.83" x2="62.25" y2="77.57"/>
          <line class="cls-1" x1="2.85" y1="147.75" x2="2.34" y2="144.97"/>
          <line class="cls-1" x1="2.85" y1="147.75" x2="4.91" y2="149.17"/>
          <path class="cls-1" d="m81.92,79c2.9,2,6.08,3.53,9.45,4.54"/>
          <path class="cls-1" d="m91.37,83.54c4.5,1.34,9.24-1.22,10.58-5.71h0"/>
        </g>
      </g>
    </g>
  </g>
  <g id="middle">
    <g id="LWPOLYLINE-2" data-name="LWPOLYLINE" class="cls-5">
      <g>
        <g>
          <path class="cls-8" d="m104.5,43.62c3.32,1.6,5.24,5.15,4.75,8.8l-3.32,24.77c-.62,4.66-4.9,7.92-9.55,7.3-3.49-.47-6.87-1.48-10.04-3l-10.82-5.19,6.81-14.2.45.21c1.22.13,2.45-.16,3.5-.81l2.59-5.41c-.14-1.22-.69-2.36-1.55-3.24l-.45-.22,6.81-14.2,10.82,5.19Zm-1.17,7.67c0-1.38-1.12-2.5-2.5-2.5s-2.5,1.12-2.5,2.5,1.12,2.5,2.5,2.5,2.5-1.12,2.5-2.5Zm-3.32,24.78c0-1.39-1.12-2.5-2.5-2.5s-2.5,1.11-2.5,2.5,1.12,2.5,2.5,2.5,2.5-1.12,2.5-2.5Z"/>
          <circle class="cls-8" cx="100.83" cy="51.29" r="2.5"/>
          <circle class="cls-8" cx="97.51" cy="76.07" r="2.5"/>
          <polygon class="cls-8" points="88.52 23.76 93.03 25.92 93.5 27.25 89.17 36.27 71.01 74.14 66.68 83.15 65.35 83.62 60.84 81.46 21.91 162.61 21.25 162.84 18.99 161.76 18.05 159.09 89.85 9.42 92.52 8.48 94.78 9.57 95.01 10.23 88.52 23.76"/>
          <polygon class="cls-8" points="93.68 38.43 86.87 52.63 82.33 62.1 75.52 76.3 71.01 74.14 89.17 36.27 89.18 36.27 93.68 38.43"/>
          <path class="cls-7" d="m88.87,56.09l-2.59,5.41c-1.05.65-2.28.94-3.5.81l-.45-.21,4.54-9.47.45.22c.86.88,1.41,2.02,1.55,3.24Z"/>
        </g>
        <g>
          <line class="cls-1" x1="89.85" y1="9.42" x2="18.05" y2="159.09"/>
          <line class="cls-1" x1="94.78" y1="9.57" x2="92.52" y2="8.48"/>
          <line class="cls-1" x1="93.03" y1="25.92" x2="88.52" y2="23.76"/>
          <polyline class="cls-1" points="104.5 43.62 93.68 38.43 89.18 36.27"/>
          <line class="cls-1" x1="93.03" y1="25.92" x2="93.5" y2="27.25"/>
          <line class="cls-1" x1="95.01" y1="10.23" x2="94.78" y2="9.57"/>
          <polyline class="cls-1" points="86.54 27.89 88.52 23.76 95.01 10.23"/>
          <line class="cls-1" x1="18.99" y1="161.76" x2="18.05" y2="159.09"/>
          <line class="cls-1" x1="18.99" y1="161.76" x2="21.25" y2="162.84"/>
          <polyline class="cls-1" points="21.91 162.61 60.84 81.46 62.82 77.33"/>
          <polyline class="cls-1" points="93.5 27.25 89.17 36.27 71.01 74.14 66.68 83.15"/>
          <polyline class="cls-1" points="93.68 38.43 86.87 52.63 82.33 62.1 75.52 76.3"/>
          <circle class="cls-1" cx="100.83" cy="51.29" r="2.5"/>
          <path class="cls-1" d="m87.32,52.85c.86.88,1.41,2.02,1.55,3.24"/>
          <line class="cls-1" x1="87.32" y1="52.85" x2="86.87" y2="52.63"/>
          <line class="cls-1" x1="88.87" y1="56.09" x2="86.28" y2="61.5"/>
          <line class="cls-1" x1="65.35" y1="83.62" x2="66.68" y2="83.15"/>
          <path class="cls-1" d="m109.25,52.42c.49-3.65-1.43-7.2-4.75-8.8"/>
          <line class="cls-1" x1="82.78" y1="62.31" x2="82.33" y2="62.1"/>
          <circle class="cls-1" cx="97.51" cy="76.07" r="2.5"/>
          <line class="cls-1" x1="92.52" y1="8.48" x2="89.85" y2="9.42"/>
          <path class="cls-1" d="m86.28,61.5c-1.05.65-2.28.94-3.5.81"/>
          <polyline class="cls-1" points="71.01 74.14 75.52 76.3 86.34 81.49"/>
          <line class="cls-1" x1="60.84" y1="81.46" x2="65.35" y2="83.62"/>
          <line class="cls-1" x1="21.91" y1="162.61" x2="21.25" y2="162.84"/>
          <line class="cls-1" x1="105.93" y1="77.19" x2="109.25" y2="52.42"/>
          <path class="cls-1" d="m96.38,84.49c4.65.62,8.93-2.64,9.55-7.3"/>
          <path class="cls-1" d="m86.34,81.49c3.17,1.52,6.55,2.53,10.04,3"/>
        </g>
      </g>
    </g>
  </g>
  <g id="Default">
    <g id="LWPOLYLINE-3" data-name="LWPOLYLINE">
      <g>
        <g>
          <path class="cls-6" d="m260.5,187.26l1.15,2.58-7.16,18.67-2.57,1.15-7.67-2.94-.46-1.02,2.98-7.78c1.3-1.5,2.02-3.41,2.05-5.36h.01l2.98-7.78,1.03-.46,7.66,2.94Z"/>
          <path class="cls-8" d="m252.81,182.17l-1,2.61-2.98,7.78h-.01c.05-1.62-.38-3.27-1.31-4.74-2.41-3.79-7.35-5.06-11.28-2.89l-32.16,17.7-12.51,1.09,4.49-11.7,7.46,2.86,11.64-30.36,35.94,13.77,1.72,3.88Z"/>
          <circle class="cls-6" cx="240.33" cy="192.38" r="5"/>
          <polygon class="cls-6" points="244.07 247.2 244.07 254.1 243.57 254.6 31.07 254.6 30.57 254.1 30.57 249.6 33.57 246.6 36.07 246.6 133.07 246.6 243.47 246.6 244.07 247.2"/>
          <path class="cls-8" d="m217.61,216.87l27.28-17.32c.72-.46,1.35-1.01,1.88-1.63l-2.98,7.78-1,2.61-21.96,9.79-3.22-1.23Z"/>
          <polygon class="cls-6" points="214.53 163.36 215.15 164.51 215.15 164.52 203.51 194.88 196.05 192.02 207.68 161.66 207.69 161.65 208.93 161.21 214.53 163.36"/>
          <polygon class="cls-8" points="186.23 188.24 197.32 159.29 197.5 158.82 198.79 158.25 207.68 161.66 196.05 192.02 191.56 203.72 191.56 203.73 184.86 204.31 181.61 203.07 181.04 201.78 186.23 188.24"/>
          <path class="cls-6" d="m183.48,172.7c.37-1.46.75-2.97,1.11-4.43l.36-1.41,3.59,1.38-2.86,7.47h-.01l-.51-.2-2.17-.83c.16-.65.32-1.31.49-1.98Z"/>
          <path class="cls-6" d="m184.99,187l2.35-6.13c.02-.05.03-.1.05-.15l7.55-19.67.89-2.33,1.49.57-11.09,28.95-1.5-.58.25-.66h.01Z"/>
          <path class="cls-7" d="m183.69,185.76c.03-.17.07-.32.12-.52.04-.16.09-.34.16-.55.05-.18.12-.39.19-.62.24-.76.58-1.77.98-2.95.37-1.08.8-2.32,1.26-3.64.45-1.3.94-2.71,1.44-4.12.49-1.4,1-2.84,1.47-4.2.48-1.36.94-2.68,1.35-3.87.41-1.18.77-2.25,1.07-3.14.29-.87.52-1.58.66-2.07l-.26-.1-.48,1.26-.15.07s.01-.02.01-.02c.35-.79.63-1.4.83-1.81.1-.19.18-.33.27-.48.03-.05.07-.1.13-.17.04-.05.09-.11.18-.17.04-.04.1-.07.16-.1.08-.04.17-.08.27-.1.1-.01.21-.02.31-.01.11.02.23.05.33.1s.19.12.27.2.14.17.19.26c.04.08.06.17.08.24s.02.13.02.18c.01.06.01.11,0,.15,0,.09-.01.16-.03.23-.03.2-.09.42-.18.72-.02.08-.05.17-.08.26-.1.32-.22.72-.36,1.17-.27.83-.63,1.88-1.04,3.07-.38,1.13-.83,2.42-1.3,3.76s-.97,2.76-1.46,4.17-1,2.83-1.46,4.17c-.45,1.27-.87,2.5-1.25,3.59-.02.05-.03.1-.05.15l-2.35,6.13h-.01c-.1.03-.2.04-.31.04s-.23-.02-.34-.07c-.11-.04-.21-.1-.29-.17-.09-.07-.16-.16-.21-.25-.06-.08-.09-.17-.11-.25-.03-.08-.04-.14-.04-.2-.01-.06-.01-.11,0-.15,0-.08.01-.14.01-.19Z"/>
          <polygon class="cls-6" points="183.08 182.48 185.67 175.71 185.68 175.71 188.54 168.24 191.13 161.47 191.5 161.31 191.65 161.24 183.31 183 183.25 182.86 183.25 182.85 183.08 182.48"/>
          <path class="cls-6" d="m183.97,184.69l-1.14-.43.48-1.26,8.34-21.76.48-1.26.26.1c-.14.49-.37,1.2-.66,2.07-.3.89-.66,1.96-1.07,3.14-.41,1.19-.87,2.51-1.35,3.87-.47,1.36-.98,2.8-1.47,4.2-.5,1.41-.99,2.82-1.44,4.12-.46,1.32-.89,2.56-1.26,3.64-.4,1.18-.74,2.19-.98,2.95-.07.23-.14.44-.19.62Z"/>
          <path class="cls-7" d="m181.37,182.1c.26-.4.55-.87.86-1.39.38-.62.78-1.34,1.21-2.11.17-.29.33-.59.49-.88.12-.22.24-.43.36-.64.13-.23.25-.46.38-.69.16-.29.33-.58.49-.88l.51.2-2.59,6.77.17.37h0c-.03.07-.07.11-.1.16-.5.78-.93,1.37-1.35,1.79-.18.19-.36.35-.61.47-.13.07-.29.14-.48.16-.15.02-.31.01-.47-.03-.22-.06-.42-.19-.56-.34-.13-.13-.22-.28-.27-.42-.09-.21-.13-.4-.15-.59-.05-.49-.01-1.03.07-1.72.07-.51.17-1.1.29-1.75.21-1.1.49-2.41.83-3.83.21-.88.43-1.82.67-2.79.12-.49.25-.98.37-1.48.36-1.46.75-2.97,1.11-4.43.16-.64.32-1.28.48-1.9.19-.79.38-1.55.55-2.28.3-1.29.57-2.49.77-3.51.12-.61.22-1.16.29-1.63-.26.41-.56.89-.89,1.43-.5.84-1.06,1.84-1.65,2.93-.39.71-.8,1.46-1.21,2.23h0s-1.87-.71-1.87-.71c.37-.7.74-1.38,1.09-2.02.65-1.21,1.28-2.32,1.83-3.27.57-.96,1.08-1.77,1.53-2.39.46-.64.78-1.09,1.38-1.39.13-.07.27-.12.45-.14.14-.02.31-.02.47.02.22.06.42.19.56.34.13.13.22.28.28.42.08.2.12.39.14.58.06.48.02,1.01-.06,1.68-.06.5-.16,1.09-.28,1.74-.2,1.09-.49,2.4-.82,3.82-.21.9-.44,1.87-.69,2.86l-.36,1.41c-.36,1.46-.74,2.97-1.11,4.43-.17.67-.33,1.33-.49,1.98-.19.76-.37,1.5-.54,2.21-.3,1.29-.57,2.5-.78,3.53-.12.62-.22,1.19-.3,1.68Z"/>
          <path class="cls-6" d="m175.12,163.09l3.95,1.52,1.87.72,2.14.82c-.16.62-.32,1.26-.48,1.9-.36,1.46-.75,2.97-1.11,4.43-.12.5-.25.99-.37,1.48l-3.95-1.51-1.87-.72-2.14-.82c.16-.64.33-1.3.49-1.96.36-1.46.75-2.98,1.11-4.43.12-.48.24-.96.35-1.43h0Z"/>
          <path class="cls-7" d="m172.62,173.13c-.3,1.29-.57,2.5-.78,3.52-.12.63-.22,1.19-.3,1.68.26-.4.56-.87.87-1.39.5-.84,1.06-1.84,1.65-2.92.4-.72.81-1.49,1.24-2.29l1.87.72c-.39.72-.76,1.42-1.12,2.08-.66,1.2-1.28,2.31-1.84,3.26s-1.07,1.76-1.51,2.36c-.47.65-.78,1.09-1.4,1.39-.12.05-.27.1-.44.12-.14.02-.3.01-.45-.03-.22-.06-.42-.19-.56-.33-.13-.14-.21-.29-.27-.43-.09-.2-.12-.39-.15-.58-.05-.48-.01-1.02.07-1.7.06-.51.16-1.09.28-1.75.21-1.09.5-2.4.83-3.82.21-.89.44-1.85.68-2.83.12-.48.24-.96.36-1.45.37-1.45.75-2.97,1.12-4.43.16-.65.32-1.3.48-1.93.19-.77.37-1.53.54-2.25.31-1.29.58-2.49.78-3.52.12-.61.22-1.17.29-1.65-.26.4-.56.88-.87,1.41-.5.84-1.06,1.84-1.66,2.92-.39.72-.8,1.48-1.22,2.27l-1.87-.71h0c.37-.71.74-1.4,1.1-2.05.65-1.2,1.28-2.32,1.83-3.26.57-.96,1.08-1.77,1.52-2.38.47-.65.79-1.1,1.39-1.4.12-.06.27-.11.45-.13.14-.02.3-.02.46.03.22.05.42.18.56.33.13.13.22.28.28.42.08.2.12.39.14.59.06.47.02,1-.06,1.68-.06.5-.16,1.09-.28,1.74-.21,1.09-.49,2.4-.83,3.82-.21.9-.44,1.86-.69,2.85-.11.47-.23.95-.35,1.43-.36,1.45-.75,2.97-1.11,4.43-.16.66-.33,1.32-.49,1.96-.19.76-.37,1.51-.54,2.22Z"/>
          <path class="cls-6" d="m171.29,170.19l-3.95-1.51-1.87-.72-2.14-.82c.16-.64.32-1.29.48-1.94.37-1.46.75-2.98,1.12-4.43.12-.49.24-.97.36-1.44l3.95,1.51h0s1.87.72,1.87.72l2.14.82c-.16.63-.32,1.28-.48,1.93-.37,1.46-.75,2.98-1.12,4.43-.12.49-.24.97-.36,1.45Z"/>
          <circle class="cls-6" cx="159.07" cy="214.6" r="4.75"/>
          <path class="cls-7" d="m160.02,177.53c-.13-.13-.21-.28-.27-.42-.09-.2-.12-.39-.15-.59-.05-.47-.01-1.01.07-1.68.06-.51.16-1.09.28-1.75.2-1.09.49-2.4.82-3.82.22-.9.45-1.86.69-2.84.12-.47.24-.95.36-1.43.36-1.46.74-2.97,1.11-4.43.16-.66.33-1.32.48-1.96h.01c.19-.77.37-1.51.54-2.22.3-1.3.57-2.51.78-3.53.12-.62.22-1.18.29-1.67-.26.4-.55.87-.86,1.4-.5.83-1.06,1.83-1.66,2.91-.39.72-.81,1.49-1.23,2.29l-1.87-.72c.38-.71.75-1.41,1.11-2.07.66-1.2,1.28-2.31,1.84-3.25.56-.96,1.07-1.77,1.51-2.38.47-.64.78-1.09,1.39-1.38.13-.06.28-.11.45-.13.14-.02.3-.01.45.03.22.06.42.18.57.33.13.14.21.29.27.42.08.21.12.4.14.59.06.48.02,1.01-.06,1.69-.07.51-.16,1.1-.28,1.75-.21,1.09-.5,2.4-.83,3.82-.21.9-.44,1.85-.68,2.84-.12.47-.24.95-.36,1.44-.37,1.45-.75,2.97-1.12,4.43-.16.65-.32,1.3-.48,1.94-.19.77-.37,1.52-.54,2.24-.31,1.29-.58,2.5-.78,3.52-.12.62-.22,1.18-.3,1.66.27-.4.56-.87.87-1.4.5-.84,1.07-1.84,1.66-2.92.39-.72.81-1.49,1.23-2.28l1.87.72c-.38.71-.75,1.4-1.11,2.05-.65,1.2-1.27,2.32-1.83,3.26-.57.96-1.08,1.77-1.52,2.38-.47.64-.78,1.09-1.39,1.39-.12.06-.27.11-.44.13-.15.02-.31.02-.46-.03-.22-.05-.43-.18-.57-.33Z"/>
          <path class="cls-8" d="m174.07,241.2h-17.36c1.18-.39,2.27-1.05,3.16-1.94l3.66-3.66,10.54-2.83v8.43Z"/>
          <path class="cls-8" d="m142.14,241.33l21.39-5.73-3.66,3.66c-.89.89-1.98,1.55-3.16,1.94-.8.26-1.64.4-2.5.4h-14.14c.69,0,1.39-.09,2.07-.27Z"/>
          <path class="cls-6" d="m159.41,157.07l1.87.72,2.13.82c-.15.64-.32,1.3-.48,1.96-.37,1.46-.75,2.97-1.11,4.43-.12.48-.24.96-.36,1.43l-3.95-1.52-1.87-.72-2.14-.82c.15-.63.32-1.27.48-1.91.36-1.46.75-2.98,1.11-4.43.12-.5.24-.99.37-1.47l3.95,1.51Z"/>
          <path class="cls-6" d="m153.1,156.81c-.37,1.46-.75,2.98-1.12,4.43-.12.48-.24.95-.35,1.42l-1.44-.55,2.87-7.47.53.2c-.16.65-.32,1.31-.49,1.97Z"/>
          <path class="cls-7" d="m152.95,165.64c-.3,1.29-.57,2.49-.77,3.51-.12.61-.22,1.16-.3,1.64.27-.4.57-.88.89-1.42.5-.84,1.06-1.84,1.65-2.92.39-.72.8-1.47,1.22-2.25h0s1.87.71,1.87.71c-.38.7-.74,1.38-1.09,2.03-.66,1.2-1.28,2.32-1.84,3.27-.57.96-1.08,1.77-1.52,2.38-.47.65-.79,1.1-1.38,1.39-.13.07-.28.12-.46.14-.14.02-.3.02-.46-.02-.22-.06-.42-.19-.57-.34-.13-.13-.21-.28-.27-.42-.09-.2-.12-.39-.15-.58-.05-.48-.01-1.01.07-1.68.06-.51.16-1.09.28-1.75.2-1.09.49-2.4.82-3.82.21-.9.44-1.86.69-2.85.11-.47.23-.94.35-1.42.37-1.45.75-2.97,1.12-4.43.17-.66.33-1.32.49-1.97.18-.76.36-1.5.53-2.21.31-1.3.58-2.5.78-3.53.13-.62.23-1.19.3-1.68-.26.4-.55.87-.86,1.39-.3.5-.62,1.07-.96,1.67l-1.87-.72c.37-.67.72-1.29,1.06-1.85.56-.95,1.06-1.75,1.5-2.35.24-.31.45-.58.66-.8.19-.2.38-.36.63-.5.13-.07.29-.14.49-.17.15-.02.32-.01.49.03.21.06.42.19.56.34.13.13.21.28.27.42.09.2.12.39.14.59.06.48.02,1.02-.07,1.7-.06.51-.16,1.1-.28,1.76-.21,1.09-.49,2.4-.83,3.82-.21.89-.44,1.83-.67,2.81-.13.48-.25.97-.37,1.47-.36,1.45-.75,2.97-1.11,4.43-.16.64-.33,1.28-.48,1.91-.19.78-.38,1.54-.55,2.27Z"/>
          <polygon class="cls-6" points="148.29 165.66 145.75 164.69 143.88 163.97 143.63 163.87 143.05 162.58 144.5 158.79 146.61 153.3 148.06 149.51 149.35 148.93 151.51 149.76 153.38 150.48 154.02 150.72 154.31 151.37 153.06 154.64 150.19 162.11 148.94 165.38 148.29 165.66"/>
          <path class="cls-6" d="m146.61,153.3l-2.11,5.49-.57-.22c.06-.26.13-.53.2-.8.36-1.45.74-2.97,1.11-4.42.04-.18.09-.36.13-.53l1.24.48Z"/>
          <circle class="cls-6" cx="140.07" cy="233.6" r="4.75"/>
          <path class="cls-7" d="m140.29,165.57c.2-1.09.49-2.4.82-3.82.28-1.22.61-2.54.94-3.89.04-.12.07-.25.1-.38.37-1.45.75-2.97,1.12-4.43.08-.32.16-.63.23-.94.28-1.13.55-2.22.79-3.24.31-1.3.58-2.51.78-3.53.13-.63.23-1.19.3-1.68-.26.39-.55.86-.86,1.38-.49.84-1.05,1.83-1.65,2.91-.55,1.01-1.14,2.11-1.74,3.24h0s-1.87-.71-1.87-.71c.33-.62.65-1.22.96-1.81.68-1.26,1.33-2.45,1.92-3.48.6-1.05,1.15-1.97,1.63-2.69.49-.75.9-1.3,1.33-1.69.16-.15.33-.28.57-.38.12-.06.27-.1.43-.11.14,0,.29,0,.44.04.21.06.41.19.55.34.12.13.21.28.26.42.09.21.12.4.15.6.05.49.01,1.05-.08,1.75-.07.51-.17,1.1-.29,1.76-.21,1.1-.5,2.41-.83,3.84-.28,1.17-.59,2.44-.92,3.75-.04.17-.09.35-.13.53-.37,1.45-.75,2.97-1.11,4.42-.07.27-.14.54-.2.8-.3,1.17-.58,2.31-.83,3.37-.3,1.29-.57,2.49-.77,3.5-.11.59-.21,1.12-.28,1.58.28-.42.59-.91.92-1.47.28-.48.59-1.01.91-1.58l1.87.72c-.35.62-.68,1.21-.99,1.74-.57.96-1.08,1.77-1.53,2.38-.46.65-.78,1.1-1.38,1.4-.13.07-.27.12-.45.15-.15.02-.31.01-.47-.03-.22-.06-.42-.19-.57-.33-.13-.14-.21-.29-.27-.42-.09-.21-.12-.4-.15-.59-.05-.47,0-1,.07-1.67.06-.51.16-1.1.28-1.75Z"/>
          <path class="cls-6" d="m139.25,150.48l1.87.72,2.38.91c-.07.31-.15.62-.23.94-.37,1.46-.75,2.98-1.12,4.43-.03.13-.06.26-.1.38l-3.7-1.43-3.18-1.22,2.1-5.49,1.98.76Z"/>
          <path class="cls-8" d="m240.33,187.38c-2.76,0-5,2.23-5,5s2.24,5,5,5,5-2.24,5-5-2.24-5-5-5Zm-81.26,22.47c-2.62,0-4.75,2.13-4.75,4.75s2.13,4.75,4.75,4.75,4.75-2.13,4.75-4.75-2.13-4.75-4.75-4.75Zm-19,28.5c2.62,0,4.75-2.13,4.75-4.75s-2.13-4.75-4.75-4.75-4.75,2.13-4.75,4.75,2.13,4.75,4.75,4.75Zm23.46-2.75l-21.39,5.73c-.68.18-1.38.27-2.07.27-2.1,0-4.14-.82-5.66-2.34-3.12-3.13-3.12-8.19,0-11.32l19-19c.95-.95,2.11-1.64,3.38-2.01.51-.15,1.04-.25,1.58-.3l26.49-2.32,6.7-.58h0s12.51-1.1,12.51-1.1l32.16-17.7c3.93-2.17,8.87-.9,11.28,2.89.93,1.47,1.36,3.12,1.31,4.74-.03,1.95-.75,3.86-2.05,5.36-.53.62-1.16,1.17-1.88,1.63l-27.28,17.32-11.54,7.33-32,8.57-10.54,2.83Z"/>
          <path class="cls-6" d="m140.4,140.15l-7.44,19.41c.22-.99.48-2.09.76-3.23.34-1.41.72-2.91,1.1-4.4.52-1.47,1.04-2.97,1.53-4.36.47-1.35.91-2.63,1.3-3.76.41-1.19.76-2.24,1.03-3.07.14-.43.26-.81.35-1.12l1.37.53Z"/>
          <path class="cls-6" d="m140.69,140.8l-3.42,8.92-2.1,5.49-2.84,7.4c.12-.7.29-1.52.49-2.43.04-.2.09-.41.14-.62l7.44-19.41.29.65Z"/>
          <path class="cls-8" d="m133.06,241.6c-.04-.85-.17-1.69-.39-2.51l-6.13-23.14,30.24-9.02h0c-1.27.37-2.43,1.06-3.38,2.01l-19,19c-3.12,3.13-3.12,8.19,0,11.32,1.52,1.52,3.56,2.34,5.66,2.34h-7.01Z"/>
          <path class="cls-7" d="m139.32,138.25c.01.06,0,.11,0,.15,0,.09-.01.15-.02.22-.04.19-.09.39-.17.67-.03.1-.06.21-.1.33-.09.31-.21.69-.35,1.12-.27.83-.62,1.88-1.03,3.07-.39,1.13-.83,2.41-1.3,3.76-.49,1.39-1.01,2.89-1.53,4.36-.38,1.49-.76,2.99-1.1,4.4-.28,1.14-.54,2.24-.76,3.23-.05.21-.1.42-.14.62-.2.91-.37,1.73-.49,2.43l2.84-7.4,3.18,1.22c-.54,1.03-1.08,2.03-1.58,2.96-.66,1.2-1.28,2.32-1.84,3.27-.57.96-1.08,1.77-1.52,2.38-.47.65-.79,1.1-1.38,1.4-.13.07-.28.12-.46.15-.14.02-.31.01-.47-.03-.22-.05-.42-.18-.57-.33-.13-.14-.21-.28-.27-.42-.09-.21-.12-.39-.14-.59-.04-.35-.03-.73.01-1.17.01-.16.03-.32.05-.5.06-.51.15-1.09.28-1.74.2-1.09.49-2.4.82-3.82.31-1.33.67-2.79,1.04-4.27.21-.83.42-1.67.63-2.51.5-1.42,1.01-2.87,1.48-4.23.47-1.32.91-2.59,1.29-3.71.39-1.12.72-2.12.98-2.91.19-.59.35-1.09.46-1.46l-.28-.1h0c.09-.21.17-.38.25-.52.09-.18.16-.32.25-.46.04-.05.07-.1.13-.17.04-.05.09-.1.17-.16.04-.03.09-.07.15-.1.08-.04.18-.07.28-.09.09-.02.2-.03.3-.02.11.01.23.04.33.09s.2.12.28.2c.08.07.14.16.19.25.04.09.07.17.09.25,0,.07.02.13.02.18Z"/>
          <path class="cls-6" d="m126.9,162.82l9.3-24.28h.01l.67.25h0s.28.11.28.11c-.11.37-.27.87-.46,1.46-.26.79-.59,1.79-.98,2.91-.38,1.12-.82,2.39-1.29,3.71-.47,1.36-.98,2.81-1.48,4.23-.21.84-.42,1.68-.63,2.51-.37,1.48-.73,2.94-1.04,4.27-.33,1.42-.62,2.73-.82,3.82-.13.65-.22,1.23-.28,1.74-.02.18-.04.34-.05.5h-.01l-3.22-1.23Z"/>
          <polygon class="cls-6" points="127 145.78 131.67 133.59 132.9 133.18 136.64 134.61 137.28 135.74 136.21 138.54 136.2 138.54 126.9 162.82 125.82 165.62 124.59 166.03 120.86 164.6 120.22 163.47 124.89 151.28 127 145.78"/>
          <polygon class="cls-6" points="127 145.78 124.89 151.28 117.15 148.31 119.25 142.81 127 145.78"/>
          <polygon class="cls-7" points="117.14 148.31 116.41 150.23 115.71 150.79 113.56 149.96 113.42 149.08 117 139.74 117.69 139.18 119.85 140.01 119.99 140.89 119.25 142.81 117.15 148.31 117.14 148.31"/>
          <circle class="cls-7" cx="115.93" cy="236.1" r="2.5"/>
          <path class="cls-2" d="m115.93,229.95c-1.97,0-3.73.93-4.85,2.38-.54-1.74-.28-3.62.71-5.14-.68-1.68-.59-3.58.26-5.19-.83-1.61-.9-3.51-.19-5.18-.96-1.54-1.2-3.42-.64-5.15-1.1-1.45-1.5-3.3-1.09-5.07-1.34-1.49-1.88-3.54-1.43-5.49.75-3.31,4.05-5.39,7.36-4.63,3.31.75,5.38,4.05,4.63,7.36,1.47,1.63,1.96,3.92,1.29,6.01,1.32,1.75,1.61,4.07.76,6.09,1.16,1.86,1.25,4.2.22,6.14,1,1.95.88,4.29-.31,6.13.83,2.03.51,4.35-.84,6.08-.77-2.52-3.11-4.34-5.88-4.34Z"/>
          <path class="cls-7" d="m118.43,236.1c0-1.38-1.12-2.5-2.5-2.5s-2.5,1.12-2.5,2.5,1.12,2.5,2.5,2.5,2.5-1.12,2.5-2.5Zm-7.35-3.77c1.12-1.45,2.88-2.38,4.85-2.38,2.77,0,5.11,1.82,5.88,4.34.18.57.27,1.18.27,1.81,0,3.4-2.75,6.15-6.15,6.15s-6.15-2.75-6.15-6.15c0-1.42.48-2.73,1.3-3.77Z"/>
          <circle class="cls-4" cx="101.42" cy="76.28" r="2.5"/>
          <circle class="cls-4" cx="100.83" cy="51.29" r="2.5"/>
          <polygon class="cls-7" points="95.68 142.28 90.78 143.01 97.29 130.57 99.26 132.94 110.93 137.42 112.87 136.55 117.54 138.34 117 139.74 113.42 149.08 112.88 150.48 108.21 148.69 107.35 146.76 95.68 142.28"/>
          <path class="cls-4" d="m101.42,78.78c1.39,0,2.5-1.12,2.5-2.5s-1.11-2.5-2.5-2.5-2.5,1.12-2.5,2.5,1.12,2.5,2.5,2.5Zm-6.25-2.5c0-2.89,1.96-5.32,4.62-6.03.52-.15,1.07-.22,1.63-.22,3.46,0,6.25,2.8,6.25,6.25s-2.79,6.25-6.25,6.25c-.8,0-1.57-.15-2.28-.43-2.32-.91-3.97-3.17-3.97-5.82Z"/>
          <path class="cls-4" d="m94.58,51.29c0-3.46,2.79-6.25,6.25-6.25s6.25,2.79,6.25,6.25-2.8,6.25-6.25,6.25-6.25-2.8-6.25-6.25Zm3.75,0c0,1.38,1.12,2.5,2.5,2.5s2.5-1.12,2.5-2.5-1.12-2.5-2.5-2.5-2.5,1.12-2.5,2.5Z"/>
          <path class="cls-2" d="m94.34,81.45c-1.33.15-2.68-.14-3.83-.82-1.99-1.17-3.09-3.25-3.09-5.4,0-1.07.28-2.16.86-3.15,1.75-2.98,5.58-3.98,8.56-2.23,1-.11,2.01.03,2.95.4-2.66.71-4.62,3.14-4.62,6.03,0,2.65,1.65,4.91,3.97,5.82-1.62.44-3.35.21-4.8-.65Z"/>
          <path class="cls-2" d="m92.88,133.5c0-3.4-2.75-6.15-6.15-6.15-1.34,0-2.59.43-3.6,1.17h0c.04-1.94.98-3.75,2.55-4.88.04-1.94.98-3.74,2.55-4.87,2.76-1.99,6.6-1.37,8.59,1.39,1.98,2.75,1.36,6.59-1.39,8.58-.04,1.94-.98,3.74-2.55,4.87v-.11Z"/>
          <path class="cls-8" d="m87.73,54.94l-.48-.14,4.51-15.09,11.5,3.43c3.53,1.06,5.98,4.26,6.06,7.94l.6,25c.04,1.39-.27,2.77-.9,4.02l-.1-3.85-.6-25.14c-.07-3.25-2.23-6.08-5.35-7.01l-5.34-1.59c-.83-.25-1.72.06-2.22.77l-1.99,2.89c-.54.78-.95,1.64-1.22,2.54l-2.59,8.7c-.38-.98-1.03-1.84-1.88-2.47Z"/>
          <path class="cls-8" d="m90.78,143.01l-13.79,26.34c-.48.93-.85,1.92-1.07,2.94l-9.67,43.12-.16.75-1.81,8.06c-1.45,6.47-7.87,10.54-14.33,9.09-6.47-1.45-10.54-7.87-9.09-14.33l1.58-7.04,10.75-47.98c.23-1.02.59-2.01,1.07-2.94l29.82-56.96c1.57-3,2.35-6.36,2.27-9.75l-.3-12.47-.16-6.57,1.53-.04c0,2.15,1.1,4.23,3.09,5.4,1.15.68,2.5.97,3.83.82,1.45.86,3.18,1.09,4.8.65.71.28,1.48.43,2.28.43,3.46,0,6.25-2.8,6.25-6.25l1.25-.03.1,3.85.55,22.96c.06,2.54-.53,5.06-1.71,7.32l-10.57,20.19-6.51,12.44Zm-14.14,3.83c1.99,2.76,5.83,3.38,8.59,1.39,1.57-1.13,2.51-2.94,2.55-4.87,1.57-1.13,2.51-2.94,2.55-4.88,1.52-1.09,2.51-2.87,2.55-4.87,1.57-1.13,2.51-2.93,2.55-4.87,2.75-1.99,3.37-5.83,1.39-8.58-1.99-2.76-5.83-3.38-8.59-1.39-1.57,1.13-2.51,2.93-2.55,4.87-1.57,1.13-2.51,2.94-2.55,4.87h0c-1.51,1.09-2.51,2.86-2.54,4.87h-.01c-1.57,1.14-2.52,2.94-2.55,4.88-2.76,1.98-3.38,5.83-1.39,8.58Zm-20.07,74.76c0-2.21-1.79-4-4-4s-4,1.79-4,4,1.79,4,4,4,4-1.79,4-4Z"/>
          <polygon class="cls-8" points="85.93 10.31 88.32 11.03 88.66 11.65 84.37 26.02 79.58 24.59 83.44 11.65 85.93 10.31"/>
          <path class="cls-7" d="m87.25,54.8l.48.14c.85.63,1.5,1.49,1.88,2.47.06.16.11.32.16.49l-1.72,5.75c-.13.11-.27.22-.41.31-.85.62-1.86.98-2.92,1.04l-.47-.14,3-10.06Z"/>
          <polygon class="cls-8" points="74.95 78.52 86.97 38.28 91.76 39.71 87.25 54.8 84.25 64.86 79.74 79.95 74.95 78.52"/>
          <circle class="cls-7" cx="86.73" cy="133.5" r="2.5"/>
          <path class="cls-8" d="m100.83,45.04c-3.46,0-6.25,2.79-6.25,6.25s2.79,6.25,6.25,6.25,6.25-2.8,6.25-6.25-2.8-6.25-6.25-6.25Zm-13.41,30.19l-1.53.04-.1-4.25c-.01-.52.06-1.04.21-1.55l1.65-5.5h0c.14-.1.28-.21.41-.32l1.72-5.75c-.05-.17-.1-.33-.16-.49l2.59-8.7c.27-.9.68-1.76,1.22-2.54l1.99-2.89c.5-.71,1.39-1.02,2.22-.77l5.34,1.59c3.12.93,5.28,3.76,5.35,7.01l.6,25.14-1.25.03c0-3.45-2.79-6.25-6.25-6.25-.56,0-1.11.07-1.63.22-.94-.37-1.95-.51-2.95-.4-2.98-1.75-6.81-.75-8.56,2.23-.58.99-.86,2.08-.86,3.15Z"/>
          <path class="cls-8" d="m87.65,63.97l-1.65,5.5c-.15.51-.22,1.03-.21,1.55l.1,4.25.16,6.57-6.31-1.89,4.51-15.09.47.14c1.06-.06,2.07-.42,2.92-1.04h0Z"/>
          <path class="cls-7" d="m86.73,136c1.38,0,2.5-1.12,2.5-2.5s-1.12-2.5-2.5-2.5-2.5,1.12-2.5,2.5,1.12,2.5,2.5,2.5Zm-6.14-2.62c.03-2.01,1.03-3.78,2.54-4.86,1.01-.74,2.26-1.17,3.6-1.17,3.4,0,6.15,2.75,6.15,6.15v.11c-.04,2-1.03,3.78-2.55,4.87-1.01.74-2.26,1.17-3.6,1.17-3.4,0-6.15-2.76-6.15-6.15,0-.04,0-.08.01-.12Z"/>
          <path class="cls-2" d="m80.58,133.5c0,3.39,2.75,6.15,6.15,6.15,1.34,0,2.59-.43,3.6-1.17-.04,1.94-.98,3.75-2.55,4.88-.04,1.93-.98,3.74-2.55,4.87-2.76,1.99-6.6,1.37-8.59-1.39-1.99-2.75-1.37-6.6,1.39-8.58.03-1.94.98-3.74,2.55-4.88h.01s-.01.08-.01.12Z"/>
          <path class="cls-6" d="m78.29,221.6c-1.99,0-3.94-.42-5.72-1.22v-4.48h24.4l-.39,1.07c-.78,2.12-2.4,3.78-4.43,4.63h-13.86Z"/>
          <path class="cls-6" d="m108.7,201.11c-.45,1.95.09,4,1.43,5.49-.41,1.77-.01,3.62,1.09,5.07-.56,1.73-.32,3.61.64,5.15-.71,1.67-.64,3.57.19,5.18-.85,1.61-.94,3.51-.26,5.19-.99,1.52-1.25,3.4-.71,5.14-.82,1.04-1.3,2.35-1.3,3.77,0,3.4,2.76,6.15,6.15,6.15s6.15-2.75,6.15-6.15c0-.63-.09-1.24-.27-1.81,1.35-1.73,1.67-4.05.84-6.08,1.19-1.84,1.31-4.18.31-6.13,1.03-1.94.94-4.28-.22-6.14.85-2.02.56-4.34-.76-6.09.67-2.09.18-4.38-1.29-6.01.75-3.31-1.32-6.61-4.63-7.36-3.31-.76-6.61,1.32-7.36,4.63Zm-38.86,19.85c1.76,2.25,4.58,3.39,7.41,3l12.93-1.82c.69-.09,1.35-.28,1.97-.54,2.03-.85,3.65-2.51,4.43-4.63l.39-1.07,3.72-10.12c.25-.68.65-1.31,1.17-1.82l7.19-7.16c1-.99,2.24-1.7,3.59-2.06,4.28-1.13,8.65,1.42,9.79,5.69l4.11,15.52,6.13,23.14c.22.82.35,1.66.39,2.51.01.19.01.37.01.56v4.44H36.07v-5.25c0-.5.03-1,.09-1.5l2.52-20c.37-2.97,1.69-5.74,3.76-7.91l-1.58,7.04c-1.45,6.46,2.62,12.88,9.09,14.33,6.46,1.45,12.88-2.62,14.33-9.09l1.81-8.06,1.61,2.07.02.02,2.12,2.71Z"/>
          <path class="cls-8" d="m90.18,222.14l-12.93,1.82c-2.83.39-5.65-.75-7.41-3l-2.12-2.71-.02-.02-1.61-2.07.16-.75,2.24,2.19c1.19,1.17,2.58,2.11,4.08,2.78,1.78.8,3.73,1.22,5.72,1.22h13.86c-.62.26-1.28.45-1.97.54Z"/>
          <circle class="cls-6" cx="52.57" cy="221.6" r="4"/>
          <polygon class="cls-8" points="35.94 170.71 79.58 24.59 84.37 26.02 89.16 27.45 89.83 28.7 86.97 38.28 74.95 78.52 72.09 88.1 70.84 88.77 66.06 87.34 40.3 173.58 39.68 173.92 37.28 173.2 35.94 170.71"/>
        </g>
        <g>
          <circle class="cls-1" cx="240.33" cy="192.38" r="5"/>
          <path class="cls-1" d="m107.86,110.38c1.18-2.26,1.77-4.78,1.71-7.32"/>
          <line class="cls-1" x1="242.79" y1="208.31" x2="220.83" y2="218.1"/>
          <line class="cls-1" x1="70.84" y1="88.77" x2="72.09" y2="88.1"/>
          <line class="cls-1" x1="217.61" y1="216.87" x2="220.83" y2="218.1"/>
          <polygon class="cls-1" points="36.07 246.6 33.57 246.6 30.57 249.6 30.57 254.1 31.07 254.6 243.57 254.6 244.07 254.1 244.07 247.2 243.47 246.6 133.07 246.6 36.07 246.6"/>
          <polyline class="cls-1" points="83.06 30.41 84.37 26.02 88.66 11.65"/>
          <line class="cls-1" x1="89.16" y1="27.45" x2="84.37" y2="26.02"/>
          <path class="cls-1" d="m183.25,182.86c-.03.06-.07.1-.1.15-.5.78-.93,1.37-1.35,1.79-.18.19-.36.35-.61.47-.13.07-.29.14-.48.16-.15.02-.31.01-.47-.03-.22-.06-.42-.19-.56-.34-.13-.13-.22-.28-.27-.42-.09-.21-.13-.4-.15-.59-.05-.49-.01-1.03.07-1.72.07-.51.17-1.1.29-1.75.21-1.1.49-2.41.83-3.83.21-.88.43-1.82.67-2.79.12-.49.25-.98.37-1.48.36-1.46.75-2.97,1.11-4.43.16-.64.32-1.28.48-1.9.19-.79.38-1.55.55-2.28.3-1.29.57-2.49.77-3.51.12-.61.22-1.16.29-1.63"/>
          <polyline class="cls-1" points="175.12 163.09 179.07 164.61 180.94 165.33 183.08 166.15"/>
          <line class="cls-1" x1="181.61" y1="203.07" x2="184.86" y2="204.31"/>
          <line class="cls-1" x1="192.13" y1="159.98" x2="192.39" y2="160.08"/>
          <line class="cls-1" x1="88.32" y1="11.03" x2="85.93" y2="10.31"/>
          <polyline class="cls-1" points="85.79 71.02 85.89 75.27 86.05 81.84 86.35 94.31"/>
          <line class="cls-1" x1="109.92" y1="76.08" x2="109.32" y2="51.08"/>
          <line class="cls-1" x1="102.97" y1="44.1" x2="97.63" y2="42.51"/>
          <path class="cls-1" d="m184.69,158.73c-.26.41-.56.89-.89,1.43-.5.84-1.06,1.84-1.65,2.93-.39.71-.8,1.46-1.21,2.23"/>
          <path class="cls-1" d="m88.05,63.65c-.13.11-.27.22-.41.31-.85.62-1.86.98-2.92,1.04"/>
          <path class="cls-1" d="m191.56,203.72l12.51-1.09,32.16-17.7c3.93-2.17,8.87-.9,11.28,2.89.93,1.47,1.36,3.12,1.31,4.74-.03,1.95-.75,3.86-2.05,5.36-.53.62-1.16,1.17-1.88,1.63l-27.28,17.32-11.54,7.33-32,8.57-10.54,2.83-21.39,5.73c-.68.18-1.38.27-2.07.27-2.1,0-4.14-.82-5.66-2.34-3.12-3.13-3.12-8.19,0-11.32l19-19c.95-.95,2.11-1.64,3.38-2.01.51-.15,1.04-.25,1.58-.3l26.49-2.32,6.7-.58"/>
          <line class="cls-1" x1="87.65" y1="63.97" x2="86" y2="69.47"/>
          <polyline class="cls-1" points="103.26 43.14 91.76 39.71 86.97 38.28"/>
          <line class="cls-1" x1="88.66" y1="11.65" x2="88.32" y2="11.03"/>
          <polyline class="cls-1" points="187.39 180.72 194.94 161.05 195.83 158.72"/>
          <line class="cls-1" x1="184.99" y1="187" x2="187.34" y2="180.87"/>
          <line class="cls-1" x1="184.73" y1="187.66" x2="184.98" y2="187"/>
          <line class="cls-1" x1="84.72" y1="65" x2="84.25" y2="64.86"/>
          <line class="cls-1" x1="89.77" y1="57.9" x2="88.05" y2="63.65"/>
          <line class="cls-1" x1="89.16" y1="27.45" x2="89.83" y2="28.7"/>
          <path class="cls-1" d="m97.63,42.51c-.83-.25-1.72.06-2.22.77"/>
          <path class="cls-1" d="m179.07,164.61c.37-.7.74-1.38,1.09-2.02.65-1.21,1.28-2.32,1.83-3.27.57-.96,1.08-1.77,1.53-2.39.46-.64.78-1.09,1.38-1.39.13-.07.27-.12.45-.14.14-.02.31-.02.47.02.22.06.42.19.56.34.13.13.22.28.28.42.08.2.12.39.14.58.06.48.02,1.01-.06,1.68-.06.5-.16,1.09-.28,1.74-.2,1.09-.49,2.4-.82,3.82-.21.9-.44,1.87-.69,2.86l-.36,1.41c-.36,1.46-.74,2.97-1.11,4.43-.17.67-.33,1.33-.49,1.98-.19.76-.37,1.5-.54,2.21-.3,1.29-.57,2.5-.78,3.53-.12.62-.22,1.19-.3,1.68"/>
          <polyline class="cls-1" points="207.68 161.66 196.05 192.02 191.56 203.72 191.56 203.73"/>
          <path class="cls-1" d="m86,69.47c-.15.51-.22,1.03-.21,1.55"/>
          <polyline class="cls-1" points="74.95 78.52 79.74 79.95 86.05 81.84"/>
          <line class="cls-1" x1="85.93" y1="10.31" x2="83.44" y2="11.65"/>
          <line class="cls-1" x1="92.2" y1="48.71" x2="89.61" y2="57.41"/>
          <line class="cls-1" x1="214.53" y1="163.36" x2="215.15" y2="164.51"/>
          <line class="cls-1" x1="87.73" y1="54.94" x2="87.25" y2="54.8"/>
          <polyline class="cls-1" points="132.94 159.61 132.96 159.56 140.4 140.15"/>
          <circle class="cls-1" cx="100.83" cy="51.29" r="2.5"/>
          <path class="cls-1" d="m184.99,187h-.01c-.1.03-.2.04-.31.04s-.23-.02-.34-.07c-.11-.04-.21-.1-.29-.17-.09-.07-.16-.16-.21-.25-.06-.08-.09-.17-.11-.25-.03-.08-.04-.14-.04-.2-.01-.06-.01-.11,0-.15,0-.08.01-.14.01-.19.03-.17.07-.32.12-.52.04-.16.09-.34.16-.55.05-.18.12-.39.19-.62.24-.76.58-1.77.98-2.95.37-1.08.8-2.32,1.26-3.64.45-1.3.94-2.71,1.44-4.12.49-1.4,1-2.84,1.47-4.2.48-1.36.94-2.68,1.35-3.87.41-1.18.77-2.25,1.07-3.14.29-.87.52-1.58.66-2.07h0c.07-.24.12-.43.15-.54.01-.05.02-.09.02-.11"/>
          <path class="cls-1" d="m157.51,164.91c-.38.7-.74,1.38-1.09,2.03-.66,1.2-1.28,2.32-1.84,3.27-.57.96-1.08,1.77-1.52,2.38-.47.65-.79,1.1-1.38,1.39-.13.07-.28.12-.46.14-.14.02-.3.02-.46-.02-.22-.06-.42-.19-.57-.34-.13-.13-.21-.28-.27-.42-.09-.2-.12-.39-.15-.58-.05-.48-.01-1.01.07-1.68.06-.51.16-1.09.28-1.75.2-1.09.49-2.4.82-3.82.21-.9.44-1.86.69-2.85.11-.47.23-.94.35-1.42.37-1.45.75-2.97,1.12-4.43.17-.66.33-1.32.49-1.97.18-.76.36-1.5.53-2.21.31-1.3.58-2.5.78-3.53.13-.62.23-1.19.3-1.68"/>
          <path class="cls-1" d="m159.41,157.07c.38-.71.75-1.41,1.11-2.07.66-1.2,1.28-2.31,1.84-3.25.56-.96,1.07-1.77,1.51-2.38.47-.64.78-1.09,1.39-1.38.13-.06.28-.11.45-.13.14-.02.3-.01.45.03.22.06.42.18.57.33.13.14.21.29.27.42.08.21.12.4.14.59.06.48.02,1.01-.06,1.69-.07.51-.16,1.1-.28,1.75-.21,1.09-.5,2.4-.83,3.82-.21.9-.44,1.85-.68,2.84-.12.47-.24.95-.36,1.44-.37,1.45-.75,2.97-1.12,4.43-.16.65-.32,1.3-.48,1.94-.19.77-.37,1.52-.54,2.24-.31,1.29-.58,2.5-.78,3.52-.12.62-.22,1.18-.3,1.66v.03"/>
          <path class="cls-1" d="m151.51,149.76c.37-.67.72-1.29,1.06-1.85.56-.95,1.06-1.75,1.5-2.35.24-.31.45-.58.66-.8.19-.2.38-.36.63-.5.13-.07.29-.14.49-.17.15-.02.32-.01.49.03.21.06.42.19.56.34.13.13.21.28.27.42.09.2.12.39.14.59.06.48.02,1.02-.07,1.7-.06.51-.16,1.1-.28,1.76-.21,1.09-.49,2.4-.83,3.82-.21.89-.44,1.83-.67,2.81-.13.48-.25.97-.37,1.47-.36,1.45-.75,2.97-1.11,4.43-.16.64-.33,1.28-.48,1.91-.19.78-.38,1.54-.55,2.27-.3,1.29-.57,2.49-.77,3.51-.12.61-.22,1.16-.3,1.64"/>
          <polyline class="cls-1" points="140.69 140.8 137.27 149.72 135.17 155.21 132.33 162.61"/>
          <path class="cls-1" d="m139.25,150.48c.33-.62.65-1.22.96-1.81.68-1.26,1.33-2.45,1.92-3.48.6-1.05,1.15-1.97,1.63-2.69.49-.75.9-1.3,1.33-1.69.16-.15.33-.28.57-.38.12-.06.27-.1.43-.11.14,0,.29,0,.44.04.21.06.41.19.55.34.12.13.21.28.26.42.09.21.12.4.15.6.05.49.01,1.05-.08,1.75-.07.51-.17,1.1-.29,1.76-.21,1.1-.5,2.41-.83,3.84-.28,1.17-.59,2.44-.92,3.75-.04.17-.09.35-.13.53-.37,1.45-.75,2.97-1.11,4.42-.07.27-.14.54-.2.8-.3,1.17-.58,2.31-.83,3.37-.3,1.29-.57,2.49-.77,3.5-.11.59-.21,1.12-.28,1.58"/>
          <path class="cls-1" d="m107.67,76.28c0-3.45-2.79-6.25-6.25-6.25-.56,0-1.11.07-1.63.22-2.66.71-4.62,3.14-4.62,6.03,0,2.65,1.65,4.91,3.97,5.82.71.28,1.48.43,2.28.43,3.46,0,6.25-2.8,6.25-6.25Z"/>
          <polygon class="cls-1" points="153.38 150.48 154.02 150.72 154.31 151.37 153.06 154.64 150.19 162.11 148.94 165.38 148.29 165.66 145.75 164.69 143.88 163.97 143.63 163.87 143.05 162.58 144.5 158.79 146.61 153.3 148.06 149.51 149.35 148.93 151.51 149.76 153.38 150.48"/>
          <path class="cls-1" d="m165.03,151.19c-.26.4-.55.87-.86,1.4-.5.83-1.06,1.83-1.66,2.91-.39.72-.81,1.49-1.23,2.29"/>
          <polyline class="cls-1" points="136.21 138.54 137.28 135.74 136.64 134.61 132.9 133.18 131.67 133.59 127 145.78 124.89 151.28 120.22 163.47 120.86 164.6 124.59 166.03 125.82 165.62 126.9 162.82 136.2 138.54"/>
          <path class="cls-1" d="m138.35,156.43c-.54,1.03-1.08,2.03-1.58,2.96-.66,1.2-1.28,2.32-1.84,3.27-.57.96-1.08,1.77-1.52,2.38-.47.65-.79,1.1-1.38,1.4-.13.07-.28.12-.46.15-.14.02-.31.01-.47-.03-.22-.05-.42-.18-.57-.33-.13-.14-.21-.28-.27-.42-.09-.21-.12-.39-.14-.59-.04-.35-.03-.73.01-1.17.01-.16.03-.32.05-.5.06-.51.15-1.09.28-1.74.2-1.09.49-2.4.82-3.82.31-1.33.67-2.79,1.04-4.27.21-.83.42-1.67.63-2.51"/>
          <path class="cls-1" d="m169.24,160.84c.37-.7.74-1.39,1.1-2.04.65-1.2,1.28-2.32,1.83-3.26.57-.96,1.08-1.77,1.52-2.38.47-.65.79-1.1,1.39-1.4.12-.06.27-.11.45-.13.14-.02.3-.02.46.03.22.05.42.18.56.33.13.13.22.28.28.42.08.2.12.39.14.59.06.47.02,1-.06,1.68-.06.5-.16,1.09-.28,1.74-.21,1.09-.49,2.4-.83,3.82-.21.9-.44,1.86-.69,2.85-.11.47-.23.95-.35,1.43-.36,1.45-.75,2.97-1.11,4.43-.16.66-.33,1.32-.49,1.96-.19.76-.37,1.51-.54,2.22-.3,1.29-.57,2.5-.78,3.52-.12.63-.22,1.19-.3,1.68"/>
          <polyline class="cls-1" points="182.83 184.26 183.31 183 191.65 161.24 192.13 159.98"/>
          <path class="cls-1" d="m191.5,161.31s.01-.02.01-.02c.35-.79.63-1.4.83-1.81.1-.19.18-.33.27-.48.03-.05.07-.1.13-.17.04-.05.09-.11.18-.17.04-.04.1-.07.16-.1.08-.04.17-.08.27-.1.1-.01.21-.02.31-.01.11.02.23.05.33.1s.19.12.27.2.14.17.19.26c.04.08.06.17.08.24s.02.13.02.18c.01.06.01.11,0,.15,0,.09-.01.16-.03.23-.03.2-.09.42-.18.72-.02.08-.05.17-.08.26-.1.32-.22.72-.36,1.17-.27.83-.63,1.88-1.04,3.07-.38,1.13-.83,2.42-1.3,3.76s-.97,2.76-1.46,4.17-1,2.83-1.46,4.17c-.45,1.27-.87,2.5-1.25,3.59-.02.05-.03.1-.05.15"/>
          <circle class="cls-1" cx="101.42" cy="76.28" r="2.5"/>
          <path class="cls-1" d="m94.34,81.45c-1.33.15-2.68-.14-3.83-.82-1.99-1.17-3.09-3.25-3.09-5.4,0-1.07.28-2.16.86-3.15,1.75-2.98,5.58-3.98,8.56-2.23"/>
          <polyline class="cls-1" points="185.68 175.71 188.54 168.24 191.13 161.47"/>
          <line class="cls-1" x1="183.08" y1="182.48" x2="185.67" y2="175.71"/>
          <path class="cls-1" d="m93.42,46.17c-.54.78-.95,1.64-1.22,2.54"/>
          <line class="cls-1" x1="197.5" y1="158.82" x2="198.79" y2="158.25"/>
          <path class="cls-1" d="m134.82,151.93c-.38,1.49-.76,2.99-1.1,4.4-.28,1.14-.54,2.24-.76,3.23-.05.21-.1.42-.14.62-.2.91-.37,1.73-.49,2.43"/>
          <line class="cls-1" x1="215.15" y1="164.52" x2="203.51" y2="194.88"/>
          <path class="cls-1" d="m163.42,158.61c.19-.77.37-1.51.54-2.22.3-1.3.57-2.51.78-3.53.12-.62.22-1.18.29-1.67"/>
          <path class="cls-1" d="m167.34,168.68c-.38.71-.75,1.4-1.11,2.05-.65,1.2-1.27,2.32-1.83,3.26-.57.96-1.08,1.77-1.52,2.38-.47.64-.78,1.09-1.39,1.39-.12.06-.27.11-.44.13-.15.02-.31.02-.46-.03-.22-.05-.43-.18-.57-.33-.13-.13-.21-.28-.27-.42-.09-.2-.12-.39-.15-.59-.05-.47-.01-1.01.07-1.68.06-.51.16-1.09.28-1.75.2-1.09.49-2.4.82-3.82.22-.9.45-1.86.69-2.84.12-.47.24-.95.36-1.43.36-1.46.74-2.97,1.11-4.43.16-.66.33-1.32.48-1.96"/>
          <line class="cls-1" x1="145.37" y1="152.82" x2="146.61" y2="153.3"/>
          <line class="cls-1" x1="195.83" y1="158.72" x2="197.32" y2="159.29"/>
          <polyline class="cls-1" points="109.57 103.06 109.02 80.1 108.92 76.25 108.32 51.11"/>
          <line class="cls-1" x1="214.53" y1="163.36" x2="208.93" y2="161.21"/>
          <polyline class="cls-1" points="191.13 161.47 191.5 161.31 191.65 161.24"/>
          <line class="cls-1" x1="207.68" y1="161.66" x2="198.79" y2="158.25"/>
          <polyline class="cls-1" points="203.51 194.88 196.05 192.02 196.04 192.02"/>
          <line class="cls-1" x1="194.26" y1="160.79" x2="194.94" y2="161.05"/>
          <line class="cls-1" x1="184.95" y1="166.86" x2="188.54" y2="168.24"/>
          <polyline class="cls-1" points="89.83 28.7 86.97 38.28 74.95 78.52 72.09 88.1"/>
          <path class="cls-1" d="m109.32,51.08c-.08-3.68-2.53-6.88-6.06-7.94"/>
          <path class="cls-1" d="m181.37,182.1c.26-.4.55-.87.86-1.39.38-.62.78-1.34,1.21-2.11.17-.29.33-.59.49-.88.12-.22.24-.43.36-.64.13-.23.25-.46.38-.69.16-.29.33-.58.49-.88"/>
          <polyline class="cls-1" points="181.04 201.78 186.23 188.24 197.32 159.29 197.5 158.82"/>
          <polyline class="cls-1" points="207.68 161.66 207.69 161.65 208.93 161.21"/>
          <polyline class="cls-1" points="182.99 174.68 185.16 175.51 185.67 175.71 185.68 175.71"/>
          <path class="cls-1" d="m109.02,80.1c.63-1.25.94-2.63.9-4.02"/>
          <path class="cls-1" d="m99.14,82.1c-1.62.44-3.35.21-4.8-.65"/>
          <polyline class="cls-1" points="183.08 182.48 183.25 182.85 183.25 182.86 183.31 183"/>
          <line class="cls-1" x1="184.73" y1="187.66" x2="186.23" y2="188.24"/>
          <line class="cls-1" x1="182.83" y1="184.26" x2="183.97" y2="184.69"/>
          <path class="cls-1" d="m96.84,69.85c1-.11,2.01.03,2.95.4"/>
          <line class="cls-1" x1="95.41" y1="43.28" x2="93.42" y2="46.17"/>
          <path class="cls-1" d="m87.73,54.94c.85.63,1.5,1.49,1.88,2.47.06.16.11.32.16.49"/>
          <line class="cls-1" x1="254.49" y1="208.51" x2="261.65" y2="189.84"/>
          <path class="cls-1" d="m84.08,104.06c1.57-3,2.35-6.36,2.27-9.75"/>
          <line class="cls-1" x1="261.65" y1="189.84" x2="260.5" y2="187.26"/>
          <line class="cls-1" x1="101.86" y1="203.96" x2="109.05" y2="196.8"/>
          <path class="cls-1" d="m90.18,222.14c.69-.09,1.35-.28,1.97-.54,2.03-.85,3.65-2.51,4.43-4.63"/>
          <polyline class="cls-1" points="53.19 163.96 42.44 211.94 40.86 218.98"/>
          <line class="cls-1" x1="116.41" y1="150.23" x2="115.71" y2="150.79"/>
          <path class="cls-1" d="m109.05,196.8c1-.99,2.24-1.7,3.59-2.06,4.28-1.13,8.65,1.42,9.79,5.69"/>
          <path class="cls-1" d="m95.43,128.74c-.04,1.94-.98,3.74-2.55,4.87"/>
          <polyline class="cls-1" points="122.43 200.43 126.54 215.95 132.67 239.09"/>
          <path class="cls-1" d="m111.08,232.33c-.82,1.04-1.3,2.35-1.3,3.77,0,3.4,2.76,6.15,6.15,6.15s6.15-2.75,6.15-6.15c0-.63-.09-1.24-.27-1.81-.77-2.52-3.11-4.34-5.88-4.34-1.97,0-3.73.93-4.85,2.38Z"/>
          <circle class="cls-1" cx="159.07" cy="214.6" r="4.75"/>
          <path class="cls-1" d="m121.81,234.29c1.35-1.73,1.67-4.05.84-6.08"/>
          <line class="cls-1" x1="117" y1="139.74" x2="117.69" y2="139.18"/>
          <line class="cls-1" x1="95.68" y1="142.28" x2="107.35" y2="146.76"/>
          <line class="cls-1" x1="143.93" y1="158.57" x2="144.5" y2="158.79"/>
          <polyline class="cls-1" points="117.54 138.34 117 139.74 113.42 149.08 112.88 150.48"/>
          <line class="cls-1" x1="174.07" y1="241.2" x2="174.07" y2="232.77"/>
          <path class="cls-1" d="m122.65,228.21c1.19-1.84,1.31-4.18.31-6.13"/>
          <line class="cls-1" x1="67.72" y1="218.25" x2="69.84" y2="220.96"/>
          <line class="cls-1" x1="66.09" y1="216.16" x2="67.7" y2="218.23"/>
          <path class="cls-1" d="m90.33,138.48c-.04,1.94-.98,3.75-2.55,4.88"/>
          <line class="cls-1" x1="119.85" y1="140.01" x2="117.69" y2="139.18"/>
          <line class="cls-1" x1="133.07" y1="242.16" x2="133.07" y2="246.6"/>
          <polyline class="cls-1" points="153.5 163.37 155.64 164.19 157.51 164.91 161.46 166.43"/>
          <path class="cls-1" d="m132.67,239.09c.22.82.35,1.66.39,2.51.01.19.01.37.01.56"/>
          <path class="cls-1" d="m76.99,169.35c-.48.93-.85,1.92-1.07,2.94"/>
          <line class="cls-1" x1="115.71" y1="150.79" x2="113.56" y2="149.96"/>
          <line class="cls-1" x1="99.26" y1="132.94" x2="97.29" y2="130.57"/>
          <line class="cls-1" x1="37.28" y1="173.2" x2="39.68" y2="173.92"/>
          <polyline class="cls-1" points="117.15 148.31 119.25 142.81 119.99 140.89"/>
          <line class="cls-1" x1="116.41" y1="150.23" x2="117.14" y2="148.31"/>
          <path class="cls-1" d="m68.49,217.6c1.19,1.17,2.58,2.11,4.08,2.78,1.78.8,3.73,1.22,5.72,1.22"/>
          <path class="cls-1" d="m85.68,123.64c.04-1.94.98-3.74,2.55-4.87,2.76-1.99,6.6-1.37,8.59,1.39,1.98,2.75,1.36,6.59-1.39,8.58"/>
          <path class="cls-1" d="m142.05,167.02c.28-.42.59-.91.92-1.47.28-.48.59-1.01.91-1.58"/>
          <polyline class="cls-1" points="96.58 216.97 96.97 215.9 100.69 205.78"/>
          <path class="cls-1" d="m121.98,209.85c.67-2.09.18-4.38-1.29-6.01"/>
          <path class="cls-1" d="m54.26,161.02c-.48.93-.84,1.92-1.07,2.94"/>
          <line class="cls-1" x1="36.16" y1="239.85" x2="38.68" y2="219.85"/>
          <path class="cls-1" d="m111.79,227.19c-.99,1.52-1.25,3.4-.71,5.14"/>
          <line class="cls-1" x1="68.49" y1="217.6" x2="66.25" y2="215.41"/>
          <path class="cls-1" d="m110.13,206.6c-.41,1.77-.01,3.62,1.09,5.07"/>
          <line class="cls-1" x1="40.3" y1="173.58" x2="39.68" y2="173.92"/>
          <path class="cls-1" d="m40.86,218.98c-1.45,6.46,2.62,12.88,9.09,14.33,6.46,1.45,12.88-2.62,14.33-9.09"/>
          <line class="cls-1" x1="107.35" y1="146.76" x2="108.21" y2="148.69"/>
          <path class="cls-1" d="m122.96,222.08c1.03-1.94.94-4.28-.22-6.14"/>
          <line class="cls-1" x1="153.06" y1="154.64" x2="153.59" y2="154.84"/>
          <polyline class="cls-1" points="117.14 148.31 117.15 148.31 124.89 151.28"/>
          <path class="cls-1" d="m120.69,203.84c.75-3.31-1.32-6.61-4.63-7.36-3.31-.76-6.61,1.32-7.36,4.63-.45,1.95.09,4,1.43,5.49"/>
          <line class="cls-1" x1="95.68" y1="142.28" x2="90.78" y2="143.01"/>
          <circle class="cls-1" cx="115.93" cy="236.1" r="2.5"/>
          <line class="cls-1" x1="110.93" y1="137.42" x2="112.87" y2="136.55"/>
          <line class="cls-1" x1="112.87" y1="136.55" x2="117.54" y2="138.34"/>
          <line class="cls-1" x1="119.99" y1="140.89" x2="119.85" y2="140.01"/>
          <line class="cls-1" x1="37.28" y1="173.2" x2="35.94" y2="170.71"/>
          <path class="cls-1" d="m112.05,222c-.85,1.61-.94,3.51-.26,5.19"/>
          <line class="cls-1" x1="72.57" y1="215.9" x2="72.57" y2="220.38"/>
          <path class="cls-1" d="m111.22,211.67c-.56,1.73-.32,3.61.64,5.15"/>
          <path class="cls-1" d="m111.86,216.82c-.71,1.67-.64,3.57.19,5.18"/>
          <line class="cls-1" x1="126.9" y1="162.82" x2="130.12" y2="164.05"/>
          <line class="cls-1" x1="113.42" y1="149.08" x2="113.56" y2="149.96"/>
          <line class="cls-1" x1="159.87" y1="239.26" x2="163.53" y2="235.6"/>
          <circle class="cls-1" cx="140.07" cy="233.6" r="4.75"/>
          <polyline class="cls-1" points="135.17 155.21 138.35 156.43 142.05 157.86 142.06 157.86"/>
          <path class="cls-1" d="m78.03,138.26c.03-1.94.98-3.74,2.55-4.88"/>
          <line class="cls-1" x1="174.07" y1="241.2" x2="156.71" y2="241.2"/>
          <line class="cls-1" x1="156.78" y1="206.93" x2="126.54" y2="215.95"/>
          <path class="cls-1" d="m177.17,172.45c-.39.72-.76,1.42-1.12,2.08-.66,1.2-1.28,2.31-1.84,3.26s-1.07,1.76-1.51,2.36c-.47.65-.78,1.09-1.4,1.39-.12.05-.27.1-.44.12-.14.02-.3.01-.45-.03-.22-.06-.42-.19-.56-.33-.13-.14-.21-.29-.27-.43-.09-.2-.12-.39-.15-.58-.05-.48-.01-1.02.07-1.7.06-.51.16-1.09.28-1.75.21-1.09.5-2.4.83-3.82.21-.89.44-1.85.68-2.83.12-.48.24-.96.36-1.45.37-1.45.75-2.97,1.12-4.43.16-.65.32-1.3.48-1.93.19-.77.37-1.53.54-2.25.31-1.29.58-2.49.78-3.52.12-.61.22-1.17.29-1.65"/>
          <polyline class="cls-1" points="155.46 155.56 159.41 157.07 161.28 157.79 163.41 158.61 163.42 158.61"/>
          <path class="cls-1" d="m161.69,174.6s.02-.03.02-.04c.27-.4.56-.87.87-1.4.5-.84,1.07-1.84,1.66-2.92.39-.72.81-1.49,1.23-2.28"/>
          <path class="cls-1" d="m83.13,128.51c.04-1.93.98-3.74,2.55-4.87"/>
          <line class="cls-1" x1="99.26" y1="132.94" x2="110.93" y2="137.42"/>
          <circle class="cls-1" cx="86.73" cy="133.5" r="2.5"/>
          <line class="cls-1" x1="77.25" y1="223.96" x2="90.18" y2="222.14"/>
          <path class="cls-1" d="m174.86,154.96c-.26.4-.56.88-.87,1.41-.5.84-1.06,1.84-1.66,2.92-.39.72-.8,1.48-1.22,2.27"/>
          <line class="cls-1" x1="119.25" y1="142.81" x2="127" y2="145.78"/>
          <line class="cls-1" x1="108.21" y1="148.69" x2="112.88" y2="150.48"/>
          <path class="cls-1" d="m154.21,241.6c.86,0,1.7-.14,2.5-.4,1.18-.39,2.27-1.05,3.16-1.94"/>
          <path class="cls-1" d="m155.2,147.42c-.26.4-.55.87-.86,1.39-.3.5-.62,1.07-.96,1.67"/>
          <line class="cls-1" x1="136.88" y1="138.8" x2="137.16" y2="138.9"/>
          <polyline class="cls-1" points="136.2 138.54 136.21 138.54 136.88 138.79"/>
          <path class="cls-1" d="m136.88,138.8h0c.09-.21.17-.38.25-.52.09-.18.16-.32.25-.46.04-.05.07-.1.13-.17.04-.05.09-.1.17-.16.04-.03.09-.07.15-.1.08-.04.18-.07.28-.09.09-.02.2-.03.3-.02.11.01.23.04.33.09s.2.12.28.2c.08.07.14.16.19.25.04.09.07.17.09.25,0,.07.02.13.02.18.01.06,0,.11,0,.15,0,.09-.01.15-.02.22-.04.19-.09.39-.17.67-.03.1-.06.21-.1.33-.09.31-.21.69-.35,1.12-.27.83-.62,1.88-1.03,3.07-.39,1.13-.83,2.41-1.3,3.76-.49,1.39-1.01,2.89-1.53,4.36"/>
          <line class="cls-1" x1="181.04" y1="201.78" x2="181.61" y2="203.07"/>
          <path class="cls-1" d="m122.74,215.94c.85-2.02.56-4.34-.76-6.09"/>
          <polyline class="cls-1" points="64.28 224.22 66.09 216.16 66.25 215.41 75.92 172.29"/>
          <path class="cls-1" d="m171.54,178.33c.26-.4.56-.87.87-1.39.5-.84,1.06-1.84,1.65-2.92.4-.72.81-1.49,1.24-2.29"/>
          <polyline class="cls-1" points="163.33 167.14 165.47 167.96 167.34 168.68 171.29 170.19"/>
          <polyline class="cls-1" points="165.29 159.33 169.24 160.84 169.24 160.85 171.11 161.56 173.25 162.38"/>
          <polyline class="cls-1" points="173.16 170.91 175.3 171.73 177.17 172.45 181.12 173.96"/>
          <path class="cls-1" d="m151.88,170.79c.27-.4.57-.88.89-1.42.5-.84,1.06-1.84,1.65-2.92.39-.72.8-1.47,1.22-2.25"/>
          <polyline class="cls-1" points="133.06 241.6 140.07 241.6 154.21 241.6"/>
          <line class="cls-1" x1="156.79" y1="206.93" x2="156.78" y2="206.93"/>
          <polyline class="cls-1" points="137.27 149.72 139.25 150.48 141.12 151.2 143.5 152.11"/>
          <line class="cls-1" x1="139.03" y1="139.62" x2="140.4" y2="140.15"/>
          <line class="cls-1" x1="96.97" y1="215.9" x2="72.57" y2="215.9"/>
          <path class="cls-1" d="m92.88,133.61v-.11c0-3.4-2.75-6.15-6.15-6.15-1.34,0-2.59.43-3.6,1.17-1.51,1.08-2.51,2.85-2.54,4.86-.01.04-.01.08-.01.12,0,3.39,2.75,6.15,6.15,6.15,1.34,0,2.59-.43,3.6-1.17,1.52-1.09,2.51-2.87,2.55-4.87Z"/>
          <line class="cls-1" x1="92.15" y1="221.6" x2="78.29" y2="221.6"/>
          <path class="cls-1" d="m87.78,143.36c-.04,1.93-.98,3.74-2.55,4.87-2.76,1.99-6.6,1.37-8.59-1.39-1.99-2.75-1.37-6.6,1.39-8.58"/>
          <line class="cls-1" x1="150.19" y1="162.11" x2="151.63" y2="162.66"/>
          <path class="cls-1" d="m145.75,164.69c-.35.62-.68,1.21-.99,1.74-.57.96-1.08,1.77-1.53,2.38-.46.65-.78,1.1-1.38,1.4-.13.07-.27.12-.45.15-.15.02-.31.01-.47-.03-.22-.06-.42-.19-.57-.33-.13-.14-.21-.29-.27-.42-.09-.21-.12-.4-.15-.59-.05-.47,0-1,.07-1.67.06-.51.16-1.1.28-1.75.2-1.09.49-2.4.82-3.82.28-1.22.61-2.54.94-3.89.04-.12.07-.25.1-.38.37-1.45.75-2.97,1.12-4.43.08-.32.16-.63.23-.94.28-1.13.55-2.22.79-3.24.31-1.3.58-2.51.78-3.53.13-.63.23-1.19.3-1.68"/>
          <path class="cls-1" d="m132.95,151.21c.5-1.42,1.01-2.87,1.48-4.23.47-1.32.91-2.59,1.29-3.71.39-1.12.72-2.12.98-2.91.19-.59.35-1.09.46-1.46"/>
          <line class="cls-1" x1="140.69" y1="140.8" x2="140.4" y2="140.15"/>
          <polyline class="cls-1" points="67.7 218.23 67.72 218.25 67.79 218.31"/>
          <path class="cls-1" d="m36.07,241.35c0-.5.03-1,.09-1.5"/>
          <path class="cls-1" d="m38.68,219.85c.37-2.97,1.69-5.74,3.76-7.91"/>
          <path class="cls-1" d="m69.84,220.96c1.76,2.25,4.58,3.39,7.41,3"/>
          <circle class="cls-1" cx="52.57" cy="221.6" r="4"/>
          <line class="cls-1" x1="36.07" y1="241.35" x2="36.07" y2="246.6"/>
          <path class="cls-1" d="m145.37,143.66c-.26.39-.55.86-.86,1.38-.49.84-1.05,1.83-1.65,2.91-.55,1.01-1.14,2.11-1.74,3.24"/>
          <path class="cls-1" d="m100.69,205.78c.25-.68.65-1.31,1.17-1.82"/>
          <line class="cls-1" x1="252.81" y1="182.17" x2="251.09" y2="178.29"/>
          <circle class="cls-1" cx="100.83" cy="51.29" r="6.25"/>
          <line class="cls-1" x1="251.81" y1="184.78" x2="252.84" y2="184.32"/>
          <line class="cls-1" x1="215.15" y1="164.52" x2="251.09" y2="178.29"/>
          <polyline class="cls-1" points="248.83 192.56 251.81 184.78 252.81 182.17"/>
          <path class="cls-1" d="m108.32,51.11c-.07-3.25-2.23-6.08-5.35-7.01"/>
          <line class="cls-1" x1="252.84" y1="184.32" x2="260.5" y2="187.26"/>
          <polyline class="cls-1" points="91.76 39.71 87.25 54.8 84.25 64.86 79.74 79.95"/>
          <polyline class="cls-1" points="242.79 208.31 243.79 205.7 246.77 197.92"/>
          <polyline class="cls-1" points="76.99 169.35 90.78 143.01 97.29 130.57 107.86 110.38"/>
          <line class="cls-1" x1="84.08" y1="104.06" x2="54.26" y2="161.02"/>
          <polyline class="cls-1" points="83.44 11.65 79.58 24.59 35.94 170.71"/>
          <polyline class="cls-1" points="40.3 173.58 66.06 87.34 67.37 82.95"/>
          <line class="cls-1" x1="243.79" y1="205.7" x2="244.25" y2="206.72"/>
          <polyline class="cls-1" points="66.05 87.34 66.06 87.34 70.84 88.77"/>
          <line class="cls-1" x1="254.49" y1="208.51" x2="251.92" y2="209.66"/>
          <line class="cls-1" x1="251.92" y1="209.66" x2="244.25" y2="206.72"/>
        </g>
      </g>
    </g>
  </g>
</svg>