<?xml version="1.0" encoding="UTF-8"?>
<svg xmlns="http://www.w3.org/2000/svg" viewBox="0 0 244 256">
  <defs>
    <style>
      .cls-1 {
        fill: #fff;
      }

      .cls-2 {
        stroke: #000;
      }

      .cls-2, .cls-3 {
        fill: none;
        stroke-linecap: round;
        stroke-linejoin: round;
        stroke-width: .71px;
      }

      .cls-4 {
        fill: #e84e0f;
      }

      .cls-3 {
        stroke: #e84e0f;
      }

      .cls-5 {
        fill: #999;
      }

      .cls-6 {
        fill: #ccc;
      }

      .cls-7 {
        fill: #666;
      }
    </style>
  </defs>
  <g id="Light">
    <g id="LINE">
      <g>
        <g>
          <path class="cls-7" d="m41.3,63.08c.31.02.59.02.85.03.26,0,.5,0,.73-.01h.15c.05,0,.1,0,.15-.01.17,0,.35-.01.53-.02-.28.67-.43,1.39-.43,2.16,0,1.45.55,2.78,1.46,3.77h0c-.34.04-.67.06-1,.08-.18,0-.35.01-.52.02-.17,0-.34,0-.52.01-.54,0-1.12-.01-1.68-.03-1.65-.09-2.93-1.49-2.85-3.15.08-1.65,1.49-2.93,3.14-2.85Z"/>
          <circle class="cls-6" cx="99.63" cy="232.52" r="2.76"/>
          <path class="cls-6" d="m102.39,232.52c0-1.52-1.24-2.76-2.76-2.76s-2.76,1.24-2.76,2.76,1.23,2.76,2.76,2.76,2.76-1.23,2.76-2.76Zm1.08-4.14c1.12,1.04,1.81,2.51,1.81,4.14,0,3.12-2.53,5.65-5.65,5.65s-5.65-2.53-5.65-5.65c0-2.39,1.49-4.44,3.59-5.26.64-.25,1.33-.39,2.06-.39,1.49,0,2.84.57,3.84,1.51Z"/>
          <path class="cls-6" d="m33.22,50.17l-.29,6c-.1.14-.21.28-.32.41-.69.79-1.58,1.38-2.59,1.7l-.5-.03.51-10.48.5.02c.97.41,1.81,1.08,2.41,1.94.1.14.19.29.28.44Z"/>
          <circle class="cls-6" cx="42.37" cy="41.11" r="2.76"/>
          <path class="cls-6" d="m42.37,35.46c3.12,0,5.65,2.53,5.65,5.65s-2.53,5.65-5.65,5.65-5.65-2.53-5.65-5.65,2.53-5.65,5.65-5.65Zm2.76,5.65c0-1.53-1.23-2.76-2.76-2.76s-2.76,1.23-2.76,2.76,1.24,2.76,2.76,2.76,2.76-1.24,2.76-2.76Z"/>
          <circle class="cls-6" cx="48.93" cy="65.23" r="2.76"/>
          <path class="cls-6" d="m48.93,59.58c3.12,0,5.65,2.53,5.65,5.65s-2.53,5.65-5.65,5.65c-1.67,0-3.17-.72-4.19-1.88-.91-.99-1.46-2.32-1.46-3.77,0-.77.15-1.49.43-2.16.85-2.05,2.87-3.49,5.22-3.49Zm0,8.41c1.53,0,2.76-1.23,2.76-2.76s-1.23-2.76-2.76-2.76-2.76,1.24-2.76,2.76,1.24,2.76,2.76,2.76Z"/>
          <path class="cls-6" d="m50.18,129.65c-.24,1-.49,2.03-.83,3.4-.11.45-.21.85-.3,1.23-2.08.14-4.15-.36-5.93-1.45.1-.38.2-.79.31-1.24.33-1.37.58-2.39.83-3.39,1.03,1.08,2.48,1.75,4.09,1.75.64,0,1.25-.11,1.83-.3Z"/>
          <circle class="cls-6" cx="48.35" cy="124.3" r="2.76"/>
          <path class="cls-6" d="m48.35,127.06c1.53,0,2.76-1.23,2.76-2.76s-1.23-2.76-2.76-2.76-2.76,1.24-2.76,2.76,1.24,2.76,2.76,2.76Zm-5.65-2.76c0-.78.16-1.52.44-2.2.63-1.47,1.86-2.63,3.39-3.15.57-.19,1.18-.3,1.82-.3,1.62,0,3.07.68,4.1,1.76.71.75,1.22,1.7,1.44,2.75.07.37.11.75.11,1.14,0,2.48-1.6,4.59-3.82,5.35-.58.19-1.19.3-1.83.3-1.61,0-3.06-.67-4.09-1.75-.97-1.02-1.56-2.39-1.56-3.9Z"/>
          <path class="cls-6" d="m47.66,114.33c1.71-.12,3.42.2,4.96.93l.98.46c-.09.39-.2.82-.32,1.3-.33,1.37-.58,2.39-.83,3.39-1.03-1.08-2.48-1.76-4.1-1.76-.64,0-1.25.11-1.82.3.24-1,.49-2.02.83-3.38.11-.45.21-.86.3-1.24Z"/>
          <polygon class="cls-6" points="79.02 125.57 78.53 118.66 78.42 117.13 78.81 116.32 81.11 116.16 81.61 116.9 81.66 117.56 81.76 118.95 81.97 121.88 82.18 124.82 82.28 126.2 82.33 126.87 81.94 127.67 79.64 127.84 79.14 127.1 79.13 127.1 79.02 125.57"/>
          <polygon class="cls-6" points="73.32 115.99 78.31 115.63 78.42 117.13 78.53 118.66 79.02 125.57 79.13 127.1 79.24 128.6 74.26 128.96 72.65 127.57 60.18 128.47 54.68 132.11 58.17 117.88 59.47 118.49 71.93 117.59 73.32 115.99"/>
          <path class="cls-6" d="m143.38,132.32c-.07.06-.16.11-.26.15s-.21.07-.32.07c-.12,0-.23-.01-.34-.04-.1-.03-.2-.08-.28-.13,0,0-.03-.31-.07-.92-.05-.67-.12-1.69-.22-3-.09-1.31-.2-2.89-.33-4.64-.05-.71-.1-1.45-.16-2.2-.02-.27-.04-.54-.06-.82-.07-1.04-.15-2.1-.23-3.17l1-.07c.13,1.34.27,2.7.4,3.98l.83-.06c.08.44.17.88.25,1.3h0c.05,1.3.1,2.52.14,3.6.04,1.16.07,2.18.08,2.98.02.81.02,1.42,0,1.83-.01.16-.02.29-.04.44-.01.04-.02.09-.04.15-.01.05-.03.1-.06.16-.02.05-.05.11-.09.17-.05.07-.12.15-.2.22Z"/>
          <path class="cls-6" d="m148.81,128.31c-.11.97-.22,1.76-.37,2.36-.08.32-.17.59-.32.85-.08.15-.19.3-.36.44-.13.11-.31.2-.51.25-.21.04-.44.03-.62-.04-.17-.05-.31-.14-.41-.23-.15-.12-.25-.25-.34-.38-.19-.29-.33-.61-.48-1-.3-.83-.61-2.03-.94-3.5-.26-1.19-.55-2.58-.83-4.07-.01-.07-.03-.14-.04-.21h0c-.08-.43-.17-.87-.25-1.31-.18-.94-.36-1.91-.53-2.88-.07-.35-.13-.71-.2-1.07-.13-1.35-.27-2.71-.4-3.99l-1.02.07c-.01-.2-.02-.39-.02-.58-.06-1.41-.12-2.76-.16-3.94-.04-1.19-.07-2.24-.09-3.09-.02-.86-.03-1.51-.01-1.96,0-.2.01-.36.04-.52,0-.06.01-.13.04-.21.02-.06.04-.13.08-.22.03-.05.06-.1.1-.15.06-.07.13-.15.21-.21s.17-.11.27-.14c.1-.04.22-.06.33-.05.12,0,.23.02.34.05.1.04.2.09.28.16.07.05.14.12.18.18.05.06.08.11.1.15l.07.14c.03.08.05.14.06.21.06.19.09.39.14.67.06.39.13.89.21,1.52.11.86.23,1.96.37,3.21.12,1.19.27,2.54.41,3.95.02.2.04.41.06.62.13,1.29.27,2.64.41,3.98.24,1.34.49,2.69.73,3.96.03.17.06.33.09.49.26,1.39.52,2.72.77,3.88.21.99.41,1.88.61,2.61.01-.14.03-.29.04-.44.09-.87.16-1.91.23-3.05.07-1.11.13-2.35.18-3.63l2-.14c-.06,1.36-.12,2.68-.19,3.87-.08,1.28-.16,2.43-.26,3.39Z"/>
          <path class="cls-6" d="m150.02,105.88c-.07.68-.14,1.49-.2,2.39-.08,1.11-.15,2.38-.21,3.72-.01.34-.03.67-.04,1.01h0s-2,.15-2,.15c.02-.39.03-.77.05-1.14.06-1.41.13-2.75.22-3.93.08-1.19.17-2.23.28-3.07.12-.87.24-1.51.45-2.04.07-.19.16-.37.32-.56.08-.1.19-.2.32-.28.11-.06.24-.12.38-.14.2-.05.43-.03.61.03.17.06.3.15.41.24.15.12.25.25.34.38.19.29.33.6.47,1,.31.83.62,2.02.95,3.5.26,1.18.54,2.58.83,4.06.1.49.19,1,.29,1.52.17.94.35,1.91.53,2.88.27,1.48.55,3,.82,4.44.04.2.07.4.11.6.23,1.22.46,2.39.67,3.45.25,1.23.5,2.33.72,3.23.03.1.05.2.08.3.07-.68.14-1.49.2-2.38.08-1.12.15-2.39.21-3.73.01-.33.03-.67.04-1.01l2-.14c-.06,1.36-.12,2.69-.19,3.88-.08,1.27-.16,2.42-.26,3.38-.1.98-.22,1.76-.37,2.36-.08.32-.17.59-.32.85-.08.15-.19.3-.36.44-.13.11-.31.2-.51.25-.2.04-.43.02-.62-.04-.17-.06-.31-.14-.41-.23-.15-.13-.25-.25-.34-.38-.19-.29-.33-.61-.47-1.01-.31-.82-.62-2.02-.95-3.49-.26-1.19-.54-2.58-.83-4.07-.1-.49-.19-1-.29-1.52-.17-.93-.35-1.91-.53-2.88-.27-1.48-.55-3-.82-4.44-.04-.2-.07-.4-.11-.59-.22-1.22-.45-2.4-.67-3.46-.25-1.22-.5-2.33-.72-3.22-.03-.11-.05-.21-.08-.31Z"/>
          <path class="cls-6" d="m168.03,126.91c-.1.98-.22,1.77-.37,2.37-.08.32-.16.59-.32.86-.08.14-.18.29-.36.43-.13.11-.3.21-.5.25-.21.05-.44.03-.63-.03-.17-.06-.3-.15-.41-.24-.15-.12-.25-.25-.34-.38-.19-.29-.33-.6-.47-1-.31-.83-.62-2.03-.95-3.5-.26-1.19-.54-2.58-.83-4.07-.1-.49-.19-.99-.29-1.51-.17-.94-.35-1.91-.53-2.89-.27-1.48-.55-3-.82-4.44-.04-.2-.07-.4-.11-.59-.22-1.22-.45-2.4-.67-3.46-.25-1.22-.5-2.33-.72-3.22-.03-.1-.05-.2-.08-.3-.07.68-.14,1.5-.2,2.39-.08,1.12-.15,2.39-.21,3.73-.01.33-.03.66-.04,1l-2,.14c.06-1.37.12-2.68.19-3.87.08-1.27.16-2.42.26-3.38.1-.98.22-1.76.37-2.36.08-.32.17-.59.32-.86.08-.14.19-.3.36-.44.13-.1.31-.2.51-.24.2-.05.43-.03.62.03.17.06.31.15.41.24.15.12.25.25.34.38.19.29.33.6.47,1,.31.83.62,2.02.95,3.5.26,1.18.54,2.58.83,4.06.1.49.19,1,.29,1.52.18.94.36,1.91.53,2.88.27,1.49.55,3.01.82,4.45.04.2.07.4.11.59.23,1.22.45,2.39.67,3.45.25,1.23.5,2.33.72,3.23.03.1.05.2.08.3.07-.68.14-1.49.2-2.39.08-1.11.15-2.39.21-3.73,0-.33.03-.66.04-1l2-.14c-.06,1.36-.12,2.67-.19,3.86-.07,1.27-.16,2.42-.26,3.38Z"/>
          <path class="cls-6" d="m177.9,122.88c-.08,1.28-.16,2.43-.26,3.38-.1.97-.22,1.75-.37,2.35-.08.31-.17.58-.32.85-.08.14-.19.29-.36.43-.13.1-.3.2-.5.24-.21.05-.44.03-.63-.03-.16-.06-.3-.15-.41-.24-.15-.12-.25-.25-.33-.38-.2-.29-.33-.6-.48-1-.3-.82-.61-2.01-.94-3.49-.27-1.18-.55-2.58-.83-4.06-.1-.5-.19-1.01-.29-1.53-.18-.93-.36-1.9-.53-2.87-.28-1.48-.55-3-.82-4.44-.04-.21-.08-.41-.12-.61-.23-1.22-.46-2.39-.67-3.44-.25-1.23-.49-2.33-.72-3.23-.03-.11-.05-.21-.08-.31-.07.68-.14,1.48-.2,2.37-.08,1.12-.14,2.39-.2,3.73-.02.33-.03.67-.05,1.02l-2,.14c.06-1.36.12-2.68.19-3.87.08-1.28.16-2.43.26-3.39.11-.97.22-1.76.37-2.36.09-.32.17-.58.32-.85.08-.15.19-.3.36-.44.13-.11.31-.2.51-.25.21-.04.44-.02.62.04.17.06.31.14.42.23.14.13.24.25.33.38.19.29.33.61.48,1.01.3.82.61,2.02.94,3.49.26,1.19.55,2.59.83,4.07.1.49.19,1,.29,1.52.18.93.36,1.91.53,2.88.27,1.48.55,3,.82,4.44.04.2.07.4.11.59.23,1.22.46,2.4.68,3.46.25,1.22.49,2.33.71,3.22.03.11.05.21.08.31.08-.69.14-1.5.21-2.39.07-1.11.14-2.39.2-3.73.02-.33.03-.66.04-1.01l2-.14c-.06,1.38-.12,2.72-.19,3.91Z"/>
          <path class="cls-6" d="m178.65,106.23c-.08,1.11-.15,2.39-.21,3.73-.01.32-.02.64-.04.97l-1.99.14c.05-1.36.11-2.68.18-3.87.08-1.28.17-2.43.27-3.39.1-.97.21-1.76.37-2.36.08-.32.16-.59.31-.85.09-.15.19-.3.36-.44.13-.11.31-.21.51-.25.21-.04.44-.03.63.04.16.05.3.14.41.23.14.12.24.25.33.38.2.29.33.61.48,1,.3.83.61,2.03.94,3.5.27,1.19.55,2.58.83,4.07.1.49.19,1,.29,1.52.18.94.36,1.91.53,2.88.28,1.48.55,3,.82,4.44.04.2.07.4.11.59.23,1.22.46,2.4.68,3.46.25,1.22.49,2.33.72,3.22.02.1.05.2.07.29.08-.68.15-1.48.21-2.37.07-1.12.14-2.39.2-3.73.02-.33.03-.67.05-1.01l1.99-.14c-.05,1.33-.11,2.62-.18,3.78-.08,1.28-.16,2.44-.26,3.41-.1.98-.22,1.78-.37,2.38-.08.33-.16.61-.31.89-.09.14-.19.3-.36.44-.14.11-.32.22-.53.26-.2.05-.43.03-.62-.04-.17-.06-.3-.14-.41-.23-.15-.13-.25-.25-.34-.38-.19-.3-.33-.62-.48-1.02-.3-.83-.61-2.04-.94-3.52-.27-1.19-.55-2.58-.83-4.07-.09-.48-.19-.97-.28-1.48-.18-.95-.36-1.93-.54-2.92-.28-1.48-.55-3-.82-4.44-.04-.19-.07-.37-.1-.55-.24-1.24-.46-2.42-.69-3.49-.25-1.22-.49-2.32-.71-3.22-.02-.09-.05-.18-.07-.27-.08.69-.15,1.51-.21,2.42Z"/>
          <path class="cls-6" d="m187.51,99.47c.13-.11.31-.21.51-.25.21-.05.44-.03.63.04.16.05.3.14.41.23.14.12.25.25.33.38.2.29.33.61.48,1,.3.83.61,2.03.94,3.5.27,1.19.55,2.58.83,4.07.1.49.19,1,.29,1.51.18.94.36,1.91.54,2.88.27,1.49.54,3.01.81,4.45.04.2.08.4.11.59.23,1.22.46,2.39.68,3.46.25,1.22.49,2.32.72,3.22.02.1.05.2.07.29.08-.68.15-1.48.21-2.38.08-1.11.14-2.38.2-3.72.02-.33.03-.67.05-1.01l.94-.07.55,7.66v.02c-.11.92-.23,1.63-.4,2.18-.08.24-.17.46-.32.68-.09.12-.2.25-.35.36-.12.08-.27.15-.42.19-.21.04-.44.03-.63-.04-.16-.05-.3-.14-.41-.23-.15-.12-.25-.24-.33-.37-.2-.28-.33-.59-.47-.98-.3-.81-.61-1.98-.94-3.44-.27-1.18-.55-2.57-.83-4.06-.1-.52-.21-1.06-.31-1.62-.17-.9-.34-1.84-.51-2.77-.28-1.48-.55-3.01-.82-4.45-.04-.23-.09-.46-.13-.69-.23-1.19-.45-2.33-.66-3.37-.25-1.23-.49-2.34-.72-3.25-.03-.13-.06-.25-.09-.37-.08.67-.14,1.45-.2,2.31-.08,1.11-.15,2.37-.21,3.7-.01.37-.03.74-.05,1.12l-1.99.14c.05-1.37.12-2.69.19-3.88.07-1.27.16-2.42.26-3.38.1-.98.21-1.76.37-2.36.08-.32.16-.59.32-.86.08-.14.18-.29.35-.43Z"/>
          <path class="cls-6" d="m197.84,104.97c.13,1.19.27,2.54.42,3.96.14,1.41.29,2.91.44,4.4.15,1.48.3,2.98.44,4.39.15,1.36.28,2.68.41,3.84v.1s.48,6.54.48,6.54c-.08.07-.17.13-.27.18-.11.05-.22.08-.34.08-.11,0-.23,0-.34-.03s-.21-.08-.3-.13c-.08-.06-.15-.13-.2-.19s-.09-.11-.12-.16-.05-.1-.07-.14c-.03-.07-.05-.12-.06-.18-.05-.16-.08-.31-.12-.51-.03-.16-.06-.35-.09-.57-.02-.19-.05-.41-.08-.64-.11-.8-.23-1.85-.37-3.09-.12-1.13-.26-2.44-.4-3.83-.15-1.37-.3-2.86-.45-4.34-.14-1.48-.3-2.99-.44-4.43-.15-1.44-.29-2.83-.42-4.07-.14-1.25-.26-2.37-.37-3.3-.11-.91-.2-1.66-.28-2.16l-.27.02.65,8.97-.39.03c-.01-.16-.01-.32-.02-.48-.06-1.41-.11-2.76-.16-3.95-.04-1.2-.07-2.26-.09-3.12-.02-.87-.03-1.53,0-1.99,0-.22,0-.38.03-.55.01-.06.02-.12.05-.21.01-.06.04-.14.09-.23.02-.05.06-.11.1-.16.06-.07.13-.14.21-.2s.18-.11.28-.14c.1-.04.22-.05.33-.05.12,0,.23.02.33.06.11.04.2.1.28.16.07.06.14.12.18.18s.07.11.1.15c.03.06.05.1.06.14.03.09.05.15.07.22.05.2.09.42.14.73,0,.08.03.17.04.27.05.33.11.74.16,1.21.11.87.24,1.97.37,3.22Z"/>
          <circle class="cls-5" cx="36.27" cy="218.02" r="4"/>
          <polygon class="cls-5" points="227.77 243.62 227.77 250.52 227.27 251.02 14.77 251.02 14.27 250.52 14.27 246.02 17.27 243.02 19.77 243.02 116.77 243.02 227.17 243.02 227.77 243.62"/>
          <path class="cls-5" d="m105.28,232.52c0-1.63-.69-3.1-1.81-4.14.05-.31.1-.65.15-1.02.07-.46.12-.86.16-1.23s.08-.71.12-1.04c.02-.23.04-.46.07-.68.02-.23.04-.45.06-.68.02-.34.05-.68.08-1.05.02-.37.05-.77.07-1.23s.04-.86.05-1.23.02-.72.03-1.05v-.69c.01-.22.01-.45.01-.68-.01-.34-.01-.68-.02-1.05,0-.37-.01-.77-.03-1.23s-.04-.86-.06-1.23c0-.04,0-.08,0-.11-.01-.33-.03-.64-.05-.94-.02-.23-.04-.46-.05-.68-.01-.08-.01-.16-.02-.24,0-.15-.03-.3-.04-.45-.03-.33-.07-.67-.11-1.04s-.08-.77-.14-1.23c-.05-.45-.11-.85-.16-1.22-.05-.36-.1-.7-.16-1.03-.03-.23-.07-.46-.11-.68s-.08-.45-.12-.68c-.06-.33-.12-.66-.19-1.03-.07-.36-.15-.75-.25-1.21-.09-.45-.18-.83-.27-1.2-.08-.36-.16-.69-.24-1.02-.06-.22-.12-.44-.17-.66l-.18-.66c-.09-.33-.18-.66-.28-1.02-.11-.35-.22-.74-.35-1.18-.49-1.58-2.17-2.47-3.75-1.98-1.59.49-2.48,2.17-1.99,3.75.13.43.24.8.34,1.14.1.35.19.66.27.97.05.16.09.33.13.49s.09.33.13.5c.08.31.15.62.23.97.09.35.17.72.27,1.16.09.45.17.82.23,1.17.07.35.13.67.19.99.03.17.06.33.09.5.02.17.05.33.08.5.05.32.1.64.15.99.05.36.1.74.16,1.19.05.45.1.83.14,1.18.02.28.05.54.07.79.01.07.01.14.02.21.02.17.03.34.05.51.01.17.02.33.03.51.03.31.05.64.07,1,.02.35.04.74.05,1.19,0,.07.01.14.01.21,0,.36.02.68.03.98,0,.36.01.68.01,1,0,.17,0,.34-.01.51v.51c-.01.32-.01.65-.02,1.01-.02.35-.03.74-.05,1.19-.03.45-.05.83-.07,1.19-.03.35-.06.68-.08,1-.02.17-.03.34-.05.5,0,.17-.03.34-.05.51-.03.32-.07.65-.11,1s-.09.73-.15,1.18c-.04.26-.07.5-.11.73-2.1.82-3.59,2.87-3.59,5.26,0,3.12,2.53,5.65,5.65,5.65s5.65-2.53,5.65-5.65Zm.39-26.25c1.33,1.75,1.62,4.07.76,6.09,1.17,1.86,1.25,4.2.23,6.14,1,1.95.88,4.29-.31,6.13.82,2.04.5,4.35-.84,6.09.58,1.91.2,3.99-1.03,5.57-2.08,2.69-5.94,3.17-8.63,1.09-2.68-2.09-3.16-5.95-1.08-8.63-.53-1.74-.27-3.62.71-5.14-.68-1.68-.58-3.58.27-5.18-.83-1.62-.9-3.52-.2-5.19-.96-1.54-1.19-3.42-.64-5.15-1.09-1.45-1.49-3.3-1.09-5.07-1.34-1.49-1.87-3.54-1.43-5.49.76-3.31,4.05-5.38,7.37-4.63,3.31.76,5.38,4.05,4.63,7.36,1.46,1.63,1.96,3.92,1.28,6.01Z"/>
          <path class="cls-5" d="m104.05,212.56c.01.22.03.45.05.68.02.3.04.61.05.94l-5.92,1.77c0-.07-.01-.14-.01-.21-.01-.45-.03-.84-.05-1.19-.02-.36-.04-.69-.07-1-.01-.18-.02-.34-.03-.51-.02-.17-.03-.34-.05-.51-.01-.07-.01-.14-.02-.21h6.03c.01.08.01.16.02.24Z"/>
          <path class="cls-5" d="m56.27,212.32h24.4l-.4,1.08c-.77,2.12-2.39,3.78-4.42,4.62h-13.87c-1.98,0-3.93-.42-5.71-1.22v-4.48Z"/>
          <path class="cls-5" d="m106.66,218.5c1.02-1.94.94-4.28-.23-6.14.86-2.02.57-4.34-.76-6.09.68-2.09.18-4.38-1.28-6.01.75-3.31-1.32-6.6-4.63-7.36-3.32-.75-6.61,1.32-7.37,4.63-.44,1.95.09,4,1.43,5.49-.4,1.77,0,3.62,1.09,5.07-.55,1.73-.32,3.61.64,5.15-.7,1.67-.63,3.57.2,5.19-.85,1.6-.95,3.5-.27,5.18-.98,1.52-1.24,3.4-.71,5.14-2.08,2.68-1.6,6.54,1.08,8.63,2.69,2.08,6.55,1.6,8.63-1.09,1.23-1.58,1.61-3.66,1.03-5.57,1.34-1.74,1.66-4.05.84-6.09,1.19-1.84,1.31-4.18.31-6.13Zm-.54-21.65l4.11,15.52,6.14,23.14c.21.82.35,1.66.38,2.51.02.19.02.37.02.56v4.44H19.77v-5.25c0-.5.03-1,.09-1.5l2.52-20c.23-1.83.82-3.59,1.74-5.19l.15,7.19c.14,6.63,5.62,11.89,12.25,11.75s11.88-5.63,11.74-12.25l-.16-7.33h.01l3.29,4.21,2.13,2.73c1.76,2.25,4.59,3.4,7.42,3l12.93-1.82c.69-.09,1.35-.28,1.97-.54,2.03-.84,3.65-2.5,4.42-4.62l.4-1.08,3.71-10.12c.26-.68.65-1.3,1.17-1.82l7.2-7.16c.99-.99,2.23-1.7,3.59-2.06,4.27-1.13,8.65,1.42,9.78,5.69Z"/>
          <circle class="cls-5" cx="123.77" cy="230.02" r="4.75"/>
          <circle class="cls-5" cx="142.77" cy="211.02" r="4.75"/>
          <circle class="cls-5" cx="224.03" cy="188.8" r="5"/>
          <polygon class="cls-5" points="197.16 162.57 187.44 193.6 179.81 191.21 189.52 160.18 190.73 159.55 196.52 161.36 197.16 162.57"/>
          <path class="cls-5" d="m220.6,114.61l-.39-5.39h.01c0,.11.1.19.21.19l1.1-.08c.11-.01.19-.11.18-.22l-.02-.24,8.98-.65.54.47.35,4.87-.47.53-8.97.65-.02-.24c-.01-.11-.1-.19-.21-.19l-1.1.08c-.11.01-.19.11-.19.22Z"/>
          <polygon class="cls-5" points="219.82 107.94 220.14 108.22 220.21 109.22 220.6 114.61 220.67 115.6 220.4 115.92 200.85 117.33 200.27 109.35 219.82 107.94"/>
          <path class="cls-5" d="m195.31,100.69c.08.5.17,1.25.28,2.16.11.93.23,2.05.37,3.3.13,1.24.27,2.63.42,4.07.14,1.44.3,2.95.44,4.43.15,1.48.3,2.97.45,4.34.14,1.39.28,2.7.4,3.83.14,1.24.26,2.29.37,3.09.03.23.06.45.08.64l-1.21.09-.1-1.32-.55-7.66-.57-7.98-.65-8.97.27-.02Z"/>
          <polygon class="cls-5" points="198.03 100.49 197.85 98 199.45 97.88 200.27 109.35 200.85 117.33 201.67 128.8 200.08 128.92 200.03 128.2 199.56 121.66 199.55 121.56 198.03 100.49"/>
          <path class="cls-5" d="m195.69,109.68l.57,7.98-.94.07-1.93.14c-.03-.19-.07-.39-.11-.59-.27-1.44-.54-2.96-.81-4.45-.18-.97-.36-1.94-.54-2.88l3.37-.24.39-.03Z"/>
          <path class="cls-5" d="m191.4,118.01l-3.7.27-1.99.14-1.93.14c-.04-.19-.07-.39-.11-.59-.27-1.44-.54-2.96-.82-4.44-.17-.97-.35-1.94-.53-2.88l3.7-.27,1.99-.14,1.93-.14c.04.23.09.46.13.69.27,1.44.54,2.97.82,4.45.17.93.34,1.87.51,2.77Z"/>
          <path class="cls-5" d="m178.09,118.97l-2,.14-1.92.14c-.04-.19-.07-.39-.11-.59-.27-1.44-.55-2.96-.82-4.44-.17-.97-.35-1.95-.53-2.88l3.7-.27,1.99-.14,1.93-.14c.03.18.06.36.1.55.27,1.44.54,2.96.82,4.44.18.99.36,1.97.54,2.92l-3.7.27Z"/>
          <path class="cls-5" d="m166.79,111.76l2-.14,1.92-.14c.04.2.08.4.12.61.27,1.44.54,2.96.82,4.44.17.97.35,1.94.53,2.87l-3.7.27-2,.14-1.92.14c-.04-.19-.07-.39-.11-.59-.27-1.44-.55-2.96-.82-4.45-.17-.97-.35-1.94-.53-2.88l3.69-.27Z"/>
          <path class="cls-5" d="m161.1,112.17c.04.19.07.39.11.59.27,1.44.55,2.96.82,4.44.18.98.36,1.95.53,2.89l-3.69.27-2,.14-1.92.14c-.04-.2-.07-.4-.11-.6-.27-1.44-.55-2.96-.82-4.44-.18-.97-.36-1.94-.53-2.88l3.69-.27,2-.14,1.92-.14Z"/>
          <path class="cls-5" d="m149.57,113.01l1.92-.14c.04.19.07.39.11.59.27,1.44.55,2.96.82,4.44.18.97.36,1.95.53,2.88l-3.69.27-2,.14-1.92.14c-.24-1.27-.49-2.62-.73-3.96-.14-1.34-.28-2.69-.41-3.98l3.37-.24,2-.14Z"/>
          <path class="cls-5" d="m141.4,121.61l-23.44,1.69-.57-7.98,23.8-1.72,1.02-.07c.13,1.28.27,2.64.4,3.99.07.36.13.72.2,1.07.17.97.35,1.94.53,2.88l-.83.06c-.13-1.28-.27-2.64-.4-3.98l-1,.07c.08,1.07.16,2.13.23,3.17.02.28.04.55.06.82Z"/>
          <polygon class="cls-5" points="118.21 126.79 117.75 127.33 112.76 127.69 111.69 126.76 111.4 122.71 110.98 116.84 110.69 112.8 111.61 111.73 116.6 111.37 117.14 111.83 117.39 115.32 117.96 123.3 118.21 126.79"/>
          <rect class="cls-5" x="101.21" y="117.19" width="10" height="5.89" transform="translate(-8.3 7.89) rotate(-4.09)"/>
          <polygon class="cls-5" points="95.66 112.88 95.3 107.89 99.79 107.57 100.32 108.03 101.01 117.56 101.43 123.43 102.12 132.96 101.65 133.5 97.17 133.82 96.81 128.84 96.23 120.86 95.66 112.88"/>
          <path class="cls-5" d="m95.3,107.89l.36,4.99.57,7.98.58,7.98.36,4.98.06.86.15,2.13s-.09.08-.24.23c-.15.14-.37.35-.6.57-.03.03-.06.07-.1.1l-3.99.29s-.07-.06-.11-.08c-.26-.19-.5-.37-.67-.49l-.27-.18-.16-2.14-.42-5.84-.36-5.05-.21-2.93-.21-2.94-.37-5.04-.42-5.84-.15-2.14s.08-.08.24-.23c.15-.14.37-.35.6-.57l.1-.1,3.98-.28s.08.05.12.08c.25.18.5.36.67.48s.27.19.27.19l.16,2.14.06.85Z"/>
          <polygon class="cls-5" points="90.03 118.35 90.04 118.35 90.25 121.29 90.46 124.22 82.18 124.82 81.97 121.88 81.76 118.95 90.03 118.35"/>
          <polygon class="cls-7" points="26.26 22.39 26.11 25.63 26.04 27.04 25.8 31.79 25.68 34.29 25.62 35.62 23.95 69.92 23.89 71.24 23.77 73.74 23.53 78.49 23.46 79.91 23.31 83.15 23.28 83.73 22.23 84.68 17.24 84.44 12.86 174.33 12.34 174.81 9.84 174.69 7.94 172.59 16.01 6.79 18.11 4.89 20.6 5.01 21.08 5.53 20.35 20.51 25.34 20.76 26.29 21.8 26.26 22.39"/>
          <polygon class="cls-7" points="30.68 34.45 30.61 35.86 30.03 47.77 29.52 58.25 28.94 70.16 28.88 71.57 28.79 73.4 28.76 73.99 23.77 73.74 23.89 71.24 23.95 69.92 25.62 35.62 25.68 34.29 25.8 31.79 25.81 31.79 30.8 32.04 30.77 32.62 30.68 34.45"/>
          <path class="cls-7" d="m33.61,67.97l1.73,6.34-4.58-.23-1-.05-1-.04.03-.59.09-1.83.06-1.41.58-11.91.5.03c1.01-.32,1.9-.91,2.59-1.7l-.28,5.73c-.03.53.03,1.05.17,1.56l1.11,4.1Z"/>
          <path class="cls-7" d="m57.22,67.12l-1.06-3.9-6.55-24.08c-.85-3.13-3.63-5.36-6.87-5.52l-5.57-.27c-.86-.05-1.66.47-1.97,1.28l-1.24,3.28c-.34.89-.53,1.82-.58,2.76l-.44,9.06c-.6-.86-1.44-1.53-2.41-1.94l-.5-.02.58-11.91.07-1.41.09-1.83.03-.58,1,.04,1,.05,9.99.49c3.67.18,6.82,2.7,7.79,6.26l6.56,24.12c.36,1.35.39,2.76.08,4.12Z"/>
          <path class="cls-7" d="m42.94,60.09c-3.31-.99-6.79.9-7.77,4.21-.33,1.1-.34,2.22-.08,3.27l-1.48.4-1.11-4.1c-.14-.51-.2-1.03-.17-1.56l.28-5.73c.11-.13.22-.27.32-.41l.29-6c-.09-.15-.18-.3-.28-.44l.44-9.06c.05-.94.24-1.87.58-2.76l1.24-3.28c.31-.81,1.11-1.33,1.97-1.28l5.57.27c3.24.16,6.02,2.39,6.87,5.52l6.55,24.08-1.21.33c-.65-2.34-2.64-4.17-5.19-4.51-1.33-.18-2.68.08-3.86.73-1-.14-2.01-.03-2.96.32Zm5.08-18.98c0-3.12-2.53-5.65-5.65-5.65s-5.65,2.53-5.65,5.65,2.53,5.65,5.65,5.65,5.65-2.53,5.65-5.65Z"/>
          <path class="cls-7" d="m35.17,64.3c.98-3.31,4.46-5.2,7.77-4.21.95-.35,1.96-.46,2.96-.32,1.18-.65,2.53-.91,3.86-.73,2.55.34,4.54,2.17,5.19,4.51.23.79.29,1.64.18,2.51-.46,3.42-3.6,5.82-7.02,5.37-1.47.81-3.2,1-4.81.52-1.26.46-2.64.5-3.93.12-2.2-.66-3.77-2.42-4.28-4.5-.26-1.05-.25-2.17.08-3.27Zm6.98-1.19c-.26-.01-.54-.01-.85-.03-1.65-.08-3.06,1.2-3.14,2.85-.08,1.66,1.2,3.06,2.85,3.15.56.02,1.14.03,1.68.03.18-.01.35-.01.52-.01.17-.01.34-.02.52-.02.33-.02.66-.04,1-.07h0c1.02,1.15,2.52,1.87,4.19,1.87,3.12,0,5.65-2.53,5.65-5.65s-2.53-5.65-5.65-5.65c-2.35,0-4.37,1.44-5.22,3.49-.18.01-.36.02-.53.02-.05.01-.1.01-.15.01h-.15c-.23.01-.47.01-.73.01Z"/>
          <path class="cls-7" d="m52.45,120.41c.25-1,.5-2.02.83-3.39.12-.48.23-.91.32-1.3.13-.5.23-.95.34-1.37.4-1.64-.6-3.29-2.24-3.69-1.63-.4-3.29.6-3.69,2.24-.1.44-.22.9-.35,1.43-.09.38-.19.79-.3,1.24-.34,1.36-.59,2.38-.83,3.38-1.53.52-2.76,1.68-3.39,3.15l-.44-.18c.23-.57.56-1.11.97-1.59-.43-1.89.05-3.87,1.31-5.35-.43-1.88.06-3.86,1.31-5.34,2.2-2.59,6.08-2.9,8.67-.7s2.9,6.08.7,8.67c.43,1.88-.06,3.86-1.31,5.34.01.04.02.09.02.13l-.48.08c-.22-1.05-.73-2-1.44-2.75Z"/>
          <path class="cls-7" d="m42.36,125.67c-.29-1.27-.17-2.58.34-3.75l.44.18c-.28.68-.44,1.42-.44,2.2,0,1.51.59,2.88,1.56,3.9-.25,1-.5,2.02-.83,3.39-.11.45-.21.86-.31,1.24-.13.53-.24.99-.35,1.43-.4,1.64.6,3.29,2.24,3.69,1.63.4,3.28-.6,3.68-2.23.11-.44.23-.91.36-1.44.09-.38.19-.78.3-1.23.34-1.37.59-2.4.83-3.4,2.22-.76,3.82-2.87,3.82-5.35,0-.39-.04-.77-.11-1.14l.48-.08c.39,1.84-.11,3.76-1.33,5.21.43,1.89-.06,3.86-1.31,5.34.43,1.89-.06,3.87-1.31,5.34-2.2,2.59-6.08,2.91-8.67.71s-2.9-6.08-.7-8.67c-.43-1.89.05-3.87,1.31-5.34Z"/>
          <path class="cls-7" d="m50.42,138.97c1.25-1.47,1.74-3.45,1.31-5.34,1.25-1.48,1.74-3.45,1.31-5.34,1.22-1.45,1.72-3.37,1.33-5.21,0-.04,0-.09-.02-.13,1.25-1.48,1.74-3.46,1.31-5.34,2.2-2.59,1.89-6.47-.7-8.67s-6.47-1.89-8.67.7c-1.25,1.48-1.74,3.46-1.31,5.34-1.26,1.48-1.74,3.46-1.31,5.35-.41.48-.74,1.02-.97,1.59-.51,1.17-.63,2.48-.34,3.75-1.26,1.47-1.74,3.45-1.31,5.34-2.2,2.59-1.89,6.47.7,8.67s6.47,1.88,8.67-.71Zm5.74-75.75l1.06,3.9,6.1,22.42c.62,2.29.65,4.7.08,7.01l-5.23,21.33-3.49,14.23-6.95,28.31c-.03.11-.05.23-.08.34-.03.12-.05.23-.08.34-.08.43-.16.86-.22,1.3-.06.43-.11.87-.14,1.3-.03.44-.05.87-.06,1.31,0,.2,0,.4,0,.6,0,.12,0,.24.01.35v.36l.93,43.7v.42l.16,7.33c.14,6.62-5.11,12.11-11.74,12.25s-12.11-5.12-12.25-11.75l-.15-7.19h0s-1.04-48.78-1.04-48.78v-.27c0-.33.01-.66.03-.98.02-.33.05-.66.09-.98.04-.33.1-.65.16-.98.02-.11.05-.22.07-.34.03-.11.05-.23.08-.34l15.23-62.05c.81-3.3.76-6.74-.13-10.01l-3.27-12.04-1.73-6.34,1.48-.4c.51,2.08,2.08,3.84,4.28,4.5,1.29.38,2.67.34,3.93-.12,1.61.48,3.34.29,4.81-.52,3.42.45,6.56-1.95,7.02-5.37.11-.87.05-1.72-.18-2.51l1.21-.33Zm-15.89,154.8c0-2.21-1.8-4-4-4s-4,1.79-4,4,1.79,4,4,4,4-1.79,4-4Z"/>
          <path class="cls-7" d="m53.53,217.38l-2.13-2.73-3.29-4.21h-.01v-.42l4.08,4c1.2,1.17,2.59,2.11,4.09,2.78,1.78.8,3.73,1.22,5.71,1.22h13.87c-.62.26-1.28.45-1.97.54l-12.93,1.82c-2.83.4-5.66-.75-7.42-3Z"/>
          <path class="cls-7" d="m103.47,228.38c-1-.94-2.35-1.51-3.84-1.51-.73,0-1.42.14-2.06.39.04-.23.07-.47.11-.73.06-.45.11-.83.15-1.18s.08-.68.11-1c.02-.17.04-.34.05-.51.02-.16.03-.33.05-.5.02-.32.05-.65.08-1,.02-.36.04-.74.07-1.19.02-.45.03-.84.05-1.19.01-.36.01-.69.02-1.01v-.51c.01-.17.01-.34.01-.51,0-.32-.01-.64-.01-1-.01-.3-.02-.62-.03-.98l5.92-1.77s0,.07,0,.11c.02.37.04.77.06,1.23s.03.86.03,1.23c.01.37.01.71.02,1.05,0,.23,0,.46-.01.68v.69c-.01.33-.02.68-.03,1.05s-.03.77-.05,1.23-.05.86-.07,1.23c-.03.37-.06.71-.08,1.05-.02.23-.04.45-.06.68-.03.22-.05.45-.07.68-.04.33-.08.67-.12,1.04s-.09.77-.16,1.23c-.05.37-.1.71-.15,1.02Z"/>
          <path class="cls-7" d="m143.56,235.68l3.67-3.66,10.92-2.93v6.93h-.38v1.6h-17.36c1.18-.39,2.26-1.05,3.15-1.94Z"/>
          <path class="cls-7" d="m137.91,238.02h-14.14c.69,0,1.39-.09,2.07-.27,1.34-.36,2.74-.74,4.32-1.16.79-.21,1.49-.4,2.16-.58l14.91-3.99-3.67,3.66c-.89.89-1.97,1.55-3.15,1.94-.8.26-1.64.4-2.5.4Z"/>
          <path class="cls-7" d="m132.36,210.11l-9.5,9.51c-.5.49-1.01,1-1.59,1.58l-3.16,3.16c-3.13,3.13-3.13,8.19,0,11.32,1.52,1.52,3.56,2.34,5.66,2.34h-7.02c-.03-.85-.17-1.69-.38-2.51l-6.14-23.14,29.8-8.88h0c-1.09.41-2.09,1.04-2.92,1.87-.98.99-2.01,2.02-3.17,3.17l-1.58,1.58Z"/>
          <path class="cls-7" d="m229.03,188.8c0-2.76-2.24-5-5-5s-5,2.24-5,5,2.24,5,5,5,5-2.24,5-5Zm-86.26,17.47c-2.63,0-4.75,2.13-4.75,4.75s2.12,4.75,4.75,4.75,4.75-2.13,4.75-4.75-2.13-4.75-4.75-4.75Zm-10.45,29.74c-.67.18-1.37.37-2.16.58-1.58.42-2.98.8-4.32,1.16-.68.18-1.38.27-2.07.27-2.1,0-4.14-.82-5.66-2.34-3.13-3.13-3.13-8.19,0-11.32l3.16-3.16c.58-.58,1.09-1.09,1.59-1.58l9.5-9.51,1.58-1.58c1.16-1.15,2.19-2.18,3.17-3.17.83-.83,1.83-1.46,2.92-1.86.65-.23,1.33-.39,2.04-.45,1.38-.12,2.83-.25,4.46-.39.81-.07,1.53-.13,2.23-.19l16.96-1.49,11.34-.99,8.6-.75c.35-.03.7-.08,1.05-.15.58-.11,1.2-.29,1.79-.53.06-.02.11-.04.16-.06.33-.14.65-.29.95-.46l23.38-12.87c.67-.37,1.39-.77,2.22-1.22,1.75-.97,3.28-1.81,4.72-2.6,3.93-2.16,8.87-.9,11.27,2.89.83,1.31,1.26,2.76,1.32,4.21.08,1.96-.52,3.9-1.72,5.48-.59.79-1.34,1.48-2.22,2.04-1.39.88-2.85,1.82-4.55,2.89-.79.51-1.48.94-2.14,1.36l-21.51,13.66-9.32,5.92c-.86.54-1.79.95-2.77,1.21l-30.14,8.08-10.92,2.93-14.91,3.99Zm-13.3-5.99c0,2.62,2.12,4.75,4.75,4.75s4.75-2.13,4.75-4.75-2.13-4.75-4.75-4.75-4.75,2.13-4.75,4.75Z"/>
          <path class="cls-7" d="m206.18,215.69l-5.8-1.81,21.51-13.66c.66-.42,1.35-.85,2.14-1.36,1.7-1.07,3.16-2.01,4.55-2.89.88-.56,1.63-1.25,2.22-2.04l-3.32,10.62-21.3,11.14Z"/>
          <path class="cls-7" d="m171.87,164.61l-4.48,14.31-1.54-.48c-.06-.02-.09-.07-.07-.13l4.42-14.12c.02-.05.08-.08.13-.07l1.54.49Z"/>
          <polygon class="cls-7" points="177.91 162.05 172.53 179.23 170.89 184.47 166.6 183.13 166.27 182.5 167.39 178.92 171.87 164.61 172.99 161.03 173.62 160.7 177.91 162.05"/>
          <polygon class="cls-7" points="179.81 191.21 177.06 199.99 165.72 200.98 166.71 197.82 170.89 184.47 172.53 179.23 177.91 162.05 179.18 157.99 180.44 157.33 189.52 160.18 179.81 191.21"/>
          <path class="cls-7" d="m185.66,199.24l-8.6.75,2.75-8.78,7.63,2.39,9.72-31.03,36.72,11.5,1.97,3.76-3.33,10.62c-.06-1.45-.49-2.9-1.32-4.21-2.4-3.79-7.34-5.05-11.27-2.89-1.44.79-2.97,1.63-4.72,2.6-.83.45-1.55.85-2.22,1.22l-23.38,12.87c-.3.17-.62.32-.95.46-.05.02-.1.04-.16.06-.59.24-1.21.42-1.79.53-.35.07-.7.12-1.05.15Z"/>
        </g>
        <g>
          <line class="cls-2" x1="95.08" y1="104.9" x2="95.24" y2="107.04"/>
          <line class="cls-2" x1="95.66" y1="112.88" x2="96.23" y2="120.86"/>
          <polyline class="cls-2" points="90.82 129.27 90.46 124.22 90.25 121.29"/>
          <polyline class="cls-2" points="90.25 121.29 90.04 118.35 89.67 113.31"/>
          <polyline class="cls-2" points="96.81 128.84 97.17 133.82 97.23 134.68"/>
          <line class="cls-2" x1="96.23" y1="120.86" x2="96.81" y2="128.84"/>
          <polyline class="cls-2" points="95.24 107.04 95.3 107.89 95.66 112.88"/>
          <line class="cls-2" x1="92.45" y1="138" x2="96.44" y2="137.71"/>
          <line class="cls-2" x1="91.24" y1="135.11" x2="90.82" y2="129.27"/>
          <line class="cls-2" x1="89.67" y1="113.31" x2="89.25" y2="107.47"/>
          <line class="cls-2" x1="100.32" y1="108.03" x2="99.79" y2="107.57"/>
          <path class="cls-2" d="m96.44,137.71s.07-.07.1-.1c.23-.22.45-.43.6-.57.15-.15.24-.23.24-.23"/>
          <line class="cls-2" x1="89.25" y1="107.47" x2="89.1" y2="105.33"/>
          <path class="cls-2" d="m91.4,137.25l.27.18c.17.12.41.3.67.49.04.02.07.05.11.08"/>
          <line class="cls-2" x1="227.48" y1="204.55" x2="230.8" y2="193.93"/>
          <line class="cls-2" x1="91.4" y1="137.25" x2="91.24" y2="135.11"/>
          <line class="cls-2" x1="97.23" y1="134.68" x2="97.38" y2="136.81"/>
          <line class="cls-2" x1="95.3" y1="107.89" x2="99.79" y2="107.57"/>
          <polyline class="cls-2" points="97.16 133.82 97.17 133.82 101.65 133.5"/>
          <line class="cls-2" x1="102.12" y1="132.96" x2="101.65" y2="133.5"/>
          <polyline class="cls-2" points="100.32 108.03 101.01 117.56 101.43 123.43 102.12 132.96"/>
          <line class="cls-2" x1="232.52" y1="188.45" x2="235.85" y2="177.83"/>
          <line class="cls-2" x1="197.16" y1="162.57" x2="233.88" y2="174.07"/>
          <path class="cls-2" d="m130.16,236.59c-1.58.42-2.98.8-4.32,1.16"/>
          <line class="cls-2" x1="235.85" y1="177.83" x2="233.88" y2="174.07"/>
          <circle class="cls-2" cx="123.77" cy="230.02" r="4.75"/>
          <line class="cls-2" x1="227.48" y1="204.55" x2="206.18" y2="215.69"/>
          <polyline class="cls-2" points="187.44 193.6 179.81 191.21 179.8 191.21"/>
          <line class="cls-2" x1="200.38" y1="213.88" x2="206.18" y2="215.69"/>
          <path class="cls-2" d="m146.53,202.66c.81-.07,1.53-.13,2.23-.19"/>
          <path class="cls-2" d="m186.71,199.09c.58-.11,1.2-.29,1.79-.53.06-.02.11-.04.16-.06"/>
          <path class="cls-2" d="m191.06,219.8c-.86.54-1.79.95-2.77,1.21"/>
          <path class="cls-2" d="m228.58,195.97c-1.39.88-2.85,1.82-4.55,2.89"/>
          <path class="cls-2" d="m224.03,198.86c-.79.51-1.48.94-2.14,1.36"/>
          <path class="cls-2" d="m133.94,208.53c1.16-1.15,2.19-2.18,3.17-3.17"/>
          <path class="cls-2" d="m212.99,185.17c.67-.37,1.39-.77,2.22-1.22"/>
          <path class="cls-2" d="m188.66,198.5c.33-.14.65-.29.95-.46"/>
          <polyline class="cls-2" points="221.89 200.22 200.38 213.88 191.06 219.8"/>
          <path class="cls-2" d="m118.11,224.36l3.16-3.16"/>
          <path class="cls-2" d="m121.27,221.2c.58-.58,1.09-1.09,1.59-1.58"/>
          <path class="cls-2" d="m219.93,181.35c3.93-2.16,8.87-.9,11.27,2.89.83,1.31,1.26,2.76,1.32,4.21.08,1.96-.52,3.9-1.72,5.48-.59.79-1.34,1.48-2.22,2.04"/>
          <path class="cls-2" d="m142.07,203.05c1.38-.12,2.83-.25,4.46-.39"/>
          <path class="cls-2" d="m185.66,199.24c.35-.03.7-.08,1.05-.15"/>
          <path class="cls-2" d="m132.32,236.01c-.67.18-1.37.37-2.16.58"/>
          <path class="cls-2" d="m125.84,237.75c-.68.18-1.38.27-2.07.27-2.1,0-4.14-.82-5.66-2.34-3.13-3.13-3.13-8.19,0-11.32"/>
          <path class="cls-2" d="m132.36,210.11l1.58-1.58"/>
          <path class="cls-2" d="m215.21,183.95c1.75-.97,3.28-1.81,4.72-2.6"/>
          <circle class="cls-2" cx="224.03" cy="188.8" r="5"/>
          <line class="cls-2" x1="122.86" y1="219.62" x2="132.36" y2="210.11"/>
          <circle class="cls-2" cx="142.77" cy="211.02" r="4.75"/>
          <path class="cls-2" d="m137.11,205.36c.83-.83,1.83-1.46,2.92-1.86.65-.23,1.33-.39,2.04-.45"/>
          <polyline class="cls-2" points="188.29 221.01 158.15 229.09 147.23 232.02 132.32 236.01"/>
          <polyline class="cls-2" points="148.76 202.47 165.72 200.98 177.06 199.99 185.66 199.24"/>
          <line class="cls-2" x1="189.61" y1="198.04" x2="212.99" y2="185.17"/>
          <line class="cls-2" x1="12.86" y1="174.33" x2="12.34" y2="174.81"/>
          <polyline class="cls-2" points="174.17 119.25 176.09 119.11 178.09 118.97 181.79 118.7"/>
          <line class="cls-2" x1="81.76" y1="118.95" x2="90.03" y2="118.35"/>
          <polyline class="cls-2" points="163.1 112.03 166.79 111.76 168.79 111.62 170.71 111.48"/>
          <line class="cls-2" x1="17.24" y1="84.44" x2="22.23" y2="84.68"/>
          <line class="cls-2" x1="26.29" y1="21.8" x2="26.26" y2="22.39"/>
          <line class="cls-2" x1="23.53" y1="78.49" x2="23.46" y2="79.91"/>
          <polyline class="cls-2" points="193.39 117.87 195.32 117.73 196.26 117.66"/>
          <line class="cls-2" x1="101.01" y1="117.56" x2="110.98" y2="116.84"/>
          <polyline class="cls-2" points="154.95 120.64 156.87 120.5 158.87 120.36 162.56 120.09"/>
          <line class="cls-2" x1="221.69" y1="108.87" x2="230.67" y2="108.22"/>
          <polyline class="cls-2" points="164.56 119.95 166.48 119.81 168.48 119.67 172.18 119.4"/>
          <line class="cls-2" x1="231.21" y1="108.69" x2="230.67" y2="108.22"/>
          <line class="cls-2" x1="23.31" y1="83.15" x2="23.46" y2="79.91"/>
          <line class="cls-2" x1="200.85" y1="117.33" x2="220.4" y2="115.92"/>
          <line class="cls-2" x1="25.34" y1="20.76" x2="26.29" y2="21.8"/>
          <path class="cls-2" d="m221.89,114.31c.11,0,.2.08.21.19"/>
          <line class="cls-2" x1="21.08" y1="5.53" x2="20.6" y2="5.01"/>
          <polyline class="cls-2" points="191.93 109.95 195.3 109.71 195.69 109.68"/>
          <polyline class="cls-2" points="145.34 121.33 147.26 121.19 149.26 121.05 152.95 120.78"/>
          <line class="cls-2" x1="101.43" y1="123.43" x2="111.4" y2="122.71"/>
          <line class="cls-2" x1="220.67" y1="115.6" x2="220.4" y2="115.92"/>
          <polyline class="cls-2" points="25.68 34.29 25.8 31.79 26.04 27.04"/>
          <polyline class="cls-2" points="182.32 110.65 186.02 110.38 188.01 110.24 189.94 110.1"/>
          <line class="cls-2" x1="231.21" y1="108.69" x2="231.56" y2="113.56"/>
          <polyline class="cls-2" points="183.78 118.56 185.71 118.42 187.7 118.28 191.4 118.01"/>
          <line class="cls-2" x1="220.14" y1="108.22" x2="219.82" y2="107.94"/>
          <polyline class="cls-2" points="12.86 174.33 17.24 84.44 17.46 79.86"/>
          <line class="cls-2" x1="26.11" y1="25.63" x2="26.26" y2="22.39"/>
          <line class="cls-2" x1="142.51" y1="121.53" x2="143.34" y2="121.47"/>
          <line class="cls-2" x1="82.18" y1="124.82" x2="90.46" y2="124.22"/>
          <line class="cls-2" x1="26.11" y1="25.63" x2="26.04" y2="27.04"/>
          <polyline class="cls-2" points="23.53 78.49 23.77 73.74 23.89 71.24"/>
          <polyline class="cls-2" points="20.13 25.09 20.35 20.51 21.08 5.53"/>
          <line class="cls-2" x1="18.11" y1="4.89" x2="16.01" y2="6.79"/>
          <line class="cls-2" x1="9.84" y1="174.69" x2="12.34" y2="174.81"/>
          <line class="cls-2" x1="25.34" y1="20.76" x2="20.35" y2="20.51"/>
          <line class="cls-2" x1="22.23" y1="84.68" x2="23.28" y2="83.73"/>
          <line class="cls-2" x1="9.84" y1="174.69" x2="7.94" y2="172.59"/>
          <line class="cls-2" x1="23.31" y1="83.15" x2="23.28" y2="83.73"/>
          <line class="cls-2" x1="20.6" y1="5.01" x2="18.11" y2="4.89"/>
          <polygon class="cls-2" points="116.77 243.02 227.17 243.02 227.77 243.62 227.77 250.52 227.27 251.02 14.77 251.02 14.27 250.52 14.27 246.02 17.27 243.02 19.77 243.02 116.77 243.02"/>
          <line class="cls-2" x1="166.6" y1="183.13" x2="170.89" y2="184.47"/>
          <polyline class="cls-2" points="172.53 179.23 177.91 162.05 179.18 157.99"/>
          <line class="cls-2" x1="165.72" y1="200.98" x2="166.71" y2="197.82"/>
          <polyline class="cls-2" points="172.53 179.23 170.89 184.47 166.71 197.82"/>
          <polyline class="cls-2" points="166.27 182.5 167.39 178.92 171.87 164.61 172.99 161.03"/>
          <line class="cls-2" x1="179.18" y1="157.99" x2="180.44" y2="157.33"/>
          <line class="cls-2" x1="172.99" y1="161.03" x2="173.62" y2="160.7"/>
          <line class="cls-2" x1="173.62" y1="160.7" x2="177.91" y2="162.05"/>
          <line class="cls-2" x1="166.27" y1="182.5" x2="166.6" y2="183.13"/>
          <line class="cls-2" x1="180.44" y1="157.33" x2="189.52" y2="160.18"/>
          <line class="cls-2" x1="142.11" y1="117.55" x2="141.11" y2="117.62"/>
          <path class="cls-2" d="m141.11,117.62c.08,1.07.16,2.13.23,3.17.02.28.04.55.06.82.06.75.11,1.49.16,2.2.13,1.75.24,3.33.33,4.64.1,1.31.17,2.33.22,3,.04.61.07.92.07.92"/>
          <path class="cls-2" d="m142.11,117.55c.13,1.34.27,2.7.4,3.98.02.16.03.32.05.48.15,1.4.29,2.74.41,3.92.13,1.17.25,2.21.35,3.04s.19,1.47.25,1.85c.03.17.06.3.07.32h0"/>
          <path class="cls-2" d="m142.61,117.52c-.13-1.35-.27-2.71-.4-3.99-.02-.16-.03-.32-.05-.47-.14-1.4-.28-2.74-.41-3.92-.13-1.17-.24-2.22-.35-3.05-.1-.82-.19-1.46-.25-1.84-.03-.17-.06-.3-.07-.33"/>
          <path class="cls-2" d="m143.59,122.78c.05,1.29.1,2.51.14,3.59.04,1.16.07,2.18.08,2.98.02.81.02,1.42,0,1.83-.01.16-.02.29-.04.44-.01.04-.02.09-.04.15-.01.05-.03.1-.06.16-.02.05-.05.11-.09.17-.05.07-.12.15-.2.22-.07.06-.16.11-.26.15s-.21.07-.32.07c-.12,0-.23-.01-.34-.04-.1-.03-.2-.08-.28-.13"/>
          <path class="cls-2" d="m141.19,113.61h0c-.01-.21-.02-.4-.02-.59-.06-1.41-.12-2.76-.16-3.94-.04-1.19-.07-2.24-.09-3.09-.02-.86-.03-1.51-.01-1.96,0-.2.01-.36.04-.52,0-.06.01-.13.04-.21.02-.06.04-.13.08-.22.03-.05.06-.1.1-.15.06-.07.13-.15.21-.21s.17-.11.27-.14c.1-.04.22-.06.33-.05.12,0,.23.02.34.05.1.04.2.09.28.16.07.05.14.12.18.18.05.06.08.11.1.15l.07.14c.03.08.05.14.06.21.06.19.09.39.14.67.06.39.13.89.21,1.52.11.86.23,1.96.37,3.21.12,1.19.27,2.54.41,3.95.02.2.04.41.06.62.13,1.29.27,2.64.41,3.98"/>
          <path class="cls-2" d="m147.57,113.15c.02-.39.03-.77.05-1.14.06-1.41.13-2.75.22-3.93.08-1.19.17-2.23.28-3.07.12-.87.24-1.51.45-2.04.07-.19.16-.37.32-.56.08-.1.19-.2.32-.28.11-.06.24-.12.38-.14.2-.05.43-.03.61.03.17.06.3.15.41.24.15.12.25.25.34.38.19.29.33.6.47,1,.31.83.62,2.02.95,3.5.26,1.18.54,2.58.83,4.06.1.49.19,1,.29,1.52.17.94.35,1.91.53,2.88.27,1.48.55,3,.82,4.44.04.2.07.4.11.6.23,1.22.46,2.39.67,3.45.25,1.23.5,2.33.72,3.23.03.1.05.2.08.3.19.73.37,1.33.52,1.71.08.19.15.33.18.39.02.02.03.04.03.04"/>
          <path class="cls-2" d="m146.81,128.31c.01-.14.03-.29.04-.44.09-.87.16-1.91.23-3.05.07-1.11.13-2.35.18-3.63"/>
          <path class="cls-2" d="m157.18,112.46h0c.06-1.38.12-2.69.19-3.88.08-1.27.16-2.42.26-3.38.1-.98.22-1.76.37-2.36.08-.32.17-.59.32-.86.08-.14.19-.3.36-.44.13-.1.31-.2.51-.24.2-.05.43-.03.62.03.17.06.31.15.41.24.15.12.25.25.34.38.19.29.33.6.47,1,.31.83.62,2.02.95,3.5.26,1.18.54,2.58.83,4.06.1.49.19,1,.29,1.52.18.94.36,1.91.53,2.88.27,1.49.55,3.01.82,4.45.04.2.07.4.11.59.23,1.22.45,2.39.67,3.45.25,1.23.5,2.33.72,3.23.03.1.05.2.08.3.19.73.37,1.33.52,1.71.08.19.15.33.19.39.01.02.02.03.02.03"/>
          <path class="cls-2" d="m156.42,127.62c.07-.68.14-1.49.2-2.38.08-1.12.15-2.39.21-3.73.01-.33.03-.67.04-1.01"/>
          <path class="cls-2" d="m144.61,117.37c.24,1.34.49,2.69.73,3.96.03.17.06.33.09.49.26,1.39.52,2.72.77,3.88.21.99.41,1.88.61,2.61.03.12.06.23.09.34.2.77.41,1.36.54,1.64.05.1.09.16.09.16"/>
          <path class="cls-2" d="m166.79,111.76c.06-1.36.12-2.68.19-3.87.08-1.28.16-2.43.26-3.39.11-.97.22-1.76.37-2.36.09-.32.17-.58.32-.85.08-.15.19-.3.36-.44.13-.11.31-.2.51-.25.21-.04.44-.02.62.04.17.06.31.14.42.23.14.13.24.25.33.38.19.29.33.61.48,1.01.3.82.61,2.02.94,3.49.26,1.19.55,2.59.83,4.07.1.49.19,1,.29,1.52.18.93.36,1.91.53,2.88.27,1.48.55,3,.82,4.44.04.2.07.4.11.59.23,1.22.46,2.4.68,3.46.25,1.22.49,2.33.71,3.22.03.11.05.21.08.31.19.74.37,1.33.52,1.7.08.2.15.34.19.4.01.02.02.03.02.03"/>
          <path class="cls-2" d="m166.03,126.93c.07-.68.14-1.49.2-2.39.08-1.11.15-2.39.21-3.73,0-.33.03-.66.04-1"/>
          <path class="cls-2" d="m188.47,103.11c-.08.67-.14,1.45-.2,2.31-.08,1.11-.15,2.37-.21,3.7-.01.37-.03.74-.05,1.12"/>
          <path class="cls-2" d="m175.64,126.24c.08-.69.14-1.5.21-2.39.07-1.11.14-2.39.2-3.73.02-.33.03-.66.04-1.01"/>
          <path class="cls-2" d="m185.25,125.53c.08-.68.15-1.48.21-2.37.07-1.12.14-2.39.2-3.73.02-.33.03-.67.05-1.01"/>
          <path class="cls-2" d="m194.86,124.84c.08-.68.15-1.48.21-2.38.08-1.11.14-2.38.2-3.72.02-.33.03-.67.05-1.01"/>
          <path class="cls-2" d="m196.81,125.32v.02c-.11.92-.23,1.63-.4,2.18-.08.24-.17.46-.32.68-.09.12-.2.25-.35.36-.12.08-.27.15-.42.19-.21.04-.44.03-.63-.04-.16-.05-.3-.14-.41-.23-.15-.12-.25-.24-.33-.37-.2-.28-.33-.59-.47-.98-.3-.81-.61-1.98-.94-3.44-.27-1.18-.55-2.57-.83-4.06-.1-.52-.21-1.06-.31-1.62-.17-.9-.34-1.84-.51-2.77-.28-1.48-.55-3.01-.82-4.45-.04-.23-.09-.46-.13-.69-.23-1.19-.45-2.33-.66-3.37-.25-1.23-.49-2.34-.72-3.25-.03-.13-.06-.25-.09-.37-.19-.72-.36-1.29-.51-1.67-.08-.2-.15-.35-.19-.42-.02-.03-.03-.04-.03-.04"/>
          <path class="cls-2" d="m186.02,110.38c.05-1.37.12-2.69.19-3.88.07-1.27.16-2.42.26-3.38.1-.98.21-1.76.37-2.36.08-.32.16-.59.32-.86.08-.14.18-.29.35-.43.13-.11.31-.21.51-.25.21-.05.44-.03.63.04.16.05.3.14.41.23.14.12.25.25.33.38.2.29.33.61.48,1,.3.83.61,2.03.94,3.5.27,1.19.55,2.58.83,4.07.1.49.19,1,.29,1.51.18.94.36,1.91.54,2.88.27,1.49.54,3.01.81,4.45.04.2.08.4.11.59.23,1.22.46,2.39.68,3.46.25,1.22.49,2.32.72,3.22.02.1.05.2.07.29,0,.01,0,.01,0,.01.2.74.38,1.33.53,1.71.07.19.14.33.18.39,0,.03.02.04.02.04"/>
          <path class="cls-2" d="m187.7,118.28c-.05,1.33-.11,2.62-.18,3.78-.08,1.28-.16,2.44-.26,3.41-.1.98-.22,1.78-.37,2.38-.08.33-.16.61-.31.89-.09.14-.19.3-.36.44-.14.11-.32.22-.53.26-.2.05-.43.03-.62-.04-.17-.06-.3-.14-.41-.23-.15-.13-.25-.25-.34-.38-.19-.3-.33-.62-.48-1.02-.3-.83-.61-2.04-.94-3.52-.27-1.19-.55-2.58-.83-4.07-.09-.48-.19-.97-.28-1.48-.18-.95-.36-1.93-.54-2.92-.28-1.48-.55-3-.82-4.44-.04-.19-.07-.37-.1-.55-.24-1.24-.46-2.42-.69-3.49-.25-1.22-.49-2.32-.71-3.22-.02-.09-.05-.18-.07-.27-.19-.74-.38-1.34-.53-1.72-.08-.19-.15-.33-.18-.39-.01-.02-.02-.03-.02-.03"/>
          <path class="cls-2" d="m178.86,103.81c-.08.69-.15,1.51-.21,2.42-.08,1.11-.15,2.39-.21,3.73-.01.32-.02.64-.04.97"/>
          <path class="cls-2" d="m178.09,118.97c-.06,1.38-.12,2.72-.19,3.91-.08,1.28-.16,2.43-.26,3.38-.1.97-.22,1.75-.37,2.35-.08.31-.17.58-.32.85-.08.14-.19.29-.36.43-.13.1-.3.2-.5.24-.21.05-.44.03-.63-.03-.16-.06-.3-.15-.41-.24-.15-.12-.25-.25-.33-.38-.2-.29-.33-.6-.48-1-.3-.82-.61-2.01-.94-3.49-.27-1.18-.55-2.58-.83-4.06-.1-.5-.19-1.01-.29-1.53-.18-.93-.36-1.9-.53-2.87-.28-1.48-.55-3-.82-4.44-.04-.21-.08-.41-.12-.61-.23-1.22-.46-2.39-.67-3.44-.25-1.23-.49-2.33-.72-3.23-.03-.11-.05-.21-.08-.31-.19-.74-.37-1.32-.52-1.71-.07-.19-.14-.33-.18-.39l-.02-.04"/>
          <path class="cls-2" d="m176.41,111.07c.05-1.36.11-2.68.18-3.87.08-1.28.17-2.43.27-3.39.1-.97.21-1.76.37-2.36.08-.32.16-.59.31-.85.09-.15.19-.3.36-.44.13-.11.31-.21.51-.25.21-.04.44-.03.63.04.16.05.3.14.41.23.14.12.24.25.33.38.2.29.33.61.48,1,.3.83.61,2.03.94,3.5.27,1.19.55,2.58.83,4.07.1.49.19,1,.29,1.52.18.94.36,1.91.53,2.88.28,1.48.55,3,.82,4.44.04.2.07.4.11.59.23,1.22.46,2.4.68,3.46.25,1.22.49,2.33.72,3.22.02.1.05.2.07.29h0c.19.75.38,1.34.53,1.72.07.2.14.34.18.4.01.02.02.03.02.03"/>
          <path class="cls-2" d="m159.63,105.19c-.07.68-.14,1.5-.2,2.39-.08,1.12-.15,2.39-.21,3.73-.01.33-.03.66-.04,1"/>
          <path class="cls-2" d="m168.48,119.66h0c-.06,1.37-.12,2.68-.19,3.87-.07,1.27-.16,2.42-.26,3.38-.1.98-.22,1.77-.37,2.37-.08.32-.16.59-.32.86-.08.14-.18.29-.36.43-.13.11-.3.21-.5.25-.21.05-.44.03-.63-.03-.17-.06-.3-.15-.41-.24-.15-.12-.25-.25-.34-.38-.19-.29-.33-.6-.47-1-.31-.83-.62-2.03-.95-3.5-.26-1.19-.54-2.58-.83-4.07-.1-.49-.19-.99-.29-1.51-.17-.94-.35-1.91-.53-2.89-.27-1.48-.55-3-.82-4.44-.04-.2-.07-.4-.11-.59-.22-1.22-.45-2.4-.67-3.46-.25-1.22-.5-2.33-.72-3.22-.03-.1-.05-.2-.08-.3-.19-.74-.37-1.33-.52-1.71-.08-.19-.15-.33-.18-.39-.02-.02-.02-.03-.02-.03"/>
          <path class="cls-2" d="m158.87,120.36c-.06,1.36-.12,2.69-.19,3.88-.08,1.27-.16,2.42-.26,3.38-.1.98-.22,1.76-.37,2.36-.08.32-.17.59-.32.85-.08.15-.19.3-.36.44-.13.11-.31.2-.51.25-.2.04-.43.02-.62-.04-.17-.06-.31-.14-.41-.23-.15-.13-.25-.25-.34-.38-.19-.29-.33-.61-.47-1.01-.31-.82-.62-2.02-.95-3.49-.26-1.19-.54-2.58-.83-4.07-.1-.49-.19-1-.29-1.52-.17-.93-.35-1.91-.53-2.88-.27-1.48-.55-3-.82-4.44-.04-.2-.07-.4-.11-.59-.22-1.22-.45-2.4-.67-3.46-.25-1.22-.5-2.33-.72-3.22-.03-.11-.05-.21-.08-.31-.19-.74-.37-1.33-.52-1.7-.08-.2-.15-.34-.18-.4l-.03-.03"/>
          <path class="cls-2" d="m149.26,121.05c-.06,1.36-.12,2.68-.19,3.87-.08,1.28-.16,2.43-.26,3.39-.11.97-.22,1.76-.37,2.36-.08.32-.17.59-.32.85-.08.15-.19.3-.36.44-.13.11-.31.2-.51.25-.21.04-.44.03-.62-.04-.17-.05-.31-.14-.41-.23-.15-.12-.25-.25-.34-.38-.19-.29-.33-.61-.48-1-.3-.83-.61-2.03-.94-3.5-.26-1.19-.55-2.58-.83-4.07-.01-.07-.03-.14-.04-.21h0c-.08-.43-.17-.87-.25-1.31-.18-.94-.36-1.91-.53-2.88-.07-.35-.13-.71-.2-1.07"/>
          <path class="cls-2" d="m169.24,104.5c-.07.68-.14,1.48-.2,2.37-.08,1.12-.14,2.39-.2,3.73-.02.33-.03.67-.05,1.02"/>
          <path class="cls-2" d="m150.02,105.88c-.07.68-.14,1.49-.2,2.39-.08,1.11-.15,2.38-.21,3.72-.01.34-.03.67-.04,1.01"/>
          <path class="cls-2" d="m43.43,131.59c-.11.45-.21.86-.31,1.24-.13.53-.24.99-.35,1.43"/>
          <path class="cls-2" d="m200.03,128.2c-.08.07-.17.13-.27.18-.11.05-.22.08-.34.08-.11,0-.23,0-.34-.03s-.21-.08-.3-.13c-.08-.06-.15-.13-.2-.19s-.09-.11-.12-.16-.05-.1-.07-.14c-.03-.07-.05-.12-.06-.18-.05-.16-.08-.31-.12-.51-.03-.16-.06-.35-.09-.57-.02-.19-.05-.41-.08-.64-.11-.8-.23-1.85-.37-3.09-.12-1.13-.26-2.44-.4-3.83-.15-1.37-.3-2.86-.45-4.34-.14-1.48-.3-2.99-.44-4.43-.15-1.44-.29-2.83-.42-4.07-.14-1.25-.26-2.37-.37-3.3-.11-.91-.2-1.66-.28-2.16h0c-.04-.25-.07-.44-.09-.55-.01-.06-.02-.09-.03-.11"/>
          <path class="cls-2" d="m49.35,133.05c.34-1.37.59-2.4.83-3.4"/>
          <path class="cls-2" d="m48.69,135.72c.11-.44.23-.91.36-1.44.09-.38.19-.78.3-1.23"/>
          <path class="cls-2" d="m53.04,128.29c.43,1.89-.06,3.86-1.31,5.34"/>
          <path class="cls-2" d="m195.3,109.71c-.01-.16-.01-.32-.02-.48-.06-1.41-.11-2.76-.16-3.95-.04-1.2-.07-2.26-.09-3.12-.02-.87-.03-1.53,0-1.99,0-.22,0-.38.03-.55.01-.06.02-.12.05-.21.01-.06.04-.14.09-.23.02-.05.06-.11.1-.16.06-.07.13-.14.21-.2s.18-.11.28-.14c.1-.04.22-.05.33-.05.12,0,.23.02.33.06.11.04.2.1.28.16.07.06.14.12.18.18s.07.11.1.15c.03.06.05.1.06.14.03.09.05.15.07.22.05.2.09.42.14.73,0,.08.03.17.04.27.05.33.11.74.16,1.21.11.87.24,1.97.37,3.22.13,1.19.27,2.54.42,3.96.14,1.41.29,2.91.44,4.4.15,1.48.3,2.98.44,4.39.15,1.36.28,2.68.41,3.84"/>
          <path class="cls-2" d="m42.77,134.26c-.4,1.64.6,3.29,2.24,3.69,1.63.4,3.28-.6,3.68-2.23"/>
          <path class="cls-2" d="m51.73,133.63c.43,1.89-.06,3.87-1.31,5.34-2.2,2.59-6.08,2.91-8.67.71s-2.9-6.08-.7-8.67"/>
          <path class="cls-2" d="m54.35,122.95s.02.09.02.13c.39,1.84-.11,3.76-1.33,5.21"/>
          <path class="cls-2" d="m47.36,115.57c-.34,1.36-.59,2.38-.83,3.38h0"/>
          <path class="cls-2" d="m55.66,117.61c.43,1.88-.06,3.86-1.31,5.34"/>
          <path class="cls-2" d="m41.05,131.01c-.43-1.89.05-3.87,1.31-5.34"/>
          <path class="cls-2" d="m53.28,117.02c.12-.48.23-.91.32-1.3.13-.5.23-.95.34-1.37"/>
          <path class="cls-2" d="m43.67,120.33c-.43-1.89.05-3.87,1.31-5.35"/>
          <path class="cls-2" d="m52.45,120.41c.25-1,.5-2.02.83-3.39"/>
          <path class="cls-2" d="m44.26,128.2c-.25,1-.5,2.02-.83,3.39"/>
          <line class="cls-2" x1="197.16" y1="162.57" x2="196.52" y2="161.36"/>
          <line class="cls-2" x1="189.52" y1="160.18" x2="190.73" y2="159.55"/>
          <path class="cls-2" d="m53.94,114.35c.4-1.64-.6-3.29-2.24-3.69-1.63-.4-3.29.6-3.69,2.24"/>
          <path class="cls-2" d="m44.98,114.98c-.43-1.88.06-3.86,1.31-5.34,2.2-2.59,6.08-2.9,8.67-.7s2.9,6.08.7,8.67"/>
          <path class="cls-2" d="m42.36,125.67c-.29-1.27-.17-2.58.34-3.75.23-.57.56-1.11.97-1.59"/>
          <path class="cls-2" d="m48.01,112.9c-.1.44-.22.9-.35,1.43-.09.38-.19.79-.3,1.24"/>
          <line class="cls-2" x1="32.8" y1="32.13" x2="31.8" y2="32.08"/>
          <line class="cls-2" x1="25.62" y1="35.62" x2="25.68" y2="34.29"/>
          <line class="cls-2" x1="29.76" y1="74.03" x2="28.76" y2="73.99"/>
          <line class="cls-2" x1="23.89" y1="71.24" x2="23.95" y2="69.92"/>
          <polyline class="cls-2" points="28.94 70.16 29.52 58.25 30.03 47.77 30.61 35.86"/>
          <line class="cls-2" x1="30.8" y1="32.04" x2="25.81" y2="31.79"/>
          <polyline class="cls-2" points="23.76 73.74 23.77 73.74 28.76 73.99"/>
          <line class="cls-2" x1="30.68" y1="34.45" x2="30.77" y2="32.62"/>
          <line class="cls-2" x1="30.8" y1="32.04" x2="31.8" y2="32.08"/>
          <line class="cls-2" x1="30.8" y1="32.04" x2="30.77" y2="32.62"/>
          <line class="cls-2" x1="57.14" y1="63" x2="50.58" y2="38.88"/>
          <line class="cls-2" x1="75.85" y1="218.02" x2="61.98" y2="218.02"/>
          <path class="cls-2" d="m137.91,238.02c.86,0,1.7-.14,2.5-.4,1.18-.39,2.26-1.05,3.15-1.94"/>
          <line class="cls-2" x1="28.94" y1="70.16" x2="28.88" y2="71.57"/>
          <line class="cls-2" x1="28.79" y1="73.4" x2="28.76" y2="73.99"/>
          <line class="cls-2" x1="143.56" y1="235.68" x2="147.23" y2="232.02"/>
          <polyline class="cls-2" points="116.75 238.02 123.77 238.02 137.91 238.02"/>
          <path class="cls-2" d="m61.98,218.02c-1.98,0-3.93-.42-5.71-1.22-1.5-.67-2.89-1.61-4.09-2.78"/>
          <line class="cls-2" x1="30.76" y1="74.08" x2="35.34" y2="74.31"/>
          <line class="cls-2" x1="29.76" y1="74.03" x2="30.76" y2="74.08"/>
          <line class="cls-2" x1="30.68" y1="34.45" x2="30.61" y2="35.86"/>
          <line class="cls-2" x1="28.79" y1="73.4" x2="28.88" y2="71.57"/>
          <polyline class="cls-2" points="104.16 214.18 104.15 214.18 98.23 215.95"/>
          <line class="cls-2" x1="52.18" y1="214.02" x2="48.1" y2="210.02"/>
          <polyline class="cls-2" points="140.48 203.35 140.03 203.49 110.23 212.37"/>
          <line class="cls-2" x1="23.95" y1="69.92" x2="25.62" y2="35.62"/>
          <line class="cls-2" x1="51.4" y1="214.65" x2="51.48" y2="214.73"/>
          <path class="cls-2" d="m57.22,67.12c.31-1.36.28-2.77-.08-4.12"/>
          <path class="cls-2" d="m22.66,214.72c.03-.13.06-.27.07-.4"/>
          <line class="cls-2" x1="42.79" y1="32.62" x2="32.8" y2="32.13"/>
          <line class="cls-2" x1="158.15" y1="229.09" x2="158.15" y2="236.02"/>
          <path class="cls-2" d="m50.58,38.88c-.97-3.56-4.12-6.08-7.79-6.26"/>
          <line class="cls-2" x1="157.77" y1="236.02" x2="158.15" y2="236.02"/>
          <polyline class="cls-2" points="196.91 126.64 196.81 125.32 196.26 117.66 195.69 109.68 195.04 100.71"/>
          <line class="cls-2" x1="165.85" y1="178.44" x2="167.39" y2="178.92"/>
          <line class="cls-2" x1="165.78" y1="178.31" x2="170.2" y2="164.19"/>
          <line class="cls-2" x1="197.31" y1="100.54" x2="198.03" y2="100.49"/>
          <path class="cls-2" d="m90.04,104.43l-.1.1c-.23.22-.45.43-.6.57-.16.15-.24.23-.24.23"/>
          <path class="cls-2" d="m165.85,178.44c-.06-.02-.09-.07-.07-.13"/>
          <polygon class="cls-2" points="117.96 123.3 118.21 126.79 117.75 127.33 112.76 127.69 111.69 126.76 111.4 122.71 110.98 116.84 110.69 112.8 111.61 111.73 116.6 111.37 117.14 111.83 117.39 115.32 117.96 123.3"/>
          <line class="cls-2" x1="170.33" y1="164.12" x2="171.87" y2="164.61"/>
          <line class="cls-2" x1="94.02" y1="104.15" x2="90.04" y2="104.43"/>
          <polygon class="cls-2" points="200.03 128.2 200.08 128.92 201.67 128.8 200.85 117.33 200.27 109.35 199.45 97.88 197.85 98 198.03 100.49 199.55 121.56 199.56 121.66 200.03 128.2"/>
          <path class="cls-2" d="m95.08,104.9s-.1-.07-.27-.19-.42-.3-.67-.48c-.04-.03-.08-.06-.12-.08"/>
          <path class="cls-2" d="m170.2,164.19c.02-.05.08-.08.13-.07"/>
          <line class="cls-2" x1="196.91" y1="126.64" x2="198.12" y2="126.55"/>
          <line class="cls-2" x1="195.04" y1="100.71" x2="195.31" y2="100.69"/>
          <path class="cls-2" d="m30.53,47.79c.97.41,1.81,1.08,2.41,1.94.1.14.19.29.28.44"/>
          <path class="cls-2" d="m103.74,209.6c.06.46.1.86.14,1.23s.08.71.11,1.04c.01.15.03.3.04.45.01.08.01.16.02.24"/>
          <path class="cls-2" d="m103.31,206.67c.04.22.08.45.11.68.06.33.11.67.16,1.03.05.37.11.77.16,1.22"/>
          <line class="cls-2" x1="33.22" y1="50.17" x2="32.93" y2="56.17"/>
          <path class="cls-2" d="m32.93,56.17c-.1.14-.21.28-.32.41-.69.79-1.58,1.38-2.59,1.7"/>
          <path class="cls-2" d="m104.26,218.48v.69c-.01.33-.02.68-.03,1.05s-.03.77-.05,1.23"/>
          <path class="cls-2" d="m104.05,212.56c.01.22.03.45.05.68.02.3.04.61.05.94,0,.03,0,.07,0,.11.02.37.04.77.06,1.23"/>
          <line class="cls-2" x1="30.53" y1="47.79" x2="30.03" y2="47.77"/>
          <line class="cls-2" x1="30.02" y1="58.28" x2="29.52" y2="58.25"/>
          <path class="cls-2" d="m104.22,215.52c.02.46.03.86.03,1.23.01.37.01.71.02,1.05,0,.23,0,.46-.01.68"/>
          <path class="cls-2" d="m104.18,221.45c-.02.46-.05.86-.07,1.23-.03.37-.06.71-.08,1.05-.02.23-.04.45-.06.68"/>
          <line class="cls-2" x1="81.66" y1="117.56" x2="81.61" y2="116.9"/>
          <polyline class="cls-2" points="81.66 117.56 81.76 118.95 81.97 121.88"/>
          <polyline class="cls-2" points="82.28 126.2 82.18 124.82 81.97 121.88"/>
          <line class="cls-2" x1="82.33" y1="126.87" x2="82.28" y2="126.2"/>
          <line class="cls-2" x1="81.11" y1="116.16" x2="78.81" y2="116.32"/>
          <line class="cls-2" x1="81.61" y1="116.9" x2="81.11" y2="116.16"/>
          <line class="cls-2" x1="79.14" y1="127.1" x2="79.64" y2="127.84"/>
          <line class="cls-2" x1="82.33" y1="126.87" x2="81.94" y2="127.67"/>
          <line class="cls-2" x1="78.42" y1="117.13" x2="78.81" y2="116.32"/>
          <path class="cls-2" d="m103.47,228.38c1.12,1.04,1.81,2.51,1.81,4.14,0,3.12-2.53,5.65-5.65,5.65s-5.65-2.53-5.65-5.65c0-2.39,1.49-4.44,3.59-5.26.64-.25,1.33-.39,2.06-.39,1.49,0,2.84.57,3.84,1.51Z"/>
          <line class="cls-2" x1="81.94" y1="127.67" x2="79.64" y2="127.84"/>
          <path class="cls-2" d="m44.26,128.2c-.97-1.02-1.56-2.39-1.56-3.9,0-.78.16-1.52.44-2.2.63-1.47,1.86-2.63,3.39-3.15.57-.19,1.18-.3,1.82-.3,1.62,0,3.07.68,4.1,1.76.71.75,1.22,1.7,1.44,2.75.07.37.11.75.11,1.14,0,2.48-1.6,4.59-3.82,5.35-.58.19-1.19.3-1.83.3-1.61,0-3.06-.67-4.09-1.75Z"/>
          <path class="cls-2" d="m63.4,96.55c.57-2.31.54-4.72-.08-7.01"/>
          <path class="cls-2" d="m42.94,60.09c.95-.35,1.96-.46,2.96-.32"/>
          <path class="cls-2" d="m45.9,59.77c1.18-.65,2.53-.91,3.86-.73,2.55.34,4.54,2.17,5.19,4.51.23.79.29,1.64.18,2.51-.46,3.42-3.6,5.82-7.02,5.37"/>
          <path class="cls-2" d="m37.17,33.35c-.86-.05-1.66.47-1.97,1.28"/>
          <path class="cls-2" d="m44.74,69c-.91-.99-1.46-2.32-1.46-3.77,0-.77.15-1.49.43-2.16.85-2.05,2.87-3.49,5.22-3.49,3.12,0,5.65,2.53,5.65,5.65s-2.53,5.65-5.65,5.65c-1.67,0-3.17-.72-4.19-1.88Z"/>
          <path class="cls-2" d="m43.3,71.95c-1.26.46-2.64.5-3.93.12-2.2-.66-3.77-2.42-4.28-4.5-.26-1.05-.25-2.17.08-3.27.98-3.31,4.46-5.2,7.77-4.21"/>
          <path class="cls-2" d="m24.27,218.27c.14,6.63,5.62,11.89,12.25,11.75"/>
          <path class="cls-2" d="m33.96,37.91c-.34.89-.53,1.82-.58,2.76"/>
          <line class="cls-2" x1="33.38" y1="40.67" x2="32.94" y2="49.73"/>
          <path class="cls-2" d="m49.61,39.14c-.85-3.13-3.63-5.36-6.87-5.52"/>
          <polyline class="cls-2" points="63.32 89.54 57.22 67.12 56.16 63.22 49.61 39.14"/>
          <path class="cls-2" d="m36.52,230.02c6.63-.14,11.88-5.63,11.74-12.25"/>
          <line class="cls-2" x1="35.2" y1="34.63" x2="33.96" y2="37.91"/>
          <path class="cls-2" d="m32.33,62.31c-.03.53.03,1.05.17,1.56"/>
          <line class="cls-2" x1="42.74" y1="33.62" x2="37.17" y2="33.35"/>
          <polyline class="cls-2" points="32.5 63.87 33.61 67.97 35.34 74.31 38.61 86.35"/>
          <path class="cls-2" d="m38.61,86.35c.89,3.27.94,6.71.13,10.01"/>
          <path class="cls-2" d="m48.11,71.43c-1.47.81-3.2,1-4.81.52"/>
          <line class="cls-2" x1="32.61" y1="56.58" x2="32.33" y2="62.31"/>
          <path class="cls-2" d="m23.36,159.09c-.06.33-.12.65-.16.98-.04.32-.07.65-.09.98-.02.32-.03.65-.03.98v.27"/>
          <path class="cls-2" d="m47.17,166.32v-.36c-.01-.11-.01-.23-.01-.35"/>
          <path class="cls-2" d="m23.51,158.41c-.03.11-.05.23-.08.34-.02.12-.05.23-.07.34"/>
          <circle class="cls-2" cx="36.27" cy="218.02" r="4"/>
          <path class="cls-2" d="m47.57,161.1c.03-.11.05-.22.08-.34.03-.11.05-.23.08-.34"/>
          <path class="cls-2" d="m43.03,63.1c.05,0,.1,0,.15-.01.17,0,.35-.01.53-.02"/>
          <path class="cls-2" d="m43.21,69.1c.17-.01.34-.02.52-.02.33-.02.66-.04,1-.07"/>
          <path class="cls-2" d="m47.16,165.61c0-.2,0-.4,0-.6,0-.44.03-.87.06-1.31.03-.43.08-.87.14-1.3.06-.44.14-.87.22-1.3"/>
          <path class="cls-2" d="m41.01,69.08c.56.02,1.14.03,1.68.03.18-.01.35-.01.52-.01"/>
          <path class="cls-2" d="m41.3,63.08c.31.02.59.02.85.03.26,0,.5,0,.73-.01h.15"/>
          <circle class="cls-2" cx="42.37" cy="41.11" r="5.65"/>
          <path class="cls-2" d="m41.3,63.08c-1.65-.08-3.06,1.2-3.14,2.85-.08,1.66,1.2,3.06,2.85,3.15"/>
          <line class="cls-2" x1="200.27" y1="109.35" x2="219.82" y2="107.94"/>
          <polyline class="cls-2" points="220.14 108.22 220.21 109.22 220.6 114.61 220.67 115.6"/>
          <line class="cls-2" x1="117.96" y1="123.3" x2="141.4" y2="121.61"/>
          <path class="cls-2" d="m221.71,109.11c.01.11-.07.21-.18.22"/>
          <path class="cls-2" d="m220.43,109.41c-.11,0-.21-.08-.21-.19"/>
          <polyline class="cls-2" points="117.39 115.32 141.19 113.6 142.21 113.53"/>
          <line class="cls-2" x1="222.12" y1="114.74" x2="231.09" y2="114.09"/>
          <line class="cls-2" x1="220.43" y1="109.41" x2="221.53" y2="109.33"/>
          <polyline class="cls-2" points="144.2 113.39 147.57 113.15 149.57 113.01 151.49 112.87"/>
          <line class="cls-2" x1="231.56" y1="113.56" x2="231.09" y2="114.09"/>
          <line class="cls-2" x1="220.79" y1="114.39" x2="221.89" y2="114.31"/>
          <path class="cls-2" d="m220.6,114.61c0-.11.08-.21.19-.22"/>
          <polyline class="cls-2" points="153.49 112.72 157.18 112.45 159.18 112.31 161.1 112.17"/>
          <polyline class="cls-2" points="172.71 111.34 176.41 111.07 178.4 110.93 180.33 110.79"/>
          <path class="cls-2" d="m93.82,203.02c-.4,1.77,0,3.62,1.09,5.07"/>
          <path class="cls-2" d="m106.35,224.63c1.19-1.84,1.31-4.18.31-6.13"/>
          <path class="cls-2" d="m105.51,230.72c1.34-1.74,1.66-4.05.84-6.09"/>
          <path class="cls-2" d="m95.48,223.61c-.98,1.52-1.24,3.4-.71,5.14"/>
          <path class="cls-2" d="m106.66,218.5c1.02-1.94.94-4.28-.23-6.14"/>
          <path class="cls-2" d="m105.67,206.27c.68-2.09.18-4.38-1.28-6.01"/>
          <path class="cls-2" d="m94.77,228.75c-2.08,2.68-1.6,6.54,1.08,8.63,2.69,2.08,6.55,1.6,8.63-1.09,1.23-1.58,1.61-3.66,1.03-5.57"/>
          <line class="cls-2" x1="116.77" y1="238.58" x2="116.77" y2="243.02"/>
          <path class="cls-2" d="m94.91,208.09c-.55,1.73-.32,3.61.64,5.15"/>
          <polyline class="cls-2" points="80.27 213.4 80.67 212.32 84.38 202.2"/>
          <path class="cls-2" d="m95.55,213.24c-.7,1.67-.63,3.57.2,5.19"/>
          <path class="cls-2" d="m106.43,212.36c.86-2.02.57-4.34-.76-6.09"/>
          <path class="cls-2" d="m95.75,218.43c-.85,1.6-.95,3.5-.27,5.18"/>
          <line class="cls-2" x1="19.77" y1="237.77" x2="19.77" y2="243.02"/>
          <path class="cls-2" d="m73.88,218.56c.69-.09,1.35-.28,1.97-.54,2.03-.84,3.65-2.5,4.42-4.62"/>
          <path class="cls-2" d="m53.53,217.38c1.76,2.25,4.59,3.4,7.42,3"/>
          <path class="cls-2" d="m22.38,216.27c.23-1.83.82-3.59,1.74-5.19"/>
          <line class="cls-2" x1="60.95" y1="220.38" x2="73.88" y2="218.56"/>
          <path class="cls-2" d="m19.77,237.77c0-.5.03-1,.09-1.5"/>
          <line class="cls-2" x1="85.55" y1="200.38" x2="92.75" y2="193.22"/>
          <polyline class="cls-2" points="106.12 196.85 110.23 212.37 116.37 235.51"/>
          <path class="cls-2" d="m116.37,235.51c.21.82.35,1.66.38,2.51.02.19.02.37.02.56"/>
          <path class="cls-2" d="m92.75,193.22c.99-.99,2.23-1.7,3.59-2.06,4.27-1.13,8.65,1.42,9.78,5.69"/>
          <polyline class="cls-2" points="48.11 210.44 51.4 214.65 53.53 217.38"/>
          <path class="cls-2" d="m98.26,218.44v.51c-.01.32-.01.65-.02,1.01-.02.35-.03.74-.05,1.19"/>
          <path class="cls-2" d="m98.19,221.15c-.03.45-.05.83-.07,1.19-.03.35-.06.68-.08,1-.02.17-.03.34-.05.5"/>
          <path class="cls-2" d="m98.22,215.74c0,.07.01.14.01.21,0,.36.02.68.03.98,0,.36.01.68.01,1,0,.17,0,.34-.01.51"/>
          <path class="cls-2" d="m84.38,202.2c.26-.68.65-1.3,1.17-1.82"/>
          <line class="cls-2" x1="19.86" y1="236.27" x2="22.38" y2="216.27"/>
          <path class="cls-2" d="m104.39,200.26c.75-3.31-1.32-6.6-4.63-7.36-3.32-.75-6.61,1.32-7.37,4.63-.44,1.95.09,4,1.43,5.49"/>
          <path class="cls-2" d="m98.07,213.04c.01.17.02.33.03.51.03.31.05.64.07,1,.02.35.04.74.05,1.19"/>
          <path class="cls-2" d="m97.4,207.67c.02.17.05.33.08.5.05.32.1.64.15.99.05.36.1.74.16,1.19"/>
          <path class="cls-2" d="m97.79,210.35c.05.45.1.83.14,1.18.02.28.05.54.07.79.01.07.01.14.02.21.02.17.03.34.05.51"/>
          <path class="cls-2" d="m96.89,205.01c.09.45.17.82.23,1.17.07.35.13.67.19.99.03.17.06.33.09.5"/>
          <path class="cls-2" d="m102.07,200.87c.05.22.11.44.17.66.08.33.16.66.24,1.02.09.37.18.75.27,1.2"/>
          <path class="cls-2" d="m97.99,223.84c0,.17-.03.34-.05.51-.03.32-.07.65-.11,1s-.09.73-.15,1.18"/>
          <path class="cls-2" d="m95.52,199.78c-.49-1.58.4-3.26,1.99-3.75,1.58-.49,3.26.4,3.75,1.98"/>
          <path class="cls-2" d="m95.52,199.78c.13.43.24.8.34,1.14.1.35.19.66.27.97.05.16.09.33.13.49"/>
          <path class="cls-2" d="m96.26,202.38c.04.16.09.33.13.5.08.31.15.62.23.97.09.35.17.72.27,1.16"/>
          <path class="cls-2" d="m101.26,198.01c.13.44.24.83.35,1.18.1.36.19.69.28,1.02l.18.66"/>
          <path class="cls-2" d="m102.75,203.75c.1.46.18.85.25,1.21.07.37.13.7.19,1.03.04.23.08.46.12.68"/>
          <path class="cls-2" d="m103.97,224.41c-.03.22-.05.45-.07.68-.04.33-.08.67-.12,1.04s-.09.77-.16,1.23"/>
          <path class="cls-2" d="m97.68,226.53c-.04.26-.07.5-.11.73"/>
          <path class="cls-2" d="m103.62,227.36c-.05.37-.1.71-.15,1.02"/>
          <line class="cls-2" x1="78.53" y1="118.66" x2="79.02" y2="125.57"/>
          <line class="cls-2" x1="56.27" y1="212.32" x2="56.27" y2="216.8"/>
          <polyline class="cls-2" points="78.53 118.66 78.42 117.13 78.31 115.63"/>
          <line class="cls-2" x1="104.03" y1="212.32" x2="98" y2="212.32"/>
          <path class="cls-2" d="m47.66,114.33c1.71-.12,3.42.2,4.96.93"/>
          <path class="cls-2" d="m49.05,134.28c-2.08.14-4.15-.36-5.93-1.45"/>
          <line class="cls-2" x1="74.26" y1="128.96" x2="79.24" y2="128.6"/>
          <line class="cls-2" x1="156.77" y1="237.62" x2="140.41" y2="237.62"/>
          <line class="cls-2" x1="73.32" y1="115.99" x2="78.31" y2="115.63"/>
          <line class="cls-2" x1="60.18" y1="128.47" x2="54.68" y2="132.11"/>
          <line class="cls-2" x1="72.65" y1="127.57" x2="74.26" y2="128.96"/>
          <polyline class="cls-2" points="79.24 128.6 79.13 127.1 79.02 125.57"/>
          <line class="cls-2" x1="157.77" y1="237.62" x2="157.77" y2="236.02"/>
          <line class="cls-2" x1="60.18" y1="128.47" x2="72.65" y2="127.57"/>
          <line class="cls-2" x1="59.47" y1="118.49" x2="71.93" y2="117.59"/>
          <line class="cls-2" x1="53.6" y1="115.72" x2="52.62" y2="115.26"/>
          <line class="cls-2" x1="157.77" y1="237.62" x2="156.77" y2="237.62"/>
          <line class="cls-2" x1="71.93" y1="117.59" x2="73.32" y2="115.99"/>
          <line class="cls-2" x1="59.47" y1="118.49" x2="58.17" y2="117.88"/>
          <line class="cls-2" x1="80.67" y1="212.32" x2="56.27" y2="212.32"/>
          <line class="cls-2" x1="190.73" y1="159.55" x2="196.52" y2="161.36"/>
          <circle class="cls-2" cx="48.35" cy="124.3" r="2.76"/>
          <circle class="cls-2" cx="48.93" cy="65.23" r="2.76"/>
          <circle class="cls-2" cx="42.37" cy="41.11" r="2.76"/>
          <circle class="cls-2" cx="99.63" cy="232.52" r="2.76"/>
          <line class="cls-2" x1="222.12" y1="114.74" x2="222.1" y2="114.5"/>
          <line class="cls-2" x1="221.71" y1="109.11" x2="221.69" y2="108.87"/>
          <polyline class="cls-2" points="63.4 96.55 58.17 117.88 54.68 132.11 47.73 160.42"/>
          <polyline class="cls-2" points="47.17 166.32 48.1 210.02 48.1 210.44 48.26 217.77"/>
          <polyline class="cls-2" points="23.08 162.3 24.12 211.07 24.12 211.08 24.27 218.27"/>
          <line class="cls-2" x1="23.51" y1="158.41" x2="38.74" y2="96.36"/>
          <line class="cls-2" x1="7.94" y1="172.59" x2="16.01" y2="6.79"/>
          <line class="cls-2" x1="197.16" y1="162.57" x2="187.44" y2="193.6"/>
          <polyline class="cls-2" points="189.52 160.18 179.81 191.21 177.06 199.99"/>
        </g>
      </g>
    </g>
  </g>
  <g id="Arrow">
    <g id="LWPOLYLINE">
      <g>
        <polygon class="cls-4" points="191.47 85.59 171.1 95.74 170.18 94.43 171.88 90.78 148.85 92.79 150.55 89.16 148.26 85.89 171.28 83.87 168.96 80.57 169.64 79.13 191.47 85.59"/>
        <polygon class="cls-3" points="148.26 85.89 171.28 83.87 168.96 80.57 169.64 79.13 191.47 85.59 171.1 95.74 170.18 94.43 171.88 90.78 148.85 92.79 150.55 89.16 148.26 85.89"/>
      </g>
    </g>
    <path class="cls-1" d="m176.42,90.49l.21-1.2h-3l.31-1.8,3.21-4h2.9l-.69,3.9h.6l-.33,1.9h-.6l-.21,1.2h-2.4Zm.75-4.3l-.91,1.2h.8l.21-1.2h-.1Z"/>
  </g>
</svg>