<?xml version="1.0" encoding="UTF-8"?>
<svg xmlns="http://www.w3.org/2000/svg" viewBox="0 0 127.54 130.43">
  <defs>
    <style>
      .cls-1 {
        stroke-miterlimit: 10;
      }

      .cls-1, .cls-2, .cls-3 {
        fill: none;
        stroke-linecap: round;
      }

      .cls-1, .cls-3 {
        stroke: #e84e0f;
      }

      .cls-2 {
        stroke: #000;
        stroke-width: .5px;
      }

      .cls-2, .cls-3 {
        stroke-linejoin: round;
      }

      .cls-4 {
        fill: #e84e0f;
      }

      .cls-3 {
        stroke-width: .71px;
      }
    </style>
  </defs>
  <g id="Light">
    <g id="ELLIPSE">
      <path class="cls-2" d="m97.19,67.5c.52.26,1.21.18,1.93-.24"/>
    </g>
    <g id="ELLIPSE-2" data-name="ELLIPSE">
      <path class="cls-2" d="m101.94,62.36c0-.83-.27-1.47-.76-1.79"/>
    </g>
    <g id="ELLIPSE-3" data-name="ELLIPSE">
      <ellipse class="cls-2" cx="99.61" cy="64.28" rx="3.3" ry="1.91" transform="translate(-5.86 118.41) rotate(-60)"/>
    </g>
    <g id="LINE">
      <line class="cls-2" x1="99.61" y1="66.98" x2="99.12" y2="67.26"/>
    </g>
    <g id="LINE-2" data-name="LINE">
      <line class="cls-2" x1="101.94" y1="62.93" x2="101.94" y2="62.36"/>
    </g>
    <g id="ELLIPSE-4" data-name="ELLIPSE">
      <path class="cls-2" d="m65.57,40.62c.12,0,.25-.02.38-.05"/>
    </g>
    <g id="ELLIPSE-5" data-name="ELLIPSE">
      <path class="cls-2" d="m66.84,40.17c.26-.17.51-.39.75-.64"/>
    </g>
    <g id="ELLIPSE-6" data-name="ELLIPSE">
      <path class="cls-2" d="m65.46,38.31c-.65.68-1.38,1.08-2.01,1.09"/>
    </g>
    <g id="ELLIPSE-7" data-name="ELLIPSE">
      <path class="cls-2" d="m67.58,39.53c1.16-1.21,2.39-2.22,3.65-2.95,5.47-3.22,9.94-.74,10,5.55"/>
    </g>
    <g id="ELLIPSE-8" data-name="ELLIPSE">
      <path class="cls-2" d="m71.27,59.42c-1.57.9-3.11,1.35-4.51,1.31-4.85-.11-6.74-5.92-4.22-12.98"/>
    </g>
    <g id="ELLIPSE-9" data-name="ELLIPSE">
      <path class="cls-2" d="m65.46,38.31c3.69-3.87,7.92-5.33,10.74-3.7"/>
    </g>
    <g id="ELLIPSE-10" data-name="ELLIPSE">
      <path class="cls-2" d="m62.21,58.85c-3.05-1.76-3.78-6.75-1.78-12.33"/>
    </g>
    <g id="ELLIPSE-11" data-name="ELLIPSE">
      <path class="cls-2" d="m62.54,47.75c.32-.9.37-1.77.12-2.39"/>
    </g>
    <g id="ELLIPSE-12" data-name="ELLIPSE">
      <path class="cls-2" d="m60.55,44.14c.24.62.2,1.48-.12,2.39"/>
    </g>
    <g id="ELLIPSE-13" data-name="ELLIPSE">
      <path class="cls-2" d="m60.55,44.14c-.2-.51-.17-1.22.08-1.96.51-1.51,1.78-2.76,2.83-2.78"/>
    </g>
    <g id="ELLIPSE-14" data-name="ELLIPSE">
      <path class="cls-2" d="m62.67,45.36c-.2-.51-.17-1.22.08-1.96.51-1.51,1.78-2.76,2.83-2.78"/>
    </g>
    <g id="LINE-3" data-name="LINE">
      <line class="cls-2" x1="64.33" y1="60.08" x2="62.21" y2="58.85"/>
    </g>
    <g id="LINE-4" data-name="LINE">
      <line class="cls-2" x1="78.33" y1="35.83" x2="76.21" y2="34.6"/>
    </g>
    <g id="LINE-5" data-name="LINE">
      <line class="cls-2" x1="79.06" y1="44.33" x2="80.31" y2="45.05"/>
    </g>
    <g id="LINE-6" data-name="LINE">
      <line class="cls-2" x1="72.42" y1="56.66" x2="73.31" y2="57.18"/>
    </g>
    <g id="ELLIPSE-15" data-name="ELLIPSE">
      <path class="cls-2" d="m66.5,49.01c-.3-.03-.69-.15-.95-.3"/>
    </g>
    <g id="ELLIPSE-16" data-name="ELLIPSE">
      <path class="cls-2" d="m65.55,48.71c-.06-.04-.12-.07-.16-.11"/>
    </g>
    <g id="ELLIPSE-17" data-name="ELLIPSE">
      <ellipse class="cls-2" cx="68.98" cy="39.56" rx=".24" ry=".83" transform="translate(10.37 93.3) rotate(-72.35)"/>
    </g>
    <g id="LINE-7" data-name="LINE">
      <line class="cls-2" x1="67.94" y1="40.12" x2="68.2" y2="39.31"/>
    </g>
    <g id="LINE-8" data-name="LINE">
      <line class="cls-2" x1="69.37" y1="41.05" x2="69.77" y2="39.81"/>
    </g>
    <g id="SPLINE">
      <path class="cls-2" d="m73.09,60.52c-.31-.18-.59-.4-.85-.65-.46-.46-.83-1.04-1.09-1.69-.28-.69-.44-1.48-.49-2.32-.05-.9.03-1.87.23-2.86s.53-2.02.95-3,.95-1.93,1.55-2.8,1.27-1.66,1.98-2.34,1.47-1.25,2.23-1.66,1.55-.7,2.31-.8,1.49-.03,2.14.23c.36.14.7.35,1,.6"/>
    </g>
    <g id="SPLINE-2" data-name="SPLINE">
      <path class="cls-2" d="m72.55,60.14c-.14-.05-.27-.11-.41-.18-.59-.3-1.12-.75-1.52-1.3s-.7-1.19-.89-1.9c-.21-.77-.29-1.64-.26-2.54s.21-1.95.49-2.95.69-2.01,1.18-2.96,1.08-1.85,1.72-2.66,1.35-1.53,2.08-2.12,1.51-1.07,2.28-1.38,1.55-.48,2.29-.46,1.4.22,1.97.59c.14.09.28.2.41.31"/>
    </g>
    <g id="SPLINE-3" data-name="SPLINE">
      <path class="cls-2" d="m71.37,59.46c-.36-.14-.71-.32-1.02-.55-.52-.39-.96-.91-1.28-1.51s-.56-1.34-.68-2.12c-.13-.84-.12-1.77,0-2.73s.38-2,.75-3,.83-1.98,1.39-2.89,1.19-1.76,1.87-2.5,1.42-1.39,2.17-1.89,1.54-.88,2.3-1.08,1.53-.24,2.23-.09c.61.13,1.17.41,1.64.81"/>
    </g>
    <g id="SPLINE-4" data-name="SPLINE">
      <path class="cls-2" d="m70.19,58.78c-.58-.22-1.11-.57-1.54-1.02s-.81-1.06-1.07-1.71c-.27-.7-.42-1.5-.46-2.35-.04-.9.05-1.88.26-2.87s.55-2.02.99-3,.97-1.92,1.57-2.78,1.28-1.64,1.99-2.31,1.48-1.22,2.24-1.63,1.56-.67,2.31-.76,1.48,0,2.12.28c.34.15.66.35.94.59"/>
    </g>
    <g id="SPLINE-5" data-name="SPLINE">
      <path class="cls-2" d="m69.02,58.1c-.17-.06-.34-.14-.49-.22-.58-.31-1.09-.77-1.49-1.33s-.68-1.21-.86-1.93c-.2-.78-.27-1.66-.22-2.57s.23-1.96.53-2.96c0,0,0-.01,0-.02.01-.05.03-.1.05-.15.05-.15.1-.3.15-.45.05-.14.09-.27.15-.41"/>
    </g>
    <g id="SPLINE-6" data-name="SPLINE">
      <path class="cls-2" d="m69.8,43.05c.33-.37.66-.72,1.01-1.04.72-.66,1.48-1.21,2.24-1.61s1.56-.66,2.31-.74,1.47.02,2.11.3c.32.14.63.34.9.57"/>
    </g>
    <g id="SPLINE-7" data-name="SPLINE">
      <path class="cls-2" d="m67.84,57.42c-.19-.07-.36-.15-.54-.24-.58-.32-1.08-.78-1.47-1.34s-.67-1.22-.85-1.94c-.19-.79-.26-1.67-.21-2.58s.21-1.79.47-2.7"/>
    </g>
    <g id="SPLINE-8" data-name="SPLINE">
      <path class="cls-2" d="m79.45,44.56c-.02-.12-.04-.23-.06-.34"/>
    </g>
    <g id="SPLINE-9" data-name="SPLINE">
      <path class="cls-2" d="m72.6,57.33c.22-.04.44-.1.67-.18"/>
    </g>
    <g id="SPLINE-10" data-name="SPLINE">
      <path class="cls-2" d="m80.56,44.85c-.07-.31-.16-.59-.27-.83"/>
    </g>
    <g id="SPLINE-11" data-name="SPLINE">
      <path class="cls-2" d="m72.94,58.09c.08,0,.16,0,.24,0"/>
    </g>
    <g id="SPLINE-12" data-name="SPLINE">
      <path class="cls-2" d="m81.25,44.33c-.04-.06-.08-.12-.12-.17-.03-.04-.06-.07-.09-.1"/>
    </g>
    <g id="SPLINE-13" data-name="SPLINE">
      <path class="cls-2" d="m81.47,44.18c-.25-.1-.53-.16-.84-.17-.55-.01-1.22.14-1.92.48-.57.27-1.17.67-1.75,1.16s-1.14,1.08-1.66,1.74-1.02,1.42-1.43,2.2-.77,1.62-1.03,2.44-.43,1.65-.5,2.41-.05,1.48.06,2.11.31,1.15.56,1.57c.06.1.12.19.19.28"/>
    </g>
    <g id="LINE-9" data-name="LINE">
      <line class="cls-2" x1="89" y1="38.28" x2="90.24" y2="38.99"/>
    </g>
    <g id="LINE-10" data-name="LINE">
      <line class="cls-2" x1="89" y1="42.13" x2="89" y2="38.28"/>
    </g>
    <g id="LINE-11" data-name="LINE">
      <line class="cls-2" x1="89.04" y1="42.14" x2="89.04" y2="38.3"/>
    </g>
    <g id="LINE-12" data-name="LINE">
      <line class="cls-2" x1="87.49" y1="41.48" x2="88.35" y2="41.98"/>
    </g>
    <g id="LINE-13" data-name="LINE">
      <line class="cls-2" x1="87.66" y1="41.91" x2="87.49" y2="41.48"/>
    </g>
    <g id="LINE-14" data-name="LINE">
      <line class="cls-2" x1="87.71" y1="41.91" x2="87.55" y2="41.52"/>
    </g>
    <g id="LINE-15" data-name="LINE">
      <path class="cls-2" d="m118.56,25.95l-5.41,3.12"/>
    </g>
    <g id="ELLIPSE-18" data-name="ELLIPSE">
      <path class="cls-2" d="m113.15,29.07c-.19.11-.41.2-.66.25"/>
    </g>
    <g id="LINE-16" data-name="LINE">
      <line class="cls-2" x1="90.41" y1="37.99" x2="85.22" y2="34.99"/>
    </g>
    <g id="LINE-17" data-name="LINE">
      <path class="cls-2" d="m118.74,26.01l-6.31,3.64"/>
    </g>
    <g id="LINE-18" data-name="LINE">
      <line class="cls-2" x1="85.22" y1="34.99" x2="91.58" y2="31.32"/>
    </g>
    <g id="LINE-19" data-name="LINE">
      <line class="cls-2" x1="85.22" y1="42.26" x2="85.22" y2="34.99"/>
    </g>
    <g id="ELLIPSE-19" data-name="ELLIPSE">
      <path class="cls-2" d="m117.07,35.01c-.3-.06-.56-.21-.76-.44-.95-1.03-.61-3.38.75-5.26.78-1.08,1.73-1.77,2.58-1.96"/>
    </g>
    <g id="LINE-20" data-name="LINE">
      <line class="cls-2" x1="117.06" y1="29.32" x2="120.85" y2="31.51"/>
    </g>
    <g id="LINE-21" data-name="LINE">
      <line class="cls-2" x1="119.02" y1="27.57" x2="120.55" y2="28.46"/>
    </g>
    <g id="ELLIPSE-20" data-name="ELLIPSE">
      <path class="cls-2" d="m78.43,65.28c-.44-1.43-.51-3.17-.2-5.06,1.01-6.33,5.87-12.84,10.84-14.54"/>
    </g>
    <g id="ELLIPSE-21" data-name="ELLIPSE">
      <path class="cls-2" d="m89.34,44.14c-5.24,1.23-10.75,7.87-12.3,14.82-.81,3.65-.4,6.83,1.15,8.74"/>
    </g>
    <g id="LINE-22" data-name="LINE">
      <line class="cls-2" x1="109.76" y1="44.95" x2="117.39" y2="40.54"/>
    </g>
    <g id="LINE-23" data-name="LINE">
      <line class="cls-2" x1="118.85" y1="38.07" x2="110.08" y2="43.13"/>
    </g>
    <g id="ELLIPSE-22" data-name="ELLIPSE">
      <path class="cls-2" d="m75.99,66.81c-3.73-2.16-3.88-9.01-.33-15.58s9.94-10.76,13.98-8.85"/>
    </g>
    <g id="ELLIPSE-23" data-name="ELLIPSE">
      <path class="cls-2" d="m82.29,43.66c-5.08,2.93-9.19,10.06-9.19,15.92"/>
    </g>
    <g id="ELLIPSE-24" data-name="ELLIPSE">
      <path class="cls-2" d="m120.44,33.04c-.24.15-.47.3-.71.44"/>
    </g>
    <g id="LINE-24" data-name="LINE">
      <line class="cls-2" x1="110.87" y1="38.59" x2="120.43" y2="33.07"/>
    </g>
    <g id="LINE-25" data-name="LINE">
      <line class="cls-2" x1="75.99" y1="66.81" x2="78.15" y2="68.06"/>
    </g>
    <g id="LINE-26" data-name="LINE">
      <line class="cls-2" x1="82.29" y1="43.66" x2="82.99" y2="43.26"/>
    </g>
    <g id="LINE-27" data-name="LINE">
      <line class="cls-2" x1="73.09" y1="59.59" x2="73.09" y2="60.4"/>
    </g>
    <g id="LINE-28" data-name="LINE">
      <line class="cls-2" x1="79.4" y1="36.35" x2="75.07" y2="33.95"/>
    </g>
    <g id="ELLIPSE-25" data-name="ELLIPSE">
      <path class="cls-2" d="m75.07,33.95c-3.29-1.82-8.36.49-12.24,5.59"/>
    </g>
    <g id="ELLIPSE-26" data-name="ELLIPSE">
      <path class="cls-2" d="m60.41,43.44c-3.33,6.73-2.76,13.4,1.28,15.07"/>
    </g>
    <g id="ELLIPSE-27" data-name="ELLIPSE">
      <path class="cls-2" d="m85.22,36.18c-2.19.98-4.24,1.04-5.82.17"/>
    </g>
    <g id="ELLIPSE-28" data-name="ELLIPSE">
      <path class="cls-2" d="m80.3,37.94c1.42.53,3.11.45,4.92-.23"/>
    </g>
    <g id="ELLIPSE-29" data-name="ELLIPSE">
      <path class="cls-2" d="m57.61,56.2c-3.84-2.22-3.87-9.37-.07-16.04s10.09-10.41,14-8.24"/>
    </g>
    <g id="LINE-29" data-name="LINE">
      <line class="cls-2" x1="71.54" y1="31.91" x2="75.86" y2="34.31"/>
    </g>
    <g id="ELLIPSE-30" data-name="ELLIPSE">
      <path class="cls-2" d="m63.9,33.05c-5.08,2.93-9.19,10.06-9.19,15.92"/>
    </g>
    <g id="LINE-30" data-name="LINE">
      <line class="cls-2" x1="82.79" y1="33.57" x2="92.12" y2="28.19"/>
    </g>
    <g id="ELLIPSE-31" data-name="ELLIPSE">
      <path class="cls-2" d="m75.86,34.31c1.85,1.03,4.34.76,6.93-.73"/>
    </g>
    <g id="LINE-31" data-name="LINE">
      <line class="cls-2" x1="57.61" y1="56.2" x2="61.14" y2="58.24"/>
    </g>
    <g id="LINE-32" data-name="LINE">
      <line class="cls-2" x1="63.9" y1="33.05" x2="64.61" y2="32.64"/>
    </g>
    <g id="LINE-33" data-name="LINE">
      <line class="cls-2" x1="54.71" y1="48.97" x2="54.71" y2="49.79"/>
    </g>
    <g id="ELLIPSE-32" data-name="ELLIPSE">
      <path class="cls-2" d="m89.35,21.83c-.54,2.4-1.98,4.09-3.85,4.53"/>
    </g>
    <g id="LINE-34" data-name="LINE">
      <path class="cls-2" d="m93.29,4.36c-1.31,5.82-2.62,11.64-3.93,17.47"/>
    </g>
    <g id="LINE-35" data-name="LINE">
      <path class="cls-2" d="m87.66,22.22c1.29-6.2,2.89-12.33,4.26-18.51"/>
    </g>
    <g id="ELLIPSE-33" data-name="ELLIPSE">
      <path class="cls-2" d="m47.75,6.97c.45.47.96.88,1.52,1.21"/>
    </g>
    <g id="LINE-36" data-name="LINE">
      <line class="cls-2" x1="49.27" y1="8.18" x2="80.39" y2="26.15"/>
    </g>
    <g id="ELLIPSE-34" data-name="ELLIPSE">
      <path class="cls-2" d="m80.39,26.15c3.12,1.8,6.38.05,7.28-3.93"/>
    </g>
    <g id="LINE-37" data-name="LINE">
      <line class="cls-2" x1="79.43" y1="24.66" x2="48.32" y2="6.7"/>
    </g>
    <g id="ELLIPSE-35" data-name="ELLIPSE">
      <path class="cls-2" d="m84.89,21.72c-.67,2.98-3.11,4.3-5.46,2.95"/>
    </g>
    <g id="LINE-38" data-name="LINE">
      <path class="cls-2" d="m89.18,2.93c-1.26,6.3-2.34,12.65-4.28,18.79"/>
    </g>
    <g id="LINE-39" data-name="LINE">
      <line class="cls-2" x1="85.51" y1="26.35" x2="83.82" y2="26.75"/>
    </g>
    <g id="ELLIPSE-36" data-name="ELLIPSE">
      <path class="cls-2" d="m115.13,78.59c2.18-1.24,4.77-1.73,7.26-1.71"/>
    </g>
    <g id="ELLIPSE-37" data-name="ELLIPSE">
      <path class="cls-2" d="m76.28,95.31c2.73,1.58,7.17,1.58,9.9,0"/>
    </g>
    <g id="LINE-40" data-name="LINE">
      <line class="cls-2" x1="47.28" y1="65.1" x2="46.22" y2="65.71"/>
    </g>
    <g id="ELLIPSE-38" data-name="ELLIPSE">
      <path class="cls-2" d="m46.22,65.71c-1.76,1.01-1.76,2.66,0,3.67"/>
    </g>
    <g id="LINE-41" data-name="LINE">
      <line class="cls-2" x1="46.22" y1="69.38" x2="62.13" y2="78.57"/>
    </g>
    <g id="LINE-42" data-name="LINE">
      <line class="cls-2" x1="62.13" y1="78.57" x2="78.04" y2="87.76"/>
    </g>
    <g id="ELLIPSE-39" data-name="ELLIPSE">
      <path class="cls-2" d="m78.04,87.76c1.76,1.01,4.61,1.01,6.36,0"/>
    </g>
    <g id="LINE-43" data-name="LINE">
      <line class="cls-2" x1="84.41" y1="87.76" x2="111.57" y2="72.08"/>
    </g>
    <g id="ELLIPSE-40" data-name="ELLIPSE">
      <path class="cls-2" d="m111.57,72.08c3.46-2,8.59-2.64,13.14-1.67"/>
    </g>
    <g id="ELLIPSE-41" data-name="ELLIPSE">
      <path class="cls-2" d="m123.79,64.36c-3.13,1.57-1.41,4.57,1,5.64"/>
    </g>
    <g id="LINE-44" data-name="LINE">
      <path class="cls-2" d="m126.26,62.94l-.26.15-2.21,1.28"/>
    </g>
    <g id="LINE-45" data-name="LINE">
      <path class="cls-2" d="m124.01,64.73l2.38-1.37"/>
    </g>
    <g id="ELLIPSE-42" data-name="ELLIPSE">
      <path class="cls-2" d="m123.9,69.57c-2.24-1.36-2.2-3.51.1-4.84"/>
    </g>
    <g id="ELLIPSE-43" data-name="ELLIPSE">
      <path class="cls-2" d="m122.21,76.77c-2.32.01-4.7.47-6.73,1.62"/>
    </g>
    <g id="LINE-46" data-name="LINE">
      <line class="cls-2" x1="86.53" y1="95.1" x2="86.18" y2="95.31"/>
    </g>
    <g id="LINE-47" data-name="LINE">
      <line class="cls-2" x1="115.48" y1="78.39" x2="86.53" y2="95.1"/>
    </g>
    <g id="ELLIPSE-44" data-name="ELLIPSE">
      <path class="cls-2" d="m44.1,76.73c-1.41-.81-2.2-1.91-2.2-3.06"/>
    </g>
    <g id="ELLIPSE-45" data-name="ELLIPSE">
      <path class="cls-2" d="m86.53,95.1c-2.93,1.69-7.68,1.69-10.61,0"/>
    </g>
    <g id="LINE-48" data-name="LINE">
      <line class="cls-2" x1="75.92" y1="95.1" x2="76.28" y2="95.31"/>
    </g>
    <g id="LINE-49" data-name="LINE">
      <line class="cls-2" x1="75.92" y1="95.1" x2="44.1" y2="76.73"/>
    </g>
    <g id="ELLIPSE-46" data-name="ELLIPSE">
      <path class="cls-2" d="m86.53,91.43c-2.93,1.69-7.68,1.69-10.61,0"/>
    </g>
    <g id="SPLINE-14" data-name="SPLINE">
      <path class="cls-2" d="m115.48,74.44c-.61.54-1.21.97-1.79,1.31"/>
    </g>
    <g id="LINE-50" data-name="LINE">
      <line class="cls-2" x1="113.69" y1="75.75" x2="86.53" y2="91.43"/>
    </g>
    <g id="SPLINE-15" data-name="SPLINE">
      <path class="cls-2" d="m124.04,71.36c-1.2,0-2.44.17-3.58.48-1.32.36-2.65.94-3.79,1.7-.42.28-.82.59-1.19.91"/>
    </g>
    <g id="LINE-51" data-name="LINE">
      <line class="cls-2" x1="60.01" y1="82.24" x2="44.1" y2="73.06"/>
    </g>
    <g id="LINE-52" data-name="LINE">
      <line class="cls-2" x1="44.1" y1="66.93" x2="46.22" y2="65.71"/>
    </g>
    <g id="ELLIPSE-47" data-name="ELLIPSE">
      <path class="cls-2" d="m44.1,73.06c-2.93-1.69-2.93-4.43,0-6.12"/>
    </g>
    <g id="LINE-53" data-name="LINE">
      <line class="cls-2" x1="75.92" y1="91.43" x2="60.01" y2="82.24"/>
    </g>
    <g id="LINE-54" data-name="LINE">
      <path class="cls-2" d="m124.01,67.51l1.79-1.03"/>
    </g>
    <g id="ELLIPSE-48" data-name="ELLIPSE">
      <path class="cls-2" d="m122.75,68.57c.3-.4.73-.76,1.25-1.06"/>
    </g>
    <g id="LINE-55" data-name="LINE">
      <line class="cls-2" x1="41.91" y1="70" x2="41.91" y2="73.67"/>
    </g>
    <g id="ELLIPSE-49" data-name="ELLIPSE">
      <ellipse class="cls-2" cx="103.9" cy="37.5" rx="2.6" ry="1.5" transform="translate(19.47 108.72) rotate(-60)"/>
    </g>
    <g id="ELLIPSE-50" data-name="ELLIPSE">
      <path class="cls-2" d="m103.72,35.49c.7-.32,1.25,0,1.33.77.09.9-.5,2.09-1.33,2.67s-1.56.32-1.65-.58"/>
    </g>
    <g id="ELLIPSE-51" data-name="ELLIPSE">
      <path class="cls-2" d="m90.27,66.31c-1.02,5.87,1.85,9.45,6.42,7.99"/>
    </g>
    <g id="ELLIPSE-52" data-name="ELLIPSE">
      <path class="cls-2" d="m88.31,71.61c-2.06-1.19-2.92-4.11-2.28-7.75"/>
    </g>
    <g id="ELLIPSE-53" data-name="ELLIPSE">
      <path class="cls-2" d="m96.69,74.3c.61-.19,1.23-.47,1.86-.83"/>
    </g>
    <g id="SPLINE-16" data-name="SPLINE">
      <path class="cls-2" d="m92.07,11.49c-.05-.12-.09-.23-.14-.35-.04-.09-.07-.19-.11-.28"/>
    </g>
    <g id="LINE-56" data-name="LINE">
      <line class="cls-2" x1="96.95" y1="22.98" x2="92.43" y2="12.37"/>
    </g>
    <g id="LINE-57" data-name="LINE">
      <line class="cls-2" x1="91.29" y1="13.21" x2="95.68" y2="23.52"/>
    </g>
    <g id="SPLINE-17" data-name="SPLINE">
      <path class="cls-2" d="m92.43,12.37c-.06-.15-.12-.29-.19-.44s-.12-.3-.18-.44"/>
    </g>
    <g id="SPLINE-18" data-name="SPLINE">
      <path class="cls-2" d="m95.7,23.56c.22.53.41,1.07.56,1.63s.27,1.15.35,1.72.11,1.17.1,1.74-.06,1.09-.15,1.6"/>
    </g>
    <g id="SPLINE-19" data-name="SPLINE">
      <path class="cls-2" d="m97.96,30.44c.1-.57.15-1.17.16-1.78s-.03-1.28-.12-1.93-.22-1.28-.39-1.91-.38-1.22-.63-1.8"/>
    </g>
    <g id="SPLINE-20" data-name="SPLINE">
      <path class="cls-2" d="m96.97,23.03s0-.02,0-.02,0-.02,0-.02"/>
    </g>
    <g id="SPLINE-21" data-name="SPLINE">
      <path class="cls-2" d="m95.68,23.52s0,.01,0,.02,0,.01,0,.02"/>
    </g>
    <g id="LINE-58" data-name="LINE">
      <line class="cls-2" x1="96.55" y1="30.31" x2="90.27" y2="66.31"/>
    </g>
    <g id="LINE-59" data-name="LINE">
      <line class="cls-2" x1="91.67" y1="66.5" x2="97.95" y2="30.5"/>
    </g>
    <g id="ELLIPSE-54" data-name="ELLIPSE">
      <path class="cls-2" d="m106.85,61.66c-.94,5.38-5.1,10.83-9.29,12.16s-6.83-1.94-5.89-7.33"/>
    </g>
    <g id="LINE-60" data-name="LINE">
      <line class="cls-2" x1="112.88" y1="27.09" x2="106.85" y2="61.66"/>
    </g>
    <g id="SPLINE-22" data-name="SPLINE">
      <path class="cls-2" d="m97.95,30.5s0-.02,0-.03,0-.02,0-.03"/>
    </g>
    <g id="SPLINE-23" data-name="SPLINE">
      <path class="cls-2" d="m96.56,30.25v.03s0,.02-.01.03"/>
    </g>
    <g id="SPLINE-24" data-name="SPLINE">
      <path class="cls-2" d="m112.82,22.54c-.07-.39-.16-.78-.26-1.16s-.23-.76-.37-1.14"/>
    </g>
    <g id="SPLINE-25" data-name="SPLINE">
      <path class="cls-2" d="m111.93,19.6c.25.6.46,1.21.63,1.84s.3,1.29.38,1.94.11,1.28.1,1.9-.07,1.19-.17,1.75"/>
    </g>
    <g id="SPLINE-26" data-name="SPLINE">
      <path class="cls-2" d="m112.89,27.03s0,.02,0,.03,0,.02,0,.03"/>
    </g>
    <g id="LINE-61" data-name="LINE">
      <path class="cls-2" d="m110.01,15.08l1.91,4.48"/>
    </g>
    <g id="SPLINE-27" data-name="SPLINE">
      <path class="cls-2" d="m111.92,19.55s0,.02,0,.02,0,.02,0,.02"/>
    </g>
    <g id="ELLIPSE-55" data-name="ELLIPSE">
      <path class="cls-2" d="m100.98,65.67c-1.02,1.49-2.44,2.31-3.45,1.99-1.24-.39-1.47-2.3-.51-4.28s2.73-3.27,3.97-2.88,1.47,2.3.51,4.28"/>
    </g>
    <g id="ELLIPSE-56" data-name="ELLIPSE">
      <path class="cls-2" d="m86.01,63.23c-.13.72-.19,1.41-.19,2.07"/>
    </g>
    <g id="LINE-62" data-name="LINE">
      <line class="cls-2" x1="92.12" y1="28.19" x2="86.01" y2="63.23"/>
    </g>
    <g id="LINE-63" data-name="LINE">
      <line class="cls-2" x1="86.03" y1="63.86" x2="92.14" y2="28.82"/>
    </g>
    <g id="SPLINE-28" data-name="SPLINE">
      <path class="cls-2" d="m91.34,22.21c.06.13.11.27.16.4"/>
    </g>
    <g id="SPLINE-29" data-name="SPLINE">
      <path class="cls-2" d="m92.1,24.76c.02.13.04.27.06.4.07.52.1,1.04.1,1.55s-.05.96-.12,1.42"/>
    </g>
    <g id="SPLINE-30" data-name="SPLINE">
      <path class="cls-2" d="m92.15,28.75c.09-.51.14-1.05.15-1.59s-.02-1.16-.1-1.75-.19-1.15-.35-1.72-.34-1.09-.56-1.62"/>
    </g>
    <g id="SPLINE-31" data-name="SPLINE">
      <path class="cls-2" d="m92.14,28.13s0,.02,0,.03,0,.02,0,.03"/>
    </g>
    <g id="SPLINE-32" data-name="SPLINE">
      <path class="cls-2" d="m92.14,28.82v-.03s0-.02.01-.03"/>
    </g>
    <g id="LINE-64" data-name="LINE">
      <line class="cls-2" x1="89.99" y1="19.02" x2="91.32" y2="22.16"/>
    </g>
    <g id="LINE-65" data-name="LINE">
      <line class="cls-2" x1="91.28" y1="22.03" x2="89.99" y2="19.01"/>
    </g>
    <g id="SPLINE-33" data-name="SPLINE">
      <path class="cls-2" d="m91.32,22.16s0,.02,0,.02,0,.02,0,.02"/>
    </g>
    <g id="SPLINE-34" data-name="SPLINE">
      <path class="cls-2" d="m91.3,22.08s0-.02-.01-.03,0-.02-.01-.03"/>
    </g>
    <g id="LINE-66" data-name="LINE">
      <line class="cls-2" x1="88.31" y1="71.61" x2="92.55" y2="74.06"/>
    </g>
    <g id="LINE-67" data-name="LINE">
      <line class="cls-2" x1="99.26" y1="73.06" x2="98.55" y2="73.47"/>
    </g>
    <g id="SPLINE-35" data-name="SPLINE">
      <path class="cls-2" d="m112.82,22.54s.01.07.02.1"/>
    </g>
    <g id="SPLINE-36" data-name="SPLINE">
      <path class="cls-2" d="m112.15,20.14s.03.07.04.1"/>
    </g>
    <g id="LINE-68" data-name="LINE">
      <line class="cls-2" x1="85.82" y1="65.3" x2="85.82" y2="66.12"/>
    </g>
    <g id="ELLIPSE-57" data-name="ELLIPSE">
      <path class="cls-2" d="m85.96,67.8c-1.03-2.2-.72-5.58.81-8.93"/>
    </g>
    <g id="ELLIPSE-58" data-name="ELLIPSE">
      <path class="cls-2" d="m86.32,69.14c-2.19-2.26-1.88-7.27.73-11.89"/>
    </g>
    <g id="ELLIPSE-59" data-name="ELLIPSE">
      <path class="cls-2" d="m61.65,15.33c-.41.06-.73-.13-.88-.51"/>
    </g>
    <g id="ELLIPSE-60" data-name="ELLIPSE">
      <path class="cls-2" d="m48.81,47.41c-.51-1.42-.6-3.22-.26-5.19"/>
    </g>
    <g id="ELLIPSE-61" data-name="ELLIPSE">
      <path class="cls-2" d="m44.31,39.77c-.64,3.64.22,6.57,2.28,7.75"/>
    </g>
    <g id="LINE-69" data-name="LINE">
      <line class="cls-2" x1="44.29" y1="39.14" x2="49.65" y2="8.4"/>
    </g>
    <g id="LINE-70" data-name="LINE">
      <line class="cls-2" x1="49.77" y1="8.47" x2="44.31" y2="39.77"/>
    </g>
    <g id="ELLIPSE-62" data-name="ELLIPSE">
      <path class="cls-2" d="m44.1,41.21c0-.66.06-1.36.19-2.07"/>
    </g>
    <g id="LINE-71" data-name="LINE">
      <line class="cls-2" x1="66.61" y1="29.06" x2="68.34" y2="19.19"/>
    </g>
    <g id="LINE-72" data-name="LINE">
      <line class="cls-2" x1="48.55" y1="42.22" x2="54.01" y2="10.92"/>
    </g>
    <g id="LINE-73" data-name="LINE">
      <line class="cls-2" x1="55.31" y1="11.67" x2="50.53" y2="39.09"/>
    </g>
    <g id="LINE-74" data-name="LINE">
      <line class="cls-2" x1="46.59" y1="47.52" x2="48.67" y2="48.73"/>
    </g>
    <g id="LINE-75" data-name="LINE">
      <line class="cls-2" x1="44.1" y1="41.21" x2="44.1" y2="42.03"/>
    </g>
    <g id="LINE-76" data-name="LINE">
      <line class="cls-2" x1="68.7" y1="60.49" x2="52.23" y2="70"/>
    </g>
    <g id="LINE-77" data-name="LINE">
      <line class="cls-2" x1="52.23" y1="70" x2="50.82" y2="70"/>
    </g>
    <g id="LINE-78" data-name="LINE">
      <line class="cls-2" x1="50.82" y1="70" x2="47.28" y2="67.96"/>
    </g>
    <g id="LINE-79" data-name="LINE">
      <line class="cls-2" x1="52.23" y1="65.71" x2="52.23" y2="70"/>
    </g>
    <g id="ELLIPSE-63" data-name="ELLIPSE">
      <path class="cls-2" d="m89.89,29.09c.84-.62,1.64-1.41,2.37-2.33"/>
    </g>
    <g id="LINE-80" data-name="LINE">
      <line class="cls-2" x1="87.53" y1="30.84" x2="89.89" y2="29.09"/>
    </g>
    <g id="ELLIPSE-64" data-name="ELLIPSE">
      <path class="cls-2" d="m54.07,47.2c.15-1.49.55-3.08,1.16-4.66,2.54-6.54,8.16-11.52,12.56-11.13"/>
    </g>
    <g id="LINE-81" data-name="LINE">
      <line class="cls-2" x1="52.3" y1="64.56" x2="54.07" y2="47.2"/>
    </g>
    <g id="ELLIPSE-65" data-name="ELLIPSE">
      <path class="cls-2" d="m52.23,65.71c0-.37.02-.76.06-1.16"/>
    </g>
    <g id="ELLIPSE-66" data-name="ELLIPSE">
      <path class="cls-2" d="m47.35,61.7c-.04.4-.06.78-.06,1.16"/>
    </g>
    <g id="LINE-82" data-name="LINE">
      <line class="cls-2" x1="49.12" y1="44.34" x2="47.35" y2="61.7"/>
    </g>
    <g id="ELLIPSE-67" data-name="ELLIPSE">
      <path class="cls-2" d="m58.24,29.78c-4.63,2.68-8.54,8.91-9.12,14.56"/>
    </g>
    <g id="ELLIPSE-68" data-name="ELLIPSE">
      <path class="cls-2" d="m75.8,33c-.17.13-.35.25-.52.36"/>
    </g>
    <g id="LINE-83" data-name="LINE">
      <line class="cls-2" x1="84.45" y1="26.6" x2="75.8" y2="33"/>
    </g>
    <g id="ELLIPSE-69" data-name="ELLIPSE">
      <path class="cls-2" d="m89.75,20.09c.11-.31.21-.62.3-.93"/>
    </g>
    <g id="LINE-84" data-name="LINE">
      <line class="cls-2" x1="76.41" y1="32.65" x2="84.66" y2="26.55"/>
    </g>
    <g id="ELLIPSE-70" data-name="ELLIPSE">
      <path class="cls-2" d="m74.65,33.63c.58-.22,1.17-.55,1.75-.98"/>
    </g>
    <g id="ELLIPSE-71" data-name="ELLIPSE">
      <path class="cls-2" d="m49.13,45.05c.27-2.68,1.27-5.59,2.82-8.29,3.87-6.7,10.13-10.31,14-8.08"/>
    </g>
    <g id="LINE-85" data-name="LINE">
      <line class="cls-2" x1="47.35" y1="62.41" x2="49.13" y2="45.05"/>
    </g>
    <g id="LINE-86" data-name="LINE">
      <line class="cls-2" x1="47.28" y1="62.85" x2="47.28" y2="63.67"/>
    </g>
    <g id="ELLIPSE-72" data-name="ELLIPSE">
      <path class="cls-2" d="m47.28,63.67c0-.41.02-.83.07-1.26"/>
    </g>
    <g id="LINE-87" data-name="LINE">
      <line class="cls-2" x1="47.28" y1="63.67" x2="47.28" y2="67.96"/>
    </g>
    <g id="ELLIPSE-73" data-name="ELLIPSE">
      <path class="cls-2" d="m92.07,24.61c-.84,1.35-1.88,2.5-2.99,3.33"/>
    </g>
    <g id="LINE-88" data-name="LINE">
      <line class="cls-2" x1="89.08" y1="27.93" x2="79.94" y2="34.7"/>
    </g>
    <g id="ELLIPSE-74" data-name="ELLIPSE">
      <path class="cls-2" d="m79.94,34.7s-.05.04-.08.06"/>
    </g>
    <g id="LINE-89" data-name="LINE">
      <line class="cls-2" x1="70.48" y1="31.48" x2="70.29" y2="31.31"/>
    </g>
    <g id="ELLIPSE-75" data-name="ELLIPSE">
      <path class="cls-2" d="m70.29,31.31c-3.37-3.03-9.59-.32-13.9,6.05-2.06,3.05-3.4,6.55-3.73,9.73"/>
    </g>
    <g id="LINE-90" data-name="LINE">
      <line class="cls-2" x1="52.67" y1="47.09" x2="50.89" y2="64.45"/>
    </g>
    <g id="ELLIPSE-76" data-name="ELLIPSE">
      <path class="cls-2" d="m50.89,64.45c-.04.43-.07.85-.07,1.26"/>
    </g>
    <g id="LINE-91" data-name="LINE">
      <line class="cls-2" x1="50.82" y1="65.71" x2="50.82" y2="70"/>
    </g>
    <g id="LINE-92" data-name="LINE">
      <line class="cls-2" x1="58.24" y1="29.78" x2="58.95" y2="29.38"/>
    </g>
    <g id="LINE-93" data-name="LINE">
      <line class="cls-2" x1="65.95" y1="28.68" x2="69.49" y2="30.72"/>
    </g>
    <g id="LINE-94" data-name="LINE">
      <line class="cls-2" x1="81.93" y1="87.14" x2="80.52" y2="87.14"/>
    </g>
    <g id="LINE-95" data-name="LINE">
      <line class="cls-2" x1="80.52" y1="87.14" x2="76.98" y2="85.1"/>
    </g>
    <g id="LINE-96" data-name="LINE">
      <path class="cls-2" d="m126.55,61.53c-.22.13-.45.26-.67.4-14.53,8.61-29.41,16.61-43.95,25.22"/>
    </g>
    <g id="ELLIPSE-77" data-name="ELLIPSE">
      <path class="cls-2" d="m84.76,64.89c.04,1.87.59,3.38,1.58,4.32"/>
    </g>
    <g id="ELLIPSE-78" data-name="ELLIPSE">
      <path class="cls-2" d="m76.98,80c0-.37.02-.76.06-1.16"/>
    </g>
    <g id="LINE-97" data-name="LINE">
      <line class="cls-2" x1="77.04" y1="78.84" x2="78.82" y2="61.49"/>
    </g>
    <g id="ELLIPSE-79" data-name="ELLIPSE">
      <path class="cls-2" d="m78.82,61.49c.58-5.64,4.49-11.88,9.12-14.56"/>
    </g>
    <g id="LINE-98" data-name="LINE">
      <line class="cls-2" x1="109.35" y1="47.29" x2="114.64" y2="43.38"/>
    </g>
    <g id="ELLIPSE-80" data-name="ELLIPSE">
      <path class="cls-2" d="m114.64,43.38c2.32-1.72,4.28-4.67,5.09-7.68"/>
    </g>
    <g id="LINE-99" data-name="LINE">
      <path class="cls-2" d="m119.73,35.7l1.42-5.29"/>
    </g>
    <g id="ELLIPSE-81" data-name="ELLIPSE">
      <path class="cls-2" d="m86.82,70.15c-2.83-2.04-2.73-7.67.23-12.92"/>
    </g>
    <g id="LINE-100" data-name="LINE">
      <line class="cls-2" x1="81.93" y1="82.86" x2="81.93" y2="87.14"/>
    </g>
    <g id="ELLIPSE-82" data-name="ELLIPSE">
      <path class="cls-2" d="m124.68,38.56c-.81,3.01-2.76,5.96-5.09,7.68"/>
    </g>
    <g id="LINE-101" data-name="LINE">
      <line class="cls-2" x1="119.59" y1="46.24" x2="110.45" y2="53"/>
    </g>
    <g id="ELLIPSE-83" data-name="ELLIPSE">
      <path class="cls-2" d="m110.45,53c-.77.57-1.55.98-2.3,1.22"/>
    </g>
    <g id="ELLIPSE-84" data-name="ELLIPSE">
      <path class="cls-2" d="m87.45,55c-2.03,2.9-3.36,6.28-3.67,9.35"/>
    </g>
    <g id="LINE-102" data-name="LINE">
      <line class="cls-2" x1="83.77" y1="64.34" x2="81.99" y2="81.7"/>
    </g>
    <g id="ELLIPSE-85" data-name="ELLIPSE">
      <path class="cls-2" d="m81.99,81.7c-.04.4-.06.78-.06,1.16"/>
    </g>
    <g id="LINE-103" data-name="LINE">
      <path class="cls-2" d="m123.3,38.25l.63-2.36"/>
    </g>
    <g id="ELLIPSE-86" data-name="ELLIPSE">
      <path class="cls-2" d="m118.78,45.08c2.07-1.53,3.8-4.15,4.52-6.83"/>
    </g>
    <g id="LINE-104" data-name="LINE">
      <line class="cls-2" x1="109.64" y1="51.84" x2="118.78" y2="45.08"/>
    </g>
    <g id="ELLIPSE-87" data-name="ELLIPSE">
      <path class="cls-2" d="m108.43,52.59c.4-.2.81-.45,1.21-.74"/>
    </g>
    <g id="ELLIPSE-88" data-name="ELLIPSE">
      <path class="cls-2" d="m82.36,64.24c.42-4.12,2.53-8.69,5.59-12.13"/>
    </g>
    <g id="LINE-105" data-name="LINE">
      <line class="cls-2" x1="80.59" y1="81.6" x2="82.36" y2="64.24"/>
    </g>
    <g id="ELLIPSE-89" data-name="ELLIPSE">
      <path class="cls-2" d="m80.52,82.86c0-.41.02-.83.07-1.26"/>
    </g>
    <g id="LINE-106" data-name="LINE">
      <line class="cls-2" x1="80.52" y1="82.86" x2="80.52" y2="87.14"/>
    </g>
    <g id="LINE-107" data-name="LINE">
      <path class="cls-2" d="m121.29,30.54l-1.52,5.67"/>
    </g>
    <g id="ELLIPSE-90" data-name="ELLIPSE">
      <path class="cls-2" d="m119.77,36.21c-.72,2.68-2.46,5.3-4.52,6.83"/>
    </g>
    <g id="LINE-108" data-name="LINE">
      <line class="cls-2" x1="115.25" y1="43.04" x2="109.33" y2="47.41"/>
    </g>
    <g id="ELLIPSE-91" data-name="ELLIPSE">
      <path class="cls-2" d="m88.96,46.35c-5.1,2.77-9.49,9.63-10.13,15.85"/>
    </g>
    <g id="LINE-109" data-name="LINE">
      <line class="cls-2" x1="78.83" y1="62.2" x2="77.05" y2="79.56"/>
    </g>
    <g id="LINE-110" data-name="LINE">
      <line class="cls-2" x1="76.98" y1="80.82" x2="76.98" y2="80"/>
    </g>
    <g id="ELLIPSE-92" data-name="ELLIPSE">
      <path class="cls-2" d="m77.05,79.56c-.04.43-.07.85-.07,1.26"/>
    </g>
    <g id="LINE-111" data-name="LINE">
      <line class="cls-2" x1="76.98" y1="80.82" x2="76.98" y2="85.1"/>
    </g>
    <g id="LINE-112" data-name="LINE">
      <line class="cls-2" x1="87.94" y1="46.93" x2="88.65" y2="46.52"/>
    </g>
    <g id="SPLINE-37" data-name="SPLINE">
      <path class="cls-2" d="m67.02,45.91c-.02-.11-.03-.22-.04-.31"/>
    </g>
    <g id="ELLIPSE-93" data-name="ELLIPSE">
      <path class="cls-2" d="m67.2,44.88c-.2.36-.27.75-.18,1.02"/>
    </g>
    <g id="ELLIPSE-94" data-name="ELLIPSE">
      <path class="cls-2" d="m68.02,44.69c.04-.21.01-.4-.07-.52"/>
    </g>
    <g id="ELLIPSE-95" data-name="ELLIPSE">
      <path class="cls-2" d="m67.01,45.82c.17,0,.36-.09.54-.26"/>
    </g>
    <g id="ELLIPSE-96" data-name="ELLIPSE">
      <path class="cls-2" d="m67.55,45.56c.24-.23.42-.56.48-.88"/>
    </g>
    <g id="ELLIPSE-97" data-name="ELLIPSE">
      <path class="cls-2" d="m68.64,42.59c-.45-.92-1.64-.76-2.66.34s-1.48,2.75-1.03,3.66c.2.41.57.63,1.03.59"/>
    </g>
    <g id="ELLIPSE-98" data-name="ELLIPSE">
      <ellipse class="cls-2" cx="67.8" cy="45.17" rx="1.4" ry=".81" transform="translate(-5.22 81.31) rotate(-60)"/>
    </g>
    <g id="ELLIPSE-99" data-name="ELLIPSE">
      <path class="cls-2" d="m68.06,42.03c-.79-.45-2.06.28-2.85,1.65s-.79,2.84,0,3.29"/>
    </g>
    <g id="ELLIPSE-100" data-name="ELLIPSE">
      <path class="cls-2" d="m67.62,46.2c.28-.09.58-.37.78-.73"/>
    </g>
    <g id="ELLIPSE-101" data-name="ELLIPSE">
      <path class="cls-2" d="m67.02,45.91c.09.27.32.38.6.29"/>
    </g>
    <g id="ELLIPSE-102" data-name="ELLIPSE">
      <path class="cls-2" d="m67.98,44.15c-.28.09-.58.37-.78.73"/>
    </g>
    <g id="ELLIPSE-103" data-name="ELLIPSE">
      <path class="cls-2" d="m68.58,44.44c-.09-.27-.32-.38-.6-.29"/>
    </g>
    <g id="ELLIPSE-104" data-name="ELLIPSE">
      <path class="cls-2" d="m68.4,45.47c.2-.36.27-.75.18-1.02"/>
    </g>
    <g id="SPLINE-38" data-name="SPLINE">
      <path class="cls-2" d="m67.02,45.91c.07.02.25.11.6.29"/>
    </g>
    <g id="LINE-113" data-name="LINE">
      <line class="cls-2" x1="67.62" y1="46.2" x2="67.16" y2="45.93"/>
    </g>
    <g id="LINE-114" data-name="LINE">
      <line class="cls-2" x1="67.01" y1="45.86" x2="67.16" y2="45.93"/>
    </g>
    <g id="SPLINE-39" data-name="SPLINE">
      <path class="cls-2" d="m67.62,46.2c.13-.34.36-.56.78-.73"/>
    </g>
    <g id="LINE-115" data-name="LINE">
      <line class="cls-2" x1="68.4" y1="45.47" x2="67.94" y2="45.2"/>
    </g>
    <g id="LINE-116" data-name="LINE">
      <line class="cls-2" x1="67.55" y1="45.56" x2="67.94" y2="45.2"/>
    </g>
    <g id="LINE-117" data-name="LINE">
      <line class="cls-2" x1="67.16" y1="45.93" x2="67.55" y2="45.56"/>
    </g>
    <g id="SPLINE-40" data-name="SPLINE">
      <path class="cls-2" d="m68.4,45.47c-.08-.44-.03-.75.18-1.02"/>
    </g>
    <g id="LINE-118" data-name="LINE">
      <line class="cls-2" x1="68.02" y1="44.69" x2="68.11" y2="44.2"/>
    </g>
    <g id="LINE-119" data-name="LINE">
      <line class="cls-2" x1="67.94" y1="45.2" x2="68.02" y2="44.69"/>
    </g>
    <g id="SPLINE-41" data-name="SPLINE">
      <path class="cls-2" d="m68.58,44.44c-.35-.18-.53-.27-.6-.29"/>
    </g>
    <g id="SPLINE-42" data-name="SPLINE">
      <path class="cls-2" d="m67.98,44.15c-.08.03-.15.07-.21.1"/>
    </g>
    <g id="ARC">
      <path class="cls-2" d="m68.64,42.59c.18.37.29.78.32,1.19.12,1.76-1.21,3.29-2.98,3.41"/>
    </g>
    <g id="LINE-120" data-name="LINE">
      <line class="cls-2" x1="68.06" y1="42.03" x2="68.22" y2="42.13"/>
    </g>
    <g id="LINE-121" data-name="LINE">
      <line class="cls-2" x1="65.21" y1="46.97" x2="65.37" y2="47.06"/>
    </g>
    <g id="ELLIPSE-105" data-name="ELLIPSE">
      <path class="cls-2" d="m69.48,44.51c.79-2.27.16-4.11-1.41-4.12s-3.48,1.83-4.27,4.1-.16,4.11,1.41,4.12c.79,0,1.72-.47,2.55-1.32"/>
    </g>
    <g id="ELLIPSE-106" data-name="ELLIPSE">
      <path class="cls-2" d="m68.32,40.28c-1.24-.72-3.26.45-4.5,2.6s-1.24,4.48,0,5.2"/>
    </g>
    <g id="LINE-122" data-name="LINE">
      <line class="cls-2" x1="64.38" y1="48.4" x2="63.82" y2="48.07"/>
    </g>
    <g id="LINE-123" data-name="LINE">
      <line class="cls-2" x1="68.88" y1="40.6" x2="68.32" y2="40.28"/>
    </g>
    <g id="ELLIPSE-107" data-name="ELLIPSE">
      <path class="cls-2" d="m62.63,44.53c0-1.29.91-2.86,2.02-3.5"/>
    </g>
    <g id="ELLIPSE-108" data-name="ELLIPSE">
      <path class="cls-2" d="m65.78,40.68c-1.02-.07-2.32,1.11-2.88,2.62-.36.95-.36,1.85,0,2.38"/>
    </g>
    <g id="LINE-124" data-name="LINE">
      <line class="cls-2" x1="64.65" y1="41.02" x2="64.75" y2="40.97"/>
    </g>
    <g id="LINE-125" data-name="LINE">
      <line class="cls-2" x1="62.63" y1="44.53" x2="62.63" y2="44.64"/>
    </g>
  </g>
  <g id="nuoli">
    <g id="LWPOLYLINE">
      <g>
        <polygon class="cls-4" points="32.58 96.49 24.01 117.58 22.44 117.21 21.31 113.35 5.37 130.08 4.24 126.24 .35 125.29 16.3 108.56 12.38 107.62 11.92 106.08 32.58 96.49"/>
        <polygon class="cls-3" points=".35 125.29 16.3 108.56 12.38 107.62 11.92 106.08 32.58 96.49 24.01 117.58 22.44 117.21 21.31 113.35 5.37 130.08 4.24 126.24 .35 125.29"/>
      </g>
    </g>
  </g>
  <g id="Layer_3" data-name="Layer 3">
    <path class="cls-1" d="m87.96,2.52c.63.18,1.25.36,1.86.56,21.59,6.96,37.22,27.22,37.22,51.13,0,2.48-.17,4.93-.5,7.32-.05.37-.11.75-.16,1.12-.03.18-.06.36-.09.54-.19,1.11-.41,2.22-.66,3.3,0,.03-.01.06-.02.09-.27,1.14-.58,2.27-.92,3.38-.04.14-.09.29-.13.43-.09.29-.18.57-.28.85-.65,1.93-1.4,3.81-2.25,5.64-8.55,18.33-27.14,31.03-48.7,31.03-29.66,0-53.71-24.05-53.71-53.71,0-16.93,7.83-32.02,20.07-41.87,2.46-1.98,5.09-3.74,7.88-5.27C55.21,2.88,63.99.5,73.33.5c5.07,0,9.98.7,14.63,2.02Z"/>
  </g>
</svg>