<?xml version="1.0" encoding="UTF-8"?>
<svg xmlns="http://www.w3.org/2000/svg" viewBox="0 0 256 254">
  <defs>
    <style>
      .cls-1 {
        fill: #fff;
      }

      .cls-2 {
        stroke: #000;
      }

      .cls-2, .cls-3 {
        fill: none;
        stroke-linecap: round;
        stroke-linejoin: round;
        stroke-width: .71px;
      }

      .cls-4 {
        fill: #e84e0f;
      }

      .cls-3 {
        stroke: #e84e0f;
      }

      .cls-5 {
        fill: #999;
      }

      .cls-6 {
        fill: #ccc;
      }

      .cls-7 {
        fill: #666;
      }
    </style>
  </defs>
  <g id="Light">
    <g id="LINE">
      <g>
        <g>
          <path class="cls-5" d="m113.36,157.52c.11-.37.26-.87.46-1.46.25-.79.59-1.79.97-2.9.38-1.12.83-2.4,1.29-3.72.47-1.36.98-2.81,1.48-4.24l-.94-.35,2.86-7.48,1.78-4.67.68.26.28.11c-.11.37-.26.86-.46,1.45-.26.8-.59,1.79-.97,2.91s-.83,2.39-1.29,3.72c-.47,1.36-.98,2.8-1.48,4.23-.09.36-.18.71-.27,1.06-.39,1.48-.78,2.96-1.12,4.33-.37,1.47-.71,2.85-.97,4.04-.3,1.37-.51,2.5-.6,3.36l-1.42-.54-.28-.11Z"/>
          <path class="cls-5" d="m117.19,157.28c.14-.8.36-1.82.62-2.96.27-1.16.6-2.47.94-3.84.36-1.4.75-2.9,1.14-4.38.52-1.48,1.04-2.97,1.53-4.37.46-1.34.91-2.63,1.29-3.75.41-1.2.76-2.25,1.03-3.07.14-.43.26-.81.35-1.12l1.38.52.29.65-3.41,8.92-2.11,5.5-2.71,7.1s0,.01,0,.01l-.35.92s.01-.09.02-.13Z"/>
          <path class="cls-6" d="m165.2,179.41c-.11,0-.23-.02-.34-.06-.11-.05-.21-.11-.29-.18-.09-.07-.16-.16-.22-.25-.05-.08-.08-.17-.11-.25-.02-.07-.03-.14-.03-.19-.01-.07-.01-.12-.01-.16.01-.08.01-.13.02-.19.03-.16.06-.32.12-.52.04-.16.09-.34.16-.55.05-.18.12-.39.19-.62.24-.76.57-1.77.97-2.95.37-1.07.8-2.32,1.26-3.64.45-1.3.94-2.71,1.43-4.12.5-1.4,1-2.84,1.48-4.2.47-1.36.93-2.69,1.34-3.87.4-1.18.77-2.26,1.06-3.14s.52-1.6.67-2.08h-.01l-.25-.1-.48,1.26-.15.07v-.02c.35-.79.63-1.39.84-1.8.09-.2.17-.34.26-.48.03-.05.07-.11.13-.18.04-.04.09-.1.18-.17.05-.03.1-.07.16-.1.08-.04.18-.07.28-.09s.2-.03.31-.01c.11.01.22.04.32.09s.2.12.27.2c.08.08.14.17.19.26.04.09.07.17.08.24.02.07.03.13.03.18v.16c-.01.08-.02.15-.03.22-.04.2-.1.42-.18.72-.02.08-.05.17-.08.27-.1.32-.22.71-.37,1.16-.27.83-.62,1.88-1.03,3.07-.38,1.13-.83,2.42-1.3,3.77-.46,1.33-.96,2.76-1.46,4.17-.49,1.4-.99,2.83-1.45,4.17-.47,1.32-.9,2.6-1.29,3.72v.02s-2.35,6.13-2.35,6.13c-.1.03-.21.04-.32.04Z"/>
          <path class="cls-6" d="m162.53,177.21c-.17.19-.34.35-.58.49-.13.07-.28.14-.47.17-.14.03-.3.03-.46-.01-.2-.04-.4-.15-.55-.29-.13-.12-.21-.26-.28-.38-.08-.17-.12-.33-.14-.48-.05-.34-.05-.68-.01-1.08.07-.87.29-2.06.61-3.52.26-1.18.59-2.56.96-4.03.13-.52.26-1.05.4-1.6h.01c.22-.89.46-1.81.7-2.73.39-1.46.78-2.95,1.15-4.38.06-.23.12-.46.17-.68.3-1.17.59-2.3.83-3.33.3-1.22.55-2.33.73-3.25.02-.12.05-.24.07-.36-.35.57-.74,1.24-1.16,2-.54.97-1.14,2.08-1.76,3.27-.16.32-.34.65-.51.98l-1.87-.71c.63-1.22,1.25-2.39,1.81-3.43.61-1.13,1.18-2.13,1.67-2.96.51-.84.94-1.5,1.34-1.98.2-.26.39-.46.65-.64.13-.1.29-.19.51-.25.16-.04.36-.05.56-.01.21.05.41.17.55.3.13.12.22.26.28.39.08.17.11.33.14.48.05.35.04.7,0,1.11-.07.88-.3,2.1-.62,3.57-.26,1.19-.6,2.57-.97,4.04-.12.49-.25.99-.38,1.5-.24.92-.49,1.88-.74,2.83-.38,1.46-.77,2.96-1.14,4.37-.05.2-.1.4-.15.59-.3,1.2-.59,2.36-.85,3.41-.29,1.22-.54,2.32-.71,3.23-.02.1-.04.19-.05.29.35-.58.75-1.28,1.19-2.06.18-.34.38-.7.58-1.07l.9.35-1.33,3.5.23.51v.03s-.03.03-.03.03c-.48.79-.89,1.37-1.28,1.79Z"/>
          <path class="cls-6" d="m151.68,168.54c.26-1.19.59-2.58.96-4.04.12-.48.25-.96.37-1.46.24-.94.49-1.91.75-2.87.38-1.47.78-2.96,1.14-4.38.05-.18.09-.36.14-.54.31-1.21.61-2.39.86-3.45.29-1.21.54-2.31.71-3.22.02-.1.04-.19.05-.28-.36.59-.77,1.31-1.21,2.11-.54.98-1.14,2.1-1.76,3.29-.15.28-.3.57-.45.86l-1.87-.71c.63-1.22,1.24-2.39,1.81-3.43.61-1.13,1.17-2.13,1.67-2.96.51-.84.94-1.5,1.33-1.98.21-.26.4-.46.65-.64.14-.1.3-.19.51-.25.17-.04.37-.05.57-.01.21.05.41.16.55.3.13.12.21.26.27.39.09.17.12.33.15.48.05.35.04.69,0,1.11-.07.88-.3,2.1-.62,3.57-.26,1.19-.6,2.57-.97,4.04-.12.49-.25.99-.38,1.5-.24.92-.49,1.88-.74,2.83-.38,1.46-.77,2.96-1.14,4.37-.05.2-.1.4-.15.59-.31,1.2-.6,2.36-.85,3.41-.29,1.22-.54,2.32-.71,3.23-.02.1-.04.19-.05.29.35-.58.75-1.28,1.19-2.06.54-.98,1.14-2.1,1.76-3.29.15-.29.31-.59.46-.9l1.87.72c-.61,1.18-1.21,2.32-1.76,3.35-.61,1.12-1.18,2.14-1.68,2.97-.51.85-.95,1.53-1.34,2.01-.21.27-.41.48-.66.67-.14.09-.3.19-.52.25-.16.04-.37.06-.58.01s-.41-.16-.55-.3c-.13-.12-.21-.26-.27-.38-.08-.18-.12-.34-.14-.49-.06-.35-.05-.7-.01-1.12.08-.89.31-2.11.64-3.59Z"/>
          <path class="cls-6" d="m144.75,156.78c.38-1.46.77-2.96,1.14-4.37l.15-.6c.31-1.2.6-2.36.85-3.41.29-1.21.54-2.32.71-3.22.02-.11.04-.21.06-.32-.35.58-.75,1.29-1.19,2.07-.54.97-1.14,2.1-1.76,3.28-.15.3-.31.6-.47.91l-1.87-.71c.63-1.22,1.24-2.39,1.81-3.44.61-1.12,1.17-2.13,1.67-2.95.51-.84.94-1.51,1.33-1.98.21-.26.4-.47.65-.64.14-.1.3-.19.51-.25.17-.04.37-.05.57-.01.21.05.41.16.55.3.13.12.21.26.27.39.08.17.12.33.15.48.05.35.04.69,0,1.11-.07.88-.3,2.1-.62,3.57-.27,1.19-.6,2.57-.97,4.04-.12.48-.25.98-.38,1.49-.24.92-.49,1.88-.74,2.84-.38,1.46-.77,2.95-1.14,4.37-.05.19-.1.39-.15.58-.31,1.21-.6,2.37-.85,3.42-.29,1.22-.54,2.32-.71,3.23-.02.1-.04.2-.05.29.34-.58.75-1.28,1.18-2.06.54-.98,1.14-2.1,1.77-3.29.15-.29.31-.59.46-.9l1.87.72c-.63,1.22-1.26,2.41-1.83,3.46-.6,1.12-1.17,2.13-1.66,2.95-.51.84-.94,1.5-1.33,1.97-.21.25-.4.46-.65.63-.13.1-.29.19-.51.24-.16.04-.36.06-.55.01-.21-.04-.41-.16-.56-.3-.12-.12-.21-.25-.27-.38-.08-.17-.12-.33-.14-.49-.06-.34-.05-.68-.01-1.1.07-.88.3-2.09.62-3.56.26-1.19.6-2.57.97-4.04.12-.49.25-.99.38-1.51.24-.92.49-1.87.74-2.82Z"/>
          <path class="cls-6" d="m140.87,138.87c.06.35.05.69.01,1.11-.08.88-.3,2.1-.63,3.57-.26,1.19-.59,2.57-.96,4.04-.12.48-.25.98-.38,1.49-.24.92-.49,1.88-.74,2.84-.38,1.46-.77,2.95-1.14,4.37-.05.19-.1.39-.15.58-.31,1.21-.6,2.37-.85,3.42-.29,1.22-.54,2.32-.71,3.23-.02.1-.04.2-.05.29.34-.58.75-1.28,1.18-2.06.54-.98,1.14-2.11,1.77-3.29.15-.3.31-.6.46-.9l1.87.72c-.63,1.21-1.24,2.37-1.8,3.42-.61,1.12-1.18,2.13-1.67,2.95-.51.85-.95,1.51-1.34,1.99-.21.26-.4.47-.65.65-.14.09-.3.19-.51.24-.16.04-.37.06-.57.01-.21-.05-.41-.16-.55-.3-.13-.12-.21-.26-.27-.38-.08-.18-.12-.33-.15-.49-.05-.34-.04-.69,0-1.11.08-.88.3-2.1.63-3.57.21-.94.46-2.01.74-3.14v-.04c.08-.28.15-.57.22-.86.35-1.37.73-2.85,1.12-4.33.38-1.46.77-2.96,1.14-4.37.36-1.41.71-2.78,1-4,.04-.17.08-.33.12-.49.24-1.03.44-1.95.6-2.74l.06-.3h-.01c-.35.59-.76,1.29-1.2,2.08-.11.2-.22.41-.34.62l-1.87-.72c.58-1.07,1.12-2.03,1.6-2.82.5-.84.94-1.5,1.33-1.98.21-.26.4-.47.65-.64.14-.1.3-.19.51-.25.17-.04.37-.05.57-.01.2.05.41.16.55.3.13.12.21.26.27.39.08.17.12.33.14.48Z"/>
          <path class="cls-6" d="m124.04,161.82c.07-.88.3-2.09.62-3.57.26-1.18.6-2.57.97-4.03.21-.82.42-1.67.65-2.53.15-.6.31-1.2.47-1.8.34-1.31.69-2.65,1.02-3.93l.12-.45c.36-1.41.71-2.77,1-4,.29-1.21.54-2.32.71-3.22.02-.1.04-.2.05-.3-.35.59-.75,1.28-1.18,2.06-.54.98-1.14,2.1-1.77,3.29-.31.6-.63,1.22-.95,1.85l-1.87-.72c.34-.67.68-1.32,1.01-1.95.66-1.26,1.29-2.44,1.86-3.47.58-1.04,1.11-1.95,1.56-2.67.47-.73.85-1.27,1.27-1.65.14-.14.3-.27.53-.38.11-.05.25-.09.41-.11.12-.01.26-.01.4.02.2.05.4.16.54.3.12.12.21.26.27.38.08.18.12.34.14.49.06.34.05.69.01,1.11-.08.88-.3,2.09-.63,3.57-.26,1.18-.59,2.57-.96,4.03-.21.81-.43,1.66-.65,2.53-.15.6-.31,1.2-.47,1.8-.34,1.31-.69,2.65-1.02,3.93l-.12.45c-.36,1.41-.71,2.77-1,4-.29,1.21-.54,2.32-.72,3.22-.02.1-.04.21-.06.31h.01c.35-.58.76-1.29,1.19-2.07.24-.44.5-.91.76-1.4l.5,1.12.96.37c-.58,1.07-1.12,2.03-1.6,2.83-.51.84-.94,1.5-1.34,1.98-.2.25-.39.46-.65.64-.13.09-.29.19-.5.24-.17.04-.37.05-.57.01-.21-.05-.41-.16-.55-.3-.13-.12-.21-.26-.27-.38-.08-.18-.12-.33-.15-.49-.05-.34-.04-.69,0-1.11Z"/>
          <path class="cls-6" d="m111.67,157.79l2.1-5.47,2.85-7.47.94.35c-.5,1.43-1.01,2.88-1.48,4.24-.46,1.32-.91,2.6-1.29,3.72-.38,1.11-.72,2.11-.97,2.9-.2.59-.35,1.09-.46,1.46l.28.11c-.12.25-.22.47-.31.64-.08.14-.14.25-.23.38-.02.04-.05.08-.09.12-.03.04-.07.08-.12.12s-.1.08-.16.11c-.07.05-.17.09-.27.12-.1.02-.2.03-.3.03-.11-.01-.22-.03-.33-.08-.1-.04-.2-.1-.29-.17-.08-.08-.15-.16-.2-.24l.33-.87Z"/>
          <path class="cls-6" d="m115.66,154.81c.26-1.19.6-2.57.97-4.04.34-1.37.73-2.85,1.12-4.33.09-.35.18-.7.27-1.06.5-1.43,1.01-2.87,1.48-4.23.46-1.33.91-2.6,1.29-3.72s.71-2.11.97-2.91c.2-.59.35-1.08.46-1.45l-.28-.11c.09-.2.18-.37.25-.52.09-.18.16-.32.25-.45.04-.06.07-.11.13-.18.04-.04.09-.09.17-.16.04-.03.09-.06.15-.09.08-.05.18-.08.28-.1.09-.02.2-.03.3-.02.11.02.23.05.33.09.1.05.2.12.28.2s.14.17.19.26c.04.08.07.17.09.24,0,.07.02.13.02.18.01.06.01.11,0,.16,0,.08-.01.15-.02.21-.04.19-.09.4-.17.67-.03.1-.06.22-.1.34-.09.31-.21.69-.35,1.12-.27.82-.62,1.87-1.03,3.07-.38,1.12-.83,2.41-1.29,3.75-.49,1.4-1.01,2.89-1.53,4.37-.39,1.48-.78,2.98-1.14,4.38-.34,1.37-.67,2.68-.94,3.84-.26,1.14-.48,2.16-.62,2.96-.01.04-.01.09-.02.13l.35-.92s0-.01,0-.01c.43-.73.92-1.61,1.45-2.59.58-1.07,1.21-2.27,1.86-3.52l.33-.63,1.87.71c-.13.24-.25.48-.37.72-.67,1.29-1.33,2.54-1.93,3.65-.61,1.13-1.17,2.14-1.67,2.96-.51.84-.94,1.51-1.33,1.98-.21.26-.4.47-.66.65-.13.09-.29.18-.5.24-.17.04-.37.05-.57.01-.21-.05-.41-.16-.55-.3-.13-.12-.22-.26-.27-.38-.09-.18-.12-.34-.15-.49-.05-.35-.04-.69,0-1.11.01-.07.01-.14.02-.21.09-.86.3-1.99.6-3.36Z"/>
          <circle class="cls-6" cx="96.47" cy="228.42" r="2.76"/>
          <path class="cls-6" d="m93.71,228.42c0,1.52,1.23,2.76,2.76,2.76s2.76-1.24,2.76-2.76-1.24-2.76-2.76-2.76-2.76,1.24-2.76,2.76Zm2.76,5.65c-3.12,0-5.65-2.53-5.65-5.65,0-2.39,1.49-4.44,3.59-5.26.64-.25,1.33-.39,2.06-.39,1.49,0,2.84.57,3.84,1.51,1.12,1.04,1.81,2.51,1.81,4.14,0,3.12-2.53,5.65-5.65,5.65Z"/>
          <path class="cls-6" d="m76.86,49.31c.81.67,1.42,1.56,1.75,2.56.05.16.1.33.14.5l-2.02,5.65c-.14.11-.28.21-.42.3-.89.57-1.91.87-2.98.88l-.46-.17,3.52-9.89.47.17Z"/>
          <circle class="cls-6" cx="90.13" cy="46.34" r="2.76"/>
          <path class="cls-6" d="m90.13,51.99c-3.12,0-5.65-2.53-5.65-5.65s2.53-5.65,5.65-5.65,5.65,2.53,5.65,5.65-2.53,5.65-5.65,5.65Zm0-8.41c-1.53,0-2.76,1.23-2.76,2.76s1.23,2.76,2.76,2.76,2.76-1.24,2.76-2.76-1.24-2.76-2.76-2.76Z"/>
          <circle class="cls-6" cx="89.43" cy="71.33" r="2.76"/>
          <path class="cls-6" d="m89.43,68.57c-1.53,0-2.76,1.23-2.76,2.76s1.23,2.76,2.76,2.76,2.76-1.24,2.76-2.76-1.24-2.76-2.76-2.76Zm-5.65,2.76c0-1.36.48-2.61,1.28-3.58,1.04-1.27,2.61-2.07,4.37-2.07,3.12,0,5.65,2.53,5.65,5.65s-2.53,5.65-5.65,5.65c-2.26,0-4.21-1.33-5.11-3.25-.35-.73-.54-1.54-.54-2.4Z"/>
          <circle class="cls-6" cx="71.79" cy="127.71" r="2.76"/>
          <path class="cls-6" d="m71.79,124.95c-1.53,0-2.76,1.24-2.76,2.76s1.23,2.76,2.76,2.76,2.76-1.24,2.76-2.76-1.24-2.76-2.76-2.76Zm-5.05,5.3c-.38-.76-.6-1.62-.6-2.54,0-.59.09-1.15.25-1.68.7-2.24,2.75-3.88,5.19-3.96.07-.01.14-.01.21-.01,2.2,0,4.11,1.26,5.04,3.11.39.76.61,1.62.61,2.54,0,.59-.09,1.15-.25,1.68-.7,2.24-2.75,3.88-5.2,3.96-.07.01-.13.01-.2.01-2.2,0-4.11-1.26-5.05-3.11Z"/>
          <path class="cls-5" d="m94.9,208.94c-.01-.17-.02-.34-.04-.51-.01-.07-.01-.14-.02-.21h6.02c0,.08.02.16.02.23l.06.69c.02.3.04.61.05.94l-5.92,1.76c0-.07,0-.13,0-.2-.01-.45-.03-.84-.05-1.19-.02-.36-.04-.69-.07-1-.01-.18-.02-.35-.04-.51Z"/>
          <path class="cls-5" d="m90.82,228.42c0,3.12,2.53,5.65,5.65,5.65s5.65-2.53,5.65-5.65c0-1.63-.69-3.1-1.81-4.14.05-.31.1-.65.15-1.03.06-.45.11-.85.16-1.22.04-.37.08-.71.12-1.04.02-.23.04-.46.06-.68.02-.23.04-.45.06-.69.03-.33.06-.67.08-1.04.03-.37.05-.77.08-1.23.02-.46.04-.86.05-1.23s.02-.72.02-1.05c.01-.23.01-.46.01-.69v-.68c0-.34,0-.68-.01-1.05s-.02-.77-.03-1.23c-.02-.46-.04-.86-.06-1.23,0-.04,0-.08-.01-.11,0-.33-.03-.64-.05-.94l-.06-.69c0-.07-.01-.15-.02-.23,0-.15-.02-.3-.03-.45-.04-.33-.07-.67-.11-1.04s-.08-.77-.14-1.23c-.06-.45-.11-.85-.16-1.22-.06-.37-.11-.7-.16-1.04-.04-.23-.07-.45-.11-.67s-.08-.45-.12-.68c-.06-.33-.12-.66-.19-1.03-.07-.36-.15-.76-.25-1.21s-.18-.84-.27-1.2c-.08-.36-.16-.69-.25-1.02-.05-.22-.11-.44-.16-.66l-.18-.66c-.09-.33-.18-.66-.28-1.02-.11-.35-.22-.74-.36-1.18-.48-1.58-2.16-2.47-3.75-1.98-1.58.49-2.47,2.17-1.98,3.75.13.43.24.8.34,1.14s.19.66.27.97c.04.16.09.33.13.49s.08.33.13.5c.07.31.15.62.23.97s.17.72.26,1.16c.1.44.18.82.24,1.17.07.35.13.67.19.99.03.17.06.33.08.5.03.17.06.33.09.5.05.32.1.64.15.99.05.36.1.74.16,1.19.05.44.1.83.13,1.18.03.27.06.54.08.79.01.07.01.14.02.21.02.17.03.34.04.51.02.16.03.33.04.51.03.31.05.64.07,1,.02.35.04.74.05,1.19,0,.07,0,.13,0,.2.01.36.02.68.02.99.01.36.01.68.01,1v1.02c-.01.32-.02.65-.03,1,0,.36-.02.74-.05,1.2-.02.45-.04.83-.07,1.19-.02.35-.05.68-.07.99-.02.18-.03.35-.05.51-.02.17-.03.34-.05.51-.03.32-.07.64-.11,1-.04.35-.09.73-.15,1.18-.04.26-.07.5-.11.73-2.1.82-3.59,2.87-3.59,5.26Zm-1.59-34.99c.76-3.31,4.05-5.38,7.36-4.63,2.32.53,4.03,2.3,4.59,4.44.24.93.27,1.92.04,2.92,1.47,1.63,1.96,3.92,1.29,6.01,1.32,1.75,1.61,4.07.76,6.09,1.17,1.86,1.25,4.2.23,6.14,1,1.95.88,4.29-.31,6.13.82,2.04.5,4.35-.84,6.09.58,1.91.2,3.99-1.03,5.57-1.21,1.57-3.02,2.38-4.86,2.38-1.32,0-2.65-.42-3.77-1.29-2.68-2.09-3.16-5.95-1.08-8.63-.53-1.74-.27-3.62.71-5.14-.68-1.68-.58-3.58.26-5.19-.82-1.61-.89-3.51-.19-5.18-.96-1.54-1.2-3.42-.64-5.15-1.09-1.45-1.49-3.3-1.09-5.07-1.34-1.49-1.87-3.54-1.43-5.49Z"/>
          <path class="cls-7" d="m94.88,219.23c.02-.31.05-.64.07-.99.03-.36.05-.74.07-1.19.03-.46.04-.84.05-1.2.01-.35.02-.68.03-1v-1.02c0-.32,0-.64-.01-1,0-.31-.01-.63-.02-.99l5.92-1.76s.01.07.01.11c.02.37.04.77.06,1.23,0,.46.02.86.03,1.23s.01.71.01,1.05v.68c0,.23,0,.46-.01.69,0,.33-.01.68-.02,1.05s-.03.77-.05,1.23c-.03.46-.05.86-.08,1.23-.02.37-.05.71-.08,1.04-.02.24-.04.46-.06.69-.02.22-.04.45-.06.68-.04.33-.08.67-.12,1.04-.05.37-.1.77-.16,1.22-.05.38-.1.72-.15,1.03-1-.94-2.35-1.51-3.84-1.51-.73,0-1.42.14-2.06.39.04-.23.07-.47.11-.73.06-.45.11-.83.15-1.18.04-.36.08-.68.11-1,.02-.17.03-.34.05-.51.02-.16.03-.33.05-.51Z"/>
          <path class="cls-7" d="m82.75,67.06c-1.56-.55-3.28.26-3.84,1.82-.55,1.56.26,3.28,1.82,3.84.53.18,1.08.36,1.6.51.17.05.34.1.5.14.17.05.33.09.5.13.32.08.65.16.98.23h0c.9,1.92,2.85,3.25,5.11,3.25,3.12,0,5.65-2.53,5.65-5.65s-2.53-5.65-5.65-5.65c-1.76,0-3.33.8-4.37,2.07-.18-.05-.35-.09-.52-.13-.05-.02-.1-.03-.14-.04-.05-.01-.1-.03-.15-.04-.22-.06-.45-.13-.7-.21s-.51-.16-.8-.27Zm-7.26,2.82c0-1.18.33-2.37,1.03-3.43,1.9-2.88,5.78-3.68,8.66-1.78,1.01-.05,2.01.13,2.93.55,1.31-.28,2.68-.14,3.9.42,2.3,1.04,3.67,3.32,3.67,5.69,0,.87-.18,1.74-.56,2.58-1.42,3.14-5.13,4.54-8.27,3.11-1.64.36-3.36.03-4.76-.89-1.34.07-2.67-.28-3.79-1.02-1.82-1.2-2.81-3.2-2.81-5.23Z"/>
          <path class="cls-7" d="m61.02,140.51c-1.84-2.85-1.02-6.66,1.83-8.5.14-1.93,1.17-3.68,2.8-4.73.03-.48.13-.95.27-1.41l.47.16c-.16.53-.25,1.09-.25,1.68,0,.92.22,1.78.6,2.54-.52.89-1.06,1.8-1.78,3.01-.24.4-.45.76-.65,1.1-.27.46-.52.88-.75,1.27-.86,1.45-.38,3.32,1.07,4.17,1.45.86,3.32.38,4.18-1.07.23-.39.48-.8.75-1.27.2-.34.42-.7.65-1.1.72-1.21,1.26-2.12,1.78-3.01,2.45-.08,4.5-1.72,5.2-3.96l.47.13c-.42,1.37-1.31,2.57-2.54,3.36-.14,1.93-1.17,3.68-2.8,4.73-.14,1.93-1.17,3.69-2.8,4.74-2.85,1.84-6.66,1.02-8.5-1.84Z"/>
          <path class="cls-7" d="m65.92,125.87c.42-1.36,1.31-2.54,2.53-3.33.14-1.93,1.17-3.68,2.8-4.73.14-1.93,1.17-3.69,2.8-4.74,2.85-1.84,6.66-1.02,8.5,1.84,1.84,2.85,1.02,6.66-1.83,8.5-.14,1.93-1.17,3.68-2.8,4.73-.03.47-.12.93-.26,1.38l-.47-.13c.16-.53.25-1.09.25-1.68,0-.92-.22-1.78-.61-2.54.53-.89,1.06-1.8,1.78-3.01.24-.4.45-.76.65-1.1.27-.46.52-.88.75-1.27.86-1.45.38-3.32-1.07-4.17-1.45-.86-3.32-.38-4.18,1.07-.23.39-.48.8-.75,1.27-.2.34-.42.7-.65,1.1-.72,1.21-1.25,2.12-1.78,3h0c-2.44.09-4.49,1.73-5.19,3.97l-.47-.16Z"/>
          <path class="cls-7" d="m78.91,68.88c.56-1.56,2.28-2.37,3.84-1.82.29.11.55.19.8.27s.48.15.7.21c.05,0,.1.03.15.04.04.01.09.02.14.04.17.04.34.08.52.13-.8.97-1.28,2.22-1.28,3.58,0,.86.19,1.67.54,2.4h0c-.33-.07-.66-.15-.98-.23-.17-.04-.33-.08-.5-.13-.16-.04-.33-.09-.5-.14-.52-.15-1.07-.33-1.6-.51-1.56-.56-2.37-2.28-1.82-3.84Z"/>
          <polygon class="cls-7" points="64.16 68.59 75.68 36.23 76.12 34.99 76.96 32.63 81.67 34.31 81.48 34.86 80.86 36.58 80.39 37.91 76.39 49.14 72.87 59.03 68.87 70.27 68.39 71.6 67.78 73.32 67.58 73.87 62.88 72.2 62.88 72.19 63.72 69.83 64.16 68.59"/>
          <circle class="cls-5" cx="33.1" cy="213.92" r="4"/>
          <circle class="cls-5" cx="120.6" cy="225.92" r="4.75"/>
          <circle class="cls-5" cx="139.6" cy="206.92" r="4.75"/>
          <path class="cls-5" d="m234.34,185.57l-2.85,7.47-4.58-1.75.4-1.05c1.3-1.51,2.01-3.42,2.05-5.37h0s.4-1.05.4-1.05h.01l4.57,1.75Z"/>
          <polygon class="cls-4" points="245.61 181.31 246.76 183.89 239.62 202.57 237.04 203.72 229.38 200.79 228.92 199.76 231.49 193.04 234.34 185.57 236.91 178.84 237.95 178.38 245.61 181.31"/>
          <circle class="cls-5" cx="220.87" cy="184.7" r="5"/>
          <polygon class="cls-5" points="224.6 239.52 224.6 246.42 224.1 246.92 11.6 246.92 11.1 246.42 11.1 241.92 14.1 238.92 16.6 238.92 96.46 238.92 113.6 238.92 224 238.92 224.6 239.52"/>
          <path class="cls-5" d="m113.6,238.92h-17.14v-4.35c1.84,0,3.65-.81,4.86-2.38,1.23-1.58,1.61-3.66,1.03-5.57,1.34-1.74,1.66-4.05.84-6.09,1.19-1.84,1.31-4.18.31-6.13,1.02-1.94.94-4.28-.23-6.14.85-2.02.56-4.34-.76-6.09.67-2.09.18-4.38-1.29-6.01.23-1,.2-1.99-.04-2.92l1.78-.47,4.11,15.5,6.13,23.14c.22.82.35,1.66.39,2.51.01.19.01.37.01.56v4.44Z"/>
          <path class="cls-5" d="m53.1,208.22h24.41l-.4,1.08c-.77,2.11-2.39,3.77-4.42,4.62h-13.87c-1.99,0-3.94-.43-5.72-1.23v-4.47Z"/>
          <path class="cls-5" d="m50.37,213.28c1.76,2.25,4.59,3.39,7.42,3l12.93-1.82c.69-.09,1.35-.28,1.97-.54,2.03-.85,3.65-2.51,4.42-4.62l.4-1.08,3.71-10.12c.25-.68.65-1.31,1.17-1.82l7.2-7.16c.99-.99,2.23-1.7,3.59-2.06,4.27-1.13,8.65,1.42,9.78,5.69v.02l-1.78.47c-.56-2.14-2.27-3.91-4.59-4.44-3.31-.75-6.6,1.32-7.36,4.63-.44,1.95.09,4,1.43,5.49-.4,1.77,0,3.62,1.09,5.07-.56,1.73-.32,3.61.64,5.15-.7,1.67-.63,3.57.19,5.18-.84,1.61-.94,3.51-.26,5.19-.98,1.52-1.24,3.4-.71,5.14-2.08,2.68-1.6,6.54,1.08,8.63,1.12.87,2.45,1.29,3.77,1.29v4.35H16.6v-5.25c0-.5.04-1,.1-1.5l2.51-20c.41-3.22,1.92-6.19,4.28-8.42l-1.94,6.94c-1.79,6.39,1.94,13.01,8.33,14.79,6.38,1.78,13-1.95,14.78-8.33l2.3-8.23,1.28,1.63,2.13,2.73Z"/>
          <path class="cls-5" d="m195.45,156.39l.21.47-11.61,30.38-7.47-2.86,11.61-30.37.47-.21c.2-.09.44-.19.68-.3.05-.02.09-.03.13-.05l5.61,2.14s.04.09.06.13c.11.24.23.48.31.67Z"/>
          <polygon class="cls-5" points="165.52 179.37 167.86 173.24 167.87 173.22 175.44 153.41 176.33 151.08 177.83 151.65 170.06 171.98 166.76 180.61 165.26 180.04 165.52 179.37"/>
          <path class="cls-5" d="m163.35,176.63l.46-1.21.02-.03v-.03s8.33-21.76,8.33-21.76l.48-1.26.25.1h.01c-.15.48-.38,1.2-.67,2.08s-.66,1.96-1.06,3.14c-.41,1.18-.87,2.51-1.34,3.87-.48,1.36-.98,2.8-1.48,4.2-.49,1.41-.98,2.82-1.43,4.12-.46,1.32-.89,2.57-1.26,3.64-.4,1.18-.73,2.19-.97,2.95-.07.23-.14.44-.19.62l-1.15-.43Z"/>
          <path class="cls-5" d="m164.94,171.35l-.9-.35-.4-.15c-.05-.02-.08-.08-.06-.13l1.21-3.18,2.86-7.47,1.21-3.17c.02-.06.08-.08.13-.06l1.31.5,1.34-3.51.37-.16.15-.07-8.32,21.76-.23-.51,1.33-3.5Z"/>
          <path class="cls-5" d="m164.03,166.61c.37-1.41.76-2.91,1.14-4.37.25-.95.5-1.91.74-2.83l1.74.66-2.86,7.47-.91-.34c.05-.19.1-.39.15-.59Z"/>
          <path class="cls-5" d="m156.68,164.44l-1.8-.68c.05-.19.1-.39.15-.59.37-1.41.76-2.91,1.14-4.37.25-.95.5-1.91.74-2.83l3.46,1.32,1.87.71,1.8.69c-.05.22-.11.45-.17.68-.37,1.43-.76,2.92-1.15,4.38-.24.92-.48,1.84-.7,2.73h-.01l-3.46-1.32-1.87-.72Z"/>
          <path class="cls-5" d="m147.17,155.36c.25-.96.5-1.92.74-2.84l3.46,1.33,1.87.71,1.8.69c-.05.18-.09.36-.14.54-.36,1.42-.76,2.91-1.14,4.38-.26.96-.51,1.93-.75,2.87l-3.46-1.32-1.87-.72-1.8-.69c.05-.19.1-.39.15-.58.37-1.42.76-2.91,1.14-4.37Z"/>
          <path class="cls-5" d="m144.01,159.6l-3.46-1.32-1.87-.72-1.8-.69c.05-.19.1-.39.15-.58.37-1.42.76-2.91,1.14-4.37.25-.96.5-1.92.74-2.84l3.46,1.33,1.87.71,1.8.69-.15.6c-.37,1.41-.76,2.91-1.14,4.37-.25.95-.5,1.9-.74,2.82Z"/>
          <path class="cls-5" d="m131.68,147.45l1.45-3.79,1.29-.57.83.31,1.87.72.89.34c-.04.16-.08.32-.12.49-.29,1.22-.64,2.59-1,4-.37,1.41-.76,2.91-1.14,4.37-.39,1.48-.77,2.96-1.12,4.33-.07.29-.14.58-.21.86v.04s-.39.98-.39.98l-.65.29-3.71-1.42-.96-.37-.5-1.12-.08-.17,1.45-3.79,2.1-5.5Z"/>
          <path class="cls-5" d="m129.17,148.47c.16-.6.32-1.2.47-1.8l2.04.78-2.1,5.5-1.43-.55c.33-1.28.68-2.62,1.02-3.93Z"/>
          <path class="cls-5" d="m120.24,149.38l2.11-5.5,1.53.59,1.87.72,2.02.77c-.33,1.28-.68,2.62-1.02,3.93-.16.6-.32,1.2-.47,1.8l-3.24-1.24-1.87-.71-.93-.36Z"/>
          <path class="cls-5" d="m112.07,139.96l1.8-4.73,2.1-5.47.76-2s.11-.04.31-.1c.2-.07.49-.16.79-.27.04,0,.09-.03.13-.04l3.74,1.42s.04.09.06.13c.16.27.3.54.41.72s.17.28.17.28l-.77,2-.31.8-1.78,4.67-2.86,7.48-2.85,7.47-2.1,5.47-.33.87-.43,1.13s-.11.04-.31.1c-.2.07-.49.17-.79.27-.04.01-.08.03-.13.05l-3.74-1.43-.06-.12c-.16-.28-.3-.54-.41-.73-.11-.18-.17-.28-.17-.28l.77-2,2.09-5.47,1.81-4.73,1.05-2.75,1.05-2.74Z"/>
          <path class="cls-6" d="m64.96,133.26c.72-1.21,1.26-2.12,1.78-3.01.94,1.85,2.85,3.11,5.05,3.11.07,0,.13,0,.2-.01-.52.89-1.06,1.8-1.78,3.01-.23.4-.45.76-.65,1.1-2.03-.47-3.85-1.55-5.25-3.1.2-.34.41-.7.65-1.1Z"/>
          <path class="cls-6" d="m76.83,125.17c-.93-1.85-2.84-3.11-5.04-3.11-.07,0-.14,0-.21.01h0c.53-.89,1.06-1.8,1.78-3.01.23-.4.45-.76.65-1.1,2.03.46,3.87,1.55,5.25,3.1-.2.34-.41.7-.65,1.1-.72,1.21-1.25,2.12-1.78,3.01Z"/>
          <polygon class="cls-5" points="103.27 139.74 104.32 136.99 112.07 139.96 111.02 142.7 109.97 145.45 102.22 142.49 103.27 139.74"/>
          <polygon class="cls-6" points="99.04 141.83 101.51 135.36 102.06 133.93 102.07 133.92 102.75 133.36 104.91 134.19 105.05 135.07 104.81 135.7 104.32 136.99 103.27 139.74 102.22 142.49 101.72 143.79 101.48 144.41 100.79 144.97 98.63 144.15 98.49 143.27 99.04 141.83"/>
          <polygon class="cls-6" points="80.74 136.48 75.42 137.28 82.62 125.1 84.31 127.14 95.99 131.61 97.93 130.74 102.6 132.53 102.07 133.92 102.06 133.93 101.51 135.36 99.04 141.83 98.49 143.27 97.96 144.67 93.28 142.88 92.42 140.95 80.74 136.48"/>
          <polygon class="cls-7" points="19.13 162.24 74.82 5.86 77.38 4.64 79.73 5.48 80.03 6.12 75 20.25 79.71 21.93 80.32 23.21 80.12 23.76 79.04 26.81 78.56 28.15 76.96 32.63 76.12 34.99 75.68 36.23 64.16 68.59 63.72 69.83 62.88 72.19 62.88 72.2 61.28 76.68 60.8 78.01 59.72 81.06 59.52 81.61 58.24 82.22 53.53 80.54 23.34 165.33 22.7 165.63 20.35 164.79 19.13 162.24"/>
          <path class="cls-7" d="m68.87,70.27l4-11.24.46.17c1.07-.01,2.09-.31,2.98-.88l-1.93,5.41c-.18.5-.27,1.01-.29,1.54l-.13,4.57-.17,6.24-4.32-1.54-.94-.33-.95-.34.2-.55.61-1.72.48-1.33Z"/>
          <path class="cls-7" d="m76.86,49.31l-.47-.17,4-11.23.47-1.33.62-1.72.19-.55.95.33.94.34,9.42,3.35c3.47,1.24,5.75,4.57,5.64,8.25l-.69,24.99c-.04,1.38-.42,2.74-1.11,3.95l.12-4.15.69-24.82c.09-3.25-1.93-6.19-4.99-7.28l-5.25-1.87c-.81-.29-1.72-.02-2.25.67l-2.14,2.78c-.58.75-1.03,1.58-1.35,2.47l-3.04,8.55c-.33-1-.94-1.89-1.75-2.56Z"/>
          <path class="cls-7" d="m90.13,40.69c-3.12,0-5.65,2.53-5.65,5.65s2.53,5.65,5.65,5.65,5.65-2.53,5.65-5.65-2.53-5.65-5.65-5.65Zm-4.95,23.98c-2.88-1.9-6.76-1.1-8.66,1.78-.7,1.06-1.03,2.25-1.03,3.43l-1.53-.04.13-4.57c.02-.53.11-1.04.29-1.54l1.93-5.41c.14-.09.28-.19.42-.3l2.02-5.65c-.04-.17-.09-.34-.14-.5l3.04-8.55c.32-.89.77-1.72,1.35-2.47l2.14-2.78c.53-.69,1.44-.96,2.25-.67l5.25,1.87c3.06,1.09,5.08,4.03,4.99,7.28l-.69,24.82-1.26-.04c0-2.37-1.37-4.65-3.67-5.69-1.22-.56-2.59-.7-3.9-.42-.92-.42-1.92-.6-2.93-.55Z"/>
          <path class="cls-7" d="m70.72,214.46l-12.93,1.82c-2.83.39-5.66-.75-7.42-3l-2.13-2.73-1.28-1.63.22-.8,1.84,1.8c1.2,1.17,2.58,2.1,4.08,2.77,1.78.8,3.73,1.23,5.72,1.23h13.87c-.62.26-1.28.45-1.97.54Z"/>
          <path class="cls-7" d="m75.42,137.28l-14.68,24.82-.18.3c-.05.1-.11.21-.17.31-.21.38-.4.77-.59,1.17-.18.4-.35.8-.51,1.21-.15.41-.3.82-.43,1.24-.06.19-.11.38-.17.57-.03.12-.06.23-.09.34-.03.12-.07.23-.1.34l-11.32,40.54-.22.8-2.3,8.23c-1.78,6.38-8.4,10.11-14.78,8.33-6.39-1.78-10.12-8.4-8.33-14.79l1.94-6.94,13.11-46.98c.03-.09.05-.18.08-.26.09-.32.2-.63.31-.93.12-.31.24-.62.37-.91.14-.3.28-.6.44-.89.05-.1.11-.21.16-.31l.18-.3,1.01-1.71s.02-.03.03-.05c.01-.01.02-.03.03-.05l31.45-53.18c1.73-2.92,2.69-6.24,2.78-9.63l.35-12.47.17-6.24,1.53.04c0,2.03.99,4.03,2.81,5.23,1.12.74,2.45,1.09,3.79,1.02,1.4.92,3.12,1.25,4.76.89,3.14,1.43,6.85.03,8.27-3.11.38-.84.56-1.71.56-2.58l1.26.04-.12,4.15-.65,23.23c-.07,2.38-.74,4.7-1.95,6.74l-11.6,19.61-7.2,12.18Zm-14.4,3.23c1.84,2.86,5.65,3.68,8.5,1.84,1.63-1.05,2.66-2.81,2.8-4.74,1.63-1.05,2.66-2.8,2.8-4.73,1.23-.79,2.12-1.99,2.54-3.36.14-.45.23-.91.26-1.38,1.63-1.05,2.66-2.8,2.8-4.73,2.85-1.84,3.67-5.65,1.83-8.5-1.84-2.86-5.65-3.68-8.5-1.84-1.63,1.05-2.66,2.81-2.8,4.74-1.63,1.05-2.66,2.8-2.8,4.73-1.22.79-2.11,1.97-2.53,3.33-.14.46-.24.93-.27,1.41-1.63,1.05-2.66,2.8-2.8,4.73-2.85,1.84-3.67,5.65-1.83,8.5Zm-23.92,73.41c0-2.21-1.79-4-4-4s-4,1.79-4,4,1.79,4,4,4,4-1.79,4-4Z"/>
          <polygon class="cls-7" points="166.76 180.61 170.06 171.98 177.83 151.65 178.01 151.18 179.3 150.61 188.19 154.01 176.58 184.38 172.12 196.04 172.12 196.05 165.3 196.64 162.16 195.44 161.58 194.15 163.1 190.17 166.76 180.61"/>
          <path class="cls-7" d="m233.34,174.48l-3.58,9.34-.4,1.04c.04-1.62-.39-3.26-1.32-4.72-2.4-3.79-7.34-5.05-11.27-2.89l-30.32,16.69c-.31.16-.62.32-.95.45-.05.03-.1.05-.16.07-.59.24-1.21.42-1.79.53-.35.07-.7.12-1.05.15l-10.38.91h0s4.46-11.67,4.46-11.67l7.47,2.86,11.61-30.38,35.95,13.74,1.73,3.88Z"/>
          <path class="cls-7" d="m198.14,209.2l27.28-17.33c.72-.46,1.35-1.01,1.89-1.63l-.4,1.05-3.57,9.34-21.95,9.81-3.25-1.24Z"/>
          <path class="cls-7" d="m140.4,231.58l3.66-3.66,10.92-2.93v6.93h-.38v1.6h-17.36c1.18-.39,2.27-1.05,3.16-1.94Z"/>
          <path class="cls-7" d="m122.67,233.65l21.39-5.73-3.66,3.66c-.89.89-1.98,1.55-3.16,1.94-.79.26-1.63.4-2.49.4h-14.15c.69,0,1.39-.09,2.07-.27Z"/>
          <path class="cls-7" d="m220.87,179.7c-2.77,0-5,2.23-5,5s2.23,5,5,5,5-2.24,5-5-2.24-5-5-5Zm-100.27,41.47c-2.62,0-4.75,2.13-4.75,4.75s2.13,4.75,4.75,4.75,4.75-2.13,4.75-4.75-2.12-4.75-4.75-4.75Zm23.75-14.25c0-2.62-2.12-4.75-4.75-4.75s-4.75,2.13-4.75,4.75,2.13,4.75,4.75,4.75,4.75-2.13,4.75-4.75Zm-5.44-7.97l26.39-2.31,6.82-.59,10.38-.91c.35-.03.7-.08,1.05-.15.58-.11,1.2-.29,1.79-.53.06-.02.11-.04.16-.07.33-.13.64-.29.95-.45l30.32-16.69c3.93-2.16,8.87-.9,11.27,2.89.93,1.46,1.36,3.1,1.32,4.72h0c-.04,1.96-.75,3.87-2.05,5.38-.54.62-1.17,1.17-1.89,1.63l-27.28,17.33-10.24,6.5c-.86.54-1.79.95-2.78,1.21l-30.14,8.08-10.92,2.93-21.39,5.73c-.68.18-1.38.27-2.07.27-2.09,0-4.13-.82-5.65-2.34-3.13-3.13-3.13-8.19,0-11.32l3.16-3.16,1.58-1.58,9.51-9.51,1.58-1.58c1.16-1.15,2.18-2.18,3.17-3.17.83-.83,1.83-1.46,2.92-1.86.65-.24,1.33-.39,2.04-.45Z"/>
          <path class="cls-7" d="m113.2,231.41l-6.13-23.14,29.8-8.88h0c-1.09.41-2.09,1.04-2.92,1.87-.99.99-2.01,2.02-3.17,3.17l-1.58,1.58-9.51,9.51-1.58,1.58-3.16,3.16c-3.13,3.13-3.13,8.19,0,11.32,1.52,1.52,3.56,2.34,5.65,2.34h-7.01c-.04-.85-.17-1.69-.39-2.51Z"/>
        </g>
        <g>
          <path class="cls-2" d="m66.74,130.25c-.38-.76-.6-1.62-.6-2.54,0-.59.09-1.15.25-1.68.7-2.24,2.75-3.88,5.19-3.96.07-.01.14-.01.21-.01,2.2,0,4.11,1.26,5.04,3.11.39.76.61,1.62.61,2.54,0,.59-.09,1.15-.25,1.68-.7,2.24-2.75,3.88-5.2,3.96-.07.01-.13.01-.2.01-2.2,0-4.11-1.26-5.05-3.11Z"/>
          <path class="cls-2" d="m94.23,203.57c.03.17.06.33.09.5.05.32.1.64.15.99.05.36.1.74.16,1.19"/>
          <path class="cls-2" d="m84.32,73.73c-.35-.73-.54-1.54-.54-2.4,0-1.36.48-2.61,1.28-3.58,1.04-1.27,2.61-2.07,4.37-2.07,3.12,0,5.65,2.53,5.65,5.65s-2.53,5.65-5.65,5.65c-2.26,0-4.21-1.33-5.11-3.25Z"/>
          <path class="cls-2" d="m38.14,153.17l-.18.3c-.05.1-.11.21-.16.31"/>
          <path class="cls-2" d="m58.69,166.9c.06-.19.11-.38.17-.57.13-.42.28-.83.43-1.24.16-.41.33-.81.51-1.21.19-.4.38-.79.59-1.17"/>
          <path class="cls-2" d="m60.39,162.71c.06-.1.12-.21.17-.31l.18-.3"/>
          <path class="cls-2" d="m58.5,167.58c.03-.11.07-.22.1-.34.03-.11.06-.22.09-.34"/>
          <circle class="cls-2" cx="33.1" cy="213.92" r="4"/>
          <path class="cls-2" d="m84.4,67.58s.09.02.14.04c.17.04.34.08.52.13"/>
          <path class="cls-2" d="m158.55,165.16c-.61,1.18-1.21,2.32-1.76,3.35-.61,1.12-1.18,2.14-1.68,2.97-.51.85-.95,1.53-1.34,2.01-.21.27-.41.48-.66.67-.14.09-.3.19-.52.25-.16.04-.37.06-.58.01s-.41-.16-.55-.3c-.13-.12-.21-.26-.27-.38-.08-.18-.12-.34-.14-.49-.06-.35-.05-.7-.01-1.12.08-.89.31-2.11.64-3.59.26-1.19.59-2.58.96-4.04.12-.48.25-.96.37-1.46.24-.94.49-1.91.75-2.87.38-1.47.78-2.96,1.14-4.38.05-.18.09-.36.14-.54.31-1.21.61-2.39.86-3.45.29-1.21.54-2.31.71-3.22.02-.1.04-.19.05-.28.14-.75.23-1.37.25-1.78.02-.2.01-.36,0-.43v-.03"/>
          <path class="cls-2" d="m172.01,153.67v-.02c.35-.79.63-1.39.84-1.8.09-.2.17-.34.26-.48.03-.05.07-.11.13-.18.04-.04.09-.1.18-.17.05-.03.1-.07.16-.1.08-.04.18-.07.28-.09s.2-.03.31-.01c.11.01.22.04.32.09s.2.12.27.2c.08.08.14.17.19.26.04.09.07.17.08.24.02.07.03.13.03.18v.16c-.01.08-.02.15-.03.22-.04.2-.1.42-.18.72-.02.08-.05.17-.08.27-.1.32-.22.71-.37,1.16-.27.83-.62,1.88-1.03,3.07-.38,1.13-.83,2.42-1.3,3.77-.46,1.33-.96,2.76-1.46,4.17-.49,1.4-.99,2.83-1.45,4.17-.47,1.32-.9,2.6-1.29,3.72"/>
          <path class="cls-2" d="m77.92,128.14c-.03.47-.12.93-.26,1.38-.42,1.37-1.31,2.57-2.54,3.36"/>
          <path class="cls-2" d="m138.66,141.42c-.35.59-.76,1.29-1.2,2.08-.11.2-.22.41-.34.62"/>
          <path class="cls-2" d="m134.42,158.51c.07-.28.14-.57.21-.86.35-1.37.73-2.85,1.12-4.33.38-1.46.77-2.96,1.14-4.37.36-1.41.71-2.78,1-4,.04-.17.08-.33.12-.49.24-1.03.44-1.95.6-2.74l.06-.3c.13-.75.21-1.36.24-1.77.01-.21.01-.36,0-.43v-.04"/>
          <path class="cls-2" d="m140.55,158.28c-.63,1.21-1.24,2.37-1.8,3.42-.61,1.12-1.18,2.13-1.67,2.95-.51.85-.95,1.51-1.34,1.99-.21.26-.4.47-.65.65-.14.09-.3.19-.51.24-.16.04-.37.06-.57.01-.21-.05-.41-.16-.55-.3-.13-.12-.21-.26-.27-.38-.08-.18-.12-.33-.15-.49-.05-.34-.04-.69,0-1.11.08-.88.3-2.1.63-3.57.21-.94.46-2.01.74-3.14"/>
          <path class="cls-2" d="m165.52,179.37c-.1.03-.21.04-.32.04s-.23-.02-.34-.06c-.11-.05-.21-.11-.29-.18-.09-.07-.16-.16-.22-.25-.05-.08-.08-.17-.11-.25-.02-.07-.03-.14-.03-.19-.01-.07-.01-.12-.01-.16.01-.08.01-.13.02-.19.03-.16.06-.32.12-.52.04-.16.09-.34.16-.55.05-.18.12-.39.19-.62.24-.76.57-1.77.97-2.95.37-1.07.8-2.32,1.26-3.64.45-1.3.94-2.71,1.43-4.12.5-1.4,1-2.84,1.48-4.2.47-1.36.93-2.69,1.34-3.87.4-1.18.77-2.26,1.06-3.14s.52-1.6.67-2.08c.06-.24.11-.42.14-.54.01-.05.02-.09.02-.1h0"/>
          <path class="cls-2" d="m123.04,150.45c-.13.24-.25.48-.37.72-.67,1.29-1.33,2.54-1.93,3.65-.61,1.13-1.17,2.14-1.67,2.96-.51.84-.94,1.51-1.33,1.98-.21.26-.4.47-.66.65-.13.09-.29.18-.5.24-.17.04-.37.05-.57.01-.21-.05-.41-.16-.55-.3-.13-.12-.22-.26-.27-.38-.09-.18-.12-.34-.15-.49-.05-.35-.04-.69,0-1.11.01-.07.01-.14.02-.21.09-.86.3-1.99.6-3.36.26-1.19.6-2.57.97-4.04.34-1.37.73-2.85,1.12-4.33.09-.35.18-.7.27-1.06"/>
          <path class="cls-2" d="m68.81,138.73c.23-.39.48-.8.75-1.27.2-.34.42-.7.65-1.1"/>
          <path class="cls-2" d="m80.73,72.72c.53.18,1.08.36,1.6.51.17.05.34.1.5.14"/>
          <path class="cls-2" d="m70.21,136.36c.72-1.21,1.26-2.12,1.78-3.01"/>
          <path class="cls-2" d="m75.12,132.88c-.14,1.93-1.17,3.68-2.8,4.73"/>
          <path class="cls-2" d="m63.56,135.63c-.86,1.45-.38,3.32,1.07,4.17,1.45.86,3.32.38,4.18-1.07"/>
          <path class="cls-2" d="m66.74,130.25c-.52.89-1.06,1.8-1.78,3.01"/>
          <path class="cls-2" d="m80.72,123.41c-.14,1.93-1.17,3.68-2.8,4.73"/>
          <path class="cls-2" d="m72.32,137.61c-.14,1.93-1.17,3.69-2.8,4.74-2.85,1.84-6.66,1.02-8.5-1.84-1.84-2.85-1.02-6.66,1.83-8.5"/>
          <path class="cls-2" d="m76.83,125.17c.53-.89,1.06-1.8,1.78-3.01"/>
          <path class="cls-2" d="m162.26,174.14c-.13.75-.22,1.36-.25,1.77-.01.21-.01.37,0,.44,0,.02.01.04.01.04"/>
          <path class="cls-2" d="m160.37,157.29c.63-1.22,1.25-2.39,1.81-3.43.61-1.13,1.18-2.13,1.67-2.96.51-.84.94-1.5,1.34-1.98.2-.26.39-.46.65-.64.13-.1.29-.19.51-.25.16-.04.36-.05.56-.01.21.05.41.17.55.3.13.12.22.26.28.39.08.17.11.33.14.48.05.35.04.7,0,1.11-.07.88-.3,2.1-.62,3.57-.26,1.19-.6,2.57-.97,4.04-.12.49-.25.99-.38,1.5-.24.92-.49,1.88-.74,2.83-.38,1.46-.77,2.96-1.14,4.37-.05.2-.1.4-.15.59-.3,1.2-.59,2.36-.85,3.41-.29,1.22-.54,2.32-.71,3.23-.02.1-.04.19-.05.29"/>
          <path class="cls-2" d="m149.55,161.72c-.63,1.22-1.26,2.41-1.83,3.46-.6,1.12-1.17,2.13-1.66,2.95-.51.84-.94,1.5-1.33,1.97-.21.25-.4.46-.65.63-.13.1-.29.19-.51.24-.16.04-.36.06-.55.01-.21-.04-.41-.16-.56-.3-.12-.12-.21-.25-.27-.38-.08-.17-.12-.33-.14-.49-.06-.34-.05-.68-.01-1.1.07-.88.3-2.09.62-3.56.26-1.19.6-2.57.97-4.04.12-.49.25-.99.38-1.51.24-.92.49-1.87.74-2.82.38-1.46.77-2.96,1.14-4.37l.15-.6c.31-1.2.6-2.36.85-3.41.29-1.21.54-2.32.71-3.22.02-.11.04-.21.06-.32.14-.74.22-1.36.25-1.76.02-.21.01-.37,0-.44v-.04"/>
          <circle class="cls-2" cx="90.13" cy="46.34" r="5.65"/>
          <path class="cls-2" d="m153.27,170.69c.35-.58.75-1.28,1.19-2.06.54-.98,1.14-2.1,1.76-3.29.15-.29.31-.59.46-.9"/>
          <path class="cls-2" d="m162.26,174.14s0,0,.01,0c.35-.58.75-1.28,1.19-2.06.18-.34.38-.7.58-1.07"/>
          <path class="cls-2" d="m129.66,137.98c.14-.75.22-1.36.25-1.77.01-.21.01-.36,0-.43v-.04"/>
          <path class="cls-2" d="m129.67,158.4c-.58,1.07-1.12,2.03-1.6,2.83-.51.84-.94,1.5-1.34,1.98-.2.25-.39.46-.65.64-.13.09-.29.19-.5.24-.17.04-.37.05-.57.01-.21-.05-.41-.16-.55-.3-.13-.12-.21-.26-.27-.38-.08-.18-.12-.33-.15-.49-.05-.34-.04-.69,0-1.11.07-.88.3-2.09.62-3.57.26-1.18.6-2.57.97-4.03.21-.82.42-1.67.65-2.53.15-.6.31-1.2.47-1.8.34-1.31.69-2.65,1.02-3.93l.12-.45c.36-1.41.71-2.77,1-4,.29-1.21.54-2.32.71-3.22.02-.1.04-.2.05-.3"/>
          <path class="cls-2" d="m129.66,137.98s0,.01,0,.01c-.35.59-.75,1.28-1.18,2.06-.54.98-1.14,2.1-1.77,3.29-.31.6-.63,1.22-.95,1.85"/>
          <path class="cls-2" d="m165.67,151.75c-.35.57-.74,1.24-1.16,2-.54.97-1.14,2.08-1.76,3.27-.16.32-.34.65-.51.98"/>
          <path class="cls-2" d="m64.96,133.26c-.24.4-.45.76-.65,1.1-.27.46-.52.88-.75,1.27"/>
          <path class="cls-2" d="m162.02,166.48c.22-.89.46-1.81.7-2.73.39-1.46.78-2.95,1.15-4.38.06-.23.12-.46.17-.68.3-1.17.59-2.3.83-3.33.3-1.22.55-2.33.73-3.25.02-.12.05-.24.07-.36h0c.13-.73.21-1.34.24-1.74.02-.22.01-.38.01-.46-.01-.03-.01-.05-.01-.05"/>
          <path class="cls-2" d="m163.81,175.42c-.48.79-.89,1.37-1.28,1.79-.17.19-.34.35-.58.49-.13.07-.28.14-.47.17-.14.03-.3.03-.46-.01-.2-.04-.4-.15-.55-.29-.13-.12-.21-.26-.28-.38-.08-.17-.12-.33-.14-.48-.05-.34-.05-.68-.01-1.08.07-.87.29-2.06.61-3.52.26-1.18.59-2.56.96-4.03.13-.52.26-1.05.4-1.6"/>
          <path class="cls-2" d="m82.83,73.37c.17.05.33.09.5.13.32.08.65.16.98.23"/>
          <path class="cls-2" d="m82.75,67.06c-1.56-.55-3.28.26-3.84,1.82-.55,1.56.26,3.28,1.82,3.84"/>
          <path class="cls-2" d="m156.66,148.3c-.36.59-.77,1.31-1.21,2.11-.54.98-1.14,2.1-1.76,3.29-.15.28-.3.57-.45.86"/>
          <path class="cls-2" d="m82.75,67.06c.29.11.55.19.8.27s.48.15.7.21c.05,0,.1.03.15.04"/>
          <path class="cls-2" d="m151.37,153.85c.63-1.22,1.24-2.39,1.81-3.43.61-1.13,1.17-2.13,1.67-2.96.51-.84.94-1.5,1.33-1.98.21-.26.4-.46.65-.64.14-.1.3-.19.51-.25.17-.04.37-.05.57-.01.21.05.41.16.55.3.13.12.21.26.27.39.09.17.12.33.15.48.05.35.04.69,0,1.11-.07.88-.3,2.1-.62,3.57-.26,1.19-.6,2.57-.97,4.04-.12.49-.25.99-.38,1.5-.24.92-.49,1.88-.74,2.83-.38,1.46-.77,2.96-1.14,4.37-.05.2-.1.4-.15.59-.31,1.2-.6,2.36-.85,3.41-.29,1.22-.54,2.32-.71,3.23-.02.1-.04.19-.05.29,0,0-.01,0-.01.01-.13.75-.22,1.36-.25,1.77-.01.21-.01.37,0,.44v.04"/>
          <path class="cls-2" d="m147.66,144.86c-.35.58-.75,1.29-1.19,2.07-.54.97-1.14,2.1-1.76,3.28-.15.3-.31.6-.47.91"/>
          <path class="cls-2" d="m73.36,119.06c-.72,1.21-1.25,2.12-1.78,3"/>
          <path class="cls-2" d="m21.55,210.69c-1.79,6.39,1.94,13.01,8.33,14.79"/>
          <path class="cls-2" d="m68.45,122.54c.14-1.93,1.17-3.68,2.8-4.73"/>
          <path class="cls-2" d="m62.85,132.01c.14-1.93,1.17-3.68,2.8-4.73"/>
          <path class="cls-2" d="m74.76,116.69c-.23.39-.48.8-.75,1.27-.2.34-.42.7-.65,1.1"/>
          <path class="cls-2" d="m80.01,119.79c.86-1.45.38-3.32-1.07-4.17-1.45-.86-3.32-.38-4.18,1.07"/>
          <path class="cls-2" d="m74.38,63.73c-.18.5-.27,1.01-.29,1.54"/>
          <path class="cls-2" d="m88.11,65.22c1.31-.28,2.68-.14,3.9.42,2.3,1.04,3.67,3.32,3.67,5.69,0,.87-.18,1.74-.56,2.58-1.42,3.14-5.13,4.54-8.27,3.11"/>
          <path class="cls-2" d="m83,40.85c-.58.75-1.03,1.58-1.35,2.47"/>
          <path class="cls-2" d="m97.63,46.55c.09-3.25-1.93-6.19-4.99-7.28"/>
          <path class="cls-2" d="m78.61,122.16c.24-.4.45-.76.65-1.1.27-.46.52-.88.75-1.27"/>
          <path class="cls-2" d="m29.88,225.48c6.38,1.78,13-1.95,14.78-8.33"/>
          <path class="cls-2" d="m71.25,117.81c.14-1.93,1.17-3.69,2.8-4.74,2.85-1.84,6.66-1.02,8.5,1.84,1.84,2.85,1.02,6.66-1.83,8.5"/>
          <path class="cls-2" d="m85.18,64.67c1.01-.05,2.01.13,2.93.55"/>
          <line class="cls-2" x1="81.65" y1="43.32" x2="78.61" y2="51.87"/>
          <path class="cls-2" d="m94.22,105.49c1.21-2.04,1.88-4.36,1.95-6.74"/>
          <line class="cls-2" x1="76.31" y1="58.32" x2="74.38" y2="63.73"/>
          <line class="cls-2" x1="92.64" y1="39.27" x2="87.39" y2="37.4"/>
          <path class="cls-2" d="m37.8,153.78c-.16.29-.3.59-.44.89-.13.29-.25.6-.37.91-.11.3-.22.61-.31.93-.03.08-.05.17-.08.26"/>
          <path class="cls-2" d="m86.85,77.02c-1.64.36-3.36.03-4.76-.89"/>
          <path class="cls-2" d="m82.09,76.13c-1.34.07-2.67-.28-3.79-1.02-1.82-1.2-2.81-3.2-2.81-5.23,0-1.18.33-2.37,1.03-3.43,1.9-2.88,5.78-3.68,8.66-1.78"/>
          <path class="cls-2" d="m87.39,37.4c-.81-.29-1.72-.02-2.25.67"/>
          <line class="cls-2" x1="85.14" y1="38.07" x2="83" y2="40.85"/>
          <path class="cls-2" d="m65.65,127.28c.03-.48.13-.95.27-1.41.42-1.36,1.31-2.54,2.53-3.33"/>
          <polyline class="cls-2" points="96.17 98.75 96.82 75.52 96.94 71.37 97.63 46.55"/>
          <path class="cls-2" d="m93.72,200.91c.1.44.18.82.24,1.17.07.35.13.67.19.99.03.17.06.33.08.5"/>
          <path class="cls-2" d="m98.91,196.77c.05.22.11.44.16.66.09.33.17.66.25,1.02.09.36.17.75.27,1.2"/>
          <path class="cls-2" d="m99.59,199.65c.1.45.18.85.25,1.21.07.37.13.7.19,1.03.04.23.08.46.12.68"/>
          <path class="cls-2" d="m100.46,223.25c-.05.38-.1.72-.15,1.03"/>
          <path class="cls-2" d="m93.1,198.28c.04.16.08.33.13.5.07.31.15.62.23.97s.17.72.26,1.16"/>
          <path class="cls-2" d="m92.36,195.68c-.49-1.58.4-3.26,1.98-3.75,1.59-.49,3.27.4,3.75,1.98"/>
          <path class="cls-2" d="m92.36,195.68c.13.43.24.8.34,1.14s.19.66.27.97c.04.16.09.33.13.49"/>
          <path class="cls-2" d="m98.09,193.91c.14.44.25.83.36,1.18.1.36.19.69.28,1.02l.18.66"/>
          <path class="cls-2" d="m103.5,214.4c1.02-1.94.94-4.28-.23-6.14"/>
          <path class="cls-2" d="m91.61,224.65c-2.08,2.68-1.6,6.54,1.08,8.63,1.12.87,2.45,1.29,3.77,1.29,1.84,0,3.65-.81,4.86-2.38,1.23-1.58,1.61-3.66,1.03-5.57"/>
          <path class="cls-2" d="m113.2,231.41c.22.82.35,1.66.39,2.51.01.19.01.37.01.56"/>
          <line class="cls-2" x1="113.6" y1="234.48" x2="113.6" y2="238.92"/>
          <polyline class="cls-2" points="102.96 192.75 102.96 192.77 107.07 208.27 113.2 231.41"/>
          <path class="cls-2" d="m101.22,196.16c.23-1,.2-1.99-.04-2.92-.56-2.14-2.27-3.91-4.59-4.44-3.31-.75-6.6,1.32-7.36,4.63-.44,1.95.09,4,1.43,5.49"/>
          <path class="cls-2" d="m101.06,211.42c0,.46.02.86.03,1.23s.01.71.01,1.05v.68"/>
          <path class="cls-2" d="m92.58,214.32c-.84,1.61-.94,3.51-.26,5.19"/>
          <path class="cls-2" d="m89.59,189.12c.99-.99,2.23-1.7,3.59-2.06,4.27-1.13,8.65,1.42,9.78,5.69"/>
          <line class="cls-2" x1="82.39" y1="196.28" x2="89.59" y2="189.12"/>
          <path class="cls-2" d="m81.22,198.1c.25-.68.65-1.31,1.17-1.82"/>
          <path class="cls-2" d="m94.52,222.43c-.04.26-.07.5-.11.73"/>
          <path class="cls-2" d="m94.83,219.74c-.02.17-.03.34-.05.51-.03.32-.07.64-.11,1-.04.35-.09.73-.15,1.18"/>
          <path class="cls-2" d="m102.51,202.17c.67-2.09.18-4.38-1.29-6.01"/>
          <path class="cls-2" d="m103.27,208.26c.85-2.02.56-4.34-.76-6.09"/>
          <path class="cls-2" d="m92.32,219.51c-.98,1.52-1.24,3.4-.71,5.14"/>
          <path class="cls-2" d="m92.39,209.14c-.7,1.67-.63,3.57.19,5.18"/>
          <path class="cls-2" d="m101.02,217.35c-.03.46-.05.86-.08,1.23-.02.37-.05.71-.08,1.04-.02.24-.04.46-.06.69"/>
          <path class="cls-2" d="m100.8,220.31c-.02.22-.04.45-.06.68-.04.33-.08.67-.12,1.04-.05.37-.1.77-.16,1.22"/>
          <path class="cls-2" d="m102.35,226.62c1.34-1.74,1.66-4.05.84-6.09"/>
          <path class="cls-2" d="m91.75,203.99c-.56,1.73-.32,3.61.64,5.15"/>
          <path class="cls-2" d="m103.19,220.53c1.19-1.84,1.31-4.18.31-6.13"/>
          <path class="cls-2" d="m101.1,214.38c0,.23,0,.46-.01.69,0,.33-.01.68-.02,1.05s-.03.77-.05,1.23"/>
          <path class="cls-2" d="m95.02,217.05c-.02.45-.04.83-.07,1.19-.02.35-.05.68-.07.99-.02.18-.03.35-.05.51"/>
          <path class="cls-2" d="m90.66,198.92c-.4,1.77,0,3.62,1.09,5.07"/>
          <path class="cls-2" d="m70.72,214.46c.69-.09,1.35-.28,1.97-.54,2.03-.85,3.65-2.51,4.42-4.62"/>
          <polyline class="cls-2" points="46.96 208.92 48.24 210.55 50.37 213.28"/>
          <path class="cls-2" d="m50.37,213.28c1.76,2.25,4.59,3.39,7.42,3"/>
          <path class="cls-2" d="m16.6,233.67c0-.5.04-1,.1-1.5"/>
          <line class="cls-2" x1="16.6" y1="233.67" x2="16.6" y2="238.92"/>
          <path class="cls-2" d="m95.1,214.34v.51c-.01.32-.02.65-.03,1,0,.36-.02.74-.05,1.2"/>
          <path class="cls-2" d="m19.21,212.17c.41-3.22,1.92-6.19,4.28-8.42"/>
          <polyline class="cls-2" points="77.11 209.3 77.51 208.22 81.22 198.1"/>
          <line class="cls-2" x1="57.79" y1="216.28" x2="70.72" y2="214.46"/>
          <line class="cls-2" x1="16.7" y1="232.17" x2="19.21" y2="212.17"/>
          <path class="cls-2" d="m95.06,211.64c0,.07,0,.13,0,.2.01.36.02.68.02.99.01.36.01.68.01,1v.51"/>
          <path class="cls-2" d="m94.9,208.94c.02.16.03.33.04.51.03.31.05.64.07,1,.02.35.04.74.05,1.19"/>
          <path class="cls-2" d="m94.63,206.25c.05.44.1.83.13,1.18.03.27.06.54.08.79.01.07.01.14.02.21.02.17.03.34.04.51"/>
          <polyline class="cls-2" points="108.16 150.18 109.97 145.45 111.02 142.7"/>
          <polyline class="cls-2" points="111.02 142.7 112.07 139.96 113.87 135.23"/>
          <path class="cls-2" d="m109.68,160.21c.05-.02.09-.04.13-.05.3-.1.59-.2.79-.27.2-.06.31-.1.31-.1"/>
          <path class="cls-2" d="m105.3,157.65s.06.1.17.28c.11.19.25.45.41.73l.06.12"/>
          <line class="cls-2" x1="106.07" y1="155.65" x2="108.16" y2="150.18"/>
          <line class="cls-2" x1="105.94" y1="158.78" x2="109.68" y2="160.21"/>
          <polyline class="cls-2" points="121.57 131.9 121.26 132.7 119.48 137.37"/>
          <polyline class="cls-2" points="111.67 157.79 111.34 158.66 110.91 159.79"/>
          <polyline class="cls-2" points="121.26 132.7 121.94 132.96 122.22 133.07"/>
          <line class="cls-2" x1="119.48" y1="137.37" x2="116.62" y2="144.85"/>
          <line class="cls-2" x1="116.62" y1="144.85" x2="113.77" y2="152.32"/>
          <line class="cls-2" x1="125.76" y1="134.96" x2="125.47" y2="134.31"/>
          <line class="cls-2" x1="122.34" y1="129.9" x2="121.57" y2="131.9"/>
          <line class="cls-2" x1="124.09" y1="133.79" x2="125.47" y2="134.31"/>
          <line class="cls-2" x1="117.52" y1="156.49" x2="117.17" y2="157.41"/>
          <polyline class="cls-2" points="125.76 134.96 122.35 143.88 120.24 149.38 117.53 156.48"/>
          <line class="cls-2" x1="113.77" y1="152.32" x2="111.67" y2="157.79"/>
          <polyline class="cls-2" points="113.36 157.52 113.64 157.63 115.06 158.17"/>
          <line class="cls-2" x1="76.86" y1="49.31" x2="76.39" y2="49.14"/>
          <path class="cls-2" d="m76.73,58.02c-.14.11-.28.21-.42.3-.89.57-1.91.87-2.98.88"/>
          <polyline class="cls-2" points="101.72 143.79 102.22 142.49 103.27 139.74"/>
          <path class="cls-2" d="m76.86,49.31c.81.67,1.42,1.56,1.75,2.56.05.16.1.33.14.5"/>
          <line class="cls-2" x1="104.81" y1="135.7" x2="105.05" y2="135.07"/>
          <line class="cls-2" x1="104.91" y1="134.19" x2="102.75" y2="133.36"/>
          <path class="cls-2" d="m100.15,202.57c.04.22.07.44.11.67.05.34.1.67.16,1.04.05.37.1.77.16,1.22"/>
          <line class="cls-2" x1="78.75" y1="52.37" x2="76.73" y2="58.02"/>
          <line class="cls-2" x1="73.33" y1="59.2" x2="72.87" y2="59.03"/>
          <polyline class="cls-2" points="104.81 135.7 104.32 136.99 103.27 139.74"/>
          <line class="cls-2" x1="101.48" y1="144.41" x2="101.72" y2="143.79"/>
          <line class="cls-2" x1="100.79" y1="144.97" x2="98.63" y2="144.15"/>
          <path class="cls-2" d="m100.31,224.28c1.12,1.04,1.81,2.51,1.81,4.14,0,3.12-2.53,5.65-5.65,5.65s-5.65-2.53-5.65-5.65c0-2.39,1.49-4.44,3.59-5.26.64-.25,1.33-.39,2.06-.39,1.49,0,2.84.57,3.84,1.51Z"/>
          <line class="cls-2" x1="105.05" y1="135.07" x2="104.91" y2="134.19"/>
          <line class="cls-2" x1="101.48" y1="144.41" x2="100.79" y2="144.97"/>
          <line class="cls-2" x1="98.49" y1="143.27" x2="98.63" y2="144.15"/>
          <polyline class="cls-2" points="102.06 133.93 102.07 133.92 102.75 133.36"/>
          <path class="cls-2" d="m100.58,205.5c.06.46.1.86.14,1.23s.07.71.11,1.04c.01.15.03.3.03.45,0,.08.02.16.02.23"/>
          <path class="cls-2" d="m100.88,208.45l.06.69c.02.3.04.61.05.94.01.03.01.07.01.11.02.37.04.77.06,1.23"/>
          <line class="cls-2" x1="154.6" y1="231.92" x2="154.98" y2="231.92"/>
          <line class="cls-2" x1="154.98" y1="224.99" x2="154.98" y2="231.92"/>
          <path class="cls-2" d="m163.64,170.85c-.05-.02-.08-.08-.06-.13"/>
          <polyline class="cls-2" points="163.35 176.63 163.81 175.42 163.83 175.39 163.84 175.36 172.16 153.6 172.64 152.34"/>
          <polyline class="cls-2" points="163.58 170.72 164.79 167.54 167.65 160.07 168.86 156.9"/>
          <polyline class="cls-2" points="163.64 170.85 164.04 171 164.94 171.35"/>
          <line class="cls-2" x1="174.77" y1="153.16" x2="175.44" y2="153.41"/>
          <line class="cls-2" x1="176.33" y1="151.08" x2="177.83" y2="151.65"/>
          <line class="cls-2" x1="168.99" y1="156.84" x2="170.3" y2="157.34"/>
          <polyline class="cls-2" points="165.26 180.04 165.52 179.37 167.86 173.24 167.87 173.22 175.44 153.41 176.33 151.08"/>
          <polyline class="cls-2" points="128.13 156.74 128.21 156.91 128.71 158.03"/>
          <polyline class="cls-2" points="133.38 159.82 129.67 158.4 128.71 158.03"/>
          <polyline class="cls-2" points="138.01 144.46 137.12 144.12 135.25 143.4 134.42 143.09"/>
          <line class="cls-2" x1="163.35" y1="176.63" x2="164.5" y2="177.06"/>
          <line class="cls-2" x1="172.64" y1="152.34" x2="172.89" y2="152.44"/>
          <path class="cls-2" d="m168.86,156.9c.02-.06.08-.08.13-.06"/>
          <line class="cls-2" x1="134.03" y1="159.53" x2="133.38" y2="159.82"/>
          <line class="cls-2" x1="133.13" y1="143.66" x2="134.42" y2="143.09"/>
          <line class="cls-2" x1="165.26" y1="180.04" x2="166.76" y2="180.61"/>
          <polyline class="cls-2" points="133.13 143.66 131.68 147.45 129.58 152.95 128.13 156.74"/>
          <polyline class="cls-2" points="134.42 158.51 134.41 158.55 134.03 159.53"/>
          <polygon class="cls-2" points="16.6 238.92 14.1 238.92 11.1 241.92 11.1 246.42 11.6 246.92 224.1 246.92 224.6 246.42 224.6 239.52 224 238.92 113.6 238.92 96.46 238.92 16.6 238.92"/>
          <polyline class="cls-2" points="171.64 153.83 172.01 153.67 172.16 153.6"/>
          <line class="cls-2" x1="161.58" y1="194.15" x2="162.16" y2="195.44"/>
          <polyline class="cls-2" points="170.06 171.98 177.83 151.65 178.01 151.18"/>
          <line class="cls-2" x1="162.16" y1="195.44" x2="165.3" y2="196.64"/>
          <line class="cls-2" x1="161.58" y1="194.15" x2="163.1" y2="190.17"/>
          <polyline class="cls-2" points="163.61 174.85 163.84 175.36 163.84 175.37"/>
          <line class="cls-2" x1="178.01" y1="151.18" x2="179.3" y2="150.61"/>
          <line class="cls-2" x1="117.56" y1="145.2" x2="116.62" y2="144.85"/>
          <path class="cls-2" d="m119.89,146.1c-.39,1.48-.78,2.98-1.14,4.38-.34,1.37-.67,2.68-.94,3.84-.26,1.14-.48,2.16-.62,2.96-.01.04-.01.09-.02.13-.12.73-.18,1.3-.17,1.59,0,.11.01.18.01.18"/>
          <path class="cls-2" d="m117.52,156.49s0-.01,0-.01c.43-.73.92-1.61,1.45-2.59.58-1.07,1.21-2.27,1.86-3.52l.33-.63"/>
          <path class="cls-2" d="m117.56,145.2c-.5,1.43-1.01,2.88-1.48,4.24-.46,1.32-.91,2.6-1.29,3.72-.38,1.11-.72,2.11-.97,2.9-.2.59-.35,1.09-.46,1.46-.03.12-.06.23-.09.32-.05.17-.08.3-.08.32h0"/>
          <line class="cls-2" x1="179.3" y1="150.61" x2="188.19" y2="154.01"/>
          <path class="cls-2" d="m121.94,132.96c.09-.2.18-.37.25-.52.09-.18.16-.32.25-.45.04-.06.07-.11.13-.18.04-.04.09-.09.17-.16.04-.03.09-.06.15-.09.08-.05.18-.08.28-.1.09-.02.2-.03.3-.02.11.02.23.05.33.09.1.05.2.12.28.2s.14.17.19.26c.04.08.07.17.09.24,0,.07.02.13.02.18.01.06.01.11,0,.16,0,.08-.01.15-.02.21-.04.19-.09.4-.17.67-.03.1-.06.22-.1.34-.09.31-.21.69-.35,1.12-.27.82-.62,1.87-1.03,3.07-.38,1.12-.83,2.41-1.29,3.75-.49,1.4-1.01,2.89-1.53,4.37"/>
          <polyline class="cls-2" points="170.06 171.98 166.76 180.61 163.1 190.17"/>
          <path class="cls-2" d="m113.64,157.63c-.12.25-.22.47-.31.64-.08.14-.14.25-.23.38-.02.04-.05.08-.09.12-.03.04-.07.08-.12.12s-.1.08-.16.11c-.07.05-.17.09-.27.12-.1.02-.2.03-.3.03-.11-.01-.22-.03-.33-.08-.1-.04-.2-.1-.29-.17-.08-.08-.15-.16-.2-.24"/>
          <path class="cls-2" d="m123.88,144.47c.34-.67.68-1.32,1.01-1.95.66-1.26,1.29-2.44,1.86-3.47.58-1.04,1.11-1.95,1.56-2.67.47-.73.85-1.27,1.27-1.65.14-.14.3-.27.53-.38.11-.05.25-.09.41-.11.12-.01.26-.01.4.02.2.05.4.16.54.3.12.12.21.26.27.38.08.18.12.34.14.49.06.34.05.69.01,1.11-.08.88-.3,2.09-.63,3.57-.26,1.18-.59,2.57-.96,4.03-.21.81-.43,1.66-.65,2.53-.15.6-.31,1.2-.47,1.8-.34,1.31-.69,2.65-1.02,3.93l-.12.45c-.36,1.41-.71,2.77-1,4-.29,1.21-.54,2.32-.72,3.22-.02.1-.04.21-.06.31-.13.75-.21,1.36-.24,1.77-.02.21-.01.36,0,.44v.03"/>
          <path class="cls-2" d="m126.26,160.38c.35-.58.76-1.29,1.19-2.07.24-.44.5-.91.76-1.4"/>
          <path class="cls-2" d="m118.02,145.38c.5-1.43,1.01-2.87,1.48-4.23.46-1.33.91-2.6,1.29-3.72s.71-2.11.97-2.91c.2-.59.35-1.08.46-1.45.03-.12.06-.23.09-.32.05-.18.08-.31.08-.33"/>
          <path class="cls-2" d="m135.27,163.81c.34-.58.75-1.28,1.18-2.06.54-.98,1.14-2.11,1.77-3.29.15-.3.31-.6.46-.9"/>
          <path class="cls-2" d="m118.11,217.1l1.58-1.58"/>
          <polyline class="cls-2" points="229.36 184.86 229.76 183.82 233.34 174.48"/>
          <path class="cls-2" d="m135.25,143.4c.58-1.07,1.12-2.03,1.6-2.82.5-.84.94-1.5,1.33-1.98.21-.26.4-.47.65-.64.14-.1.3-.19.51-.25.17-.04.37-.05.57-.01.2.05.41.16.55.3.13.12.21.26.27.39.08.17.12.33.14.48.06.35.05.69.01,1.11-.08.88-.3,2.1-.63,3.57-.26,1.19-.59,2.57-.96,4.04-.12.48-.25.98-.38,1.49-.24.92-.49,1.88-.74,2.84-.38,1.46-.77,2.95-1.14,4.37-.05.19-.1.39-.15.58-.31,1.21-.6,2.37-.85,3.42-.29,1.22-.54,2.32-.71,3.23-.02.1-.04.2-.05.29h-.01c-.14.76-.22,1.37-.25,1.78-.02.21-.01.37,0,.44v.04"/>
          <line class="cls-2" x1="198.14" y1="209.2" x2="201.39" y2="210.44"/>
          <line class="cls-2" x1="233.34" y1="174.48" x2="231.61" y2="170.6"/>
          <line class="cls-2" x1="184.05" y1="187.24" x2="176.58" y2="184.38"/>
          <circle class="cls-2" cx="139.6" cy="206.92" r="4.75"/>
          <circle class="cls-2" cx="120.6" cy="225.92" r="4.75"/>
          <polyline class="cls-2" points="223.34 200.63 226.91 191.29 227.31 190.24"/>
          <line class="cls-2" x1="223.34" y1="200.63" x2="201.39" y2="210.44"/>
          <path class="cls-2" d="m144.27,167.25c.34-.58.75-1.28,1.18-2.06.54-.98,1.14-2.1,1.77-3.29.15-.29.31-.59.46-.9"/>
          <path class="cls-2" d="m183.55,194.99c.58-.11,1.2-.29,1.79-.53.06-.02.11-.04.16-.07"/>
          <path class="cls-2" d="m142.37,150.41c.63-1.22,1.24-2.39,1.81-3.44.61-1.12,1.17-2.13,1.67-2.95.51-.84.94-1.51,1.33-1.98.21-.26.4-.47.65-.64.14-.1.3-.19.51-.25.17-.04.37-.05.57-.01.21.05.41.16.55.3.13.12.21.26.27.39.08.17.12.33.15.48.05.35.04.69,0,1.11-.07.88-.3,2.1-.62,3.57-.27,1.19-.6,2.57-.97,4.04-.12.48-.25.98-.38,1.49-.24.92-.49,1.88-.74,2.84-.38,1.46-.77,2.95-1.14,4.37-.05.19-.1.39-.15.58-.31,1.21-.6,2.37-.85,3.42-.29,1.22-.54,2.32-.71,3.23-.02.1-.04.2-.05.29h-.01c-.14.76-.22,1.37-.25,1.78-.01.21-.01.37,0,.44v.04"/>
          <path class="cls-2" d="m122.67,233.65c-.68.18-1.38.27-2.07.27-2.09,0-4.13-.82-5.65-2.34-3.13-3.13-3.13-8.19,0-11.32"/>
          <path class="cls-2" d="m114.95,220.26l3.16-3.16"/>
          <line class="cls-2" x1="119.69" y1="215.52" x2="129.2" y2="206.01"/>
          <path class="cls-2" d="m129.2,206.01l1.58-1.58"/>
          <circle class="cls-2" cx="220.87" cy="184.7" r="5"/>
          <path class="cls-2" d="m133.95,201.26c.83-.83,1.83-1.46,2.92-1.86.65-.24,1.33-.39,2.04-.45"/>
          <path class="cls-2" d="m187.9,215.7c-.86.54-1.79.95-2.78,1.21"/>
          <polyline class="cls-2" points="138.91 198.95 165.3 196.64 172.12 196.05 182.5 195.14"/>
          <path class="cls-2" d="m182.5,195.14c.35-.03.7-.08,1.05-.15"/>
          <path class="cls-2" d="m130.78,204.43c1.16-1.15,2.18-2.18,3.17-3.17"/>
          <path class="cls-2" d="m216.77,177.25c3.93-2.16,8.87-.9,11.27,2.89.93,1.46,1.36,3.1,1.32,4.72h0c-.04,1.96-.75,3.87-2.05,5.38-.54.62-1.17,1.17-1.89,1.63"/>
          <path class="cls-2" d="m185.5,194.39c.33-.13.64-.29.95-.45"/>
          <line class="cls-2" x1="77.51" y1="208.22" x2="53.1" y2="208.22"/>
          <line class="cls-2" x1="100.86" y1="208.22" x2="94.84" y2="208.22"/>
          <polyline class="cls-2" points="53.1 208.22 53.1 212.69 53.1 212.7"/>
          <line class="cls-2" x1="101.51" y1="135.36" x2="99.04" y2="141.83"/>
          <path class="cls-2" d="m74.01,117.96c2.03.46,3.87,1.55,5.25,3.1"/>
          <path class="cls-2" d="m69.56,137.46c-2.03-.47-3.85-1.55-5.25-3.1h0"/>
          <line class="cls-2" x1="80.74" y1="136.48" x2="92.42" y2="140.95"/>
          <polyline class="cls-2" points="97.96 144.67 98.49 143.27 99.04 141.83"/>
          <polyline class="cls-2" points="101.51 135.36 102.06 133.93 102.07 133.92 102.6 132.53"/>
          <line class="cls-2" x1="80.74" y1="136.48" x2="75.42" y2="137.28"/>
          <line class="cls-2" x1="95.99" y1="131.61" x2="97.93" y2="130.74"/>
          <line class="cls-2" x1="84.31" y1="127.14" x2="82.62" y2="125.1"/>
          <line class="cls-2" x1="97.93" y1="130.74" x2="102.6" y2="132.53"/>
          <line class="cls-2" x1="154.6" y1="233.52" x2="153.6" y2="233.52"/>
          <line class="cls-2" x1="153.6" y1="233.52" x2="137.24" y2="233.52"/>
          <line class="cls-2" x1="93.28" y1="142.88" x2="97.96" y2="144.67"/>
          <line class="cls-2" x1="154.6" y1="233.52" x2="154.6" y2="231.92"/>
          <line class="cls-2" x1="92.42" y1="140.95" x2="93.28" y2="142.88"/>
          <line class="cls-2" x1="84.31" y1="127.14" x2="95.99" y2="131.61"/>
          <polygon class="cls-2" points="231.49 193.04 228.92 199.76 229.38 200.79 237.04 203.72 239.62 202.57 246.76 183.89 245.61 181.31 237.95 178.38 236.91 178.84 234.34 185.57 231.49 193.04"/>
          <path class="cls-2" d="m122.34,129.9s-.06-.1-.17-.28-.25-.45-.41-.72c-.02-.04-.04-.08-.06-.13"/>
          <path class="cls-2" d="m117.96,127.35s-.09.03-.13.04c-.3.11-.59.2-.79.27-.2.06-.31.1-.31.1"/>
          <line class="cls-2" x1="121.7" y1="128.77" x2="117.96" y2="127.35"/>
          <line class="cls-2" x1="105.3" y1="157.65" x2="106.07" y2="155.65"/>
          <line class="cls-2" x1="113.87" y1="135.23" x2="115.97" y2="129.76"/>
          <line class="cls-2" x1="115.97" y1="129.76" x2="116.73" y2="127.76"/>
          <path class="cls-2" d="m73.44,88.55c-.09,3.39-1.05,6.71-2.78,9.63"/>
          <line class="cls-2" x1="195.08" y1="155.59" x2="189.47" y2="153.45"/>
          <path class="cls-2" d="m195.45,156.39c-.08-.19-.2-.43-.31-.67-.02-.04-.04-.09-.06-.13"/>
          <path class="cls-2" d="m189.47,153.45s-.08.03-.13.05c-.24.11-.48.21-.68.3"/>
          <path class="cls-2" d="m39.21,151.36s-.02.04-.03.05c-.01.02-.02.03-.03.05"/>
          <polyline class="cls-2" points="74.09 65.27 73.96 69.84 73.79 76.08 73.44 88.55"/>
          <line class="cls-2" x1="39.15" y1="151.46" x2="38.14" y2="153.17"/>
          <line class="cls-2" x1="195.66" y1="156.86" x2="184.05" y2="187.24"/>
          <line class="cls-2" x1="195.66" y1="156.86" x2="195.45" y2="156.39"/>
          <line class="cls-2" x1="188.19" y1="154.01" x2="188.66" y2="153.8"/>
          <path class="cls-2" d="m134.75,233.92c.86,0,1.7-.14,2.49-.4,1.18-.39,2.27-1.05,3.16-1.94"/>
          <polyline class="cls-2" points="172.12 196.04 176.58 184.38 188.19 154.01"/>
          <path class="cls-2" d="m58.82,213.92c-1.99,0-3.94-.43-5.72-1.23-1.5-.67-2.88-1.6-4.08-2.77"/>
          <line class="cls-2" x1="68.87" y1="70.27" x2="68.39" y2="71.6"/>
          <path class="cls-2" d="m96.81,75.54s0-.01,0-.02c.69-1.21,1.07-2.57,1.11-3.95"/>
          <line class="cls-2" x1="49.02" y1="209.92" x2="47.18" y2="208.12"/>
          <line class="cls-2" x1="97.93" y1="71.57" x2="98.62" y2="46.58"/>
          <path class="cls-2" d="m98.62,46.58c.11-3.68-2.17-7.01-5.64-8.25"/>
          <polyline class="cls-2" points="113.59 233.92 120.6 233.92 134.75 233.92"/>
          <polyline class="cls-2" points="137.32 199.25 136.87 199.39 107.07 208.27"/>
          <line class="cls-2" x1="67.78" y1="73.32" x2="68.39" y2="71.6"/>
          <line class="cls-2" x1="64.16" y1="68.59" x2="75.68" y2="36.23"/>
          <line class="cls-2" x1="81.67" y1="34.31" x2="81.48" y2="34.86"/>
          <polyline class="cls-2" points="138.91 149.08 142.37 150.41 144.24 151.12 146.04 151.81"/>
          <line class="cls-2" x1="80.86" y1="36.58" x2="81.48" y2="34.86"/>
          <polyline class="cls-2" points="68.87 70.27 72.87 59.03 76.39 49.14 80.39 37.91"/>
          <polyline class="cls-2" points="101 210.08 100.99 210.08 95.07 211.84"/>
          <line class="cls-2" x1="83.56" y1="34.98" x2="82.62" y2="34.64"/>
          <line class="cls-2" x1="92.98" y1="38.33" x2="83.56" y2="34.98"/>
          <line class="cls-2" x1="81.67" y1="34.31" x2="76.96" y2="32.63"/>
          <line class="cls-2" x1="72.69" y1="213.92" x2="58.82" y2="213.92"/>
          <line class="cls-2" x1="80.86" y1="36.58" x2="80.39" y2="37.91"/>
          <line class="cls-2" x1="69.47" y1="74.54" x2="73.79" y2="76.08"/>
          <line class="cls-2" x1="68.53" y1="74.21" x2="67.58" y2="73.87"/>
          <line class="cls-2" x1="140.4" y1="231.58" x2="144.06" y2="227.92"/>
          <line class="cls-2" x1="75.68" y1="36.23" x2="76.12" y2="34.99"/>
          <line class="cls-2" x1="48.24" y1="210.55" x2="48.32" y2="210.63"/>
          <line class="cls-2" x1="68.53" y1="74.21" x2="69.47" y2="74.54"/>
          <line class="cls-2" x1="67.78" y1="73.32" x2="67.58" y2="73.87"/>
          <line class="cls-2" x1="62.88" y1="72.2" x2="67.58" y2="73.87"/>
          <line class="cls-2" x1="62.87" y1="72.19" x2="62.88" y2="72.19"/>
          <line class="cls-2" x1="81.67" y1="34.31" x2="82.62" y2="34.64"/>
          <line class="cls-2" x1="63.72" y1="69.83" x2="64.16" y2="68.59"/>
          <polyline class="cls-2" points="102.21 142.49 102.22 142.49 109.97 145.45"/>
          <line class="cls-2" x1="226.91" y1="191.29" x2="231.49" y2="193.04"/>
          <polyline class="cls-2" points="23.34 165.33 53.53 80.54 55.07 76.23"/>
          <polyline class="cls-2" points="156.91 155.97 160.37 157.29 162.24 158 164.04 158.69"/>
          <line class="cls-2" x1="79.71" y1="21.93" x2="80.32" y2="23.21"/>
          <line class="cls-2" x1="163.88" y1="167.2" x2="164.79" y2="167.54"/>
          <line class="cls-2" x1="23.34" y1="165.33" x2="22.7" y2="165.63"/>
          <line class="cls-2" x1="129.64" y1="146.67" x2="131.68" y2="147.45"/>
          <polyline class="cls-2" points="73.46 24.57 75 20.25 80.03 6.12"/>
          <line class="cls-2" x1="79.73" y1="5.48" x2="77.38" y2="4.64"/>
          <line class="cls-2" x1="79.04" y1="26.81" x2="78.56" y2="28.15"/>
          <line class="cls-2" x1="79.04" y1="26.81" x2="80.12" y2="23.76"/>
          <line class="cls-2" x1="59.72" y1="81.06" x2="59.52" y2="81.61"/>
          <polyline class="cls-2" points="120.24 149.38 121.17 149.74 123.04 150.45 126.28 151.69"/>
          <polyline class="cls-2" points="61.28 76.68 62.88 72.2 62.88 72.19 63.72 69.83"/>
          <polyline class="cls-2" points="145.88 160.31 147.68 161 149.55 161.72 153.01 163.04"/>
          <line class="cls-2" x1="165.91" y1="159.41" x2="167.65" y2="160.07"/>
          <polyline class="cls-2" points="122.34 143.88 122.35 143.88 123.88 144.47 125.75 145.19 127.77 145.96"/>
          <line class="cls-2" x1="53.53" y1="80.54" x2="58.24" y2="82.22"/>
          <polyline class="cls-2" points="147.91 152.52 151.37 153.85 153.24 154.56 155.04 155.25"/>
          <line class="cls-2" x1="229.77" y1="183.82" x2="234.34" y2="185.57"/>
          <line class="cls-2" x1="128.15" y1="152.4" x2="129.58" y2="152.95"/>
          <line class="cls-2" x1="104.32" y1="136.99" x2="112.07" y2="139.96"/>
          <line class="cls-2" x1="80.03" y1="6.12" x2="79.73" y2="5.48"/>
          <line class="cls-2" x1="80.32" y1="23.21" x2="80.12" y2="23.76"/>
          <polyline class="cls-2" points="76.12 34.99 76.96 32.63 78.56 28.15"/>
          <polyline class="cls-2" points="154.88 163.76 156.68 164.44 158.55 165.16 162.01 166.48 162.02 166.48"/>
          <polyline class="cls-2" points="136.88 156.87 138.68 157.56 140.55 158.28 144.01 159.6"/>
          <line class="cls-2" x1="61.28" y1="76.68" x2="60.8" y2="78.01"/>
          <line class="cls-2" x1="79.71" y1="21.93" x2="75" y2="20.25"/>
          <line class="cls-2" x1="77.38" y1="4.64" x2="74.82" y2="5.86"/>
          <line class="cls-2" x1="59.72" y1="81.06" x2="60.8" y2="78.01"/>
          <line class="cls-2" x1="20.35" y1="164.79" x2="19.13" y2="162.24"/>
          <line class="cls-2" x1="20.35" y1="164.79" x2="22.7" y2="165.63"/>
          <line class="cls-2" x1="58.24" y1="82.22" x2="59.52" y2="81.61"/>
          <line class="cls-2" x1="231.61" y1="170.6" x2="195.66" y2="156.86"/>
          <circle class="cls-2" cx="96.47" cy="228.42" r="2.76"/>
          <circle class="cls-2" cx="71.79" cy="127.71" r="2.76"/>
          <circle class="cls-2" cx="89.43" cy="71.33" r="2.76"/>
          <circle class="cls-2" cx="90.13" cy="46.34" r="2.76"/>
          <line class="cls-2" x1="163.61" y1="174.85" x2="164.94" y2="171.35"/>
          <line class="cls-2" x1="170.3" y1="157.34" x2="171.64" y2="153.83"/>
          <line class="cls-2" x1="186.45" y1="193.94" x2="216.77" y2="177.25"/>
          <polyline class="cls-2" points="122.67 233.65 144.06 227.92 154.98 224.99 185.12 216.91"/>
          <polyline class="cls-2" points="225.42 191.87 198.14 209.2 187.9 215.7"/>
          <line class="cls-2" x1="74.82" y1="5.86" x2="19.13" y2="162.24"/>
          <line class="cls-2" x1="70.66" y1="98.18" x2="39.21" y2="151.36"/>
          <polyline class="cls-2" points="36.6 156.77 23.49 203.75 21.55 210.69"/>
          <polyline class="cls-2" points="58.5 167.58 47.18 208.12 46.96 208.92 44.66 217.15"/>
          <polyline class="cls-2" points="60.74 162.1 75.42 137.28 82.62 125.1 94.22 105.49"/>
        </g>
      </g>
    </g>
  </g>
  <g id="Arrows">
    <g id="LWPOLYLINE">
      <g>
        <polygon class="cls-4" points="52.22 41.51 29.5 42.91 29.16 41.33 32.15 38.64 10.17 31.5 13.14 28.83 12.32 24.91 34.3 32.05 33.45 28.11 34.64 27.03 52.22 41.51"/>
        <polygon class="cls-3" points="12.32 24.91 34.3 32.05 33.45 28.11 34.64 27.03 52.22 41.51 29.5 42.91 29.16 41.33 32.15 38.64 10.17 31.5 13.14 28.83 12.32 24.91"/>
      </g>
    </g>
    <g id="LWPOLYLINE-2" data-name="LWPOLYLINE">
      <g>
        <polygon class="cls-4" points="249.55 149.9 241.22 171.04 232.89 149.9 234.27 149.1 237.76 151.1 237.76 128.04 241.22 130.04 244.68 128.04 244.68 151.1 248.16 149.1 249.55 149.9"/>
        <polygon class="cls-3" points="244.68 128.04 244.68 151.1 248.16 149.1 249.55 149.9 241.22 171.04 232.89 149.9 234.27 149.1 237.76 151.1 237.76 128.04 241.22 130.04 244.68 128.04"/>
      </g>
    </g>
    <path class="cls-1" d="m243.9,157.36l-.35,2h-5.4l.33-1.9,3.49-2.8.07-.4h-2.3l-.49-.6.23-1.3h3.8c.45,0,.79.14,1.01.41.22.27.29.64.21,1.09l-.14.8c-.03.16-.09.32-.18.47-.09.15-.2.3-.32.43-.12.13-.23.25-.35.35s-.22.18-.31.25l-1.49,1.1-.02.1h2.2Z"/>
    <path class="cls-1" d="m37.38,33.36h1.8l-1.23,7h-2.3l.88-5h-1.3l.23-1.3,1.92-.7Z"/>
  </g>
</svg>