<?xml version="1.0" encoding="UTF-8"?>
<svg xmlns="http://www.w3.org/2000/svg" viewBox="0 0 376 198">
  <defs>
    <style>
      .cls-1 {
        fill: #fff;
      }

      .cls-2 {
        stroke: #000;
      }

      .cls-2, .cls-3 {
        fill: none;
        stroke-linecap: round;
        stroke-linejoin: round;
        stroke-width: .71px;
      }

      .cls-4 {
        fill: #e84e0f;
      }

      .cls-3 {
        stroke: #e84e0f;
      }

      .cls-5 {
        fill: #999;
      }

      .cls-6 {
        fill: #ccc;
      }

      .cls-7 {
        fill: #666;
      }
    </style>
  </defs>
  <g id="Light">
    <g id="LINE">
      <g>
        <g>
          <polygon class="cls-5" points="215.66 106.33 219.73 85.5 220.21 83.05 221.78 83.36 219.58 94.64 218.04 102.5 215.84 113.78 214.27 113.48 214.41 112.77 215.66 106.33"/>
          <path class="cls-5" d="m211.8,110.45l.25-1.28v-.02l1.48-7.54,1.53-7.85,1.73-8.83.26.05h.01c-.06.5-.16,1.25-.3,2.16-.14.92-.31,2.05-.51,3.28-.2,1.24-.43,2.62-.66,4.04-.24,1.43-.49,2.93-.73,4.39-.24,1.47-.49,2.95-.71,4.31-.23,1.38-.44,2.68-.61,3.8-.19,1.23-.35,2.28-.46,3.07-.03.24-.05.45-.08.65l-1.2-.23Z"/>
          <path class="cls-5" d="m167.62,75.83l-1.83,9.38-1.13,5.78-1.46,7.47-.19.96v-.12c0-.82.03-1.86.1-3.03.06-1.19.16-2.53.27-3.94.11-1.45.24-2.99.37-4.52.25-1.54.51-3.1.75-4.56.23-1.4.45-2.74.64-3.92.2-1.25.36-2.34.48-3.2.07-.45.12-.85.16-1.17l1.44.29.4.58Z"/>
          <path class="cls-6" d="m165.63,91.18l1.97.38c-.09.26-.17.52-.25.77-.44,1.39-.87,2.74-1.27,3.94-.41,1.21-.79,2.3-1.14,3.2-.35.91-.67,1.64-.97,2.18-.16.29-.32.52-.53.74-.12.12-.26.24-.46.33-.16.07-.35.12-.56.11s-.43-.09-.59-.2c-.15-.1-.26-.22-.34-.34-.11-.15-.17-.3-.22-.45-.12-.33-.16-.67-.2-1.09,0-.07,0-.14,0-.22-.07-.86-.04-2.02.02-3.41.05-1.21.14-2.63.26-4.14.1-1.41.23-2.94.35-4.46.03-.36.07-.73.1-1.09.24-1.49.5-3.01.73-4.42.23-1.39.44-2.72.63-3.89.18-1.16.34-2.2.46-3.03.09-.61.16-1.13.2-1.51l-.3-.06c.06-.21.12-.39.16-.55.06-.2.11-.34.18-.5.02-.05.05-.11.09-.19.03-.05.07-.11.14-.18.04-.04.08-.09.14-.13.07-.05.15-.1.25-.14.09-.04.19-.06.3-.07.11,0,.22.01.33.04s.22.08.31.14.17.14.23.22.1.16.13.23c.03.06.05.12.06.17.01.06.02.11.03.15,0,.09,0,.15,0,.22,0,.2-.02.41-.05.69,0,.1-.02.22-.04.34-.04.32-.09.72-.16,1.17-.12.86-.28,1.95-.48,3.2-.19,1.18-.41,2.52-.64,3.92-.24,1.46-.5,3.02-.75,4.56-.13,1.53-.26,3.07-.37,4.52-.11,1.41-.21,2.75-.27,3.94-.07,1.17-.1,2.21-.1,3.03v.12l.19-.96c.3-.8.64-1.76.99-2.81.39-1.15.8-2.45,1.23-3.79.07-.22.14-.45.21-.68Z"/>
          <circle class="cls-6" cx="231.77" cy="169.13" r="2.76"/>
          <path class="cls-6" d="m231.77,174.78c-3.12,0-5.65-2.53-5.65-5.65,0-2.4,1.49-4.44,3.6-5.27.63-.24,1.33-.38,2.05-.38,1.49,0,2.84.57,3.84,1.52,1.12,1.02,1.81,2.49,1.81,4.13,0,3.12-2.52,5.65-5.65,5.65Zm0-8.41c-1.52,0-2.76,1.23-2.76,2.76s1.24,2.76,2.76,2.76,2.76-1.24,2.76-2.76-1.23-2.76-2.76-2.76Z"/>
          <circle class="cls-6" cx="73.26" cy="34.41" r="2.76"/>
          <path class="cls-6" d="m76.02,34.41c0-1.52-1.23-2.76-2.76-2.76s-2.76,1.24-2.76,2.76,1.24,2.76,2.76,2.76,2.76-1.23,2.76-2.76Zm-2.76-5.65c3.12,0,5.65,2.53,5.65,5.65s-2.53,5.65-5.65,5.65c-.16,0-.32-.01-.48-.02-2.21-.19-4.06-1.64-4.81-3.64-.23-.62-.36-1.29-.36-1.99,0-3.12,2.53-5.65,5.65-5.65Z"/>
          <path class="cls-6" d="m47.91,34.25c.99-.37,2.07-.44,3.09-.23.17.03.34.08.5.13l3.89,4.58c.02.18.04.35.04.52.04,1.05-.21,2.09-.73,3.01l-.37.32h-.01l-6.79-8.01.38-.32Z"/>
          <circle class="cls-6" cx="51.99" cy="21.28" r="2.76"/>
          <path class="cls-6" d="m54.75,21.28c0-1.52-1.24-2.76-2.76-2.76s-2.76,1.24-2.76,2.76,1.24,2.76,2.76,2.76,2.76-1.23,2.76-2.76Zm-8.41,0c0-3.12,2.53-5.65,5.65-5.65s5.65,2.53,5.65,5.65-2.53,5.65-5.65,5.65-5.65-2.53-5.65-5.65Z"/>
          <circle class="cls-6" cx="113.2" cy="77.94" r="2.76"/>
          <path class="cls-6" d="m119.9,83.64c.5.88.89,1.57,1.24,2.2l-4.79,1.59c-.37.13-.76.23-1.14.31-.19-.34-.39-.71-.62-1.11-.69-1.23-1.21-2.15-1.72-3.05h0c.11.01.22.01.33.01,2.16,0,4.04-1.21,4.99-3,.51.9,1.02,1.82,1.71,3.05Z"/>
          <path class="cls-6" d="m113.2,72.29c-2.16,0-4.03,1.21-4.99,2.99-.5-.9-1.01-1.81-1.7-3.04-.23-.4-.43-.77-.63-1.11,1.42-1.53,3.28-2.57,5.32-2.99.19.34.4.71.63,1.12.68,1.22,1.2,2.14,1.71,3.04h0c-.11,0-.23,0-.34,0Z"/>
          <path class="cls-6" d="m110.44,77.94c0,1.52,1.24,2.76,2.76,2.76s2.76-1.24,2.76-2.76-1.23-2.76-2.76-2.76-2.76,1.24-2.76,2.76Zm-2.23-2.66c.96-1.78,2.83-2.99,4.99-2.99.11,0,.23,0,.34.02,2.58.14,4.69,2.02,5.2,4.49.07.37.11.75.11,1.14,0,.96-.24,1.86-.66,2.65-.95,1.79-2.83,3-4.99,3-.11,0-.22,0-.33-.02-1.24-.06-2.37-.53-3.27-1.27-1.25-1.04-2.05-2.6-2.05-4.36,0-.96.24-1.87.66-2.66Z"/>
          <path class="cls-6" d="m117.25,68.79c.89.39,1.7.91,2.44,1.54l5.76,4.91,12.27,2.39,1.76-1.18,4.9.96-.29,1.47-.29,1.51-1.33,6.8-.29,1.5-.29,1.48-4.9-.96-1.19-1.76-9.07-1.77-9.48-16.89Z"/>
          <polygon class="cls-6" points="142.47 87.19 143.8 80.39 144.09 78.88 144.1 78.88 144.68 78.21 146.95 78.65 147.24 79.49 147.11 80.15 146.85 81.51 146.84 81.51 146.28 84.4 145.72 87.29 145.45 88.65 145.32 89.31 144.73 89.98 142.47 89.54 142.18 88.69 142.47 87.19"/>
          <path class="cls-6" d="m157.48,101.65l.18-.91,1.12-5.75,1.53-7.85.99.19c-.25,1.5-.5,3.01-.74,4.43-.22,1.38-.44,2.71-.63,3.88-.18,1.17-.34,2.21-.46,3.03-.09.62-.16,1.13-.2,1.51l.3.06c-.08.28-.14.51-.2.69-.05.16-.09.28-.16.42-.02.04-.04.08-.07.13-.03.04-.06.09-.1.14-.03.04-.08.09-.13.14-.07.05-.16.11-.25.16-.09.04-.19.06-.29.08-.11.01-.23,0-.34-.02s-.22-.07-.31-.13c-.09-.05-.18-.12-.24-.2Z"/>
          <path class="cls-6" d="m170.53,98.97c.06-1.21.15-2.63.26-4.14.07-.84.13-1.71.2-2.6.06-.61.11-1.24.16-1.86.12-1.34.23-2.72.34-4.04.02-.16.03-.31.04-.46.11-1.45.22-2.86.3-4.12.08-1.24.13-2.37.15-3.29,0-.11,0-.22,0-.32-.25.64-.53,1.4-.82,2.25-.36,1.06-.76,2.27-1.17,3.54-.21.64-.42,1.31-.63,1.98l-1.96-.38c.22-.72.45-1.42.66-2.1.43-1.35.85-2.62,1.24-3.74s.75-2.11,1.08-2.89c.34-.8.62-1.4.96-1.85.12-.16.26-.32.46-.46.11-.07.23-.14.39-.18.12-.03.25-.05.39-.04.21.01.42.09.59.19.14.1.25.22.33.34.11.15.18.3.23.45.11.33.16.67.19,1.09.08.88.07,2.12,0,3.62-.06,1.22-.15,2.64-.26,4.15-.07.84-.13,1.71-.2,2.6-.06.61-.11,1.23-.16,1.85-.12,1.35-.23,2.73-.34,4.05-.02.16-.03.31-.04.46-.11,1.45-.22,2.86-.3,4.11s-.13,2.38-.15,3.3c0,.11-.01.22,0,.32.25-.64.53-1.4.82-2.25.16-.47.33-.97.51-1.5l.68,1.01,1.01.2c-.39,1.15-.76,2.2-1.09,3.06-.36.91-.67,1.64-.98,2.18-.16.28-.31.52-.53.74-.11.12-.26.24-.46.33-.15.07-.35.11-.55.1-.21-.01-.43-.08-.6-.2-.14-.09-.25-.21-.33-.33-.11-.15-.18-.3-.23-.45-.11-.33-.16-.68-.19-1.1-.08-.87-.06-2.11,0-3.62Z"/>
          <path class="cls-6" d="m181.32,83.09c.06-1.05.1-2,.12-2.79v-.31c-.25.64-.53,1.4-.82,2.25-.08.22-.15.44-.23.67l-1.97-.38c.39-1.15.75-2.19,1.09-3.06.35-.91.67-1.64.97-2.18.16-.29.32-.52.53-.74.12-.12.26-.24.46-.33.16-.07.36-.12.56-.11.21.01.43.09.59.2.15.1.26.22.34.34.11.15.17.3.22.45.12.33.16.67.2,1.09.08.88.06,2.12-.01,3.63-.05,1.21-.14,2.63-.26,4.14-.04.5-.07,1.01-.12,1.54-.07.95-.15,1.94-.23,2.92-.13,1.5-.26,3.04-.38,4.5-.02.2-.03.4-.04.6-.1,1.24-.19,2.44-.26,3.52-.08,1.24-.13,2.37-.15,3.29,0,.1-.01.2,0,.3.25-.63.52-1.39.82-2.24.36-1.05.76-2.26,1.17-3.54.1-.31.2-.64.31-.96l1.96.38c-.41,1.3-.81,2.56-1.19,3.68-.41,1.21-.79,2.3-1.14,3.2-.35.92-.67,1.65-.97,2.19-.17.29-.32.52-.54.74-.11.12-.26.24-.46.33-.15.07-.35.12-.55.11-.22-.01-.43-.09-.6-.2-.15-.1-.25-.22-.33-.33-.11-.16-.18-.31-.23-.46-.11-.33-.16-.67-.19-1.09-.08-.88-.07-2.12,0-3.63.05-.96.11-2.06.19-3.23.01-.01.01-.02.01-.03.02-.29.04-.58.06-.88.11-1.41.23-2.94.36-4.46.13-1.5.26-3.04.37-4.5.12-1.45.23-2.86.31-4.11l.03-.51Z"/>
          <path class="cls-6" d="m190.07,94.08c.12-1.5.25-3.04.37-4.51.02-.21.03-.41.05-.61.1-1.23.18-2.42.25-3.5.08-1.25.14-2.38.15-3.3,0-.11.01-.21,0-.31-.24.63-.52,1.38-.81,2.23-.37,1.05-.76,2.26-1.17,3.54-.1.32-.21.64-.31.97l-1.97-.38c.42-1.31.82-2.56,1.2-3.69.41-1.21.79-2.3,1.14-3.2.35-.92.67-1.65.97-2.18.16-.29.32-.53.53-.75.12-.11.26-.23.46-.32.16-.07.35-.12.56-.11s.43.09.59.2c.15.1.26.22.34.33.11.16.17.31.22.46.11.33.16.67.2,1.09.07.88.06,2.11-.01,3.62-.05,1.22-.14,2.64-.26,4.15-.04.5-.07,1.01-.12,1.54-.07.95-.16,1.93-.24,2.91-.12,1.51-.25,3.05-.37,4.51-.02.2-.03.4-.05.6-.1,1.24-.18,2.43-.25,3.51-.08,1.25-.14,2.38-.15,3.3,0,.1-.01.2,0,.3.24-.64.52-1.39.82-2.24.36-1.05.76-2.26,1.17-3.54l.3-.96,1.97.38c-.42,1.32-.83,2.59-1.21,3.73-.41,1.21-.79,2.29-1.14,3.19-.35.91-.67,1.63-.97,2.17-.16.28-.31.51-.53.73-.12.12-.26.24-.46.32-.15.07-.34.12-.54.11-.22-.01-.44-.09-.6-.2-.15-.1-.26-.22-.34-.33-.11-.16-.17-.31-.22-.46-.11-.33-.16-.67-.2-1.08-.07-.88-.06-2.11,0-3.62.05-1.21.14-2.63.26-4.14.04-.51.08-1.03.12-1.56.07-.95.16-1.93.24-2.9Z"/>
          <path class="cls-6" d="m199.52,85.97c-.36,1.05-.76,2.27-1.17,3.55-.1.3-.2.61-.3.92l-1.96-.38c.41-1.31.82-2.57,1.2-3.69.4-1.21.79-2.31,1.13-3.2.36-.92.67-1.65.98-2.19.16-.28.31-.52.53-.74.12-.12.26-.23.46-.32.15-.07.35-.12.55-.11.22.01.43.09.6.2.15.1.25.22.34.33.1.16.17.31.22.45.11.34.16.68.2,1.1.07.88.06,2.11-.01,3.62-.05,1.22-.15,2.64-.26,4.14-.04.5-.08,1.01-.12,1.54-.08.95-.16,1.94-.24,2.92-.12,1.51-.26,3.05-.37,4.51-.02.2-.03.4-.05.59-.1,1.24-.19,2.43-.25,3.52-.08,1.24-.14,2.37-.16,3.3v.31c.25-.64.53-1.4.82-2.25.37-1.06.77-2.27,1.18-3.54.1-.32.2-.64.3-.97l1.97.39c-.41,1.27-.8,2.49-1.17,3.6-.41,1.22-.79,2.31-1.14,3.22-.36.92-.68,1.66-.98,2.21-.17.3-.32.54-.54.77-.12.12-.26.24-.46.33-.16.08-.36.13-.57.12-.22-.02-.43-.09-.6-.21-.14-.09-.25-.21-.33-.33-.11-.16-.17-.31-.22-.45-.12-.34-.17-.69-.2-1.11-.08-.89-.06-2.13,0-3.64.05-1.22.15-2.64.26-4.15.04-.49.08-.99.11-1.5.08-.96.16-1.96.25-2.96.12-1.5.26-3.04.37-4.5.02-.19.03-.38.05-.56.1-1.25.18-2.46.25-3.55.08-1.24.13-2.37.15-3.29,0-.09.01-.17,0-.26-.26.64-.53,1.41-.83,2.26Z"/>
          <path class="cls-6" d="m213.43,112.74c-.1-.05-.18-.13-.25-.2-.07-.08-.12-.16-.15-.24-.04-.06-.06-.13-.07-.18-.02-.06-.03-.11-.03-.15-.01-.08-.02-.14-.02-.19,0-.17.01-.33.03-.53.02-.16.04-.35.06-.57.03-.2.05-.41.08-.65.11-.79.27-1.84.46-3.07.17-1.12.38-2.42.61-3.8.22-1.36.47-2.84.71-4.31.24-1.46.49-2.96.73-4.39.23-1.42.46-2.8.66-4.04.2-1.23.37-2.36.51-3.28.14-.91.24-1.66.3-2.16h-.01l-.26-.05-1.73,8.83-.38-.07c.04-.16.07-.32.11-.47.31-1.38.61-2.7.88-3.86s.52-2.2.73-3.03c.2-.84.37-1.49.51-1.93.06-.2.11-.36.17-.51.03-.06.05-.12.1-.2.03-.05.08-.12.15-.2.04-.04.09-.08.14-.13.07-.05.16-.1.26-.13.09-.04.19-.06.3-.07.11,0,.23.01.34.04.1.04.21.09.3.15.09.07.17.15.23.23.05.07.09.15.12.22.03.06.04.12.05.17.02.06.03.11.03.15.01.09.01.16.01.23,0,.2-.02.43-.06.74-.01.09-.02.18-.03.28-.04.34-.09.74-.16,1.2-.12.87-.29,1.96-.49,3.21-.18,1.18-.4,2.52-.63,3.93-.23,1.39-.48,2.88-.72,4.36-.25,1.47-.49,2.96-.72,4.36-.23,1.39-.45,2.72-.64,3.9l-1.25,6.44h0c-.09.05-.19.08-.3.1s-.24.02-.35-.01c-.11-.02-.22-.06-.32-.12Z"/>
          <path class="cls-6" d="m211.75,83.74c.08.87.07,2.11,0,3.62-.06,1.21-.15,2.63-.26,4.14-.04.5-.08,1.01-.12,1.54-.08.95-.16,1.94-.24,2.92-.13,1.5-.26,3.04-.38,4.5-.02.2-.03.4-.04.6-.1,1.24-.19,2.44-.26,3.52-.08,1.24-.13,2.37-.15,3.29v.32c.25-.64.53-1.41.82-2.25.37-1.06.76-2.27,1.17-3.55.1-.31.21-.63.31-.96l.93.18-1.48,7.54v.02c-.35.85-.65,1.51-.96,1.99-.14.22-.28.41-.49.58-.11.1-.25.19-.43.25-.13.05-.29.08-.45.07-.22-.01-.43-.08-.6-.19-.14-.1-.25-.22-.34-.33-.11-.16-.17-.3-.22-.45-.11-.32-.16-.66-.2-1.06-.08-.87-.07-2.08,0-3.57.05-1.21.14-2.63.26-4.14.04-.53.08-1.08.13-1.64.07-.92.15-1.86.22-2.81.13-1.5.26-3.05.38-4.51.02-.23.04-.47.06-.7.09-1.2.17-2.37.24-3.43.08-1.25.14-2.39.16-3.32.01-.13.01-.26.01-.38h-.01c-.24.62-.51,1.36-.79,2.18-.37,1.04-.76,2.25-1.17,3.52-.11.34-.22.7-.34,1.06l-1.96-.39c.41-1.3.82-2.56,1.19-3.69.41-1.21.79-2.3,1.14-3.2.36-.91.67-1.64.98-2.18.16-.28.31-.52.53-.74.11-.12.26-.24.46-.33.15-.07.35-.11.55-.1.22.01.43.08.6.19.14.1.25.22.33.34.11.15.18.3.23.45.11.33.16.68.19,1.1Z"/>
          <path class="cls-5" d="m163.15,79.12c-.19,1.17-.4,2.5-.63,3.89-.23,1.41-.49,2.93-.73,4.42-.03.36-.07.73-.1,1.09-.12,1.52-.25,3.05-.35,4.46-.12,1.51-.21,2.93-.26,4.14-.06,1.39-.09,2.55-.02,3.41h-.01l-1.48-.29-.3-.06c.04-.38.11-.89.2-1.51.12-.82.28-1.86.46-3.03.19-1.17.41-2.5.63-3.88.24-1.42.49-2.93.74-4.43l-.99-.19,1.54-7.85.96-4.91.7.14.3.06c-.04.38-.11.9-.2,1.51-.12.83-.28,1.87-.46,3.03Z"/>
          <circle class="cls-5" cx="168.41" cy="154.63" r="4"/>
          <path class="cls-5" d="m236.63,172.9c-2.08,2.68-5.95,3.17-8.63,1.08-2.68-2.08-3.17-5.94-1.08-8.63-.53-1.73-.27-3.61.71-5.14-.68-1.68-.59-3.57.26-5.18-.82-1.61-.89-3.51-.19-5.18-.96-1.54-1.2-3.43-.64-5.15-1.1-1.45-1.49-3.31-1.09-5.08-1.34-1.48-1.88-3.53-1.43-5.48.75-3.31,4.05-5.39,7.36-4.63,3.31.75,5.39,4.05,4.63,7.36,1.47,1.63,1.96,3.92,1.29,6.01,1.32,1.75,1.61,4.07.76,6.09,1.16,1.86,1.25,4.2.23,6.14.99,1.95.88,4.29-.31,6.13.82,2.03.5,4.35-.85,6.08.59,1.92.21,4-1.02,5.58Zm-7.86-32.44c.08.34.17.72.26,1.16.1.44.17.82.24,1.17s.13.67.19.98c.03.17.05.34.08.51.03.16.06.33.09.5.05.32.1.64.15.99s.1.73.16,1.18c.05.45.09.83.13,1.19,0,.1.02.2.03.29.03.25.05.48.07.7.01.18.03.35.04.51.02.17.03.34.04.51.02.32.05.65.07,1,.02.36.03.74.05,1.19,0,.07.01.14.01.21.01.37.02.69.02.99,0,.35,0,.68,0,1v1.02c0,.32-.02.65-.03,1-.01.36-.02.74-.05,1.19-.02.45-.04.84-.07,1.19-.02.36-.05.68-.08,1-.01.17-.03.34-.04.51-.02.17-.03.34-.05.51-.03.32-.07.64-.11,1-.04.35-.09.73-.15,1.18-.04.26-.08.5-.11.72-2.11.83-3.6,2.87-3.6,5.27,0,3.12,2.53,5.65,5.65,5.65s5.65-2.53,5.65-5.65c0-1.64-.69-3.11-1.81-4.13h0c.05-.33.1-.66.15-1.04.06-.45.11-.85.16-1.22.04-.37.08-.71.11-1.04.03-.23.05-.46.07-.69.02-.22.04-.45.06-.68.03-.33.06-.67.08-1.05.03-.37.05-.76.08-1.22.02-.46.03-.86.05-1.23.01-.38.02-.72.02-1.05,0-.24,0-.46,0-.69v-.69c0-.33,0-.67,0-1.05-.01-.37-.02-.77-.03-1.23-.02-.46-.04-.86-.06-1.23,0-.03,0-.07-.01-.1-.01-.33-.03-.64-.06-.94,0-.24-.03-.46-.05-.69-.02-.22-.03-.45-.06-.68v-.05c-.03-.31-.06-.65-.1-1-.04-.37-.08-.76-.14-1.22s-.11-.85-.16-1.22c-.06-.37-.11-.71-.16-1.04-.04-.23-.07-.45-.11-.67-.04-.23-.08-.45-.12-.68-.06-.33-.12-.67-.19-1.03-.07-.37-.15-.76-.25-1.21s-.19-.84-.27-1.2-.17-.7-.25-1.02c-.05-.23-.11-.45-.17-.66-.05-.22-.11-.44-.17-.67-.09-.32-.18-.65-.29-1.01-.1-.36-.21-.74-.35-1.18-.48-1.58-2.16-2.47-3.75-1.98-1.58.48-2.47,2.16-1.98,3.75.13.43.24.8.34,1.14s.18.66.27.96c.04.17.09.34.13.5s.08.33.12.49c.08.31.16.63.24.98Z"/>
          <circle class="cls-5" cx="255.91" cy="166.63" r="4.75"/>
          <circle class="cls-5" cx="274.91" cy="147.63" r="4.75"/>
          <polygon class="cls-5" points="325.78 101.13 326.57 102.3 320.34 134.22 312.49 132.68 318.72 100.77 319.9 99.98 325.78 101.13"/>
          <circle class="cls-5" cx="356.17" cy="125.4" r="5"/>
          <polygon class="cls-5" points="359.91 180.23 359.91 187.13 359.41 187.63 146.91 187.63 146.41 187.13 146.41 182.63 149.41 179.63 151.91 179.63 248.91 179.63 359.31 179.63 359.91 180.23"/>
          <path class="cls-5" d="m230.1,148.43h6.03v.05c.03.23.04.46.06.68.02.23.04.45.05.69.03.3.05.61.06.94l-5.92,1.76c0-.07-.01-.14-.01-.21-.02-.45-.03-.83-.05-1.19-.02-.35-.05-.68-.07-1-.01-.17-.02-.34-.04-.51-.01-.16-.03-.33-.04-.51-.02-.22-.04-.45-.07-.7Z"/>
          <path class="cls-5" d="m188.41,148.93h24.4l-.39,1.07c-.78,2.12-2.4,3.78-4.43,4.63h-13.86c-1.99,0-3.94-.43-5.72-1.23v-4.47Z"/>
          <path class="cls-5" d="m231.9,129.51c-3.31-.76-6.61,1.32-7.36,4.63-.45,1.95.09,4,1.43,5.48-.4,1.77-.01,3.63,1.09,5.08-.56,1.72-.32,3.61.64,5.15-.7,1.67-.63,3.57.19,5.18-.85,1.61-.94,3.5-.26,5.18-.98,1.53-1.24,3.41-.71,5.14-2.09,2.69-1.6,6.55,1.08,8.63,2.68,2.09,6.55,1.6,8.63-1.08,1.23-1.58,1.61-3.66,1.02-5.58,1.35-1.73,1.67-4.05.85-6.08,1.19-1.84,1.3-4.18.31-6.13,1.02-1.94.93-4.28-.23-6.14.85-2.02.56-4.34-.76-6.09.67-2.09.18-4.38-1.29-6.01.76-3.31-1.32-6.61-4.63-7.36Zm17.01,50.12h-97v-5.25c0-.5.03-1,.1-1.5l1.99-15.84,5.83,5.97c4.63,4.74,12.22,4.83,16.97.2,4.74-4.63,4.83-12.22.2-16.97l-5.04-5.16c2.38.62,4.53,1.85,6.24,3.56.46.43.86.89,1.24,1.37l4.11,5.25,2.13,2.73c1.76,2.25,4.59,3.39,7.42,2.99l12.92-1.81c.68-.1,1.34-.28,1.96-.54h0c2.03-.85,3.65-2.51,4.43-4.63l.39-1.07,3.72-10.12c.25-.69.65-1.31,1.17-1.82l7.19-7.16c1-.99,2.24-1.7,3.6-2.06,4.27-1.13,8.65,1.41,9.78,5.69l4.11,15.51,6.13,23.15c.22.82.35,1.66.39,2.51,0,.19,0,.37,0,.56v4.44Z"/>
          <path class="cls-5" d="m157.49,70.29s.11-.05.29-.15c.19-.1.46-.25.73-.4.04-.02.08-.05.12-.07l3.93.77s.06.07.08.11c.2.24.39.48.53.64s.21.25.21.25l-.41,2.1-.16.84-.96,4.91-1.54,7.85-1.53,7.85-1.12,5.75-.18.91-.23,1.2s-.11.05-.29.15c-.19.1-.46.24-.73.4l-.12.06-3.93-.76s-.06-.08-.09-.11c-.19-.25-.39-.48-.52-.64-.14-.17-.21-.25-.21-.25l.41-2.11,1.12-5.75.97-4.96.57-2.89.56-2.89.97-4.96,1.12-5.75.41-2.1Z"/>
          <polygon class="cls-5" points="154.99 83.1 154.43 85.99 153.86 88.88 145.72 87.29 146.28 84.4 146.84 81.51 146.85 81.51 154.99 83.1"/>
          <path class="cls-5" d="m173.3,88.56c.05-.62.1-1.24.16-1.85l2.14.42-1.13,5.78-1.51-.3c.11-1.32.22-2.7.34-4.05Z"/>
          <path class="cls-5" d="m164.66,90.99l1.13-5.78,1.61.32,1.96.38,2.13.42c-.11,1.32-.22,2.7-.34,4.04-.05.62-.1,1.25-.16,1.86l-3.39-.67-1.97-.38-.97-.19Z"/>
          <path class="cls-5" d="m181.32,83.09l-.03.51c-.08,1.25-.19,2.66-.31,4.11-.11,1.46-.24,3-.37,4.5-.13,1.52-.25,3.05-.36,4.46-.02.3-.04.59-.06.88,0,.01,0,.02-.01.03l-.2,1.05-.59.39-3.9-.76-1.01-.2-.68-1.01-.11-.16.78-3.98,1.13-5.78.78-3.98,1.17-.79.87.17,1.97.38.93.18Z"/>
          <path class="cls-5" d="m190.07,94.08c-.08.97-.17,1.95-.24,2.9l-3.64-.71-1.96-.38-1.89-.37c.01-.2.02-.4.04-.6.12-1.46.25-3,.38-4.5.08-.98.16-1.97.23-2.92h.01l3.63.71,1.97.38,1.89.37c-.02.2-.03.4-.05.61-.12,1.47-.25,3.01-.37,4.51Z"/>
          <path class="cls-5" d="m195.65,98.12l-1.97-.38-1.89-.37c.02-.2.03-.4.05-.6.12-1.46.25-3,.37-4.51.08-.98.17-1.96.24-2.91l3.64.71,1.96.38,1.9.37c-.02.18-.03.37-.05.56-.11,1.46-.25,3-.37,4.5-.09,1-.17,2-.25,2.96l-3.63-.71Z"/>
          <path class="cls-5" d="m201.67,94.11c.08-.98.16-1.97.24-2.92l3.64.71,1.96.39,1.89.37h0c-.02.23-.04.47-.06.7-.12,1.46-.25,3.01-.38,4.51-.07.95-.15,1.89-.22,2.81h-.01l-3.63-.71-1.97-.39-1.89-.37c.02-.19.03-.39.05-.59.11-1.46.25-3,.37-4.51Z"/>
          <path class="cls-5" d="m211.13,95.96c.08-.98.16-1.97.24-2.92l3.31.65.38.07-1.53,7.85-.93-.18-1.89-.37c.01-.2.02-.4.04-.6.12-1.46.25-3,.38-4.5Z"/>
          <path class="cls-5" d="m283.18,108.6l1.08.21c.11.02.21-.05.23-.16l.05-.24,8.83,1.73.4.58-.94,4.8-.58.39-8.84-1.72.05-.24c.02-.11-.05-.21-.16-.23l-1.08-.22c-.11-.02-.21.05-.23.16h0l1.04-5.3c-.02.11.05.22.16.24Z"/>
          <polygon class="cls-5" points="283.21 107.38 283.02 108.36 281.98 113.66 281.79 114.64 281.44 114.88 218.04 102.5 219.58 94.64 282.98 107.03 283.21 107.38"/>
          <path class="cls-7" d="m301.67,107.11l-2.88,14.73-1.67-.33s-.09-.06-.08-.12l1.89-9.66.95-4.86c.01-.06.06-.09.12-.08l1.67.32Z"/>
          <polygon class="cls-7" points="307.39 103.9 303.94 121.58 302.89 126.97 298.47 126.1 298.07 125.52 298.79 121.84 301.67 107.11 302.39 103.43 302.98 103.04 307.39 103.9"/>
          <polygon class="cls-7" points="36.01 28.72 58.23 54.9 59.08 55.91 60.7 57.82 63.78 61.45 64.69 62.53 66.79 65 67.17 65.45 67.06 66.86 63.24 70.09 121.47 138.72 121.41 139.42 119.51 141.04 116.69 140.81 9.29 14.23 9.52 11.42 11.43 9.8 12.13 9.86 21.83 21.3 21.84 21.3 21.84 21.29 25.65 18.06 27.06 18.17 27.44 18.62 29.54 21.09 30.45 22.17 33.53 25.8 35.15 27.71 36.01 28.72"/>
          <polygon class="cls-7" points="47.53 34.57 54.32 42.58 54.33 42.58 62.04 51.67 62.95 52.75 64.14 54.14 64.51 54.59 60.7 57.82 59.08 55.91 58.23 54.9 36.01 28.72 35.15 27.71 33.53 25.8 37.34 22.56 37.72 23.01 38.9 24.4 39.82 25.48 47.53 34.57"/>
          <path class="cls-7" d="m55.93,14.9c-2.76-1.71-6.31-1.44-8.79.66l-4.25,3.61c-.66.56-.89,1.48-.56,2.28l1.33,3.25c.36.87.86,1.68,1.47,2.4l5.87,6.92c-1.02-.21-2.1-.14-3.09.23l-.38.32-7.71-9.09-.92-1.08-1.18-1.39-.38-.45.76-.64.77-.65,7.62-6.47c2.81-2.38,6.83-2.69,9.97-.75l21.27,13.13c1.19.73,2.17,1.75,2.88,2.95l-3.56-2.19-21.12-13.04Z"/>
          <path class="cls-7" d="m54.7,42.26c.52-.92.77-1.96.73-3.01l3.72,4.38c.34.4.74.74,1.18,1.02l3.43,2.11,5.78,3.57-3.5,2.97-.76.64-.77.65-.37-.45-1.19-1.39-.91-1.08-7.71-9.09.37-.32Z"/>
          <path class="cls-7" d="m109.76,83.03c-.16-.1-.31-.22-.45-.35l.29-.38c.9.74,2.03,1.21,3.27,1.27h0c.51.91,1.03,1.83,1.72,3.06.23.4.43.77.62,1.11.27.48.5.9.72,1.29.83,1.47,2.69,1.99,4.15,1.16,1.47-.82,2-2.68,1.17-4.15-.04-.07-.07-.13-.11-.2-.35-.63-.74-1.32-1.24-2.2-.69-1.23-1.2-2.15-1.71-3.05.42-.79.66-1.69.66-2.65,0-.39-.04-.77-.11-1.14l.48-.1c.07.31.11.63.13.95,1.6,1.08,2.6,2.86,2.69,4.79,1.6,1.09,2.6,2.87,2.69,4.8.17,3.39-2.45,6.27-5.84,6.44-3.4.16-6.28-2.46-6.44-5.85-1.6-1.09-2.6-2.86-2.69-4.8Z"/>
          <path class="cls-7" d="m104.37,73.44c-1.6-1.08-2.6-2.86-2.69-4.79-.17-3.4,2.45-6.28,5.84-6.44,3.4-.17,6.28,2.45,6.44,5.85,1.61,1.08,2.6,2.86,2.7,4.79,1.33.91,2.25,2.29,2.56,3.85l-.48.1c-.51-2.47-2.62-4.35-5.2-4.49h0c-.51-.91-1.03-1.83-1.71-3.05-.23-.41-.44-.78-.63-1.12-.27-.47-.5-.89-.72-1.28-.83-1.47-2.68-1.99-4.15-1.17-1.47.83-1.99,2.69-1.17,4.15.22.4.46.82.72,1.29.2.34.4.71.63,1.11.69,1.23,1.2,2.14,1.7,3.04-.42.79-.66,1.7-.66,2.66,0,1.76.8,3.32,2.05,4.36l-.29.38c-1.34-1.08-2.16-2.7-2.25-4.44-1.6-1.09-2.6-2.86-2.69-4.8Z"/>
          <path class="cls-7" d="m65.88,42.29c-1.07-1.27-.92-3.16.34-4.23.24-.2.45-.39.64-.56.19-.18.36-.34.53-.51.04-.03.07-.07.11-.1.03-.04.07-.07.1-.11.12-.12.25-.25.37-.38.75,2,2.6,3.45,4.81,3.64-.23.25-.46.5-.69.74l-.36.36c-.12.12-.25.24-.38.37-.39.37-.82.76-1.24,1.12-1.27,1.07-3.16.92-4.23-.34Z"/>
          <path class="cls-7" d="m70.96,45.94c-2.13,1.06-4.58.79-6.4-.48-.82-.58-1.51-1.36-1.99-2.32-1.54-3.09-.28-6.85,2.8-8.39.46-.9,1.13-1.67,1.95-2.26.41-1.27,1.22-2.38,2.31-3.16,2.06-1.48,4.72-1.52,6.77-.33.75.44,1.42,1.03,1.95,1.78,2.01,2.81,1.36,6.71-1.45,8.72-.52,1.6-1.66,2.92-3.16,3.67-.61,1.2-1.58,2.17-2.78,2.77Zm-4.74-7.88c-1.26,1.07-1.41,2.96-.34,4.23,1.07,1.26,2.96,1.41,4.23.34.42-.36.85-.75,1.24-1.12.13-.13.26-.25.38-.37l.36-.36c.23-.24.46-.49.69-.74.16,0,.32.02.48.02,3.12,0,5.65-2.53,5.65-5.65s-2.53-5.65-5.65-5.65-5.65,2.53-5.65,5.65c0,.7.13,1.37.36,1.99-.12.13-.25.26-.37.38-.03.04-.07.07-.1.11-.04.03-.07.07-.11.1-.17.17-.34.33-.53.51-.19.17-.4.36-.64.56Z"/>
          <path class="cls-7" d="m47.14,15.56c2.48-2.1,6.03-2.37,8.79-.66l21.12,13.04-.65,1.06c-2.05-1.19-4.71-1.15-6.77.33-1.09.78-1.9,1.89-2.31,3.16-.82.59-1.49,1.36-1.95,2.26-3.08,1.54-4.34,5.3-2.8,8.39.48.96,1.17,1.74,1.99,2.32l-.8,1.3-3.43-2.11c-.44-.28-.84-.62-1.18-1.02l-3.72-4.38c0-.17-.02-.34-.04-.52l-3.89-4.58c-.16-.05-.33-.1-.5-.13l-5.87-6.92c-.61-.72-1.11-1.53-1.47-2.4l-1.33-3.25c-.33-.8-.1-1.72.56-2.28l4.25-3.61Zm4.85.07c-3.12,0-5.65,2.53-5.65,5.65s2.53,5.65,5.65,5.65,5.65-2.53,5.65-5.65-2.53-5.65-5.65-5.65Z"/>
          <path class="cls-7" d="m113.96,68.06c-.16-3.4-3.04-6.02-6.44-5.85-3.39.16-6.01,3.04-5.84,6.44.09,1.93,1.09,3.71,2.69,4.79.09,1.94,1.09,3.71,2.69,4.8.09,1.74.91,3.36,2.25,4.44.14.13.29.25.45.35.09,1.94,1.09,3.71,2.69,4.8.16,3.39,3.04,6.01,6.44,5.85,3.39-.17,6.01-3.05,5.84-6.44-.09-1.93-1.09-3.71-2.69-4.8-.09-1.93-1.09-3.71-2.69-4.79-.02-.32-.06-.64-.13-.95-.31-1.56-1.23-2.94-2.56-3.85-.1-1.93-1.09-3.71-2.7-4.79Zm-33.35-37.93l19.76,12.2c2.02,1.25,3.69,2.99,4.86,5.06l12.01,21.4h.01l9.48,16.89,10.7,19.06c.05.1.11.2.17.3l.18.3c.23.38.47.74.72,1.1s.51.71.79,1.05c.27.34.56.67.85.99.14.15.28.29.42.44.08.08.16.17.24.25l.25.25,30.91,31.66,5.04,5.16c4.63,4.75,4.54,12.34-.2,16.97-4.75,4.63-12.34,4.54-16.97-.2l-5.83-5.97-32.79-33.58c-.08-.09-.17-.17-.25-.25-.08-.09-.16-.17-.24-.26-.07-.06-.13-.13-.19-.2-.23-.23-.45-.48-.65-.73-.21-.26-.41-.52-.6-.78-.2-.27-.38-.54-.55-.82l-31.64-56.31c-1.66-2.96-4.05-5.45-6.94-7.23l-10.61-6.55-5.78-3.57.8-1.3c1.82,1.27,4.27,1.54,6.4.48,1.2-.6,2.17-1.57,2.78-2.77,1.5-.75,2.64-2.07,3.16-3.67,2.81-2.01,3.46-5.91,1.45-8.72-.53-.75-1.2-1.34-1.95-1.78l.65-1.06,3.56,2.19Zm91.8,124.5c0-2.21-1.79-4-4-4s-4,1.79-4,4,1.79,4,4,4,4-1.79,4-4Z"/>
          <path class="cls-7" d="m188.41,153.4c1.78.8,3.73,1.23,5.72,1.23h13.85c-.62.26-1.28.44-1.96.54l-12.92,1.81c-2.83.4-5.66-.74-7.42-2.99l-2.13-2.73-4.11-5.25c-.38-.48-.78-.94-1.24-1.37h.01s6.12,5.99,6.12,5.99c1.2,1.17,2.58,2.1,4.08,2.77Z"/>
          <path class="cls-7" d="m231.77,163.48c-.72,0-1.42.14-2.05.38.03-.22.07-.46.11-.72.06-.45.11-.83.15-1.18.04-.36.08-.68.11-1,.02-.17.03-.34.05-.51.01-.17.03-.34.04-.51.03-.32.06-.64.08-1,.03-.35.05-.74.07-1.19.03-.45.04-.83.05-1.19.01-.35.02-.68.03-1v-1.02c0-.32,0-.65,0-1,0-.3-.01-.62-.02-.99l5.92-1.76s.01.07.01.1c.02.37.04.77.06,1.23.01.46.02.86.03,1.23,0,.38,0,.72,0,1.05v.69c0,.23,0,.45,0,.69,0,.33-.01.67-.02,1.05-.02.37-.03.77-.05,1.23-.03.46-.05.85-.08,1.22-.02.38-.05.72-.08,1.05-.02.23-.04.46-.06.68-.02.23-.04.46-.07.69-.03.33-.07.67-.11,1.04-.05.37-.1.77-.16,1.22-.05.38-.1.71-.15,1.03h0c-1-.94-2.35-1.51-3.84-1.51Z"/>
          <path class="cls-7" d="m275.71,172.28l3.65-3.65h0s10.92-2.93,10.92-2.93v6.93h-.38v1.6h-17.36c1.18-.39,2.27-1.06,3.16-1.95Z"/>
          <path class="cls-7" d="m257.98,174.36l21.38-5.73-3.65,3.65c-.89.89-1.98,1.56-3.16,1.94-.8.27-1.64.41-2.5.41h-14.13c.69,0,1.38-.09,2.06-.27Z"/>
          <path class="cls-7" d="m250.26,172.28c1.52,1.53,3.56,2.35,5.66,2.35h-7.02c-.04-.85-.17-1.69-.39-2.51l-6.13-23.15,29.8-8.87h0c-1.09.41-2.09,1.04-2.92,1.87l-19,19c-3.13,3.12-3.13,8.19,0,11.31Z"/>
          <path class="cls-7" d="m361.17,125.4c0-2.76-2.23-5-5-5s-5,2.24-5,5,2.24,5,5,5,5-2.24,5-5Zm-81.51,22.23c0-2.63-2.12-4.75-4.75-4.75s-4.75,2.12-4.75,4.75,2.13,4.75,4.75,4.75,4.75-2.13,4.75-4.75Zm-23.75,23.75c2.63,0,4.75-2.13,4.75-4.75s-2.12-4.75-4.75-4.75-4.75,2.12-4.75,4.75,2.13,4.75,4.75,4.75Zm23.45-2.75l-21.38,5.73c-.68.18-1.37.27-2.06.27-2.1,0-4.14-.82-5.66-2.35-3.13-3.12-3.13-8.19,0-11.31l19-19c.83-.83,1.83-1.46,2.92-1.86.65-.24,1.34-.39,2.04-.45l26.64-2.33,10.91-.96,6.04-.53c.35-.03.7-.08,1.05-.14.58-.12,1.2-.3,1.79-.53.05-.02.11-.05.16-.07.32-.13.64-.29.95-.46l30.32-16.68c3.93-2.17,8.86-.9,11.27,2.89.65,1.02,1.06,2.14,1.23,3.26h0c.3,1.96-.1,3.96-1.1,5.65-.67,1.11-1.59,2.08-2.75,2.82l-30.15,19.14-7.37,4.68c-.86.55-1.8.96-2.78,1.22l-30.14,8.08-10.92,2.92h0Z"/>
          <path class="cls-7" d="m363.48,129.76l-2.14,10.92-19.94,13.42-10.36-2.02s-.09-.08-.29-.23c-.05-.04-.11-.08-.17-.13l30.15-19.14c1.16-.74,2.08-1.71,2.75-2.82Z"/>
          <path class="cls-7" d="m318.86,135.7c-.35.06-.7.11-1.05.14l-6.04.53.72-3.69,7.85,1.54,6.23-31.92,37.77,7.38,2.37,3.52-2.13,10.91c-.17-1.12-.58-2.24-1.23-3.26-2.41-3.79-7.34-5.06-11.27-2.89l-30.32,16.68c-.31.17-.63.33-.95.46-.05.02-.11.05-.16.07-.59.23-1.21.41-1.79.53Z"/>
          <polygon class="cls-7" points="318.72 100.77 312.49 132.68 311.77 136.37 300.86 137.33 302.89 126.97 303.94 121.58 307.39 103.9 308.21 99.73 309.38 98.94 318.72 100.77"/>
        </g>
        <g>
          <line class="cls-2" x1="302.39" y1="103.43" x2="302.98" y2="103.04"/>
          <line class="cls-2" x1="302.98" y1="103.04" x2="307.39" y2="103.9"/>
          <path class="cls-2" d="m151.91,174.38c0-.5.03-1,.1-1.5"/>
          <path class="cls-2" d="m230.41,155.05v.51c0,.32-.02.65-.03,1-.01.36-.02.74-.05,1.19"/>
          <path class="cls-2" d="m230.33,157.75c-.02.45-.04.84-.07,1.19-.02.36-.05.68-.08,1-.01.17-.03.34-.04.51"/>
          <path class="cls-2" d="m230.37,152.34c0,.07.01.14.01.21.01.37.02.69.02.99,0,.35,0,.68,0,1v.51"/>
          <line class="cls-2" x1="298.07" y1="125.52" x2="298.47" y2="126.1"/>
          <polyline class="cls-2" points="303.94 121.58 307.39 103.9 308.21 99.73"/>
          <path class="cls-2" d="m171.96,141.08c2.38.62,4.53,1.85,6.24,3.56.46.43.86.89,1.24,1.37"/>
          <line class="cls-2" x1="151.91" y1="174.38" x2="151.91" y2="179.63"/>
          <path class="cls-2" d="m230.21,149.64c.02.17.03.34.04.51.02.32.05.65.07,1,.02.36.03.74.05,1.19"/>
          <path class="cls-2" d="m229.94,146.95c.05.45.09.83.13,1.19,0,.1.02.2.03.29.03.25.05.48.07.7.01.18.03.35.04.51"/>
          <path class="cls-2" d="m227.67,136.39c.13.43.24.8.34,1.14s.18.66.27.96c.04.17.09.34.13.5"/>
          <path class="cls-2" d="m227.67,136.39c-.49-1.59.4-3.27,1.98-3.75,1.59-.49,3.27.4,3.75,1.98"/>
          <path class="cls-2" d="m229.54,144.28c.03.16.06.33.09.5.05.32.1.64.15.99s.1.73.16,1.18"/>
          <path class="cls-2" d="m229.03,141.62c.1.44.17.82.24,1.17s.13.67.19.98c.03.17.05.34.08.51"/>
          <path class="cls-2" d="m234.21,137.48c.06.21.12.43.17.66.08.32.17.66.25,1.02s.17.75.27,1.2"/>
          <path class="cls-2" d="m233.4,134.62c.14.44.25.82.35,1.18.11.36.2.69.29,1.01.06.23.12.45.17.67"/>
          <path class="cls-2" d="m228.41,138.99c.04.16.08.33.12.49.08.31.16.63.24.98.08.34.17.72.26,1.16"/>
          <path class="cls-2" d="m236.33,158.06c-.03.46-.05.85-.08,1.22-.02.38-.05.72-.08,1.05-.02.23-.04.46-.06.68"/>
          <path class="cls-2" d="m236.19,149.16c.02.23.04.45.05.69.03.3.05.61.06.94.01.03.01.07.01.1.02.37.04.77.06,1.23"/>
          <path class="cls-2" d="m47.91,34.25c.99-.37,2.07-.44,3.09-.23.17.03.34.08.5.13"/>
          <path class="cls-2" d="m236.11,161.01c-.02.23-.04.46-.07.69-.03.33-.07.67-.11,1.04-.05.37-.1.77-.16,1.22"/>
          <path class="cls-2" d="m229.83,163.14c-.04.26-.08.5-.11.72"/>
          <line class="cls-2" x1="51.5" y1="34.15" x2="55.39" y2="38.73"/>
          <line class="cls-2" x1="54.7" y1="42.26" x2="54.33" y2="42.58"/>
          <path class="cls-2" d="m235.46,143.28c.04.22.07.44.11.67.05.33.1.67.16,1.04.05.37.1.76.16,1.22"/>
          <path class="cls-2" d="m230.14,160.45c-.02.17-.03.34-.05.51-.03.32-.07.64-.11,1-.04.35-.09.73-.15,1.18"/>
          <line class="cls-2" x1="47.91" y1="34.25" x2="47.53" y2="34.57"/>
          <path class="cls-2" d="m236.41,155.09c0,.23,0,.45,0,.69,0,.33-.01.67-.02,1.05-.02.37-.03.77-.05,1.23"/>
          <path class="cls-2" d="m235.89,146.21c.06.46.1.85.14,1.22.04.35.07.69.1,1v.05c.03.23.04.46.06.68"/>
          <path class="cls-2" d="m55.39,38.73c.02.18.04.35.04.52.04,1.05-.21,2.09-.73,3.01"/>
          <path class="cls-2" d="m234.9,140.36c.1.45.18.84.25,1.21.07.36.13.7.19,1.03.04.23.08.45.12.68"/>
          <path class="cls-2" d="m235.77,163.96c-.05.38-.1.71-.15,1.03"/>
          <path class="cls-2" d="m236.37,152.12c.01.46.02.86.03,1.23,0,.38,0,.72,0,1.05v.69"/>
          <line class="cls-2" x1="145.32" y1="89.31" x2="145.45" y2="88.65"/>
          <line class="cls-2" x1="146.95" y1="78.65" x2="144.68" y2="78.21"/>
          <line class="cls-2" x1="147.11" y1="80.15" x2="147.24" y2="79.49"/>
          <line class="cls-2" x1="146.84" y1="81.51" x2="146.28" y2="84.4"/>
          <line class="cls-2" x1="147.11" y1="80.15" x2="146.85" y2="81.51"/>
          <polyline class="cls-2" points="145.45 88.65 145.72 87.29 146.28 84.4"/>
          <line class="cls-2" x1="145.32" y1="89.31" x2="144.73" y2="89.98"/>
          <path class="cls-2" d="m235.61,165c1.12,1.02,1.81,2.49,1.81,4.13,0,3.12-2.52,5.65-5.65,5.65s-5.65-2.53-5.65-5.65c0-2.4,1.49-4.44,3.6-5.27.63-.24,1.33-.38,2.05-.38,1.49,0,2.84.57,3.84,1.52Z"/>
          <line class="cls-2" x1="144.1" y1="78.88" x2="144.68" y2="78.21"/>
          <line class="cls-2" x1="142.18" y1="88.69" x2="142.47" y2="89.54"/>
          <line class="cls-2" x1="147.24" y1="79.49" x2="146.95" y2="78.65"/>
          <line class="cls-2" x1="144.73" y1="89.98" x2="142.47" y2="89.54"/>
          <path class="cls-2" d="m109.6,82.3c-1.25-1.04-2.05-2.6-2.05-4.36,0-.96.24-1.87.66-2.66.96-1.78,2.83-2.99,4.99-2.99.11,0,.23,0,.34.02,2.58.14,4.69,2.02,5.2,4.49.07.37.11.75.11,1.14,0,.96-.24,1.86-.66,2.65-.95,1.79-2.83,3-4.99,3-.11,0-.22,0-.33-.02-1.24-.06-2.37-.53-3.27-1.27Z"/>
          <path class="cls-2" d="m42.89,19.17c-.66.56-.89,1.48-.56,2.28"/>
          <path class="cls-2" d="m176.8,163.21c4.74-4.63,4.83-12.22.2-16.97"/>
          <path class="cls-2" d="m59.15,43.63c.34.4.74.74,1.18,1.02"/>
          <polyline class="cls-2" points="60.33 44.65 63.76 46.76 69.54 50.33 80.15 56.88"/>
          <path class="cls-2" d="m80.15,56.88c2.89,1.78,5.28,4.27,6.94,7.23"/>
          <polyline class="cls-2" points="100.37 42.33 80.61 30.13 77.05 27.94 55.93 14.9"/>
          <line class="cls-2" x1="55.43" y1="39.25" x2="59.15" y2="43.63"/>
          <path class="cls-2" d="m118.73,120.42c.17.28.35.55.55.82.19.26.39.52.6.78.2.25.42.5.65.73.06.07.12.14.19.2"/>
          <path class="cls-2" d="m120.72,122.95c.08.09.16.17.24.26.08.08.17.16.25.25"/>
          <path class="cls-2" d="m141.05,109.42l-.25-.25c-.08-.08-.16-.17-.24-.25"/>
          <path class="cls-2" d="m137.78,105.34l-.18-.3c-.06-.1-.12-.2-.17-.3"/>
          <path class="cls-2" d="m67.5,36.89s.07-.07.1-.11c.12-.12.25-.25.37-.38"/>
          <path class="cls-2" d="m140.56,108.92c-.14-.15-.28-.29-.42-.44-.29-.32-.58-.65-.85-.99-.28-.34-.54-.69-.79-1.05s-.49-.72-.72-1.1"/>
          <circle class="cls-2" cx="168.41" cy="154.63" r="4"/>
          <path class="cls-2" d="m71.73,41.14l.36-.36c.23-.24.46-.49.69-.74"/>
          <path class="cls-2" d="m70.11,42.63c.42-.36.85-.75,1.24-1.12.13-.13.26-.25.38-.37"/>
          <circle class="cls-2" cx="51.99" cy="21.28" r="5.65"/>
          <path class="cls-2" d="m66.22,38.06c.24-.2.45-.39.64-.56.19-.18.36-.34.53-.51.04-.03.07-.07.11-.1"/>
          <path class="cls-2" d="m66.22,38.06c-1.26,1.07-1.41,2.96-.34,4.23,1.07,1.26,2.96,1.41,4.23.34"/>
          <path class="cls-2" d="m299.88,106.87c.01-.06.06-.09.12-.08"/>
          <line class="cls-2" x1="180.18" y1="97.58" x2="179.98" y2="98.63"/>
          <polygon class="cls-2" points="218.04 102.5 215.84 113.78 214.27 113.48 214.41 112.77 215.66 106.33 219.73 85.5 220.21 83.05 221.78 83.36 219.58 94.64 218.04 102.5"/>
          <line class="cls-2" x1="219.02" y1="85.37" x2="219.73" y2="85.5"/>
          <polyline class="cls-2" points="181.32 83.09 180.39 82.91 178.42 82.53 177.55 82.36"/>
          <line class="cls-2" x1="179.98" y1="98.63" x2="179.39" y2="99.02"/>
          <line class="cls-2" x1="216.79" y1="84.93" x2="217.05" y2="84.98"/>
          <polyline class="cls-2" points="179.39 99.02 175.49 98.26 174.48 98.06"/>
          <path class="cls-2" d="m158.63,69.67s-.08.05-.12.07c-.27.15-.54.3-.73.4-.18.1-.29.15-.29.15"/>
          <line class="cls-2" x1="162.56" y1="70.44" x2="158.63" y2="69.67"/>
          <polyline class="cls-2" points="297.04 121.39 298.93 111.73 299.88 106.87"/>
          <line class="cls-2" x1="211.8" y1="110.45" x2="213" y2="110.68"/>
          <line class="cls-2" x1="297.12" y1="121.51" x2="298.79" y2="121.84"/>
          <line class="cls-2" x1="300" y1="106.79" x2="301.67" y2="107.11"/>
          <path class="cls-2" d="m297.12,121.51s-.09-.06-.08-.12"/>
          <polyline class="cls-2" points="176.38 83.15 175.6 87.13 174.47 92.91 173.69 96.89"/>
          <polyline class="cls-2" points="212.05 109.15 213.53 101.61 215.06 93.76 216.79 84.93"/>
          <line class="cls-2" x1="211.8" y1="110.45" x2="212.05" y2="109.17"/>
          <line class="cls-2" x1="176.38" y1="83.15" x2="177.55" y2="82.36"/>
          <polyline class="cls-2" points="173.69 96.89 173.8 97.05 174.48 98.06"/>
          <path class="cls-2" d="m163.38,71.44s-.07-.09-.21-.25-.33-.4-.53-.64c-.02-.04-.05-.07-.08-.11"/>
          <line class="cls-2" x1="155.96" y1="78.14" x2="157.08" y2="72.39"/>
          <line class="cls-2" x1="157.08" y1="72.39" x2="157.49" y2="70.29"/>
          <path class="cls-2" d="m151.36,101.7s.07.08.21.25c.13.16.33.39.52.64.03.03.06.07.09.11"/>
          <polyline class="cls-2" points="152.89 93.84 153.86 88.88 154.43 85.99"/>
          <line class="cls-2" x1="152.18" y1="102.7" x2="156.11" y2="103.46"/>
          <path class="cls-2" d="m156.11,103.46l.12-.06c.27-.16.54-.3.73-.4.18-.1.29-.15.29-.15"/>
          <line class="cls-2" x1="151.36" y1="101.7" x2="151.77" y2="99.59"/>
          <polyline class="cls-2" points="154.43 85.99 154.99 83.1 155.96 78.14"/>
          <polyline class="cls-2" points="157.66 100.74 157.48 101.65 157.25 102.85"/>
          <line class="cls-2" x1="160.31" y1="87.14" x2="158.78" y2="94.99"/>
          <line class="cls-2" x1="163.38" y1="71.44" x2="162.97" y2="73.54"/>
          <line class="cls-2" x1="158.78" y1="94.99" x2="157.66" y2="100.74"/>
          <polyline class="cls-2" points="167.62 75.83 165.79 85.21 164.66 90.99 163.2 98.46 163.01 99.42"/>
          <line class="cls-2" x1="151.77" y1="99.59" x2="152.89" y2="93.84"/>
          <line class="cls-2" x1="161.85" y1="79.29" x2="160.31" y2="87.14"/>
          <polyline class="cls-2" points="162.97 73.54 162.81 74.38 161.85 79.29"/>
          <polyline class="cls-2" points="162.81 74.38 163.51 74.52 163.81 74.58"/>
          <polyline class="cls-2" points="159.27 100.18 159.57 100.24 161.05 100.53"/>
          <line class="cls-2" x1="167.62" y1="75.83" x2="167.22" y2="75.25"/>
          <line class="cls-2" x1="165.78" y1="74.96" x2="167.22" y2="75.25"/>
          <line class="cls-2" x1="290.29" y1="165.7" x2="290.29" y2="172.63"/>
          <line class="cls-2" x1="289.91" y1="172.63" x2="290.29" y2="172.63"/>
          <path class="cls-2" d="m238.58,148.97c.85-2.02.56-4.34-.76-6.09"/>
          <path class="cls-2" d="m248.51,172.12c.22.82.35,1.66.39,2.51,0,.19,0,.37,0,.56"/>
          <path class="cls-2" d="m227.06,144.7c-.56,1.72-.32,3.61.64,5.15"/>
          <path class="cls-2" d="m225.97,139.62c-.4,1.77-.01,3.63,1.09,5.08"/>
          <line class="cls-2" x1="248.91" y1="175.19" x2="248.91" y2="179.63"/>
          <polyline class="cls-2" points="212.42 150 212.81 148.93 216.53 138.81"/>
          <path class="cls-2" d="m216.53,138.81c.25-.69.65-1.31,1.17-1.82"/>
          <path class="cls-2" d="m224.89,129.83c1-.99,2.24-1.7,3.6-2.06,4.27-1.13,8.65,1.41,9.78,5.69"/>
          <path class="cls-2" d="m237.82,142.88c.67-2.09.18-4.38-1.29-6.01"/>
          <path class="cls-2" d="m236.53,136.87c.76-3.31-1.32-6.61-4.63-7.36-3.31-.76-6.61,1.32-7.36,4.63-.45,1.95.09,4,1.43,5.48"/>
          <path class="cls-2" d="m237.65,167.32c1.35-1.73,1.67-4.05.85-6.08"/>
          <path class="cls-2" d="m227.89,155.03c-.85,1.61-.94,3.5-.26,5.18"/>
          <path class="cls-2" d="m207.99,154.63c2.03-.85,3.65-2.51,4.43-4.63"/>
          <path class="cls-2" d="m206.02,155.17c.68-.1,1.34-.28,1.96-.54"/>
          <line class="cls-2" x1="217.7" y1="136.99" x2="224.89" y2="129.83"/>
          <path class="cls-2" d="m227.7,149.85c-.7,1.67-.63,3.57.19,5.18"/>
          <path class="cls-2" d="m226.92,165.35c-2.09,2.69-1.6,6.55,1.08,8.63,2.68,2.09,6.55,1.6,8.63-1.08,1.23-1.58,1.61-3.66,1.02-5.58"/>
          <path class="cls-2" d="m238.5,161.24c1.19-1.84,1.3-4.18.31-6.13"/>
          <path class="cls-2" d="m227.63,160.21c-.98,1.53-1.24,3.41-.71,5.14"/>
          <path class="cls-2" d="m238.81,155.11c1.02-1.94.93-4.28-.23-6.14"/>
          <polyline class="cls-2" points="238.27 133.46 242.38 148.97 248.51 172.12"/>
          <path class="cls-2" d="m67.97,36.4c-.23-.62-.36-1.29-.36-1.99,0-3.12,2.53-5.65,5.65-5.65s5.65,2.53,5.65,5.65-2.53,5.65-5.65,5.65c-.16,0-.32-.01-.48-.02-2.21-.19-4.06-1.64-4.81-3.64Z"/>
          <path class="cls-2" d="m270.05,174.63c.86,0,1.7-.14,2.5-.41,1.18-.38,2.27-1.05,3.16-1.94"/>
          <polyline class="cls-2" points="272.63 139.96 272.18 140.1 242.38 148.97"/>
          <line class="cls-2" x1="275.71" y1="172.28" x2="279.36" y2="168.63"/>
          <line class="cls-2" x1="183.55" y1="151.26" x2="183.63" y2="151.34"/>
          <polyline class="cls-2" points="62.04 51.67 54.33 42.58 54.32 42.58 47.53 34.57 39.82 25.48"/>
          <line class="cls-2" x1="60.7" y1="57.82" x2="64.51" y2="54.59"/>
          <line class="cls-2" x1="65.28" y1="53.94" x2="64.51" y2="54.59"/>
          <line class="cls-2" x1="66.04" y1="53.3" x2="69.54" y2="50.33"/>
          <line class="cls-2" x1="38.87" y1="21.27" x2="38.1" y2="21.92"/>
          <line class="cls-2" x1="62.04" y1="51.67" x2="62.95" y2="52.75"/>
          <polyline class="cls-2" points="207.99 154.63 207.98 154.63 194.13 154.63"/>
          <line class="cls-2" x1="37.34" y1="22.56" x2="37.72" y2="23.01"/>
          <polyline class="cls-2" points="248.9 174.63 255.92 174.63 270.05 174.63"/>
          <line class="cls-2" x1="65.28" y1="53.94" x2="66.04" y2="53.3"/>
          <line class="cls-2" x1="236.3" y1="150.79" x2="230.38" y2="152.55"/>
          <path class="cls-2" d="m194.13,154.63c-1.99,0-3.94-.43-5.72-1.23-1.5-.67-2.88-1.6-4.08-2.77"/>
          <line class="cls-2" x1="184.33" y1="150.63" x2="178.21" y2="144.63"/>
          <line class="cls-2" x1="38.9" y1="24.4" x2="37.72" y2="23.01"/>
          <line class="cls-2" x1="64.14" y1="54.14" x2="62.95" y2="52.75"/>
          <line class="cls-2" x1="38.9" y1="24.4" x2="39.82" y2="25.48"/>
          <line class="cls-2" x1="37.34" y1="22.56" x2="38.1" y2="21.92"/>
          <line class="cls-2" x1="36.01" y1="28.72" x2="35.15" y2="27.71"/>
          <line class="cls-2" x1="58.23" y1="54.9" x2="36.01" y2="28.72"/>
          <line class="cls-2" x1="59.08" y1="55.91" x2="58.23" y2="54.9"/>
          <line class="cls-2" x1="64.14" y1="54.14" x2="64.51" y2="54.59"/>
          <line class="cls-2" x1="37.34" y1="22.56" x2="33.53" y2="25.8"/>
          <line class="cls-2" x1="46.49" y1="14.8" x2="38.87" y2="21.27"/>
          <path class="cls-2" d="m80.61,30.13c-.71-1.2-1.69-2.22-2.88-2.95"/>
          <line class="cls-2" x1="77.73" y1="27.18" x2="56.46" y2="14.05"/>
          <path class="cls-2" d="m56.46,14.05c-3.14-1.94-7.16-1.63-9.97.75"/>
          <path class="cls-2" d="m283.18,108.6c-.11-.02-.18-.13-.16-.24"/>
          <line class="cls-2" x1="293.77" y1="110.72" x2="292.83" y2="115.52"/>
          <line class="cls-2" x1="292.83" y1="115.52" x2="292.25" y2="115.91"/>
          <polyline class="cls-2" points="283.21 107.38 283.02 108.36 281.98 113.66 281.79 114.64"/>
          <line class="cls-2" x1="284.54" y1="108.41" x2="293.37" y2="110.14"/>
          <line class="cls-2" x1="283.41" y1="114.19" x2="292.25" y2="115.91"/>
          <line class="cls-2" x1="282.22" y1="113.5" x2="283.3" y2="113.72"/>
          <path class="cls-2" d="m281.99,113.66c.02-.11.12-.18.23-.16"/>
          <line class="cls-2" x1="293.77" y1="110.72" x2="293.37" y2="110.14"/>
          <line class="cls-2" x1="281.79" y1="114.64" x2="281.44" y2="114.88"/>
          <polyline class="cls-2" points="201.91 91.19 205.55 91.9 207.51 92.29 209.4 92.66"/>
          <polyline class="cls-2" points="191.79 97.37 193.68 97.74 195.65 98.12 199.28 98.83 199.29 98.83"/>
          <polyline class="cls-2" points="210.71 101.06 212.6 101.43 213.53 101.61"/>
          <line class="cls-2" x1="218.04" y1="102.5" x2="281.44" y2="114.88"/>
          <polyline class="cls-2" points="211.37 93.04 214.68 93.69 215.06 93.76"/>
          <polyline class="cls-2" points="183 87.5 186.63 88.21 188.6 88.59 190.49 88.96"/>
          <line class="cls-2" x1="283.21" y1="107.38" x2="282.98" y2="107.03"/>
          <polyline class="cls-2" points="146.84 81.51 146.85 81.51 154.99 83.1"/>
          <path class="cls-2" d="m283.3,113.72c.11.02.18.12.16.23"/>
          <line class="cls-2" x1="283.18" y1="108.6" x2="284.26" y2="108.81"/>
          <path class="cls-2" d="m284.49,108.65c-.02.11-.12.18-.23.16"/>
          <polyline class="cls-2" points="182.33 95.52 182.34 95.52 184.23 95.89 186.19 96.27 189.83 96.98"/>
          <polyline class="cls-2" points="192.45 89.35 196.09 90.06 198.05 90.44 199.95 90.81"/>
          <line class="cls-2" x1="63.24" y1="70.09" x2="67.06" y2="66.86"/>
          <polyline class="cls-2" points="201.25 99.21 203.14 99.58 205.11 99.97 208.74 100.68"/>
          <polyline class="cls-2" points="165.79 85.21 167.4 85.53 169.36 85.91 171.49 86.33"/>
          <line class="cls-2" x1="25.65" y1="18.06" x2="27.06" y2="18.17"/>
          <line class="cls-2" x1="12.13" y1="9.86" x2="11.43" y2="9.8"/>
          <polyline class="cls-2" points="173.45 86.71 173.46 86.71 175.6 87.13"/>
          <polyline class="cls-2" points="24.8 24.79 21.84 21.3 21.83 21.3 12.13 9.86"/>
          <line class="cls-2" x1="172.96" y1="92.61" x2="174.47" y2="92.91"/>
          <line class="cls-2" x1="219.58" y1="94.64" x2="282.98" y2="107.03"/>
          <line class="cls-2" x1="67.06" y1="66.86" x2="67.17" y2="65.45"/>
          <polyline class="cls-2" points="164.66 90.99 165.63 91.18 167.6 91.56 170.99 92.23 171 92.23"/>
          <line class="cls-2" x1="119.51" y1="141.04" x2="116.69" y2="140.81"/>
          <line class="cls-2" x1="66.79" y1="65" x2="67.17" y2="65.45"/>
          <polyline class="cls-2" points="121.47 138.72 63.24 70.09 60.28 66.6"/>
          <line class="cls-2" x1="29.54" y1="21.09" x2="27.44" y2="18.62"/>
          <line class="cls-2" x1="9.52" y1="11.42" x2="9.29" y2="14.23"/>
          <line class="cls-2" x1="121.47" y1="138.72" x2="121.41" y2="139.42"/>
          <line class="cls-2" x1="145.72" y1="87.29" x2="153.86" y2="88.88"/>
          <line class="cls-2" x1="29.54" y1="21.09" x2="30.45" y2="22.17"/>
          <polyline class="cls-2" points="35.15 27.71 33.53 25.8 30.45 22.17"/>
          <polyline class="cls-2" points="63.78 61.45 60.7 57.82 59.08 55.91"/>
          <line class="cls-2" x1="119.51" y1="141.04" x2="121.41" y2="139.42"/>
          <line class="cls-2" x1="11.43" y1="9.8" x2="9.52" y2="11.42"/>
          <line class="cls-2" x1="27.06" y1="18.17" x2="27.44" y2="18.62"/>
          <line class="cls-2" x1="66.79" y1="65" x2="64.69" y2="62.53"/>
          <line class="cls-2" x1="25.65" y1="18.06" x2="21.84" y2="21.29"/>
          <line class="cls-2" x1="63.78" y1="61.45" x2="64.69" y2="62.53"/>
          <line class="cls-2" x1="152.01" y1="172.88" x2="154" y2="157.04"/>
          <polyline class="cls-2" points="179.44 146.01 183.55 151.26 185.68 153.99"/>
          <path class="cls-2" d="m185.68,153.99c1.76,2.25,4.59,3.39,7.42,2.99"/>
          <line class="cls-2" x1="193.1" y1="156.98" x2="206.02" y2="155.17"/>
          <line class="cls-2" x1="320.34" y1="134.22" x2="312.49" y2="132.68"/>
          <circle class="cls-2" cx="356.17" cy="125.4" r="5"/>
          <circle class="cls-2" cx="274.91" cy="147.63" r="4.75"/>
          <path class="cls-2" d="m257.98,174.36c-.68.18-1.37.27-2.06.27-2.1,0-4.14-.82-5.66-2.35-3.13-3.12-3.13-8.19,0-11.31"/>
          <path class="cls-2" d="m318.86,135.7c.58-.12,1.2-.3,1.79-.53.05-.02.11-.05.16-.07"/>
          <path class="cls-2" d="m317.81,135.84c.35-.03.7-.08,1.05-.14"/>
          <path class="cls-2" d="m323.21,156.4c-.86.55-1.8.96-2.78,1.22"/>
          <path class="cls-2" d="m269.26,141.97c.83-.83,1.83-1.46,2.92-1.86.65-.24,1.34-.39,2.04-.45"/>
          <polyline class="cls-2" points="188.41 148.93 188.41 153.4 188.41 153.41"/>
          <path class="cls-2" d="m364.58,124.12c.3,1.95-.1,3.95-1.1,5.64-.67,1.11-1.59,2.08-2.75,2.82"/>
          <path class="cls-2" d="m352.08,117.96c3.93-2.17,8.86-.9,11.27,2.89.65,1.02,1.06,2.14,1.23,3.26"/>
          <polyline class="cls-2" points="212.82 148.93 212.81 148.93 188.41 148.93"/>
          <line class="cls-2" x1="236.13" y1="148.43" x2="230.1" y2="148.43"/>
          <line class="cls-2" x1="136.99" y1="89.21" x2="141.89" y2="90.17"/>
          <line class="cls-2" x1="121.14" y1="85.84" x2="116.35" y2="87.43"/>
          <path class="cls-2" d="m320.81,135.1c.32-.13.64-.29.95-.46"/>
          <line class="cls-2" x1="289.91" y1="174.23" x2="289.91" y2="172.63"/>
          <path class="cls-2" d="m105.88,71.13c1.42-1.53,3.28-2.57,5.32-2.99"/>
          <line class="cls-2" x1="288.91" y1="174.23" x2="272.55" y2="174.23"/>
          <line class="cls-2" x1="135.8" y1="87.45" x2="136.99" y2="89.21"/>
          <polyline class="cls-2" points="141.89 90.17 142.18 88.69 142.47 87.19"/>
          <polyline class="cls-2" points="143.8 80.39 144.09 78.88 144.38 77.41"/>
          <line class="cls-2" x1="289.91" y1="174.23" x2="288.91" y2="174.23"/>
          <path class="cls-2" d="m117.25,68.79c.89.39,1.7.91,2.44,1.54"/>
          <line class="cls-2" x1="143.8" y1="80.39" x2="142.47" y2="87.19"/>
          <polyline class="cls-2" points="126.72 85.68 126.73 85.68 135.8 87.45"/>
          <path class="cls-2" d="m116.35,87.43c-.37.13-.76.23-1.14.31"/>
          <line class="cls-2" x1="137.72" y1="77.63" x2="139.48" y2="76.45"/>
          <line class="cls-2" x1="125.45" y1="75.24" x2="137.72" y2="77.63"/>
          <line class="cls-2" x1="125.45" y1="75.24" x2="119.69" y2="70.33"/>
          <line class="cls-2" x1="139.48" y1="76.45" x2="144.38" y2="77.41"/>
          <path class="cls-2" d="m163.75,87.81c-.13,1.53-.26,3.07-.37,4.52-.11,1.41-.21,2.75-.27,3.94-.07,1.17-.1,2.21-.1,3.03v.12h0c0,.74.04,1.32.1,1.6.02.11.04.18.04.18"/>
          <line class="cls-2" x1="318.72" y1="100.77" x2="319.9" y2="99.98"/>
          <line class="cls-2" x1="308.21" y1="99.73" x2="309.38" y2="98.94"/>
          <path class="cls-2" d="m172.47,100.8c.25-.64.53-1.4.82-2.25.16-.47.33-.97.51-1.5h0"/>
          <line class="cls-2" x1="326.57" y1="102.3" x2="325.78" y2="101.13"/>
          <line class="cls-2" x1="309.38" y1="98.94" x2="318.72" y2="100.77"/>
          <line class="cls-2" x1="298.47" y1="126.1" x2="302.89" y2="126.97"/>
          <line class="cls-2" x1="325.78" y1="101.13" x2="319.9" y2="99.98"/>
          <line class="cls-2" x1="161.3" y1="87.33" x2="160.31" y2="87.14"/>
          <path class="cls-2" d="m167.4,85.53c.22-.72.45-1.42.66-2.1.43-1.35.85-2.62,1.24-3.74s.75-2.11,1.08-2.89c.34-.8.62-1.4.96-1.85.12-.16.26-.32.46-.46.11-.07.23-.14.39-.18.12-.03.25-.05.39-.04.21.01.42.09.59.19.14.1.25.22.33.34.11.15.18.3.23.45.11.33.16.67.19,1.09.08.88.07,2.12,0,3.62-.06,1.22-.15,2.64-.26,4.15-.07.84-.13,1.71-.2,2.6-.06.61-.11,1.23-.16,1.85-.12,1.35-.23,2.73-.34,4.05-.02.16-.03.31-.04.46-.11,1.45-.22,2.86-.3,4.11s-.13,2.38-.15,3.3c0,.11-.01.22,0,.32-.01.76.01,1.37.05,1.78.03.21.06.36.08.43,0,.02.01.04.01.04"/>
          <path class="cls-2" d="m178.42,82.53c.39-1.15.75-2.19,1.09-3.06.35-.91.67-1.64.97-2.18.16-.29.32-.52.53-.74.12-.12.26-.24.46-.33.16-.07.36-.12.56-.11.21.01.43.09.59.2.15.1.26.22.34.34.11.15.17.3.22.45.12.33.16.67.2,1.09.08.88.06,2.12-.01,3.63-.05,1.21-.14,2.63-.26,4.14-.04.5-.07,1.01-.12,1.54-.07.95-.15,1.94-.23,2.92-.13,1.5-.26,3.04-.38,4.5-.02.2-.03.4-.04.6-.1,1.24-.19,2.44-.26,3.52-.08,1.24-.13,2.37-.15,3.29,0,.1-.01.2,0,.3-.02.77.01,1.39.05,1.8.03.21.06.36.08.43,0,.02.01.04.01.04"/>
          <path class="cls-2" d="m181.92,102.64h.01c.25-.64.52-1.4.82-2.25.36-1.05.76-2.26,1.17-3.54.1-.31.2-.64.31-.96"/>
          <path class="cls-2" d="m196.09,90.06c.41-1.31.82-2.57,1.2-3.69.4-1.21.79-2.31,1.13-3.2.36-.92.67-1.65.98-2.19.16-.28.31-.52.53-.74.12-.12.26-.23.46-.32.15-.07.35-.12.55-.11.22.01.43.09.6.2.15.1.25.22.34.33.1.16.17.31.22.45.11.34.16.68.2,1.1.07.88.06,2.11-.01,3.62-.05,1.22-.15,2.64-.26,4.14-.04.5-.08,1.01-.12,1.54-.08.95-.16,1.94-.24,2.92-.12,1.51-.26,3.05-.37,4.51-.02.2-.03.4-.05.59-.1,1.24-.19,2.43-.25,3.52-.08,1.24-.14,2.37-.16,3.3v.31c0,.76.02,1.38.06,1.79.02.2.05.35.07.42.01.03.01.04.01.04"/>
          <path class="cls-2" d="m191.38,104.49h.01c.24-.65.52-1.4.82-2.25.36-1.05.76-2.26,1.17-3.54l.3-.96"/>
          <path class="cls-2" d="m186.63,88.21c.42-1.31.82-2.56,1.2-3.69.41-1.21.79-2.3,1.14-3.2.35-.92.67-1.65.97-2.18.16-.29.32-.53.53-.75.12-.11.26-.23.46-.32.16-.07.35-.12.56-.11s.43.09.59.2c.15.1.26.22.34.33.11.16.17.31.22.46.11.33.16.67.2,1.09.07.88.06,2.11-.01,3.62-.05,1.22-.14,2.64-.26,4.15-.04.5-.07,1.01-.12,1.54-.07.95-.16,1.93-.24,2.91-.12,1.51-.25,3.05-.37,4.51-.02.2-.03.4-.05.6-.1,1.24-.18,2.43-.25,3.51-.08,1.25-.14,2.38-.15,3.3,0,.1-.01.2,0,.3-.02.77.01,1.39.05,1.8.02.2.05.36.07.43.01.02.02.03.02.03"/>
          <path class="cls-2" d="m163.51,74.52c.06-.21.12-.39.16-.55.06-.2.11-.34.18-.5.02-.05.05-.11.09-.19.03-.05.07-.11.14-.18.04-.04.08-.09.14-.13.07-.05.15-.1.25-.14.09-.04.19-.06.3-.07.11,0,.22.01.33.04s.22.08.31.14.17.14.23.22.1.16.13.23c.03.06.05.12.06.17.01.06.02.11.03.15,0,.09,0,.15,0,.22,0,.2-.02.41-.05.69,0,.1-.02.22-.04.34-.04.32-.09.72-.16,1.17-.12.86-.28,1.95-.48,3.2-.19,1.18-.41,2.52-.64,3.92-.24,1.46-.5,3.02-.75,4.56"/>
          <path class="cls-2" d="m161.3,87.33c-.25,1.5-.5,3.01-.74,4.43-.22,1.38-.44,2.71-.63,3.88-.18,1.17-.34,2.21-.46,3.03-.09.62-.16,1.13-.2,1.51-.01.13-.02.24-.03.34-.02.17-.03.3-.03.33"/>
          <path class="cls-2" d="m159.57,100.24c-.08.28-.14.51-.2.69-.05.16-.09.28-.16.42-.02.04-.04.08-.07.13-.03.04-.06.09-.1.14-.03.04-.08.09-.13.14-.07.05-.16.11-.25.16-.09.04-.19.06-.29.08-.11.01-.23,0-.34-.02s-.22-.07-.31-.13c-.09-.05-.18-.12-.24-.2"/>
          <path class="cls-2" d="m161.79,87.43c.24-1.49.5-3.01.73-4.42.23-1.39.44-2.72.63-3.89.18-1.16.34-2.2.46-3.03.09-.61.16-1.13.2-1.51.02-.12.03-.24.04-.33.01-.18.02-.32.02-.34"/>
          <path class="cls-2" d="m163.2,98.46c.3-.8.64-1.76.99-2.81.39-1.15.8-2.45,1.23-3.79.07-.22.14-.45.21-.68"/>
          <path class="cls-2" d="m114.59,86.63c.23.4.43.77.62,1.11.27.48.5.9.72,1.29"/>
          <path class="cls-2" d="m171.98,78.14c-.25.64-.53,1.4-.82,2.25-.36,1.06-.76,2.27-1.17,3.54-.21.64-.42,1.31-.63,1.98"/>
          <path class="cls-2" d="m186.19,96.27c-.41,1.3-.81,2.56-1.19,3.68-.41,1.21-.79,2.3-1.14,3.2-.35.92-.67,1.65-.97,2.19-.17.29-.32.52-.54.74-.11.12-.26.24-.46.33-.15.07-.35.12-.55.11-.22-.01-.43-.09-.6-.2-.15-.1-.25-.22-.33-.33-.11-.16-.18-.31-.23-.46-.11-.33-.16-.67-.19-1.09-.08-.88-.07-2.12,0-3.63.05-.96.11-2.06.19-3.23.01-.01.01-.02.01-.03.02-.29.04-.58.06-.88.11-1.41.23-2.94.36-4.46.13-1.5.26-3.04.37-4.5.12-1.45.23-2.86.31-4.11l.03-.51c.06-1.05.1-2,.12-2.79v-.31c0-.77-.02-1.38-.06-1.79-.02-.2-.05-.36-.07-.42-.01-.03-.01-.04-.01-.04"/>
          <path class="cls-2" d="m200.84,106.34c.25-.64.53-1.4.82-2.25.37-1.06.77-2.27,1.18-3.54.1-.32.2-.64.3-.97"/>
          <path class="cls-2" d="m113.96,68.06c1.61,1.08,2.6,2.86,2.7,4.79"/>
          <path class="cls-2" d="m205.11,99.97c-.41,1.27-.8,2.49-1.17,3.6-.41,1.22-.79,2.31-1.14,3.22-.36.92-.68,1.66-.98,2.21-.17.3-.32.54-.54.77-.12.12-.26.24-.46.33-.16.08-.36.13-.57.12-.22-.02-.43-.09-.6-.21-.14-.09-.25-.21-.33-.33-.11-.16-.17-.31-.22-.45-.12-.34-.17-.69-.2-1.11-.08-.89-.06-2.13,0-3.64.05-1.22.15-2.64.26-4.15.04-.49.08-.99.11-1.5.08-.96.16-1.96.25-2.96.12-1.5.26-3.04.37-4.5.02-.19.03-.38.05-.56.1-1.25.18-2.46.25-3.55.08-1.24.13-2.37.15-3.29,0-.09.01-.17,0-.26.02-.78,0-1.41-.05-1.82-.03-.21-.06-.36-.08-.42,0-.02-.01-.04-.01-.04"/>
          <path class="cls-2" d="m200.36,83.69s-.01.01-.01.02c-.26.64-.53,1.41-.83,2.26-.36,1.05-.76,2.27-1.17,3.55-.1.3-.2.61-.3.92"/>
          <path class="cls-2" d="m113.54,72.3c-.51-.9-1.03-1.82-1.71-3.04"/>
          <path class="cls-2" d="m112.45,87.83c-1.6-1.09-2.6-2.86-2.69-4.8"/>
          <path class="cls-2" d="m181.44,79.99c-.25.64-.53,1.4-.82,2.25-.08.22-.15.44-.23.67"/>
          <path class="cls-2" d="m119.9,83.64c-.69-1.23-1.2-2.15-1.71-3.05"/>
          <path class="cls-2" d="m106.51,72.24c.69,1.23,1.2,2.14,1.7,3.04.01,0,.01.01.01.01"/>
          <path class="cls-2" d="m190.9,81.84h-.01c-.24.64-.52,1.39-.81,2.24-.37,1.05-.76,2.26-1.17,3.54-.1.32-.21.64-.31.97"/>
          <path class="cls-2" d="m209.81,85.53c-.24.62-.51,1.36-.79,2.18-.37,1.04-.76,2.25-1.17,3.52-.11.34-.22.7-.34,1.06"/>
          <path class="cls-2" d="m121.25,86.04c-.04-.07-.07-.13-.11-.2-.35-.63-.74-1.32-1.24-2.2"/>
          <path class="cls-2" d="m212.05,109.15v.02c-.35.85-.65,1.51-.96,1.99-.14.22-.28.41-.49.58-.11.1-.25.19-.43.25-.13.05-.29.08-.45.07-.22-.01-.43-.08-.6-.19-.14-.1-.25-.22-.34-.33-.11-.16-.17-.3-.22-.45-.11-.32-.16-.66-.2-1.06-.08-.87-.07-2.08,0-3.57.05-1.21.14-2.63.26-4.14.04-.53.08-1.08.13-1.64.07-.92.15-1.86.22-2.81.13-1.5.26-3.05.38-4.51.02-.23.04-.47.06-.7.09-1.2.17-2.37.24-3.43.08-1.25.14-2.39.16-3.32.01-.13.01-.26.01-.38,0-.74-.02-1.35-.06-1.75-.02-.21-.05-.37-.07-.45-.01-.03-.02-.05-.02-.05"/>
          <path class="cls-2" d="m112.87,83.58c.51.9,1.03,1.82,1.72,3.05"/>
          <path class="cls-2" d="m175.49,98.26c-.39,1.15-.76,2.2-1.09,3.06-.36.91-.67,1.64-.98,2.18-.16.28-.31.52-.53.74-.11.12-.26.24-.46.33-.15.07-.35.11-.55.1-.21-.01-.43-.08-.6-.2-.14-.09-.25-.21-.33-.33-.11-.15-.18-.3-.23-.45-.11-.33-.16-.68-.19-1.1-.08-.87-.06-2.11,0-3.62.06-1.21.15-2.63.26-4.14.07-.84.13-1.71.2-2.6.06-.61.11-1.24.16-1.86.12-1.34.23-2.72.34-4.04.02-.16.03-.31.04-.46.11-1.45.22-2.86.3-4.12.08-1.24.13-2.37.15-3.29,0-.11,0-.22,0-.32,0-.76-.01-1.37-.05-1.78-.03-.21-.06-.36-.08-.43,0-.03-.01-.04-.01-.04"/>
          <path class="cls-2" d="m205.55,91.9c.41-1.3.82-2.56,1.19-3.69.41-1.21.79-2.3,1.14-3.2.36-.91.67-1.64.98-2.18.16-.28.31-.52.53-.74.11-.12.26-.24.46-.33.15-.07.35-.11.55-.1.22.01.43.08.6.19.14.1.25.22.33.34.11.15.18.3.23.45.11.33.16.68.19,1.1.08.87.07,2.11,0,3.62-.06,1.21-.15,2.63-.26,4.14-.04.5-.08,1.01-.12,1.54-.08.95-.16,1.94-.24,2.92-.13,1.5-.26,3.04-.38,4.5-.02.2-.03.4-.04.6-.1,1.24-.19,2.44-.26,3.52-.08,1.24-.13,2.37-.15,3.29v.32c-.01.76.01,1.38.06,1.78.02.21.05.36.07.43.01.02.01.04.01.04"/>
          <path class="cls-2" d="m214.68,93.69c.04-.16.07-.32.11-.47.31-1.38.61-2.7.88-3.86s.52-2.2.73-3.03c.2-.84.37-1.49.51-1.93.06-.2.11-.36.17-.51.03-.06.05-.12.1-.2.03-.05.08-.12.15-.2.04-.04.09-.08.14-.13.07-.05.16-.1.26-.13.09-.04.19-.06.3-.07.11,0,.23.01.34.04.1.04.21.09.3.15.09.07.17.15.23.23.05.07.09.15.12.22.03.06.04.12.05.17.02.06.03.11.03.15.01.09.01.16.01.23,0,.2-.02.43-.06.74-.01.09-.02.18-.03.28-.04.34-.09.74-.16,1.2-.12.87-.29,1.96-.49,3.21-.18,1.18-.4,2.52-.63,3.93-.23,1.39-.48,2.88-.72,4.36-.25,1.47-.49,2.96-.72,4.36-.23,1.39-.45,2.72-.64,3.9"/>
          <path class="cls-2" d="m115.93,89.03c.83,1.47,2.69,1.99,4.15,1.16,1.47-.82,2-2.68,1.17-4.15"/>
          <path class="cls-2" d="m119.35,77.65c1.6,1.08,2.6,2.86,2.69,4.79"/>
          <path class="cls-2" d="m195.65,98.12c-.42,1.32-.83,2.59-1.21,3.73-.41,1.21-.79,2.29-1.14,3.19-.35.91-.67,1.63-.97,2.17-.16.28-.31.51-.53.73-.12.12-.26.24-.46.32-.15.07-.34.12-.54.11-.22-.01-.44-.09-.6-.2-.15-.1-.26-.22-.34-.33-.11-.16-.17-.31-.22-.46-.11-.33-.16-.67-.2-1.08-.07-.88-.06-2.11,0-3.62.05-1.21.14-2.63.26-4.14.04-.51.08-1.03.12-1.56.07-.95.16-1.93.24-2.9.12-1.5.25-3.04.37-4.51.02-.21.03-.41.05-.61.1-1.23.18-2.42.25-3.5.08-1.25.14-2.38.15-3.3,0-.11.01-.21,0-.31.01-.76-.01-1.38-.05-1.79-.02-.21-.05-.37-.07-.44-.01-.02-.01-.03-.01-.03"/>
          <path class="cls-2" d="m122.04,82.44c1.6,1.09,2.6,2.87,2.69,4.8.17,3.39-2.45,6.27-5.84,6.44-3.4.16-6.28-2.46-6.44-5.85"/>
          <path class="cls-2" d="m116.66,72.85c1.33.91,2.25,2.29,2.56,3.85.07.31.11.63.13.95"/>
          <path class="cls-2" d="m210.3,108.19c.25-.64.53-1.41.82-2.25.37-1.06.76-2.27,1.17-3.55.1-.31.21-.63.31-.96"/>
          <path class="cls-2" d="m167.6,91.56c-.09.26-.17.52-.25.77-.44,1.39-.87,2.74-1.27,3.94-.41,1.21-.79,2.3-1.14,3.2-.35.91-.67,1.64-.97,2.18-.16.29-.32.52-.53.74-.12.12-.26.24-.46.33-.16.07-.35.12-.56.11s-.43-.09-.59-.2c-.15-.1-.26-.22-.34-.34-.11-.15-.17-.3-.22-.45-.12-.33-.16-.67-.2-1.09,0-.07,0-.14,0-.22-.07-.86-.04-2.02.02-3.41.05-1.21.14-2.63.26-4.14.1-1.41.23-2.94.35-4.46.03-.36.07-.73.1-1.09"/>
          <path class="cls-2" d="m214.4,112.77c-.09.05-.19.08-.3.1s-.24.02-.35-.01c-.11-.02-.22-.06-.32-.12-.1-.05-.18-.13-.25-.2-.07-.08-.12-.16-.15-.24-.04-.06-.06-.13-.07-.18-.02-.06-.03-.11-.03-.15-.01-.08-.02-.14-.02-.19,0-.17.01-.33.03-.53.02-.16.04-.35.06-.57.03-.2.05-.41.08-.65.11-.79.27-1.84.46-3.07.17-1.12.38-2.42.61-3.8.22-1.36.47-2.84.71-4.31.24-1.46.49-2.96.73-4.39.23-1.42.46-2.8.66-4.04.2-1.23.37-2.36.51-3.28.14-.91.24-1.66.3-2.16.02-.25.04-.44.05-.56v-.1h0"/>
          <path class="cls-2" d="m105.16,69.84c.22.4.46.82.72,1.29.2.34.4.71.63,1.11"/>
          <path class="cls-2" d="m110.48,66.86c-.83-1.47-2.68-1.99-4.15-1.17-1.47.83-1.99,2.69-1.17,4.15"/>
          <path class="cls-2" d="m109.76,83.03c-.16-.1-.31-.22-.45-.35-1.34-1.08-2.16-2.7-2.25-4.44"/>
          <path class="cls-2" d="m76.9,39.5c-.52,1.6-1.66,2.92-3.16,3.67"/>
          <path class="cls-2" d="m73.74,43.17c-.61,1.2-1.58,2.17-2.78,2.77-2.13,1.06-4.58.79-6.4-.48-.82-.58-1.51-1.36-1.99-2.32-1.54-3.09-.28-6.85,2.8-8.39"/>
          <path class="cls-2" d="m65.37,34.75c.46-.9,1.13-1.67,1.95-2.26"/>
          <path class="cls-2" d="m107.06,78.24c-1.6-1.09-2.6-2.86-2.69-4.8"/>
          <path class="cls-2" d="m111.83,69.26c-.23-.41-.44-.78-.63-1.12-.27-.47-.5-.89-.72-1.28"/>
          <path class="cls-2" d="m104.37,73.44c-1.6-1.08-2.6-2.86-2.69-4.79-.17-3.4,2.45-6.28,5.84-6.44,3.4-.17,6.28,2.45,6.44,5.85"/>
          <path class="cls-2" d="m105.23,47.39c-1.17-2.07-2.84-3.81-4.86-5.06"/>
          <path class="cls-2" d="m43.66,24.7c.36.87.86,1.68,1.47,2.4"/>
          <path class="cls-2" d="m67.32,32.49c.41-1.27,1.22-2.38,2.31-3.16,2.06-1.48,4.72-1.52,6.77-.33.75.44,1.42,1.03,1.95,1.78,2.01,2.81,1.36,6.71-1.45,8.72"/>
          <line class="cls-2" x1="45.13" y1="27.1" x2="51" y2="34.02"/>
          <path class="cls-2" d="m159.83,163.01c4.63,4.74,12.22,4.83,16.97.2"/>
          <line class="cls-2" x1="42.33" y1="21.45" x2="43.66" y2="24.7"/>
          <line class="cls-2" x1="47.14" y1="15.56" x2="42.89" y2="19.17"/>
          <path class="cls-2" d="m55.93,14.9c-2.76-1.71-6.31-1.44-8.79.66"/>
          <polygon class="cls-2" points="151.91 179.63 149.41 179.63 146.41 182.63 146.41 187.13 146.91 187.63 359.41 187.63 359.91 187.13 359.91 180.23 359.31 179.63 248.91 179.63 151.91 179.63"/>
          <line class="cls-2" x1="366.71" y1="113.2" x2="364.34" y2="109.68"/>
          <polyline class="cls-2" points="298.07 125.52 298.79 121.84 301.67 107.11 302.39 103.43"/>
          <line class="cls-2" x1="326.57" y1="102.3" x2="364.34" y2="109.68"/>
          <circle class="cls-2" cx="255.91" cy="166.63" r="4.75"/>
          <line class="cls-2" x1="331.04" y1="152.08" x2="341.4" y2="154.1"/>
          <path class="cls-2" d="m330.58,151.72c.06.05.12.09.17.13.2.15.29.23.29.23"/>
          <line class="cls-2" x1="361.34" y1="140.68" x2="341.4" y2="154.1"/>
          <polyline class="cls-2" points="364.58 124.12 364.58 124.11 366.71 113.2"/>
          <line class="cls-2" x1="361.34" y1="140.68" x2="363.48" y2="129.76"/>
          <polyline class="cls-2" points="303.94 121.58 302.89 126.97 300.86 137.33"/>
          <line class="cls-2" x1="283.41" y1="114.19" x2="283.46" y2="113.95"/>
          <line class="cls-2" x1="284.49" y1="108.65" x2="284.54" y2="108.41"/>
          <circle class="cls-2" cx="51.99" cy="21.28" r="2.76"/>
          <circle class="cls-2" cx="73.26" cy="34.41" r="2.76"/>
          <circle class="cls-2" cx="113.2" cy="77.94" r="2.76"/>
          <circle class="cls-2" cx="231.77" cy="169.13" r="2.76"/>
          <polyline class="cls-2" points="318.72 100.77 312.49 132.68 311.77 136.37"/>
          <line class="cls-2" x1="326.57" y1="102.3" x2="320.34" y2="134.22"/>
          <line class="cls-2" x1="250.26" y1="160.97" x2="269.26" y2="141.97"/>
          <polyline class="cls-2" points="274.22 139.66 300.86 137.33 311.77 136.37 317.81 135.84"/>
          <line class="cls-2" x1="321.76" y1="134.64" x2="352.08" y2="117.96"/>
          <polyline class="cls-2" points="360.73 132.58 330.58 151.72 323.21 156.4"/>
          <polyline class="cls-2" points="320.43 157.62 290.29 165.7 279.37 168.62 279.36 168.63 257.98 174.36"/>
          <polyline class="cls-2" points="105.23 47.39 117.24 68.79 117.25 68.79 126.73 85.68 137.43 104.74"/>
          <polyline class="cls-2" points="141.05 109.42 171.96 141.08 177 146.24"/>
          <polyline class="cls-2" points="159.83 163.01 154 157.04 121.21 123.46"/>
          <line class="cls-2" x1="118.73" y1="120.42" x2="87.09" y2="64.11"/>
          <line class="cls-2" x1="9.29" y1="14.23" x2="116.69" y2="140.81"/>
        </g>
      </g>
    </g>
  </g>
  <g id="Arrow">
    <g id="LWPOLYLINE">
      <g>
        <polygon class="cls-4" points="176.07 58.74 198.45 54.59 198.97 56.11 196.33 59.15 219.02 63.56 216.39 66.57 217.69 70.36 195.01 65.95 196.32 69.76 195.26 70.98 176.07 58.74"/>
        <polygon class="cls-3" points="217.69 70.36 195.01 65.95 196.32 69.76 195.26 70.98 176.07 58.74 198.45 54.59 198.97 56.11 196.33 59.15 219.02 63.56 216.39 66.57 217.69 70.36"/>
      </g>
    </g>
    <path class="cls-1" d="m192.46,60.43v.1s.19,0,.19,0c.45,0,.79.14,1.01.41.22.27.29.64.21,1.09l-.21,1.2c-.08.45-.28.82-.6,1.09-.32.27-.71.41-1.16.41h-3.9l.33-1.9h3.1l.12-.7h-2l.27-1.5,1.56-.9v-.1s-1.89,0-1.89,0l-.49-.6.23-1.3h5.1l-.32,1.8-1.56.9Z"/>
  </g>
</svg>