<?xml version="1.0" encoding="UTF-8"?>
<svg id="Layer_1" data-name="Layer 1" xmlns="http://www.w3.org/2000/svg" viewBox="0 0 236 260">
  <defs>
    <style>
      .cls-1 {
        fill: #989898;
      }

      .cls-2 {
        fill: none;
        stroke: #000;
        stroke-linecap: round;
        stroke-linejoin: round;
        stroke-width: .71px;
      }

      .cls-3 {
        fill: #333;
      }

      .cls-4 {
        fill: #676767;
      }

      .cls-5 {
        fill: #999;
      }

      .cls-6 {
        fill: #ccc;
      }

      .cls-7 {
        fill: #cccccb;
      }

      .cls-8 {
        fill: #e65025;
      }

      .cls-9 {
        fill: #ee3224;
      }
    </style>
  </defs>
  <g id="LWPOLYLINE">
    <g>
      <g>
        <path class="cls-8" d="m233.28,187.21l1.15,2.58-7.16,18.67-2.57,1.15-7.67-2.94-.46-1.02,2.98-7.78c1.3-1.51,2.01-3.41,2.05-5.36h.01l2.98-7.78,1.03-.46,7.66,2.94Z"/>
        <path class="cls-4" d="m223.86,178.24l1.73,3.88-1,2.61-2.98,7.78h-.01c.05-1.62-.38-3.27-1.31-4.74-2.41-3.79-7.35-5.05-11.28-2.89l-32.16,17.7-12.51,1.09,4.49-11.7,7.46,2.86,11.64-30.36,35.93,13.77Z"/>
        <path class="cls-4" d="m220.29,187.77c.93,1.47,1.36,3.12,1.31,4.74-.04,1.95-.75,3.85-2.05,5.36-.53.62-1.16,1.17-1.88,1.63l-27.28,17.32-11.54,7.33-32,8.57-10.54,2.83-21.39,5.73c-.68.18-1.38.27-2.07.27-2.1,0-4.14-.82-5.66-2.34-3.12-3.13-3.12-8.19,0-11.32l19-19c.83-.83,1.83-1.46,2.92-1.86.65-.24,1.34-.39,2.04-.45l26.49-2.32,6.7-.58h0s12.51-1.1,12.51-1.1l32.16-17.7c3.93-2.16,8.87-.9,11.28,2.89Zm-2.18,4.56c0-2.77-2.24-5-5-5s-5,2.23-5,5,2.24,5,5,5,5-2.24,5-5Zm-81.51,22.22c0-2.62-2.13-4.75-4.75-4.75s-4.75,2.13-4.75,4.75,2.13,4.75,4.75,4.75,4.75-2.13,4.75-4.75Zm-19,19c0-2.62-2.13-4.75-4.75-4.75s-4.75,2.13-4.75,4.75,2.13,4.75,4.75,4.75,4.75-2.13,4.75-4.75Z"/>
        <path class="cls-4" d="m219.55,197.87l-2.98,7.78-1,2.61-21.96,9.79-3.22-1.23,27.28-17.32c.72-.46,1.35-1.01,1.88-1.63Z"/>
        <circle class="cls-1" cx="213.11" cy="192.33" r="5"/>
        <polygon class="cls-1" points="216.85 247.15 216.85 254.05 216.35 254.55 3.85 254.55 3.35 254.05 3.35 249.55 6.35 246.55 8.85 246.55 105.85 246.55 216.25 246.55 216.85 247.15"/>
        <polygon class="cls-1" points="187.93 164.46 187.93 164.47 176.29 194.83 168.83 191.97 180.46 161.61 180.47 161.6 181.71 161.16 187.31 163.31 187.93 164.46"/>
        <polygon class="cls-4" points="168.83 191.97 164.34 203.67 164.34 203.68 157.64 204.26 154.39 203.02 153.82 201.73 159.01 188.19 170.1 159.24 170.28 158.77 171.57 158.2 180.46 161.61 168.83 191.97"/>
        <path class="cls-1" d="m170.1,159.24l-11.09,28.95-1.5-.58.25-.66h.01l2.35-6.13c.02-.05.03-.1.05-.15l7.54-19.67.9-2.33,1.49.57Z"/>
        <path class="cls-9" d="m165.17,160.03l-.26-.1-.48,1.26-.15.07s0-.02,0-.02c.35-.79.63-1.4.83-1.81.1-.19.18-.33.27-.47.03-.06.07-.11.12-.18.05-.05.1-.11.19-.17.04-.04.1-.07.16-.1.08-.04.17-.08.27-.1.1-.01.21-.02.31-.01.11.02.22.05.33.1.1.05.19.12.27.2s.14.17.18.26c.05.08.07.17.09.24.01.07.02.13.02.18.01.06,0,.11,0,.16,0,.08,0,.15-.03.22-.04.2-.09.42-.18.72-.02.08-.05.17-.08.26-.1.32-.22.72-.37,1.17-.26.83-.62,1.88-1.03,3.07-.38,1.13-.83,2.42-1.3,3.76s-.97,2.76-1.46,4.17c-.5,1.41-1,2.83-1.46,4.17-.45,1.27-.87,2.5-1.25,3.59-.02.05-.03.1-.05.15l-2.35,6.13h-.01c-.1.03-.2.04-.31.04s-.23-.02-.34-.07c-.11-.04-.21-.1-.29-.17-.09-.07-.16-.16-.21-.25-.06-.08-.09-.17-.12-.25-.02-.08-.03-.14-.03-.2-.01-.06-.01-.11-.01-.15.01-.08.01-.14.02-.19.03-.17.07-.32.12-.52.04-.16.09-.34.16-.55.05-.18.12-.39.19-.62.24-.76.58-1.77.98-2.95.37-1.07.8-2.32,1.26-3.64.45-1.3.94-2.71,1.44-4.12.49-1.4.99-2.84,1.47-4.2s.94-2.68,1.35-3.87c.41-1.18.77-2.25,1.07-3.14.29-.87.52-1.58.66-2.07Z"/>
        <path class="cls-1" d="m164.91,159.93l.26.1c-.14.49-.37,1.2-.66,2.07-.3.89-.66,1.96-1.07,3.14-.41,1.19-.87,2.51-1.35,3.87s-.98,2.8-1.47,4.2c-.5,1.41-.99,2.82-1.44,4.12-.46,1.32-.89,2.57-1.26,3.64-.4,1.18-.74,2.19-.98,2.95-.07.23-.14.44-.19.62l-1.14-.43.48-1.26,8.34-21.76.48-1.26Z"/>
        <polygon class="cls-1" points="164.43 161.19 156.09 182.95 156.03 182.81 156.03 182.8 155.86 182.43 158.45 175.66 158.46 175.66 161.32 168.19 163.91 161.42 164.28 161.26 164.43 161.19"/>
        <path class="cls-1" d="m161.32,168.19l-2.86,7.47h-.01l-.51-.2-2.17-.83c.16-.65.32-1.31.49-1.98.37-1.46.75-2.97,1.11-4.42.12-.48.24-.95.36-1.42l3.59,1.38Z"/>
        <path class="cls-9" d="m159.58,156.71c.06.48.02,1.01-.06,1.68-.06.51-.16,1.09-.28,1.74-.21,1.09-.49,2.4-.82,3.82-.22.9-.45,1.87-.69,2.86-.12.47-.24.94-.36,1.42-.36,1.45-.74,2.96-1.11,4.42-.17.67-.33,1.33-.49,1.98-.19.76-.37,1.5-.54,2.21-.3,1.29-.57,2.5-.78,3.53-.12.62-.22,1.19-.3,1.68.26-.4.55-.87.86-1.39.37-.62.78-1.34,1.21-2.11.17-.29.33-.59.49-.88.12-.21.24-.43.36-.64.13-.23.25-.46.38-.68.16-.3.33-.59.49-.89l.51.2-2.59,6.77.17.37h0c-.04.07-.07.11-.1.16-.51.78-.93,1.37-1.35,1.79-.18.19-.36.35-.61.48-.13.06-.29.13-.48.15-.15.02-.31.01-.48-.03-.21-.06-.41-.19-.55-.34-.13-.13-.22-.28-.27-.42-.09-.21-.13-.4-.15-.59-.05-.49,0-1.03.07-1.72.07-.51.16-1.09.29-1.75.2-1.1.49-2.41.83-3.83.21-.88.43-1.82.67-2.79.12-.49.25-.98.37-1.48.36-1.46.75-2.97,1.11-4.43.16-.64.32-1.28.48-1.9.19-.79.38-1.55.55-2.28.3-1.29.57-2.49.77-3.51.12-.61.22-1.16.29-1.63-.27.41-.57.89-.89,1.43-.5.84-1.06,1.84-1.66,2.93-.38.71-.79,1.46-1.2,2.24l-1.87-.72c.37-.7.74-1.38,1.09-2.02.65-1.21,1.28-2.32,1.83-3.27.57-.96,1.08-1.77,1.52-2.39.47-.64.79-1.09,1.39-1.39.12-.07.27-.12.45-.14.14-.02.31-.02.47.02.21.06.42.19.56.34.13.13.22.28.28.42.08.2.12.39.14.58Z"/>
        <path class="cls-1" d="m153.72,165.28l2.14.82c-.16.62-.32,1.26-.48,1.9-.36,1.46-.75,2.97-1.11,4.43-.12.5-.25.99-.37,1.48l-3.95-1.51-1.87-.72-2.14-.82c.16-.64.32-1.3.49-1.96.36-1.46.75-2.98,1.11-4.43.12-.48.24-.96.35-1.43h0l3.95,1.52,1.87.72Z"/>
        <path class="cls-9" d="m148.08,171.68l1.87.72c-.39.72-.76,1.42-1.13,2.08-.65,1.2-1.27,2.31-1.83,3.26s-1.07,1.76-1.51,2.36c-.47.65-.78,1.1-1.4,1.39-.12.05-.27.11-.44.12-.14.02-.3.01-.45-.03-.22-.06-.42-.18-.56-.33-.13-.14-.21-.29-.27-.42-.09-.21-.13-.4-.15-.59-.05-.48-.01-1.02.07-1.7.06-.51.16-1.09.28-1.75.21-1.09.49-2.4.83-3.82.21-.89.44-1.84.68-2.82.12-.48.24-.97.36-1.46.36-1.45.75-2.97,1.11-4.43.17-.65.33-1.3.49-1.93.19-.77.37-1.53.54-2.25.31-1.29.57-2.49.78-3.52.12-.61.22-1.17.29-1.65-.26.4-.56.88-.87,1.41-.5.84-1.06,1.84-1.66,2.92-.39.72-.8,1.48-1.22,2.27l-1.87-.71h0c.37-.71.74-1.4,1.1-2.05.65-1.2,1.27-2.32,1.83-3.26.57-.96,1.08-1.77,1.52-2.38.47-.65.78-1.1,1.39-1.39.12-.07.27-.12.45-.14.14-.02.3-.01.46.03.22.05.42.18.56.33.13.13.22.28.28.42.08.2.12.39.14.59.06.47.02,1-.06,1.68-.07.5-.16,1.09-.28,1.74-.21,1.1-.49,2.4-.83,3.83-.21.89-.44,1.85-.69,2.84-.11.47-.23.95-.35,1.43-.36,1.45-.75,2.97-1.11,4.43-.17.66-.33,1.32-.49,1.96-.19.76-.37,1.51-.54,2.22-.3,1.29-.57,2.5-.78,3.53-.12.62-.22,1.18-.3,1.67.26-.4.56-.87.87-1.39.49-.84,1.06-1.84,1.65-2.92.4-.72.81-1.49,1.24-2.29Z"/>
        <path class="cls-4" d="m146.85,232.72v8.43h-17.36c1.18-.39,2.27-1.05,3.16-1.94l3.66-3.66,10.54-2.83Z"/>
        <path class="cls-1" d="m143.89,161.51l2.14.82c-.16.63-.32,1.28-.49,1.93-.36,1.46-.75,2.98-1.11,4.43-.12.49-.24.98-.36,1.46l-3.95-1.52-1.87-.72-2.14-.82c.16-.64.32-1.29.48-1.94.37-1.46.75-2.98,1.12-4.43.12-.49.24-.97.36-1.44l3.95,1.51h0s1.87.72,1.87.72Z"/>
        <path class="cls-9" d="m134.49,174.51c.27-.4.56-.87.87-1.4.5-.84,1.06-1.84,1.66-2.92.39-.72.81-1.49,1.23-2.28l1.87.72c-.38.71-.75,1.4-1.11,2.05-.65,1.2-1.27,2.32-1.83,3.26-.57.96-1.08,1.77-1.52,2.38-.47.64-.78,1.09-1.39,1.39-.12.06-.27.11-.44.13-.15.02-.31.02-.47-.03-.21-.05-.42-.18-.56-.33-.13-.13-.21-.28-.27-.42-.09-.2-.12-.39-.15-.59-.05-.47-.02-1.01.07-1.68.06-.51.16-1.09.28-1.75.2-1.09.49-2.4.82-3.82.21-.9.44-1.86.69-2.84.12-.47.24-.95.36-1.43.36-1.46.74-2.97,1.11-4.43.16-.66.33-1.32.48-1.96h0c.19-.77.37-1.51.53-2.22.31-1.3.58-2.5.78-3.53.13-.62.23-1.18.3-1.67-.26.4-.55.87-.86,1.4-.5.84-1.06,1.83-1.66,2.91-.39.72-.81,1.49-1.23,2.29l-1.87-.72c.38-.71.75-1.41,1.11-2.07.66-1.2,1.28-2.31,1.84-3.25.56-.96,1.07-1.77,1.51-2.37.47-.65.78-1.1,1.39-1.39.13-.06.28-.11.45-.13.14-.02.3-.01.45.03.22.06.42.18.56.33.13.14.22.29.28.42.08.21.12.4.14.59.06.48.02,1.02-.06,1.69-.07.51-.16,1.1-.29,1.75-.2,1.09-.49,2.4-.82,3.82-.21.9-.44,1.85-.68,2.84-.12.47-.24.95-.36,1.44-.37,1.45-.75,2.97-1.12,4.43-.16.65-.32,1.3-.48,1.94-.19.77-.37,1.52-.54,2.24-.31,1.29-.58,2.5-.78,3.52-.12.62-.22,1.18-.3,1.66Z"/>
        <path class="cls-4" d="m136.31,235.55l-3.66,3.66c-.89.89-1.98,1.55-3.16,1.94-.8.26-1.64.4-2.5.4h-14.14c.69,0,1.39-.09,2.07-.27l21.39-5.73Z"/>
        <path class="cls-1" d="m134.06,157.74l2.13.82c-.15.64-.32,1.3-.48,1.96-.37,1.46-.75,2.97-1.11,4.43-.12.48-.24.96-.36,1.43l-3.95-1.51h0s-1.87-.72-1.87-.72l-2.14-.82c.15-.63.31-1.27.48-1.92.36-1.46.75-2.98,1.11-4.43.12-.5.24-.99.37-1.47l3.95,1.51,1.87.72Z"/>
        <circle class="cls-1" cx="131.85" cy="214.55" r="4.75"/>
        <path class="cls-9" d="m130.29,164.86h0c-.38.71-.74,1.38-1.09,2.03-.66,1.2-1.28,2.32-1.84,3.27-.57.96-1.08,1.77-1.52,2.38-.47.65-.79,1.1-1.39,1.4-.12.06-.27.11-.45.14-.14,0-.3,0-.46-.03-.22-.06-.42-.19-.57-.34-.13-.13-.21-.28-.27-.42-.09-.2-.12-.39-.15-.58-.05-.48-.02-1.01.07-1.68.06-.51.15-1.09.28-1.74.2-1.1.49-2.4.82-3.83.21-.9.44-1.86.69-2.85.11-.47.23-.94.35-1.42.37-1.45.75-2.97,1.12-4.43.17-.66.33-1.32.49-1.97.18-.76.36-1.5.53-2.21.31-1.3.58-2.5.78-3.53.13-.62.23-1.19.3-1.68-.26.4-.55.87-.86,1.39-.3.51-.62,1.07-.96,1.67l-1.87-.72c.37-.66.72-1.29,1.05-1.85.57-.95,1.07-1.75,1.51-2.35.23-.31.45-.58.66-.8.19-.2.38-.36.63-.5.13-.07.29-.14.49-.17.15-.02.32-.01.49.03.21.06.42.19.56.34.13.13.21.28.27.42.09.21.12.4.14.59.06.48.02,1.02-.07,1.7-.06.52-.16,1.1-.28,1.76-.21,1.09-.49,2.4-.83,3.82-.21.89-.44,1.83-.67,2.81-.13.48-.25.97-.37,1.47-.36,1.45-.75,2.97-1.11,4.43-.17.65-.33,1.29-.48,1.92-.2.78-.38,1.54-.55,2.26-.3,1.29-.57,2.49-.77,3.51-.13.61-.22,1.16-.3,1.64.27-.4.57-.88.89-1.42.49-.84,1.06-1.84,1.65-2.92.39-.71.8-1.47,1.22-2.25l1.87.71Z"/>
        <path class="cls-4" d="m129.11,207.02h0c-1.09.41-2.09,1.04-2.92,1.87l-19,19c-3.12,3.13-3.12,8.19,0,11.32,1.52,1.52,3.56,2.34,5.66,2.34h-7.02c-.03-.85-.17-1.69-.38-2.51l-6.13-23.14,29.79-8.88Z"/>
        <polygon class="cls-1" points="126.8 150.67 127.09 151.32 125.84 154.59 122.97 162.06 121.72 165.33 121.07 165.61 118.53 164.64 116.66 163.92 116.41 163.82 115.83 162.53 117.28 158.74 119.39 153.25 120.84 149.46 122.13 148.88 124.29 149.71 126.16 150.43 126.8 150.67"/>
        <path class="cls-1" d="m125.84,154.59l.53.2c-.16.65-.32,1.31-.49,1.97-.37,1.46-.75,2.98-1.12,4.43-.12.48-.24.95-.35,1.42l-1.44-.55,2.87-7.47Z"/>
        <path class="cls-9" d="m114.83,157.81c.04-.12.07-.25.1-.38.36-1.45.75-2.97,1.11-4.43.08-.32.16-.63.24-.94.28-1.13.55-2.22.79-3.24.31-1.3.58-2.51.78-3.53.13-.63.23-1.19.3-1.68-.26.39-.55.86-.86,1.38-.49.84-1.06,1.83-1.65,2.91-.55,1.01-1.14,2.11-1.74,3.24h0s-1.87-.71-1.87-.71c.33-.62.65-1.22.96-1.81.68-1.25,1.33-2.44,1.92-3.48.6-1.05,1.15-1.97,1.63-2.69.49-.75.9-1.3,1.33-1.69.16-.15.33-.28.57-.38.12-.06.27-.1.43-.11.14-.01.29,0,.43.04.22.06.42.19.55.34.13.13.22.28.27.42.09.21.12.4.14.6.06.49.02,1.05-.07,1.75-.07.51-.17,1.1-.29,1.76-.21,1.1-.5,2.41-.84,3.84-.27,1.17-.58,2.44-.91,3.75-.04.17-.09.35-.13.53-.37,1.45-.75,2.97-1.12,4.43-.07.26-.13.53-.2.79-.29,1.17-.57,2.32-.82,3.37-.3,1.29-.57,2.49-.77,3.5-.11.59-.21,1.12-.28,1.59.28-.42.59-.92.92-1.48.28-.48.59-1.01.91-1.58l1.87.72c-.35.62-.68,1.21-1,1.74-.56.96-1.07,1.77-1.52,2.39-.46.64-.78,1.09-1.38,1.39-.13.07-.28.12-.45.15-.15.02-.31.01-.47-.03-.22-.06-.42-.18-.57-.33-.13-.14-.21-.29-.27-.42-.09-.21-.12-.4-.15-.59-.05-.47-.02-1,.07-1.67.06-.51.15-1.09.28-1.75.2-1.09.49-2.4.82-3.82.28-1.22.61-2.54.94-3.89Z"/>
        <path class="cls-1" d="m119.39,153.25l-2.11,5.49-.57-.22h-.01c.07-.26.13-.53.2-.79.37-1.46.75-2.98,1.12-4.43.04-.18.09-.36.13-.53l1.24.48Z"/>
        <circle class="cls-1" cx="112.85" cy="233.55" r="4.75"/>
        <path class="cls-1" d="m116.28,152.06c-.08.31-.16.62-.24.94-.36,1.46-.75,2.98-1.11,4.43-.03.13-.06.26-.1.38l-3.7-1.43-3.18-1.22,2.1-5.49,1.98.76,1.87.72,2.38.91Z"/>
        <path class="cls-5" d="m113.18,140.1l.29.65-3.42,8.92-2.1,5.49h-.01l-2.83,7.4c.12-.7.29-1.52.49-2.42.04-.21.09-.42.14-.64l7.44-19.4Z"/>
        <path class="cls-5" d="m113.18,140.1l-7.44,19.4c.22-1,.48-2.09.76-3.22.34-1.41.72-2.91,1.1-4.4.51-1.47,1.04-2.97,1.53-4.36.47-1.35.91-2.63,1.3-3.76.41-1.19.76-2.24,1.03-3.07.14-.43.26-.81.35-1.12l1.37.53Z"/>
        <path class="cls-9" d="m105.74,159.5c-.05.22-.1.43-.14.64-.2.9-.37,1.72-.49,2.42l2.83-7.4h.01l3.18,1.22c-.54,1.03-1.08,2.03-1.58,2.96-.66,1.2-1.28,2.32-1.84,3.27-.57.96-1.08,1.77-1.52,2.38-.47.65-.79,1.1-1.39,1.4-.12.07-.27.12-.45.15-.14.02-.31.01-.47-.03-.22-.05-.42-.18-.57-.33-.13-.14-.21-.28-.27-.42-.09-.21-.12-.39-.15-.59-.04-.35-.03-.72.01-1.17.02-.16.04-.32.06-.5.06-.51.15-1.09.28-1.74.2-1.09.49-2.4.82-3.82.31-1.33.67-2.79,1.04-4.27.21-.83.42-1.67.63-2.51.5-1.42,1.01-2.87,1.48-4.22.47-1.33.91-2.6,1.29-3.72s.72-2.12.98-2.91c.19-.59.35-1.09.46-1.45l-.28-.11c.09-.2.17-.37.25-.52.09-.18.16-.32.25-.46.04-.05.07-.1.13-.17.04-.04.09-.1.17-.16.04-.03.09-.07.15-.1.08-.04.18-.07.28-.09.09-.02.2-.03.3-.02.11.01.23.04.33.09s.2.12.28.2c.07.07.14.16.19.25.04.09.07.17.09.25.01.07.02.13.02.18.01.06,0,.11,0,.15,0,.09,0,.15-.03.22-.03.19-.08.4-.16.67-.03.1-.06.21-.1.33-.09.31-.21.69-.35,1.12-.27.83-.62,1.88-1.03,3.07-.39,1.13-.83,2.41-1.3,3.76-.49,1.39-1.02,2.89-1.53,4.36-.38,1.49-.76,2.99-1.1,4.4-.28,1.13-.54,2.22-.76,3.22Z"/>
        <polygon class="cls-5" points="109.42 134.56 110.06 135.69 108.99 138.49 108.98 138.49 99.68 162.77 98.6 165.57 97.37 165.98 93.64 164.55 93 163.42 97.67 151.23 99.78 145.73 104.45 133.54 105.68 133.13 109.42 134.56"/>
        <path class="cls-5" d="m109.66,138.75l.28.11c-.11.36-.27.86-.46,1.45-.26.79-.6,1.79-.98,2.91s-.82,2.39-1.29,3.72c-.47,1.35-.98,2.8-1.48,4.22-.21.84-.42,1.68-.63,2.51-.37,1.48-.73,2.94-1.04,4.27-.33,1.42-.62,2.73-.82,3.82-.13.65-.22,1.23-.28,1.74-.02.18-.04.34-.06.5l-3.22-1.23,9.3-24.28h.01l.67.26Z"/>
        <path class="cls-1" d="m105.85,242.11v4.44H8.85v-5.25c0-.5.03-1,.09-1.5l2.52-20c.37-2.97,1.69-5.74,3.76-7.91l-1.58,7.04c-1.45,6.46,2.62,12.88,9.09,14.33,6.46,1.45,12.88-2.62,14.33-9.09l1.81-8.06,1.61,2.07.02.02,2.12,2.71c1.76,2.25,4.58,3.4,7.41,3l12.93-1.82c.69-.09,1.35-.28,1.97-.54,2.03-.85,3.65-2.51,4.43-4.62l.39-1.08,3.72-10.12c.25-.68.65-1.31,1.17-1.82l7.19-7.16c1-.99,2.24-1.7,3.59-2.06,4.27-1.13,8.65,1.42,9.79,5.69l4.11,15.52,6.13,23.14c.21.82.35,1.66.38,2.51.02.19.02.37.02.56Zm-10.11-20.08c1.03-1.94.94-4.28-.22-6.14.85-2.02.56-4.34-.76-6.09.67-2.09.18-4.38-1.29-6.01.75-3.31-1.32-6.6-4.63-7.36-3.31-.75-6.61,1.32-7.36,4.63-.45,1.95.08,4,1.43,5.49-.41,1.77-.01,3.62,1.09,5.07-.56,1.73-.33,3.61.64,5.15-.71,1.67-.64,3.57.19,5.18-.85,1.61-.94,3.51-.26,5.19-.99,1.52-1.25,3.4-.72,5.14-.81,1.04-1.29,2.35-1.29,3.77,0,3.4,2.75,6.15,6.15,6.15s6.15-2.75,6.15-6.15c0-.63-.09-1.23-.27-1.8,1.35-1.74,1.67-4.05.84-6.09,1.19-1.84,1.31-4.18.31-6.13Z"/>
        <polygon class="cls-1" points="99.78 145.73 97.67 151.23 89.93 148.26 92.03 142.76 99.78 145.73"/>
        <path class="cls-3" d="m95.52,215.89c1.16,1.86,1.25,4.2.22,6.14,1,1.95.88,4.29-.31,6.13.83,2.04.51,4.35-.84,6.09-.77-2.52-3.11-4.35-5.88-4.35-1.98,0-3.74.93-4.86,2.38-.53-1.74-.27-3.62.72-5.14-.68-1.68-.59-3.58.26-5.19-.83-1.61-.9-3.51-.19-5.18-.97-1.54-1.2-3.42-.64-5.15-1.1-1.45-1.5-3.3-1.09-5.07-1.35-1.49-1.88-3.54-1.43-5.49.75-3.31,4.05-5.38,7.36-4.63,3.31.76,5.38,4.05,4.63,7.36,1.47,1.63,1.96,3.92,1.29,6.01,1.32,1.75,1.61,4.07.76,6.09Z"/>
        <path class="cls-6" d="m94.59,234.25c.18.57.27,1.17.27,1.8,0,3.4-2.75,6.15-6.15,6.15s-6.15-2.75-6.15-6.15c0-1.42.48-2.73,1.29-3.77,1.12-1.45,2.88-2.38,4.86-2.38,2.77,0,5.11,1.83,5.88,4.35Zm-3.38,1.8c0-1.38-1.12-2.5-2.5-2.5s-2.5,1.12-2.5,2.5,1.12,2.5,2.5,2.5,2.5-1.12,2.5-2.5Z"/>
        <polygon class="cls-6" points="92.63 139.96 92.77 140.84 92.03 142.76 89.93 148.26 89.92 148.26 89.19 150.18 88.49 150.74 86.34 149.92 86.2 149.03 89.77 139.7 89.78 139.7 90.47 139.13 92.63 139.96"/>
        <circle class="cls-6" cx="88.71" cy="236.05" r="2.5"/>
        <polygon class="cls-6" points="90.31 138.29 89.77 139.7 86.2 149.03 85.66 150.43 80.99 148.64 80.13 146.71 68.46 142.23 63.56 142.96 70.07 130.52 72.04 132.89 83.71 137.37 85.65 136.51 90.31 138.29"/>
        <path class="cls-4" d="m82.7,76.03c.03,1.39-.28,2.77-.9,4.02l-.1-3.85-.6-25.14c-.07-3.25-2.24-6.08-5.35-7.01l-5.34-1.59c-.83-.25-1.72.06-2.22.78l-1.99,2.88c-.54.78-.95,1.64-1.22,2.54l-2.59,8.7c-.38-.98-1.03-1.83-1.88-2.47l-.48-.14,4.51-15.09,11.5,3.43c3.53,1.06,5.97,4.26,6.06,7.94l.6,25Z"/>
        <path class="cls-4" d="m82.35,103.01c.06,2.54-.53,5.06-1.71,7.32l-10.57,20.19-6.51,12.44-13.79,26.34c-.48.93-.85,1.92-1.08,2.94l-9.66,43.12-.16.75-1.81,8.06c-1.45,6.47-7.87,10.54-14.33,9.09-6.47-1.45-10.54-7.87-9.09-14.33l1.58-7.04,10.75-47.98c.23-1.02.59-2.01,1.07-2.94l29.82-56.96c1.57-3,2.35-6.36,2.27-9.75l-.3-12.47-.16-6.57,1.53-.04c0,2.15,1.1,4.23,3.09,5.4,1.15.68,2.5.97,3.83.83,1.45.85,3.18,1.08,4.8.64.71.28,1.47.43,2.28.43,3.46,0,6.25-2.8,6.25-6.25l1.25-.03.1,3.85.55,22.96Zm-14.14,25.68c2.75-1.99,3.37-5.83,1.39-8.58-1.99-2.76-5.84-3.38-8.59-1.39-1.57,1.13-2.51,2.93-2.55,4.87-1.57,1.13-2.51,2.94-2.55,4.87h0c-1.51,1.09-2.51,2.86-2.54,4.87h-.01c-1.57,1.14-2.52,2.94-2.55,4.88-2.76,1.99-3.38,5.83-1.39,8.58,1.99,2.76,5.83,3.38,8.58,1.39,1.57-1.13,2.52-2.93,2.56-4.87,1.57-1.13,2.51-2.94,2.55-4.88,1.52-1.1,2.51-2.87,2.55-4.87,1.57-1.13,2.51-2.93,2.55-4.87Zm-38.86,92.86c0-2.21-1.79-4-4-4s-4,1.79-4,4,1.79,4,4,4,4-1.79,4-4Z"/>
        <path class="cls-4" d="m81.1,51.06l.6,25.14-1.25.03c0-3.45-2.79-6.25-6.25-6.25-.57,0-1.11.07-1.63.22-.94-.37-1.95-.51-2.95-.4-2.98-1.75-6.81-.75-8.56,2.23-.58.99-.86,2.08-.86,3.15l-1.53.04-.1-4.25c-.01-.52.06-1.04.21-1.55l1.64-5.5c.14-.1.28-.21.41-.32l1.72-5.75c-.05-.17-.1-.33-.16-.49l2.59-8.7c.27-.9.68-1.76,1.22-2.54l1.99-2.88c.5-.72,1.39-1.03,2.22-.78l5.34,1.59c3.11.93,5.28,3.76,5.35,7.01Zm-1.24.18c0-3.45-2.8-6.25-6.25-6.25s-6.25,2.8-6.25,6.25,2.79,6.25,6.25,6.25,6.25-2.8,6.25-6.25Z"/>
        <path class="cls-7" d="m74.2,69.98c3.46,0,6.25,2.8,6.25,6.25s-2.79,6.25-6.25,6.25c-.81,0-1.57-.15-2.28-.43-2.32-.91-3.97-3.17-3.97-5.82,0-2.89,1.96-5.32,4.62-6.03.52-.15,1.06-.22,1.63-.22Zm2.5,6.25c0-1.38-1.12-2.5-2.5-2.5s-2.5,1.12-2.5,2.5,1.12,2.5,2.5,2.5,2.5-1.12,2.5-2.5Z"/>
        <path class="cls-7" d="m73.61,44.99c3.45,0,6.25,2.8,6.25,6.25s-2.8,6.25-6.25,6.25-6.25-2.8-6.25-6.25,2.79-6.25,6.25-6.25Zm2.5,6.25c0-1.38-1.12-2.5-2.5-2.5s-2.5,1.12-2.5,2.5,1.11,2.5,2.5,2.5,2.5-1.12,2.5-2.5Z"/>
        <circle class="cls-7" cx="74.2" cy="76.23" r="2.5"/>
        <circle class="cls-7" cx="73.61" cy="51.24" r="2.5"/>
        <path class="cls-3" d="m69.62,69.8c1-.11,2.01.03,2.95.4-2.66.71-4.62,3.14-4.62,6.03,0,2.65,1.65,4.91,3.97,5.82-1.62.44-3.35.21-4.8-.64-1.33.14-2.68-.15-3.83-.83-1.99-1.17-3.09-3.25-3.09-5.4,0-1.07.28-2.16.86-3.15,1.75-2.98,5.58-3.98,8.56-2.23Z"/>
        <path class="cls-3" d="m69.6,120.11c1.98,2.75,1.36,6.59-1.39,8.58-.04,1.94-.98,3.74-2.55,4.87v-.11c0-3.4-2.76-6.15-6.15-6.15-1.34,0-2.59.43-3.6,1.17h0c.04-1.94.98-3.75,2.55-4.88.04-1.94.98-3.74,2.55-4.87,2.75-1.99,6.6-1.37,8.59,1.39Z"/>
        <path class="cls-1" d="m69.75,215.85l-.39,1.08c-.78,2.11-2.4,3.77-4.43,4.62h-13.86c-1.99,0-3.94-.42-5.72-1.22v-4.48h24.4Z"/>
        <path class="cls-6" d="m65.66,133.45v.11c-.04,2-1.03,3.77-2.55,4.87-1.01.74-2.25,1.17-3.6,1.17-3.4,0-6.15-2.76-6.15-6.15,0-.04,0-.08.01-.12.03-2.01,1.03-3.78,2.54-4.86,1.01-.74,2.26-1.17,3.6-1.17,3.39,0,6.15,2.75,6.15,6.15Zm-3.65,0c0-1.38-1.12-2.5-2.5-2.5s-2.5,1.12-2.5,2.5,1.12,2.5,2.5,2.5,2.5-1.12,2.5-2.5Z"/>
        <path class="cls-4" d="m40.5,218.2l-.02-.02-1.61-2.07.16-.75,2.24,2.19c1.19,1.17,2.58,2.11,4.08,2.78,1.78.8,3.73,1.22,5.72,1.22h13.86c-.62.26-1.28.45-1.97.54l-12.93,1.82c-2.83.4-5.65-.75-7.41-3l-2.12-2.71Z"/>
        <polygon class="cls-4" points="64.54 39.66 60.03 54.75 57.03 64.81 52.52 79.9 47.73 78.47 59.75 38.23 64.54 39.66"/>
        <polygon class="cls-4" points="57.15 25.97 61.94 27.4 62.61 28.65 59.75 38.23 47.73 78.47 44.87 88.05 43.62 88.72 38.83 87.29 13.08 173.53 12.46 173.87 10.06 173.15 8.72 170.66 52.36 24.54 57.15 25.97"/>
        <path class="cls-3" d="m63.11,138.43c-.04,1.94-.98,3.75-2.55,4.88-.04,1.94-.99,3.74-2.56,4.87-2.75,1.99-6.59,1.37-8.58-1.39-1.99-2.75-1.37-6.59,1.39-8.58.03-1.94.98-3.74,2.55-4.88h.01s-.01.08-.01.12c0,3.39,2.75,6.15,6.15,6.15,1.35,0,2.59-.43,3.6-1.17Z"/>
        <path class="cls-6" d="m62.55,57.85l-1.72,5.75c-.13.11-.27.22-.41.32-.85.61-1.86.97-2.92,1.03l-.47-.14,3-10.06.48.14c.85.64,1.5,1.49,1.88,2.47.06.16.11.32.16.49Z"/>
        <polygon class="cls-4" points="61.1 10.98 61.44 11.6 57.15 25.97 52.36 24.54 56.22 11.6 58.71 10.26 61.1 10.98"/>
        <circle class="cls-6" cx="59.51" cy="133.45" r="2.5"/>
        <path class="cls-4" d="m60.42,63.92l-1.64,5.5c-.15.51-.22,1.03-.21,1.55l.1,4.25.16,6.57-6.31-1.89,4.51-15.09.47.14c1.06-.06,2.07-.42,2.92-1.03Z"/>
        <circle class="cls-1" cx="25.35" cy="221.55" r="4"/>
      </g>
      <g>
        <circle class="cls-2" cx="213.11" cy="192.33" r="5"/>
        <path class="cls-2" d="m80.64,110.33c1.18-2.26,1.77-4.78,1.71-7.32"/>
        <line class="cls-2" x1="215.57" y1="208.26" x2="193.61" y2="218.05"/>
        <line class="cls-2" x1="43.62" y1="88.72" x2="44.87" y2="88.05"/>
        <line class="cls-2" x1="190.39" y1="216.82" x2="193.61" y2="218.05"/>
        <polygon class="cls-2" points="8.85 246.55 6.35 246.55 3.35 249.55 3.35 254.05 3.85 254.55 216.35 254.55 216.85 254.05 216.85 247.15 216.25 246.55 105.85 246.55 8.85 246.55"/>
        <polyline class="cls-2" points="55.84 30.36 57.15 25.97 61.44 11.6"/>
        <line class="cls-2" x1="61.94" y1="27.4" x2="57.15" y2="25.97"/>
        <path class="cls-2" d="m156.03,182.81c-.04.06-.07.1-.1.15-.51.78-.93,1.37-1.35,1.79-.18.19-.36.35-.61.48-.13.06-.29.13-.48.15-.15.02-.31.01-.48-.03-.21-.06-.41-.19-.55-.34-.13-.13-.22-.28-.27-.42-.09-.21-.13-.4-.15-.59-.05-.49,0-1.03.07-1.72.07-.51.16-1.09.29-1.75.2-1.1.49-2.41.83-3.83.21-.88.43-1.82.67-2.79.12-.49.25-.98.37-1.48.36-1.46.75-2.97,1.11-4.43.16-.64.32-1.28.48-1.9.19-.79.38-1.55.55-2.28.3-1.29.57-2.49.77-3.51.12-.61.22-1.16.29-1.63"/>
        <polyline class="cls-2" points="147.9 163.04 151.85 164.56 153.72 165.28 155.86 166.1"/>
        <line class="cls-2" x1="154.39" y1="203.02" x2="157.64" y2="204.26"/>
        <line class="cls-2" x1="164.91" y1="159.93" x2="165.17" y2="160.03"/>
        <line class="cls-2" x1="61.1" y1="10.98" x2="58.71" y2="10.26"/>
        <polyline class="cls-2" points="58.57 70.97 58.67 75.22 58.83 81.79 59.13 94.26"/>
        <line class="cls-2" x1="82.7" y1="76.03" x2="82.1" y2="51.03"/>
        <line class="cls-2" x1="75.75" y1="44.05" x2="70.41" y2="42.46"/>
        <path class="cls-2" d="m157.47,158.68c-.27.41-.57.89-.89,1.43-.5.84-1.06,1.84-1.66,2.93-.38.71-.79,1.46-1.2,2.24"/>
        <path class="cls-2" d="m60.83,63.6c-.13.11-.27.22-.41.32-.85.61-1.86.97-2.92,1.03"/>
        <path class="cls-2" d="m164.34,203.67l12.51-1.09,32.16-17.7c3.93-2.16,8.87-.9,11.28,2.89.93,1.47,1.36,3.12,1.31,4.74-.04,1.95-.75,3.85-2.05,5.36-.53.62-1.16,1.17-1.88,1.63l-27.28,17.32-11.54,7.33-32,8.57-10.54,2.83-21.39,5.73c-.68.18-1.38.27-2.07.27-2.1,0-4.14-.82-5.66-2.34-3.12-3.13-3.12-8.19,0-11.32l19-19c.83-.83,1.83-1.46,2.92-1.86.65-.24,1.34-.39,2.04-.45l26.49-2.32,6.7-.58"/>
        <line class="cls-2" x1="60.42" y1="63.92" x2="58.78" y2="69.42"/>
        <polyline class="cls-2" points="76.04 43.09 64.54 39.66 59.75 38.23"/>
        <line class="cls-2" x1="61.44" y1="11.6" x2="61.1" y2="10.98"/>
        <polyline class="cls-2" points="160.17 180.67 167.71 161 168.61 158.67"/>
        <line class="cls-2" x1="157.77" y1="186.95" x2="160.12" y2="180.82"/>
        <line class="cls-2" x1="157.51" y1="187.61" x2="157.76" y2="186.95"/>
        <line class="cls-2" x1="57.5" y1="64.95" x2="57.03" y2="64.81"/>
        <line class="cls-2" x1="62.55" y1="57.85" x2="60.83" y2="63.6"/>
        <line class="cls-2" x1="61.94" y1="27.4" x2="62.61" y2="28.65"/>
        <path class="cls-2" d="m70.41,42.46c-.83-.25-1.72.06-2.22.78"/>
        <path class="cls-2" d="m151.85,164.56c.37-.7.74-1.38,1.09-2.02.65-1.21,1.28-2.32,1.83-3.27.57-.96,1.08-1.77,1.52-2.39.47-.64.79-1.09,1.39-1.39.12-.07.27-.12.45-.14.14-.02.31-.02.47.02.21.06.42.19.56.34.13.13.22.28.28.42.08.2.12.39.14.58.06.48.02,1.01-.06,1.68-.06.51-.16,1.09-.28,1.74-.21,1.09-.49,2.4-.82,3.82-.22.9-.45,1.87-.69,2.86-.12.47-.24.94-.36,1.42-.36,1.45-.74,2.96-1.11,4.42-.17.67-.33,1.33-.49,1.98-.19.76-.37,1.5-.54,2.21-.3,1.29-.57,2.5-.78,3.53-.12.62-.22,1.19-.3,1.68"/>
        <polyline class="cls-2" points="180.46 161.61 168.83 191.97 164.34 203.67 164.34 203.68"/>
        <path class="cls-2" d="m58.78,69.42c-.15.51-.22,1.03-.21,1.55"/>
        <polyline class="cls-2" points="47.73 78.47 52.52 79.9 58.83 81.79"/>
        <line class="cls-2" x1="58.71" y1="10.26" x2="56.22" y2="11.6"/>
        <line class="cls-2" x1="64.98" y1="48.66" x2="62.39" y2="57.36"/>
        <line class="cls-2" x1="187.31" y1="163.31" x2="187.93" y2="164.46"/>
        <line class="cls-2" x1="60.51" y1="54.89" x2="60.03" y2="54.75"/>
        <polyline class="cls-2" points="105.72 159.56 105.74 159.5 113.18 140.1"/>
        <circle class="cls-2" cx="73.61" cy="51.24" r="2.5"/>
        <path class="cls-2" d="m157.77,186.95h-.01c-.1.03-.2.04-.31.04s-.23-.02-.34-.07c-.11-.04-.21-.1-.29-.17-.09-.07-.16-.16-.21-.25-.06-.08-.09-.17-.12-.25-.02-.08-.03-.14-.03-.2-.01-.06-.01-.11-.01-.15.01-.08.01-.14.02-.19.03-.17.07-.32.12-.52.04-.16.09-.34.16-.55.05-.18.12-.39.19-.62.24-.76.58-1.77.98-2.95.37-1.07.8-2.32,1.26-3.64.45-1.3.94-2.71,1.44-4.12.49-1.4.99-2.84,1.47-4.2s.94-2.68,1.35-3.87c.41-1.18.77-2.25,1.07-3.14.29-.87.52-1.58.66-2.07h0c.07-.24.12-.43.15-.54,0-.05.02-.09.02-.11"/>
        <path class="cls-2" d="m130.29,164.87c-.38.7-.74,1.37-1.09,2.02-.66,1.2-1.28,2.32-1.84,3.27-.57.96-1.08,1.77-1.52,2.38-.47.65-.79,1.1-1.39,1.4-.12.06-.27.11-.45.14-.14,0-.3,0-.46-.03-.22-.06-.42-.19-.57-.34-.13-.13-.21-.28-.27-.42-.09-.2-.12-.39-.15-.58-.05-.48-.02-1.01.07-1.68.06-.51.15-1.09.28-1.74.2-1.1.49-2.4.82-3.83.21-.9.44-1.86.69-2.85.11-.47.23-.94.35-1.42.37-1.45.75-2.97,1.12-4.43.17-.66.33-1.32.49-1.97.18-.76.36-1.5.53-2.21.31-1.3.58-2.5.78-3.53.13-.62.23-1.19.3-1.68"/>
        <path class="cls-2" d="m132.19,157.02c.38-.71.75-1.41,1.11-2.07.66-1.2,1.28-2.31,1.84-3.25.56-.96,1.07-1.77,1.51-2.37.47-.65.78-1.1,1.39-1.39.13-.06.28-.11.45-.13.14-.02.3-.01.45.03.22.06.42.18.56.33.13.14.22.29.28.42.08.21.12.4.14.59.06.48.02,1.02-.06,1.69-.07.51-.16,1.1-.29,1.75-.2,1.09-.49,2.4-.82,3.82-.21.9-.44,1.85-.68,2.84-.12.47-.24.95-.36,1.44-.37,1.45-.75,2.97-1.12,4.43-.16.65-.32,1.3-.48,1.94-.19.77-.37,1.52-.54,2.24-.31,1.29-.58,2.5-.78,3.52-.12.62-.22,1.18-.3,1.66v.03"/>
        <path class="cls-2" d="m124.29,149.71c.37-.66.72-1.29,1.05-1.85.57-.95,1.07-1.75,1.51-2.35.23-.31.45-.58.66-.8.19-.2.38-.36.63-.5.13-.07.29-.14.49-.17.15-.02.32-.01.49.03.21.06.42.19.56.34.13.13.21.28.27.42.09.21.12.4.14.59.06.48.02,1.02-.07,1.7-.06.52-.16,1.1-.28,1.76-.21,1.09-.49,2.4-.83,3.82-.21.89-.44,1.83-.67,2.81-.13.48-.25.97-.37,1.47-.36,1.45-.75,2.97-1.11,4.43-.17.65-.33,1.29-.48,1.92-.2.78-.38,1.54-.55,2.26-.3,1.29-.57,2.49-.77,3.51-.13.61-.22,1.16-.3,1.64"/>
        <line class="cls-2" x1="107.94" y1="155.16" x2="105.11" y2="162.56"/>
        <polyline class="cls-2" points="113.47 140.75 110.05 149.67 107.95 155.16"/>
        <path class="cls-2" d="m112.03,150.43c.33-.62.65-1.22.96-1.81.68-1.25,1.33-2.44,1.92-3.48.6-1.05,1.15-1.97,1.63-2.69.49-.75.9-1.3,1.33-1.69.16-.15.33-.28.57-.38.12-.06.27-.1.43-.11.14-.01.29,0,.43.04.22.06.42.19.55.34.13.13.22.28.27.42.09.21.12.4.14.6.06.49.02,1.05-.07,1.75-.07.51-.17,1.1-.29,1.76-.21,1.1-.5,2.41-.84,3.84-.27,1.17-.58,2.44-.91,3.75-.04.17-.09.35-.13.53-.37,1.45-.75,2.97-1.12,4.43-.07.26-.13.53-.2.79-.29,1.17-.57,2.32-.82,3.37-.3,1.29-.57,2.49-.77,3.5-.11.59-.21,1.12-.28,1.59"/>
        <path class="cls-2" d="m80.45,76.23c0-3.45-2.79-6.25-6.25-6.25-.57,0-1.11.07-1.63.22-2.66.71-4.62,3.14-4.62,6.03,0,2.65,1.65,4.91,3.97,5.82.71.28,1.47.43,2.28.43,3.46,0,6.25-2.8,6.25-6.25Z"/>
        <polygon class="cls-2" points="126.16 150.43 126.8 150.67 127.09 151.32 125.84 154.59 122.97 162.06 121.72 165.33 121.07 165.61 118.53 164.64 116.66 163.92 116.41 163.82 115.83 162.53 117.28 158.74 119.39 153.25 120.84 149.46 122.13 148.88 124.29 149.71 126.16 150.43"/>
        <path class="cls-2" d="m137.81,151.14c-.26.4-.55.87-.86,1.4-.5.84-1.06,1.83-1.66,2.91-.39.72-.81,1.49-1.23,2.29"/>
        <polyline class="cls-2" points="108.99 138.49 110.06 135.69 109.42 134.56 105.68 133.13 104.45 133.54 99.78 145.73 97.67 151.23 93 163.42 93.64 164.55 97.37 165.98 98.6 165.57 99.68 162.77 108.98 138.49"/>
        <path class="cls-2" d="m111.13,156.38c-.54,1.03-1.08,2.03-1.58,2.96-.66,1.2-1.28,2.32-1.84,3.27-.57.96-1.08,1.77-1.52,2.38-.47.65-.79,1.1-1.39,1.4-.12.07-.27.12-.45.15-.14.02-.31.01-.47-.03-.22-.05-.42-.18-.57-.33-.13-.14-.21-.28-.27-.42-.09-.21-.12-.39-.15-.59-.04-.35-.03-.72.01-1.17.02-.16.04-.32.06-.5.06-.51.15-1.09.28-1.74.2-1.09.49-2.4.82-3.82.31-1.33.67-2.79,1.04-4.27.21-.83.42-1.67.63-2.51"/>
        <path class="cls-2" d="m142.02,160.79c.37-.7.74-1.39,1.1-2.04.65-1.2,1.27-2.32,1.83-3.26.57-.96,1.08-1.77,1.52-2.38.47-.65.78-1.1,1.39-1.39.12-.07.27-.12.45-.14.14-.02.3-.01.46.03.22.05.42.18.56.33.13.13.22.28.28.42.08.2.12.39.14.59.06.47.02,1-.06,1.68-.07.5-.16,1.09-.28,1.74-.21,1.1-.49,2.4-.83,3.83-.21.89-.44,1.85-.69,2.84-.11.47-.23.95-.35,1.43-.36,1.45-.75,2.97-1.11,4.43-.17.66-.33,1.32-.49,1.96-.19.76-.37,1.51-.54,2.22-.3,1.29-.57,2.5-.78,3.53-.12.62-.22,1.18-.3,1.67"/>
        <polyline class="cls-2" points="155.61 184.21 156.09 182.95 164.43 161.19 164.91 159.93"/>
        <path class="cls-2" d="m164.28,161.26s0-.02,0-.02c.35-.79.63-1.4.83-1.81.1-.19.18-.33.27-.47.03-.06.07-.11.12-.18.05-.05.1-.11.19-.17.04-.04.1-.07.16-.1.08-.04.17-.08.27-.1.1-.01.21-.02.31-.01.11.02.22.05.33.1.1.05.19.12.27.2s.14.17.18.26c.05.08.07.17.09.24.01.07.02.13.02.18.01.06,0,.11,0,.16,0,.08,0,.15-.03.22-.04.2-.09.42-.18.72-.02.08-.05.17-.08.26-.1.32-.22.72-.37,1.17-.26.83-.62,1.88-1.03,3.07-.38,1.13-.83,2.42-1.3,3.76s-.97,2.76-1.46,4.17c-.5,1.41-1,2.83-1.46,4.17-.45,1.27-.87,2.5-1.25,3.59-.02.05-.03.1-.05.15"/>
        <circle class="cls-2" cx="74.2" cy="76.23" r="2.5"/>
        <path class="cls-2" d="m67.12,81.41c-1.33.14-2.68-.15-3.83-.83-1.99-1.17-3.09-3.25-3.09-5.4,0-1.07.28-2.16.86-3.15,1.75-2.98,5.58-3.98,8.56-2.23"/>
        <polyline class="cls-2" points="158.46 175.66 161.32 168.19 163.91 161.42"/>
        <line class="cls-2" x1="155.86" y1="182.43" x2="158.45" y2="175.66"/>
        <path class="cls-2" d="m66.2,46.12c-.54.78-.95,1.64-1.22,2.54"/>
        <line class="cls-2" x1="170.28" y1="158.77" x2="171.57" y2="158.2"/>
        <path class="cls-2" d="m107.6,151.88c-.38,1.49-.76,2.99-1.1,4.4-.28,1.13-.54,2.22-.76,3.22-.05.22-.1.43-.14.64-.2.9-.37,1.72-.49,2.42"/>
        <line class="cls-2" x1="187.93" y1="164.47" x2="176.29" y2="194.83"/>
        <path class="cls-2" d="m136.2,158.56c.19-.77.37-1.51.53-2.22.31-1.3.58-2.5.78-3.53.13-.62.23-1.18.3-1.67"/>
        <path class="cls-2" d="m140.12,168.63c-.38.71-.75,1.4-1.11,2.05-.65,1.2-1.27,2.32-1.83,3.26-.57.96-1.08,1.77-1.52,2.38-.47.64-.78,1.09-1.39,1.39-.12.06-.27.11-.44.13-.15.02-.31.02-.47-.03-.21-.05-.42-.18-.56-.33-.13-.13-.21-.28-.27-.42-.09-.2-.12-.39-.15-.59-.05-.47-.02-1.01.07-1.68.06-.51.16-1.09.28-1.75.2-1.09.49-2.4.82-3.82.21-.9.44-1.86.69-2.84.12-.47.24-.95.36-1.43.36-1.46.74-2.97,1.11-4.43.16-.66.33-1.32.48-1.96"/>
        <line class="cls-2" x1="118.15" y1="152.77" x2="119.39" y2="153.25"/>
        <line class="cls-2" x1="168.61" y1="158.67" x2="170.1" y2="159.24"/>
        <polyline class="cls-2" points="82.35 103.01 81.8 80.05 81.7 76.2 81.1 51.06"/>
        <line class="cls-2" x1="187.31" y1="163.31" x2="181.71" y2="161.16"/>
        <polyline class="cls-2" points="163.91 161.42 164.28 161.26 164.43 161.19"/>
        <line class="cls-2" x1="180.46" y1="161.61" x2="171.57" y2="158.2"/>
        <polyline class="cls-2" points="176.29 194.83 168.83 191.97 168.82 191.97"/>
        <line class="cls-2" x1="167.04" y1="160.74" x2="167.71" y2="161"/>
        <line class="cls-2" x1="157.73" y1="166.81" x2="161.32" y2="168.19"/>
        <polyline class="cls-2" points="62.61 28.65 59.75 38.23 47.73 78.47 44.87 88.05"/>
        <path class="cls-2" d="m82.1,51.03c-.09-3.68-2.53-6.88-6.06-7.94"/>
        <path class="cls-2" d="m154.15,182.05c.26-.4.55-.87.86-1.39.37-.62.78-1.34,1.21-2.11.17-.29.33-.59.49-.88.12-.21.24-.43.36-.64.13-.23.25-.46.38-.68.16-.3.33-.59.49-.89"/>
        <polyline class="cls-2" points="153.82 201.73 159.01 188.19 170.1 159.24 170.28 158.77"/>
        <polyline class="cls-2" points="180.46 161.61 180.47 161.6 181.71 161.16"/>
        <polyline class="cls-2" points="155.77 174.63 157.94 175.46 158.45 175.66 158.46 175.66"/>
        <path class="cls-2" d="m81.8,80.05c.62-1.25.93-2.63.9-4.02"/>
        <path class="cls-2" d="m71.92,82.05c-1.62.44-3.35.21-4.8-.64"/>
        <polyline class="cls-2" points="155.86 182.43 156.03 182.8 156.03 182.81 156.09 182.95"/>
        <line class="cls-2" x1="157.51" y1="187.61" x2="159.01" y2="188.19"/>
        <line class="cls-2" x1="155.61" y1="184.21" x2="156.75" y2="184.64"/>
        <path class="cls-2" d="m69.62,69.8c1-.11,2.01.03,2.95.4"/>
        <line class="cls-2" x1="68.19" y1="43.24" x2="66.2" y2="46.12"/>
        <path class="cls-2" d="m60.51,54.89c.85.64,1.5,1.49,1.88,2.47.06.16.11.32.16.49"/>
        <line class="cls-2" x1="227.27" y1="208.46" x2="234.43" y2="189.79"/>
        <path class="cls-2" d="m56.86,104.01c1.57-3,2.35-6.36,2.27-9.75"/>
        <line class="cls-2" x1="234.43" y1="189.79" x2="233.28" y2="187.21"/>
        <line class="cls-2" x1="74.64" y1="203.91" x2="81.83" y2="196.75"/>
        <path class="cls-2" d="m62.96,222.09c.69-.09,1.35-.28,1.97-.54,2.03-.85,3.65-2.51,4.43-4.62"/>
        <polyline class="cls-2" points="25.97 163.91 15.22 211.89 13.64 218.93"/>
        <line class="cls-2" x1="89.19" y1="150.18" x2="88.49" y2="150.74"/>
        <path class="cls-2" d="m81.83,196.75c1-.99,2.24-1.7,3.59-2.06,4.27-1.13,8.65,1.42,9.79,5.69"/>
        <path class="cls-2" d="m68.21,128.69c-.04,1.94-.98,3.74-2.55,4.87"/>
        <polyline class="cls-2" points="95.21 200.38 99.32 215.9 105.45 239.04"/>
        <path class="cls-2" d="m83.85,232.28c-.81,1.04-1.29,2.35-1.29,3.77,0,3.4,2.75,6.15,6.15,6.15s6.15-2.75,6.15-6.15c0-.63-.09-1.23-.27-1.8-.77-2.52-3.11-4.35-5.88-4.35-1.98,0-3.74.93-4.86,2.38Z"/>
        <circle class="cls-2" cx="131.85" cy="214.55" r="4.75"/>
        <path class="cls-2" d="m94.59,234.25c1.35-1.74,1.67-4.05.84-6.09"/>
        <line class="cls-2" x1="89.78" y1="139.7" x2="90.47" y2="139.13"/>
        <line class="cls-2" x1="68.46" y1="142.23" x2="80.13" y2="146.71"/>
        <line class="cls-2" x1="116.71" y1="158.52" x2="117.28" y2="158.74"/>
        <polyline class="cls-2" points="90.31 138.29 89.77 139.7 86.2 149.03 85.66 150.43"/>
        <line class="cls-2" x1="146.85" y1="241.15" x2="146.85" y2="232.72"/>
        <path class="cls-2" d="m95.43,228.16c1.19-1.84,1.31-4.18.31-6.13"/>
        <line class="cls-2" x1="40.5" y1="218.2" x2="42.62" y2="220.91"/>
        <line class="cls-2" x1="38.87" y1="216.11" x2="40.48" y2="218.18"/>
        <path class="cls-2" d="m63.11,138.43c-.04,1.94-.98,3.75-2.55,4.88"/>
        <line class="cls-2" x1="92.63" y1="139.96" x2="90.47" y2="139.13"/>
        <line class="cls-2" x1="105.85" y1="242.11" x2="105.85" y2="246.55"/>
        <polyline class="cls-2" points="126.28 163.33 128.42 164.15 130.29 164.86 130.29 164.87 134.24 166.38"/>
        <path class="cls-2" d="m105.45,239.04c.21.82.35,1.66.38,2.51.02.19.02.37.02.56"/>
        <path class="cls-2" d="m49.77,169.3c-.48.93-.85,1.92-1.08,2.94"/>
        <line class="cls-2" x1="88.49" y1="150.74" x2="86.34" y2="149.92"/>
        <line class="cls-2" x1="72.04" y1="132.89" x2="70.07" y2="130.52"/>
        <line class="cls-2" x1="10.06" y1="173.15" x2="12.46" y2="173.87"/>
        <polyline class="cls-2" points="89.93 148.26 92.03 142.76 92.77 140.84"/>
        <line class="cls-2" x1="89.19" y1="150.18" x2="89.92" y2="148.26"/>
        <path class="cls-2" d="m41.27,217.55c1.19,1.17,2.58,2.11,4.08,2.78,1.78.8,3.73,1.22,5.72,1.22"/>
        <path class="cls-2" d="m58.46,123.59c.04-1.94.98-3.74,2.55-4.87,2.75-1.99,6.6-1.37,8.59,1.39,1.98,2.75,1.36,6.59-1.39,8.58"/>
        <path class="cls-2" d="m114.83,166.98c.28-.42.59-.92.92-1.48.28-.48.59-1.01.91-1.58"/>
        <polyline class="cls-2" points="69.36 216.93 69.75 215.85 73.47 205.73"/>
        <path class="cls-2" d="m94.76,209.8c.67-2.09.18-4.38-1.29-6.01"/>
        <path class="cls-2" d="m27.04,160.97c-.48.93-.84,1.92-1.07,2.94"/>
        <line class="cls-2" x1="8.94" y1="239.8" x2="11.46" y2="219.8"/>
        <path class="cls-2" d="m84.57,227.14c-.99,1.52-1.25,3.4-.72,5.14"/>
        <line class="cls-2" x1="41.27" y1="217.55" x2="39.03" y2="215.36"/>
        <path class="cls-2" d="m82.91,206.55c-.41,1.77-.01,3.62,1.09,5.07"/>
        <line class="cls-2" x1="13.08" y1="173.53" x2="12.46" y2="173.87"/>
        <path class="cls-2" d="m13.64,218.93c-1.45,6.46,2.62,12.88,9.09,14.33,6.46,1.45,12.88-2.62,14.33-9.09"/>
        <line class="cls-2" x1="80.13" y1="146.71" x2="80.99" y2="148.64"/>
        <path class="cls-2" d="m95.74,222.03c1.03-1.94.94-4.28-.22-6.14"/>
        <line class="cls-2" x1="125.84" y1="154.59" x2="126.37" y2="154.79"/>
        <polyline class="cls-2" points="89.92 148.26 89.93 148.26 97.67 151.23"/>
        <path class="cls-2" d="m93.47,203.79c.75-3.31-1.32-6.6-4.63-7.36-3.31-.75-6.61,1.32-7.36,4.63-.45,1.95.08,4,1.43,5.49"/>
        <line class="cls-2" x1="68.46" y1="142.23" x2="63.56" y2="142.96"/>
        <circle class="cls-2" cx="88.71" cy="236.05" r="2.5"/>
        <line class="cls-2" x1="83.71" y1="137.37" x2="85.65" y2="136.51"/>
        <line class="cls-2" x1="85.65" y1="136.51" x2="90.31" y2="138.29"/>
        <line class="cls-2" x1="92.77" y1="140.84" x2="92.63" y2="139.96"/>
        <line class="cls-2" x1="10.06" y1="173.15" x2="8.72" y2="170.66"/>
        <path class="cls-2" d="m84.83,221.95c-.85,1.61-.94,3.51-.26,5.19"/>
        <line class="cls-2" x1="45.35" y1="215.85" x2="45.35" y2="220.33"/>
        <path class="cls-2" d="m84,211.62c-.56,1.73-.33,3.61.64,5.15"/>
        <path class="cls-2" d="m84.64,216.77c-.71,1.67-.64,3.57.19,5.18"/>
        <line class="cls-2" x1="99.68" y1="162.77" x2="102.9" y2="164"/>
        <line class="cls-2" x1="86.2" y1="149.03" x2="86.34" y2="149.92"/>
        <line class="cls-2" x1="132.65" y1="239.21" x2="136.31" y2="235.55"/>
        <circle class="cls-2" cx="112.85" cy="233.55" r="4.75"/>
        <polyline class="cls-2" points="107.94 155.16 107.95 155.16 111.13 156.38 114.83 157.81 114.84 157.81"/>
        <path class="cls-2" d="m50.81,138.21c.03-1.94.98-3.74,2.55-4.88"/>
        <line class="cls-2" x1="146.85" y1="241.15" x2="129.49" y2="241.15"/>
        <polyline class="cls-2" points="129.56 206.88 129.11 207.02 99.32 215.9"/>
        <path class="cls-2" d="m149.95,172.4c-.39.72-.76,1.42-1.13,2.08-.65,1.2-1.27,2.31-1.83,3.26s-1.07,1.76-1.51,2.36c-.47.65-.78,1.1-1.4,1.39-.12.05-.27.11-.44.12-.14.02-.3.01-.45-.03-.22-.06-.42-.18-.56-.33-.13-.14-.21-.29-.27-.42-.09-.21-.13-.4-.15-.59-.05-.48-.01-1.02.07-1.7.06-.51.16-1.09.28-1.75.21-1.09.49-2.4.83-3.82.21-.89.44-1.84.68-2.82.12-.48.24-.97.36-1.46.36-1.45.75-2.97,1.11-4.43.17-.65.33-1.3.49-1.93.19-.77.37-1.53.54-2.25.31-1.29.57-2.49.78-3.52.12-.61.22-1.17.29-1.65"/>
        <polyline class="cls-2" points="128.24 155.51 132.19 157.02 134.06 157.74 136.19 158.56 136.2 158.56"/>
        <path class="cls-2" d="m134.47,174.55s.01-.03.02-.04c.27-.4.56-.87.87-1.4.5-.84,1.06-1.84,1.66-2.92.39-.72.81-1.49,1.23-2.28"/>
        <path class="cls-2" d="m55.91,128.46c.04-1.93.98-3.74,2.55-4.87"/>
        <line class="cls-2" x1="72.04" y1="132.89" x2="83.71" y2="137.37"/>
        <circle class="cls-2" cx="59.51" cy="133.45" r="2.5"/>
        <line class="cls-2" x1="50.03" y1="223.91" x2="62.96" y2="222.09"/>
        <path class="cls-2" d="m147.64,154.91c-.26.4-.56.88-.87,1.41-.5.84-1.06,1.84-1.66,2.92-.39.72-.8,1.48-1.22,2.27"/>
        <line class="cls-2" x1="92.03" y1="142.76" x2="99.78" y2="145.73"/>
        <line class="cls-2" x1="80.99" y1="148.64" x2="85.66" y2="150.43"/>
        <path class="cls-2" d="m126.99,241.55c.86,0,1.7-.14,2.5-.4,1.18-.39,2.27-1.05,3.16-1.94"/>
        <path class="cls-2" d="m127.98,147.37c-.26.4-.55.87-.86,1.39-.3.51-.62,1.07-.96,1.67"/>
        <polyline class="cls-2" points="108.98 138.49 108.99 138.49 109.66 138.75 109.94 138.86"/>
        <path class="cls-2" d="m109.66,138.75c.09-.2.17-.37.25-.52.09-.18.16-.32.25-.46.04-.05.07-.1.13-.17.04-.04.09-.1.17-.16.04-.03.09-.07.15-.1.08-.04.18-.07.28-.09.09-.02.2-.03.3-.02.11.01.23.04.33.09s.2.12.28.2c.07.07.14.16.19.25.04.09.07.17.09.25.01.07.02.13.02.18.01.06,0,.11,0,.15,0,.09,0,.15-.03.22-.03.19-.08.4-.16.67-.03.1-.06.21-.1.33-.09.31-.21.69-.35,1.12-.27.83-.62,1.88-1.03,3.07-.39,1.13-.83,2.41-1.3,3.76-.49,1.39-1.02,2.89-1.53,4.36"/>
        <line class="cls-2" x1="153.82" y1="201.73" x2="154.39" y2="203.02"/>
        <path class="cls-2" d="m95.52,215.89c.85-2.02.56-4.34-.76-6.09"/>
        <polyline class="cls-2" points="37.06 224.17 38.87 216.11 39.03 215.36 48.69 172.24"/>
        <path class="cls-2" d="m144.32,178.28c.26-.4.56-.87.87-1.39.49-.84,1.06-1.84,1.65-2.92.4-.72.81-1.49,1.24-2.29"/>
        <polyline class="cls-2" points="136.11 167.09 138.25 167.91 140.12 168.63 144.07 170.15"/>
        <polyline class="cls-2" points="138.07 159.28 142.02 160.79 142.02 160.8 143.89 161.51 146.03 162.33"/>
        <polyline class="cls-2" points="145.94 170.86 148.08 171.68 149.95 172.4 153.9 173.91"/>
        <path class="cls-2" d="m124.66,170.74c.27-.4.57-.88.89-1.42.49-.84,1.06-1.84,1.65-2.92.39-.71.8-1.47,1.22-2.25"/>
        <polyline class="cls-2" points="105.84 241.55 112.85 241.55 126.99 241.55"/>
        <polyline class="cls-2" points="110.05 149.67 112.03 150.43 113.9 151.15 116.28 152.06"/>
        <line class="cls-2" x1="111.81" y1="139.57" x2="113.18" y2="140.1"/>
        <line class="cls-2" x1="69.75" y1="215.85" x2="45.35" y2="215.85"/>
        <path class="cls-2" d="m65.66,133.56v-.11c0-3.4-2.76-6.15-6.15-6.15-1.34,0-2.59.43-3.6,1.17-1.51,1.08-2.51,2.85-2.54,4.86-.01.04-.01.08-.01.12,0,3.39,2.75,6.15,6.15,6.15,1.35,0,2.59-.43,3.6-1.17,1.52-1.1,2.51-2.87,2.55-4.87Z"/>
        <line class="cls-2" x1="64.93" y1="221.55" x2="51.07" y2="221.55"/>
        <path class="cls-2" d="m60.56,143.31c-.04,1.94-.99,3.74-2.56,4.87-2.75,1.99-6.59,1.37-8.58-1.39-1.99-2.75-1.37-6.59,1.39-8.58"/>
        <line class="cls-2" x1="122.97" y1="162.06" x2="124.41" y2="162.61"/>
        <path class="cls-2" d="m118.53,164.64c-.35.62-.68,1.21-1,1.74-.56.96-1.07,1.77-1.52,2.39-.46.64-.78,1.09-1.38,1.39-.13.07-.28.12-.45.15-.15.02-.31.01-.47-.03-.22-.06-.42-.18-.57-.33-.13-.14-.21-.29-.27-.42-.09-.21-.12-.4-.15-.59-.05-.47-.02-1,.07-1.67.06-.51.15-1.09.28-1.75.2-1.09.49-2.4.82-3.82.28-1.22.61-2.54.94-3.89.04-.12.07-.25.1-.38.36-1.45.75-2.97,1.11-4.43.08-.32.16-.63.24-.94.28-1.13.55-2.22.79-3.24.31-1.3.58-2.51.78-3.53.13-.63.23-1.19.3-1.68"/>
        <path class="cls-2" d="m105.73,151.16c.5-1.42,1.01-2.87,1.48-4.22.47-1.33.91-2.6,1.29-3.72s.72-2.12.98-2.91c.19-.59.35-1.09.46-1.45"/>
        <line class="cls-2" x1="113.47" y1="140.75" x2="113.18" y2="140.1"/>
        <polyline class="cls-2" points="40.48 218.18 40.5 218.2 40.57 218.26"/>
        <path class="cls-2" d="m8.85,241.3c0-.5.03-1,.09-1.5"/>
        <path class="cls-2" d="m11.46,219.8c.37-2.97,1.69-5.74,3.76-7.91"/>
        <path class="cls-2" d="m42.62,220.91c1.76,2.25,4.58,3.4,7.41,3"/>
        <circle class="cls-2" cx="25.35" cy="221.55" r="4"/>
        <line class="cls-2" x1="8.85" y1="241.3" x2="8.85" y2="246.55"/>
        <path class="cls-2" d="m118.15,143.61c-.26.39-.55.86-.86,1.38-.49.84-1.06,1.83-1.65,2.91-.55,1.01-1.14,2.11-1.74,3.24"/>
        <path class="cls-2" d="m73.47,205.73c.25-.68.65-1.31,1.17-1.82"/>
        <line class="cls-2" x1="225.59" y1="182.12" x2="223.86" y2="178.24"/>
        <circle class="cls-2" cx="73.61" cy="51.24" r="6.25"/>
        <line class="cls-2" x1="224.59" y1="184.73" x2="225.62" y2="184.27"/>
        <line class="cls-2" x1="187.93" y1="164.47" x2="223.86" y2="178.24"/>
        <polyline class="cls-2" points="221.61 192.51 224.59 184.73 225.59 182.12"/>
        <path class="cls-2" d="m81.1,51.06c-.07-3.25-2.24-6.08-5.35-7.01"/>
        <line class="cls-2" x1="225.62" y1="184.27" x2="233.28" y2="187.21"/>
        <polyline class="cls-2" points="64.54 39.66 60.03 54.75 57.03 64.81 52.52 79.9"/>
        <polyline class="cls-2" points="215.57 208.26 216.57 205.65 219.55 197.87"/>
        <polyline class="cls-2" points="49.77 169.3 63.56 142.96 70.07 130.52 80.64 110.33"/>
        <line class="cls-2" x1="56.86" y1="104.01" x2="27.04" y2="160.97"/>
        <polyline class="cls-2" points="56.22 11.6 52.36 24.54 8.72 170.66"/>
        <polyline class="cls-2" points="13.08 173.53 38.83 87.29 40.14 82.9"/>
        <line class="cls-2" x1="216.57" y1="205.65" x2="217.03" y2="206.67"/>
        <line class="cls-2" x1="38.83" y1="87.29" x2="43.62" y2="88.72"/>
        <line class="cls-2" x1="227.27" y1="208.46" x2="224.7" y2="209.61"/>
        <line class="cls-2" x1="224.7" y1="209.61" x2="217.03" y2="206.67"/>
      </g>
    </g>
  </g>
</svg>