<?xml version="1.0" encoding="UTF-8"?>
<svg xmlns="http://www.w3.org/2000/svg" viewBox="0 0 425.2 425.2">
  <defs>
    <style>
      .cls-1 {
        fill: #ed2024;
      }

      .cls-1, .cls-2, .cls-3, .cls-4, .cls-5, .cls-6 {
        stroke-miterlimit: 10;
      }

      .cls-1, .cls-2, .cls-3, .cls-4, .cls-6 {
        stroke: #231f20;
      }

      .cls-2 {
        fill: #343331;
      }

      .cls-3 {
        fill: #686866;
      }

      .cls-4 {
        fill: #cdccca;
      }

      .cls-5 {
        fill: #e65025;
        stroke: #e65025;
        stroke-width: 11px;
      }

      .cls-6 {
        fill: #9a9998;
      }
    </style>
  </defs>
  <g id="Layer_1" data-name="Layer 1">
    <g>
      <path class="cls-6" d="m414.26,213.23v.12l-.66.72-12.78.72v-.42c-.02-.14-.14-.25-.28-.24l-.02.06-1.48.06c-.14.01-.26.13-.26.27h-.06v.57l.06.48v.42l-.42.42-144.06,7.92v-.36l-.06-.84-.06-.96-.06-1.14-.06-1.14-.06-1.26-.06-1.2-.06-1.14-.06-1.14-.06-.96-.06-.9-.03-.3h.03l144.06-7.86.48.36v.9l.05.54h.07c0,.12.11.22.24.24h.05l1.5-.06v-.06c.14-.01.25-.12.25-.26v-.34l12.72-.66.78.66v.42l.06.6v.66l.06.84.06.9.06.9v.84l.06.72.06.54v.36Z"/>
      <polygon class="cls-3" points="378.02 280.61 385.16 291.17 384.74 293.15 384.62 293.21 384.32 293.45 383.78 293.81 383 294.35 382.04 294.95 380.96 295.67 379.76 296.51 367.73 304.66 369.02 306.53 368.9 306.59 368.6 306.77 368.12 307.13 367.4 307.55 366.56 308.15 366.07 308.5 366.08 308.51 368.42 312.05 368.36 312.11 368.06 312.29 367.58 312.59 366.92 313.07 366.85 313.11 366.68 313.91 366.62 313.97 366.32 314.15 365.84 314.45 365.18 314.93 364.34 315.47 363.38 316.13 362.39 316.81 362.36 316.83 362.35 316.83 362.24 316.91 361.88 317.15 360.98 317.75 359.6 318.65 358.16 319.61 356.66 320.69 355.1 321.71 353.48 322.79 351.86 323.87 350.3 324.95 348.8 325.97 347.36 326.93 346.94 327.23 345.98 327.89 344.8 328.68 344.77 328.69 344.72 328.73 343.58 329.45 342.62 330.17 341.78 330.71 341.12 331.13 340.64 331.49 340.34 331.67 340.28 331.73 339.5 331.55 339.49 331.54 339.38 331.61 338.72 332.03 338.24 332.39 338 332.57 337.88 332.63 335.49 329.11 335 329.45 334.16 330.05 333.44 330.47 332.96 330.83 332.66 331.01 332.54 331.07 331.29 329.23 331.1 329.39 330.8 329.57 330.74 329.63 328.76 329.21 321.62 318.65 321.68 318.59 321.98 318.41 322.46 318.05 323.12 317.63 324.02 317.03 324.98 316.37 326.18 315.59 327.5 314.69 329 313.67 329.82 313.1 330.56 312.59 332.24 311.45 334.04 310.25 335.9 308.99 337.82 307.73 339.74 306.41 341.72 305.09 343.7 303.77 345.62 302.45 347.54 301.13 349.4 299.93 359.84 292.86 372.26 284.45 373.52 283.61 374.6 282.89 375.62 282.23 376.46 281.63 377.12 281.21 377.6 280.85 377.9 280.67 378.02 280.61"/>
      <path class="cls-3" d="m366.92,264.23l11.1,16.38-.12.06-.3.18-.48.36-.66.42-.84.6-1.02.66-1.08.72-1.26.84-12.42,8.41h0s-6.24-9.25-6.24-9.25h-.3l-.06.06h-.66l-.06.06h-.3l-.12.06h-.12l-.06.06h-.18l-.06.06h-.12l-.06.06h-.06l-.04.04-.03.02h-.05l-.06.06-.36-.54-.06.06-.3.18-.42.3-.6.42-.78.54-.96.6-1.08.72-.48.34-.72.5-1.38.9-1.44.96-1.5,1.08-1.62,1.08-.96.61-.72.47-1.32.84-1.98,1.38-1.98,1.32-1.56,1.08-.36.24-1.92,1.26-1.86,1.26-1.8,1.2-1.68,1.14-.72.5-.84.58-1.5.96-1.32.9-1.14.84-1.02.66-.9.6-.66.42-.48.3-.24.24-.12.06-19.8-29.34h-.01s10.57-6.72,10.57-6.72l.12-.06.06-.06.12-.06.06-.06.12-.06.06-.06.06-.06.12-.06h.06l.12-.06.06-.06.12-.06.06-.06.12-.06.06-.06.12-.06.12-.06.06-.06.12-.06.06-.06.12-.06.06-.06.12-.06.12-.06.06-.06.12-.06.12-.12.12-.06.06-.06.12-.06.12-.06.12-.06.12-.12.12-.06.12-.06.12-.06.12-.06.12-.12.06-.06.12-.06.12-.06.12-.06.12-.12.12-.06.06-.06.12-.06.12-.06.12-.06.18-.18.24-.12.18-.12.24-.12.18-.12.18-.12.24-.12.18-.18.18-.12.24-.12.18-.12.18-.12.18-.12.18-.12.18-.12.24-.12.18-.12.18-.12.18-.12.18-.12.18-.12.18-.12.18-.12.12-.04c1.72-1.11,3.29-2.44,4.67-3.95l.13-.09-.02-.03-.45-.61c1.87-3.57,1.88-7.99-.31-11.7-1.48-2.51-3.74-4.28-6.29-5.18-2.24-.82-4.71-.95-7.08-.33v-.03s1.67-1.08,1.67-1.08l1.62-1.14,1.56-1.02,1.44-.96,1.32-.9,1.2-.84,1.14-.72.9-.66.78-.54.66-.42.42-.3.3-.18.06-.06,33.17,6.48h0l.15.03.03.03h.12l8.34,12.36v.18l.06.06v.18l.06.06h.06l.06.12.18.24.3.42.36.6.48.66.54.84.54.84.6.9.6.9.6.84.54.78.48.72.36.54.3.42.18.3.05.05s0,0,0,.01c0,.02.02.04,0,.05h0s-.03.04-.03.04l.03.03h.06v.06h.06l.06.06h.06l.06.06h.06v.06Z"/>
      <polygon class="cls-1" points="366.56 263.93 366.56 263.99 366.53 263.96 366.56 263.93"/>
      <polygon class="cls-6" points="359.84 292.85 359.84 292.86 349.4 299.93 347.54 301.13 345.62 302.45 343.7 303.77 341.72 305.09 339.74 306.41 337.82 307.73 335.9 308.99 334.04 310.25 332.24 311.45 330.56 312.59 329.82 313.1 329.79 313.03 329.3 313.37 328.22 314.09 327.26 314.69 326.48 315.23 325.88 315.65 325.46 315.95 325.16 316.13 325.1 316.19 324.76 315.67 324.75 315.67 324.08 316.13 323.06 316.79 323 316.83 323 316.85 322.97 316.85 322.88 316.91 322.28 317.33 321.68 317.75 321.32 317.99 321.2 318.05 320.48 317.93 320.42 317.87 320.36 317.87 320.3 317.87 320.18 317.87 320.12 317.81 320.06 317.81 320 317.81 319.88 317.81 319.82 317.75 319.76 317.75 319.64 317.75 319.58 317.69 319.52 317.69 319.4 317.69 319.34 317.69 319.28 317.63 314.48 310.61 314.54 310.49 314.54 310.43 314.54 310.37 314.54 310.25 314.54 310.19 314.6 310.13 314.6 310.01 314.6 309.95 314.6 309.89 314.66 309.77 314.66 309.71 314.66 309.65 314.66 309.59 314.66 309.47 314.72 309.41 314.72 309.35 314.84 308.63 314.96 308.57 315.32 308.33 315.92 307.91 316.7 307.37 317.72 306.71 318.36 306.27 318.02 305.75 318.14 305.69 318.38 305.51 318.8 305.21 319.46 304.79 320.24 304.25 321.14 303.59 321.86 303.11 322.7 302.53 323.42 302.03 325.1 300.89 326.9 299.69 328.76 298.43 330.68 297.17 331.04 296.93 332.6 295.85 334.58 294.53 336.56 293.15 337.88 292.31 338.6 291.84 339.56 291.23 341.18 290.15 342.68 289.07 344.12 288.11 345.5 287.21 346.22 286.71 346.7 286.37 347.78 285.65 348.74 285.05 349.52 284.51 350.12 284.09 350.54 283.79 350.84 283.61 350.9 283.55 351.26 284.09 351.32 284.03 351.37 284.03 351.4 284.01 351.44 283.97 351.46 283.97 351.5 283.97 351.56 283.91 351.62 283.91 351.68 283.91 351.74 283.85 351.8 283.85 351.92 283.85 351.98 283.79 352.04 283.79 352.1 283.79 352.22 283.73 352.28 283.73 352.34 283.73 352.46 283.73 352.52 283.73 352.58 283.67 352.7 283.67 352.76 283.67 352.88 283.67 352.94 283.67 353.06 283.67 353.12 283.67 353.24 283.67 353.3 283.61 353.42 283.61 353.48 283.61 353.59 283.61 353.6 283.61 359.84 292.85"/>
      <polygon class="cls-1" points="351.86 241.85 351.8 241.85 351.74 241.85 351.71 241.82 351.86 241.85"/>
      <polygon class="cls-1" points="351.71 241.82 351.56 241.79 351.62 241.79 351.68 241.79 351.71 241.82"/>
      <path class="cls-3" d="m319.44,261.98l.02.03-.13.09c-1.38,1.51-2.95,2.84-4.67,3.95l-.12.04-.18.12-.18.12-.18.12-.18.12-.18.12-.18.12-.18.12-.24.12-.18.12-.18.12-.18.12-.18.12-.18.12-.24.12-.18.12-.18.18-.24.12-.18.12-.18.12-.24.12-.18.12-.24.12-.18.18-.12.06-.12.06-.12.06-.06.06-.12.06-.12.12-.12.06-.12.06-.12.06-.06.06-.12.12-.12.06-.12.06-.12.06-.12.06-.12.12-.12.06-.12.06-.12.06-.06.06-.12.06-.12.12-.12.06-.06.06-.12.06-.12.06-.06.06-.12.06-.06.06-.12.06-.06.06-.12.06-.12.06-.06.06-.12.06-.06.06-.12.06-.06.06-.12.06h-.06l-.12.06-.06.06-.06.06-.12.06-.06.06-.12.06-.06.06-.12.06-10.57,6.71-33.11,21.01v.02c-1.21.76-2.52,1.35-3.92,1.72h-.04l-42.73,11.44v.02s0,9.84,0,9.84h-.54v2.22h-24.6c-1.12.35-2.3.54-3.51.54l-.03.06h-16.02v.3h-8.04v-.3h-5.91c-.01-.48-.05-.96-.11-1.44-.1-.73-.24-1.45-.42-2.16h-.05s-8.32-31.38-8.32-31.38l-.36-1.38v-.06s-.21-.72-.21-.72h1.01c.25,0,.48.14.61.36l40.54-12.08h.01c1.01-.4,2.08-.65,3.18-.75v.04s.15-.05.15-.05h.6l.18-.06h.54l.18-.06h.36l.24-.06h.54l.18-.06h.6l.18-.06h.42l.24-.06h.36l.24-.06h.42l.24-.06h.66l.12-.06h.54l.06-.06h.66l.06-.06h.6l.06-.06h.6l.06-.06h.36l52.32-4.56.07-.05c.48-.05.96-.12,1.43-.2h0s.18.01.18.01l.18-.06.18-.06h.12l.18-.06.18-.06.18-.06.18-.06h.18l.18-.06.18-.06.18-.06.18-.06.18-.12.12-.06.18-.06.07-.02c.45-.2.89-.41,1.31-.64,0-.01.02-.01.03-.02l33.09-18.22h.06l.12-.06.06-.06.12-.06.06-.06.12-.06h.06l.12-.06.06-.06.12-.06.12-.06.06-.06.12-.06h.06l.12-.06.06-.06.12-.06.12-.06.06-.06.12-.06.12-.06.06-.06.12-.06h.12l.06-.06.12-.06.12-.06.12-.06.12-.06.12-.06.06-.06.12-.12.12-.06.12-.06.12-.06.12-.06.12-.06.12-.06.12-.06.12-.06.12-.06.12-.06.12-.12.12-.06.12-.06.12-.06.12-.06.06-.06.24-.12.24-.12.18-.12.24-.12.18-.12.24-.06.18-.12.24-.12.18-.12.18-.12.24-.12.18-.12.18-.06.24-.12.18-.12.18-.12.18-.12.24-.06.18-.12.18-.12.18-.12.18-.06.24-.12.18-.12h.05c.9-.5,1.83-.87,2.78-1.11,2.37-.62,4.84-.49,7.08.33,2.55.9,4.81,2.67,6.29,5.18,2.19,3.71,2.18,8.13.31,11.7l.45.61Zm-11.11,1.89c4.46,0,8.07-3.61,8.07-8.07s-3.61-8.07-8.07-8.07-8.07,3.61-8.07,8.07,3.62,8.07,8.07,8.07Zm-108.45,23.43c0-3.73-3.02-6.75-6.75-6.75s-6.75,3.02-6.75,6.75,3.02,6.75,6.75,6.75,6.75-3.02,6.75-6.75Zm-27.66,26.94c0-3.33-2.7-6.03-6.03-6.03s-6.03,2.7-6.03,6.03,2.7,6.03,6.03,6.03,6.03-2.7,6.03-6.03Z"/>
      <path class="cls-6" d="m316.4,255.8c0,4.46-3.61,8.07-8.07,8.07s-8.07-3.61-8.07-8.07,3.62-8.07,8.07-8.07,8.07,3.61,8.07,8.07Zm-2.93,2.39c.83-1.77.68-3.84-.38-5.47l-.12-.18c-1.12-1.59-2.98-2.5-4.93-2.4-.07,0-.14.01-.21.01-1.94.18-3.66,1.34-4.55,3.07,0,.01,0,.01,0,.02s-.01.01-.01.01c-.02.06-.04.11-.07.16-.02.04-.04.09-.05.13h0c-.74,1.7-.61,3.64.36,5.21.02.05.05.09.08.14.03.06.07.11.11.17.02.02.03.05.05.07l.04.05h.01c1.09,1.49,2.84,2.34,4.68,2.28.05.01.11.01.16,0,.05,0,.11,0,.17-.01h.03c1.95-.17,3.67-1.33,4.55-3.07.03-.06.06-.12.09-.19Z"/>
      <path class="cls-6" d="m313.09,252.72c1.06,1.63,1.21,3.7.38,5.47-.03.07-.06.13-.09.19-.88,1.74-2.6,2.9-4.55,3.07h-.03c-.06.01-.12.01-.17.01-.05.01-.11.01-.16,0-1.84.06-3.59-.79-4.68-2.27h-.01s-.04-.06-.04-.06c-.02-.02-.03-.05-.05-.07-.04-.06-.08-.11-.11-.17-.03-.05-.06-.09-.08-.14-.97-1.57-1.1-3.51-.36-5.2h0s.03-.1.05-.14c.03-.05.05-.1.07-.16,0,0,.01,0,.01-.01s0-.01,0-.02c.89-1.73,2.61-2.89,4.55-3.07.07,0,.14-.01.21-.01,1.95-.1,3.81.81,4.93,2.4l.12.18Z"/>
      <polygon class="cls-6" points="313.58 333.53 313.58 343.31 312.86 344.03 312.74 344.03 312.38 344.03 311.78 344.03 311 344.03 309.98 344.03 308.78 344.03 307.46 344.03 306.02 344.03 304.52 344.03 302.96 344.03 257.6 344.03 255.98 344.03 254.42 344.03 252.92 344.03 251.54 344.03 250.34 344.03 249.38 344.03 248.54 344.03 247.7 344.03 246.68 344.03 245.42 344.03 244.04 344.03 242.48 344.03 240.86 344.03 239.12 344.03 237.38 344.03 235.52 344.03 169.1 344.03 167.24 344.03 165.5 344.03 163.76 344.03 162.14 344.03 160.58 344.03 159.2 344.03 157.94 344.03 156.92 344.03 156.08 344.03 155.24 344.03 154.28 344.03 153.08 344.03 151.7 344.03 150.2 344.03 148.64 344.03 147.02 344.03 101.66 344.03 100.04 344.03 98.48 344.03 96.98 344.03 95.66 344.03 94.46 344.03 93.44 344.03 92.66 344.03 91.76 344.03 90.74 344.03 89.48 344.03 88.1 344.03 86.6 344.03 84.92 344.03 83.18 344.03 81.44 344.03 79.64 344.03 21.56 344.03 20 344.03 18.5 344.03 17.06 344.03 15.74 344.03 14.54 344.03 13.52 344.03 12.74 344.03 12.14 344.03 11.78 344.03 11.66 344.03 10.94 343.31 10.94 336.95 15.2 332.69 15.32 332.69 15.68 332.69 16.28 332.69 17.06 332.69 18.02 332.69 18.74 332.69 19.16 332.69 20.18 332.69 20.36 332.69 21.56 332.69 76.04 332.69 77.96 332.69 79.88 332.69 81.74 332.69 83.54 332.69 85.22 332.69 86.84 332.69 88.28 332.69 89.6 332.69 90.74 332.69 91.76 332.69 92.54 332.69 93.2 332.69 93.98 332.69 95 332.69 96.14 332.69 97.4 332.69 98.78 332.69 100.22 332.69 101.66 332.69 147.02 332.69 148.46 332.69 149.9 332.69 151.28 332.69 152.54 332.69 153.68 332.69 154.7 332.69 154.82 332.69 155.54 332.69 156.14 332.69 156.26 332.69 156.92 332.69 157.94 332.69 159.08 332.69 160.4 332.69 161.9 332.69 163.46 332.69 165.2 332.69 166.94 332.69 168.86 332.69 170.72 332.69 172.7 332.69 231.92 332.69 233.9 332.69 235.76 332.69 237.62 332.69 239.42 332.69 241.16 332.69 242.72 332.69 244.22 332.69 245.54 332.69 246.68 332.69 247.7 332.69 248.48 332.69 249.08 332.69 249.92 332.69 250.94 332.69 252.08 332.69 253.34 332.69 254.72 332.69 256.1 332.69 257.6 332.69 302.96 332.69 304.46 332.69 305.96 332.69 307.4 332.69 308.72 332.69 309.86 332.69 310.88 332.69 311.66 332.69 312.26 332.69 312.62 332.69 312.74 332.69 313.58 333.53"/>
      <polygon class="cls-3" points="255.38 81.71 257.54 84.47 257.42 85.49 257.3 85.55 257.06 85.73 256.64 86.09 256.04 86.51 255.32 87.05 254.48 87.71 253.52 88.49 252.44 89.27 251.36 90.17 250.16 91.07 248.96 91.97 240.57 98.47 244.88 104.09 244.64 106.07 244.58 106.13 244.34 106.31 243.98 106.61 240.32 109.37 239.84 109.73 239.3 110.15 238.76 110.63 234.56 113.87 233.44 114.73 233.44 114.74 230.6 116.93 230.18 117.23 229.64 117.65 229.1 118.07 190.58 147.77 190.04 148.19 189.56 148.61 189.08 148.91 186.24 151.1 185.16 151.94 180.92 155.21 180.38 155.69 179.84 156.11 179.36 156.47 175.7 159.23 175.34 159.53 175.16 159.71 175.04 159.77 173.06 159.53 168.75 153.9 76.16 225.35 74.96 226.25 73.76 227.15 72.68 228.05 71.6 228.83 70.64 229.61 69.8 230.27 69.08 230.81 68.48 231.23 68.06 231.59 67.82 231.77 67.76 231.83 66.74 231.71 64.58 228.89 65.12 224.93 65.18 224.87 65.42 224.69 65.84 224.33 66.38 223.91 67.04 223.43 67.88 222.77 68.78 222.11 69.74 221.33 70.76 220.55 71.84 219.71 162.98 149.39 162.92 149.39 164.24 148.37 165.02 147.77 166.22 146.87 167 146.27 167.08 146.23 172.63 141.95 172.58 141.95 179 137.03 244.64 86.39 245.72 85.55 246.74 84.77 247.7 83.99 248.6 83.33 249.38 82.67 250.1 82.19 250.64 81.71 251.06 81.41 251.3 81.23 251.36 81.17 255.38 81.71"/>
      <path class="cls-6" d="m254.36,225.65c.02.68-.5,1.26-1.18,1.32l.04.66v.78l.06.48v.48l-.66.72-7.08.36-1.5-1.32v-.48l-.06-.6v-.78l-.06-1.02-.06-1.2-.12-1.32v-.36h-.02l-.04-1.08-.06-1.5-.12-1.56-.06-1.56-.12-1.5-.05-1.08v-.36s-.07-1.32-.07-1.32l-.06-1.2-.06-1.02-.06-.78v-.6l-.06-.36v-.12l1.32-1.5,7.08-.36.78.66v.42l.06.54v.72l.04.67h.08c.7-.03,1.28.51,1.32,1.21l-.04.02.04.08v.84l.03.36.03.3.06.9.06.96.06,1.14.06,1.14.06,1.2.06,1.26.06,1.14.06,1.14.06.96.06.84v.72l.06.54v.42Z"/>
      <path class="cls-3" d="m248.14,133.79c3.18,4.13,3.35,9.84.41,14.14v.02s-19.98,29.26-19.98,29.26v.02c-1.13,1.62-2.62,2.94-4.36,3.85l3.19-4.66,20-29.25v-.02c2.61-3.81,2.46-8.86-.36-12.51l-.06.05-4.8-6.24-.48-.62c-.75-.58-1.75-.74-2.67-.41l-.03.07-4.68,1.68v-.03c-1.27.45-2.44,1.09-3.5,1.91l-.04.04-10.14,7.86h-.03c.18-.66.27-1.32.27-1.98,0-.56-.05-1.13-.18-1.68-.04-.25-.11-.5-.19-.75h0s.02-.03.02-.03l-.47-.53,13.37-10.33.6-.42.54-.42.48-.36,2.04-1.62.36-.24.24-.18.06-.06.84,1.14.9,1.08,8.64,11.22h.02Z"/>
      <path class="cls-4" d="m238.61,133.13c4.43,0,8.01,3.59,8.01,8.01s-3.58,8.01-8.01,8.01-8.01-3.58-8.01-8.01,3.59-8.01,8.01-8.01Zm2.49,11.04c1.05-.85,1.58-2.2,1.41-3.55,0-.02,0-.03,0-.05-.2-1.37-1.12-2.54-2.39-3.06-1.3-.54-2.79-.34-3.9.52l-.02.02h0l-.06.06c-1.05.86-1.58,2.2-1.4,3.56,0,.03.01.07.02.1v.06h.01c.22,1.26,1.04,2.32,2.19,2.86l.02.02h.02s.02.02.04.02v.04h.06l.06.06h.13c1.21.44,2.54.27,3.59-.48.03-.01.06-.03.09-.06h.03l.04-.04s0-.02.02-.02h0l.06-.06Z"/>
      <polygon class="cls-6" points="243.68 222.29 243.72 223.37 229.59 224.15 229.58 223.97 229.46 221.99 229.34 220.01 229.28 218.03 229.16 216.05 229.15 215.87 229.16 215.87 243.26 215.09 243.27 215.09 243.32 216.17 243.44 217.67 243.5 219.23 243.62 220.79 243.68 222.29"/>
      <path class="cls-4" d="m242.51,140.62c.17,1.35-.36,2.7-1.41,3.55-.02.02-.04.04-.06.05h0s-.01.02-.02.03l-.04.04h-.03s-.06.05-.09.06c-1.05.75-2.38.92-3.59.48h-.13l-.06-.06h-.06v-.04s-.03-.01-.04-.02h-.02l-.02-.02c-1.15-.54-1.97-1.6-2.19-2.85h-.01v-.07s-.02-.07-.02-.1c-.18-1.36.35-2.7,1.4-3.56.02-.02.04-.04.06-.05h0s.01-.02.02-.03c1.11-.86,2.6-1.06,3.9-.52,1.27.52,2.19,1.69,2.39,3.06,0,.02,0,.03,0,.05Z"/>
      <polygon class="cls-3" points="235.16 116.99 237.74 120.35 237.68 120.41 237.44 120.59 237.08 120.83 235.04 122.45 234.56 122.81 234.02 123.23 233.42 123.65 220.05 133.98 208.27 143.08 194.9 153.41 194.3 153.83 193.76 154.25 193.34 154.61 191.24 156.23 190.88 156.47 190.7 156.65 190.58 156.71 187.99 153.36 186.26 151.13 186.24 151.1 189.08 148.91 189.56 148.61 190.04 148.19 190.58 147.77 229.1 118.07 229.64 117.65 230.18 117.23 230.6 116.93 233.44 114.74 235.16 116.99"/>
      <polygon class="cls-6" points="230.3 237.59 230.3 237.71 229.64 238.43 223.28 238.79 223.28 238.73 223.22 237.23 223.1 235.55 223.04 233.69 222.92 231.77 222.92 231.71 222.92 231.59 222.91 231.59 222.91 231.58 222.8 229.61 222.68 227.39 222.56 225.11 222.44 222.77 222.26 220.37 222.26 220.25 222.26 220.13 222.26 220.01 222.24 219.97 222.14 218.03 222.02 215.69 221.9 213.41 221.78 211.19 221.66 209.15 221.66 209.09 221.66 208.97 221.66 208.85 221.64 208.82 221.54 207.11 221.48 205.25 221.36 203.57 221.3 202.07 221.29 202.01 221.3 202.01 227.66 201.65 228.38 202.31 228.38 202.43 228.44 202.79 228.44 203.33 228.5 204.05 228.56 205.01 228.62 206.15 228.68 207.47 228.74 208.97 228.86 210.59 228.92 212.33 229.04 214.19 229.15 215.87 229.16 216.05 229.28 218.03 229.34 220.01 229.46 221.99 229.58 223.97 229.59 224.15 229.7 225.83 229.76 227.69 229.88 229.43 229.94 231.05 230.06 232.49 230.12 233.87 230.18 235.01 230.24 235.97 230.3 236.69 230.3 237.23 230.3 237.59"/>
      <path class="cls-2" d="m221.75,162.14c3.59,1.35,5.91,4.86,5.72,8.71-.08,1.68-.63,3.25-1.53,4.57-1.17,1.7-2.92,2.99-5.01,3.55-3.71,1-7.64-.52-9.73-3.74t-.02-.01c-2.22-.85-4-2.53-4.96-4.7h-.04s.03-.04.03-.04c-3.34-1.9-5.07-5.73-4.28-9.48.24-1.17.72-2.26,1.37-3.21,1.43-2.08,3.73-3.51,6.36-3.79,3.82-.4,7.47,1.7,9.03,5.22h-.03s-.24.19-.24.19l.26-.17c1.23.7,2.27,1.68,3.05,2.87,0,.01,0,.01,0,.02.01,0,.01.01.01.01Zm4.89,8.28c0-3.54-2.3-6.55-5.5-7.61-.79-.26-1.63-.4-2.51-.4s-1.71.14-2.5.4c-2.88.95-5.04,3.48-5.44,6.56-.05.34-.07.69-.07,1.05,0,1.49.41,2.89,1.12,4.09,1.4,2.35,3.96,3.92,6.89,3.92,4.43,0,8.01-3.58,8.01-8.01Z"/>
      <path class="cls-4" d="m221.14,162.81c3.2,1.06,5.5,4.07,5.5,7.61,0,4.43-3.58,8.01-8.01,8.01-2.93,0-5.49-1.57-6.89-3.92-.71-1.2-1.12-2.6-1.12-4.09,0-.36.02-.71.07-1.05.4-3.08,2.56-5.61,5.44-6.56.79-.26,1.63-.4,2.5-.4s1.72.14,2.51.4Zm-.11,10.72c1.11-.85,1.68-2.24,1.5-3.63,0-.02,0-.03,0-.05-.2-1.37-1.12-2.54-2.39-3.06,0,0-.02-.01-.03-.01-1.27-.52-2.72-.33-3.81.49h-.03v.02s-.02.01-.03.02l-.02.02s-.09.07-.13.12c-.97.81-1.48,2.06-1.36,3.34l-.02.02v.12l.04.04s.01.05.02.08v.06h.01c.22,1.27,1.05,2.33,2.21,2.87h0s.02.01.02.01c.02.02.05.03.08.04l.02.02h.02s0,.01.02.01c.05.02.09.04.14.05,1.24.45,2.61.26,3.67-.52.03-.02.05-.04.08-.06Z"/>
      <polygon class="cls-6" points="223.52 242.93 223.52 243.05 223.46 243.05 223.46 243.11 223.4 243.11 223.4 243.17 223.34 243.17 223.34 243.23 223.28 243.23 223.28 243.29 223.22 243.29 223.16 243.35 223.1 243.41 223.1 243.47 223.04 243.47 222.98 243.53 222.92 243.59 222.86 243.65 222.8 243.71 222.74 243.77 222.68 243.83 222.62 243.83 222.56 243.89 222.5 243.95 222.44 244.01 222.38 244.07 222.32 244.13 222.26 244.25 222.2 244.31 216.5 244.61 216.44 244.55 216.38 244.49 216.32 244.43 216.2 244.37 216.14 244.31 216.08 244.25 216.02 244.25 215.96 244.19 215.9 244.13 215.84 244.07 215.72 244.01 215.66 244.01 215.6 243.95 215.6 243.89 215.54 243.83 215.48 243.83 215.42 243.77 215.36 243.77 215.3 243.71 215.24 243.65 215.18 243.65 215.18 243.59 215.12 243.59 215.12 243.53 215.06 243.53 215 243.41 215 242.99 215 242.39 214.94 241.55 214.9 240.74 214.88 240.71 214.88 240.65 214.88 240.59 214.88 240.53 214.88 240.47 214.88 240.41 214.82 239.21 214.7 237.71 214.64 236.03 214.52 234.17 214.41 232.39 214.4 232.37 214.4 232.31 214.4 232.19 214.4 232.13 214.28 230.09 214.16 227.87 214.04 225.59 214.01 225.05 213.92 223.25 213.82 221.25 213.8 221.21 213.8 221.09 213.8 220.97 213.8 220.92 213.8 220.85 213.8 220.79 213.68 218.51 213.59 216.71 213.56 216.17 213.38 213.89 213.26 211.67 213.14 209.51 213.14 209.39 213.08 207.53 212.96 205.73 212.84 204.05 212.78 202.55 212.73 201.42 212.72 201.41 212.72 201.35 212.72 201.29 212.72 201.23 212.72 201.17 212.66 200.15 212.6 199.31 212.6 198.71 212.54 198.35 212.54 198.23 212.6 198.17 212.66 198.11 212.72 198.05 212.78 197.99 212.84 197.99 212.84 197.93 212.9 197.93 212.96 197.87 213.02 197.81 213.02 197.75 213.08 197.75 213.14 197.69 213.2 197.63 213.26 197.57 213.32 197.51 213.38 197.45 213.44 197.39 213.5 197.33 213.56 197.27 213.62 197.21 213.68 197.15 213.74 197.09 213.86 197.03 213.92 196.97 219.56 196.67 219.56 196.68 219.62 196.73 219.68 196.79 219.8 196.85 219.86 196.91 219.92 196.91 219.98 196.97 220.04 197.03 220.1 197.09 220.22 197.15 220.28 197.21 220.34 197.21 220.4 197.27 220.46 197.33 220.52 197.39 220.58 197.39 220.58 197.45 220.64 197.45 220.7 197.51 220.76 197.57 220.82 197.57 220.82 197.63 220.88 197.63 220.94 197.69 221 197.69 221 197.75 221.06 197.75 221.06 197.87 221.06 198.23 221.12 198.89 221.12 199.73 221.16 200.49 221.16 200.5 221.18 200.51 221.18 200.57 221.18 200.63 221.18 200.75 221.18 200.81 221.29 202.01 221.3 202.07 221.36 203.57 221.48 205.25 221.54 207.11 221.64 208.82 221.66 208.85 221.66 208.97 221.66 209.09 221.66 209.15 221.78 211.19 221.9 213.41 222.02 215.69 222.14 218.03 222.24 219.97 222.26 220.01 222.26 220.13 222.26 220.25 222.26 220.37 222.44 222.77 222.56 225.11 222.68 227.39 222.8 229.61 222.91 231.58 222.91 231.59 222.92 231.59 222.92 231.71 222.92 231.77 223.04 233.69 223.1 235.55 223.22 237.23 223.28 238.73 223.28 238.79 223.33 239.8 223.33 239.81 223.34 239.81 223.34 239.87 223.34 239.93 223.34 239.99 223.34 240.05 223.4 241.07 223.46 241.91 223.52 242.57 223.52 242.93"/>
      <path class="cls-4" d="m222.53,169.9c.18,1.39-.39,2.78-1.5,3.63-.03.02-.05.04-.08.06-1.06.78-2.43.97-3.67.52-.05,0-.09-.03-.14-.05-.01,0-.01-.01-.02-.01h-.02l-.02-.02s-.06-.02-.08-.04h-.02c-1.16-.55-1.99-1.61-2.21-2.87h-.01v-.07s0-.05-.02-.08l-.04-.04v-.12l.02-.02c-.12-1.28.39-2.53,1.36-3.34.04-.05.09-.09.13-.12l.02-.02s.02-.01.03-.02v-.02h.03c1.09-.82,2.54-1.01,3.81-.49.01,0,.02.01.03.01,1.27.52,2.19,1.69,2.39,3.06,0,.02,0,.03,0,.05Z"/>
      <path class="cls-4" d="m220.7,135.29c.13.55.18,1.12.18,1.68,0,.66-.09,1.32-.27,1.97-.05.23-.12.45-.2.67h-.01l-.06.06-.3.24-.36.3-.54.42-.66.48-.72.54-.72.6-.78.54-.66.54-.66.54-.54.42-.42.3-.24.18-.03.04h-.01c-.27.01-.53.03-.8.02-.67,0-1.33-.1-1.97-.28-.54-.14-1.06-.34-1.55-.6-.21-.1-.41-.22-.61-.35l-.07.03-.42-.54h0s11.78-9.11,11.78-9.11l.47.53-.02.02h0c.08.26.15.51.19.76Z"/>
      <polygon class="cls-6" points="213.92 223.25 214.01 225.05 202.28 225.65 202.26 225.65 202.22 225.05 202.16 223.91 202.1 222.71 202.04 221.51 202.04 221.41 202.04 221.27 202.03 221.21 202.02 221.2 201.98 220.25 201.92 219.11 201.86 217.97 201.82 217.37 213.56 216.71 213.59 216.71 213.68 218.51 213.8 220.79 213.8 220.85 213.8 220.92 213.8 220.97 213.8 221.09 213.8 221.21 213.82 221.25 213.92 223.25"/>
      <path class="cls-3" d="m212.9,144.83v.06l-6.42,4.92h-.01c-.58.45-1.09.99-1.51,1.6l.02.02-3.5,5.12-4.32,6.32-.83,1.21-4.01-5.15-.84-1.08-.9-1.14.12-.06.18-.18.36-.24,2.1-1.62.42-.36.54-.42.6-.42,13.37-10.33h0s.42.55.42.55l.07-.03c.2.13.4.25.61.35.49.26,1.01.46,1.55.6.64.18,1.3.28,1.97.28Z"/>
      <path class="cls-4" d="m202.4,228.47l.06.12-.48.9-.06.12-.06.12-3.24.18-.12-.18-.06-.06v-.03l-.06-.09-.06-.06v-.03l-.06-.09v-.06l-.06-.12v-.06l-.06-.06v-.06l-.06-.06v-.12l-.06-.12-.06-.12v-.12l-.06-.12v-.24l-.05-.1v-.02s0-.09,0-.09v-.03l-.06-1.2-.24-4.44-.04-.63-.02-.09v-.34l-.24-4.34-.04-.91-.02-.05v-.54c1.11-.65,2.22-1.31,3.33-1.97l.03.05.42-.06.12.18.12.18.48.72v.96l.06.12v.12l-.03.07.03.41.06.84.02.42.04.6.06,1.14.06,1.14.04.95h0s0,.07,0,.07v.24l.06,1.2.06,1.2.06,1.14.04.6.02.42.06.84.06.72v.84Z"/>
      <path class="cls-6" d="m193.13,280.55c3.73,0,6.75,3.02,6.75,6.75s-3.02,6.75-6.75,6.75-6.75-3.02-6.75-6.75,3.02-6.75,6.75-6.75Zm2.79,8.4v-3.24l-.12-.06-.06-.06-.12-.06-.06-.06-.12-.06-.06-.06-.12-.06h-.06l-.12-.06-.06-.06-.12-.06-.06-.06-.06-.06h-.12l-.06-.06-.06-.06-.12-.06-.06-.06h-.12l-.06-.06-.06-.06-.12-.06-.06-.06h-.12l-.06-.06-.12-.06-.06-.06-.12-.06-.06-.06-.12-.06-.06-.06-.12-.06-.12.06-.06.06-.12.06-.12.06-.06.06-.12.06-.06.06-.12.06h-.06l-.06.06-.12.06-.06.06-.12.06h-.06l-.06.06-.12.06-.06.06-.06.06h-.12l-.06.06-.12.06-.06.06-.06.06-.12.06h-.06l-.12.06-.06.06-.12.06-.06.06-.12.06-.12.06-.06.06v3.18h0v.06l.06.06h0s.11.06.11.06l.12.06.06.06.12.06.06.06.12.06h.06l.12.06.06.06.06.06.12.06.06.06h.12l.06.06.06.06.12.06.06.06h.06l.12.06.06.06.12.06.06.06h.06l.12.06.06.06.12.06.06.06.12.06.12.06.05.05h.01s.12.07.12.07l.12-.06h.01s.05-.06.05-.06l.12-.06.06-.06.12-.06.06-.06.12-.06.06-.06h.12l.06-.06.12-.06.06-.06.06-.06h.12l.06-.06.12-.06.06-.06.06-.06h.12l.06-.06.06-.06.12-.06.06-.06.12-.06h.06l.12-.06.06-.06.12-.06.06-.06.12-.06.06-.06.12-.06Z"/>
      <polygon class="cls-4" points="198.02 230.81 198.02 230.93 190.94 231.35 188.72 229.31 171.02 230.33 171.02 230.21 170.96 229.85 170.96 229.25 170.9 228.5 173.12 227.39 188.18 219.84 189.38 219.24 193.7 217.07 193.71 217.07 197.18 215.33 197.18 215.39 197.18 215.45 197.18 215.57 197.18 215.63 197.18 215.75 197.18 215.87 197.2 215.92 197.24 216.83 197.48 221.17 197.48 221.27 197.48 221.29 197.48 221.51 197.5 221.6 197.54 222.23 197.78 226.67 197.84 227.87 197.84 227.9 197.84 227.99 197.85 228.01 197.9 228.95 197.96 229.79 197.96 230.45 198.02 230.81"/>
      <path class="cls-6" d="m195.92,288.83v.12l-.12.06-.06.06-.12.06-.06.06-.12.06-.06.06-.12.06h-.06l-.12.06-.06.06-.12.06-.06.06-.06.06h-.12l-.06.06-.06.06-.12.06-.06.06h-.12l-.06.06-.06.06-.12.06-.06.06h-.12l-.06.06-.12.06-.06.06-.12.06-.06.06-.12.06-.05.05s-.07.01-.1.01c-.05,0-.11,0-.16-.01l-.05-.05-.12-.06-.12-.06-.06-.06-.12-.06-.06-.06-.12-.06h-.06l-.06-.06-.12-.06-.06-.06-.12-.06h-.06l-.06-.06-.12-.06-.06-.06-.06-.06h-.12l-.06-.06-.12-.06-.06-.06-.06-.06-.12-.06h-.06l-.12-.06-.06-.06-.12-.06-.06-.06-.12-.06-.11-.05h0s-.03-.06-.04-.08c-.01-.01-.01-.03-.02-.04h0v-3.19l.06-.06.12-.06.12-.06.06-.06.12-.06.06-.06.12-.06h.06l.12-.06.06-.06.06-.06.12-.06.06-.06h.12l.06-.06.06-.06.12-.06.06-.06h.06l.12-.06.06-.06.12-.06.06-.06h.06l.12-.06.06-.06.12-.06.06-.06.12-.06.12-.06.06-.06.12-.06.12.06.06.06.12.06.06.06.12.06.06.06.12.06.06.06h.12l.06.06.12.06.06.06.06.06h.12l.06.06.12.06.06.06.06.06h.12l.06.06.06.06.12.06.06.06.12.06h.06l.12.06.06.06.12.06.06.06.12.06.06.06.12.06v3.12Z"/>
      <path class="cls-1" d="m193.23,290.56h-.01s-.12.07-.12.07l-.12-.06h-.01.16s.07,0,.1-.01Z"/>
      <path class="cls-2" d="m168.31,225.83c-1.64,2.19-4.22,3.48-6.95,3.48v.04s-.02.03-.03.04c-1.64,2.18-4.22,3.46-6.94,3.46l-.02-.72c2.73,0,5.14-1.36,6.59-3.45.75-1.09,1.24-2.37,1.38-3.76.03-.26.04-.53.04-.8,0-2.93-1.57-5.49-3.92-6.89-1.11-.66-2.39-1.06-3.76-1.11-.11-.01-.22-.01-.33-.01-.17,0-.34.01-.51.02l-.03-.72c.17-.01.34-.02.51-.02v-.04c1.65-2.2,4.23-3.49,6.98-3.5,2.46-3.26,6.87-4.39,10.59-2.69,3.74,1.7,5.78,5.77,4.92,9.79-.6,2.76-2.46,4.97-4.89,6.09-1.11.51-2.34.79-3.62.79h-.01Z"/>
      <path class="cls-6" d="m166.19,308.21c3.33,0,6.03,2.7,6.03,6.03s-2.7,6.03-6.03,6.03-6.03-2.7-6.03-6.03,2.7-6.03,6.03-6.03Zm2.79,7.68v-3.24l-.06-.06-.12-.06-.12-.06-.06-.06-.12-.06-.06-.06-.12-.06-.06-.06h-.12l-.06-.06-.06-.06-.12-.06-.06-.06h-.12l-.06-.06-.06-.06-.12-.06-.06-.06h-.06l-.12-.06-.06-.06-.12-.06-.06-.06-.12-.06h-.06l-.06-.06-.12-.06-.12-.06-.06-.06-.12-.06-.06-.06-.12-.06-.12.06-.06.06-.12.06-.06.06-.12.06-.12.06-.06.06h-.06l-.12.06-.06.06-.12.06-.06.06-.06.06h-.12l-.06.06-.12.06-.06.06-.06.06h-.12l-.06.06-.12.06-.06.06-.06.06h-.12l-.06.06-.12.06-.06.06-.12.06-.06.06-.12.06-.12.06-.06.06v3.18h0v.06l.06.06h.01s.11.06.11.06l.12.06.06.06.12.06.06.06h.12l.06.06.12.06.06.06.06.06.12.06h.06l.12.06.06.06.06.06.12.06h.06l.12.06.06.06.06.06.12.06h.06l.12.06.06.06.06.06.12.06.12.06.06.06h.12l.06.06.12.06.12-.06.06-.06h.12l.06-.06.12-.06.12-.06.06-.06.06-.06.12-.06h.06l.12-.06.06-.06.12-.06.06-.06h.06l.12-.06.06-.06.06-.06.12-.06h.06l.12-.06.06-.06.06-.06.12-.06.06-.06h.12l.06-.06.12-.06.06-.06.12-.06.12-.06.06-.06Z"/>
      <path class="cls-6" d="m168.98,315.77v.12l-.06.06-.12.06-.12.06-.06.06-.12.06-.06.06h-.12l-.06.06-.12.06-.06.06-.06.06-.12.06h-.06l-.12.06-.06.06-.06.06-.12.06h-.06l-.06.06-.12.06-.06.06-.12.06h-.06l-.12.06-.06.06-.06.06-.12.06-.12.06-.06.06h-.12l-.06.06-.12.06-.12-.06-.06-.06h-.12l-.06-.06-.12-.06-.12-.06-.06-.06-.06-.06-.12-.06h-.06l-.12-.06-.06-.06-.06-.06-.12-.06h-.06l-.12-.06-.06-.06-.06-.06-.12-.06h-.06l-.12-.06-.06-.06-.06-.06-.12-.06-.06-.06h-.12l-.06-.06-.12-.06-.06-.06-.12-.06-.11-.05h-.01s-.03-.06-.04-.08c0-.01,0-.03-.02-.04h0v-3.19l.06-.06.12-.06.12-.06.06-.06.12-.06.06-.06.12-.06.06-.06h.12l.06-.06.06-.06.12-.06.06-.06h.12l.06-.06.06-.06.12-.06.06-.06h.12l.06-.06.06-.06.12-.06.06-.06.12-.06h.06l.06-.06.12-.06.12-.06.06-.06.12-.06.06-.06.12-.06.12.06.06.06.12.06.06.06.12.06.12.06.06.06h.06l.12.06.06.06.12.06.06.06.12.06h.06l.06.06.12.06.06.06.06.06h.12l.06.06.12.06.06.06.06.06h.12l.06.06.12.06.06.06.12.06.06.06.12.06.12.06.06.06v3.12Z"/>
      <path class="cls-4" d="m162.38,224.12c0,.27,0,.54-.04.8-.14,1.39-.63,2.67-1.38,3.76-1.45,2.09-3.86,3.45-6.59,3.45-1.5,0-2.91-.41-4.11-1.14-2.34-1.39-3.9-3.95-3.9-6.87,0-1.66.51-3.21,1.38-4.48,1.35-2,3.57-3.35,6.12-3.51.17-.01.34-.02.51-.02.11,0,.22,0,.33.01,1.37.05,2.65.45,3.76,1.11,2.35,1.4,3.92,3.96,3.92,6.89Zm-4.36,1.48c.51-1.26.32-2.71-.48-3.8-.02-.03-.04-.05-.06-.08-.85-1.11-2.24-1.68-3.63-1.49-.03,0-.07.01-.1.02h-.01c-1.29.2-2.38,1.04-2.92,2.22h-.02v.04s-.02.02-.02.04l-.04.04v.04s0,.02,0,.03l-.05.05v.09c-.44,1.2-.26,2.53.48,3.57h0v.06h.04s.01.02.02.03v.03l.04.04s.02.01.02.02l.06.06s.03.04.06.06c.85,1.01,2.16,1.52,3.5,1.35.03,0,.07-.01.1-.02,1.35-.22,2.48-1.12,3.01-2.38,0-.01.01-.01.01-.02Z"/>
      <path class="cls-4" d="m157.54,221.8c.8,1.09.99,2.54.48,3.8,0,0-.01,0-.01.02-.53,1.26-1.66,2.16-3.01,2.38-.03.01-.07.02-.1.02-1.34.17-2.65-.34-3.5-1.35-.03-.02-.05-.04-.06-.06l-.06-.06s0-.01-.02-.02l-.04-.04v-.03s-.02-.02-.02-.03h-.04v-.05h0c-.74-1.05-.92-2.38-.48-3.58v-.09l.05-.05s0-.02,0-.03v-.04l.04-.04s.01-.03.02-.04v-.04h.02c.54-1.18,1.63-2.02,2.92-2.22h.01s.07-.02.1-.02c1.39-.19,2.78.38,3.63,1.49.02.03.04.05.06.08Z"/>
      <path class="cls-2" d="m154.37,232.13l.02.72c-1.03,1.37-2.43,2.39-3.99,2.96-.94.34-1.94.52-2.97.52-.01.01-.02.01-.02.02-.85,1.12-1.92,1.99-3.11,2.57-2.29,1.12-5.03,1.22-7.47.11-3.73-1.71-5.78-5.78-4.91-9.79.87-4.02,4.41-6.88,8.52-6.89,1.65-2.19,4.22-3.47,6.96-3.48,1.54-2.04,3.89-3.3,6.43-3.46l.03.72c-2.55.16-4.77,1.51-6.12,3.51-.87,1.27-1.38,2.82-1.38,4.48,0,2.92,1.56,5.48,3.9,6.87,1.2.73,2.61,1.14,4.11,1.14Z"/>
      <path class="cls-3" d="m247.04,134.64l-.06.05-4.8-6.24-.48-.62c-.75-.58-1.75-.74-2.67-.41l-.03.07-4.68,1.68v-.03c-1.27.45-2.44,1.09-3.5,1.91l-.04.04-10.14,7.86h-.03c-.05.22-.12.44-.2.66h-.01l-.06.06-.3.24-.36.3-.54.42-.66.48-.72.54-.72.6-.78.54-.66.54-.66.54-.54.42-.42.3-.24.18-.03.04h-.01c-.27.01-.53.03-.8.02v.06l-6.42,4.92h-.01c-.58.45-1.09.99-1.51,1.6l.02.02-3.5,5.12-4.32,6.32-.83,1.21-9.97,14.6s-.02.03-.04.05c-2.7,3.95-6.37,7.14-10.65,9.29h-.03s-69.96,35.17-69.96,35.17l-.3.12-.12.06-.12.06-.12.06-.18.12-.12.06-.12.06-.18.06-.12.06-.12.06-.18.12-.12.06-.12.06-.12.06-.18.06-.12.06-.12.06-.18.12-.12.06-.12.06-.12.06-.18.06-.12.06-.12.06-.12.06-.18.12-.12.06-.12.06-.12.06-.12.06-.12.06-.18.06-.12.06-.12.06-.12.06-.12.06-.12.12-.12.06-.12.06-.18.06-.12.06-.12.06-.12.06-.12.06-.12.06-.12.06-.12.06-.12.06-.12.06-.12.06-.06.06-.12.06-.12.06-.12.06h-.12l-.12.06-.12.06-.06.06-.12.06-.12.06-.12.06-.06.06-.12.06h-.12l-.12.06-.12.06-2.52,1.32-.24.06-.18.12-.24.12-.24.12-.24.18-.24.12-.24.18-.24.12-.24.18-.24.12-.24.18-.24.18-.24.18-.18.12-.24.18-.24.18-.24.18-.18.18-.24.18-.18.18-.78.72-8.7,7.68v.06l-.12.06-.06.06-.06.12-.12.06-.06.06-.12.06-.06.12-.12.06-.06.12-.12.06-.06.06-.12.12-.12.06-.06.06-.12.12-.06.06-.12.12-.12.06-.06.12-.12.06-.12.12-.06.06-.12.12-.12.06-.06.12-.12.06-.12.12-.12.06-.06.12-.12.06-.12.12-.12.12-.12.06-.06.12-.12.12-.12.06-.12.12-.12.06-.12.12-.06.12-.12.06-.12.12-.12.12-.12.06-.12.12-.12.12-.12.06-.06.12-.12.12-.12.12-.12.06-.12.12-.12.12-.12.06-.12.12-.12.12-.12.12-.12.06-.12.12-.12.12-.12.06-.06.12-.12.12-.12.12-.12.06-35.31,31.42-7.71,6.86h-.01c-6.94,6.25-7.55,16.95-1.33,23.94,6.24,7,16.95,7.64,23.97,1.45h-.01s13.11-11.65,13.11-11.65l1.08-.96,1.19-1.07,1.16-1.03h.01l.49-.44,6.35-5.63,17.95-15.95.06-.06.12-.12.12-.12.12-.12.12-.06.12-.12.12-.12.12-.12.06-.06.12-.12.12-.12.12-.06.12-.12.12-.12.12-.06.12-.12.12-.12.12-.12.12-.06.06-.12.12-.12.12-.06.12-.12.12-.12.12-.06.12-.12.12-.06.06-.12.12-.12.12-.06.12-.12.12-.12.06-.06.12-.12.12-.06.12-.12.06-.06.12-.12.12-.12.12-.06.06-.12.12-.06.12-.12.06-.06.12-.12.12-.06.06-.12.12-.06.12-.06.06-.12.12-.06.06-.12.12-.06.12-.06.06-.12.12-.06.06-.06.12-.12.06-.06.12-.06.06-.12.06-.06.12-.06.06-.06.12-.12,6.42-5.7.72-.66.3-.24.3-.3.3-.24.36-.24.3-.24.3-.24.36-.24.3-.24.3-.24.36-.24.36-.18.3-.24.36-.24.36-.18.36-.18.3-.24.24-.12.24-.06.18-.12.24-.12,3.48-1.74.12-.06.12-.06.06-.06.12-.06.12-.06h.06l.12-.06.12-.06.12-.06.06-.06.12-.06.12-.06.12-.06.12-.06.06-.06.12-.06h.12l.12-.06.12-.06.12-.06.12-.06.12-.06.12-.06.12-.06.12-.06.12-.06.12-.06.12-.06.12-.06.12-.06.12-.12.12-.06.12-.06.18-.06.12-.06.12-.06.12-.06.12-.06.12-.06.12-.06.18-.06.12-.06.12-.06.12-.12.12-.06.18-.06.12-.06.12-.06.12-.06.18-.06.12-.06.12-.12.12-.06.18-.06.12-.06.12-.06.12-.06.18-.06.12-.12.12-.06.18-.06.12-.06.12-.06.12-.06.18-.06.12-.12.12-.06,18.91-9.48,6.12-3.06.25-.13.02.03c3.5.63,7.11-.08,10.11-1.98v-.02s9.05-5.76,9.05-5.76v-.12l-.06-.36v-.6l-.06-.75,2.22-1.11,15.06-7.55,1.2-.6,4.32-2.17h.01l3.47-1.74c1.11-.65,2.22-1.31,3.33-1.97,1.98-1.35,3.69-3.07,5.06-5.06h.01s6.92-10.1,6.92-10.1l11.7-17.12h.01l3.19-4.66,20-29.25v-.02c2.61-3.81,2.46-8.86-.36-12.51ZM42.17,302.87c-3.13,0-5.67-2.54-5.67-5.67s2.54-5.67,5.67-5.67,5.67,2.54,5.67,5.67-2.54,5.67-5.67,5.67Zm134.66-83.92c-.6,2.76-2.46,4.97-4.89,6.09-1.11.51-2.34.79-3.62.79h0c-1.64,2.19-4.22,3.48-6.95,3.48v.04s-.02.03-.03.04c-1.64,2.18-4.22,3.46-6.94,3.46-1.03,1.37-2.43,2.39-3.99,2.96-.94.34-1.94.52-2.97.52-.01.01-.02.01-.02.02-.85,1.12-1.92,1.99-3.11,2.57-2.29,1.12-5.03,1.22-7.47.11-3.73-1.71-5.78-5.78-4.91-9.79.87-4.02,4.41-6.88,8.52-6.89,1.65-2.19,4.22-3.47,6.96-3.48,1.54-2.04,3.89-3.3,6.43-3.46.17-.01.34-.02.51-.02v-.04c1.65-2.2,4.23-3.49,6.98-3.5,2.46-3.26,6.87-4.39,10.59-2.69,3.74,1.7,5.78,5.77,4.92,9.79Zm50.64-48.1c-.08,1.68-.63,3.25-1.53,4.57-1.17,1.7-2.92,2.99-5.01,3.55-3.71,1-7.64-.52-9.73-3.74t-.02-.01c-2.22-.85-4-2.53-4.96-4.7h-.04s.03-.04.03-.04c-3.34-1.9-5.07-5.73-4.28-9.48.24-1.17.72-2.26,1.37-3.21,1.43-2.08,3.73-3.51,6.36-3.79,3.82-.4,7.47,1.7,9.03,5.22h-.03s-.24.19-.24.19l.26-.17c1.23.7,2.27,1.68,3.05,2.87,0,.01.01.01.01.02.01,0,.01,0,.01,0,3.59,1.35,5.91,4.86,5.72,8.71Zm11.14-21.7c-4.42,0-8.01-3.58-8.01-8.01s3.59-8.01,8.01-8.01,8.01,3.59,8.01,8.01-3.58,8.01-8.01,8.01Z"/>
      <path class="cls-2" d="m141.63,289.25c1.63,2.63,1.75,5.93.3,8.66h0s0,.02,0,.03c1.39,2.75,1.24,6.04-.42,8.64,1.17,2.89.72,6.18-1.19,8.64h.01c1.21,3.96-.52,8.22-4.15,10.21-3.63,2-8.15,1.17-10.84-1.98-2.68-3.14-2.79-7.72-.28-10.98,0-.01.02-.03.03-.04h0c-.76-2.45-.39-5.11.99-7.26h-.02c-.97-2.4-.83-5.09.37-7.37-1.16-2.29-1.26-4.97-.26-7.35h.04c-1.35-2.19-1.7-4.83-.92-7.27,0-.01,0-.02.01-.03h-.03c-1.55-2.05-2.11-4.66-1.56-7.16h0c-2.77-3.08-3.01-7.67-.56-11.01.21-.29.44-.56.68-.81,1.55-1.66,3.66-2.62,5.85-2.75,1.39-.08,2.81.17,4.14.78,3.74,1.71,5.78,5.82,4.89,9.83,2.08,2.3,2.79,5.54,1.84,8.5h.03s.01.03.02.04c1.86,2.48,2.27,5.76,1.06,8.62l-.05.02s.01.02.02.03h0Zm-1.63,28.53c0-.93-.16-1.83-.46-2.66-.43-1.25-1.17-2.35-2.12-3.23-1.43-1.32-3.33-2.12-5.43-2.12-1.04,0-2.04.2-2.95.57-1.24.49-2.33,1.28-3.17,2.28-1.18,1.39-1.89,3.19-1.89,5.16,0,4.43,3.59,8.01,8.01,8.01s8.01-3.58,8.01-8.01Z"/>
      <path class="cls-4" d="m139.54,315.12c.3.83.46,1.73.46,2.66,0,4.43-3.58,8.01-8.01,8.01s-8.01-3.58-8.01-8.01c0-1.97.71-3.77,1.89-5.16.84-1,1.93-1.79,3.17-2.28.91-.37,1.91-.57,2.95-.57,2.1,0,4,.8,5.43,2.12.95.88,1.69,1.98,2.12,3.23Zm-3.62,2.66c0-1.4-.75-2.7-1.96-3.4-1.22-.7-2.72-.7-3.93,0,0,0,0,0,0,.01h-.04v.02s-.03.02-.05.04h-.01c-1.09.67-1.79,1.84-1.85,3.12h-.01v.42h.01v.02c.07,1.23.71,2.35,1.73,3.02v.02h.02s.03.03.04.03v.03h.06v.06h.06l.06.06h.06s.01.01.02,0c1.17.65,2.59.64,3.76,0,.03-.01.05-.03.08-.04,1.21-.71,1.96-2,1.96-3.41Z"/>
      <path class="cls-4" d="m133.96,314.38c1.21.7,1.96,2,1.96,3.4s-.75,2.7-1.96,3.41c-.03,0-.05.03-.08.04-1.17.64-2.59.65-3.76,0-.01.01-.02,0-.02,0h-.06l-.06-.06h-.06v-.05h0s-.05-.01-.05-.01v-.03s-.03-.01-.04-.03h-.02v-.02c-1.02-.67-1.66-1.79-1.73-3.02h0s-.01-.02-.01-.02v-.42h.01c.06-1.28.76-2.45,1.85-3.12h.01s.03-.03.05-.04v-.02h.04s0-.01,0-.01c1.21-.7,2.71-.7,3.93,0Z"/>
      <path class="cls-6" d="m156.23,325.61c-.01-.48-.05-.96-.11-1.44-.1-.73-.24-1.45-.42-2.16h-.05s-8.32-31.38-8.32-31.38l-.36-1.38v-.06s-.21-.72-.21-.72l-5.62-21.24.02-.02c-1.03-3.92-4.07-6.97-7.97-8.02-1.22-.33-2.47-.44-3.7-.37-2.69.19-5.29,1.33-7.27,3.3h-.04s-.19.2-.19.2l-10.01,9.95c-.73.73-1.26,1.61-1.62,2.58l-5.27,14.34-.53,1.46s-.01.03-.02.04c-1.12,3.01-3.46,5.37-6.37,6.54-.85.35-1.76.6-2.7.73l-.05.05-4.68.66-13.54,1.91s-.05.01-.08.01c-3.48.45-7-.74-9.5-3.23h-.01s-1.08.95-1.08.95l-13.11,11.64h.01c-7.02,6.2-17.73,5.56-23.97-1.44-6.22-6.99-5.61-17.69,1.33-23.95h.01s7.71-6.85,7.71-6.85c-8.47,1.6-14.94,8.47-16.01,17.02l-.04.04-3.6,28.38h.07c-.08.69-.13,1.38-.13,2.07l-.06.03v7.44h137.52v-6.3c0-.26,0-.52-.03-.78Zm-14.29-27.67c1.39,2.75,1.24,6.04-.42,8.64,1.17,2.89.72,6.18-1.19,8.64h.01c1.21,3.96-.52,8.22-4.15,10.21-3.63,2-8.15,1.17-10.84-1.98-2.68-3.14-2.79-7.72-.28-10.98.01-.01.02-.03.03-.04h-.01c-.76-2.45-.39-5.11.99-7.26h-.02c-.97-2.4-.83-5.09.37-7.37-1.16-2.29-1.26-4.97-.26-7.35h.04c-1.35-2.19-1.7-4.83-.92-7.27,0-.01,0-.02.01-.03h-.03c-1.55-2.05-2.11-4.66-1.56-7.16h0c-2.77-3.08-3.01-7.67-.56-11.01.21-.29.44-.56.68-.81,1.55-1.66,3.66-2.62,5.85-2.75,1.39-.08,2.81.17,4.14.78,3.74,1.71,5.78,5.82,4.89,9.83,2.08,2.3,2.79,5.54,1.84,8.5h.03s.01.03.02.04c1.86,2.48,2.27,5.76,1.06,8.62l-.05.02s.01.02.02.03h0c1.63,2.64,1.75,5.94.3,8.67h0s.01.02.01.03Z"/>
      <path class="cls-6" d="m105.09,289.19l-.53,1.46s-.01.03-.02.04c-1.12,3.01-3.46,5.37-6.37,6.54h-19.61c-2.8,0-5.56-.59-8.1-1.75v-.67l6.35-5.63h.01s28.26.01,28.26.01h.01Z"/>
      <path class="cls-3" d="m78.59,297.23h19.58c-.85.35-1.76.6-2.7.73l-.05.05-4.68.66-13.54,1.91s-.05.01-.08.01c-3.48.45-7-.74-9.5-3.23h-.01s1.19-1.08,1.19-1.08l1.16-1.03h.01l.49-.44v.67c2.54,1.16,5.3,1.75,8.1,1.75h.03Z"/>
      <circle class="cls-6" cx="42.17" cy="297.2" r="5.67"/>
      <path class="cls-3" d="m319.36,250.98c1.02,2.27,1.27,4.74.83,7.07-.49,2.67-1.88,5.17-4.06,7.01-.41.34-.84.66-1.31.96h0s-.18.13-.18.13l-.18.12-.18.12-.18.12-.18.12-.18.12-.24.12-.18.12-.18.12-.18.12-.18.12-.18.12-.24.12-.18.12-.18.12-.18.12-.24.12-.18.12-.18.18-.24.12-.18.12-.18.12-.24.12-.18.18-.24.12-.24.12-.18.12-.24.18-.24.12-.24.18-.18.12-.24.18-.12.06-.12.06-.12.06-.12.06-.18.12-.07.05-.17.13-.18.12-.18.12-.18.12-.18.12-.18.12-.18.12-.18.06-.18.12-.18.12-.18.12-.18.12-.18.12-15.3,9.71-4.92,3.13-23.46,14.88v.02c-1.21.76-2.53,1.34-3.92,1.72h-.04l-42.73,11.44-15.47,4.15-2.76.73-18.36,4.92-.18.06-.18.06-.18.06-.18.06h-.18l-.18.06-.18.06-.18.06-.18.06h-.24l-.18.06-.18.06-.24.06-.18.06-.24.06-.18.06-.24.06-.18.06-.24.06-.18.06-.24.06-.18.06-.24.06h-.18l-.18.06-.24.06-.18.06-.18.06-.18.06-.24.06-.18.06h-.18l-.18.06-.18.06-.18.06-.18.06-.36.06-.36.12-.36.12-.36.06-.36.12-.34.06v.03c-.96.26-1.94.39-2.91.39h-.07c-1.93-.01-3.82-.53-5.48-1.47-1.73-.98-3.21-2.42-4.26-4.23-.9-1.56-1.4-3.26-1.51-4.97-.2-3.18.93-6.38,3.29-8.75l.24-.2.24-.3.24-.24.3-.24.24-.3.3-.24.12-.12.12-.18.12-.12.18-.12.12-.18.12-.12.18-.12.12-.18.12-.12.18-.12.12-.18.18-.12.12-.18.12-.12.18-.18.18-.12.12-.18.18-.12.12-.18.18-.18.18-.12.12-.18.18-.12.12-.18.18-.12.12-.18.12-.12.18-.12.12-.18.12-.12.12-.12.18-.12.12-.12.12-.18.12-.12.12-.12,13.5-13.5.12-.12.12-.12.12-.12.18-.12.12-.18.12-.12.12-.12.18-.12.12-.18.12-.12.18-.12.12-.18.18-.12.12-.18.18-.12.12-.18.18-.18.18-.12.12-.18.18-.12.12-.18.18-.12.12-.18.18-.12.12-.18.18-.12.12-.18.12-.12.18-.12.12-.18.12-.12.18-.12.12-.18.12-.12.12-.12.18-.12.24-.3.3-.24.24-.3.24-.24.3-.24.13-.17.11-.13h.07c1.26-1.25,2.8-2.19,4.47-2.74l.26-.08c.75-.24,1.52-.39,2.31-.46v.02l.27-.04h.42l.36-.06.36-.06h.36l.36-.06h.6l.18-.06h.42l.18-.06h.6l.18-.06h.42l.24-.06h.42l.18-.06h.48l.24-.06h.42l.18-.06h.66l.18-.06h.36l.24-.06h.54l.18-.06h.36l45.54-3.97,6.78-.59.07-.05c.49-.05.99-.12,1.48-.21l.13-.04h.12l.18-.06.18-.06h.18l.18-.06.18-.06.18-.06.18-.06.18-.06.18-.06.12-.06.18-.06.18-.06.18-.06.18-.06.06-.03c.43-.18.86-.38,1.27-.61v-.02s33.17-18.24,33.17-18.24l.18-.06.18-.12.18-.12.18-.06.18-.12.18-.12.18-.12.18-.06.18-.12.24-.12.18-.12.18-.12.24-.12.24-.12.06-.06.12-.06.12-.06.12-.06.24-.12.24-.12.24-.12.24-.18.24-.12.24-.12.18-.12.24-.12.24-.12.18-.12.24-.12.24-.12.18-.12.24-.12.18-.06.18-.12.24-.12.18-.12.24-.12.18-.12.18-.12.18-.06.24-.12.18-.12.18-.12.18-.12.24-.06.18-.12.18-.12.1-.07.08-.05.18-.06.24-.12h0c2.94-1.63,6.27-1.89,9.26-.98,2.8.83,5.29,2.68,6.89,5.38.24.41.46.83.64,1.25Zm-10.99,12.95c4.46,0,8.07-3.61,8.07-8.07s-3.61-8.07-8.07-8.07-8.07,3.61-8.07,8.07,3.61,8.07,8.07,8.07Zm-107.67,23.43c0-4.13-3.34-7.47-7.47-7.47s-7.47,3.34-7.47,7.47,3.34,7.47,7.47,7.47,7.47-3.34,7.47-7.47Zm-26.94,26.94c0-4.13-3.34-7.47-7.47-7.47s-7.47,3.34-7.47,7.47,3.34,7.47,7.47,7.47,7.47-3.34,7.47-7.47Z"/>
    </g>
  </g>
  <g id="Layer_2" data-name="Layer 2">
    <g>
      <path class="cls-5" d="m425.2,425.2C283.46,283.46,141.73,141.73,0,0"/>
      <path class="cls-5" d="m0,425.2C141.73,283.46,283.46,141.73,425.2,0"/>
    </g>
  </g>
</svg>