<?xml version="1.0" encoding="UTF-8"?>
<svg id="dark" xmlns="http://www.w3.org/2000/svg" viewBox="0 0 498.06 152.03">
  <defs>
    <style>
      .cls-1 {
        fill: #ff7300;
      }

      .cls-1, .cls-2 {
        stroke: #000;
        stroke-width: 2px;
      }

      .cls-3 {
        fill: #b3b3b3;
      }

      .cls-2 {
        fill: none;
      }
    </style>
  </defs>
  <g id="g13244">
    <path id="path11102" class="cls-2" d="m400.65,120.56l21.41-25.15"/>
    <path id="path11104" class="cls-2" d="m422.06,95.41c1.52-1.79,1.31-4.47-.48-5.99-.66-.56-1.47-.9-2.32-.99"/>
    <path id="path11106" class="cls-2" d="m419.25,88.43l-10.1-1.04"/>
    <path id="path11108" class="cls-2" d="m407.8,86.46c.26.52.77.87,1.35.93"/>
    <path id="path11110" class="cls-2" d="m407.8,86.46l-.53-1.06"/>
    <path id="path11112" class="cls-2" d="m407.27,85.4c-.29-.58-.88-.94-1.52-.94"/>
    <path id="path11114" class="cls-2" d="m365.34,84.46c-.64,0-1.23.36-1.52.94"/>
    <path id="path11116" class="cls-2" d="m405.75,84.46h-40.42"/>
    <path id="path11118" class="cls-2" d="m370.43,120.56c7.1,8.35,19.63,9.35,27.97,2.25.81-.69,1.56-1.44,2.25-2.25"/>
    <path id="path11120" class="cls-2" d="m349.02,95.41l21.41,25.15"/>
    <path id="path11122" class="cls-2" d="m351.83,88.43c-2.34.24-4.04,2.33-3.8,4.66.09.86.43,1.67.99,2.32"/>
    <path id="path11124" class="cls-2" d="m361.93,87.39l-10.1,1.04"/>
    <path id="path11126" class="cls-2" d="m361.94,87.39c.58-.06,1.09-.41,1.35-.93"/>
    <path id="path11128" class="cls-2" d="m363.81,85.4l-.53,1.06"/>
    <path id="path11326" class="cls-2" d="m396.38,129.77c1.94-2.3,3.09-5.15,3.31-8.14"/>
    <path id="path11328" class="cls-2" d="m371.41,121.63c.21,3,1.37,5.85,3.31,8.15"/>
    <path id="path12622" class="cls-2" d="m257.47,81.86h25.62"/>
    <path id="path12624" class="cls-2" d="m296.7,86.4c-3.93-2.94-8.7-4.54-13.61-4.54"/>
    <path id="path12626" class="cls-2" d="m326.36,116.52c-8.32-11.47-18.32-21.62-29.65-30.12"/>
    <path id="path12628" class="cls-2" d="m321.77,125.52c3.13,0,5.67-2.54,5.67-5.67,0-1.2-.38-2.36-1.08-3.33"/>
    <path id="path12630" class="cls-2" d="m321.77,125.52h-102.97"/>
    <path id="path12632" class="cls-2" d="m214.21,116.52c-1.84,2.53-1.28,6.08,1.26,7.92.97.7,2.13,1.08,3.33,1.08"/>
    <path id="path12634" class="cls-2" d="m243.87,86.4c-11.33,8.5-21.33,18.65-29.65,30.12"/>
    <path id="path12636" class="cls-2" d="m257.47,81.87c-4.91,0-9.68,1.59-13.61,4.54"/>
    <path id="path12638" class="cls-2" d="m480.05,105.68c0-9.39-7.61-17.01-17.01-17.01-9.39,0-17.01,7.61-17.01,17.01h0c0,9.39,7.61,17.01,17.01,17.01s17.01-7.61,17.01-17.01Z"/>
    <path id="path12640" class="cls-2" d="m94.54,105.68c0-9.39-7.62-17-17.02-17-9.39,0-17,7.61-17,17,0,9.39,7.62,17,17.02,17,9.39,0,17-7.61,17-17Z"/>
    <path id="path12642" class="cls-2" d="m412.01,85.83h22.21"/>
    <path id="path12644" class="cls-2" d="m439.17,95.62c2.01-2.73,1.43-6.58-1.3-8.59-1.06-.78-2.33-1.2-3.64-1.2"/>
    <path id="path12646" class="cls-2" d="m409.64,125.29c11.26-8.37,21.21-18.37,29.53-29.67"/>
    <path id="path12648" class="cls-2" d="m396.1,129.77c4.88,0,9.62-1.57,13.53-4.48"/>
    <path id="path12650" class="cls-2" d="m396.1,129.77h-24.86"/>
    <path id="path12652" class="cls-2" d="m357.7,125.29c3.91,2.91,8.66,4.48,13.53,4.48"/>
    <path id="path12654" class="cls-2" d="m328.18,95.62c8.32,11.3,18.27,21.29,29.53,29.67"/>
    <path id="path12656" class="cls-2" d="m333.12,85.83c-3.39,0-6.14,2.75-6.14,6.14,0,1.31.42,2.59,1.2,3.64"/>
    <path id="path12658" class="cls-2" d="m333.12,85.83h22.2"/>
    <path id="path12660" class="cls-2" d="m355.33,85.83c3.13,0,5.67-2.54,5.67-5.67h0"/>
    <path id="path12662" class="cls-2" d="m360.99,80.16v-11.34"/>
    <path id="path12664" class="cls-2" d="m360.99,68.83c0-4.7-3.81-8.5-8.5-8.5h0"/>
    <path id="path12666" class="cls-2" d="m352.49,60.32h-164.41"/>
    <path id="path12668" class="cls-2" d="m188.08,60.32c-4.7,0-8.5,3.81-8.5,8.5h0"/>
    <path id="path12670" class="cls-2" d="m179.57,68.83v11.34"/>
    <path id="path12672" class="cls-2" d="m179.58,80.16c0,3.13,2.54,5.67,5.67,5.67h0"/>
    <path id="path12674" class="cls-2" d="m185.24,85.83h22.2"/>
    <path id="path12676" class="cls-2" d="m212.4,95.62c2.01-2.73,1.43-6.58-1.3-8.59-1.06-.78-2.33-1.2-3.64-1.2"/>
    <path id="path12678" class="cls-2" d="m182.87,125.29c11.26-8.37,21.21-18.37,29.53-29.67"/>
    <path id="path12680" class="cls-2" d="m169.33,129.77c4.88,0,9.62-1.57,13.53-4.48"/>
    <path id="path12682" class="cls-2" d="m169.33,129.77h-24.87"/>
    <path id="path12684" class="cls-2" d="m130.93,125.29c3.91,2.91,8.66,4.48,13.53,4.48"/>
    <path id="path12686" class="cls-2" d="m101.4,95.62c8.32,11.3,18.27,21.29,29.53,29.67"/>
    <path id="path12688" class="cls-2" d="m106.35,85.83c-3.39,0-6.14,2.75-6.14,6.14,0,1.31.42,2.59,1.2,3.64"/>
    <path id="path12690" class="cls-2" d="m106.35,85.83h22.2"/>
    <path id="path12692" class="cls-2" d="m128.55,85.83c3.13,0,5.67-2.54,5.67-5.67h0"/>
    <path id="path12694" class="cls-2" d="m134.22,80.16v-11.34"/>
    <path id="path12696" class="cls-2" d="m134.22,68.83c0-4.7-3.81-8.5-8.5-8.5h0"/>
    <path id="path12698" class="cls-2" d="m125.72,60.32h-59.53"/>
    <path id="path12700" class="cls-2" d="m66.19,60.32c-12.52,0-22.68,10.15-22.68,22.68h0"/>
    <path id="path12702" class="cls-2" d="m43.51,83v45.35"/>
    <path id="path12704" class="cls-2" d="m43.51,128.35c0,12.52,10.15,22.68,22.68,22.68h0"/>
    <path id="path12706" class="cls-2" d="m66.19,151.03h202.39"/>
    <polyline class="cls-1" points="268.58 151.03 271.98 151.03 474.38 151.03"/>
    <path id="path12714" class="cls-2" d="m474.38,151.03c12.52,0,22.68-10.15,22.68-22.68"/>
    <path id="path12716" class="cls-2" d="m497.05,128.35v-45.35"/>
    <path id="path12718" class="cls-2" d="m497.06,83c0-12.52-10.15-22.68-22.68-22.68"/>
    <path id="path12720" class="cls-2" d="m474.38,60.32h-59.53"/>
    <path id="path12722" class="cls-2" d="m414.85,60.32c-4.7,0-8.5,3.81-8.5,8.5h0"/>
    <path id="path12724" class="cls-2" d="m406.35,68.83v11.34"/>
    <path id="path12726" class="cls-2" d="m406.35,80.16c0,3.13,2.54,5.67,5.67,5.67h0"/>
    <path id="path12970" class="cls-2" d="m399.61,82.01s.05.04.05.06c.01.09-.36.19-1.09.29-.7.1-1.72.19-3,.28-1.33.09-2.92.19-4.67.29-1.69.1-3.49.19-5.32.28-1.89.09-3.77.19-5.52.29-1.69.1-3.22.19-4.52.28-1.35.09-2.42.19-3.15.29-.7.1-1.07.19-1.09.28,0,0,0,0,0,0"/>
    <path id="path12972" class="cls-2" d="m399.61,77.48s.05.04.05.06c0,.09-.38.19-1.12.29-.71.1-1.74.19-3.03.28-1.34.09-2.93.19-4.69.29-1.69.1-3.5.19-5.32.28-1.9.09-3.77.19-5.52.29-1.68.1-3.21.19-4.5.28-1.34.09-2.4.19-3.12.29-.69.1-1.05.19-1.05.28h0"/>
    <path id="path12974" class="cls-2" d="m399.61,72.94s.05.04.05.06c-.01.09-.4.19-1.14.29-.72.1-1.75.19-3.05.28-1.35.09-2.95.19-4.7.29-1.69.1-3.5.19-5.32.28-1.9.09-3.77.19-5.52.29-1.68.1-3.2.19-4.49.28-1.34.09-2.39.19-3.1.29-.68.09-1.03.19-1.03.28"/>
    <path id="path12976" class="cls-2" d="m399.61,68.4s.06.05.05.07c-.03.09-.43.19-1.19.29-.73.1-1.78.19-3.08.28-1.36.09-2.96.19-4.73.29-1.7.1-3.51.19-5.33.28-1.89.09-3.77.19-5.5.29-1.67.1-3.19.19-4.46.28-1.33.09-2.37.19-3.06.29-.65.09-.99.18-.99.27"/>
    <path id="path12978" class="cls-2" d="m399.61,63.87s.06.05.05.08c-.05.09-.46.18-1.2.28-.76.1-1.86.19-3.22.29-1.33.09-2.89.18-4.59.28-1.75.1-3.63.19-5.51.29-1.83.09-3.63.18-5.31.28-1.73.1-3.29.19-4.59.29-1.31.09-2.33.19-3,.29-.61.09-.92.18-.92.26"/>
    <path id="path12980" class="cls-2" d="m399.61,59.33c.06.03.07.07.03.1-.1.09-.56.19-1.35.28-.8.1-1.93.19-3.32.28-1.36.09-2.95.19-4.67.28-1.76.1-3.63.19-5.5.28-1.83.09-3.63.19-5.29.28-1.7.1-3.22.19-4.49.28-1.24.09-2.2.19-2.83.28-.58.09-.88.17-.88.25"/>
    <path id="path12982" class="cls-2" d="m399.61,54.8c.07.04.07.09-.01.13-.18.09-.71.19-1.57.28-.86.1-2.04.19-3.46.28-1.41.09-3.04.19-4.8.28-1.77.1-3.63.19-5.48.28-1.83.09-3.62.19-5.25.28-1.65.1-3.13.19-4.33.28-1.19.09-2.1.19-2.68.28-.47.08-.71.15-.71.23"/>
    <path id="path12984" class="cls-2" d="m399.61,50.26c.1.06.06.11-.11.17-.28.09-.91.19-1.87.29-.95.09-2.19.18-3.66.27-1.48.09-3.17.19-4.96.29-1.78.1-3.63.18-5.45.27-1.83.09-3.6.19-5.2.29-1.59.1-2.99.18-4.11.28-1.13.09-1.96.19-2.45.29-.33.07-.5.13-.5.19"/>
    <path id="path12986" class="cls-2" d="m399.61,45.73c.12.07.03.14-.27.21-.39.1-1.14.19-2.2.29-1.04.09-2.35.18-3.88.27-1.56.1-3.3.19-5.13.29-1.79.09-3.63.18-5.42.27-1.82.1-3.56.19-5.1.29-1.52.09-2.82.18-3.85.27-1.04.1-1.77.19-2.15.29-.2.05-.29.1-.29.14"/>
    <path id="path12988" class="cls-2" d="m399.61,41.19c.15.08-.01.17-.47.25-.5.1-1.36.2-2.52.29-1.12.09-2.51.18-4.09.27-1.62.1-3.42.2-5.28.29-1.8.09-3.63.18-5.39.27-1.81.1-3.51.2-4.99.29-1.44.09-2.66.18-3.59.27-.95.1-1.58.2-1.84.29-.09.03-.14.07-.14.1"/>
    <path id="path12990" class="cls-2" d="m399.61,36.66s.02.01.02.01c.12.09-.11.18-.68.27-.59.1-1.53.2-2.76.29-1.19.09-2.63.18-4.25.27-1.68.1-3.51.2-5.38.29-1.81.09-3.63.18-5.36.27-1.79.1-3.45.2-4.89.29-1.38.09-2.53.18-3.37.27-.87.1-1.41.2-1.57.29-.04.02-.05.04-.05.06"/>
    <path id="path12992" class="cls-2" d="m371.37,39.61s-.05-.04-.05-.06c.01-.09.4-.19,1.15-.29.72-.1,1.76-.19,3.05-.28,1.35-.09,2.95-.19,4.71-.29,1.69-.1,3.5-.19,5.32-.28,1.9-.09,3.77-.19,5.51-.29,1.68-.1,3.2-.19,4.48-.28,1.34-.09,2.39-.19,3.09-.29.67-.09,1.02-.19,1.02-.28"/>
    <path id="path12994" class="cls-2" d="m371.37,44.15s-.06-.05-.05-.07c.03-.09.44-.19,1.21-.29.74-.1,1.79-.19,3.1-.28,1.36-.09,2.97-.19,4.73-.29,1.7-.1,3.51-.19,5.33-.28,1.89-.09,3.76-.19,5.5-.29,1.67-.1,3.18-.19,4.45-.28,1.32-.09,2.36-.19,3.05-.29.65-.09.98-.18.98-.27"/>
    <path id="path12996" class="cls-2" d="m371.37,48.68s-.06-.06-.04-.09c.07-.09.51-.19,1.31-.29.77-.09,1.84-.19,3.17-.28,1.38-.09,3-.19,4.78-.29,1.71-.09,3.52-.19,5.34-.28,1.89-.09,3.75-.19,5.47-.29,1.65-.09,3.15-.19,4.4-.28,1.3-.09,2.31-.19,2.97-.29.6-.09.9-.17.9-.26"/>
    <path id="path12998" class="cls-2" d="m371.37,53.22c-.06-.04-.07-.07-.02-.11.13-.09.63-.19,1.47-.29.81-.09,1.93-.18,3.3-.27,1.41-.09,3.06-.19,4.85-.29,1.72-.09,3.54-.18,5.35-.27,1.88-.09,3.72-.19,5.42-.29,1.63-.09,3.09-.18,4.31-.27,1.26-.09,2.23-.19,2.84-.29.52-.08.78-.16.78-.24"/>
    <path id="path13000" class="cls-2" d="m371.37,57.75c-.08-.05-.07-.09.04-.14.21-.09.8-.19,1.71-.29.89-.09,2.07-.18,3.48-.27,1.46-.09,3.14-.19,4.94-.29,1.74-.09,3.57-.18,5.37-.27,1.87-.09,3.68-.19,5.33-.29,1.6-.09,3.01-.18,4.17-.27,1.2-.09,2.09-.19,2.64-.29.4-.07.61-.14.61-.21"/>
    <path id="path13002" class="cls-2" d="m371.37,62.29c-.11-.06-.05-.12.16-.18.32-.1,1.01-.19,2.01-.29.98-.09,2.24-.18,3.73-.27,1.52-.09,3.24-.19,5.06-.29,1.77-.09,3.61-.18,5.4-.27,1.84-.09,3.61-.19,5.2-.29,1.55-.09,2.9-.18,3.98-.27,1.11-.09,1.91-.19,2.35-.29.27-.06.41-.11.41-.17"/>
    <path id="path13004" class="cls-2" d="m371.37,66.82c-.13-.08-.01-.15.35-.23.44-.1,1.23-.19,2.32-.29,1.08-.09,2.44-.18,4-.27,1.58-.1,3.33-.19,5.16-.29,1.81-.09,3.65-.18,5.44-.27,1.81-.1,3.52-.19,5.03-.29,1.49-.09,2.77-.18,3.76-.27,1-.1,1.69-.19,2.01-.29.15-.04.22-.08.22-.13"/>
    <path id="path13006" class="cls-2" d="m371.37,71.36c-.16-.09.04-.18.57-.27.54-.1,1.42-.19,2.58-.28,1.17-.09,2.61-.18,4.24-.28,1.62-.1,3.4-.19,5.23-.29,1.84-.09,3.69-.18,5.47-.28,1.77-.1,3.42-.19,4.86-.29,1.44-.09,2.65-.18,3.55-.28s1.47-.19,1.69-.29c.07-.03.1-.06.1-.08"/>
    <path id="path13008" class="cls-2" d="m371.37,75.89s-.02-.01-.03-.02c-.1-.09.17-.18.79-.28.61-.1,1.55-.19,2.77-.28,1.24-.09,2.74-.18,4.43-.28,1.65-.1,3.44-.19,5.28-.28,1.86-.09,3.73-.18,5.49-.28,1.74-.1,3.34-.19,4.72-.28,1.4-.09,2.55-.18,3.38-.28.81-.1,1.3-.19,1.43-.28.03-.02.04-.03.04-.05"/>
    <path id="path13010" class="cls-2" d="m371.37,80.43s-.04-.03-.05-.04c-.05-.09.25-.18.88-.28.66-.1,1.67-.2,2.96-.29,1.25-.09,2.74-.18,4.39-.28,1.72-.1,3.57-.2,5.46-.29,1.82-.09,3.63-.18,5.34-.28,1.77-.1,3.4-.2,4.79-.29,1.33-.09,2.41-.18,3.18-.27.8-.1,1.25-.2,1.33-.29.01,0,.01-.02.01-.03"/>
    <path id="path13012" class="cls-2" d="m373.92,84.46c.42-.04.9-.07,1.41-.11,1.27-.09,2.78-.18,4.45-.28,1.73-.1,3.6-.2,5.49-.29,1.82-.09,3.63-.18,5.33-.28,1.77-.1,3.38-.2,4.74-.29,1.31-.09,2.36-.18,3.1-.28.77-.1,1.18-.2,1.22-.29h0"/>
    <path id="path13014" class="cls-2" d="m362.81,1h45.36"/>
    <path id="path13016" class="cls-2" d="m361.4,2.42h48.18"/>
    <path id="path13018" class="cls-2" d="m361.4,27.93h48.18"/>
    <path id="path13020" class="cls-2" d="m396.56,84.46s.07-.03.1-.04"/>
    <path id="path13022" class="cls-2" d="m374.27,36.72c0-.19,1.1-.38,3.29-.57,2.19-.19,4.84-.38,7.94-.57"/>
    <path id="path13024" class="cls-2" d="m399.66,36.72v.57"/>
    <path id="path13026" class="cls-2" d="m399.66,41.25v.57"/>
    <path id="path13028" class="cls-2" d="m399.66,45.79v.57"/>
    <path id="path13030" class="cls-2" d="m399.66,50.32v.57"/>
    <path id="path13032" class="cls-2" d="m399.66,54.86v.57"/>
    <path id="path13034" class="cls-2" d="m399.66,59.39v.57"/>
    <path id="path13036" class="cls-2" d="m399.66,63.93v.57"/>
    <path id="path13038" class="cls-2" d="m399.66,68.46v.57"/>
    <path id="path13040" class="cls-2" d="m399.66,73v.57"/>
    <path id="path13042" class="cls-2" d="m399.66,77.54v.57"/>
    <path id="path13044" class="cls-2" d="m399.66,82.07v.57"/>
    <path id="path13046" class="cls-2" d="m371.32,38.98v.57"/>
    <path id="path13048" class="cls-2" d="m371.32,43.52v.57"/>
    <path id="path13050" class="cls-2" d="m371.32,48.05v.57"/>
    <path id="path13052" class="cls-2" d="m371.32,52.59v.57"/>
    <path id="path13054" class="cls-2" d="m371.32,57.13v.57"/>
    <path id="path13056" class="cls-2" d="m371.32,61.66v.57"/>
    <path id="path13058" class="cls-2" d="m371.32,66.2v.57"/>
    <path id="path13060" class="cls-2" d="m371.32,70.73v.57"/>
    <path id="path13062" class="cls-2" d="m371.32,75.27v.57"/>
    <path id="path13064" class="cls-2" d="m371.32,79.8v.57"/>
    <path id="path13066" class="cls-2" d="m371.32,84.34v.12"/>
    <path id="path13068" class="cls-2" d="m408.17,1l1.41,1.42"/>
    <path id="path13070" class="cls-2" d="m362.81,1l-1.41,1.42"/>
    <path id="path13072" class="cls-2" d="m409.58,2.42v25.51"/>
    <path id="path13074" class="cls-2" d="m361.4,2.42v25.51"/>
    <path id="path13076" class="cls-2" d="m362.81,29.35l-1.41-1.42"/>
    <path id="path13078" class="cls-2" d="m408.17,29.35l1.41-1.42"/>
    <path id="path13080" class="cls-2" d="m374.26,82.6v-.53"/>
    <path id="path13082" class="cls-2" d="m374.26,78.07v-.53"/>
    <path id="path13084" class="cls-2" d="m374.26,73.53v-.53"/>
    <path id="path13086" class="cls-2" d="m374.26,68.99v-.53"/>
    <path id="path13088" class="cls-2" d="m374.26,64.46v-.53"/>
    <path id="path13090" class="cls-2" d="m374.26,59.92v-.53"/>
    <path id="path13092" class="cls-2" d="m374.26,55.39v-.53"/>
    <path id="path13094" class="cls-2" d="m374.26,50.85v-.53"/>
    <path id="path13096" class="cls-2" d="m374.26,46.32v-.53"/>
    <path id="path13098" class="cls-2" d="m374.26,41.78v-.53"/>
    <path id="path13100" class="cls-2" d="m374.26,37.25v-.53"/>
    <path id="path13102" class="cls-2" d="m396.72,84.46v-.08"/>
    <path id="path13104" class="cls-2" d="m396.72,80.37v-.53"/>
    <path id="path13106" class="cls-2" d="m396.72,75.83v-.53"/>
    <path id="path13108" class="cls-2" d="m396.72,71.3v-.53"/>
    <path id="path13110" class="cls-2" d="m396.72,66.76v-.53"/>
    <path id="path13112" class="cls-2" d="m396.72,62.23v-.53"/>
    <path id="path13114" class="cls-2" d="m396.72,57.69v-.53"/>
    <path id="path13116" class="cls-2" d="m396.72,53.16v-.53"/>
    <path id="path13118" class="cls-2" d="m396.72,48.62v-.53"/>
    <path id="path13120" class="cls-2" d="m396.72,44.09v-.53"/>
    <path id="path13122" class="cls-2" d="m396.72,39.55v-.53"/>
    <path id="path13124" class="cls-2" d="m371.37,84.28c.99-.57,1.97-1.14,2.96-1.72"/>
    <path id="path13126" class="cls-2" d="m371.37,79.74c.99-.57,1.97-1.14,2.96-1.72"/>
    <path id="path13128" class="cls-2" d="m371.37,75.21c.99-.57,1.97-1.14,2.96-1.72"/>
    <path id="path13130" class="cls-2" d="m371.37,70.67c.99-.57,1.97-1.14,2.96-1.72"/>
    <path id="path13132" class="cls-2" d="m371.37,66.14c.99-.57,1.97-1.14,2.96-1.72"/>
    <path id="path13134" class="cls-2" d="m371.37,61.6c.99-.57,1.97-1.14,2.96-1.72"/>
    <path id="path13136" class="cls-2" d="m371.37,57.07c.99-.57,1.97-1.14,2.96-1.72"/>
    <path id="path13138" class="cls-2" d="m371.37,52.53c.99-.57,1.97-1.14,2.96-1.72"/>
    <path id="path13140" class="cls-2" d="m371.37,48c.99-.57,1.97-1.14,2.96-1.72"/>
    <path id="path13142" class="cls-2" d="m371.37,43.46c.99-.57,1.97-1.14,2.96-1.72"/>
    <path id="path13144" class="cls-2" d="m371.37,38.92c.99-.57,1.97-1.14,2.96-1.72"/>
    <path id="path13146" class="cls-2" d="m396.72,80.33c.96.56,1.93,1.12,2.89,1.68"/>
    <path id="path13148" class="cls-2" d="m396.72,75.8c.96.56,1.93,1.12,2.89,1.68"/>
    <path id="path13150" class="cls-2" d="m396.72,71.26c.96.56,1.93,1.12,2.89,1.68"/>
    <path id="path13152" class="cls-2" d="m396.72,66.73c.96.56,1.93,1.12,2.89,1.68"/>
    <path id="path13154" class="cls-2" d="m396.72,62.19c.96.56,1.93,1.12,2.89,1.68"/>
    <path id="path13156" class="cls-2" d="m396.72,57.66c.96.56,1.93,1.12,2.89,1.68"/>
    <path id="path13158" class="cls-2" d="m396.72,53.12c.96.56,1.93,1.12,2.89,1.68"/>
    <path id="path13160" class="cls-2" d="m396.72,48.58c.96.56,1.93,1.12,2.89,1.68"/>
    <path id="path13162" class="cls-2" d="m396.72,44.05c.96.56,1.93,1.12,2.89,1.68"/>
    <path id="path13164" class="cls-2" d="m396.72,39.51c.96.56,1.93,1.12,2.89,1.68"/>
    <path id="path13166" class="cls-2" d="m397.76,35.58c.62.36,1.23.72,1.85,1.07"/>
    <path id="path13168" class="cls-2" d="m374.27,82.11c-.96-.56-1.93-1.12-2.89-1.68"/>
    <path id="path13170" class="cls-2" d="m374.27,77.57c-.96-.56-1.93-1.12-2.89-1.68"/>
    <path id="path13172" class="cls-2" d="m374.27,73.04c-.96-.56-1.93-1.12-2.89-1.68"/>
    <path id="path13174" class="cls-2" d="m374.27,68.5c-.96-.56-1.93-1.12-2.89-1.68"/>
    <path id="path13176" class="cls-2" d="m374.27,63.97c-.96-.56-1.93-1.12-2.89-1.68"/>
    <path id="path13178" class="cls-2" d="m374.27,59.43c-.96-.56-1.93-1.12-2.89-1.68"/>
    <path id="path13180" class="cls-2" d="m374.27,54.9c-.96-.56-1.93-1.12-2.89-1.68"/>
    <path id="path13182" class="cls-2" d="m374.27,50.36c-.96-.56-1.93-1.12-2.89-1.68"/>
    <path id="path13184" class="cls-2" d="m374.27,45.83c-.96-.56-1.93-1.12-2.89-1.68"/>
    <path id="path13186" class="cls-2" d="m374.27,41.29c-.96-.56-1.93-1.12-2.89-1.68"/>
    <path id="path13188" class="cls-2" d="m374.27,36.75c-.67-.39-1.35-.78-2.02-1.17"/>
    <path id="path13190" class="cls-2" d="m399.61,37.34c-.99.57-1.97,1.14-2.96,1.72"/>
    <path id="path13192" class="cls-2" d="m399.61,41.88c-.99.57-1.97,1.14-2.96,1.72"/>
    <path id="path13194" class="cls-2" d="m399.61,46.41c-.99.57-1.97,1.14-2.96,1.72"/>
    <path id="path13196" class="cls-2" d="m399.61,50.95c-.99.57-1.97,1.14-2.96,1.72"/>
    <path id="path13198" class="cls-2" d="m399.61,55.49c-.99.57-1.97,1.14-2.96,1.72"/>
    <path id="path13200" class="cls-2" d="m399.61,60.02c-.99.57-1.97,1.14-2.96,1.72"/>
    <path id="path13202" class="cls-2" d="m399.61,64.56c-.99.57-1.97,1.14-2.96,1.72"/>
    <path id="path13204" class="cls-2" d="m399.61,69.09c-.99.57-1.97,1.14-2.96,1.72"/>
    <path id="path13206" class="cls-2" d="m399.61,73.63c-.99.57-1.97,1.14-2.96,1.72"/>
    <path id="path13208" class="cls-2" d="m399.61,78.16c-.99.57-1.97,1.14-2.96,1.72"/>
    <path id="path13210" class="cls-2" d="m399.61,82.7c-.99.57-1.97,1.14-2.96,1.72"/>
    <path id="path13228" class="cls-2" d="m413.21,29.35h-55.44"/>
    <path id="path13230" class="cls-2" d="m357.77,35.58h55.44"/>
    <path id="path13232" class="cls-2" d="m413.84,29.97c0-.34-.28-.62-.62-.62"/>
    <path id="path13234" class="cls-2" d="m357.77,29.35c-.34,0-.62.28-.62.62"/>
    <path id="path13236" class="cls-2" d="m413.22,35.58c.34,0,.62-.28.62-.62"/>
    <path id="path13238" class="cls-2" d="m357.15,34.96c0,.34.28.62.62.62"/>
    <path id="path13240" class="cls-2" d="m357.14,34.96v-4.99"/>
    <path id="path13242" class="cls-2" d="m413.84,34.96v-4.99"/>
  </g>
  <path id="path15016" class="cls-2" d="m151.75,61.78h31.58"/>
  <path id="path15020" class="cls-2" d="m130.5,61.78h21.25"/>
  <path id="path15050" class="cls-2" d="m58.17,61.78H1V16.43h202.46"/>
  <path id="path15052" class="cls-2" d="m239.94,16.43h-36.48"/>
  <path id="path15054" class="cls-2" d="m409.58,16.43h11.78"/>
  <path id="path15054-2" data-name="path15054" class="cls-2" d="m239.94,16.43h121.46"/>
  <path id="path15056" class="cls-2" d="m460.47,16.43h-39.11"/>
  <path id="path15058" class="cls-2" d="m463.88,58.95l-1.38,1.38"/>
  <path id="path15060" class="cls-2" d="m421.36,58.95h42.52"/>
  <path id="path15062" class="cls-2" d="m421.36,58.95h-181.42"/>
  <path id="path15064" class="cls-2" d="m201.26,58.95h38.68"/>
  <path id="path15066" class="cls-2" d="m201.26,58.95H1"/>
  <path id="path15108" class="cls-2" d="m151.75,31.55c-4.88,1.26-9.67,1.89-14.38,1.89H1"/>
  <path id="path15114" class="cls-2" d="m200.16,19.96c.38-.09.75-.13,1.1-.13"/>
  <path id="path15116" class="cls-2" d="m200.16,19.96c-.17.04-.34.08-.51.12-4.21.97-10.39,2.37-17.34,3.99-6.3,1.47-13.89,3.28-21.74,5.24-2.92.73-5.88,1.48-8.82,2.24"/>
  <path id="path15118" class="cls-2" d="m201.26,19.83h38.68"/>
  <path id="path15120" class="cls-2" d="m361.4,19.83h-121.46"/>
  <path id="path15120-2" data-name="path15120" class="cls-2" d="m421.36,19.83h-11.78"/>
  <path id="path15122" class="cls-2" d="m463.88,58.95V19.83"/>
  <path id="path15124" class="cls-2" d="m421.36,19.83h42.52"/>
  <path id="path15128" class="cls-2" d="m460.47,16.43l3.41,3.4"/>
  <path id="path16272" class="cls-2" d="m352.5,60.32h-164.41"/>
  <path id="path16304" class="cls-2" d="m125.73,60.32h-59.53"/>
  <path id="path16326" class="cls-2" d="m474.39,60.32h-59.53"/>
  <path id="path23944" class="cls-3" d="m327.01,19.17c3.38,0,8.92,0,12.31,0s.62,0-6.15,0-9.54,0-6.15,0Z"/>
  <path id="path23966" class="cls-3" d="m236.06,19.25v-.07h17.4v.15h-17.4v-.07Z"/>
</svg>