<?xml version="1.0" encoding="UTF-8"?>
<svg id="Layer_1" data-name="Layer 1" xmlns="http://www.w3.org/2000/svg" viewBox="0 0 238 260">
  <defs>
    <style>
      .cls-1 {
        fill: #989898;
      }

      .cls-2 {
        fill: none;
        stroke: #000;
        stroke-linecap: round;
        stroke-linejoin: round;
        stroke-width: .71px;
      }

      .cls-3 {
        fill: #333;
      }

      .cls-4 {
        fill: #676767;
      }

      .cls-5 {
        fill: #999;
      }

      .cls-6 {
        fill: #ccc;
      }

      .cls-7 {
        fill: #cccccb;
      }

      .cls-8 {
        fill: #e65025;
      }
    </style>
  </defs>
  <g id="LWPOLYLINE">
    <g>
      <g>
        <path class="cls-1" d="m233.36,187.25l1.15,2.58-7.16,18.68-2.57,1.15-7.67-2.94-.46-1.03,2.98-7.77c1.3-1.51,2.02-3.42,2.05-5.37h.01l2.98-7.77,1.03-.46,7.66,2.93Z"/>
        <path class="cls-4" d="m225.67,182.16l-1,2.62-2.98,7.77h-.01c.04-1.62-.39-3.26-1.32-4.73-2.4-3.79-7.34-5.06-11.27-2.9l-32.16,17.71-12.52,1.1h0s4.49-11.71,4.49-11.71l7.47,2.86,11.64-30.37,35.93,13.78,1.73,3.87Z"/>
        <circle class="cls-1" cx="213.19" cy="192.37" r="5"/>
        <polygon class="cls-1" points="216.93 247.2 216.93 254.1 216.43 254.6 3.93 254.6 3.43 254.1 3.43 249.6 6.43 246.6 8.93 246.6 105.93 246.6 216.33 246.6 216.93 247.2"/>
        <path class="cls-4" d="m216.65,205.69l-1,2.62-21.96,9.79-3.21-1.24,27.27-17.31c.72-.46,1.35-1.01,1.88-1.63l-2.98,7.77Z"/>
        <polygon class="cls-8" points="187.39 163.35 188.01 164.51 176.37 194.88 168.9 192.02 180.54 161.65 180.55 161.65 181.78 161.2 187.39 163.35"/>
        <polygon class="cls-4" points="170.36 158.82 171.65 158.24 180.54 161.65 168.9 192.02 164.41 203.72 164.41 203.73 157.72 204.31 154.47 203.06 153.9 201.77 159.09 188.23 170.18 159.29 170.36 158.82"/>
        <path class="cls-1" d="m161.4,168.23l-2.87,7.47-.51-.19-2.17-.84c.16-.65.33-1.31.49-1.97.36-1.46.75-2.97,1.11-4.43.12-.47.24-.94.35-1.41l3.6,1.37Z"/>
        <path class="cls-1" d="m170.18,159.29l-11.09,28.94-1.5-.57.25-.67h.01l2.35-6.13s.02-.05.02-.07l7.57-19.74.9-2.34,1.49.58Z"/>
        <path class="cls-6" d="m162.96,172.96c-.5,1.4-1,2.83-1.47,4.16-.45,1.31-.88,2.56-1.27,3.67,0,.02,0,.05-.02.07l-2.35,6.13h-.01c-.1.03-.2.05-.31.05-.11-.01-.23-.03-.34-.07s-.21-.1-.29-.17c-.09-.08-.16-.16-.22-.25-.05-.09-.08-.18-.11-.26-.02-.07-.03-.14-.03-.19-.01-.06-.01-.11-.01-.16.01-.07.01-.13.02-.19.03-.16.06-.31.12-.51.04-.16.09-.34.16-.55.05-.18.12-.39.19-.62.24-.77.58-1.78.98-2.95.36-1.08.79-2.32,1.25-3.64.46-1.31.95-2.71,1.45-4.12.49-1.4.99-2.84,1.47-4.2s.94-2.69,1.35-3.87c.4-1.18.77-2.26,1.06-3.14.3-.88.53-1.6.67-2.08l-.26-.1-.48,1.26-.15.07s0-.01.01-.02c.35-.79.62-1.39.83-1.8.1-.19.17-.34.26-.48.04-.05.07-.11.13-.17.04-.05.1-.11.19-.18.04-.03.1-.07.16-.1.08-.04.17-.07.27-.09s.21-.02.31-.01c.11.01.22.05.32.1.11.05.2.12.28.2.08.07.14.17.18.25.05.09.07.17.09.25.01.07.02.12.02.17.01.07,0,.12,0,.16-.01.09-.02.15-.03.22-.04.21-.1.43-.18.72-.02.09-.05.18-.08.27-.1.33-.22.72-.37,1.16-.27.83-.62,1.88-1.03,3.07-.39,1.14-.83,2.42-1.3,3.77-.47,1.33-.97,2.76-1.46,4.17Z"/>
        <polygon class="cls-1" points="164.51 161.23 156.17 182.99 156.11 182.85 155.94 182.47 158.53 175.7 161.4 168.23 163.99 161.46 164.36 161.3 164.51 161.23"/>
        <path class="cls-1" d="m156.17,182.99l8.34-21.76.48-1.26.26.1c-.14.48-.37,1.2-.67,2.08-.29.88-.66,1.96-1.06,3.14-.41,1.18-.87,2.51-1.35,3.87s-.98,2.8-1.47,4.2c-.5,1.41-.99,2.81-1.45,4.12-.46,1.32-.89,2.56-1.25,3.64-.4,1.17-.74,2.18-.98,2.95-.07.23-.14.44-.19.62l-1.14-.44.48-1.26Z"/>
        <path class="cls-6" d="m159.66,156.76c.05.47.02,1-.06,1.67-.07.51-.16,1.1-.28,1.75-.21,1.09-.49,2.4-.83,3.82-.21.9-.44,1.87-.69,2.86-.11.47-.23.94-.35,1.41-.36,1.46-.75,2.97-1.11,4.43-.16.66-.33,1.32-.49,1.97-.19.76-.37,1.51-.54,2.21-.3,1.3-.57,2.51-.78,3.53-.12.63-.23,1.19-.3,1.68.26-.39.55-.86.86-1.38.37-.63.78-1.34,1.21-2.11.16-.3.33-.59.49-.89.12-.21.24-.42.36-.64.13-.22.25-.45.38-.68.16-.29.33-.59.49-.88l.51.19-2.59,6.77.17.38c-.04.05-.07.1-.1.15-.51.79-.93,1.38-1.35,1.8-.18.18-.36.34-.61.47-.13.07-.29.13-.48.16-.15.01-.32.01-.48-.04-.21-.06-.42-.18-.56-.33-.12-.14-.21-.29-.27-.43-.08-.2-.12-.39-.14-.59-.05-.48-.02-1.02.07-1.71.07-.51.16-1.1.29-1.75.2-1.1.49-2.41.82-3.83.21-.88.44-1.82.68-2.79.12-.49.25-.99.37-1.49.36-1.45.75-2.97,1.11-4.43.16-.64.32-1.28.47-1.9.2-.78.38-1.55.55-2.27.31-1.3.58-2.5.78-3.52.12-.6.22-1.15.29-1.63-.27.41-.57.9-.89,1.44-.5.84-1.06,1.84-1.66,2.93-.38.7-.79,1.45-1.2,2.23l-1.87-.71h0c.37-.7.73-1.38,1.09-2.03.65-1.2,1.27-2.32,1.83-3.27.57-.96,1.08-1.77,1.52-2.38.47-.65.79-1.1,1.39-1.4.12-.06.27-.12.45-.14.14-.02.31-.01.47.03.21.06.42.18.56.33.13.14.22.28.27.42.09.21.13.4.15.59Z"/>
        <path class="cls-1" d="m150.03,172.44l-1.87-.71-2.14-.82c.16-.65.32-1.31.49-1.97.36-1.46.75-2.97,1.11-4.43.12-.48.24-.95.35-1.42l3.96,1.52,1.87.71,2.13.82c-.15.62-.31,1.26-.47,1.9-.36,1.46-.75,2.98-1.11,4.43-.12.5-.25,1-.37,1.49l-3.95-1.51h0Z"/>
        <path class="cls-6" d="m149.83,152.99c.06.48.02,1.01-.06,1.68-.07.51-.16,1.1-.28,1.75-.21,1.09-.5,2.4-.83,3.82-.21.9-.44,1.86-.69,2.85-.11.47-.23.94-.35,1.42-.36,1.46-.75,2.97-1.11,4.43-.17.66-.33,1.32-.49,1.97-.19.76-.37,1.51-.54,2.21-.31,1.3-.58,2.51-.78,3.53-.12.62-.23,1.19-.3,1.67.26-.39.55-.86.87-1.39.49-.83,1.05-1.83,1.65-2.91.39-.72.81-1.5,1.24-2.29l1.87.71h0c-.39.73-.76,1.42-1.13,2.09-.65,1.2-1.27,2.31-1.83,3.25-.56.96-1.07,1.76-1.51,2.37-.47.64-.78,1.09-1.4,1.38-.12.06-.27.11-.44.13-.14.02-.3,0-.45-.03-.22-.06-.42-.19-.56-.34-.13-.13-.22-.28-.27-.42-.09-.2-.13-.39-.15-.59-.05-.48-.02-1.01.07-1.69.06-.51.16-1.1.28-1.75.21-1.1.49-2.41.83-3.83.21-.89.44-1.84.68-2.82.12-.48.24-.96.36-1.45.36-1.46.75-2.97,1.11-4.43.17-.65.33-1.3.49-1.94.19-.77.37-1.53.54-2.24.3-1.29.57-2.5.78-3.52.12-.61.22-1.17.29-1.65-.26.4-.56.87-.87,1.41-.5.84-1.07,1.83-1.66,2.92-.39.71-.8,1.48-1.22,2.26l-1.87-.71c.37-.71.74-1.39,1.09-2.04.66-1.21,1.28-2.32,1.84-3.27.57-.96,1.08-1.77,1.52-2.38.47-.64.78-1.09,1.39-1.39.12-.06.27-.12.44-.14.15-.02.31-.01.47.03.21.06.42.19.56.33.13.14.22.29.28.43.08.2.12.39.14.58Z"/>
        <path class="cls-1" d="m142.1,160.84l1.87.71,2.13.82h.01c-.16.64-.32,1.29-.49,1.94-.36,1.46-.75,2.97-1.11,4.43-.12.49-.24.97-.36,1.45l-3.95-1.51-1.87-.72-2.14-.82c.16-.64.32-1.29.48-1.95.37-1.46.75-2.97,1.12-4.43l.36-1.44,3.94,1.52h.01Z"/>
        <circle class="cls-1" cx="131.93" cy="214.6" r="4.75"/>
        <path class="cls-6" d="m132.81,173.09c.2-1.09.49-2.4.82-3.82.21-.9.44-1.86.68-2.85.12-.47.24-.95.36-1.43.37-1.45.75-2.97,1.12-4.43.16-.66.33-1.32.49-1.96.18-.76.36-1.51.53-2.22.31-1.29.58-2.5.78-3.52.13-.62.23-1.19.3-1.67-.26.4-.55.87-.87,1.39-.49.84-1.06,1.84-1.65,2.92-.39.72-.81,1.49-1.23,2.28l-1.87-.71c.38-.71.75-1.41,1.11-2.07.65-1.2,1.28-2.31,1.83-3.26.57-.96,1.08-1.76,1.52-2.37.47-.64.78-1.09,1.39-1.39.13-.06.27-.11.45-.13.14-.01.3-.01.45.03.22.06.42.19.56.34.13.13.22.28.28.42.08.2.12.39.14.59.06.48.02,1.01-.07,1.69-.06.51-.15,1.09-.28,1.75-.2,1.09-.49,2.4-.82,3.82-.21.9-.44,1.85-.68,2.83l-.36,1.44c-.37,1.46-.75,2.97-1.12,4.43-.16.66-.32,1.31-.48,1.95-.19.77-.37,1.52-.54,2.23-.31,1.3-.58,2.5-.78,3.52-.13.62-.23,1.18-.3,1.67.26-.4.56-.88.87-1.41.5-.84,1.06-1.83,1.66-2.91.39-.72.8-1.49,1.23-2.28l1.87.72c-.38.7-.75,1.39-1.11,2.05-.65,1.2-1.28,2.31-1.83,3.26-.57.96-1.08,1.76-1.52,2.37-.47.65-.78,1.1-1.39,1.39-.13.07-.27.12-.45.14-.14.02-.3.01-.46-.03-.21-.06-.42-.19-.56-.33-.13-.14-.22-.29-.27-.42-.09-.21-.13-.4-.15-.59-.05-.48-.02-1.01.07-1.68.06-.51.15-1.1.28-1.75Z"/>
        <path class="cls-4" d="m132.73,239.25l3.66-3.66,10.54-2.82v8.43h-17.36c1.18-.39,2.27-1.06,3.16-1.95Z"/>
        <path class="cls-1" d="m127.95,157.02c.12-.49.25-.98.37-1.47l3.95,1.52,1.87.71,2.14.82c-.16.64-.33,1.3-.49,1.96-.37,1.46-.75,2.98-1.12,4.43-.12.48-.24.96-.36,1.43l-3.94-1.51-1.87-.72-2.14-.82c.15-.63.31-1.27.47-1.92.37-1.46.75-2.97,1.12-4.43Z"/>
        <path class="cls-1" d="m123.05,162.1l2.87-7.47.53.21c-.17.65-.33,1.31-.5,1.97-.36,1.46-.75,2.97-1.11,4.43-.12.47-.24.94-.35,1.41l-1.44-.55Z"/>
        <path class="cls-6" d="m125.62,169.37c.5-.85,1.07-1.84,1.66-2.93.39-.71.8-1.47,1.22-2.25l1.87.72c-.38.7-.74,1.38-1.1,2.03-.65,1.2-1.28,2.31-1.83,3.26-.57.96-1.08,1.77-1.52,2.38-.47.65-.79,1.1-1.39,1.4-.12.06-.27.12-.45.14-.14.02-.31.01-.46-.03-.22-.05-.43-.18-.57-.33-.13-.14-.21-.28-.27-.42-.09-.21-.13-.39-.15-.59-.05-.47-.02-1,.07-1.67.06-.51.15-1.1.28-1.75.2-1.09.49-2.4.82-3.82.21-.9.44-1.87.69-2.86.11-.47.23-.94.35-1.41.36-1.46.75-2.97,1.11-4.43.17-.66.33-1.32.5-1.97.18-.76.36-1.51.53-2.22.31-1.29.58-2.5.78-3.52.13-.63.23-1.19.3-1.68-.26.4-.55.86-.86,1.39-.3.5-.62,1.06-.96,1.66l-1.88-.71c.38-.67.73-1.29,1.06-1.85.57-.95,1.07-1.75,1.51-2.35.23-.32.45-.58.66-.8.19-.2.37-.37.62-.5.14-.08.3-.14.49-.17.15-.02.33-.02.49.03.22.06.42.18.57.33.13.14.21.29.27.43.08.2.12.39.14.59.06.48.02,1.02-.07,1.7-.06.51-.16,1.1-.28,1.75-.21,1.1-.49,2.41-.83,3.83-.21.89-.44,1.83-.67,2.8-.12.49-.25.98-.37,1.47-.37,1.46-.75,2.97-1.12,4.43-.16.65-.32,1.29-.47,1.92-.19.78-.38,1.54-.55,2.26-.3,1.29-.57,2.5-.78,3.52-.12.61-.22,1.16-.29,1.64.27-.41.57-.89.88-1.42Z"/>
        <polygon class="cls-1" points="120.92 149.51 122.21 148.93 124.36 149.76 126.24 150.47 126.88 150.72 127.17 151.37 125.92 154.63 123.05 162.1 121.8 165.37 121.15 165.66 118.61 164.69 118.61 164.68 116.73 163.97 116.48 163.87 115.91 162.58 117.36 158.79 119.47 153.29 120.92 149.51"/>
        <path class="cls-1" d="m119.47,153.29l-2.11,5.5-.58-.22c.07-.27.13-.53.2-.8.37-1.46.75-2.97,1.12-4.43.04-.17.09-.35.13-.52l1.24.47Z"/>
        <circle class="cls-1" cx="112.93" cy="233.6" r="4.75"/>
        <path class="cls-4" d="m127.07,241.6h-14.14c.69-.01,1.39-.1,2.07-.28l21.39-5.73-3.66,3.66c-.89.89-1.98,1.56-3.16,1.94-.8.27-1.64.41-2.5.41Z"/>
        <path class="cls-6" d="m113.07,148.67c.68-1.26,1.33-2.45,1.92-3.49.6-1.04,1.15-1.96,1.62-2.68.5-.75.9-1.3,1.34-1.69.16-.15.33-.28.57-.39.12-.05.27-.09.43-.11.14-.01.29,0,.43.04.22.07.42.2.55.34s.21.29.27.43c.09.2.12.4.14.59.06.5.02,1.05-.08,1.75-.06.52-.16,1.11-.28,1.77-.21,1.1-.5,2.41-.84,3.83-.27,1.17-.59,2.46-.91,3.76-.04.17-.09.35-.13.52-.37,1.46-.75,2.97-1.12,4.43-.07.27-.13.53-.2.8-.29,1.17-.57,2.31-.82,3.37-.3,1.29-.57,2.49-.77,3.5-.11.58-.21,1.12-.28,1.58.28-.42.59-.92.92-1.48.28-.48.59-1.01.9-1.57l1.88.71h0c-.35.64-.68,1.21-1,1.74-.56.97-1.08,1.78-1.52,2.39-.47.65-.78,1.1-1.38,1.4-.13.06-.28.12-.45.14-.15.02-.31.02-.47-.02-.22-.06-.43-.19-.57-.34-.13-.13-.21-.28-.27-.42-.09-.2-.13-.39-.15-.58-.05-.48-.02-1.01.06-1.68.07-.5.16-1.09.28-1.74.21-1.09.49-2.4.83-3.82.28-1.22.61-2.55.95-3.9.03-.12.06-.25.09-.37.36-1.46.75-2.97,1.11-4.43.08-.32.16-.64.24-.95.28-1.12.55-2.22.79-3.24.31-1.29.58-2.5.78-3.53.13-.62.23-1.19.3-1.68-.26.4-.55.86-.86,1.39-.5.83-1.06,1.83-1.65,2.9-.55,1.01-1.14,2.12-1.75,3.25l-1.86-.72c.32-.61.65-1.22.96-1.8Z"/>
        <path class="cls-1" d="m112.11,150.47l1.86.72,2.39.91c-.08.31-.16.63-.24.95-.36,1.46-.75,2.97-1.11,4.43-.03.12-.06.25-.09.37l-3.71-1.42-3.18-1.22,2.1-5.49,1.98.75Z"/>
        <path class="cls-4" d="m131.93,209.85c-2.63,0-4.75,2.12-4.75,4.75s2.12,4.75,4.75,4.75,4.75-2.13,4.75-4.75-2.13-4.75-4.75-4.75Zm-19,28.5c2.62,0,4.75-2.13,4.75-4.75s-2.13-4.75-4.75-4.75-4.75,2.12-4.75,4.75,2.12,4.75,4.75,4.75Zm100.26-40.98c2.76,0,5-2.24,5-5s-2.24-5-5-5-5,2.24-5,5,2.24,5,5,5Zm7.17-9.55c.93,1.47,1.36,3.11,1.32,4.73-.03,1.95-.75,3.86-2.05,5.37-.53.62-1.16,1.17-1.88,1.63l-27.27,17.31h-.01l-11.54,7.33-32,8.58-10.54,2.82-21.39,5.73c-.68.18-1.38.27-2.07.27-2.1,0-4.14-.82-5.66-2.34-3.12-3.12-3.12-8.19,0-11.31l19-19c.83-.83,1.83-1.46,2.92-1.86.65-.24,1.34-.39,2.04-.45l26.49-2.32,6.69-.58,12.52-1.1,32.16-17.71c3.93-2.16,8.87-.89,11.27,2.9Z"/>
        <path class="cls-5" d="m113.26,140.15l-7.46,19.46c.23-1.01.49-2.13.78-3.28.34-1.41.72-2.92,1.1-4.4.51-1.48,1.04-2.97,1.52-4.37.47-1.34.92-2.62,1.31-3.75.4-1.19.76-2.24,1.03-3.07.14-.43.25-.8.35-1.12l1.37.53Z"/>
        <path class="cls-5" d="m113.55,140.79l-3.42,8.93-2.1,5.49h-.01l-2.83,7.4c.12-.7.29-1.53.48-2.43.04-.19.08-.38.13-.57l7.46-19.46.29.64Z"/>
        <path class="cls-4" d="m107.27,239.25c1.52,1.52,3.56,2.34,5.66,2.34h0s-7.02.01-7.02.01c-.03-.85-.17-1.69-.38-2.52l-6.13-23.14,29.79-8.87h0c-1.09.41-2.09,1.04-2.92,1.87l-19,19c-3.12,3.12-3.12,8.19,0,11.31Z"/>
        <path class="cls-6" d="m112.18,138.24v.16c-.01.09-.02.15-.03.21-.03.2-.09.4-.16.67-.03.11-.06.22-.1.34-.1.32-.21.69-.35,1.12-.27.83-.63,1.88-1.03,3.07-.39,1.13-.84,2.41-1.31,3.75-.48,1.4-1.01,2.89-1.52,4.37-.38,1.48-.76,2.99-1.1,4.4-.29,1.15-.55,2.27-.78,3.28-.05.19-.09.38-.13.57-.19.9-.36,1.73-.48,2.43l2.83-7.4h.01l3.18,1.22c-.55,1.02-1.08,2.02-1.59,2.95-.65,1.21-1.28,2.32-1.83,3.27-.57.97-1.08,1.78-1.53,2.39-.46.65-.78,1.1-1.38,1.4-.12.06-.27.12-.45.14-.15.02-.31.02-.47-.02-.22-.06-.42-.19-.57-.34-.13-.13-.21-.28-.27-.42-.09-.2-.12-.39-.15-.58-.04-.35-.03-.73.01-1.17.01-.16.03-.32.05-.5.07-.51.16-1.1.28-1.75.21-1.09.49-2.4.83-3.82.31-1.32.67-2.79,1.04-4.27.2-.82.42-1.66.63-2.5.5-1.43,1.01-2.88,1.48-4.23.46-1.33.91-2.6,1.29-3.72s.72-2.11.98-2.91c.19-.59.35-1.08.46-1.45l-.29-.11c.1-.2.18-.37.26-.52.09-.18.16-.31.25-.45.03-.05.07-.11.13-.18.04-.04.09-.09.17-.15.04-.04.09-.07.15-.1.08-.04.17-.08.27-.1s.21-.02.31-.01c.11.01.22.04.33.09.1.05.19.11.27.19s.15.17.19.26c.05.08.08.17.09.24.02.07.03.13.03.18Z"/>
        <path class="cls-5" d="m108.58,143.26c-.38,1.12-.83,2.39-1.29,3.72-.47,1.35-.98,2.8-1.48,4.23-.21.84-.43,1.68-.63,2.5-.37,1.48-.73,2.95-1.04,4.27-.34,1.42-.62,2.73-.83,3.82-.12.65-.21,1.24-.28,1.75-.02.18-.04.34-.05.5l-3.23-1.24,9.31-24.28.67.26.29.11c-.11.37-.27.86-.46,1.45-.26.8-.6,1.79-.98,2.91Z"/>
        <polygon class="cls-5" points="110.13 135.73 109.06 138.53 99.75 162.81 98.68 165.61 97.45 166.03 93.72 164.59 93.08 163.47 97.75 151.27 99.86 145.78 104.53 133.59 105.76 133.17 109.5 134.6 110.13 135.73"/>
        <rect class="cls-1" x="91.99" y="142.89" width="5.88" height="8.3" transform="translate(-76.35 183.07) rotate(-69.03)"/>
        <polygon class="cls-6" points="86.42 149.96 86.28 149.08 89.86 139.74 90.55 139.18 92.7 140 92.84 140.89 92.11 142.81 90 148.3 89.26 150.22 88.57 150.79 86.42 149.96"/>
        <circle class="cls-6" cx="88.79" cy="236.1" r="2.5"/>
        <path class="cls-6" d="m83.94,232.33c1.11-1.45,2.87-2.38,4.85-2.38,2.77,0,5.11,1.82,5.88,4.34.18.57.27,1.18.27,1.81,0,3.39-2.75,6.15-6.15,6.15s-6.15-2.76-6.15-6.15c0-1.42.48-2.73,1.3-3.77Zm2.35,3.77c0,1.38,1.12,2.5,2.5,2.5s2.5-1.12,2.5-2.5-1.12-2.5-2.5-2.5-2.5,1.11-2.5,2.5Z"/>
        <path class="cls-3" d="m88.79,229.95c-1.98,0-3.74.93-4.85,2.38h-.01c-.53-1.74-.27-3.62.72-5.15-.69-1.68-.59-3.58.26-5.18-.83-1.62-.9-3.51-.19-5.19-.97-1.53-1.2-3.42-.65-5.14-1.09-1.45-1.49-3.31-1.09-5.08-1.34-1.49-1.87-3.53-1.43-5.49.76-3.31,4.06-5.38,7.37-4.62,3.31.75,5.38,4.05,4.63,7.36,1.47,1.63,1.96,3.92,1.29,6,1.32,1.75,1.61,4.08.76,6.1,1.16,1.86,1.25,4.19.22,6.13,1,1.96.88,4.29-.31,6.14.83,2.03.5,4.35-.84,6.08-.77-2.52-3.11-4.34-5.88-4.34Z"/>
        <circle class="cls-7" cx="74.28" cy="76.28" r="2.5"/>
        <circle class="cls-7" cx="73.68" cy="51.28" r="2.5"/>
        <polygon class="cls-6" points="63.64 143 70.15 130.57 72.11 132.94 83.79 137.41 85.72 136.55 90.39 138.34 89.86 139.74 86.28 149.08 85.74 150.48 81.07 148.69 80.21 146.75 68.54 142.28 63.64 143"/>
        <path class="cls-7" d="m74.28,78.78c1.38,0,2.5-1.12,2.5-2.5s-1.12-2.5-2.5-2.5-2.5,1.11-2.5,2.5,1.12,2.5,2.5,2.5Zm-6.25-2.5c0-2.89,1.96-5.32,4.62-6.03.52-.15,1.07-.22,1.63-.22,3.45,0,6.25,2.79,6.25,6.25s-2.8,6.25-6.25,6.25c-.8,0-1.57-.15-2.28-.44h0c-2.32-.91-3.96-3.17-3.96-5.81Z"/>
        <path class="cls-7" d="m73.68,53.78c1.38,0,2.5-1.12,2.5-2.5s-1.12-2.5-2.5-2.5-2.5,1.12-2.5,2.5,1.12,2.5,2.5,2.5Zm0,3.75c-3.45,0-6.25-2.8-6.25-6.25s2.8-6.25,6.25-6.25,6.25,2.8,6.25,6.25-2.79,6.25-6.25,6.25Z"/>
        <path class="cls-3" d="m67.2,81.45c-1.33.14-2.68-.14-3.83-.82-1.99-1.17-3.09-3.25-3.09-5.4,0-1.08.28-2.17.86-3.16,1.75-2.97,5.58-3.97,8.55-2.22,1.01-.11,2.02.02,2.96.39h0c-2.66.72-4.62,3.15-4.62,6.04,0,2.64,1.64,4.9,3.96,5.81-1.62.44-3.34.21-4.79-.64Z"/>
        <path class="cls-3" d="m65.74,133.49c0-3.39-2.76-6.15-6.15-6.15-1.34,0-2.59.43-3.6,1.17.03-1.94.98-3.74,2.55-4.88.03-1.93.98-3.74,2.55-4.87,2.75-1.99,6.6-1.36,8.58,1.39,1.99,2.76,1.37,6.6-1.38,8.59-.04,1.93-.99,3.74-2.56,4.87.01-.04.01-.08.01-.12Z"/>
        <path class="cls-4" d="m64.62,39.7l11.5,3.44c3.52,1.05,5.97,4.26,6.06,7.94l.6,24.99c.03,1.4-.28,2.78-.9,4.02l-.09-3.84-.61-25.15c-.08-3.25-2.24-6.07-5.35-7l-5.34-1.6c-.83-.25-1.73.07-2.22.78l-1.99,2.89c-.54.78-.95,1.63-1.22,2.54l-2.6,8.69c-.38-.98-1.03-1.83-1.87-2.46l-.48-.14,4.51-15.1Z"/>
        <path class="cls-4" d="m58.08,148.23c1.57-1.13,2.52-2.94,2.55-4.87,1.57-1.14,2.52-2.94,2.55-4.88,1.52-1.09,2.52-2.86,2.55-4.87,1.57-1.13,2.52-2.94,2.56-4.87,2.75-1.99,3.37-5.83,1.38-8.59-1.98-2.75-5.83-3.38-8.58-1.39-1.57,1.13-2.52,2.94-2.55,4.87-1.57,1.14-2.52,2.94-2.55,4.88-1.52,1.09-2.51,2.87-2.54,4.87h0c-1.57,1.13-2.52,2.94-2.55,4.87-2.76,1.99-3.38,5.83-1.39,8.59,1.98,2.75,5.83,3.38,8.58,1.39Zm5.56-5.23l-13.79,26.34c-.49.93-.85,1.92-1.08,2.95l-9.66,43.11-.17.76h0s-1.8,8.06-1.8,8.06c-1.45,6.47-7.87,10.53-14.34,9.09-6.46-1.45-10.53-7.87-9.08-14.34l1.57-7.03,10.75-47.98c.23-1.03.6-2.02,1.08-2.95l29.81-56.95c1.58-3.01,2.36-6.36,2.28-9.75l-.3-12.48-.16-6.56,1.53-.04c0,2.15,1.1,4.23,3.09,5.4,1.15.68,2.5.96,3.83.82,1.45.85,3.17,1.08,4.79.64h0c.71.29,1.48.44,2.28.44,3.45,0,6.25-2.8,6.25-6.25l1.26-.03.09,3.84.55,22.97c.06,2.54-.53,5.06-1.71,7.31l-10.57,20.2-6.51,12.43Zm-34.21,78.6c0-2.21-1.79-4-4-4s-4,1.79-4,4,1.79,4,4,4,4-1.8,4-4Z"/>
        <path class="cls-6" d="m57.11,64.86l3-10.06.48.14c.84.63,1.49,1.48,1.87,2.46.07.16.12.33.17.5l-1.72,5.74c-.13.11-.27.22-.41.33-.85.61-1.86.97-2.92,1.03l-.47-.14Z"/>
        <polygon class="cls-4" points="47.81 78.52 59.83 38.27 64.62 39.7 60.11 54.8 57.11 64.86 52.6 79.95 47.81 78.52"/>
        <circle class="cls-6" cx="59.59" cy="133.49" r="2.5"/>
        <path class="cls-4" d="m73.68,45.03c-3.45,0-6.25,2.8-6.25,6.25s2.8,6.25,6.25,6.25,6.25-2.8,6.25-6.25-2.79-6.25-6.25-6.25Zm-14.82,24.44l1.64-5.5c.14-.11.28-.22.41-.33l1.72-5.74c-.05-.17-.1-.34-.17-.5l2.6-8.69c.27-.91.68-1.76,1.22-2.54l1.99-2.89c.49-.71,1.39-1.03,2.22-.78l5.34,1.6c3.11.93,5.27,3.75,5.35,7l.61,25.15-1.26.03c0-3.46-2.8-6.25-6.25-6.25-.56,0-1.11.07-1.63.22h0c-.94-.38-1.95-.51-2.96-.4-2.97-1.75-6.8-.75-8.55,2.22-.58.99-.86,2.08-.86,3.16l-1.53.04-.1-4.25c-.01-.53.06-1.05.21-1.55Z"/>
        <path class="cls-4" d="m60.5,63.97l-1.64,5.5c-.15.5-.22,1.02-.21,1.55l.1,4.25.16,6.56-6.31-1.88,4.51-15.09.47.14c1.06-.06,2.07-.42,2.92-1.03Z"/>
        <path class="cls-6" d="m59.59,139.64c-3.4,0-6.15-2.75-6.15-6.15,0-.04,0-.07,0-.11.03-2,1.02-3.78,2.54-4.87,1.01-.74,2.26-1.17,3.6-1.17,3.39,0,6.15,2.76,6.15,6.15,0,.04,0,.08-.01.12-.03,2.01-1.03,3.78-2.55,4.87-1.01.73-2.25,1.16-3.59,1.16Zm-2.5-6.15c0,1.38,1.12,2.5,2.5,2.5s2.5-1.12,2.5-2.5-1.12-2.5-2.5-2.5-2.5,1.12-2.5,2.5Z"/>
        <path class="cls-3" d="m50.89,138.25c.03-1.93.98-3.74,2.55-4.87h0s0,.07,0,.11c0,3.4,2.75,6.15,6.15,6.15,1.34,0,2.58-.43,3.59-1.16-.03,1.94-.98,3.74-2.55,4.88-.03,1.93-.98,3.74-2.55,4.87-2.75,1.99-6.6,1.36-8.58-1.39-1.99-2.76-1.37-6.6,1.39-8.59Z"/>
        <path class="cls-1" d="m51.14,221.6c-1.98,0-3.93-.42-5.71-1.23v-4.47h24.4l-.39,1.07c-.78,2.12-2.4,3.78-4.43,4.63h-13.87Z"/>
        <path class="cls-1" d="m88.92,196.48c-3.31-.76-6.61,1.31-7.37,4.62-.44,1.96.09,4,1.43,5.49-.4,1.77,0,3.63,1.09,5.08-.55,1.72-.32,3.61.65,5.14-.71,1.68-.64,3.57.19,5.19-.85,1.6-.95,3.5-.26,5.18-.99,1.53-1.25,3.41-.72,5.14h.01c-.82,1.05-1.3,2.36-1.3,3.78,0,3.39,2.75,6.15,6.15,6.15s6.15-2.76,6.15-6.15c0-.63-.09-1.24-.27-1.81,1.34-1.73,1.67-4.05.84-6.08,1.19-1.85,1.31-4.18.31-6.14,1.03-1.94.94-4.27-.22-6.13.85-2.02.56-4.35-.76-6.1.67-2.08.18-4.37-1.29-6,.75-3.31-1.32-6.61-4.63-7.36ZM9.02,239.85l2.52-20c.37-2.97,1.69-5.75,3.75-7.91l-1.57,7.03c-1.45,6.47,2.62,12.89,9.08,14.34,6.47,1.44,12.89-2.62,14.34-9.09l1.8-8.05,1.62,2.06,2.13,2.73c1.76,2.25,4.59,3.39,7.42,2.99l12.93-1.81c.69-.09,1.35-.28,1.97-.54,2.03-.85,3.65-2.51,4.43-4.63l.39-1.07,3.72-10.12c.25-.69.65-1.31,1.16-1.82l7.2-7.16c1-.99,2.23-1.7,3.59-2.06,4.27-1.13,8.65,1.41,9.78,5.68l4.12,15.52,6.13,23.14c.21.83.35,1.67.38,2.52.02.19.02.37.02.56v4.44H8.93v-5.25c0-.5.03-1,.09-1.5Z"/>
        <path class="cls-4" d="m63.04,222.14l-12.93,1.81c-2.83.4-5.66-.74-7.42-2.99l-2.13-2.73-1.62-2.06h0s.17-.77.17-.77l2.23,2.19c1.2,1.18,2.59,2.12,4.09,2.78,1.78.81,3.73,1.23,5.71,1.23h13.87c-.62.26-1.28.45-1.97.54Z"/>
        <circle class="cls-1" cx="25.43" cy="221.6" r="4"/>
        <polygon class="cls-4" points="10.14 173.2 8.79 170.71 56.3 11.65 58.79 10.31 61.18 11.02 61.52 11.64 57.22 26.02 57.23 26.02 62.02 27.45 62.69 28.69 59.83 38.27 47.81 78.52 44.95 88.1 43.7 88.77 38.91 87.34 13.16 173.58 12.53 173.91 10.14 173.2"/>
      </g>
      <g>
        <circle class="cls-2" cx="213.19" cy="192.37" r="5"/>
        <path class="cls-2" d="m80.72,110.37c1.18-2.25,1.77-4.77,1.71-7.31"/>
        <line class="cls-2" x1="215.65" y1="208.31" x2="193.69" y2="218.1"/>
        <line class="cls-2" x1="43.7" y1="88.77" x2="44.95" y2="88.1"/>
        <line class="cls-2" x1="190.48" y1="216.86" x2="193.69" y2="218.1"/>
        <polygon class="cls-2" points="8.93 246.6 6.43 246.6 3.43 249.6 3.43 254.1 3.93 254.6 216.43 254.6 216.93 254.1 216.93 247.2 216.33 246.6 105.93 246.6 8.93 246.6"/>
        <polyline class="cls-2" points="55.91 30.41 57.22 26.02 61.52 11.64"/>
        <line class="cls-2" x1="62.02" y1="27.45" x2="57.23" y2="26.02"/>
        <path class="cls-2" d="m156.11,182.85c-.04.05-.07.1-.1.15-.51.79-.93,1.38-1.35,1.8-.18.18-.36.34-.61.47-.13.07-.29.13-.48.16-.15.01-.32.01-.48-.04-.21-.06-.42-.18-.56-.33-.12-.14-.21-.29-.27-.43-.08-.2-.12-.39-.14-.59-.05-.48-.02-1.02.07-1.71.07-.51.16-1.1.29-1.75.2-1.1.49-2.41.82-3.83.21-.88.44-1.82.68-2.79.12-.49.25-.99.37-1.49.36-1.45.75-2.97,1.11-4.43.16-.64.32-1.28.47-1.9.2-.78.38-1.55.55-2.27.31-1.3.58-2.5.78-3.52.12-.6.22-1.15.29-1.63"/>
        <polyline class="cls-2" points="147.97 163.09 151.93 164.61 153.8 165.32 155.93 166.14"/>
        <line class="cls-2" x1="154.47" y1="203.06" x2="157.72" y2="204.31"/>
        <line class="cls-2" x1="164.99" y1="159.97" x2="165.25" y2="160.07"/>
        <line class="cls-2" x1="61.18" y1="11.02" x2="58.79" y2="10.31"/>
        <polyline class="cls-2" points="58.65 71.02 58.75 75.27 58.91 81.83 59.21 94.31"/>
        <line class="cls-2" x1="82.78" y1="76.07" x2="82.18" y2="51.08"/>
        <line class="cls-2" x1="75.83" y1="44.1" x2="70.49" y2="42.5"/>
        <path class="cls-2" d="m157.55,158.72c-.27.41-.57.9-.89,1.44-.5.84-1.06,1.84-1.66,2.93-.38.7-.79,1.45-1.2,2.23"/>
        <path class="cls-2" d="m60.91,63.64c-.13.11-.27.22-.41.33-.85.61-1.86.97-2.92,1.03"/>
        <path class="cls-2" d="m129.19,207.08c.65-.24,1.34-.39,2.04-.45l26.49-2.32,6.69-.58,12.52-1.1,32.16-17.71c3.93-2.16,8.87-.89,11.27,2.9.93,1.47,1.36,3.11,1.32,4.73-.03,1.95-.75,3.86-2.05,5.37-.53.62-1.16,1.17-1.88,1.63l-27.27,17.31h-.01l-11.54,7.33-32,8.58-10.54,2.82-21.39,5.73c-.68.18-1.38.27-2.07.27-2.1,0-4.14-.82-5.66-2.34-3.12-3.12-3.12-8.19,0-11.31l19-19c.83-.83,1.83-1.46,2.92-1.86Z"/>
        <line class="cls-2" x1="60.5" y1="63.97" x2="58.86" y2="69.47"/>
        <polyline class="cls-2" points="76.12 43.14 64.62 39.7 59.83 38.27"/>
        <line class="cls-2" x1="61.52" y1="11.64" x2="61.18" y2="11.02"/>
        <polyline class="cls-2" points="160.22 180.79 167.79 161.05 168.69 158.71"/>
        <line class="cls-2" x1="157.85" y1="186.99" x2="160.2" y2="180.86"/>
        <line class="cls-2" x1="157.59" y1="187.66" x2="157.84" y2="186.99"/>
        <line class="cls-2" x1="57.58" y1="65" x2="57.11" y2="64.86"/>
        <line class="cls-2" x1="62.63" y1="57.9" x2="60.91" y2="63.64"/>
        <line class="cls-2" x1="62.02" y1="27.45" x2="62.69" y2="28.69"/>
        <path class="cls-2" d="m70.49,42.5c-.83-.25-1.73.07-2.22.78"/>
        <path class="cls-2" d="m151.93,164.6c.37-.69.73-1.37,1.09-2.02.65-1.2,1.27-2.32,1.83-3.27.57-.96,1.08-1.77,1.52-2.38.47-.65.79-1.1,1.39-1.4.12-.06.27-.12.45-.14.14-.02.31-.01.47.03.21.06.42.18.56.33.13.14.22.28.27.42.09.21.13.4.15.59.05.47.02,1-.06,1.67-.07.51-.16,1.1-.28,1.75-.21,1.09-.49,2.4-.83,3.82-.21.9-.44,1.87-.69,2.86-.11.47-.23.94-.35,1.41-.36,1.46-.75,2.97-1.11,4.43-.16.66-.33,1.32-.49,1.97-.19.76-.37,1.51-.54,2.21-.3,1.3-.57,2.51-.78,3.53-.12.63-.23,1.19-.3,1.68"/>
        <polyline class="cls-2" points="180.54 161.65 168.9 192.02 164.41 203.72"/>
        <path class="cls-2" d="m58.86,69.47c-.15.5-.22,1.02-.21,1.55"/>
        <polyline class="cls-2" points="47.81 78.52 52.6 79.95 58.91 81.83"/>
        <line class="cls-2" x1="58.79" y1="10.31" x2="56.3" y2="11.65"/>
        <line class="cls-2" x1="65.06" y1="48.71" x2="62.46" y2="57.4"/>
        <line class="cls-2" x1="187.39" y1="163.35" x2="188.01" y2="164.51"/>
        <line class="cls-2" x1="60.59" y1="54.94" x2="60.11" y2="54.8"/>
        <line class="cls-2" x1="105.8" y1="159.61" x2="113.26" y2="140.15"/>
        <circle class="cls-2" cx="73.68" cy="51.28" r="2.5"/>
        <path class="cls-2" d="m157.85,186.99h-.01c-.1.03-.2.05-.31.05-.11-.01-.23-.03-.34-.07s-.21-.1-.29-.17c-.09-.08-.16-.16-.22-.25-.05-.09-.08-.18-.11-.26-.02-.07-.03-.14-.03-.19-.01-.06-.01-.11-.01-.16.01-.07.01-.13.02-.19.03-.16.06-.31.12-.51.04-.16.09-.34.16-.55.05-.18.12-.39.19-.62.24-.77.58-1.78.98-2.95.36-1.08.79-2.32,1.25-3.64.46-1.31.95-2.71,1.45-4.12.49-1.4.99-2.84,1.47-4.2s.94-2.69,1.35-3.87c.4-1.18.77-2.26,1.06-3.14.3-.88.53-1.6.67-2.08.07-.24.12-.42.14-.54.02-.05.02-.09.03-.1h0"/>
        <path class="cls-2" d="m130.37,164.91c-.38.7-.74,1.38-1.1,2.03-.65,1.2-1.28,2.31-1.83,3.26-.57.96-1.08,1.77-1.52,2.38-.47.65-.79,1.1-1.39,1.4-.12.06-.27.12-.45.14-.14.02-.31.01-.46-.03-.22-.05-.43-.18-.57-.33-.13-.14-.21-.28-.27-.42-.09-.21-.13-.39-.15-.59-.05-.47-.02-1,.07-1.67.06-.51.15-1.1.28-1.75.2-1.09.49-2.4.82-3.82.21-.9.44-1.87.69-2.86.11-.47.23-.94.35-1.41.36-1.46.75-2.97,1.11-4.43.17-.66.33-1.32.5-1.97.18-.76.36-1.51.53-2.22.31-1.29.58-2.5.78-3.52.13-.63.23-1.19.3-1.68"/>
        <path class="cls-2" d="m132.27,157.07c.38-.71.75-1.41,1.11-2.07.65-1.2,1.28-2.31,1.83-3.26.57-.96,1.08-1.76,1.52-2.37.47-.64.78-1.09,1.39-1.39.13-.06.27-.11.45-.13.14-.01.3-.01.45.03.22.06.42.19.56.34.13.13.22.28.28.42.08.2.12.39.14.59.06.48.02,1.01-.07,1.69-.06.51-.15,1.09-.28,1.75-.2,1.09-.49,2.4-.82,3.82-.21.9-.44,1.85-.68,2.83l-.36,1.44c-.37,1.46-.75,2.97-1.12,4.43-.16.66-.32,1.31-.48,1.95-.19.77-.37,1.52-.54,2.23-.31,1.3-.58,2.5-.78,3.52-.13.62-.23,1.18-.3,1.67v.02"/>
        <path class="cls-2" d="m124.36,149.76c.38-.67.73-1.29,1.06-1.85.57-.95,1.07-1.75,1.51-2.35.23-.32.45-.58.66-.8.19-.2.37-.37.62-.5.14-.08.3-.14.49-.17.15-.02.33-.02.49.03.22.06.42.18.57.33.13.14.21.29.27.43.08.2.12.39.14.59.06.48.02,1.02-.07,1.7-.06.51-.16,1.1-.28,1.75-.21,1.1-.49,2.41-.83,3.83-.21.89-.44,1.83-.67,2.8-.12.49-.25.98-.37,1.47-.37,1.46-.75,2.97-1.12,4.43-.16.65-.32,1.29-.47,1.92-.19.78-.38,1.54-.55,2.26-.3,1.29-.57,2.5-.78,3.52-.12.61-.22,1.16-.29,1.64"/>
        <line class="cls-2" x1="108.02" y1="155.21" x2="105.19" y2="162.61"/>
        <polyline class="cls-2" points="113.55 140.79 110.13 149.72 108.03 155.21"/>
        <path class="cls-2" d="m112.11,150.47c.32-.61.65-1.22.96-1.8.68-1.26,1.33-2.45,1.92-3.49.6-1.04,1.15-1.96,1.62-2.68.5-.75.9-1.3,1.34-1.69.16-.15.33-.28.57-.39.12-.05.27-.09.43-.11.14-.01.29,0,.43.04.22.07.42.2.55.34s.21.29.27.43c.09.2.12.4.14.59.06.5.02,1.05-.08,1.75-.06.52-.16,1.11-.28,1.77-.21,1.1-.5,2.41-.84,3.83-.27,1.17-.59,2.46-.91,3.76-.04.17-.09.35-.13.52-.37,1.46-.75,2.97-1.12,4.43-.07.27-.13.53-.2.8-.29,1.17-.57,2.31-.82,3.37-.3,1.29-.57,2.49-.77,3.5-.11.58-.21,1.12-.28,1.58"/>
        <path class="cls-2" d="m72,82.09c.71.29,1.48.44,2.28.44,3.45,0,6.25-2.8,6.25-6.25s-2.8-6.25-6.25-6.25c-.56,0-1.11.07-1.63.22-2.66.71-4.62,3.14-4.62,6.03,0,2.64,1.64,4.9,3.96,5.81"/>
        <polyline class="cls-2" points="118.61 164.68 116.73 163.97 116.48 163.87 115.91 162.58 117.36 158.79 119.47 153.29 120.92 149.51 122.21 148.93 124.36 149.76 126.24 150.47 126.88 150.72 127.17 151.37 125.92 154.63 123.05 162.1 121.8 165.37 121.15 165.66 118.61 164.69"/>
        <path class="cls-2" d="m137.89,151.19c-.26.4-.55.87-.87,1.39-.49.84-1.06,1.84-1.65,2.92-.39.72-.81,1.49-1.23,2.28"/>
        <polygon class="cls-2" points="97.75 151.27 93.08 163.47 93.72 164.59 97.45 166.03 98.68 165.61 99.75 162.81 109.06 138.53 110.13 135.73 109.5 134.6 105.76 133.17 104.53 133.59 99.86 145.78 97.75 151.27"/>
        <path class="cls-2" d="m111.21,156.43c-.55,1.02-1.08,2.02-1.59,2.95-.65,1.21-1.28,2.32-1.83,3.27-.57.97-1.08,1.78-1.53,2.39-.46.65-.78,1.1-1.38,1.4-.12.06-.27.12-.45.14-.15.02-.31.02-.47-.02-.22-.06-.42-.19-.57-.34-.13-.13-.21-.28-.27-.42-.09-.2-.12-.39-.15-.58-.04-.35-.03-.73.01-1.17.01-.16.03-.32.05-.5.07-.51.16-1.1.28-1.75.21-1.09.49-2.4.83-3.82.31-1.32.67-2.79,1.04-4.27.2-.82.42-1.66.63-2.5"/>
        <path class="cls-2" d="m142.1,160.84c.37-.71.74-1.39,1.09-2.04.66-1.21,1.28-2.32,1.84-3.27.57-.96,1.08-1.77,1.52-2.38.47-.64.78-1.09,1.39-1.39.12-.06.27-.12.44-.14.15-.02.31-.01.47.03.21.06.42.19.56.33.13.14.22.29.28.43.08.2.12.39.14.58.06.48.02,1.01-.06,1.68-.07.51-.16,1.1-.28,1.75-.21,1.09-.5,2.4-.83,3.82-.21.9-.44,1.86-.69,2.85-.11.47-.23.94-.35,1.42-.36,1.46-.75,2.97-1.11,4.43-.17.66-.33,1.32-.49,1.97-.19.76-.37,1.51-.54,2.21-.31,1.3-.58,2.51-.78,3.53-.12.62-.23,1.19-.3,1.67"/>
        <polyline class="cls-2" points="155.69 184.25 156.17 182.99 164.51 161.23 164.99 159.97"/>
        <path class="cls-2" d="m164.36,161.3s0-.01.01-.02c.35-.79.62-1.39.83-1.8.1-.19.17-.34.26-.48.04-.05.07-.11.13-.17.04-.05.1-.11.19-.18.04-.03.1-.07.16-.1.08-.04.17-.07.27-.09s.21-.02.31-.01c.11.01.22.05.32.1.11.05.2.12.28.2.08.07.14.17.18.25.05.09.07.17.09.25.01.07.02.12.02.17.01.07,0,.12,0,.16-.01.09-.02.15-.03.22-.04.21-.1.43-.18.72-.02.09-.05.18-.08.27-.1.33-.22.72-.37,1.16-.27.83-.62,1.88-1.03,3.07-.39,1.14-.83,2.42-1.3,3.77-.47,1.33-.97,2.76-1.46,4.17-.5,1.4-1,2.83-1.47,4.16-.45,1.31-.88,2.56-1.27,3.67,0,.02,0,.05-.02.07"/>
        <circle class="cls-2" cx="74.28" cy="76.28" r="2.5"/>
        <path class="cls-2" d="m67.2,81.45c-1.33.14-2.68-.14-3.83-.82-1.99-1.17-3.09-3.25-3.09-5.4,0-1.08.28-2.17.86-3.16,1.75-2.97,5.58-3.97,8.55-2.22"/>
        <polyline class="cls-2" points="155.94 182.47 158.53 175.7 161.4 168.23 163.99 161.46"/>
        <path class="cls-2" d="m66.28,46.17c-.54.78-.95,1.63-1.22,2.54"/>
        <line class="cls-2" x1="170.36" y1="158.82" x2="171.65" y2="158.24"/>
        <path class="cls-2" d="m107.68,151.93c-.38,1.48-.76,2.99-1.1,4.4-.29,1.15-.55,2.27-.78,3.28-.05.19-.09.38-.13.57-.19.9-.36,1.73-.48,2.43"/>
        <line class="cls-2" x1="188.01" y1="164.51" x2="176.37" y2="194.88"/>
        <path class="cls-2" d="m140.2,168.68c-.38.7-.75,1.39-1.11,2.05-.65,1.2-1.28,2.31-1.83,3.26-.57.96-1.08,1.76-1.52,2.37-.47.65-.78,1.1-1.39,1.39-.13.07-.27.12-.45.14-.14.02-.3.01-.46-.03-.21-.06-.42-.19-.56-.33-.13-.14-.22-.29-.27-.42-.09-.21-.13-.4-.15-.59-.05-.48-.02-1.01.07-1.68.06-.51.15-1.1.28-1.75.2-1.09.49-2.4.82-3.82.21-.9.44-1.86.68-2.85.12-.47.24-.95.36-1.43.37-1.45.75-2.97,1.12-4.43.16-.66.33-1.32.49-1.96.18-.76.36-1.51.53-2.22.31-1.29.58-2.5.78-3.52.13-.62.23-1.19.3-1.67"/>
        <line class="cls-2" x1="118.23" y1="152.82" x2="119.47" y2="153.29"/>
        <line class="cls-2" x1="168.69" y1="158.71" x2="170.18" y2="159.29"/>
        <polyline class="cls-2" points="82.43 103.06 81.88 80.09 81.79 76.25 81.18 51.1"/>
        <line class="cls-2" x1="187.39" y1="163.35" x2="181.78" y2="161.2"/>
        <polyline class="cls-2" points="163.99 161.46 164.36 161.3 164.51 161.23"/>
        <line class="cls-2" x1="180.54" y1="161.65" x2="171.65" y2="158.24"/>
        <line class="cls-2" x1="176.37" y1="194.88" x2="168.9" y2="192.02"/>
        <line class="cls-2" x1="167.12" y1="160.79" x2="167.79" y2="161.05"/>
        <line class="cls-2" x1="157.8" y1="166.86" x2="161.4" y2="168.23"/>
        <polyline class="cls-2" points="62.69 28.69 59.83 38.27 47.81 78.52 44.95 88.1"/>
        <path class="cls-2" d="m82.18,51.08c-.09-3.68-2.54-6.89-6.06-7.94"/>
        <path class="cls-2" d="m154.23,182.09c.26-.39.55-.86.86-1.38.37-.63.78-1.34,1.21-2.11.16-.3.33-.59.49-.89.12-.21.24-.42.36-.64.13-.22.25-.45.38-.68.16-.29.33-.59.49-.88"/>
        <polyline class="cls-2" points="153.9 201.77 159.09 188.23 170.18 159.29 170.36 158.82"/>
        <polyline class="cls-2" points="180.54 161.65 180.55 161.65 181.78 161.2"/>
        <polyline class="cls-2" points="155.85 174.67 158.02 175.51 158.53 175.7"/>
        <path class="cls-2" d="m81.88,80.09c.62-1.24.93-2.62.9-4.02"/>
        <path class="cls-2" d="m72,82.09h0c-1.62.44-3.34.21-4.79-.64"/>
        <polyline class="cls-2" points="155.94 182.47 156.11 182.85 156.17 182.99"/>
        <line class="cls-2" x1="157.59" y1="187.66" x2="159.09" y2="188.23"/>
        <line class="cls-2" x1="155.69" y1="184.25" x2="156.83" y2="184.69"/>
        <path class="cls-2" d="m69.69,69.85c1.01-.11,2.02.02,2.96.39"/>
        <line class="cls-2" x1="68.27" y1="43.28" x2="66.28" y2="46.17"/>
        <path class="cls-2" d="m60.59,54.94c.84.63,1.49,1.48,1.87,2.46.07.16.12.33.17.5"/>
        <line class="cls-2" x1="227.35" y1="208.51" x2="234.51" y2="189.83"/>
        <path class="cls-2" d="m56.93,104.06c1.58-3.01,2.36-6.36,2.28-9.75"/>
        <line class="cls-2" x1="234.51" y1="189.83" x2="233.36" y2="187.25"/>
        <line class="cls-2" x1="74.71" y1="203.96" x2="81.91" y2="196.8"/>
        <path class="cls-2" d="m63.04,222.14c.69-.09,1.35-.28,1.97-.54,2.03-.85,3.65-2.51,4.43-4.63"/>
        <polyline class="cls-2" points="26.04 163.96 15.29 211.94 13.72 218.97"/>
        <line class="cls-2" x1="89.26" y1="150.22" x2="88.57" y2="150.79"/>
        <path class="cls-2" d="m81.91,196.8c1-.99,2.23-1.7,3.59-2.06,4.27-1.13,8.65,1.41,9.78,5.68"/>
        <path class="cls-2" d="m68.29,128.74c-.04,1.93-.99,3.74-2.56,4.87"/>
        <polyline class="cls-2" points="95.28 200.42 99.4 215.94 105.53 239.08"/>
        <path class="cls-2" d="m83.94,232.33c-.82,1.04-1.3,2.35-1.3,3.77,0,3.39,2.75,6.15,6.15,6.15s6.15-2.76,6.15-6.15c0-.63-.09-1.24-.27-1.81-.77-2.52-3.11-4.34-5.88-4.34-1.98,0-3.74.93-4.85,2.38Z"/>
        <circle class="cls-2" cx="131.93" cy="214.6" r="4.75"/>
        <path class="cls-2" d="m94.67,234.29c1.34-1.73,1.67-4.05.84-6.08"/>
        <line class="cls-2" x1="89.86" y1="139.74" x2="90.55" y2="139.18"/>
        <line class="cls-2" x1="68.54" y1="142.28" x2="80.21" y2="146.75"/>
        <line class="cls-2" x1="116.78" y1="158.57" x2="117.36" y2="158.79"/>
        <polyline class="cls-2" points="90.39 138.34 89.86 139.74 86.28 149.08 85.74 150.48"/>
        <line class="cls-2" x1="146.93" y1="241.2" x2="146.93" y2="232.77"/>
        <path class="cls-2" d="m95.51,228.21c1.19-1.85,1.31-4.18.31-6.14"/>
        <polyline class="cls-2" points="38.94 216.17 40.56 218.23 42.69 220.96"/>
        <path class="cls-2" d="m63.18,138.48c-.03,1.94-.98,3.74-2.55,4.88"/>
        <line class="cls-2" x1="92.7" y1="140" x2="90.55" y2="139.18"/>
        <line class="cls-2" x1="105.93" y1="242.16" x2="105.93" y2="246.6"/>
        <polyline class="cls-2" points="126.36 163.37 128.5 164.19 130.37 164.91 134.31 166.42 134.32 166.42"/>
        <path class="cls-2" d="m105.53,239.08c.21.83.35,1.67.38,2.52.02.19.02.37.02.56"/>
        <path class="cls-2" d="m49.85,169.34c-.49.93-.85,1.92-1.08,2.95"/>
        <line class="cls-2" x1="88.57" y1="150.79" x2="86.42" y2="149.96"/>
        <line class="cls-2" x1="72.11" y1="132.94" x2="70.15" y2="130.57"/>
        <line class="cls-2" x1="10.14" y1="173.2" x2="12.53" y2="173.91"/>
        <polyline class="cls-2" points="89.26 150.22 90 148.3 92.11 142.81 92.84 140.89"/>
        <path class="cls-2" d="m41.34,217.59c1.2,1.18,2.59,2.12,4.09,2.78,1.78.81,3.73,1.23,5.71,1.23"/>
        <path class="cls-2" d="m58.54,123.63c.03-1.93.98-3.74,2.55-4.87,2.75-1.99,6.6-1.36,8.58,1.39,1.99,2.76,1.37,6.6-1.38,8.59"/>
        <path class="cls-2" d="m114.91,167.02c.28-.42.59-.92.92-1.48.28-.48.59-1.01.9-1.57"/>
        <polyline class="cls-2" points="69.44 216.97 69.83 215.9 73.55 205.78"/>
        <path class="cls-2" d="m94.84,209.84c.67-2.08.18-4.37-1.29-6"/>
        <path class="cls-2" d="m27.12,161.01c-.48.93-.85,1.92-1.08,2.95"/>
        <line class="cls-2" x1="9.02" y1="239.85" x2="11.54" y2="219.85"/>
        <path class="cls-2" d="m84.65,227.18c-.99,1.53-1.25,3.41-.72,5.14"/>
        <line class="cls-2" x1="41.34" y1="217.59" x2="39.11" y2="215.4"/>
        <path class="cls-2" d="m82.98,206.59c-.4,1.77,0,3.63,1.09,5.08"/>
        <line class="cls-2" x1="13.16" y1="173.58" x2="12.53" y2="173.91"/>
        <path class="cls-2" d="m13.72,218.97c-1.45,6.47,2.62,12.89,9.08,14.34,6.47,1.44,12.89-2.62,14.34-9.09"/>
        <line class="cls-2" x1="80.21" y1="146.75" x2="81.07" y2="148.69"/>
        <path class="cls-2" d="m95.82,222.07c1.03-1.94.94-4.27-.22-6.13"/>
        <polyline class="cls-2" points="125.91 154.63 125.92 154.63 126.45 154.84"/>
        <line class="cls-2" x1="90" y1="148.3" x2="97.75" y2="151.27"/>
        <path class="cls-2" d="m93.55,203.84c.75-3.31-1.32-6.61-4.63-7.36-3.31-.76-6.61,1.31-7.37,4.62-.44,1.96.09,4,1.43,5.49"/>
        <line class="cls-2" x1="68.54" y1="142.28" x2="63.64" y2="143"/>
        <circle class="cls-2" cx="88.79" cy="236.1" r="2.5"/>
        <line class="cls-2" x1="83.79" y1="137.41" x2="85.72" y2="136.55"/>
        <line class="cls-2" x1="85.72" y1="136.55" x2="90.39" y2="138.34"/>
        <line class="cls-2" x1="92.84" y1="140.89" x2="92.7" y2="140"/>
        <line class="cls-2" x1="10.14" y1="173.2" x2="8.79" y2="170.71"/>
        <path class="cls-2" d="m84.91,222c-.85,1.6-.95,3.5-.26,5.18"/>
        <line class="cls-2" x1="45.43" y1="215.9" x2="45.43" y2="220.37"/>
        <path class="cls-2" d="m84.07,211.67c-.55,1.72-.32,3.61.65,5.14"/>
        <path class="cls-2" d="m84.72,216.81c-.71,1.68-.64,3.57.19,5.19"/>
        <line class="cls-2" x1="99.75" y1="162.81" x2="102.98" y2="164.05"/>
        <line class="cls-2" x1="86.28" y1="149.08" x2="86.42" y2="149.96"/>
        <line class="cls-2" x1="132.73" y1="239.25" x2="136.39" y2="235.59"/>
        <circle class="cls-2" cx="112.93" cy="233.6" r="4.75"/>
        <polyline class="cls-2" points="108.02 155.21 108.03 155.21 111.21 156.43 114.92 157.85"/>
        <path class="cls-2" d="m50.89,138.25c.03-1.93.98-3.74,2.55-4.87"/>
        <line class="cls-2" x1="146.93" y1="241.2" x2="129.57" y2="241.2"/>
        <polyline class="cls-2" points="129.64 206.93 129.19 207.07 99.4 215.94"/>
        <path class="cls-2" d="m150.03,172.45c-.39.72-.76,1.41-1.13,2.08-.65,1.2-1.27,2.31-1.83,3.25-.56.96-1.07,1.76-1.51,2.37-.47.64-.78,1.09-1.4,1.38-.12.06-.27.11-.44.13-.14.02-.3,0-.45-.03-.22-.06-.42-.19-.56-.34-.13-.13-.22-.28-.27-.42-.09-.2-.13-.39-.15-.59-.05-.48-.02-1.01.07-1.69.06-.51.16-1.1.28-1.75.21-1.1.49-2.41.83-3.83.21-.89.44-1.84.68-2.82.12-.48.24-.96.36-1.45.36-1.46.75-2.97,1.11-4.43.17-.65.33-1.3.49-1.94.19-.77.37-1.53.54-2.24.3-1.29.57-2.5.78-3.52.12-.61.22-1.17.29-1.65"/>
        <polyline class="cls-2" points="128.31 155.55 128.32 155.55 132.27 157.07 134.14 157.78 136.28 158.6"/>
        <path class="cls-2" d="m134.55,174.59s0-.02.02-.03c.26-.4.56-.88.87-1.41.5-.84,1.06-1.83,1.66-2.91.39-.72.8-1.49,1.23-2.28"/>
        <path class="cls-2" d="m55.99,128.51c.03-1.94.98-3.74,2.55-4.88"/>
        <line class="cls-2" x1="72.11" y1="132.94" x2="83.79" y2="137.41"/>
        <circle class="cls-2" cx="59.59" cy="133.49" r="2.5"/>
        <line class="cls-2" x1="50.11" y1="223.95" x2="63.04" y2="222.14"/>
        <path class="cls-2" d="m147.72,154.96c-.26.4-.56.87-.87,1.41-.5.84-1.07,1.83-1.66,2.92-.39.71-.8,1.48-1.22,2.26"/>
        <line class="cls-2" x1="92.11" y1="142.81" x2="99.86" y2="145.78"/>
        <line class="cls-2" x1="81.07" y1="148.69" x2="85.74" y2="150.48"/>
        <path class="cls-2" d="m127.07,241.6c.86,0,1.7-.14,2.5-.41,1.18-.38,2.27-1.05,3.16-1.94"/>
        <path class="cls-2" d="m128.06,147.42c-.26.4-.55.86-.86,1.39-.3.5-.62,1.06-.96,1.66"/>
        <polyline class="cls-2" points="109.06 138.53 109.73 138.79 110.02 138.9"/>
        <path class="cls-2" d="m109.73,138.79c.1-.2.18-.37.26-.52.09-.18.16-.31.25-.45.03-.05.07-.11.13-.18.04-.04.09-.09.17-.15.04-.04.09-.07.15-.1.08-.04.17-.08.27-.1s.21-.02.31-.01c.11.01.22.04.33.09.1.05.19.11.27.19s.15.17.19.26c.05.08.08.17.09.24.02.07.03.13.03.18v.16c-.01.09-.02.15-.03.21-.03.2-.09.4-.16.67-.03.11-.06.22-.1.34-.1.32-.21.69-.35,1.12-.27.83-.63,1.88-1.03,3.07-.39,1.13-.84,2.41-1.31,3.75-.48,1.4-1.01,2.89-1.52,4.37"/>
        <line class="cls-2" x1="153.9" y1="201.77" x2="154.47" y2="203.06"/>
        <path class="cls-2" d="m95.6,215.94c.85-2.02.56-4.35-.76-6.1"/>
        <polyline class="cls-2" points="37.14 224.22 38.94 216.17 38.94 216.16 39.11 215.4 48.77 172.29"/>
        <path class="cls-2" d="m144.4,178.32c.26-.39.55-.86.87-1.39.49-.83,1.05-1.83,1.65-2.91.39-.72.81-1.5,1.24-2.29"/>
        <polyline class="cls-2" points="136.19 167.14 138.33 167.96 140.2 168.68 144.15 170.19"/>
        <polyline class="cls-2" points="138.14 159.32 138.15 159.32 142.09 160.84 142.1 160.84 143.97 161.55 146.1 162.37"/>
        <polyline class="cls-2" points="146.02 170.91 148.16 171.73 150.03 172.44 150.03 172.45 153.98 173.96"/>
        <path class="cls-2" d="m124.74,170.79c.27-.41.57-.89.88-1.42.5-.85,1.07-1.84,1.66-2.93.39-.71.8-1.47,1.22-2.25"/>
        <polyline class="cls-2" points="105.91 241.6 112.93 241.6 127.07 241.6"/>
        <polyline class="cls-2" points="110.13 149.72 112.11 150.47 113.97 151.19 116.36 152.1"/>
        <line class="cls-2" x1="111.89" y1="139.62" x2="113.26" y2="140.15"/>
        <line class="cls-2" x1="69.83" y1="215.9" x2="45.43" y2="215.9"/>
        <path class="cls-2" d="m65.73,133.61s.01-.08.01-.12c0-3.39-2.76-6.15-6.15-6.15-1.34,0-2.59.43-3.6,1.17-1.52,1.09-2.51,2.87-2.54,4.87,0,.04,0,.07,0,.11,0,3.4,2.75,6.15,6.15,6.15,1.34,0,2.58-.43,3.59-1.16,1.52-1.09,2.52-2.86,2.55-4.87Z"/>
        <line class="cls-2" x1="65.01" y1="221.6" x2="51.14" y2="221.6"/>
        <path class="cls-2" d="m60.63,143.36c-.03,1.93-.98,3.74-2.55,4.87-2.75,1.99-6.6,1.36-8.58-1.39-1.99-2.76-1.37-6.6,1.39-8.59"/>
        <line class="cls-2" x1="123.05" y1="162.1" x2="124.49" y2="162.65"/>
        <path class="cls-2" d="m118.61,164.68h0c-.35.64-.68,1.21-1,1.74-.56.97-1.08,1.78-1.52,2.39-.47.65-.78,1.1-1.38,1.4-.13.06-.28.12-.45.14-.15.02-.31.02-.47-.02-.22-.06-.43-.19-.57-.34-.13-.13-.21-.28-.27-.42-.09-.2-.13-.39-.15-.58-.05-.48-.02-1.01.06-1.68.07-.5.16-1.09.28-1.74.21-1.09.49-2.4.83-3.82.28-1.22.61-2.55.95-3.9.03-.12.06-.25.09-.37.36-1.46.75-2.97,1.11-4.43.08-.32.16-.64.24-.95.28-1.12.55-2.22.79-3.24.31-1.29.58-2.5.78-3.53.13-.62.23-1.19.3-1.68"/>
        <path class="cls-2" d="m105.81,151.21c.5-1.43,1.01-2.88,1.48-4.23.46-1.33.91-2.6,1.29-3.72s.72-2.11.98-2.91c.19-.59.35-1.08.46-1.45"/>
        <line class="cls-2" x1="113.55" y1="140.79" x2="113.26" y2="140.15"/>
        <line class="cls-2" x1="40.56" y1="218.23" x2="40.64" y2="218.31"/>
        <path class="cls-2" d="m8.93,241.35c0-.5.03-1,.09-1.5"/>
        <path class="cls-2" d="m11.54,219.85c.37-2.97,1.69-5.75,3.75-7.91"/>
        <path class="cls-2" d="m42.69,220.96c1.76,2.25,4.59,3.39,7.42,2.99"/>
        <circle class="cls-2" cx="25.43" cy="221.6" r="4"/>
        <line class="cls-2" x1="8.93" y1="241.35" x2="8.93" y2="246.6"/>
        <path class="cls-2" d="m118.23,143.65c-.26.4-.55.86-.86,1.39-.5.83-1.06,1.83-1.65,2.9-.55,1.01-1.14,2.12-1.75,3.25"/>
        <path class="cls-2" d="m73.55,205.78c.25-.69.65-1.31,1.16-1.82"/>
        <line class="cls-2" x1="225.67" y1="182.16" x2="223.94" y2="178.29"/>
        <circle class="cls-2" cx="73.68" cy="51.28" r="6.25"/>
        <line class="cls-2" x1="224.67" y1="184.78" x2="225.7" y2="184.32"/>
        <line class="cls-2" x1="188.01" y1="164.51" x2="223.94" y2="178.29"/>
        <polyline class="cls-2" points="221.69 192.55 224.67 184.78 225.67 182.16"/>
        <path class="cls-2" d="m81.18,51.1c-.08-3.25-2.24-6.07-5.35-7"/>
        <line class="cls-2" x1="225.7" y1="184.32" x2="233.36" y2="187.25"/>
        <polyline class="cls-2" points="64.62 39.7 60.11 54.8 57.11 64.86 52.6 79.95"/>
        <polyline class="cls-2" points="215.65 208.31 216.65 205.69 219.63 197.92"/>
        <polyline class="cls-2" points="49.85 169.34 63.64 143 70.15 130.57 80.72 110.37"/>
        <line class="cls-2" x1="56.93" y1="104.06" x2="27.12" y2="161.01"/>
        <line class="cls-2" x1="56.3" y1="11.65" x2="8.79" y2="170.71"/>
        <polyline class="cls-2" points="13.16 173.58 38.91 87.34 40.22 82.95"/>
        <line class="cls-2" x1="216.65" y1="205.69" x2="217.11" y2="206.72"/>
        <line class="cls-2" x1="38.91" y1="87.34" x2="43.7" y2="88.77"/>
        <line class="cls-2" x1="227.35" y1="208.51" x2="224.78" y2="209.66"/>
        <line class="cls-2" x1="224.78" y1="209.66" x2="217.11" y2="206.72"/>
      </g>
    </g>
  </g>
</svg>