<?xml version="1.0" encoding="UTF-8"?>
<svg xmlns="http://www.w3.org/2000/svg" viewBox="0 0 851 625">
  <defs>
    <style>
      .cls-1 {
        stroke: #000;
        stroke-width: 3px;
      }

      .cls-1, .cls-2, .cls-3, .cls-4, .cls-5, .cls-6, .cls-7 {
        fill: none;
      }

      .cls-2, .cls-3, .cls-4, .cls-6, .cls-7 {
        stroke-width: 6px;
      }

      .cls-2, .cls-6 {
        stroke-dasharray: 0 0 11.9 11.9;
      }

      .cls-2, .cls-7 {
        stroke: #ff2400;
      }

      .cls-3 {
        stroke: gray;
      }

      .cls-4, .cls-6 {
        stroke: #0570d1;
      }

      .cls-5 {
        stroke: #969595;
      }
    </style>
  </defs>
  <g id="Scales">
    <line class="cls-5" x1="101.27" y1="487.41" x2="801.27" y2="487.41"/>
    <line class="cls-5" x1="101.27" y1="431.85" x2="801.27" y2="431.85"/>
    <line class="cls-5" x1="101.27" y1="376.3" x2="801.27" y2="376.3"/>
    <line class="cls-5" x1="101.27" y1="320.74" x2="801.27" y2="320.74"/>
    <line class="cls-5" x1="101.27" y1="265.19" x2="801.27" y2="265.19"/>
    <line class="cls-5" x1="101.27" y1="209.63" x2="801.27" y2="209.63"/>
    <line class="cls-5" x1="101.27" y1="154.07" x2="801.27" y2="154.07"/>
    <line class="cls-5" x1="101.27" y1="98.52" x2="801.27" y2="98.52"/>
    <line class="cls-5" x1="101.27" y1="42.96" x2="801.27" y2="42.96"/>
    <line class="cls-5" x1="276.27" y1="42.96" x2="276.27" y2="542.96"/>
    <line class="cls-5" x1="451.27" y1="42.96" x2="451.27" y2="542.96"/>
    <line class="cls-5" x1="626.27" y1="42.96" x2="626.27" y2="542.96"/>
    <line class="cls-5" x1="801.27" y1="42.96" x2="801.27" y2="542.96"/>
  </g>
  <g id="Travel">
    <line class="cls-3" x1="101.57" y1="437.18" x2="115.11" y2="430.75"/>
    <line class="cls-3" x1="115.11" y1="430.75" x2="128.65" y2="424.33"/>
    <line class="cls-3" x1="128.65" y1="424.33" x2="142.19" y2="417.92"/>
    <line class="cls-3" x1="142.19" y1="417.92" x2="155.73" y2="411.52"/>
    <line class="cls-3" x1="155.73" y1="411.52" x2="169.28" y2="405.13"/>
    <line class="cls-3" x1="169.28" y1="405.13" x2="182.83" y2="398.75"/>
    <line class="cls-3" x1="182.83" y1="398.75" x2="196.39" y2="392.39"/>
    <line class="cls-3" x1="196.39" y1="392.39" x2="209.95" y2="386.05"/>
    <line class="cls-3" x1="209.95" y1="386.05" x2="223.52" y2="379.72"/>
    <line class="cls-3" x1="223.52" y1="379.72" x2="237.1" y2="373.41"/>
    <line class="cls-3" x1="237.1" y1="373.41" x2="250.69" y2="367.12"/>
    <line class="cls-3" x1="250.69" y1="367.12" x2="264.29" y2="360.86"/>
    <line class="cls-3" x1="264.29" y1="360.86" x2="277.9" y2="354.62"/>
    <line class="cls-3" x1="277.9" y1="354.62" x2="291.52" y2="348.4"/>
    <line class="cls-3" x1="291.52" y1="348.4" x2="305.15" y2="342.21"/>
    <line class="cls-3" x1="305.15" y1="342.21" x2="318.8" y2="336.05"/>
    <line class="cls-3" x1="318.8" y1="336.05" x2="332.47" y2="329.92"/>
    <line class="cls-3" x1="332.47" y1="329.92" x2="346.15" y2="323.82"/>
    <line class="cls-3" x1="346.15" y1="323.82" x2="359.85" y2="317.76"/>
    <line class="cls-3" x1="359.85" y1="317.76" x2="373.57" y2="311.73"/>
    <line class="cls-3" x1="373.57" y1="311.73" x2="387.3" y2="305.74"/>
    <line class="cls-3" x1="387.3" y1="305.74" x2="401.06" y2="299.79"/>
    <line class="cls-3" x1="401.06" y1="299.79" x2="414.85" y2="293.89"/>
    <line class="cls-3" x1="414.85" y1="293.89" x2="428.65" y2="288.02"/>
    <line class="cls-3" x1="428.65" y1="288.02" x2="442.48" y2="282.21"/>
    <line class="cls-3" x1="442.48" y1="282.21" x2="456.34" y2="276.44"/>
    <line class="cls-3" x1="456.34" y1="276.44" x2="470.22" y2="270.72"/>
    <line class="cls-3" x1="470.22" y1="270.72" x2="484.14" y2="265.06"/>
    <line class="cls-3" x1="484.14" y1="265.06" x2="498.09" y2="259.46"/>
    <line class="cls-3" x1="498.09" y1="259.46" x2="512.06" y2="253.91"/>
    <line class="cls-3" x1="512.06" y1="253.91" x2="526.08" y2="248.42"/>
    <line class="cls-3" x1="526.08" y1="248.42" x2="540.13" y2="243"/>
    <line class="cls-3" x1="540.13" y1="243" x2="554.21" y2="237.65"/>
    <line class="cls-3" x1="554.21" y1="237.65" x2="568.34" y2="232.37"/>
    <line class="cls-3" x1="568.34" y1="232.37" x2="582.51" y2="227.16"/>
    <line class="cls-3" x1="582.51" y1="227.16" x2="596.72" y2="222.02"/>
    <line class="cls-3" x1="596.72" y1="222.02" x2="610.97" y2="216.97"/>
    <line class="cls-3" x1="610.97" y1="216.97" x2="625.28" y2="212"/>
    <line class="cls-3" x1="625.28" y1="212" x2="639.63" y2="207.11"/>
    <line class="cls-3" x1="639.63" y1="207.11" x2="654.04" y2="202.32"/>
    <line class="cls-3" x1="654.04" y1="202.32" x2="668.5" y2="197.62"/>
    <line class="cls-3" x1="668.5" y1="197.62" x2="683.02" y2="193.02"/>
    <line class="cls-3" x1="683.02" y1="193.02" x2="697.6" y2="188.53"/>
    <line class="cls-3" x1="697.6" y1="188.53" x2="712.24" y2="184.14"/>
    <line class="cls-3" x1="712.24" y1="184.14" x2="726.94" y2="179.86"/>
    <line class="cls-3" x1="726.94" y1="179.86" x2="741.72" y2="175.7"/>
    <line class="cls-3" x1="741.72" y1="175.7" x2="756.56" y2="171.66"/>
    <line class="cls-3" x1="756.56" y1="171.66" x2="771.49" y2="167.74"/>
    <line class="cls-3" x1="771.49" y1="167.74" x2="786.49" y2="163.96"/>
    <line class="cls-3" x1="786.49" y1="163.96" x2="801.57" y2="160.32"/>
    <g>
      <line class="cls-7" x1="533.8" y1="41.64" x2="533.8" y2="47.64"/>
      <line class="cls-2" x1="533.8" y1="59.54" x2="533.8" y2="529.68"/>
      <line class="cls-7" x1="533.8" y1="535.64" x2="533.8" y2="541.64"/>
    </g>
    <g>
      <line class="cls-4" x1="801.3" y1="41.64" x2="801.3" y2="47.64"/>
      <line class="cls-6" x1="801.3" y1="59.54" x2="801.3" y2="529.68"/>
      <line class="cls-4" x1="801.3" y1="535.64" x2="801.3" y2="541.64"/>
    </g>
  </g>
  <g id="Legend_light" data-name="Legend light">
    <line class="cls-1" x1="101.57" y1="542.96" x2="801.57" y2="542.96"/>
    <line class="cls-1" x1="101.57" y1="42.96" x2="101.57" y2="542.96"/>
    <g>
      <path d="m614.41,575.07v-1.43l5.98-13.65v-.26h-8.71v-2.86h12.61v2.86l-6.76,15.34h-3.12Z"/>
      <path d="m629.88,563.89h4.55c.66,0,1.25.1,1.77.3.52.2.97.48,1.35.83.38.36.67.78.87,1.27s.3,1.04.3,1.62v3.12c0,.59-.1,1.13-.3,1.62s-.49.92-.87,1.27c-.38.36-.83.63-1.35.83-.52.2-1.11.3-1.77.3h-8.32v-2.86h7.41c.52,0,.95-.17,1.3-.51s.52-.73.52-1.18v-2.08c0-.45-.17-.85-.52-1.18s-.78-.51-1.3-.51h-7.02v-9.88h11.57v1.95l-.91.91h-7.28v4.16Z"/>
    </g>
    <g>
      <path d="m441.06,563.89h4.55c.66,0,1.25.1,1.77.3.52.2.97.48,1.35.83.38.36.67.78.87,1.27s.3,1.04.3,1.62v3.12c0,.59-.1,1.13-.3,1.62s-.49.92-.87,1.27c-.38.36-.83.63-1.35.83-.52.2-1.11.3-1.77.3h-8.32v-2.86h7.41c.52,0,.95-.17,1.3-.51s.52-.73.52-1.18v-2.08c0-.45-.17-.85-.52-1.18s-.78-.51-1.3-.51h-7.02v-9.88h11.57v1.95l-.91.91h-7.28v4.16Z"/>
      <path d="m463.11,556.91c.52.2.97.48,1.35.83.38.36.67.78.87,1.27s.3,1.04.3,1.62v10.66c0,.59-.1,1.13-.3,1.62-.2.49-.49.92-.87,1.27s-.83.63-1.35.83c-.52.2-1.11.3-1.77.3h-4.81c-.64,0-1.23-.1-1.75-.3-.53-.2-.98-.48-1.37-.83-.38-.36-.67-.78-.87-1.27-.2-.49-.3-1.04-.3-1.62v-10.66c0-.59.1-1.13.3-1.62.2-.49.49-.92.87-1.27.38-.35.84-.63,1.37-.83.53-.2,1.11-.3,1.75-.3h4.81c.66,0,1.25.1,1.77.3Zm-6.97,3.07c-.35.34-.52.73-.52,1.18v9.62c0,.45.17.84.52,1.18s.78.51,1.3.51h2.99c.52,0,.95-.17,1.3-.51s.52-.73.52-1.18v-9.62c0-.45-.17-.85-.52-1.18s-.78-.51-1.3-.51h-2.99c-.52,0-.95.17-1.3.51Z"/>
    </g>
    <g>
      <path d="m271.91,561.42c0-.45-.17-.84-.52-1.18-.35-.34-.78-.51-1.3-.51h-6.5l-.91-.91v-1.95h8.32c1.3,0,2.34.36,3.12,1.07s1.17,1.66,1.17,2.83v1.56c0,.49-.07.92-.2,1.31-.13.39-.32.77-.56,1.13-.24.36-.54.72-.9,1.08-.36.36-.76.74-1.21,1.16l-5.46,4.94v.26h8.45v2.86h-13.13v-2.86l8.32-7.54c.28-.24.56-.56.86-.96s.44-.86.44-1.38v-.91Z"/>
      <path d="m281.27,563.89h4.55c.66,0,1.25.1,1.77.3.52.2.97.48,1.35.83.38.36.67.78.87,1.27s.3,1.04.3,1.62v3.12c0,.59-.1,1.13-.3,1.62s-.49.92-.87,1.27c-.38.36-.83.63-1.35.83-.52.2-1.11.3-1.77.3h-8.32v-2.86h7.41c.52,0,.95-.17,1.3-.51s.52-.73.52-1.18v-2.08c0-.45-.17-.85-.52-1.18s-.78-.51-1.3-.51h-7.02v-9.88h11.57v1.95l-.91.91h-7.28v4.16Z"/>
    </g>
    <path d="m105.64,556.91c.52.2.97.48,1.35.83.38.36.67.78.87,1.27s.3,1.04.3,1.62v10.66c0,.59-.1,1.13-.3,1.62-.2.49-.49.92-.87,1.27s-.83.63-1.35.83c-.52.2-1.11.3-1.77.3h-4.81c-.64,0-1.23-.1-1.75-.3-.53-.2-.98-.48-1.37-.83-.38-.36-.67-.78-.87-1.27-.2-.49-.3-1.04-.3-1.62v-10.66c0-.59.1-1.13.3-1.62.2-.49.49-.92.87-1.27.38-.35.84-.63,1.37-.83.53-.2,1.11-.3,1.75-.3h4.81c.66,0,1.25.1,1.77.3Zm-6.97,3.07c-.35.34-.52.73-.52,1.18v9.62c0,.45.17.84.52,1.18s.78.51,1.3.51h2.99c.52,0,.95-.17,1.3-.51s.52-.73.52-1.18v-9.62c0-.45-.17-.85-.52-1.18s-.78-.51-1.3-.51h-2.99c-.52,0-.95.17-1.3.51Z"/>
    <path d="m85.37,496.67h-3.38v-15.21h-3.25v-1.95l4.03-1.04h2.6v18.2Z"/>
    <path d="m82.71,427.42c0-.45-.17-.84-.52-1.18-.35-.34-.78-.51-1.3-.51h-6.5l-.91-.91v-1.95h8.32c1.3,0,2.34.35,3.12,1.07.78.71,1.17,1.66,1.17,2.83v1.56c0,.49-.06.92-.19,1.31-.13.39-.32.77-.56,1.13-.24.36-.54.72-.9,1.08-.36.36-.76.74-1.21,1.16l-5.46,4.94v.26h8.45v2.86h-13.13v-2.86l8.32-7.54c.28-.24.56-.56.86-.96.29-.4.44-.86.44-1.38v-.91Z"/>
    <path d="m72.96,383.21h7.67c.52,0,.95-.17,1.3-.51s.52-.73.52-1.18v-1.56c0-.45-.17-.84-.52-1.18s-.78-.51-1.3-.51h-4.81v-2.86l5.2-4.42v-.26h-7.05l-.88-.88v-1.98h12.22v2.86l-5.2,4.42v.26h1.43c.66,0,1.25.1,1.77.3.52.2.97.48,1.35.83.38.36.67.78.87,1.27.2.49.3,1.04.3,1.62v2.6c0,.59-.1,1.13-.3,1.62-.2.49-.49.92-.87,1.27-.38.36-.83.63-1.35.83-.52.2-1.11.3-1.77.3h-8.58v-2.86Z"/>
    <path d="m84.4,323.31h2.08v2.86h-2.08v3.9h-3.38v-3.9h-8.97v-2.86l8.19-11.44h4.16v11.44Zm-8.58-.26v.26h5.2v-7.15h-.26l-4.94,6.89Z"/>
    <path d="m77.12,262.89h4.55c.66,0,1.25.1,1.77.3.52.2.97.48,1.35.83.38.36.67.78.87,1.27.2.49.3,1.04.3,1.62v3.12c0,.59-.1,1.13-.3,1.62-.2.49-.49.92-.87,1.27-.38.36-.83.63-1.35.83-.52.2-1.11.3-1.77.3h-8.32v-2.86h7.41c.52,0,.95-.17,1.3-.51s.52-.73.52-1.18v-2.08c0-.45-.17-.85-.52-1.18s-.78-.51-1.3-.51h-7.02v-9.88h11.57v1.95l-.91.91h-7.28v4.16Z"/>
    <path d="m85.66,215.92c-.2.49-.49.92-.87,1.27-.38.36-.83.63-1.35.83-.52.2-1.11.3-1.77.3h-4.55c-.64,0-1.23-.1-1.76-.3-.53-.2-.98-.48-1.36-.83s-.67-.78-.87-1.27c-.2-.49-.3-1.04-.3-1.62v-10.4c0-.59.1-1.13.3-1.62s.49-.92.87-1.27.84-.63,1.36-.83c.53-.2,1.11-.3,1.76-.3h7.93v1.95l-.91.91h-6.11c-.52,0-.95.17-1.3.51-.35.34-.52.73-.52,1.18v2.47h5.46c.66,0,1.25.1,1.77.3.52.2.97.48,1.35.83.38.36.67.78.87,1.27.2.49.3,1.04.3,1.62v3.38c0,.59-.1,1.13-.3,1.62Zm-3.6-.96c.35-.34.52-.73.52-1.18v-2.34c0-.45-.17-.85-.52-1.18s-.78-.51-1.3-.51h-4.55v4.03c0,.45.17.84.52,1.18s.78.51,1.3.51h2.73c.52,0,.95-.17,1.3-.51Z"/>
    <path d="m76.6,163.07v-1.43l5.98-13.65v-.26h-8.71v-2.86h12.61v2.86l-6.76,15.34h-3.12Z"/>
    <path d="m85.18,96.86c-.26.38-.54.68-.83.91-.36.28-.78.5-1.25.68v.26c.54.09,1.01.26,1.43.52.38.24.72.59,1,1.03.29.44.43,1.05.43,1.83v2.21c0,.59-.1,1.13-.3,1.62-.2.49-.49.92-.87,1.27s-.83.63-1.35.83-1.11.3-1.77.3h-4.94c-.64,0-1.23-.1-1.75-.3s-.98-.48-1.37-.83-.67-.78-.87-1.27c-.2-.49-.3-1.04-.3-1.62v-2.21c0-.73.15-1.31.44-1.74.29-.43.62-.77.99-1.01.42-.29.89-.5,1.43-.62v-.26c-.47-.17-.88-.4-1.22-.68-.35-.24-.64-.55-.88-.92-.24-.37-.36-.84-.36-1.39v-1.82c0-.59.1-1.13.3-1.62s.49-.92.87-1.27c.38-.35.84-.63,1.37-.83.53-.2,1.11-.3,1.75-.3h4.16c.66,0,1.25.1,1.77.3.52.2.97.48,1.35.83.38.36.67.78.87,1.27s.3,1.04.3,1.62v1.82c0,.55-.13,1.02-.39,1.4Zm-3.12,3.78c-.35-.34-.78-.51-1.3-.51h-3.12c-.52,0-.95.17-1.3.51-.35.34-.52.73-.52,1.18v1.95c0,.45.17.84.52,1.18s.78.51,1.3.51h3.12c.52,0,.95-.17,1.3-.51s.52-.73.52-1.18v-1.95c0-.45-.17-.84-.52-1.18Zm.13-6.49c0-.45-.17-.85-.52-1.18s-.78-.51-1.3-.51h-2.34c-.52,0-.95.17-1.3.51s-.52.73-.52,1.18v1.43c0,.45.17.84.52,1.18.35.34.78.51,1.3.51h2.34c.52,0,.95-.17,1.3-.51.35-.34.52-.73.52-1.18v-1.43Z"/>
    <path d="m72.57,37.64c0-.59.1-1.13.3-1.62.2-.49.49-.92.87-1.27.38-.35.84-.63,1.37-.83.53-.2,1.11-.3,1.75-.3h4.55c.66,0,1.25.1,1.77.3.52.2.97.48,1.35.83.38.36.67.78.87,1.27s.3,1.04.3,1.62v10.4c0,.59-.1,1.13-.3,1.62s-.49.92-.87,1.27-.83.63-1.35.83-1.11.3-1.77.3h-7.93v-2.86h7.02c.52,0,.95-.17,1.3-.51s.52-.73.52-1.18v-2.47h-5.46c-.64,0-1.23-.1-1.75-.3s-.98-.48-1.37-.83-.67-.78-.87-1.27c-.2-.49-.3-1.04-.3-1.62v-3.38Zm5.2-1.17c-.52,0-.95.17-1.3.51s-.52.73-.52,1.18v2.34c0,.45.17.84.52,1.18s.78.51,1.3.51h4.55v-4.03c0-.45-.17-.85-.52-1.18s-.78-.51-1.3-.51h-2.73Z"/>
    <g>
      <path d="m787.79,575.03h-3.38v-15.21h-3.25v-1.95l4.03-1.04h2.6v18.2Z"/>
      <path d="m801.77,556.86c.52.2.97.48,1.35.83.38.36.67.78.87,1.27s.3,1.04.3,1.62v10.66c0,.59-.1,1.13-.3,1.62-.2.49-.49.92-.87,1.27s-.83.63-1.35.83c-.52.2-1.11.3-1.77.3h-4.81c-.64,0-1.23-.1-1.75-.3-.53-.2-.98-.48-1.37-.83-.38-.36-.67-.78-.87-1.27-.2-.49-.3-1.04-.3-1.62v-10.66c0-.59.1-1.13.3-1.62.2-.49.49-.92.87-1.27.38-.35.84-.63,1.37-.83.53-.2,1.11-.3,1.75-.3h4.81c.66,0,1.25.1,1.77.3Zm-6.97,3.07c-.35.34-.52.73-.52,1.18v9.62c0,.45.17.84.52,1.18s.78.51,1.3.51h2.99c.52,0,.95-.17,1.3-.51s.52-.73.52-1.18v-9.62c0-.45-.17-.85-.52-1.18s-.78-.51-1.3-.51h-2.99c-.52,0-.95.17-1.3.51Z"/>
      <path d="m817.76,556.86c.52.2.97.48,1.35.83.38.36.67.78.87,1.27s.3,1.04.3,1.62v10.66c0,.59-.1,1.13-.3,1.62-.2.49-.49.92-.87,1.27s-.83.63-1.35.83c-.52.2-1.11.3-1.77.3h-4.81c-.64,0-1.23-.1-1.75-.3-.53-.2-.98-.48-1.37-.83-.38-.36-.67-.78-.87-1.27-.2-.49-.3-1.04-.3-1.62v-10.66c0-.59.1-1.13.3-1.62.2-.49.49-.92.87-1.27.38-.35.84-.63,1.37-.83.53-.2,1.11-.3,1.75-.3h4.81c.66,0,1.25.1,1.77.3Zm-6.97,3.07c-.35.34-.52.73-.52,1.18v9.62c0,.45.17.84.52,1.18s.78.51,1.3.51h2.99c.52,0,.95-.17,1.3-.51s.52-.73.52-1.18v-9.62c0-.45-.17-.85-.52-1.18s-.78-.51-1.3-.51h-2.99c-.52,0-.95.17-1.3.51Z"/>
    </g>
    <g>
      <path d="m40.21,232.25h18.2v12.48h-1.95l-.91-.91v-8.19h-5.59v6.5h-2.86v-6.5h-6.89v-3.38Z"/>
      <path d="m51.59,246.44c.42.18.8.44,1.12.78.32.34.57.74.75,1.2.18.46.27.97.27,1.52v4.42c0,.55-.09,1.06-.27,1.52s-.43.86-.75,1.2c-.32.34-.69.6-1.12.78s-.88.27-1.37.27h-6.76c-.49,0-.94-.09-1.36-.27-.42-.18-.8-.44-1.12-.78-.32-.34-.57-.74-.75-1.2-.18-.46-.27-.97-.27-1.52v-4.42c0-.55.09-1.06.27-1.52.18-.46.43-.86.75-1.2s.69-.6,1.12-.78c.42-.18.88-.27,1.36-.27h6.76c.49,0,.94.09,1.37.27Zm-1.89,8.44c.4,0,.72-.13.95-.38s.35-.6.35-1.05v-2.6c0-.45-.12-.8-.35-1.05-.23-.25-.55-.38-.95-.38h-5.72c-.4,0-.71.13-.95.38-.23.25-.35.6-.35,1.05v2.6c0,.45.12.8.35,1.05.23.25.55.38.95.38h5.72Z"/>
      <path d="m50.87,269.17v-2.99c0-.36-.07-.68-.21-.94-.14-.26-.29-.48-.44-.65-.19-.19-.41-.36-.65-.49h-9.36v-3.25h13.26v2.21l-1.56.39v.26c.35.21.65.46.91.75.24.28.46.6.64.96s.27.79.27,1.27v2.47h-2.86Z"/>
      <path d="m44.24,273.85c-.4,0-.72.13-.95.38-.23.25-.35.6-.35,1.05v5.98h-2.73v-6.89c0-.55.09-1.06.27-1.52.18-.46.43-.86.75-1.2.32-.34.69-.6,1.12-.78.42-.18.88-.27,1.37-.27h6.24c.49,0,.94.09,1.36.27.42.18.8.44,1.12.78s.57.74.75,1.2c.18.46.27.97.27,1.52v6.89h-1.95l-.78-.78v-5.2c0-.45-.12-.8-.35-1.05-.23-.25-.55-.38-.95-.38h-5.2Z"/>
      <path d="m45.54,294.65v-8.45h-1.3c-.4,0-.72.13-.95.38-.23.25-.35.6-.35,1.05v6.5h-2.73v-7.41c0-.55.09-1.06.27-1.52.18-.46.43-.86.75-1.2.32-.34.69-.6,1.12-.78.42-.18.88-.27,1.37-.27h6.5c.49,0,.94.09,1.37.27.42.18.8.44,1.12.78.32.34.57.74.75,1.2.18.46.27.97.27,1.52v4.16c0,.55-.09,1.06-.27,1.52-.18.46-.43.86-.75,1.2-.32.34-.69.6-1.12.78s-.88.27-1.37.27h-4.68Zm2.73-8.45v5.2h1.43c.4,0,.72-.13.95-.38.23-.25.35-.6.35-1.05v-2.34c0-.45-.12-.8-.35-1.05-.23-.25-.55-.38-.95-.38h-1.43Z"/>
      <path d="m35.27,310.77v-2.34c0-.64.1-1.23.3-1.75.2-.53.48-.98.83-1.36.36-.38.78-.67,1.27-.87s1.04-.3,1.62-.3h17.16c.59,0,1.13.1,1.62.3.49.2.92.49,1.27.87.35.38.63.84.83,1.36.2.53.3,1.11.3,1.75v2.34h-2.86v-1.43c0-.52-.17-.95-.51-1.3s-.73-.52-1.18-.52h-16.12c-.45,0-.84.17-1.18.52-.34.35-.51.78-.51,1.3v1.43h-2.86Z"/>
      <path d="m53.47,321.04v3.25h-1.3l-5.07-2.99-5.59,3.25h-1.3v-3.25l5.46-2.73v-2.47h-5.46v-3.25h18.2v3.25h-10.01v2.47l5.07,2.47Z"/>
      <path d="m53.08,335.6c-.14.38-.34.73-.6,1.04-.24.28-.54.52-.9.73s-.81.31-1.37.31h-1.43c-.49,0-.94-.09-1.36-.27s-.8-.44-1.12-.78-.57-.74-.75-1.2c-.18-.46-.27-.97-.27-1.52v-3.85c-.02-.17-.08-.29-.18-.35s-.22-.09-.34-.09h-.26c-.14,0-.26.04-.35.13-.1.09-.15.2-.17.34v4.47c0,.55-.1,1.07-.31,1.56s-.49.91-.84,1.27c-.36.36-.76.65-1.21.87-.45.22-.92.32-1.4.32h-.78c-.49,0-.95-.11-1.4-.32s-.85-.51-1.21-.87c-.35-.36-.64-.79-.84-1.27s-.31-1-.31-1.56v-5.2c0-.55.1-1.07.31-1.56s.49-.91.84-1.27c.36-.36.76-.65,1.21-.87s.92-.32,1.4-.32h.78c.55,0,1.03.11,1.42.32s.71.46.98.72c.29.31.54.66.73,1.04h.26c.05-.12.13-.23.23-.31.09-.1.19-.19.32-.25.13-.06.29-.09.48-.09h.36c.19,0,.36.04.49.1.14.07.25.15.34.23.09.09.16.19.23.31h.26c.16-.23.36-.42.6-.57.23-.17.49-.32.78-.43.29-.11.66-.17,1.09-.17h1.43c.49,0,.94.09,1.37.27.42.18.8.44,1.12.78.32.34.57.74.75,1.2.18.46.27.97.27,1.52v2.99l2.34,1.43v2.73h-1.3l-1.43-1.56h-.26Zm-11.83-1.69v-3.9c0-.95-.48-1.43-1.43-1.43s-1.43.48-1.43,1.43v3.9c0,.95.48,1.43,1.43,1.43s1.43-.48,1.43-1.43Zm9.75-.91v-2.08c0-.95-.48-1.43-1.43-1.43h-.13c-.95,0-1.43.48-1.43,1.43v2.08c0,.95.48,1.43,1.43,1.43h.13c.95,0,1.43-.48,1.43-1.43Z"/>
      <path d="m40.21,340.67h14.95c.49,0,.94.09,1.36.27.42.18.8.44,1.12.78s.57.74.75,1.2c.18.46.27.97.27,1.52v4.94h-1.95l-.78-.78v-3.38c0-.45-.12-.78-.35-.99-.23-.21-.55-.31-.95-.31h-2.6v3.9h-2.73v-3.9h-9.1v-3.25Z"/>
      <path d="m38.13,349.12v1.43c0,.52.17.95.51,1.3.34.35.73.52,1.18.52h16.12c.45,0,.85-.17,1.18-.52s.51-.78.51-1.3v-1.43h2.86v2.34c0,.66-.1,1.25-.3,1.77-.2.52-.48.97-.83,1.35-.36.38-.78.67-1.27.87-.49.2-1.04.3-1.62.3h-17.16c-.59,0-1.13-.1-1.62-.3s-.92-.49-1.27-.87c-.35-.38-.63-.83-.83-1.35-.2-.52-.3-1.11-.3-1.77v-2.34h2.86Z"/>
    </g>
    <g>
      <path d="m400.73,606.03h-3.38v-15.34h-5.2v-2.86h13.78v1.95l-.91.91h-4.29v15.34Z"/>
      <path d="m416.07,595.37h-2.99c-.36,0-.68.07-.94.21s-.48.29-.65.44c-.19.19-.35.41-.49.65v9.36h-3.25v-13.26h2.21l.39,1.56h.26c.21-.35.46-.65.75-.91.28-.24.6-.46.96-.64.36-.18.79-.27,1.27-.27h2.47v2.86Z"/>
      <path d="m426.73,606.03l-.39-1.56h-.26c-.21.35-.46.65-.75.91-.28.24-.6.46-.96.64-.36.18-.79.27-1.27.27h-2.08c-.55,0-1.06-.09-1.52-.27-.46-.18-.86-.43-1.2-.75-.34-.32-.6-.69-.78-1.12-.18-.42-.27-.88-.27-1.37v-1.43c0-.49.09-.94.27-1.37.18-.42.44-.8.78-1.12.34-.32.74-.57,1.2-.75.46-.18.97-.27,1.52-.27h4.68v-.91c0-.95-.48-1.43-1.43-1.43h-5.85v-2.73h6.76c.55,0,1.06.09,1.52.27.46.18.86.43,1.2.75s.6.69.78,1.12c.18.42.27.88.27,1.37v9.75h-2.21Zm-2.18-2.69c.26-.15.48-.32.65-.51.19-.21.36-.44.49-.7v-1.56h-3.9c-.4,0-.71.12-.95.35-.23.23-.35.55-.35.95v.39c0,.4.12.72.35.95s.55.35.95.35h1.82c.36,0,.68-.07.94-.22Z"/>
      <path d="m430.89,594.07v-1.3h3.25l2.86,9.88h.26l2.86-9.88h3.25v1.3l-4.29,11.96h-3.9l-4.29-11.96Z"/>
      <path d="m456.63,600.7h-8.45v1.3c0,.4.13.71.38.95.25.23.6.35,1.05.35h6.5v2.73h-7.41c-.55,0-1.06-.09-1.52-.27-.46-.18-.86-.43-1.2-.75-.34-.32-.6-.69-.78-1.12-.18-.42-.27-.88-.27-1.36v-6.5c0-.49.09-.94.27-1.36.18-.42.44-.8.78-1.12.34-.32.74-.57,1.2-.75.46-.18.97-.27,1.52-.27h4.16c.55,0,1.06.09,1.52.27.46.18.86.43,1.2.75.34.32.6.69.78,1.12.18.42.27.88.27,1.36v4.68Zm-8.45-2.73h5.2v-1.43c0-.4-.12-.71-.38-.95-.25-.23-.6-.35-1.05-.35h-2.34c-.45,0-.8.12-1.05.35-.25.23-.38.55-.38.95v1.43Z"/>
      <path d="m462.87,587.83v14.17c0,.4.13.71.38.95s.6.35,1.05.35h.78v2.73h-1.69c-.55,0-1.07-.09-1.53-.27-.47-.18-.87-.43-1.2-.75-.33-.32-.58-.69-.77-1.12-.18-.42-.27-.88-.27-1.36v-14.69h3.25Z"/>
      <path d="m480.29,610.97h-2.34c-.64,0-1.23-.1-1.75-.3-.53-.2-.98-.48-1.37-.83-.38-.36-.67-.78-.87-1.27s-.3-1.04-.3-1.62v-17.16c0-.59.1-1.13.3-1.62s.49-.92.87-1.27c.38-.36.84-.63,1.37-.83.53-.2,1.11-.3,1.75-.3h2.34v2.86h-1.43c-.52,0-.95.17-1.3.51-.35.34-.52.73-.52,1.18v16.12c0,.45.17.85.52,1.18.35.34.78.51,1.3.51h1.43v2.86Z"/>
      <path d="m489.65,593.55c0,.78-.3,1.45-.91,2.01-.61.56-1.43.85-2.47.85h-1.3c-1.04,0-1.86-.28-2.47-.85-.61-.56-.91-1.23-.91-2.01v-3.12c0-.78.3-1.45.91-2.01.61-.56,1.43-.85,2.47-.85h1.3c1.04,0,1.86.28,2.47.85.61.56.91,1.23.91,2.01v3.12Zm-3.64-3.9h-.78c-.78,0-1.17.35-1.17,1.04v2.6c0,.69.39,1.04,1.17,1.04h.78c.78,0,1.17-.35,1.17-1.04v-2.6c0-.69-.39-1.04-1.17-1.04Zm11.57-1.82v1.43l-10.27,16.77h-2.47v-1.43l10.27-16.77h2.47Zm3.25,15.6c0,.78-.3,1.45-.91,2.01-.61.56-1.43.84-2.47.84h-1.3c-1.04,0-1.86-.28-2.47-.84-.61-.56-.91-1.24-.91-2.01v-3.12c0-.78.3-1.45.91-2.01.61-.56,1.43-.84,2.47-.84h1.3c1.04,0,1.86.28,2.47.84.61.56.91,1.24.91,2.01v3.12Zm-3.64-3.9h-.78c-.78,0-1.17.35-1.17,1.04v2.6c0,.69.39,1.04,1.17,1.04h.78c.78,0,1.17-.35,1.17-1.04v-2.6c0-.69-.39-1.04-1.17-1.04Z"/>
      <path d="m502.12,608.11h1.43c.52,0,.95-.17,1.3-.51s.52-.73.52-1.18v-16.12c0-.45-.17-.84-.52-1.18-.35-.34-.78-.51-1.3-.51h-1.43v-2.86h2.34c.66,0,1.25.1,1.77.3s.97.48,1.35.83c.38.36.67.78.87,1.27.2.49.3,1.04.3,1.62v17.16c0,.59-.1,1.13-.3,1.62-.2.49-.49.92-.87,1.27-.38.35-.83.63-1.35.83-.52.2-1.11.3-1.77.3h-2.34v-2.86Z"/>
    </g>
  </g>
</svg>