<?xml version="1.0" encoding="UTF-8"?>
<svg xmlns="http://www.w3.org/2000/svg" viewBox="0 0 50 146">
  <defs>
    <style>
      .cls-1 {
        fill: #fff;
      }

      .cls-2 {
        stroke: #e84e0f;
      }

      .cls-2, .cls-3 {
        fill: none;
        stroke-linecap: round;
        stroke-linejoin: round;
        stroke-width: .5px;
      }

      .cls-3 {
        stroke: #000;
      }

      .cls-4 {
        fill: #e84e0f;
      }

      .cls-5 {
        fill: #999;
      }
    </style>
  </defs>
  <g id="Light">
    <g id="SPLINE">
      <g>
        <g>
          <polygon class="cls-4" points="40.04 52.82 40.04 54.42 37.54 54.42 11.54 54.42 9.04 54.42 9.04 52.82 40.04 52.82"/>
          <rect class="cls-4" x="11.54" y="54.42" width="26" height="3"/>
          <path class="cls-5" d="m36.45,87.37c-.2-.05-.41-.1-.64-.16-.72-.16-1.61-.34-2.61-.51-1.1-.18-2.36-.38-3.69-.56-1.37-.2-2.84-.4-4.31-.59-1.49-.2-3.01-.4-4.44-.59-1.46-.2-2.86-.4-4.12-.6-1.27-.21-2.42-.41-3.37-.61-.98-.22-1.76-.42-2.35-.67-.31-.12-.58-.25-.83-.46-.13-.11-.27-.24-.37-.42-.1-.16-.17-.36-.18-.57-.02-.24.05-.49.15-.68.1-.18.22-.31.35-.42.21-.19.43-.31.68-.42.59-.27,1.38-.49,2.39-.71,1.12-.25,2.54-.5,4.12-.74,1.34-.21,2.82-.42,4.34-.62,1.49-.2,3.05-.41,4.55-.61,1.49-.19,2.97-.4,4.32-.59,1.34-.2,2.59-.4,3.65-.59.93-.18,1.74-.35,2.36-.51-.2-.06-.41-.11-.64-.16-.72-.17-1.61-.34-2.61-.51-1.1-.19-2.36-.38-3.69-.57-1.37-.19-2.84-.39-4.31-.59-1.49-.19-3.01-.39-4.44-.59-1.46-.2-2.86-.4-4.12-.6-1.27-.2-2.42-.41-3.37-.61-.98-.21-1.76-.42-2.35-.66-.31-.13-.58-.26-.83-.46-.13-.11-.26-.24-.36-.41-.08-.13-.14-.29-.17-.46.09.46.49.8.98.8.14,0,.27-.03.4-.09h0c.07-.01.17-.03.29-.04.4-.03,1.06-.08,1.9-.12.73-.03,1.61-.07,2.6-.11h.01c.28.05.56.1.85.15,1.17.19,2.49.38,3.86.57,1.41.19,2.91.39,4.38.59,1.49.19,3,.39,4.42.59s2.78.4,3.98.6c1.22.21,2.29.41,3.17.62.9.21,1.59.42,2.13.7.22.11.42.24.61.44.1.1.2.23.27.4.07.13.11.3.12.46.01.24-.06.48-.16.67-.1.18-.23.31-.36.42-.21.18-.44.31-.69.42-.61.27-1.42.5-2.46.72-1.12.25-2.54.49-4.12.73-1.34.21-2.83.42-4.35.62-1.49.2-3.04.41-4.55.61-1.49.2-2.96.4-4.31.6-1.33.19-2.58.39-3.63.59-.9.17-1.68.33-2.28.49.21.06.44.12.69.17.73.17,1.63.34,2.64.52,1.11.18,2.38.37,3.71.56,1.37.2,2.85.39,4.32.59,1.49.2,3.01.4,4.44.59,1.45.2,2.85.4,4.1.6,1.27.21,2.41.41,3.35.62.97.21,1.74.42,2.33.66.29.13.55.26.79.46.13.11.26.24.37.42.08.16.15.35.16.55.02.24-.05.49-.15.68-.1.18-.22.32-.35.43-.2.18-.43.3-.67.41-.6.28-1.39.5-2.4.72-1.12.25-2.54.49-4.12.74-1.33.2-2.82.41-4.34.62-1.49.2-3.04.4-4.55.6-1.49.2-2.97.4-4.32.6-1.34.2-2.59.39-3.65.59-.93.17-1.73.35-2.35.51.19.05.4.11.63.16.72.17,1.62.34,2.62.51,1.1.19,2.36.38,3.68.56,1.37.2,2.84.4,4.31.59,1.49.2,3.01.4,4.45.59,1.45.2,2.86.4,4.11.6,1.27.21,2.42.41,3.37.62.98.21,1.76.42,2.36.66.31.12.57.26.82.46.14.11.27.24.38.42.09.16.16.36.17.57.02.24-.05.49-.15.68-.1.18-.22.32-.35.42-.2.19-.43.31-.67.42-.6.27-1.39.49-2.4.72-1.12.24-2.54.49-4.12.73-1.33.21-2.82.42-4.34.62-1.49.2-3.04.41-4.55.61-1.49.2-2.97.4-4.32.6-1.34.19-2.59.39-3.65.59-.93.17-1.73.34-2.35.5h0c.19.06.4.11.63.16.72.17,1.62.34,2.62.51,1.1.19,2.36.38,3.68.57,1.37.2,2.84.39,4.31.59,1.49.19,3.01.39,4.45.59,1.45.2,2.86.4,4.11.6,1.27.2,2.42.41,3.37.61.98.21,1.76.42,2.36.66.31.13.57.26.82.46.14.11.27.25.38.43.09.16.16.35.17.56.02.25-.05.5-.15.69-.1.18-.22.31-.35.42-.2.18-.43.3-.67.42-.6.27-1.39.49-2.4.71-1.12.25-2.54.5-4.12.74-1.33.21-2.82.41-4.34.62-1.49.2-3.04.4-4.55.6-1.49.2-2.97.4-4.32.6-1.34.2-2.59.4-3.65.59-.93.17-1.73.35-2.35.51.19.05.4.11.63.16.72.17,1.62.34,2.62.51,1.1.19,2.36.38,3.68.57,1.37.19,2.84.39,4.31.58,1.49.2,3.01.4,4.45.6,1.45.2,2.86.4,4.11.6,1.27.2,2.42.4,3.37.61.98.21,1.76.42,2.36.66.31.13.57.26.82.46.14.11.27.24.38.42.09.16.16.36.17.57.02.24-.05.49-.15.68-.1.18-.22.32-.35.43-.2.18-.43.3-.67.41-.6.28-1.39.49-2.4.72-1.12.25-2.54.49-4.12.74-1.33.2-2.82.41-4.34.62-1.49.2-3.04.4-4.55.6-1.49.2-2.97.4-4.32.6-1.34.19-2.59.39-3.65.59-.93.17-1.73.34-2.35.51.19.05.4.1.63.16.72.16,1.62.34,2.62.51,1.1.18,2.36.38,3.68.56,1.37.2,2.84.4,4.31.59,1.49.2,3.01.4,4.45.59,1.45.2,2.86.4,4.11.6,1.27.21,2.42.41,3.37.61.98.22,1.76.42,2.36.67.31.12.57.25.82.46.13.1.26.23.37.4.08.13.14.29.17.47-.09-.46-.5-.8-.98-.8-.15,0-.29.03-.41.09-.06.01-.17.01-.3.03-.4.04-1.06.08-1.9.12-.73.03-1.61.08-2.6.11-.28-.05-.56-.09-.86-.14-1.17-.19-2.49-.38-3.86-.57-1.4-.2-2.9-.4-4.38-.59-1.49-.2-3-.4-4.41-.6-1.43-.2-2.79-.4-3.99-.6-1.21-.2-2.29-.41-3.16-.62-.91-.21-1.6-.42-2.14-.7-.21-.11-.42-.24-.6-.43-.11-.11-.21-.24-.28-.4-.06-.14-.1-.3-.11-.47-.01-.24.06-.48.16-.67.1-.17.22-.31.35-.42.21-.18.44-.3.69-.42.61-.27,1.42-.49,2.46-.72,1.13-.24,2.55-.49,4.12-.73,1.34-.21,2.83-.41,4.35-.62,1.49-.2,3.05-.4,4.55-.6,1.49-.2,2.97-.4,4.31-.6s2.58-.4,3.63-.59c.9-.17,1.69-.34,2.29-.5-.21-.06-.44-.11-.69-.17-.73-.17-1.64-.34-2.65-.51-1.11-.19-2.37-.38-3.71-.57-1.37-.19-2.84-.39-4.31-.59-1.49-.19-3.01-.39-4.45-.59-1.45-.2-2.85-.4-4.1-.6-1.26-.2-2.4-.41-3.35-.61-.96-.21-1.73-.42-2.32-.67-.3-.12-.56-.25-.8-.45-.13-.11-.26-.25-.36-.43-.09-.15-.16-.35-.17-.55-.02-.24.05-.49.15-.68.1-.18.22-.32.35-.42.21-.19.43-.31.68-.42.59-.27,1.38-.49,2.39-.72,1.12-.24,2.54-.49,4.12-.73,1.34-.21,2.82-.42,4.34-.62,1.49-.2,3.05-.41,4.55-.61,1.49-.2,2.97-.4,4.32-.6,1.34-.19,2.59-.39,3.65-.59.93-.17,1.74-.34,2.36-.5h0c-.2-.06-.41-.11-.64-.16-.72-.17-1.61-.34-2.61-.51-1.1-.19-2.36-.38-3.69-.57-1.37-.2-2.84-.39-4.31-.59-1.48-.19-3-.39-4.44-.59-1.46-.2-2.86-.4-4.12-.6-1.27-.2-2.42-.41-3.37-.61-.98-.21-1.76-.42-2.35-.66-.31-.13-.58-.26-.83-.46-.13-.11-.27-.25-.37-.43-.1-.16-.17-.35-.18-.56-.02-.25.05-.5.15-.69.1-.18.22-.31.35-.42.21-.18.43-.3.68-.42.59-.27,1.38-.49,2.39-.71,1.12-.25,2.54-.5,4.12-.74,1.34-.21,2.82-.41,4.34-.62,1.49-.2,3.05-.4,4.55-.6,1.49-.2,2.97-.4,4.32-.6,1.34-.2,2.59-.4,3.65-.59.93-.17,1.74-.35,2.36-.51-.2-.05-.41-.11-.64-.16-.72-.17-1.61-.34-2.61-.51-1.1-.19-2.36-.38-3.69-.57-1.37-.19-2.84-.39-4.31-.58-1.49-.2-3.01-.4-4.44-.6-1.46-.2-2.86-.4-4.12-.6-1.27-.2-2.42-.4-3.37-.61-.98-.21-1.76-.42-2.35-.66-.31-.13-.58-.26-.83-.46-.13-.11-.27-.24-.37-.42-.1-.16-.17-.36-.18-.57-.02-.24.05-.49.15-.68.1-.18.22-.32.35-.43.21-.18.43-.3.68-.41.59-.28,1.38-.49,2.39-.72,1.12-.25,2.54-.49,4.12-.74,1.34-.2,2.82-.41,4.34-.62,1.49-.2,3.05-.4,4.55-.6,1.49-.2,2.97-.4,4.32-.6,1.34-.19,2.59-.39,3.65-.59.93-.17,1.74-.34,2.36-.51Z"/>
          <path class="cls-5" d="m13.15,68.67c-.48-.03-.89-.05-1.25-.07-.68-.05-1.1-.08-1.45-.15-.08-.02-.17-.04-.31-.1-.04-.02-.09-.05-.15-.09.15.1.34.16.55.16.55,0,1-.45,1-1h24.34c.91.04,1.63.08,2.12.13.23.02.41.04.59.08.06,0,.13.03.21.05.07.03.15.06.26.12.05.04.1.08.16.13.06.06.12.13.18.22.05.09.09.19.11.29.03.11.03.23.02.34s-.05.23-.09.32c-.05.1-.11.19-.18.26s-.14.13-.2.17c-.05.03-.11.06-.15.08-.06.02-.11.04-.15.05-.09.03-.15.04-.23.05-.21.04-.46.07-.8.1-.39.03-.88.06-1.46.09-.88.04-1.99.09-3.25.13-1.2.05-2.56.09-3.99.13-1.41.04-2.92.09-4.42.13-1.49.04-3,.08-4.41.13-1.41.04-2.77.08-3.96.12-.17,0-.33,0-.49.02h-.01c-.99.04-1.87.08-2.6.11-.84.04-1.5.09-1.9.12-.12,0-.22.03-.29.04h0c-.13.06-.26.09-.4.09-.49,0-.89-.34-.98-.8-.01-.06-.02-.13-.02-.2,0-.12.02-.24.06-.35.04-.1.09-.2.16-.28.06-.08.13-.15.19-.19.07-.05.12-.08.17-.1.06-.03.1-.05.14-.06.08-.03.14-.04.19-.05.17-.04.33-.06.54-.08.32-.03.75-.06,1.28-.09.27-.02.56-.03.88-.05Z"/>
          <path class="cls-5" d="m35.88,135.17c.49.02.93.04,1.3.07.67.04,1.09.07,1.45.15.08.01.16.03.3.1.04.02.1.04.15.08l.02.02c-.16-.11-.35-.17-.56-.17-.56,0-1,.44-1,1H13.19c-.91-.05-1.63-.09-2.12-.14-.23-.02-.41-.04-.58-.08-.07-.01-.13-.02-.22-.05-.06-.02-.14-.05-.25-.12-.05-.03-.11-.07-.16-.12-.07-.06-.13-.14-.18-.23s-.09-.19-.12-.29c-.02-.11-.03-.22-.02-.34.02-.11.05-.22.1-.32.04-.1.11-.19.18-.26.06-.07.13-.12.19-.16s.11-.06.15-.08c.06-.03.11-.05.15-.06.09-.02.16-.04.23-.05.22-.04.47-.06.8-.09.39-.03.88-.06,1.47-.09.87-.05,1.98-.09,3.24-.14,1.2-.04,2.57-.09,3.99-.13s2.93-.08,4.42-.13c1.49-.04,3-.08,4.41-.12,1.42-.05,2.77-.09,3.96-.13.17-.01.34-.01.5-.02.99-.03,1.87-.08,2.6-.11.84-.04,1.5-.08,1.9-.12.13-.02.24-.02.3-.03.12-.06.26-.09.41-.09.48,0,.89.34.98.8,0,.06.02.13.02.2,0,.11-.02.23-.06.34s-.1.2-.16.29c-.06.07-.14.14-.2.19-.06.04-.12.07-.17.1s-.1.04-.14.06c-.07.02-.13.04-.19.05-.16.03-.33.05-.54.07-.32.04-.75.07-1.27.1-.28.02-.59.03-.93.05Z"/>
          <path class="cls-5" d="m39.52,136.27s.02.1.02.15h-2c0-.56.44-1,1-1,.21,0,.4.06.56.17.04.03.09.06.13.11.06.05.11.12.15.18.06.09.1.18.12.28.01.04.02.07.02.11Z"/>
          <path class="cls-5" d="m9.54,67.42h2c0,.55-.45,1-1,1-.21,0-.4-.06-.55-.16-.04-.02-.08-.05-.12-.09-.06-.06-.13-.13-.18-.22-.05-.08-.1-.18-.12-.28-.02-.08-.03-.17-.03-.25Z"/>
        </g>
        <g>
          <line class="cls-3" x1="37.54" y1="57.42" x2="11.54" y2="57.42"/>
          <polyline class="cls-3" points="40.04 54.42 37.54 54.42 11.54 54.42 9.04 54.42"/>
          <line class="cls-3" x1="40.04" y1="52.82" x2="9.04" y2="52.82"/>
          <line class="cls-3" x1="11.54" y1="57.42" x2="11.54" y2="54.42"/>
          <line class="cls-3" x1="37.54" y1="57.42" x2="37.54" y2="54.42"/>
          <line class="cls-3" x1="9.04" y1="54.42" x2="9.04" y2="52.82"/>
          <line class="cls-3" x1="40.04" y1="54.42" x2="40.04" y2="52.82"/>
          <path class="cls-3" d="m35.88,67.42H11.54"/>
          <line class="cls-3" x1="11.54" y1="67.42" x2="9.54" y2="67.42"/>
          <path class="cls-3" d="m13.19,136.42h24.35"/>
          <line class="cls-3" x1="37.54" y1="136.42" x2="39.54" y2="136.42"/>
          <path class="cls-3" d="m11.54,67.42c0,.55-.45,1-1,1-.21,0-.4-.06-.55-.16"/>
          <path class="cls-3" d="m39.23,135.7c-.04-.05-.09-.08-.13-.11-.16-.11-.35-.17-.56-.17-.56,0-1,.44-1,1"/>
          <path class="cls-3" d="m39.52,136.27s0-.08-.02-.11"/>
          <path class="cls-3" d="m39.54,133.92c0-.07-.01-.14-.02-.2-.09-.46-.5-.8-.98-.8-.15,0-.29.03-.41.09"/>
          <path class="cls-3" d="m10.94,70.83c-.13.06-.26.09-.4.09-.49,0-.89-.34-.98-.8-.01-.06-.02-.13-.02-.2"/>
          <path class="cls-3" d="m13.19,136.42c-.91-.05-1.63-.09-2.12-.14-.23-.02-.41-.04-.58-.08-.07-.01-.13-.02-.22-.05-.06-.02-.14-.05-.25-.12-.05-.03-.11-.07-.16-.12-.07-.06-.13-.14-.18-.23s-.09-.19-.12-.29c-.02-.11-.03-.22-.02-.34.02-.11.05-.22.1-.32.04-.1.11-.19.18-.26.06-.07.13-.12.19-.16s.11-.06.15-.08c.06-.03.11-.05.15-.06.09-.02.16-.04.23-.05.22-.04.47-.06.8-.09.39-.03.88-.06,1.47-.09.87-.05,1.98-.09,3.24-.14,1.2-.04,2.57-.09,3.99-.13s2.93-.08,4.42-.13c1.49-.04,3-.08,4.41-.12,1.42-.05,2.77-.09,3.96-.13.17-.01.34-.01.5-.02.99-.03,1.87-.08,2.6-.11.84-.04,1.5-.08,1.9-.12.13-.02.24-.02.3-.03.03-.01.05-.01.06-.01,0-.01.02-.01.02-.01"/>
          <path class="cls-3" d="m39.54,133.92c0,.11-.02.23-.06.34s-.1.2-.16.29c-.06.07-.14.14-.2.19-.06.04-.12.07-.17.1s-.1.04-.14.06c-.07.02-.13.04-.19.05-.16.03-.33.05-.54.07-.32.04-.75.07-1.27.1-.28.02-.59.03-.93.05-.64.03-1.38.06-2.2.09-1.14.04-2.47.09-3.86.13s-2.88.08-4.38.13c-1.48.04-3,.08-4.44.12-1.44.05-2.83.09-4.08.13-1.24.04-2.36.09-3.29.13-.91.04-1.65.08-2.14.12-.24.02-.42.04-.53.06-.05,0-.08.01-.09.01"/>
          <path class="cls-3" d="m35.88,135.17c.49.02.93.04,1.3.07.67.04,1.09.07,1.45.15.08.01.16.03.3.1.04.02.1.04.15.08l.02.02s.07.05.1.07c.01.01.02.02.03.04.06.05.11.12.15.18.06.09.1.18.12.28.01.04.02.07.02.11.02.05.02.1.02.15"/>
          <path class="cls-3" d="m33.33,133.27c-.28-.05-.56-.09-.86-.14-1.17-.19-2.49-.38-3.86-.57-1.4-.2-2.9-.4-4.38-.59-1.49-.2-3-.4-4.41-.6-1.43-.2-2.79-.4-3.99-.6-1.21-.2-2.29-.41-3.16-.62-.91-.21-1.6-.42-2.14-.7-.21-.11-.42-.24-.6-.43-.11-.11-.21-.24-.28-.4-.06-.14-.1-.3-.11-.47-.01-.24.06-.48.16-.67.1-.17.22-.31.35-.42.21-.18.44-.3.69-.42.61-.27,1.42-.49,2.46-.72,1.13-.24,2.55-.49,4.12-.73,1.34-.21,2.83-.41,4.35-.62,1.49-.2,3.05-.4,4.55-.6,1.49-.2,2.97-.4,4.31-.6s2.58-.4,3.63-.59c.9-.17,1.69-.34,2.29-.5.09-.02.17-.05.25-.07.29-.08.54-.17.71-.24.16-.06.26-.12.29-.14.01-.01.02-.01.02-.01"/>
          <path class="cls-3" d="m36.45,122.28c-.21-.06-.44-.11-.69-.17-.73-.17-1.64-.34-2.65-.51-1.11-.19-2.37-.38-3.71-.57-1.37-.19-2.84-.39-4.31-.59-1.49-.19-3.01-.39-4.45-.59-1.45-.2-2.85-.4-4.1-.6-1.26-.2-2.4-.41-3.35-.61-.96-.21-1.73-.42-2.32-.67-.3-.12-.56-.25-.8-.45-.13-.11-.26-.25-.36-.43-.09-.15-.16-.35-.17-.55-.02-.24.05-.49.15-.68.1-.18.22-.32.35-.42.21-.19.43-.31.68-.42.59-.27,1.38-.49,2.39-.72,1.12-.24,2.54-.49,4.12-.73,1.34-.21,2.82-.42,4.34-.62,1.49-.2,3.05-.41,4.55-.61,1.49-.2,2.97-.4,4.32-.6,1.34-.19,2.59-.39,3.65-.59.93-.17,1.74-.34,2.36-.5l.21-.06c.3-.09.55-.17.73-.25.16-.06.27-.12.31-.15.01,0,.02-.01.02-.01"/>
          <path class="cls-3" d="m36.45,110.64c-.2-.05-.41-.1-.64-.15-.72-.17-1.61-.34-2.61-.51-1.1-.19-2.36-.38-3.69-.57-1.37-.2-2.84-.39-4.31-.59-1.48-.19-3-.39-4.44-.59-1.46-.2-2.86-.4-4.12-.6-1.27-.2-2.42-.41-3.37-.61-.98-.21-1.76-.42-2.35-.66-.31-.13-.58-.26-.83-.46-.13-.11-.27-.25-.37-.43-.1-.16-.17-.35-.18-.56-.02-.25.05-.5.15-.69.1-.18.22-.31.35-.42.21-.18.43-.3.68-.42.59-.27,1.38-.49,2.39-.71,1.12-.25,2.54-.5,4.12-.74,1.34-.21,2.82-.41,4.34-.62,1.49-.2,3.05-.4,4.55-.6,1.49-.2,2.97-.4,4.32-.6,1.34-.2,2.59-.4,3.65-.59.93-.17,1.74-.35,2.36-.51l.21-.06c.3-.09.55-.17.73-.24.16-.07.27-.13.31-.15l.02-.02"/>
          <path class="cls-3" d="m36.45,99.01c-.2-.05-.41-.11-.64-.16-.72-.17-1.61-.34-2.61-.51-1.1-.19-2.36-.38-3.69-.57-1.37-.19-2.84-.39-4.31-.58-1.49-.2-3.01-.4-4.44-.6-1.46-.2-2.86-.4-4.12-.6-1.27-.2-2.42-.4-3.37-.61-.98-.21-1.76-.42-2.35-.66-.31-.13-.58-.26-.83-.46-.13-.11-.27-.24-.37-.42-.1-.16-.17-.36-.18-.57-.02-.24.05-.49.15-.68.1-.18.22-.32.35-.43.21-.18.43-.3.68-.41.59-.28,1.38-.49,2.39-.72,1.12-.25,2.54-.49,4.12-.74,1.34-.2,2.82-.41,4.34-.62,1.49-.2,3.05-.4,4.55-.6,1.49-.2,2.97-.4,4.32-.6,1.34-.19,2.59-.39,3.65-.59.93-.17,1.74-.34,2.36-.51l.21-.06c.3-.08.55-.17.73-.24.16-.06.27-.12.31-.15.01-.01.02-.01.02-.01"/>
          <path class="cls-3" d="m36.45,87.37c-.2-.05-.41-.1-.64-.16-.72-.16-1.61-.34-2.61-.51-1.1-.18-2.36-.38-3.69-.56-1.37-.2-2.84-.4-4.31-.59-1.49-.2-3.01-.4-4.44-.59-1.46-.2-2.86-.4-4.12-.6-1.27-.21-2.42-.41-3.37-.61-.98-.22-1.76-.42-2.35-.67-.31-.12-.58-.25-.83-.46-.13-.11-.27-.24-.37-.42-.1-.16-.17-.36-.18-.57-.02-.24.05-.49.15-.68.1-.18.22-.31.35-.42.21-.19.43-.31.68-.42.59-.27,1.38-.49,2.39-.71,1.12-.25,2.54-.5,4.12-.74,1.34-.21,2.82-.42,4.34-.62,1.49-.2,3.05-.41,4.55-.61,1.49-.19,2.97-.4,4.32-.59,1.34-.2,2.59-.4,3.65-.59.93-.18,1.74-.35,2.36-.51l.21-.06c.3-.09.55-.17.73-.25.16-.06.27-.12.31-.15.01,0,.02-.01.02-.01"/>
          <path class="cls-3" d="m36.45,75.74c-.2-.06-.41-.11-.64-.16-.72-.17-1.61-.34-2.61-.51-1.1-.19-2.36-.38-3.69-.57-1.37-.19-2.84-.39-4.31-.59-1.49-.19-3.01-.39-4.44-.59-1.46-.2-2.86-.4-4.12-.6-1.27-.2-2.42-.41-3.37-.61-.98-.21-1.76-.42-2.35-.66-.31-.13-.58-.26-.83-.46-.13-.11-.26-.24-.36-.41-.08-.13-.14-.29-.17-.46-.01-.07-.02-.13-.02-.2"/>
          <path class="cls-3" d="m15.75,70.56c.28.05.56.1.85.15,1.17.19,2.49.38,3.86.57,1.41.19,2.91.39,4.38.59,1.49.19,3,.39,4.42.59s2.78.4,3.98.6c1.22.21,2.29.41,3.17.62.9.21,1.59.42,2.13.7.22.11.42.24.61.44.1.1.2.23.27.4.07.13.11.3.12.46.01.24-.06.48-.16.67-.1.18-.23.31-.36.42-.21.18-.44.31-.69.42-.61.27-1.42.5-2.46.72-1.12.25-2.54.49-4.12.73-1.34.21-2.83.42-4.35.62-1.49.2-3.04.41-4.55.61-1.49.2-2.96.4-4.31.6-1.33.19-2.58.39-3.63.59-.9.17-1.68.33-2.28.49-.09.02-.18.05-.26.07-.29.09-.53.17-.71.24-.15.07-.26.12-.29.15,0,0,0,.01,0,.01"/>
          <path class="cls-3" d="m12.63,81.55c.21.06.44.12.69.17.73.17,1.63.34,2.64.52,1.11.18,2.38.37,3.71.56,1.37.2,2.85.39,4.32.59,1.49.2,3.01.4,4.44.59,1.45.2,2.85.4,4.1.6,1.27.21,2.41.41,3.35.62.97.21,1.74.42,2.33.66.29.13.55.26.79.46.13.11.26.24.37.42.08.16.15.35.16.55.02.24-.05.49-.15.68-.1.18-.22.32-.35.43-.2.18-.43.3-.67.41-.6.28-1.39.5-2.4.72-1.12.25-2.54.49-4.12.74-1.33.2-2.82.41-4.34.62-1.49.2-3.04.4-4.55.6-1.49.2-2.97.4-4.32.6-1.34.2-2.59.39-3.65.59-.93.17-1.73.35-2.35.51-.08.02-.15.04-.22.06-.29.08-.54.17-.73.24-.16.06-.27.12-.31.15h0"/>
          <path class="cls-3" d="m12.63,93.19c.19.05.4.11.63.16.72.17,1.62.34,2.62.51,1.1.19,2.36.38,3.68.56,1.37.2,2.84.4,4.31.59,1.49.2,3.01.4,4.45.59,1.45.2,2.86.4,4.11.6,1.27.21,2.42.41,3.37.62.98.21,1.76.42,2.36.66.31.12.57.26.82.46.14.11.27.24.38.42.09.16.16.36.17.57.02.24-.05.49-.15.68-.1.18-.22.32-.35.42-.2.19-.43.31-.67.42-.6.27-1.39.49-2.4.72-1.12.24-2.54.49-4.12.73-1.33.21-2.82.42-4.34.62-1.49.2-3.04.41-4.55.61-1.49.2-2.97.4-4.32.6-1.34.19-2.59.39-3.65.59-.93.17-1.73.34-2.35.5-.08.02-.15.04-.22.06-.29.09-.54.17-.73.25-.16.06-.27.12-.31.15,0,0,0,.01,0,.01"/>
          <path class="cls-3" d="m12.63,104.83c.19.05.4.1.63.15.72.17,1.62.34,2.62.51,1.1.19,2.36.38,3.68.57,1.37.2,2.84.39,4.31.59,1.49.19,3.01.39,4.45.59,1.45.2,2.86.4,4.11.6,1.27.2,2.42.41,3.37.61.98.21,1.76.42,2.36.66.31.13.57.26.82.46.14.11.27.25.38.43.09.16.16.35.17.56.02.25-.05.5-.15.69-.1.18-.22.31-.35.42-.2.18-.43.3-.67.42-.6.27-1.39.49-2.4.71-1.12.25-2.54.5-4.12.74-1.33.21-2.82.41-4.34.62-1.49.2-3.04.4-4.55.6-1.49.2-2.97.4-4.32.6-1.34.2-2.59.4-3.65.59-.93.17-1.73.35-2.35.51-.08.02-.15.04-.22.06-.29.09-.54.17-.73.24-.16.07-.27.13-.31.15,0,.01,0,.02,0,.02"/>
          <path class="cls-3" d="m12.63,116.46c.19.05.4.11.63.16.72.17,1.62.34,2.62.51,1.1.19,2.36.38,3.68.57,1.37.19,2.84.39,4.31.58,1.49.2,3.01.4,4.45.6,1.45.2,2.86.4,4.11.6,1.27.2,2.42.4,3.37.61.98.21,1.76.42,2.36.66.31.13.57.26.82.46.14.11.27.24.38.42.09.16.16.36.17.57.02.24-.05.49-.15.68-.1.18-.22.32-.35.43-.2.18-.43.3-.67.41-.6.28-1.39.49-2.4.72-1.12.25-2.54.49-4.12.74-1.33.2-2.82.41-4.34.62-1.49.2-3.04.4-4.55.6-1.49.2-2.97.4-4.32.6-1.34.19-2.59.39-3.65.59-.93.17-1.73.34-2.35.51-.08.02-.15.04-.22.06-.29.08-.54.17-.73.24-.16.06-.27.12-.31.15h0"/>
          <path class="cls-3" d="m12.63,128.1c.19.05.4.1.63.16.72.16,1.62.34,2.62.51,1.1.18,2.36.38,3.68.56,1.37.2,2.84.4,4.31.59,1.49.2,3.01.4,4.45.59,1.45.2,2.86.4,4.11.6,1.27.21,2.42.41,3.37.61.98.22,1.76.42,2.36.67.31.12.57.25.82.46.13.1.26.23.37.4.08.13.14.29.17.47,0,.06.02.13.02.2"/>
          <path class="cls-3" d="m35.88,67.42c.91.04,1.63.08,2.12.13.23.02.41.04.59.08.06,0,.13.03.21.05.07.03.15.06.26.12.05.04.1.08.16.13.06.06.12.13.18.22.05.09.09.19.11.29.03.11.03.23.02.34s-.05.23-.09.32c-.05.1-.11.19-.18.26s-.14.13-.2.17c-.05.03-.11.06-.15.08-.06.02-.11.04-.15.05-.09.03-.15.04-.23.05-.21.04-.46.07-.8.1-.39.03-.88.06-1.46.09-.88.04-1.99.09-3.25.13-1.2.05-2.56.09-3.99.13-1.41.04-2.92.09-4.42.13-1.49.04-3,.08-4.41.13-1.41.04-2.77.08-3.96.12-.17,0-.33,0-.49.02h-.01c-.99.04-1.87.08-2.6.11-.84.04-1.5.09-1.9.12-.12,0-.22.03-.29.04h0s-.04.01-.05.01h-.02"/>
          <path class="cls-3" d="m13.2,68.67c.64-.03,1.38-.07,2.19-.1,1.15-.04,2.47-.08,3.87-.12,1.38-.05,2.88-.09,4.37-.13s3.01-.09,4.45-.13c1.43-.04,2.83-.08,4.07-.13,1.24-.04,2.37-.08,3.29-.12.91-.05,1.65-.09,2.14-.13.24-.02.42-.04.53-.05.05-.01.08-.02.09-.02h.01"/>
          <path class="cls-3" d="m9.54,69.92c0-.12.02-.24.06-.35.04-.1.09-.2.16-.28.06-.08.13-.15.19-.19.07-.05.12-.08.17-.1.06-.03.1-.05.14-.06.08-.03.14-.04.19-.05.17-.04.33-.06.54-.08.32-.03.75-.06,1.28-.09.27-.02.56-.03.88-.05"/>
          <path class="cls-3" d="m13.2,68.67h-.05c-.48-.03-.89-.05-1.25-.07-.68-.05-1.1-.08-1.45-.15-.08-.02-.17-.04-.31-.1-.04-.02-.09-.05-.15-.09-.04-.02-.08-.05-.12-.09-.06-.06-.13-.13-.18-.22-.05-.08-.1-.18-.12-.28-.02-.08-.03-.17-.03-.25"/>
        </g>
      </g>
    </g>
  </g>
  <g id="Arrow">
    <g>
      <polygon class="cls-4" points="24.58 4.58 32.91 25.72 31.52 26.52 28.04 24.51 28.04 47.58 24.58 45.58 21.12 47.58 21.12 24.51 17.64 26.52 16.25 25.72 24.58 4.58"/>
      <polygon class="cls-2" points="32.91 25.72 31.52 26.52 28.04 24.51 28.04 47.58 24.58 45.58 21.12 47.58 21.12 24.51 17.64 26.52 16.25 25.72 24.58 4.58 32.91 25.72"/>
    </g>
    <path class="cls-1" d="m26.12,17.64c.45,0,.79.14,1.01.41.22.27.29.64.21,1.09l-.26,1.5c-.08.45-.28.82-.6,1.09-.32.27-.71.41-1.16.41h-3.8l.33-1.9h3l.14-.8h-2.9l.76-4.3h5l-.23,1.3-.71.6h-2.1l-.1.6h1.4Z"/>
  </g>
</svg>