<?xml version="1.0" encoding="UTF-8"?>
<svg id="Layer_1" data-name="Layer 1" xmlns="http://www.w3.org/2000/svg" viewBox="0 0 425.2 425.2">
  <defs>
    <style>
      .cls-1 {
        fill: #343331;
      }

      .cls-1, .cls-2, .cls-3, .cls-4 {
        stroke: #231f20;
        stroke-miterlimit: 10;
      }

      .cls-2 {
        fill: #686866;
      }

      .cls-3 {
        fill: #cdccca;
      }

      .cls-4 {
        fill: #9a9998;
      }
    </style>
  </defs>
  <path class="cls-4" d="m374.54,213.29v.12l-.72.72h-12.72v-.36c-.02-.14-.13-.24-.27-.24h-1.59c-.14.02-.24.13-.24.27h-.06v1.41l-.42.42-144.3.24v-11.34l144.3-.24.42.48v1.4h0c.01.17.13.28.3.28h1.56c.11,0,.2-.06.24-.15v-.51h12.78l.72.72v6.78Z"/>
  <path class="cls-2" d="m342.86,289.79l-.24.12-.18.06-.18.12-.18.12-.24.12-.18.12-.24.12-.18.12-.18.06-.24.12-.18.12-.24.12-.24.12-.18.12-.24.12-.24.12-.18.12-.24.12-.24.12-.24.18-.24.12-.24.12-.24.12-.12.06-.12.06-.12.06-.06.06-.24.12-.24.12-.18.12-.18.12-.24.12-.18.12-.18.06-.18.12-.18.12-.18.12-.18.06-.18.12-.18.12-.18.06-33.18,18.24v.02c-.4.23-.83.43-1.26.61l-.06.03-.18.06-.18.06-.18.06-.18.06-.12.06-.18.06-.18.06-.18.06-.18.06-.18.06-.18.06h-.18l-.18.06-.18.06h-.12l-.13.04c-.49.09-.99.16-1.48.21l-.07.05-6.78.59v-.05l-12.36-7.14.06-.12.18-.3.3-.48.42-.72.48-.9.6-1.02.66-1.14.72-1.32,7.56-13.02.67.39.77.45,9.6,5.58,6.3-10.86,1.14-1.98,1.14-1.98,1-1.78.38-.68.96-1.62,1.2-2.04,1.2-2.04,1.14-1.98,1.08-1.98.42-.72.05-.09.61-1.05,1.08-1.74.42-.78.48-.9.9-1.5.84-1.44.59-1.07h0s.06-.13.06-.13l.66-1.08.48-.84.42-.72.3-.48.18-.3.06-.12,46.62,26.94,1.56,5.82-.06.12-.18.24-.3.48-.36.66-.48.84-.54.96-.66,1.14-.72,1.26-.84,1.44-.9,1.5-.9,1.62-.96,1.68-1.02,1.74h-.03c.44-2.33.19-4.8-.83-7.07-.18-.42-.4-.84-.64-1.25-1.6-2.7-4.09-4.55-6.89-5.38-2.99-.91-6.32-.65-9.26.97h.01s-.24.13-.24.13l-.18.06-.08.05-.1.07-.18.12-.18.12-.24.06-.18.12-.18.12-.18.12Z"/>
  <path class="cls-2" d="m361.38,294.48c1.02,2.27,1.27,4.74.83,7.07-.49,2.67-1.88,5.17-4.06,7.01-.41.34-.84.66-1.31.96h0s-.18.13-.18.13l-.18.12-.18.12-.18.12-.18.12-.18.12-.24.12-.18.12-.18.12-.18.12-.18.12-.18.12-.24.12-.18.12-.18.12-.18.12-.24.12-.18.12-.18.18-.24.12-.18.12-.18.12-.24.12-.18.18-.24.12-.24.12-.18.12-.24.18-.24.12-.24.18-.18.12-.24.18-.12.06-.12.06-.12.06-.12.06-.18.12-.07.05-.17.13-.18.12-.18.12-.18.12-.18.12-.18.12-.18.12-.18.06-.18.12-.18.12-.18.12-.18.12-.18.12-15.3,9.71-4.92,3.13-23.46,14.88v.02c-1.21.76-2.53,1.34-3.92,1.72h-.04l-42.73,11.44-15.47,4.15-2.76.73-18.36,4.92-.18.06-.18.06-.18.06-.18.06h-.18l-.18.06-.18.06-.18.06-.18.06h-.24l-.18.06-.18.06-.24.06-.18.06-.24.06-.18.06-.24.06-.18.06-.24.06-.18.06-.24.06-.18.06-.24.06h-.18l-.18.06-.24.06-.18.06-.18.06-.18.06-.24.06-.18.06h-.18l-.18.06-.18.06-.18.06-.18.06-.36.06-.36.12-.36.12-.36.06-.36.12-.34.06v.03c-.96.26-1.94.39-2.91.39h-.07c-1.93,0-3.82-.53-5.48-1.47-1.73-.98-3.21-2.42-4.26-4.23-.9-1.56-1.4-3.26-1.51-4.97-.2-3.18.93-6.38,3.29-8.75l.24-.2.24-.3.24-.24.3-.24.24-.3.3-.24.12-.12.12-.18.12-.12.18-.12.12-.18.12-.12.18-.12.12-.18.12-.12.18-.12.12-.18.18-.12.12-.18.12-.12.18-.18.18-.12.12-.18.18-.12.12-.18.18-.18.18-.12.12-.18.18-.12.12-.18.18-.12.12-.18.12-.12.18-.12.12-.18.12-.12.12-.12.18-.12.12-.12.12-.18.12-.12.12-.12,13.5-13.5.12-.12.12-.12.12-.12.18-.12.12-.18.12-.12.12-.12.18-.12.12-.18.12-.12.18-.12.12-.18.18-.12.12-.18.18-.12.12-.18.18-.18.18-.12.12-.18.18-.12.12-.18.18-.12.12-.18.18-.12.12-.18.18-.12.12-.18.12-.12.18-.12.12-.18.12-.12.18-.12.12-.18.12-.12.12-.12.18-.12.24-.3.3-.24.24-.3.24-.24.3-.24.13-.17.11-.13h.07c1.26-1.25,2.8-2.19,4.47-2.74l.26-.08c.75-.24,1.52-.39,2.31-.46v.02l.27-.04h.42l.36-.06.36-.06h.36l.36-.06h.6l.18-.06h.42l.18-.06h.6l.18-.06h.42l.24-.06h.42l.18-.06h.48l.24-.06h.42l.18-.06h.66l.18-.06h.36l.24-.06h.54l.18-.06h.36l45.54-3.97,6.78-.59.07-.05c.49-.05.99-.12,1.48-.21l.13-.04h.12l.18-.06.18-.06h.18l.18-.06.18-.06.18-.06.18-.06.18-.06.18-.06.12-.06.18-.06.18-.06.18-.06.18-.06.06-.03c.43-.18.86-.38,1.27-.61v-.02s33.17-18.24,33.17-18.24l.18-.06.18-.12.18-.12.18-.06.18-.12.18-.12.18-.12.18-.06.18-.12.24-.12.18-.12.18-.12.24-.12.24-.12.06-.06.12-.06.12-.06.12-.06.24-.12.24-.12.24-.12.24-.18.24-.12.24-.12.18-.12.24-.12.24-.12.18-.12.24-.12.24-.12.18-.12.24-.12.18-.06.18-.12.24-.12.18-.12.24-.12.18-.12.18-.12.18-.06.24-.12.18-.12.18-.12.18-.12.24-.06.18-.12.18-.12.1-.07.08-.05.18-.06.24-.12h-.01c2.94-1.63,6.27-1.89,9.26-.98,2.8.83,5.29,2.68,6.89,5.38.24.41.46.83.64,1.25Zm-10.99,12.95c4.46,0,8.07-3.61,8.07-8.07s-3.61-8.07-8.07-8.07-8.07,3.61-8.07,8.07,3.61,8.07,8.07,8.07Zm-107.67,23.43c0-4.13-3.34-7.47-7.47-7.47s-7.47,3.34-7.47,7.47,3.34,7.47,7.47,7.47,7.47-3.34,7.47-7.47Zm-26.94,26.94c0-4.13-3.34-7.47-7.47-7.47s-7.47,3.34-7.47,7.47,3.34,7.47,7.47,7.47,7.47-3.34,7.47-7.47Z"/>
  <path class="cls-4" d="m358.46,299.36c0,4.46-3.61,8.07-8.07,8.07s-8.07-3.61-8.07-8.07,3.61-8.07,8.07-8.07,8.07,3.61,8.07,8.07Zm-2.4.15v-.24h0c-.03-1.96-1.07-3.76-2.74-4.77-.06-.03-.12-.07-.18-.1,0,0-.01,0-.01-.01-1.71-.94-3.77-.94-5.48.01-.06.03-.12.06-.18.1,0,0-.01,0-.01,0-1.66,1.01-2.7,2.79-2.74,4.74v.2h0c.03,1.96,1.07,3.76,2.74,4.77.06.03.12.07.18.1h0c1.68.93,3.7.95,5.39.05.03-.02.06-.03.09-.05.06-.03.12-.06.18-.1h0l.02-.02c1.64-1,2.67-2.77,2.72-4.69Z"/>
  <path class="cls-2" d="m358.16,308.57l-1.02,1.74-.96,1.68-.9,1.62-.9,1.5-.84,1.44-.72,1.26-.66,1.14-.54.96-.48.84-.36.66-.3.48-.18.24-.06.12-23.1,6.18,4.92-3.13,15.3-9.71.18-.12.18-.12.18-.12.18-.12.18-.12.18-.06.18-.12.18-.12.18-.12.18-.12.18-.12.18-.12.17-.13.07-.05.18-.12.12-.06.12-.06.12-.06.12-.06.24-.18.18-.12.24-.18.24-.12.24-.18.18-.12.24-.12.24-.12.18-.18.24-.12.18-.12.18-.12.24-.12.18-.18.18-.12.24-.12.18-.12.18-.12.18-.12.24-.12.18-.12.18-.12.18-.12.18-.12.18-.12.24-.12.18-.12.18-.12.18-.12.18-.12.18-.12.18-.12h0c.47-.31.9-.63,1.31-.97h.01Z"/>
  <path class="cls-4" d="m356.06,299.47v.04c-.05,1.92-1.08,3.69-2.72,4.69l-.02.02h0c-.06.04-.12.07-.18.1-.03.02-.06.03-.09.05-1.69.9-3.71.88-5.39-.04h0s0-.01,0-.01c-.06-.03-.12-.07-.18-.1-1.67-1.01-2.71-2.81-2.74-4.76h0v-.21c.04-1.95,1.08-3.73,2.74-4.74,0,0,.01,0,.01,0,.06-.04.12-.07.18-.1,1.71-.95,3.77-.95,5.48-.01,0,.01.01.01.01.01.06.03.12.07.18.1,1.67,1.01,2.71,2.81,2.74,4.76h0v.21Z"/>
  <polygon class="cls-4" points="355.7 377.09 355.7 386.87 354.98 387.59 354.86 387.59 354.5 387.59 353.9 387.59 353.06 387.59 352.04 387.59 350.9 387.59 349.58 387.59 348.14 387.59 346.58 387.59 345.08 387.59 299.72 387.59 298.1 387.59 296.54 387.59 295.04 387.59 293.66 387.59 292.46 387.59 291.44 387.59 290.66 387.59 289.82 387.59 288.74 387.59 287.54 387.59 286.16 387.59 284.6 387.59 282.98 387.59 281.24 387.59 279.44 387.59 277.64 387.59 211.16 387.59 209.36 387.59 207.56 387.59 205.88 387.59 204.2 387.59 202.7 387.59 201.32 387.59 200.06 387.59 199.04 387.59 198.14 387.59 197.36 387.59 196.34 387.59 195.14 387.59 193.82 387.59 192.32 387.59 190.76 387.59 189.14 387.59 143.78 387.59 142.16 387.59 140.6 387.59 139.1 387.59 137.78 387.59 136.52 387.59 135.56 387.59 134.78 387.59 133.88 387.59 132.86 387.59 131.6 387.59 130.22 387.59 128.72 387.59 127.04 387.59 125.3 387.59 123.56 387.59 121.7 387.59 63.68 387.59 62.12 387.59 60.62 387.59 59.18 387.59 57.86 387.59 56.66 387.59 55.64 387.59 54.86 387.59 54.26 387.59 53.9 387.59 53.78 387.59 53.06 386.87 53.06 380.51 57.32 376.25 57.44 376.25 57.8 376.25 58.4 376.25 59.18 376.25 60.14 376.25 60.86 376.25 61.28 376.25 62.3 376.25 62.42 376.25 63.68 376.25 118.16 376.25 120.08 376.25 122 376.25 123.86 376.25 125.66 376.25 127.34 376.25 128.96 376.25 130.4 376.25 131.72 376.25 132.86 376.25 133.88 376.25 134.66 376.25 135.26 376.25 136.1 376.25 137.12 376.25 138.26 376.25 139.52 376.25 140.9 376.25 142.34 376.25 143.78 376.25 189.14 376.25 190.58 376.25 192.02 376.25 193.4 376.25 194.66 376.25 195.8 376.25 196.82 376.25 196.94 376.25 197.6 376.25 198.26 376.25 198.32 376.25 198.92 376.25 199.04 376.25 200.06 376.25 201.2 376.25 202.52 376.25 203.96 376.25 205.58 376.25 207.26 376.25 209.06 376.25 210.92 376.25 212.84 376.25 214.76 376.25 274.04 376.25 275.96 376.25 277.88 376.25 279.74 376.25 281.54 376.25 283.28 376.25 284.84 376.25 286.34 376.25 287.66 376.25 288.8 376.25 289.76 376.25 290.6 376.25 291.2 376.25 292.04 376.25 293 376.25 294.14 376.25 295.46 376.25 296.78 376.25 298.22 376.25 299.72 376.25 345.08 376.25 346.58 376.25 348.08 376.25 349.52 376.25 350.78 376.25 351.98 376.25 352.94 376.25 353.78 376.25 354.38 376.25 354.74 376.25 354.86 376.25 355.7 377.09"/>
  <polygon class="cls-4" points="321.2 254.03 321.38 254.75 321.32 254.87 321.08 255.23 320.72 255.89 320.24 256.73 320.22 256.76 320.18 256.79 320.18 256.83 320.17 256.85 319.64 257.75 319.24 258.42 319.81 258.77 319.81 258.78 319.76 258.83 319.58 259.13 319.28 259.61 318.92 260.27 318.44 261.05 317.9 262.01 317.24 263.15 316.95 263.69 316.94 263.69 316.52 264.47 315.68 265.85 314.89 267.26 314.84 267.35 314.42 268.07 313.88 268.97 312.92 270.65 311.9 272.39 310.88 274.13 309.86 275.93 308.84 277.73 308.46 278.41 307.46 280.19 306.32 282.17 305.18 284.15 298.88 295.01 289.28 289.43 288.51 288.98 287.84 288.59 291.74 281.87 291.85 281.87 291.86 281.87 292.28 281.09 293.12 279.71 293.96 278.21 294.92 276.59 295.88 274.91 296.9 273.17 297.92 271.43 298.94 269.63 299.96 267.83 300.98 266.03 302 264.29 302.96 262.61 303.92 261.05 304.76 259.55 305.6 258.11 306.32 256.85 306.98 255.71 307.52 254.75 308 253.91 308.36 253.31 308.66 252.83 308.84 252.53 308.9 252.47 309.44 252.77 309.45 252.77 309.86 252.05 310.34 251.15 310.4 251.15 310.4 251.09 310.4 251.03 310.94 250.19 311.24 249.59 311.48 249.23 311.54 249.11 312.26 248.87 312.38 248.87 312.56 248.81 312.68 248.81 312.86 248.75 312.98 248.69 313.16 248.69 313.34 248.63 313.46 248.57 320.84 252.83 320.9 253.01 320.96 253.19 320.96 253.31 321.02 253.49 321.08 253.61 321.08 253.79 321.14 253.91 321.2 254.03"/>
  <polygon class="cls-2" points="319.81 258.78 319.22 259.85 318.38 261.29 317.48 262.79 317 263.69 316.95 263.69 317.24 263.15 317.9 262.01 318.44 261.05 318.92 260.27 319.28 259.61 319.58 259.13 319.76 258.83 319.81 258.78"/>
  <polygon class="cls-2" points="314.42 268.07 313.34 270.05 312.2 272.03 311 274.07 309.8 276.11 308.84 277.73 309.86 275.93 310.88 274.13 311.9 272.39 312.92 270.65 313.88 268.97 314.42 268.07"/>
  <path class="cls-2" d="m310.94,248.69l-.06.12-.18.3-.3.48-.42.72-.48.9-.66,1.02-.66,1.26-.84,1.38-.9,1.56-.96,1.62-1.02,1.8-1.08,1.86-1.08,1.92-1.2,1.98-1.14,2.04-1.2,2.1-1.2,2.04-1.14,2.04-1.2,1.98-1.08,1.92-2.4,4.14-3.9,6.72-7.56,13.02-.72,1.32-.66,1.14-.6,1.02-.48.9-.42.72-.3.48-.18.3-.06.12-11.04-6.36-.54-1.98.06-.12.24-.36.3-.54.48-.78.54-1.02.66-1.14.78-1.26,7.25-12.54h0s-1.97-1.14-1.97-1.14l.06-.12.18-.3.3-.54.42-.72.54-.9.27-.49-3.69-2.15.06-.06.18-.3.3-.54.36-.66.05-.09-.17-.75.06-.12.18-.3.24-.48.42-.72.48-.84.6-1.02.72-1.2.19-.35h-.01s-.72.71-.72.71l-.42-.18.18-.3.16-.26c-.05.03-.1.03-.15,0v.02s-.99-.57-.99-.57l.03-.05c-.05-.03-.08-.09-.06-.16h-.01v-.06l.18-.3.3-.42.3-.66.48-.78.54-.9.6-1.02.66-1.14.66-1.26.78-1.26.72-1.26.78-1.32.72-1.26.66-1.2.66-1.14.6-1.02.54-.96.48-.72.36-.66.24-.42.18-.3.06-.06.02-.05c.03-.06.1-.08.17-.06v.05s.95.54.95.54l.05-.04c.07.04.09.13.05.21h-.04s-.06.13-.06.13l-.12.24-.3.48-.04.07.4.23v.12l-.06.06v.12l-.06.06v.12l-.06.06v.12l-.06.06v.06l-.06.06v.06l-.06.06v.12l-.06.06-.06.06v.12l-.06.06-.06.12-.06.12v.06h.01l.65-1.2.78-1.32h0s.66-1.2.66-1.2l.6-1.02.54-.84.36-.72.3-.48.18-.3.06-.06.78-.24h.02s.04-.06.04-.06l.36-.72.3-.48.18-.3.06-.12,3.66,2.16.3-.54.54-.9.42-.72.3-.48.18-.3.06-.12,1.92,1.14h.02s.16-.24.16-.24l.12-.3.06-.06,1.98-.54,11.04,6.36Z"/>
  <path class="cls-2" d="m257,356.51v9.84h-.54v2.22h-24.5c1.41-.47,2.72-1.23,3.85-2.23.19-.16.37-.32.54-.5v-.03s.19-.18.19-.18l4.98-4.98h0s15.47-4.16,15.47-4.16v.02Z"/>
  <path class="cls-2" d="m241.52,360.64h0s-4.98,4.99-4.98,4.99l-.18.18v.03c-.18.18-.36.34-.55.5-1.13,1-2.44,1.76-3.85,2.23-1.15.39-2.37.6-3.61.6h-20.02c.97,0,1.95-.13,2.92-.39v-.03s.33-.06.33-.06l.36-.12.36-.06.36-.12.36-.12.36-.06.18-.06.18-.06.18-.06.18-.06h.18l.18-.06.24-.06.18-.06.18-.06.18-.06.24-.06.18-.06h.18l.24-.06.18-.06.24-.06.18-.06.24-.06.18-.06.24-.06.18-.06.24-.06.18-.06.24-.06.18-.06.18-.06h.24l.18-.06.18-.06.18-.06.18-.06h.18l.18-.06.18-.06.18-.06.18-.06,18.36-4.92,2.76-.73Z"/>
  <path class="cls-4" d="m235.25,323.39c4.13,0,7.47,3.34,7.47,7.47s-3.34,7.47-7.47,7.47-7.47-3.34-7.47-7.47,3.34-7.47,7.47-7.47Zm2.79,9.12v-3.24l-.12-.06-.06-.06-.12-.06-.12-.06-.06-.06-.12-.06-.06-.06-.12-.06h-.06l-.06-.06-.12-.06-.06-.06-.18-.06-.18-.12-.12-.12-.18-.06-.12-.06-.06-.06-.06-.06h-.12l-.06-.06-.12-.06-.06-.06-.12-.06-.06-.06-.12-.06-.12-.06-.06-.06-.12.06-.12.06-.06.06-.12.06-.06.06-.12.06-.06.06-.12.06h-.06l-.12.06-.06.06-.06.06-.18.06-.18.12-.18.12-.12.06-.12.06-.06.06-.12.06h-.06l-.12.06-.06.06-.12.06-.06.06-.12.06-.06.06-.12.06-.04.02-.08.04v3.06h0v.18l.12.06h.02s.1.06.1.06l.06.06.12.06.06.06.12.06.06.06h.12l.06.06.12.06.06.06.12.06.12.06.18.12.18.06.18.12.06.06.06.06h.12l.06.06.12.06.06.06.12.06.06.06.12.06.06.06h.12l.12.06.06-.06h.12l.12-.06.06-.06.12-.06.06-.06.12-.06.06-.06.12-.06h.06l.06-.06.12-.06.18-.12.12-.06.18-.12.18-.06.06-.06.12-.06.06-.06.06-.06h.12l.06-.06.12-.06.06-.06.12-.06.12-.06.06-.06.12-.06Z"/>
  <path class="cls-4" d="m238.04,332.39v.12l-.12.06-.06.06-.12.06-.12.06-.06.06-.12.06-.06.06h-.12l-.06.06-.06.06-.12.06-.06.06-.18.06-.18.12-.12.06-.18.12-.12.06-.06.06h-.06l-.12.06-.06.06-.12.06-.06.06-.12.06-.06.06-.12.06h-.12l-.06.06-.12-.06h-.12l-.06-.06-.12-.06-.06-.06-.12-.06-.06-.06-.12-.06-.06-.06h-.12l-.06-.06-.06-.06-.18-.12-.18-.06-.18-.12-.12-.06-.12-.06-.06-.06-.12-.06-.06-.06h-.12l-.06-.06-.12-.06-.06-.06-.12-.06-.06-.06-.1-.05h-.01s-.03-.05-.05-.08h0c-.03-.06-.06-.11-.08-.16h0v-2.95c.02-.06.05-.11.08-.16l.04-.02.12-.06.06-.06.12-.06.06-.06.12-.06.06-.06.12-.06h.06l.12-.06.06-.06.12-.06.12-.06.18-.12.18-.12.18-.06.06-.06.06-.06.12-.06h.06l.12-.06.06-.06.12-.06.06-.06.12-.06.06-.06.12-.06.12-.06.06.06.12.06.12.06.06.06.12.06.06.06.12.06.06.06h.12l.06.06.06.06.12.06.18.06.12.12.18.12.18.06.06.06.12.06.06.06h.06l.12.06.06.06.12.06.06.06.12.06.12.06.06.06.12.06v3.12Z"/>
  <path class="cls-2" d="m190.49,332.39l41.23-12.28c-1.67.55-3.21,1.49-4.47,2.75h-.07s-.11.12-.11.12l-.13.17-.3.24-.24.24-.24.3-.3.24-.24.3-.18.12-.12.12-.12.12-.12.18-.18.12-.12.12-.12.18-.18.12-.12.12-.12.18-.18.12-.12.18-.18.12-.12.18-.18.12-.12.18-.18.12-.12.18-.18.12-.18.18-.12.18-.18.12-.12.18-.18.12-.12.18-.18.12-.12.12-.12.18-.18.12-.12.12-.12.12-.12.18-.18.12-.12.12-.12.12-.12.12-13.5,13.5-.12.12-.12.12-.12.18-.12.12-.18.12-.12.12-.12.12-.12.18-.18.12-.12.12-.12.18-.18.12-.12.18-.18.12-.12.18-.18.12-.18.18-.12.18-.18.12-.12.18-.18.12-.18.18-.12.12-.12.18-.18.12-.12.18-.18.12-.12.12-.12.18-.18.12-.12.12-.12.18-.18.12-.12.12-.12.18-.12.12-.3.24-.24.3-.3.24-.24.24-.24.3-.24.2c-2.36,2.37-3.49,5.57-3.29,8.75.11,1.71.61,3.41,1.51,4.97,1.05,1.81,2.53,3.25,4.26,4.23,1.66.94,3.55,1.46,5.48,1.47h-9.91c-.01-.48-.05-.97-.11-1.44-.1-.73-.24-1.46-.43-2.17h-.03s-8.32-31.38-8.32-31.38l-.36-1.37-.02-.06-.19-.72h1c.25,0,.48.14.6.36Z"/>
  <path class="cls-4" d="m208.31,350.33c4.13,0,7.47,3.34,7.47,7.47s-3.34,7.47-7.47,7.47-7.47-3.34-7.47-7.47,3.34-7.47,7.47-7.47Zm2.79,9.12v-3.24l-.12-.06-.06-.06-.12-.06-.06-.06-.12-.06-.06-.06-.12-.06-.06-.06-.12-.06h-.06l-.12-.06-.06-.06-.18-.12-.18-.06-.12-.12-.18-.06-.06-.06-.12-.06-.06-.06-.12-.06h-.06l-.12-.06-.06-.06-.12-.06-.06-.06-.12-.06-.06-.06-.12-.06-.12.06-.06.06-.12.06-.12.06-.06.06-.12.06-.06.06h-.12l-.06.06-.06.06-.12.06-.06.06-.18.06-.18.12-.18.06-.12.12-.12.06-.06.06h-.06l-.12.06-.06.06-.12.06-.06.06-.12.06-.06.06-.12.06-.12.06-.06.06v3.18h0v.06l.06.06h.02s.1.06.1.06l.12.06.06.06.12.06.06.06h.12l.06.06.12.06.06.06.06.06.12.06.12.06.18.12.18.06.18.12.06.06.12.06h.06l.06.06.12.06.06.06.12.06.06.06.12.06h.12l.06.06.12.06.12-.06.06-.06h.12l.06-.06.12-.06.06-.06.12-.06.06-.06.12-.06h.06l.12-.06.06-.06.18-.12.12-.06.18-.12.18-.06.06-.06.12-.06.06-.06.12-.06.06-.06h.12l.06-.06.12-.06.06-.06.12-.06.06-.06.12-.06Z"/>
  <polygon class="cls-4" points="212.96 220.73 212.96 220.79 212.24 221.51 205.16 221.51 203.72 220.13 203.72 220.01 203.72 219.65 203.72 219.05 203.72 218.21 203.72 217.19 203.72 216.05 203.72 214.67 203.72 214.37 203.72 213.23 203.72 211.73 203.72 210.17 203.72 208.61 203.72 207.11 203.72 206.03 203.72 205.67 203.72 204.35 203.72 203.15 203.72 202.19 203.72 201.35 203.72 200.75 203.72 200.39 203.72 200.27 205.16 198.83 212.24 198.83 212.96 199.55 212.96 199.67 212.96 199.97 212.96 200.51 212.96 201.23 212.96 201.89 212.96 202.13 212.96 203.21 212.96 204.41 212.96 205.79 212.96 207.17 212.96 208.67 212.96 210.17 212.96 211.67 212.96 213.17 212.96 214.61 212.96 215.93 212.96 217.13 212.96 218.21 212.96 219.11 212.96 219.83 212.96 220.37 212.96 220.73"/>
  <path class="cls-4" d="m211.1,359.33v.12l-.12.06-.06.06-.12.06-.06.06-.12.06-.06.06h-.12l-.06.06-.12.06-.06.06-.12.06-.06.06-.18.06-.18.12-.12.06-.18.12-.06.06-.12.06h-.06l-.12.06-.06.06-.12.06-.06.06-.12.06-.06.06h-.12l-.06.06-.12.06-.12-.06-.06-.06h-.12l-.12-.06-.06-.06-.12-.06-.06-.06-.12-.06-.06-.06h-.06l-.12-.06-.06-.06-.18-.12-.18-.06-.18-.12-.12-.06-.12-.06-.06-.06-.06-.06-.12-.06-.06-.06h-.12l-.06-.06-.12-.06-.06-.06-.12-.06-.1-.05h-.01s-.03-.05-.05-.08h0s-.02-.03-.02-.04h0v-3.19l.06-.06.12-.06.12-.06.06-.06.12-.06.06-.06.12-.06.06-.06.12-.06h.06l.06-.06.12-.06.12-.12.18-.06.18-.12.18-.06.06-.06.12-.06.06-.06.06-.06h.12l.06-.06.12-.06.06-.06.12-.06.12-.06.06-.06.12-.06.12.06.06.06.12.06.06.06.12.06.06.06.12.06h.06l.12.06.06.06.12.06.06.06.18.06.12.12.18.06.18.12.06.06.12.06h.06l.12.06.06.06.12.06.06.06.12.06.06.06.12.06.06.06.12.06v3.12Z"/>
  <polygon class="cls-4" points="203.72 213.23 203.72 214.37 189.56 214.37 189.56 214.13 189.56 212.21 189.56 210.23 189.56 208.25 189.56 206.27 189.56 206.03 203.72 206.03 203.72 207.11 203.72 208.61 203.72 210.17 203.72 211.73 203.72 213.23"/>
  <polygon class="cls-4" points="189.56 227.81 189.56 227.93 188.9 228.65 182.48 228.65 182.48 228.59 182.48 227.09 182.48 225.41 182.48 223.55 182.48 221.57 182.48 219.47 182.48 217.25 182.48 214.91 182.48 212.57 182.48 210.23 182.48 207.83 182.48 205.49 182.48 203.21 182.48 200.99 182.48 198.89 182.48 196.91 182.48 195.05 182.42 193.37 182.42 191.87 182.42 191.81 188.84 191.81 189.56 192.47 189.56 192.59 189.56 192.95 189.56 193.49 189.56 194.27 189.56 195.23 189.56 196.37 189.56 197.69 189.56 199.13 189.56 200.81 189.56 202.49 189.56 204.35 189.56 206.03 189.56 206.27 189.56 208.25 189.56 210.23 189.56 212.21 189.56 214.13 189.56 214.37 189.56 216.05 189.56 217.91 189.56 219.65 189.56 221.27 189.56 222.71 189.56 224.09 189.56 225.23 189.56 226.19 189.56 226.91 189.56 227.51 189.56 227.81"/>
  <path class="cls-4" d="m198.35,369.17c-.01-.48-.05-.97-.11-1.44-.1-.73-.24-1.46-.43-2.17h-.03s-8.32-31.38-8.32-31.38l-.36-1.37-.02-.06-.19-.72-3.61-13.61-1.93-7.3-.09-.33v-.03c-1.04-3.91-4.1-6.99-8.01-8.06-3.92-1.07-8.09.03-10.96,2.88v.05s-10.19,10.2-10.19,10.2l-.04-.04c-.73.72-1.28,1.59-1.62,2.54l.04.08-5.32,14.34-.56,1.5h.03c-1.1,3.01-3.39,5.37-6.26,6.56-.88.38-1.81.63-2.78.77h-.05s-4.68.65-4.68.65l-13.54,1.91s-.05.01-.08.01c-3.98.52-7.96-1.11-10.44-4.29l-.06.03-2.94-3.72h0s-3.78-4.8-3.78-4.8l-.16,2.1-.68,8.64h.07c-.75,9.36-8.93,16.34-18.28,15.61-9.37-.73-16.37-8.92-15.64-18.28h-.05l.55-7.02.24-3.07c-1.86,2.66-3.05,5.72-3.45,8.94l-.04.04-3.59,28.33s0,.03-.01.05c-.08.68-.12,1.38-.12,2.07v7.47h137.46l.06-6.33c0-.25-.01-.5-.03-.75Zm-14.29-27.67c1.39,2.75,1.23,6.04-.44,8.63h.02c1.17,2.9.71,6.18-1.19,8.64h.01c1.21,3.97-.52,8.23-4.15,10.22s-8.16,1.16-10.84-1.99c-2.68-3.12-2.79-7.7-.29-10.97.01-.01.02-.03.03-.04h-.01c-.75-2.46-.38-5.11,1-7.26h-.02c-.97-2.4-.83-5.09.37-7.37-1.17-2.29-1.27-4.98-.27-7.35h.05v-.02c-1.36-2.17-1.7-4.81-.92-7.25v-.03h-.03c-1.54-2.05-2.1-4.67-1.55-7.17,0,0,.01-.03.01-.04h-.01c-2.77-3.08-3.01-7.68-.56-11.02,2.45-3.34,6.9-4.5,10.67-2.78,2.57,1.17,4.33,3.46,4.9,6.08.27,1.22.27,2.51-.02,3.8h.01s.01.02.02.03c.91,1.01,1.56,2.21,1.91,3.48.45,1.61.43,3.35-.09,5h.03c1.87,2.49,2.28,5.79,1.08,8.66l-.05.02h0c1.65,2.65,1.77,5.95.32,8.71t.01.02Z"/>
  <path class="cls-1" d="m183.73,332.78c1.65,2.64,1.77,5.94.32,8.7t.01.02c1.39,2.75,1.23,6.04-.44,8.63h.02c1.17,2.9.71,6.18-1.19,8.64h.01c1.21,3.97-.52,8.23-4.15,10.22s-8.16,1.16-10.84-1.99c-2.68-3.12-2.79-7.7-.29-10.97.01-.01.02-.03.03-.04h-.01c-.75-2.46-.38-5.11,1-7.26h-.02c-.97-2.4-.83-5.09.37-7.37-1.17-2.29-1.27-4.98-.27-7.35h.05v-.02c-1.36-2.17-1.7-4.81-.92-7.25v-.03h-.03c-1.54-2.05-2.1-4.67-1.55-7.17,0-.01,0-.03,0-.04h0c-2.77-3.08-3.01-7.68-.56-11.02s6.9-4.5,10.67-2.78c2.57,1.17,4.33,3.46,4.9,6.08.27,1.22.27,2.51-.02,3.8h.01s0,.02.02.03c.91,1.01,1.56,2.21,1.91,3.48.45,1.61.43,3.35-.09,5h.03c1.87,2.49,2.28,5.79,1.08,8.66l-.05.02h0Zm-1.61,28.56c0-.93-.16-1.83-.46-2.66-.44-1.26-1.19-2.38-2.16-3.26-1.42-1.3-3.31-2.09-5.39-2.09-1.05,0-2.06.2-2.97.58-1.23.48-2.31,1.27-3.15,2.27-1.18,1.39-1.89,3.19-1.89,5.16,0,4.42,3.59,8.01,8.01,8.01s8.01-3.59,8.01-8.01Z"/>
  <polygon class="cls-4" points="182.48 232.79 182.48 232.91 182.42 232.97 182.36 233.03 182.3 233.03 182.24 233.09 182.24 233.15 182.18 233.15 182.12 233.21 182.06 233.21 182.06 233.27 182 233.33 181.88 233.39 181.76 233.51 181.64 233.63 181.52 233.75 181.34 233.81 181.22 233.93 181.1 234.05 175.4 234.05 175.28 233.93 175.16 233.87 174.98 233.75 174.86 233.63 174.74 233.51 174.62 233.39 174.5 233.33 174.44 233.27 174.38 233.21 174.32 233.15 174.26 233.15 174.26 233.09 174.2 233.09 174.14 233.03 174.08 232.97 174.02 232.97 174.02 232.91 174.02 232.79 174.02 232.43 174.02 231.77 174.02 230.93 174.02 229.85 174.02 228.59 173.96 227.09 173.96 225.41 173.96 223.55 173.96 221.57 173.96 219.47 173.96 217.25 173.96 214.97 173.96 214.37 173.96 212.57 173.96 210.23 173.96 207.83 173.96 206.03 173.96 205.49 173.96 203.21 173.96 200.99 173.96 198.89 173.96 196.91 173.96 195.05 173.96 193.37 173.96 191.87 173.96 190.61 173.96 189.53 173.96 188.63 173.96 188.03 173.96 187.67 173.96 187.55 173.96 187.49 174.02 187.49 174.08 187.43 174.14 187.37 174.2 187.37 174.2 187.31 174.26 187.31 174.32 187.25 174.38 187.19 174.44 187.13 174.56 187.01 174.68 186.95 174.8 186.83 174.92 186.71 175.1 186.59 175.22 186.47 175.34 186.35 181.04 186.35 181.16 186.47 181.28 186.59 181.46 186.71 181.58 186.83 181.7 186.95 181.82 187.01 181.94 187.13 182 187.19 182.06 187.25 182.12 187.25 182.18 187.31 182.18 187.37 182.24 187.37 182.3 187.43 182.36 187.43 182.36 187.49 182.42 187.49 182.42 187.55 182.42 187.67 182.42 188.03 182.42 188.63 182.42 189.47 182.42 190.55 182.42 191.81 182.42 191.87 182.42 193.37 182.48 195.05 182.48 196.91 182.48 198.89 182.48 200.99 182.48 203.21 182.48 205.49 182.48 207.83 182.48 210.23 182.48 212.57 182.48 214.91 182.48 217.25 182.48 219.47 182.48 221.57 182.48 223.55 182.48 225.41 182.48 227.09 182.48 228.59 182.48 228.65 182.48 229.85 182.48 230.93 182.48 231.77 182.48 232.43 182.48 232.79"/>
  <path class="cls-3" d="m181.66,358.68c.3.83.46,1.73.46,2.66,0,4.42-3.59,8.01-8.01,8.01s-8.01-3.59-8.01-8.01c0-1.97.71-3.77,1.89-5.16.84-1,1.92-1.79,3.15-2.27.91-.38,1.92-.58,2.97-.58,2.08,0,3.97.79,5.39,2.09.97.88,1.72,2,2.16,3.26Zm-3.63,2.75s.01-.06.01-.09c0-1.37-.72-2.65-1.9-3.35-.02-.02-.05-.04-.07-.05-1.18-.69-2.63-.71-3.83-.05h-.02s-.05.03-.07.05h-.01s-.04.01-.04.01l-.04.05h-.01s-.01,0-.02.02c-1.09.67-1.77,1.83-1.84,3.1h-.01v.19h-.06v.06l.06.06v.12h.01v.02c.07,1.22.71,2.34,1.73,3.01v.03h.04s.01.02.02.02v.04h.06v.06h.06l.06.06h.09c1.16.64,2.56.64,3.73,0h.02s.05-.03.07-.05h.01c1.19-.69,1.93-1.95,1.95-3.31Z"/>
  <path class="cls-3" d="m178.04,361.34s0,.06-.01.09c-.02,1.36-.76,2.62-1.95,3.31h-.01s-.05.03-.07.04c0,.01-.01.01-.02.01-1.17.64-2.57.64-3.73,0-.03-.01-.07-.03-.1-.05-.04-.02-.07-.04-.11-.07-.02,0-.04-.02-.06-.04v-.02h-.02s-.03,0-.04-.03c-1.02-.67-1.66-1.79-1.73-3.01h0s-.01-.06-.01-.08v-.3s0-.05.01-.07c.07-1.27.75-2.43,1.84-3.1.01-.01.01-.02.02-.01h.01s.05-.05.08-.06h.08v-.05s.01-.01.02-.01c1.2-.66,2.65-.64,3.83.05.02.01.05.03.07.05,1.18.7,1.9,1.98,1.9,3.35Z"/>
  <polygon class="cls-4" points="173.96 212.57 173.96 214.37 162.2 214.43 162.2 213.77 162.2 212.69 162.2 211.49 162.2 210.95 162.2 210.71 162.2 210.47 162.2 210.23 162.2 209.99 162.2 209.75 162.2 209.51 162.2 209.03 162.2 207.83 162.2 206.69 162.2 206.09 173.96 206.03 173.96 207.83 173.96 210.23 173.96 212.57"/>
  <polygon class="cls-3" points="162.2 216.71 162.2 216.83 162.14 216.95 162.14 217.13 162.08 217.25 162.08 217.37 162.02 217.49 161.96 217.61 161.9 217.73 161.84 217.85 161.78 218.03 161.72 218.15 161.66 218.27 161.6 218.45 158.3 218.45 158.24 218.27 158.18 218.15 158.1 218.07 158.03 217.93 158 217.85 157.94 217.73 157.94 217.61 157.88 217.49 157.82 217.37 157.76 217.25 157.76 217.13 157.76 217.01 157.7 216.89 157.7 216.77 157.7 216.65 157.7 216.53 157.7 216.41 157.7 216.29 157.7 216.17 157.7 216.05 157.7 215.93 157.7 215.15 157.67 210.6 157.67 209.88 157.64 205.31 157.64 204.35 157.64 204.23 157.64 204.11 157.64 203.99 157.64 203.87 157.7 203.75 157.7 203.63 157.7 203.51 157.76 203.39 157.76 203.27 157.82 203.15 157.82 203.03 157.88 202.91 157.94 202.73 158 202.61 158.06 202.49 158.12 202.37 158.12 202.36 158.3 202.07 161.54 202.07 161.72 202.36 161.72 202.37 161.78 202.49 161.84 202.61 161.9 202.73 161.96 202.91 162.02 203.03 162.02 203.15 162.08 203.27 162.08 203.39 162.14 203.51 162.14 203.63 162.2 203.75 162.2 203.87 162.2 203.99 162.2 204.11 162.2 204.23 162.2 204.35 162.2 204.47 162.2 204.83 162.2 205.67 162.2 206.09 162.2 206.69 162.2 207.83 162.2 209.03 162.2 209.51 162.2 209.75 162.2 209.99 162.2 210.23 162.2 210.47 162.2 210.71 162.2 210.95 162.2 211.49 162.2 212.69 162.2 213.77 162.2 214.43 162.2 214.79 162.2 215.69 162.2 215.93 162.2 216.05 162.2 216.17 162.2 216.29 162.2 216.41 162.2 216.53 162.2 216.59 162.2 216.71"/>
  <polygon class="cls-3" points="157.7 219.35 157.7 219.47 150.62 219.47 148.46 217.37 130.76 217.37 122.3 222.17 122.28 222.16 122.36 221.93 122.76 220.82 125.12 214.14 127.72 206.8 128.81 203.71 129.28 202.38 130.7 203.21 148.46 203.15 150.56 201.05 157.64 201.05 157.64 201.17 157.64 201.53 157.64 202.19 157.64 203.03 157.64 203.15 157.64 203.87 157.64 203.99 157.64 204.11 157.64 204.23 157.64 204.35 157.64 205.31 157.67 209.88 157.64 209.99 157.64 210.23 157.64 210.47 157.67 210.6 157.7 215.15 157.7 215.93 157.7 216.05 157.7 216.17 157.7 216.29 157.7 216.41 157.7 216.53 157.7 216.65 157.7 216.77 157.7 216.89 157.7 217.31 157.7 217.43 157.7 218.33 157.7 218.93 157.7 219.35"/>
  <path class="cls-4" d="m147.16,332.75l-.56,1.5h.03c-1.1,3.01-3.39,5.37-6.26,6.56v-.02h-19.69c-2.82,0-5.58-.61-8.1-1.74h0v-6.3h34.58Z"/>
  <path class="cls-2" d="m140.36,340.79v.02c-.87.38-1.8.63-2.77.77h-.05s-4.68.65-4.68.65l-13.54,1.91s-.05.01-.08.01c-3.98.52-7.96-1.11-10.44-4.29l-.06.03-2.94-3.72h0s-3.78-4.8-3.78-4.8l.45-.46,2.1,2.05.37.35.6.6h0l1.03,1,.23.23.02-.02c.75.74,1.56,1.41,2.41,2.01.67.47,1.36.9,2.08,1.28.41.23.83.44,1.26.63h0c2.52,1.14,5.28,1.75,8.1,1.75h19.68Z"/>
  <path class="cls-2" d="m135.45,125.05c.33,1.94.17,3.94-.45,5.81h-.05s-.96-5.67-.96-5.67l-5.87-34.84c-.76-4.55-4.28-8.14-8.84-8.82l-7.84-1.08-.65-.1c-.97.08-1.84.66-2.29,1.56l-.06.04-2.22,4.5.04.02c-.58,1.17-.96,2.42-1.16,3.71l-.08.05-1.86,12.72c-.33-.59-.74-1.14-1.21-1.61-.38-.41-.81-.76-1.27-1.07-.21-.14-.42-.27-.64-.39h0s-.7-.11-.7-.11l2.5-16.74.06-.72.12-.66.06-.6.42-2.52.06-.48.06-.24v-.12l1.38.18,1.44.24,13.98,2.1.06-.05c5.16.77,9.22,4.81,10.08,9.95l5.87,34.94h.02Z"/>
  <path class="cls-1" d="m132.3,125.48c.37,2.06,0,4.24-1.13,6.13-1.98,3.29-5.87,4.93-9.61,4.04h-.05c-2.17.94-4.64.96-6.83.07h0s-.04.02-.06.02c-3.71.93-7.59-.64-9.62-3.87-.68-1.09-1.11-2.28-1.28-3.49-.33-2.43.35-4.95,2-6.92,2.47-2.93,6.54-3.95,10.1-2.5h0c1.37-.37,2.82-.38,4.2-.05h.07c3.53-1.52,7.64-.59,10.17,2.31,1.08,1.24,1.77,2.72,2.04,4.26Zm-.7,1.56c0-4.42-3.59-8.01-8.01-8.01-1.26,0-2.44.29-3.5.8-1.53.75-2.79,1.97-3.58,3.48-.59,1.11-.93,2.38-.93,3.73,0,1.77.58,3.4,1.55,4.73,1.04,1.43,2.55,2.49,4.29,2.98.69.2,1.42.3,2.17.3,4.42,0,8.01-3.59,8.01-8.01Z"/>
  <path class="cls-3" d="m123.59,119.03c4.42,0,8.01,3.59,8.01,8.01s-3.59,8.01-8.01,8.01c-.75,0-1.48-.1-2.17-.3-1.74-.49-3.25-1.55-4.29-2.98-.97-1.33-1.55-2.96-1.55-4.73,0-1.35.34-2.62.93-3.73.79-1.51,2.05-2.73,3.58-3.48,1.06-.51,2.24-.8,3.5-.8Zm3.89,8.59c.2-1.39-.35-2.78-1.45-3.66-.02-.01-.03-.03-.05-.04-1.08-.84-2.55-1.04-3.83-.54l-.06.03h-.03l-.02.02s-.05.02-.07.04h-.03c-1.14.53-1.96,1.57-2.2,2.8l-.02.02v.06l-.06.06v.3h.01c-.09,1.24.39,2.44,1.31,3.26v.04l.06.06h.06v.06l.06.06h.09s.05.05.08.06c1.04.74,2.4.92,3.61.48l.09-.03c1.27-.5,2.18-1.62,2.42-2.96.02-.04.02-.08.03-.12Z"/>
  <path class="cls-1" d="m127.06,190.98c1.44,2.32,1.67,5.1.78,7.54-.44,1.23-1.16,2.37-2.15,3.32l.02.02v.03c.17,1.38,0,2.77-.46,4.04-.45,1.23-1.16,2.35-2.12,3.27.02.12.03.23.03.35l-.7.06c-.02-.21-.05-.42-.08-.63-.22-1.37-.79-2.62-1.61-3.66-1.47-1.87-3.74-3.07-6.3-3.07-.65,0-1.28.08-1.88.22-1.31.32-2.48.95-3.45,1.81h0c-1.65,1.48-2.68,3.61-2.68,5.98,0,.34.02.68.07,1.01l-.7.09-.02-.02c-.34-2.71.6-5.41,2.55-7.31l.03-.03c-.33-2.71.62-5.43,2.58-7.32l.02-.02-.02-.02c-.51-4.08,1.89-7.95,5.76-9.31,3.87-1.37,8.17.15,10.33,3.65Z"/>
  <path class="cls-3" d="m126.03,123.96c1.1.88,1.65,2.27,1.45,3.66-.01.04-.01.08-.03.12-.24,1.34-1.15,2.46-2.42,2.96l-.09.03c-1.21.44-2.57.26-3.61-.48l-.05-.06h-.04s-.06-.05-.09-.07c-.02-.01-.03-.03-.05-.04h-.01s-.08-.07-.11-.11c-.92-.82-1.4-2.02-1.31-3.25.01-.08.02-.17.03-.26.01-.04.01-.07.02-.11,0-.03.01-.06.02-.08.24-1.23,1.06-2.27,2.2-2.79h.01s.01-.01.01-.01h.04l.04-.04s.03-.02.05-.02l.06-.03c1.28-.5,2.75-.3,3.83.54.02.01.03.03.05.04Z"/>
  <path class="cls-3" d="m117.71,84.05c4.42,0,8.01,3.59,8.01,8.01s-3.59,8.01-8.01,8.01-8.01-3.59-8.01-8.01,3.59-8.01,8.01-8.01Zm3.89,8.59c.2-1.39-.35-2.78-1.45-3.66-.03-.02-.06-.05-.09-.07-1.08-.81-2.52-1.01-3.79-.51-.01.01-.03.01-.04.02-1.25.51-2.15,1.62-2.39,2.95v.02s-.01.03-.01.05l-.05.05v.26h.01c-.09,1.21.38,2.39,1.27,3.21l.04.07v.06h.06v.06h.06l.06.06h.06v.06h.11c.99.71,2.27.9,3.43.54h.06l.03-.03.09-.03h.06l.03-.03.06-.03h.03c1.21-.52,2.07-1.59,2.32-2.87.02-.06.03-.12.04-.18Z"/>
  <path class="cls-1" d="m123.16,209.55c.11,1.28-.06,2.54-.49,3.72-.45,1.22-1.17,2.34-2.14,3.27l.02.02v.03c.19,1.54-.04,3.07-.63,4.46-.45,1.07-1.11,2.05-1.97,2.87h-.04c.15,1.28.02,2.54-.35,3.71-.82,2.54-2.77,4.63-5.41,5.56-3.87,1.37-8.17-.15-10.33-3.65-2.15-3.47-1.6-7.96,1.32-10.81l.05-.05h.04c-.33-2.71.62-5.41,2.58-7.3l.02-.02.7-.09c.01.13.03.26.05.39.67,3.75,3.95,6.61,7.89,6.61.61,0,1.2-.07,1.77-.2,1.32-.3,2.51-.92,3.49-1.78,1.69-1.47,2.75-3.62,2.75-6.03,0-.22-.01-.43-.02-.65l.7-.06Z"/>
  <path class="cls-3" d="m122.46,209.61c0,.22.02.43.02.65,0,2.41-1.06,4.56-2.75,6.03-.98.86-2.17,1.48-3.49,1.78-.57.13-1.16.2-1.77.2-3.94,0-7.22-2.86-7.89-6.61-.02-.13-.04-.26-.05-.39-.05-.33-.07-.67-.07-1.01,0-2.37,1.03-4.5,2.68-5.97h0c.97-.87,2.14-1.5,3.45-1.82.6-.14,1.23-.22,1.88-.22,2.56,0,4.83,1.2,6.3,3.07.82,1.04,1.39,2.29,1.61,3.66.03.21.06.42.08.63Zm-4.9,3.08c.86-1.09,1.08-2.57.57-3.87-.52-1.31-1.69-2.24-3.08-2.45-1.37-.2-2.74.33-3.61,1.4-.02.02-.04.03-.05.05h-.01s-.03.05-.04.07h-.02v.02c-.79,1.05-1,2.46-.54,3.7v.12l.06.06v.06h.04s.01.03.02.04v.02l.02.02c.52,1.12,1.53,1.92,2.74,2.17v.03h.12l.06.06h.18l.02-.02c1.29.13,2.57-.37,3.41-1.36.02-.02.04-.04.05-.06.02-.02.04-.03.05-.05h.01Z"/>
  <path class="cls-2" d="m140.45,163.37h-.03l-5.47-32.5-.96-5.68-5.87-34.84c-.76-4.55-4.28-8.14-8.84-8.82l-7.84-1.08-.65-.1c-.97.08-1.84.66-2.29,1.56l-.06.04-2.22,4.5.04.02c-.58,1.17-.96,2.42-1.16,3.71l-.08.05-1.86,12.72c.12.2.23.42.33.64l-.03.02v.12l-.06.3-.06.48-.12.72-.12.78-.12.9-.12.9-.12.96-.18.9-.12.78-.06.66-.06.48-.06.36v.04h0c-.17.19-.35.38-.53.56l-1.2,8.04h.02c-.11.73-.11,1.48.02,2.21h-.04s1.01,5.95,1.01,5.95l1.31,7.74.24,1.44,2.95,17.42h.04c.79,4.74.37,9.6-1.23,14.14l-.06.06-26.1,73.86-.06.24-.12.3-.12.3-.06.24-.12.3-.12.3-.12.3-.06.3-.12.3-.12.24-.06.3-.12.3-.12.3-.06.24-.12.3-.12.3-.06.24-.12.3-.06.24-.12.24-.06.3-.12.24-.12.24-.06.3-.06.24-.12.24-.06.24-.12.24-.06.24-.06.18-.12.24-.06.24-.06.18-.06.18-.96,2.64-.12.48-.18.48-.06.24-.12.3-.06.3-.06.24-.06.3-.06.24-.06.3-.06.3-.06.3-.06.24v.3l-.06.3-.06.24v.3l-.06.3v.3l-.06.96-.9,11.58v.06l-.06.24v.48l-.06.24v.48l-.06.24v.54l-.06.24v.54l-.06.3v.54l-.06.3v.3l-.06.3v.54l-.06.3v.6l-.06.36v.3l-.06.3v.6l-.06.3v.3l-.06.36v.36l-3.71,47.3-.24,3.07-.55,7.02h.05c-.73,9.36,6.27,17.55,15.64,18.28,9.35.73,17.53-6.25,18.28-15.6h-.07s.68-8.65.68-8.65l.16-2.1.45-.46-.36-.35-.02-.02h0s.02-.25.02-.25l.67-8.55,2.72-34.77v-.06l.06-.3v-.66l.06-.3v-.3l.06-.3v-.6l.06-.3v-.3l.06-.3v-.6l.06-.3v-.3l.06-.3v-.54l.06-.3v-.54l.06-.24v-.54l.06-.24v-.54l.06-.24v-.42l.06-.24v-.3l.66-8.52.06-.96.06-.42.06-.42v-.36l.06-.42.06-.42.06-.36.06-.42.06-.36.12-.42.06-.42.12-.36.06-.42.12-.36.12-.42.12-.36.12-.36.12-.48.18-.48,1.26-3.66.06-.12.06-.24.12-.18.06-.24.06-.24.12-.18.06-.24.06-.24.12-.24.06-.24.12-.24.06-.24.12-.3.06-.24.12-.24.06-.3.12-.24.06-.3.12-.24.06-.3.12-.24.12-.3.06-.24.12-.3.12-.3.06-.3.12-.24.12-.3.06-.3.12-.3.12-.3.12-.24.06-.3.12-.3,7.16-20.24,2.24-6.35.08-.23.4-1.11,2.36-6.68,2.6-7.34,1.09-3.09.47-1.33,1.05-2.98,9.25-26.13v-.02c1.13-3.16,1.42-6.57.87-9.88Zm-56.16,183.06c-3.13,0-5.67-2.54-5.67-5.67s2.54-5.67,5.67-5.67,5.67,2.54,5.67,5.67-2.54,5.67-5.67,5.67ZM117.71,84.05c4.42,0,8.01,3.59,8.01,8.01s-3.59,8.01-8.01,8.01-8.01-3.59-8.01-8.01,3.59-8.01,8.01-8.01Zm7.98,117.79l.02.02v.03c.17,1.38,0,2.77-.46,4.04-.45,1.23-1.16,2.35-2.12,3.27.02.12.03.23.03.35.11,1.28-.06,2.54-.49,3.72-.45,1.22-1.17,2.34-2.14,3.27l.02.02v.03c.19,1.54-.04,3.07-.63,4.46-.45,1.07-1.11,2.05-1.97,2.87h-.04c.15,1.28.02,2.54-.35,3.71-.82,2.54-2.77,4.63-5.41,5.56-3.87,1.37-8.17-.15-10.33-3.65-2.15-3.47-1.6-7.96,1.32-10.81.02-.02.03-.03.05-.05h.04c-.33-2.71.62-5.41,2.58-7.3t.02-.02l-.02-.02c-.34-2.71.6-5.41,2.55-7.31.01-.01.02-.02.03-.03-.33-2.71.62-5.43,2.58-7.32l.02-.02-.02-.02c-.51-4.08,1.89-7.95,5.76-9.31,3.87-1.37,8.17.15,10.33,3.65,1.44,2.32,1.67,5.1.78,7.54-.44,1.23-1.16,2.37-2.15,3.32Zm5.48-70.23c-1.98,3.29-5.87,4.93-9.61,4.04h-.05c-2.17.94-4.64.96-6.83.07h0s-.04.02-.06.02c-3.71.93-7.59-.64-9.62-3.87-.68-1.09-1.11-2.28-1.28-3.49-.33-2.43.35-4.95,2-6.92,2.47-2.93,6.54-3.95,10.1-2.5h0c1.37-.37,2.82-.38,4.2-.05h.07c3.53-1.52,7.64-.59,10.17,2.31,1.08,1.24,1.77,2.72,2.04,4.26.37,2.06,0,4.24-1.13,6.13Z"/>
  <path class="cls-2" d="m122.04,123.43l-.04.04h-.03s.04-.03.07-.04Z"/>
  <path class="cls-3" d="m120.15,88.98c1.1.88,1.65,2.27,1.45,3.66-.01.06-.02.12-.04.18-.25,1.28-1.11,2.35-2.32,2.86-.01.01-.02.01-.03.01h-.03l-.03.03-.09.03h-.06l-.03.03s-.05.02-.08.03h-.01c-1.16.36-2.44.17-3.43-.54-.06-.04-.12-.08-.18-.13l-.21-.18c-.89-.82-1.36-2-1.27-3.2h0c0-.1.02-.19.03-.28,0-.01,0-.03.01-.04h.01v-.07c.24-1.33,1.14-2.44,2.39-2.95.01,0,.03,0,.04-.02,1.27-.5,2.71-.3,3.79.51.03.02.06.05.09.07Z"/>
  <path class="cls-3" d="m118.13,208.82c.51,1.3.29,2.78-.57,3.87h-.06v.06s-.03.04-.05.06c-.84.99-2.12,1.49-3.41,1.36-.05,0-.1,0-.15-.02-.04-.01-.07-.01-.11-.02s-.08-.01-.12-.03c-1.21-.25-2.22-1.05-2.74-2.17-.02-.01-.02-.03-.02-.04v-.04h-.02s-.05-.1-.07-.15l-.03-.09c-.46-1.24-.25-2.65.54-3.7l.02-.02h.04v-.06h.06v-.06c.87-1.07,2.24-1.6,3.61-1.4,1.39.21,2.56,1.14,3.08,2.45Z"/>
  <path class="cls-3" d="m103.49,103.59l-.03.02v.12l-.06.3-.06.48-.12.72-.12.78-.12.9-.12.9-.12.96-.18.9-.12.78-.06.66-.06.48-.06.36v.04h-.01c-.17.19-.35.38-.53.56-.49.46-1.04.86-1.63,1.18-.47.27-.97.48-1.5.64-.24.07-.48.13-.73.18h-.04v.04l-.66-.12h-.02l2.2-14.7.7.12h0c.22.11.43.24.64.38.46.31.89.66,1.27,1.07.47.47.88,1.02,1.21,1.61.12.2.23.42.33.64Z"/>
  <path class="cls-2" d="m102.84,136.49l.24,1.44-6.4-.96-1.44-.18-1.38-.24v-.06l.06-.3.06-.42.36-2.58.12-.6.06-.66.12-.72,2.5-16.74h.02l.66.12v-.04h.04c.25-.05.49-.11.73-.18.53-.16,1.03-.37,1.5-.64.59-.32,1.14-.72,1.63-1.18l-1.2,8.04h.02c-.11.73-.11,1.48.02,2.21h-.04s1.01,5.95,1.01,5.95l1.31,7.74Z"/>
  <polygon class="cls-2" points="102.62 77.69 102.62 77.81 102.56 78.05 102.5 78.53 102.08 81.05 102.02 81.65 101.9 82.31 101.84 83.03 99.34 99.77 97.14 114.47 94.64 131.21 94.52 131.93 94.46 132.59 94.34 133.19 93.98 135.77 93.92 136.19 93.86 136.49 93.86 136.55 89.66 135.94 86.85 135.53 87.38 132.05 87.44 131.45 87.56 130.85 87.62 130.19 94.82 82.01 94.88 81.35 95 80.69 95.06 80.15 95.59 76.67 95.6 76.67 98.42 77.08 102.62 77.69"/>
  <polygon class="cls-2" points="97.7 62.63 97.7 62.75 97.64 62.99 97.58 63.47 96.86 67.97 96.8 68.57 96.68 69.23 96.62 69.95 95.81 75.23 95.59 76.67 95.06 80.15 95 80.69 94.88 81.35 94.82 82.01 87.62 130.19 87.56 130.85 87.44 131.45 87.38 132.05 86.85 135.53 86.84 135.53 86.63 136.91 85.82 142.19 85.76 142.91 85.64 143.63 85.58 144.17 84.86 148.73 84.8 149.21 84.74 149.45 84.74 149.57 83.12 150.77 76.16 149.69 76.11 149.68 58.94 265.37 58.7 266.87 58.46 268.37 58.28 269.75 58.1 271.07 57.92 272.27 57.74 273.35 57.62 274.25 57.5 274.97 57.44 275.45 57.38 275.81 57.38 275.87 56.54 276.47 53.06 275.99 50.66 272.75 50.66 272.63 50.72 272.33 50.78 271.85 50.9 271.13 51.02 270.29 51.2 269.27 51.32 268.13 51.5 266.93 51.74 265.67 51.92 264.35 68.81 150.75 69.23 147.89 69.54 145.85 69.62 145.37 69.62 145.31 70.64 138.41 70.75 137.67 71.84 130.43 72.63 125.03 74.38 113.23 75.28 107.24 84.02 48.41 84.26 47.09 84.44 45.83 84.62 44.57 84.8 43.49 84.92 42.47 85.04 41.63 85.16 40.91 85.22 40.43 85.28 40.13 85.28 40.01 88.52 37.61 92 38.15 92.6 38.93 92.6 39.05 92.54 39.35 92.48 39.89 92.36 40.61 92.24 41.51 92.06 42.59 91.88 43.79 91.7 45.11 91.46 46.49 91.28 47.99 91.04 49.43 89.47 59.99 89.48 59.99 96.5 61.01 97.7 62.63"/>
  <circle class="cls-4" cx="84.29" cy="340.76" r="5.67"/>
</svg>