<?xml version="1.0" encoding="UTF-8"?>
<svg id="_0" data-name="0" xmlns="http://www.w3.org/2000/svg" viewBox="0 0 291.33 230.96">
  <defs>
    <style>
      .cls-1 {
        fill: #666;
      }

      .cls-1, .cls-2, .cls-3, .cls-4, .cls-5, .cls-6, .cls-7, .cls-8, .cls-9, .cls-10 {
        stroke-width: 0px;
      }

      .cls-2 {
        fill: #020202;
      }

      .cls-3 {
        fill: #363636;
      }

      .cls-4 {
        fill: #e6e6e6;
      }

      .cls-11 {
        fill: none;
        stroke: #3e3e3e;
        stroke-miterlimit: 10;
        stroke-width: .25px;
      }

      .cls-5 {
        fill: gray;
      }

      .cls-6 {
        fill: #c7c7c7;
      }

      .cls-7 {
        fill: #fff;
      }

      .cls-8 {
        fill: #616161;
      }

      .cls-9 {
        fill: #404040;
      }

      .cls-10 {
        fill: #555;
      }
    </style>
  </defs>
  <g id="LINE">
    <g>
      <g>
        <path class="cls-10" d="m291.09,229.59h0c-.01.15-.04.29-.09.42-.06.14-.14.26-.24.36-.11.11-.23.19-.36.24-.08.04-.15.06-.22.07-.04.01-.08.02-.11.02-.04,0-.08.01-.12.01H1.39s-.09-.01-.13-.01c-.07,0-.14-.03-.22-.05-.12-.04-.24-.1-.36-.19-.12-.1-.22-.21-.29-.34-.04-.08-.08-.16-.1-.25s-.04-.18-.04-.27H.25v-16.39c0-2.48.99-4.86,2.74-6.61l16.52-16.52c1.76-1.76,4.14-2.74,6.62-2.74h8.99c2.66,0,4.82-2.16,4.82-4.82V30.14c0-3.24,1.28-6.34,3.57-8.62L61.2,3.82c2.29-2.28,5.39-3.57,8.62-3.57h151.7c3.23,0,6.33,1.29,8.62,3.57l17.69,17.7c2.29,2.28,3.57,5.38,3.57,8.62v152.38c0,2.66,2.16,4.82,4.82,4.82h8.99c2.48,0,4.86.98,6.62,2.74l16.52,16.52c1.75,1.75,2.74,4.13,2.74,6.61v16.38Zm-6.78-.7v-15.68c0-.68-.27-1.34-.75-1.82l-16.52-16.52c-.49-.49-1.14-.76-1.83-.76h-8.99c-6.4,0-11.59-5.19-11.59-11.59V39.85c.14-.43.27-.87.4-1.31,1.47-1.37,2.53-3.13,3.05-5.07.23-1.09.32-2.21.26-3.33-.08-2.41-1.03-4.7-2.67-6.46-.75-.83-1.61-1.56-2.55-2.17-1.74-1-3.73-1.5-5.74-1.42-.4-.23-.8-.44-1.2-.65l-10.83-10.83c-1.02-1.01-2.4-1.59-3.83-1.59H69.82c-1.43,0-2.81.58-3.83,1.59l-10.83,10.83c-.4.21-.8.42-1.2.65-2.01-.08-4,.42-5.74,1.42-.94.61-1.8,1.34-2.55,2.17-1.64,1.76-2.59,4.05-2.67,6.46-.06,1.12.03,2.24.26,3.33.52,1.94,1.58,3.7,3.05,5.07.13.44.26.88.4,1.31v142.67c0,6.4-5.19,11.59-11.59,11.59h-8.99c-.69,0-1.34.27-1.83.76l-16.52,16.52c-.48.48-.75,1.14-.75,1.82v15.68c0,.61.46,1.12,1.01,1.13h275.26c.55-.01,1-.52,1.01-1.13Z"/>
        <path class="cls-1" d="m284.31,213.21v15.68c-.01.61-.46,1.12-1.01,1.13H8.04c-.55-.01-1-.52-1.01-1.13v-15.68c0-.68.27-1.34.75-1.82l16.52-16.52c.49-.49,1.14-.76,1.83-.76h8.99c6.4,0,11.59-5.19,11.59-11.59V39.85c-.14-.43-.27-.87-.4-1.31-1.47-1.37-2.53-3.13-3.05-5.07-.23-1.09-.32-2.21-.26-3.33.08-2.41,1.03-4.7,2.67-6.46.75-.83,1.61-1.56,2.55-2.17,1.74-1,3.73-1.5,5.74-1.42.4-.23.8-.44,1.2-.65l10.83-10.83c1.02-1.01,2.4-1.59,3.83-1.59h151.7c1.43,0,2.81.58,3.83,1.59l10.83,10.83c.4.21.8.42,1.2.65,2.01-.08,4,.42,5.74,1.42.94.61,1.8,1.34,2.55,2.17,1.64,1.76,2.59,4.05,2.67,6.46.06,1.12-.03,2.24-.26,3.33-.52,1.94-1.58,3.7-3.05,5.07-.13.44-.26.88-.4,1.31v142.67c0,6.4,5.19,11.59,11.59,11.59h8.99c.69,0,1.34.27,1.83.76l16.52,16.52c.48.48.75,1.14.75,1.82Zm-1.01,15.68v-15.68c0-.41-.17-.81-.46-1.1l-16.52-16.53c-.29-.29-.69-.45-1.11-.45h-8.99c-2.61,0-5.03-.79-7.05-2.15-3.35-2.27-5.56-6.11-5.56-10.46V39.76h-.04s-.05.02-.07.03c-.01,0-.02.01-.03.01-1.01.63-2.11,1.09-3.27,1.36-5.76,1.32-11.51-2.27-12.84-8.03-1.32-5.76,2.27-11.51,8.03-12.84.01,0,.02,0,.03-.01.03,0,.05-.02.07-.03l.03-.03-10.89-10.89c-.83-.83-1.94-1.29-3.11-1.29H69.82c-1.17,0-2.28.46-3.11,1.29l-10.89,10.89.03.03s.04.02.07.03c.01.01.02.01.03.01,1.16.27,2.26.73,3.27,1.36,5.01,3.13,6.54,9.74,3.4,14.75-3.13,5.01-9.74,6.54-14.75,3.4,0,0-.02-.01-.03-.01-.02-.01-.05-.02-.07-.03h-.04v142.76c0,4.78-2.67,8.95-6.6,11.09-1.79.97-3.84,1.52-6.01,1.52h-8.99c-.42,0-.82.16-1.11.45l-16.52,16.53c-.29.29-.46.69-.46,1.1v15.68h275.26Zm-37.32-195.74c.25-.96.35-1.96.29-2.95-.09-1.89-.84-3.69-2.11-5.1-.66-.74-1.44-1.38-2.29-1.88h0c-1.55-.9-3.33-1.35-5.13-1.29-4.86.59-8.32,5.01-7.73,9.86.59,4.86,5.01,8.32,9.87,7.73,1.6-.2,3.12-.83,4.39-1.82,1.31-1.23,2.26-2.81,2.72-4.55Zm-185.46,3.03c3.01-3.85,2.34-9.41-1.52-12.43-1.27-1-2.78-1.62-4.39-1.82-1.8-.06-3.58.39-5.13,1.29h-.01c-.85.5-1.63,1.14-2.29,1.88-1.27,1.41-2.02,3.21-2.11,5.1-.06.99.04,1.99.29,2.95.46,1.74,1.41,3.32,2.72,4.55,3.86,3.01,9.42,2.34,12.44-1.52Z"/>
        <path class="cls-3" d="m283.3,213.21v15.68H8.04v-15.68c0-.41.17-.81.46-1.1l16.52-16.53c.29-.29.69-.45,1.11-.45h8.99c2.17,0,4.22-.55,6.01-1.52l3.18.17c-2.62,1.96-4.31,5.07-4.31,8.58,0,5.91,4.8,10.71,10.71,10.71s10.71-4.8,10.71-10.71c0-3.51-1.69-6.62-4.31-8.58l1.27-1.82,24.93,17.46c2.03,1.42,4.45,2.18,6.93,2.18h110.86c2.48,0,4.9-.76,6.93-2.18l24.93-17.46,1.27,1.82c-2.62,1.96-4.31,5.07-4.31,8.58,0,5.91,4.8,10.71,10.71,10.71s10.71-4.8,10.71-10.71c0-3.88-2.07-7.27-5.16-9.15l2.99-.23c2.02,1.36,4.44,2.15,7.05,2.15h8.99c.42,0,.82.16,1.11.45l16.52,16.53c.29.29.46.69.46,1.1Z"/>
        <path class="cls-3" d="m249.17,192.98l-2.99.23c-1.62-.98-3.51-1.55-5.55-1.55-2.4,0-4.62.79-6.4,2.12l-1.27-1.82,1.84-1.29c3.23-2.26,5.15-5.95,5.15-9.89v-49.99c0-4.31-2.3-8.3-6.04-10.46l-28.24-16.3c-1.83-1.06-3.91-1.62-6.03-1.62h-107.94c-2.12,0-4.2.56-6.03,1.62l-28.24,16.3c-3.74,2.16-6.04,6.15-6.04,10.46v49.99c0,3.94,1.92,7.63,5.15,9.89l1.84,1.29-1.27,1.82c-1.78-1.33-4-2.12-6.4-2.12s-4.62.79-6.4,2.12l-3.18-.17c3.93-2.14,6.6-6.31,6.6-11.09V39.76h.04s.05.02.07.03c.01,0,.02.01.03.01,5.01,3.14,11.62,1.61,14.75-3.4,3.14-5.01,1.61-11.62-3.4-14.75-1.01-.63-2.11-1.09-3.27-1.36,0,0-.02,0-.03-.01-.03,0-.05-.02-.07-.03l-.03-.03,10.89-10.89c.83-.83,1.94-1.29,3.11-1.29h151.7c1.17,0,2.28.46,3.11,1.29l10.89,10.89-.03.03s-.04.02-.07.03c-.01.01-.02.01-.03.01-5.76,1.33-9.35,7.08-8.03,12.84,1.33,5.76,7.08,9.35,12.84,8.03,1.16-.27,2.26-.73,3.27-1.36.01,0,.02-.01.03-.01.02-.01.05-.02.07-.03h.04v142.76c0,4.35,2.21,8.19,5.56,10.46ZM163.82,50.71v-.61h-1.91v-1.02h1.1v-.58h-1.1v-.95h1.88v-.61h-2.61v3.77h2.64Zm-4.4,46.77v-.41l-1.33-1.86c.21-.04.39-.1.56-.2.29-.16.57-.44.57-.93v-1.05c0-.74-.48-1.22-1.38-1.22h-2.67v5.67h.89v-2.19h1.13l1.38,2.19h.85Zm-.22-47.12v-1.04c0-.18-.06-.26-.2-.34l-.4-.22.38-.22c.14-.08.19-.17.19-.34v-.91c0-.22-.13-.35-.34-.35h-2.55v3.77h2.57c.22,0,.35-.13.35-.35Zm-4-12.68l-1.05-10.67-8.05-4.65v5.6h-.86v-5.6l-8.05,4.65-1.05,10.67,9.1,4.94h.86l9.1-4.94Zm3.15,37.12c0-7-5.68-12.68-12.68-12.68s-12.68,5.68-12.68,12.68,5.68,12.68,12.68,12.68,12.68-5.67,12.68-12.68Zm-4.06-24.44v-3.42h-.73v3.16h-1.52v-3.16h-.73v3.42c0,.22.13.35.35.35h2.29c.21,0,.34-.13.34-.35Zm-.13,47.12v-.65h-2.87v-1.86h2.15v-.65h-2.15v-1.86h2.63l.24-.28v-.37h-3.76v5.67h3.76Zm-4.81-5.26v-.41h-.85l-.93,4.78h-.04l-1.13-3.89h-1.17l-1.14,3.89h-.04l-.93-4.78h-.85v.41l1.13,5.26h1.22l1.17-3.93h.04l1.18,3.93h1.21l1.13-5.26Zm-.06-41.53v-.74h-1.68l-.49-1.17.49-1.16h1.66v-.74h-2.14l-.82,1.9.82,1.91h2.16Zm-4.66-.33v-3.42h-.73v3.16h-1.52v-3.16h-.72v3.42c0,.22.12.35.34.35h2.29c.21,0,.34-.13.34-.35Zm-3.32,45.99v-3.4c0-.74-.48-1.22-1.38-1.22h-1.46c-.9,0-1.38.48-1.38,1.22v3.4c0,.73.48,1.21,1.38,1.21h1.46c.9,0,1.38-.48,1.38-1.21Zm-1.64-45.64v-3.77h-.74l-1.03,2.3-1.04-2.3h-.74v3.77h.71v-2.04l.79,1.65h.55l.79-1.65v2.04h.71Zm-3.7,43.69v-1.37c0-.74-.48-1.22-1.38-1.22h-2.67v5.67h.89v-1.86h1.78c.9,0,1.38-.48,1.38-1.22Zm-1.96-43.69v-3.77h-.73v3.77h.73Zm-2.83-.35v-.98c0-.16-.05-.25-.18-.32l-1.93-.98v-.57h1.38v.51l.73.26v-1c0-.21-.13-.34-.34-.34h-2.15c-.21,0-.34.13-.34.35v.9c0,.16.04.25.17.32l1.93.99v.64h-1.38v-.59l-.72-.29v1.1c0,.22.13.35.34.35h2.15c.21,0,.34-.13.34-.35Z"/>
        <path class="cls-8" d="m246.18,193.21c3.09,1.88,5.16,5.27,5.16,9.15,0,5.91-4.8,10.71-10.71,10.71s-10.71-4.8-10.71-10.71c0-3.51,1.69-6.62,4.31-8.58,1.78-1.33,4-2.12,6.4-2.12,2.04,0,3.93.57,5.55,1.55Zm2.98,9.15c0-4.71-3.82-8.53-8.53-8.53s-8.53,3.82-8.53,8.53,3.82,8.53,8.53,8.53,8.53-3.82,8.53-8.53Z"/>
        <path class="cls-2" d="m240.63,193.83c4.71,0,8.53,3.82,8.53,8.53s-3.82,8.53-8.53,8.53-8.53-3.82-8.53-8.53,3.82-8.53,8.53-8.53Zm7.8,8.53c0-4.3-3.49-7.79-7.8-7.79s-7.79,3.49-7.79,7.79,3.49,7.8,7.79,7.8,7.8-3.49,7.8-7.8Z"/>
        <path class="cls-9" d="m240.63,194.57c4.31,0,7.8,3.49,7.8,7.79s-3.49,7.8-7.8,7.8-7.79-3.49-7.79-7.8,3.49-7.79,7.79-7.79Zm7.37,7.79c0-4.07-3.3-7.37-7.37-7.37s-7.37,3.3-7.37,7.37,3.3,7.37,7.37,7.37,7.37-3.3,7.37-7.37Z"/>
        <path class="cls-1" d="m240.63,194.99c4.07,0,7.37,3.3,7.37,7.37s-3.3,7.37-7.37,7.37-7.37-3.3-7.37-7.37,3.3-7.37,7.37-7.37Zm4.4,7.37c0-2.43-1.97-4.4-4.4-4.4s-4.4,1.97-4.4,4.4,1.97,4.4,4.4,4.4,4.4-1.97,4.4-4.4Z"/>
        <path class="cls-2" d="m246.27,30.2c.06.99-.04,1.99-.29,2.95-.46,1.74-1.41,3.32-2.72,4.55-1.27.99-2.79,1.62-4.39,1.82-4.86.59-9.28-2.87-9.87-7.73-.59-4.85,2.87-9.27,7.73-9.86,1.8-.06,3.58.39,5.13,1.29h0c.85.5,1.63,1.14,2.29,1.88,1.27,1.41,2.02,3.21,2.11,5.1Zm-.68.52c0-4.3-3.49-7.79-7.79-7.79s-7.8,3.49-7.8,7.79,3.49,7.8,7.8,7.8,7.79-3.49,7.79-7.8Z"/>
        <polygon class="cls-9" points="244.17 200.32 244.17 204.41 240.63 206.45 237.09 204.41 237.09 200.32 240.63 198.27 244.17 200.32"/>
        <path class="cls-10" d="m240.63,197.96c2.43,0,4.4,1.97,4.4,4.4s-1.97,4.4-4.4,4.4-4.4-1.97-4.4-4.4,1.97-4.4,4.4-4.4Zm3.54,6.45v-4.09l-3.54-2.05-3.54,2.05v4.09l3.54,2.04,3.54-2.04Z"/>
        <path class="cls-9" d="m237.8,22.93c4.3,0,7.79,3.49,7.79,7.79s-3.49,7.8-7.79,7.8-7.8-3.49-7.8-7.8,3.49-7.79,7.8-7.79Zm7.37,7.79c0-4.07-3.3-7.37-7.37-7.37s-7.37,3.3-7.37,7.37,3.3,7.37,7.37,7.37,7.37-3.3,7.37-7.37Z"/>
        <path class="cls-1" d="m237.8,23.35c4.07,0,7.37,3.3,7.37,7.37s-3.3,7.37-7.37,7.37-7.37-3.3-7.37-7.37,3.3-7.37,7.37-7.37Zm4.39,7.37c0-2.43-1.96-4.39-4.39-4.39s-4.4,1.96-4.4,4.39,1.97,4.4,4.4,4.4,4.39-1.97,4.39-4.4Z"/>
        <polygon class="cls-9" points="241.34 28.68 241.34 32.77 237.8 34.82 234.25 32.77 234.25 28.68 237.8 26.63 241.34 28.68"/>
        <path class="cls-10" d="m237.8,26.33c2.43,0,4.39,1.96,4.39,4.39s-1.96,4.4-4.39,4.4-4.4-1.97-4.4-4.4,1.97-4.39,4.4-4.39Zm3.54,6.44v-4.09l-3.54-2.05-3.55,2.05v4.09l3.55,2.05,3.54-2.05Z"/>
        <path class="cls-1" d="m239.95,130.79v49.99c0,3.94-1.92,7.63-5.15,9.89l-1.84,1.29-24.93,17.46c-2.03,1.42-4.45,2.18-6.93,2.18h-110.86c-2.48,0-4.9-.76-6.93-2.18l-24.93-17.46-1.84-1.29c-3.23-2.26-5.15-5.95-5.15-9.89v-49.99c0-4.31,2.3-8.3,6.04-10.46l28.24-16.3c1.83-1.06,3.91-1.62,6.03-1.62h107.94c2.12,0,4.2.56,6.03,1.62l28.24,16.3c3.74,2.16,6.04,6.15,6.04,10.46Zm-1.33,49.99v-49.99c0-3.84-2.05-7.38-5.37-9.3l-28.24-16.31c-1.64-.94-3.49-1.44-5.37-1.44h-107.94c-1.88,0-3.73.5-5.37,1.44l-28.24,16.31c-3.32,1.92-5.37,5.46-5.37,9.3v49.99c0,3.5,1.71,6.79,4.58,8.8l26.78,18.75c1.8,1.26,3.96,1.94,6.16,1.94h110.86c2.2,0,4.36-.68,6.16-1.94l26.78-18.75c2.87-2.01,4.58-5.3,4.58-8.8Z"/>
        <path class="cls-10" d="m238.62,130.79v49.99c0,3.5-1.71,6.79-4.58,8.8l-26.78,18.75c-1.8,1.26-3.96,1.94-6.16,1.94h-110.86c-2.2,0-4.36-.68-6.16-1.94l-26.78-18.75c-2.87-2.01-4.58-5.3-4.58-8.8v-49.99c0-3.84,2.05-7.38,5.37-9.3l28.24-16.31c1.64-.94,3.49-1.44,5.37-1.44h107.94c1.88,0,3.73.5,5.37,1.44l28.24,16.31c3.32,1.92,5.37,5.46,5.37,9.3Zm-1.9,49.99v-49.99c0-3.16-1.69-6.08-4.42-7.66l-28.24-16.3c-1.35-.78-2.87-1.19-4.42-1.19h-107.94c-1.55,0-3.07.41-4.42,1.19l-28.24,16.3c-2.73,1.58-4.42,4.5-4.42,7.66v49.99c0,2.88,1.41,5.59,3.77,7.24l26.78,18.75c1.49,1.04,3.26,1.6,5.07,1.6h110.86c1.81,0,3.58-.56,5.07-1.6l26.78-18.75c2.36-1.65,3.77-4.36,3.77-7.24Z"/>
        <path class="cls-1" d="m236.72,130.79v49.99c0,2.88-1.41,5.59-3.77,7.24l-26.78,18.75c-1.49,1.04-3.26,1.6-5.07,1.6h-110.86c-1.81,0-3.58-.56-5.07-1.6l-26.78-18.75c-2.36-1.65-3.77-4.36-3.77-7.24v-49.99c0-3.16,1.69-6.08,4.42-7.66l28.24-16.3c1.35-.78,2.87-1.19,4.42-1.19h107.94c1.55,0,3.07.41,4.42,1.19l28.24,16.3c2.73,1.58,4.42,4.5,4.42,7.66Zm-1.33,49.99v-49.99c0-2.68-1.44-5.16-3.76-6.5l-6.06-3.5-22.18-12.81c-1.14-.66-2.44-1-3.75-1h-107.94c-1.31,0-2.61.34-3.75,1l-17.36,10.03-10.88,6.28c-2.32,1.34-3.76,3.82-3.76,6.5v49.99c0,2.45,1.2,4.75,3.21,6.15l26.77,18.75c1.27.88,2.77,1.36,4.31,1.36h110.86c1.54,0,3.04-.48,4.31-1.36l26.77-18.75c2.01-1.4,3.21-3.7,3.21-6.15Z"/>
        <path class="cls-3" d="m235.39,178.59v2.19c0,2.45-1.2,4.75-3.21,6.15l-26.77,18.75c-1.27.88-2.77,1.36-4.31,1.36h-110.86c-1.54,0-3.04-.48-4.31-1.36l-26.77-18.75c-2.01-1.4-3.21-3.7-3.21-6.15v-2.19h4.65c0,1.25,1.01,2.26,2.26,2.26h69.24c1.25,0,2.27-1.01,2.27-2.26h2.06v.99c0,1.25,1.01,2.26,2.26,2.26h46c1.25,0,2.26-1.01,2.26-2.26v-.99h1.81c0,1.25,1.01,2.26,2.27,2.26h40.32c1.25,0,2.26-1.01,2.26-2.26h1.78Zm-70.13,7.61c0-2.21-1.79-4-4-4s-4,1.79-4,4,1.79,4.01,4,4.01,4-1.8,4-4.01Z"/>
        <path class="cls-3" d="m235.39,130.79v47.8h-1.78v-28.14c0-1.25-1.01-2.26-2.26-2.26h-11.34c-.31,0-.57-.26-.57-.57v-12.76c0-1.25-1.01-2.26-2.26-2.26h-11.73v-3.86c.9,0,1.37-.48,1.37-1.21v-3.4c0-.09-.01-.18-.02-.26l1.04-.22,1.08,5.01h1.22l1.17-3.93h.04l1.18,3.93h1.21l1.13-5.26h1.05v5.26h5.66v-2.18h1.13l1.38,2.18h.85v-.4l-1.34-1.87c.21-.04.4-.1.57-.2.28-.16.57-.44.57-.93v-1.05c0-.46-.19-.82-.55-1.03l1.38-2.39,6.06,3.5c2.32,1.34,3.76,3.82,3.76,6.5Z"/>
        <path class="cls-1" d="m233.61,150.45v28.14c0,1.25-1.01,2.26-2.26,2.26h-40.32c-1.26,0-2.27-1.01-2.27-2.26v-28.14c0-1.25,1.01-2.26,2.27-2.26h11.34c.31,0,.56-.26.56-.57v-12.76c0-1.25,1.02-2.26,2.27-2.26h11.98c1.25,0,2.26,1.01,2.26,2.26v12.76c0,.31.26.57.57.57h11.34c1.25,0,2.26,1.01,2.26,2.26Zm-1.16,27.82v-27.5c0-.78-.64-1.42-1.42-1.42h-11.34c-.78,0-1.42-.63-1.42-1.41v-12.76c0-.78-.63-1.42-1.41-1.42h-11.34c-.79,0-1.42.64-1.42,1.42v12.76c0,.78-.63,1.41-1.42,1.41h-11.34c-.78,0-1.41.64-1.41,1.42v27.5c0,.78.63,1.41,1.41,1.41h39.69c.78,0,1.42-.63,1.42-1.41Z"/>
        <path class="cls-2" d="m232.45,150.77v27.5c0,.78-.64,1.41-1.42,1.41h-39.69c-.78,0-1.41-.63-1.41-1.41v-27.5c0-.78.63-1.42,1.41-1.42h11.34c.79,0,1.42-.63,1.42-1.41v-12.76c0-.78.63-1.42,1.42-1.42h11.34c.78,0,1.41.64,1.41,1.42v12.76c0,.78.64,1.41,1.42,1.41h11.34c.78,0,1.42.64,1.42,1.42Zm-1.7,26.56v-25.51c0-.47-.39-.85-.85-.85h-13.89v-3.97h-9.64v3.97h-13.89c-.47,0-.85.38-.85.85v25.51c0,.47.38.86.85.86h37.42c.46,0,.85-.39.85-.86Z"/>
        <path class="cls-7" d="m230.75,151.82v25.51c0,.47-.39.86-.85.86h-37.42c-.47,0-.85-.39-.85-.86v-25.51c0-.47.38-.85.85-.85h37.42c.46,0,.85.38.85.85Zm-2.27,23.53v-10.77h-10.77v10.77h10.77Zm0-14.6v-8.08h-10.77v8.08l2.69,2.7h5.38l2.7-2.7Zm-11.91,11.91v-8.08h-10.77v8.08l2.69,2.69h5.39l2.69-2.69Zm0-9.21v-10.78h-10.77v10.78h10.77Zm-11.9,9.21v-8.08h-10.77v8.08l2.69,2.69h5.38l2.7-2.69Zm0-9.21v-10.78h-10.77v10.78h10.77Z"/>
        <path class="cls-4" d="m228.48,164.58v10.77h-10.77v-10.77h10.77Zm-3.87,6.9v-3.03h-3.03v3.03h3.03Z"/>
        <path class="cls-4" d="m228.48,152.67v8.08l-2.7,2.7h-5.38l-2.69-2.7v-8.08h10.77Zm-3.87,6.91v-3.04h-3.03v3.04h3.03Z"/>
        <path class="cls-3" d="m225.57,120.79l-1.38,2.39c-.21-.12-.49-.19-.83-.19h-2.67v5.67h-1.01v-.65h-2.87v-1.86h2.14v-.65h-2.14v-1.86h2.63l.24-.28v-.37h-3.76v.41h-1.05v-.41h-.85l-.93,4.78h-.04l-1.13-3.89h-1.18l-1.17,3.89-.93-4.78h-.85v.41l.05.25-1.04.22c-.1-.59-.56-.96-1.35-.96h-1.46c-.9,0-1.38.48-1.38,1.22v3.4c0,.73.48,1.21,1.38,1.21h1.46v3.86h-.25c-1.25,0-2.27,1.01-2.27,2.26v12.76c0,.31-.25.57-.56.57h-11.34c-1.26,0-2.27,1.01-2.27,2.26v28.14h-1.81v-37.63c0-1.26-1.01-2.27-2.26-2.27h-46c-1.25,0-2.26,1.01-2.26,2.27v37.63h-2.06v-35.22c0-1.26-1.02-2.27-2.27-2.27h-19.53v-2.52h3.84v-.65h-2.71v-.04l2.02-2.1c.12-.11.24-.25.34-.4.17-.23.35-.54.35-.86v-.4c0-.74-.48-1.22-1.37-1.22v-4.25h1.41v-.65h-2.79v-5.02h-.89v5.67h-.97v-.4l-1.82-5.27h-1.17l-1.83,5.27-.89-.31c.06-.15.09-.32.09-.5v-3.24c0-.74-.48-1.22-1.38-1.22h-2.75v5.67h-1.01v-.65h-2.87v-1.86h2.15v-.65h-2.15v-1.86h2.63l.24-.28v-.37h-3.76v2.59h-1.21v-1.37c0-.74-.48-1.22-1.38-1.22h-2.67v5.67h-2.56v-.65h-.89v.65h-2.53v-5.02h1.96v-.65h-4.81v.37h-.57v-.37h-.84l-1.57,2.09-1.57-2.09h-.84v.37l1.85,2.47-1.85,2.47v.36h-.57v-.65h-2.87v-1.86h2.14v-.65h-2.14v-1.86h2.63l.24-.28v-.37h-3.76l-2.88-4.98,17.36-10.03c1.14-.66,2.44-1,3.75-1h107.94c1.31,0,2.61.34,3.75,1l22.18,12.81Zm-24.09,4.79v-1.37c0-.74-.47-1.22-1.37-1.22h-2.67v5.67h.89v-1.86h1.78c.9,0,1.37-.48,1.37-1.22Zm-24.68,3.08v-.4l-1.54-2.47,1.37-2.39v-.41h-.85l-1.25,2.47h-1.09v-2.47h-.9v5.67h.9v-2.55h1.09l1.42,2.55h.85Zm-5.71,0v-5.67h-.89v3l.12,1.38h-.04l-2.34-4.38h-.98v5.67h.89v-3l-.12-1.37h.04l2.35,4.37h.97Zm-5.58,0v-5.67h-.89v5.67h.89Zm-1.69,0v-.65h-2.8v-5.02h-.89v5.67h3.69Zm-4.74-2.27v-.64h-3.32v.64h3.32Zm-3.64,2.27v-.65h-2.38c-.33,0-.57-.24-.57-.56v-3.24c0-.33.24-.57.57-.57h2.14l.24-.28v-.37h-2.47c-.89,0-1.37.48-1.37,1.22v3.24c0,.73.48,1.21,1.37,1.21h2.47Zm-4.89-1.21v-.57c0-.69-.4-1.1-1.05-1.26l-1.54-.36c-.28-.06-.49-.28-.49-.57v-.48c0-.33.25-.57.57-.57h2.03l.24-.28v-.37h-2.35c-.9,0-1.38.48-1.38,1.22v.48c0,.69.41,1.1,1.06,1.26l1.54.36c.28.07.48.29.48.57v.57c0,.32-.24.56-.57.56h-2.51v.65h2.6c.89,0,1.37-.48,1.37-1.21Zm-29.06,0v-.57c0-.69-.4-1.1-1.05-1.26l-1.54-.36c-.28-.06-.48-.28-.48-.57v-.48c0-.33.24-.57.56-.57h2.03l.24-.28v-.37h-2.35c-.9,0-1.37.48-1.37,1.22v.48c0,.69.4,1.1,1.05,1.26l1.54.36c.28.07.48.29.48.57v.57c0,.32-.24.56-.56.56h-2.51v.65h2.59c.9,0,1.37-.48,1.37-1.21Z"/>
        <path class="cls-7" d="m224.94,128.26v.4h-.85l-1.38-2.18h-1.13v2.18h-.89v-5.67h2.67c.34,0,.62.07.83.19.36.21.55.57.55,1.03v1.05c0,.49-.29.77-.57.93-.17.1-.36.16-.57.2l1.34,1.87Zm-1.09-3v-1.05c0-.33-.25-.57-.57-.57h-1.7v2.19h1.7c.31,0,.57-.26.57-.57Z"/>
        <polygon class="cls-5" points="224.61 168.45 224.61 171.48 223.56 170.43 223.56 169.5 224.61 168.45"/>
        <polygon class="cls-5" points="224.61 156.54 224.61 159.58 223.56 158.53 223.56 157.59 224.61 156.54"/>
        <polygon class="cls-5" points="224.61 156.54 223.56 157.59 222.62 157.59 221.58 156.54 224.61 156.54"/>
        <polygon class="cls-5" points="224.61 168.45 223.56 169.5 222.62 169.5 221.58 168.45 224.61 168.45"/>
        <polygon class="cls-5" points="224.61 159.58 221.58 159.58 222.62 158.53 223.56 158.53 224.61 159.58"/>
        <polygon class="cls-5" points="224.61 171.48 221.58 171.48 222.62 170.43 223.56 170.43 224.61 171.48"/>
        <path class="cls-3" d="m223.85,124.21v1.05c0,.31-.26.57-.57.57h-1.7v-2.19h1.7c.32,0,.57.24.57.57Z"/>
        <rect class="cls-5" x="222.62" y="169.5" width=".94" height=".93"/>
        <rect class="cls-5" x="222.62" y="157.59" width=".94" height=".94"/>
        <polygon class="cls-5" points="222.62 169.5 222.62 170.43 221.58 171.48 221.58 168.45 222.62 169.5"/>
        <polygon class="cls-5" points="222.62 157.59 222.62 158.53 221.58 159.58 221.58 156.54 222.62 157.59"/>
        <polygon class="cls-7" points="219.68 128.01 219.68 128.66 215.92 128.66 215.92 123.4 215.92 122.99 219.68 122.99 219.68 123.36 219.44 123.64 216.81 123.64 216.81 125.5 218.95 125.5 218.95 126.15 216.81 126.15 216.81 128.01 219.68 128.01"/>
        <path class="cls-4" d="m216.57,164.58v8.08l-2.69,2.69h-5.39l-2.69-2.69v-8.08h10.77Zm-3.87,6.9v-3.03h-3.03v3.03h3.03Z"/>
        <path class="cls-4" d="m216.57,152.67v10.78h-10.77v-10.78h10.77Zm-3.87,6.91v-3.04h-3.03v3.04h3.03Z"/>
        <rect class="cls-7" x="206.37" y="147" width="9.64" height="3.97"/>
        <polygon class="cls-7" points="214.87 122.99 214.87 123.4 213.74 128.66 212.53 128.66 211.35 124.73 211.31 124.73 210.14 128.66 208.92 128.66 207.84 123.65 207.79 123.4 207.79 122.99 208.64 122.99 209.57 127.77 210.74 123.88 211.92 123.88 213.05 127.77 213.09 127.77 214.02 122.99 214.87 122.99"/>
        <polygon class="cls-5" points="212.7 168.45 212.7 171.48 211.65 170.43 211.65 169.5 212.7 168.45"/>
        <polygon class="cls-5" points="212.7 156.54 212.7 159.58 211.65 158.53 211.65 157.59 212.7 156.54"/>
        <polygon class="cls-5" points="212.7 156.54 211.65 157.59 210.72 157.59 209.67 156.54 212.7 156.54"/>
        <polygon class="cls-5" points="212.7 168.45 211.65 169.5 210.72 169.5 209.67 168.45 212.7 168.45"/>
        <polygon class="cls-5" points="212.7 159.58 209.67 159.58 210.72 158.53 211.65 158.53 212.7 159.58"/>
        <polygon class="cls-5" points="212.7 171.48 209.67 171.48 210.72 170.43 211.65 170.43 212.7 171.48"/>
        <rect class="cls-5" x="210.72" y="169.5" width=".93" height=".93"/>
        <rect class="cls-5" x="210.72" y="157.59" width=".93" height=".94"/>
        <polygon class="cls-5" points="210.72 169.5 210.72 170.43 209.67 171.48 209.67 168.45 210.72 169.5"/>
        <polygon class="cls-5" points="210.72 157.59 210.72 158.53 209.67 159.58 209.67 156.54 210.72 157.59"/>
        <path class="cls-7" d="m206.82,124.13v3.4c0,.73-.47,1.21-1.37,1.21h-1.46c-.9,0-1.38-.48-1.38-1.21v-3.4c0-.74.48-1.22,1.38-1.22h1.46c.79,0,1.25.37,1.35.96.01.08.02.17.02.26Zm-.89,3.4v-3.4c0-.33-.24-.57-.57-.57h-1.29c-.32,0-.57.24-.57.57v3.4c0,.32.25.56.57.56h1.29c.33,0,.57-.24.57-.56Z"/>
        <path class="cls-3" d="m205.93,124.13v3.4c0,.32-.24.56-.57.56h-1.29c-.32,0-.57-.24-.57-.56v-3.4c0-.33.25-.57.57-.57h1.29c.33,0,.57.24.57.57Z"/>
        <path class="cls-4" d="m204.67,164.58v8.08l-2.7,2.69h-5.38l-2.69-2.69v-8.08h10.77Zm-3.87,6.9v-3.03h-3.04v3.03h3.04Z"/>
        <path class="cls-4" d="m204.67,152.67v10.78h-10.77v-10.78h10.77Zm-3.87,6.91v-3.04h-3.04v3.04h3.04Z"/>
        <path class="cls-7" d="m201.48,124.21v1.37c0,.74-.47,1.22-1.37,1.22h-1.78v1.86h-.89v-5.67h2.67c.9,0,1.37.48,1.37,1.22Zm-.89,1.37v-1.37c0-.33-.24-.57-.56-.57h-1.7v2.51h1.7c.32,0,.56-.24.56-.57Z"/>
        <polygon class="cls-5" points="200.8 168.45 200.8 171.48 199.75 170.43 199.75 169.5 200.8 168.45"/>
        <polygon class="cls-5" points="200.8 156.54 200.8 159.58 199.75 158.53 199.75 157.59 200.8 156.54"/>
        <polygon class="cls-5" points="200.8 156.54 199.75 157.59 198.81 157.59 197.76 156.54 200.8 156.54"/>
        <polygon class="cls-5" points="200.8 168.45 199.75 169.5 198.81 169.5 197.76 168.45 200.8 168.45"/>
        <polygon class="cls-5" points="200.8 159.58 197.76 159.58 198.81 158.53 199.75 158.53 200.8 159.58"/>
        <polygon class="cls-5" points="200.8 171.48 197.76 171.48 198.81 170.43 199.75 170.43 200.8 171.48"/>
        <path class="cls-3" d="m200.59,124.21v1.37c0,.33-.24.57-.56.57h-1.7v-2.51h1.7c.32,0,.56.24.56.57Z"/>
        <rect class="cls-5" x="198.81" y="169.5" width=".94" height=".93"/>
        <rect class="cls-5" x="198.81" y="157.59" width=".94" height=".94"/>
        <polygon class="cls-5" points="198.81 169.5 198.81 170.43 197.76 171.48 197.76 168.45 198.81 169.5"/>
        <polygon class="cls-5" points="198.81 157.59 198.81 158.53 197.76 159.58 197.76 156.54 198.81 157.59"/>
        <path class="cls-1" d="m186.95,178.59v.99c0,1.25-1.01,2.26-2.26,2.26h-46c-1.25,0-2.26-1.01-2.26-2.26v-38.62c0-1.26,1.01-2.27,2.26-2.27h46c1.25,0,2.26,1.01,2.26,2.27v37.63Zm-1.16.67v-37.99c0-.78-.64-1.41-1.42-1.41h-45.36c-.78,0-1.41.63-1.41,1.41v37.99c0,.78.63,1.42,1.41,1.42h45.36c.78,0,1.42-.64,1.42-1.42Z"/>
        <path class="cls-2" d="m185.79,141.27v37.99c0,.78-.64,1.42-1.42,1.42h-45.36c-.78,0-1.41-.64-1.41-1.42v-37.99c0-.78.63-1.41,1.41-1.41h45.36c.78,0,1.42.63,1.42,1.41Zm-1.42,37.9v-37.85h-45.36v37.85h45.36Z"/>
        <polygon class="cls-6" points="184.37 168.88 184.37 179.17 139.01 179.17 139.01 173.02 141.2 173.02 151 173.02 151 168.88 151.85 168.25 155.45 168.25 155.45 171.2 167.94 171.2 167.94 168.25 171.54 168.25 172.38 168.88 172.38 173.02 182.19 173.02 182.19 168.88 184.37 168.88"/>
        <polygon class="cls-6" points="184.37 141.32 184.37 168.88 182.19 168.88 172.38 168.88 171.54 168.25 171.54 162.92 179.44 162.92 179.61 147.08 175.07 147.08 173.51 147.08 171.47 147.08 169.91 147.08 167.87 147.08 166.31 147.08 164.27 147.08 162.71 147.08 160.67 147.08 159.11 147.08 157.07 147.08 155.51 147.08 153.47 147.08 151.91 147.08 149.87 147.08 148.31 147.08 143.78 147.08 143.94 162.92 151.85 162.92 151.85 168.25 151 168.88 141.2 168.88 141.2 173.02 139.01 173.02 139.01 141.32 184.37 141.32"/>
        <path class="cls-7" d="m182.19,168.88v4.14h-9.81v-4.14h9.81Zm-.23,3.91v-3.69h-9.36v3.69h9.36Z"/>
        <rect class="cls-4" x="172.6" y="169.1" width="9.36" height="3.69"/>
        <polygon class="cls-2" points="179.61 147.08 179.44 162.92 171.54 162.92 171.54 168.25 167.94 168.25 167.94 171.2 155.45 171.2 155.45 168.25 151.85 168.25 151.85 162.92 143.94 162.92 143.78 147.08 148.31 147.08 148.31 147.1 148.31 157.17 149.87 157.17 149.87 147.1 149.87 147.08 151.91 147.08 151.91 147.1 151.91 157.17 153.47 157.17 153.47 147.1 153.47 147.08 155.51 147.08 155.51 147.1 155.51 157.17 157.07 157.17 157.07 147.1 157.07 147.08 159.11 147.08 159.11 147.1 159.11 157.17 160.67 157.17 160.67 147.1 160.67 147.08 162.71 147.08 162.71 147.1 162.71 157.17 164.27 157.17 164.27 147.1 164.27 147.08 166.31 147.08 166.31 147.1 166.31 157.17 167.87 157.17 167.87 147.1 167.87 147.08 169.91 147.08 169.91 147.1 169.91 157.17 171.47 157.17 171.47 147.1 171.47 147.08 173.51 147.08 173.51 147.1 173.51 157.17 175.07 157.17 175.07 147.1 175.07 147.08 179.61 147.08"/>
        <polygon class="cls-7" points="176.8 128.26 176.8 128.66 175.95 128.66 174.53 126.11 173.44 126.11 173.44 128.66 172.54 128.66 172.54 122.99 173.44 122.99 173.44 125.46 174.53 125.46 175.78 122.99 176.63 122.99 176.63 123.4 175.26 125.79 176.8 128.26"/>
        <rect class="cls-5" x="173.51" y="147.1" width="1.56" height="10.07"/>
        <rect class="cls-5" x="169.91" y="147.1" width="1.56" height="10.07"/>
        <polygon class="cls-7" points="171.09 122.99 171.09 128.66 170.12 128.66 167.77 124.29 167.73 124.29 167.85 125.66 167.85 128.66 166.96 128.66 166.96 122.99 167.94 122.99 170.28 127.37 170.32 127.37 170.2 125.99 170.2 122.99 171.09 122.99"/>
        <rect class="cls-5" x="166.31" y="147.1" width="1.56" height="10.07"/>
        <rect class="cls-7" x="164.62" y="122.99" width=".89" height="5.67"/>
        <path class="cls-10" d="m161.26,182.2c2.21,0,4,1.79,4,4s-1.79,4.01-4,4.01-4-1.8-4-4.01,1.79-4,4-4Zm2.84,4c0-1.56-1.27-2.83-2.84-2.83s-2.83,1.27-2.83,2.83,1.27,2.84,2.83,2.84,2.84-1.27,2.84-2.84Z"/>
        <rect class="cls-5" x="162.71" y="147.1" width="1.56" height="10.07"/>
        <polygon class="cls-7" points="163.82 128.01 163.82 128.66 160.13 128.66 160.13 122.99 161.02 122.99 161.02 128.01 163.82 128.01"/>
        <polygon class="cls-7" points="163.82 50.1 163.82 50.71 161.18 50.71 161.18 46.94 163.79 46.94 163.79 47.55 161.91 47.55 161.91 48.5 163.01 48.5 163.01 49.08 161.91 49.08 161.91 50.1 163.82 50.1"/>
        <path class="cls-2" d="m161.26,183.37c1.57,0,2.84,1.27,2.84,2.83s-1.27,2.84-2.84,2.84-2.83-1.27-2.83-2.84,1.27-2.83,2.83-2.83Z"/>
        <rect class="cls-5" x="159.11" y="147.1" width="1.56" height="10.07"/>
        <path class="cls-7" d="m159.42,97.07v.41h-.85l-1.38-2.19h-1.13v2.19h-.89v-5.67h2.67c.9,0,1.38.48,1.38,1.22v1.05c0,.49-.28.77-.57.93-.17.1-.35.16-.56.2l1.33,1.86Zm-1.09-2.99v-1.05c0-.33-.24-.57-.57-.57h-1.7v2.19h1.7c.33,0,.57-.25.57-.57Z"/>
        <path class="cls-7" d="m159.2,49.32v1.04c0,.22-.13.35-.35.35h-2.57v-3.77h2.55c.21,0,.34.13.34.35v.91c0,.17-.05.26-.19.34l-.38.22.4.22c.14.08.2.16.2.34Zm-.73.81v-.85l-.43-.26h-1.04v1.11h1.47Zm-.03-1.9v-.72h-1.44v.99h1.03l.41-.27Z"/>
        <rect class="cls-7" x="155.76" y="125.75" width="3.32" height=".64"/>
        <polygon class="cls-3" points="158.47 49.28 158.47 50.13 157 50.13 157 49.02 158.04 49.02 158.47 49.28"/>
        <polygon class="cls-3" points="158.44 47.51 158.44 48.23 158.03 48.5 157 48.5 157 47.51 158.44 47.51"/>
        <path class="cls-3" d="m158.33,93.03v1.05c0,.32-.24.57-.57.57h-1.7v-2.19h1.7c.33,0,.57.24.57.57Z"/>
        <rect class="cls-5" x="155.51" y="147.1" width="1.56" height="10.07"/>
        <path class="cls-7" d="m155.44,128.01v.65h-2.47c-.89,0-1.37-.48-1.37-1.21v-3.24c0-.74.48-1.22,1.37-1.22h2.47v.37l-.24.28h-2.14c-.33,0-.57.24-.57.57v3.24c0,.32.24.56.57.56h2.38Z"/>
        <path class="cls-7" d="m154.15,27.01l1.05,10.67-9.1,4.94v-6.6h1.56l1.09.65c1.87-.47,4.79-1.69,4.92-1.74-.11-1.98-.26-3.95-.45-5.92-2.55-.59-4.52-.9-7.12-1.04h0v-5.61l8.05,4.65Z"/>
        <path class="cls-10" d="m145.67,62.12c7,0,12.68,5.68,12.68,12.68s-5.68,12.68-12.68,12.68-12.68-5.67-12.68-12.68,5.68-12.68,12.68-12.68Zm11.4,12.68c0-6.29-5.1-11.4-11.4-11.4s-11.4,5.11-11.4,11.4,5.1,11.4,11.4,11.4,11.4-5.1,11.4-11.4Z"/>
        <path class="cls-7" d="m154.29,46.94v3.42c0,.22-.13.35-.34.35h-2.29c-.22,0-.35-.13-.35-.35v-3.42h.73v3.16h1.52v-3.16h.73Z"/>
        <polygon class="cls-7" points="154.16 96.83 154.16 97.48 150.4 97.48 150.4 91.81 154.16 91.81 154.16 92.18 153.92 92.46 151.29 92.46 151.29 94.32 153.44 94.32 153.44 94.97 151.29 94.97 151.29 96.83 154.16 96.83"/>
        <path class="cls-2" d="m145.67,63.4c6.3,0,11.4,5.11,11.4,11.4s-5.1,11.4-11.4,11.4-11.4-5.1-11.4-11.4,5.1-11.4,11.4-11.4Zm10.49,11.4c0-5.79-4.7-10.49-10.49-10.49s-10.49,4.7-10.49,10.49,4.7,10.49,10.49,10.49,10.49-4.69,10.49-10.49Z"/>
        <rect class="cls-5" x="151.91" y="147.1" width="1.56" height="10.07"/>
        <path class="cls-3" d="m153.22,29.01c.19,1.97.34,3.94.45,5.92-.13.05-3.05,1.27-4.92,1.74l-1.09-.65h-1.56v6.6h-.86v-6.6h-1.56l-1.09.65c-1.88-.47-4.71-1.7-4.9-1.78.1-1.98.25-3.95.45-5.92,2.55-.59,4.5-.86,7.1-1.01h.86c2.6.15,4.57.46,7.12,1.05Zm-11.27,6.75l.43-6.84c-.3.02-.53.06-.8.09l-.42,6.5.31.1c.2.05.31.12.48.15Zm-1.82-.51l.42-6.13c-.35.05-.61.09-.85.13l-.39,5.7.82.3Z"/>
        <path class="cls-4" d="m145.67,64.31c5.79,0,10.49,4.7,10.49,10.49s-4.7,10.49-10.49,10.49-10.49-4.69-10.49-10.49,4.7-10.49,10.49-10.49Zm9.64,10.49c0-5.32-4.32-9.63-9.64-9.63s-9.64,4.31-9.64,9.63,4.32,9.64,9.64,9.64,9.64-4.31,9.64-9.64Z"/>
        <path class="cls-7" d="m145.67,65.17c5.32,0,9.64,4.31,9.64,9.63s-4.32,9.64-9.64,9.64-9.64-4.31-9.64-9.64,4.32-9.63,9.64-9.63Z"/>
        <path class="cls-7" d="m151,168.88v4.14h-9.8v-4.14h9.8Zm-.22,3.91v-3.69h-9.36v3.69h9.36Z"/>
        <rect class="cls-4" x="141.42" y="169.1" width="9.36" height="3.69"/>
        <path class="cls-7" d="m150.55,126.88v.57c0,.73-.48,1.21-1.37,1.21h-2.6v-.65h2.51c.33,0,.57-.24.57-.56v-.57c0-.28-.2-.5-.48-.57l-1.54-.36c-.65-.16-1.06-.57-1.06-1.26v-.48c0-.74.48-1.22,1.38-1.22h2.35v.37l-.24.28h-2.03c-.32,0-.57.24-.57.57v.48c0,.29.21.51.49.57l1.54.36c.65.16,1.05.57,1.05,1.26Z"/>
        <rect class="cls-5" x="148.31" y="147.1" width="1.56" height="10.07"/>
        <polygon class="cls-7" points="149.35 91.81 149.35 92.22 148.22 97.48 147.01 97.48 145.83 93.55 145.79 93.55 144.62 97.48 143.4 97.48 142.27 92.22 142.27 91.81 143.12 91.81 144.05 96.59 144.09 96.59 145.23 92.7 146.4 92.7 147.53 96.59 147.57 96.59 148.5 91.81 149.35 91.81"/>
        <polygon class="cls-7" points="149.29 49.95 149.29 50.69 147.13 50.69 146.31 48.78 147.13 46.88 149.26 46.88 149.27 47.62 147.61 47.62 147.12 48.78 147.61 49.95 149.29 49.95"/>
        <path class="cls-7" d="m145.24,36.02v6.6l-9.1-4.94,1.05-10.67,8.05-4.65v5.6c-2.6.15-4.55.42-7.1,1.01-.2,1.97-.35,3.94-.45,5.92.19.08,3.02,1.31,4.9,1.78l1.09-.65h1.56Z"/>
        <path class="cls-7" d="m144.63,46.94v3.42c0,.22-.13.35-.34.35h-2.29c-.22,0-.34-.13-.34-.35v-3.42h.72v3.16h1.52v-3.16h.73Z"/>
        <path class="cls-7" d="m142.38,28.92l-.43,6.84c-.17-.03-.28-.1-.48-.15l-.31-.1.42-6.5c.27-.03.5-.07.8-.09Z"/>
        <path class="cls-7" d="m141.31,92.95v3.4c0,.73-.48,1.21-1.38,1.21h-1.46c-.9,0-1.38-.48-1.38-1.21v-3.4c0-.74.48-1.22,1.38-1.22h1.46c.9,0,1.38.48,1.38,1.22Zm-.9,3.4v-3.4c0-.33-.24-.57-.56-.57h-1.3c-.32,0-.57.24-.57.57v3.4c0,.32.25.56.57.56h1.3c.32,0,.56-.24.56-.56Z"/>
        <path class="cls-7" d="m140.55,29.12l-.42,6.13-.82-.3.39-5.7c.24-.04.5-.08.85-.13Z"/>
        <path class="cls-3" d="m140.41,92.95v3.4c0,.32-.24.56-.56.56h-1.3c-.32,0-.57-.24-.57-.56v-3.4c0-.33.25-.57.57-.57h1.3c.32,0,.56.24.56.57Z"/>
        <polygon class="cls-7" points="139.67 46.94 139.67 50.71 138.96 50.71 138.96 48.67 138.17 50.32 137.62 50.32 136.83 48.67 136.83 50.71 136.12 50.71 136.12 46.94 136.86 46.94 137.9 49.24 138.93 46.94 139.67 46.94"/>
        <path class="cls-7" d="m135.97,93.03v1.37c0,.74-.48,1.22-1.38,1.22h-1.78v1.86h-.89v-5.67h2.67c.9,0,1.38.48,1.38,1.22Zm-.89,1.37v-1.37c0-.33-.25-.57-.57-.57h-1.7v2.51h1.7c.32,0,.57-.24.57-.57Z"/>
        <path class="cls-3" d="m135.08,93.03v1.37c0,.33-.25.57-.57.57h-1.7v-2.51h1.7c.32,0,.57.24.57.57Z"/>
        <path class="cls-1" d="m134.37,143.37v35.22c0,1.25-1.02,2.26-2.27,2.26H62.86c-1.25,0-2.26-1.01-2.26-2.26v-35.22c0-1.26,1.01-2.27,2.26-2.27h69.24c1.25,0,2.27,1.01,2.27,2.27Zm-1.17,34.9v-34.59c0-.78-.64-1.41-1.42-1.41H63.18c-.78,0-1.42.63-1.42,1.41v34.59c0,.78.64,1.41,1.42,1.41h68.6c.78,0,1.42-.63,1.42-1.41Z"/>
        <rect class="cls-7" x="133.28" y="46.94" width=".73" height="3.77"/>
        <path class="cls-2" d="m133.2,143.68v34.59c0,.78-.64,1.41-1.42,1.41H63.18c-.78,0-1.42-.63-1.42-1.41v-34.59c0-.78.64-1.41,1.42-1.41h68.6c.78,0,1.42.63,1.42,1.41Zm-1.52,34.39v-33.12c0-.8-.64-1.44-1.44-1.44h-65.52c-.79,0-1.44.64-1.44,1.44v33.12h68.4Z"/>
        <path class="cls-10" d="m131.68,144.95v33.12h-3.6v-9.36h1.8v-10.8h-1.8v-7.2h-4.14v-4.32h-3.96v-2.88h10.26c.8,0,1.44.64,1.44,1.44Z"/>
        <path class="cls-7" d="m131.18,49.38v.98c0,.22-.13.35-.34.35h-2.15c-.21,0-.34-.13-.34-.35v-1.1l.72.29v.59h1.38v-.64l-1.93-.99c-.13-.07-.17-.16-.17-.32v-.9c0-.22.13-.35.34-.35h2.15c.21,0,.34.13.34.34v1l-.73-.26v-.51h-1.38v.57l1.93.98c.13.07.18.16.18.32Z"/>
        <polygon class="cls-2" points="129.88 157.91 129.88 168.71 128.08 168.71 128.08 178.07 122.5 178.07 122.5 168.71 121.06 168.71 121.06 178.07 119.62 178.07 119.62 168.71 118.18 168.71 118.18 178.07 116.74 178.07 116.74 168.71 115.3 168.71 115.3 178.07 113.86 178.07 113.86 168.71 112.42 168.71 112.42 178.07 110.98 178.07 110.98 168.71 109.54 168.71 109.54 178.07 108.1 178.07 108.1 168.71 106.66 168.71 106.66 178.07 101.08 178.07 101.08 168.71 99.28 168.71 99.28 157.91 101.08 157.91 101.08 150.71 105.22 150.71 105.22 146.39 109.18 146.39 109.18 144.23 119.98 144.23 119.98 146.39 123.94 146.39 123.94 150.71 128.08 150.71 128.08 157.91 129.88 157.91"/>
        <rect class="cls-5" x="121.06" y="168.71" width="1.44" height="9.36"/>
        <path class="cls-7" d="m121.49,126.88v.57c0,.73-.47,1.21-1.37,1.21h-2.59v-.65h2.51c.32,0,.56-.24.56-.56v-.57c0-.28-.2-.5-.48-.57l-1.54-.36c-.65-.16-1.05-.57-1.05-1.26v-.48c0-.74.47-1.22,1.37-1.22h2.35v.37l-.24.28h-2.03c-.32,0-.56.24-.56.57v.48c0,.29.2.51.48.57l1.54.36c.65.16,1.05.57,1.05,1.26Z"/>
        <polygon class="cls-10" points="119.98 143.51 119.98 144.23 109.18 144.23 109.18 146.39 105.22 146.39 105.22 150.71 101.08 150.71 101.08 157.91 99.28 157.91 99.28 168.71 101.08 168.71 101.08 178.07 93.88 178.07 93.88 168.71 95.68 168.71 95.68 157.91 93.88 157.91 93.88 150.71 89.74 150.71 89.74 146.39 85.78 146.39 85.78 144.23 85.78 143.51 109.18 143.51 119.98 143.51"/>
        <rect class="cls-5" x="118.18" y="168.71" width="1.44" height="9.36"/>
        <rect class="cls-5" x="115.3" y="168.71" width="1.44" height="9.36"/>
        <polygon class="cls-7" points="116.45 128.01 116.45 128.66 115.04 128.66 112.77 128.66 112.77 122.99 113.66 122.99 113.66 128.01 116.45 128.01"/>
        <path class="cls-7" d="m116.41,137.93v.65h-3.84v-.61l2.5-2.67c.09-.08.16-.17.22-.26.15-.18.23-.37.23-.51v-.4c0-.32-.24-.57-.57-.57h-2.06l-.24-.28v-.37h2.39c.89,0,1.37.48,1.37,1.22v.4c0,.32-.18.63-.35.86-.1.15-.22.29-.34.4l-2.02,2.1v.04h2.71Z"/>
        <path class="cls-3" d="m115.52,134.13v.4c0,.14-.08.33-.23.51-.06.09-.13.18-.22.26l-2.5,2.67v3.13h-31.97v-2.52h.89v-5.67h-.65l.94-4.25h.84v-.36l-1.85-2.47,1.85-2.47h.57v.28h1.96v5.02h7.76v-1.86h1.78c.9,0,1.38-.48,1.38-1.22h1.21v3.08h7.52c.67,0,1.11-.27,1.29-.71l.89.31v.4h.85l.45-1.38h2.23l.44,1.38h4.09v4.25h-2.39v.37l.24.28h2.06c.33,0,.57.25.57.57Z"/>
        <rect class="cls-5" x="112.42" y="168.71" width="1.44" height="9.36"/>
        <path class="cls-7" d="m111.8,128.26v.4h-.85l-.44-1.38h-2.23l-.45,1.38h-.85v-.4l1.83-5.27h1.17l1.82,5.27Zm-1.5-1.62l-.89-2.84h-.04l-.89,2.84h1.82Z"/>
        <rect class="cls-5" x="109.54" y="168.71" width="1.44" height="9.36"/>
        <polygon class="cls-3" points="109.41 123.8 110.3 126.64 108.48 126.64 109.37 123.8 109.41 123.8"/>
        <rect class="cls-5" x="106.66" y="168.71" width="1.44" height="9.36"/>
        <path class="cls-7" d="m106.18,124.21v3.24c0,.18-.03.35-.09.5-.18.44-.62.71-1.29.71h-2.75v-5.67h2.75c.9,0,1.38.48,1.38,1.22Zm-.89,3.24v-3.24c0-.33-.24-.57-.57-.57h-1.78v4.37h1.78c.33,0,.57-.24.57-.56Z"/>
        <path class="cls-3" d="m105.29,124.21v3.24c0,.32-.24.56-.57.56h-1.78v-4.37h1.78c.33,0,.57.24.57.57Z"/>
        <polygon class="cls-7" points="101.04 128.01 101.04 128.66 97.28 128.66 97.28 125.58 97.28 122.99 101.04 122.99 101.04 123.36 100.8 123.64 98.17 123.64 98.17 125.5 100.32 125.5 100.32 126.15 98.17 126.15 98.17 128.01 101.04 128.01"/>
        <path class="cls-7" d="m96.07,124.21v1.37c0,.74-.48,1.22-1.38,1.22h-1.78v1.86h-.89v-5.67h2.67c.9,0,1.38.48,1.38,1.22Zm-.89,1.37v-1.37c0-.33-.24-.57-.57-.57h-1.7v2.51h1.7c.33,0,.57-.24.57-.57Z"/>
        <polygon class="cls-2" points="95.68 157.91 95.68 168.71 93.88 168.71 93.88 178.07 88.3 178.07 88.3 168.71 86.86 168.71 86.86 178.07 85.42 178.07 85.42 168.71 83.98 168.71 83.98 178.07 82.54 178.07 82.54 168.71 81.1 168.71 81.1 178.07 79.66 178.07 79.66 168.71 78.22 168.71 78.22 178.07 76.78 178.07 76.78 168.71 75.34 168.71 75.34 178.07 73.9 178.07 73.9 168.71 72.46 168.71 72.46 178.07 66.88 178.07 66.88 168.71 65.08 168.71 65.08 157.91 66.88 157.91 66.88 150.71 71.02 150.71 71.02 146.39 74.98 146.39 74.98 144.23 85.78 144.23 85.78 146.39 89.74 146.39 89.74 150.71 93.88 150.71 93.88 157.91 95.68 157.91"/>
        <path class="cls-3" d="m95.18,124.21v1.37c0,.33-.24.57-.57.57h-1.7v-2.51h1.7c.33,0,.57.24.57.57Z"/>
        <rect class="cls-7" x="88.57" y="128.01" width=".89" height=".65"/>
        <rect class="cls-5" x="86.86" y="168.71" width="1.44" height="9.36"/>
        <polygon class="cls-7" points="88 122.99 88 123.64 86.04 123.64 86.04 128.66 85.15 128.66 85.15 123.64 83.19 123.64 83.19 123.36 83.19 122.99 88 122.99"/>
        <path class="cls-10" d="m85.78,143.51v.72h-10.8v2.16h-3.96v4.32h-4.14v7.2h-1.8v10.8h1.8v9.36h-3.6v-33.12c0-.8.65-1.44,1.44-1.44h21.06Z"/>
        <rect class="cls-5" x="83.98" y="168.71" width="1.44" height="9.36"/>
        <polygon class="cls-7" points="82.62 128.3 82.62 128.66 81.78 128.66 80.21 126.57 78.64 128.66 77.8 128.66 77.8 128.3 79.65 125.83 77.8 123.36 77.8 122.99 78.64 122.99 80.21 125.08 81.78 122.99 82.62 122.99 82.62 123.36 80.77 125.83 82.62 128.3"/>
        <rect class="cls-5" x="81.1" y="168.71" width="1.44" height="9.36"/>
        <path class="cls-3" d="m80.21,126.57l1.57,2.09-.94,4.25-1.38.33v.4h1.14v7.46h-17.74c-1.25,0-2.26,1.01-2.26,2.27v35.22h-4.65v-47.8c0-2.68,1.44-5.16,3.76-6.5l10.88-6.28,2.88,4.98v5.67h5.17l1.57-2.09Z"/>
        <polygon class="cls-7" points="81.49 132.91 81.49 138.58 80.6 138.58 80.6 133.64 79.46 133.64 79.46 133.24 80.84 132.91 81.49 132.91"/>
        <rect class="cls-5" x="78.22" y="168.71" width="1.44" height="9.36"/>
        <polygon class="cls-7" points="77.23 128.01 77.23 128.66 73.47 128.66 73.47 122.99 77.23 122.99 77.23 123.36 76.99 123.64 74.36 123.64 74.36 125.5 76.5 125.5 76.5 126.15 74.36 126.15 74.36 128.01 77.23 128.01"/>
        <rect class="cls-5" x="75.34" y="168.71" width="1.44" height="9.36"/>
        <rect class="cls-5" x="72.46" y="168.71" width="1.44" height="9.36"/>
        <path class="cls-2" d="m59,23.75c3.86,3.02,4.53,8.58,1.52,12.43-3.02,3.86-8.58,4.53-12.44,1.52-1.31-1.23-2.26-2.81-2.72-4.55-.25-.96-.35-1.96-.29-2.95.09-1.89.84-3.69,2.11-5.1.66-.74,1.44-1.38,2.29-1.88h.01c1.55-.9,3.33-1.35,5.13-1.29,1.61.2,3.12.82,4.39,1.82Zm2.34,6.97c0-4.3-3.49-7.79-7.8-7.79s-7.79,3.49-7.79,7.79,3.49,7.8,7.79,7.8,7.8-3.49,7.8-7.8Z"/>
        <path class="cls-9" d="m53.54,22.93c4.31,0,7.8,3.49,7.8,7.79s-3.49,7.8-7.8,7.8-7.79-3.49-7.79-7.8,3.49-7.79,7.79-7.79Zm7.37,7.79c0-4.07-3.3-7.37-7.37-7.37s-7.37,3.3-7.37,7.37,3.3,7.37,7.37,7.37,7.37-3.3,7.37-7.37Z"/>
        <path class="cls-1" d="m53.54,23.35c4.07,0,7.37,3.3,7.37,7.37s-3.3,7.37-7.37,7.37-7.37-3.3-7.37-7.37,3.3-7.37,7.37-7.37Zm4.4,7.37c0-2.43-1.97-4.39-4.4-4.39s-4.39,1.96-4.39,4.39,1.96,4.4,4.39,4.4,4.4-1.97,4.4-4.4Z"/>
        <path class="cls-8" d="m57.11,193.78c2.62,1.96,4.31,5.07,4.31,8.58,0,5.91-4.8,10.71-10.71,10.71s-10.71-4.8-10.71-10.71c0-3.51,1.69-6.62,4.31-8.58,1.78-1.33,4-2.12,6.4-2.12s4.62.79,6.4,2.12Zm2.13,8.58c0-4.71-3.82-8.53-8.53-8.53s-8.53,3.82-8.53,8.53,3.82,8.53,8.53,8.53,8.53-3.82,8.53-8.53Z"/>
        <polygon class="cls-9" points="57.09 28.68 57.09 32.77 53.54 34.82 50 32.77 50 28.68 53.54 26.63 57.09 28.68"/>
        <path class="cls-2" d="m50.71,193.83c4.71,0,8.53,3.82,8.53,8.53s-3.82,8.53-8.53,8.53-8.53-3.82-8.53-8.53,3.82-8.53,8.53-8.53Zm7.79,8.53c0-4.3-3.49-7.79-7.79-7.79s-7.8,3.49-7.8,7.79,3.49,7.8,7.8,7.8,7.79-3.49,7.79-7.8Z"/>
        <path class="cls-10" d="m53.54,26.33c2.43,0,4.4,1.96,4.4,4.39s-1.97,4.4-4.4,4.4-4.39-1.97-4.39-4.4,1.96-4.39,4.39-4.39Zm3.55,6.44v-4.09l-3.55-2.05-3.54,2.05v4.09l3.54,2.05,3.55-2.05Z"/>
        <path class="cls-9" d="m50.71,194.57c4.3,0,7.79,3.49,7.79,7.79s-3.49,7.8-7.79,7.8-7.8-3.49-7.8-7.8,3.49-7.79,7.8-7.79Zm7.37,7.79c0-4.07-3.3-7.37-7.37-7.37s-7.37,3.3-7.37,7.37,3.3,7.37,7.37,7.37,7.37-3.3,7.37-7.37Z"/>
        <path class="cls-1" d="m50.71,194.99c4.07,0,7.37,3.3,7.37,7.37s-3.3,7.37-7.37,7.37-7.37-3.3-7.37-7.37,3.3-7.37,7.37-7.37Zm4.4,7.37c0-2.43-1.97-4.4-4.4-4.4s-4.4,1.97-4.4,4.4,1.97,4.4,4.4,4.4,4.4-1.97,4.4-4.4Z"/>
        <polygon class="cls-9" points="54.25 200.32 54.25 204.41 50.71 206.45 47.17 204.41 47.17 200.32 50.71 198.27 54.25 200.32"/>
        <path class="cls-10" d="m50.71,197.96c2.43,0,4.4,1.97,4.4,4.4s-1.97,4.4-4.4,4.4-4.4-1.97-4.4-4.4,1.97-4.4,4.4-4.4Zm3.54,6.45v-4.09l-3.54-2.05-3.54,2.05v4.09l3.54,2.04,3.54-2.04Z"/>
      </g>
      <g>
        <circle class="cls-11" cx="145.67" cy="74.8" r="10.49"/>
        <path class="cls-11" d="m136.03,74.8c0-5.32,4.32-9.63,9.64-9.63s9.64,4.31,9.64,9.63-4.32,9.64-9.64,9.64-9.64-4.31-9.64-9.64Z"/>
        <path class="cls-11" d="m218.27,135.18c0-.78-.63-1.42-1.41-1.42"/>
        <line class="cls-11" x1="216.86" y1="133.76" x2="205.52" y2="133.76"/>
        <path class="cls-11" d="m205.52,133.76c-.79,0-1.42.64-1.42,1.42"/>
        <line class="cls-11" x1="204.1" y1="135.18" x2="204.1" y2="147.94"/>
        <path class="cls-11" d="m202.68,149.35c.79,0,1.42-.63,1.42-1.41"/>
        <line class="cls-11" x1="202.68" y1="149.35" x2="191.34" y2="149.35"/>
        <path class="cls-11" d="m191.34,149.35c-.78,0-1.41.64-1.41,1.42"/>
        <line class="cls-11" x1="189.93" y1="150.77" x2="189.93" y2="178.27"/>
        <path class="cls-11" d="m185.79,141.27c0-.78-.64-1.41-1.42-1.41"/>
        <path class="cls-11" d="m139.01,139.86c-.78,0-1.41.63-1.41,1.41"/>
        <line class="cls-11" x1="133.2" y1="178.27" x2="133.2" y2="143.68"/>
        <path class="cls-11" d="m133.2,143.68c0-.78-.64-1.41-1.42-1.41"/>
        <line class="cls-11" x1="131.78" y1="142.27" x2="63.18" y2="142.27"/>
        <path class="cls-11" d="m63.18,142.27c-.78,0-1.42.63-1.42,1.41"/>
        <path class="cls-11" d="m218.27,147.94c0,.78.64,1.41,1.42,1.41"/>
        <line class="cls-11" x1="218.27" y1="147.94" x2="218.27" y2="135.18"/>
        <path class="cls-11" d="m189.93,178.27c0,.78.63,1.41,1.41,1.41"/>
        <line class="cls-11" x1="191.34" y1="179.68" x2="231.03" y2="179.68"/>
        <path class="cls-11" d="m231.03,179.68c.78,0,1.42-.63,1.42-1.41"/>
        <line class="cls-11" x1="232.45" y1="178.27" x2="232.45" y2="150.77"/>
        <path class="cls-11" d="m232.45,150.77c0-.78-.64-1.42-1.42-1.42"/>
        <line class="cls-11" x1="231.03" y1="149.35" x2="219.69" y2="149.35"/>
        <path class="cls-11" d="m137.6,179.26c0,.78.63,1.42,1.41,1.42"/>
        <line class="cls-11" x1="139.01" y1="180.68" x2="184.37" y2="180.68"/>
        <path class="cls-11" d="m184.37,180.68c.78,0,1.42-.64,1.42-1.42"/>
        <line class="cls-11" x1="61.76" y1="143.68" x2="61.76" y2="178.27"/>
        <path class="cls-11" d="m61.76,178.27c0,.78.64,1.41,1.42,1.41"/>
        <line class="cls-11" x1="63.18" y1="179.68" x2="131.78" y2="179.68"/>
        <path class="cls-11" d="m131.78,179.68c.78,0,1.42-.63,1.42-1.41"/>
        <path class="cls-11" d="m164.1,186.2c0-1.56-1.27-2.83-2.84-2.83s-2.83,1.27-2.83,2.83,1.27,2.84,2.83,2.84,2.84-1.27,2.84-2.84Z"/>
        <line class="cls-11" x1="1.49" y1="230.71" x2="289.89" y2="230.71"/>
        <path class="cls-11" d="m61.2,3.82c2.29-2.28,5.39-3.57,8.62-3.57"/>
        <line class="cls-11" x1="43.51" y1="21.52" x2="61.2" y2="3.82"/>
        <path class="cls-11" d="m39.94,30.14c0-3.24,1.28-6.34,3.57-8.62"/>
        <line class="cls-11" x1="39.94" y1="182.52" x2="39.94" y2="30.14"/>
        <path class="cls-11" d="m35.12,187.34c2.66,0,4.82-2.16,4.82-4.82"/>
        <line class="cls-11" x1="26.13" y1="187.34" x2="35.12" y2="187.34"/>
        <path class="cls-11" d="m19.51,190.08c1.76-1.76,4.14-2.74,6.62-2.74"/>
        <line class="cls-11" x1="2.99" y1="206.6" x2="19.51" y2="190.08"/>
        <path class="cls-11" d="m.25,213.21c0-2.48.99-4.86,2.74-6.61"/>
        <line class="cls-11" x1=".25" y1="229.59" x2=".25" y2="213.21"/>
        <line class="cls-11" x1="291.09" y1="213.21" x2="291.09" y2="229.59"/>
        <line class="cls-11" x1="230.14" y1="3.82" x2="247.83" y2="21.52"/>
        <line class="cls-11" x1="251.4" y1="30.14" x2="251.4" y2="182.52"/>
        <path class="cls-11" d="m247.83,21.52c2.29,2.28,3.57,5.38,3.57,8.62"/>
        <path class="cls-11" d="m288.35,206.6c1.75,1.75,2.74,4.13,2.74,6.61"/>
        <line class="cls-11" x1="271.83" y1="190.08" x2="288.35" y2="206.6"/>
        <path class="cls-11" d="m265.21,187.34c2.48,0,4.86.98,6.62,2.74"/>
        <line class="cls-11" x1="256.22" y1="187.34" x2="265.21" y2="187.34"/>
        <path class="cls-11" d="m251.4,182.52c0,2.66,2.16,4.82,4.82,4.82"/>
        <path class="cls-11" d="m221.52.25c3.23,0,6.33,1.29,8.62,3.57"/>
        <line class="cls-11" x1="69.82" y1=".25" x2="221.52" y2=".25"/>
        <polygon class="cls-11" points="50 28.68 50 32.77 53.54 34.82 57.09 32.77 57.09 28.68 53.54 26.63 50 28.68"/>
        <path class="cls-11" d="m57.94,30.72c0-2.43-1.97-4.39-4.4-4.39s-4.39,1.96-4.39,4.39,1.96,4.4,4.39,4.4,4.4-1.97,4.4-4.4Z"/>
        <circle class="cls-11" cx="53.54" cy="30.72" r="7.37"/>
        <path class="cls-11" d="m45.75,30.72c0-4.3,3.49-7.79,7.79-7.79s7.8,3.49,7.8,7.79-3.49,7.8-7.8,7.8-7.79-3.49-7.79-7.8Z"/>
        <polygon class="cls-11" points="234.25 28.68 234.25 32.77 237.8 34.82 241.34 32.77 241.34 28.68 237.8 26.63 234.25 28.68"/>
        <path class="cls-11" d="m242.19,30.72c0-2.43-1.96-4.39-4.39-4.39s-4.4,1.96-4.4,4.39,1.97,4.4,4.4,4.4,4.39-1.97,4.39-4.4Z"/>
        <circle class="cls-11" cx="237.8" cy="30.72" r="7.37"/>
        <path class="cls-11" d="m230,30.72c0-4.3,3.49-7.79,7.8-7.79s7.79,3.49,7.79,7.79-3.49,7.8-7.79,7.8-7.8-3.49-7.8-7.8Z"/>
        <polygon class="cls-11" points="47.17 200.32 47.17 204.41 50.71 206.45 54.25 204.41 54.25 200.32 50.71 198.27 47.17 200.32"/>
        <circle class="cls-11" cx="50.71" cy="202.36" r="4.4"/>
        <circle class="cls-11" cx="50.71" cy="202.36" r="7.37"/>
        <path class="cls-11" d="m42.91,202.36c0-4.3,3.49-7.79,7.8-7.79s7.79,3.49,7.79,7.79-3.49,7.8-7.79,7.8-7.8-3.49-7.8-7.8Z"/>
        <polygon class="cls-11" points="139.01 173.02 139.01 141.32 184.37 141.32 184.37 168.88 184.37 179.17 139.01 179.17 139.01 173.02"/>
        <polygon class="cls-11" points="171.54 168.25 167.94 168.25 167.94 171.2 155.45 171.2 155.45 168.25 151.85 168.25 151.85 162.92 143.94 162.92 143.78 147.08 148.31 147.08 149.87 147.08 151.91 147.08 153.47 147.08 155.51 147.08 157.07 147.08 159.11 147.08 160.67 147.08 162.71 147.08 164.27 147.08 166.31 147.08 167.87 147.08 169.91 147.08 171.47 147.08 173.51 147.08 175.07 147.08 179.61 147.08 179.44 162.92 171.54 162.92 171.54 168.25"/>
        <line class="cls-11" x1="160.67" y1="147.1" x2="160.67" y2="147.08"/>
        <rect class="cls-11" x="159.11" y="147.1" width="1.56" height="10.07"/>
        <line class="cls-11" x1="159.11" y1="147.08" x2="159.11" y2="147.1"/>
        <rect class="cls-11" x="173.51" y="147.1" width="1.56" height="10.07"/>
        <line class="cls-11" x1="175.07" y1="147.1" x2="175.07" y2="147.08"/>
        <line class="cls-11" x1="173.51" y1="147.08" x2="173.51" y2="147.1"/>
        <line class="cls-11" x1="157.07" y1="147.1" x2="157.07" y2="147.08"/>
        <rect class="cls-11" x="155.51" y="147.1" width="1.56" height="10.07"/>
        <line class="cls-11" x1="155.51" y1="147.08" x2="155.51" y2="147.1"/>
        <line class="cls-11" x1="153.47" y1="147.1" x2="153.47" y2="147.08"/>
        <rect class="cls-11" x="151.91" y="147.1" width="1.56" height="10.07"/>
        <line class="cls-11" x1="151.91" y1="147.08" x2="151.91" y2="147.1"/>
        <line class="cls-11" x1="149.87" y1="147.1" x2="149.87" y2="147.08"/>
        <rect class="cls-11" x="148.31" y="147.1" width="1.56" height="10.07"/>
        <line class="cls-11" x1="148.31" y1="147.08" x2="148.31" y2="147.1"/>
        <rect class="cls-11" x="169.91" y="147.1" width="1.56" height="10.07"/>
        <line class="cls-11" x1="171.47" y1="147.1" x2="171.47" y2="147.08"/>
        <line class="cls-11" x1="169.91" y1="147.08" x2="169.91" y2="147.1"/>
        <rect class="cls-11" x="166.31" y="147.1" width="1.56" height="10.07"/>
        <line class="cls-11" x1="167.87" y1="147.1" x2="167.87" y2="147.08"/>
        <line class="cls-11" x1="166.31" y1="147.08" x2="166.31" y2="147.1"/>
        <rect class="cls-11" x="162.71" y="147.1" width="1.56" height="10.07"/>
        <line class="cls-11" x1="164.27" y1="147.1" x2="164.27" y2="147.08"/>
        <line class="cls-11" x1="162.71" y1="147.08" x2="162.71" y2="147.1"/>
        <rect class="cls-11" x="172.6" y="169.1" width="9.36" height="3.69"/>
        <rect class="cls-11" x="141.42" y="169.1" width="9.36" height="3.69"/>
        <path class="cls-11" d="m128.08,178.07h3.6v-33.12c0-.8-.64-1.44-1.44-1.44h-65.52c-.79,0-1.44.64-1.44,1.44v33.12h64.8Z"/>
        <line class="cls-11" x1="93.88" y1="178.07" x2="93.88" y2="168.71"/>
        <line class="cls-11" x1="101.08" y1="178.07" x2="101.08" y2="168.71"/>
        <line class="cls-11" x1="109.18" y1="146.39" x2="109.18" y2="144.23"/>
        <line class="cls-11" x1="109.18" y1="146.39" x2="105.22" y2="146.39"/>
        <line class="cls-11" x1="74.98" y1="146.39" x2="71.02" y2="146.39"/>
        <line class="cls-11" x1="71.02" y1="146.39" x2="71.02" y2="150.71"/>
        <line class="cls-11" x1="71.02" y1="150.71" x2="66.88" y2="150.71"/>
        <line class="cls-11" x1="93.88" y1="157.91" x2="93.88" y2="150.71"/>
        <line class="cls-11" x1="95.68" y1="157.91" x2="93.88" y2="157.91"/>
        <line class="cls-11" x1="95.68" y1="168.71" x2="95.68" y2="157.91"/>
        <line class="cls-11" x1="93.88" y1="168.71" x2="95.68" y2="168.71"/>
        <line class="cls-11" x1="66.88" y1="178.07" x2="66.88" y2="168.71"/>
        <line class="cls-11" x1="85.78" y1="144.23" x2="85.78" y2="146.39"/>
        <line class="cls-11" x1="89.74" y1="146.39" x2="85.78" y2="146.39"/>
        <line class="cls-11" x1="89.74" y1="150.71" x2="89.74" y2="146.39"/>
        <line class="cls-11" x1="93.88" y1="150.71" x2="89.74" y2="150.71"/>
        <line class="cls-11" x1="99.28" y1="168.71" x2="101.08" y2="168.71"/>
        <line class="cls-11" x1="99.28" y1="157.91" x2="99.28" y2="168.71"/>
        <line class="cls-11" x1="101.08" y1="157.91" x2="99.28" y2="157.91"/>
        <line class="cls-11" x1="101.08" y1="150.71" x2="101.08" y2="157.91"/>
        <line class="cls-11" x1="105.22" y1="150.71" x2="101.08" y2="150.71"/>
        <line class="cls-11" x1="105.22" y1="146.39" x2="105.22" y2="150.71"/>
        <line class="cls-11" x1="74.98" y1="146.39" x2="74.98" y2="144.23"/>
        <line class="cls-11" x1="65.08" y1="168.71" x2="66.88" y2="168.71"/>
        <line class="cls-11" x1="65.08" y1="157.91" x2="65.08" y2="168.71"/>
        <line class="cls-11" x1="66.88" y1="157.91" x2="65.08" y2="157.91"/>
        <line class="cls-11" x1="66.88" y1="150.71" x2="66.88" y2="157.91"/>
        <line class="cls-11" x1="119.98" y1="144.23" x2="119.98" y2="146.39"/>
        <line class="cls-11" x1="123.94" y1="146.39" x2="119.98" y2="146.39"/>
        <line class="cls-11" x1="123.94" y1="150.71" x2="123.94" y2="146.39"/>
        <line class="cls-11" x1="128.08" y1="150.71" x2="123.94" y2="150.71"/>
        <line class="cls-11" x1="128.08" y1="157.91" x2="128.08" y2="150.71"/>
        <line class="cls-11" x1="129.88" y1="157.91" x2="128.08" y2="157.91"/>
        <line class="cls-11" x1="129.88" y1="168.71" x2="129.88" y2="157.91"/>
        <line class="cls-11" x1="128.08" y1="168.71" x2="129.88" y2="168.71"/>
        <line class="cls-11" x1="128.08" y1="178.07" x2="128.08" y2="168.71"/>
        <line class="cls-11" x1="85.78" y1="144.23" x2="74.98" y2="144.23"/>
        <line class="cls-11" x1="119.98" y1="144.23" x2="109.18" y2="144.23"/>
        <rect class="cls-11" x="206.37" y="147" width="9.64" height="3.97"/>
        <line class="cls-11" x1="192.48" y1="150.97" x2="206.37" y2="150.97"/>
        <path class="cls-11" d="m192.48,150.97c-.47,0-.85.38-.85.85"/>
        <line class="cls-11" x1="191.63" y1="177.33" x2="191.63" y2="151.82"/>
        <path class="cls-11" d="m191.63,177.33c0,.47.38.86.85.86"/>
        <line class="cls-11" x1="229.9" y1="178.19" x2="192.48" y2="178.19"/>
        <path class="cls-11" d="m229.9,178.19c.46,0,.85-.39.85-.86"/>
        <path class="cls-11" d="m230.75,151.82c0-.47-.39-.85-.85-.85"/>
        <line class="cls-11" x1="216.01" y1="150.97" x2="229.9" y2="150.97"/>
        <rect class="cls-11" x="217.71" y="164.58" width="10.77" height="10.77"/>
        <rect class="cls-11" x="205.8" y="152.67" width="10.77" height="10.78"/>
        <rect class="cls-11" x="193.9" y="152.67" width="10.77" height="10.78"/>
        <polygon class="cls-11" points="220.4 163.45 225.78 163.45 228.48 160.75 228.48 152.67 217.71 152.67 217.71 160.75 220.4 163.45"/>
        <polygon class="cls-11" points="208.49 175.35 213.88 175.35 216.57 172.66 216.57 164.58 205.8 164.58 205.8 172.66 208.49 175.35"/>
        <polygon class="cls-11" points="193.9 164.58 193.9 172.66 196.59 175.35 201.97 175.35 204.67 172.66 204.67 164.58 193.9 164.58"/>
        <rect class="cls-11" x="221.58" y="156.54" width="3.03" height="3.04"/>
        <line class="cls-11" x1="223.56" y1="157.59" x2="224.61" y2="156.54"/>
        <rect class="cls-11" x="222.62" y="157.59" width=".94" height=".94"/>
        <line class="cls-11" x1="223.56" y1="158.53" x2="224.61" y2="159.58"/>
        <line class="cls-11" x1="222.62" y1="158.53" x2="221.58" y2="159.58"/>
        <line class="cls-11" x1="222.62" y1="157.59" x2="221.58" y2="156.54"/>
        <polygon class="cls-11" points="224.61 168.45 224.61 171.48 221.58 171.48 221.58 168.45 222.62 169.5 223.56 169.5 224.61 168.45"/>
        <line class="cls-11" x1="223.56" y1="169.5" x2="223.56" y2="170.43"/>
        <line class="cls-11" x1="223.56" y1="170.43" x2="224.61" y2="171.48"/>
        <line class="cls-11" x1="222.62" y1="170.43" x2="223.56" y2="170.43"/>
        <line class="cls-11" x1="222.62" y1="170.43" x2="221.58" y2="171.48"/>
        <line class="cls-11" x1="222.62" y1="170.43" x2="222.62" y2="169.5"/>
        <line class="cls-11" x1="221.58" y1="168.45" x2="224.61" y2="168.45"/>
        <rect class="cls-11" x="209.67" y="156.54" width="3.03" height="3.04"/>
        <line class="cls-11" x1="211.65" y1="157.59" x2="212.7" y2="156.54"/>
        <rect class="cls-11" x="210.72" y="157.59" width=".93" height=".94"/>
        <line class="cls-11" x1="211.65" y1="158.53" x2="212.7" y2="159.58"/>
        <line class="cls-11" x1="210.72" y1="158.53" x2="209.67" y2="159.58"/>
        <line class="cls-11" x1="210.72" y1="157.59" x2="209.67" y2="156.54"/>
        <polygon class="cls-11" points="212.7 168.45 212.7 171.48 209.67 171.48 209.67 168.45 210.72 169.5 211.65 169.5 212.7 168.45"/>
        <line class="cls-11" x1="211.65" y1="169.5" x2="211.65" y2="170.43"/>
        <line class="cls-11" x1="211.65" y1="170.43" x2="212.7" y2="171.48"/>
        <line class="cls-11" x1="210.72" y1="170.43" x2="211.65" y2="170.43"/>
        <line class="cls-11" x1="210.72" y1="170.43" x2="209.67" y2="171.48"/>
        <line class="cls-11" x1="210.72" y1="170.43" x2="210.72" y2="169.5"/>
        <line class="cls-11" x1="209.67" y1="168.45" x2="212.7" y2="168.45"/>
        <rect class="cls-11" x="197.76" y="156.54" width="3.04" height="3.04"/>
        <line class="cls-11" x1="199.75" y1="157.59" x2="200.8" y2="156.54"/>
        <rect class="cls-11" x="198.81" y="157.59" width=".94" height=".94"/>
        <line class="cls-11" x1="199.75" y1="158.53" x2="200.8" y2="159.58"/>
        <line class="cls-11" x1="198.81" y1="158.53" x2="197.76" y2="159.58"/>
        <line class="cls-11" x1="198.81" y1="157.59" x2="197.76" y2="156.54"/>
        <polygon class="cls-11" points="200.8 168.45 200.8 171.48 197.76 171.48 197.76 168.45 198.81 169.5 199.75 169.5 200.8 168.45"/>
        <line class="cls-11" x1="199.75" y1="169.5" x2="199.75" y2="170.43"/>
        <line class="cls-11" x1="199.75" y1="170.43" x2="200.8" y2="171.48"/>
        <line class="cls-11" x1="198.81" y1="170.43" x2="199.75" y2="170.43"/>
        <line class="cls-11" x1="198.81" y1="170.43" x2="197.76" y2="171.48"/>
        <line class="cls-11" x1="198.81" y1="170.43" x2="198.81" y2="169.5"/>
        <line class="cls-11" x1="197.76" y1="168.45" x2="200.8" y2="168.45"/>
        <polygon class="cls-11" points="82.62 123.36 82.62 122.99 81.78 122.99 80.21 125.08 78.64 122.99 77.8 122.99 77.8 123.36 79.65 125.83 77.8 128.3 77.8 128.66 78.64 128.66 80.21 126.57 81.78 128.66 82.62 128.66 82.62 128.3 80.77 125.83 82.62 123.36"/>
        <rect class="cls-11" x="88.57" y="128.01" width=".89" height=".65"/>
        <line class="cls-11" x1="121.25" y1="123.36" x2="121.25" y2="122.99"/>
        <line class="cls-11" x1="121.01" y1="123.64" x2="121.25" y2="123.36"/>
        <line class="cls-11" x1="118.98" y1="123.64" x2="121.01" y2="123.64"/>
        <path class="cls-11" d="m118.42,124.21c0-.33.24-.57.56-.57"/>
        <line class="cls-11" x1="118.42" y1="124.69" x2="118.42" y2="124.21"/>
        <path class="cls-11" d="m118.9,125.26c-.28-.06-.48-.28-.48-.57"/>
        <line class="cls-11" x1="120.44" y1="125.62" x2="118.9" y2="125.26"/>
        <path class="cls-11" d="m121.49,126.88c0-.69-.4-1.1-1.05-1.26"/>
        <line class="cls-11" x1="121.49" y1="127.45" x2="121.49" y2="126.88"/>
        <path class="cls-11" d="m120.12,128.66c.9,0,1.37-.48,1.37-1.21"/>
        <line class="cls-11" x1="117.53" y1="128.66" x2="120.12" y2="128.66"/>
        <line class="cls-11" x1="117.53" y1="128.01" x2="117.53" y2="128.66"/>
        <line class="cls-11" x1="120.04" y1="128.01" x2="117.53" y2="128.01"/>
        <path class="cls-11" d="m120.6,127.45c0,.32-.24.56-.56.56"/>
        <line class="cls-11" x1="120.6" y1="126.88" x2="120.6" y2="127.45"/>
        <path class="cls-11" d="m120.12,126.31c.28.07.48.29.48.57"/>
        <line class="cls-11" x1="118.58" y1="125.95" x2="120.12" y2="126.31"/>
        <path class="cls-11" d="m117.53,124.69c0,.69.4,1.1,1.05,1.26"/>
        <line class="cls-11" x1="117.53" y1="124.21" x2="117.53" y2="124.69"/>
        <path class="cls-11" d="m118.9,122.99c-.9,0-1.37.48-1.37,1.22"/>
        <line class="cls-11" x1="121.25" y1="122.99" x2="118.9" y2="122.99"/>
        <path class="cls-11" d="m152.97,122.99c-.89,0-1.37.48-1.37,1.22"/>
        <line class="cls-11" x1="155.44" y1="122.99" x2="152.97" y2="122.99"/>
        <line class="cls-11" x1="155.44" y1="123.36" x2="155.44" y2="122.99"/>
        <line class="cls-11" x1="155.2" y1="123.64" x2="155.44" y2="123.36"/>
        <line class="cls-11" x1="153.06" y1="123.64" x2="155.2" y2="123.64"/>
        <path class="cls-11" d="m152.49,124.21c0-.33.24-.57.57-.57"/>
        <line class="cls-11" x1="152.49" y1="127.45" x2="152.49" y2="124.21"/>
        <path class="cls-11" d="m153.06,128.01c-.33,0-.57-.24-.57-.56"/>
        <line class="cls-11" x1="155.44" y1="128.01" x2="153.06" y2="128.01"/>
        <line class="cls-11" x1="155.44" y1="128.66" x2="155.44" y2="128.01"/>
        <line class="cls-11" x1="152.97" y1="128.66" x2="155.44" y2="128.66"/>
        <path class="cls-11" d="m151.6,127.45c0,.73.48,1.21,1.37,1.21"/>
        <line class="cls-11" x1="151.6" y1="124.21" x2="151.6" y2="127.45"/>
        <polygon class="cls-11" points="174.53 125.46 173.44 125.46 173.44 122.99 172.54 122.99 172.54 128.66 173.44 128.66 173.44 126.11 174.53 126.11 175.95 128.66 176.8 128.66 176.8 128.26 175.26 125.79 176.63 123.4 176.63 122.99 175.78 122.99 174.53 125.46"/>
        <path class="cls-11" d="m205.36,123.56c.33,0,.57.24.57.57"/>
        <line class="cls-11" x1="204.07" y1="123.56" x2="205.36" y2="123.56"/>
        <path class="cls-11" d="m203.5,124.13c0-.33.25-.57.57-.57"/>
        <line class="cls-11" x1="203.5" y1="127.53" x2="203.5" y2="124.13"/>
        <path class="cls-11" d="m204.07,128.09c-.32,0-.57-.24-.57-.56"/>
        <line class="cls-11" x1="205.36" y1="128.09" x2="204.07" y2="128.09"/>
        <path class="cls-11" d="m205.93,127.53c0,.32-.24.56-.57.56"/>
        <line class="cls-11" x1="205.93" y1="124.13" x2="205.93" y2="127.53"/>
        <line class="cls-11" x1="206.82" y1="127.53" x2="206.82" y2="124.13"/>
        <path class="cls-11" d="m205.45,128.74c.9,0,1.37-.48,1.37-1.21"/>
        <line class="cls-11" x1="203.99" y1="128.74" x2="205.45" y2="128.74"/>
        <path class="cls-11" d="m202.61,127.53c0,.73.48,1.21,1.38,1.21"/>
        <line class="cls-11" x1="202.61" y1="124.13" x2="202.61" y2="127.53"/>
        <path class="cls-11" d="m203.99,122.91c-.9,0-1.38.48-1.38,1.22"/>
        <line class="cls-11" x1="205.45" y1="122.91" x2="203.99" y2="122.91"/>
        <path class="cls-11" d="m206.82,124.13c0-.09-.01-.18-.02-.26-.1-.59-.56-.96-1.35-.96"/>
        <path class="cls-11" d="m223.85,125.26c0,.31-.26.57-.57.57"/>
        <line class="cls-11" x1="223.85" y1="124.21" x2="223.85" y2="125.26"/>
        <path class="cls-11" d="m223.28,123.64c.32,0,.57.24.57.57"/>
        <line class="cls-11" x1="221.58" y1="123.64" x2="223.28" y2="123.64"/>
        <line class="cls-11" x1="221.58" y1="125.83" x2="221.58" y2="123.64"/>
        <line class="cls-11" x1="223.28" y1="125.83" x2="221.58" y2="125.83"/>
        <line class="cls-11" x1="220.69" y1="128.66" x2="221.58" y2="128.66"/>
        <line class="cls-11" x1="220.69" y1="122.99" x2="220.69" y2="128.66"/>
        <line class="cls-11" x1="223.36" y1="122.99" x2="220.69" y2="122.99"/>
        <path class="cls-11" d="m224.74,124.21c0-.46-.19-.82-.55-1.03-.21-.12-.49-.19-.83-.19"/>
        <line class="cls-11" x1="224.74" y1="125.26" x2="224.74" y2="124.21"/>
        <path class="cls-11" d="m224.17,126.19c.28-.16.57-.44.57-.93"/>
        <path class="cls-11" d="m223.6,126.39c.21-.04.4-.1.57-.2"/>
        <line class="cls-11" x1="224.94" y1="128.26" x2="223.6" y2="126.39"/>
        <line class="cls-11" x1="224.94" y1="128.66" x2="224.94" y2="128.26"/>
        <line class="cls-11" x1="224.09" y1="128.66" x2="224.94" y2="128.66"/>
        <line class="cls-11" x1="222.71" y1="126.48" x2="224.09" y2="128.66"/>
        <line class="cls-11" x1="221.58" y1="126.48" x2="222.71" y2="126.48"/>
        <line class="cls-11" x1="221.58" y1="128.66" x2="221.58" y2="126.48"/>
        <line class="cls-11" x1="198.33" y1="126.15" x2="198.33" y2="123.64"/>
        <line class="cls-11" x1="200.03" y1="126.15" x2="198.33" y2="126.15"/>
        <path class="cls-11" d="m200.59,125.58c0,.33-.24.57-.56.57"/>
        <line class="cls-11" x1="200.59" y1="124.21" x2="200.59" y2="125.58"/>
        <path class="cls-11" d="m200.03,123.64c.32,0,.56.24.56.57"/>
        <line class="cls-11" x1="198.33" y1="123.64" x2="200.03" y2="123.64"/>
        <line class="cls-11" x1="197.44" y1="128.66" x2="198.33" y2="128.66"/>
        <line class="cls-11" x1="197.44" y1="122.99" x2="197.44" y2="128.66"/>
        <line class="cls-11" x1="200.11" y1="122.99" x2="197.44" y2="122.99"/>
        <path class="cls-11" d="m201.48,124.21c0-.74-.47-1.22-1.37-1.22"/>
        <line class="cls-11" x1="201.48" y1="125.58" x2="201.48" y2="124.21"/>
        <path class="cls-11" d="m200.11,126.8c.9,0,1.37-.48,1.37-1.22"/>
        <line class="cls-11" x1="198.33" y1="126.8" x2="200.11" y2="126.8"/>
        <line class="cls-11" x1="198.33" y1="128.66" x2="198.33" y2="126.8"/>
        <polygon class="cls-11" points="161.02 128.01 161.02 122.99 160.13 122.99 160.13 128.66 163.82 128.66 163.82 128.01 161.02 128.01"/>
        <path class="cls-11" d="m105.29,127.45c0,.32-.24.56-.57.56"/>
        <line class="cls-11" x1="105.29" y1="124.21" x2="105.29" y2="127.45"/>
        <path class="cls-11" d="m104.72,123.64c.33,0,.57.24.57.57"/>
        <line class="cls-11" x1="102.94" y1="123.64" x2="104.72" y2="123.64"/>
        <line class="cls-11" x1="102.94" y1="128.01" x2="102.94" y2="123.64"/>
        <line class="cls-11" x1="104.72" y1="128.01" x2="102.94" y2="128.01"/>
        <line class="cls-11" x1="102.05" y1="128.66" x2="104.8" y2="128.66"/>
        <line class="cls-11" x1="102.05" y1="122.99" x2="102.05" y2="128.66"/>
        <line class="cls-11" x1="104.8" y1="122.99" x2="102.05" y2="122.99"/>
        <path class="cls-11" d="m106.18,124.21c0-.74-.48-1.22-1.38-1.22"/>
        <line class="cls-11" x1="106.18" y1="127.45" x2="106.18" y2="124.21"/>
        <path class="cls-11" d="m104.8,128.66c.67,0,1.11-.27,1.29-.71.06-.15.09-.32.09-.5"/>
        <path class="cls-11" d="m115.29,135.04c.15-.18.23-.37.23-.51"/>
        <line class="cls-11" x1="115.52" y1="134.13" x2="115.52" y2="134.53"/>
        <path class="cls-11" d="m114.95,133.56c.33,0,.57.25.57.57"/>
        <line class="cls-11" x1="112.89" y1="133.56" x2="114.95" y2="133.56"/>
        <line class="cls-11" x1="112.65" y1="133.28" x2="112.89" y2="133.56"/>
        <line class="cls-11" x1="112.65" y1="132.91" x2="112.65" y2="133.28"/>
        <line class="cls-11" x1="115.04" y1="132.91" x2="112.65" y2="132.91"/>
        <path class="cls-11" d="m116.41,134.13c0-.74-.48-1.22-1.37-1.22"/>
        <line class="cls-11" x1="116.41" y1="134.53" x2="116.41" y2="134.13"/>
        <path class="cls-11" d="m116.06,135.39c.17-.23.35-.54.35-.86"/>
        <path class="cls-11" d="m115.72,135.79c.12-.11.24-.25.34-.4"/>
        <line class="cls-11" x1="113.7" y1="137.89" x2="115.72" y2="135.79"/>
        <line class="cls-11" x1="113.7" y1="137.93" x2="113.7" y2="137.89"/>
        <line class="cls-11" x1="116.41" y1="137.93" x2="113.7" y2="137.93"/>
        <line class="cls-11" x1="116.41" y1="138.58" x2="116.41" y2="137.93"/>
        <line class="cls-11" x1="112.57" y1="138.58" x2="116.41" y2="138.58"/>
        <line class="cls-11" x1="112.57" y1="137.97" x2="112.57" y2="138.58"/>
        <line class="cls-11" x1="115.07" y1="135.3" x2="112.57" y2="137.97"/>
        <path class="cls-11" d="m115.29,135.04c-.06.09-.13.18-.22.26"/>
        <polygon class="cls-11" points="83.19 123.36 83.19 123.64 85.15 123.64 85.15 128.66 86.04 128.66 86.04 123.64 88 123.64 88 122.99 83.19 122.99 83.19 123.36"/>
        <polygon class="cls-11" points="73.47 122.99 73.47 128.66 77.23 128.66 77.23 128.01 74.36 128.01 74.36 126.15 76.5 126.15 76.5 125.5 74.36 125.5 74.36 123.64 76.99 123.64 77.23 123.36 77.23 122.99 73.47 122.99"/>
        <line class="cls-11" x1="92.91" y1="123.64" x2="94.61" y2="123.64"/>
        <line class="cls-11" x1="92.91" y1="126.15" x2="92.91" y2="123.64"/>
        <line class="cls-11" x1="94.61" y1="126.15" x2="92.91" y2="126.15"/>
        <path class="cls-11" d="m95.18,125.58c0,.33-.24.57-.57.57"/>
        <line class="cls-11" x1="95.18" y1="124.21" x2="95.18" y2="125.58"/>
        <path class="cls-11" d="m94.61,123.64c.33,0,.57.24.57.57"/>
        <line class="cls-11" x1="94.69" y1="122.99" x2="92.02" y2="122.99"/>
        <path class="cls-11" d="m96.07,124.21c0-.74-.48-1.22-1.38-1.22"/>
        <line class="cls-11" x1="96.07" y1="125.58" x2="96.07" y2="124.21"/>
        <path class="cls-11" d="m94.69,126.8c.9,0,1.38-.48,1.38-1.22"/>
        <line class="cls-11" x1="92.91" y1="126.8" x2="94.69" y2="126.8"/>
        <line class="cls-11" x1="92.91" y1="128.66" x2="92.91" y2="126.8"/>
        <line class="cls-11" x1="92.02" y1="128.66" x2="92.91" y2="128.66"/>
        <line class="cls-11" x1="92.02" y1="122.99" x2="92.02" y2="128.66"/>
        <polygon class="cls-11" points="115.04 128.66 116.45 128.66 116.45 128.01 113.66 128.01 113.66 122.99 112.77 122.99 112.77 128.66 115.04 128.66"/>
        <line class="cls-11" x1="149.5" y1="125.62" x2="147.96" y2="125.26"/>
        <path class="cls-11" d="m150.55,126.88c0-.69-.4-1.1-1.05-1.26"/>
        <line class="cls-11" x1="150.55" y1="127.45" x2="150.55" y2="126.88"/>
        <path class="cls-11" d="m149.18,128.66c.89,0,1.37-.48,1.37-1.21"/>
        <line class="cls-11" x1="146.58" y1="128.66" x2="149.18" y2="128.66"/>
        <line class="cls-11" x1="146.58" y1="128.01" x2="146.58" y2="128.66"/>
        <line class="cls-11" x1="149.09" y1="128.01" x2="146.58" y2="128.01"/>
        <path class="cls-11" d="m149.66,127.45c0,.32-.24.56-.57.56"/>
        <line class="cls-11" x1="149.66" y1="126.88" x2="149.66" y2="127.45"/>
        <path class="cls-11" d="m149.18,126.31c.28.07.48.29.48.57"/>
        <line class="cls-11" x1="147.64" y1="125.95" x2="149.18" y2="126.31"/>
        <path class="cls-11" d="m146.58,124.69c0,.69.41,1.1,1.06,1.26"/>
        <line class="cls-11" x1="146.58" y1="124.21" x2="146.58" y2="124.69"/>
        <path class="cls-11" d="m147.96,122.99c-.9,0-1.38.48-1.38,1.22"/>
        <line class="cls-11" x1="150.31" y1="122.99" x2="147.96" y2="122.99"/>
        <line class="cls-11" x1="150.31" y1="123.36" x2="150.31" y2="122.99"/>
        <line class="cls-11" x1="150.07" y1="123.64" x2="150.31" y2="123.36"/>
        <line class="cls-11" x1="148.04" y1="123.64" x2="150.07" y2="123.64"/>
        <path class="cls-11" d="m147.47,124.21c0-.33.25-.57.57-.57"/>
        <line class="cls-11" x1="147.47" y1="124.69" x2="147.47" y2="124.21"/>
        <path class="cls-11" d="m147.96,125.26c-.28-.06-.49-.28-.49-.57"/>
        <polygon class="cls-11" points="167.85 128.66 167.85 125.66 167.73 124.29 167.77 124.29 170.12 128.66 171.09 128.66 171.09 122.99 170.2 122.99 170.2 125.99 170.32 127.37 170.28 127.37 167.94 122.99 166.96 122.99 166.96 128.66 167.85 128.66"/>
        <polygon class="cls-11" points="144.62 97.48 145.79 93.55 145.83 93.55 147.01 97.48 148.22 97.48 149.35 92.22 149.35 91.81 148.5 91.81 147.57 96.59 147.53 96.59 146.4 92.7 145.23 92.7 144.09 96.59 144.05 96.59 143.12 91.81 142.27 91.81 142.27 92.22 143.4 97.48 144.62 97.48"/>
        <polygon class="cls-11" points="157 48.5 157 47.51 158.44 47.51 158.44 48.23 158.03 48.5 157 48.5"/>
        <polygon class="cls-11" points="157 49.02 158.04 49.02 158.47 49.28 158.47 50.13 157 50.13 157 49.02"/>
        <line class="cls-11" x1="159.2" y1="50.36" x2="159.2" y2="49.32"/>
        <path class="cls-11" d="m158.85,50.71c.22,0,.35-.13.35-.35"/>
        <line class="cls-11" x1="156.28" y1="50.71" x2="158.85" y2="50.71"/>
        <line class="cls-11" x1="156.28" y1="46.94" x2="156.28" y2="50.71"/>
        <line class="cls-11" x1="158.83" y1="46.94" x2="156.28" y2="46.94"/>
        <path class="cls-11" d="m159.17,47.29c0-.22-.13-.35-.34-.35"/>
        <line class="cls-11" x1="159.17" y1="48.2" x2="159.17" y2="47.29"/>
        <path class="cls-11" d="m158.98,48.54c.14-.08.19-.17.19-.34"/>
        <line class="cls-11" x1="158.6" y1="48.76" x2="158.98" y2="48.54"/>
        <line class="cls-11" x1="159" y1="48.98" x2="158.6" y2="48.76"/>
        <path class="cls-11" d="m159.2,49.32c0-.18-.06-.26-.2-.34"/>
        <polygon class="cls-11" points="137.9 49.24 136.86 46.94 136.12 46.94 136.12 50.71 136.83 50.71 136.83 48.67 137.62 50.32 138.17 50.32 138.96 48.67 138.96 50.71 139.67 50.71 139.67 46.94 138.93 46.94 137.9 49.24"/>
        <line class="cls-11" x1="141.95" y1="35.76" x2="142.38" y2="28.92"/>
        <path class="cls-11" d="m141.47,35.61c.2.05.31.12.48.15"/>
        <line class="cls-11" x1="141.16" y1="35.51" x2="141.47" y2="35.61"/>
        <line class="cls-11" x1="141.58" y1="29.01" x2="141.16" y2="35.51"/>
        <path class="cls-11" d="m142.38,28.92c-.3.02-.53.06-.8.09"/>
        <path class="cls-11" d="m138.14,28.97c2.55-.59,4.5-.86,7.1-1.01"/>
        <path class="cls-11" d="m137.69,34.89c.1-1.98.25-3.95.45-5.92"/>
        <path class="cls-11" d="m142.59,36.67c-1.88-.47-4.71-1.7-4.9-1.78"/>
        <line class="cls-11" x1="143.68" y1="36.02" x2="142.59" y2="36.67"/>
        <line class="cls-11" x1="145.24" y1="36.02" x2="143.68" y2="36.02"/>
        <line class="cls-11" x1="145.24" y1="42.62" x2="145.24" y2="36.02"/>
        <line class="cls-11" x1="136.14" y1="37.68" x2="145.24" y2="42.62"/>
        <line class="cls-11" x1="137.19" y1="27.01" x2="136.14" y2="37.68"/>
        <line class="cls-11" x1="145.24" y1="22.36" x2="137.19" y2="27.01"/>
        <line class="cls-11" x1="145.24" y1="27.96" x2="145.24" y2="22.36"/>
        <rect class="cls-11" x="133.28" y="46.94" width=".73" height="3.77"/>
        <path class="cls-11" d="m151.31,50.36c0,.22.13.35.35.35"/>
        <line class="cls-11" x1="151.31" y1="46.94" x2="151.31" y2="50.36"/>
        <line class="cls-11" x1="152.04" y1="46.94" x2="151.31" y2="46.94"/>
        <line class="cls-11" x1="152.04" y1="50.1" x2="152.04" y2="46.94"/>
        <line class="cls-11" x1="153.56" y1="50.1" x2="152.04" y2="50.1"/>
        <line class="cls-11" x1="153.56" y1="46.94" x2="153.56" y2="50.1"/>
        <line class="cls-11" x1="154.29" y1="46.94" x2="153.56" y2="46.94"/>
        <line class="cls-11" x1="154.29" y1="50.36" x2="154.29" y2="46.94"/>
        <path class="cls-11" d="m153.95,50.71c.21,0,.34-.13.34-.35"/>
        <line class="cls-11" x1="151.66" y1="50.71" x2="153.95" y2="50.71"/>
        <polygon class="cls-11" points="151.29 96.83 151.29 94.97 153.44 94.97 153.44 94.32 151.29 94.32 151.29 92.46 153.92 92.46 154.16 92.18 154.16 91.81 150.4 91.81 150.4 97.48 154.16 97.48 154.16 96.83 151.29 96.83"/>
        <path class="cls-11" d="m140.41,96.35c0,.32-.24.56-.56.56"/>
        <line class="cls-11" x1="140.41" y1="92.95" x2="140.41" y2="96.35"/>
        <path class="cls-11" d="m139.85,92.38c.32,0,.56.24.56.57"/>
        <line class="cls-11" x1="138.55" y1="92.38" x2="139.85" y2="92.38"/>
        <path class="cls-11" d="m137.98,92.95c0-.33.25-.57.57-.57"/>
        <line class="cls-11" x1="137.98" y1="96.35" x2="137.98" y2="92.95"/>
        <path class="cls-11" d="m138.55,96.91c-.32,0-.57-.24-.57-.56"/>
        <line class="cls-11" x1="139.85" y1="96.91" x2="138.55" y2="96.91"/>
        <line class="cls-11" x1="141.31" y1="96.35" x2="141.31" y2="92.95"/>
        <path class="cls-11" d="m139.93,97.56c.9,0,1.38-.48,1.38-1.21"/>
        <line class="cls-11" x1="138.47" y1="97.56" x2="139.93" y2="97.56"/>
        <path class="cls-11" d="m137.09,96.35c0,.73.48,1.21,1.38,1.21"/>
        <line class="cls-11" x1="137.09" y1="92.95" x2="137.09" y2="96.35"/>
        <path class="cls-11" d="m138.47,91.73c-.9,0-1.38.48-1.38,1.22"/>
        <line class="cls-11" x1="139.93" y1="91.73" x2="138.47" y2="91.73"/>
        <path class="cls-11" d="m141.31,92.95c0-.74-.48-1.22-1.38-1.22"/>
        <polygon class="cls-11" points="163.79 47.55 163.79 46.94 161.18 46.94 161.18 50.71 163.82 50.71 163.82 50.1 161.91 50.1 161.91 49.08 163.01 49.08 163.01 48.5 161.91 48.5 161.91 47.55 163.79 47.55"/>
        <line class="cls-11" x1="142" y1="50.71" x2="144.29" y2="50.71"/>
        <path class="cls-11" d="m141.66,50.36c0,.22.12.35.34.35"/>
        <line class="cls-11" x1="141.66" y1="46.94" x2="141.66" y2="50.36"/>
        <line class="cls-11" x1="142.38" y1="46.94" x2="141.66" y2="46.94"/>
        <line class="cls-11" x1="142.38" y1="50.1" x2="142.38" y2="46.94"/>
        <line class="cls-11" x1="143.9" y1="50.1" x2="142.38" y2="50.1"/>
        <line class="cls-11" x1="143.9" y1="46.94" x2="143.9" y2="50.1"/>
        <line class="cls-11" x1="144.63" y1="46.94" x2="143.9" y2="46.94"/>
        <line class="cls-11" x1="144.63" y1="50.36" x2="144.63" y2="46.94"/>
        <path class="cls-11" d="m144.29,50.71c.21,0,.34-.13.34-.35"/>
        <path class="cls-11" d="m140.55,29.12c-.35.05-.61.09-.85.13"/>
        <line class="cls-11" x1="140.13" y1="35.25" x2="140.55" y2="29.12"/>
        <line class="cls-11" x1="139.31" y1="34.95" x2="140.13" y2="35.25"/>
        <line class="cls-11" x1="139.7" y1="29.25" x2="139.31" y2="34.95"/>
        <path class="cls-11" d="m153.22,29.01c.19,1.97.34,3.94.45,5.92"/>
        <path class="cls-11" d="m146.1,27.97c2.6.14,4.57.45,7.12,1.04"/>
        <polyline class="cls-11" points="146.1 22.36 146.1 27.96 146.1 27.97"/>
        <line class="cls-11" x1="154.15" y1="27.01" x2="146.1" y2="22.36"/>
        <line class="cls-11" x1="155.2" y1="37.68" x2="154.15" y2="27.01"/>
        <line class="cls-11" x1="146.1" y1="42.62" x2="155.2" y2="37.68"/>
        <line class="cls-11" x1="146.1" y1="36.02" x2="146.1" y2="42.62"/>
        <line class="cls-11" x1="147.66" y1="36.02" x2="146.1" y2="36.02"/>
        <line class="cls-11" x1="148.75" y1="36.67" x2="147.66" y2="36.02"/>
        <path class="cls-11" d="m153.67,34.93c-.13.05-3.05,1.27-4.92,1.74"/>
        <line class="cls-11" x1="130.45" y1="50.14" x2="129.07" y2="50.14"/>
        <line class="cls-11" x1="130.45" y1="49.5" x2="130.45" y2="50.14"/>
        <line class="cls-11" x1="128.52" y1="48.51" x2="130.45" y2="49.5"/>
        <path class="cls-11" d="m128.35,48.19c0,.16.04.25.17.32"/>
        <line class="cls-11" x1="128.35" y1="47.29" x2="128.35" y2="48.19"/>
        <path class="cls-11" d="m128.69,46.94c-.21,0-.34.13-.34.35"/>
        <line class="cls-11" x1="130.84" y1="46.94" x2="128.69" y2="46.94"/>
        <path class="cls-11" d="m131.18,47.28c0-.21-.13-.34-.34-.34"/>
        <line class="cls-11" x1="131.18" y1="48.28" x2="131.18" y2="47.28"/>
        <line class="cls-11" x1="130.45" y1="48.02" x2="131.18" y2="48.28"/>
        <line class="cls-11" x1="130.45" y1="47.51" x2="130.45" y2="48.02"/>
        <line class="cls-11" x1="129.07" y1="47.51" x2="130.45" y2="47.51"/>
        <line class="cls-11" x1="129.07" y1="48.08" x2="129.07" y2="47.51"/>
        <line class="cls-11" x1="131" y1="49.06" x2="129.07" y2="48.08"/>
        <path class="cls-11" d="m131.18,49.38c0-.16-.05-.25-.18-.32"/>
        <line class="cls-11" x1="131.18" y1="50.36" x2="131.18" y2="49.38"/>
        <path class="cls-11" d="m130.84,50.71c.21,0,.34-.13.34-.35"/>
        <line class="cls-11" x1="128.69" y1="50.71" x2="130.84" y2="50.71"/>
        <path class="cls-11" d="m128.35,50.36c0,.22.13.35.34.35"/>
        <line class="cls-11" x1="128.35" y1="49.26" x2="128.35" y2="50.36"/>
        <line class="cls-11" x1="129.07" y1="49.55" x2="128.35" y2="49.26"/>
        <line class="cls-11" x1="129.07" y1="50.14" x2="129.07" y2="49.55"/>
        <polygon class="cls-11" points="147.12 48.78 147.61 47.62 149.27 47.62 149.26 46.88 147.13 46.88 146.31 48.78 147.13 50.69 149.29 50.69 149.29 49.95 147.61 49.95 147.12 48.78"/>
        <line class="cls-11" x1="156.06" y1="92.46" x2="157.76" y2="92.46"/>
        <line class="cls-11" x1="156.06" y1="94.65" x2="156.06" y2="92.46"/>
        <line class="cls-11" x1="157.76" y1="94.65" x2="156.06" y2="94.65"/>
        <path class="cls-11" d="m158.33,94.08c0,.32-.24.57-.57.57"/>
        <line class="cls-11" x1="158.33" y1="93.03" x2="158.33" y2="94.08"/>
        <path class="cls-11" d="m157.76,92.46c.33,0,.57.24.57.57"/>
        <line class="cls-11" x1="157.19" y1="95.29" x2="158.57" y2="97.48"/>
        <line class="cls-11" x1="156.06" y1="95.29" x2="157.19" y2="95.29"/>
        <line class="cls-11" x1="156.06" y1="97.48" x2="156.06" y2="95.29"/>
        <line class="cls-11" x1="155.17" y1="97.48" x2="156.06" y2="97.48"/>
        <line class="cls-11" x1="155.17" y1="91.81" x2="155.17" y2="97.48"/>
        <line class="cls-11" x1="157.84" y1="91.81" x2="155.17" y2="91.81"/>
        <path class="cls-11" d="m159.22,93.03c0-.74-.48-1.22-1.38-1.22"/>
        <line class="cls-11" x1="159.22" y1="94.08" x2="159.22" y2="93.03"/>
        <path class="cls-11" d="m158.65,95.01c.29-.16.57-.44.57-.93"/>
        <path class="cls-11" d="m158.09,95.21c.21-.04.39-.1.56-.2"/>
        <line class="cls-11" x1="159.42" y1="97.07" x2="158.09" y2="95.21"/>
        <line class="cls-11" x1="159.42" y1="97.48" x2="159.42" y2="97.07"/>
        <line class="cls-11" x1="158.57" y1="97.48" x2="159.42" y2="97.48"/>
        <path class="cls-11" d="m134.51,92.46c.32,0,.57.24.57.57"/>
        <line class="cls-11" x1="132.81" y1="92.46" x2="134.51" y2="92.46"/>
        <line class="cls-11" x1="132.81" y1="94.97" x2="132.81" y2="92.46"/>
        <line class="cls-11" x1="134.51" y1="94.97" x2="132.81" y2="94.97"/>
        <path class="cls-11" d="m135.08,94.4c0,.33-.25.57-.57.57"/>
        <line class="cls-11" x1="135.08" y1="93.03" x2="135.08" y2="94.4"/>
        <line class="cls-11" x1="135.97" y1="94.4" x2="135.97" y2="93.03"/>
        <path class="cls-11" d="m134.59,95.62c.9,0,1.38-.48,1.38-1.22"/>
        <line class="cls-11" x1="132.81" y1="95.62" x2="134.59" y2="95.62"/>
        <line class="cls-11" x1="132.81" y1="97.48" x2="132.81" y2="95.62"/>
        <line class="cls-11" x1="131.92" y1="97.48" x2="132.81" y2="97.48"/>
        <line class="cls-11" x1="131.92" y1="91.81" x2="131.92" y2="97.48"/>
        <line class="cls-11" x1="134.59" y1="91.81" x2="131.92" y2="91.81"/>
        <path class="cls-11" d="m135.97,93.03c0-.74-.48-1.22-1.38-1.22"/>
        <polygon class="cls-11" points="80.84 132.91 79.46 133.24 79.46 133.64 80.6 133.64 80.6 138.58 81.49 138.58 81.49 132.91 80.84 132.91"/>
        <polygon class="cls-11" points="101.04 128.66 101.04 128.01 98.17 128.01 98.17 126.15 100.32 126.15 100.32 125.5 98.17 125.5 98.17 123.64 100.8 123.64 101.04 123.36 101.04 122.99 97.28 122.99 97.28 125.58 97.28 128.66 101.04 128.66"/>
        <polygon class="cls-11" points="110.3 126.64 108.48 126.64 109.37 123.8 109.41 123.8 110.3 126.64"/>
        <polygon class="cls-11" points="106.98 128.26 106.98 128.66 107.83 128.66 108.28 127.28 110.51 127.28 110.95 128.66 111.8 128.66 111.8 128.26 109.98 122.99 108.81 122.99 106.98 128.26"/>
        <rect class="cls-11" x="155.76" y="125.75" width="3.32" height=".64"/>
        <rect class="cls-11" x="164.62" y="122.99" width=".89" height="5.67"/>
        <polygon class="cls-11" points="219.68 128.66 219.68 128.01 216.81 128.01 216.81 126.15 218.95 126.15 218.95 125.5 216.81 125.5 216.81 123.64 219.44 123.64 219.68 123.36 219.68 122.99 215.92 122.99 215.92 123.4 215.92 128.66 219.68 128.66"/>
        <polygon class="cls-11" points="214.87 123.4 214.87 122.99 214.02 122.99 213.09 127.77 213.05 127.77 211.92 123.88 210.74 123.88 209.57 127.77 208.64 122.99 207.79 122.99 207.79 123.4 207.84 123.65 208.92 128.66 210.14 128.66 211.31 124.73 211.35 124.73 212.53 128.66 213.74 128.66 214.87 123.4"/>
        <line class="cls-11" x1="188.76" y1="150.45" x2="188.76" y2="178.59"/>
        <path class="cls-11" d="m188.76,178.59c0,1.25,1.01,2.26,2.27,2.26"/>
        <line class="cls-11" x1="191.03" y1="180.85" x2="231.35" y2="180.85"/>
        <path class="cls-11" d="m231.35,180.85c1.25,0,2.26-1.01,2.26-2.26"/>
        <line class="cls-11" x1="233.61" y1="178.59" x2="233.61" y2="150.45"/>
        <path class="cls-11" d="m233.61,150.45c0-1.25-1.01-2.26-2.26-2.26"/>
        <line class="cls-11" x1="231.35" y1="148.19" x2="220.01" y2="148.19"/>
        <path class="cls-11" d="m219.44,147.62c0,.31.26.57.57.57"/>
        <line class="cls-11" x1="219.44" y1="147.62" x2="219.44" y2="134.86"/>
        <path class="cls-11" d="m219.44,134.86c0-1.25-1.01-2.26-2.26-2.26"/>
        <polyline class="cls-11" points="217.18 132.6 205.45 132.6 205.2 132.6"/>
        <path class="cls-11" d="m205.2,132.6c-1.25,0-2.27,1.01-2.27,2.26"/>
        <line class="cls-11" x1="202.93" y1="134.86" x2="202.93" y2="147.62"/>
        <path class="cls-11" d="m202.37,148.19c.31,0,.56-.26.56-.57"/>
        <line class="cls-11" x1="202.37" y1="148.19" x2="191.03" y2="148.19"/>
        <path class="cls-11" d="m191.03,148.19c-1.26,0-2.27,1.01-2.27,2.26"/>
        <polyline class="cls-11" points="136.43 140.96 136.43 178.59 136.43 179.58"/>
        <path class="cls-11" d="m138.69,138.69c-1.25,0-2.26,1.01-2.26,2.27"/>
        <line class="cls-11" x1="184.69" y1="138.69" x2="138.69" y2="138.69"/>
        <path class="cls-11" d="m186.95,140.96c0-1.26-1.01-2.27-2.26-2.27"/>
        <polyline class="cls-11" points="186.95 179.58 186.95 178.59 186.95 140.96"/>
        <path class="cls-11" d="m184.69,181.84c1.25,0,2.26-1.01,2.26-2.26"/>
        <line class="cls-11" x1="138.69" y1="181.84" x2="184.69" y2="181.84"/>
        <path class="cls-11" d="m136.43,179.58c0,1.25,1.01,2.26,2.26,2.26"/>
        <path class="cls-11" d="m165.26,186.2c0-2.21-1.79-4-4-4s-4,1.79-4,4,1.79,4.01,4,4.01,4-1.8,4-4.01Z"/>
        <path class="cls-11" d="m70.59,118.01l17.36-10.03c1.14-.66,2.44-1,3.75-1h107.94c1.31,0,2.61.34,3.75,1l22.18,12.81,6.06,3.5c2.32,1.34,3.76,3.82,3.76,6.5v49.99c0,2.45-1.2,4.75-3.21,6.15l-26.77,18.75c-1.27.88-2.77,1.36-4.31,1.36h-110.86c-1.54,0-3.04-.48-4.31-1.36l-26.77-18.75c-2.01-1.4-3.21-3.7-3.21-6.15v-49.99c0-2.68,1.44-5.16,3.76-6.5l10.88-6.28Z"/>
        <path class="cls-11" d="m62.86,141.1c-1.25,0-2.26,1.01-2.26,2.27"/>
        <polyline class="cls-11" points="132.1 141.1 112.57 141.1 80.6 141.1 62.86 141.1"/>
        <path class="cls-11" d="m134.37,143.37c0-1.26-1.02-2.27-2.27-2.27"/>
        <line class="cls-11" x1="134.37" y1="178.59" x2="134.37" y2="143.37"/>
        <path class="cls-11" d="m132.1,180.85c1.25,0,2.27-1.01,2.27-2.26"/>
        <line class="cls-11" x1="62.86" y1="180.85" x2="132.1" y2="180.85"/>
        <path class="cls-11" d="m60.6,178.59c0,1.25,1.01,2.26,2.26,2.26"/>
        <line class="cls-11" x1="60.6" y1="143.37" x2="60.6" y2="178.59"/>
        <path class="cls-11" d="m199.64,105.64h-107.94c-1.55,0-3.07.41-4.42,1.19l-28.24,16.3c-2.73,1.58-4.42,4.5-4.42,7.66v49.99c0,2.88,1.41,5.59,3.77,7.24l26.78,18.75c1.49,1.04,3.26,1.6,5.07,1.6h110.86c1.81,0,3.58-.56,5.07-1.6l26.78-18.75c2.36-1.65,3.77-4.36,3.77-7.24v-49.99c0-3.16-1.69-6.08-4.42-7.66l-28.24-16.3c-1.35-.78-2.87-1.19-4.42-1.19Z"/>
        <path class="cls-11" d="m91.7,103.74h107.94c1.88,0,3.73.5,5.37,1.44l28.24,16.31c3.32,1.92,5.37,5.46,5.37,9.3v49.99c0,3.5-1.71,6.79-4.58,8.8l-26.78,18.75c-1.8,1.26-3.96,1.94-6.16,1.94h-110.86c-2.2,0-4.36-.68-6.16-1.94l-26.78-18.75c-2.87-2.01-4.58-5.3-4.58-8.8v-49.99c0-3.84,2.05-7.38,5.37-9.3l28.24-16.31c1.64-.94,3.49-1.44,5.37-1.44Z"/>
        <circle class="cls-11" cx="145.67" cy="74.8" r="12.68"/>
        <circle class="cls-11" cx="145.67" cy="74.8" r="11.4"/>
        <line class="cls-11" x1="283.3" y1="228.89" x2="8.04" y2="228.89"/>
        <line class="cls-11" x1="283.3" y1="213.21" x2="283.3" y2="228.89"/>
        <path class="cls-11" d="m282.84,212.11c.29.29.46.69.46,1.1"/>
        <line class="cls-11" x1="266.32" y1="195.58" x2="282.84" y2="212.11"/>
        <path class="cls-11" d="m265.21,195.13c.42,0,.82.16,1.11.45"/>
        <line class="cls-11" x1="256.22" y1="195.13" x2="265.21" y2="195.13"/>
        <path class="cls-11" d="m243.61,182.52c0,4.35,2.21,8.19,5.56,10.46,2.02,1.36,4.44,2.15,7.05,2.15"/>
        <line class="cls-11" x1="243.61" y1="39.76" x2="243.61" y2="182.52"/>
        <path class="cls-11" d="m243.47,39.8s.02-.01.03-.01c.02-.01.05-.02.07-.03h.04"/>
        <path class="cls-11" d="m235.39,20.29c-5.76,1.33-9.35,7.08-8.03,12.84,1.33,5.76,7.08,9.35,12.84,8.03,1.16-.27,2.26-.73,3.27-1.36"/>
        <path class="cls-11" d="m235.52,20.22l-.03.03s-.04.02-.07.03c-.01.01-.02.01-.03.01"/>
        <line class="cls-11" x1="224.63" y1="9.33" x2="235.52" y2="20.22"/>
        <path class="cls-11" d="m221.52,8.04c1.17,0,2.28.46,3.11,1.29"/>
        <line class="cls-11" x1="69.82" y1="8.04" x2="221.52" y2="8.04"/>
        <path class="cls-11" d="m66.71,9.33c.83-.83,1.94-1.29,3.11-1.29"/>
        <line class="cls-11" x1="55.82" y1="20.22" x2="66.71" y2="9.33"/>
        <path class="cls-11" d="m55.95,20.29s-.02,0-.03-.01c-.03,0-.05-.02-.07-.03l-.03-.03"/>
        <path class="cls-11" d="m47.87,39.8c5.01,3.14,11.62,1.61,14.75-3.4,3.14-5.01,1.61-11.62-3.4-14.75-1.01-.63-2.11-1.09-3.27-1.36"/>
        <path class="cls-11" d="m47.73,39.76h.04s.05.02.07.03c.01,0,.02.01.03.01"/>
        <line class="cls-11" x1="47.73" y1="182.52" x2="47.73" y2="39.76"/>
        <path class="cls-11" d="m35.12,195.13c2.17,0,4.22-.55,6.01-1.52,3.93-2.14,6.6-6.31,6.6-11.09"/>
        <line class="cls-11" x1="26.13" y1="195.13" x2="35.12" y2="195.13"/>
        <path class="cls-11" d="m25.02,195.58c.29-.29.69-.45,1.11-.45"/>
        <line class="cls-11" x1="8.5" y1="212.11" x2="25.02" y2="195.58"/>
        <path class="cls-11" d="m8.04,213.21c0-.41.17-.81.46-1.1"/>
        <line class="cls-11" x1="8.04" y1="228.89" x2="8.04" y2="213.21"/>
        <path class="cls-11" d="m44.31,193.78c-2.62,1.96-4.31,5.07-4.31,8.58,0,5.91,4.8,10.71,10.71,10.71s10.71-4.8,10.71-10.71c0-3.51-1.69-6.62-4.31-8.58-1.78-1.33-4-2.12-6.4-2.12s-4.62.79-6.4,2.12Z"/>
        <path class="cls-11" d="m232.96,191.96l1.84-1.29c3.23-2.26,5.15-5.95,5.15-9.89v-49.99c0-4.31-2.3-8.3-6.04-10.46l-28.24-16.3c-1.83-1.06-3.91-1.62-6.03-1.62h-107.94c-2.12,0-4.2.56-6.03,1.62l-28.24,16.3c-3.74,2.16-6.04,6.15-6.04,10.46v49.99c0,3.94,1.92,7.63,5.15,9.89l1.84,1.29,24.93,17.46c2.03,1.42,4.45,2.18,6.93,2.18h110.86c2.48,0,4.9-.76,6.93-2.18l24.93-17.46Z"/>
        <path class="cls-11" d="m234.23,193.78c-2.62,1.96-4.31,5.07-4.31,8.58,0,5.91,4.8,10.71,10.71,10.71s10.71-4.8,10.71-10.71c0-3.88-2.07-7.27-5.16-9.15-1.62-.98-3.51-1.55-5.55-1.55-2.4,0-4.62.79-6.4,2.12Z"/>
        <path class="cls-11" d="m7.03,228.89c0,.61.46,1.12,1.01,1.13"/>
        <path class="cls-11" d="m283.3,230.02c.55-.01,1-.52,1.01-1.13"/>
        <line class="cls-11" x1="8.04" y1="230.02" x2="283.3" y2="230.02"/>
        <line class="cls-11" x1="7.03" y1="213.21" x2="7.03" y2="228.89"/>
        <line class="cls-11" x1="284.31" y1="228.89" x2="284.31" y2="213.21"/>
        <path class="cls-11" d="m284.31,213.21c0-.68-.27-1.34-.75-1.82"/>
        <line class="cls-11" x1="283.56" y1="211.39" x2="267.04" y2="194.87"/>
        <path class="cls-11" d="m267.04,194.87c-.49-.49-1.14-.76-1.83-.76"/>
        <line class="cls-11" x1="265.21" y1="194.11" x2="256.22" y2="194.11"/>
        <path class="cls-11" d="m256.22,194.11c-6.4,0-11.59-5.19-11.59-11.59"/>
        <line class="cls-11" x1="244.63" y1="182.52" x2="244.63" y2="39.85"/>
        <path class="cls-11" d="m244.63,39.85c.14-.43.27-.87.4-1.31"/>
        <path class="cls-11" d="m248.08,33.47c-.52,1.94-1.58,3.7-3.05,5.07"/>
        <path class="cls-11" d="m245.98,33.15c-.46,1.74-1.41,3.32-2.72,4.55"/>
        <path class="cls-11" d="m246.27,30.2c.06.99-.04,1.99-.29,2.95"/>
        <path class="cls-11" d="m248.34,30.14c.06,1.12-.03,2.24-.26,3.33"/>
        <path class="cls-11" d="m236.73,21.93c1.8-.06,3.58.39,5.13,1.29"/>
        <path class="cls-11" d="m237.38,20.09c2.01-.08,4,.42,5.74,1.42"/>
        <path class="cls-11" d="m243.12,21.51c.94.61,1.8,1.34,2.55,2.17"/>
        <path class="cls-11" d="m241.87,23.22c.85.5,1.63,1.14,2.29,1.88"/>
        <path class="cls-11" d="m244.16,25.1c1.27,1.41,2.02,3.21,2.11,5.1"/>
        <path class="cls-11" d="m245.67,23.68c1.64,1.76,2.59,4.05,2.67,6.46"/>
        <path class="cls-11" d="m237.38,20.09c-.4-.23-.8-.44-1.2-.65"/>
        <line class="cls-11" x1="236.18" y1="19.44" x2="225.35" y2="8.61"/>
        <path class="cls-11" d="m225.35,8.61c-1.02-1.01-2.4-1.59-3.83-1.59"/>
        <line class="cls-11" x1="221.52" y1="7.02" x2="69.82" y2="7.02"/>
        <path class="cls-11" d="m69.82,7.02c-1.43,0-2.81.58-3.83,1.59"/>
        <line class="cls-11" x1="65.99" y1="8.61" x2="55.16" y2="19.44"/>
        <path class="cls-11" d="m55.16,19.44c-.4.21-.8.42-1.2.65"/>
        <path class="cls-11" d="m48.22,21.51c1.74-1,3.73-1.5,5.74-1.42"/>
        <path class="cls-11" d="m49.48,23.22c1.55-.9,3.33-1.35,5.13-1.29"/>
        <path class="cls-11" d="m47.18,25.1c.66-.74,1.44-1.38,2.29-1.88"/>
        <path class="cls-11" d="m45.67,23.68c.75-.83,1.61-1.56,2.55-2.17"/>
        <path class="cls-11" d="m48.08,37.7c-1.31-1.23-2.26-2.81-2.72-4.55"/>
        <path class="cls-11" d="m46.31,38.54c-1.47-1.37-2.53-3.13-3.05-5.07"/>
        <path class="cls-11" d="m43.26,33.47c-.23-1.09-.32-2.21-.26-3.33"/>
        <path class="cls-11" d="m45.36,33.15c-.25-.96-.35-1.96-.29-2.95"/>
        <path class="cls-11" d="m45.07,30.2c.09-1.89.84-3.69,2.11-5.1"/>
        <path class="cls-11" d="m43,30.14c.08-2.41,1.03-4.7,2.67-6.46"/>
        <path class="cls-11" d="m46.31,38.54c.13.44.26.88.4,1.31"/>
        <line class="cls-11" x1="46.71" y1="39.85" x2="46.71" y2="182.52"/>
        <path class="cls-11" d="m46.71,182.52c0,6.4-5.19,11.59-11.59,11.59"/>
        <line class="cls-11" x1="35.12" y1="194.11" x2="26.13" y2="194.11"/>
        <path class="cls-11" d="m26.13,194.11c-.69,0-1.34.27-1.83.76"/>
        <line class="cls-11" x1="24.3" y1="194.87" x2="7.78" y2="211.39"/>
        <path class="cls-11" d="m7.78,211.39c-.48.48-.75,1.14-.75,1.82"/>
        <path class="cls-11" d="m243.26,37.7c-1.27.99-2.79,1.62-4.39,1.82-4.86.59-9.28-2.87-9.87-7.73-.59-4.85,2.87-9.27,7.73-9.86"/>
        <path class="cls-11" d="m54.61,21.93c1.61.2,3.12.82,4.39,1.82,3.86,3.02,4.53,8.58,1.52,12.43-3.02,3.86-8.58,4.53-12.44,1.52"/>
        <circle class="cls-11" cx="50.71" cy="202.36" r="8.53"/>
        <rect class="cls-11" x="172.38" y="168.88" width="9.81" height="4.14"/>
        <rect class="cls-11" x="141.2" y="168.88" width="9.8" height="4.14"/>
        <path class="cls-11" d="m1.39,230.71s-.09-.01-.13-.01c-.07,0-.14-.03-.22-.05-.12-.04-.24-.1-.36-.19-.12-.1-.22-.21-.29-.34-.04-.08-.08-.16-.1-.25s-.04-.18-.04-.27H.25"/>
        <path class="cls-11" d="m291.09,229.59h0c-.01.15-.04.29-.09.42-.06.14-.14.26-.24.36-.11.11-.23.19-.36.24-.08.04-.15.06-.22.07-.04.01-.08.02-.11.02-.04,0-.08.01-.12.01h-.06"/>
        <line class="cls-11" x1="230.75" y1="177.33" x2="230.75" y2="151.82"/>
        <line class="cls-11" x1="139.01" y1="139.86" x2="184.37" y2="139.86"/>
        <line class="cls-11" x1="185.79" y1="141.27" x2="185.79" y2="179.26"/>
        <line class="cls-11" x1="137.6" y1="141.27" x2="137.6" y2="179.26"/>
        <polygon class="cls-11" points="237.09 204.41 240.63 206.45 244.17 204.41 244.17 200.32 240.63 198.27 237.09 200.32 237.09 204.41"/>
        <circle class="cls-11" cx="240.63" cy="202.36" r="7.37"/>
        <circle class="cls-11" cx="240.63" cy="202.36" r="8.53"/>
        <circle class="cls-11" cx="240.63" cy="202.36" r="4.4"/>
        <path class="cls-11" d="m232.84,202.36c0-4.3,3.49-7.79,7.79-7.79s7.8,3.49,7.8,7.79-3.49,7.8-7.8,7.8-7.79-3.49-7.79-7.8Z"/>
        <line class="cls-11" x1="72.46" y1="168.71" x2="73.9" y2="168.71"/>
        <line class="cls-11" x1="75.34" y1="168.71" x2="76.78" y2="168.71"/>
        <line class="cls-11" x1="78.22" y1="168.71" x2="79.66" y2="168.71"/>
        <line class="cls-11" x1="81.1" y1="168.71" x2="82.54" y2="168.71"/>
        <line class="cls-11" x1="83.98" y1="168.71" x2="85.42" y2="168.71"/>
        <line class="cls-11" x1="86.86" y1="168.71" x2="88.3" y2="168.71"/>
        <line class="cls-11" x1="106.66" y1="168.71" x2="108.1" y2="168.71"/>
        <line class="cls-11" x1="109.54" y1="168.71" x2="110.98" y2="168.71"/>
        <line class="cls-11" x1="112.42" y1="168.71" x2="113.86" y2="168.71"/>
        <line class="cls-11" x1="115.3" y1="168.71" x2="116.74" y2="168.71"/>
        <line class="cls-11" x1="118.18" y1="168.71" x2="119.62" y2="168.71"/>
        <line class="cls-11" x1="121.06" y1="168.71" x2="122.5" y2="168.71"/>
        <line class="cls-11" x1="122.5" y1="168.71" x2="122.5" y2="178.07"/>
        <line class="cls-11" x1="121.06" y1="168.71" x2="121.06" y2="178.07"/>
        <line class="cls-11" x1="119.62" y1="168.71" x2="119.62" y2="178.07"/>
        <line class="cls-11" x1="118.18" y1="168.71" x2="118.18" y2="178.07"/>
        <line class="cls-11" x1="116.74" y1="168.71" x2="116.74" y2="178.07"/>
        <line class="cls-11" x1="115.3" y1="168.71" x2="115.3" y2="178.07"/>
        <line class="cls-11" x1="113.86" y1="168.71" x2="113.86" y2="178.07"/>
        <line class="cls-11" x1="112.42" y1="168.71" x2="112.42" y2="178.07"/>
        <line class="cls-11" x1="110.98" y1="168.71" x2="110.98" y2="178.07"/>
        <line class="cls-11" x1="109.54" y1="168.71" x2="109.54" y2="178.07"/>
        <line class="cls-11" x1="108.1" y1="168.71" x2="108.1" y2="178.07"/>
        <line class="cls-11" x1="106.66" y1="168.71" x2="106.66" y2="178.07"/>
        <line class="cls-11" x1="88.3" y1="168.71" x2="88.3" y2="178.07"/>
        <line class="cls-11" x1="86.86" y1="168.71" x2="86.86" y2="178.07"/>
        <line class="cls-11" x1="85.42" y1="168.71" x2="85.42" y2="178.07"/>
        <line class="cls-11" x1="83.98" y1="168.71" x2="83.98" y2="178.07"/>
        <line class="cls-11" x1="82.54" y1="168.71" x2="82.54" y2="178.07"/>
        <line class="cls-11" x1="81.1" y1="168.71" x2="81.1" y2="178.07"/>
        <line class="cls-11" x1="79.66" y1="168.71" x2="79.66" y2="178.07"/>
        <line class="cls-11" x1="78.22" y1="168.71" x2="78.22" y2="178.07"/>
        <line class="cls-11" x1="76.78" y1="168.71" x2="76.78" y2="178.07"/>
        <line class="cls-11" x1="75.34" y1="168.71" x2="75.34" y2="178.07"/>
        <line class="cls-11" x1="73.9" y1="168.71" x2="73.9" y2="178.07"/>
        <line class="cls-11" x1="72.46" y1="168.71" x2="72.46" y2="178.07"/>
      </g>
    </g>
  </g>
</svg>