<?xml version="1.0" encoding="UTF-8"?>
<svg id="Layer_2" data-name="Layer 2" xmlns="http://www.w3.org/2000/svg" viewBox="0 0 506.3 956.95">
  <defs>
    <style>
      .cls-1, .cls-2 {
        stroke-width: .75px;
      }

      .cls-1, .cls-2, .cls-3, .cls-4, .cls-5, .cls-6 {
        stroke: #fff;
      }

      .cls-1, .cls-2, .cls-4 {
        stroke-miterlimit: 10;
      }

      .cls-1, .cls-5, .cls-6 {
        stroke-linecap: round;
      }

      .cls-1, .cls-7 {
        fill: #e84e0f;
      }

      .cls-8 {
        fill: #848484;
      }

      .cls-8, .cls-9, .cls-10, .cls-11, .cls-12, .cls-13, .cls-14, .cls-15, .cls-16, .cls-17, .cls-18, .cls-19, .cls-20, .cls-21, .cls-22, .cls-23, .cls-24, .cls-25, .cls-26, .cls-7, .cls-27, .cls-28 {
        stroke-width: 0px;
      }

      .cls-2, .cls-4, .cls-6 {
        fill: none;
      }

      .cls-9, .cls-21 {
        fill-rule: evenodd;
      }

      .cls-3, .cls-15, .cls-5, .cls-21 {
        fill: #fff;
      }

      .cls-11 {
        fill: #b7b7b7;
      }

      .cls-12 {
        fill: #dc2c2c;
      }

      .cls-13 {
        fill: #e75125;
      }

      .cls-4, .cls-6 {
        stroke-width: 2px;
      }

      .cls-14 {
        fill: #ccc;
      }

      .cls-5 {
        stroke-width: 6.76px;
      }

      .cls-5, .cls-6 {
        stroke-linejoin: round;
      }

      .cls-16 {
        fill: #969696;
      }

      .cls-17 {
        fill: #f60;
      }

      .cls-18 {
        fill: #3d3d3d;
      }

      .cls-19 {
        fill: #ffeae3;
      }

      .cls-20 {
        fill: #4c4c4c;
      }

      .cls-22 {
        fill: #575757;
      }

      .cls-23 {
        fill: #a5a5a5;
      }

      .cls-24 {
        fill: #a8a8a8;
      }

      .cls-25 {
        fill: #6d6e6e;
      }

      .cls-26 {
        fill: #f4e9d7;
      }

      .cls-27 {
        fill: #1e1e1e;
      }

      .cls-28 {
        fill: #303030;
      }
    </style>
  </defs>
  <g id="First_use">
    <g>
      <g>
        <path class="cls-18" d="m286.16,521.98l.09,7.79c0,.26-.16.5-.4.58l-110.08,39.98c-.09.03-.18.04-.27.03-.08-.01-.15-.16-.16-.38l-.09-7.8c0-.34.1-.7.29-1.01l6.51-10.62c.19-.31.45-.54.73-.64l3.59-1.3c1.11-.4,2.12-1.26,2.91-2.36l1.44.42c-.59.63-1.11,1.43-1.49,2.34-1.23,2.94-.6,6.01,1.42,6.86,2.01.85,4.65-.85,5.88-3.8,1.19-2.82.66-5.76-1.17-6.74l.54-1.07,10.06,5.05c.82.42,1.79.44,2.78.08l44.34-16.1c.99-.36,1.95-1.09,2.75-2.09l10.6-13.21c1.28-1.59,2.03-3.7,2-5.66l-.28-24.86,1.67-.02.24,20.56h0s.03,2.96.03,2.96v.38s.02,1.13.02,1.13c0,.2,0,.39.03.58s.05.38.08.56c.04.18.08.35.13.52s.1.32.17.48c.06.15.13.29.21.43.84,1.5,2.39,2.05,4.06,1.45l3.6-1.31c.27-.1.53-.06.73.11l6.7,5.82c.07.06.13.13.17.21.11.2.17.42.17.65Zm-13.68,2.51c1.24-2.94.6-6.01-1.41-6.86-2.02-.85-4.65.85-5.89,3.8-1.24,2.94-.6,6.01,1.41,6.86,2.02.84,4.66-.86,5.89-3.8Z"/>
        <path class="cls-18" d="m283.42,516.75l2.57,4.58c-.04-.08-.1-.15-.17-.21l-6.7-5.82c-.2-.17-.46-.21-.73-.11l-3.6,1.31-4.69-5.15v-.38s3.33-1.21,3.33-1.21c.65-.23,1.28-.25,1.83-.06.31.09.59.25.84.46l6.7,5.82c.24.21.45.47.62.77Z"/>
        <path class="cls-18" d="m275.26,509.69h0c-.55-.18-1.18-.16-1.83.07l-3.34,1.21-.03-2.95c.05,0,.1.02.15.03s.1.03.15.04l4.9,1.6Z"/>
        <path class="cls-18" d="m270.1,511.35l4.69,5.15c-1.67.6-3.22.05-4.06-1.45-.08-.14-.15-.28-.21-.43-.07-.16-.12-.31-.17-.48s-.09-.34-.13-.52c-.03-.18-.06-.37-.08-.56s-.03-.38-.03-.58v-1.13Z"/>
        <path class="cls-27" d="m271.07,517.63c2.01.85,2.65,3.92,1.41,6.86-1.23,2.94-3.87,4.64-5.89,3.8-2.01-.85-2.65-3.92-1.41-6.86,1.24-2.95,3.87-4.65,5.89-3.8Z"/>
        <path class="cls-18" d="m269.29,441.55l.53,45.9-1.67.02c-.03-2.14-.97-3.79-2.48-4.32l-11.38-4.01c-.75-.26-1.58-.23-2.43.08l-2.07.75-41.09,14.92c-.85.31-1.68.89-2.41,1.68l-11.19,12.21c-1.49,1.61-2.38,3.93-2.36,6.07l.25,21.36.04,3.5c0,.2.01.39.03.58,0,.04.01.07.01.11.18,1.63.93,2.9,2.08,3.48l.75.38-.54,1.07c-.08-.05-.16-.09-.24-.12-1.39-.59-3.08.04-4.4,1.46l-1.44-.42c1.03-1.43,1.68-3.29,1.66-5.09l-.82-70.94c.21.01.43-.02.63-.09t.02-.01h.04c2.02.84,4.65-.88,5.88-3.83,1.22-2.95.36-5.94-1.45-6.84-.86-.43-2.21-.07-2.21-.07l4.62-7.49c.4-.65.95-1.14,1.52-1.35l60.66-22.02c.58-.21,1.13-.13,1.54.23l4.4,3.81c.03.05.05.11.06.17.01.08,0,.16-.02.25-.02.05-.04.11-.07.16-.02.02-.03.04-.05.05-2.3,1.5-3.7,4.88-3.14,7.55l.03.12c.6,2.58,2.89,3.49,5.15,2.01.46-.3.9-.69,1.3-1.15h.01s.02-.03.03-.03c0-.01,0-.01.02-.01.04-.01.08-.03.11-.05.05-.02.08-.05.09-.08Zm-31.31,32.46c.2-2.12-.61-3.79-1.97-4.35-.03-.02-.07-.03-.1-.04l-2.34-.99c-.41-.63-.97-1.07-1.62-1.29-.22-.08-.46-.12-.7-.14-.29,0-.59.01-.9.08-.15.03-.29.07-.44.12-.46.16-.93.41-1.38.75-.45.33-.89.75-1.28,1.24-.4.49-.75,1.04-1.05,1.64-.29.59-.53,1.21-.69,1.85-.16.63-.25,1.26-.26,1.87s.05,1.19.18,1.71c.12.47.31.9.53,1.26h.01l.09.15c.3.43.66.75,1.07.95.61.32,1.32.4,2.06.26l2.44,1.02h0c.4.17.86.24,1.35.2,1.18-.11,2.4-.88,3.35-2.1.04-.04.08-.09.11-.13l.1-.13c.34-.46.64-.98.88-1.55.26-.63.43-1.27.51-1.88.01-.06.02-.11.02-.17.01-.11.03-.22.03-.33Z"/>
        <path class="cls-27" d="m269.63,437.52c.15-1.46-.35-2.73-1.38-3.16-1.39-.58-3.21.59-4.06,2.62-.85,2.02-.41,4.14.98,4.72.89.37,1.96.02,2.84-.82-.64.64-1.37,1.04-2.08,1.11-.37.03-.71-.02-1.01-.15-1.09-.46-1.69-1.86-1.42-3.6.35-2.23,1.99-4.15,3.68-4.3.32-.03.62,0,.9.11l.1.04c1.05.43,1.66,1.77,1.45,3.43Z"/>
        <path class="cls-27" d="m268.25,434.36c1.03.43,1.53,1.7,1.38,3.16,0,.07-.01.15-.04.23v.02c-.06.43-.18.88-.37,1.32-.1.25-.22.48-.35.7-.1.17-.21.33-.32.48l-.05.07c-.03.05-.07.09-.11.13-.12.15-.25.28-.38.41-.88.84-1.95,1.19-2.84.82-1.39-.58-1.83-2.7-.98-4.72.85-2.03,2.67-3.2,4.06-2.62Z"/>
        <path class="cls-18" d="m269.29,441.53v.02s-.04.06-.09.08c-.03.02-.07.04-.11.05-.01,0-.02,0-.02.01-.01,0-.02,0-.03.02h-.01c-.4.47-.84.86-1.3,1.16-2.26,1.48-4.55.57-5.15-2.01l2.34.99h0c.3.12.64.17,1.01.14.71-.07,1.44-.47,2.08-1.11.13-.13.26-.26.38-.41.04-.04.08-.08.11-.13l.05-.07c.11-.15.22-.31.32-.48.08.24.16.49.25.73.01.03.02.05.02.08h0c.05.29.09.57.14.85h0s.01.06.01.08Z"/>
        <path class="cls-18" d="m268.43,512.33c.03,1.96-.72,4.07-2,5.66-.14-.19-.4-.42-.65-.57l-2.34-1.41c-.25-.15-.51-.38-.65-.58.8-.99,1.26-2.3,1.25-3.52.24-.09.59-.11.87-.05l2.65.52c.29.05.64.03.87-.05Z"/>
        <path class="cls-18" d="m268.15,487.47l.28,24.86c-.23.08-.58.1-.87.05l-2.65-.52c-.28-.06-.63-.04-.87.05v-.82s-.29-24.03-.29-24.03c.24-.09.59-.11.87-.06l2.66.52c.28.06.63.04.87-.05Z"/>
        <path class="cls-27" d="m267.9,433.98l.18.07c-.28-.1-.58-.14-.9-.11-1.69.15-3.33,2.07-3.68,4.3-.27,1.74.33,3.14,1.42,3.6h0s-2.34-.98-2.34-.98l-.03-.12c-.56-2.67.84-6.05,3.14-7.55.02-.01.03-.03.05-.05l2.16.84Z"/>
        <path class="cls-18" d="m267.91,433.97h0s-2.16-.83-2.16-.83c.03-.05.05-.11.07-.16.02-.09.03-.17.02-.25,0-.06-.03-.12-.06-.17l-4.4-3.81c-.41-.36-.96-.44-1.54-.23l-60.66,22.02c-.57.21-1.12.7-1.52,1.35l-4.62,7.49c-.42-.16-1.1-.22-1.43-.22-.77-.02-1.47.04-2.09.17-.39.09-.76.2-1.08.35-.11.05-.21.1-.31.16-.09.05-.17.1-.25.16-.13.1-.24.21-.35.33-.14.15-.27.32-.38.49-.08.12-.15.25-.22.38-.59,1.12-.94,2.34-1.03,3.6-.02.22-.01.44.01.67.02.21.07.43.14.64.04.14.09.27.16.39.06.1.12.2.19.29.19.3.44.59.73.88.45.45,1.01.89,1.66,1.31.28.18.57.36.89.53.14.24.29.47.45.71l.82,70.94-7.62-1.08-.88-75.77c-.02-1.6.48-3.33,1.38-4.8l6.97-11.37c.9-1.47,2.14-2.56,3.43-3.02l60.66-22.03c.77-.28,1.53-.33,2.22-.15l.16.05c.39.12.76.33,1.09.62l7.18,6.23c.31.27.58.61.8,1l1.19,2.11c.18.32.31.66.39,1.02Z"/>
        <path class="cls-18" d="m268.15,487.47c-.24.09-.59.11-.87.05l-2.66-.52c-.28-.05-.63-.03-.87.06-.01-1.34-.6-2.36-1.54-2.69.12-.3.36-.51.6-.53l2.26-.16c.25-.02.49-.23.6-.53,1.51.53,2.45,2.18,2.48,4.32Z"/>
        <path class="cls-18" d="m266.43,517.99l-10.6,13.21c-.14-.19-.4-.42-.65-.57l-2.34-1.41c-.25-.15-.51-.38-.65-.57l10.6-13.22c.14.2.4.43.65.58l2.34,1.41c.25.15.51.38.65.57Z"/>
        <path class="cls-18" d="m254.29,479.14l11.38,4.01c-.11.3-.35.51-.6.53l-2.26.16c-.24.02-.48.23-.6.53l-12.41-4.37v-.03s2.06-.75,2.06-.75c.85-.31,1.68-.34,2.43-.08Z"/>
        <path class="cls-18" d="m264.04,511.91c.01,1.22-.45,2.53-1.25,3.52l-10.6,13.22c-.5.62-1.09,1.07-1.71,1.3l-44.33,16.1c-.62.22-1.22.2-1.73-.05l-11.36-5.71c-.02-.19-.03-.38-.03-.58l-.04-3.5h1.14c.01.62.42.97.92.79l27.69-10.05c.49-.19.89-.82.89-1.44h.83s0,.17,0,.17c.01.63.42.98.92.8l18.39-6.68c.5-.18.9-.83.89-1.45v-.75s.72-.01.72-.01c.01.62.42.98.92.8l16.13-5.86c.49-.18.89-.81.89-1.43h.71s.01.81.01.81Z"/>
        <path class="cls-18" d="m263.75,487.06l.28,24.03h-.71s0,0,0,0l-.16-13.99c0-.62-.42-.98-.92-.8l-4.54,1.65c-.12.04-.23-.05-.23-.2l-.07-6.34c-.01-.63-.42-.98-.92-.8l-4.79,1.74c-.5.18-.9.83-.89,1.45l.07,6.35c0,.15-.1.31-.22.36l-4.54,1.65c-.5.18-.9.83-.89,1.45l.16,13.99h-.73s-.21-18.45-.21-18.45c-.01-.62-.42-.98-.92-.79l-18.39,6.68c-.5.18-.9.83-.89,1.45l.22,19.02h-.83s0,0,0-.01l-.2-17.51c-.01-.62-.42-.98-.92-.8l-27.69,10.06c-.5.18-.9.83-.89,1.45l.2,17.51h-1.14s-.25-21.35-.25-21.35c-.02-2.14.87-4.46,2.36-6.07l11.19-12.21c.73-.79,1.56-1.37,2.41-1.68l41.09-14.92v.03s12.42,4.37,12.42,4.37c.94.33,1.53,1.35,1.54,2.69Z"/>
        <path class="cls-23" d="m263.32,511.08v.02c0,.62-.4,1.25-.89,1.43l-16.13,5.86c-.5.18-.91-.18-.92-.8l-.16-13.99c-.01-.62.39-1.27.89-1.45l4.54-1.65c.12-.05.22-.21.22-.36l-.07-6.35c-.01-.62.39-1.27.89-1.45l4.79-1.74c.5-.18.91.17.92.8l.07,6.34c0,.15.11.24.23.2l4.54-1.65c.5-.18.91.18.92.8l.16,13.99Z"/>
        <path class="cls-18" d="m255.18,530.63c.25.15.51.38.65.57-.8,1-1.76,1.73-2.75,2.09,0-.29-.15-.61-.35-.8l-1.9-1.74c-.21-.19-.35-.51-.35-.8.62-.23,1.21-.68,1.71-1.3.14.19.4.42.65.57l2.34,1.41Z"/>
        <path class="cls-18" d="m254.88,423.09l-60.66,22.03c-1.29.46-2.53,1.55-3.43,3.02l-6.97,11.37c-.9,1.47-1.4,3.2-1.38,4.8l.88,75.77-4.44-2.11v-.97s-.4-33.72-.4-33.72l-.09-7.13-.39-33.95c0-.3.01-.61.05-.92.12-1.11.49-2.24,1.06-3.25.05-.11.12-.21.18-.32l6.78-11.04.2-.33c.48-.79,1.07-1.46,1.71-1.96.47-.39.98-.68,1.49-.87l58.75-21.4.98-.36.76-.27s.05-.02.08-.02.06.01.09.02l4.75,1.61Z"/>
        <path class="cls-18" d="m253.08,533.29l-44.34,16.1c0-.29-.14-.61-.34-.8l-1.91-1.74c-.2-.19-.34-.51-.34-.8l44.33-16.1c0,.29.14.61.35.8l1.9,1.74c.2.19.34.51.35.8Z"/>
        <path class="cls-18" d="m248.22,422.11l-58.75,21.4c-.51.19-1.02.48-1.49.87l-.08-.1-40.85-17.15v-15.83h75.42l25.75,10.81Z"/>
        <path class="cls-23" d="m244.66,518.35c.01.62-.39,1.27-.89,1.45l-18.39,6.68c-.5.18-.91-.17-.92-.8v-.18l-.22-19.02c0-.62.39-1.27.89-1.45l18.39-6.68c.5-.19.91.17.92.79l.21,18.46v.75Z"/>
        <path class="cls-19" d="m236.01,469.66c1.36.56,2.17,2.23,1.97,4.35.09-1.76-.57-3.27-1.84-3.8-1.81-.76-4.18.77-5.3,3.42-1.11,2.65-.54,5.41,1.28,6.18,1.34.56,2.99-.13,4.21-1.61-.95,1.22-2.17,1.99-3.35,2.1-.49.04-.95-.03-1.35-.21-1.46-.61-2.28-2.5-1.92-4.85.47-2.99,2.69-5.58,4.96-5.78.45-.04.86.02,1.24.16.03.01.07.02.1.04Z"/>
        <path class="cls-19" d="m236.14,470.21c1.27.53,1.93,2.04,1.84,3.8,0,.11-.02.22-.03.33,0,.06,0,.11-.02.17-.08.61-.25,1.25-.51,1.88-.24.57-.54,1.09-.88,1.55l-.1.13s-.07.09-.11.13c-1.22,1.48-2.87,2.17-4.21,1.61-1.82-.77-2.39-3.53-1.28-6.18,1.12-2.65,3.49-4.18,5.3-3.42Z"/>
        <path class="cls-19" d="m233.57,468.63l2.34.99c-.38-.14-.79-.2-1.24-.16-2.27.2-4.49,2.79-4.96,5.78-.36,2.35.46,4.24,1.92,4.85h0s-2.44-1.01-2.44-1.01l-3.22-1.36h-.01c-.22-.36-.41-.79-.53-1.26-.13-.52-.19-1.1-.18-1.71s.1-1.24.26-1.87c.16-.64.4-1.26.69-1.85.3-.6.65-1.15,1.05-1.64.39-.49.83-.91,1.28-1.24.45-.34.92-.59,1.38-.75.15-.05.29-.09.44-.12l3.22,1.35Z"/>
        <path class="cls-23" d="m223.63,525.49v.02c0,.62-.4,1.25-.89,1.44l-27.69,10.05c-.5.18-.91-.17-.92-.8l-.2-17.51c-.01-.62.39-1.27.89-1.45l27.69-10.06c.5-.18.91.18.92.8l.2,17.51Z"/>
        <path class="cls-18" d="m208.4,548.59c.2.19.34.51.34.8-.99.36-1.96.34-2.78-.08.14-.29.12-.61-.04-.79l-1.46-1.73c-.16-.18-.18-.5-.04-.79.51.25,1.11.27,1.73.05,0,.29.14.61.34.8l1.91,1.74Z"/>
        <path class="cls-18" d="m205.92,548.52c.16.18.18.5.04.79l-10.06-5.05-.75-.38c.13-.29.11-.61-.04-.8l-2.04-2.68s-.01-.07-.01-.11l11.36,5.71c-.14.29-.12.61.04.79l1.46,1.73Z"/>
        <path class="cls-18" d="m195.24,459.45c1.81.9,2.67,3.89,1.45,6.84-1.23,2.95-3.86,4.67-5.88,3.84h-.01s-.02-.01-.03-.01-.01,0-.02.01c-.2.07-.42.1-.63.09-.16-.24-.31-.47-.45-.71-.32-.17-.61-.35-.89-.53-.65-.42-1.21-.86-1.66-1.31-.29-.29-.54-.58-.73-.88-.07-.09-.13-.19-.19-.29-.07-.12-.12-.25-.16-.39-.07-.21-.12-.43-.14-.64-.02-.23-.03-.45-.01-.67.09-1.26.44-2.48,1.03-3.6.07-.13.14-.26.22-.38.11-.17.24-.34.38-.49.11-.12.22-.23.35-.33.08-.06.16-.11.25-.16.1-.06.2-.11.31-.16.32-.15.69-.26,1.08-.35.62-.13,1.32-.19,2.09-.17.33,0,1.01.06,1.43.22,0,0,1.35-.36,2.21.07Zm.71,4.83c.21-1.66-.4-3-1.45-3.44l-.08-.03-1.95-.82c-1.23-.36-2.8-.05-3.54.36-.29.25-.55.53-.78.84l-.05.06c-.12.16-.23.33-.32.5-.77,1.34-1.03,2.99-.57,4.26.25.69.69,1.19,1.26,1.43l2.63,1.1.14.06c.3.13.64.18,1,.15.71-.07,1.43-.46,2.06-1.1.14-.12.26-.26.39-.4.05-.05.09-.1.13-.16l.05-.06c.26-.35.49-.75.67-1.19.22-.52.35-1.06.4-1.56h0Z"/>
        <path class="cls-27" d="m195.36,545.33c1.83.98,2.36,3.92,1.17,6.74-1.23,2.95-3.87,4.65-5.88,3.8-2.02-.85-2.65-3.92-1.42-6.86.38-.91.9-1.71,1.49-2.34,1.32-1.42,3.01-2.05,4.4-1.46.08.03.16.07.24.12Z"/>
        <path class="cls-27" d="m194.5,460.84c1.05.44,1.66,1.78,1.45,3.44h0c.16-1.46-.35-2.73-1.37-3.16-1.39-.58-3.21.59-4.06,2.61-.85,2.03-.41,4.14.98,4.73.88.37,1.94.02,2.81-.81-.63.64-1.35,1.03-2.06,1.1-.36.03-.7-.02-1-.15l-.14-.06c-.99-.51-1.54-1.88-1.28-3.55.34-2.22,1.99-4.15,3.68-4.3.33-.03.64,0,.92.12l.08.03Z"/>
        <path class="cls-27" d="m194.57,461.12c1.02.43,1.53,1.7,1.37,3.16-.05.5-.18,1.04-.4,1.56-.18.44-.41.84-.67,1.19l-.05.06c-.04.06-.08.11-.13.16-.13.14-.25.28-.39.4-.87.83-1.93,1.18-2.81.81-1.39-.59-1.83-2.7-.98-4.73.85-2.02,2.67-3.19,4.06-2.61Z"/>
        <path class="cls-27" d="m192.47,459.99l1.95.82c-.28-.11-.59-.15-.92-.12-1.69.15-3.34,2.08-3.68,4.3-.26,1.67.29,3.04,1.28,3.55l-2.63-1.1c-.57-.24-1.01-.74-1.26-1.43-.46-1.27-.2-2.92.57-4.26.09-.17.2-.34.32-.5l.05-.06c.23-.31.49-.59.78-.84.74-.41,2.31-.72,3.54-.36Z"/>
        <path class="cls-18" d="m190.94,541.16c.02,1.8-.63,3.66-1.66,5.09-.79,1.1-1.8,1.96-2.91,2.36l-4.95-5.43c1.07-.39,1.92-1.78,1.9-3.1l7.62,1.08Z"/>
        <path class="cls-18" d="m187.9,444.28l.08.1c-.64.5-1.23,1.17-1.71,1.96l-.2.33-.14-.09-38.88-16.32v-3.13l40.85,17.15Z"/>
        <path class="cls-18" d="m181.42,543.18l4.95,5.43-3.59,1.3c-.28.1-.54.33-.73.64l-6.51,10.62c-.19.31-.29.67-.29,1.01l.09,7.8c.01.22.08.37.16.38l-7.78-1.11h0s-.09-8.15-.09-8.15c-.02-1.23.36-2.55,1.06-3.68l6.51-10.62c.69-1.12,1.63-1.96,2.63-2.32l3.59-1.3Z"/>
        <path class="cls-18" d="m186.07,446.67l-6.78,11.04c-.06.11-.13.21-.18.32l-.15-.08-31.91-13.39v-14.3l38.88,16.32.14.09Z"/>
        <path class="cls-18" d="m183.32,540.08c.02,1.32-.83,2.71-1.9,3.1l-4.75-1.61c1.24-.45,2.23-2.06,2.21-3.6l4.44,2.11Z"/>
        <path class="cls-18" d="m181.42,543.18l-3.59,1.3c-1,.36-1.94,1.2-2.63,2.32l-6.51,10.62c-.7,1.13-1.08,2.45-1.06,3.68l.09,8.14-2.07-1.14c-.61-.34-1.15-.96-1.58-1.71-.5-.91-.82-2.02-.83-3.08l-.05-4.31c0-.13,0-.25.02-.38.05-1.01.38-2.08.95-3l.13-.21,5.86-9.56.52-.85c.36-.59.8-1.09,1.28-1.47.36-.29.74-.51,1.13-.65l3.59-1.31,4.75,1.61Z"/>
        <path class="cls-18" d="m178.96,457.95l.15.08c-.57,1.01-.94,2.14-1.06,3.25l-.15-.02-30.85-12.95v-3.75l31.91,13.39Z"/>
        <path class="cls-18" d="m178.88,537.97c.02,1.54-.97,3.15-2.21,3.6-.06-.02-.12-.02-.18,0l-1.74.63-27.7-11.63v-6.87l31.69,13.3h.13v.97Z"/>
        <polygon class="cls-18" points="178.48 503.28 178.87 537 178.74 537 147.05 523.7 147.05 490.14 178.35 503.28 178.48 503.28"/>
        <polygon class="cls-7" points="178.39 496.15 178.48 503.28 178.35 503.28 147.05 490.14 147.05 483.05 178.26 496.15 178.39 496.15"/>
        <path class="cls-18" d="m178,462.2l.39,33.95h-.13l-31.21-13.1v-34.74l30.85,12.95.15.02c-.04.31-.05.62-.05.92Z"/>
        <path class="cls-18" d="m174.75,542.2l-1.85.68s.11-.02.18,0c-.39.14-.77.36-1.13.65l-.08-.09-24.82-10.42v-2.45l27.7,11.63Z"/>
        <path class="cls-18" d="m171.87,543.44l.08.09c-.48.38-.92.88-1.28,1.47l-.52.85-.14-.08-22.96-9.63v-3.12l24.82,10.42Z"/>
        <polygon class="cls-18" points="170.15 545.85 164.29 555.41 164.15 555.32 147.05 548.14 147.05 536.14 170.01 545.77 170.15 545.85"/>
        <path class="cls-18" d="m164.29,555.41l-.13.21c-.57.92-.9,1.99-.95,3h-.15s-16.01-6.73-16.01-6.73v-3.75l17.1,7.18.14.09Z"/>
        <path class="cls-18" d="m164.07,566.39l-.1.05-16.92-7.1v-7.45l16.01,6.72h.15c-.02.14-.02.26-.02.39l.05,4.31c.01,1.06.33,2.17.83,3.08Z"/>
      </g>
      <g>
        <line class="cls-2" x1="225.97" y1="477.72" x2="229.19" y2="479.08"/>
        <line class="cls-2" x1="233.57" y1="468.63" x2="230.35" y2="467.28"/>
        <path class="cls-2" d="m231.63,480.09c-1.46-.61-2.28-2.5-1.92-4.85.47-2.99,2.69-5.58,4.96-5.78.45-.04.86.02,1.24.16"/>
        <path class="cls-2" d="m237.98,474.01c.09-1.76-.57-3.27-1.84-3.8-1.81-.76-4.18.77-5.3,3.42-1.11,2.65-.54,5.41,1.28,6.18,1.34.56,2.99-.13,4.21-1.61"/>
        <line class="cls-2" x1="268.08" y1="434.05" x2="267.9" y2="433.98"/>
        <path class="cls-2" d="m269.63,437.52c.21-1.66-.4-3-1.45-3.43l-.1-.04c-.28-.1-.58-.14-.9-.11-1.69.15-3.33,2.07-3.68,4.3-.27,1.74.33,3.14,1.42,3.6"/>
        <polyline class="cls-2" points="270.06 508.02 270.06 508.01 269.82 487.45"/>
        <path class="cls-2" d="m175.5,570.36c.09.01.18,0,.27-.03l110.08-39.98c.24-.08.4-.32.4-.58l-.09-7.79c0-.23-.06-.45-.17-.65"/>
        <path class="cls-2" d="m274.79,516.5l3.6-1.31c.27-.1.53-.06.73.11l6.7,5.82c.07.06.13.13.17.21l-2.57-4.58c-.17-.3-.38-.56-.62-.77l-6.7-5.82c-.25-.21-.53-.37-.84-.46"/>
        <line class="cls-2" x1="270.09" y1="510.97" x2="270.1" y2="511.35"/>
        <path class="cls-2" d="m270.09,510.97l3.34-1.21c.65-.23,1.28-.25,1.83-.06h0s-4.9-1.61-4.9-1.61c-.05,0-.1-.03-.15-.04s-.1-.03-.15-.03l.03,2.95Z"/>
        <path class="cls-2" d="m270.1,511.35v1.13c.01.2.02.39.04.58s.05.38.08.56c.04.18.08.35.13.52s.1.32.17.48c.06.15.13.29.21.43.84,1.5,2.39,2.05,4.06,1.45l-4.69-5.15Z"/>
        <path class="cls-2" d="m271.07,517.63c-2.02-.85-4.65.85-5.89,3.8-1.24,2.94-.6,6.01,1.41,6.86,2.02.84,4.66-.86,5.89-3.8,1.24-2.94.6-6.01-1.41-6.86Z"/>
        <polyline class="cls-2" points="268.15 487.47 269.82 487.45 269.29 441.55"/>
        <path class="cls-2" d="m195.15,543.88c-1.15-.58-1.9-1.85-2.08-3.48"/>
        <line class="cls-2" x1="195.36" y1="545.33" x2="195.9" y2="544.26"/>
        <line class="cls-2" x1="189.28" y1="546.25" x2="190.72" y2="546.67"/>
        <path class="cls-2" d="m262.58,440.86l-.03-.12c-.56-2.67.84-6.05,3.14-7.55.02-.01.03-.03.05-.05"/>
        <path class="cls-2" d="m237.98,474.01c0,.11-.02.22-.03.33,0,.06,0,.11-.02.17-.08.61-.25,1.25-.51,1.88-.24.57-.54,1.09-.88,1.55l-.1.13s-.07.09-.11.13c-.95,1.22-2.17,1.99-3.35,2.1-.49.04-.95-.03-1.35-.21h0s-2.44-1.01-2.44-1.01c-.74.14-1.45.06-2.06-.26-.41-.2-.77-.52-1.07-.95l-.09-.15h-.01c-.22-.36-.41-.79-.53-1.26-.13-.52-.19-1.1-.18-1.71s.1-1.24.26-1.87c.16-.64.4-1.26.69-1.85.3-.6.65-1.15,1.05-1.64.39-.49.83-.91,1.28-1.24.45-.34.92-.59,1.38-.75.15-.05.29-.09.44-.12.31-.07.61-.09.9-.08.24.02.48.06.7.14.65.22,1.21.66,1.62,1.29l2.34.99s.07.02.1.04c1.36.56,2.17,2.23,1.97,4.35Z"/>
        <path class="cls-2" d="m268.87,439.79c.13-.22.25-.45.35-.7.19-.44.31-.89.37-1.32v-.02c.03-.08.04-.16.04-.23.15-1.46-.35-2.73-1.38-3.16-1.39-.58-3.21.59-4.06,2.62-.85,2.02-.41,4.14.98,4.72.89.37,1.96.02,2.84-.82"/>
        <path class="cls-2" d="m268.87,439.79c-.1.17-.21.33-.32.48l-.05.07c-.03.05-.07.09-.11.13-.12.15-.25.28-.38.41-.64.64-1.37,1.04-2.08,1.11-.37.03-.71-.02-1.01-.15h0s-2.34-.98-2.34-.98c.6,2.58,2.89,3.49,5.15,2.01.46-.3.9-.69,1.3-1.15h.01s.02-.03.03-.03c0-.01,0-.01.02-.01.04-.01.08-.03.11-.05.05-.02.08-.05.09-.08v-.02s0-.05-.01-.07h0c-.05-.29-.09-.57-.14-.85h0s-.01-.06-.02-.09c-.09-.24-.17-.49-.25-.73Z"/>
        <path class="cls-2" d="m266.43,517.99c1.28-1.59,2.03-3.7,2-5.66"/>
        <path class="cls-2" d="m264.04,511.91c.24-.09.59-.11.87-.05l2.65.52c.29.05.64.03.87-.05l-.28-24.86"/>
        <path class="cls-2" d="m193.03,459.38l4.62-7.49c.4-.65.95-1.14,1.52-1.35l60.66-22.02c.58-.21,1.13-.13,1.54.23l4.4,3.81c.03.05.05.11.06.17.01.08,0,.16-.02.25-.02.05-.04.11-.07.16l2.16.84h0c-.08-.37-.21-.71-.39-1.03l-1.19-2.11c-.22-.39-.49-.73-.8-1l-7.18-6.23c-.33-.29-.7-.5-1.09-.62l-.16-.05c-.69-.18-1.45-.13-2.22.15"/>
        <line class="cls-2" x1="190.94" y1="541.16" x2="190.12" y2="470.22"/>
        <path class="cls-2" d="m263.75,487.06c.24-.09.59-.11.87-.06l2.66.52c.28.06.63.04.87-.05-.03-2.14-.97-3.79-2.48-4.32"/>
        <path class="cls-2" d="m255.83,531.2l10.6-13.21c-.14-.19-.4-.42-.65-.57l-2.34-1.41c-.25-.15-.51-.38-.65-.58"/>
        <path class="cls-2" d="m262.21,484.37c.12-.3.36-.51.6-.53l2.26-.16c.25-.02.49-.23.6-.53l-11.38-4.01c-.75-.26-1.58-.23-2.43.08l-2.07.75"/>
        <path class="cls-2" d="m192.99,536.21l.04,3.5c0,.2.01.39.03.58"/>
        <path class="cls-2" d="m223.63,525.51c0,.62-.4,1.25-.89,1.44l-27.69,10.05c-.5.18-.91-.17-.92-.8"/>
        <path class="cls-2" d="m244.65,517.6v.75c.02.62-.38,1.27-.88,1.45l-18.39,6.68c-.5.18-.91-.17-.92-.8v-.18"/>
        <path class="cls-2" d="m263.32,511.1c0,.62-.4,1.25-.89,1.43l-16.13,5.86c-.5.18-.91-.18-.92-.8"/>
        <path class="cls-2" d="m252.19,528.65l10.6-13.22c.8-.99,1.26-2.3,1.25-3.52v-.82"/>
        <path class="cls-2" d="m194.13,536.2l-.2-17.51c-.01-.62.39-1.27.89-1.45l27.69-10.06c.5-.18.91.18.92.8l.2,17.51v.02h.83s-.22-19.03-.22-19.03c0-.62.39-1.27.89-1.45l18.39-6.68c.5-.19.91.17.92.79l.21,18.46h.73s-.16-14-.16-14c-.01-.62.39-1.27.89-1.45l4.54-1.65c.12-.05.22-.21.22-.36l-.07-6.35c-.01-.62.39-1.27.89-1.45l4.79-1.74c.5-.18.91.17.92.8l.07,6.34c0,.15.11.24.23.2l4.54-1.65c.5-.18.91.18.92.8l.16,13.99v.02h.71s-.28-24.04-.28-24.04c-.01-1.34-.6-2.36-1.54-2.69l-12.41-4.37v-.03s-41.1,14.92-41.1,14.92c-.85.31-1.68.89-2.41,1.68l-11.19,12.21c-1.49,1.61-2.38,3.93-2.36,6.07l.25,21.36h1.14Z"/>
        <path class="cls-2" d="m253.08,533.29c.99-.36,1.95-1.09,2.75-2.09-.14-.19-.4-.42-.65-.57l-2.34-1.41c-.25-.15-.51-.38-.65-.57-.5.62-1.09,1.07-1.71,1.3"/>
        <path class="cls-2" d="m183.32,540.08l-.88-75.77c-.02-1.6.48-3.33,1.38-4.8l6.97-11.37c.9-1.47,2.14-2.56,3.43-3.02l60.66-22.03-4.75-1.61s-.06-.02-.09-.02-.06.01-.08.02l-.76.27-.98.36"/>
        <path class="cls-2" d="m208.74,549.39l44.34-16.1c0-.29-.15-.61-.35-.8l-1.9-1.74c-.21-.19-.35-.51-.35-.8l-44.33,16.1"/>
        <path class="cls-2" d="m187.98,444.38c.47-.39.98-.68,1.49-.87l58.75-21.4-25.75-10.81h-75.42v15.83"/>
        <path class="cls-2" d="m205.96,549.31c.82.42,1.79.44,2.78.08,0-.29-.14-.61-.34-.8l-1.91-1.74c-.2-.19-.34-.51-.34-.8-.62.22-1.22.2-1.73-.05"/>
        <path class="cls-2" d="m205.96,549.31c.14-.29.12-.61-.04-.79l-1.46-1.73c-.16-.18-.18-.5-.04-.79l-11.36-5.71s.01.07.01.11l2.04,2.68c.15.19.17.51.04.8l.75.38,10.06,5.05Z"/>
        <path class="cls-2" d="m190.12,470.22c.21.01.43-.02.63-.09t.02-.01h.04c2.02.84,4.65-.88,5.88-3.83,1.22-2.95.36-5.94-1.45-6.84-.86-.43-2.21-.07-2.21-.07-.42-.16-1.1-.22-1.43-.22-.77-.02-1.47.04-2.09.17-.39.09-.76.2-1.08.35-.11.05-.21.1-.31.16-.09.05-.17.1-.25.16-.13.1-.24.21-.35.33-.14.15-.27.32-.38.49-.08.12-.15.25-.22.38-.59,1.12-.94,2.34-1.03,3.6-.02.22-.01.44.01.67.02.21.07.43.14.64.04.14.09.27.16.39.06.1.12.2.19.29.19.3.44.59.73.88.45.45,1.01.89,1.66,1.31.28.18.57.36.89.53.14.24.29.47.45.71Z"/>
        <path class="cls-2" d="m190.72,546.67c-.59.63-1.11,1.43-1.49,2.34-1.23,2.94-.6,6.01,1.42,6.86,2.01.85,4.65-.85,5.88-3.8,1.19-2.82.66-5.76-1.17-6.74-.08-.05-.16-.09-.24-.12-1.39-.59-3.08.04-4.4,1.46Z"/>
        <path class="cls-2" d="m195.94,464.28h0c.21-1.66-.4-3-1.45-3.44l-.08-.03"/>
        <path class="cls-2" d="m191.1,468.54l.14.06c.3.13.64.18,1,.15.71-.07,1.43-.46,2.06-1.1"/>
        <path class="cls-2" d="m195.94,464.28c.16-1.46-.35-2.73-1.37-3.16-1.39-.58-3.21.59-4.06,2.61-.85,2.03-.41,4.14.98,4.73.88.37,1.94.02,2.81-.81.14-.12.26-.26.39-.4.05-.05.09-.1.13-.16l.05-.06c.26-.35.49-.75.67-1.19.22-.52.35-1.06.4-1.56Z"/>
        <path class="cls-2" d="m191.1,468.54c-.99-.51-1.54-1.88-1.28-3.55.34-2.22,1.99-4.15,3.68-4.3.33-.03.64,0,.92.12l-1.95-.82c-1.23-.36-2.8-.05-3.54.36-.29.25-.55.53-.78.84l-.05.06c-.12.16-.23.33-.32.5-.77,1.34-1.03,2.99-.57,4.26.25.69.69,1.19,1.26,1.43l2.63,1.1Z"/>
        <path class="cls-2" d="m186.37,548.61c1.11-.4,2.12-1.26,2.91-2.36,1.03-1.43,1.68-3.29,1.66-5.09l-7.62-1.08"/>
        <path class="cls-2" d="m186.07,446.67l.2-.33c.48-.79,1.07-1.46,1.71-1.96l-.08-.1-40.85-17.15v3.13"/>
        <path class="cls-2" d="m167.72,569.24h0s7.78,1.12,7.78,1.12c-.08-.01-.15-.16-.16-.38l-.09-7.8c0-.34.1-.7.29-1.01l6.51-10.62c.19-.31.45-.54.73-.64l3.59-1.3-4.95-5.43"/>
        <path class="cls-2" d="m179.11,458.03c.05-.11.12-.21.18-.32l6.78-11.04-.14-.09-38.88-16.32v14.3"/>
        <path class="cls-2" d="m181.42,543.18c1.07-.39,1.92-1.78,1.9-3.1l-4.44-2.11"/>
        <path class="cls-2" d="m164.07,566.39c.43.75.97,1.37,1.58,1.71l2.07,1.14-.09-8.14c-.02-1.23.36-2.55,1.06-3.68l6.51-10.62c.69-1.12,1.63-1.96,2.63-2.32l3.59-1.3-4.75-1.61-3.59,1.31"/>
        <path class="cls-2" d="m178.05,461.28c.12-1.11.49-2.24,1.06-3.25l-.15-.08-31.91-13.39v3.75"/>
        <line class="cls-2" x1="147.05" y1="523.7" x2="147.05" y2="530.57"/>
        <path class="cls-2" d="m174.75,542.2l1.74-.63c.06-.02.12-.02.18,0,1.24-.45,2.23-2.06,2.21-3.6v-.97"/>
        <polyline class="cls-2" points="147.05 490.14 147.05 523.7 178.74 537 178.87 537 178.48 503.28"/>
        <polyline class="cls-2" points="147.05 483.05 147.05 490.14 178.35 503.28 178.48 503.28 178.39 496.15"/>
        <path class="cls-2" d="m178.39,496.15l-.39-33.95c0-.3.01-.61.05-.92l-.15-.02-30.85-12.95v34.74l31.21,13.1h.13Z"/>
        <path class="cls-2" d="m171.95,543.53c.36-.29.74-.51,1.13-.65-.07-.02-.13-.02-.18,0l1.85-.68-27.7-11.63v2.45"/>
        <path class="cls-2" d="m170.15,545.85l.52-.85c.36-.59.8-1.09,1.28-1.47l-.08-.09-24.82-10.42v3.12"/>
        <polyline class="cls-2" points="164.29 555.41 170.15 545.85 170.01 545.77 147.05 536.14 147.05 548.14"/>
        <path class="cls-2" d="m163.21,558.62c.05-1.01.38-2.08.95-3l.13-.21-.14-.09-17.1-7.18v3.75"/>
        <path class="cls-2" d="m164.07,566.39c-.5-.91-.82-2.02-.83-3.08l-.05-4.31c0-.13,0-.25.02-.38h-.15s-16.01-6.73-16.01-6.73v7.45l16.92,7.1.1-.05Z"/>
      </g>
    </g>
    <g id="LINE">
      <g>
        <g>
          <polygon class="cls-7" points="386.38 468.44 386.38 503.45 384.84 504.99 366.35 504.99 366.35 466.94 384.84 466.94 386.38 468.44"/>
          <polygon class="cls-18" points="366.35 504.99 366.35 538.41 335.32 538.41 335.32 434.2 366.35 434.2 366.35 466.94 366.35 504.99"/>
        </g>
        <g>
          <line class="cls-6" x1="386.38" y1="468.44" x2="386.38" y2="503.45"/>
          <line class="cls-6" x1="386.38" y1="503.45" x2="384.84" y2="504.99"/>
          <line class="cls-6" x1="386.38" y1="468.44" x2="384.84" y2="466.94"/>
          <polyline class="cls-6" points="366.31 466.94 366.35 466.94 384.84 466.94"/>
          <polyline class="cls-6" points="366.31 504.99 366.35 504.99 384.84 504.99"/>
          <polyline class="cls-4" points="366.35 538.41 366.35 504.99 366.35 466.94 366.35 434.2"/>
        </g>
      </g>
    </g>
    <polygon class="cls-1" points="431.51 565.92 454.45 558.24 431.51 550.56 431.51 554.96 431.51 555.24 378.86 555.24 378.86 561.24 431.51 561.24 431.51 561.8 431.51 565.92"/>
    <g>
      <path class="cls-15" d="m347.92,551.88c.34.13.63.31.88.54s.44.51.57.83c.13.32.2.68.2,1.06v6.97c0,.39-.07.74-.2,1.06-.13.32-.32.6-.57.83s-.54.41-.88.54c-.34.13-.73.19-1.16.19h-3.74c-.42,0-.8-.06-1.15-.19-.35-.13-.64-.31-.89-.54s-.44-.51-.57-.83c-.13-.32-.19-.68-.19-1.06v-6.97c0-.39.06-.74.19-1.06.13-.32.32-.6.57-.83s.55-.41.89-.54c.35-.13.73-.19,1.15-.19h3.74c.43,0,.82.06,1.16.19Zm-5.15,2.01c-.23.22-.34.48-.34.77v6.29c0,.3.11.55.34.77.23.22.51.33.85.33h2.55c.34,0,.62-.11.85-.33.23-.22.34-.48.34-.77v-6.29c0-.3-.11-.55-.34-.77-.23-.22-.51-.33-.85-.33h-2.55c-.34,0-.62.11-.85.33Z"/>
      <path class="cls-15" d="m351.61,563.74v-9.77c0-.32.06-.61.18-.89s.29-.52.51-.73.48-.37.78-.49c.3-.12.63-.18.99-.18h3.23v1.27l-.51.51h-2.21c-.29,0-.51.08-.64.23-.14.15-.2.36-.2.62v1.7h2.55v1.78h-2.55v5.95h-2.12Z"/>
      <path class="cls-15" d="m358.16,563.74v-9.77c0-.32.06-.61.18-.89s.29-.52.51-.73.48-.37.78-.49c.3-.12.63-.18.99-.18h3.23v1.27l-.51.51h-2.21c-.29,0-.51.08-.64.23-.14.15-.2.36-.2.62v1.7h2.55v1.78h-2.55v5.95h-2.12Z"/>
    </g>
    <g>
      <path class="cls-15" d="m477.6,551.79c.34.13.63.31.88.54s.44.51.57.83c.13.32.2.68.2,1.06v6.97c0,.39-.07.74-.2,1.06-.13.32-.32.6-.57.83s-.54.41-.88.54c-.34.13-.73.19-1.16.19h-3.74c-.42,0-.8-.06-1.15-.19-.35-.13-.64-.31-.89-.54s-.44-.51-.57-.83c-.13-.32-.19-.68-.19-1.06v-6.97c0-.39.06-.74.19-1.06.13-.32.32-.6.57-.83s.55-.41.89-.54c.35-.13.73-.19,1.15-.19h3.74c.43,0,.82.06,1.16.19Zm-5.15,2.01c-.23.22-.34.48-.34.77v6.29c0,.3.11.55.34.77.23.22.51.33.85.33h2.55c.34,0,.62-.11.85-.33.23-.22.34-.48.34-.77v-6.29c0-.3-.11-.55-.34-.77-.23-.22-.51-.33-.85-.33h-2.55c-.34,0-.62.11-.85.33Z"/>
      <path class="cls-15" d="m481.12,563.66v-8.67h1.44l.26,1.02h.17c.14-.23.3-.43.49-.6.18-.16.39-.3.63-.42.24-.12.52-.18.83-.18h1.53c.36,0,.69.06.99.18.3.12.56.28.78.49.22.21.39.45.51.73.12.28.18.58.18.89v6.54h-2.12v-6.2c0-.26-.08-.47-.25-.62s-.39-.23-.69-.23h-1.27c-.24,0-.44.05-.61.14-.17.1-.31.2-.42.31-.12.15-.23.31-.32.48v6.12h-2.12Z"/>
    </g>
    <g id="LINE-2" data-name="LINE">
      <g>
        <g>
          <polygon class="cls-7" points="505.3 469.19 505.3 504.15 503.75 505.69 496.27 505.69 496.27 467.64 503.75 467.64 505.3 469.19"/>
          <polygon class="cls-18" points="496.27 505.69 496.27 539.11 465.2 539.11 465.2 434.94 496.27 434.94 496.27 467.64 496.27 505.69"/>
        </g>
        <g>
          <line class="cls-6" x1="505.3" y1="469.19" x2="505.3" y2="504.15"/>
          <line class="cls-6" x1="505.3" y1="504.15" x2="503.75" y2="505.69"/>
          <line class="cls-6" x1="505.3" y1="469.19" x2="503.75" y2="467.64"/>
          <polyline class="cls-6" points="496.19 467.64 496.27 467.64 503.75 467.64"/>
          <polyline class="cls-6" points="496.19 505.69 496.27 505.69 503.75 505.69"/>
          <polyline class="cls-4" points="496.27 539.11 496.27 505.69 496.27 467.64 496.27 434.94"/>
        </g>
      </g>
    </g>
  </g>
  <g id="pallerot">
    <g>
      <circle class="cls-7" cx="44" cy="453.26" r="43.5"/>
      <path class="cls-7" d="m44,497.26c-24.26,0-44-19.74-44-44s19.74-44,44-44,44,19.74,44,44-19.74,44-44,44Zm0-87c-23.71,0-43,19.29-43,43s19.29,43,43,43,43-19.29,43-43-19.29-43-43-43Z"/>
    </g>
    <path class="cls-15" d="m24.72,473.97h24.66c1.67,0,3.06-.54,4.18-1.63,1.11-1.09,1.67-2.35,1.67-3.8v-5.02c0-1.45-.56-2.72-1.67-3.8-1.11-1.09-2.51-1.63-4.18-1.63h-15.46v-9.2l16.72-14.21v-.84h-22.65l-2.84-2.84v-6.35h39.29v9.19l-16.72,14.21v.84h4.6c2.12,0,4.01.32,5.68.96,1.67.64,3.12,1.53,4.35,2.67,1.23,1.14,2.16,2.51,2.8,4.1.64,1.59.96,3.33.96,5.22v8.36c0,1.89-.32,3.64-.96,5.22-.64,1.59-1.57,2.95-2.8,4.1-1.23,1.14-2.67,2.03-4.35,2.67-1.67.64-3.57.96-5.68.96h-27.58v-9.2Z"/>
    <g>
      <circle class="cls-7" cx="44" cy="46.54" r="43.5"/>
      <path class="cls-7" d="m44,90.54C19.74,90.54,0,70.8,0,46.54S19.74,2.54,44,2.54s44,19.74,44,44-19.74,44-44,44Zm0-87C20.29,3.54,1,22.83,1,46.54s19.29,43,43,43,43-19.29,43-43S67.71,3.54,44,3.54Z"/>
    </g>
    <path class="cls-15" d="m51.2,77.43h-10.87V28.54h-10.45v-6.27l12.96-3.34h8.36v58.51Z"/>
    <g>
      <circle class="cls-7" cx="44" cy="232.54" r="43.5"/>
      <path class="cls-7" d="m44,276.54c-24.26,0-44-19.74-44-44s19.74-44,44-44,44,19.74,44,44-19.74,44-44,44Zm0-87c-23.71,0-43,19.29-43,43s19.29,43,43,43,43-19.29,43-43-19.29-43-43-43Z"/>
    </g>
    <path class="cls-15" d="m53.65,216.55c0-1.45-.56-2.72-1.67-3.8-1.11-1.09-2.51-1.63-4.18-1.63h-20.9l-2.93-2.93v-6.27h26.75c4.18,0,7.52,1.14,10.03,3.43,2.51,2.29,3.76,5.32,3.76,9.11v5.02c0,1.56-.21,2.97-.63,4.22s-1.02,2.47-1.8,3.64c-.78,1.17-1.74,2.33-2.88,3.47-1.14,1.14-2.44,2.38-3.89,3.72l-17.55,15.88v.84h27.17v9.19H22.72v-9.19l26.75-24.24c.89-.78,1.81-1.81,2.76-3.09s1.42-2.76,1.42-4.43v-2.93Z"/>
    <g>
      <circle class="cls-7" cx="44" cy="692.76" r="43.5"/>
      <path class="cls-7" d="m44,736.76c-24.26,0-44-19.74-44-44s19.74-44,44-44,44,19.74,44,44-19.74,44-44,44Zm0-87c-23.71,0-43,19.29-43,43s19.29,43,43,43,43-19.29,43-43-19.29-43-43-43Z"/>
    </g>
    <path class="cls-15" d="m58.43,701.93h6.69v9.19h-6.69v12.54h-10.87v-12.54h-28.84v-9.19l26.33-36.78h13.37v36.78Zm-27.58-.84v.84h16.72v-22.99h-.84l-15.88,22.15Z"/>
    <g>
      <circle class="cls-7" cx="44" cy="892.76" r="43.5"/>
      <path class="cls-7" d="m44,936.76c-24.26,0-44-19.74-44-44s19.74-44,44-44,44,19.74,44,44-19.74,44-44,44Zm0-87c-23.71,0-43,19.29-43,43s19.29,43,43,43,43-19.29,43-43-19.29-43-43-43Z"/>
    </g>
    <path class="cls-15" d="m36.35,887.72h14.63c2.12,0,4.01.32,5.68.96s3.12,1.53,4.35,2.67,2.16,2.51,2.8,4.1c.64,1.59.96,3.33.96,5.22v10.03c0,1.89-.32,3.64-.96,5.22-.64,1.59-1.57,2.95-2.8,4.1-1.23,1.14-2.67,2.03-4.35,2.67-1.67.64-3.57.96-5.68.96h-26.75v-9.2h23.82c1.67,0,3.06-.54,4.18-1.63,1.11-1.09,1.67-2.35,1.67-3.8v-6.69c0-1.45-.56-2.72-1.67-3.8-1.11-1.09-2.51-1.63-4.18-1.63h-22.57v-31.76h37.2v6.27l-2.93,2.92h-23.4v13.37Z"/>
    <g>
      <g id="LINE-3" data-name="LINE">
        <line class="cls-5" x1="171.92" y1="60.02" x2="220.27" y2="60.02"/>
      </g>
      <g id="LINE-4" data-name="LINE">
        <line class="cls-5" x1="233.65" y1="46.64" x2="233.65" y2="40.55"/>
      </g>
      <g id="LINE-5" data-name="LINE">
        <line class="cls-5" x1="158.53" y1="46.64" x2="158.53" y2="40.55"/>
      </g>
      <g id="LINE-6" data-name="LINE">
        <line class="cls-5" x1="196.09" y1="3.38" x2="196.09" y2="47.09"/>
      </g>
      <g id="LINE-7" data-name="LINE">
        <line class="cls-5" x1="196.09" y1="47.09" x2="216.67" y2="29.6"/>
      </g>
      <g id="LINE-8" data-name="LINE">
        <line class="cls-5" x1="196.09" y1="47.09" x2="175.52" y2="29.6"/>
      </g>
      <g id="ARC">
        <path class="cls-5" d="m158.53,46.64c0,7.39,5.99,13.38,13.38,13.38"/>
      </g>
      <g id="ARC-2" data-name="ARC">
        <path class="cls-5" d="m220.27,60.02c7.39,0,13.38-5.99,13.38-13.38"/>
      </g>
    </g>
    <g>
      <path class="cls-3" d="m163.23,95.83h-4.1v-18.62h-6.31v-3.47h16.72v2.37l-1.1,1.1h-5.21v18.62Z"/>
      <path class="cls-3" d="m186.26,79.73v16.09h-2.68l-.47-1.89h-.32c-.25.42-.56.79-.92,1.1-.34.29-.73.55-1.17.77-.44.22-.96.33-1.55.33h-2.84c-.67,0-1.29-.11-1.85-.33-.56-.22-1.04-.53-1.45-.92s-.73-.84-.95-1.36c-.22-.52-.33-1.07-.33-1.66v-12.15h3.94v11.52c0,.48.15.87.46,1.15.3.28.73.43,1.28.43h2.37c.44,0,.82-.09,1.14-.27.32-.18.58-.38.79-.62.23-.25.43-.54.6-.85v-11.36h3.94Z"/>
      <path class="cls-3" d="m190.04,95.83v-16.09h2.68l.47,1.89h.32c.25-.42.56-.79.92-1.1.34-.29.73-.55,1.17-.77.44-.22.96-.33,1.55-.33h2.84c.67,0,1.29.11,1.85.33.56.22,1.04.53,1.45.92s.73.84.95,1.36c.22.52.33,1.07.33,1.66v12.15h-3.94v-11.52c0-.48-.15-.87-.46-1.15s-.73-.43-1.28-.43h-2.37c-.44,0-.82.09-1.14.27-.32.18-.58.37-.79.58-.23.27-.43.57-.6.88v11.36h-3.94Z"/>
      <path class="cls-3" d="m222.07,89.36h-10.26v1.58c0,.48.15.87.46,1.15.31.28.73.43,1.28.43h7.89v3.31h-8.99c-.67,0-1.29-.11-1.85-.33-.56-.22-1.04-.53-1.45-.92-.41-.39-.73-.84-.95-1.36-.22-.52-.33-1.07-.33-1.66v-7.89c0-.59.11-1.14.33-1.66.22-.52.54-.97.95-1.36.41-.39.89-.69,1.45-.92.56-.22,1.17-.33,1.85-.33h5.05c.67,0,1.29.11,1.85.33.56.22,1.04.53,1.45.92s.73.84.95,1.36c.22.52.33,1.07.33,1.66v5.68Zm-10.26-3.31h6.31v-1.74c0-.48-.15-.87-.46-1.15s-.73-.43-1.28-.43h-2.84c-.55,0-.97.14-1.28.43-.3.28-.46.67-.46,1.15v1.74Z"/>
      <path class="cls-3" d="m235.48,82.89h-3.63c-.44,0-.82.08-1.14.25-.32.17-.58.35-.79.54-.23.23-.43.49-.6.79v11.36h-3.94v-16.09h2.68l.47,1.89h.32c.25-.42.56-.79.92-1.1.34-.29.73-.55,1.17-.77.44-.22.96-.33,1.55-.33h3v3.47Z"/>
    </g>
    <g>
      <path class="cls-15" d="m335.45,658.56v97.57c0,4.69-3.8,8.49-8.48,8.49h-42.42c-4.68,0-8.48-3.8-8.48-8.49v-97.57c0-4.69,3.8-8.49,8.48-8.49h42.42c4.68,0,8.48,3.8,8.48,8.49Zm-4.24,97.57v-97.57c0-2.35-1.9-4.25-4.24-4.25h-42.42c-2.34,0-4.24,1.9-4.24,4.25v97.57c0,2.35,1.9,4.25,4.24,4.25h42.42c2.34,0,4.24-1.9,4.24-4.25Z"/>
      <path class="cls-25" d="m331.21,658.56v97.57c0,2.35-1.9,4.25-4.24,4.25h-42.42c-2.34,0-4.24-1.9-4.24-4.25v-97.57c0-2.35,1.9-4.25,4.24-4.25h42.42c2.34,0,4.24,1.9,4.24,4.25Zm-8.42,25.59v-4.28h-33.88v4.28h33.88Zm0-12.85v-4.28h-33.88v4.28h33.88Zm-13.73,73.16c0-1.78-1.44-3.21-3.21-3.21s-3.21,1.43-3.21,3.21,1.43,3.21,3.21,3.21,3.21-1.44,3.21-3.21Z"/>
      <rect class="cls-15" x="288.91" y="679.87" width="33.88" height="4.28"/>
      <rect class="cls-15" x="288.91" y="667.02" width="33.88" height="4.28"/>
      <circle class="cls-15" cx="305.85" cy="744.46" r="3.21"/>
      <path class="cls-15" d="m263.41,658.56v76.37c-.02,4.68-3.8,8.47-8.48,8.48h-42.36v16.97h21.18v4.24h-63.55v-4.24h21.18v-16.97h-42.37c-4.67,0-8.45-3.8-8.47-8.48v-76.38c.01-4.68,3.8-8.47,8.47-8.48h105.92c4.68,0,8.47,3.81,8.48,8.49Zm-4.24,76.38v-76.38c0-2.34-1.9-4.24-4.24-4.24h-105.92c-2.34,0-4.23,1.9-4.23,4.24v76.38c0,2.34,1.89,4.24,4.23,4.24h105.92c2.34,0,4.24-1.9,4.24-4.24Zm-50.84,25.45v-16.97h-12.71v16.97h12.71Z"/>
      <path class="cls-24" d="m259.17,658.56v76.38c0,2.34-1.9,4.24-4.24,4.24h-105.92c-2.34,0-4.23-1.9-4.23-4.24v-76.38c0-2.34,1.89-4.24,4.23-4.24h105.92c2.34,0,4.24,1.9,4.24,4.24Zm-6.28,74.3v-72.08h-101.83v72.08h101.83Z"/>
      <path class="cls-15" d="m252.89,660.78v72.08h-101.83v-72.08h101.83Zm-4.25,67.84v-63.61h-93.34v63.61h93.34Z"/>
      <rect class="cls-22" x="195.62" y="743.42" width="12.71" height="16.97"/>
    </g>
    <g>
      <path class="cls-15" d="m246.5,685.68l-1.04,3.91-3.83.83c-.61.98-1.32,1.88-2.11,2.7l.25,4-3.49,2.01-3.28-2.21c-1.09.29-2.21.45-3.33.46l-2.6,3-3.84-1.02-.78-3.89c-.97-.56-1.87-1.25-2.67-2.05l-3.94.3-1.96-3.45,2.21-3.35c-.28-1.1-.43-2.23-.43-3.37l-2.92-2.62,1.03-3.91,3.83-.83c.56-.99,1.25-1.9,2.04-2.72l-.26-4.01,3.51-2.08,3.28,2.21c1.09-.3,2.2-.45,3.32-.46l2.6-3,3.84,1.02.78,3.89c.97.56,1.86,1.25,2.66,2.05l3.94-.3,2.02,3.54-2.21,3.35c.28,1.1.43,2.23.43,3.37l2.92,2.62Zm-2.31,2.53l.52-1.98-2.19-1.96-.53-.47v-.71c0-1.01-.13-2.01-.37-2.98l-.19-.71.41-.62,1.65-2.51-1.03-1.81-2.96.22-.72.07-.51-.52c-.7-.7-1.49-1.3-2.35-1.79l-.59-.37-.14-.69-.58-2.92-1.94-.51-1.95,2.25-.47.53-.71.03c-.99,0-1.97.14-2.93.39l-.7.2-.61-.41-2.45-1.66-1.8,1.06.2,3,.05.73-.52.52c-.69.73-1.29,1.54-1.78,2.41l-.36.61-.69.15-2.87.62-.52,1.98,2.19,1.96.53.47v.71c0,1,.13,2,.37,2.98l.19.71-.4.61-1.65,2.52.98,1.71,2.95-.22.72-.06.51.52c.7.7,1.5,1.31,2.35,1.8l.6.36.13.7.59,2.91,1.94.51,1.94-2.24.47-.54.7-.02c.99,0,1.97-.14,2.93-.4l.7-.2.61.41,2.47,1.66,1.76-1.01-.19-2.99-.04-.74.52-.52c.71-.73,1.34-1.54,1.89-2.41l.36-.59.67-.15,2.87-.62Z"/>
      <path class="cls-13" d="m244.72,686.24l-.52,1.98-2.87.62-.67.15-.36.59c-.54.87-1.18,1.68-1.89,2.41l-.52.52.04.74.19,2.99-1.76,1.01-2.47-1.66-.61-.41-.7.2c-.96.26-1.95.4-2.93.4l-.7.02-.47.54-1.94,2.24-1.94-.51-.59-2.91-.13-.7-.6-.36c-.85-.49-1.65-1.1-2.35-1.8l-.51-.52-.72.06-2.95.22-.98-1.71,1.65-2.52.4-.61-.19-.71c-.24-.98-.37-1.98-.36-2.98v-.71s-.54-.47-.54-.47l-2.19-1.96.52-1.98,2.87-.62.69-.15.36-.61c.49-.87,1.09-1.68,1.78-2.41l.52-.52-.05-.73-.2-3,1.8-1.06,2.45,1.66.61.41.7-.2c.96-.26,1.95-.39,2.93-.39l.71-.03.47-.53,1.95-2.25,1.94.51.58,2.92.14.69.59.37c.86.49,1.65,1.09,2.35,1.79l.51.52.72-.07,2.96-.22,1.03,1.81-1.65,2.51-.41.62.19.71c.24.97.37,1.97.36,2.98v.71s.54.47.54.47l2.19,1.96Zm-16.49,3.05c3.15.83,6.41-1.09,7.26-4.3.83-3.21-1.04-6.48-4.18-7.33-3.16-.84-6.42,1.09-7.27,4.3s1.03,6.49,4.19,7.33Z"/>
      <path class="cls-15" d="m235.49,684.99c-.85,3.21-4.11,5.13-7.26,4.3s-5.04-4.12-4.19-7.33,4.11-5.14,7.27-4.3c3.14.86,5.01,4.12,4.18,7.33Zm-1.53-.4c.62-2.35-.75-4.76-3.06-5.38-2.32-.58-4.68.82-5.33,3.16-.62,2.35.75,4.76,3.07,5.38,2.31.58,4.67-.82,5.32-3.16Z"/>
      <path class="cls-15" d="m221.6,709.68l-1.03,3.91-3.83.83c-.56.99-1.25,1.9-2.03,2.72l.2,3.91-3.43,2.1-3.28-2.21c-1.09.29-2.2.45-3.32.46l-2.6,3-3.84-1.02-.77-3.89c-.97-.56-1.87-1.25-2.67-2.05l-3.92.22-1.96-3.45,2.12-3.37c-.28-1.1-.42-2.23-.42-3.38l-2.92-2.61,1.04-3.91,3.83-.83c.58-.98,1.26-1.89,2.04-2.73l-.18-3.98,3.41-2.03,3.28,2.21c1.09-.29,2.21-.45,3.33-.46l2.6-3,3.84,1.02.78,3.89c.96.58,1.86,1.26,2.66,2.04l3.95-.3,2.02,3.54-2.2,3.36c.27,1.1.42,2.23.42,3.37l2.92,2.62Zm-2.31,2.53l.52-1.98-2.18-1.96-.52-.46v-.71c-.01-1.01-.13-2.01-.38-2.98l-.19-.71.4-.62,1.65-2.51-1.03-1.81-2.95.22-.73.06-.51-.52c-.73-.69-1.52-1.3-2.38-1.82l-.58-.36-.14-.67-.58-2.92-1.94-.51-1.95,2.25-.47.53h-.7c-.99.02-1.98.15-2.93.41l-.7.2-.6-.41-2.46-1.65-1.71,1.01.13,3,.03.72-.5.51c-.69.75-1.29,1.56-1.81,2.43l-.36.59-.67.15-2.87.62-.52,1.98,2.19,1.96.52.47.02.71c0,1,.12,2,.36,2.98l.18.69-.38.6-1.6,2.54,1,1.75,2.95-.16.71-.04.5.5c.7.7,1.49,1.31,2.35,1.8l.6.36.14.7.58,2.91,1.94.51,1.94-2.24.47-.54.7-.02c.99,0,1.98-.14,2.94-.4l.69-.2.61.4,2.44,1.65,1.74-1.07-.15-2.93-.03-.72.5-.52c.7-.72,1.29-1.53,1.8-2.4l.36-.61.68-.15,2.87-.62Z"/>
      <path class="cls-13" d="m219.81,710.24l-.52,1.98-2.87.62-.68.15-.36.61c-.5.88-1.1,1.69-1.8,2.4l-.5.52.03.72.15,2.93-1.74,1.07-2.44-1.65-.61-.4-.69.2c-.96.26-1.95.4-2.94.4l-.7.02-.47.54-1.94,2.24-1.94-.51-.58-2.91-.14-.7-.6-.36c-.86-.49-1.65-1.1-2.35-1.8l-.5-.5-.71.04-2.95.16-1-1.75,1.6-2.54.38-.6-.18-.69c-.24-.98-.37-1.98-.36-2.98l-.02-.71-.52-.47-2.19-1.96.52-1.98,2.87-.62.67-.15.36-.59c.52-.87,1.12-1.69,1.81-2.43l.5-.51-.03-.72-.13-3,1.71-1.01,2.46,1.65.6.41.7-.2c.96-.26,1.95-.39,2.93-.4h.7s.47-.54.47-.54l1.95-2.25,1.94.51.58,2.92.14.67.58.36c.86.52,1.65,1.12,2.38,1.82l.51.52.73-.06,2.95-.22,1.03,1.81-1.65,2.51-.4.62.19.71c.25.97.37,1.97.37,2.98v.71s.53.46.53.46l2.18,1.96Zm-9.14-1.58c.85-3.21-1.02-6.5-4.18-7.33s-6.41,1.09-7.26,4.31c-.86,3.21,1.02,6.49,4.17,7.33h.01c3.16.84,6.41-1.09,7.26-4.3Z"/>
      <path class="cls-15" d="m206.49,701.32c3.16.84,5.03,4.12,4.18,7.33s-4.1,5.14-7.26,4.31h-.01c-3.15-.85-5.02-4.12-4.17-7.33.85-3.21,4.1-5.14,7.26-4.31Zm2.66,6.92c.62-2.35-.75-4.76-3.06-5.38-2.32-.61-4.7.81-5.33,3.16-.62,2.36.75,4.76,3.07,5.38s4.7-.8,5.32-3.16Z"/>
    </g>
    <g>
      <path class="cls-15" d="m171.13,794.01h-4.1v-18.62h-6.31v-3.47h16.72v2.37l-1.1,1.1h-5.21v18.62Z"/>
      <path class="cls-15" d="m194.16,777.91v16.09h-2.68l-.47-1.89h-.32c-.25.42-.56.79-.92,1.1-.34.29-.73.55-1.17.77-.44.22-.96.33-1.55.33h-2.84c-.67,0-1.29-.11-1.85-.33-.56-.22-1.04-.53-1.45-.92-.41-.39-.73-.84-.95-1.36s-.33-1.07-.33-1.66v-12.15h3.94v11.52c0,.48.15.87.46,1.15.3.28.73.43,1.28.43h2.37c.44,0,.82-.09,1.14-.27.32-.18.58-.38.79-.62.23-.25.43-.54.6-.85v-11.36h3.94Z"/>
      <path class="cls-15" d="m197.94,794.01v-16.09h2.68l.47,1.89h.32c.25-.42.56-.79.92-1.1.34-.29.73-.55,1.17-.77.44-.22.96-.33,1.55-.33h2.84c.67,0,1.29.11,1.85.33.56.22,1.04.53,1.45.92.41.39.73.84.95,1.36.22.52.33,1.07.33,1.66v12.15h-3.94v-11.52c0-.48-.15-.87-.46-1.15s-.73-.43-1.28-.43h-2.37c-.44,0-.82.09-1.14.27s-.58.37-.79.58c-.23.27-.43.57-.6.88v11.36h-3.94Z"/>
      <path class="cls-15" d="m229.97,787.54h-10.26v1.58c0,.48.15.87.46,1.15.31.28.73.43,1.28.43h7.89v3.31h-8.99c-.67,0-1.29-.11-1.85-.33-.56-.22-1.04-.53-1.45-.92-.41-.39-.73-.84-.95-1.36-.22-.52-.33-1.07-.33-1.66v-7.89c0-.59.11-1.14.33-1.66.22-.52.54-.97.95-1.36.41-.39.89-.69,1.45-.92.56-.22,1.17-.33,1.85-.33h5.05c.67,0,1.29.11,1.85.33.56.22,1.04.53,1.45.92.41.39.73.84.95,1.36.22.52.33,1.07.33,1.66v5.68Zm-10.26-3.31h6.31v-1.74c0-.48-.15-.87-.46-1.15s-.73-.43-1.28-.43h-2.84c-.55,0-.97.14-1.28.43-.3.28-.46.67-.46,1.15v1.74Z"/>
      <path class="cls-15" d="m243.38,781.07h-3.63c-.44,0-.82.08-1.14.25s-.58.35-.79.54c-.23.23-.43.5-.6.79v11.36h-3.94v-16.09h2.68l.47,1.89h.32c.25-.42.56-.79.92-1.1.34-.29.73-.55,1.17-.77.44-.22.96-.33,1.55-.33h3v3.47Z"/>
    </g>
    <g>
      <path class="cls-21" d="m261.38,865.73c-3.53-1.52-7.33-2.35-11.17-2.42-1.5-.05-2.99.15-4.43.57l-19.32,46.98c1.42-.42,2.9-.61,4.38-.56,3.86.08,7.67.9,11.22,2.43,10.96,4.48,18.84,15.43,33.4,15.43,1.1,0,2.19-.06,3.28-.17l19.33-47.01c-19.7-.9-24.92-10.45-36.68-15.25h0Zm-5.37,49.16c-.32-.22-.65-.44-.97-.66l4.78-11.63-1.34-.85c-2.96-1.97-6.06-3.75-9.25-5.32l-4.79,11.65c-.13-.06-.26-.13-.39-.17-3.08-1.29-6.31-2.16-9.62-2.6l4.87-11.84c2.83.34,5.6,1.07,8.23,2.19.59.24,1.14.52,1.71.78l5.01-12.19c-.56-.26-1.14-.51-1.72-.75-2.62-1.08-5.34-1.89-8.13-2.42l5.15-12.52c.21,0,.43-.01.67-.01,3.16.08,6.28.77,9.18,2.03.14.06.26.13.39.17l-5.55,13.49c3.69,1.75,7.26,3.77,10.66,6.04l5.47-13.29c3.37,2.31,6.97,4.26,10.75,5.82l-5.56,13.52c-3.56-1.69-7-3.63-10.28-5.8l-.39-.25-5.05,12.32c3.41,2.24,6.99,4.23,10.69,5.95l-4.99,12.11c-3.34-1.64-6.52-3.57-9.53-5.77h0Zm16.22-5.63c-.58-.24-1.11-.5-1.67-.75l5.01-12.13c2.96,1.34,6.06,2.36,9.23,3.04l-5.05,12.29c-2.56-.64-5.07-1.46-7.52-2.46h0Z"/>
      <path class="cls-21" d="m209.54,910.87l-19.32-46.99c-1.44-.43-2.93-.62-4.43-.57-3.85.08-7.64.9-11.18,2.42-11.76,4.8-16.98,14.35-36.68,15.25l19.33,47.01c1.09.12,2.18.18,3.28.17,14.56,0,22.44-10.96,33.4-15.43,3.55-1.53,7.36-2.36,11.22-2.44,1.48-.04,2.95.15,4.37.57h0Zm-53.28.86l-5.05-12.29c3.18-.69,6.28-1.71,9.25-3.05l4.95,12.16c-.54.24-1.06.5-1.63.73-2.45.99-4.96,1.81-7.52,2.46h0Zm35.7-3.82c-.13.06-.26.13-.39.17l-4.79-11.65c-3.2,1.57-6.3,3.34-9.26,5.32l-1.34.85,4.79,11.63c-.32.22-.65.44-.97.66-3,2.19-6.19,4.12-9.53,5.77l-4.97-12.07c3.7-1.73,7.27-3.73,10.68-5.98l-5.08-12.32-.39.25c-3.28,2.18-6.7,4.12-10.26,5.82l-5.57-13.54c3.78-1.56,7.38-3.51,10.75-5.82l5.47,13.29c3.4-2.27,6.96-4.28,10.66-6.04l-5.55-13.49c.13-.06.26-.13.39-.17,2.9-1.26,6.02-1.95,9.19-2.03.24,0,.46,0,.67.01l5.15,12.53c-2.79.53-5.51,1.34-8.13,2.42-.59.24-1.17.49-1.73.75l5.01,12.19c.57-.27,1.12-.54,1.71-.78,2.62-1.11,5.39-1.85,8.23-2.19l4.87,11.84c-3.3.44-6.53,1.31-9.61,2.59h0Z"/>
      <path class="cls-21" d="m221.78,908.94l19.11-46.95c.68-1.8-.22-3.82-2.02-4.5-1.72-.66-3.65.16-4.4,1.85l-16.45,40.39-16.44-40.38c-.68-1.8-2.68-2.71-4.47-2.03-1.79.68-2.69,2.7-2.02,4.5.02.06.05.12.07.17l19.1,46.94-17.55,43.12c-.77,1.77.03,3.82,1.79,4.59,1.75.77,3.8-.03,4.56-1.8.02-.05.04-.1.06-.15l14.89-36.56,14.89,36.56c.77,1.77,2.81,2.57,4.57,1.8,1.7-.75,2.51-2.7,1.85-4.44l-17.55-43.12Z"/>
    </g>
  </g>
  <g id="layout">
    <g id="gh">
      <g id="gi">
        <g id="gj">
          <g>
            <g>
              <path class="cls-28" d="m284.36,322.6v5.09h-69.34v-5.09l5.24-5.25h4.22v-37.29c0-.89.36-1.76.99-2.39l3.94-3.94c.63-.63,1.49-.99,2.39-.99h35.77c.89,0,1.76.36,2.39.99l3.94,3.94c.63.63.99,1.49.99,2.39v37.29h4.22l5.25,5.25h0Zm-13.98-7.41v-6.56c0-.19-.15-.34-.34-.34h-2.7c-.19,0-.34-.15-.34-.34v-3.04c0-.19-.15-.34-.34-.34h-2.7c-.19,0-.34.15-.34.34v3.04c0,.19-.15.34-.34.34h-2.7c-.19,0-.34.15-.34.34v6.56c0,.19.15.34.34.34h9.46c.19,0,.34-.15.34-.34h0Zm-11.13.24v-9.06c0-.19-.15-.34-.34-.34h-10.81c-.19,0-.34.15-.34.34v9.06c0,.19.15.34.34.34h10.81c.19,0,.34-.15.34-.34Zm-6.85-24.9c0-1.5-1.22-2.72-2.72-2.72s-2.72,1.22-2.72,2.72,1.22,2.72,2.72,2.72,2.72-1.22,2.72-2.72Zm-5.69,24.67v-8.25c0-.19-.15-.34-.34-.34h-16.36c-.19,0-.34.15-.34.34v8.25c0,.19.15.34.34.34h16.36c.19,0,.34-.15.34-.34Z"/>
              <path class="cls-20" d="m282.47,265.52v49.67h-6.08v-46.01c0-1.18-.44-2.32-1.23-3.19l-11.27-12.35v-.29h-.26l-6.33-6.94-.08-.09-2.45-2.69v-61.91h4.06l1.35,1.35v52.48c0,1.18.44,2.32,1.23,3.19l18.59,20.39c1.59,1.74,2.47,4.02,2.47,6.38h0Z"/>
              <path class="cls-28" d="m276.86,170.79v45.78c0,1.28-.52,2.51-1.44,3.4l-9.26,8.96c-.88.85-2.05,1.33-3.27,1.34h-2.72s0-21.24,0-21.24h7.57l2.03-1.97v-24.32l-2.03-1.97h-35.82l-2.03,1.97v24.32l2.03,1.97h7.44v21.33h-2.45c-1.23.01-2.42-.47-3.31-1.32l-9.36-9.07c-.92-.89-1.44-2.12-1.44-3.4v-45.78c0-1.28.52-2.51,1.44-3.4l9.35-9.06c.88-.85,2.06-1.33,3.29-1.33h25.91c1.23,0,2.41.48,3.29,1.33l9.35,9.06c.92.89,1.44,2.12,1.44,3.4h0Z"/>
              <path class="cls-11" d="m270.38,308.64v6.56c0,.19-.15.34-.34.34h-9.46c-.19,0-.34-.15-.34-.34v-6.56c0-.19.15-.34.34-.34h2.7c.19,0,.34-.15.34-.34v-3.04c0-.19.15-.34.34-.34h2.7c.19,0,.34.15.34.34v3.04c0,.19.15.34.34.34h2.7c.19,0,.34.15.34.34h0Z"/>
              <polygon class="cls-8" points="239.35 193.17 239.35 209.02 231.92 209.02 229.89 207.06 229.89 182.74 231.92 180.77 267.74 180.77 269.77 182.74 269.77 207.06 267.74 209.02 260.17 209.02 260.17 183.09 258.82 181.73 254.76 181.73 254.76 209.02 244.76 209.02 244.76 181.73 240.7 181.73 239.35 183.09 239.35 193.17"/>
              <polygon class="cls-8" points="263.89 253.64 263.89 272.75 254.76 272.75 254.76 270.59 255.44 270.59 255.44 253.35 263.62 253.35 263.89 253.35 263.89 253.64"/>
              <path class="cls-11" d="m259.26,306.37v9.06c0,.19-.15.34-.34.34h-10.81c-.19,0-.34-.15-.34-.34v-9.06c0-.19.15-.34.34-.34h10.81c.19,0,.34.15.34.34Z"/>
              <polygon class="cls-28" points="255.44 253.35 255.44 270.59 254.76 270.59 244.63 270.59 243.95 270.59 243.95 253.35 243.95 250.24 244.76 249.93 249.69 248.05 254.76 249.98 255.44 250.24 255.44 253.35"/>
              <polygon class="cls-28" points="254.76 243.64 254.76 249.98 249.69 248.05 244.76 249.93 244.76 243.64 244.76 219.27 254.76 219.27 254.76 243.64"/>
              <rect class="cls-28" x="244.76" y="209.02" width="10" height="10.25"/>
              <path class="cls-26" d="m249.69,287.81c1.5,0,2.72,1.22,2.72,2.72s-1.22,2.72-2.72,2.72-2.72-1.22-2.72-2.72,1.22-2.72,2.72-2.72Z"/>
              <path class="cls-11" d="m246.72,306.95v8.25c0,.19-.15.34-.34.34h-16.36c-.19,0-.34-.15-.34-.34v-8.25c0-.19.15-.34.34-.34h16.36c.19,0,.34.15.34.34Zm-1.22,6.48v-4.81h-1.93v-1.54h-2.57v1.54h-1.93v4.81h6.44Zm-8.15,0v-4.81h-1.93v-1.54h-2.57v1.54h-1.93v4.81h6.44Z"/>
              <polygon class="cls-28" points="245.5 308.62 245.5 313.43 239.06 313.43 239.06 308.62 240.99 308.62 240.99 307.08 243.57 307.08 243.57 308.62 245.5 308.62"/>
              <path class="cls-20" d="m244.76,219.27v24.37l-2.45,2.69-.08.09-6.33,6.94h-.4v.44l-11.13,12.21c-.8.87-1.24,2.01-1.24,3.19v46.01h-6.08v-49.67c0-2.36.88-4.63,2.47-6.38l18.59-20.39c.8-.87,1.24-2.01,1.24-3.19v-52.48l1.35-1.35h4.06v37.54h0Z"/>
              <polygon class="cls-8" points="244.63 270.59 244.63 272.75 235.5 272.75 235.5 253.79 235.5 253.35 235.9 253.35 243.95 253.35 243.95 270.59 244.63 270.59"/>
              <polygon class="cls-28" points="237.35 308.62 237.35 313.43 230.91 313.43 230.91 308.62 232.84 308.62 232.84 307.08 235.42 307.08 235.42 308.62 237.35 308.62"/>
            </g>
            <g>
              <path class="cls-16" d="m284.37,328.24h-69.34c-.3,0-.55-.25-.55-.55v-5.09c0-.15.06-.29.16-.39l5.24-5.25c.1-.1.24-.16.39-.16h3.67v-36.73c0-1.05.41-2.03,1.15-2.78l3.94-3.94c.73-.73,1.74-1.15,2.78-1.15h35.78c1.04,0,2.05.42,2.78,1.15l3.94,3.94c.73.73,1.15,1.74,1.15,2.78v36.73h3.66c.15,0,.29.06.39.16l5.25,5.25c.1.1.16.24.16.39v5.09c0,.3-.25.55-.55.55Zm-68.79-1.1h68.24v-4.31l-4.92-4.92h-3.99c-.3,0-.55-.25-.55-.55v-37.29c0-.74-.3-1.47-.83-2l-3.94-3.94c-.53-.53-1.25-.83-2-.83h-35.78c-.75,0-1.47.3-2,.83l-3.94,3.94c-.53.53-.83,1.24-.83,2v37.29c0,.3-.25.55-.55.55h-3.99l-4.92,4.92v4.31Z"/>
              <path class="cls-16" d="m276.86,217.11c-.3,0-.55-.25-.55-.55v-45.77c0-.3.25-.55.55-.55s.55.25.55.55v45.77c0,.3-.25.55-.55.55Z"/>
              <path class="cls-16" d="m262.78,157.55h-25.9c-.3,0-.55-.25-.55-.55s.25-.55.55-.55h25.9c.3,0,.55.25.55.55s-.25.55-.55.55Z"/>
              <path class="cls-16" d="m233.59,229.58c-.14,0-.28-.05-.38-.16l-9.36-9.07c-.22-.21-.22-.56-.01-.78.21-.22.56-.22.78-.01l9.36,9.07c.22.21.22.56.01.78-.11.11-.25.17-.4.17Z"/>
              <path class="cls-16" d="m236.88,230.91c-1.37,0-2.68-.53-3.67-1.49-.22-.21-.22-.56-.01-.78.21-.22.56-.22.78-.01.79.76,1.82,1.18,2.91,1.18,0,0,.01,0,.02,0,.3,0,.55.24.55.55,0,.3-.24.55-.55.55h-.02Z"/>
              <path class="cls-16" d="m266.07,158.89c-.14,0-.28-.05-.38-.16-.78-.76-1.82-1.18-2.91-1.18-.3,0-.55-.25-.55-.55s.25-.55.55-.55c1.38,0,2.68.53,3.67,1.49.22.21.22.56.01.78-.11.11-.25.17-.4.17Z"/>
              <path class="cls-16" d="m275.42,220.51c-.14,0-.29-.06-.4-.17-.21-.22-.21-.57.01-.78.81-.78,1.27-1.88,1.27-3,0-.3.25-.55.55-.55s.55.25.55.55c0,1.42-.59,2.8-1.61,3.8-.11.1-.25.16-.38.16Z"/>
              <path class="cls-16" d="m222.8,171.34c-.3,0-.55-.25-.55-.55,0-1.42.59-2.8,1.61-3.8.22-.21.57-.21.78.01.21.22.21.57-.01.78-.81.78-1.27,1.88-1.27,3,0,.3-.25.55-.55.55Z"/>
              <path class="cls-16" d="m276.86,171.34c-.3,0-.55-.25-.55-.55,0-1.13-.46-2.22-1.27-3-.22-.21-.22-.56-.01-.78.21-.22.56-.22.78-.01,1.02.99,1.61,2.37,1.61,3.8,0,.3-.25.55-.55.55Z"/>
              <path class="cls-16" d="m266.17,229.48c-.14,0-.29-.06-.4-.17-.21-.22-.21-.57.01-.78l9.26-8.96c.22-.21.57-.21.78.01.21.22.21.57-.01.78l-9.26,8.96c-.11.1-.25.16-.38.16Z"/>
              <path class="cls-16" d="m275.42,167.94c-.14,0-.28-.05-.38-.16l-9.35-9.05c-.22-.21-.22-.56-.01-.78.21-.22.56-.22.78-.01l9.35,9.05c.22.21.22.56.01.78-.11.11-.25.17-.4.17Z"/>
              <path class="cls-16" d="m222.8,217.11c-.3,0-.55-.25-.55-.55v-45.77c0-.3.25-.55.55-.55s.55.25.55.55v45.77c0,.3-.25.55-.55.55Z"/>
              <path class="cls-16" d="m224.24,220.51c-.14,0-.28-.05-.38-.16-1.02-.99-1.61-2.37-1.61-3.8,0-.3.25-.55.55-.55s.55.25.55.55c0,1.13.46,2.22,1.27,3,.22.21.22.56.01.78-.11.11-.25.17-.4.17Z"/>
              <path class="cls-16" d="m262.89,230.81c-.3,0-.55-.24-.55-.55,0-.3.24-.55.55-.55,1.09,0,2.11-.42,2.89-1.18.22-.21.57-.21.78.01.21.22.21.57-.01.78-.98.96-2.28,1.48-3.65,1.49h0Z"/>
              <path class="cls-16" d="m224.24,167.94c-.14,0-.29-.06-.4-.17-.21-.22-.21-.57.01-.78l9.35-9.05c.22-.21.57-.21.78.01.21.22.21.57-.01.78l-9.35,9.05c-.11.1-.25.16-.38.16Z"/>
              <path class="cls-16" d="m233.59,158.89c-.14,0-.29-.06-.4-.17-.21-.22-.21-.57.01-.78.99-.96,2.3-1.49,3.68-1.49.3,0,.55.25.55.55s-.25.55-.55.55c-1.09,0-2.13.42-2.91,1.18-.11.1-.25.16-.38.16Z"/>
              <path class="cls-16" d="m263.89,253.9h-8.45c-.3,0-.55-.25-.55-.55s.25-.55.55-.55h8.45c.3,0,.55.25.55.55s-.25.55-.55.55Z"/>
              <path class="cls-16" d="m239.35,209.57h-7.43c-.3,0-.55-.25-.55-.55s.25-.55.55-.55h7.43c.3,0,.55.25.55.55s-.25.55-.55.55Z"/>
              <path class="cls-16" d="m267.74,209.57h-7.57c-.3,0-.55-.25-.55-.55s.25-.55.55-.55h7.57c.3,0,.55.25.55.55s-.25.55-.55.55Z"/>
              <path class="cls-16" d="m229.89,207.61c-.3,0-.55-.25-.55-.55v-24.32c0-.3.25-.55.55-.55s.55.25.55.55v24.32c0,.3-.25.55-.55.55Z"/>
              <path class="cls-16" d="m231.92,209.57c-.14,0-.28-.05-.38-.16l-2.03-1.97c-.22-.21-.22-.56-.01-.78.21-.22.56-.22.78-.01l2.03,1.97c.22.21.22.56.01.78-.11.11-.25.17-.4.17Z"/>
              <path class="cls-16" d="m269.77,207.61c-.3,0-.55-.25-.55-.55v-24.32c0-.3.25-.55.55-.55s.55.25.55.55v24.32c0,.3-.25.55-.55.55Z"/>
              <path class="cls-16" d="m267.74,209.57c-.14,0-.29-.06-.4-.17-.21-.22-.21-.57.01-.78l2.03-1.97c.22-.21.57-.21.78.01.21.22.21.57-.01.78l-2.03,1.97c-.11.1-.25.16-.38.16Z"/>
              <path class="cls-16" d="m254.76,219.82h-10c-.3,0-.55-.25-.55-.55s.25-.55.55-.55h10c.3,0,.55.25.55.55s-.25.55-.55.55Z"/>
              <path class="cls-16" d="m217.05,315.74c-.3,0-.55-.25-.55-.55v-49.67c0-.3.25-.55.55-.55s.55.25.55.55v49.67c0,.3-.25.55-.55.55Z"/>
              <path class="cls-16" d="m223.13,315.74c-.3,0-.55-.25-.55-.55v-46c0-.3.25-.55.55-.55s.55.25.55.55v46c0,.3-.25.55-.55.55Z"/>
              <path class="cls-16" d="m239.35,236.12c-.3,0-.55-.25-.55-.55v-52.48c0-.3.25-.55.55-.55s.55.25.55.55v52.48c0,.3-.25.55-.55.55Z"/>
              <path class="cls-16" d="m219.52,259.7c-.13,0-.27-.05-.37-.14-.22-.2-.24-.55-.04-.78l18.59-20.39c.21-.22.55-.24.78-.04.22.2.24.55.04.78l-18.59,20.39c-.11.12-.26.18-.41.18Z"/>
              <path class="cls-16" d="m223.13,315.74h-6.08c-.3,0-.55-.25-.55-.55s.25-.55.55-.55h6.08c.3,0,.55.25.55.55s-.25.55-.55.55Z"/>
              <path class="cls-16" d="m239.35,183.64c-.14,0-.28-.05-.39-.16-.22-.21-.22-.56,0-.78l1.35-1.35c.21-.22.56-.22.78,0,.22.21.22.56,0,.78l-1.35,1.35c-.11.11-.25.16-.39.16Z"/>
              <path class="cls-16" d="m244.76,182.28h-4.06c-.3,0-.55-.25-.55-.55s.25-.55.55-.55h4.06c.3,0,.55.25.55.55s-.25.55-.55.55Z"/>
              <path class="cls-16" d="m255.44,271.14h-11.49c-.3,0-.55-.25-.55-.55v-20.35c0-.23.14-.43.35-.51l.81-.31,4.94-1.88c.13-.05.27-.05.39,0l5.75,2.19c.21.08.35.29.35.51v20.35c0,.3-.25.55-.55.55Zm-10.94-1.1h10.39v-19.42l-5.2-1.98-5.19,1.98v19.42Z"/>
              <path class="cls-16" d="m263.89,273.3c-.3,0-.55-.25-.55-.55v-19.4c0-.3.25-.55.55-.55s.55.25.55.55v19.4c0,.3-.25.55-.55.55Z"/>
              <path class="cls-16" d="m235.5,273.3c-.3,0-.55-.25-.55-.55v-19.4c0-.3.25-.55.55-.55s.55.25.55.55v19.4c0,.3-.25.55-.55.55Z"/>
              <path class="cls-16" d="m254.76,273.3c-.3,0-.55-.25-.55-.55v-2.16c0-.3.25-.55.55-.55s.55.25.55.55v2.16c0,.3-.25.55-.55.55Z"/>
              <path class="cls-16" d="m244.63,273.3c-.3,0-.55-.25-.55-.55v-2.16c0-.3.25-.55.55-.55s.55.25.55.55v2.16c0,.3-.25.55-.55.55Z"/>
              <path class="cls-16" d="m282.47,315.74c-.3,0-.55-.25-.55-.55v-49.67c0-.3.25-.55.55-.55s.55.25.55.55v49.67c0,.3-.25.55-.55.55Z"/>
              <path class="cls-16" d="m276.39,315.74c-.3,0-.55-.25-.55-.55v-46c0-.3.25-.55.55-.55s.55.25.55.55v46c0,.3-.25.55-.55.55Z"/>
              <path class="cls-16" d="m275.15,266.55c-.15,0-.3-.06-.41-.18l-11.27-12.35c-.21-.22-.19-.57.04-.78.22-.2.57-.19.78.04l11.27,12.35c.21.22.19.57-.04.78-.11.1-.24.14-.37.14Z"/>
              <path class="cls-16" d="m260.17,236.12c-.3,0-.55-.25-.55-.55v-52.48c0-.3.25-.55.55-.55s.55.25.55.55v52.48c0,.3-.25.55-.55.55Z"/>
              <path class="cls-16" d="m280,259.7c-.15,0-.3-.06-.41-.18l-18.59-20.39c-.21-.22-.19-.57.04-.78.22-.21.57-.19.78.04l18.59,20.39c.21.22.19.57-.04.78-.11.1-.24.14-.37.14Z"/>
              <path class="cls-16" d="m282.47,315.74h-6.08c-.3,0-.55-.25-.55-.55s.25-.55.55-.55h6.08c.3,0,.55.25.55.55s-.25.55-.55.55Z"/>
              <path class="cls-16" d="m260.17,183.64c-.14,0-.28-.05-.39-.16l-1.35-1.35c-.21-.22-.21-.56,0-.78.22-.21.56-.21.78,0l1.35,1.35c.21.22.21.56,0,.78-.11.11-.25.16-.39.16Z"/>
              <path class="cls-16" d="m258.82,182.28h-4.06c-.3,0-.55-.25-.55-.55s.25-.55.55-.55h4.06c.3,0,.55.25.55.55s-.25.55-.55.55Z"/>
              <path class="cls-16" d="m267,305.47c-.24,0-.45-.15-.52-.37-.21-.08-.37-.28-.37-.52,0-.3.25-.55.55-.55.49,0,.89.4.89.89,0,.3-.25.55-.55.55Z"/>
              <path class="cls-16" d="m266.67,305.13h-2.7c-.3,0-.55-.25-.55-.55s.25-.55.55-.55h2.7c.3,0,.55.25.55.55s-.25.55-.55.55Z"/>
              <path class="cls-16" d="m263.62,305.47c-.3,0-.55-.25-.55-.55,0-.49.4-.89.89-.89.3,0,.55.25.55.55,0,.24-.15.45-.37.52-.07.21-.28.37-.52.37Z"/>
              <path class="cls-16" d="m263.62,308.51c-.3,0-.55-.25-.55-.55v-3.04c0-.3.25-.55.55-.55s.55.25.55.55v3.04c0,.3-.25.55-.55.55Z"/>
              <path class="cls-16" d="m263.29,308.85c-.3,0-.55-.25-.55-.55,0-.24.15-.44.37-.52.07-.22.28-.37.52-.37.3,0,.55.25.55.55,0,.49-.4.89-.89.89Z"/>
              <path class="cls-16" d="m263.29,308.85h-2.71c-.3,0-.55-.25-.55-.55s.25-.55.55-.55h2.71c.3,0,.55.25.55.55s-.25.55-.55.55Z"/>
              <path class="cls-16" d="m260.24,309.19c-.3,0-.55-.25-.55-.55,0-.49.4-.89.89-.89.3,0,.55.25.55.55,0,.24-.15.45-.37.52-.08.21-.28.37-.52.37Z"/>
              <path class="cls-16" d="m260.24,315.74c-.3,0-.55-.25-.55-.55v-6.56c0-.3.25-.55.55-.55s.55.25.55.55v6.56c0,.3-.25.55-.55.55Z"/>
              <path class="cls-16" d="m259.26,306.92c-.24,0-.45-.15-.52-.37-.21-.08-.37-.28-.37-.52,0-.3.25-.55.55-.55.49,0,.89.4.89.89,0,.3-.25.55-.55.55Z"/>
              <path class="cls-16" d="m247.77,306.92c-.3,0-.55-.25-.55-.55,0-.49.4-.89.89-.89.3,0,.55.25.55.55,0,.24-.15.44-.37.52-.07.22-.28.37-.52.37Z"/>
              <path class="cls-16" d="m246.72,315.74c-.3,0-.55-.25-.55-.55v-8.24c0-.3.25-.55.55-.55s.55.25.55.55v8.24c0,.3-.25.55-.55.55Z"/>
              <path class="cls-16" d="m246.72,307.5c-.24,0-.44-.15-.52-.37-.22-.08-.37-.28-.37-.52,0-.3.25-.55.55-.55.49,0,.89.4.89.89,0,.3-.25.55-.55.55Z"/>
              <path class="cls-16" d="m246.38,307.16h-16.35c-.3,0-.55-.25-.55-.55s.25-.55.55-.55h16.35c.3,0,.55.25.55.55s-.25.55-.55.55Z"/>
              <path class="cls-16" d="m229.69,307.5c-.3,0-.55-.25-.55-.55,0-.49.4-.89.89-.89.3,0,.55.25.55.55,0,.24-.15.45-.37.52-.08.21-.28.37-.52.37Z"/>
              <path class="cls-16" d="m267.34,308.85c-.49,0-.89-.4-.89-.89,0-.3.25-.55.55-.55.24,0,.45.15.52.37.21.07.37.28.37.52,0,.3-.25.55-.55.55Zm.21-.89h0,0Z"/>
              <path class="cls-16" d="m267,308.51c-.3,0-.55-.25-.55-.55v-3.04c0-.3.25-.55.55-.55s.55.25.55.55v3.04c0,.3-.25.55-.55.55Z"/>
              <path class="cls-16" d="m260.58,316.08c-.49,0-.89-.4-.89-.89,0-.3.25-.55.55-.55.24,0,.45.15.52.37.22.07.37.28.37.52,0,.3-.25.55-.55.55Zm.21-.89h0,0Z"/>
              <path class="cls-16" d="m270.05,316.08h-9.47c-.3,0-.55-.25-.55-.55s.25-.55.55-.55h9.47c.3,0,.55.25.55.55s-.25.55-.55.55Z"/>
              <path class="cls-16" d="m270.05,316.08c-.3,0-.55-.25-.55-.55,0-.24.15-.44.37-.52.07-.22.28-.37.52-.37.3,0,.55.25.55.55,0,.49-.4.89-.89.89Z"/>
              <path class="cls-16" d="m270.38,315.74c-.3,0-.55-.25-.55-.55v-6.56c0-.3.25-.55.55-.55s.55.25.55.55v6.56c0,.3-.25.55-.55.55Z"/>
              <path class="cls-16" d="m270.38,309.19c-.24,0-.44-.15-.52-.37-.21-.08-.37-.28-.37-.52,0-.3.25-.55.55-.55.49,0,.89.4.89.89,0,.3-.25.55-.55.55Z"/>
              <path class="cls-16" d="m270.05,308.85h-2.71c-.3,0-.55-.25-.55-.55s.25-.55.55-.55h2.71c.3,0,.55.25.55.55s-.25.55-.55.55Z"/>
              <path class="cls-16" d="m248.11,316.32c-.49,0-.89-.4-.89-.89,0-.3.25-.55.55-.55.24,0,.45.15.52.37.21.08.37.28.37.52,0,.3-.25.55-.55.55Zm.21-.89h0,0Z"/>
              <path class="cls-16" d="m258.92,316.32c-.3,0-.55-.25-.55-.55,0-.24.15-.44.37-.52.07-.22.28-.37.52-.37.3,0,.55.25.55.55,0,.49-.4.89-.89.89Z"/>
              <path class="cls-16" d="m229.69,315.74c-.3,0-.55-.25-.55-.55v-8.24c0-.3.25-.55.55-.55s.55.25.55.55v8.24c0,.3-.25.55-.55.55Z"/>
              <path class="cls-16" d="m230.03,316.08c-.49,0-.89-.4-.89-.89,0-.3.25-.55.55-.55.24,0,.45.15.52.37.21.07.37.28.37.52,0,.3-.25.55-.55.55Zm.21-.89h0,0Z"/>
              <path class="cls-16" d="m246.38,316.08h-16.35c-.3,0-.55-.25-.55-.55s.25-.55.55-.55h16.35c.3,0,.55.25.55.55s-.25.55-.55.55Z"/>
              <path class="cls-16" d="m246.38,316.08c-.3,0-.55-.25-.55-.55,0-.24.15-.45.37-.52.08-.21.28-.37.52-.37.3,0,.55.25.55.55,0,.49-.4.89-.89.89Z"/>
              <path class="cls-16" d="m239.35,193.72h-.03c-.3,0-.55-.25-.55-.55s.25-.55.55-.55h.03c.3,0,.55.25.55.55s-.25.55-.55.55Z"/>
              <path class="cls-16" d="m245.5,313.98h-6.44c-.3,0-.55-.25-.55-.55v-4.81c0-.3.25-.55.55-.55h1.38v-.99c0-.3.25-.55.55-.55h2.57c.3,0,.55.25.55.55v.99h1.38c.3,0,.55.25.55.55v4.81c0,.3-.25.55-.55.55Zm-5.89-1.1h5.34v-3.71h-1.38c-.3,0-.55-.25-.55-.55v-.99h-1.47v.99c0,.3-.25.55-.55.55h-1.38v3.71Z"/>
              <path class="cls-16" d="m237.35,313.98h-6.44c-.3,0-.55-.25-.55-.55v-4.81c0-.3.25-.55.55-.55h1.38v-.99c0-.3.25-.55.55-.55h2.57c.3,0,.55.25.55.55v.99h1.38c.3,0,.55.25.55.55v4.81c0,.3-.25.55-.55.55Zm-5.89-1.1h5.34v-3.71h-1.38c-.3,0-.55-.25-.55-.55v-.99h-1.47v.99c0,.3-.25.55-.55.55h-1.38v3.71Z"/>
              <path class="cls-16" d="m255.84,252.4h-.07c-.3,0-.55-.25-.55-.55s.25-.55.55-.55h.07c.3,0,.55.25.55.55s-.25.55-.55.55Z"/>
              <path class="cls-16" d="m249.69,293.79c-1.8,0-3.27-1.47-3.27-3.27s1.47-3.27,3.27-3.27,3.27,1.47,3.27,3.27-1.47,3.27-3.27,3.27Zm0-5.43c-1.19,0-2.17.97-2.17,2.17s.97,2.17,2.17,2.17,2.17-.97,2.17-2.17-.97-2.17-2.17-2.17Z"/>
              <path class="cls-16" d="m269.77,183.29c-.14,0-.28-.05-.38-.16l-2.03-1.96c-.22-.21-.22-.56-.01-.78.21-.22.56-.22.78-.01l2.03,1.96c.22.21.22.56.01.78-.11.11-.25.17-.4.17Z"/>
              <path class="cls-16" d="m229.89,183.29c-.14,0-.29-.06-.4-.17-.21-.22-.21-.57.01-.78l2.03-1.96c.22-.21.57-.21.78.01.21.22.21.57-.01.78l-2.03,1.96c-.11.1-.24.15-.38.15Z"/>
              <path class="cls-16" d="m258.92,306.59h-10.82c-.3,0-.55-.25-.55-.55s.25-.55.55-.55h10.82c.3,0,.55.25.55.55s-.25.55-.55.55Z"/>
              <path class="cls-16" d="m259.26,315.98c-.3,0-.55-.25-.55-.55v-9.05c0-.3.25-.55.55-.55s.55.25.55.55v9.05c0,.3-.25.55-.55.55Z"/>
              <path class="cls-16" d="m258.92,316.32h-10.82c-.3,0-.55-.25-.55-.55s.25-.55.55-.55h10.82c.3,0,.55.25.55.55s-.25.55-.55.55Z"/>
              <path class="cls-16" d="m247.77,315.98c-.3,0-.55-.25-.55-.55v-9.05c0-.3.25-.55.55-.55s.55.25.55.55v9.05c0,.3-.25.55-.55.55Z"/>
              <path class="cls-16" d="m217.05,266.07c-.3,0-.55-.25-.55-.55,0-2.5.93-4.9,2.62-6.75.2-.22.55-.24.78-.04.22.2.24.55.04.78-1.5,1.65-2.33,3.78-2.33,6.01,0,.3-.25.55-.55.55Z"/>
              <path class="cls-16" d="m282.47,266.07c-.3,0-.55-.25-.55-.55,0-2.23-.83-4.36-2.33-6-.21-.22-.19-.57.04-.78.22-.21.57-.19.78.04,1.69,1.85,2.62,4.24,2.62,6.75,0,.3-.25.55-.55.55Z"/>
              <path class="cls-16" d="m276.39,269.74c-.3,0-.55-.25-.55-.55,0-1.05-.39-2.05-1.09-2.82-.2-.22-.19-.57.04-.78.22-.2.57-.19.78.04.89.97,1.38,2.24,1.38,3.56,0,.3-.25.55-.55.55Z"/>
              <path class="cls-16" d="m223.13,269.73c-.3,0-.55-.25-.55-.55,0-1.32.49-2.58,1.38-3.56.2-.22.55-.24.78-.04.22.2.24.55.04.78-.7.77-1.09,1.77-1.09,2.82,0,.3-.25.55-.55.55Z"/>
              <path class="cls-16" d="m267.74,181.32h-35.82c-.3,0-.55-.25-.55-.55s.25-.55.55-.55h35.82c.3,0,.55.25.55.55s-.25.55-.55.55Z"/>
              <path class="cls-16" d="m238.12,239.31c-.13,0-.27-.05-.37-.14-.22-.2-.24-.55-.04-.78.7-.77,1.09-1.77,1.09-2.82,0-.3.25-.55.55-.55s.55.25.55.55c0,1.32-.49,2.58-1.38,3.56-.11.12-.26.18-.41.18Z"/>
              <path class="cls-16" d="m261.4,239.31c-.15,0-.3-.06-.41-.18-.89-.97-1.38-2.24-1.38-3.56,0-.3.25-.55.55-.55s.55.25.55.55c0,1.05.39,2.05,1.09,2.82.2.22.19.57-.04.78-.11.1-.24.14-.37.14Z"/>
              <path class="cls-16" d="m224.37,266.55c-.13,0-.27-.05-.37-.14-.22-.21-.24-.55-.04-.78l11.13-12.2c.21-.22.55-.24.78-.04.22.21.24.55.04.78l-11.13,12.2c-.11.12-.26.18-.41.18Z"/>
              <path class="cls-16" d="m235.9,253.9c-.13,0-.27-.05-.37-.14-.22-.2-.24-.55-.04-.78l8.86-9.71c.21-.22.55-.24.78-.04.22.21.24.55.04.78l-8.86,9.71c-.11.12-.26.18-.41.18Z"/>
              <path class="cls-16" d="m236.91,230.91c-.3,0-.55-.25-.55-.55,0-.3.24-.55.55-.55h2.45s0,0,0,0c.3,0,.55.25.55.55,0,.3-.24.55-.55.55h-2.45s0,0,0,0Z"/>
              <path class="cls-16" d="m260.17,230.83c-.3,0-.55-.25-.55-.55,0-.3.24-.55.55-.55h2.72s0-.01,0-.01c.3,0,.55.25.55.55,0,.3-.24.55-.55.55h-2.72s0,.01,0,.01Z"/>
              <path class="cls-16" d="m244.76,250.48c-.3,0-.55-.25-.55-.55v-68.19c0-.3.25-.55.55-.55s.55.25.55.55v68.19c0,.3-.25.55-.55.55Z"/>
              <path class="cls-16" d="m254.76,250.53c-.3,0-.55-.25-.55-.55v-68.25c0-.3.25-.55.55-.55s.55.25.55.55v68.25c0,.3-.25.55-.55.55Z"/>
              <path class="cls-16" d="m263.62,253.9c-.15,0-.3-.06-.41-.18l-8.86-9.71c-.21-.22-.19-.57.04-.78.22-.2.57-.19.78.04l8.86,9.71c.2.22.19.57-.04.78-.11.1-.24.14-.37.14Z"/>
              <path class="cls-16" d="m254.76,209.57h-10c-.3,0-.55-.25-.55-.55s.25-.55.55-.55h10c.3,0,.55.25.55.55s-.25.55-.55.55Z"/>
              <path class="cls-16" d="m243.95,253.9h-8.45c-.3,0-.55-.25-.55-.55s.25-.55.55-.55h8.45c.3,0,.55.25.55.55s-.25.55-.55.55Z"/>
            </g>
          </g>
        </g>
      </g>
      <g id="gk">
        <g id="gl">
          <rect class="cls-14" x="154.52" y="244.97" width="36.29" height="75.92" rx="1.25" ry="1.25"/>
          <path class="cls-16" d="m189.55,321.87h-33.79c-1.23,0-2.23-1-2.23-2.23v-73.42c0-1.23,1-2.23,2.23-2.23h33.79c1.23,0,2.23,1,2.23,2.23v73.42c0,1.23-1,2.23-2.23,2.23Zm-33.79-75.92c-.15,0-.28.12-.28.28v73.42c0,.15.12.28.28.28h33.79c.15,0,.28-.12.28-.28v-73.42c0-.15-.12-.28-.28-.28h-33.79Z"/>
        </g>
        <g id="gm">
          <rect class="cls-16" x="155.36" y="253.09" width="34.44" height="1.95"/>
        </g>
        <g id="gn">
          <rect class="cls-16" x="155.36" y="257.92" width="34.44" height="1.95"/>
        </g>
        <g id="go">
          <rect class="cls-16" x="155.36" y="262.75" width="34.44" height="1.95"/>
        </g>
        <g id="gp">
          <rect class="cls-16" x="155.36" y="267.58" width="34.44" height="1.95"/>
        </g>
        <g id="gq">
          <rect class="cls-16" x="155.36" y="272.41" width="34.44" height="1.95"/>
        </g>
        <g id="gr">
          <rect class="cls-16" x="155.36" y="277.24" width="34.44" height="1.95"/>
        </g>
        <g id="gs">
          <rect class="cls-16" x="155.36" y="282.07" width="34.44" height="1.95"/>
        </g>
        <g id="gt">
          <rect class="cls-16" x="155.36" y="286.9" width="34.44" height="1.95"/>
        </g>
        <g id="gu">
          <rect class="cls-16" x="155.36" y="291.73" width="34.44" height="1.95"/>
        </g>
        <g id="gv">
          <rect class="cls-16" x="155.36" y="296.56" width="34.44" height="1.95"/>
        </g>
        <g id="gw">
          <rect class="cls-16" x="155.36" y="301.39" width="34.44" height="1.95"/>
        </g>
        <g id="gx">
          <rect class="cls-16" x="155.36" y="306.22" width="34.44" height="1.95"/>
        </g>
        <g id="gy">
          <rect class="cls-16" x="155.36" y="311.05" width="34.44" height="1.95"/>
        </g>
        <g id="gz">
          <path class="cls-16" d="m243,341.62h-60.22c-6.66,0-12.08-4.69-12.08-10.46v-9.67c0-.86.7-1.56,1.56-1.56s1.56.7,1.56,1.56v9.67c0,4.05,4.02,7.34,8.95,7.34h60.22c4.94,0,8.95-3.29,8.95-7.34v-20.25c0-.86.7-1.56,1.56-1.56s1.56.7,1.56,1.56v20.25c0,5.77-5.42,10.46-12.08,10.46Z"/>
        </g>
        <g id="ha">
          <circle class="cls-10" cx="172.44" cy="244.62" r=".31"/>
          <path class="cls-16" d="m172.44,245.06c-.25,0-.45-.2-.45-.45s.2-.45.45-.45.45.2.45.45-.2.45-.45.45Zm0-.62c-.1,0-.17.08-.17.17s.08.17.17.17.17-.08.17-.17-.08-.17-.17-.17Z"/>
        </g>
        <g id="hb">
          <path class="cls-16" d="m171.26,245.88c-.39,0-.77-.14-1.08-.43-.62-.59-.65-1.58-.06-2.21,4.02-4.23,2.43-6.13.02-9.02-2.46-2.95-5.82-6.98-.04-13.37.58-.64,1.57-.69,2.2-.11.64.58.69,1.57.11,2.2-3.96,4.38-2.33,6.33.13,9.28,2.44,2.92,5.78,6.93-.15,13.17-.31.32-.72.49-1.13.49Z"/>
        </g>
        <g id="hc">
          <path class="cls-9" d="m164.42,209.82v4.46c0,3.08,3.35,6.14,6.54,6.14s6.54-3.06,6.54-6.14v-4.46h-13.09Z"/>
          <path class="cls-16" d="m170.97,221.86c-4.03,0-7.99-3.75-7.99-7.58v-4.46c0-.8.65-1.44,1.44-1.44h13.09c.8,0,1.44.65,1.44,1.44v4.46c0,3.83-3.96,7.58-7.99,7.58Zm-5.1-10.6v3.02c0,2.24,2.67,4.7,5.1,4.7s5.1-2.46,5.1-4.7v-3.02h-10.21Z"/>
        </g>
        <g id="hd">
          <path class="cls-16" d="m166.62,209.83c-.54,0-.98-.44-.98-.98v-6.99c0-.54.44-.98.98-.98s.98.44.98.98v6.99c0,.54-.44.98-.98.98Z"/>
        </g>
        <g id="he">
          <path class="cls-16" d="m174.92,209.83c-.54,0-.98-.44-.98-.98v-6.99c0-.54.44-.98.98-.98s.98.44.98.98v6.99c0,.54-.44.98-.98.98Z"/>
        </g>
      </g>
      <g id="hf">
        <g id="hg">
          <g id="hh">
            <rect class="cls-14" x="314.11" y="294.13" width="43.95" height="28.01" rx="3.54" ry="3.54"/>
            <path class="cls-16" d="m354.52,323.12h-36.87c-2.49,0-4.52-2.03-4.52-4.52v-20.93c0-2.49,2.03-4.52,4.52-4.52h36.87c2.49,0,4.52,2.03,4.52,4.52v20.93c0,2.49-2.03,4.52-4.52,4.52Zm-36.87-28.01c-1.41,0-2.56,1.15-2.56,2.56v20.93c0,1.41,1.15,2.56,2.56,2.56h36.87c1.41,0,2.56-1.15,2.56-2.56v-20.93c0-1.41-1.15-2.56-2.56-2.56h-36.87Z"/>
          </g>
          <g id="hi">
            <path class="cls-21" d="m325.6,312.05v4.11h1.95v1.03h2.66v-1.1h1.95v-4l-6.57-.04h0Z"/>
            <path class="cls-16" d="m330.21,319.14h-2.66c-.74,0-1.39-.42-1.72-1.03h-.23c-1.08,0-1.95-.87-1.95-1.95v-4.01s0-.07,0-.11c0-1.08.88-1.95,1.95-1.95h.01l6.57.04c1.07,0,1.94.88,1.94,1.95v4c0,1.08-.87,1.95-1.95,1.95h-.2c-.32.65-.98,1.1-1.76,1.1Zm-2.66-4.93h0c.49,0,.95.18,1.29.49.35-.35.84-.56,1.37-.56h0v-.11h-2.66s0,.19,0,.19Z"/>
          </g>
          <g id="hj">
            <rect class="cls-15" x="338.5" y="311.1" width="7.38" height="3.39" rx="1.25" ry="1.25"/>
            <path class="cls-16" d="m344.62,315.47h-4.87c-1.23,0-2.23-1-2.23-2.23v-.89c0-1.23,1-2.23,2.23-2.23h4.87c1.23,0,2.23,1,2.23,2.23v.89c0,1.23-1,2.23-2.23,2.23Zm-4.87-3.39c-.15,0-.28.12-.28.28v.89c0,.15.12.28.28.28h4.87c.15,0,.28-.12.28-.28v-.89c0-.15-.12-.28-.28-.28h-4.87Z"/>
          </g>
          <g id="hk">
            <rect class="cls-16" x="315.13" y="306.86" width="41.83" height="1.95"/>
          </g>
        </g>
        <g id="hl">
          <path class="cls-16" d="m320.57,341.53h-46.99c-5.41,0-9.82-4.41-9.82-9.82v-19.24c0-.86.7-1.56,1.56-1.56s1.56.7,1.56,1.56v19.24c0,3.69,3,6.7,6.7,6.7h46.99c3.69,0,6.7-3,6.7-6.7v-16.84c0-.86.7-1.56,1.56-1.56s1.56.7,1.56,1.56v16.84c0,5.42-4.41,9.82-9.82,9.82Z"/>
        </g>
        <g id="hm">
          <path class="cls-16" d="m384.4,341.53h-33.65c-5.42,0-9.82-4.41-9.82-9.82v-16.49h3.12v16.49c0,3.69,3,6.7,6.7,6.7h33.65c3.69,0,6.7-3,6.7-6.7v-13.15h3.12v13.15c0,5.42-4.41,9.82-9.82,9.82Z"/>
        </g>
        <g id="hn">
          <g id="ho">
            <rect class="cls-15" x="389.48" y="296.82" width="6.19" height="7.38"/>
            <path class="cls-16" d="m395.67,305.17h-6.19c-.54,0-.98-.44-.98-.98v-7.38c0-.54.44-.98.98-.98h6.19c.54,0,.98.44.98.98v7.38c0,.54-.44.98-.98.98Zm-5.22-1.95h4.24v-5.42h-4.24v5.42Z"/>
          </g>
          <g id="hp">
            <rect class="cls-10" x="387.12" y="303.68" width="10.91" height="15.63" rx="1.25" ry="1.25"/>
            <path class="cls-16" d="m396.78,320.29h-8.41c-1.23,0-2.23-1-2.23-2.23v-13.13c0-1.23,1-2.23,2.23-2.23h8.41c1.23,0,2.23,1,2.23,2.23v13.13c0,1.23-1,2.23-2.23,2.23Zm-8.41-15.64c-.15,0-.28.12-.28.28v13.13c0,.15.12.28.28.28h8.41c.15,0,.28-.12.28-.28v-13.13c0-.15-.12-.28-.28-.28h-8.41Z"/>
          </g>
        </g>
        <g id="hq">
          <g>
            <g>
              <path class="cls-10" d="m383.14,283.22v-11.84h5.24c.44,0,.84.07,1.21.21s.68.34.94.58.46.54.6.88.21.71.21,1.12v2.28c0,.4-.07.78-.21,1.12s-.34.63-.6.88-.57.44-.94.58-.77.21-1.21.21h-3.97v3.97h-1.27Zm1.27-10.74v5.66h3.97c.24,0,.46-.04.66-.13s.38-.21.53-.36.27-.33.36-.53c.09-.2.13-.42.13-.66v-2.28c0-.24-.04-.46-.13-.66s-.21-.38-.36-.53-.33-.27-.53-.36c-.2-.09-.42-.13-.66-.13h-3.97Z"/>
              <path class="cls-16" d="m384.55,283.36h-1.41v-.13h-.14v-11.97h5.38c.45,0,.88.07,1.26.22.38.15.71.35.98.61.27.26.49.57.63.92.15.36.22.75.22,1.17v2.28c0,.42-.07.81-.22,1.17-.15.35-.36.66-.63.92-.27.26-.6.47-.98.61-.38.15-.81.22-1.26.22h-3.84v3.97Zm-1.27-.28h.99v-3.97h4.11c.42,0,.81-.07,1.16-.2.35-.13.65-.32.89-.55.24-.23.44-.51.57-.83.13-.32.2-.68.2-1.06v-2.28c0-.38-.07-.74-.2-1.06-.13-.32-.32-.6-.57-.83-.25-.23-.55-.42-.89-.55-.35-.13-.74-.2-1.16-.2h-5.1v11.56Zm5.1-4.8h-4.11v-5.94h4.11c.26,0,.5.05.71.15.22.1.41.23.57.39s.3.36.39.57c.1.22.15.46.15.72v2.28c0,.26-.05.5-.15.72-.1.22-.23.41-.39.57-.16.16-.35.29-.57.39-.22.1-.46.15-.71.15Zm-3.84-.28h3.84c.22,0,.42-.04.6-.12.19-.09.35-.2.49-.34.14-.14.25-.3.34-.49.08-.18.12-.39.12-.6v-2.28c0-.22-.04-.42-.12-.6-.08-.19-.19-.35-.33-.49-.14-.14-.3-.25-.49-.34-.18-.08-.39-.12-.6-.12h-3.84v5.39Z"/>
            </g>
            <g>
              <path class="cls-10" d="m401.4,283.22h-4.9c-.44,0-.84-.07-1.21-.21-.37-.14-.68-.34-.94-.58s-.46-.54-.6-.88-.21-.71-.21-1.12v-6.26c0-.4.07-.78.21-1.12s.34-.63.6-.88.57-.44.94-.58c.37-.14.77-.21,1.21-.21h4.9v.76l-.34.34h-4.56c-.24,0-.46.04-.66.13-.2.09-.38.21-.53.36s-.27.33-.36.53c-.09.2-.13.42-.13.66v6.26c0,.24.04.46.13.66s.21.38.36.53.33.27.53.36c.2.09.42.13.66.13h4.9v1.1h0Z"/>
              <path class="cls-16" d="m401.54,283.36h-5.04c-.45,0-.88-.07-1.26-.22-.38-.15-.71-.35-.98-.61-.27-.26-.49-.57-.63-.93-.15-.36-.22-.75-.22-1.17v-6.26c0-.42.08-.81.22-1.17.15-.35.36-.66.63-.92.27-.26.6-.47.98-.61.38-.15.81-.22,1.26-.22h5.04v.95l-.42.42h-4.62c-.22,0-.42.04-.6.12-.19.08-.35.19-.49.34-.14.14-.25.3-.34.49-.08.18-.12.39-.12.6v6.26c0,.22.04.42.12.6.08.19.19.35.33.49.14.14.3.25.49.34.18.08.39.12.6.12h5.04v1.37Zm-5.04-11.83c-.42,0-.81.07-1.16.2-.35.13-.65.32-.89.55-.24.23-.44.51-.57.83-.13.32-.2.68-.2,1.06v6.26c0,.38.07.74.2,1.06.13.32.32.6.57.83.25.23.55.42.89.55.35.13.74.2,1.16.2h4.77v-.82h-4.77c-.26,0-.5-.05-.72-.15-.22-.1-.41-.23-.57-.39-.16-.16-.3-.36-.39-.57-.1-.22-.15-.46-.15-.72v-6.26c0-.26.05-.5.15-.72.1-.22.23-.41.39-.57.16-.16.36-.3.57-.39.22-.1.46-.15.72-.15h4.51l.26-.26v-.57h-4.77Z"/>
            </g>
          </g>
        </g>
        <g id="hr">
          <g id="hs">
            <rect class="cls-14" x="314.11" y="294.13" width="43.95" height="28.01" rx="3.54" ry="3.54"/>
            <path class="cls-16" d="m354.52,323.12h-36.87c-2.49,0-4.52-2.03-4.52-4.52v-20.93c0-2.49,2.03-4.52,4.52-4.52h36.87c2.49,0,4.52,2.03,4.52,4.52v20.93c0,2.49-2.03,4.52-4.52,4.52Zm-36.87-28.01c-1.41,0-2.56,1.15-2.56,2.56v20.93c0,1.41,1.15,2.56,2.56,2.56h36.87c1.41,0,2.56-1.15,2.56-2.56v-20.93c0-1.41-1.15-2.56-2.56-2.56h-36.87Z"/>
          </g>
          <g id="ht">
            <path class="cls-21" d="m325.6,312.05v4.11h1.95v1.03h2.66v-1.1h1.95v-4l-6.57-.04h0Z"/>
            <path class="cls-16" d="m330.21,319.14h-2.66c-.74,0-1.39-.42-1.72-1.03h-.23c-1.08,0-1.95-.87-1.95-1.95v-4.01s0-.07,0-.11c0-1.08.88-1.95,1.95-1.95h.01l6.57.04c1.07,0,1.94.88,1.94,1.95v4c0,1.08-.87,1.95-1.95,1.95h-.2c-.32.65-.98,1.1-1.76,1.1Zm-2.66-4.93h0c.49,0,.95.18,1.29.49.35-.35.84-.56,1.37-.56h0v-.11h-2.66s0,.19,0,.19Z"/>
          </g>
          <g id="hu">
            <rect class="cls-15" x="338.5" y="311.1" width="7.38" height="3.39" rx="1.25" ry="1.25"/>
            <path class="cls-16" d="m344.62,315.47h-4.87c-1.23,0-2.23-1-2.23-2.23v-.89c0-1.23,1-2.23,2.23-2.23h4.87c1.23,0,2.23,1,2.23,2.23v.89c0,1.23-1,2.23-2.23,2.23Zm-4.87-3.39c-.15,0-.28.12-.28.28v.89c0,.15.12.28.28.28h4.87c.15,0,.28-.12.28-.28v-.89c0-.15-.12-.28-.28-.28h-4.87Z"/>
          </g>
          <g id="hv">
            <rect class="cls-16" x="315.13" y="306.86" width="41.83" height="1.95"/>
          </g>
        </g>
        <g id="hw">
          <path class="cls-12" d="m384.4,341.53h-33.65c-5.42,0-9.82-4.41-9.82-9.82v-16.49h3.12v16.49c0,3.69,3,6.7,6.7,6.7h33.65c3.69,0,6.7-3,6.7-6.7v-13.15h3.12v13.15c0,5.42-4.41,9.82-9.82,9.82Z"/>
        </g>
        <g id="hx">
          <g id="hy">
            <rect class="cls-15" x="389.48" y="296.82" width="6.19" height="7.38"/>
            <path class="cls-16" d="m395.67,305.17h-6.19c-.54,0-.98-.44-.98-.98v-7.38c0-.54.44-.98.98-.98h6.19c.54,0,.98.44.98.98v7.38c0,.54-.44.98-.98.98Zm-5.22-1.95h4.24v-5.42h-4.24v5.42Z"/>
          </g>
          <g id="hz">
            <rect class="cls-10" x="387.12" y="303.68" width="10.91" height="15.63" rx="1.25" ry="1.25"/>
            <path class="cls-16" d="m396.78,320.29h-8.41c-1.23,0-2.23-1-2.23-2.23v-13.13c0-1.23,1-2.23,2.23-2.23h8.41c1.23,0,2.23,1,2.23,2.23v13.13c0,1.23-1,2.23-2.23,2.23Zm-8.41-15.64c-.15,0-.28.12-.28.28v13.13c0,.15.12.28.28.28h8.41c.15,0,.28-.12.28-.28v-13.13c0-.15-.12-.28-.28-.28h-8.41Z"/>
          </g>
        </g>
        <g id="ia">
          <g>
            <g>
              <path class="cls-15" d="m383.14,283.22v-11.84h5.24c.44,0,.84.07,1.21.21s.68.34.94.58.46.54.6.88.21.71.21,1.12v2.28c0,.4-.07.78-.21,1.12s-.34.63-.6.88-.57.44-.94.58-.77.21-1.21.21h-3.97v3.97h-1.27Zm1.27-10.74v5.66h3.97c.24,0,.46-.04.66-.13s.38-.21.53-.36.27-.33.36-.53c.09-.2.13-.42.13-.66v-2.28c0-.24-.04-.46-.13-.66s-.21-.38-.36-.53-.33-.27-.53-.36c-.2-.09-.42-.13-.66-.13h-3.97Z"/>
              <path class="cls-15" d="m384.55,283.36h-1.41v-.13h-.14v-11.97h5.38c.45,0,.88.07,1.26.22.38.15.71.35.98.61.27.26.49.57.63.92.15.36.22.75.22,1.17v2.28c0,.42-.07.81-.22,1.17-.15.35-.36.66-.63.92-.27.26-.6.47-.98.61-.38.15-.81.22-1.26.22h-3.84v3.97Zm-1.27-.28h.99v-3.97h4.11c.42,0,.81-.07,1.16-.2.35-.13.65-.32.89-.55.24-.23.44-.51.57-.83.13-.32.2-.68.2-1.06v-2.28c0-.38-.07-.74-.2-1.06-.13-.32-.32-.6-.57-.83-.25-.23-.55-.42-.89-.55-.35-.13-.74-.2-1.16-.2h-5.1v11.56Zm5.1-4.8h-4.11v-5.94h4.11c.26,0,.5.05.71.15.22.1.41.23.57.39s.3.36.39.57c.1.22.15.46.15.72v2.28c0,.26-.05.5-.15.72-.1.22-.23.41-.39.57-.16.16-.35.29-.57.39-.22.1-.46.15-.71.15Zm-3.84-.28h3.84c.22,0,.42-.04.6-.12.19-.09.35-.2.49-.34.14-.14.25-.3.34-.49.08-.18.12-.39.12-.6v-2.28c0-.22-.04-.42-.12-.6-.08-.19-.19-.35-.33-.49-.14-.14-.3-.25-.49-.34-.18-.08-.39-.12-.6-.12h-3.84v5.39Z"/>
            </g>
            <g>
              <path class="cls-15" d="m401.4,283.22h-4.9c-.44,0-.84-.07-1.21-.21-.37-.14-.68-.34-.94-.58s-.46-.54-.6-.88-.21-.71-.21-1.12v-6.26c0-.4.07-.78.21-1.12s.34-.63.6-.88.57-.44.94-.58c.37-.14.77-.21,1.21-.21h4.9v.76l-.34.34h-4.56c-.24,0-.46.04-.66.13-.2.09-.38.21-.53.36s-.27.33-.36.53c-.09.2-.13.42-.13.66v6.26c0,.24.04.46.13.66s.21.38.36.53.33.27.53.36c.2.09.42.13.66.13h4.9v1.1h0Z"/>
              <path class="cls-15" d="m401.54,283.36h-5.04c-.45,0-.88-.07-1.26-.22-.38-.15-.71-.35-.98-.61-.27-.26-.49-.57-.63-.93-.15-.36-.22-.75-.22-1.17v-6.26c0-.42.08-.81.22-1.17.15-.35.36-.66.63-.92.27-.26.6-.47.98-.61.38-.15.81-.22,1.26-.22h5.04v.95l-.42.42h-4.62c-.22,0-.42.04-.6.12-.19.08-.35.19-.49.34-.14.14-.25.3-.34.49-.08.18-.12.39-.12.6v6.26c0,.22.04.42.12.6.08.19.19.35.33.49.14.14.3.25.49.34.18.08.39.12.6.12h5.04v1.37Zm-5.04-11.83c-.42,0-.81.07-1.16.2-.35.13-.65.32-.89.55-.24.23-.44.51-.57.83-.13.32-.2.68-.2,1.06v6.26c0,.38.07.74.2,1.06.13.32.32.6.57.83.25.23.55.42.89.55.35.13.74.2,1.16.2h4.77v-.82h-4.77c-.26,0-.5-.05-.72-.15-.22-.1-.41-.23-.57-.39-.16-.16-.3-.36-.39-.57-.1-.22-.15-.46-.15-.72v-6.26c0-.26.05-.5.15-.72.1-.22.23-.41.39-.57.16-.16.36-.3.57-.39.22-.1.46-.15.72-.15h4.51l.26-.26v-.57h-4.77Z"/>
            </g>
          </g>
        </g>
        <g id="ib">
          <path class="cls-17" d="m320.57,341.62h-46.99c-5.47,0-9.91-4.45-9.91-9.91v-19.24c0-.91.74-1.65,1.65-1.65s1.65.74,1.65,1.65v19.24c0,3.64,2.96,6.61,6.61,6.61h46.99c3.64,0,6.61-2.96,6.61-6.61v-16.84c0-.91.74-1.65,1.65-1.65s1.65.74,1.65,1.65v16.84c0,5.47-4.45,9.91-9.91,9.91Z"/>
        </g>
      </g>
    </g>
  </g>
</svg>