<?xml version="1.0" encoding="UTF-8"?>
<svg id="a" data-name="0 copy" xmlns="http://www.w3.org/2000/svg" viewBox="0 0 1744.25 370.25">
  <defs>
    <style>
      .f {
        stroke: red;
      }

      .f, .g {
        fill: none;
        stroke-linecap: round;
        stroke-linejoin: round;
        stroke-width: .25px;
      }

      .h, .i, .j, .k, .l {
        stroke-width: 0px;
      }

      .g {
        stroke: #fc0;
      }

      .i {
        fill: red;
      }

      .j {
        fill: #737373;
      }

      .k {
        fill: #fff;
      }

      .l {
        fill: #fc0;
      }
    </style>
  </defs>
  <g id="b" data-name="LWPOLYLINE">
    <g>
      <path class="h" d="m1619.26,162.14c2.47-6.98,10.12-10.61,17.07-8.13l-9.96,10.09c1.66,3.54,4.52,6.37,8.07,7.99l9.96-10.09c1.08,2.95,1.1,6.17.05,9.12-2.48,6.98-10.12,10.61-17.08,8.14l-38.62,39.15c1.08,2.95,1.1,6.17.05,9.13-2.48,6.97-10.12,10.6-17.08,8.13l10.22-10.36c-1.68-3.52-4.53-6.34-8.06-7.99l-10.22,10.36c-1.08-2.95-1.1-6.17-.05-9.13,2.47-6.97,10.12-10.61,17.07-8.13l38.63-39.16c-1.08-2.94-1.1-6.16-.05-9.12Z"/>
      <path class="h" d="m1543.79,198.39l18.59-18.78c.56-.57,1.47-.57,2.04-.01.56.56.56,1.47,0,2.03l-18.59,18.78c-.56.56-1.47.57-2.03.01-.57-.56-.57-1.47,0-2.03Z"/>
      <path class="k" d="m1543.79,198.39c-.56.56-.56,1.47,0,2.03.56.56,1.47.55,2.03-.01l18.59-18.78c.56-.56.56-1.47,0-2.03-.57-.56-1.48-.56-2.04.01l-18.59,18.78Zm-2.1-2.09l18.59-18.78c1.71-1.72,4.5-1.73,6.22-.02s1.73,4.5.02,6.22l-18.59,18.78c-1.71,1.73-4.49,1.74-6.22.03-1.72-1.71-1.73-4.5-.02-6.23Z"/>
      <path class="h" d="m1560.28,177.51l-18.59,18.78c-1.71,1.73-1.7,4.52.02,6.23,1.73,1.71,4.51,1.7,6.22-.03l18.59-18.78c1.71-1.72,1.7-4.51-.02-6.22s-4.51-1.7-6.22.02Zm-22.45,14.93l18.59-18.78c1.25-1.26,2.82-2.17,4.54-2.61,4.06-1.04,6.74-4.92,6.3-9.1l2.7-2.7,5.69,5.66,24.94-25.97.41-3.08,9.07-5.77,3.36,3.35-5.68,9.13-3.07.44-25.7,25.21,5.69,5.66-2.67,2.73c-4.17-.41-8.02,2.31-9.03,6.38-.43,1.72-1.32,3.31-2.57,4.57l-18.59,18.78c-3.83,3.87-10.07,3.89-13.93.05s-3.88-10.09-.05-13.96Z"/>
      <path class="h" d="m1442.68,147.21l25.39-4.74c7.41,13.11,10.67,28.18,9.35,43.19l-26.68,4.97-8.06-43.42Z"/>
      <polygon class="h" points="1441.91 150.06 1448.96 188.06 1445.83 188.64 1438.77 150.64 1441.91 150.06"/>
      <path class="h" d="m1354.01,165.84c0-2.82,2.28-5.1,5.09-5.1h39.76l-5.68,3.01-20.56,7.19h-13.53c-2.81,0-5.09-2.28-5.09-5.09Z"/>
      <path class="h" d="m1398.81,186.58c-4.53,4.71-8.21,10.18-10.86,16.17l.71,13.79c.15,2.82-2.01,5.21-4.81,5.36-2.81.14-5.2-2.01-5.35-4.83l-1.04-19.92c0-.24,0-.49.02-.73l1.96-21.32c.16-1.71,1.17-3.24,2.69-4.04l20.94-11.12c.51-.27,1.07-.45,1.64-.53l33.47-4.95,5.24,28.21c-5.03,6.94-12.62,11.56-21.08,12.83l-5.42,19.72c-.84,3.05-3.98,4.83-7.02,4-3.04-.84-4.82-3.99-3.98-7.04l7.3-26.54c-4.82-.68-9.73-.35-14.42.94Z"/>
      <path class="h" d="m1356.68,177.87l29.01-10.14-4.16,2.21c-1.9,1-3.16,2.91-3.36,5.05l-.27,2.89c-.05.05-.11.1-.16.15l-5.58,5.12-12.17,4.26c-2.63.91-5.5-.47-6.42-3.11-.91-2.63.47-5.51,3.1-6.42Z"/>
      <path class="h" d="m1356.95,198.87l20.79-19.12-1.39,15.1-12.53,11.53c-2.07,1.89-5.28,1.76-7.18-.31-1.89-2.07-1.76-5.29.31-7.2Z"/>
      <path class="h" d="m1246.84,184.68c-1.35-1.05-2.95-1.73-4.63-1.99l.77-5.89c3.07.44,6.09,1.18,9.03,2.23.54.19.98.6,1.21,1.13.52,1.16.6,2.49.21,3.71-.2.62-.65,1.12-1.25,1.38-.71.3-1.47.47-2.25.48-1.12.02-2.21-.35-3.09-1.04Z"/>
      <path class="h" d="m1240.27,222.91c-4.45.06-8.9.12-13.34.19l-.07-4.37c3.6-.15,7.21-.22,10.81-.21,1.23.01,2.36.64,3,1.69.36.59.51,1.28.41,1.97-.05.41-.4.72-.81.72Z"/>
      <path class="h" d="m1251.59,132.26c.64-.59,1.49-.88,2.35-.78.74.08,1.48.17,2.22.26.15.02.28.11.36.23.16.24.09.57-.15.72-1.06.7-1.91,1.69-2.43,2.86-.47,1.04-1.29,1.89-2.32,2.39-1.3.63-2.43,1.55-3.31,2.71-4.01,5.28-8.16,10.45-12.44,15.53-1.08,1.27-1.99,2.68-2.7,4.18-.54,1.16-.79,2.44-.71,3.72.2,3.4.13,6.82-.23,10.2-.09.92.57,1.74,1.49,1.83.02.01.04.01.06.01,1.45.1,2.91.17,4.36.23,1.62.07,3.24.21,4.84.45l-.77,5.89c-.24-.03-.49-.06-.73-.08-2.69-.2-5.4-.1-8.08.28-2,.29-3.68,1.64-4.4,3.54-1.22,3.24-1.44,6.78-.63,10.14.7,2.9.3,5.95-1.12,8.57-.39.71-.84,1.39-1.35,2.02-.62.77-.82,1.8-.53,2.76.42,1.39.32,2.9-.28,4.23-.33.72-.52,1.5-.56,2.3-.04.89.47,1.71,1.28,2.07.33.15.69.22,1.05.21l.07,4.37c-2.7.04-5.39.09-8.09.14-1.21.02-2.4-.35-3.39-1.05-.2-.14-.37-.33-.48-.54-.22-.38-.65-.58-1.08-.5-1.16.23-2.35.3-3.53.2-1.27-.1-2.5-.48-3.61-1.1-1.09-.61-2.12-1.32-3.08-2.11-.91-.75-2.23-.75-3.14,0-2.31,1.91-4.86,3.52-7.59,4.77-.77.36-1.62.53-2.48.51-3.25-.1-6.5-.21-9.75-.33-1.8-.07-3.57.53-4.96,1.68-.67.56-1.62.65-2.38.23-.75-.42-1.08-1.32-.77-2.12.3-.77.83-1.44,1.52-1.89,1.81-1.18,3.9-1.86,6.06-1.97,2.64-.14,5.28-.14,7.92,0,1.79.09,3.55-.53,4.9-1.72,1.22-1.09,2.41-2.23,3.56-3.41,2.11-2.15,3.31-5.04,3.36-8.06,0-.86.07-1.73.15-2.6,1.22-11.96,4.89-23.54,10.8-34.01.79-1.38.96-3.04.49-4.55-.82-2.66-1.57-5.33-2.27-8.03-.3-1.16-.76-2.28-1.37-3.31-.59-1-1.23-1.97-1.92-2.92-.72-1-1.07-2.23-.96-3.46.09-1.09-.14-2.2-.67-3.16-.83-1.51-1.3-3.2-1.38-4.92,0-.25.05-.49.17-.7.36-.62,1.15-.83,1.77-.48,1.59.92,3.06,2.04,4.36,3.34.65.64,1.64.8,2.45.39.89-.45,1.79-.86,2.72-1.21.39-.15.61-.57.51-.99-.14-.53-.14-1.09,0-1.62.04-.16.13-.31.27-.41.33-.26.8-.2,1.06.13.29.38.61.74.96,1.07,1.01,1,2.36,1.58,3.77,1.62,1.15.03,2.29.08,3.44.15.58.03,1.1.39,1.35.92.4.86.74,1.75,1.01,2.67.31,1.04.19,2.17-.32,3.13-.49.91-.65,1.95-.46,2.98.06.32.31.56.63.62,1.49.24,3-.31,3.98-1.45,4.54-5.29,9.96-9.73,16.03-13.13,1.11-.62,2.18-1.31,3.21-2.06.66-.48,1.29-1,1.89-1.55Z"/>
      <path class="h" d="m1056.37,141.28c5.99,0,10.85,4.87,10.85,10.88s-4.86,10.87-10.85,10.87-10.84-4.86-10.84-10.87,4.85-10.88,10.84-10.88Z"/>
      <path class="h" d="m1061.04,279.25v2.43l-1.13,1.13h-9.03v5.16h5.64c.82,0,1.55.13,2.19.38.65.24,1.21.59,1.68,1.03s.83.97,1.08,1.58.37,1.28.37,2.01v3.88c0,.73-.12,1.41-.37,2.02s-.61,1.14-1.08,1.58-1.03.78-1.68,1.03c-.64.25-1.37.37-2.19.37h-10.32v-3.56h9.19c.65,0,1.18-.21,1.61-.62.43-.42.65-.91.65-1.47v-2.59c0-.56-.22-1.05-.65-1.47s-.96-.63-1.61-.63h-8.71v-12.28h14.36Z"/>
      <path class="h" d="m1033.75,160.41c-1.52-1.67-1.4-4.27.27-5.79,1.67-1.53,4.26-1.41,5.78.26l10.37,11.4h11.92l11.38-11.36c1.6-1.6,4.19-1.59,5.79.01,1.59,1.6,1.59,4.2-.02,5.8l-12.62,12.6,7.38,31.37h-6.81v15.8c0,2.36-1.9,4.26-4.25,4.26s-4.25-1.9-4.25-4.26v-15.8h-4.66v15.35c0,2.36-1.91,4.27-4.26,4.27s-4.25-1.91-4.25-4.27v-15.35h-6.43l7.25-30.46-12.59-13.83Z"/>
      <path class="k" d="m1057,297.69c-.43.41-.96.62-1.61.62h-9.19v3.56h-3.87v-10.34h13.06c.65,0,1.18.21,1.61.63s.65.91.65,1.47v2.59c0,.56-.22,1.05-.65,1.47Z"/>
      <rect class="k" x="1042.34" y="279.25" width="4.35" height="12.28"/>
      <polygon class="h" points="1038.15 301.87 1038.15 282.97 1034.12 282.97 1034.12 280.54 1039.12 279.25 1042.34 279.25 1042.34 291.53 1042.34 301.87 1038.15 301.87"/>
      <rect class="h" x="1019.77" y="289.75" width="13.06" height="3.39"/>
      <path class="k" d="m1004.78,296.17v-11.96c0-.56.21-1.05.64-1.47l.18-.58c.4.11.87-.05,1.44-.05h3.71c.64,0,1.18.21,1.61.63s.64.91.64,1.47v11.96c0,.56-.21,1.05-.64,1.47s-.97.63-1.61.63h-3.71c-.65,0-1.18-.21-1.62-.63-.43-.42-.64-.91-.64-1.47Z"/>
      <path class="h" d="m1000.66,141.31c5.92,0,10.73,4.82,10.73,10.76s-4.81,10.76-10.73,10.76-10.74-4.82-10.74-10.76,4.81-10.76,10.74-10.76Z"/>
      <path class="h" d="m1004.78,296.17c0,.56.21,1.05.64,1.47.44.42.97.63,1.62.63h3.71c.64,0,1.18-.21,1.61-.63s.64-.91.64-1.47v-11.96c0-.56-.21-1.05-.64-1.47s-.97-.63-1.61-.63h-3.71c-.57,0-1.04.16-1.44.05l-.18.58c-.43.42-.64.91-.64,1.47v11.96Zm7.09,6.02h-5.96c-.8,0-1.52-.12-2.18-.37-.65-.24-1.22-.59-1.69-1.03s-.83-.97-1.08-1.58-.37-1.28-.37-2.01v-13.26c0-.73.12-1.4.37-2.01s.61-1.14,1.08-1.58,1.04-.79,1.69-1.03c.66-.25,1.38-.38,2.18-.38h5.96c.55,0,1.05.06,1.52.06l.68.32c.64.24,1.2.59,1.67,1.03.48.44.84.97,1.09,1.58.24.61.37,1.28.37,2.01v13.26c0,.73-.13,1.4-.37,2.01-.25.61-.61,1.14-1.09,1.58-.47.44-1.03.79-1.67,1.03-.65.25-1.38.37-2.2.37Z"/>
      <rect class="k" x="998.24" y="204.89" width="5.26" height="15.49"/>
      <path class="k" d="m930.6,185.12l-63.06-149.02h821.91c10.33,0,18.71,8.39,18.71,18.74v260.54c0,10.35-8.38,18.75-18.71,18.75h-821.91l63.06-149.03Zm89.17,108.02h13.06v-3.39h-13.06v3.39Zm-1.23-137.91l-13.3,13.27h-8.45l-12.36-13.26c-1.54-1.65-4.13-1.74-5.79-.2-1.65,1.54-1.74,4.14-.19,5.8l11.06,11.87v47.66c0,2.42,1.95,4.37,4.36,4.37s4.36-1.95,4.36-4.37h5.26v.35c0,2.53,2.05,4.57,4.57,4.57s4.57-2.04,4.57-4.57v-48.01l11.69-11.67c1.6-1.6,1.61-4.2,0-5.8-1.59-1.6-4.18-1.61-5.79-.01Zm-17.89,7.61c5.92,0,10.73-4.82,10.73-10.76s-4.81-10.76-10.73-10.76-10.74,4.82-10.74,10.76,4.81,10.76,10.74,10.76Zm55.72.18c5.99,0,10.85-4.86,10.85-10.87s-4.86-10.88-10.85-10.88-10.84,4.87-10.84,10.88,4.85,10.87,10.84,10.87Zm-6.61,61.3c2.35,0,4.26-1.91,4.26-4.27v-15.35h4.66v15.8c0,2.36,1.9,4.26,4.25,4.26s4.25-1.9,4.25-4.26v-15.8h6.81l-7.38-31.37,12.62-12.6c1.61-1.6,1.61-4.2.02-5.8-1.6-1.6-4.19-1.61-5.79-.01l-11.38,11.36h-11.92l-10.37-11.4c-1.52-1.67-4.11-1.79-5.78-.26-1.67,1.52-1.79,4.12-.27,5.79l12.59,13.83-7.25,30.46h6.43v15.35c0,2.36,1.91,4.27,4.25,4.27Zm1.12,58.49h9.03l1.13-1.13v-2.43h-21.93l-5,1.29v2.43h4.03v18.9h18.38c.82,0,1.55-.12,2.19-.37.65-.25,1.21-.59,1.68-1.03s.83-.97,1.08-1.58.37-1.29.37-2.02v-3.88c0-.73-.12-1.4-.37-2.01s-.61-1.14-1.08-1.58-1.03-.79-1.68-1.03c-.64-.25-1.37-.38-2.19-.38h-5.64v-5.16Zm-44.98,19.38h5.96c.82,0,1.55-.12,2.2-.37.64-.24,1.2-.59,1.67-1.03.48-.44.84-.97,1.09-1.58.24-.61.37-1.28.37-2.01v-13.26c0-.73-.13-1.4-.37-2.01-.25-.61-.61-1.14-1.09-1.58-.47-.44-1.03-.79-1.67-1.03l-.68-.32c-.47,0-.97-.06-1.52-.06h-5.96c-.8,0-1.52.13-2.18.38-.65.24-1.22.59-1.69,1.03s-.83.97-1.08,1.58-.37,1.28-.37,2.01v13.26c0,.73.12,1.4.37,2.01s.61,1.14,1.08,1.58,1.04.79,1.69,1.03c.66.25,1.38.37,2.18.37Zm557.7-83.64c-1.05,2.96-1.03,6.18.05,9.13l10.22-10.36c3.53,1.64,6.38,4.47,8.06,7.99l-10.22,10.36c6.96,2.48,14.6-1.16,17.08-8.13,1.05-2.96,1.03-6.18-.05-9.13l38.62-39.15c6.96,2.48,14.6-1.16,17.08-8.14,1.05-2.95,1.03-6.17-.05-9.12l-9.96,10.09c-3.55-1.61-6.41-4.45-8.07-7.99l9.96-10.09c-6.95-2.49-14.6,1.15-17.07,8.13-1.05,2.96-1.03,6.18.05,9.12l-38.63,39.16c-6.95-2.49-14.6,1.16-17.07,8.13Zm-199.8-12.17l12.53-11.53,1.39-15.1-20.79,19.12c-2.07,1.9-2.2,5.12-.31,7.2,1.9,2.07,5.11,2.21,7.18.31Zm78.86-59.17l8.06,43.42,26.68-4.97c1.32-15.01-1.94-30.08-9.35-43.19l-25.39,4.74Zm95.15,45.23c-3.83,3.87-3.81,10.12.05,13.96s10.1,3.82,13.93-.05l18.59-18.78c1.25-1.26,2.14-2.85,2.57-4.57,1.01-4.08,4.86-6.8,9.03-6.38l2.67-2.73-5.69-5.66,25.7-25.21,3.07-.44,5.68-9.13-3.36-3.35-9.07,5.77-.41,3.08-24.94,25.97-5.69-5.66-2.7,2.7c.44,4.18-2.24,8.06-6.3,9.1-1.72.44-3.29,1.34-4.54,2.61l-18.59,18.78Zm-284.4-8.59c.39-1.22.31-2.55-.21-3.71-.23-.53-.67-.94-1.21-1.13-2.94-1.04-5.96-1.78-9.03-2.23-1.6-.24-3.22-.38-4.84-.45-1.45-.06-2.91-.13-4.36-.23-.02,0-.04,0-.06-.01-.92-.09-1.58-.91-1.49-1.83.36-3.39.43-6.81.23-10.2-.08-1.28.17-2.56.71-3.72.71-1.5,1.62-2.91,2.7-4.18,4.28-5.07,8.43-10.24,12.44-15.53.88-1.15,2.01-2.07,3.31-2.71,1.03-.49,1.85-1.34,2.32-2.39.52-1.16,1.37-2.15,2.43-2.86.24-.15.31-.48.15-.72-.08-.12-.21-.21-.36-.23-.74-.09-1.48-.18-2.22-.26-.86-.1-1.71.19-2.35.78-.6.55-1.23,1.07-1.89,1.55-1.03.75-2.1,1.44-3.21,2.06-6.07,3.4-11.49,7.84-16.03,13.13-.98,1.14-2.49,1.69-3.98,1.45-.32-.06-.57-.3-.63-.62-.19-1.02-.03-2.06.46-2.98.51-.96.63-2.08.32-3.13-.27-.91-.61-1.8-1.01-2.67-.25-.53-.77-.89-1.35-.92-1.15-.07-2.29-.12-3.44-.15-1.41-.04-2.76-.62-3.77-1.62-.35-.33-.67-.69-.96-1.07-.26-.33-.73-.39-1.06-.13-.14.1-.23.25-.27.41-.14.53-.14,1.09,0,1.62.1.42-.12.84-.51.99-.93.35-1.83.76-2.72,1.21-.81.41-1.8.25-2.45-.39-1.3-1.29-2.77-2.42-4.36-3.34-.62-.35-1.41-.14-1.77.48-.12.21-.18.45-.17.7.08,1.72.55,3.41,1.38,4.92.53.96.76,2.06.67,3.16-.11,1.23.24,2.46.96,3.46.69.94,1.33,1.91,1.92,2.92.61,1.03,1.07,2.14,1.37,3.31.7,2.7,1.45,5.37,2.27,8.03.47,1.51.3,3.17-.49,4.55-5.91,10.46-9.58,22.05-10.8,34.01-.08.86-.14,1.73-.15,2.6-.05,3.02-1.25,5.9-3.36,8.06-1.15,1.18-2.34,2.32-3.56,3.41-1.35,1.19-3.11,1.81-4.9,1.72-2.64-.14-5.28-.14-7.92,0-2.16.11-4.25.79-6.06,1.97-.69.45-1.22,1.12-1.52,1.89-.31.8.02,1.7.77,2.12.76.42,1.71.33,2.38-.23,1.39-1.15,3.16-1.75,4.96-1.68,3.25.12,6.5.23,9.75.33.86.02,1.71-.15,2.48-.51,2.73-1.25,5.28-2.86,7.59-4.77.91-.75,2.23-.75,3.14,0,.96.79,1.99,1.5,3.08,2.11,1.11.62,2.34,1,3.61,1.1,1.18.1,2.37.03,3.53-.2.43-.08.86.12,1.08.5.11.21.28.4.48.54.99.7,2.18,1.07,3.39,1.05,2.7-.05,5.39-.1,8.09-.14,4.44-.07,8.89-.13,13.34-.19.41,0,.76-.31.81-.72.1-.69-.05-1.38-.41-1.97-.64-1.05-1.77-1.68-3-1.69-3.6-.01-7.21.06-10.81.21-.36.01-.72-.06-1.05-.21-.81-.36-1.32-1.18-1.28-2.07.04-.79.23-1.57.56-2.3.6-1.33.7-2.84.28-4.23-.29-.95-.09-1.98.53-2.76.51-.63.96-1.31,1.35-2.02,1.42-2.62,1.82-5.67,1.12-8.57-.81-3.37-.59-6.91.63-10.14.72-1.89,2.4-3.25,4.4-3.54,2.68-.38,5.39-.48,8.08-.28.24.02.49.05.73.08,1.68.26,3.28.94,4.63,1.99.88.69,1.97,1.06,3.09,1.04.78-.01,1.54-.18,2.25-.48.6-.26,1.05-.76,1.25-1.38Zm188.48-33.8l-3.14.58,7.06,38,3.13-.58-7.05-38Zm-60.38,19.87l4.16-2.21-29.01,10.14c-2.63.91-4.01,3.8-3.1,6.42.92,2.64,3.79,4.02,6.42,3.11l12.17-4.26,5.58-5.12c.05-.05.11-.1.16-.15l.27-2.89c.2-2.14,1.46-4.05,3.36-5.05Zm11.65-6.18l5.68-3.01h-39.76c-2.81,0-5.09,2.29-5.09,5.1s2.28,5.09,5.09,5.09h13.53l20.56-7.19Zm-5.23,39c2.65-5.98,6.33-11.46,10.86-16.17,4.69-1.29,9.6-1.62,14.42-.94l-7.3,26.54c-.84,3.05.94,6.19,3.98,7.04,3.04.83,6.18-.95,7.02-4l5.42-19.72c8.46-1.27,16.05-5.89,21.08-12.83l-5.24-28.21-33.47,4.95c-.57.08-1.13.26-1.64.53l-20.94,11.12c-1.52.8-2.53,2.33-2.69,4.04l-1.96,21.32c-.02.24-.03.49-.02.73l1.04,19.92c.15,2.82,2.54,4.97,5.35,4.83,2.8-.15,4.96-2.55,4.81-5.36l-.71-13.79Z"/>
      <path class="h" d="m1012.63,172.71v48.01c0,2.53-2.05,4.57-4.57,4.57s-4.57-2.04-4.57-4.57v-15.84h-5.26v15.49c0,2.42-1.95,4.37-4.36,4.37s-4.36-1.95-4.36-4.37v-47.66l-11.06-11.87c-1.55-1.66-1.46-4.26.19-5.8,1.66-1.54,4.25-1.45,5.79.2l12.36,13.26h8.45l13.3-13.27c1.61-1.6,4.2-1.59,5.79.01,1.6,1.6,1.59,4.2,0,5.8l-11.69,11.67Z"/>
      <path class="h" d="m842.37,82.15c6.85,0,12.4,5.57,12.4,12.44s-5.55,12.43-12.4,12.43-12.41-5.56-12.41-12.43,5.56-12.44,12.41-12.44Z"/>
      <path class="h" d="m848.62,299.94h-9.03v-3.39h8.23c.96,0,1.45-.49,1.45-1.46,0-.83-.43-1.32-1.29-1.45l-4.52-.8c-.47-.09-.93-.26-1.38-.5-.46-.25-.85-.57-1.2-.95-.34-.39-.62-.83-.82-1.33-.2-.49-.31-1.02-.31-1.58v-.64c0-.6.12-1.17.34-1.69.23-.53.55-.99.97-1.39s.91-.71,1.48-.94c.57-.22,1.2-.34,1.89-.34h8.22v2.43l-.96.97h-6.29c-.5,0-.89.14-1.18.4-.29.27-.44.57-.44.89,0,.47.1.84.28,1.1s.52.43,1.01.51l4.68.81c.97.17,1.8.63,2.5,1.37s1.05,1.68,1.05,2.83v.81c0,.6-.11,1.16-.34,1.69s-.55.99-.97,1.39-.91.71-1.48.93c-.57.23-1.2.34-1.89.34Z"/>
      <path class="h" d="m840.24,243.61h8.22v2.43l-.97.97h-6.29c-.49,0-.88.14-1.17.4-.29.27-.44.57-.44.89,0,.47.09.84.28,1.1.18.26.52.43,1.01.51l4.68.81c.97.17,1.8.63,2.5,1.37s1.05,1.68,1.05,2.83v.81c0,.6-.12,1.16-.34,1.69-.23.53-.55.99-.97,1.39s-.91.71-1.48.93c-.57.23-1.2.34-1.89.34h-9.03v-3.39h8.22c.97,0,1.46-.49,1.46-1.46,0-.83-.44-1.32-1.3-1.45l-4.51-.8c-.47-.09-.94-.26-1.39-.5-.45-.25-.85-.57-1.19-.95-.34-.39-.62-.83-.82-1.33-.21-.49-.31-1.02-.31-1.58v-.64c0-.6.11-1.17.34-1.69.23-.53.55-.99.97-1.39s.91-.71,1.48-.94c.57-.22,1.2-.34,1.89-.34Z"/>
      <polygon class="h" points="837.98 275.7 837.98 277.48 825.73 301.55 822.19 301.55 822.19 299.78 834.43 275.7 837.98 275.7"/>
      <polygon class="h" points="817.99 259.94 830.25 235.86 833.79 235.86 833.79 237.63 821.54 261.71 817.99 261.71 817.99 259.94"/>
      <path class="h" d="m776.99,143.25c-2.3-1.77-2.73-5.08-.96-7.4l16.85-21.98c.99-1.29,2.53-2.05,4.17-2.05h40.83c2.62,0,5.06,1.35,6.45,3.59l12.82,20.61h16.99c2.91,0,5.26,2.36,5.26,5.27s-2.35,5.27-5.26,5.27h-22.28c-2.07,0-4.01-1.02-5.19-2.73l-8.96-12.99-14.01,23.66,18.99,13.13c1.74,1.2,3.04,2.95,3.7,4.97,1.65,5.08-1.12,10.54-6.19,12.21l-28.32,9.26c-2.58.84-5.38-.42-6.45-2.92-1.16-2.67.07-5.77,2.73-6.93l20.98-9.11-22.2-12.21s-.1-.06-.16-.09c-7.18-4.06-9.71-13.18-5.66-20.38l11.06-19.66h-12.87l-14.93,19.49c-1.77,2.31-5.07,2.75-7.38.97Z"/>
      <path class="h" d="m816.54,299.94c-.68,0-1.31-.11-1.88-.34-.57-.22-1.07-.53-1.49-.93s-.74-.86-.96-1.39c-.23-.53-.34-1.09-.34-1.69v-8.73h-2.42v-3.4h2.42l1.61-4.68h2.42v4.68h4.03v3.4h-4.03v8.08c0,.5.15.89.47,1.18.31.29.74.44,1.3.44h3.23v3.39h-4.36Z"/>
      <path class="h" d="m802.68,288.62v11.32h-4.03v-18.58c0-.6.11-1.17.33-1.69.23-.53.55-.99.97-1.39s.92-.71,1.48-.94c.57-.22,1.2-.34,1.89-.34h6.13v2.43l-.97.97h-4.19c-.56,0-.97.15-1.23.44-.25.29-.38.68-.38,1.17v3.24h4.83v3.39h-4.83Z"/>
      <path class="h" d="m795.71,247.56c-.24.28-.44.58-.61.9v11.64h-4.03v-16.49h2.74l.48,1.94h.32c.26-.43.57-.81.94-1.13.34-.3.74-.56,1.19-.79.45-.22.98-.34,1.58-.34h1.61c.78,0,1.42.11,1.94.32.52.22.92.46,1.23.71.36.33.65.68.87,1.07h.16c.21-.39.5-.74.87-1.07.32-.28.73-.52,1.24-.72.5-.21,1.14-.31,1.92-.31h2.58c.69,0,1.32.12,1.89.34.56.23,1.06.54,1.48.94.42.39.74.86.97,1.38.22.53.33,1.09.33,1.7v12.44h-4.03v-11.8c0-.49-.15-.89-.46-1.18-.32-.29-.75-.43-1.31-.43h-2.58c-.56,0-.99.14-1.31.43-.31.29-.46.69-.46,1.18v11.8h-4.04v-11.8c0-.49-.15-.89-.46-1.18s-.75-.43-1.31-.43h-1.77c-.45,0-.84.09-1.16.27-.33.19-.59.38-.81.6Z"/>
      <path class="h" d="m780.43,290.25h-5.96v-3.56l6.45-5.49v-.32h-8.74l-1.1-1.1v-2.46h15.16v3.56l-6.45,5.49v.32h1.77c.82,0,1.55.12,2.2.37.64.25,1.2.59,1.67,1.03.48.44.84.97,1.08,1.58.25.62.37,1.29.37,2.02v3.23c0,.73-.12,1.41-.37,2.02-.24.61-.6,1.14-1.08,1.58-.47.44-1.03.78-1.67,1.03-.65.25-1.38.37-2.2.37h-10.64v-3.56h9.51c.65,0,1.19-.21,1.62-.62.43-.42.64-.91.64-1.47v-1.94c0-.56-.21-1.04-.64-1.46s-.97-.63-1.62-.63Z"/>
      <polygon class="h" points="778.82 237.47 778.82 260.1 774.63 260.1 774.63 241.19 770.6 241.19 770.6 238.77 775.6 237.47 778.82 237.47"/>
      <path class="h" d="m804.76,166.86l1.66.91-36.03,47.2c-1.66,2.17-4.7,2.71-7,1.24-2.45-1.56-3.18-4.82-1.62-7.28l33.79-53.34c1.5,4.81,4.79,8.84,9.2,11.27Z"/>
      <path class="h" d="m779.54,154.38c1.69,0,3.06,1.37,3.06,3.07s-1.37,3.07-3.06,3.07h-31.57c-1.69,0-3.06-1.37-3.06-3.07s1.37-3.07,3.06-3.07h31.57Z"/>
      <path class="h" d="m733.5,171.23c0-1.69,1.37-3.07,3.06-3.07h31.57c1.69,0,3.06,1.37,3.06,3.07s-1.37,3.07-3.06,3.07h-31.57c-1.69,0-3.06-1.37-3.06-3.07Z"/>
      <path class="h" d="m722.37,186c0-1.69,1.37-3.07,3.07-3.07h31.56c1.69,0,3.06,1.37,3.06,3.07s-1.37,3.07-3.06,3.07h-31.56c-1.7,0-3.07-1.37-3.07-3.07Z"/>
      <polygon class="h" points="696.32 155.03 696.32 159.5 684.13 159.5 684.13 171.72 679.52 171.72 679.52 159.5 667.33 159.5 667.33 155.03 679.52 155.03 679.52 142.8 684.13 142.8 684.13 155.03 696.32 155.03"/>
      <path class="h" d="m606.77,247.57l.49,1.94h.32c.26-.43.57-.81.93-1.13.35-.3.75-.57,1.2-.79.45-.23.98-.34,1.58-.34h1.61c.77,0,1.42.11,1.94.32.51.22.92.45,1.22.71.37.32.66.68.87,1.07h.16c.22-.39.51-.75.87-1.07.33-.28.74-.52,1.25-.72.5-.21,1.14-.31,1.91-.31h2.58c.69,0,1.32.11,1.89.34.57.22,1.07.54,1.48.93.42.4.75.86.97,1.39.23.53.34,1.09.34,1.69v12.45h-4.03v-11.8c0-.5-.16-.89-.47-1.18s-.75-.43-1.3-.43h-2.58c-.56,0-1,.14-1.31.43s-.47.68-.47,1.18v11.8h-4.03v-11.8c0-.5-.16-.89-.47-1.18s-.74-.43-1.3-.43h-1.78c-.45,0-.84.09-1.16.27s-.59.38-.8.6c-.24.28-.44.58-.62.9v11.64h-4.03v-16.49h2.74Z"/>
      <path class="h" d="m608.62,285.45c-.31-.29-.75-.43-1.31-.43h-2.42c-.45,0-.83.09-1.16.27-.32.19-.59.38-.8.6-.24.28-.44.58-.62.9v11.64h-4.03v-16.49h2.74l.49,1.94h.32c.26-.43.57-.81.94-1.13.34-.3.74-.56,1.19-.79.45-.22.98-.34,1.58-.34h2.9c.69,0,1.32.12,1.89.34.57.23,1.06.54,1.48.94.42.39.74.86.97,1.38.22.53.34,1.09.34,1.7v12.44h-4.03v-11.8c0-.49-.16-.89-.47-1.18Z"/>
      <path class="h" d="m621.76,83.65c-7.34-4.15-15.42-6.84-23.77-7.92l1.94,3.86-19.15-8.13,21.75-4-4.51,3.79c9.03,1.03,17.75,3.87,25.65,8.35v-4.99l12.2,13.55-18.32-2.65,4.21-1.86Z"/>
      <path class="j" d="m629.73,98.62l-8.28,13.22,7.51,4.72c3.32,2.08,4.32,6.46,2.24,9.79l-21.27,33.98.5,7.66-29.61,44.43c.71-1.09,1.19-2.37,1.35-3.75l4.38-37.15h0s24.34-37.26,24.34-37.26l-2.5-1.57-10.1,16.14-3.27-2.05c6.65-18.88,17.4-36.06,31.46-50.29l3.23,2.12Z"/>
      <rect class="h" x="590.38" y="281.95" width="4.03" height="16.49"/>
      <rect class="h" x="590.38" y="275.32" width="4.03" height="4.53"/>
      <path class="h" d="m579.04,249.51h.32c.26-.43.57-.81.94-1.13.34-.3.74-.57,1.19-.79.45-.23.98-.34,1.58-.34h1.61c.78,0,1.42.11,1.94.32.51.22.92.45,1.22.71.37.32.66.68.87,1.07h.16c.22-.39.51-.75.88-1.07.32-.28.73-.52,1.24-.72.5-.21,1.14-.31,1.92-.31h2.58c.68,0,1.31.11,1.88.34.57.22,1.07.54,1.49.93.41.4.74.86.96,1.39.23.53.34,1.09.34,1.69v12.45h-4.03v-11.8c0-.5-.16-.89-.47-1.18s-.74-.43-1.3-.43h-2.58c-.56,0-1,.14-1.31.43s-.47.68-.47,1.18v11.8h-4.03v-11.8c0-.5-.15-.89-.47-1.18-.31-.29-.74-.43-1.3-.43h-1.78c-.45,0-.83.09-1.16.27-.32.18-.59.38-.8.6-.24.28-.44.58-.62.9v11.64h-4.03v-16.49h2.74l.49,1.94Z"/>
      <path class="k" d="m573.44,201.95c3.14,0,5.69,2.55,5.69,5.69s-2.55,5.69-5.69,5.69-5.68-2.55-5.68-5.69,2.55-5.69,5.68-5.69Z"/>
      <path class="h" d="m582.17,208.68c-.16,1.38-.64,2.66-1.35,3.75l-.07.11c-1.77,2.64-4.9,4.23-8.26,3.86-4.82-.53-8.3-4.87-7.78-9.71l8.88-81.46-2.94-.27-1.69,18.98-3.84-.34c-2.63-19.87-.83-40.05,5.27-59.13l3.83.42-1.38,15.55,8.83.79c3.89.34,6.77,3.8,6.42,7.71l-3.56,39.95,3.92,6.6-1.89,16.04h0s-4.38,37.16-4.38,37.16Zm-3.04-1.03c0-3.15-2.55-5.69-5.69-5.69s-5.68,2.55-5.68,5.69,2.55,5.69,5.68,5.69,5.69-2.55,5.69-5.69Z"/>
      <path class="h" d="m574.52,284.31c.36-.5.54-1.07.54-1.71v-1.13c0-.56-.21-1.05-.64-1.47s-.97-.62-1.61-.62h-8.07l-1.13-1.13v-2.43h10.32c1.62,0,2.91.44,3.87,1.32.97.88,1.46,2.05,1.46,3.52v1.94c0,.6-.08,1.14-.25,1.63-.16.48-.39.95-.69,1.4s-.67.9-1.11,1.34-.94.92-1.5,1.43l-6.77,6.14v.32h10.48v3.56h-16.29v-3.56l10.32-9.37c.35-.3.7-.7,1.07-1.19Z"/>
      <path class="k" d="m552.62,244.35c.4.1.88-.06,1.43-.06h3.71c.65,0,1.19.21,1.62.63s.64.91.64,1.46v11.97c0,.56-.21,1.05-.64,1.46-.43.42-.97.63-1.62.63h-3.71c-.64,0-1.18-.21-1.61-.63-.43-.41-.64-.9-.64-1.46v-11.97c0-.55.21-1.04.64-1.46l.18-.57Z"/>
      <rect class="h" x="557.34" y="294.4" width="3.71" height="4.04"/>
      <path class="h" d="m547.6,259.36v-13.25c0-.73.13-1.4.38-2.01.24-.62.6-1.14,1.08-1.59.47-.44,1.03-.78,1.69-1.03.66-.24,1.38-.37,2.18-.37h5.96c.55,0,1.05.06,1.52.06l.68.31c.64.25,1.2.59,1.67,1.03.48.45.83.97,1.08,1.59.25.61.37,1.28.37,2.01v13.25c0,.73-.12,1.41-.37,2.02-.24.61-.6,1.14-1.08,1.58-.47.44-1.03.78-1.67,1.03-.65.25-1.38.37-2.2.37h-5.96c-.8,0-1.52-.12-2.18-.37s-1.22-.59-1.69-1.03c-.48-.44-.84-.97-1.08-1.58-.25-.61-.38-1.29-.38-2.02Zm4.2-1.01c0,.56.21,1.05.64,1.46.43.42.97.63,1.61.63h3.71c.65,0,1.19-.21,1.62-.63.43-.41.64-.9.64-1.46v-11.97c0-.55-.21-1.04-.64-1.46s-.97-.63-1.62-.63h-3.71c-.55,0-1.03.16-1.43.06l-.18.57c-.43.42-.64.91-.64,1.46v11.97Z"/>
      <path class="h" d="m538.63,275.81h15.16v3.56l-6.45,5.49v.32h1.77c.82,0,1.55.12,2.2.37.64.25,1.2.59,1.67,1.03.48.44.84.97,1.08,1.58.25.62.37,1.29.37,2.02v3.23c0,.73-.12,1.41-.37,2.02-.24.61-.6,1.14-1.08,1.58-.47.44-1.03.78-1.67,1.03-.65.25-1.38.37-2.2.37h-10.64v-3.56h9.51c.65,0,1.19-.21,1.62-.62.43-.42.64-.91.64-1.47v-1.94c0-.56-.21-1.04-.64-1.46s-.97-.63-1.62-.63h-5.96v-3.56l6.45-5.49v-.32h-8.74l-1.1-1.1v-2.46Z"/>
      <path class="k" d="m534.38,254.19h3.87c.65,0,1.18.21,1.61.63s.65.91.65,1.47v2.43c0,.56-.22,1.05-.65,1.47-.43.41-.96.62-1.61.62h-3.87c-.64,0-1.18-.21-1.61-.62-.43-.42-.65-.91-.65-1.47v-2.43c0-.56.22-1.05.65-1.47s.97-.63,1.61-.63Z"/>
      <path class="k" d="m534.87,244.66h2.9c.64,0,1.18.21,1.61.63s.65.91.65,1.47v1.77c0,.56-.22,1.05-.65,1.47s-.97.63-1.61.63h-2.9c-.65,0-1.19-.21-1.62-.63s-.64-.91-.64-1.47v-1.77c0-.56.21-1.05.64-1.47s.97-.63,1.62-.63Z"/>
      <path class="h" d="m534.38,260.82h3.87c.65,0,1.18-.21,1.61-.62.43-.42.65-.91.65-1.47v-2.43c0-.56-.22-1.05-.65-1.47s-.96-.63-1.61-.63h-3.87c-.64,0-1.18.21-1.61.63s-.65.91-.65,1.47v2.43c0,.56.22,1.05.65,1.47.43.41.97.62,1.61.62Zm.49-10.17h2.9c.64,0,1.18-.21,1.61-.63s.65-.91.65-1.47v-1.77c0-.56-.22-1.05-.65-1.47s-.97-.63-1.61-.63h-2.9c-.65,0-1.19.21-1.62.63s-.64.91-.64,1.47v1.77c0,.56.21,1.05.64,1.47s.97.63,1.62.63Zm6.7,13.36c-.64.25-1.37.37-2.19.37h-6.13c-.79,0-1.52-.12-2.17-.37-.66-.25-1.22-.59-1.7-1.03-.47-.44-.83-.97-1.08-1.58-.24-.61-.37-1.29-.37-2.02v-2.75c0-.9.19-1.62.55-2.17.37-.54.77-.96,1.23-1.26.51-.36,1.1-.62,1.77-.77v-.32c-.58-.22-1.09-.5-1.52-.84-.43-.3-.79-.68-1.09-1.15-.3-.46-.45-1.03-.45-1.72v-2.27c0-.73.12-1.4.37-2.01.24-.62.6-1.14,1.08-1.59.47-.44,1.03-.78,1.69-1.03.66-.24,1.38-.37,2.18-.37h5.16c.81,0,1.55.13,2.19.37.65.25,1.2.59,1.68,1.03.47.45.83.97,1.08,1.59.24.61.37,1.28.37,2.01v2.27c0,.69-.16,1.27-.49,1.74-.32.47-.66.85-1.03,1.13-.45.34-.96.62-1.55.84v.32c.67.11,1.26.32,1.78.64.47.31.89.73,1.24,1.28s.53,1.3.53,2.28v2.75c0,.73-.12,1.41-.37,2.02s-.61,1.14-1.08,1.58-1.03.78-1.68,1.03Z"/>
      <polygon class="h" points="471.78 155.03 483.97 155.03 483.97 142.8 488.58 142.8 488.58 155.03 500.77 155.03 500.77 159.5 488.58 159.5 488.58 171.72 483.97 171.72 483.97 159.5 471.78 159.5 471.78 155.03"/>
      <path class="h" d="m405.38,161.68c-.87.37-1.75.72-2.63,1.05-.87.33-1.82.33-2.69.02-.33-.13-.64-.31-.9-.54-1.19-1.04-2.26-2.23-3.18-3.52-.44-.62-.44-1.46,0-2.08.89-1.23,2.01-2.28,3.29-3.07,3.29-2.01,7.41-2.1,10.77-.23,1.69.94,3.47,1.72,5.31,2.34,1.07.35,2.16.62,3.27.8h0c.48.08.8.54.72,1.02-.54,3.15-.88,6.33-1.03,9.52-.04.82-.4,1.59-1.01,2.13-.58.54-1.48.54-2.07,0-2.33-2.1-4.54-4.32-6.64-6.66-.31-.34-.69-.61-1.11-.79-.68-.28-1.44-.28-2.11,0Z"/>
      <path class="h" d="m406.24,288.75c-.29.27-.43.57-.43.89,0,.47.09.84.27,1.1s.52.43,1.02.51l4.67.81c.97.17,1.8.63,2.5,1.37s1.05,1.68,1.05,2.83v.81c0,.6-.11,1.16-.34,1.69s-.55.99-.97,1.39-.91.71-1.48.93c-.57.23-1.2.34-1.89.34h-9.03v-3.39h8.23c.96,0,1.45-.49,1.45-1.46,0-.83-.43-1.32-1.29-1.45l-4.52-.8c-.47-.09-.93-.26-1.38-.5-.46-.25-.85-.57-1.2-.95-.34-.39-.62-.83-.82-1.33-.2-.49-.31-1.02-.31-1.58v-.64c0-.6.12-1.17.34-1.69.23-.53.55-.99.97-1.39s.91-.71,1.48-.94c.57-.22,1.2-.34,1.89-.34h8.22v2.43l-.96.97h-6.29c-.5,0-.89.14-1.18.4Z"/>
      <path class="k" d="m400.52,249.64v.16c0,1.18-.59,1.77-1.78,1.77h-2.58c-1.18,0-1.77-.59-1.77-1.77v-.16c0-1.18.59-1.77,1.77-1.77h2.58c1.19,0,1.78.59,1.78,1.77Z"/>
      <path class="k" d="m393.26,261.76c0-1.18.59-1.77,1.77-1.77h4.84c1.18,0,1.78.59,1.78,1.77s-.6,1.78-1.78,1.78h-4.84c-1.18,0-1.77-.59-1.77-1.78Z"/>
      <path class="k" d="m395.16,289.97v6.46c0,.5-.15.89-.47,1.18-.31.29-.74.44-1.3.44h-5v-9.7h5c.56,0,.99.15,1.3.44.32.29.47.68.47,1.17Z"/>
      <path class="h" d="m392.91,145.8c2.69-3.71,5.91-6.99,9.57-9.72,1.52-1.13,3.17-2.1,4.9-2.88,1.27-.56,2.5-1.19,3.7-1.87,2.04-1.17,4.17-2.19,6.37-3.04.48-.18,1-.23,1.51-.14.86.15,1.44.95,1.33,1.81-.24,1.85-1.11,3.56-2.46,4.84-1.13,1.07-2.37,2.02-3.69,2.85-2.95,1.83-5.36,4.41-6.99,7.48-.81,1.53-2.26,2.64-3.95,3.01-1.93.43-3.72,1.35-5.21,2.67-1.53,1.37-3.24,2.53-5.08,3.44v-8.44Z"/>
      <path class="h" d="m395.03,259.99c-1.18,0-1.77.59-1.77,1.77s.59,1.78,1.77,1.78h4.84c1.18,0,1.78-.59,1.78-1.78s-.6-1.77-1.78-1.77h-4.84Zm8.87-18.1v1.61l-1.93,1.78v.32c.47.17.9.42,1.29.74.34.3.64.67.9,1.11s.39,1.01.39,1.7v1.77c0,.6-.11,1.17-.34,1.69-.23.53-.55.99-.97,1.39s-.91.71-1.48.94c-.57.22-1.2.33-1.89.33h-4.77c-.22.02-.36.1-.44.23-.07.13-.11.27-.11.42v.32c0,.17.06.32.16.44.11.11.25.18.42.21h5.55c.69,0,1.33.13,1.93.38.61.26,1.13.61,1.58,1.05.46.44.82.94,1.08,1.5.27.56.41,1.14.41,1.74v.97c0,.6-.14,1.18-.41,1.74-.26.56-.62,1.06-1.08,1.5-.45.44-.97.79-1.58,1.05-.6.26-1.24.39-1.93.39h-6.45c-.69,0-1.33-.13-1.94-.39-.6-.26-1.13-.61-1.58-1.05s-.81-.94-1.08-1.5-.4-1.14-.4-1.74v-.97c0-.69.13-1.27.4-1.76.27-.48.57-.88.89-1.2.39-.37.82-.67,1.29-.91v-.32c-.15-.06-.28-.16-.39-.29-.13-.11-.23-.24-.3-.4-.08-.16-.12-.36-.12-.6v-.45c0-.24.05-.44.13-.61.09-.18.19-.32.29-.42.11-.11.24-.21.39-.29v-.33c-.28-.19-.52-.44-.71-.74-.21-.28-.39-.6-.53-.97-.14-.36-.21-.81-.21-1.35v-1.77c0-.61.11-1.17.34-1.7.22-.52.55-.99.96-1.38.42-.4.92-.71,1.49-.94.57-.22,1.2-.34,1.89-.34h3.7l1.78-2.91h3.38Zm-3.38,7.92v-.16c0-1.18-.59-1.77-1.78-1.77h-2.58c-1.18,0-1.77.59-1.77,1.77v.16c0,1.18.59,1.77,1.77,1.77h2.58c1.19,0,1.78-.59,1.78-1.77Z"/>
      <path class="h" d="m388.39,298.05h5c.56,0,.99-.15,1.3-.44.32-.29.47-.68.47-1.18v-6.46c0-.49-.15-.88-.47-1.17-.31-.29-.74-.44-1.3-.44h-5v9.7Zm-4.03,3.39v-22.62h4.03v6.13h6.13c.69,0,1.31.12,1.88.34.57.23,1.07.54,1.49.94s.74.86.97,1.39c.22.52.33,1.09.33,1.69v7.76c0,.6-.11,1.16-.33,1.69-.23.53-.55.99-.97,1.39s-.92.71-1.49.93c-.57.23-1.19.34-1.88.34h-10.16Z"/>
      <path class="h" d="m379.05,296.43c0,.5.15.89.47,1.18.31.29.74.44,1.3.44h.97v3.39h-2.1c-.68,0-1.32-.11-1.9-.34-.58-.22-1.07-.53-1.48-.93s-.73-.86-.95-1.39c-.23-.53-.34-1.09-.34-1.69v-18.26h4.03v17.61Z"/>
      <polygon class="h" points="384.24 261.6 380.86 254.81 377.79 254.81 377.79 261.6 373.76 261.6 373.76 238.98 377.79 238.98 377.79 251.42 380.86 251.42 383.92 245.11 387.94 245.11 387.94 246.73 384.24 253.04 388.26 259.99 388.26 261.6 384.24 261.6"/>
      <polygon class="k" points="363 132.46 367.6 132.46 367.6 120.82 377.87 120.82 377.87 132.46 382.47 132.46 372.74 149.87 363 132.46"/>
      <path class="h" d="m307.27,135.36v-46.56c0-.89.41-1.72,1.1-2.28,1.25-.99,3.07-.78,4.07.47,15.05,19.03,28.47,39.31,40.11,60.62v11.28c0,3.15,2.54,5.7,5.69,5.7h28.98c1.18,0,2.33-.37,3.29-1.05,1.21-.85,2.85-.7,3.89.35l5.22,5.35c2.42,2.47,5.64,3.99,9.07,4.28,2.88.25,5.76.34,8.65.28.67-.01,1.34.11,1.96.35.56.34.97.89,1.14,1.53.3,1.16,0,2.41-.78,3.31-1.21,1.39-2.85,2.34-4.66,2.68-5.27.78-10.61.9-15.91.38-1.44-.14-2.82-.66-4-1.49-1.09-.77-2.19-1.55-3.27-2.35-1.17-.84-2.73-.88-3.94-.1-1.36.87-2.92,1.36-4.53,1.4-7.32.19-14.63.26-21.95.19-1.68-.02-3.06,1.34-3.08,3.03,0,.31.04.62.13.92l7.26,23.84c.48,1.6.16,3.35-.86,4.67l-2.68,3.45c-.14.17-.31.32-.51.42-.74.36-1.62.06-1.98-.68l-11.01-22.35c-3.69-7.49-8.06-14.62-13.07-21.3-3.78-5.04-7.65-10.02-11.62-14.92l-16.73-21.42Z"/>
      <path class="k" d="m358.25,282.68c.43.42.64.91.64,1.47v5.01h-5.64c-.65,0-1.18-.21-1.61-.63s-.65-.91-.65-1.47v-2.91c0-.56.22-1.05.65-1.47s.96-.63,1.61-.63h3.38c.65,0,1.19.21,1.62.63Z"/>
      <path class="h" d="m367.6,132.46h-4.6l9.74,17.41,9.73-17.41h-4.6v-11.64h-10.27v11.64Zm-11.49,26.43v-69.38c0-1.18.95-2.13,2.13-2.13h28.98c1.18,0,2.13.95,2.13,2.13v69.38c0,1.17-.95,2.12-2.13,2.12h-28.98c-1.18,0-2.13-.95-2.13-2.12Z"/>
      <path class="k" d="m351.67,241.83h3.71c.64,0,1.18.21,1.61.63s.65.91.65,1.47v11.96c0,.56-.22,1.05-.65,1.47s-.97.63-1.61.63h-3.71c-.65,0-1.18-.21-1.61-.63s-.65-.91-.65-1.47v-11.96c0-.56.22-1.05.65-1.47l.18-.57c.4.1.87-.06,1.43-.06Z"/>
      <path class="h" d="m361.63,300.04c-.47.44-1.03.78-1.67,1.03-.65.25-1.38.37-2.2.37h-9.83v-3.56h8.7c.65,0,1.19-.21,1.62-.62.43-.42.64-.91.64-1.47v-3.08h-6.77c-.8,0-1.52-.12-2.18-.37-.65-.24-1.22-.59-1.69-1.03s-.83-.97-1.08-1.58-.37-1.28-.37-2.01v-4.21c0-.73.12-1.4.37-2.01s.61-1.14,1.08-1.58,1.04-.79,1.69-1.03c.66-.25,1.38-.37,2.18-.37h5.64c.82,0,1.55.12,2.2.37.64.24,1.2.59,1.67,1.03.48.44.84.97,1.08,1.58.25.61.37,1.28.37,2.01v12.93c0,.73-.12,1.41-.37,2.02-.24.61-.6,1.14-1.08,1.58Zm-2.74-10.88v-5.01c0-.56-.21-1.05-.64-1.47s-.97-.63-1.62-.63h-3.38c-.65,0-1.18.21-1.61.63s-.65.91-.65,1.47v2.91c0,.56.22,1.05.65,1.47s.96.63,1.61.63h5.64Z"/>
      <path class="h" d="m351.67,241.83c-.56,0-1.03.16-1.43.06l-.18.57c-.43.42-.65.91-.65,1.47v11.96c0,.56.22,1.05.65,1.47s.96.63,1.61.63h3.71c.64,0,1.18-.21,1.61-.63s.65-.91.65-1.47v-11.96c0-.56-.22-1.05-.65-1.47s-.97-.63-1.61-.63h-3.71Zm8.71-1.77c.47.44.83.97,1.08,1.58.24.61.37,1.28.37,2.01v13.26c0,.73-.13,1.4-.37,2.01-.25.61-.61,1.14-1.08,1.58-.48.44-1.04.79-1.68,1.03-.65.25-1.38.37-2.19.37h-5.97c-.79,0-1.52-.12-2.18-.37-.65-.24-1.22-.59-1.69-1.03s-.83-.97-1.08-1.58-.37-1.28-.37-2.01v-13.26c0-.73.12-1.4.37-2.01s.61-1.14,1.08-1.58,1.04-.79,1.69-1.03c.66-.25,1.39-.37,2.18-.37h5.97c.54,0,1.04.05,1.51.05l.68.32c.64.24,1.2.59,1.68,1.03Z"/>
      <path class="k" d="m339.71,283.78v11.96c0,.56-.21,1.05-.64,1.47s-.97.63-1.61.63h-3.71c-.65,0-1.18-.21-1.62-.63-.43-.42-.64-.91-.64-1.47v-11.96c0-.56.22-1.05.64-1.47l.18-.58c.4.11.87-.05,1.44-.05h3.71c.64,0,1.18.21,1.61.63s.64.91.64,1.47Z"/>
      <polygon class="k" points="335.88 244.31 336.2 244.31 336.2 253.2 329.75 253.2 329.75 252.88 335.88 244.31"/>
      <path class="h" d="m336.2,244.31h-.32l-6.13,8.57v.32h6.45v-8.89Zm-.97-5.33h5.16v14.22h2.58v3.55h-2.58v4.85h-4.19v-4.85h-11.13v-3.55l10.16-14.22Z"/>
      <path class="h" d="m339.07,282.31c-.43-.42-.97-.63-1.61-.63h-3.71c-.57,0-1.04.16-1.44.05l-.18.58c-.42.42-.64.91-.64,1.47v11.96c0,.56.21,1.05.64,1.47.44.42.97.63,1.62.63h3.71c.64,0,1.18-.21,1.61-.63s.64-.91.64-1.47v-11.96c0-.56-.21-1.05-.64-1.47Zm-6.45-3.81h5.97c.54,0,1.04.05,1.51.05l.68.32c.64.24,1.2.59,1.67,1.03.48.44.84.97,1.09,1.58.24.61.37,1.28.37,2.01v13.26c0,.73-.13,1.4-.37,2.01-.25.61-.61,1.14-1.09,1.58-.47.44-1.03.79-1.67,1.03-.65.25-1.38.37-2.19.37h-5.97c-.8,0-1.52-.12-2.18-.37-.65-.24-1.22-.59-1.69-1.03s-.83-.97-1.08-1.58-.37-1.28-.37-2.01v-13.26c0-.73.12-1.4.37-2.01s.61-1.14,1.08-1.58,1.04-.79,1.69-1.03c.66-.25,1.38-.37,2.18-.37Z"/>
      <path class="k" d="m36.09,54.85c0-10.35,8.37-18.74,18.71-18.74h808.44l63.06,149.02-63.06,149.03H54.8c-10.34,0-18.71-8.4-18.71-18.75V54.85Zm793.87,39.74c0,6.87,5.56,12.43,12.41,12.43s12.4-5.56,12.4-12.43-5.55-12.44-12.4-12.44-12.41,5.57-12.41,12.44Zm-145.84,60.44v-12.23h-4.61v12.23h-12.19v4.47h12.19v12.22h4.61v-12.22h12.19v-4.47h-12.19Zm-89.72,143.4v-16.49h-4.03v16.49h4.03Zm227.13-36.73l12.26-24.08v-1.77h-3.55l-12.26,24.08v1.77h3.55Zm.65,39.84h3.54l12.26-24.08v-1.77h-3.55l-12.25,24.08v1.77Zm-264.85-3.12h3.71v-4.04h-3.71v4.04Zm243.77-155.99c-4.05,7.2-1.52,16.32,5.66,20.38.06.03.11.06.16.09l22.2,12.21-20.98,9.11c-2.66,1.15-3.89,4.26-2.73,6.93,1.07,2.5,3.87,3.76,6.45,2.92l28.32-9.26c5.07-1.66,7.84-7.13,6.19-12.21-.66-2.02-1.96-3.77-3.7-4.97l-18.99-13.13,14.01-23.66,8.96,12.99c1.18,1.7,3.12,2.73,5.19,2.73h22.28c2.91,0,5.26-2.37,5.26-5.27s-2.35-5.27-5.26-5.27h-16.99l-12.82-20.61c-1.39-2.24-3.83-3.59-6.45-3.59h-40.83c-1.64,0-3.18.76-4.17,2.05l-16.85,21.98c-1.77,2.32-1.34,5.62.96,7.4,2.31,1.77,5.61,1.33,7.38-.97l14.93-19.49h12.87l-11.06,19.66Zm5.32,25.33l-1.66-.91c-4.41-2.43-7.7-6.45-9.2-11.27l-33.79,53.34c-1.56,2.46-.83,5.71,1.62,7.28,2.3,1.46,5.34.92,7-1.24l36.03-47.2Zm-27.6,92.32v-22.62h-3.22l-5,1.29v2.43h4.03v18.9h4.19Zm-433.59-16.44v13.26c0,.73.12,1.4.37,2.01s.61,1.14,1.08,1.58,1.04.79,1.69,1.03c.66.25,1.39.37,2.18.37h5.97c.81,0,1.54-.12,2.19-.37.64-.24,1.2-.59,1.68-1.03.47-.44.83-.97,1.08-1.58.24-.61.37-1.28.37-2.01v-13.26c0-.73-.13-1.4-.37-2.01-.25-.61-.61-1.14-1.08-1.58-.48-.44-1.04-.79-1.68-1.03l-.68-.32c-.47,0-.97-.05-1.51-.05h-5.97c-.79,0-1.52.12-2.18.37-.65.24-1.22.59-1.69,1.03s-.83.97-1.08,1.58-.37,1.28-.37,2.01Zm457.46,56.28v-11.32h4.83v-3.39h-4.83v-3.24c0-.49.13-.88.38-1.17.26-.29.67-.44,1.23-.44h4.19l.97-.97v-2.43h-6.13c-.69,0-1.32.12-1.89.34-.56.23-1.06.54-1.48.94s-.74.86-.97,1.39c-.22.52-.33,1.09-.33,1.69v18.58h4.03Zm-314.1-144.91v-12.23h-4.61v12.23h-12.2v4.47h12.2v12.22h4.61v-12.22h12.19v-4.47h-12.19Zm-69.23,2.44c.08-.48-.24-.94-.72-1.02h0c-1.11-.18-2.2-.45-3.27-.8-1.84-.61-3.62-1.39-5.31-2.34-3.36-1.87-7.48-1.78-10.77.23-1.28.79-2.4,1.83-3.29,3.07-.44.62-.44,1.46,0,2.08.92,1.29,1.99,2.48,3.18,3.52.26.23.57.41.9.54.87.31,1.82.31,2.69-.02.88-.33,1.76-.68,2.63-1.05.67-.28,1.43-.28,2.11,0,.42.18.8.45,1.11.79,2.1,2.34,4.31,4.55,6.64,6.66.59.54,1.49.54,2.07,0,.61-.54.97-1.31,1.01-2.13.15-3.19.49-6.37,1.03-9.52Zm129.71,105.5c.47.44,1.03.78,1.69,1.03s1.38.37,2.18.37h5.96c.82,0,1.55-.12,2.2-.37.64-.25,1.2-.59,1.67-1.03.48-.44.84-.97,1.08-1.58.25-.61.37-1.29.37-2.02v-13.25c0-.73-.12-1.4-.37-2.01-.25-.62-.6-1.14-1.08-1.59-.47-.44-1.03-.78-1.67-1.03l-.68-.31c-.47,0-.97-.06-1.52-.06h-5.96c-.8,0-1.52.13-2.18.37-.66.25-1.22.59-1.69,1.03-.48.45-.84.97-1.08,1.59-.25.61-.38,1.28-.38,2.01v13.25c0,.73.13,1.41.38,2.02.24.61.6,1.14,1.08,1.58Zm246.04-14.51c.17-.32.37-.62.61-.9.22-.22.48-.41.81-.6.32-.18.71-.27,1.16-.27h1.77c.56,0,1,.14,1.31.43s.46.69.46,1.18v11.8h4.04v-11.8c0-.49.15-.89.46-1.18.32-.29.75-.43,1.31-.43h2.58c.56,0,.99.14,1.31.43.31.29.46.69.46,1.18v11.8h4.03v-12.44c0-.61-.11-1.17-.33-1.7-.23-.52-.55-.99-.97-1.38-.42-.4-.92-.71-1.48-.94-.57-.22-1.2-.34-1.89-.34h-2.58c-.78,0-1.42.1-1.92.31-.51.2-.92.44-1.24.72-.37.33-.66.68-.87,1.07h-.16c-.22-.39-.51-.74-.87-1.07-.31-.25-.71-.49-1.23-.71-.52-.21-1.16-.32-1.94-.32h-1.61c-.6,0-1.13.12-1.58.34-.45.23-.85.49-1.19.79-.37.32-.68.7-.94,1.13h-.32l-.48-1.94h-2.74v16.49h4.03v-11.64ZM356.11,89.51v69.38c0,1.17.95,2.12,2.13,2.12h28.98c1.18,0,2.13-.95,2.13-2.12v-69.38c0-1.18-.95-2.13-2.13-2.13h-28.98c-1.18,0-2.13.95-2.13,2.13Zm31.83,157.22v-1.62h-4.03l-3.06,6.3h-3.07v-12.44h-4.03v22.62h4.03v-6.79h3.07l3.38,6.79h4.03v-1.61l-4.03-6.95,3.71-6.3Zm427.95,32.03h-2.42l-1.61,4.68h-2.42v3.4h2.42v8.73c0,.6.11,1.16.34,1.69.22.53.54.99.96,1.39s.92.71,1.49.93c.57.23,1.2.34,1.88.34h4.36v-3.39h-3.23c-.56,0-.99-.15-1.3-.44-.32-.29-.47-.68-.47-1.18v-8.08h4.03v-3.4h-4.03v-4.68Zm-411.35-29.61c0-.69-.13-1.26-.39-1.7s-.56-.81-.9-1.11c-.39-.32-.82-.57-1.29-.74v-.32l1.93-1.78v-1.61h-3.38l-1.78,2.91h-3.7c-.69,0-1.32.12-1.89.34-.57.23-1.07.54-1.49.94-.41.39-.74.86-.96,1.38-.23.53-.34,1.09-.34,1.7v1.77c0,.54.07.99.21,1.35.14.37.32.69.53.97.19.3.43.55.71.74v.33c-.15.08-.28.18-.39.29-.1.1-.2.24-.29.42-.08.17-.13.37-.13.61v.45c0,.24.04.44.12.6.07.16.17.29.3.4.11.13.24.23.39.29v.32c-.47.24-.9.54-1.29.91-.32.32-.62.72-.89,1.2-.27.49-.4,1.07-.4,1.76v.97c0,.6.13,1.18.4,1.74s.63,1.06,1.08,1.5.98.79,1.58,1.05c.61.26,1.25.39,1.94.39h6.45c.69,0,1.33-.13,1.93-.39.61-.26,1.13-.61,1.58-1.05.46-.44.82-.94,1.08-1.5.27-.56.41-1.14.41-1.74v-.97c0-.6-.14-1.18-.41-1.74-.26-.56-.62-1.06-1.08-1.5-.45-.44-.97-.79-1.58-1.05-.6-.25-1.24-.38-1.93-.38h-5.55c-.17-.03-.31-.1-.42-.21-.1-.12-.16-.27-.16-.44v-.32c0-.15.04-.29.11-.42.08-.13.22-.21.44-.23h4.77c.69,0,1.32-.11,1.89-.33.57-.23,1.06-.54,1.48-.94s.74-.86.97-1.39c.23-.52.34-1.09.34-1.69v-1.77Zm-1.35-101.02c1.69-.37,3.14-1.47,3.95-3.01,1.63-3.07,4.04-5.64,6.99-7.48,1.32-.82,2.56-1.77,3.69-2.85,1.35-1.28,2.22-2.99,2.46-4.84.11-.86-.47-1.66-1.33-1.81-.51-.09-1.03-.04-1.51.14-2.2.85-4.33,1.86-6.37,3.04-1.2.68-2.43,1.31-3.7,1.87-1.73.77-3.38,1.74-4.9,2.88-3.66,2.74-6.88,6.01-9.57,9.72v8.44c1.84-.91,3.55-2.06,5.08-3.44,1.49-1.31,3.28-2.24,5.21-2.67Zm367.99,23.09c0-1.69-1.37-3.07-3.06-3.07h-31.57c-1.69,0-3.06,1.37-3.06,3.07s1.37,3.07,3.06,3.07h31.57c1.69,0,3.06-1.37,3.06-3.07Zm-192.15,78.28l-.49-1.94h-2.74v16.49h4.03v-11.64c.18-.32.38-.62.62-.9.21-.22.48-.42.8-.6.33-.18.71-.27,1.16-.27h1.78c.56,0,.99.14,1.3.43.32.29.47.68.47,1.18v11.8h4.03v-11.8c0-.5.16-.89.47-1.18s.75-.43,1.31-.43h2.58c.56,0,.99.14,1.3.43s.47.68.47,1.18v11.8h4.03v-12.45c0-.6-.11-1.16-.34-1.69-.22-.53-.55-.99-.96-1.39-.42-.39-.92-.71-1.49-.93-.57-.23-1.2-.34-1.88-.34h-2.58c-.78,0-1.42.1-1.92.31-.51.2-.92.44-1.24.72-.37.32-.66.68-.88,1.07h-.16c-.21-.39-.5-.75-.87-1.07-.3-.26-.71-.49-1.22-.71-.52-.21-1.16-.32-1.94-.32h-1.61c-.6,0-1.13.11-1.58.34-.45.22-.85.49-1.19.79-.37.32-.68.7-.94,1.13h-.32Zm-199.53,48.1c-.32-.29-.47-.68-.47-1.18v-17.61h-4.03v18.26c0,.6.11,1.16.34,1.69.22.53.54.99.95,1.39s.9.71,1.48.93c.58.23,1.22.34,1.9.34h2.1v-3.39h-.97c-.56,0-.99-.15-1.3-.44Zm4.85-18.79v22.62h10.16c.69,0,1.31-.11,1.88-.34.57-.22,1.07-.53,1.49-.93s.74-.86.97-1.39c.22-.53.33-1.09.33-1.69v-7.76c0-.6-.11-1.17-.33-1.69-.23-.53-.55-.99-.97-1.39s-.92-.71-1.49-.94c-.57-.22-1.19-.34-1.88-.34h-6.13v-6.13h-4.03Zm341.07-95.88c-1.7,0-3.07,1.37-3.07,3.07s1.37,3.07,3.07,3.07h31.56c1.69,0,3.06-1.37,3.06-3.07s-1.37-3.07-3.06-3.07h-31.56Zm-118.13,102.09c.56,0,1,.14,1.31.43s.47.69.47,1.18v11.8h4.03v-12.44c0-.61-.12-1.17-.34-1.7-.23-.52-.55-.99-.97-1.38-.42-.4-.91-.71-1.48-.94-.57-.22-1.2-.34-1.89-.34h-2.9c-.6,0-1.13.12-1.58.34-.45.23-.85.49-1.19.79-.37.32-.68.7-.94,1.13h-.32l-.49-1.94h-2.74v16.49h4.03v-11.64c.18-.32.38-.62.62-.9.21-.22.48-.41.8-.6.33-.18.71-.27,1.16-.27h2.42Zm175.29-127.58c0-1.69-1.37-3.07-3.06-3.07h-31.57c-1.69,0-3.06,1.37-3.06,3.07s1.37,3.07,3.06,3.07h31.57c1.69,0,3.06-1.37,3.06-3.07Zm65.87,86.16h-8.22c-.69,0-1.32.12-1.89.34-.57.23-1.06.54-1.48.94s-.74.86-.97,1.39c-.23.52-.34,1.09-.34,1.69v.64c0,.56.1,1.09.31,1.58.2.5.48.94.82,1.33.34.38.74.7,1.19.95.45.24.92.41,1.39.5l4.51.8c.86.13,1.3.62,1.3,1.45,0,.97-.49,1.46-1.46,1.46h-8.22v3.39h9.03c.69,0,1.32-.11,1.89-.34.57-.22,1.06-.53,1.48-.93s.74-.86.97-1.39c.22-.53.34-1.09.34-1.69v-.81c0-1.14-.35-2.08-1.05-2.83s-1.53-1.2-2.5-1.37l-4.68-.81c-.49-.08-.83-.25-1.01-.51-.19-.26-.28-.63-.28-1.1,0-.32.15-.62.44-.89.29-.26.68-.4,1.17-.4h6.29l.97-.97v-2.43Zm-274.04,36.38c.43.42.64.91.64,1.47v1.13c0,.64-.18,1.21-.54,1.71-.37.49-.72.89-1.07,1.19l-10.32,9.37v3.56h16.29v-3.56h-10.48v-.32l6.77-6.14c.56-.51,1.06-.99,1.5-1.43s.81-.89,1.11-1.34.53-.92.69-1.4c.17-.49.25-1.03.25-1.63v-1.94c0-1.46-.49-2.64-1.46-3.52-.96-.88-2.25-1.32-3.87-1.32h-10.32v2.43l1.13,1.13h8.07c.64,0,1.18.2,1.61.62Zm266.64,4.74c-.42.4-.74.86-.97,1.39-.22.52-.34,1.09-.34,1.69v.64c0,.56.11,1.09.31,1.58.2.5.48.94.82,1.33.35.38.74.7,1.2.95.45.24.91.41,1.38.5l4.52.8c.86.13,1.29.62,1.29,1.45,0,.97-.49,1.46-1.45,1.46h-8.23v3.39h9.03c.69,0,1.32-.11,1.89-.34.57-.22,1.06-.53,1.48-.93s.74-.86.97-1.39.34-1.09.34-1.69v-.81c0-1.14-.35-2.08-1.05-2.83s-1.53-1.2-2.5-1.37l-4.68-.81c-.49-.08-.83-.25-1.01-.51s-.28-.63-.28-1.1c0-.32.15-.62.44-.89.29-.26.68-.4,1.18-.4h6.29l.96-.97v-2.43h-8.22c-.69,0-1.32.12-1.89.34-.57.23-1.06.54-1.48.94Zm-237.04-37.17v16.49h4.03v-11.64c.18-.32.38-.62.62-.9.21-.22.48-.42.8-.6s.71-.27,1.16-.27h1.78c.56,0,.99.14,1.3.43s.47.68.47,1.18v11.8h4.03v-11.8c0-.5.16-.89.47-1.18s.75-.43,1.31-.43h2.58c.55,0,.99.14,1.3.43s.47.68.47,1.18v11.8h4.03v-12.45c0-.6-.11-1.16-.34-1.69-.22-.53-.55-.99-.97-1.39-.41-.39-.91-.71-1.48-.93-.57-.23-1.2-.34-1.89-.34h-2.58c-.77,0-1.41.1-1.91.31-.51.2-.92.44-1.25.72-.36.32-.65.68-.87,1.07h-.16c-.21-.39-.5-.75-.87-1.07-.3-.26-.71-.49-1.22-.71-.52-.21-1.17-.32-1.94-.32h-1.61c-.6,0-1.13.11-1.58.34-.45.22-.85.49-1.2.79-.36.32-.67.7-.93,1.13h-.32l-.49-1.94h-2.74Zm170.44,42.68h5.96c.65,0,1.19.21,1.62.63s.64.9.64,1.46v1.94c0,.56-.21,1.05-.64,1.47-.43.41-.97.62-1.62.62h-9.51v3.56h10.64c.82,0,1.55-.12,2.2-.37.64-.25,1.2-.59,1.67-1.03.48-.44.84-.97,1.08-1.58.25-.61.37-1.29.37-2.02v-3.23c0-.73-.12-1.4-.37-2.02-.24-.61-.6-1.14-1.08-1.58-.47-.44-1.03-.78-1.67-1.03-.65-.25-1.38-.37-2.2-.37h-1.77v-.32l6.45-5.49v-3.56h-15.16v2.46l1.1,1.1h8.74v.32l-6.45,5.49v3.56Zm-152.71-206.6l-4.21,1.86,18.32,2.65-12.2-13.55v4.99c-7.91-4.48-16.63-7.32-25.65-8.35l4.51-3.79-21.75,4,19.15,8.13-1.94-3.86c8.36,1.08,16.44,3.77,23.77,7.92Zm-279.32,196.25c-.47-.44-1.03-.79-1.67-1.03l-.68-.32c-.47,0-.97-.05-1.51-.05h-5.97c-.8,0-1.52.12-2.18.37-.65.24-1.22.59-1.69,1.03s-.83.97-1.08,1.58-.37,1.28-.37,2.01v13.26c0,.73.12,1.4.37,2.01s.61,1.14,1.08,1.58,1.04.79,1.69,1.03c.66.25,1.38.37,2.18.37h5.97c.81,0,1.54-.12,2.19-.37.64-.24,1.2-.59,1.67-1.03.48-.44.84-.97,1.09-1.58.24-.61.37-1.28.37-2.01v-13.26c0-.73-.13-1.4-.37-2.01-.25-.61-.61-1.14-1.09-1.58Zm5.81,0c-.47.44-.83.97-1.08,1.58s-.37,1.28-.37,2.01v4.21c0,.73.12,1.4.37,2.01s.61,1.14,1.08,1.58,1.04.79,1.69,1.03c.66.25,1.38.37,2.18.37h6.77v3.08c0,.56-.21,1.05-.64,1.47-.43.41-.97.62-1.62.62h-8.7v3.56h9.83c.82,0,1.55-.12,2.2-.37.64-.25,1.2-.59,1.67-1.03.48-.44.84-.97,1.08-1.58.25-.61.37-1.29.37-2.02v-12.93c0-.73-.12-1.4-.37-2.01-.24-.61-.6-1.14-1.08-1.58-.47-.44-1.03-.79-1.67-1.03-.65-.25-1.38-.37-2.2-.37h-5.64c-.8,0-1.52.12-2.18.37-.65.24-1.22.59-1.69,1.03Zm-7.87-18.3v-4.85h2.58v-3.55h-2.58v-14.22h-5.16l-10.16,14.22v3.55h11.13v4.85h4.19Zm203.78-7.26c-.35-.55-.77-.97-1.24-1.28-.52-.32-1.11-.53-1.78-.64v-.32c.59-.22,1.1-.5,1.55-.84.37-.28.71-.66,1.03-1.13.33-.47.49-1.05.49-1.74v-2.27c0-.73-.13-1.4-.37-2.01-.25-.62-.61-1.14-1.08-1.59-.48-.44-1.03-.78-1.68-1.03-.64-.24-1.38-.37-2.19-.37h-5.16c-.8,0-1.52.13-2.18.37-.66.25-1.22.59-1.69,1.03-.48.45-.84.97-1.08,1.59-.25.61-.37,1.28-.37,2.01v2.27c0,.69.15,1.26.45,1.72.3.47.66.85,1.09,1.15.43.34.94.62,1.52.84v.32c-.67.15-1.26.41-1.77.77-.46.3-.86.72-1.23,1.26-.36.54-.55,1.26-.55,2.17v2.75c0,.73.13,1.41.37,2.02.25.61.61,1.14,1.08,1.58.48.44,1.04.78,1.7,1.03.65.25,1.38.37,2.17.37h6.13c.82,0,1.55-.12,2.19-.37.65-.25,1.21-.59,1.68-1.03s.83-.97,1.08-1.58.37-1.29.37-2.02v-2.75c0-.97-.18-1.72-.53-2.28Zm50.24,25.51v-4.53h-4.03v4.53h4.03Zm-188.6,9.79c0-.32.14-.62.43-.89.29-.26.68-.4,1.18-.4h6.29l.96-.97v-2.43h-8.22c-.69,0-1.32.12-1.89.34-.57.23-1.06.54-1.48.94s-.74.86-.97,1.39c-.22.52-.34,1.09-.34,1.69v.64c0,.56.11,1.09.31,1.58.2.5.48.94.82,1.33.35.38.74.7,1.2.95.45.24.91.41,1.38.5l4.52.8c.86.13,1.29.62,1.29,1.45,0,.97-.49,1.46-1.45,1.46h-8.23v3.39h9.03c.69,0,1.32-.11,1.89-.34.57-.22,1.06-.53,1.48-.93s.74-.86.97-1.39.34-1.09.34-1.69v-.81c0-1.14-.35-2.08-1.05-2.83s-1.53-1.2-2.5-1.37l-4.67-.81c-.5-.08-.84-.25-1.02-.51s-.27-.63-.27-1.1Zm136.21-4.46v3.56h5.96c.65,0,1.19.21,1.62.63s.64.9.64,1.46v1.94c0,.56-.21,1.05-.64,1.47-.43.41-.97.62-1.62.62h-9.51v3.56h10.64c.82,0,1.55-.12,2.2-.37.64-.25,1.2-.59,1.67-1.03.48-.44.84-.97,1.08-1.58.25-.61.37-1.29.37-2.02v-3.23c0-.73-.12-1.4-.37-2.02-.24-.61-.6-1.14-1.08-1.58-.47-.44-1.03-.78-1.67-1.03-.65-.25-1.38-.37-2.2-.37h-1.77v-.32l6.45-5.49v-3.56h-15.16v2.46l1.1,1.1h8.74v.32l-6.45,5.49Zm84.48-188.69c-14.07,14.22-24.81,31.4-31.46,50.29l3.27,2.05,10.1-16.14,2.5,1.57-24.34,37.25,1.89-16.04-3.92-6.6,3.56-39.95c.35-3.91-2.53-7.37-6.42-7.71l-8.83-.79,1.38-15.55-3.83-.42c-6.1,19.07-7.9,39.26-5.27,59.13l3.84.34,1.69-18.98,2.94.27-8.88,81.46c-.52,4.84,2.96,9.18,7.78,9.71,3.36.37,6.49-1.22,8.26-3.86l.07-.11,29.61-44.43-.5-7.66,21.27-33.98c2.08-3.33,1.08-7.71-2.24-9.79l-7.51-4.72,8.28-13.22-3.23-2.12Zm-319.23-7.7v46.56l16.73,21.42c3.97,4.9,7.84,9.88,11.62,14.92,5.01,6.68,9.38,13.81,13.07,21.3l11.01,22.35c.36.74,1.24,1.04,1.98.68.2-.1.37-.25.51-.42l2.68-3.45c1.02-1.32,1.34-3.07.86-4.67l-7.26-23.84c-.09-.3-.13-.61-.13-.92.02-1.68,1.4-3.05,3.08-3.03,7.32.07,14.63,0,21.95-.19,1.61-.04,3.17-.53,4.53-1.4,1.21-.78,2.77-.74,3.94.1,1.08.79,2.18,1.57,3.27,2.35,1.18.83,2.56,1.35,4,1.49,5.3.52,10.64.4,15.91-.38,1.81-.34,3.45-1.28,4.66-2.68.79-.9,1.08-2.14.78-3.31-.17-.64-.58-1.19-1.14-1.53-.62-.24-1.29-.36-1.96-.35-2.89.06-5.77-.03-8.65-.28-3.43-.29-6.65-1.81-9.07-4.28l-5.22-5.35c-1.04-1.05-2.68-1.2-3.89-.35-.96.68-2.11,1.05-3.29,1.05h-28.98c-3.15,0-5.69-2.56-5.69-5.7v-11.28c-11.64-21.31-25.06-41.59-40.11-60.62-1-1.25-2.82-1.46-4.07-.47-.69.55-1.1,1.38-1.1,2.28Zm9.87,199.07l6.45-5.49v-3.56h-15.16v2.46l1.1,1.1h8.74v.32l-6.45,5.49v3.56h5.96c.65,0,1.19.21,1.62.63s.64.9.64,1.46v1.94c0,.56-.21,1.05-.64,1.47-.43.41-.97.62-1.62.62h-9.51v3.56h10.64c.82,0,1.55-.12,2.2-.37.64-.25,1.2-.59,1.67-1.03.48-.44.84-.97,1.08-1.58.25-.61.37-1.29.37-2.02v-3.23c0-.73-.12-1.4-.37-2.02-.24-.61-.6-1.14-1.08-1.58-.47-.44-1.03-.78-1.67-1.03-.65-.25-1.38-.37-2.2-.37h-1.77v-.32Zm-3.19-47.6v2.43h4.03v18.9h4.19v-22.62h-3.22l-5,1.29Zm-44.09,7.52c0-2.25-.59-4.45-1.71-6.38l-76.77-133.32c-3.52-6.11-11.32-8.21-17.42-4.68-1.94,1.12-3.55,2.74-4.67,4.68l-76.77,133.32c-3.52,6.11-1.43,13.93,4.67,17.46,1.94,1.12,4.14,1.71,6.38,1.71h153.55c7.04,0,12.75-5.72,12.75-12.79Z"/>
      <polygon class="h" points="313.95 240.27 318.95 238.98 322.17 238.98 322.17 261.6 317.98 261.6 317.98 242.7 313.95 242.7 313.95 240.27"/>
      <path class="h" d="m323.59,282.38l-6.45,5.49v.32h1.77c.82,0,1.55.12,2.2.37.64.25,1.2.59,1.67,1.03.48.44.84.97,1.08,1.58.25.62.37,1.29.37,2.02v3.23c0,.73-.12,1.41-.37,2.02-.24.61-.6,1.14-1.08,1.58-.47.44-1.03.78-1.67,1.03-.65.25-1.38.37-2.2.37h-10.64v-3.56h9.51c.65,0,1.19-.21,1.62-.62.43-.42.64-.91.64-1.47v-1.94c0-.56-.21-1.04-.64-1.46s-.97-.63-1.62-.63h-5.96v-3.56l6.45-5.49v-.32h-8.74l-1.1-1.1v-2.46h15.16v3.56Z"/>
      <path class="h" d="m97.19,258.86c-6.1-3.53-8.19-11.35-4.67-17.46l76.77-133.32c1.12-1.94,2.73-3.56,4.67-4.68,6.1-3.53,13.9-1.43,17.42,4.68l76.77,133.32c1.12,1.93,1.71,4.14,1.71,6.38,0,7.07-5.71,12.79-12.75,12.79H103.57c-2.24,0-4.44-.59-6.38-1.71Z"/>
      <path class="h" d="m54.8,334.15h808.44l63.06-149.03-63.06-149.02H54.8c-10.34,0-18.71,8.39-18.71,18.74v260.54c0,10.35,8.37,18.75,18.71,18.75Zm1634.65,0c10.33,0,18.71-8.4,18.71-18.75V54.85c0-10.35-8.38-18.74-18.71-18.74h-821.91l63.06,149.02-63.06,149.03h821.91Zm-1634.65,3.98c-12.53,0-22.67-10.17-22.67-22.73V54.85c0-12.55,10.15-22.72,22.67-22.72h1634.65c12.53,0,22.67,10.17,22.67,22.72v260.54c0,12.56-10.15,22.73-22.67,22.73H54.8Z"/>
    </g>
  </g>
  <g id="c" data-name="0 copy 2">
    <g id="d" data-name="LWPOLYLINE">
      <g>
        <path class="l" d="m191.14,230.8c0-5.98-4.84-10.83-10.8-10.83s-10.8,4.84-10.8,10.83,4.83,10.83,10.8,10.83,10.8-4.85,10.8-10.83Zm-21.76-68.81c-.26,1.39-.26,2.82,0,4.21l8.24,43.15c.29,1.49,1.74,2.49,3.24,2.2,1.11-.21,1.98-1.08,2.19-2.2l8.24-43.15c1.16-6.06-2.81-11.93-8.86-13.09-6.05-1.15-11.89,2.82-13.05,8.88Zm13.63-49.06l76.77,133.32c.27.47.42,1,.42,1.54,0,1.71-1.39,3.11-3.09,3.11H103.57c-.55,0-1.08-.15-1.55-.42-1.48-.85-1.99-2.75-1.13-4.23l76.77-133.32c.27-.47.66-.86,1.13-1.13,1.48-.85,3.37-.35,4.22,1.13Z"/>
        <g>
          <path class="g" d="m257.11,250.89c1.7,0,3.09-1.39,3.09-3.11,0-.54-.15-1.07-.42-1.54l-76.77-133.32c-.85-1.48-2.74-1.98-4.22-1.13-.47.27-.86.66-1.13,1.13l-76.77,133.32c-.86,1.48-.35,3.38,1.13,4.23.47.27,1,.42,1.55.42h153.55Z"/>
          <ellipse class="g" cx="180.34" cy="230.8" rx="10.8" ry="10.83"/>
          <path class="g" d="m183.05,209.35l8.24-43.15c1.16-6.06-2.81-11.93-8.86-13.09-6.05-1.15-11.89,2.82-13.05,8.88-.26,1.39-.26,2.82,0,4.21l8.24,43.15c.29,1.49,1.74,2.49,3.24,2.2,1.11-.21,1.98-1.08,2.19-2.2Z"/>
        </g>
      </g>
    </g>
    <g id="e" data-name="LWPOLYLINE">
      <g>
        <g>
          <path class="i" d="m1635.59,127.35c-25.71-22.47-64.01-22.55-89.81-.19l96.44,97.08c24.85-28.59,21.89-71.98-6.63-96.89Zm-124.86,51.77c0-44.2,35.75-80.05,79.84-80.05s79.84,35.84,79.84,80.05-35.74,80.05-79.84,80.05-79.84-35.83-79.84-80.05Zm123.35,53.05l-96.24-96.89c-24.15,29.2-20.13,72.49,9,96.7,25.27,21.02,61.88,21.1,87.24.19Z"/>
          <path class="i" d="m1448.55,127.35c-25.71-22.47-64-22.55-89.81-.19l96.44,97.08c24.85-28.59,21.9-71.98-6.63-96.89Zm-97.74,7.93c-24.15,29.2-20.13,72.49,8.99,96.7,25.28,21.02,61.89,21.1,87.25.19l-96.24-96.89Zm-27.11,43.84c0-44.2,35.74-80.05,79.84-80.05s79.84,35.84,79.84,80.05-35.75,80.05-79.84,80.05-79.84-35.83-79.84-80.05Z"/>
          <path class="i" d="m1163.76,135.28c-24.15,29.2-20.13,72.49,9,96.7,25.27,21.02,61.88,21.1,87.24.19l-96.24-96.89Zm97.74-7.93c-25.71-22.47-64-22.55-89.8-.19l96.43,97.08c24.86-28.59,21.9-71.98-6.63-96.89Zm-45.01-28.28c44.09,0,79.84,35.84,79.84,80.05s-35.75,80.05-79.84,80.05-79.84-35.83-79.84-80.05,35.75-80.05,79.84-80.05Z"/>
          <path class="i" d="m949.6,179.12c0-44.2,35.75-80.05,79.84-80.05s79.84,35.84,79.84,80.05-35.74,80.05-79.84,80.05-79.84-35.83-79.84-80.05Zm124.86-51.77c-25.71-22.47-64.01-22.55-89.81-.19l96.44,97.08c24.85-28.59,21.89-71.98-6.63-96.89Zm-1.51,104.82l-96.24-96.89c-24.15,29.2-20.13,72.49,9,96.7,25.27,21.02,61.88,21.1,87.24.19Z"/>
        </g>
        <g>
          <ellipse class="f" cx="1029.44" cy="179.12" rx="79.84" ry="80.05"/>
          <path class="f" d="m976.71,135.28l96.24,96.89c-25.36,20.91-61.97,20.83-87.24-.19-29.12-24.22-33.15-67.51-9-96.7Z"/>
          <path class="f" d="m984.65,127.16l96.44,97.08c24.85-28.59,21.89-71.98-6.63-96.89-25.71-22.47-64.01-22.55-89.81-.19Z"/>
          <ellipse class="f" cx="1216.49" cy="179.12" rx="79.84" ry="80.05"/>
          <path class="f" d="m1163.76,135.28l96.24,96.89c-25.36,20.91-61.97,20.83-87.24-.19-29.12-24.22-33.15-67.51-9-96.7Z"/>
          <path class="f" d="m1171.7,127.16l96.43,97.08c24.86-28.59,21.9-71.98-6.63-96.89-25.71-22.47-64-22.55-89.8-.19Z"/>
          <ellipse class="f" cx="1403.54" cy="179.12" rx="79.84" ry="80.05"/>
          <path class="f" d="m1350.81,135.28l96.24,96.89c-25.36,20.91-61.97,20.83-87.25-.19-29.11-24.22-33.14-67.51-8.99-96.7Z"/>
          <path class="f" d="m1358.74,127.16l96.44,97.08c24.85-28.59,21.9-71.98-6.63-96.89-25.71-22.47-64-22.55-89.81-.19Z"/>
          <ellipse class="f" cx="1590.57" cy="179.12" rx="79.84" ry="80.05"/>
          <path class="f" d="m1537.85,135.28l96.24,96.89c-25.36,20.91-61.97,20.83-87.24-.19-29.12-24.22-33.15-67.51-9-96.7Z"/>
          <path class="f" d="m1545.78,127.16l96.44,97.08c24.85-28.59,21.89-71.98-6.63-96.89-25.71-22.47-64.01-22.55-89.81-.19Z"/>
        </g>
      </g>
    </g>
  </g>
</svg>