<?xml version="1.0" encoding="UTF-8"?>
<svg id="Layer_2" data-name="Layer 2" xmlns="http://www.w3.org/2000/svg" viewBox="0 0 111.27 240.54">
  <defs>
    <style>
      .cls-1 {
        opacity: .5;
      }

      .cls-2 {
        fill: #fff;
      }

      .cls-2, .cls-3, .cls-4, .cls-5, .cls-6, .cls-7 {
        stroke-width: 0px;
      }

      .cls-8 {
        opacity: .75;
      }

      .cls-3 {
        fill: #3d3d3d;
      }

      .cls-4 {
        fill: #c6c6c6;
      }

      .cls-5 {
        fill: #e84e0f;
      }

      .cls-9 {
        fill: none;
        stroke: #fff;
        stroke-linecap: round;
        stroke-linejoin: round;
        stroke-width: .75px;
      }

      .cls-6 {
        fill: #1e1e1e;
      }

      .cls-7 {
        fill: #5b5b5b;
      }
    </style>
  </defs>
  <g id="_18_deg_valkonen" data-name="18 deg valkonen">
    <g id="ARC">
      <g>
        <g>
          <path class="cls-2" d="m55.58,66.19c3.44.28,6,3.29,5.72,6.73-.28,3.45-3.3,6.01-6.74,5.73l-.06-.26-.61-2.52c.71-.17,1.42-.37,2.12-.6,1.57-.52,2.43-2.21,1.91-3.79-.51-1.57-2.21-2.43-3.78-1.92-.55.19-1.1.35-1.66.48l-.65-2.67-.06-.26c1.14-.71,2.47-1.03,3.81-.92Z"/>
          <path class="cls-2" d="m57.92,71.48c.52,1.58-.34,3.27-1.91,3.79-.7.23-1.41.43-2.12.6-.35.08-.71.16-1.06.23.33-.74.52-1.57.52-2.44,0-1.33-.43-2.56-1.17-3.55h.01c.1-.02.2-.05.29-.07.56-.13,1.11-.29,1.66-.48,1.57-.51,3.27.35,3.78,1.92Z"/>
          <path class="cls-2" d="m54.5,78.39l.06.26c-1.42.88-3.15,1.16-4.78.76l-.02-.25h0c1.36-.6,2.46-1.69,3.07-3.06.35-.07.71-.15,1.06-.23l.61,2.52Z"/>
          <path class="cls-2" d="m53.35,73.66c0,.87-.19,1.7-.52,2.44-.61,1.37-1.71,2.46-3.07,3.05h0c-.74.33-1.55.51-2.41.51-3.31,0-6-2.69-6-6s2.69-6,6-6c.52,0,1.02.07,1.5.19,1.36.35,2.53,1.16,3.33,2.26.74.99,1.17,2.22,1.17,3.55Zm-3.74-.49l-1.55-1.71-2.26.48-.71,2.2,1.55,1.71,2.26-.48.71-2.2Z"/>
          <path class="cls-2" d="m51.83,67.37l.65,2.67c-.09.02-.19.05-.29.07h-.01c-.8-1.1-1.97-1.91-3.33-2.26l-.02-.27c.92-.39,1.93-.55,2.94-.47l.06.26Z"/>
          <polygon class="cls-2" points="48.07 71.46 49.61 73.17 48.9 75.37 46.64 75.85 45.09 74.14 45.81 71.94 48.07 71.46"/>
          <polygon class="cls-2" points="43.69 2.84 44.33 4.09 34.51 34.55 34.2 35.5 21.31 75.47 21.01 76.42 11.18 106.88 9.93 107.52 43.69 2.84"/>
          <path class="cls-2" d="m44.01,38.66h0s-1.29.01-1.29.01c-1.3,0-2.45.84-2.85,2.07l-1.61,5c-.31.95-.47,1.94-.46,2.94v8.51s.03,7.97.03,7.97l.03,13.86c0,.61.05,1.22.14,1.82-.33-.09-.66-.2-.99-.3l-11.42-3.69,4.84-14.98.47.15c1.23-.05,2.41-.5,3.36-1.28l1.84-5.71c-.31-1.2-1.01-2.25-1.98-3.01l-.47-.15,4.84-14.99,5.52,1.78Z"/>
          <polygon class="cls-2" points="43.69 2.84 9.93 107.52 2.31 105.07 36.08 .38 43.69 2.84"/>
          <polygon class="cls-2" points="38.49 36.88 33.65 51.87 30.43 61.87 25.59 76.85 23.22 76.09 21.31 75.47 34.2 35.5 36.11 36.12 38.49 36.88"/>
          <polygon class="cls-2" points="36.41 35.16 36.11 36.12 34.2 35.5 34.51 34.55 36.41 35.16"/>
          <path class="cls-2" d="m36.1,55.03l-1.84,5.71c-.95.78-2.13,1.23-3.36,1.28l-.47-.15,3.22-10,.47.15c.97.76,1.67,1.81,1.98,3.01Z"/>
          <polygon class="cls-2" points="36.08 .38 2.31 105.07 .38 101.29 32.31 2.31 36.08 .38"/>
          <polygon class="cls-2" points="21.31 75.47 23.22 76.09 22.91 77.04 21.01 76.42 21.31 75.47"/>
        </g>
        <g>
          <polygon class="cls-9" points="43.69 2.84 44.33 4.09 34.51 34.55 34.2 35.5 21.31 75.47 21.01 76.42 11.18 106.88 9.93 107.52 2.31 105.07 .38 101.29 32.31 2.31 36.08 .38 43.69 2.84"/>
          <polyline class="cls-9" points="38.49 36.88 33.65 51.87 30.43 61.87 25.59 76.85"/>
          <polyline class="cls-9" points="37.01 80.54 25.59 76.85 23.22 76.09 21.31 75.47"/>
          <line class="cls-9" x1="9.93" y1="107.52" x2="43.69" y2="2.84"/>
          <line class="cls-9" x1="34.26" y1="60.74" x2="36.1" y2="55.03"/>
          <line class="cls-9" x1="36.41" y1="35.16" x2="34.51" y2="34.55"/>
          <line class="cls-9" x1="36.08" y1=".38" x2="2.31" y2="105.07"/>
          <polygon class="cls-9" points="48.07 71.46 45.81 71.94 45.09 74.14 46.64 75.85 48.9 75.37 49.61 73.17 48.07 71.46"/>
          <line class="cls-9" x1="36.41" y1="35.16" x2="36.11" y2="36.12"/>
          <path class="cls-9" d="m34.12,52.02c.97.76,1.67,1.81,1.98,3.01"/>
          <line class="cls-9" x1="33.65" y1="51.87" x2="34.12" y2="52.02"/>
          <path class="cls-9" d="m49.76,79.15c1.36-.59,2.46-1.68,3.07-3.05.33-.74.52-1.57.52-2.44,0-1.33-.43-2.56-1.17-3.55-.8-1.1-1.97-1.91-3.33-2.26-.48-.12-.98-.19-1.5-.19-3.31,0-6,2.68-6,6s2.69,6,6,6c.86,0,1.67-.18,2.41-.5"/>
          <line class="cls-9" x1="30.43" y1="61.87" x2="30.9" y2="62.02"/>
          <path class="cls-9" d="m34.26,60.74c-.95.78-2.13,1.23-3.36,1.28"/>
          <line class="cls-9" x1="21.01" y1="76.42" x2="22.91" y2="77.04"/>
          <line class="cls-9" x1="23.22" y1="76.09" x2="22.91" y2="77.04"/>
          <polyline class="cls-9" points="44.01 38.66 38.49 36.88 36.11 36.12 34.2 35.5"/>
          <path class="cls-9" d="m37.01,80.54c.33.1.66.21.99.3"/>
          <path class="cls-9" d="m42.73,38.67c-1.3,0-2.45.84-2.85,2.07"/>
          <path class="cls-9" d="m56.01,75.27c1.57-.52,2.43-2.21,1.91-3.79-.51-1.57-2.21-2.43-3.78-1.92"/>
          <line class="cls-9" x1="52.49" y1="70.04" x2="51.83" y2="67.37"/>
          <line class="cls-9" x1="54.57" y1="78.65" x2="54.5" y2="78.39"/>
          <polyline class="cls-9" points="47.28 38.66 44.01 38.67 42.73 38.67"/>
          <line class="cls-9" x1="39.88" y1="40.74" x2="38.26" y2="45.74"/>
          <path class="cls-9" d="m48.83,67.58c.92-.39,1.93-.55,2.94-.47"/>
          <line class="cls-9" x1="37.81" y1="48.68" x2="37.82" y2="57.19"/>
          <polyline class="cls-9" points="49.78 79.41 49.76 79.16 49.76 79.15"/>
          <line class="cls-9" x1="51.83" y1="67.37" x2="51.77" y2="67.11"/>
          <line class="cls-9" x1="48.85" y1="67.85" x2="48.83" y2="67.58"/>
          <line class="cls-9" x1="37.82" y1="57.19" x2="37.83" y2="65.16"/>
          <line class="cls-9" x1="37.83" y1="65.16" x2="37.86" y2="79.02"/>
          <path class="cls-9" d="m37.86,79.02c0,.61.05,1.22.14,1.82.1.64.25,1.27.46,1.89"/>
          <path class="cls-9" d="m52.83,76.1c.35-.07.71-.15,1.06-.23.71-.17,1.42-.37,2.12-.6"/>
          <path class="cls-9" d="m52.19,70.11c.1-.02.2-.05.29-.07.56-.13,1.11-.29,1.66-.48"/>
          <path class="cls-9" d="m49.78,79.41c-1.23.53-2.6.64-3.91.32-3.35-.82-5.41-4.2-4.59-7.55.81-3.35,4.19-5.41,7.55-4.6"/>
          <line class="cls-9" x1="54.5" y1="78.39" x2="53.9" y2="75.87"/>
          <path class="cls-9" d="m54.57,78.65c-1.42.88-3.15,1.16-4.78.76"/>
          <path class="cls-9" d="m51.77,67.11c1.14-.71,2.47-1.03,3.81-.92,3.44.28,6,3.29,5.72,6.73-.28,3.45-3.3,6.01-6.74,5.73"/>
          <path class="cls-9" d="m38.26,45.74c-.31.95-.47,1.94-.46,2.94"/>
        </g>
      </g>
    </g>
  </g>
  <g id="_18_deg" data-name="18 deg" class="cls-1">
    <g id="ARC-2" data-name="ARC">
      <g>
        <g>
          <path class="cls-7" d="m55.59,66.19c3.44.28,6,3.3,5.72,6.74s-3.3,6-6.74,5.72l-.06-.26-.61-2.52c.71-.17,1.42-.37,2.11-.6,1.58-.51,2.43-2.21,1.92-3.78-.52-1.58-2.21-2.44-3.79-1.92-.55.18-1.1.34-1.66.47l-.64-2.67-.07-.25c1.14-.71,2.48-1.04,3.82-.93Z"/>
          <path class="cls-3" d="m57.93,71.49c.51,1.57-.34,3.27-1.92,3.78-.69.23-1.4.43-2.11.6-.35.09-.71.17-1.07.24.34-.75.53-1.58.53-2.45,0-1.32-.43-2.55-1.17-3.55.1-.02.2-.05.29-.07.56-.13,1.11-.29,1.66-.47,1.58-.52,3.27.34,3.79,1.92Z"/>
          <path class="cls-7" d="m54.51,78.39l.06.26c-1.43.89-3.15,1.16-4.78.77l-.02-.27c1.36-.6,2.46-1.68,3.06-3.04.36-.07.72-.15,1.07-.24l.61,2.52Z"/>
          <path class="cls-6" d="m53.36,73.66c0,.87-.19,1.7-.53,2.45-.6,1.36-1.7,2.44-3.06,3.04-.74.33-1.55.51-2.41.51-3.32,0-6-2.69-6-6s2.68-6,6-6c.51,0,1.01.06,1.49.19,1.36.35,2.53,1.16,3.34,2.26.74,1,1.17,2.23,1.17,3.55Zm-3.75-.48l-1.55-1.72-2.25.49-.71,2.2,1.55,1.71,2.25-.49.71-2.19Z"/>
          <path class="cls-7" d="m51.84,67.37l.64,2.67c-.09.02-.19.05-.29.07-.81-1.1-1.98-1.91-3.34-2.26l-.02-.26c.93-.39,1.94-.56,2.94-.47l.07.25Z"/>
          <polygon class="cls-7" points="48.06 71.46 49.61 73.18 48.9 75.37 46.65 75.86 45.1 74.15 45.81 71.95 48.06 71.46"/>
          <polygon class="cls-3" points="43.69 2.84 44.34 4.1 34.52 34.55 34.21 35.51 21.31 75.48 21.01 76.43 11.18 106.88 9.92 107.53 43.69 2.84"/>
          <path class="cls-3" d="m44,38.66h-1.28c-1.3,0-2.45.84-2.85,2.08l-1.61,4.99c-.31.95-.46,1.94-.46,2.94l.02,8.51.02,7.98.03,13.86c0,.61.05,1.22.14,1.82-.33-.1-.66-.2-.99-.31l-11.42-3.68,4.83-14.99.47.15c1.23-.04,2.42-.49,3.36-1.28l1.85-5.71c-.31-1.19-1.01-2.25-1.98-3l-.47-.15,4.83-14.99,5.51,1.78Z"/>
          <rect class="cls-3" x="-32" y="49.95" width="110" height="8" transform="translate(-35.41 59.28) rotate(-72.12)"/>
          <polygon class="cls-3" points="38.49 36.89 33.66 51.88 30.43 61.87 25.6 76.86 23.22 76.09 21.31 75.48 34.21 35.51 36.11 36.12 38.49 36.89"/>
          <polygon class="cls-3" points="36.42 35.16 36.11 36.12 34.21 35.51 34.52 34.55 36.42 35.16"/>
          <path class="cls-6" d="m36.11,55.03l-1.85,5.71c-.94.79-2.13,1.24-3.36,1.28l-.47-.15,3.23-9.99.47.15c.97.75,1.67,1.81,1.98,3Z"/>
          <polygon class="cls-3" points="36.08 .38 2.31 105.07 .38 101.3 32.3 2.32 36.08 .38"/>
          <polygon class="cls-3" points="23.22 76.09 22.91 77.04 21.01 76.43 21.31 75.48 23.22 76.09"/>
        </g>
        <g>
          <polygon class="cls-9" points="43.69 2.84 44.34 4.1 34.52 34.55 34.21 35.51 21.31 75.48 21.01 76.43 11.18 106.88 9.92 107.53 2.31 105.07 .38 101.3 32.3 2.32 36.08 .38 43.69 2.84"/>
          <polyline class="cls-9" points="38.49 36.89 33.66 51.88 30.43 61.87 25.6 76.86"/>
          <polyline class="cls-9" points="37.02 80.54 25.6 76.86 23.22 76.09 21.31 75.48"/>
          <line class="cls-9" x1="9.92" y1="107.53" x2="43.69" y2="2.84"/>
          <line class="cls-9" x1="34.26" y1="60.74" x2="36.11" y2="55.03"/>
          <line class="cls-9" x1="36.42" y1="35.16" x2="34.52" y2="34.55"/>
          <line class="cls-9" x1="36.08" y1=".38" x2="2.31" y2="105.07"/>
          <polygon class="cls-9" points="48.06 71.46 45.81 71.95 45.1 74.15 46.65 75.86 48.9 75.37 49.61 73.18 48.06 71.46"/>
          <line class="cls-9" x1="36.42" y1="35.16" x2="36.11" y2="36.12"/>
          <path class="cls-9" d="m34.13,52.03c.97.75,1.67,1.81,1.98,3"/>
          <line class="cls-9" x1="33.66" y1="51.88" x2="34.13" y2="52.03"/>
          <path class="cls-9" d="m52.83,76.11c.34-.75.53-1.58.53-2.45,0-1.32-.43-2.55-1.17-3.55-.81-1.1-1.98-1.91-3.34-2.26-.48-.13-.98-.19-1.49-.19-3.32,0-6,2.69-6,6s2.68,6,6,6c.86,0,1.67-.18,2.41-.51,1.36-.6,2.46-1.68,3.06-3.04Z"/>
          <line class="cls-9" x1="30.43" y1="61.87" x2="30.9" y2="62.02"/>
          <path class="cls-9" d="m34.26,60.74c-.94.79-2.13,1.24-3.36,1.28"/>
          <line class="cls-9" x1="21.01" y1="76.43" x2="22.91" y2="77.04"/>
          <line class="cls-9" x1="23.22" y1="76.09" x2="22.91" y2="77.04"/>
          <polyline class="cls-9" points="44 38.66 38.49 36.89 36.11 36.12 34.21 35.51"/>
          <path class="cls-9" d="m37.02,80.54c.33.11.66.21.99.31"/>
          <path class="cls-9" d="m42.72,38.66c-1.3,0-2.45.84-2.85,2.08"/>
          <path class="cls-9" d="m56.01,75.27c1.58-.51,2.43-2.21,1.92-3.78-.52-1.58-2.21-2.44-3.79-1.92"/>
          <line class="cls-9" x1="52.48" y1="70.04" x2="51.84" y2="67.37"/>
          <line class="cls-9" x1="54.57" y1="78.65" x2="54.51" y2="78.39"/>
          <polyline class="cls-9" points="47.28 38.66 44.01 38.66 44 38.66 42.72 38.66"/>
          <line class="cls-9" x1="39.87" y1="40.75" x2="38.26" y2="45.74"/>
          <path class="cls-9" d="m48.83,67.59c.93-.39,1.94-.56,2.94-.47"/>
          <line class="cls-9" x1="37.8" y1="48.68" x2="37.82" y2="57.19"/>
          <line class="cls-9" x1="49.79" y1="79.41" x2="49.77" y2="79.15"/>
          <line class="cls-9" x1="51.84" y1="67.37" x2="51.77" y2="67.12"/>
          <line class="cls-9" x1="48.85" y1="67.85" x2="48.83" y2="67.59"/>
          <line class="cls-9" x1="37.82" y1="57.19" x2="37.84" y2="65.16"/>
          <line class="cls-9" x1="37.84" y1="65.16" x2="37.87" y2="79.03"/>
          <path class="cls-9" d="m37.87,79.03c0,.61.05,1.22.14,1.82.1.64.25,1.27.45,1.88"/>
          <path class="cls-9" d="m52.83,76.11c.36-.07.72-.15,1.07-.24.71-.17,1.42-.37,2.11-.6"/>
          <path class="cls-9" d="m52.19,70.11c.1-.02.2-.05.29-.07.56-.13,1.11-.29,1.66-.47"/>
          <path class="cls-9" d="m49.79,79.41c-1.24.52-2.61.63-3.91.31-3.36-.81-5.41-4.19-4.6-7.55.82-3.35,4.2-5.41,7.55-4.59"/>
          <line class="cls-9" x1="54.51" y1="78.39" x2="53.9" y2="75.87"/>
          <path class="cls-9" d="m54.57,78.65c-1.43.89-3.15,1.16-4.78.77"/>
          <path class="cls-9" d="m51.77,67.12c1.14-.71,2.48-1.04,3.82-.93,3.44.28,6,3.3,5.72,6.74s-3.3,6-6.74,5.72"/>
          <path class="cls-9" d="m38.26,45.74c-.31.95-.46,1.94-.46,2.94"/>
        </g>
      </g>
    </g>
  </g>
  <g id="_9_deg_valkonen" data-name="9 deg valkonen">
    <g id="LINE">
      <g>
        <g>
          <path class="cls-2" d="m55.59,66.25c3.44.28,6,3.29,5.72,6.73-.28,3.45-3.3,6.01-6.74,5.73l-.06-.26h-.01c1.32-.85,2.29-2.2,2.63-3.79,1.21-1.13,1.27-3.03.14-4.24-.38-.39-.85-.68-1.37-.83h0c-.98-1.2-2.42-2-4.05-2.16l-.07-.26c1.14-.71,2.48-1.03,3.82-.92Z"/>
          <path class="cls-2" d="m57.27,70.42c1.13,1.21,1.07,3.11-.14,4.24.08-.41.13-.83.13-1.26,0-1.44-.51-2.77-1.37-3.81h0c.52.15.99.44,1.37.83Z"/>
          <path class="cls-2" d="m57.26,73.4c0,.43-.05.85-.13,1.26-.34,1.59-1.31,2.94-2.63,3.78-.93.61-2.04.96-3.24.96-.52,0-1.01-.06-1.49-.19-1.56-.4-2.88-1.41-3.68-2.77-.53-.89-.83-1.93-.83-3.04,0-.77.14-1.5.41-2.17.58-1.49,1.73-2.69,3.18-3.32h0c.74-.33,1.55-.51,2.41-.51.2,0,.39.01.58.03,1.63.16,3.07.96,4.05,2.16.86,1.04,1.37,2.37,1.37,3.81Zm-4.2,1.45l.36-2.28-1.8-1.45-2.15.83-.36,2.28,1.8,1.45,2.15-.83Z"/>
          <polygon class="cls-2" points="53.42 72.57 53.06 74.85 50.91 75.68 49.11 74.23 49.47 71.95 51.62 71.12 53.42 72.57"/>
          <path class="cls-2" d="m49.77,79.21l.02.26c-1.24.53-2.61.64-3.91.32-3.36-.82-5.41-4.2-4.6-7.55.82-3.35,4.2-5.41,7.55-4.6l.02.26h0c-1.45.64-2.6,1.84-3.18,3.33-1.37.93-1.73,2.8-.8,4.17.31.45.73.81,1.22,1.04.8,1.36,2.12,2.37,3.68,2.77Z"/>
          <path class="cls-2" d="m45.67,71.23c-.27.67-.41,1.4-.41,2.17,0,1.11.3,2.15.83,3.04-.49-.23-.91-.59-1.22-1.04-.93-1.37-.57-3.24.8-4.17Z"/>
          <path class="cls-2" d="m36.76,38.47l4.42.69c-.61.36-1.08.94-1.31,1.64l-1.61,5c-.31.95-.46,1.94-.46,2.94l.02,8.02h-.58c-.49-1.13-1.35-2.06-2.42-2.66l-.49-.07,2.43-15.56Z"/>
          <path class="cls-2" d="m38.06,81.18h0l-7.77-1.22,2.43-15.56.48.08c1.21-.24,2.31-.87,3.12-1.79l.93-5.93h.58v.49l.02,7.97.03,13.86c0,.71.06,1.41.19,2.1Z"/>
          <polygon class="cls-2" points="36.57 4.02 37.4 5.17 32.47 36.78 32.31 37.77 25.83 79.27 25.68 80.26 25.67 80.26 20.74 111.87 19.59 112.71 36.57 4.02"/>
          <path class="cls-2" d="m37.24,56.76l-.93,5.93c-.81.92-1.91,1.55-3.12,1.79l-.48-.08,1.62-10.37.49.07c1.07.6,1.93,1.53,2.42,2.66Z"/>
          <polygon class="cls-2" points="36.76 38.47 34.33 54.03 32.71 64.4 30.28 79.96 27.81 79.58 25.83 79.27 32.31 37.77 34.29 38.08 36.76 38.47"/>
          <polygon class="cls-2" points="36.57 4.02 19.59 112.71 11.69 111.47 28.67 2.79 36.57 4.02"/>
          <polygon class="cls-2" points="34.44 37.09 34.29 38.08 32.31 37.77 32.47 36.78 34.44 37.09"/>
          <polygon class="cls-2" points="28.67 2.79 11.69 111.47 9.19 108.04 25.24 5.29 28.67 2.79"/>
          <polygon class="cls-2" points="27.81 79.58 27.65 80.56 25.68 80.26 25.83 79.27 27.81 79.58"/>
        </g>
        <g>
          <polyline class="cls-9" points="25.67 80.26 20.74 111.87 19.59 112.71 11.69 111.47 9.19 108.04 25.24 5.29 28.67 2.79 36.57 4.02 37.4 5.17 32.47 36.78 32.31 37.77 25.83 79.27 25.68 80.26"/>
          <polyline class="cls-9" points="36.76 38.47 34.33 54.03 32.71 64.4 30.28 79.96"/>
          <line class="cls-9" x1="19.59" y1="112.71" x2="36.57" y2="4.02"/>
          <line class="cls-9" x1="36.31" y1="62.69" x2="37.24" y2="56.76"/>
          <line class="cls-9" x1="34.44" y1="37.09" x2="32.47" y2="36.78"/>
          <line class="cls-9" x1="28.67" y1="2.79" x2="11.69" y2="111.47"/>
          <polygon class="cls-9" points="51.62 71.12 49.47 71.95 49.11 74.23 50.91 75.68 53.06 74.85 53.42 72.57 51.62 71.12"/>
          <line class="cls-9" x1="34.44" y1="37.09" x2="34.29" y2="38.08"/>
          <path class="cls-9" d="m34.82,54.1c1.07.6,1.93,1.53,2.42,2.66"/>
          <line class="cls-9" x1="34.33" y1="54.03" x2="34.82" y2="54.1"/>
          <path class="cls-9" d="m48.85,67.91c-1.45.63-2.6,1.83-3.18,3.32-.27.67-.41,1.4-.41,2.17,0,1.11.3,2.15.83,3.04.8,1.36,2.12,2.37,3.68,2.77.48.13.97.19,1.49.19,1.2,0,2.31-.35,3.24-.96,1.32-.84,2.29-2.19,2.63-3.78.08-.41.13-.83.13-1.26,0-1.44-.51-2.77-1.37-3.81-.98-1.2-2.42-2-4.05-2.16-.19-.02-.38-.03-.58-.03-.86,0-1.67.18-2.41.5"/>
          <line class="cls-9" x1="32.71" y1="64.4" x2="33.19" y2="64.48"/>
          <path class="cls-9" d="m36.31,62.69c-.81.92-1.91,1.55-3.12,1.79"/>
          <polyline class="cls-9" points="25.67 80.26 25.68 80.26 27.65 80.56"/>
          <line class="cls-9" x1="27.81" y1="79.58" x2="27.65" y2="80.56"/>
          <polyline class="cls-9" points="41.18 39.16 36.76 38.47 34.29 38.08 32.31 37.77"/>
          <path class="cls-9" d="m42.72,38.73c-.56,0-1.09.15-1.54.43-.61.36-1.08.94-1.31,1.64"/>
          <path class="cls-9" d="m57.13,74.66c1.21-1.13,1.27-3.03.14-4.24-.38-.39-.85-.68-1.37-.83"/>
          <line class="cls-9" x1="54.57" y1="78.71" x2="54.51" y2="78.45"/>
          <line class="cls-9" x1="39.87" y1="40.8" x2="38.26" y2="45.8"/>
          <path class="cls-9" d="m48.83,67.64c.93-.39,1.94-.55,2.94-.47"/>
          <polyline class="cls-9" points="37.8 48.74 37.82 56.76 37.82 57.25"/>
          <line class="cls-9" x1="49.79" y1="79.47" x2="49.77" y2="79.21"/>
          <line class="cls-9" x1="51.84" y1="67.43" x2="51.77" y2="67.17"/>
          <polyline class="cls-9" points="48.85 67.91 48.85 67.9 48.83 67.64"/>
          <line class="cls-9" x1="37.82" y1="57.25" x2="37.84" y2="65.22"/>
          <line class="cls-9" x1="37.84" y1="65.22" x2="37.87" y2="79.08"/>
          <path class="cls-9" d="m37.87,79.08c0,.71.06,1.41.19,2.1.09.54.23,1.08.4,1.61"/>
          <path class="cls-9" d="m49.79,79.47c-1.24.53-2.61.64-3.91.32-3.36-.82-5.41-4.2-4.6-7.55.82-3.35,4.2-5.41,7.55-4.6"/>
          <path class="cls-9" d="m54.57,78.71c-1.43.88-3.15,1.16-4.78.76"/>
          <path class="cls-9" d="m51.77,67.17c1.14-.71,2.48-1.03,3.82-.92,3.44.28,6,3.29,5.72,6.73-.28,3.45-3.3,6.01-6.74,5.73"/>
          <path class="cls-9" d="m38.26,45.8c-.31.95-.46,1.94-.46,2.94"/>
          <path class="cls-9" d="m45.67,71.23c-1.37.93-1.73,2.8-.8,4.17.31.45.73.81,1.22,1.04"/>
          <polyline class="cls-9" points="38.05 81.18 30.28 79.96 27.81 79.58 25.83 79.27"/>
        </g>
      </g>
    </g>
  </g>
  <g id="_9_deg" data-name="9 deg" class="cls-8">
    <g id="LINE-2" data-name="LINE">
      <g>
        <g>
          <path class="cls-7" d="m55.59,66.25c3.44.28,6,3.29,5.72,6.73-.28,3.45-3.3,6.01-6.74,5.73l-.06-.26c1.32-.85,2.29-2.21,2.63-3.8,1.2-1.13,1.26-3.02.13-4.23-.38-.39-.85-.68-1.37-.83-.99-1.2-2.43-2.01-4.06-2.16l-.07-.26c1.14-.71,2.48-1.03,3.82-.92Z"/>
          <path class="cls-3" d="m57.27,70.41c1.13,1.21,1.07,3.1-.13,4.23.09-.41.13-.82.13-1.25,0-1.44-.51-2.77-1.37-3.81.52.15.99.44,1.37.83Z"/>
          <path class="cls-6" d="m57.14,74.65c-.34,1.59-1.31,2.95-2.63,3.8-.93.6-2.04.95-3.24.95-.52,0-1.02-.07-1.5-.19-1.57-.4-2.88-1.42-3.67-2.78-.53-.89-.83-1.93-.83-3.03,0-.77.14-1.5.41-2.17.57-1.49,1.72-2.68,3.17-3.32.74-.33,1.56-.51,2.42-.51.19,0,.39.01.57.03,1.63.15,3.07.96,4.06,2.16.86,1.04,1.37,2.37,1.37,3.81,0,.43-.04.84-.13,1.25Zm-4.08.2l.36-2.28-1.8-1.45-2.15.83-.36,2.28,1.8,1.45,2.15-.83Z"/>
          <polygon class="cls-7" points="53.42 72.57 53.06 74.85 50.91 75.68 49.11 74.23 49.47 71.95 51.62 71.12 53.42 72.57"/>
          <path class="cls-7" d="m49.77,79.21l.02.26c-1.24.53-2.61.64-3.91.32-3.36-.82-5.41-4.2-4.6-7.55.82-3.35,4.2-5.41,7.55-4.6l.02.27c-1.45.64-2.6,1.83-3.17,3.32h0c-1.37.93-1.73,2.8-.8,4.17.31.45.73.81,1.22,1.04h.01c.79,1.35,2.1,2.37,3.67,2.77Z"/>
          <path class="cls-3" d="m46.1,76.43h-.01c-.49-.22-.91-.58-1.22-1.03-.93-1.37-.57-3.24.8-4.17h0c-.27.67-.41,1.4-.41,2.17,0,1.1.3,2.14.83,3.03Z"/>
          <path class="cls-3" d="m36.76,38.47l4.42.69c-.61.36-1.08.94-1.31,1.64l-1.61,5c-.31.95-.46,1.94-.46,2.94l.02,8.02h-.58c-.49-1.13-1.35-2.06-2.42-2.66l-.49-.07,2.43-15.56Z"/>
          <path class="cls-3" d="m38.06,81.18l-7.78-1.22,2.43-15.56.49.08c1.2-.24,2.3-.87,3.11-1.79l.93-5.93h.58v.49l.02,7.97.03,13.86c0,.71.06,1.41.19,2.1Z"/>
          <polygon class="cls-3" points="36.57 4.02 37.4 5.16 32.47 36.78 32.31 37.77 25.83 79.27 25.68 80.26 20.74 111.87 19.59 112.71 36.57 4.02"/>
          <path class="cls-6" d="m37.24,56.76l-.93,5.93c-.81.92-1.91,1.55-3.11,1.79l-.49-.08,1.62-10.37.49.07c1.07.6,1.93,1.53,2.42,2.66Z"/>
          <polygon class="cls-3" points="36.76 38.47 34.33 54.03 32.71 64.4 30.28 79.96 27.81 79.58 25.83 79.27 32.31 37.77 34.29 38.08 36.76 38.47"/>
          <polygon class="cls-3" points="36.57 4.02 19.59 112.71 11.69 111.47 28.67 2.79 36.57 4.02"/>
          <polygon class="cls-3" points="34.44 37.09 34.29 38.08 32.31 37.77 32.47 36.78 34.44 37.09"/>
          <polygon class="cls-3" points="28.67 2.79 11.69 111.47 9.19 108.04 25.24 5.29 28.67 2.79"/>
          <polygon class="cls-3" points="27.81 79.58 27.65 80.56 25.68 80.26 25.83 79.27 27.81 79.58"/>
        </g>
        <g>
          <polygon class="cls-9" points="36.57 4.02 37.4 5.16 32.47 36.78 32.31 37.77 25.83 79.27 25.68 80.26 20.74 111.87 19.59 112.71 11.69 111.47 9.19 108.04 25.24 5.29 28.67 2.79 36.57 4.02"/>
          <polyline class="cls-9" points="36.76 38.47 34.33 54.03 32.71 64.4 30.28 79.96"/>
          <line class="cls-9" x1="19.59" y1="112.71" x2="36.57" y2="4.02"/>
          <line class="cls-9" x1="36.31" y1="62.69" x2="37.24" y2="56.76"/>
          <line class="cls-9" x1="34.44" y1="37.09" x2="32.47" y2="36.78"/>
          <line class="cls-9" x1="28.67" y1="2.79" x2="11.69" y2="111.47"/>
          <polygon class="cls-9" points="51.62 71.12 49.47 71.95 49.11 74.23 50.91 75.68 53.06 74.85 53.42 72.57 51.62 71.12"/>
          <line class="cls-9" x1="34.44" y1="37.09" x2="34.29" y2="38.08"/>
          <path class="cls-9" d="m34.82,54.1c1.07.6,1.93,1.53,2.42,2.66"/>
          <line class="cls-9" x1="34.33" y1="54.03" x2="34.82" y2="54.1"/>
          <path class="cls-9" d="m57.14,74.65c.09-.41.13-.82.13-1.25,0-1.44-.51-2.77-1.37-3.81-.99-1.2-2.43-2.01-4.06-2.16-.18-.02-.38-.03-.57-.03-.86,0-1.68.18-2.42.51-1.45.64-2.6,1.83-3.17,3.32-.27.67-.41,1.4-.41,2.17,0,1.1.3,2.14.83,3.03.79,1.36,2.1,2.38,3.67,2.78.48.12.98.19,1.5.19,1.2,0,2.31-.35,3.24-.95,1.32-.85,2.29-2.21,2.63-3.8Z"/>
          <line class="cls-9" x1="32.71" y1="64.4" x2="33.2" y2="64.48"/>
          <path class="cls-9" d="m36.31,62.69c-.81.92-1.91,1.55-3.11,1.79"/>
          <line class="cls-9" x1="25.68" y1="80.26" x2="27.65" y2="80.56"/>
          <line class="cls-9" x1="27.81" y1="79.58" x2="27.65" y2="80.56"/>
          <polyline class="cls-9" points="41.18 39.16 36.76 38.47 34.29 38.08 32.31 37.77"/>
          <path class="cls-9" d="m42.72,38.73c-.56,0-1.09.15-1.54.43-.61.36-1.08.94-1.31,1.64"/>
          <path class="cls-9" d="m57.13,74.66h0c1.2-1.14,1.26-3.03.13-4.24-.38-.39-.85-.68-1.37-.83"/>
          <line class="cls-9" x1="54.57" y1="78.71" x2="54.51" y2="78.45"/>
          <line class="cls-9" x1="39.87" y1="40.8" x2="38.26" y2="45.8"/>
          <path class="cls-9" d="m48.83,67.64c.93-.39,1.94-.55,2.94-.47"/>
          <polyline class="cls-9" points="37.8 48.74 37.82 56.76 37.82 57.25"/>
          <line class="cls-9" x1="49.79" y1="79.47" x2="49.77" y2="79.21"/>
          <line class="cls-9" x1="51.84" y1="67.43" x2="51.77" y2="67.16"/>
          <line class="cls-9" x1="48.85" y1="67.91" x2="48.83" y2="67.64"/>
          <line class="cls-9" x1="37.82" y1="57.25" x2="37.84" y2="65.22"/>
          <line class="cls-9" x1="37.84" y1="65.22" x2="37.87" y2="79.08"/>
          <path class="cls-9" d="m37.87,79.08c0,.71.06,1.41.19,2.1.09.54.23,1.08.4,1.61"/>
          <path class="cls-9" d="m49.79,79.47c-1.24.53-2.61.64-3.91.32-3.36-.82-5.41-4.2-4.6-7.55.82-3.35,4.2-5.41,7.55-4.6"/>
          <path class="cls-9" d="m54.57,78.71c-1.43.88-3.15,1.16-4.78.76"/>
          <path class="cls-9" d="m51.77,67.16c1.14-.71,2.48-1.03,3.82-.92,3.44.28,6,3.29,5.72,6.73-.28,3.45-3.3,6.01-6.74,5.73"/>
          <path class="cls-9" d="m38.26,45.8c-.31.95-.46,1.94-.46,2.94"/>
          <path class="cls-9" d="m45.67,71.23c-1.37.93-1.73,2.8-.8,4.17.31.45.73.81,1.22,1.04"/>
          <polyline class="cls-9" points="38.06 81.18 30.28 79.96 27.81 79.58 25.83 79.27"/>
        </g>
      </g>
    </g>
  </g>
  <g id="normal">
    <g id="ARC-3" data-name="ARC">
      <g>
        <g>
          <polygon class="cls-3" points="110.9 130.77 110.9 132.82 73.47 124.29 73.85 122.32 73.86 122.32 110.9 130.77"/>
          <path class="cls-3" d="m110.9,127.69v3.08l-37.04-8.45h0l.4-2.05.09-.48.88-4.58s0-.01.01-.01c3.3-5.14,2.88-11.84-1.04-16.53h-.01s-1.01-3.1-1.01-3.1c.23.18.45.37.66.56,1.52,1.38,3.37,2.34,5.37,2.8l31.7,7.23v3.07l-22.11-5.04c-1.15-.26-2.35.11-3.15.97l-4.48,4.83c-.8.86-1.08,2.09-.73,3.22l1.94,6.29c.35,1.12,1.27,1.98,2.42,2.24l26.11,5.95Z"/>
          <path class="cls-3" d="m110.9,126.66v1.02l-26.11-5.95c-1.15-.26-2.07-1.12-2.42-2.24l-1.94-6.29c-.35-1.13-.07-2.36.73-3.22l4.48-4.83c.8-.86,2-1.23,3.15-.97l22.11,5.04v1.03l-22.33-5.1c-.8-.18-1.64.08-2.2.68l-4.47,4.83c-.56.6-.76,1.46-.52,2.24l1.95,6.29c.24.79.88,1.38,1.68,1.56l25.89,5.91Z"/>
          <path class="cls-3" d="m110.9,104.1v2.06l-31.7-7.23c-2-.46-3.85-1.42-5.37-2.8-.21-.19-.43-.38-.66-.56l-.53-1.63c.15.1.31.21.46.32.49.36,1.01.68,1.54.98,1.23.67,2.54,1.17,3.91,1.49l1.1.25,31.25,7.12Z"/>
          <path class="cls-3" d="m64.58,179.1l.1,46.54c.02,8.01-6.46,14.51-14.47,14.53-8.01.02-14.51-6.46-14.53-14.47l-.12-56.07c0-.56.02-1.13.07-1.69v-.08s0-.06,0-.09c.05-.57.13-1.14.23-1.71.02-.09.04-.17.05-.26l1.33-6.9s.02-.08.03-.11c0-.04,0-.08.02-.12l6.26-32.42.05-.3,1.18-6.09.07-.39,1.5-7.74c.38-2,.25-4.07-.38-6.01l-7.52-22.97c-.06-.18-.12-.37-.16-.56-.29-1.02-.43-2.08-.43-3.15l-.03-13.86c.3-.29.57-.63.8-.99l-.02-6c-.23-.36-.5-.69-.8-.98l-.02-8.52c0-.99.15-1.98.46-2.93l1.61-5c.07-.2.15-.39.26-.57.52-.91,1.5-1.5,2.59-1.51h4.56c4.33-.01,8.18,2.77,9.53,6.88l15.83,48.38.53,1.63,1.01,3.09h.01s1.61,4.94,1.61,4.94c.69,2.1.83,4.34.41,6.5l-.98,5.1s-.01.01-.01.01l-.88,4.58-.09.48-.4,2.05-.38,1.97-.37,1.9s-.01.07-.02.11-.01.08-.02.11l-6.26,32.43-.04.2-1.7,8.84-.08.38-.05.28c-.25,1.27-.37,2.55-.36,3.84v6.72Zm9.66-69.38c.36-1.83.24-3.73-.34-5.5l-11.34-34.64-7.65-23.39c-1.08-3.3-4.16-5.52-7.62-5.52h-4.57c-.43.01-.81.29-.94.71l-1.62,4.99c-.24.75-.36,1.53-.36,2.32l.06,24.99v5.36c.01,1.05.18,2.09.5,3.09l7.52,22.97c.74,2.26.89,4.67.44,7.01l-1.49,7.74c-.01.07-.03.13-.04.19,0,.07-.02.13-.04.2-.09.46-.18.92-.26,1.37-.09.45-.18.89-.26,1.32-.08.42-.16.82-.24,1.21-.06.3-.12.59-.17.86-.01.03-.02.07-.02.11-.01.04-.02.08-.02.11l-6.26,32.43s-.02.07-.02.11c-.01.04-.02.08-.03.11-.11.6-.23,1.23-.35,1.88-.13.66-.26,1.34-.39,2.04-.14.7-.28,1.42-.42,2.15-.12.64-.24,1.29-.37,1.94l-.03.15s-.01.09-.02.14c-.12.59-.2,1.17-.25,1.76,0,.06,0,.12-.02.17-.04.51-.06,1.02-.06,1.53l.12,56.07c.01,6.9,5.62,12.48,12.52,12.47,6.91-.02,12.49-5.62,12.48-12.53l-.11-53.26c-.01-1.41.13-2.83.39-4.22l.06-.28c.01-.06.02-.13.04-.19.01-.06.02-.13.03-.19.18-.93.36-1.86.54-2.77.17-.91.35-1.8.52-2.66.16-.86.32-1.69.48-2.48.14-.7.27-1.37.39-2,0-.04,0-.07.02-.11s.02-.08.02-.11l6.26-32.43s.02-.07.02-.11l.03-.12c.07-.38.14-.78.22-1.2.08-.43.17-.87.25-1.32.09-.45.18-.91.26-1.38.07-.33.13-.67.2-1.01.01-.07.02-.13.04-.19.01-.07.02-.13.03-.2l1.87-9.69Z"/>
          <path class="cls-4" d="m76.21,110.1c.42-2.16.28-4.4-.41-6.5l-1.61-4.93c3.92,4.69,4.34,11.39,1.04,16.53l.98-5.1Z"/>
          <path class="cls-3" d="m73.9,104.22c.58,1.77.7,3.67.34,5.5l-1.87,9.69c-.01.07-.02.13-.03.2-.02.06-.03.12-.04.19-.07.34-.13.68-.2,1.01-.08.47-.17.93-.26,1.38-.08.45-.17.89-.25,1.32-.08.42-.15.82-.22,1.2l-.03.12s-.01.07-.02.11l-6.26,32.43s-.01.07-.02.11-.01.07-.02.11c-.12.63-.25,1.3-.39,2-.16.79-.32,1.62-.48,2.48-.17.86-.35,1.75-.52,2.66-.18.91-.36,1.84-.54,2.77,0,.06-.02.13-.03.19-.02.06-.03.13-.04.19l-.06.28c-.26,1.39-.4,2.81-.39,4.22l.11,53.26c.01,6.91-5.57,12.51-12.48,12.53-6.9.01-12.51-5.57-12.52-12.47l-.12-56.07c0-.51.02-1.02.06-1.53.01-.05.01-.11.02-.17.05-.59.13-1.17.25-1.76.01-.05.01-.09.02-.14l.03-.15c.13-.65.25-1.3.37-1.94.14-.73.28-1.45.42-2.15.13-.7.26-1.38.39-2.04.12-.65.24-1.28.35-1.88.01-.03.02-.07.03-.11,0-.04,0-.08.02-.11l6.26-32.43s0-.07.02-.11c0-.04.01-.08.02-.11.05-.27.11-.56.17-.86.08-.39.16-.79.24-1.21.08-.43.17-.87.26-1.32.08-.45.17-.91.26-1.37.02-.07.03-.13.04-.2.01-.06.03-.12.04-.19l1.49-7.74c.45-2.34.3-4.75-.44-7.01l-7.52-22.97c-.32-1-.49-2.04-.49-3.09v-5.36s1.23,0,1.23,0c0,2.81,1.92,5.37,4.78,6.07,1.3.31,2.67.2,3.91-.32,1.63.4,3.35.12,4.78-.77,3.44.28,6.46-2.28,6.74-5.72.08-.99-.07-1.94-.42-2.81l1.67-.55,11.34,34.64Zm-13.72,121.45c0-5.52-4.48-10-10-10s-10,4.48-10,10,4.48,10,10,10,10-4.48,10-10Z"/>
          <path class="cls-3" d="m54.91,46.19l7.65,23.39-1.67.55c-.84-2.14-2.85-3.72-5.3-3.93-1.34-.1-2.68.22-3.82.93-1-.08-2.01.08-2.94.47-3.35-.81-6.73,1.24-7.55,4.6-.12.49-.18.99-.18,1.48h-1.24l-.06-24.99c0-.79.12-1.57.36-2.32l1.62-4.99c.13-.42.51-.7.94-.7h4.57c3.46-.01,6.54,2.21,7.62,5.51Zm-1.36,2.48c0-3.45-2.8-6.25-6.25-6.25s-6.25,2.8-6.25,6.25,2.8,6.25,6.25,6.25,6.25-2.79,6.25-6.25Z"/>
          <path class="cls-5" d="m55.08,66.43c3.31,0,6,2.69,6,6s-2.69,6-6,6c-.19,0-.39-.01-.57-.03-1.53-.14-2.89-.85-3.87-1.93-.97-1.06-1.56-2.48-1.56-4.04,0-.65.1-1.27.29-1.85.43-1.33,1.31-2.46,2.47-3.19.93-.61,2.04-.96,3.24-.96Zm2,7.15v-2.3l-2.01-1.16-1.99,1.16v2.31l2,1.15,2-1.16Z"/>
          <path class="cls-4" d="m50.18,215.66c5.52,0,10,4.48,10,10s-4.48,10-10,10-10-4.48-10-10,4.48-10,10-10Zm4,10c0-2.21-1.79-4-4-4s-4,1.79-4,4,1.79,4,4,4,4-1.79,4-4Z"/>
          <polygon class="cls-7" points="57.08 71.28 57.08 73.58 55.08 74.74 53.08 73.59 53.08 71.28 55.07 70.12 57.08 71.28"/>
          <path class="cls-7" d="m54.51,78.41l.06.25c-1.43.89-3.15,1.17-4.78.77l-.23-2.85c.36-.03.72-.06,1.08-.11.98,1.08,2.34,1.79,3.87,1.93h0Z"/>
          <circle class="cls-7" cx="50.18" cy="225.66" r="4"/>
          <path class="cls-5" d="m47.3,42.66c3.32,0,6,2.69,6,6s-2.68,6-6,6-6-2.68-6-6,2.69-6,6-6Zm2,7.15v-2.3l-2-1.16-2,1.16v2.31l2.01,1.15,1.99-1.16Z"/>
          <path class="cls-7" d="m51.77,67.12l.07.26c-1.16.73-2.04,1.86-2.47,3.19-.1.01-.2.02-.3.02l-.24-3c.93-.39,1.94-.55,2.94-.47Z"/>
          <path class="cls-3" d="m50.64,76.47c-.36.05-.72.08-1.08.11-.73.06-1.46.09-2.2.09-1.66.01-3-1.33-3-2.99-.01-1.66,1.33-3,2.99-3.01.57,0,1.15-.02,1.72-.07.1,0,.2,0,.3-.02-.19.58-.29,1.2-.29,1.85,0,1.56.59,2.98,1.56,4.04Z"/>
          <path class="cls-7" d="m49.56,76.58l.23,2.85c-1.24.52-2.61.63-3.91.32-2.86-.7-4.78-3.26-4.78-6.07,0-.49.06-.99.18-1.48.82-3.36,4.2-5.41,7.55-4.6l.24,3c-.57.05-1.15.07-1.72.07-1.66.01-3,1.35-2.99,3.01,0,1.66,1.34,3,3,2.99.74,0,1.47-.03,2.2-.09Z"/>
          <polygon class="cls-7" points="49.3 47.52 49.3 49.82 47.31 50.98 45.3 49.83 45.3 47.52 47.3 46.36 49.3 47.52"/>
          <path class="cls-3" d="m35.28,40.2h4.85c-.11.17-.19.36-.26.56l-1.61,5c-.31.95-.46,1.94-.46,2.93l.02,8.52c-.57-.55-1.25-.99-2.01-1.26h-.5l-.03-15.75Z"/>
          <path class="cls-6" d="m38.62,58.19l.02,6c-.23.36-.5.7-.8.99-.57.56-1.25,1-2.01,1.27h-.49l-.03-10.5h.5c.76.27,1.44.71,2.01,1.26.3.29.57.62.8.98Z"/>
          <path class="cls-3" d="m38.3,82.19h-2.93s-.03-15.74-.03-15.74h.49c.76-.27,1.44-.71,2.01-1.27l.03,13.86c0,1.07.14,2.13.43,3.15Z"/>
          <polygon class="cls-3" points="35.34 66.45 35.37 82.2 32.87 82.2 30.87 82.21 30.78 40.21 32.78 40.21 35.28 40.2 35.31 55.95 35.34 66.45"/>
          <polygon class="cls-3" points="32.87 82.2 32.88 83.2 30.88 83.21 30.87 83.21 30.87 82.21 32.87 82.2"/>
          <rect class="cls-3" x="30.78" y="39.21" width="2" height="1"/>
          <polygon class="cls-3" points="30.87 83.21 30.94 115.21 29.95 116.21 29.71 6.21 30.71 7.21 30.78 39.21 30.78 40.21 30.87 82.21 30.87 83.21"/>
          <rect class="cls-3" x="21.83" y="6.21" width="8" height="110" transform="translate(-.13 .06) rotate(-.13)"/>
          <polygon class="cls-3" points="21.71 6.23 21.95 116.23 18.94 113.23 18.72 9.23 21.71 6.23"/>
        </g>
        <g>
          <polyline class="cls-9" points="35.28 40.2 35.31 55.95 35.34 66.45 35.37 82.2"/>
          <polygon class="cls-9" points="21.95 116.23 18.94 113.23 18.72 9.23 21.71 6.23 29.71 6.21 30.71 7.21 30.78 39.21 30.78 40.21 30.87 82.21 30.87 83.21 30.94 115.21 29.95 116.21 21.95 116.23"/>
          <line class="cls-9" x1="21.71" y1="6.23" x2="21.95" y2="116.23"/>
          <line class="cls-9" x1="29.95" y1="116.21" x2="29.71" y2="6.21"/>
          <polygon class="cls-9" points="49.3 49.82 47.31 50.98 45.3 49.83 45.3 47.52 47.3 46.36 49.3 47.52 49.3 49.82"/>
          <line class="cls-9" x1="30.88" y1="83.21" x2="32.88" y2="83.2"/>
          <path class="cls-9" d="m38.64,64.19c-.23.36-.5.7-.8.99-.57.56-1.25,1-2.01,1.27"/>
          <polygon class="cls-9" points="53.08 73.59 55.08 74.74 57.08 73.58 57.08 71.28 55.07 70.12 53.08 71.28 53.08 73.59"/>
          <polyline class="cls-9" points="40.13 40.19 35.28 40.2 32.78 40.21 30.78 40.21"/>
          <polyline class="cls-9" points="38.29 82.19 35.37 82.2 32.87 82.2 30.87 82.21"/>
          <line class="cls-9" x1="38.64" y1="64.19" x2="38.62" y2="58.19"/>
          <line class="cls-9" x1="35.32" y1="55.95" x2="35.81" y2="55.95"/>
          <path class="cls-9" d="m54.51,78.4c.18.02.38.03.57.03,3.31,0,6-2.68,6-6s-2.69-6-6-6c-1.2,0-2.31.35-3.24.96-1.16.73-2.04,1.86-2.47,3.19-.19.58-.29,1.2-.29,1.85,0,1.56.59,2.98,1.56,4.04.98,1.08,2.34,1.79,3.87,1.93Z"/>
          <line class="cls-9" x1="35.34" y1="66.45" x2="35.83" y2="66.45"/>
          <line class="cls-9" x1="32.87" y1="82.2" x2="32.88" y2="83.2"/>
          <line class="cls-9" x1="32.78" y1="39.21" x2="30.78" y2="39.21"/>
          <path class="cls-9" d="m35.81,55.95c.76.27,1.44.71,2.01,1.26.3.29.57.62.8.98"/>
          <line class="cls-9" x1="32.78" y1="39.21" x2="32.78" y2="40.21"/>
          <circle class="cls-9" cx="47.3" cy="48.66" r="6"/>
          <line class="cls-9" x1="43.61" y1="125.95" x2="43.56" y2="126.24"/>
          <line class="cls-9" x1="39.52" y1="157.65" x2="45.78" y2="125.22"/>
          <line class="cls-9" x1="110.9" y1="109.23" x2="88.79" y2="104.19"/>
          <line class="cls-9" x1="75.23" y1="115.2" x2="76.21" y2="110.1"/>
          <line class="cls-9" x1="74.34" y1="119.79" x2="75.22" y2="115.21"/>
          <path class="cls-9" d="m42.72,38.68c-1.09.01-2.07.6-2.59,1.51-.11.18-.19.37-.26.57"/>
          <path class="cls-9" d="m79.2,98.93c-2-.46-3.85-1.42-5.37-2.8"/>
          <path class="cls-9" d="m45.78,125.22s0-.07.02-.11c0-.04.01-.08.02-.11"/>
          <path class="cls-9" d="m74.64,95.24c1.23.67,2.54,1.17,3.91,1.49"/>
          <line class="cls-9" x1="74.24" y1="109.72" x2="72.37" y2="119.41"/>
          <path class="cls-9" d="m37.64,167.93c0,.06,0,.12-.02.17"/>
          <path class="cls-9" d="m76.21,110.1c.42-2.16.28-4.4-.41-6.5"/>
          <line class="cls-9" x1="54.57" y1="78.66" x2="54.51" y2="78.41"/>
          <path class="cls-9" d="m39.8,48.69c0-.79.12-1.57.36-2.32"/>
          <line class="cls-9" x1="88.57" y1="105.16" x2="110.9" y2="110.26"/>
          <line class="cls-9" x1="74.25" y1="120.27" x2="74.34" y2="119.79"/>
          <line class="cls-9" x1="64.93" y1="168.54" x2="64.98" y2="168.26"/>
          <path class="cls-9" d="m88.79,104.19c-1.15-.26-2.35.11-3.15.97"/>
          <path class="cls-9" d="m81.16,109.99c-.8.86-1.08,2.09-.73,3.22"/>
          <polyline class="cls-9" points="110.9 126.66 110.9 127.69 110.9 130.77 110.9 132.82"/>
          <line class="cls-9" x1="47.28" y1="38.66" x2="42.72" y2="38.68"/>
          <line class="cls-9" x1="73.85" y1="122.32" x2="73.86" y2="122.32"/>
          <line class="cls-9" x1="66.76" y1="159.04" x2="66.8" y2="158.84"/>
          <path class="cls-9" d="m86.37,105.84c.56-.6,1.4-.86,2.2-.68"/>
          <path class="cls-9" d="m81.38,112.91c-.24-.78-.04-1.64.52-2.24"/>
          <path class="cls-9" d="m37.56,169.63c0-.51.02-1.02.06-1.53"/>
          <path class="cls-9" d="m73.9,104.22c.58,1.77.7,3.67.34,5.5"/>
          <line class="cls-9" x1="39.87" y1="40.76" x2="38.26" y2="45.76"/>
          <line class="cls-9" x1="83.33" y1="119.2" x2="81.38" y2="112.91"/>
          <line class="cls-9" x1="80.43" y1="113.21" x2="82.37" y2="119.5"/>
          <path class="cls-9" d="m72.37,119.41c-.01.07-.02.13-.03.2-.02.06-.03.12-.04.19"/>
          <path class="cls-9" d="m48.83,67.6c.93-.39,1.94-.55,2.94-.47"/>
          <line class="cls-9" x1="64.58" y1="179.1" x2="64.56" y2="179.14"/>
          <path class="cls-9" d="m74.64,95.24c-.53-.3-1.05-.62-1.54-.98"/>
          <line class="cls-9" x1="37.8" y1="48.69" x2="37.82" y2="57.21"/>
          <path class="cls-9" d="m37.94,165.88c.13-.65.25-1.3.37-1.94.14-.73.28-1.45.42-2.15.13-.7.26-1.38.39-2.04.12-.65.24-1.28.35-1.88"/>
          <line class="cls-9" x1="79.65" y1="96.98" x2="110.9" y2="104.1"/>
          <path class="cls-9" d="m74.19,98.66c3.92,4.69,4.34,11.39,1.04,16.53-.01,0-.01.01-.01.01"/>
          <line class="cls-9" x1="49.79" y1="79.43" x2="49.56" y2="76.58"/>
          <line class="cls-9" x1="51.84" y1="67.39" x2="51.77" y2="67.12"/>
          <line class="cls-9" x1="49.07" y1="70.6" x2="48.83" y2="67.6"/>
          <path class="cls-9" d="m72.64,93.94c.15.1.31.21.46.32"/>
          <line class="cls-9" x1="85.64" y1="105.16" x2="81.16" y2="109.99"/>
          <path class="cls-9" d="m73.83,96.12c-.21-.19-.43-.38-.66-.56"/>
          <line class="cls-9" x1="63.02" y1="167.88" x2="62.96" y2="168.15"/>
          <path class="cls-9" d="m41.78,41.38c.13-.42.51-.7.94-.7"/>
          <path class="cls-9" d="m82.37,119.5c.35,1.12,1.27,1.98,2.42,2.24"/>
          <path class="cls-9" d="m85.01,120.76c-.8-.18-1.44-.77-1.68-1.56"/>
          <line class="cls-9" x1="65.06" y1="167.88" x2="66.76" y2="159.04"/>
          <line class="cls-9" x1="43.56" y1="126.24" x2="37.3" y2="158.66"/>
          <line class="cls-9" x1="110.9" y1="106.16" x2="79.2" y2="98.93"/>
          <path class="cls-9" d="m37.89,166.16s.01-.09.02-.14l.03-.15"/>
          <line class="cls-9" x1="73.86" y1="122.32" x2="110.9" y2="130.77"/>
          <line class="cls-9" x1="46.83" y1="119.85" x2="48.32" y2="112.11"/>
          <path class="cls-9" d="m35.64,167.77s0,.06,0,.09v.08"/>
          <path class="cls-9" d="m45.82,124.99c.05-.27.11-.56.17-.86.08-.39.16-.79.24-1.21.08-.43.17-.87.26-1.32.08-.45.17-.91.26-1.37"/>
          <line class="cls-9" x1="44.79" y1="119.86" x2="43.61" y2="125.95"/>
          <path class="cls-9" d="m35.63,167.94c-.05.56-.07,1.13-.07,1.69"/>
          <line class="cls-9" x1="110.9" y1="126.66" x2="85.01" y2="120.76"/>
          <path class="cls-9" d="m45.98,105.72c.63,1.94.76,4.01.38,6.01"/>
          <path class="cls-9" d="m35.92,165.8c-.01.09-.03.17-.05.26"/>
          <path class="cls-9" d="m73.06,126.4s.01-.07.02-.11.02-.08.02-.11"/>
          <path class="cls-9" d="m65.02,157.59c-.12.63-.25,1.3-.39,2-.16.79-.32,1.62-.48,2.48-.17.86-.35,1.75-.52,2.66-.18.91-.36,1.84-.54,2.77"/>
          <path class="cls-9" d="m48.32,112.11c.45-2.34.3-4.75-.44-7.01"/>
          <polyline class="cls-9" points="39.87 79.04 39.86 73.68 39.8 48.69"/>
          <path class="cls-9" d="m40.36,82.12c-.32-1-.49-2.04-.49-3.09"/>
          <line class="cls-9" x1="81.9" y1="110.66" x2="86.37" y2="105.84"/>
          <line class="cls-9" x1="37.84" y1="65.18" x2="37.87" y2="79.04"/>
          <line class="cls-9" x1="84.79" y1="121.74" x2="110.9" y2="127.69"/>
          <path class="cls-9" d="m37.87,79.04c0,1.07.14,2.13.43,3.15.04.19.1.38.16.56"/>
          <circle class="cls-9" cx="50.18" cy="225.66" r="4"/>
          <line class="cls-9" x1="71.32" y1="124.94" x2="65.06" y2="157.37"/>
          <path class="cls-9" d="m37.3,158.66s-.02.08-.02.12c-.01.03-.02.07-.03.11"/>
          <path class="cls-9" d="m47.36,76.66c.74,0,1.47-.03,2.2-.09.36-.03.72-.06,1.08-.11"/>
          <path class="cls-9" d="m72.3,119.8c-.07.34-.13.68-.2,1.01-.08.47-.17.93-.26,1.38-.08.45-.17.89-.25,1.32-.08.42-.15.82-.22,1.2"/>
          <path class="cls-9" d="m56.81,45.56c-1.35-4.11-5.2-6.89-9.53-6.89"/>
          <line class="cls-9" x1="46.36" y1="111.73" x2="44.86" y2="119.47"/>
          <path class="cls-9" d="m65.06,157.37s-.01.07-.02.11-.01.07-.02.11"/>
          <line class="cls-9" x1="42.72" y1="40.68" x2="47.29" y2="40.66"/>
          <path class="cls-9" d="m71.37,124.71l-.03.12s-.01.07-.02.11"/>
          <path class="cls-9" d="m64.57,172.38c-.01-1.29.11-2.57.36-3.84"/>
          <path class="cls-9" d="m46.75,120.24c.02-.07.03-.13.04-.2.01-.06.03-.12.04-.19"/>
          <path class="cls-9" d="m47.35,70.66c.57,0,1.15-.02,1.72-.07.1,0,.2,0,.3-.02"/>
          <path class="cls-9" d="m49.79,79.43c-1.24.52-2.61.63-3.91.32-2.86-.7-4.78-3.26-4.78-6.07,0-.49.06-.99.18-1.48.82-3.36,4.2-5.41,7.55-4.6"/>
          <line class="cls-9" x1="37.25" y1="158.9" x2="35.92" y2="165.8"/>
          <path class="cls-9" d="m63.09,167.49c0,.06-.02.13-.03.19-.02.06-.03.13-.04.19"/>
          <path class="cls-9" d="m35.87,166.06c-.1.57-.18,1.14-.23,1.71"/>
          <circle class="cls-9" cx="50.18" cy="225.66" r="10"/>
          <path class="cls-9" d="m39.47,157.87s.02-.07.03-.11c0-.04,0-.08.02-.11"/>
          <path class="cls-9" d="m62.96,168.15c-.26,1.39-.4,2.81-.39,4.22"/>
          <line class="cls-9" x1="78.55" y1="96.73" x2="79.65" y2="96.98"/>
          <line class="cls-9" x1="44.86" y1="119.47" x2="44.79" y2="119.86"/>
          <path class="cls-9" d="m47.29,40.66c3.46,0,6.54,2.22,7.62,5.52"/>
          <line class="cls-9" x1="66.8" y1="158.84" x2="73.06" y2="126.4"/>
          <polyline class="cls-9" points="110.9 104.1 110.9 106.16 110.9 109.23 110.9 110.26"/>
          <circle class="cls-9" cx="47.3" cy="48.66" r="6.25"/>
          <path class="cls-9" d="m54.57,78.66c-1.43.89-3.15,1.17-4.78.77"/>
          <line class="cls-9" x1="64.98" y1="168.26" x2="65.06" y2="167.88"/>
          <line class="cls-9" x1="110.9" y1="132.82" x2="73.47" y2="124.29"/>
          <polyline class="cls-9" points="73.1 126.19 73.47 124.29 73.85 122.32 74.25 120.27"/>
          <path class="cls-9" d="m51.77,67.12c1.14-.71,2.48-1.03,3.82-.93,2.45.21,4.46,1.79,5.3,3.93.35.87.5,1.82.42,2.81-.28,3.44-3.3,6-6.74,5.72"/>
          <path class="cls-9" d="m38.26,45.76c-.31.95-.46,1.94-.46,2.93"/>
          <path class="cls-9" d="m37.89,166.16c-.12.59-.2,1.17-.25,1.76"/>
          <line class="cls-9" x1="40.16" y1="46.37" x2="41.78" y2="41.38"/>
          <path class="cls-9" d="m47.35,70.66c-1.66.01-3,1.35-2.99,3.01,0,1.66,1.34,3,3,2.99"/>
          <line class="cls-9" x1="47.88" y1="105.1" x2="40.36" y2="82.12"/>
          <polyline class="cls-9" points="54.91 46.19 62.56 69.58 73.9 104.22"/>
          <path class="cls-9" d="m62.68,225.64c.01,6.91-5.57,12.51-12.48,12.53-6.9.01-12.51-5.57-12.52-12.47"/>
          <line class="cls-9" x1="38.46" y1="82.75" x2="45.98" y2="105.72"/>
          <line class="cls-9" x1="37.68" y1="225.7" x2="37.56" y2="169.63"/>
          <polyline class="cls-9" points="64.68 225.64 64.58 179.1 64.57 172.38"/>
          <polyline class="cls-9" points="75.8 103.6 74.19 98.66 74.18 98.66 73.17 95.57 72.64 93.94 56.81 45.56"/>
          <line class="cls-9" x1="62.57" y1="172.38" x2="62.68" y2="225.64"/>
          <line class="cls-9" x1="35.56" y1="169.63" x2="35.68" y2="225.7"/>
          <path class="cls-9" d="m35.68,225.7c.02,8.01,6.52,14.49,14.53,14.47,8.01-.02,14.49-6.52,14.47-14.53"/>
        </g>
      </g>
    </g>
  </g>
</svg>