<?xml version="1.0" encoding="UTF-8"?>
<svg id="Layer_2" data-name="Layer 2" xmlns="http://www.w3.org/2000/svg" viewBox="0 0 93.03 244.71">
  <defs>
    <style>
      .cls-1 {
        opacity: .5;
      }

      .cls-2 {
        fill: #fff;
      }

      .cls-2, .cls-3, .cls-4, .cls-5, .cls-6, .cls-7 {
        stroke-width: 0px;
      }

      .cls-8 {
        opacity: .75;
      }

      .cls-3 {
        fill: #3d3d3d;
      }

      .cls-4 {
        fill: #c6c6c6;
      }

      .cls-5 {
        fill: #e84e0f;
      }

      .cls-9 {
        fill: none;
        stroke: #fff;
        stroke-linecap: round;
        stroke-linejoin: round;
        stroke-width: .75px;
      }

      .cls-6 {
        fill: #1e1e1e;
      }

      .cls-7 {
        fill: #5b5b5b;
      }
    </style>
  </defs>
  <g id="lever_down_valkoinen" data-name="lever down valkoinen">
    <g id="LINE">
      <g>
        <g>
          <path class="cls-2" d="m20.33,72.35v6c-.65,1.04-1.63,1.84-2.79,2.26h-.5l-.02-10.5h.5c1.15.42,2.14,1.21,2.81,2.24Z"/>
          <polygon class="cls-2" points="14.56 86.36 14.58 97.36 12.58 97.37 12.56 86.36 12.65 86.36 14.56 86.36"/>
          <polygon class="cls-2" points="12.58 97.37 12.65 129.37 11.65 130.37 11.42 20.37 12.42 21.37 12.56 86.36 12.58 97.37"/>
          <rect class="cls-2" x="3.53" y="20.38" width="8" height="110" transform="translate(-.16 .02) rotate(-.12)"/>
          <polygon class="cls-2" points="3.42 20.39 3.65 130.39 .64 127.39 .42 23.39 3.42 20.39"/>
        </g>
        <g>
          <polygon class="cls-9" points="11.42 20.37 12.42 21.37 12.56 86.36 12.58 97.37 12.65 129.37 11.65 130.37 3.65 130.39 .64 127.39 .42 23.39 3.42 20.39 11.42 20.37"/>
          <line class="cls-9" x1="11.65" y1="130.37" x2="11.42" y2="20.37"/>
          <line class="cls-9" x1="20.34" y1="78.35" x2="20.33" y2="72.35"/>
          <line class="cls-9" x1="3.42" y1="20.39" x2="3.65" y2="130.39"/>
          <path class="cls-9" d="m17.52,70.11c1.15.42,2.14,1.21,2.81,2.24"/>
          <polyline class="cls-9" points="17.04 80.61 17.02 70.11 17.52 70.11"/>
          <line class="cls-9" x1="17.04" y1="80.61" x2="17.54" y2="80.61"/>
          <path class="cls-9" d="m20.34,78.35c-.66,1.04-1.64,1.84-2.8,2.26"/>
          <line class="cls-9" x1="12.58" y1="97.37" x2="14.58" y2="97.36"/>
          <polyline class="cls-9" points="12.65 86.36 14.56 86.36 14.58 97.36"/>
        </g>
      </g>
    </g>
  </g>
  <g id="lever_down" data-name="lever down" class="cls-1">
    <g id="LINE-2" data-name="LINE">
      <g>
        <g>
          <polygon class="cls-3" points="14.56 86.36 14.58 97.36 12.58 97.38 12.56 86.36 12.65 86.36 14.56 86.36"/>
          <polygon class="cls-3" points="12.58 97.38 12.65 129.38 11.65 130.38 11.42 20.38 12.42 21.38 12.56 86.36 12.58 97.38"/>
          <rect class="cls-3" x="3.53" y="20.38" width="8" height="110" transform="translate(-.16 .02) rotate(-.12)"/>
          <polygon class="cls-3" points="3.42 20.39 3.65 130.4 .65 127.39 .43 23.39 3.42 20.39"/>
        </g>
        <g>
          <polygon class="cls-9" points="11.42 20.38 12.42 21.38 12.56 86.36 12.58 97.38 12.65 129.38 11.65 130.38 3.65 130.4 .65 127.39 .43 23.39 3.42 20.39 11.42 20.38"/>
          <line class="cls-9" x1="11.65" y1="130.38" x2="11.42" y2="20.38"/>
          <line class="cls-9" x1="3.42" y1="20.39" x2="3.65" y2="130.4"/>
          <line class="cls-9" x1="12.58" y1="97.38" x2="14.58" y2="97.36"/>
          <polyline class="cls-9" points="12.65 86.36 14.56 86.36 14.58 97.36"/>
        </g>
      </g>
    </g>
  </g>
  <g id="lever_up_valkoinen" data-name="lever up valkoinen">
    <g id="LINE-3" data-name="LINE">
      <g>
        <g>
          <path class="cls-2" d="m20.27,52.36l.02,6c-.66,1.04-1.65,1.83-2.8,2.26h-.5l-.02-10.5h.49c1.16.41,2.15,1.2,2.81,2.24Z"/>
          <polygon class="cls-2" points="14.43 33.37 14.46 44.37 12.59 44.37 12.45 44.37 12.43 33.38 14.43 33.37"/>
          <polygon class="cls-2" points="12.45 44.37 12.59 109.38 11.6 110.38 11.36 .38 12.36 1.38 12.43 33.38 12.45 44.37"/>
          <polygon class="cls-2" points="11.36 .38 11.6 110.38 3.6 110.39 3.36 .4 11.36 .38"/>
          <polygon class="cls-2" points="3.36 .4 3.6 110.39 .59 107.4 .38 3.4 3.36 .4"/>
        </g>
        <g>
          <polyline class="cls-9" points="12.36 1.38 12.43 33.38 12.45 44.37 12.59 109.38"/>
          <line class="cls-9" x1="11.6" y1="110.38" x2="11.36" y2=".38"/>
          <line class="cls-9" x1="20.29" y1="58.36" x2="20.27" y2="52.36"/>
          <line class="cls-9" x1="12.36" y1="1.38" x2="11.36" y2=".38"/>
          <line class="cls-9" x1="11.36" y1=".38" x2="3.36" y2=".4"/>
          <line class="cls-9" x1="3.36" y1=".4" x2=".38" y2="3.4"/>
          <line class="cls-9" x1="14.43" y1="33.37" x2="12.43" y2="33.38"/>
          <line class="cls-9" x1=".59" y1="107.4" x2=".38" y2="3.4"/>
          <line class="cls-9" x1="3.36" y1=".4" x2="3.6" y2="110.39"/>
          <polyline class="cls-9" points="14.43 33.37 14.46 44.37 12.59 44.37"/>
          <path class="cls-9" d="m17.46,50.12c1.16.41,2.15,1.2,2.81,2.24"/>
          <polyline class="cls-9" points="16.99 60.62 16.97 50.12 17.46 50.12"/>
          <line class="cls-9" x1="16.99" y1="60.62" x2="17.49" y2="60.62"/>
          <path class="cls-9" d="m20.29,58.36c-.66,1.04-1.65,1.83-2.8,2.26"/>
          <line class="cls-9" x1="12.59" y1="109.38" x2="11.6" y2="110.38"/>
          <line class="cls-9" x1="3.6" y1="110.39" x2=".59" y2="107.4"/>
          <line class="cls-9" x1="3.6" y1="110.39" x2="11.6" y2="110.38"/>
        </g>
      </g>
    </g>
  </g>
  <g id="lever_up" data-name="lever up" class="cls-8">
    <g id="LINE-4" data-name="LINE">
      <g>
        <g>
          <polygon class="cls-3" points="14.44 33.38 14.47 44.38 12.6 44.38 12.46 44.38 12.44 33.38 14.44 33.38"/>
          <polygon class="cls-3" points="12.46 44.38 12.6 109.38 11.61 110.38 11.37 .38 12.37 1.38 12.44 33.38 12.46 44.38"/>
          <rect class="cls-3" x="3.49" y=".38" width="8" height="110" transform="translate(-.12 .02) rotate(-.13)"/>
          <polygon class="cls-3" points="3.37 .39 3.61 110.39 .6 107.39 .38 3.39 3.37 .39"/>
        </g>
        <g>
          <polyline class="cls-9" points="12.37 1.38 12.44 33.38 12.46 44.38 12.6 109.38"/>
          <line class="cls-9" x1="11.61" y1="110.38" x2="11.37" y2=".38"/>
          <line class="cls-9" x1="12.37" y1="1.38" x2="11.37" y2=".38"/>
          <line class="cls-9" x1="11.37" y1=".38" x2="3.37" y2=".39"/>
          <line class="cls-9" x1="3.37" y1=".39" x2=".38" y2="3.39"/>
          <line class="cls-9" x1="14.44" y1="33.38" x2="12.44" y2="33.38"/>
          <line class="cls-9" x1=".6" y1="107.39" x2=".38" y2="3.39"/>
          <line class="cls-9" x1="3.37" y1=".39" x2="3.61" y2="110.39"/>
          <polyline class="cls-9" points="14.44 33.38 14.47 44.38 12.6 44.38"/>
          <line class="cls-9" x1="12.6" y1="109.38" x2="11.61" y2="110.38"/>
          <line class="cls-9" x1="3.61" y1="110.39" x2=".6" y2="107.39"/>
          <line class="cls-9" x1="3.61" y1="110.39" x2="11.61" y2="110.38"/>
        </g>
      </g>
    </g>
  </g>
  <g id="lever_normal" data-name="lever normal">
    <g id="ARC">
      <g>
        <g>
          <polygon class="cls-3" points="92.66 134.93 92.66 136.99 55.23 128.45 55.61 126.48 55.62 126.48 92.66 134.93"/>
          <path class="cls-3" d="m92.66,131.85v3.08l-37.04-8.45h0l.4-2.05.09-.48.88-4.58s0-.01.01-.01c3.3-5.14,2.88-11.84-1.04-16.53h-.01s-1.01-3.1-1.01-3.1c.23.18.45.37.66.56,1.52,1.38,3.37,2.34,5.37,2.8l31.7,7.23v3.07l-22.11-5.04c-1.15-.26-2.35.11-3.15.97l-4.48,4.83c-.8.86-1.08,2.09-.73,3.22l1.94,6.29c.35,1.12,1.27,1.98,2.42,2.24l26.11,5.95Z"/>
          <path class="cls-3" d="m92.66,130.83v1.02l-26.11-5.95c-1.15-.26-2.07-1.12-2.42-2.24l-1.94-6.29c-.35-1.13-.07-2.36.73-3.22l4.48-4.83c.8-.86,2-1.23,3.15-.97l22.11,5.04v1.03l-22.33-5.1c-.8-.18-1.64.08-2.2.68l-4.47,4.83c-.56.6-.76,1.46-.52,2.24l1.95,6.29c.24.79.88,1.38,1.68,1.56l25.89,5.91Z"/>
          <path class="cls-3" d="m92.66,108.26v2.06l-31.7-7.23c-2-.46-3.85-1.42-5.37-2.8-.21-.19-.43-.38-.66-.56l-.53-1.63c.15.1.31.21.46.32.49.36,1.01.68,1.54.98,1.23.67,2.54,1.17,3.91,1.49l1.1.25,31.25,7.12Z"/>
          <path class="cls-3" d="m46.34,183.26l.1,46.54c.02,8.01-6.46,14.51-14.47,14.53-8.01.02-14.51-6.46-14.53-14.47l-.12-56.07c0-.56.02-1.13.07-1.69v-.08s0-.06,0-.09c.05-.57.13-1.14.23-1.71.02-.09.04-.17.05-.26l1.33-6.9s.02-.08.03-.11c0-.04,0-.08.02-.12l6.26-32.42.05-.3,1.18-6.09.07-.39,1.5-7.74c.38-2,.25-4.07-.38-6.01l-7.52-22.97c-.06-.18-.12-.37-.16-.56-.29-1.02-.43-2.08-.43-3.15l-.03-13.86c.3-.29.57-.63.8-.99l-.02-6c-.23-.36-.5-.69-.8-.98l-.02-8.52c0-.99.15-1.98.46-2.93l1.61-5c.07-.2.15-.39.26-.57.52-.91,1.5-1.5,2.59-1.51h4.56c4.33-.01,8.18,2.77,9.53,6.88l15.83,48.38.53,1.63,1.01,3.09h.01s1.61,4.94,1.61,4.94c.69,2.1.83,4.34.41,6.5l-.98,5.1s-.01.01-.01.01l-.88,4.58-.09.48-.4,2.05-.38,1.97-.37,1.9s-.01.07-.02.11-.01.08-.02.11l-6.26,32.43-.04.2-1.7,8.84-.08.38-.05.28c-.25,1.27-.37,2.55-.36,3.84v6.72Zm9.66-69.38c.36-1.83.24-3.73-.34-5.5l-11.34-34.64-7.65-23.39c-1.08-3.3-4.16-5.52-7.62-5.52h-4.57c-.43.01-.81.29-.94.71l-1.62,4.99c-.24.75-.36,1.53-.36,2.32l.06,24.99v5.36c.01,1.05.18,2.09.5,3.09l7.52,22.97c.74,2.26.89,4.67.44,7.01l-1.49,7.74c-.01.07-.03.13-.04.19,0,.07-.02.13-.04.2-.09.46-.18.92-.26,1.37-.09.45-.18.89-.26,1.32-.08.42-.16.82-.24,1.21-.06.3-.12.59-.17.86-.01.03-.02.07-.02.11-.01.04-.02.08-.02.11l-6.26,32.43s-.02.07-.02.11c-.01.04-.02.08-.03.11-.11.6-.23,1.23-.35,1.88-.13.66-.26,1.34-.39,2.04-.14.7-.28,1.42-.42,2.15-.12.64-.24,1.29-.37,1.94l-.03.15s-.01.09-.02.14c-.12.59-.2,1.17-.25,1.76,0,.06,0,.12-.02.17-.04.51-.06,1.02-.06,1.53l.12,56.07c.01,6.9,5.62,12.48,12.52,12.47,6.91-.02,12.49-5.62,12.48-12.53l-.11-53.26c-.01-1.41.13-2.83.39-4.22l.06-.28c.01-.06.02-.13.04-.19.01-.06.02-.13.03-.19.18-.93.36-1.86.54-2.77.17-.91.35-1.8.52-2.66.16-.86.32-1.69.48-2.48.14-.7.27-1.37.39-2,0-.04,0-.07.02-.11s.02-.08.02-.11l6.26-32.43s.02-.07.02-.11l.03-.12c.07-.38.14-.78.22-1.2.08-.43.17-.87.25-1.32.09-.45.18-.91.26-1.38.07-.33.13-.67.2-1.01.01-.07.02-.13.04-.19.01-.07.02-.13.03-.2l1.87-9.69Z"/>
          <path class="cls-4" d="m57.97,114.26c.42-2.16.28-4.4-.41-6.5l-1.61-4.93c3.92,4.69,4.34,11.39,1.04,16.53l.98-5.1Z"/>
          <path class="cls-3" d="m55.66,108.38c.58,1.77.7,3.67.34,5.5l-1.87,9.69c-.01.07-.02.13-.03.2-.02.06-.03.12-.04.19-.07.34-.13.68-.2,1.01-.08.47-.17.93-.26,1.38-.08.45-.17.89-.25,1.32-.08.42-.15.82-.22,1.2l-.03.12s-.01.07-.02.11l-6.26,32.43s-.01.07-.02.11-.01.07-.02.11c-.12.63-.25,1.3-.39,2-.16.79-.32,1.62-.48,2.48-.17.86-.35,1.75-.52,2.66-.18.91-.36,1.84-.54,2.77,0,.06-.02.13-.03.19-.02.06-.03.13-.04.19l-.06.28c-.26,1.39-.4,2.81-.39,4.22l.11,53.26c.01,6.91-5.57,12.51-12.48,12.53-6.9.01-12.51-5.57-12.52-12.47l-.12-56.07c0-.51.02-1.02.06-1.53.01-.05.01-.11.02-.17.05-.59.13-1.17.25-1.76.01-.05.01-.09.02-.14l.03-.15c.13-.65.25-1.3.37-1.94.14-.73.28-1.45.42-2.15.13-.7.26-1.38.39-2.04.12-.65.24-1.28.35-1.88.01-.03.02-.07.03-.11,0-.04,0-.08.02-.11l6.26-32.43s0-.07.02-.11c0-.04.01-.08.02-.11.05-.27.11-.56.17-.86.08-.39.16-.79.24-1.21.08-.43.17-.87.26-1.32.08-.45.17-.91.26-1.37.02-.07.03-.13.04-.2.01-.06.03-.12.04-.19l1.49-7.74c.45-2.34.3-4.75-.44-7.01l-7.52-22.97c-.32-1-.49-2.04-.49-3.09v-5.36s1.23,0,1.23,0c0,2.81,1.92,5.37,4.78,6.07,1.3.31,2.67.2,3.91-.32,1.63.4,3.35.12,4.78-.77,3.44.28,6.46-2.28,6.74-5.72.08-.99-.07-1.94-.42-2.81l1.67-.55,11.34,34.64Zm-13.72,121.45c0-5.52-4.48-10-10-10s-10,4.48-10,10,4.48,10,10,10,10-4.48,10-10Z"/>
          <path class="cls-3" d="m36.67,50.35l7.65,23.39-1.67.55c-.84-2.14-2.85-3.72-5.3-3.93-1.34-.1-2.68.22-3.82.93-1-.08-2.01.08-2.94.47-3.35-.81-6.73,1.24-7.55,4.6-.12.49-.18.99-.18,1.48h-1.24l-.06-24.99c0-.79.12-1.57.36-2.32l1.62-4.99c.13-.42.51-.7.94-.7h4.57c3.46-.01,6.54,2.21,7.62,5.51Zm-1.36,2.48c0-3.45-2.8-6.25-6.25-6.25s-6.25,2.8-6.25,6.25,2.8,6.25,6.25,6.25,6.25-2.79,6.25-6.25Z"/>
          <path class="cls-6" d="m36.84,70.59c3.31,0,6,2.69,6,6s-2.69,6-6,6c-.19,0-.39-.01-.57-.03-1.53-.14-2.89-.85-3.87-1.93-.97-1.06-1.56-2.48-1.56-4.04,0-.65.1-1.27.29-1.85.43-1.33,1.31-2.46,2.47-3.19.93-.61,2.04-.96,3.24-.96Zm2,7.15v-2.3l-2.01-1.16-1.99,1.16v2.31l2,1.15,2-1.16Z"/>
          <path class="cls-4" d="m31.94,219.83c5.52,0,10,4.48,10,10s-4.48,10-10,10-10-4.48-10-10,4.48-10,10-10Zm4,10c0-2.21-1.79-4-4-4s-4,1.79-4,4,1.79,4,4,4,4-1.79,4-4Z"/>
          <polygon class="cls-7" points="38.84 75.44 38.84 77.74 36.84 78.9 34.84 77.76 34.84 75.44 36.83 74.28 38.84 75.44"/>
          <path class="cls-7" d="m36.27,82.57l.06.25c-1.43.89-3.15,1.17-4.78.77l-.23-2.85c.36-.03.72-.06,1.08-.11.98,1.08,2.34,1.79,3.87,1.93h0Z"/>
          <circle class="cls-7" cx="31.94" cy="229.83" r="4"/>
          <path class="cls-6" d="m29.06,46.83c3.32,0,6,2.69,6,6s-2.68,6-6,6-6-2.68-6-6,2.69-6,6-6Zm2,7.15v-2.3l-2-1.16-2,1.16v2.31l2.01,1.15,1.99-1.16Z"/>
          <path class="cls-7" d="m33.53,71.29l.07.26c-1.16.73-2.04,1.86-2.47,3.19-.1.01-.2.02-.3.02l-.24-3c.93-.39,1.94-.55,2.94-.47Z"/>
          <path class="cls-3" d="m32.4,80.63c-.36.05-.72.08-1.08.11-.73.06-1.46.09-2.2.09-1.66.01-3-1.33-3-2.99-.01-1.66,1.33-3,2.99-3.01.57,0,1.15-.02,1.72-.07.1,0,.2,0,.3-.02-.19.58-.29,1.2-.29,1.85,0,1.56.59,2.98,1.56,4.04Z"/>
          <path class="cls-7" d="m31.32,80.74l.23,2.85c-1.24.52-2.61.63-3.91.32-2.86-.7-4.78-3.26-4.78-6.07,0-.49.06-.99.18-1.48.82-3.36,4.2-5.41,7.55-4.6l.24,3c-.57.05-1.15.07-1.72.07-1.66.01-3,1.35-2.99,3.01,0,1.66,1.34,3,3,2.99.74,0,1.47-.03,2.2-.09Z"/>
          <polygon class="cls-7" points="31.06 51.68 31.06 53.98 29.07 55.14 27.06 53.99 27.06 51.68 29.06 50.52 31.06 51.68"/>
          <path class="cls-3" d="m17.04,44.36h4.85c-.11.17-.19.36-.26.56l-1.61,5c-.31.95-.46,1.94-.46,2.93l.02,8.52c-.57-.55-1.25-.99-2.01-1.26h-.5l-.03-15.75Z"/>
          <path class="cls-5" d="m20.38,62.35l.02,6c-.23.36-.5.7-.8.99-.57.56-1.25,1-2.01,1.27h-.49l-.03-10.5h.5c.76.27,1.44.71,2.01,1.26.3.29.57.62.8.98Z"/>
          <path class="cls-3" d="m20.06,86.35h-2.93s-.03-15.74-.03-15.74h.49c.76-.27,1.44-.71,2.01-1.27l.03,13.86c0,1.07.14,2.13.43,3.15Z"/>
          <polygon class="cls-3" points="17.1 70.61 17.13 86.36 14.63 86.36 12.63 86.38 12.54 44.38 14.54 44.38 17.04 44.36 17.07 60.11 17.1 70.61"/>
          <polygon class="cls-3" points="14.63 86.36 14.64 87.36 12.64 87.38 12.63 87.38 12.63 86.38 14.63 86.36"/>
          <rect class="cls-3" x="12.54" y="43.38" width="2" height="1"/>
          <polygon class="cls-3" points="12.63 87.38 12.7 119.38 11.71 120.38 11.47 10.38 12.47 11.38 12.54 43.38 12.54 44.38 12.63 86.38 12.63 87.38"/>
          <rect class="cls-3" x="3.59" y="10.38" width="8" height="110" transform="translate(-.14 .02) rotate(-.13)"/>
          <polygon class="cls-3" points="3.47 10.39 3.71 120.39 .7 117.39 .48 13.39 3.47 10.39"/>
        </g>
        <g>
          <polyline class="cls-9" points="17.04 44.36 17.07 60.11 17.1 70.61 17.13 86.36"/>
          <polygon class="cls-9" points="3.71 120.39 .7 117.39 .48 13.39 3.47 10.39 11.47 10.38 12.47 11.38 12.54 43.38 12.54 44.38 12.63 86.38 12.63 87.38 12.7 119.38 11.71 120.38 3.71 120.39"/>
          <line class="cls-9" x1="3.47" y1="10.39" x2="3.71" y2="120.39"/>
          <line class="cls-9" x1="11.71" y1="120.38" x2="11.47" y2="10.38"/>
          <polygon class="cls-9" points="31.06 53.98 29.07 55.14 27.06 53.99 27.06 51.68 29.06 50.52 31.06 51.68 31.06 53.98"/>
          <line class="cls-9" x1="12.64" y1="87.38" x2="14.64" y2="87.36"/>
          <path class="cls-9" d="m20.4,68.35c-.23.36-.5.7-.8.99-.57.56-1.25,1-2.01,1.27"/>
          <polygon class="cls-9" points="34.84 77.76 36.84 78.9 38.84 77.74 38.84 75.44 36.83 74.28 34.84 75.44 34.84 77.76"/>
          <polyline class="cls-9" points="21.89 44.35 17.04 44.36 14.54 44.38 12.54 44.38"/>
          <polyline class="cls-9" points="20.05 86.35 17.13 86.36 14.63 86.36 12.63 86.38"/>
          <line class="cls-9" x1="20.4" y1="68.35" x2="20.38" y2="62.35"/>
          <line class="cls-9" x1="17.08" y1="60.11" x2="17.57" y2="60.11"/>
          <path class="cls-9" d="m36.27,82.56c.18.02.38.03.57.03,3.31,0,6-2.68,6-6s-2.69-6-6-6c-1.2,0-2.31.35-3.24.96-1.16.73-2.04,1.86-2.47,3.19-.19.58-.29,1.2-.29,1.85,0,1.56.59,2.98,1.56,4.04.98,1.08,2.34,1.79,3.87,1.93Z"/>
          <line class="cls-9" x1="17.1" y1="70.61" x2="17.59" y2="70.61"/>
          <line class="cls-9" x1="14.63" y1="86.36" x2="14.64" y2="87.36"/>
          <line class="cls-9" x1="14.54" y1="43.38" x2="12.54" y2="43.38"/>
          <path class="cls-9" d="m17.57,60.11c.76.27,1.44.71,2.01,1.26.3.29.57.62.8.98"/>
          <line class="cls-9" x1="14.54" y1="43.38" x2="14.54" y2="44.38"/>
          <circle class="cls-9" cx="29.06" cy="52.83" r="6"/>
          <line class="cls-9" x1="25.37" y1="130.11" x2="25.32" y2="130.41"/>
          <line class="cls-9" x1="21.28" y1="161.82" x2="27.54" y2="129.39"/>
          <line class="cls-9" x1="92.66" y1="113.39" x2="70.55" y2="108.35"/>
          <line class="cls-9" x1="56.99" y1="119.36" x2="57.97" y2="114.26"/>
          <line class="cls-9" x1="56.1" y1="123.95" x2="56.98" y2="119.38"/>
          <path class="cls-9" d="m24.48,42.84c-1.09.01-2.07.6-2.59,1.51-.11.18-.19.37-.26.57"/>
          <path class="cls-9" d="m60.96,103.09c-2-.46-3.85-1.42-5.37-2.8"/>
          <path class="cls-9" d="m27.54,129.39s0-.07.02-.11c0-.04.01-.08.02-.11"/>
          <path class="cls-9" d="m56.4,99.4c1.23.67,2.54,1.17,3.91,1.49"/>
          <line class="cls-9" x1="56" y1="113.88" x2="54.13" y2="123.57"/>
          <path class="cls-9" d="m19.4,172.09c0,.06,0,.12-.02.17"/>
          <path class="cls-9" d="m57.97,114.26c.42-2.16.28-4.4-.41-6.5"/>
          <line class="cls-9" x1="36.33" y1="82.82" x2="36.27" y2="82.57"/>
          <path class="cls-9" d="m21.56,52.85c0-.79.12-1.57.36-2.32"/>
          <line class="cls-9" x1="70.33" y1="109.32" x2="92.66" y2="114.43"/>
          <line class="cls-9" x1="56.01" y1="124.43" x2="56.1" y2="123.95"/>
          <line class="cls-9" x1="46.69" y1="172.7" x2="46.74" y2="172.42"/>
          <path class="cls-9" d="m70.55,108.35c-1.15-.26-2.35.11-3.15.97"/>
          <path class="cls-9" d="m62.92,114.15c-.8.86-1.08,2.09-.73,3.22"/>
          <polyline class="cls-9" points="92.66 130.83 92.66 131.85 92.66 134.93 92.66 136.99"/>
          <line class="cls-9" x1="29.04" y1="42.83" x2="24.48" y2="42.84"/>
          <line class="cls-9" x1="55.61" y1="126.48" x2="55.62" y2="126.48"/>
          <line class="cls-9" x1="48.52" y1="163.2" x2="48.56" y2="163"/>
          <path class="cls-9" d="m68.13,110.01c.56-.6,1.4-.86,2.2-.68"/>
          <path class="cls-9" d="m63.14,117.07c-.24-.78-.04-1.64.52-2.24"/>
          <path class="cls-9" d="m19.32,173.8c0-.51.02-1.02.06-1.53"/>
          <path class="cls-9" d="m55.66,108.38c.58,1.77.7,3.67.34,5.5"/>
          <line class="cls-9" x1="21.63" y1="44.93" x2="20.02" y2="49.93"/>
          <line class="cls-9" x1="65.09" y1="123.36" x2="63.14" y2="117.07"/>
          <line class="cls-9" x1="62.19" y1="117.38" x2="64.13" y2="123.66"/>
          <path class="cls-9" d="m54.13,123.57c-.01.07-.02.13-.03.2-.02.06-.03.12-.04.19"/>
          <path class="cls-9" d="m30.59,71.76c.93-.39,1.94-.55,2.94-.47"/>
          <line class="cls-9" x1="46.34" y1="183.26" x2="46.32" y2="183.31"/>
          <path class="cls-9" d="m56.4,99.4c-.53-.3-1.05-.62-1.54-.98"/>
          <line class="cls-9" x1="19.56" y1="52.85" x2="19.58" y2="61.38"/>
          <path class="cls-9" d="m19.7,170.05c.13-.65.25-1.3.37-1.94.14-.73.28-1.45.42-2.15.13-.7.26-1.38.39-2.04.12-.65.24-1.28.35-1.88"/>
          <line class="cls-9" x1="61.41" y1="101.14" x2="92.66" y2="108.26"/>
          <path class="cls-9" d="m55.95,102.83c3.92,4.69,4.34,11.39,1.04,16.53-.01,0-.01.01-.01.01"/>
          <line class="cls-9" x1="31.55" y1="83.59" x2="31.32" y2="80.74"/>
          <line class="cls-9" x1="33.6" y1="71.55" x2="33.53" y2="71.29"/>
          <line class="cls-9" x1="30.83" y1="74.76" x2="30.59" y2="71.76"/>
          <path class="cls-9" d="m54.4,98.1c.15.1.31.21.46.32"/>
          <line class="cls-9" x1="67.4" y1="109.32" x2="62.92" y2="114.15"/>
          <path class="cls-9" d="m55.59,100.29c-.21-.19-.43-.38-.66-.56"/>
          <line class="cls-9" x1="44.78" y1="172.05" x2="44.72" y2="172.32"/>
          <path class="cls-9" d="m23.54,45.54c.13-.42.51-.7.94-.7"/>
          <path class="cls-9" d="m64.13,123.66c.35,1.12,1.27,1.98,2.42,2.24"/>
          <path class="cls-9" d="m66.77,124.93c-.8-.18-1.44-.77-1.68-1.56"/>
          <line class="cls-9" x1="46.82" y1="172.05" x2="48.52" y2="163.2"/>
          <line class="cls-9" x1="25.32" y1="130.41" x2="19.06" y2="162.83"/>
          <line class="cls-9" x1="92.66" y1="110.32" x2="60.96" y2="103.09"/>
          <path class="cls-9" d="m19.65,170.33s.01-.09.02-.14l.03-.15"/>
          <line class="cls-9" x1="55.62" y1="126.48" x2="92.66" y2="134.93"/>
          <line class="cls-9" x1="28.59" y1="124.01" x2="30.08" y2="116.27"/>
          <path class="cls-9" d="m17.4,171.93s0,.06,0,.09v.08"/>
          <path class="cls-9" d="m27.58,129.16c.05-.27.11-.56.17-.86.08-.39.16-.79.24-1.21.08-.43.17-.87.26-1.32.08-.45.17-.91.26-1.37"/>
          <line class="cls-9" x1="26.55" y1="124.02" x2="25.37" y2="130.11"/>
          <path class="cls-9" d="m17.39,172.1c-.05.56-.07,1.13-.07,1.69"/>
          <line class="cls-9" x1="92.66" y1="130.83" x2="66.77" y2="124.93"/>
          <path class="cls-9" d="m27.74,109.88c.63,1.94.76,4.01.38,6.01"/>
          <path class="cls-9" d="m17.68,169.97c-.01.09-.03.17-.05.26"/>
          <path class="cls-9" d="m54.82,130.57s.01-.07.02-.11.02-.08.02-.11"/>
          <path class="cls-9" d="m46.78,161.75c-.12.63-.25,1.3-.39,2-.16.79-.32,1.62-.48,2.48-.17.86-.35,1.75-.52,2.66-.18.91-.36,1.84-.54,2.77"/>
          <path class="cls-9" d="m30.08,116.27c.45-2.34.3-4.75-.44-7.01"/>
          <polyline class="cls-9" points="21.63 83.2 21.62 77.84 21.56 52.85"/>
          <path class="cls-9" d="m22.12,86.29c-.32-1-.49-2.04-.49-3.09"/>
          <line class="cls-9" x1="63.66" y1="114.83" x2="68.13" y2="110.01"/>
          <line class="cls-9" x1="19.6" y1="69.34" x2="19.63" y2="83.2"/>
          <line class="cls-9" x1="66.55" y1="125.9" x2="92.66" y2="131.85"/>
          <path class="cls-9" d="m19.63,83.2c0,1.07.14,2.13.43,3.15.04.19.1.38.16.56"/>
          <circle class="cls-9" cx="31.94" cy="229.83" r="4"/>
          <line class="cls-9" x1="53.08" y1="129.1" x2="46.82" y2="161.53"/>
          <path class="cls-9" d="m19.06,162.83s-.02.08-.02.12c-.01.03-.02.07-.03.11"/>
          <path class="cls-9" d="m29.12,80.83c.74,0,1.47-.03,2.2-.09.36-.03.72-.06,1.08-.11"/>
          <path class="cls-9" d="m54.06,123.97c-.07.34-.13.68-.2,1.01-.08.47-.17.93-.26,1.38-.08.45-.17.89-.25,1.32-.08.42-.15.82-.22,1.2"/>
          <path class="cls-9" d="m38.57,49.72c-1.35-4.11-5.2-6.89-9.53-6.89"/>
          <line class="cls-9" x1="28.12" y1="115.89" x2="26.62" y2="123.63"/>
          <path class="cls-9" d="m46.82,161.53s-.01.07-.02.11-.01.07-.02.11"/>
          <line class="cls-9" x1="24.48" y1="44.84" x2="29.05" y2="44.83"/>
          <path class="cls-9" d="m53.13,128.88l-.03.12s-.01.07-.02.11"/>
          <path class="cls-9" d="m46.33,176.55c-.01-1.29.11-2.57.36-3.84"/>
          <path class="cls-9" d="m28.51,124.4c.02-.07.03-.13.04-.2.01-.06.03-.12.04-.19"/>
          <path class="cls-9" d="m29.11,74.83c.57,0,1.15-.02,1.72-.07.1,0,.2,0,.3-.02"/>
          <path class="cls-9" d="m31.55,83.59c-1.24.52-2.61.63-3.91.32-2.86-.7-4.78-3.26-4.78-6.07,0-.49.06-.99.18-1.48.82-3.36,4.2-5.41,7.55-4.6"/>
          <line class="cls-9" x1="19.01" y1="163.07" x2="17.68" y2="169.97"/>
          <path class="cls-9" d="m44.85,171.66c0,.06-.02.13-.03.19-.02.06-.03.13-.04.19"/>
          <path class="cls-9" d="m17.63,170.23c-.1.57-.18,1.14-.23,1.71"/>
          <circle class="cls-9" cx="31.94" cy="229.83" r="10"/>
          <path class="cls-9" d="m21.23,162.03s.02-.07.03-.11c0-.04,0-.08.02-.11"/>
          <path class="cls-9" d="m44.72,172.32c-.26,1.39-.4,2.81-.39,4.22"/>
          <line class="cls-9" x1="60.31" y1="100.89" x2="61.41" y2="101.14"/>
          <line class="cls-9" x1="26.62" y1="123.63" x2="26.55" y2="124.02"/>
          <path class="cls-9" d="m29.05,44.83c3.46,0,6.54,2.22,7.62,5.52"/>
          <line class="cls-9" x1="48.56" y1="163" x2="54.82" y2="130.57"/>
          <polyline class="cls-9" points="92.66 108.26 92.66 110.32 92.66 113.39 92.66 114.43"/>
          <circle class="cls-9" cx="29.06" cy="52.83" r="6.25"/>
          <path class="cls-9" d="m36.33,82.82c-1.43.89-3.15,1.17-4.78.77"/>
          <line class="cls-9" x1="46.74" y1="172.42" x2="46.82" y2="172.05"/>
          <line class="cls-9" x1="92.66" y1="136.99" x2="55.23" y2="128.45"/>
          <polyline class="cls-9" points="54.86 130.35 55.23 128.45 55.61 126.48 56.01 124.43"/>
          <path class="cls-9" d="m33.53,71.29c1.14-.71,2.48-1.03,3.82-.93,2.45.21,4.46,1.79,5.3,3.93.35.87.5,1.82.42,2.81-.28,3.44-3.3,6-6.74,5.72"/>
          <path class="cls-9" d="m20.02,49.93c-.31.95-.46,1.94-.46,2.93"/>
          <path class="cls-9" d="m19.65,170.33c-.12.59-.2,1.17-.25,1.76"/>
          <line class="cls-9" x1="21.92" y1="50.53" x2="23.54" y2="45.54"/>
          <path class="cls-9" d="m29.11,74.83c-1.66.01-3,1.35-2.99,3.01,0,1.66,1.34,3,3,2.99"/>
          <line class="cls-9" x1="29.64" y1="109.26" x2="22.12" y2="86.29"/>
          <polyline class="cls-9" points="36.67 50.35 44.32 73.74 55.66 108.38"/>
          <path class="cls-9" d="m44.44,229.81c.01,6.91-5.57,12.51-12.48,12.53-6.9.01-12.51-5.57-12.52-12.47"/>
          <line class="cls-9" x1="20.22" y1="86.91" x2="27.74" y2="109.88"/>
          <line class="cls-9" x1="19.44" y1="229.86" x2="19.32" y2="173.8"/>
          <polyline class="cls-9" points="46.44 229.81 46.34 183.26 46.33 176.55"/>
          <polyline class="cls-9" points="57.56 107.76 55.95 102.83 55.94 102.82 54.93 99.73 54.4 98.1 38.57 49.72"/>
          <line class="cls-9" x1="44.33" y1="176.55" x2="44.44" y2="229.81"/>
          <line class="cls-9" x1="17.32" y1="173.8" x2="17.44" y2="229.86"/>
          <path class="cls-9" d="m17.44,229.86c.02,8.01,6.52,14.49,14.53,14.47,8.01-.02,14.49-6.52,14.47-14.53"/>
        </g>
      </g>
    </g>
  </g>
  <g id="pultit">
    <g id="up" class="cls-8">
      <path class="cls-5" d="m20.28,52.35v6c-.64,1.04-1.63,1.84-2.79,2.26h-.49l-.02-10.5h.49c1.16.42,2.15,1.21,2.81,2.24Z"/>
      <g>
        <line class="cls-9" x1="20.29" y1="58.35" x2="20.28" y2="52.35"/>
        <path class="cls-9" d="m17.47,50.11c1.16.42,2.15,1.21,2.81,2.24"/>
        <polyline class="cls-9" points="17 60.61 16.98 50.11 17.47 50.11"/>
        <line class="cls-9" x1="17" y1="60.61" x2="17.49" y2="60.61"/>
        <path class="cls-9" d="m20.29,58.35c-.65,1.04-1.64,1.84-2.8,2.26"/>
      </g>
    </g>
    <g id="down">
      <g class="cls-1">
        <g>
          <polygon class="cls-5" points="20.33 72.35 20.34 78.35 17.54 80.61 17.05 80.61 17.52 70.11 20.33 72.35"/>
          <path class="cls-5" d="m17.54,80.61l2.8-2.26c-.66,1.04-1.64,1.84-2.8,2.26Z"/>
          <path class="cls-5" d="m20.33,72.35l-2.81-2.24c1.16.42,2.15,1.21,2.81,2.24Z"/>
          <polygon class="cls-5" points="17.52 70.11 17.05 80.61 17.02 70.11 17.52 70.11"/>
        </g>
        <g>
          <line class="cls-9" x1="20.34" y1="78.35" x2="20.33" y2="72.35"/>
          <path class="cls-9" d="m17.52,70.11c1.16.42,2.15,1.21,2.81,2.24"/>
          <polyline class="cls-9" points="17.05 80.61 17.02 70.11 17.52 70.11"/>
          <line class="cls-9" x1="17.05" y1="80.61" x2="17.54" y2="80.61"/>
          <path class="cls-9" d="m20.34,78.35c-.66,1.04-1.64,1.84-2.8,2.26"/>
        </g>
      </g>
    </g>
  </g>
</svg>