<?xml version="1.0" encoding="UTF-8"?>
<svg xmlns="http://www.w3.org/2000/svg" viewBox="0 0 960 520">
  <defs>
    <style>
      .i {
        fill: #ffda35;
      }

      .i, .j, .k, .l, .m, .n, .o, .p, .q {
        stroke-width: 0px;
      }

      .j {
        fill: #848484;
      }

      .r {
        opacity: .5;
      }

      .k, .s, .t, .u {
        fill: none;
      }

      .s {
        stroke-width: 26px;
      }

      .s, .v, .t, .u {
        stroke-linecap: round;
      }

      .s, .v, .w {
        stroke-miterlimit: 10;
      }

      .s, .v, .u {
        stroke: #fff;
      }

      .v, .l, .w {
        fill: #fff;
      }

      .m {
        fill: #5f5f5f;
      }

      .t, .w {
        stroke: #000;
      }

      .t, .u {
        stroke-linejoin: round;
        stroke-width: 3px;
      }

      .n {
        fill: #4c4c4c;
      }

      .w {
        stroke-width: 7px;
      }

      .o {
        fill: #e84e0f;
      }

      .p {
        fill: #303030;
      }

      .q {
        fill: #adadad;
      }
    </style>
  </defs>
  <g id="a" data-name="arrow copy">
    <path class="s" d="m374,63.53c43.94,4.41,116.26,27.75,158.51,60.07"/>
    <g>
      <polygon class="v" points="386.8 88.22 394.35 44.44 341.85 57.92 386.8 88.22"/>
      <polygon class="v" points="530.79 96 506.59 133.25 560.15 141.56 530.79 96"/>
    </g>
  </g>
  <g id="b" data-name="stripes">
    <g>
      <path class="k" d="m242.41,99.33l-22.92,35.68c-.2.31-.42.61-.66.88l-22.92,35.68c-.2.31-.42.61-.66.88l-2.35,3.65c1.71,10.66,4.03,21.72,6.84,33.01l17.85-27.8c.19-.3.41-.58.64-.85l22.94-35.72c.2-.3.41-.58.64-.85l22.94-35.71c.2-.3.41-.58.64-.85l22.22-34.6c-9.12-2.11-17.48-3.65-25.12-4.55l-19.43,30.25c-.2.31-.42.61-.66.88Z"/>
      <path class="k" d="m289.56,99.33l-22.92,35.68c-.2.31-.42.61-.66.88l-22.92,35.68c-.2.31-.42.61-.66.88l-22.92,35.68c-.2.31-.42.61-.66.88l-13.43,20.92c2.82,9.66,5.92,19.41,9.23,29.15l2.98-4.63c.19-.3.41-.58.64-.85l22.94-35.72c.2-.3.41-.58.64-.85l22.94-35.71c.2-.3.41-.58.64-.85l22.94-35.71c.19-.3.41-.58.64-.85l22.94-35.71c.2-.3.41-.58.64-.85l15.05-23.43c-8.31-2.61-16.15-4.95-23.56-6.99l-13.82,21.52c-.2.31-.42.61-.66.88Z"/>
      <path class="k" d="m407.45,135.89l-22.92,35.68c-.2.31-.42.61-.66.88l-22.92,35.68c-.2.31-.42.61-.66.88l-22.92,35.68c-.2.31-.42.61-.66.88l-22.92,35.68c-.2.31-.42.61-.66.88l-22.92,35.68c-.2.31-.42.61-.66.88l-22.92,35.68c-.2.31-.42.61-.66.88l-7.51,11.69c4.15,8.96,8.16,17.39,11.91,25.12l17.95-27.94c.2-.3.41-.58.64-.85l22.94-35.71c.2-.3.41-.58.64-.85l22.94-35.71c.2-.3.41-.58.64-.85l22.94-35.71c.2-.3.41-.58.64-.85l22.94-35.71c.2-.3.41-.58.64-.85l22.94-35.71c.19-.3.41-.58.64-.85l22.94-35.71c.19-.3.41-.58.64-.85l12.64-19.68c-3.19-1.15-6.37-2.31-9.56-3.46-3.75-1.35-7.45-2.69-11.09-4-.71-.26-1.41-.51-2.11-.76l-12.21,19c-.2.31-.42.61-.66.88Z"/>
      <path class="k" d="m572.48,245.59l-22.92,35.68c-.2.31-.42.61-.66.88l-22.92,35.68c-.2.31-.42.61-.66.88l-22.92,35.68c-.2.31-.42.61-.66.88l-22.92,35.68c-.2.31-.42.61-.66.88l-15.29,23.81,30.93-4.5,6.71-10.45c.2-.3.41-.58.64-.85l22.94-35.71c.2-.3.41-.58.64-.85l22.94-35.71c.19-.3.41-.58.64-.85l22.94-35.72c.2-.3.41-.58.64-.85l22.94-35.71c.19-.3.41-.58.64-.85l22.94-35.72c.2-.3.41-.58.64-.85l4.58-7.13c-6.54-4.53-13.13-8.86-19.79-13l-30.7,47.8c-.2.31-.42.61-.66.88Z"/>
      <path class="k" d="m194.03,144.76c.19-.3.41-.58.64-.85l22.94-35.72c.19-.3.41-.58.64-.85l22.94-35.72c.2-.3.41-.58.64-.85l2.22-3.45c-13.83.53-24.69,4.16-33.19,11.45-17.24,14.77-22.72,40.72-20.8,72.18l3.98-6.19Z"/>
      <path class="k" d="m619.63,245.59l-22.92,35.68c-.2.31-.42.61-.66.88l-22.92,35.69c-.2.31-.43.61-.66.88l-22.91,35.68c-.2.31-.42.61-.66.88l-22.92,35.68c-.2.31-.42.61-.66.88l-10.43,16.24,31.04-4.51,25.32-39.43c.2-.3.41-.58.64-.85l22.94-35.71c.19-.3.41-.58.64-.85l22.94-35.72c.2-.3.41-.58.64-.85l22.93-35.71c.2-.3.41-.58.64-.85l12.62-19.65c-6.14-5.12-12.34-10.01-18.61-14.69l-16.34,25.45c-.2.31-.42.61-.66.88Z"/>
      <path class="k" d="m525.33,172.46l-22.92,35.68c-.2.31-.42.61-.66.88l-22.92,35.68c-.2.31-.42.61-.66.88l-22.92,35.68c-.2.31-.42.61-.66.88l-22.92,35.68c-.2.31-.42.61-.66.88l-22.92,35.68c-.2.31-.42.61-.66.88l-22.92,35.68c-.2.31-.42.61-.66.88l-22.92,35.68c-.2.31-.42.61-.66.88l-1.54,2.39,31.04-4.51,16.43-25.58c.2-.3.41-.58.64-.85l22.94-35.71c.2-.3.41-.58.64-.85l22.94-35.71c.2-.3.41-.58.64-.85l22.94-35.71c.2-.3.41-.58.64-.85l22.94-35.71c.19-.3.41-.58.64-.85l22.94-35.71c.19-.3.41-.58.64-.85l22.94-35.71c.19-.3.41-.58.64-.85l6.73-10.48c-7.15-3.5-14.33-6.87-21.55-10.11l-7.51,11.69c-.2.31-.42.61-.66.88Z"/>
      <path class="k" d="m478.18,172.46l-22.92,35.68c-.2.31-.42.61-.66.88l-22.92,35.68c-.2.31-.42.61-.66.88l-22.92,35.68c-.2.31-.42.61-.66.88l-22.92,35.68c-.2.31-.42.61-.66.88l-22.92,35.68c-.2.31-.42.61-.66.88l-22.92,35.68c-.2.31-.42.61-.66.88l-22.92,35.68c-.2.31-.42.61-.66.88l-6.39,9.96,31.04-4.51,21.28-33.14c.2-.3.41-.58.64-.85l22.94-35.71c.2-.3.41-.58.64-.85l22.94-35.71c.19-.3.41-.58.64-.85l22.94-35.71c.19-.3.41-.58.64-.85l22.94-35.71c.2-.3.41-.58.64-.85l22.94-35.71c.19-.3.41-.58.64-.85l22.94-35.71c.19-.3.41-.58.64-.85l17.4-27.1c-7.37-3.13-14.77-6.16-22.19-9.11l-17.54,27.31c-.2.31-.42.61-.66.88Z"/>
      <path class="k" d="m548.91,209.03l-22.92,35.68c-.2.31-.42.61-.66.88l-22.92,35.68c-.2.31-.42.61-.66.88l-22.92,35.68c-.2.31-.42.61-.66.88l-22.92,35.68c-.2.31-.42.61-.66.88l-22.92,35.68c-.2.31-.42.61-.66.88l-20.15,31.38,30.93-4.5,11.57-18.01c.2-.3.41-.58.64-.85l22.94-35.71c.2-.3.41-.58.64-.85l22.94-35.71c.19-.3.41-.58.64-.85l22.94-35.72c.2-.3.41-.58.64-.85l22.94-35.71c.19-.3.41-.58.64-.85l22.94-35.72c.2-.3.41-.58.64-.85l18.22-28.37c-6.86-3.97-13.76-7.77-20.72-11.41l-19.83,30.88c-.2.31-.42.61-.66.88Z"/>
      <path class="k" d="m313.14,135.89l-22.92,35.68c-.2.31-.42.61-.66.88l-22.92,35.68c-.2.31-.42.61-.66.88l-22.92,35.68c-.2.31-.42.61-.66.88l-20.99,32.68c3.37,9.19,6.88,18.29,10.46,27.23l9.3-14.48c.2-.3.41-.58.64-.85l22.93-35.71c.2-.3.41-.58.64-.85l22.94-35.71c.2-.3.41-.58.64-.85l22.94-35.71c.2-.3.41-.58.64-.85l22.94-35.71c.19-.3.41-.58.64-.85l22.94-35.72c.2-.3.41-.58.64-.85l6.74-10.49c-8.04-2.79-15.73-5.41-23.1-7.85l-29.55,46.01c-.2.31-.42.61-.66.88Z"/>
      <path class="k" d="m360.29,135.9l-22.92,35.68c-.2.31-.42.61-.66.88l-22.92,35.68c-.2.31-.42.61-.66.88l-22.92,35.68c-.2.31-.42.61-.66.88l-22.92,35.68c-.2.31-.42.61-.66.88l-22.92,35.68c-.2.31-.43.61-.66.88l-3.11,4.85c3.77,8.97,7.56,17.69,11.3,26.07l14.16-22.05c.2-.3.41-.58.64-.85l22.94-35.71c.2-.3.41-.58.64-.85l22.94-35.71c.2-.3.41-.58.64-.85l22.94-35.71c.19-.3.41-.58.64-.85l22.94-35.71c.2-.3.41-.58.64-.85l22.94-35.71c.19-.3.41-.58.64-.85l21.51-33.49c-7.88-2.83-15.48-5.54-22.82-8.13l-21.01,32.72c-.2.31-.42.61-.66.88Z"/>
      <path class="k" d="m454.6,135.9l-22.92,35.68c-.2.31-.42.61-.66.88l-22.92,35.68c-.2.31-.42.61-.66.88l-22.92,35.68c-.2.31-.42.61-.66.88l-22.92,35.68c-.2.31-.42.61-.66.88l-22.92,35.68c-.2.31-.42.61-.66.88l-22.92,35.68c-.2.31-.42.61-.66.88l-22.92,35.68c-.2.31-.42.61-.66.88l-10.91,16.99c5.13,10.23,9.43,18.5,12.46,24.26l20.8-32.38c.2-.3.41-.58.64-.85l22.94-35.71c.2-.3.41-.58.64-.85l22.94-35.71c.2-.3.41-.58.64-.85l22.94-35.71c.2-.3.41-.58.64-.85l22.94-35.71c.2-.3.41-.58.64-.85l22.94-35.71c.19-.3.41-.58.64-.85l22.94-35.72c.2-.3.41-.58.64-.85l22.94-35.71c.19-.3.41-.58.64-.85l3.58-5.57c-7.52-2.88-15.06-5.69-22.6-8.47l-3.3,5.14c-.2.31-.42.61-.66.88Z"/>
      <path class="k" d="m713.94,318.72l-22.91,35.68c-.2.31-.43.61-.66.88l-19.33,30.1,30.93-4.5,10.75-16.73c.2-.3.41-.58.64-.85l22.94-35.71c.19-.3.41-.58.64-.85l.88-1.37c-4.52-6.65-9.46-13.52-14.84-20.56l-8.37,13.03c-.2.31-.42.61-.66.88Z"/>
      <path class="k" d="m666.79,245.59l-22.92,35.68c-.2.31-.42.61-.66.88l-22.92,35.68c-.2.31-.43.61-.66.88l-22.92,35.68c-.2.31-.42.61-.66.88l-22.92,35.68c-.2.31-.42.61-.66.88l-5.57,8.68,31.04-4.51,20.46-31.86c.2-.3.41-.58.64-.85l22.93-35.71c.2-.3.41-.58.64-.85l22.94-35.71c.19-.3.41-.58.64-.85l18.67-29.07c-5.71-5.74-11.49-11.24-17.35-16.51l-.07.12c-.2.31-.42.61-.66.88Z"/>
      <path class="k" d="m690.36,282.16l-22.92,35.68c-.2.31-.42.61-.66.88l-22.92,35.68c-.2.31-.42.61-.66.88l-22.92,35.68c-.2.31-.42.61-.66.88l-.71,1.11,31.04-4.51,15.61-24.3c.19-.3.41-.58.64-.85l22.94-35.71c.2-.3.41-.58.64-.85l22.62-35.22c-.89-1.08-1.77-2.16-2.68-3.24-4.42-5.25-8.89-10.31-13.41-15.22l-5.28,8.22c-.2.31-.42.61-.66.88Z"/>
      <path class="k" d="m737.52,355.29l-14.47,22.53,30.93-4.5,5.89-9.17c.2-.3.41-.59.64-.85l.29-.45c-3.83-6.97-8.28-14.63-13.4-22.8l-9.22,14.36c-.2.31-.42.61-.66.88Z"/>
      <path class="i" d="m252.24,69.22c3.72,2.39,4.8,7.34,2.41,11.05l-12.24,19.05c.24-.28.46-.57.66-.88l19.43-30.25c-6.68-.79-12.81-1.09-18.46-.87l-2.22,3.45c2.55-3.01,7-3.75,10.41-1.56Z"/>
      <path class="i" d="m289.56,99.33c.24-.28.46-.57.66-.88l13.82-21.52c-.34-.09-.67-.19-1.01-.28-.11,1.25-.51,2.5-1.24,3.63l-12.24,19.05Z"/>
      <path class="i" d="m228.66,105.79c3.72,2.39,4.8,7.34,2.41,11.05l-12.24,19.05c.24-.28.46-.57.66-.88l22.92-35.68,12.24-19.05c2.39-3.72,1.31-8.67-2.41-11.05-3.41-2.19-7.86-1.46-10.41,1.56-.23.27-.45.55-.64.85l-22.94,35.72c2.55-3.01,7-3.75,10.42-1.56Z"/>
      <path class="i" d="m275.81,105.79c3.72,2.39,4.8,7.34,2.41,11.05l-12.24,19.05c.24-.28.46-.57.66-.88l22.92-35.68,12.24-19.05c.73-1.13,1.13-2.37,1.24-3.63-5.37-1.47-10.5-2.77-15.41-3.91l-22.22,34.6c2.55-3.01,7-3.75,10.41-1.56Z"/>
      <path class="i" d="m322.97,105.79c3.72,2.39,4.8,7.34,2.41,11.05l-12.24,19.05c.24-.28.46-.57.66-.88l29.55-46.01c-5.43-1.8-10.67-3.49-15.75-5.09l-15.05,23.43c2.55-3.01,7-3.75,10.41-1.56Z"/>
      <path class="i" d="m370.12,105.79c3.72,2.39,4.8,7.34,2.41,11.05l-12.24,19.05c.24-.28.46-.57.66-.88l21.01-32.72c-5.31-1.88-10.49-3.69-15.52-5.44l-6.74,10.49c2.55-3.01,7-3.75,10.41-1.56Z"/>
      <path class="i" d="m407.45,135.89c.24-.28.46-.57.66-.88l12.21-19s-.1-.03-.14-.05c-.14.3-.3.6-.49.89l-12.24,19.05Z"/>
      <path class="i" d="m455.26,135.01l3.3-5.14s-.05-.02-.08-.03l-3.88,6.05c.24-.28.46-.57.66-.88Z"/>
      <path class="i" d="m205.09,142.35c3.72,2.39,4.8,7.34,2.41,11.05l-12.24,19.05c.24-.28.46-.57.66-.88l22.92-35.68,12.24-19.05c2.39-3.72,1.31-8.67-2.41-11.05-3.42-2.19-7.86-1.46-10.42,1.56-.23.27-.44.55-.64.85l-22.94,35.72c2.55-3.01,7-3.75,10.42-1.56Z"/>
      <path class="i" d="m252.24,142.35c3.72,2.39,4.8,7.34,2.41,11.05l-12.24,19.05c.24-.28.46-.57.66-.88l22.92-35.68,12.24-19.05c2.39-3.72,1.31-8.67-2.41-11.05-3.41-2.19-7.86-1.46-10.41,1.56-.23.27-.44.55-.64.85l-22.94,35.71c2.55-3.01,7-3.75,10.41-1.56Z"/>
      <path class="i" d="m299.39,142.35c3.72,2.39,4.8,7.34,2.41,11.05l-12.24,19.05c.24-.28.46-.57.66-.88l22.92-35.68,12.24-19.05c2.39-3.72,1.31-8.67-2.41-11.05-3.41-2.19-7.86-1.46-10.41,1.56-.23.27-.44.55-.64.85l-22.94,35.71c2.55-3.01,7-3.75,10.42-1.56Z"/>
      <path class="i" d="m346.54,142.35c3.72,2.39,4.8,7.34,2.41,11.05l-12.24,19.05c.24-.28.46-.57.66-.88l22.92-35.68,12.24-19.05c2.39-3.72,1.31-8.67-2.41-11.05-3.41-2.19-7.86-1.46-10.41,1.56-.23.27-.45.55-.64.85l-22.94,35.72c2.55-3.01,7-3.75,10.42-1.56Z"/>
      <path class="i" d="m393.7,142.35c3.72,2.39,4.8,7.34,2.41,11.05l-12.24,19.05c.24-.28.46-.57.66-.88l22.92-35.68,12.24-19.05c.18-.29.34-.58.49-.89-5.24-1.89-10.37-3.73-15.38-5.53l-21.51,33.49c2.55-3.01,7-3.75,10.42-1.56Z"/>
      <path class="i" d="m440.85,142.35c3.72,2.39,4.8,7.34,2.41,11.05l-12.24,19.05c.24-.28.46-.57.66-.88l22.92-35.68,3.88-6.05c-5.13-1.89-10.27-3.76-15.41-5.62l-12.64,19.68c2.55-3.01,7-3.75,10.42-1.56Z"/>
      <path class="i" d="m488,142.35c3.72,2.39,4.8,7.34,2.41,11.05l-12.24,19.05c.24-.28.46-.57.66-.88l17.54-27.31c-5.06-2.01-10.13-3.98-15.21-5.93l-3.58,5.57c2.55-3.01,7-3.75,10.42-1.56Z"/>
      <path class="i" d="m525.99,171.58l7.51-11.69s-.05-.02-.07-.03l-8.09,12.6c.24-.28.46-.57.66-.88Z"/>
      <path class="i" d="m207.49,153.41c2.39-3.72,1.31-8.67-2.41-11.05-3.42-2.19-7.86-1.46-10.42,1.56-.23.27-.44.55-.64.85l-3.98,6.19c.49,8.06,1.47,16.47,2.86,25.16l2.35-3.65,12.24-19.05Z"/>
      <path class="i" d="m228.66,178.92c3.72,2.39,4.8,7.34,2.41,11.05l-12.24,19.05c.24-.28.46-.57.66-.88l22.92-35.68,12.24-19.05c2.39-3.72,1.31-8.67-2.41-11.05-3.41-2.19-7.86-1.46-10.41,1.56-.23.27-.45.55-.64.85l-22.94,35.72c2.55-3.01,7-3.75,10.42-1.56Z"/>
      <path class="i" d="m275.81,178.92c3.72,2.39,4.8,7.34,2.41,11.05l-12.24,19.05c.24-.28.46-.57.66-.88l22.92-35.68,12.24-19.05c2.39-3.72,1.31-8.67-2.41-11.05-3.41-2.19-7.86-1.46-10.42,1.56-.23.27-.44.55-.64.85l-22.94,35.71c2.55-3.01,7-3.75,10.41-1.56Z"/>
      <path class="i" d="m322.97,178.92c3.72,2.39,4.8,7.34,2.41,11.05l-12.24,19.05c.24-.28.46-.57.66-.88l22.92-35.68,12.24-19.05c2.39-3.72,1.31-8.67-2.41-11.05-3.41-2.19-7.86-1.46-10.42,1.56-.23.27-.44.55-.64.85l-22.94,35.71c2.55-3.01,7-3.75,10.41-1.56Z"/>
      <path class="i" d="m370.12,178.92c3.72,2.39,4.8,7.34,2.41,11.05l-12.24,19.05c.24-.28.46-.57.66-.88l22.92-35.68,12.24-19.05c2.39-3.72,1.31-8.67-2.41-11.05-3.41-2.19-7.86-1.46-10.42,1.56-.23.27-.44.55-.64.85l-22.94,35.71c2.55-3.01,7-3.75,10.41-1.56Z"/>
      <path class="i" d="m417.27,178.92c3.72,2.39,4.8,7.34,2.41,11.05l-12.24,19.05c.24-.28.46-.57.66-.88l22.92-35.68,12.24-19.05c2.39-3.72,1.31-8.67-2.41-11.05-3.41-2.19-7.86-1.46-10.42,1.56-.23.27-.44.55-.64.85l-22.94,35.71c2.55-3.01,7-3.75,10.42-1.56Z"/>
      <path class="i" d="m464.43,178.92c3.72,2.39,4.8,7.34,2.41,11.05l-12.24,19.05c.24-.28.46-.57.66-.88l22.92-35.68,12.24-19.05c2.39-3.72,1.31-8.67-2.41-11.05-3.41-2.19-7.86-1.46-10.42,1.56-.23.27-.44.55-.64.85l-22.94,35.71c2.55-3.01,7-3.75,10.41-1.56Z"/>
      <path class="i" d="m511.58,178.92c3.72,2.39,4.8,7.34,2.41,11.05l-12.24,19.05c.24-.28.46-.57.66-.88l22.92-35.68,8.09-12.6c-4.94-2.21-9.89-4.37-14.85-6.48l-17.4,27.1c2.55-3.01,7-3.75,10.42-1.56Z"/>
      <path class="i" d="m558.73,178.92c3.72,2.39,4.8,7.34,2.41,11.05l-12.24,19.05c.24-.28.46-.57.66-.88l19.83-30.88c-4.76-2.49-9.55-4.91-14.35-7.26l-6.73,10.48c2.55-3.01,7-3.75,10.42-1.56Z"/>
      <path class="i" d="m231.07,189.97c2.39-3.72,1.31-8.67-2.41-11.05-3.42-2.19-7.86-1.46-10.42,1.56-.23.27-.44.55-.64.85l-17.85,27.8c.42,1.7.85,3.4,1.3,5.1,1.39.05,2.78.45,4.03,1.26,3.72,2.39,4.8,7.34,2.41,11.05l-2.12,3.31s.02.07.03.1l13.43-20.92,12.24-19.05Z"/>
      <path class="i" d="m252.24,215.48c3.72,2.39,4.8,7.34,2.41,11.05l-12.24,19.05c.24-.28.46-.57.66-.88l22.92-35.68,12.24-19.05c2.39-3.72,1.31-8.67-2.41-11.05-3.41-2.19-7.86-1.46-10.41,1.56-.23.27-.44.55-.64.85l-22.94,35.71c2.55-3.01,7-3.75,10.41-1.56Z"/>
      <path class="i" d="m299.39,215.48c3.72,2.39,4.8,7.34,2.41,11.05l-12.24,19.05c.24-.28.46-.57.66-.88l22.92-35.68,12.24-19.05c2.39-3.72,1.31-8.67-2.41-11.05-3.41-2.19-7.86-1.46-10.41,1.56-.23.27-.44.55-.64.85l-22.94,35.71c2.55-3.01,7-3.75,10.41-1.56Z"/>
      <path class="i" d="m346.54,215.48c3.72,2.39,4.8,7.34,2.41,11.05l-12.24,19.05c.24-.28.46-.57.66-.88l22.92-35.68,12.24-19.05c2.39-3.72,1.31-8.67-2.41-11.05-3.41-2.19-7.86-1.46-10.41,1.56-.23.27-.45.55-.64.85l-22.94,35.71c2.55-3.01,7-3.75,10.42-1.56Z"/>
      <path class="i" d="m393.7,215.48c3.72,2.39,4.8,7.34,2.41,11.05l-12.24,19.05c.24-.28.46-.57.66-.88l22.92-35.68,12.24-19.05c2.39-3.72,1.31-8.67-2.41-11.05-3.41-2.19-7.86-1.46-10.42,1.56-.23.27-.44.55-.64.85l-22.94,35.71c2.55-3.01,7-3.75,10.41-1.56Z"/>
      <path class="i" d="m440.85,215.48c3.72,2.39,4.8,7.34,2.41,11.05l-12.24,19.05c.24-.28.46-.57.66-.88l22.92-35.68,12.24-19.05c2.39-3.72,1.31-8.67-2.41-11.05-3.41-2.19-7.86-1.46-10.41,1.56-.23.27-.45.55-.64.85l-22.94,35.72c2.55-3.01,7-3.75,10.42-1.56Z"/>
      <path class="i" d="m488,215.48c3.72,2.39,4.8,7.34,2.41,11.05l-12.24,19.05c.24-.28.46-.57.66-.88l22.92-35.68,12.24-19.05c2.39-3.72,1.31-8.67-2.41-11.05-3.41-2.19-7.86-1.46-10.42,1.56-.23.27-.44.55-.64.85l-22.94,35.71c2.55-3.01,7-3.75,10.42-1.56Z"/>
      <path class="i" d="m535.16,215.48c3.72,2.39,4.8,7.34,2.41,11.05l-12.24,19.05c.24-.28.46-.57.66-.88l22.92-35.68,12.24-19.05c2.39-3.72,1.31-8.67-2.41-11.05-3.42-2.19-7.86-1.46-10.42,1.56-.23.27-.44.55-.64.85l-22.94,35.71c2.55-3.01,7-3.75,10.42-1.56Z"/>
      <path class="i" d="m582.31,215.48c3.72,2.39,4.8,7.34,2.41,11.05l-12.24,19.05c.24-.28.46-.57.66-.88l30.7-47.8c-4.55-2.83-9.13-5.57-13.73-8.24l-18.22,28.37c2.55-3.01,7-3.75,10.41-1.56Z"/>
      <path class="i" d="m629.46,215.48c3.72,2.39,4.8,7.34,2.41,11.05l-12.24,19.05c.24-.28.46-.57.66-.88l16.34-25.45c-4.31-3.22-8.64-6.33-13.01-9.36l-4.58,7.13c2.55-3.01,7-3.75,10.41-1.56Z"/>
      <path class="i" d="m667.45,244.71l.07-.12s-.04-.04-.06-.05l-.68,1.05c.24-.28.46-.57.66-.88Z"/>
      <path class="i" d="m205.09,215.48c-1.25-.8-2.64-1.21-4.03-1.26,1.35,5.17,2.79,10.38,4.32,15.62l2.12-3.31c2.39-3.72,1.31-8.67-2.41-11.05Z"/>
      <path class="i" d="m254.65,226.54c2.39-3.72,1.31-8.67-2.41-11.05-3.41-2.19-7.86-1.46-10.41,1.56-.23.27-.45.55-.64.85l-22.94,35.72c2.55-3.01,7-3.75,10.42-1.56,3.72,2.39,4.8,7.34,2.41,11.05l-9.68,15.08s.02.06.03.09l20.99-32.68,12.24-19.05Z"/>
      <path class="i" d="m275.81,252.05c3.72,2.39,4.8,7.34,2.41,11.05l-12.24,19.05c.24-.28.46-.57.66-.88l22.92-35.68,12.24-19.05c2.39-3.72,1.31-8.67-2.41-11.05-3.41-2.19-7.86-1.46-10.41,1.56-.23.27-.44.55-.64.85l-22.94,35.71c2.55-3.01,7-3.75,10.41-1.56Z"/>
      <path class="i" d="m322.97,252.05c3.72,2.39,4.8,7.34,2.41,11.05l-12.24,19.05c.24-.28.46-.57.66-.88l22.92-35.68,12.24-19.05c2.39-3.72,1.31-8.67-2.41-11.05-3.41-2.19-7.86-1.46-10.42,1.56-.23.27-.44.55-.64.85l-22.94,35.71c2.55-3.01,7-3.75,10.41-1.56Z"/>
      <path class="i" d="m370.12,252.05c3.72,2.39,4.8,7.34,2.41,11.05l-12.24,19.06c.24-.28.46-.57.66-.88l22.92-35.68,12.24-19.05c2.39-3.72,1.31-8.67-2.41-11.05-3.41-2.19-7.86-1.46-10.41,1.56-.23.27-.44.55-.64.85l-22.94,35.71c2.55-3.01,7-3.75,10.41-1.56Z"/>
      <path class="i" d="m417.27,252.05c3.72,2.39,4.8,7.34,2.41,11.05l-12.24,19.05c.24-.28.46-.57.66-.88l22.92-35.68,12.24-19.05c2.39-3.72,1.31-8.67-2.41-11.05-3.41-2.19-7.86-1.46-10.42,1.56-.23.27-.44.55-.64.85l-22.94,35.71c2.55-3.01,7-3.75,10.41-1.56Z"/>
      <path class="i" d="m464.43,252.05c3.72,2.39,4.8,7.34,2.41,11.05l-12.24,19.06c.24-.28.46-.57.66-.88l22.92-35.68,12.24-19.05c2.39-3.72,1.31-8.67-2.41-11.05-3.41-2.19-7.86-1.46-10.42,1.56-.23.27-.44.55-.64.85l-22.94,35.71c2.55-3.01,7-3.75,10.41-1.56Z"/>
      <path class="i" d="m511.58,252.05c3.72,2.39,4.8,7.34,2.41,11.05l-12.24,19.05c.24-.28.46-.57.66-.88l22.92-35.68,12.24-19.05c2.39-3.72,1.31-8.67-2.41-11.05-3.41-2.19-7.86-1.46-10.42,1.56-.23.27-.44.55-.64.85l-22.94,35.71c2.55-3.01,7-3.75,10.42-1.56Z"/>
      <path class="i" d="m558.73,252.05c3.72,2.39,4.8,7.34,2.41,11.05l-12.24,19.05c.24-.28.46-.57.66-.88l22.92-35.68,12.24-19.05c2.39-3.72,1.31-8.67-2.41-11.05-3.41-2.19-7.86-1.46-10.41,1.56-.23.27-.45.55-.64.85l-22.94,35.72c2.55-3.01,7-3.75,10.42-1.56Z"/>
      <path class="i" d="m605.89,252.05c3.72,2.39,4.8,7.34,2.41,11.05l-12.24,19.05c.24-.28.46-.57.66-.88l22.92-35.68,12.24-19.05c2.39-3.72,1.31-8.67-2.41-11.05-3.41-2.19-7.86-1.46-10.41,1.56-.23.27-.45.55-.64.85l-22.94,35.72c2.55-3.01,7-3.75,10.42-1.56Z"/>
      <path class="i" d="m653.04,252.05c3.72,2.39,4.8,7.34,2.41,11.05l-12.24,19.05c.24-.28.46-.57.66-.88l22.92-35.68.68-1.05c-4.04-3.64-8.11-7.16-12.22-10.59l-12.62,19.65c2.55-3.01,7-3.75,10.41-1.56Z"/>
      <path class="i" d="m691.02,281.27l5.28-8.22s-.04-.04-.06-.06l-5.89,9.17c.24-.28.46-.57.66-.88Z"/>
      <path class="i" d="m228.66,252.05c-3.42-2.19-7.86-1.46-10.42,1.56-.23.27-.44.55-.64.85l-2.98,4.63c2.17,6.38,4.43,12.75,6.76,19.09l9.68-15.08c2.39-3.72,1.31-8.67-2.41-11.05Z"/>
      <path class="i" d="m252.24,288.61c3.72,2.39,4.8,7.34,2.41,11.05l-12.24,19.06c.24-.28.46-.57.66-.88l22.92-35.68,12.24-19.05c2.39-3.72,1.31-8.67-2.41-11.05-3.41-2.19-7.86-1.46-10.41,1.56-.23.27-.45.55-.64.85l-22.93,35.71c2.55-3.01,7-3.75,10.41-1.55Z"/>
      <path class="i" d="m299.39,288.61c3.72,2.39,4.8,7.34,2.41,11.05l-12.24,19.05c.24-.28.46-.57.66-.88l22.92-35.68,12.24-19.05c2.39-3.72,1.31-8.67-2.41-11.05-3.41-2.19-7.86-1.46-10.41,1.56-.23.27-.45.55-.64.85l-22.94,35.71c2.55-3.01,7-3.75,10.41-1.56Z"/>
      <path class="i" d="m346.54,288.61c3.72,2.39,4.8,7.34,2.41,11.05l-12.24,19.05c.24-.28.46-.57.66-.88l22.92-35.68,12.24-19.06c2.39-3.72,1.31-8.67-2.41-11.05-3.41-2.19-7.86-1.46-10.41,1.56-.23.27-.45.55-.64.85l-22.94,35.71c2.55-3.01,7-3.75,10.41-1.56Z"/>
      <path class="i" d="m393.7,288.61c3.72,2.39,4.8,7.34,2.41,11.05l-12.24,19.05c.24-.28.46-.57.66-.88l22.92-35.68,12.24-19.05c2.39-3.72,1.31-8.67-2.41-11.05-3.41-2.19-7.86-1.46-10.41,1.56-.23.27-.44.55-.64.85l-22.94,35.71c2.55-3.01,7-3.75,10.41-1.56Z"/>
      <path class="i" d="m440.85,288.61c3.72,2.39,4.8,7.34,2.41,11.05l-12.24,19.05c.24-.28.46-.57.66-.88l22.92-35.68,12.24-19.06c2.39-3.72,1.31-8.67-2.41-11.05-3.41-2.19-7.86-1.46-10.41,1.56-.23.27-.45.55-.64.85l-22.94,35.71c2.55-3.01,7-3.75,10.42-1.56Z"/>
      <path class="i" d="m488,288.61c3.72,2.39,4.8,7.34,2.41,11.05l-12.24,19.05c.24-.28.46-.57.66-.88l22.92-35.68,12.24-19.05c2.39-3.72,1.31-8.67-2.41-11.05-3.41-2.19-7.86-1.46-10.42,1.56-.23.27-.44.55-.64.85l-22.94,35.71c2.55-3.01,7-3.75,10.41-1.56Z"/>
      <path class="i" d="m535.16,288.61c3.72,2.39,4.8,7.34,2.41,11.05l-12.24,19.05c.24-.28.46-.57.66-.88l22.92-35.68,12.24-19.05c2.39-3.72,1.31-8.67-2.41-11.05-3.41-2.19-7.86-1.46-10.42,1.56-.23.27-.44.55-.64.85l-22.94,35.71c2.55-3.01,7-3.75,10.41-1.56Z"/>
      <path class="i" d="m582.31,288.61c3.72,2.39,4.8,7.34,2.41,11.05l-12.24,19.06c.24-.28.46-.57.66-.88l22.92-35.69,12.24-19.05c2.39-3.72,1.31-8.67-2.41-11.05-3.41-2.19-7.86-1.46-10.42,1.56-.23.27-.44.55-.64.85l-22.94,35.71c2.55-3.01,7-3.75,10.41-1.55Z"/>
      <path class="i" d="m629.46,288.61c3.72,2.39,4.8,7.34,2.41,11.05l-12.24,19.06c.24-.28.46-.57.66-.88l22.92-35.68,12.24-19.05c2.39-3.72,1.31-8.67-2.41-11.05-3.41-2.19-7.86-1.46-10.41,1.56-.23.27-.45.55-.64.85l-22.93,35.71c2.55-3.01,7-3.75,10.41-1.56Z"/>
      <path class="i" d="m676.62,288.61c3.72,2.39,4.8,7.34,2.41,11.05l-12.24,19.05c.24-.28.46-.57.66-.88l22.92-35.68,5.89-9.17c-3.76-4.08-7.55-8.04-11.38-11.89l-18.67,29.07c2.55-3.01,7-3.75,10.42-1.56Z"/>
      <path class="i" d="m714.6,317.84l8.37-13.03s-.03-.04-.05-.07l-8.98,13.98c.24-.28.46-.57.66-.88Z"/>
      <path class="i" d="m254.65,299.67c2.39-3.72,1.31-8.67-2.41-11.05-3.41-2.19-7.86-1.46-10.41,1.55-.23.27-.45.55-.64.85l-9.3,14.48c2.45,6.11,4.92,12.14,7.41,18.07l3.11-4.85,12.24-19.06Z"/>
      <path class="i" d="m275.81,325.18c3.72,2.39,4.8,7.34,2.41,11.05l-12.24,19.05c.24-.28.46-.57.66-.88l22.92-35.68,12.24-19.05c2.39-3.72,1.31-8.67-2.41-11.05-3.41-2.19-7.86-1.46-10.41,1.56-.23.27-.45.55-.64.85l-22.94,35.71c2.55-3.01,7-3.75,10.41-1.56Z"/>
      <path class="i" d="m322.97,325.18c3.72,2.39,4.8,7.34,2.41,11.05l-12.24,19.05c.24-.28.46-.57.66-.88l22.92-35.68,12.24-19.05c2.39-3.72,1.31-8.67-2.41-11.05-3.41-2.19-7.86-1.46-10.41,1.56-.23.27-.44.55-.64.85l-22.94,35.71c2.55-3.01,7-3.75,10.41-1.56Z"/>
      <path class="i" d="m370.12,325.18c3.72,2.39,4.8,7.34,2.41,11.05l-12.24,19.05c.24-.28.46-.57.66-.88l22.92-35.68,12.24-19.05c2.39-3.72,1.31-8.67-2.41-11.05-3.41-2.19-7.86-1.46-10.41,1.56-.23.27-.45.55-.64.85l-22.94,35.71c2.55-3.01,7-3.75,10.41-1.56Z"/>
      <path class="i" d="m417.27,325.18c3.72,2.39,4.8,7.34,2.41,11.05l-12.24,19.05c.24-.28.46-.57.66-.88l22.92-35.68,12.24-19.05c2.39-3.72,1.31-8.67-2.41-11.05-3.41-2.19-7.86-1.46-10.42,1.56-.23.27-.44.55-.64.85l-22.94,35.71c2.55-3.01,7-3.75,10.42-1.56Z"/>
      <path class="i" d="m464.43,325.18c3.72,2.39,4.8,7.34,2.41,11.05l-12.24,19.05c.24-.28.46-.57.66-.88l22.92-35.68,12.24-19.05c2.39-3.72,1.31-8.67-2.41-11.05-3.41-2.19-7.86-1.46-10.41,1.56-.23.27-.44.55-.64.85l-22.94,35.71c2.55-3.01,7-3.75,10.41-1.56Z"/>
      <path class="i" d="m511.58,325.18c3.72,2.39,4.8,7.34,2.41,11.05l-12.24,19.05c.24-.28.46-.57.66-.88l22.92-35.68,12.24-19.05c2.39-3.72,1.31-8.67-2.41-11.05-3.41-2.19-7.86-1.46-10.41,1.56-.23.27-.44.55-.64.85l-22.94,35.72c2.55-3.01,7-3.75,10.42-1.56Z"/>
      <path class="i" d="m558.73,325.18c3.72,2.39,4.8,7.34,2.41,11.05l-12.24,19.05c.24-.28.46-.57.66-.88l22.91-35.68,12.24-19.06c2.39-3.72,1.31-8.67-2.41-11.05-3.41-2.19-7.86-1.46-10.41,1.55-.23.27-.45.55-.64.85l-22.94,35.72c2.55-3.01,7-3.75,10.42-1.56Z"/>
      <path class="i" d="m605.89,325.18c3.72,2.39,4.8,7.34,2.41,11.05l-12.24,19.05c.24-.28.46-.57.66-.88l22.92-35.68,12.24-19.06c2.39-3.72,1.31-8.67-2.41-11.05-3.41-2.19-7.86-1.46-10.41,1.56-.23.27-.45.55-.64.85l-22.94,35.72c2.55-3.02,7-3.75,10.42-1.56Z"/>
      <path class="i" d="m653.04,325.18c3.72,2.39,4.8,7.34,2.41,11.05l-12.24,19.05c.24-.28.46-.57.66-.88l22.92-35.68,12.24-19.05c2.39-3.72,1.31-8.67-2.41-11.05-3.41-2.19-7.86-1.46-10.42,1.56-.23.27-.44.55-.64.85l-22.94,35.71c2.55-3.01,7-3.75,10.41-1.56Z"/>
      <path class="i" d="m700.19,325.18c3.72,2.39,4.8,7.34,2.41,11.05l-12.24,19.06c.24-.28.46-.57.66-.88l22.91-35.68,8.98-13.98c-3.33-4.36-6.84-8.77-10.52-13.23l-22.62,35.22c2.55-3.01,7-3.75,10.41-1.56Z"/>
      <path class="i" d="m738.02,325.68c-.07-.1-.14-.2-.21-.31l-.88,1.37c.33-.39.7-.75,1.09-1.06Z"/>
      <path class="i" d="m738.18,354.4l9.22-14.36s-.03-.05-.05-.07l-9.84,15.32c.24-.28.46-.57.66-.88Z"/>
      <path class="i" d="m278.22,336.23c2.39-3.72,1.31-8.67-2.41-11.05-3.41-2.19-7.86-1.46-10.41,1.56-.23.27-.44.55-.64.85l-14.16,22.05c2.66,5.97,5.3,11.76,7.88,17.34l7.51-11.69,12.24-19.05Z"/>
      <path class="i" d="m299.39,361.74c3.72,2.39,4.8,7.34,2.41,11.05l-12.24,19.05c.24-.28.46-.57.66-.88l22.92-35.68,12.24-19.05c2.39-3.72,1.31-8.67-2.41-11.05-3.41-2.19-7.86-1.46-10.41,1.56-.23.27-.44.55-.64.85l-22.94,35.71c2.55-3.01,7-3.75,10.41-1.56Z"/>
      <path class="i" d="m346.54,361.74c3.72,2.39,4.8,7.34,2.41,11.05l-12.24,19.05c.24-.28.46-.57.66-.88l22.92-35.68,12.24-19.05c2.39-3.72,1.31-8.67-2.41-11.05-3.41-2.19-7.86-1.46-10.41,1.56-.23.27-.45.55-.64.85l-22.94,35.71c2.55-3.01,7-3.75,10.41-1.56Z"/>
      <path class="i" d="m393.7,361.74c3.72,2.39,4.8,7.34,2.41,11.05l-12.24,19.05c.24-.28.46-.57.66-.88l22.92-35.68,12.24-19.05c2.39-3.72,1.31-8.67-2.41-11.05-3.41-2.19-7.86-1.46-10.42,1.56-.23.27-.44.55-.64.85l-22.94,35.71c2.55-3.01,7-3.75,10.41-1.56Z"/>
      <path class="i" d="m440.85,361.74c3.72,2.39,4.8,7.34,2.41,11.05l-12.24,19.05c.24-.28.46-.57.66-.88l22.92-35.68,12.24-19.05c2.39-3.72,1.31-8.67-2.41-11.05-3.41-2.19-7.86-1.46-10.41,1.56-.23.27-.45.55-.64.85l-22.94,35.71c2.55-3.01,7-3.75,10.41-1.56Z"/>
      <path class="i" d="m488,361.74c3.72,2.39,4.8,7.34,2.41,11.05l-12.24,19.05c.24-.28.46-.57.66-.88l22.92-35.68,12.24-19.05c2.39-3.72,1.31-8.67-2.41-11.05-3.41-2.19-7.86-1.46-10.42,1.56-.23.27-.44.55-.64.85l-22.94,35.71c2.55-3.01,7-3.75,10.42-1.56Z"/>
      <path class="i" d="m535.16,361.74c3.72,2.39,4.8,7.34,2.41,11.05l-12.24,19.05c.24-.28.46-.57.66-.88l22.92-35.68,12.24-19.05c2.39-3.72,1.31-8.67-2.41-11.05-3.42-2.19-7.86-1.46-10.42,1.56-.23.27-.44.55-.64.85l-22.94,35.71c2.55-3.01,7-3.75,10.41-1.56Z"/>
      <path class="i" d="m582.31,361.74c3.72,2.39,4.8,7.34,2.41,11.05l-12.24,19.05c.24-.28.46-.57.66-.88l22.92-35.68,12.24-19.05c2.39-3.72,1.31-8.67-2.41-11.05-3.42-2.19-7.86-1.46-10.42,1.56-.23.27-.44.55-.64.85l-22.94,35.71c2.55-3.01,7-3.75,10.41-1.56Z"/>
      <path class="i" d="m629.46,361.74c3.72,2.39,4.8,7.34,2.41,11.05l-12.24,19.05c.24-.28.46-.57.66-.88l22.92-35.68,12.24-19.05c2.39-3.72,1.31-8.67-2.41-11.05-3.41-2.19-7.86-1.46-10.41,1.56-.23.27-.45.55-.64.85l-22.93,35.71c2.55-3.01,7-3.75,10.41-1.56Z"/>
      <path class="i" d="m702.6,336.23c2.39-3.72,1.31-8.67-2.41-11.05-3.41-2.19-7.86-1.46-10.41,1.56-.23.27-.45.55-.64.85l-22.94,35.71c2.55-3.01,7-3.75,10.42-1.56,3.72,2.39,4.8,7.34,2.41,11.05l-8.09,12.6h.1s19.33-30.11,19.33-30.11l12.24-19.06Z"/>
      <path class="i" d="m736.93,326.74c-.23.27-.44.55-.64.85l-22.94,35.71c2.55-3.01,7-3.75,10.41-1.56,3.72,2.39,4.8,7.34,2.41,11.05l-3.23,5.04.1-.02,14.47-22.53,9.84-15.32c-2.89-4.61-6.01-9.39-9.34-14.29-.39.31-.75.67-1.09,1.06Z"/>
      <path class="i" d="m760.84,362.92s-.03-.05-.04-.08l-.29.45c.11-.13.22-.26.33-.38Z"/>
      <path class="i" d="m301.8,372.8c2.39-3.72,1.31-8.67-2.41-11.05-3.41-2.19-7.86-1.46-10.41,1.56-.23.27-.45.55-.64.85l-17.95,27.94c.84,1.72,1.66,3.41,2.47,5.06,1.02.18,2.03.56,2.95,1.15,3.51,2.25,4.66,6.78,2.78,10.41.02.04.04.08.06.12l10.91-16.99,12.24-19.05Z"/>
      <path class="i" d="m322.97,398.31c3.72,2.39,4.8,7.34,2.41,11.05l-12.24,19.05c.24-.28.46-.57.66-.88l22.92-35.68,12.24-19.05c2.39-3.72,1.31-8.67-2.41-11.05-3.41-2.19-7.86-1.46-10.41,1.56-.23.27-.45.55-.64.85l-22.94,35.71c2.55-3.01,7-3.75,10.41-1.56Z"/>
      <path class="i" d="m370.12,398.31c3.72,2.39,4.8,7.34,2.41,11.05l-12.24,19.05c.24-.28.46-.57.66-.88l22.92-35.68,12.24-19.05c2.39-3.72,1.31-8.67-2.41-11.05-3.41-2.19-7.86-1.45-10.41,1.56-.23.27-.44.55-.64.85l-22.94,35.71c2.55-3.01,7-3.75,10.41-1.56Z"/>
      <path class="i" d="m443.26,372.8c2.39-3.72,1.31-8.67-2.41-11.05-3.41-2.19-7.86-1.46-10.41,1.56-.23.27-.45.55-.64.85l-22.94,35.71c2.55-3.01,7-3.75,10.41-1.56,3.72,2.39,4.8,7.34,2.41,11.05l-8.91,13.88h.1s20.15-31.39,20.15-31.39l12.24-19.05Z"/>
      <path class="i" d="m490.41,372.8c2.39-3.72,1.31-8.67-2.41-11.05-3.41-2.19-7.86-1.45-10.42,1.56-.23.27-.44.55-.64.85l-22.94,35.71c2.55-3.01,7-3.75,10.41-1.56,3.72,2.39,4.8,7.34,2.41,11.05l-4.05,6.31.1-.02,15.29-23.81,12.24-19.05Z"/>
      <path class="i" d="m537.57,372.8c2.39-3.72,1.31-8.67-2.41-11.05-3.41-2.19-7.86-1.46-10.41,1.56-.23.27-.45.55-.64.85l-22.94,35.71c2.55-3.01,7-3.75,10.42-1.56,3.32,2.13,4.53,6.31,3.05,9.83l.27-.04,10.43-16.24,12.24-19.05Z"/>
      <path class="i" d="m584.72,372.8c2.39-3.72,1.31-8.67-2.41-11.05-3.41-2.19-7.86-1.46-10.41,1.56-.23.27-.45.55-.64.85l-25.32,39.43,20.98-3.05,5.57-8.68,12.24-19.05Z"/>
      <path class="i" d="m631.87,372.8c2.39-3.72,1.31-8.67-2.41-11.05-3.41-2.19-7.86-1.46-10.41,1.56-.23.27-.45.55-.64.85l-20.46,31.86,20.98-3.05.71-1.11,12.24-19.05Z"/>
      <path class="i" d="m676.62,361.74c-3.41-2.19-7.86-1.46-10.42,1.56-.23.27-.44.55-.64.85l-15.61,24.3,20.98-3.05,8.09-12.6c2.39-3.72,1.31-8.67-2.41-11.05Z"/>
      <path class="i" d="m723.77,361.74c-3.41-2.19-7.86-1.46-10.41,1.56-.23.27-.45.55-.64.85l-10.75,16.73,20.98-3.05,3.23-5.04c2.39-3.72,1.31-8.67-2.41-11.05Z"/>
      <path class="i" d="m759.87,364.15l-5.89,9.17,11.54-1.68c-1.44-2.76-3-5.68-4.68-8.72-.12.12-.22.25-.33.38-.23.27-.45.55-.64.85Z"/>
      <path class="i" d="m275.81,398.31c-.93-.6-1.93-.98-2.95-1.15,2,4.08,3.92,7.94,5.73,11.56,1.88-3.63.73-8.16-2.78-10.41Z"/>
      <path class="i" d="m325.38,409.36c2.39-3.72,1.31-8.67-2.41-11.05-3.41-2.19-7.86-1.46-10.41,1.56-.23.27-.45.55-.64.85l-20.8,32.38c.22.42.44.83.65,1.23,2.39-1.08,5.26-.97,7.62.55,1.57,1.01,2.66,2.47,3.22,4.1l4.13-.6,6.39-9.96,12.24-19.05Z"/>
      <path class="i" d="m372.53,409.36c2.39-3.72,1.31-8.67-2.41-11.05-3.41-2.19-7.86-1.45-10.41,1.56-.23.27-.45.55-.64.85l-21.28,33.14,20.98-3.05,1.54-2.39,12.24-19.05Z"/>
      <path class="i" d="m417.27,398.31c-3.41-2.19-7.86-1.46-10.41,1.56-.23.27-.44.55-.64.85l-16.43,25.58,20.98-3.05,8.91-13.88c2.39-3.72,1.31-8.67-2.41-11.05Z"/>
      <path class="i" d="m464.43,398.31c-3.41-2.19-7.86-1.45-10.41,1.56-.23.27-.44.55-.64.85l-11.57,18.01,20.98-3.05,4.05-6.31c2.39-3.72,1.31-8.67-2.41-11.05Z"/>
      <path class="i" d="m511.58,398.31c-3.41-2.19-7.86-1.46-10.42,1.56-.23.27-.44.55-.64.85l-6.71,10.45,20.81-3.03c1.48-3.52.27-7.69-3.05-9.83Z"/>
      <path class="i" d="m299.39,434.87c-2.37-1.52-5.24-1.63-7.62-.55,1.32,2.49,2.36,4.44,3.09,5.78l7.76-1.13c-.57-1.63-1.66-3.09-3.22-4.1Z"/>
    </g>
  </g>
  <g id="c" data-name="foot">
    <path class="w" d="m62.35,421.61c.11-2.01,4.14-68.46,5.45-74.04s7.84-5.8,7.84-5.8c0,0,18.38,8.4,32.01-4.13,13.63-12.53,42.59-46.2,42.59-46.2,0,0,57.56-77.87,56.04-78.31s14.51-16.08,16.09-42.76,14.54-29.64,14.54-29.64c0,0,10.52-.87,16.11,15.51,5.6,16.38,8.39,38.89,8.39,38.89,0,0-.43,16.59-11.56,43.1-11.13,26.51-15.32,50.27-15.32,50.27,0,0-16.15,69.89.34,110.51,16.49,40.62-8.63,55.06-8.63,55.06,0,0-23.38,20.91-54.1,4.4-30.72-16.51-46.97-21.47-46.97-21.47,0,0-21.79-5.27-34.26-2.82-12.47,2.44-22.04,1.77-22.04,1.77,0,0-7.34.08-6.53-14.34Z"/>
  </g>
  <g id="d" data-name="warning symbol">
    <path class="o" d="m885.23,199.36c-.66,3.69-2.58,7.03-5.42,9.47-2.89,2.58-6.64,3.97-10.51,3.9h-162.61c-3.87.07-7.62-1.32-10.51-3.9-2.85-2.43-4.76-5.78-5.42-9.47-.68-3.75-.08-7.63,1.69-11.01l81.31-140.93c1.85-3.43,4.95-6.01,8.65-7.23,3.63-1.23,7.55-1.23,11.18,0,3.69,1.22,6.78,3.81,8.62,7.23l81.3,140.93c1.78,3.38,2.38,7.25,1.71,11.01Zm-108.24-35.58c-6.05,6.08-6.03,15.92.05,21.97,6.08,6.05,15.92,6.03,21.97-.05,6.05-6.08,6.03-15.92-.05-21.97-2.91-2.9-6.86-4.53-10.97-4.52-4.14-.07-8.13,1.59-11.01,4.57Zm-1.2-14.46c.04.98.47,1.9,1.2,2.55.74.78,1.79,1.21,2.87,1.18h16.26c1.09.02,2.13-.4,2.89-1.18.73-.65,1.16-1.58,1.18-2.55l2.7-46.06c.07-1.2-.36-2.38-1.18-3.25-.75-.77-1.79-1.2-2.87-1.18h-21.68c-1.09-.02-2.13.4-2.89,1.18-.82.87-1.25,2.03-1.18,3.23l2.7,46.09Z"/>
  </g>
  <g id="e" data-name="pedal_base">
    <g>
      <g>
        <path class="j" d="m262.21,460.75c0-.09,0-.19,0-.28l589.49.02v23.07c0,.3-.23.54-.53.56l-6.52.34h0l-1.4-.07v.07H270.68v-.07l-1.4.07h-.01l-5.49-.29-1.1-.06c-.26-.01-.47-.23-.47-.49v-22.87Z"/>
        <path class="p" d="m851.71,373.68v86.81l-589.49-.02c.03-3.14.55-6.25,1.56-9.22.29-.87.62-1.71.99-2.55l26.27-59,4.18-9.37,2.05-4.6.25-.57c.23-.52.65-.95,1.17-1.19l8.93-4.17,5.78,1.84h524.21v-.88c0-.3.23-.55.53-.57l6.52-.39,7.05,3.88Zm-543.66,64.24c0-7.79-6.32-14.1-14.1-14.1s-14.11,6.31-14.11,14.1,6.32,14.1,14.11,14.1,14.1-6.31,14.1-14.1Z"/>
        <path class="q" d="m293.95,423.82c7.78,0,14.1,6.31,14.1,14.1s-6.32,14.1-14.1,14.1-14.11-6.31-14.11-14.1,6.32-14.1,14.11-14.1Z"/>
      </g>
      <g>
        <path class="t" d="m308.05,437.92c0-7.79-6.32-14.1-14.1-14.1s-14.11,6.31-14.11,14.1,6.32,14.1,14.11,14.1,14.1-6.31,14.1-14.1Z"/>
        <polyline class="t" points="837.61 371.64 744.64 371.64 313.4 371.64"/>
        <path class="t" d="m744.64,371.64s-.02-.06-.02-.08"/>
        <line class="t" x1="844.66" y1="484.46" x2="844.65" y2="484.46"/>
        <polyline class="t" points="841.62 484.3 843.25 484.39 844.65 484.46"/>
        <path class="t" d="m837.61,370.76c0-.3.23-.55.53-.57"/>
        <line class="t" x1="844.66" y1="484.46" x2="851.18" y2="484.12"/>
        <path class="t" d="m851.71,483.56c0,.3-.23.54-.53.56"/>
        <line class="t" x1="843.25" y1="484.39" x2="843.25" y2="484.46"/>
        <line class="t" x1="270.68" y1="484.46" x2="270.68" y2="484.39"/>
        <line class="t" x1="270.68" y1="484.46" x2="843.25" y2="484.46"/>
        <path class="t" d="m262.22,460.47c0,.09,0,.19,0,.28"/>
        <path class="t" d="m263.78,451.25c-1.01,2.97-1.53,6.08-1.56,9.22"/>
        <path class="t" d="m264.77,448.7c-.37.84-.7,1.68-.99,2.55"/>
        <line class="t" x1="263.78" y1="484.17" x2="269.27" y2="484.46"/>
        <line class="t" x1="263.78" y1="484.17" x2="262.68" y2="484.11"/>
        <line class="t" x1="298.69" y1="373.97" x2="307.62" y2="369.8"/>
        <path class="t" d="m298.69,373.97c-.52.24-.94.67-1.17,1.19"/>
        <line class="t" x1="297.52" y1="375.16" x2="297.27" y2="375.73"/>
        <line class="t" x1="313.4" y1="371.64" x2="307.62" y2="369.8"/>
        <line class="t" x1="269.28" y1="484.46" x2="269.27" y2="484.46"/>
        <path class="t" d="m262.68,484.11c-.26-.01-.47-.23-.47-.49"/>
        <polyline class="t" points="269.28 484.46 270.68 484.39 271.64 484.34"/>
        <line class="t" x1="297.27" y1="375.73" x2="295.22" y2="380.33"/>
        <line class="t" x1="291.04" y1="389.7" x2="264.77" y2="448.7"/>
        <line class="t" x1="295.22" y1="380.33" x2="291.04" y2="389.7"/>
        <line class="t" x1="851.71" y1="460.49" x2="851.71" y2="483.56"/>
        <polyline class="t" points="262.21 460.75 262.21 461.28 262.21 483.62"/>
        <line class="t" x1="851.71" y1="460.49" x2="262.22" y2="460.47"/>
        <line class="t" x1="851.71" y1="373.68" x2="851.71" y2="460.49"/>
        <line class="t" x1="851.71" y1="373.68" x2="844.66" y2="369.8"/>
        <line class="t" x1="844.66" y1="369.8" x2="838.14" y2="370.19"/>
      </g>
    </g>
  </g>
  <g id="f" data-name="pedal_down_back">
    <g class="r">
      <g>
        <path class="l" d="m744.01,368.68l.61,2.88-36.79.08-2.14-8.2-4.6-17.64c-.02-.07-.05-.15-.06-.22l-.19-.7c-.02-.08-.03-.15-.05-.23l-.73-2.78c-.28-1.08-.12-2.22.43-3.19l1.44-2.49.03-.06.47-.82c.04-.05.07-.1.1-.15l2.14-3.72c.76-1.31,2.15-2.11,3.67-2.11h13.52c.95,0,1.86.31,2.61.9l11.25,8.8,1.16.9c.2.16.39.33.56.52.06.07.12.14.18.22.17.21.31.44.43.67.08.16.15.33.21.5s.11.34.15.52v.02s3.29,15.42,3.29,15.42l2.3,10.87s.01.01.01.01Zm-21.9-26.66c0-4.91-3.98-8.88-8.89-8.88s-8.88,3.97-8.88,8.88,3.97,8.89,8.88,8.89,8.89-3.98,8.89-8.89Z"/>
        <path class="l" d="m735.73,339.02h-.01s-11.25-8.79-11.25-8.79c-.75-.59-1.66-.9-2.61-.9h-8.04c-.4-.02-.8-.02-1.2,0h-4.28c-1.52,0-2.91.8-3.67,2.11l-2.14,3.72c-.03.05-.06.1-.1.15-.17.26-.32.54-.47.82l-.03.06-1.44,2.49c-.55.97-.71,2.11-.43,3.19l.73,2.78c.02.08.03.15.05.23.05.24.11.47.19.7.01.07.04.15.06.22l4.6,17.64c-2.02-.71-3.94-1.71-5.69-2.96l-.36.44-2.15,2.91c-.3.41-.79.62-1.29.57l-62.5-7.03c-.12-.01-.24-.06-.34-.13l-1.66-1.23c-.1-.07-.18-.17-.23-.28l-1-2.28.3-.25s-.01-.08-.05-.21l-.14-.39-.92-2.5c-.05-.14-.12-.33-.21-.52l-2.58-5.91-2.55-5.84c-.59-1.36-.92-2.82-.96-4.3-.01-1.07.11-2.14.36-3.18.37-1.44,1.01-2.79,1.89-3.98l3.78-5.12,3.83-5.19c.13-.18.24-.34.32-.47l1.44-2.23.23-.35c.06-.11.1-.18.1-.2l-.23-.3,5.82-7.9c.08-.1.17-.18.29-.23l1.89-.82c.11-.05.24-.07.36-.06l65.87,7.41c.5.05.93.37,1.13.83l.77,1.76c.02.06.04.12.03.19l1.81,5.46,2.71.31c10.36,1.16,18.59,9.23,19.97,19.56Z"/>
        <path class="l" d="m713.22,333.14c4.91,0,8.89,3.97,8.89,8.88s-3.98,8.89-8.89,8.89-8.88-3.98-8.88-8.89,3.97-8.88,8.88-8.88Zm4.89,8.88l-1.22-2.11-1.23-2.12h-4.88l-1.22,2.12-1.22,2.11,1.22,2.12,1.22,2.11h4.88l1.23-2.11,1.22-2.12Z"/>
        <polygon class="l" points="716.89 339.91 718.11 342.02 716.89 344.14 715.66 346.25 713.22 346.25 710.78 346.25 709.56 344.14 708.34 342.02 709.56 339.91 710.78 337.79 713.22 337.79 715.66 337.79 716.89 339.91"/>
        <path class="l" d="m629.39,321.25l-3.78,5.12c-.88,1.19-1.52,2.54-1.89,3.98-.25,1.04-.37,2.11-.36,3.18.04,1.48.37,2.94.96,4.3l2.55,5.84,2.58,5.91c.09.19.16.38.21.52l.92,2.5h0l-216.07-24.29-1.58-.18c-1.96-.22-3.94-.16-5.89.17-.85.14-1.69.34-2.5.58-.97.29-1.95.51-2.95.67l.28-.3,9.47-10.2c2.12-2.29,3.62-5.07,4.37-8.1l5.32-21.64,213.96,24.05-1.44,2.23c-.08.13-.19.29-.32.47l-3.83,5.19Z"/>
        <path class="l" d="m420.32,208.46c1.31-.71,2.92-.68,4.23.13l5.46,3.39c5.19,3.22,7.72,9.42,6.26,15.35l-15.25,61.98-5.32,21.64c-.75,3.03-2.25,5.81-4.37,8.1l-9.47,10.2-.28.3-.18.2-5.79,6.23s-.07.08-.11.12c-.03.04-.07.08-.11.12l-31.68,34.13-.2.21-8.64,9.3-.37.41-.28.29c-1.23,1.33-2.33,2.78-3.29,4.32l-39.61,63.82c-5.95,9.6-18.56,12.55-28.16,6.6-1.63-1.01-3.07-2.22-4.3-3.57-6.04-6.59-7.23-16.63-2.29-24.59l41.69-67.19c.43-.67.87-1.33,1.35-1.97.05-.06.09-.13.14-.19.49-.65,1.01-1.28,1.56-1.88.08-.09.16-.18.25-.27l6.74-7.27s.08-.08.11-.12c.04-.04.08-.08.11-.12l31.69-34.13.29-.31,5.95-6.42.38-.4,7.57-8.15c1.95-2.11,3.34-4.68,4.03-7.47l8.14-33.11.22-.78-1.11-.69-1.2-.74-1.19-.75-5.4-3.34,31.23-50.33h.01l5.39,3.35,1.2.74,1.2.74,3.4,2.12Zm-9.73,98.11c0-7.01-5.69-12.69-12.7-12.69s-12.69,5.68-12.69,12.69,5.68,12.7,12.69,12.7,12.7-5.69,12.7-12.7Zm-102.54,131.35c0-7.79-6.32-14.1-14.1-14.1s-14.11,6.31-14.11,14.1,6.32,14.1,14.11,14.1,14.1-6.31,14.1-14.1Z"/>
        <polygon class="l" points="433.21 160.02 433.67 161.97 431.71 165.12 422.68 179.67 417.94 187.3 409.12 201.51 377.89 251.84 369.07 266.05 364.34 273.67 355.31 288.22 353.35 291.38 351.41 291.84 341.82 285.89 340.46 280.06 341.98 277.6 351.01 263.05 354.7 257.12 403.57 178.38 407.25 172.45 416.28 157.9 417.8 155.44 423.63 154.07 433.21 160.02"/>
        <path class="l" d="m397.89,293.88c7.01,0,12.7,5.68,12.7,12.69s-5.69,12.7-12.7,12.7-12.69-5.69-12.69-12.7,5.68-12.69,12.69-12.69Z"/>
        <path class="l" d="m293.95,423.82c7.78,0,14.1,6.31,14.1,14.1s-6.32,14.1-14.1,14.1-14.11-6.31-14.11-14.1,6.32-14.1,14.11-14.1Z"/>
      </g>
      <g>
        <polyline class="u" points="369.07 266.05 377.89 251.84 409.12 201.51 417.94 187.3"/>
        <line class="u" x1="369.07" y1="266.05" x2="364.34" y2="273.67"/>
        <line class="u" x1="355.31" y1="288.22" x2="364.34" y2="273.67"/>
        <line class="u" x1="355.31" y1="288.22" x2="353.35" y2="291.38"/>
        <line class="u" x1="433.67" y1="161.97" x2="431.71" y2="165.12"/>
        <line class="u" x1="422.68" y1="179.67" x2="431.71" y2="165.12"/>
        <line class="u" x1="422.68" y1="179.67" x2="417.94" y2="187.3"/>
        <line class="u" x1="433.67" y1="161.97" x2="433.21" y2="160.02"/>
        <line class="u" x1="353.35" y1="291.38" x2="351.41" y2="291.84"/>
        <line class="u" x1="341.82" y1="285.89" x2="351.41" y2="291.84"/>
        <line class="u" x1="403.57" y1="178.38" x2="354.7" y2="257.12"/>
        <line class="u" x1="403.57" y1="178.38" x2="407.25" y2="172.45"/>
        <line class="u" x1="416.28" y1="157.9" x2="407.25" y2="172.45"/>
        <line class="u" x1="423.63" y1="154.07" x2="417.8" y2="155.44"/>
        <line class="u" x1="416.28" y1="157.9" x2="417.8" y2="155.44"/>
        <line class="u" x1="341.82" y1="285.89" x2="340.46" y2="280.06"/>
        <line class="u" x1="340.46" y1="280.06" x2="341.98" y2="277.6"/>
        <line class="u" x1="351.01" y1="263.05" x2="341.98" y2="277.6"/>
        <line class="u" x1="351.01" y1="263.05" x2="354.7" y2="257.12"/>
        <line class="u" x1="433.21" y1="160.02" x2="423.63" y2="154.07"/>
        <line class="u" x1="385.68" y1="256.67" x2="386.79" y2="257.36"/>
        <line class="u" x1="384.48" y1="255.93" x2="385.68" y2="256.67"/>
        <line class="u" x1="384.48" y1="255.93" x2="383.29" y2="255.18"/>
        <line class="u" x1="377.89" y1="251.84" x2="383.29" y2="255.18"/>
        <line class="u" x1="416.92" y1="206.34" x2="415.72" y2="205.6"/>
        <line class="u" x1="414.52" y1="204.86" x2="415.72" y2="205.6"/>
        <line class="u" x1="414.52" y1="204.86" x2="409.13" y2="201.51"/>
        <line class="u" x1="420.32" y1="208.46" x2="416.92" y2="206.34"/>
        <line class="u" x1="371.11" y1="230.43" x2="371.1" y2="230.42"/>
        <line class="u" x1="371.11" y1="230.43" x2="371.07" y2="230.5"/>
        <line class="u" x1="371.06" y1="230.49" x2="371.1" y2="230.42"/>
        <line class="u" x1="374.77" y1="224.54" x2="374.75" y2="224.56"/>
        <line class="u" x1="374.74" y1="224.55" x2="374.76" y2="224.53"/>
        <line class="u" x1="374.75" y1="224.56" x2="374.74" y2="224.55"/>
        <line class="u" x1="392.07" y1="196.65" x2="392.06" y2="196.65"/>
        <line class="u" x1="392.07" y1="196.65" x2="388.11" y2="203.03"/>
        <line class="u" x1="388.1" y1="203.02" x2="392.06" y2="196.65"/>
        <line class="u" x1="388.11" y1="203.03" x2="388.1" y2="203.02"/>
        <line class="u" x1="388.11" y1="203.03" x2="378.99" y2="217.74"/>
        <line class="u" x1="378.98" y1="217.73" x2="388.1" y2="203.02"/>
        <line class="u" x1="378.99" y1="217.74" x2="378.98" y2="217.73"/>
        <line class="u" x1="378.99" y1="217.74" x2="374.77" y2="224.54"/>
        <line class="u" x1="374.76" y1="224.53" x2="378.98" y2="217.73"/>
        <line class="u" x1="374.77" y1="224.54" x2="374.76" y2="224.53"/>
        <line class="u" x1="370.55" y1="231.34" x2="369.74" y2="232.65"/>
        <line class="u" x1="369.72" y1="232.64" x2="370.54" y2="231.33"/>
        <line class="u" x1="369.74" y1="232.65" x2="369.72" y2="232.64"/>
        <line class="u" x1="369.74" y1="232.65" x2="369.24" y2="233.44"/>
        <line class="u" x1="369.23" y1="233.44" x2="369.72" y2="232.64"/>
        <line class="u" x1="369.24" y1="233.44" x2="369.23" y2="233.44"/>
        <line class="u" x1="369.24" y1="233.44" x2="368.36" y2="234.86"/>
        <line class="u" x1="368.35" y1="234.85" x2="369.23" y2="233.44"/>
        <line class="u" x1="368.36" y1="234.86" x2="368.35" y2="234.85"/>
        <line class="u" x1="368.36" y1="234.86" x2="367.84" y2="235.7"/>
        <line class="u" x1="367.83" y1="235.69" x2="368.35" y2="234.85"/>
        <line class="u" x1="367.84" y1="235.7" x2="367.83" y2="235.69"/>
        <line class="u" x1="371.07" y1="230.5" x2="371.06" y2="230.49"/>
        <line class="u" x1="371.07" y1="230.5" x2="370.55" y2="231.34"/>
        <line class="u" x1="370.54" y1="231.33" x2="371.06" y2="230.49"/>
        <line class="u" x1="370.55" y1="231.34" x2="370.54" y2="231.33"/>
        <path class="u" d="m629.27,321.23s.08,0,.12.02"/>
        <path class="u" d="m626.87,343.67s-.08-.01-.12-.02"/>
        <line class="u" x1="421.02" y1="289.31" x2="634.98" y2="313.36"/>
        <path class="u" d="m412.92,328.13c-1.96-.22-3.94-.16-5.89.17"/>
        <line class="u" x1="414.5" y1="328.31" x2="412.92" y2="328.13"/>
        <line class="u" x1="630.57" y1="352.6" x2="414.5" y2="328.31"/>
        <path class="u" d="m404.53,328.88c-.97.29-1.95.51-2.95.67"/>
        <path class="u" d="m404.53,328.88c.81-.24,1.65-.44,2.5-.58"/>
        <path class="u" d="m308.05,437.92c0-7.79-6.32-14.1-14.1-14.1s-14.11,6.31-14.11,14.1,6.32,14.1,14.11,14.1,14.1-6.31,14.1-14.1Z"/>
        <path class="u" d="m319.61,357.98c-.48.64-.92,1.3-1.35,1.97"/>
        <path class="u" d="m319.75,357.79c-.05.06-.09.13-.14.19"/>
        <path class="u" d="m321.31,355.91c-.55.6-1.07,1.23-1.56,1.88"/>
        <path class="u" d="m321.56,355.64c-.09.09-.17.18-.25.27"/>
        <line class="u" x1="318.26" y1="359.95" x2="276.57" y2="427.14"/>
        <path class="u" d="m276.57,427.14c-4.94,7.96-3.75,18,2.29,24.59,1.23,1.35,2.67,2.56,4.3,3.57,9.6,5.95,22.21,3,28.16-6.6"/>
        <line class="u" x1="311.32" y1="448.7" x2="350.93" y2="384.88"/>
        <path class="u" d="m350.93,384.88c.96-1.54,2.06-2.99,3.29-4.32"/>
        <line class="u" x1="401.86" y1="329.25" x2="411.33" y2="319.05"/>
        <polyline class="u" points="401.4 329.75 401.58 329.55 401.86 329.25"/>
        <line class="u" x1="395.61" y1="335.98" x2="401.4" y2="329.75"/>
        <path class="u" d="m395.39,336.22s.08-.08.11-.12c.04-.04.08-.08.11-.12"/>
        <line class="u" x1="363.71" y1="370.35" x2="395.39" y2="336.22"/>
        <line class="u" x1="363.51" y1="370.56" x2="363.71" y2="370.35"/>
        <line class="u" x1="354.87" y1="379.86" x2="363.51" y2="370.56"/>
        <line class="u" x1="354.5" y1="380.27" x2="354.87" y2="379.86"/>
        <line class="u" x1="354.22" y1="380.56" x2="354.5" y2="380.27"/>
        <line class="u" x1="374.4" y1="298.72" x2="366.83" y2="306.87"/>
        <path class="u" d="m378.43,291.25c-.69,2.79-2.08,5.36-4.03,7.47"/>
        <line class="u" x1="386.57" y1="258.14" x2="378.43" y2="291.25"/>
        <path class="u" d="m424.55,208.59c-1.31-.81-2.92-.84-4.23-.13-.26.13-.5.3-.73.49"/>
        <path class="u" d="m436.27,227.33c1.46-5.93-1.07-12.13-6.26-15.35"/>
        <polyline class="u" points="415.7 310.95 421.02 289.31 436.27 227.33"/>
        <path class="u" d="m411.33,319.05c2.12-2.29,3.62-5.07,4.37-8.1"/>
        <line class="u" x1="430.01" y1="211.98" x2="424.55" y2="208.59"/>
        <line class="u" x1="328.3" y1="348.37" x2="321.56" y2="355.64"/>
        <line class="u" x1="360.21" y1="314" x2="328.52" y2="348.13"/>
        <path class="u" d="m328.52,348.13s-.07.08-.11.12c-.03.04-.07.08-.11.12"/>
        <line class="u" x1="366.45" y1="307.27" x2="360.5" y2="313.69"/>
        <line class="u" x1="360.5" y1="313.69" x2="360.21" y2="314"/>
        <line class="u" x1="366.83" y1="306.87" x2="366.45" y2="307.27"/>
        <path class="u" d="m715.76,319.46c10.36,1.16,18.59,9.23,19.97,19.56"/>
        <path class="u" d="m705.69,363.44c-2.02-.71-3.94-1.71-5.69-2.96"/>
        <line class="u" x1="713.05" y1="319.15" x2="715.76" y2="319.46"/>
        <path class="u" d="m722.11,342.02c0-4.91-3.98-8.88-8.89-8.88s-8.88,3.97-8.88,8.88,3.97,8.89,8.88,8.89,8.89-3.98,8.89-8.89Z"/>
        <path class="u" d="m744.64,371.64s-.02-.06-.02-.08"/>
        <polyline class="u" points="744.62 371.56 744.01 368.68 744.01 368.67 744 368.67 741.7 357.8"/>
        <path class="u" d="m737.62,340.67c-.06-.08-.12-.15-.18-.22-.17-.19-.36-.36-.56-.52"/>
        <path class="u" d="m738.41,342.36c-.03-.18-.08-.35-.15-.52-.06-.17-.13-.34-.21-.5"/>
        <polyline class="u" points="736.88 339.93 735.72 339.03 724.47 330.23"/>
        <path class="u" d="m724.47,330.23c-.75-.59-1.66-.9-2.61-.9"/>
        <polyline class="u" points="721.86 329.33 713.82 329.33 712.62 329.33 708.34 329.33"/>
        <path class="u" d="m708.34,329.33c-1.52,0-2.91.8-3.67,2.11"/>
        <line class="u" x1="701.93" y1="336.19" x2="700.49" y2="338.68"/>
        <line class="u" x1="702.43" y1="335.31" x2="701.96" y2="336.13"/>
        <line class="u" x1="704.67" y1="331.44" x2="702.53" y2="335.16"/>
        <path class="u" d="m700.49,338.68c-.55.97-.71,2.11-.43,3.19"/>
        <polyline class="u" points="701.09 345.8 705.69 363.44 707.83 371.64"/>
        <line class="u" x1="700.84" y1="344.88" x2="701.03" y2="345.58"/>
        <line class="u" x1="700.06" y1="341.87" x2="700.79" y2="344.65"/>
        <path class="u" d="m713.82,329.33c-.4-.02-.8-.02-1.2,0"/>
        <path class="u" d="m702.53,335.16c-.03.05-.06.1-.1.15-.17.26-.32.54-.47.82l-.03.06"/>
        <path class="u" d="m700.79,344.65c.02.08.03.15.05.23.05.24.11.47.19.7.01.07.04.15.06.22"/>
        <path class="u" d="m385.2,306.57c0-7.01,5.68-12.69,12.69-12.69s12.7,5.68,12.7,12.69-5.69,12.7-12.7,12.7-12.69-5.69-12.69-12.7Z"/>
        <line class="u" x1="737.44" y1="340.45" x2="737.45" y2="340.45"/>
        <path class="u" d="m737.45,340.45c.06.07.12.14.17.22.17.21.31.44.43.67.08.16.15.33.21.5s.11.34.15.52"/>
        <path class="u" d="m744,368.67s.01.01.01.01"/>
        <polyline class="u" points="738.41 342.36 738.42 342.38 741.7 357.8 744.01 368.67"/>
        <path class="u" d="m711.24,313.69c.01-.07,0-.13-.03-.19"/>
        <line class="u" x1="711.21" y1="313.5" x2="710.44" y2="311.74"/>
        <line class="u" x1="640.9" y1="304.61" x2="635.08" y2="312.51"/>
        <path class="u" d="m641.19,304.38c-.12.05-.21.13-.29.23"/>
        <line class="u" x1="643.08" y1="303.56" x2="641.19" y2="304.38"/>
        <path class="u" d="m643.44,303.5c-.12-.01-.25,0-.36.06"/>
        <line class="u" x1="709.31" y1="310.91" x2="643.44" y2="303.5"/>
        <path class="u" d="m710.44,311.74c-.2-.46-.63-.78-1.13-.83"/>
        <line class="u" x1="635.08" y1="312.51" x2="635.31" y2="312.81"/>
        <line class="u" x1="630.77" y1="353.2" x2="630.47" y2="353.45"/>
        <line class="u" x1="697.49" y1="363.83" x2="699.64" y2="360.92"/>
        <path class="u" d="m696.2,364.4c.5.05.99-.16,1.29-.57"/>
        <line class="u" x1="633.7" y1="357.37" x2="696.2" y2="364.4"/>
        <path class="u" d="m633.36,357.24c.1.07.22.12.34.13"/>
        <line class="u" x1="631.7" y1="356.01" x2="633.36" y2="357.24"/>
        <path class="u" d="m631.47,355.73c.05.11.13.21.23.28"/>
        <line class="u" x1="630.47" y1="353.45" x2="631.47" y2="355.73"/>
        <path class="u" d="m635.31,312.81s-.04.09-.1.2"/>
        <polyline class="u" points="635.21 313.01 634.98 313.36 633.54 315.59"/>
        <path class="u" d="m633.54,315.59c-.08.13-.19.29-.32.47"/>
        <polyline class="u" points="633.22 316.06 629.39 321.25 625.61 326.37"/>
        <path class="u" d="m625.61,326.37c-.88,1.19-1.52,2.54-1.89,3.98"/>
        <path class="u" d="m623.36,333.53c.04,1.48.37,2.94.96,4.3"/>
        <polyline class="u" points="624.32 337.83 626.87 343.67 629.45 349.58"/>
        <path class="u" d="m629.45,349.58c.09.19.16.38.21.52"/>
        <polyline class="u" points="629.66 350.1 630.58 352.6 630.72 352.99"/>
        <path class="u" d="m630.72,352.99c.04.13.06.2.05.21"/>
        <line class="u" x1="278.85" y1="451.76" x2="278.86" y2="451.73"/>
        <line class="u" x1="707.83" y1="371.64" x2="744.62" y2="371.56"/>
        <path class="u" d="m623.72,330.35c-.25,1.04-.37,2.11-.36,3.18"/>
        <line class="u" x1="713.05" y1="319.15" x2="711.24" y2="313.69"/>
      </g>
    </g>
  </g>
  <g id="g" data-name="pedal_down">
    <g class="r">
      <g>
        <path class="j" d="m744.01,368.68l.61,2.88-36.79.08-2.14-8.2-4.6-17.64c-.02-.07-.05-.15-.06-.22l-.19-.7c-.02-.08-.03-.15-.05-.23l-.73-2.78c-.28-1.08-.12-2.22.43-3.19l1.44-2.49.03-.06.47-.82c.04-.05.07-.1.1-.15l2.14-3.72c.76-1.31,2.15-2.11,3.67-2.11h13.52c.95,0,1.86.31,2.61.9l11.25,8.8,1.16.9c.2.16.39.33.56.52.06.07.12.14.18.22.17.21.31.44.43.67.08.16.15.33.21.5s.11.34.15.52v.02s3.29,15.42,3.29,15.42l2.3,10.87s.01.01.01.01Zm-21.9-26.66c0-4.91-3.98-8.88-8.89-8.88s-8.88,3.97-8.88,8.88,3.97,8.89,8.88,8.89,8.89-3.98,8.89-8.89Z"/>
        <path class="p" d="m735.73,339.02h0s-11.25-8.79-11.25-8.79c-.75-.59-1.66-.9-2.61-.9h-8.04c-.4-.02-.8-.02-1.2,0h-4.28c-1.52,0-2.91.8-3.67,2.11l-2.14,3.72c-.03.05-.06.1-.1.15-.17.26-.32.54-.47.82l-.03.06-1.44,2.49c-.55.97-.71,2.11-.43,3.19l.73,2.78c.02.08.03.15.05.23.05.24.11.47.19.7.01.07.04.15.06.22l4.6,17.64c-2.02-.71-3.94-1.71-5.69-2.96l-.36.44-2.15,2.91c-.3.41-.79.62-1.29.57l-62.5-7.03c-.12-.01-.24-.06-.34-.13l-1.66-1.23c-.1-.07-.18-.17-.23-.28l-1-2.28.3-.25s-.01-.08-.05-.21l-.14-.39-.92-2.5c-.05-.14-.12-.33-.21-.52l-2.58-5.91-2.55-5.84c-.59-1.36-.92-2.82-.96-4.3-.01-1.07.11-2.14.36-3.18.37-1.44,1.01-2.79,1.89-3.98l3.78-5.12,3.83-5.19c.13-.18.24-.34.32-.47l1.44-2.23.23-.35c.06-.11.1-.18.1-.2l-.23-.3,5.82-7.9c.08-.1.17-.18.29-.23l1.89-.82c.11-.05.24-.07.36-.06l65.87,7.41c.5.05.93.37,1.13.83l.77,1.76c.02.06.04.12.03.19l1.81,5.46,2.71.31c10.36,1.16,18.59,9.23,19.97,19.56Z"/>
        <path class="q" d="m713.22,333.14c4.91,0,8.89,3.97,8.89,8.88s-3.98,8.89-8.89,8.89-8.88-3.98-8.88-8.89,3.97-8.88,8.88-8.88Zm4.89,8.88l-1.22-2.11-1.23-2.12h-4.88l-1.22,2.12-1.22,2.11,1.22,2.12,1.22,2.11h4.88l1.23-2.11,1.22-2.12Z"/>
        <polygon class="m" points="716.89 339.91 718.11 342.02 716.89 344.14 715.66 346.25 713.22 346.25 710.78 346.25 709.56 344.14 708.34 342.02 709.56 339.91 710.78 337.79 713.22 337.79 715.66 337.79 716.89 339.91"/>
        <path class="j" d="m626.87,343.67l2.58,5.91c.09.19.16.38.21.52l.92,2.5h0l-216.07-24.29-1.58-.18c-1.96-.22-3.94-.16-5.89.17-.85.14-1.69.34-2.5.58-.97.29-1.95.51-2.95.67l.28-.3,9.47-10.2c2.12-2.29,3.62-5.07,4.37-8.1l5.32-21.64,213.96,24.05-1.44,2.23c-.08.13-.19.29-.32.47l-3.83,5.19-3.78,5.12c-.88,1.19-1.52,2.54-1.89,3.98-.25,1.04-.37,2.11-.36,3.18.04,1.48.37,2.94.96,4.3l2.55,5.84Z"/>
        <path class="n" d="m420.32,208.46c1.31-.71,2.92-.68,4.23.13l5.46,3.39c5.19,3.22,7.72,9.42,6.26,15.35l-15.25,61.98-5.32,21.64c-.75,3.03-2.25,5.81-4.37,8.1l-9.47,10.2-.28.3-.18.2-5.79,6.23s-.07.08-.11.12c-.03.04-.07.08-.11.12l-31.68,34.13-.2.21-8.64,9.3-.37.41-.28.29c-1.23,1.33-2.33,2.78-3.29,4.32l-39.61,63.82c-5.95,9.6-18.56,12.55-28.16,6.6-1.63-1.01-3.07-2.22-4.3-3.57-6.04-6.59-7.23-16.63-2.29-24.59l41.69-67.19c.43-.67.87-1.33,1.35-1.97.05-.06.09-.13.14-.19.49-.65,1.01-1.28,1.56-1.88.08-.09.16-.18.25-.27l6.74-7.27s.08-.08.11-.12c.04-.04.08-.08.11-.12l31.69-34.13.29-.31,5.95-6.42.38-.4,7.57-8.15c1.95-2.11,3.34-4.68,4.03-7.47l8.14-33.11.22-.78-1.11-.69-1.2-.74-1.19-.75-5.4-3.34,31.23-50.33h.01l5.39,3.35,1.2.74,1.2.74,3.4,2.12Zm-9.73,98.11c0-7.01-5.69-12.69-12.7-12.69s-12.69,5.68-12.69,12.69,5.68,12.7,12.69,12.7,12.7-5.69,12.7-12.7Zm-102.54,131.35c0-7.79-6.32-14.1-14.1-14.1s-14.11,6.31-14.11,14.1,6.32,14.1,14.11,14.1,14.1-6.31,14.1-14.1Z"/>
        <polygon class="j" points="433.21 160.02 433.67 161.97 431.71 165.12 422.68 179.67 417.94 187.3 409.12 201.51 377.89 251.84 369.07 266.05 364.34 273.67 355.31 288.22 353.35 291.38 351.41 291.84 341.82 285.89 340.46 280.06 341.98 277.6 351.01 263.05 354.7 257.12 403.57 178.38 407.25 172.45 416.28 157.9 417.8 155.44 423.63 154.07 433.21 160.02"/>
        <path class="q" d="m397.89,293.88c7.01,0,12.7,5.68,12.7,12.69s-5.69,12.7-12.7,12.7-12.69-5.69-12.69-12.7,5.68-12.69,12.69-12.69Z"/>
        <path class="q" d="m293.95,423.82c7.78,0,14.1,6.31,14.1,14.1s-6.32,14.1-14.1,14.1-14.11-6.31-14.11-14.1,6.32-14.1,14.11-14.1Z"/>
      </g>
      <g>
        <polyline class="t" points="369.07 266.05 377.89 251.84 409.12 201.51 417.94 187.3"/>
        <line class="t" x1="369.07" y1="266.05" x2="364.34" y2="273.67"/>
        <line class="t" x1="355.31" y1="288.22" x2="364.34" y2="273.67"/>
        <line class="t" x1="355.31" y1="288.22" x2="353.35" y2="291.38"/>
        <line class="t" x1="433.67" y1="161.97" x2="431.71" y2="165.12"/>
        <line class="t" x1="422.68" y1="179.67" x2="431.71" y2="165.12"/>
        <line class="t" x1="422.68" y1="179.67" x2="417.94" y2="187.3"/>
        <line class="t" x1="433.67" y1="161.97" x2="433.21" y2="160.02"/>
        <line class="t" x1="353.35" y1="291.38" x2="351.41" y2="291.84"/>
        <line class="t" x1="341.82" y1="285.89" x2="351.41" y2="291.84"/>
        <line class="t" x1="403.57" y1="178.38" x2="354.7" y2="257.12"/>
        <line class="t" x1="403.57" y1="178.38" x2="407.25" y2="172.45"/>
        <line class="t" x1="416.28" y1="157.9" x2="407.25" y2="172.45"/>
        <line class="t" x1="423.63" y1="154.07" x2="417.8" y2="155.44"/>
        <line class="t" x1="416.28" y1="157.9" x2="417.8" y2="155.44"/>
        <line class="t" x1="341.82" y1="285.89" x2="340.46" y2="280.06"/>
        <line class="t" x1="340.46" y1="280.06" x2="341.98" y2="277.6"/>
        <line class="t" x1="351.01" y1="263.05" x2="341.98" y2="277.6"/>
        <line class="t" x1="351.01" y1="263.05" x2="354.7" y2="257.12"/>
        <line class="t" x1="433.21" y1="160.02" x2="423.63" y2="154.07"/>
        <line class="t" x1="385.68" y1="256.67" x2="386.79" y2="257.36"/>
        <line class="t" x1="384.48" y1="255.93" x2="385.68" y2="256.67"/>
        <line class="t" x1="384.48" y1="255.93" x2="383.29" y2="255.18"/>
        <line class="t" x1="377.89" y1="251.84" x2="383.29" y2="255.18"/>
        <line class="t" x1="416.92" y1="206.34" x2="415.72" y2="205.6"/>
        <line class="t" x1="414.52" y1="204.86" x2="415.72" y2="205.6"/>
        <line class="t" x1="414.52" y1="204.86" x2="409.13" y2="201.51"/>
        <line class="t" x1="420.32" y1="208.46" x2="416.92" y2="206.34"/>
        <line class="t" x1="371.11" y1="230.43" x2="371.1" y2="230.42"/>
        <line class="t" x1="371.11" y1="230.43" x2="371.07" y2="230.5"/>
        <line class="t" x1="371.06" y1="230.49" x2="371.1" y2="230.42"/>
        <line class="t" x1="374.77" y1="224.54" x2="374.75" y2="224.56"/>
        <line class="t" x1="374.74" y1="224.55" x2="374.76" y2="224.53"/>
        <line class="t" x1="374.75" y1="224.56" x2="374.74" y2="224.55"/>
        <line class="t" x1="392.07" y1="196.65" x2="392.06" y2="196.65"/>
        <line class="t" x1="392.07" y1="196.65" x2="388.11" y2="203.03"/>
        <line class="t" x1="388.1" y1="203.02" x2="392.06" y2="196.65"/>
        <line class="t" x1="388.11" y1="203.03" x2="388.1" y2="203.02"/>
        <line class="t" x1="388.11" y1="203.03" x2="378.99" y2="217.74"/>
        <line class="t" x1="378.98" y1="217.73" x2="388.1" y2="203.02"/>
        <line class="t" x1="378.99" y1="217.74" x2="378.98" y2="217.73"/>
        <line class="t" x1="378.99" y1="217.74" x2="374.77" y2="224.54"/>
        <line class="t" x1="374.76" y1="224.53" x2="378.98" y2="217.73"/>
        <line class="t" x1="374.77" y1="224.54" x2="374.76" y2="224.53"/>
        <line class="t" x1="370.55" y1="231.34" x2="369.74" y2="232.65"/>
        <line class="t" x1="369.72" y1="232.64" x2="370.54" y2="231.33"/>
        <line class="t" x1="369.74" y1="232.65" x2="369.72" y2="232.64"/>
        <line class="t" x1="369.74" y1="232.65" x2="369.24" y2="233.44"/>
        <line class="t" x1="369.23" y1="233.44" x2="369.72" y2="232.64"/>
        <line class="t" x1="369.24" y1="233.44" x2="369.23" y2="233.44"/>
        <line class="t" x1="369.24" y1="233.44" x2="368.36" y2="234.86"/>
        <line class="t" x1="368.35" y1="234.85" x2="369.23" y2="233.44"/>
        <line class="t" x1="368.36" y1="234.86" x2="368.35" y2="234.85"/>
        <line class="t" x1="368.36" y1="234.86" x2="367.84" y2="235.7"/>
        <line class="t" x1="367.83" y1="235.69" x2="368.35" y2="234.85"/>
        <line class="t" x1="367.84" y1="235.7" x2="367.83" y2="235.69"/>
        <line class="t" x1="371.07" y1="230.5" x2="371.06" y2="230.49"/>
        <line class="t" x1="371.07" y1="230.5" x2="370.55" y2="231.34"/>
        <line class="t" x1="370.54" y1="231.33" x2="371.06" y2="230.49"/>
        <line class="t" x1="370.55" y1="231.34" x2="370.54" y2="231.33"/>
        <path class="t" d="m629.27,321.23s.08,0,.12.02"/>
        <path class="t" d="m626.87,343.67s-.08-.01-.12-.02"/>
        <line class="t" x1="421.02" y1="289.31" x2="634.98" y2="313.36"/>
        <path class="t" d="m412.92,328.13c-1.96-.22-3.94-.16-5.89.17"/>
        <line class="t" x1="414.5" y1="328.31" x2="412.92" y2="328.13"/>
        <line class="t" x1="630.57" y1="352.6" x2="414.5" y2="328.31"/>
        <path class="t" d="m404.53,328.88c-.97.29-1.95.51-2.95.67"/>
        <path class="t" d="m404.53,328.88c.81-.24,1.65-.44,2.5-.58"/>
        <path class="t" d="m308.05,437.92c0-7.79-6.32-14.1-14.1-14.1s-14.11,6.31-14.11,14.1,6.32,14.1,14.11,14.1,14.1-6.31,14.1-14.1Z"/>
        <path class="t" d="m319.61,357.98c-.48.64-.92,1.3-1.35,1.97"/>
        <path class="t" d="m319.75,357.79c-.05.06-.09.13-.14.19"/>
        <path class="t" d="m321.31,355.91c-.55.6-1.07,1.23-1.56,1.88"/>
        <path class="t" d="m321.56,355.64c-.09.09-.17.18-.25.27"/>
        <line class="t" x1="318.26" y1="359.95" x2="276.57" y2="427.14"/>
        <path class="t" d="m276.57,427.14c-4.94,7.96-3.75,18,2.29,24.59,1.23,1.35,2.67,2.56,4.3,3.57,9.6,5.95,22.21,3,28.16-6.6"/>
        <line class="t" x1="311.32" y1="448.7" x2="350.93" y2="384.88"/>
        <path class="t" d="m350.93,384.88c.96-1.54,2.06-2.99,3.29-4.32"/>
        <line class="t" x1="401.86" y1="329.25" x2="411.33" y2="319.05"/>
        <polyline class="t" points="401.4 329.75 401.58 329.55 401.86 329.25"/>
        <line class="t" x1="395.61" y1="335.98" x2="401.4" y2="329.75"/>
        <path class="t" d="m395.39,336.22s.08-.08.11-.12c.04-.04.08-.08.11-.12"/>
        <line class="t" x1="363.71" y1="370.35" x2="395.39" y2="336.22"/>
        <line class="t" x1="363.51" y1="370.56" x2="363.71" y2="370.35"/>
        <line class="t" x1="354.87" y1="379.86" x2="363.51" y2="370.56"/>
        <line class="t" x1="354.5" y1="380.27" x2="354.87" y2="379.86"/>
        <line class="t" x1="354.22" y1="380.56" x2="354.5" y2="380.27"/>
        <line class="t" x1="374.4" y1="298.72" x2="366.83" y2="306.87"/>
        <path class="t" d="m378.43,291.25c-.69,2.79-2.08,5.36-4.03,7.47"/>
        <line class="t" x1="386.57" y1="258.14" x2="378.43" y2="291.25"/>
        <path class="t" d="m424.55,208.59c-1.31-.81-2.92-.84-4.23-.13-.26.13-.5.3-.73.49"/>
        <path class="t" d="m436.27,227.33c1.46-5.93-1.07-12.13-6.26-15.35"/>
        <polyline class="t" points="415.7 310.95 421.02 289.31 436.27 227.33"/>
        <path class="t" d="m411.33,319.05c2.12-2.29,3.62-5.07,4.37-8.1"/>
        <line class="t" x1="430.01" y1="211.98" x2="424.55" y2="208.59"/>
        <line class="t" x1="328.3" y1="348.37" x2="321.56" y2="355.64"/>
        <line class="t" x1="360.21" y1="314" x2="328.52" y2="348.13"/>
        <path class="t" d="m328.52,348.13s-.07.08-.11.12c-.03.04-.07.08-.11.12"/>
        <line class="t" x1="366.45" y1="307.27" x2="360.5" y2="313.69"/>
        <line class="t" x1="360.5" y1="313.69" x2="360.21" y2="314"/>
        <line class="t" x1="366.83" y1="306.87" x2="366.45" y2="307.27"/>
        <path class="t" d="m715.76,319.46c10.36,1.16,18.59,9.23,19.97,19.56"/>
        <path class="t" d="m705.69,363.44c-2.02-.71-3.94-1.71-5.69-2.96"/>
        <line class="t" x1="713.05" y1="319.15" x2="715.76" y2="319.46"/>
        <path class="t" d="m722.11,342.02c0-4.91-3.98-8.88-8.89-8.88s-8.88,3.97-8.88,8.88,3.97,8.89,8.88,8.89,8.89-3.98,8.89-8.89Z"/>
        <path class="t" d="m744.64,371.64s-.02-.06-.02-.08"/>
        <polyline class="t" points="744.62 371.56 744.01 368.68 744.01 368.67 744 368.67 741.7 357.8"/>
        <path class="t" d="m737.62,340.67c-.06-.08-.12-.15-.18-.22-.17-.19-.36-.36-.56-.52"/>
        <path class="t" d="m738.41,342.36c-.03-.18-.08-.35-.15-.52-.06-.17-.13-.34-.21-.5"/>
        <polyline class="t" points="736.88 339.93 735.72 339.03 724.47 330.23"/>
        <path class="t" d="m724.47,330.23c-.75-.59-1.66-.9-2.61-.9"/>
        <polyline class="t" points="721.86 329.33 713.82 329.33 712.62 329.33 708.34 329.33"/>
        <path class="t" d="m708.34,329.33c-1.52,0-2.91.8-3.67,2.11"/>
        <line class="t" x1="701.93" y1="336.19" x2="700.49" y2="338.68"/>
        <line class="t" x1="702.43" y1="335.31" x2="701.96" y2="336.13"/>
        <line class="t" x1="704.67" y1="331.44" x2="702.53" y2="335.16"/>
        <path class="t" d="m700.49,338.68c-.55.97-.71,2.11-.43,3.19"/>
        <polyline class="t" points="701.09 345.8 705.69 363.44 707.83 371.64"/>
        <line class="t" x1="700.84" y1="344.88" x2="701.03" y2="345.58"/>
        <line class="t" x1="700.06" y1="341.87" x2="700.79" y2="344.65"/>
        <path class="t" d="m713.82,329.33c-.4-.02-.8-.02-1.2,0"/>
        <path class="t" d="m702.53,335.16c-.03.05-.06.1-.1.15-.17.26-.32.54-.47.82l-.03.06"/>
        <path class="t" d="m700.79,344.65c.02.08.03.15.05.23.05.24.11.47.19.7.01.07.04.15.06.22"/>
        <path class="t" d="m385.2,306.57c0-7.01,5.68-12.69,12.69-12.69s12.7,5.68,12.7,12.69-5.69,12.7-12.7,12.7-12.69-5.69-12.69-12.7Z"/>
        <line class="t" x1="737.44" y1="340.45" x2="737.45" y2="340.45"/>
        <path class="t" d="m737.45,340.45c.06.07.12.14.17.22.17.21.31.44.43.67.08.16.15.33.21.5s.11.34.15.52"/>
        <path class="t" d="m744,368.67s.01.01.01.01"/>
        <polyline class="t" points="738.41 342.36 738.42 342.38 741.7 357.8 744.01 368.67"/>
        <path class="t" d="m711.24,313.69c.01-.07,0-.13-.03-.19"/>
        <line class="t" x1="711.21" y1="313.5" x2="710.44" y2="311.74"/>
        <line class="t" x1="640.9" y1="304.61" x2="635.08" y2="312.51"/>
        <path class="t" d="m641.19,304.38c-.12.05-.21.13-.29.23"/>
        <line class="t" x1="643.08" y1="303.56" x2="641.19" y2="304.38"/>
        <path class="t" d="m643.44,303.5c-.12-.01-.25,0-.36.06"/>
        <line class="t" x1="709.31" y1="310.91" x2="643.44" y2="303.5"/>
        <path class="t" d="m710.44,311.74c-.2-.46-.63-.78-1.13-.83"/>
        <line class="t" x1="635.08" y1="312.51" x2="635.31" y2="312.81"/>
        <line class="t" x1="630.77" y1="353.2" x2="630.47" y2="353.45"/>
        <line class="t" x1="697.49" y1="363.83" x2="699.64" y2="360.92"/>
        <path class="t" d="m696.2,364.4c.5.05.99-.16,1.29-.57"/>
        <line class="t" x1="633.7" y1="357.37" x2="696.2" y2="364.4"/>
        <path class="t" d="m633.36,357.24c.1.07.22.12.34.13"/>
        <line class="t" x1="631.7" y1="356.01" x2="633.36" y2="357.24"/>
        <path class="t" d="m631.47,355.73c.05.11.13.21.23.28"/>
        <line class="t" x1="630.47" y1="353.45" x2="631.47" y2="355.73"/>
        <path class="t" d="m635.31,312.81s-.04.09-.1.2"/>
        <polyline class="t" points="635.21 313.01 634.98 313.36 633.54 315.59"/>
        <path class="t" d="m633.54,315.59c-.08.13-.19.29-.32.47"/>
        <polyline class="t" points="633.22 316.06 629.39 321.25 625.61 326.37"/>
        <path class="t" d="m625.61,326.37c-.88,1.19-1.52,2.54-1.89,3.98"/>
        <path class="t" d="m623.36,333.53c.04,1.48.37,2.94.96,4.3"/>
        <polyline class="t" points="624.32 337.83 626.87 343.67 629.45 349.58"/>
        <path class="t" d="m629.45,349.58c.09.19.16.38.21.52"/>
        <polyline class="t" points="629.66 350.1 630.58 352.6 630.72 352.99"/>
        <path class="t" d="m630.72,352.99c.04.13.06.2.05.21"/>
        <line class="t" x1="278.85" y1="451.76" x2="278.86" y2="451.73"/>
        <line class="t" x1="707.83" y1="371.64" x2="744.62" y2="371.56"/>
        <path class="t" d="m623.72,330.35c-.25,1.04-.37,2.11-.36,3.18"/>
        <line class="t" x1="713.05" y1="319.15" x2="711.24" y2="313.69"/>
      </g>
    </g>
  </g>
  <g id="h" data-name="pedal_up">
    <g>
      <g>
        <path class="j" d="m664.57,339.44l.53.41c.2.16.39.33.55.52h0c.12.14.23.28.32.43,0,0,.02.01.02.02.08.11.15.23.21.36.12.2.21.41.28.63.05.14.09.28.12.42.01.02.02.04.02.06h0s5.59,26.31,5.59,26.31l.61,2.88-36.79.08-1.96-7.54h0l-5.07-19.45-.72-2.78c-.28-1.08-.13-2.22.43-3.18l1.43-2.49,2.75-4.75c.75-1.31,2.15-2.12,3.66-2.12h13.52c.95,0,1.87.32,2.61.9l11.89,9.29Zm-14.25,2.51c0-4.91-3.98-8.89-8.89-8.89s-8.88,3.98-8.88,8.89,3.98,8.88,8.88,8.88,8.89-3.98,8.89-8.88Z"/>
        <path class="p" d="m643.86,318.66l2.51.55c9.79,2.12,17.12,10.27,18.2,20.23l-11.89-9.29c-.74-.58-1.66-.9-2.61-.9h-8.04c-.4-.02-.8-.02-1.19,0h-4.29c-1.51,0-2.91.81-3.66,2.12l-2.75,4.75-1.43,2.49c-.56.96-.71,2.1-.43,3.18l.72,2.78,5.07,19.45c-2.97-.99-5.69-2.56-8.04-4.63l-.03-.03-2.44,2.68c-.33.38-.84.54-1.34.43l-61.46-13.35c-.12-.03-.23-.08-.32-.17l-1.53-1.39c-.09-.08-.16-.19-.2-.3l-.76-2.37.33-.22s-.01-.08-.04-.21l-.1-.41-.65-2.57c-.04-.15-.09-.34-.16-.55l-1.97-6.14-1.94-6.06c-.45-1.41-.62-2.9-.51-4.38.09-1.07.32-2.12.68-3.13.51-1.39,1.29-2.67,2.28-3.77l4.28-4.71,4.34-4.77c.15-.16.28-.31.37-.43l1.66-2.07.26-.33c.08-.1.12-.16.12-.18l-.2-.33,6.6-7.26c.08-.1.19-.16.31-.2l1.97-.63c.11-.04.24-.05.36-.02l64.77,14.07c.49.11.89.47,1.04.95l.59,1.82c.02.07.02.13.01.2l1.09,5.01.41.09h.01Z"/>
        <polygon class="m" points="638.99 337.71 641.43 337.71 643.88 337.71 645.1 339.83 646.32 341.95 645.1 344.06 643.88 346.18 641.43 346.18 638.99 346.18 637.77 344.06 636.55 341.95 637.77 339.83 638.99 337.71"/>
        <path class="q" d="m637.77,344.06l1.22,2.12h4.89l1.22-2.12,1.22-2.11-1.22-2.12-1.22-2.12h-4.89l-1.22,2.12-1.22,2.12,1.22,2.11Zm3.66-11c4.91,0,8.89,3.98,8.89,8.89s-3.98,8.88-8.89,8.88-8.88-3.98-8.88-8.88,3.98-8.89,8.88-8.89Z"/>
        <path class="j" d="m344.11,297.55c-.23-.05-.47-.09-.71-.14l1.07-3.41.21-.65,4.17-13.28c.93-2.97,1.09-6.13.46-9.18l-2.94-14.3c.2.12.39.23.59.33,1.74.94,3.6,1.63,5.53,2.05l1.56.33,212.47,46.17-1.66,2.07c-.09.12-.22.27-.37.43l-4.34,4.77-4.28,4.71c-.99,1.1-1.77,2.38-2.28,3.77-.36,1.01-.59,2.06-.68,3.13-.11,1.48.06,2.97.51,4.38l1.94,6.06,1.97,6.14c.07.21.12.4.16.55l.65,2.57-212.48-46.16-1.55-.34Z"/>
        <path class="q" d="m331.35,261.89c7.01,0,12.7,5.68,12.7,12.69s-5.69,12.69-12.7,12.69-12.69-5.68-12.69-12.69,5.68-12.69,12.69-12.69Z"/>
        <path class="n" d="m302.66,175.58l1.41.16,1.4.16,3.98.44c.89-1.2,2.35-1.87,3.88-1.69l6.39.71c6.07.68,11.01,5.19,12.24,11.18l14.41,70.05,2.94,14.3c.63,3.05.47,6.21-.46,9.18l-4.17,13.28-.21.65-1.07,3.41-1.47,4.7c-.02.05-.03.1-.05.15-.02.06-.03.11-.05.16l-13.95,44.43-.08.28-3.8,12.11-.17.53-.12.38c-.54,1.74-.92,3.51-1.12,5.32l-8.35,74.65c-1.25,11.22-11.37,19.3-22.59,18.05-5.12-.57-9.58-2.99-12.81-6.51-3.84-4.2-5.93-9.98-5.24-16.09l8.78-78.58c.09-.79.21-1.58.37-2.36,0-.08.03-.15.05-.23.16-.8.36-1.59.59-2.37.04-.11.08-.23.11-.35l2.97-9.46c.02-.05.03-.1.05-.15.02-.06.03-.11.05-.16l13.95-44.43.12-.41,2.63-8.35.16-.53,3.33-10.61c.86-2.74,1.01-5.66.43-8.48l-6.87-33.39-.14-.8-1.29-.15-1.41-.15-1.4-.16-6.3-.71,6.57-58.86h.01l6.3.7Zm41.39,99c0-7.01-5.69-12.69-12.7-12.69s-12.69,5.68-12.69,12.69,5.68,12.69,12.69,12.69,12.7-5.68,12.7-12.69Zm-36.03,163.26c0-7.78-6.31-14.1-14.1-14.1s-14.1,6.32-14.1,14.1,6.31,14.11,14.1,14.11,14.1-6.32,14.1-14.11Z"/>
        <path class="q" d="m293.92,423.74c7.79,0,14.1,6.32,14.1,14.1s-6.31,14.11-14.1,14.11-14.1-6.32-14.1-14.11,6.31-14.1,14.1-14.1Z"/>
        <polygon class="j" points="300.28 127.07 301.53 128.63 301.11 132.32 299.21 149.34 298.21 158.26 296.35 174.88 289.78 233.74 287.92 250.36 286.92 259.28 285.02 276.3 284.61 280 283.05 281.24 271.83 279.99 268.1 275.31 268.42 272.44 270.32 255.42 271.1 248.48 281.4 156.38 282.17 149.44 284.07 132.42 284.4 129.55 289.07 125.82 300.28 127.07"/>
      </g>
      <g>
        <polyline class="t" points="287.92 250.36 289.78 233.74 296.35 174.88 298.21 158.26"/>
        <line class="t" x1="287.92" y1="250.36" x2="286.92" y2="259.28"/>
        <line class="t" x1="285.02" y1="276.3" x2="286.92" y2="259.28"/>
        <line class="t" x1="285.02" y1="276.3" x2="284.61" y2="280"/>
        <line class="t" x1="301.53" y1="128.63" x2="301.11" y2="132.32"/>
        <line class="t" x1="299.21" y1="149.34" x2="301.11" y2="132.32"/>
        <line class="t" x1="299.21" y1="149.34" x2="298.21" y2="158.26"/>
        <line class="t" x1="301.53" y1="128.63" x2="300.28" y2="127.07"/>
        <line class="t" x1="284.61" y1="280" x2="283.05" y2="281.24"/>
        <line class="t" x1="271.83" y1="279.99" x2="283.05" y2="281.24"/>
        <line class="t" x1="281.4" y1="156.38" x2="271.1" y2="248.48"/>
        <line class="t" x1="281.4" y1="156.38" x2="282.17" y2="149.44"/>
        <line class="t" x1="284.07" y1="132.42" x2="282.17" y2="149.44"/>
        <line class="t" x1="289.07" y1="125.82" x2="284.4" y2="129.55"/>
        <line class="t" x1="284.07" y1="132.42" x2="284.4" y2="129.55"/>
        <line class="t" x1="271.83" y1="279.99" x2="268.1" y2="275.31"/>
        <line class="t" x1="268.1" y1="275.31" x2="268.42" y2="272.44"/>
        <line class="t" x1="270.32" y1="255.42" x2="268.42" y2="272.44"/>
        <line class="t" x1="270.32" y1="255.42" x2="271.1" y2="248.48"/>
        <line class="t" x1="300.28" y1="127.07" x2="289.07" y2="125.82"/>
        <line class="t" x1="298.89" y1="234.76" x2="300.18" y2="234.91"/>
        <line class="t" x1="297.48" y1="234.61" x2="298.89" y2="234.76"/>
        <line class="t" x1="297.48" y1="234.61" x2="296.08" y2="234.45"/>
        <line class="t" x1="289.78" y1="233.74" x2="296.08" y2="234.45"/>
        <line class="t" x1="305.47" y1="175.9" x2="304.07" y2="175.74"/>
        <line class="t" x1="302.66" y1="175.58" x2="304.07" y2="175.74"/>
        <line class="t" x1="302.66" y1="175.58" x2="296.36" y2="174.88"/>
        <line class="t" x1="309.45" y1="176.34" x2="305.47" y2="175.9"/>
        <line class="t" x1="274.45" y1="217.33" x2="274.44" y2="217.33"/>
        <line class="t" x1="274.45" y1="217.33" x2="274.45" y2="217.41"/>
        <line class="t" x1="274.43" y1="217.4" x2="274.44" y2="217.33"/>
        <line class="t" x1="275.23" y1="210.44" x2="275.22" y2="210.46"/>
        <line class="t" x1="275.21" y1="210.46" x2="275.21" y2="210.44"/>
        <line class="t" x1="275.22" y1="210.46" x2="275.21" y2="210.46"/>
        <line class="t" x1="278.87" y1="177.82" x2="278.86" y2="177.82"/>
        <line class="t" x1="278.87" y1="177.82" x2="278.04" y2="185.28"/>
        <line class="t" x1="278.02" y1="185.28" x2="278.86" y2="177.82"/>
        <line class="t" x1="278.04" y1="185.28" x2="278.02" y2="185.28"/>
        <line class="t" x1="278.04" y1="185.28" x2="276.11" y2="202.48"/>
        <line class="t" x1="276.1" y1="202.48" x2="278.02" y2="185.28"/>
        <line class="t" x1="276.11" y1="202.48" x2="276.1" y2="202.48"/>
        <line class="t" x1="276.11" y1="202.48" x2="275.23" y2="210.44"/>
        <line class="t" x1="275.21" y1="210.44" x2="276.1" y2="202.48"/>
        <line class="t" x1="275.23" y1="210.44" x2="275.21" y2="210.44"/>
        <line class="t" x1="274.34" y1="218.39" x2="274.17" y2="219.92"/>
        <line class="t" x1="274.15" y1="219.92" x2="274.32" y2="218.39"/>
        <line class="t" x1="274.17" y1="219.92" x2="274.15" y2="219.92"/>
        <line class="t" x1="274.17" y1="219.92" x2="274.06" y2="220.85"/>
        <line class="t" x1="274.05" y1="220.85" x2="274.15" y2="219.92"/>
        <line class="t" x1="274.06" y1="220.85" x2="274.05" y2="220.85"/>
        <line class="t" x1="274.06" y1="220.85" x2="273.88" y2="222.51"/>
        <line class="t" x1="273.86" y1="222.51" x2="274.05" y2="220.85"/>
        <line class="t" x1="273.88" y1="222.51" x2="273.86" y2="222.51"/>
        <line class="t" x1="273.88" y1="222.51" x2="273.77" y2="223.49"/>
        <line class="t" x1="273.75" y1="223.49" x2="273.86" y2="222.51"/>
        <line class="t" x1="273.77" y1="223.49" x2="273.75" y2="223.49"/>
        <line class="t" x1="274.45" y1="217.41" x2="274.43" y2="217.4"/>
        <line class="t" x1="274.45" y1="217.41" x2="274.34" y2="218.39"/>
        <line class="t" x1="274.32" y1="218.39" x2="274.43" y2="217.4"/>
        <line class="t" x1="274.34" y1="218.39" x2="274.32" y2="218.39"/>
        <path class="t" d="m560.04,312.72s.08.01.11.02"/>
        <path class="t" d="m555.36,334.79s-.07-.02-.11-.02"/>
        <line class="t" x1="354.05" y1="259.3" x2="566.52" y2="305.47"/>
        <path class="t" d="m344.11,297.55c-.23-.05-.47-.09-.71-.14"/>
        <line class="t" x1="345.66" y1="297.89" x2="344.11" y2="297.55"/>
        <line class="t" x1="558.14" y1="344.05" x2="345.66" y2="297.89"/>
        <path class="t" d="m346.96,256.92c-.2-.1-.39-.21-.59-.33"/>
        <line class="t" x1="352.49" y1="258.97" x2="354.05" y2="259.3"/>
        <path class="t" d="m346.96,256.92c1.74.94,3.6,1.63,5.53,2.05"/>
        <path class="t" d="m308.02,437.84c0-7.78-6.31-14.1-14.1-14.1s-14.1,6.32-14.1,14.1,6.31,14.11,14.1,14.11,14.1-6.32,14.1-14.11Z"/>
        <path class="t" d="m282.75,354.63c-.16.78-.28,1.57-.37,2.36"/>
        <path class="t" d="m282.8,354.4c-.02.08-.04.15-.05.23"/>
        <path class="t" d="m283.39,352.03c-.23.78-.43,1.57-.59,2.37"/>
        <path class="t" d="m283.5,351.68c-.03.12-.07.24-.11.35"/>
        <line class="t" x1="282.38" y1="356.99" x2="273.6" y2="435.57"/>
        <path class="t" d="m273.6,435.57c-.69,6.11,1.4,11.89,5.24,16.09,3.23,3.52,7.69,5.94,12.81,6.51,11.22,1.25,21.34-6.83,22.59-18.05"/>
        <line class="t" x1="314.24" y1="440.12" x2="322.59" y2="365.47"/>
        <path class="t" d="m322.59,365.47c.2-1.81.58-3.58,1.12-5.32"/>
        <line class="t" x1="344.68" y1="293.35" x2="348.85" y2="280.07"/>
        <line class="t" x1="344.47" y1="294" x2="344.68" y2="293.35"/>
        <polyline class="t" points="341.93 302.11 343.4 297.41 344.47 294"/>
        <path class="t" d="m341.83,302.42s.03-.1.05-.16c.02-.05.03-.1.05-.15"/>
        <line class="t" x1="327.88" y1="346.85" x2="341.83" y2="302.42"/>
        <line class="t" x1="327.8" y1="347.13" x2="327.88" y2="346.85"/>
        <line class="t" x1="324" y1="359.24" x2="327.8" y2="347.13"/>
        <line class="t" x1="323.83" y1="359.77" x2="324" y2="359.24"/>
        <line class="t" x1="323.71" y1="360.15" x2="323.83" y2="359.77"/>
        <line class="t" x1="306.76" y1="277.58" x2="303.43" y2="288.19"/>
        <path class="t" d="m307.19,269.1c.58,2.82.43,5.74-.43,8.48"/>
        <line class="t" x1="300.32" y1="235.71" x2="307.19" y2="269.1"/>
        <path class="t" d="m313.33,174.65c-1.53-.18-2.99.49-3.88,1.69-.17.23-.32.49-.45.77"/>
        <path class="t" d="m331.96,186.54c-1.23-5.99-6.17-10.5-12.24-11.18"/>
        <polyline class="t" points="349.31 270.89 346.37 256.59 331.96 186.54"/>
        <path class="t" d="m348.85,280.07c.93-2.97,1.09-6.13.46-9.18"/>
        <line class="t" x1="319.72" y1="175.36" x2="313.33" y2="174.65"/>
        <line class="t" x1="286.47" y1="342.22" x2="283.5" y2="351.68"/>
        <line class="t" x1="300.52" y1="297.48" x2="286.57" y2="341.91"/>
        <path class="t" d="m286.57,341.91c-.02.05-.03.1-.05.16-.02.05-.03.1-.05.15"/>
        <line class="t" x1="303.27" y1="288.72" x2="300.64" y2="297.07"/>
        <line class="t" x1="300.64" y1="297.07" x2="300.52" y2="297.48"/>
        <line class="t" x1="303.43" y1="288.19" x2="303.27" y2="288.72"/>
        <path class="t" d="m626.03,359.39c2.35,2.07,5.07,3.64,8.04,4.63"/>
        <path class="t" d="m664.57,339.44c-1.08-9.96-8.41-18.11-18.2-20.23"/>
        <line class="t" x1="643.85" y1="318.66" x2="643.44" y2="318.57"/>
        <line class="t" x1="646.37" y1="319.21" x2="643.86" y2="318.66"/>
        <path class="t" d="m650.32,341.95c0-4.91-3.98-8.89-8.89-8.89s-8.88,3.98-8.88,8.89,3.98,8.88,8.88,8.88,8.89-3.98,8.89-8.88Z"/>
        <path class="t" d="m672.85,371.56s-.01-.05-.02-.08"/>
        <path class="t" d="m665.65,340.37c-.16-.19-.35-.36-.55-.52"/>
        <path class="t" d="m665.98,340.8c-.09-.15-.2-.29-.32-.42"/>
        <path class="t" d="m666.21,341.18c-.06-.13-.13-.25-.21-.36"/>
        <path class="t" d="m666.61,342.23c-.03-.14-.07-.28-.12-.42"/>
        <polyline class="t" points="665.1 339.85 664.57 339.44 652.68 330.15"/>
        <path class="t" d="m652.68,330.15c-.74-.58-1.66-.9-2.61-.9"/>
        <polyline class="t" points="650.07 329.25 642.03 329.25 640.84 329.25 636.55 329.25"/>
        <path class="t" d="m636.55,329.25c-1.51,0-2.91.81-3.66,2.12"/>
        <polyline class="t" points="632.89 331.37 630.14 336.12 628.71 338.61"/>
        <path class="t" d="m628.71,338.61c-.56.96-.71,2.1-.43,3.18"/>
        <polyline class="t" points="628.28 341.79 629 344.57 634.07 364.02 634.08 364.02 636.04 371.56 672.83 371.48 672.22 368.6"/>
        <path class="t" d="m642.03,329.25c-.4-.02-.8-.02-1.19,0"/>
        <path class="t" d="m630.74,335.08c-.21.34-.41.68-.6,1.04"/>
        <path class="t" d="m629,344.57c.08.39.19.78.3,1.16"/>
        <path class="t" d="m318.66,274.58c0-7.01,5.68-12.69,12.69-12.69s12.7,5.68,12.7,12.69-5.69,12.69-12.7,12.69-12.69-5.68-12.69-12.69Z"/>
        <path class="t" d="m665.65,340.37h0"/>
        <path class="t" d="m665.66,340.38c.12.13.23.27.32.42,0,0,.02.01.02.02.08.11.15.23.21.36.12.2.21.41.28.63.05.14.09.28.12.42.01.02.02.04.02.06"/>
        <polyline class="t" points="666.63 342.29 666.63 342.3 672.22 368.6"/>
        <line class="t" x1="643.86" y1="318.64" x2="643.86" y2="318.65"/>
        <path class="t" d="m642.35,313.56c.01-.07.01-.13-.01-.2"/>
        <path class="t" d="m643.85,318.66h.01"/>
        <line class="t" x1="642.34" y1="313.36" x2="641.75" y2="311.54"/>
        <line class="t" x1="573.3" y1="297.37" x2="566.7" y2="304.63"/>
        <path class="t" d="m573.61,297.17c-.12.04-.23.1-.31.2"/>
        <line class="t" x1="575.58" y1="296.54" x2="573.61" y2="297.17"/>
        <path class="t" d="m575.94,296.52c-.12-.03-.25-.02-.36.02"/>
        <line class="t" x1="640.71" y1="310.59" x2="575.94" y2="296.52"/>
        <path class="t" d="m641.75,311.54c-.15-.48-.55-.84-1.04-.95"/>
        <line class="t" x1="566.7" y1="304.63" x2="566.9" y2="304.96"/>
        <line class="t" x1="558.28" y1="344.67" x2="557.95" y2="344.89"/>
        <line class="t" x1="623.56" y1="362.04" x2="626" y2="359.36"/>
        <path class="t" d="m622.22,362.47c.5.11,1.01-.05,1.34-.43"/>
        <line class="t" x1="560.76" y1="349.12" x2="622.22" y2="362.47"/>
        <path class="t" d="m560.44,348.95c.09.09.2.14.32.17"/>
        <line class="t" x1="558.91" y1="347.56" x2="560.44" y2="348.95"/>
        <path class="t" d="m558.71,347.26c.04.11.11.22.2.3"/>
        <line class="t" x1="557.95" y1="344.89" x2="558.71" y2="347.26"/>
        <path class="t" d="m566.9,304.96s-.04.08-.12.18"/>
        <polyline class="t" points="566.78 305.14 566.52 305.47 564.86 307.54"/>
        <path class="t" d="m564.86,307.54c-.09.12-.22.27-.37.43"/>
        <polyline class="t" points="564.49 307.97 560.15 312.74 555.87 317.45"/>
        <path class="t" d="m555.87,317.45c-.99,1.1-1.77,2.38-2.28,3.77"/>
        <path class="t" d="m552.91,324.35c-.11,1.48.06,2.97.51,4.38"/>
        <polyline class="t" points="553.42 328.73 555.36 334.79 557.33 340.93"/>
        <path class="t" d="m557.33,340.93c.07.21.12.4.16.55"/>
        <polyline class="t" points="557.49 341.48 558.14 344.05 558.24 344.46"/>
        <path class="t" d="m558.24,344.46c.03.13.05.21.04.21"/>
        <line class="t" x1="278.83" y1="451.69" x2="278.84" y2="451.66"/>
        <path class="t" d="m553.59,321.22c-.36,1.01-.59,2.06-.68,3.13"/>
        <line class="t" x1="642.35" y1="313.56" x2="643.44" y2="318.57"/>
      </g>
    </g>
  </g>
</svg>