<?xml version="1.0" encoding="UTF-8"?>
<svg id="Layer_2" data-name="Layer 2" xmlns="http://www.w3.org/2000/svg" viewBox="0 0 208.37 270.9">
  <defs>
    <style>
      .cls-1 {
        fill: #474747;
      }

      .cls-1, .cls-2, .cls-3, .cls-4, .cls-5, .cls-6, .cls-7, .cls-8, .cls-9, .cls-10, .cls-11 {
        stroke-width: 0px;
      }

      .cls-2 {
        fill: #5e5e5e;
      }

      .cls-3, .cls-12, .cls-13 {
        fill: none;
      }

      .cls-12 {
        stroke: #000;
      }

      .cls-12, .cls-13 {
        stroke-linecap: round;
        stroke-linejoin: round;
      }

      .cls-4 {
        fill: #2d2d2d;
      }

      .cls-13 {
        stroke: #717171;
      }

      .cls-5 {
        fill: #3d3d3d;
      }

      .cls-6 {
        fill: #e2e2e2;
      }

      .cls-7 {
        fill: #4f4f4f;
      }

      .cls-8 {
        fill: #e84e0f;
      }

      .cls-9 {
        fill: #3a3a3a;
      }

      .cls-10 {
        fill: #424241;
      }

      .cls-11 {
        fill: #aaa;
      }
    </style>
  </defs>
  <g id="mounting_1_light" data-name="mounting 1 light">
    <g id="ARC">
      <g>
        <g>
          <polygon class="cls-6" points="207.87 145.93 207.87 158.96 82.3 202.48 .5 230.83 .5 217.81 207.87 145.93"/>
          <path class="cls-6" d="m82.52,175.24c-3.86-.03-7,1.05-7.01,2.42-.01,1.38,3.11,2.51,6.97,2.54,3.85.03,6.99-1.05,7-2.43.01-1.37-3.11-2.5-6.96-2.53Zm.17-22.27l125.18-43.39v36.35L.5,217.81v-36.35l82.19-28.49Z"/>
          <polygon class="cls-1" points="207.87 97.96 207.87 109.58 82.69 152.97 .5 181.46 .5 169.84 207.87 97.96"/>
          <polygon class="cls-2" points="207.87 92.33 207.87 97.96 .5 169.84 .5 164.21 207.87 92.33"/>
          <path class="cls-7" d="m52.03,132.98c1.81,1.78,3.71,3.18,5.55,4.13h0c2.62,1.36,5.12,1.79,7.11,1.1l54.48-18.88c1.8-.62,2.98-2.1,3.49-4.15.69-2.67.25-6.32-1.4-10.33l86.6-30.02v17.5L.5,164.21v-17.5l48.71-16.89c.19.25.39.49.58.72.72.88,1.47,1.69,2.24,2.44Z"/>
          <path class="cls-10" d="m207.87,70.45v4.38l-86.6,30.02c-.16-.4-.36-.79-.59-1.16-.06-.66-.28-1.26-.7-1.71-.18-.2-.43-.38-.71-.51-.14-.07-.28-.12-.43-.16l89.03-30.86Z"/>
          <path class="cls-4" d="m207.87,67.23v3.22l-89.03,30.86c-1.84-.53-4.01-.88-6.31-1.03l95.34-33.05Z"/>
          <path class="cls-9" d="m207.87,57.22v10.01l-95.34,33.05c-.31-.02-.62-.05-.93-.09-1.27-.15-2.41-.39-3.57-.63-.78-.16-1.55-.32-2.3-.45-.92-.16-1.82-.27-2.67-.27s-1.67.12-2.41.37l-17.59,6.1.02-2.1c1.79,0,3.58-.49,5.16-1.47.55-.34.88-.93.89-1.57v-1.8s118.74-41.15,118.74-41.15Z"/>
          <polygon class="cls-4" points="207.87 5.41 207.87 57.22 89.14 98.37 89.15 97.59 89.18 93.43 89.21 89.27 89.22 89.27 89.25 85.12 89.28 80.96 89.31 76.8 89.34 72.64 89.38 68.48 89.41 64.32 89.44 60.17 89.47 56.01 89.51 51.85 89.54 47.69 89.55 46.43 207.87 5.41"/>
          <path class="cls-8" d="m207.87,0v5.41l-118.32,41.02.02-2.9.04-4.93c1.13-.33,2.03-.76,2.61-1.25l.33-.29.21-.17c.48-.41.75-.86.75-1.33v-1.24S192.52,0,192.52,0h15.35Z"/>
          <path class="cls-4" d="m192.52,0l-99,34.32.07-8.55c0-.45-.24-.91-.73-1.35l-.41-.35-.13-.12c-1.38-1.21-4.71-2.09-8.6-2.12s-7.23.79-8.63,1.99l-.15.13-.39.33c-.54.46-.78.95-.75,1.42l-.08,9.7c0,.48.26.93.73,1.35l.24.2.3.27c.58.51,1.48.94,2.58,1.28h0s-.01,1.35-.01,1.35L.5,66.56V12.41L36.29,0h156.23Z"/>
          <path class="cls-5" d="m121.27,104.85c1.65,4.01,2.09,7.66,1.4,10.33-1.47-2.47-8.26-4.08-15.18-3.61-2.42.17-4.63.58-6.38,1.18l-6.51,2.26h-.01c.03-.11.04-.21.04-.32l.02-2.39c.02-2.29-5.18-4.18-11.61-4.23v-.48l18.16-6.29c.61-.21,1.28-.32,2.03-.35.74-.02,1.57.04,2.44.14.71.08,1.46.18,2.23.28,1.14.16,2.29.3,3.58.36.28.01.57.02.85.04,3.37.23,6.38.92,8.35,1.92.23.37.43.76.59,1.16Z"/>
          <path class="cls-2" d="m119.98,101.98c.42.45.64,1.05.7,1.71-1.97-1-4.98-1.69-8.35-1.92-.28-.02-.57-.03-.85-.04-1.29-.06-2.44-.2-3.58-.36-.77-.1-1.52-.2-2.23-.28-.87-.1-1.7-.16-2.44-.14-.75.03-1.42.14-2.03.35l-18.16,6.29.02-2.28,17.59-6.1c.74-.25,1.55-.37,2.41-.37s1.75.11,2.67.27c.75.13,1.52.29,2.3.45,1.16.24,2.3.48,3.57.63.31.04.62.07.93.09,2.3.15,4.47.5,6.31,1.03.15.04.29.09.43.16.28.13.53.31.71.51Z"/>
          <path class="cls-2" d="m122.67,115.18c-.51,2.05-1.69,3.53-3.49,4.15l-54.48,18.88c-1.99.69-4.49.26-7.11-1.1.98-.1,1.86-.29,2.59-.54l22.7-7.87,31.78-11.01c2.51-.87,2.52-2.31.03-3.22-2.5-.91-6.55-.94-9.06-.07l-22.7,7.87.03-3.22.91-.32c5.71-.11,10.28-1.69,10.72-3.72h.01l6.51-2.26c1.75-.6,3.96-1.01,6.38-1.18,6.92-.47,13.71,1.14,15.18,3.61Z"/>
          <path class="cls-4" d="m114.69,114.47c2.49.91,2.48,2.35-.03,3.22l-31.78,11.01.05-6.43,22.7-7.87c2.51-.87,6.56-.84,9.06.07Z"/>
          <path class="cls-11" d="m82.24,210.35c-3.41-.02-6.18.94-6.19,2.15,0,.49.45.95,1.21,1.31,1.12.55,2.92.91,4.94.93,2.03.01,3.83-.32,4.96-.85.77-.36,1.23-.81,1.23-1.3.01-1.21-2.74-2.21-6.15-2.24Zm.03-4.01c9.65.08,17.44,2.91,17.42,6.34-.03,3.43-7.87,6.15-17.52,6.07-9.62-.08-17.41-2.91-17.41-6.32v-.02c.03-3.43,7.87-6.15,17.51-6.07Z"/>
          <path class="cls-11" d="m99.69,212.68l-.02,2.61c-.03,3.43-7.87,6.15-17.52,6.07-9.64-.07-17.44-2.91-17.41-6.34l.02-2.59c0,3.41,7.79,6.24,17.41,6.32,9.65.08,17.49-2.64,17.52-6.07Z"/>
          <path class="cls-11" d="m83.04,108.07c6.43.05,11.63,1.94,11.61,4.23-.01,2.27-5.18,4.07-11.56,4.04v-1.94c2.13,0,3.99-.38,5.08-.96.64-.34,1.01-.75,1.01-1.19.01-1.21-2.74-2.21-6.15-2.24v-1.94Z"/>
          <path class="cls-11" d="m94.65,112.3l-.02,2.39c0,.11,0,.21-.04.32-.44,2.03-5.01,3.61-10.72,3.72-.3.01-.6.01-.91.01-6.43-.05-11.63-1.95-11.61-4.23l.02-2.39c0,2.29,5.19,4.17,11.61,4.22h.11c6.38.03,11.55-1.77,11.56-4.04Z"/>
          <path class="cls-11" d="m73.8,25.7c-.03-.47.21-.96.75-1.42l.39-.33c-.36.35-.56.72-.56,1.12,0,1.83,4.15,3.34,9.29,3.38s9.33-1.41,9.34-3.23c0-.4-.2-.79-.56-1.15l.41.35c.49.44.73.9.73,1.35,0,.45-.26.91-.76,1.33-2.09,1.78-7.88,2.59-12.93,1.81-3.74-.58-6.02-1.86-6.1-3.21Z"/>
          <path class="cls-11" d="m93.59,25.77l-.07,8.55v1.24c-.01.47-.28.92-.76,1.33l-.21.17c-1.6,1.17-5.02,1.97-8.96,1.94-3.92-.03-7.31-.86-8.9-2.05l-.24-.2c-.47-.42-.73-.87-.73-1.35l.08-9.7c.08,1.35,2.36,2.63,6.1,3.21,5.05.78,10.84-.03,12.93-1.81.5-.42.75-.88.76-1.33Z"/>
          <path class="cls-11" d="m92.45,24.07c.36.36.56.75.56,1.15-.01,1.82-4.2,3.27-9.34,3.23s-9.3-1.55-9.29-3.38c0-.4.2-.77.56-1.12l.15-.13c1.4-1.2,4.74-2.02,8.63-1.99s7.22.91,8.6,2.12l.13.12Zm-2.97,1.12c.01-1.14-2.58-2.08-5.77-2.1-3.19-.03-5.79.87-5.79,2.01,0,.45.4.87,1.1,1.22,1.04.51,2.74.86,4.66.88,2.2,0,4.13-.41,5.11-1.05.44-.28.69-.61.69-.96Z"/>
          <path class="cls-11" d="m92.49,227.74l-.08,10.17c-.45.29-.88.55-1.29.78h0c-.89.51-1.73.89-2.53,1.17-1.18.41-2.41.64-3.8.69l.08-10.17c1.4-.91,2.63-1.54,3.81-1.95s2.42-.64,3.81-.69Z"/>
          <path class="cls-11" d="m76.63,226.68c.22.23.53.44.93.61,1.06.49,2.7.8,4.54.82h.1c1.54,0,2.94-.21,3.97-.56.31-.1.59-.22.83-.35.59-.31.94-.7.94-1.11.01-1.15-2.59-2.09-5.81-2.12-3.21-.02-5.83.88-5.84,2.02,0,.24.12.48.34.69Zm5.51-3.95c.8.01,1.62.05,2.41.13,1.07.11,2.07.29,2.98.53h0s.36.09.36.09c.59.15,1.2.33,1.85.54.5.26.95.66,1.38,1.23.43.58.87,1.38,1.37,2.49-1.39.05-2.63.28-3.81.69s-2.41,1.04-3.81,1.95c-1.9-.62-3.58-1-5.19-1.16-1.6-.17-3.29-.14-5.19.09-.51-1.11-.95-1.91-1.38-2.48-.42-.58-.87-.98-1.38-1.23,1.4-.92,2.64-1.54,3.82-1.95.37-.13.74-.24,1.12-.33l.07-.02c1.58-.39,3.48-.59,5.4-.57Z"/>
          <path class="cls-11" d="m80.66,240.72c1.29.07,2.64,0,4.13-.17,1.39-.05,2.62-.28,3.8-.69.8-.28,1.64-.66,2.53-1.16-.07.21-.17.39-.27.56-.17.3-.38.55-.59.76-.7.72-1.49,1.11-2.35,1.44-.77.28-1.61.49-2.5.64-.85.14-1.75.22-2.67.24-.25.01-.5.01-.75.01-.68,0-1.35-.03-2.01-.11-.99-.1-1.93-.27-2.81-.51-.87-.25-1.67-.56-2.4-1.02-.43-.26-.83-.58-1.19-1.01-.25-.3-.48-.66-.64-1.08-.1-.24-.17-.51-.2-.78.09.15.19.28.28.41.43.58.88.98,1.39,1.23.71.24,1.39.44,2.05.6l.15.04c.17.04.33.08.5.12.21.05.42.1.64.13.2.04.41.08.62.11.2.04.41.06.62.09.2.03.4.05.6.07.35.04.71.07,1.07.08Z"/>
          <path class="cls-11" d="m89.61,38.6l-.04,4.93h-.87c-3.16,1.94-7.15,1.95-10.32.01h-.85s.03-3.69.03-3.69v-1.34c2.57.79,6.23,1.06,9.57.61.91-.13,1.74-.3,2.48-.52Z"/>
          <path class="cls-11" d="m89.57,43.53l-.02,2.9v1.26s-.88-.01-.88-.01c-3.16,1.95-7.15,1.96-10.32.02h-.85s.03-4.17.03-4.17h.85c3.17,1.95,7.16,1.94,10.32,0h.87Z"/>
          <path class="cls-11" d="m89.54,47.69l-.03,4.16h-.87c-3.17,1.94-7.16,1.95-10.33.01h-.85s.01-1.25.01-1.25l.03-2.92h.85c3.17,1.95,7.16,1.94,10.32-.01h.87Z"/>
          <path class="cls-11" d="m89.51,51.85l-.04,4.16h-.87c-3.16,1.94-7.15,1.95-10.32.01h-.85s.03-4.17.03-4.17h.85c3.17,1.95,7.16,1.94,10.33-.01h.87Z"/>
          <path class="cls-6" d="m82.52,175.24c3.85.03,6.97,1.16,6.96,2.53-.01,1.38-3.15,2.46-7,2.43l.04-4.96Z"/>
          <path class="cls-11" d="m83.71,23.09c3.19.02,5.78.96,5.77,2.1,0,.35-.25.68-.69.96l.09-.09c-.48.22-.9-.34-1.37-1.86-1.82.69-3.39.53-5.2-.54-1.33,1.34-2.48,1.74-3.81,1.33.19.59.36,1.03.52,1.33-.7-.35-1.1-.77-1.1-1.22,0-1.14,2.6-2.04,5.79-2.01Z"/>
          <path class="cls-11" d="m89.47,56.01l-.03,4.16h-.87c-3.16,1.94-7.15,1.94-10.32.01h-.85s.03-4.17.03-4.17h.85c3.17,1.95,7.16,1.94,10.32-.01h.87Z"/>
          <path class="cls-11" d="m89.44,60.17l-.03,4.15h-.87c-3.16,1.95-7.16,1.95-10.33.01h-.84s.03-4.16.03-4.16h.85c3.17,1.94,7.16,1.94,10.32-.01h.87Z"/>
          <path class="cls-11" d="m89.41,64.32l-.03,4.16h-.87c-3.17,1.94-7.16,1.95-10.33.01h-.85s.04-4.17.04-4.17h.84c3.17,1.95,7.17,1.95,10.33-.01h.87Z"/>
          <path class="cls-11" d="m89.38,68.48l-.04,4.16h-.87c-3.16,1.94-7.15,1.95-10.32.01h-.85s.03-4.17.03-4.17h.85c3.17,1.95,7.16,1.94,10.33,0h.87Z"/>
          <path class="cls-11" d="m89.34,72.64l-.03,4.16h-.87c-3.16,1.94-7.15,1.95-10.32,0h-.85s.03-4.17.03-4.17h.85c3.17,1.95,7.16,1.94,10.32,0h.87Z"/>
          <path class="cls-11" d="m89.31,76.8l-.03,4.16h-.87c-3.17,1.94-7.16,1.94-10.33.01h-.85s.04-4.17.04-4.17h.85c3.17,1.95,7.16,1.94,10.32-.01h.87Z"/>
          <path class="cls-11" d="m89.28,80.96l-.03,4.16h-.88c-3.16,1.94-7.15,1.94-10.32,0h-.85s.03-4.16.03-4.16h.85c3.17,1.94,7.16,1.94,10.33-.01h.87Z"/>
          <path class="cls-11" d="m89.25,85.12l-.03,4.15h-.88c-3.16,1.94-7.15,1.95-10.32.01h-.85s.03-4.17.03-4.17h.85c3.17,1.95,7.16,1.95,10.32,0h.88Z"/>
          <path class="cls-11" d="m89.21,89.27l-.03,4.16h-.87c-3.16,1.94-7.15,1.95-10.32.01h-.86s.04-4.17.04-4.17h.85c3.17,1.95,7.16,1.94,10.32-.01h.87Z"/>
          <path class="cls-11" d="m89.18,93.43l-.03,4.16h-.87c-3.17,1.94-7.16,1.95-10.33.01h-.85s.03-4.17.03-4.17h.86c3.17,1.95,7.16,1.94,10.32-.01h.87Z"/>
          <path class="cls-11" d="m83.03,110.01c3.41.03,6.16,1.03,6.15,2.24,0,.44-.37.85-1.01,1.19-1.18-.66-3.15-1.02-5.16-1.03l.02-2.4Z"/>
          <path class="cls-11" d="m78.47,102.07c-.19-.09-.37-.2-.55-.31-.52-.29-.84-.84-.84-1.44l.02-2.73h.85c3.17,1.95,7.16,1.94,10.33-.01h.87s-.01.79-.01.79v1.8c-.02.64-.35,1.23-.9,1.57-1.58.98-3.37,1.47-5.16,1.47-1.58,0-3.17-.38-4.61-1.14Z"/>
          <path class="cls-11" d="m88.88,26.06l-.09.09c-.98.64-2.91,1.06-5.11,1.05-1.92-.02-3.62-.37-4.66-.88-.16-.3-.33-.74-.52-1.33,1.33.41,2.48,0,3.81-1.33,1.81,1.07,3.38,1.23,5.2.54.47,1.52.89,2.08,1.37,1.86Z"/>
          <path class="cls-11" d="m82.24,210.35c3.41.03,6.16,1.03,6.15,2.24,0,.49-.46.94-1.23,1.3-1.2-.59-3.07-.91-4.95-.92l.03-2.62Z"/>
          <path class="cls-11" d="m82.13,223.97c3.22.03,5.82.97,5.81,2.12,0,.41-.35.8-.94,1.11.02-.1.02-.21,0-.31-.02-.13-.07-.25-.16-.37-.16-.24-.44-.47-.81-.67-.21-.11-.44-.21-.69-.3-.24-.09-.51-.17-.8-.25-.55-.14-1.16-.25-1.8-.31-.2-.02-.41-.03-.62-.04v-.98Z"/>
          <path class="cls-11" d="m87,226.89c.02.1.02.21,0,.31-.24.13-.52.25-.83.35-.22-.17-.49-.33-.8-.47-.88-.39-2.02-.64-3.26-.72v-1.41c.22.01.43.02.63.04.64.06,1.25.17,1.8.31.29.08.56.16.8.25.25.09.48.19.69.3.37.2.65.43.81.67.09.12.14.24.16.37Z"/>
          <path class="cls-11" d="m85.37,227.08c.31.14.58.3.8.47-1.03.35-2.43.56-3.97.56-.03,0-.07-.01-.1-.01v-1.74c1.25.08,2.39.33,3.27.72Z"/>
          <path class="cls-11" d="m84.87,230.38l-.08,10.17c-1.49.18-2.84.24-4.13.17-.36-.01-.72-.04-1.07-.08-.2-.02-.4-.04-.6-.07-.21-.03-.41-.06-.62-.09s-.41-.07-.62-.11-.43-.09-.64-.13c-.17-.04-.33-.08-.5-.12l-.15-.04c-.66-.16-1.34-.36-2.05-.6l.08-10.17c1.9-.23,3.59-.26,5.19-.09,1.61.16,3.29.54,5.19,1.16Z"/>
          <path class="cls-5" d="m88.17,113.44c-1.09.58-2.95.96-5.08.96h-.1l.02-1.99c2.01.01,3.98.37,5.16,1.03Z"/>
          <path class="cls-11" d="m83.09,114.4v1.94h-.11c-6.42-.05-11.61-1.93-11.61-4.22h0c0-.18.03-.35.09-.52.67-1.87,4.86-3.32,10.14-3.51h.01c.47-.02.95-.02,1.43-.02v1.94c-3.42-.02-6.19.94-6.2,2.15,0,.44.36.85.99,1.2,1.1.61,3,1.02,5.16,1.04h.1Z"/>
          <path class="cls-9" d="m83.08,103.21l-.02,2.1-36.88,12.78c-.74.26-1.42.66-2,1.16-.59.5-1.07,1.09-1.45,1.7-.3.49-.54,1-.69,1.49-.16.48-.24.95-.25,1.36,0,.2.02.39.05.57.03.13.07.25.12.37L.5,139.11v-10.02l77.97-27.02c1.44.76,3.03,1.14,4.61,1.14Z"/>
          <path class="cls-2" d="m83.06,105.31l-.02,2.28-1.43.5h-.01c-5.28.19-9.47,1.64-10.14,3.51l-24.73,8.58c-.61.21-1.16.52-1.66.93-.49.41-.92.9-1.26,1.42-.28.42-.5.86-.64,1.28-.15.42-.23.82-.23,1.17,0,.17.01.34.05.48.03.11.07.21.11.31.08.17.18.34.31.51-.71-.48-1.21-1-1.45-1.54-.05-.12-.09-.24-.12-.37-.03-.18-.05-.37-.05-.57,0-.41.09-.88.25-1.36.15-.49.39-1,.69-1.49.38-.61.86-1.2,1.45-1.7.58-.5,1.26-.9,2-1.16l36.88-12.78Z"/>
          <path class="cls-11" d="m83.03,110.01l-.02,2.4c-1.16-.01-2.33.1-3.37.33-.72.16-1.34.37-1.81.62-.63-.35-.99-.76-.99-1.2.01-1.21,2.78-2.17,6.19-2.15Z"/>
          <path class="cls-5" d="m83.01,112.41l-.02,1.99c-2.16-.02-4.06-.43-5.16-1.04.47-.25,1.09-.46,1.81-.62,1.04-.23,2.21-.34,3.37-.33Z"/>
          <path class="cls-5" d="m82.96,118.74v.31l-33.17,11.49c-.19-.23-.39-.47-.58-.72-.28-.36-.59-.71-.91-1.04-1.19-.62-2.39-1.21-3.59-1.78-.49-.23-.93-.47-1.3-.72-.13-.17-.23-.34-.31-.51-.04-.1-.08-.2-.11-.31-.04-.14-.05-.31-.05-.48,0-.35.08-.75.23-1.17.14-.42.36-.86.64-1.28.34-.52.77-1.01,1.26-1.42.5-.41,1.05-.72,1.66-.93l24.73-8.58c-.06.17-.09.34-.09.51h0s-.02,2.4-.02,2.4c-.02,2.28,5.18,4.18,11.61,4.23Z"/>
          <path class="cls-2" d="m82.96,119.05l-.03,3.22-30.9,10.71c-.77-.75-1.52-1.56-2.24-2.44l33.17-11.49Z"/>
          <path class="cls-4" d="m82.93,122.27l-.05,6.43-22.7,7.87c-.73.25-1.61.44-2.59.54h0c-1.84-.95-3.74-2.35-5.55-4.13l30.9-10.71Z"/>
          <path class="cls-6" d="m82.52,175.24l-.04,4.96c-3.86-.03-6.98-1.16-6.97-2.54.01-1.37,3.15-2.45,7.01-2.42Z"/>
          <path class="cls-11" d="m82.24,210.35l-.03,2.62c-1.28-.01-2.57.12-3.67.4-.49.12-.92.27-1.28.44-.76-.36-1.21-.82-1.21-1.31.01-1.21,2.78-2.17,6.19-2.15Z"/>
          <path class="cls-11" d="m82.13,223.97v.98c-.15-.01-.28-.02-.42-.02-.67-.02-1.32.01-1.93.08-.31.04-.61.08-.89.14-.61.12-1.08.29-1.43.46-.38.18-.64.39-.76.62-.09.15-.11.31-.07.45-.22-.21-.34-.45-.34-.69,0-1.14,2.63-2.04,5.84-2.02Z"/>
          <path class="cls-11" d="m82.12,224.95v1.41c-1.25-.08-2.39,0-3.27.24-.67.18-1.11.41-1.29.69-.4-.17-.71-.38-.93-.61-.04-.14-.02-.3.07-.45.12-.23.38-.44.76-.62.35-.17.82-.34,1.43-.46.28-.06.58-.1.89-.14.61-.07,1.26-.1,1.93-.08.14,0,.27.01.41.02Z"/>
          <path class="cls-11" d="m82.1,228.1h0c-1.84-.01-3.48-.32-4.54-.81.18-.28.62-.51,1.29-.69.88-.24,2.02-.32,3.26-.24v1.74Z"/>
          <path class="cls-4" d="m78.47,102.07L.5,129.09v-51.8l76.97-26.68v1.24s-.04,4.16-.04,4.16l-.03,4.16-.03,4.15-.04,4.16-.03,4.16-.03,4.16-.04,4.16-.03,4.15-.03,4.16-.04,4.16-.03,4.16-.02,2.73c0,.6.32,1.15.84,1.44.18.11.36.22.55.31Z"/>
          <polygon class="cls-8" points="77.56 39.85 77.53 43.53 77.5 47.69 77.47 50.61 .5 77.29 .5 66.56 77.56 39.85"/>
          <path class="cls-11" d="m74.49,229.31l-.08,10.17c-.51-.25-.96-.65-1.39-1.23-.09-.13-.19-.26-.28-.41-.34-.53-.7-1.2-1.09-2.07l.08-10.17c.51.25.96.65,1.38,1.23.43.57.87,1.37,1.38,2.48Z"/>
          <path class="cls-10" d="m49.21,129.82L.5,146.71v-4.39l44.21-15.32c1.2.57,2.4,1.16,3.59,1.78.32.33.63.68.91,1.04Z"/>
          <path class="cls-4" d="m43.41,126.28c.37.25.81.49,1.3.72L.5,142.32v-3.21l41.46-14.37c.24.54.74,1.06,1.45,1.54Z"/>
          <polygon class="cls-7" points="36.29 0 .5 12.41 .5 6.78 20.04 0 36.29 0"/>
          <polygon class="cls-9" points="20.04 0 .5 6.78 .5 0 20.04 0"/>
        </g>
        <g>
          <line class="cls-3" x1=".5" y1="66.56" x2="77.56" y2="39.85"/>
          <line class="cls-3" x1="93.52" y1="34.32" x2="192.52"/>
          <line class="cls-3" x1=".5" y1="77.29" x2="77.47" y2="50.61"/>
          <line class="cls-3" x1="89.55" y1="46.43" x2="207.87" y2="5.41"/>
          <path class="cls-12" d="m77.57,38.51c2.56.79,6.22,1.06,9.56.61.91-.13,1.74-.3,2.48-.52,1.13-.33,2.03-.76,2.61-1.25"/>
          <path class="cls-12" d="m74.99,37.22c.58.51,1.48.94,2.58,1.28"/>
          <path class="cls-12" d="m92.76,36.89c.48-.41.75-.86.75-1.33"/>
          <path class="cls-12" d="m74.69,36.95c1.59,1.19,4.98,2.02,8.9,2.05,3.94.03,7.36-.77,8.96-1.94"/>
          <path class="cls-12" d="m73.72,35.4c0,.48.26.93.73,1.35"/>
          <path class="cls-12" d="m74.55,24.28c-.54.46-.78.95-.75,1.42.08,1.35,2.36,2.63,6.1,3.21,5.05.78,10.84-.03,12.93-1.81.5-.42.75-.88.76-1.33,0-.45-.24-.91-.73-1.35"/>
          <path class="cls-12" d="m92.32,23.95c-1.38-1.21-4.71-2.09-8.6-2.12s-7.23.79-8.63,1.99"/>
          <path class="cls-12" d="m74.94,23.95c-.36.35-.56.72-.56,1.12,0,1.83,4.15,3.34,9.29,3.38s9.33-1.41,9.34-3.23c0-.4-.2-.79-.56-1.15"/>
          <path class="cls-12" d="m88.79,26.15l.09-.09"/>
          <path class="cls-12" d="m78.5,24.99c.19.59.36,1.03.52,1.33"/>
          <path class="cls-12" d="m78.5,24.99c1.33.41,2.48,0,3.81-1.33"/>
          <path class="cls-12" d="m87.51,24.2c-1.82.69-3.39.53-5.2-.54"/>
          <path class="cls-12" d="m88.88,26.06c-.48.22-.9-.34-1.37-1.86"/>
          <path class="cls-12" d="m88.79,26.15c.44-.28.69-.61.69-.96.01-1.14-2.58-2.08-5.77-2.1-3.19-.03-5.79.87-5.79,2.01,0,.45.4.87,1.1,1.22,1.04.51,2.74.86,4.66.88,2.2,0,4.13-.41,5.11-1.05Z"/>
          <polyline class="cls-12" points="89.61 38.6 89.57 43.53 89.55 46.43 89.54 47.69 89.51 51.85 89.47 56.01 89.44 60.17 89.41 64.32 89.38 68.48 89.34 72.64 89.31 76.8 89.28 80.96 89.25 85.12 89.22 89.27 89.21 89.27 89.18 93.43 89.15 97.59 89.14 98.37 89.13 100.17"/>
          <polyline class="cls-12" points="77.57 38.5 77.57 38.51 77.56 39.85 77.53 43.53 77.5 47.69 77.47 50.61 77.46 51.85 77.43 56.01 77.4 60.17 77.37 64.32 77.33 68.48 77.3 72.64 77.27 76.8 77.23 80.96 77.2 85.11 77.17 89.27 77.13 93.43 77.1 97.59 77.08 100.32"/>
          <polyline class="cls-12" points="74.99 37.22 74.69 36.95 74.45 36.75"/>
          <polyline class="cls-12" points="92.22 37.35 92.55 37.06 92.76 36.89"/>
          <polyline class="cls-12" points="93.59 25.77 93.52 34.32 93.51 35.56"/>
          <polyline class="cls-12" points="73.8 25.61 73.8 25.7 73.72 35.4"/>
          <polyline class="cls-12" points="92.32 23.95 92.45 24.07 92.86 24.42"/>
          <polyline class="cls-12" points="75.09 23.82 74.94 23.95 74.55 24.28"/>
          <path class="cls-12" d="m83.03,110.01c-3.41-.02-6.18.94-6.19,2.15,0,.44.36.85.99,1.2,1.1.61,3,1.02,5.16,1.04h.1c2.13,0,3.99-.38,5.08-.96.64-.34,1.01-.75,1.01-1.19.01-1.21-2.74-2.21-6.15-2.24Z"/>
          <path class="cls-12" d="m88.17,113.44c-1.18-.66-3.15-1.02-5.16-1.03-1.16-.01-2.33.1-3.37.33-.72.16-1.34.37-1.81.62"/>
          <path class="cls-12" d="m81.6,108.09c-5.28.19-9.47,1.64-10.14,3.51-.06.17-.09.34-.09.51"/>
          <path class="cls-12" d="m71.37,112.12c0,2.29,5.19,4.17,11.61,4.22h.11c6.38.03,11.55-1.77,11.56-4.04.02-2.29-5.18-4.18-11.61-4.23-.48,0-.96,0-1.43.02"/>
          <path class="cls-12" d="m71.35,114.51c-.02,2.28,5.18,4.18,11.61,4.23.31,0,.61,0,.91-.01,5.71-.11,10.28-1.69,10.72-3.72.03-.11.04-.21.04-.32"/>
          <line class="cls-12" x1="94.65" y1="112.3" x2="94.63" y2="114.69"/>
          <polyline class="cls-12" points="71.37 112.11 71.37 112.12 71.35 114.51"/>
          <path class="cls-12" d="m87.17,213.89h0c-1.2-.59-3.07-.91-4.95-.92-1.28-.01-2.57.12-3.67.4-.49.12-.92.27-1.28.44"/>
          <path class="cls-12" d="m82.24,210.35c-3.41-.02-6.18.94-6.19,2.15,0,.49.45.95,1.21,1.31,1.12.55,2.92.91,4.94.93,2.03.01,3.83-.32,4.96-.85.77-.36,1.23-.81,1.23-1.3.01-1.21-2.74-2.21-6.15-2.24Z"/>
          <path class="cls-12" d="m64.74,215.02c-.03,3.43,7.77,6.27,17.41,6.34,9.65.08,17.49-2.64,17.52-6.07"/>
          <path class="cls-12" d="m64.76,212.43c0,3.41,7.79,6.24,17.41,6.32,9.65.08,17.49-2.64,17.52-6.07.02-3.43-7.77-6.26-17.42-6.34-9.64-.08-17.48,2.64-17.51,6.07"/>
          <polyline class="cls-12" points="64.74 215.02 64.76 212.43 64.76 212.41"/>
          <line class="cls-12" x1="99.67" y1="215.29" x2="99.69" y2="212.68"/>
          <path class="cls-12" d="m77.11,240.24c.21.05.42.1.64.13.2.04.41.08.62.11.2.04.41.06.62.09"/>
          <path class="cls-12" d="m80.66,240.72c2.35.15,4.77-.03,6.74-.51"/>
          <path class="cls-12" d="m76.61,240.12c.17.04.33.08.5.12.21.04.43.09.64.13s.41.08.62.11.41.06.62.09c.2.03.4.05.6.07"/>
          <path class="cls-12" d="m74.41,239.48c.71.24,1.39.44,2.05.6"/>
          <path class="cls-12" d="m73.02,238.25c.43.58.88.98,1.39,1.23"/>
          <path class="cls-12" d="m87.54,223.39h-.01c-.91-.24-1.91-.42-2.98-.53"/>
          <path class="cls-12" d="m89.74,224.02c.5.26.95.66,1.38,1.23"/>
          <path class="cls-12" d="m87.89,223.48c.59.15,1.2.33,1.85.54"/>
          <path class="cls-12" d="m82.13,223.97c-3.21-.02-5.83.88-5.84,2.02,0,.24.12.48.34.69.22.23.53.44.93.61,1.06.49,2.7.8,4.54.82h.1c1.54,0,2.94-.21,3.97-.56.31-.1.59-.22.83-.35.59-.31.94-.7.94-1.11.01-1.15-2.59-2.09-5.81-2.12Z"/>
          <path class="cls-12" d="m76.63,226.7v-.02c-.04-.14-.02-.3.07-.45.12-.23.38-.44.76-.62.35-.17.82-.34,1.43-.46.28-.06.58-.1.89-.14.61-.07,1.26-.1,1.93-.08.14,0,.27.01.41.02.21.01.42.02.62.04.64.06,1.25.17,1.8.31.29.08.56.16.8.25.25.09.48.19.69.3.37.2.65.43.81.67.09.12.14.24.16.37.02.1.02.21,0,.31"/>
          <path class="cls-12" d="m77.56,227.3h0c.18-.29.62-.52,1.29-.7.88-.24,2.02-.32,3.26-.24s2.38.33,3.26.72c.31.14.58.3.8.47"/>
          <path class="cls-12" d="m82.2,228.11s-.07-.01-.1-.01c-.32-.02-.63-.03-.95-.03"/>
          <path class="cls-12" d="m84.55,222.86c-.79-.08-1.61-.12-2.41-.13-1.92-.02-3.82.18-5.4.57"/>
          <path class="cls-12" d="m92.49,227.74c-1.39.05-2.63.28-3.81.69"/>
          <path class="cls-12" d="m91.12,225.25c.43.58.87,1.38,1.37,2.49"/>
          <path class="cls-12" d="m88.68,228.43c-1.18.41-2.41,1.04-3.81,1.95"/>
          <path class="cls-12" d="m84.87,230.38c-1.9-.62-3.58-1-5.19-1.16"/>
          <path class="cls-12" d="m74.49,229.31c-.51-1.11-.95-1.91-1.38-2.48"/>
          <path class="cls-12" d="m79.68,229.22c-1.6-.17-3.29-.14-5.19.09"/>
          <path class="cls-12" d="m71.73,225.6c1.4-.92,2.64-1.54,3.82-1.95"/>
          <path class="cls-12" d="m73.11,226.83c-.42-.58-.87-.98-1.38-1.23"/>
          <path class="cls-12" d="m75.55,223.65c.37-.13.74-.24,1.12-.33"/>
          <path class="cls-12" d="m71.65,235.77c.39.87.75,1.54,1.09,2.07.09.15.19.28.28.41"/>
          <path class="cls-12" d="m84.79,240.55c1.39-.05,2.62-.28,3.8-.69"/>
          <path class="cls-12" d="m79.59,240.64c.35.04.71.07,1.07.08,1.29.07,2.64,0,4.13-.17"/>
          <path class="cls-12" d="m91.12,238.69c.41-.23.84-.49,1.29-.78"/>
          <path class="cls-12" d="m88.59,239.86c.8-.28,1.64-.66,2.53-1.16"/>
          <line class="cls-12" x1="84.79" y1="240.55" x2="84.87" y2="230.38"/>
          <line class="cls-12" x1="92.41" y1="237.91" x2="92.49" y2="227.74"/>
          <line class="cls-12" x1="71.65" y1="235.77" x2="71.73" y2="225.6"/>
          <line class="cls-12" x1="74.41" y1="239.48" x2="74.49" y2="229.31"/>
          <path class="cls-12" d="m72.74,237.84c.03.27.1.54.2.78.16.42.39.78.64,1.08.36.43.76.75,1.19,1.01.73.46,1.53.77,2.4,1.02.88.24,1.82.41,2.81.51.66.08,1.33.11,2.01.11.25,0,.5,0,.75-.01.92-.02,1.82-.1,2.67-.24.89-.15,1.73-.36,2.5-.64.86-.33,1.65-.72,2.35-1.44.21-.21.42-.46.59-.76.1-.17.2-.35.27-.56h0"/>
          <polyline class="cls-12" points="76.61 240.12 76.46 240.08 76.25 240.03"/>
          <line class="cls-12" x1="87.53" y1="223.38" x2="87.89" y2="223.48"/>
          <line class="cls-12" x1="76.74" y1="223.3" x2="76.67" y2="223.32"/>
          <line class="cls-12" x1="87.4" y1="240.21" x2="87.48" y2="240.19"/>
          <path class="cls-12" d="m82.52,175.24c-3.86-.03-7,1.05-7.01,2.42-.01,1.38,3.11,2.51,6.97,2.54,3.85.03,6.99-1.05,7-2.43.01-1.37-3.11-2.5-6.96-2.53Z"/>
          <line class="cls-12" x1="207.87" y1="145.93" x2=".5" y2="217.81"/>
          <polyline class="cls-12" points="207.87 158.96 82.3 202.48 .5 230.83"/>
          <polyline class="cls-12" points=".5 181.46 82.69 152.97 207.87 109.58"/>
          <polyline class="cls-12" points="83.08 103.21 83.06 105.31 83.04 107.59 83.04 108.07 83.03 110.01 83.01 112.41 82.99 114.4"/>
          <polyline class="cls-12" points="82.96 118.74 82.96 119.05 82.93 122.27 82.88 128.7"/>
          <polyline class="cls-12" points="82.69 152.97 82.52 175.24 82.48 180.2"/>
          <polyline class="cls-12" points="82.3 202.48 82.27 206.34 82.24 210.35 82.21 212.97 82.2 214.74"/>
          <polyline class="cls-12" points="82.15 221.36 82.14 222.73 82.13 223.97 82.12 224.95 82.11 226.36 82.1 228.1 82.1 228.11"/>
          <line class="cls-12" x1="81.99" y1="242.35" x2="81.88" y2="256.45"/>
          <polygon class="cls-3" points="207.87 158.96 207.87 270.9 .5 270.9 .5 230.83 .5 217.81 .5 181.46 .5 169.84 .5 164.21 .5 146.71 .5 142.32 .5 139.11 .5 129.09 .5 77.29 .5 66.56 .5 12.41 .5 6.78 .5 0 20.04 0 36.29 0 192.52 0 207.87 0 207.87 5.41 207.87 57.22 207.87 67.23 207.87 70.45 207.87 74.83 207.87 92.33 207.87 97.96 207.87 109.58 207.87 145.93 207.87 158.96"/>
          <path class="cls-12" d="m77.92,101.76c.18.11.36.22.55.31,1.44.76,3.03,1.14,4.61,1.14,1.79,0,3.58-.49,5.16-1.47"/>
          <path class="cls-12" d="m77.08,100.32c0,.6.32,1.15.84,1.44"/>
          <path class="cls-12" d="m88.24,101.74c.55-.34.88-.93.89-1.57"/>
          <path class="cls-13" d="m77.95,97.6c3.17,1.94,7.16,1.93,10.33-.02"/>
          <path class="cls-13" d="m77.99,93.44c3.17,1.94,7.16,1.93,10.32-.02"/>
          <path class="cls-13" d="m78.02,89.28c3.17,1.94,7.16,1.93,10.32-.02"/>
          <path class="cls-13" d="m78.05,85.12c3.17,1.94,7.16,1.94,10.32-.01"/>
          <path class="cls-13" d="m78.08,80.97c3.17,1.93,7.16,1.93,10.33-.02"/>
          <path class="cls-13" d="m78.12,76.81c3.17,1.94,7.16,1.93,10.32-.02"/>
          <path class="cls-13" d="m78.15,72.65c3.17,1.94,7.16,1.93,10.32-.02"/>
          <path class="cls-13" d="m78.18,68.49c3.17,1.94,7.16,1.93,10.33-.02"/>
          <path class="cls-13" d="m78.21,64.33c3.17,1.94,7.17,1.94,10.33-.02"/>
          <path class="cls-13" d="m78.25,60.18c3.17,1.93,7.16,1.93,10.32-.02"/>
          <path class="cls-13" d="m78.28,56.02c3.17,1.94,7.16,1.93,10.32-.02"/>
          <path class="cls-13" d="m78.31,51.86c3.17,1.94,7.16,1.93,10.33-.02"/>
          <path class="cls-13" d="m78.35,47.7c3.17,1.94,7.16,1.93,10.32-.02"/>
          <path class="cls-13" d="m78.38,43.54c3.17,1.94,7.16,1.93,10.32-.02"/>
        </g>
      </g>
    </g>
  </g>
</svg>