<?xml version="1.0" encoding="UTF-8"?>
<svg id="Layer_2" data-name="Layer 2" xmlns="http://www.w3.org/2000/svg" viewBox="0 0 208.37 270.89">
  <defs>
    <style>
      .cls-1 {
        fill: #474747;
      }

      .cls-1, .cls-2, .cls-3, .cls-4, .cls-5, .cls-6, .cls-7, .cls-8, .cls-9, .cls-10, .cls-11 {
        stroke-width: 0px;
      }

      .cls-2 {
        fill: #5e5e5e;
      }

      .cls-12 {
        stroke: #fff;
      }

      .cls-12, .cls-3, .cls-13 {
        fill: none;
      }

      .cls-12, .cls-13 {
        stroke-linecap: round;
        stroke-linejoin: round;
      }

      .cls-4 {
        fill: #2d2d2d;
      }

      .cls-13 {
        stroke: #717171;
      }

      .cls-5 {
        fill: #3d3d3d;
      }

      .cls-6 {
        fill: #e2e2e2;
      }

      .cls-7 {
        fill: #4f4f4f;
      }

      .cls-8 {
        fill: #e84e0f;
      }

      .cls-9 {
        fill: #3a3a3a;
      }

      .cls-10 {
        fill: #424241;
      }

      .cls-11 {
        fill: #aaa;
      }
    </style>
  </defs>
  <g id="mounting_1_dark" data-name="mounting 1 dark">
    <g id="ARC">
      <g>
        <g>
          <path class="cls-4" d="m207.87,70.45l-89.03,30.86c-1.84-.53-4.01-.88-6.31-1.03l95.34-33.05v3.22Z"/>
          <path class="cls-8" d="m192.52,0h15.35v5.41l-118.32,41.01.02-2.89.04-4.93h0c1.13-.34,2.03-.76,2.6-1.25l.49-.41.06-.05c.48-.41.75-.86.75-1.33v-1.24S192.52,0,192.52,0Z"/>
          <path class="cls-10" d="m207.87,74.83l-86.6,30.02c-.17-.4-.36-.79-.59-1.16-.07-.66-.28-1.26-.7-1.71-.19-.2-.43-.38-.71-.51-.14-.07-.28-.12-.43-.16l89.03-30.86v4.38Z"/>
          <path class="cls-4" d="m114.68,114.47c2.5.9,2.49,2.34-.02,3.21l-31.78,11.02.05-6.44,22.7-7.86c2.51-.87,6.56-.84,9.05.07Z"/>
          <polygon class="cls-4" points="207.87 57.22 89.14 98.37 89.15 97.59 89.18 93.43 89.21 89.27 89.25 85.11 89.28 80.95 89.31 76.8 89.34 72.64 89.38 68.48 89.41 64.32 89.44 60.16 89.47 56.01 89.51 51.85 89.54 47.69 89.55 46.42 207.87 5.41 207.87 57.22"/>
          <path class="cls-2" d="m111.48,101.72c-1.29-.05-2.44-.2-3.58-.35-.77-.1-1.52-.2-2.23-.28-.88-.1-1.7-.16-2.44-.14-.75.02-1.42.13-2.03.34l-18.16,6.3.02-2.28,17.59-6.1c.74-.26,1.55-.37,2.41-.37s1.75.11,2.67.27c.75.13,1.52.29,2.3.45,1.15.24,2.3.48,3.57.63.31.04.62.06.93.09,2.3.15,4.47.5,6.31,1.03.15.04.29.09.43.16.28.13.52.31.71.51.42.45.63,1.05.7,1.71-1.98-1.01-4.98-1.7-8.35-1.92-.29-.02-.57-.03-.85-.05Z"/>
          <path class="cls-5" d="m101.2,101.29c.61-.21,1.28-.32,2.03-.34.74-.02,1.56.04,2.44.14.71.08,1.46.18,2.23.28,1.14.15,2.29.3,3.58.35.28.02.56.03.85.05,3.37.22,6.37.91,8.35,1.92.23.37.42.76.59,1.16,1.64,4.01,2.08,7.66,1.4,10.33-1.47-2.47-8.27-4.08-15.18-3.61-2.42.16-4.63.57-6.38,1.18l-6.51,2.26h-.01c.03-.11.04-.21.04-.32l.02-2.4c.02-2.28-5.18-4.17-11.61-4.22v-.48l18.16-6.3Z"/>
          <path class="cls-11" d="m88.68,228.43c1.18-.41,2.42-.64,3.81-.69l-.08,10.17c-.45.29-.88.55-1.29.78h0c-.89.51-1.73.89-2.53,1.17-1.18.4-2.41.63-3.8.69l.08-10.17c1.39-.91,2.63-1.54,3.81-1.95Z"/>
          <path class="cls-6" d="m82.47,180.2l.04-4.96c3.86.03,6.98,1.16,6.97,2.53s-3.15,2.46-7.01,2.43Z"/>
          <path class="cls-5" d="m83.01,112.4c2.02.02,3.99.39,5.16,1.04-1.09.58-2.95.96-5.08.96h-.1l.02-2Z"/>
          <path class="cls-11" d="m84.87,230.38l-.08,10.17c-1.5.18-2.86.24-4.15.17-.35-.02-.7-.04-1.05-.08-.27-.03-.53-.06-.79-.1-.26-.03-.51-.07-.76-.12h-.01c-.18-.03-.35-.06-.52-.1-.13-.03-.27-.06-.41-.09-.16-.03-.32-.07-.49-.11l-.36-.09c-.59-.16-1.21-.34-1.85-.55l.08-10.17c1.91-.24,3.59-.26,5.2-.1,1.61.17,3.29.54,5.19,1.17Z"/>
          <path class="cls-11" d="m94.65,112.29c-.02,2.28-5.18,4.08-11.56,4.05v-1.94c2.13,0,3.99-.38,5.08-.96.64-.34,1.01-.75,1.01-1.19.01-1.21-2.75-2.21-6.15-2.24v-1.94c6.44.05,11.64,1.94,11.62,4.22Z"/>
          <path class="cls-9" d="m83.06,105.31l.02-2.11c1.79,0,3.58-.49,5.16-1.47.55-.33.88-.92.89-1.57v-1.79s118.74-41.15,118.74-41.15v10.01l-95.34,33.05c-.31-.03-.62-.05-.93-.09-1.27-.15-2.42-.39-3.57-.63-.78-.16-1.55-.32-2.3-.45-.92-.16-1.82-.27-2.67-.27s-1.67.11-2.41.37l-17.59,6.1Z"/>
          <path class="cls-11" d="m83.03,110.01c3.4.03,6.16,1.03,6.15,2.24,0,.44-.37.85-1.01,1.19-1.17-.65-3.14-1.02-5.16-1.04l.02-2.39Z"/>
          <path class="cls-2" d="m82.96,119.04l-.03,3.22-30.9,10.71c-.77-.74-1.51-1.55-2.24-2.43l33.17-11.5Z"/>
          <path class="cls-5" d="m82.99,114.4c-2.17-.02-4.07-.43-5.16-1.04.47-.25,1.09-.47,1.81-.63,1.04-.23,2.22-.33,3.37-.33l-.02,2Z"/>
          <path class="cls-11" d="m82.74,224.99c-.2-.02-.41-.03-.62-.04v-.98c3.23.02,5.82.97,5.82,2.11,0,.42-.35.8-.94,1.12.02-.11.02-.21,0-.31-.02-.13-.08-.25-.16-.38-.16-.23-.44-.46-.82-.66-.2-.11-.43-.21-.68-.3-.24-.09-.51-.18-.8-.25-.55-.14-1.16-.25-1.8-.31Z"/>
          <path class="cls-6" d="m82.47,180.2c-3.85-.03-6.97-1.17-6.96-2.54s3.15-2.45,7-2.42l-.04,4.96Z"/>
          <path class="cls-11" d="m82.2,228.11s-.07,0-.1,0v-1.74c1.25.08,2.39.33,3.27.72.31.14.58.3.79.47-1.03.35-2.42.56-3.96.56Z"/>
          <path class="cls-11" d="m82.24,210.35c3.41.03,6.16,1.03,6.15,2.24,0,.49-.46.94-1.23,1.29-1.21-.58-3.07-.9-4.95-.92l.03-2.61Z"/>
          <path class="cls-11" d="m82.11,226.36v-1.41c.22.01.43.02.63.04.64.06,1.25.17,1.8.31.29.07.56.16.8.25.25.09.48.19.68.3.38.2.66.43.82.66.08.13.14.25.16.38.02.1.02.2,0,.31-.24.13-.52.25-.84.35-.21-.17-.48-.33-.79-.47-.88-.39-2.02-.64-3.26-.72Z"/>
          <path class="cls-11" d="m82.1,228.1h0c-.32,0-.64-.01-.94-.03.32,0,.63.01.94.03Z"/>
          <path class="cls-11" d="m81.14,228.07c-1.45-.1-2.71-.38-3.58-.78.16-.27.61-.52,1.29-.7.88-.23,2.02-.31,3.26-.23v1.74c-.32-.02-.63-.03-.95-.03h-.02Z"/>
          <path class="cls-11" d="m78.05,85.12h-.85s.03-4.17.03-4.17h.85c3.17,1.95,7.16,1.95,10.33-.01h.87s-.03,4.17-.03,4.17h-.88c-3.16,1.94-7.15,1.95-10.32.01Z"/>
          <path class="cls-11" d="m83.01,112.4c-1.15,0-2.33.1-3.37.33-.72.16-1.34.38-1.81.63-.63-.35-.99-.77-.99-1.21.01-1.21,2.78-2.17,6.19-2.14l-.02,2.39Z"/>
          <path class="cls-11" d="m79.59,240.64c-.26-.03-.52-.06-.79-.1.26.04.52.07.79.1Z"/>
          <path class="cls-11" d="m82.21,212.96c-1.28-.01-2.57.12-3.67.4-.49.13-.91.28-1.28.45-.76-.37-1.21-.83-1.21-1.32.01-1.21,2.78-2.17,6.19-2.14l-.03,2.61Z"/>
          <path class="cls-11" d="m78.04,240.42c.25.05.5.09.76.12-.25-.03-.5-.07-.76-.12Z"/>
          <path class="cls-11" d="m79.02,26.32c-.16-.3-.33-.74-.52-1.34,1.32.42,2.48.02,3.81-1.32,1.81,1.07,3.38,1.23,5.19.54.48,1.52.89,2.08,1.38,1.85-.03.04-.05.06-.09.1h-.01c-.99.64-2.9,1.06-5.1,1.05-1.91-.02-3.61-.36-4.66-.88Z"/>
          <path class="cls-11" d="m77.1,97.59l.03-4.16h.85c3.17,1.95,7.16,1.94,10.33-.01h.87s-.03,4.17-.03,4.17h-.87c-3.17,1.94-7.16,1.94-10.33.01h-.85Z"/>
          <path class="cls-11" d="m77.91,25.1c.01-1.14,2.61-2.04,5.8-2.01,3.19.02,5.77.96,5.77,2.1,0,.35-.25.68-.69.96.04-.04.06-.06.09-.1-.49.23-.9-.33-1.38-1.85-1.81.69-3.38.53-5.19-.54-1.33,1.34-2.49,1.74-3.81,1.32.19.6.36,1.04.52,1.34-.7-.35-1.11-.77-1.11-1.22Z"/>
          <path class="cls-11" d="m76.63,226.68c-.04-.14-.02-.3.06-.45.13-.23.39-.44.77-.63.35-.17.82-.33,1.43-.45.28-.06.58-.11.89-.14.61-.07,1.26-.1,1.93-.08.14,0,.27,0,.41.02v1.41c-1.25-.08-2.39,0-3.27.23-.68.18-1.13.43-1.29.7-.4-.18-.71-.38-.93-.61Z"/>
          <path class="cls-11" d="m77.95,97.6c3.17,1.93,7.16,1.93,10.33-.02h.87s-.01.79-.01.79v1.79c-.02.65-.35,1.24-.9,1.57-1.58.98-3.37,1.47-5.16,1.47-1.58,0-3.17-.38-4.61-1.14-.19-.09-.37-.2-.55-.31-.52-.28-.84-.84-.84-1.43l.02-2.73h.85Z"/>
          <path class="cls-11" d="m78.03,240.42c-.17-.03-.34-.06-.52-.1.17.04.34.07.52.1Z"/>
          <path class="cls-11" d="m88.34,89.26c-3.16,1.95-7.15,1.96-10.32.02h-.85s.03-4.17.03-4.17h.85c3.17,1.95,7.16,1.94,10.32,0h.88s-.04,4.17-.04,4.17h-.87Z"/>
          <path class="cls-11" d="m83.71,23.09c-3.19-.03-5.79.87-5.8,2.01,0,.45.41.87,1.11,1.22,1.05.52,2.75.86,4.66.88,2.2,0,4.11-.41,5.1-1.05h.01c.44-.28.69-.61.69-.96,0-1.14-2.58-2.08-5.77-2.1Zm-9.33,1.98c0-.39.2-.77.56-1.12l.03-.02c1.32-1.26,4.75-2.13,8.75-2.1,3.89.03,7.22.91,8.6,2.12l.13.12c.36.35.56.74.56,1.14-.02,1.83-4.2,3.28-9.34,3.24-5.15-.04-9.3-1.55-9.29-3.38Z"/>
          <path class="cls-11" d="m77.53,43.53h.85c3.17,1.95,7.16,1.94,10.32,0h.87s-.02,2.9-.02,2.9v1.27s-.88,0-.88,0c-3.17,1.95-7.16,1.96-10.33.02h-.84s.03-4.17.03-4.17Z"/>
          <path class="cls-11" d="m78.31,51.86h-.85s.01-1.25.01-1.25l.03-2.92h.84c3.17,1.95,7.16,1.94,10.33,0h.87s-.03,4.17-.03,4.17h-.88c-3.16,1.94-7.15,1.95-10.32,0Z"/>
          <path class="cls-11" d="m77.43,56.01l.03-4.16h.85c3.17,1.95,7.16,1.94,10.32-.01h.88s-.04,4.17-.04,4.17h-.87c-3.16,1.94-7.15,1.94-10.32.01h-.85Z"/>
          <path class="cls-11" d="m77.4,60.16l.03-4.15h.85c3.17,1.94,7.16,1.94,10.32-.01h.87s-.03,4.16-.03,4.16h-.87c-3.16,1.94-7.15,1.95-10.32.01h-.85Z"/>
          <path class="cls-11" d="m77.4,60.16h.85c3.17,1.95,7.16,1.94,10.32-.01h.87s-.03,4.17-.03,4.17h-.87c-3.17,1.94-7.16,1.95-10.33.01h-.84s.03-4.17.03-4.17Z"/>
          <path class="cls-11" d="m77.57,38.5c2.56.79,6.22,1.07,9.56.61.91-.13,1.74-.3,2.48-.52h0s-.04,4.94-.04,4.94h-.87c-3.16,1.94-7.15,1.95-10.32.01h-.85s.03-3.69.03-3.69v-1.35Z"/>
          <path class="cls-11" d="m77.37,64.32h.84c3.17,1.95,7.16,1.94,10.33-.01h.87s-.03,4.17-.03,4.17h-.88c-3.16,1.94-7.15,1.95-10.32.01h-.85s.04-4.17.04-4.17Z"/>
          <path class="cls-11" d="m77.33,68.48h.85c3.17,1.95,7.16,1.94,10.32-.01h.88s-.04,4.17-.04,4.17h-.87c-3.16,1.94-7.15,1.95-10.32.01h-.85s.03-4.17.03-4.17Z"/>
          <path class="cls-11" d="m88.44,76.79c-3.16,1.95-7.15,1.95-10.32.02h-.85s.03-4.17.03-4.17h.85c3.17,1.95,7.16,1.94,10.32-.01h.87s-.03,4.17-.03,4.17h-.87Z"/>
          <path class="cls-11" d="m88.31,93.42c-3.17,1.95-7.16,1.96-10.33.02h-.85s.04-4.17.04-4.17h.85c3.17,1.95,7.16,1.94,10.32-.01h.87s-.03,4.17-.03,4.17h-.87Z"/>
          <path class="cls-11" d="m78.12,76.81c3.17,1.93,7.16,1.93,10.32-.02h.87s-.03,4.16-.03,4.16h-.87c-3.17,1.95-7.16,1.95-10.33.01h-.85s.04-4.16.04-4.16h.85Z"/>
          <path class="cls-11" d="m77.46,225.6c-.38.19-.64.4-.77.63-.08.15-.1.31-.06.45-.22-.21-.34-.44-.34-.69.01-1.14,2.63-2.05,5.84-2.02v.98c-.15-.01-.28-.02-.42-.02-.67-.02-1.32,0-1.93.08-.31.03-.61.08-.89.14-.61.12-1.08.28-1.43.45Z"/>
          <path class="cls-11" d="m79.68,229.21c-1.61-.16-3.29-.14-5.2.1-.5-1.11-.94-1.91-1.37-2.49-.43-.57-.87-.97-1.38-1.23,1.4-.91,2.64-1.54,3.82-1.94.37-.13.74-.24,1.11-.33l.08-.02c1.58-.39,3.47-.59,5.4-.57.81.01,1.61.05,2.41.13,1.07.11,2.07.29,2.98.52h.01l.35.1c.59.15,1.2.33,1.84.54.51.25.96.66,1.39,1.23.42.58.87,1.38,1.37,2.49-1.39.05-2.63.28-3.81.69s-2.42,1.04-3.81,1.95c-1.9-.63-3.58-1-5.19-1.17Zm-3.05-2.53c.22.23.53.43.93.61.87.4,2.13.68,3.58.78h.02c.3.02.62.04.94.04h.1c1.54,0,2.93-.21,3.96-.56.32-.1.6-.22.84-.35.59-.32.94-.7.94-1.12,0-1.14-2.59-2.09-5.81-2.11-3.21-.03-5.83.88-5.84,2.02,0,.25.12.48.34.69Z"/>
          <path class="cls-11" d="m83.59,39c-4.02-.04-7.47-.91-9.01-2.15l-.13-.11c-.47-.41-.73-.87-.73-1.34l.07-9.78c0,1.38,2.3,2.7,6.11,3.29,5.05.78,10.84-.04,12.93-1.82.5-.42.76-.87.76-1.33l-.07,8.56v1.24c-.01.47-.28.92-.76,1.33l-.06.05c-1.52,1.24-5.03,2.09-9.11,2.06Z"/>
          <path class="cls-11" d="m73.79,25.61c.01-.45.25-.9.76-1.33l.39-.33c-.36.35-.56.73-.56,1.12-.01,1.83,4.14,3.34,9.29,3.38,5.14.04,9.32-1.41,9.34-3.24,0-.4-.2-.79-.56-1.14l.4.35c.49.43.74.89.74,1.34s-.26.91-.76,1.33c-2.09,1.78-7.88,2.6-12.93,1.82-3.81-.59-6.11-1.91-6.11-3.29h0Z"/>
          <path class="cls-4" d="m74.55,24.28c-.51.43-.75.88-.76,1.33h0s-.07,9.79-.07,9.79c0,.47.26.93.73,1.34l.13.11.4.36c.59.51,1.49.95,2.59,1.29v1.35S.5,66.56.5,66.56V12.4L36.28,0h156.24l-99,34.32.07-8.56c0-.45-.25-.91-.74-1.34l-.4-.35-.13-.12c-1.38-1.21-4.71-2.09-8.6-2.12-4-.03-7.43.84-8.75,2.1l-.03.02-.39.33Z"/>
          <path class="cls-11" d="m82.96,118.73c-6.43-.05-11.63-1.94-11.61-4.22l.02-2.39c0,2.29,5.19,4.17,11.61,4.22h.11c6.38.03,11.54-1.77,11.56-4.05l-.02,2.4c0,.11-.01.21-.04.32-.46,2.13-5.5,3.77-11.63,3.72Z"/>
          <path class="cls-11" d="m76.25,240.03l.36.09c.17.04.33.08.49.11.13.04.27.07.41.09.18.04.35.07.52.1h.01c.26.05.51.09.76.12.27.04.53.07.79.1.35.04.7.06,1.05.08,1.29.07,2.65.01,4.15-.17,1.39-.06,2.62-.29,3.8-.69.8-.28,1.64-.66,2.53-1.16-.07.21-.17.39-.27.56-.17.29-.38.54-.59.76-.7.71-1.49,1.11-2.36,1.43-.76.29-1.6.5-2.49.64-.85.15-1.76.23-2.67.25-.25.01-.5.01-.75.01-.68-.01-1.35-.04-2.01-.11-.99-.1-1.93-.27-2.81-.52-.87-.24-1.67-.55-2.4-1.01-.43-.27-.83-.58-1.2-1.01-.24-.3-.47-.66-.64-1.08-.09-.24-.16-.5-.19-.77.1.15.19.28.28.4.43.57.88.98,1.38,1.23.64.21,1.26.39,1.85.55Z"/>
          <path class="cls-11" d="m73.02,238.25c-.09-.12-.18-.25-.28-.4h0c-.35-.54-.7-1.22-1.09-2.08l.08-10.18c.51.26.95.66,1.38,1.23.43.58.87,1.38,1.37,2.49l-.08,10.17c-.5-.25-.95-.66-1.38-1.23Z"/>
          <path class="cls-11" d="m76.84,112.15c0,.44.36.86.99,1.21,1.09.61,2.99,1.02,5.16,1.04h.1v1.94h-.11c-6.42-.05-11.61-1.93-11.61-4.22h0c0-.18.03-.35.09-.52.67-1.87,4.86-3.32,10.14-3.51h0c.47-.02.95-.02,1.43-.02v1.94c-3.42-.03-6.19.93-6.2,2.14Z"/>
          <path class="cls-4" d="m60.18,136.57c-.72.25-1.61.43-2.58.54-1.85-.95-3.75-2.35-5.57-4.14l30.9-10.71-.05,6.44-22.7,7.87Z"/>
          <polygon class="cls-2" points=".5 164.2 207.87 92.33 207.87 97.96 .5 169.83 .5 164.2"/>
          <polygon class="cls-1" points="82.69 152.97 .5 181.46 .5 169.83 207.87 97.96 207.87 109.58 82.69 152.97"/>
          <path class="cls-5" d="m46.72,120.18l24.74-8.58c-.06.17-.09.34-.09.51h0s-.02,2.4-.02,2.4c-.02,2.28,5.18,4.17,11.61,4.22v.31l-33.17,11.5c-.19-.23-.39-.47-.58-.72-.28-.36-.59-.71-.92-1.04-1.18-.62-2.38-1.21-3.59-1.78-.48-.22-.91-.46-1.27-.71-.14-.17-.25-.35-.33-.53-.04-.09-.08-.19-.11-.3-.04-.15-.05-.31-.05-.48,0-.35.08-.75.22-1.17.15-.42.37-.86.64-1.28.35-.52.78-1.02,1.27-1.42.5-.41,1.05-.73,1.65-.93Z"/>
          <path class="cls-11" d="m64.76,212.41c.02-3.43,7.86-6.15,17.51-6.07,9.64.07,17.44,2.91,17.41,6.34-.02,3.43-7.86,6.14-17.51,6.07-9.62-.08-17.41-2.91-17.41-6.32v-.02Zm12.5,1.4c1.12.55,2.92.91,4.94.92,2.03.02,3.83-.32,4.96-.85.77-.35,1.23-.8,1.23-1.29.01-1.21-2.74-2.21-6.15-2.24s-6.18.93-6.19,2.14c0,.49.45.95,1.21,1.32Z"/>
          <polygon class="cls-8" points="77.47 50.61 .5 77.29 .5 66.56 77.56 39.85 77.53 43.53 77.5 47.69 77.47 50.61"/>
          <path class="cls-11" d="m64.76,212.43c0,3.41,7.79,6.24,17.41,6.32,9.65.07,17.49-2.64,17.51-6.07l-.02,2.61c-.02,3.43-7.86,6.15-17.51,6.07-9.64-.08-17.44-2.92-17.41-6.34l.02-2.59Z"/>
          <polygon class="cls-6" points=".5 217.81 207.87 145.93 207.87 158.96 82.3 202.48 .5 230.83 .5 217.81"/>
          <path class="cls-6" d="m75.51,177.66c-.01,1.37,3.11,2.51,6.96,2.54,3.86.03,7-1.06,7.01-2.43s-3.11-2.5-6.97-2.53c-3.85-.03-6.99,1.05-7,2.42Zm132.36-31.73L.5,217.81v-36.35l82.19-28.49,125.18-43.39v36.35Z"/>
          <path class="cls-2" d="m57.6,137.11c.97-.11,1.86-.29,2.58-.54l22.7-7.87,31.78-11.02c2.51-.87,2.52-2.31.02-3.21-2.49-.91-6.54-.94-9.05-.07l-22.7,7.86.03-3.22v-.31c6.13.05,11.17-1.59,11.63-3.72h.01l6.51-2.26c1.75-.61,3.96-1.02,6.38-1.18,6.91-.47,13.71,1.14,15.18,3.61-.52,2.05-1.69,3.53-3.49,4.15l-54.48,18.88c-1.99.69-4.49.25-7.1-1.1Z"/>
          <path class="cls-7" d="m49.79,130.54c.73.88,1.47,1.69,2.24,2.43,1.82,1.79,3.72,3.19,5.57,4.14,2.61,1.35,5.11,1.79,7.1,1.1l54.48-18.88c1.8-.62,2.97-2.1,3.49-4.15.68-2.67.24-6.32-1.4-10.33l86.6-30.02v17.5L.5,164.2v-17.5l48.71-16.88c.19.25.39.49.58.72Z"/>
          <path class="cls-10" d="m49.21,129.82L.5,146.7v-4.38l44.2-15.32c1.21.57,2.41,1.16,3.59,1.78.33.33.64.68.92,1.04Z"/>
          <path class="cls-4" d="m44.7,127L.5,142.32v-3.22l41.46-14.37c.25.55.74,1.08,1.47,1.56.36.25.79.49,1.27.71Z"/>
          <path class="cls-2" d="m46.18,118.09l36.88-12.78-.02,2.28-1.43.5h0c-5.28.19-9.47,1.64-10.14,3.51l-24.74,8.58c-.6.2-1.15.52-1.65.93-.49.4-.92.9-1.27,1.42-.27.42-.49.86-.64,1.28-.14.42-.22.82-.22,1.17,0,.17,0,.33.05.48.03.11.07.21.11.3.08.18.19.36.33.53-.73-.48-1.22-1.01-1.47-1.56-.05-.11-.09-.24-.12-.36-.03-.18-.05-.38-.05-.57.01-.41.09-.88.24-1.37.16-.48.39-.99.7-1.48.38-.61.86-1.21,1.45-1.7.58-.5,1.26-.9,2-1.16Z"/>
          <path class="cls-9" d="m.5,129.09l77.97-27.03c1.44.76,3.03,1.14,4.61,1.14l-.02,2.11-36.88,12.78c-.74.26-1.42.66-2,1.16-.59.49-1.07,1.09-1.45,1.7-.31.49-.54,1-.7,1.48-.15.49-.23.96-.24,1.37,0,.19.02.39.05.57.03.12.07.25.12.36L.5,139.1v-10.01Z"/>
          <path class="cls-4" d="m77.4,60.16l-.03,4.16-.04,4.16-.03,4.16-.03,4.16-.04,4.15-.03,4.16-.03,4.16-.04,4.16-.03,4.16-.02,2.73c0,.59.32,1.15.84,1.43.18.11.36.22.55.31L.5,129.09v-51.8l76.97-26.68v1.24s-.04,4.16-.04,4.16l-.03,4.15Z"/>
          <polygon class="cls-7" points="36.28 0 .5 12.4 .5 6.77 20.04 0 36.28 0"/>
          <polygon class="cls-9" points="20.04 0 .5 6.77 .5 0 20.04 0"/>
        </g>
        <g>
          <line class="cls-3" x1=".5" y1="66.56" x2="77.56" y2="39.85"/>
          <line class="cls-3" x1="93.52" y1="34.32" x2="192.52"/>
          <line class="cls-3" x1=".5" y1="77.29" x2="77.47" y2="50.61"/>
          <line class="cls-3" x1="89.55" y1="46.42" x2="207.87" y2="5.41"/>
          <path class="cls-12" d="m74.98,37.21c.59.51,1.49.95,2.59,1.29,2.56.79,6.22,1.07,9.56.61.91-.13,1.74-.3,2.48-.52,1.13-.33,2.03-.75,2.6-1.24"/>
          <path class="cls-12" d="m92.76,36.89c.48-.41.75-.86.75-1.33"/>
          <path class="cls-12" d="m74.58,36.85c1.54,1.24,4.99,2.11,9.01,2.15,4.08.03,7.59-.82,9.11-2.06"/>
          <path class="cls-12" d="m73.72,35.4c0,.47.26.93.73,1.34"/>
          <path class="cls-12" d="m73.79,25.62c0,1.38,2.3,2.7,6.11,3.29,5.05.78,10.84-.04,12.93-1.82.5-.42.76-.87.76-1.33s-.25-.91-.74-1.34"/>
          <path class="cls-12" d="m74.55,24.28c-.51.43-.75.88-.76,1.33"/>
          <path class="cls-12" d="m92.32,23.95c-1.38-1.21-4.71-2.09-8.6-2.12-4-.03-7.43.84-8.75,2.1"/>
          <path class="cls-12" d="m74.94,23.95c-.36.35-.56.73-.56,1.12-.01,1.83,4.14,3.34,9.29,3.38,5.14.04,9.32-1.41,9.34-3.24,0-.4-.2-.79-.56-1.14"/>
          <path class="cls-12" d="m88.79,26.15s.06-.06.09-.1"/>
          <path class="cls-12" d="m78.5,24.98c.19.6.36,1.04.52,1.34"/>
          <path class="cls-12" d="m78.5,24.98c1.32.42,2.48.02,3.81-1.32"/>
          <path class="cls-12" d="m87.5,24.2c-1.81.69-3.38.53-5.19-.54"/>
          <path class="cls-12" d="m88.88,26.05c-.49.23-.9-.33-1.38-1.85"/>
          <path class="cls-12" d="m88.79,26.15c.44-.28.69-.61.69-.96,0-1.14-2.58-2.08-5.77-2.1-3.19-.03-5.79.87-5.8,2.01,0,.45.41.87,1.11,1.22,1.05.52,2.75.86,4.66.88,2.2,0,4.11-.41,5.1-1.05h.01Z"/>
          <polyline class="cls-12" points="89.61 38.6 89.57 43.53 89.55 46.42 89.54 47.69 89.51 51.85 89.47 56.01 89.44 60.16 89.41 64.32 89.38 68.48 89.34 72.64 89.31 76.8 89.28 80.95 89.25 85.11 89.21 89.27 89.18 93.43 89.15 97.59 89.14 98.37 89.13 100.16"/>
          <polyline class="cls-12" points="77.57 38.5 77.56 39.85 77.53 43.53 77.5 47.69 77.47 50.61 77.46 51.85 77.43 56.01 77.4 60.16 77.37 64.32 77.33 68.48 77.3 72.64 77.27 76.8 77.23 80.95 77.2 85.11 77.17 89.27 77.13 93.43 77.1 97.59 77.08 100.32"/>
          <polyline class="cls-12" points="74.98 37.21 74.58 36.85 74.45 36.74"/>
          <polyline class="cls-12" points="92.21 37.35 92.7 36.94 92.76 36.89"/>
          <polyline class="cls-12" points="93.59 25.76 93.52 34.32 93.51 35.56"/>
          <polyline class="cls-12" points="73.79 25.61 73.79 25.62 73.72 35.4"/>
          <polyline class="cls-12" points="92.32 23.95 92.45 24.07 92.85 24.42"/>
          <polyline class="cls-12" points="75.09 23.82 74.97 23.93 74.94 23.95 74.55 24.28"/>
          <path class="cls-12" d="m83.03,110.01c-3.41-.03-6.18.93-6.19,2.14,0,.44.36.86.99,1.21,1.09.61,2.99,1.02,5.16,1.04h.1c2.13,0,3.99-.38,5.08-.96.64-.34,1.01-.75,1.01-1.19.01-1.21-2.75-2.21-6.15-2.24Z"/>
          <path class="cls-12" d="m88.17,113.44c-1.17-.65-3.14-1.02-5.16-1.04-1.15,0-2.33.1-3.37.33-.72.16-1.34.38-1.81.63"/>
          <path class="cls-12" d="m81.6,108.09c-5.28.19-9.47,1.64-10.14,3.51-.06.17-.09.34-.09.51"/>
          <path class="cls-12" d="m71.37,112.12c0,2.29,5.19,4.17,11.61,4.22h.11c6.38.03,11.54-1.77,11.56-4.05s-5.18-4.17-11.61-4.22c-.48,0-.96,0-1.43.02"/>
          <path class="cls-12" d="m71.35,114.51c-.02,2.28,5.18,4.17,11.61,4.22,6.13.05,11.17-1.59,11.63-3.72.03-.11.04-.21.04-.32"/>
          <line class="cls-12" x1="94.65" y1="112.29" x2="94.63" y2="114.69"/>
          <polyline class="cls-12" points="71.37 112.11 71.37 112.12 71.35 114.51"/>
          <path class="cls-12" d="m87.17,213.89h-.01c-1.21-.59-3.07-.91-4.95-.93-1.28-.01-2.57.12-3.67.4-.49.13-.91.28-1.28.45h-.01"/>
          <path class="cls-12" d="m82.24,210.35c-3.41-.03-6.18.93-6.19,2.14,0,.49.45.95,1.21,1.32,1.12.55,2.92.91,4.94.92,2.03.02,3.83-.32,4.96-.85.77-.35,1.23-.8,1.23-1.29.01-1.21-2.74-2.21-6.15-2.24Z"/>
          <path class="cls-12" d="m64.74,215.02c-.03,3.42,7.77,6.26,17.41,6.34,9.65.08,17.49-2.64,17.51-6.07"/>
          <path class="cls-12" d="m64.76,212.43c0,3.41,7.79,6.24,17.41,6.32,9.65.07,17.49-2.64,17.51-6.07.03-3.43-7.77-6.27-17.41-6.34-9.65-.08-17.49,2.64-17.51,6.07"/>
          <polyline class="cls-12" points="64.74 215.02 64.76 212.43 64.76 212.41"/>
          <line class="cls-12" x1="99.66" y1="215.29" x2="99.68" y2="212.68"/>
          <path class="cls-12" d="m78.04,240.42c.25.05.5.09.76.12.26.04.52.07.79.1"/>
          <path class="cls-12" d="m77.1,240.23c.13.04.27.07.41.09.17.04.34.07.52.1"/>
          <path class="cls-12" d="m80.64,240.72c2.36.15,4.78-.03,6.76-.52"/>
          <path class="cls-12" d="m76.61,240.12c.17.04.33.08.49.11.14.03.28.06.41.09.18.04.35.07.52.1h.01c.26.05.51.09.76.12.27.04.53.07.79.1"/>
          <path class="cls-12" d="m74.4,239.48c.64.21,1.26.39,1.85.55"/>
          <path class="cls-12" d="m73.02,238.25c.43.57.88.98,1.38,1.23"/>
          <path class="cls-12" d="m87.53,223.38c-.91-.23-1.91-.41-2.98-.52"/>
          <path class="cls-12" d="m89.73,224.02c.51.25.96.66,1.39,1.23"/>
          <path class="cls-12" d="m87.89,223.48c.59.15,1.2.33,1.84.54"/>
          <path class="cls-12" d="m81.16,228.07c.3.02.62.04.94.04h.1c1.54,0,2.93-.21,3.96-.56.32-.1.6-.22.84-.35.59-.32.94-.7.94-1.12,0-1.14-2.59-2.09-5.81-2.11-3.21-.03-5.83.88-5.84,2.02,0,.25.12.48.34.69.22.23.53.43.93.61.87.4,2.13.68,3.58.78"/>
          <path class="cls-12" d="m76.63,226.7v-.02c-.04-.14-.02-.3.06-.45.13-.23.39-.44.77-.63.35-.17.82-.33,1.43-.45.28-.06.58-.11.89-.14.61-.07,1.26-.1,1.93-.08.14,0,.27,0,.41.02.21.01.42.02.62.04.64.06,1.25.17,1.8.31.29.07.56.16.8.25.25.09.48.19.68.3.38.2.66.43.82.66.08.13.14.25.16.38.02.1.02.2,0,.31"/>
          <path class="cls-12" d="m77.56,227.29c.16-.27.61-.52,1.29-.7.88-.23,2.02-.31,3.26-.23s2.38.33,3.26.72c.31.14.58.3.79.47"/>
          <path class="cls-12" d="m82.2,228.11s-.07,0-.1,0c-.31-.02-.62-.03-.94-.03h-.02"/>
          <path class="cls-12" d="m84.55,222.86c-.8-.08-1.6-.12-2.41-.13-1.93-.02-3.82.18-5.4.57"/>
          <path class="cls-12" d="m92.49,227.74c-1.39.05-2.63.28-3.81.69"/>
          <path class="cls-12" d="m91.12,225.25c.42.58.87,1.38,1.37,2.49"/>
          <path class="cls-12" d="m88.68,228.43c-1.18.41-2.42,1.04-3.81,1.95"/>
          <path class="cls-12" d="m84.87,230.38c-1.9-.63-3.58-1-5.19-1.17"/>
          <path class="cls-12" d="m74.48,229.31c-.5-1.11-.94-1.91-1.37-2.49"/>
          <path class="cls-12" d="m79.68,229.21c-1.61-.16-3.29-.14-5.2.1"/>
          <path class="cls-12" d="m71.73,225.59c1.4-.91,2.64-1.54,3.82-1.94"/>
          <path class="cls-12" d="m73.11,226.82c-.43-.57-.87-.97-1.38-1.23"/>
          <path class="cls-12" d="m75.55,223.65c.37-.13.74-.24,1.11-.33"/>
          <path class="cls-12" d="m72.74,237.85c.1.15.19.28.28.4"/>
          <path class="cls-12" d="m71.65,235.77c.39.86.74,1.54,1.09,2.07"/>
          <path class="cls-12" d="m84.79,240.55c1.39-.06,2.62-.29,3.8-.69"/>
          <path class="cls-12" d="m79.59,240.64c.35.04.7.06,1.05.08,1.29.07,2.65.01,4.15-.17"/>
          <path class="cls-12" d="m91.12,238.69c.41-.23.84-.49,1.29-.78"/>
          <path class="cls-12" d="m88.59,239.86c.8-.28,1.64-.66,2.53-1.16"/>
          <line class="cls-12" x1="84.79" y1="240.55" x2="84.87" y2="230.38"/>
          <line class="cls-12" x1="92.41" y1="237.91" x2="92.49" y2="227.74"/>
          <line class="cls-12" x1="71.65" y1="235.77" x2="71.73" y2="225.59"/>
          <line class="cls-12" x1="74.4" y1="239.48" x2="74.48" y2="229.31"/>
          <path class="cls-12" d="m72.74,237.84h0c.03.28.1.54.19.78.17.42.4.78.64,1.08.37.43.77.74,1.2,1.01.73.46,1.53.77,2.4,1.01.88.25,1.82.42,2.81.52.66.07,1.33.1,2.01.11.25,0,.5,0,.75-.01.91-.02,1.82-.1,2.67-.25.89-.14,1.73-.35,2.49-.64.87-.32,1.66-.72,2.36-1.43.21-.22.42-.47.59-.76.1-.17.2-.35.27-.56h0"/>
          <line class="cls-12" x1="76.61" y1="240.12" x2="76.25" y2="240.03"/>
          <polyline class="cls-12" points="87.53 223.38 87.54 223.38 87.89 223.48"/>
          <line class="cls-12" x1="76.74" y1="223.3" x2="76.66" y2="223.32"/>
          <line class="cls-12" x1="87.4" y1="240.2" x2="87.47" y2="240.19"/>
          <path class="cls-12" d="m82.51,175.24c-3.85-.03-6.99,1.05-7,2.42s3.11,2.51,6.96,2.54c3.86.03,7-1.06,7.01-2.43s-3.11-2.5-6.97-2.53Z"/>
          <line class="cls-12" x1="207.87" y1="145.93" x2=".5" y2="217.81"/>
          <polyline class="cls-12" points="207.87 158.96 82.3 202.48 .5 230.83"/>
          <line class="cls-12" x1="81.6" y1="108.09" x2="81.61" y2="108.09"/>
          <polyline class="cls-12" points=".5 181.46 82.69 152.97 207.87 109.58"/>
          <polyline class="cls-12" points="83.08 103.2 83.06 105.31 83.04 107.59 83.04 108.07 83.03 110.01 83.01 112.4 82.99 114.4"/>
          <polyline class="cls-12" points="82.96 118.73 82.96 119.04 82.93 122.26 82.88 128.7"/>
          <polyline class="cls-12" points="82.69 152.97 82.51 175.24 82.47 180.2"/>
          <polyline class="cls-12" points="82.3 202.48 82.27 206.34 82.24 210.35 82.21 212.96 82.2 214.73"/>
          <polyline class="cls-12" points="82.15 221.36 82.14 222.73 82.13 223.97 82.12 224.95 82.11 226.36 82.1 228.1 82.1 228.11"/>
          <line class="cls-12" x1="81.99" y1="242.35" x2="81.88" y2="256.45"/>
          <polygon class="cls-3" points="207.87 158.96 207.87 270.89 .5 270.89 .5 230.83 .5 217.81 .5 181.46 .5 169.83 .5 164.2 .5 146.7 .5 142.32 .5 139.1 .5 129.09 .5 77.29 .5 66.56 .5 12.4 .5 6.77 .5 0 20.04 0 36.28 0 192.52 0 207.87 0 207.87 5.41 207.87 57.22 207.87 67.23 207.87 70.45 207.87 74.83 207.87 92.33 207.87 97.96 207.87 109.58 207.87 145.93 207.87 158.96"/>
          <path class="cls-12" d="m77.92,101.75c.18.11.36.22.55.31,1.44.76,3.03,1.14,4.61,1.14,1.79,0,3.58-.49,5.16-1.47"/>
          <path class="cls-12" d="m77.08,100.32c0,.59.32,1.15.84,1.43"/>
          <path class="cls-12" d="m88.24,101.73c.55-.33.88-.92.89-1.57"/>
          <path class="cls-13" d="m77.95,97.6c3.17,1.93,7.16,1.93,10.33-.02"/>
          <path class="cls-13" d="m77.98,93.44c3.17,1.94,7.16,1.93,10.33-.02"/>
          <path class="cls-13" d="m78.02,89.28c3.17,1.94,7.16,1.93,10.32-.02"/>
          <path class="cls-13" d="m78.05,85.12c3.17,1.94,7.16,1.93,10.32-.02"/>
          <path class="cls-13" d="m78.08,80.96c3.17,1.94,7.16,1.94,10.33-.02"/>
          <path class="cls-13" d="m78.12,76.81c3.17,1.93,7.16,1.93,10.32-.02"/>
          <path class="cls-13" d="m78.15,72.65c3.17,1.94,7.16,1.93,10.32-.02"/>
          <path class="cls-13" d="m78.18,68.49c3.17,1.94,7.16,1.93,10.32-.02"/>
          <path class="cls-13" d="m78.21,64.33c3.17,1.94,7.16,1.93,10.33-.02"/>
          <path class="cls-13" d="m78.25,60.17c3.17,1.94,7.16,1.93,10.32-.02"/>
          <path class="cls-13" d="m78.28,56.02c3.17,1.93,7.16,1.93,10.32-.02"/>
          <path class="cls-13" d="m78.31,51.86c3.17,1.94,7.16,1.93,10.32-.02"/>
          <path class="cls-13" d="m78.34,47.7c3.17,1.94,7.16,1.93,10.33-.02"/>
          <path class="cls-13" d="m78.38,43.54c3.17,1.94,7.16,1.93,10.32-.02"/>
        </g>
      </g>
    </g>
  </g>
</svg>