<?xml version="1.0" encoding="UTF-8"?>
<svg id="Layer_2" data-name="Layer 2" xmlns="http://www.w3.org/2000/svg" viewBox="0 0 201.97 271.62">
  <defs>
    <style>
      .cls-1 {
        fill: #474747;
      }

      .cls-1, .cls-2, .cls-3, .cls-4, .cls-5, .cls-6, .cls-7, .cls-8, .cls-9, .cls-10, .cls-11, .cls-12 {
        stroke-width: 0px;
      }

      .cls-2 {
        fill: #5e5e5e;
      }

      .cls-3 {
        fill: #e5e5e5;
      }

      .cls-13 {
        stroke: #fff;
      }

      .cls-13, .cls-4, .cls-14 {
        fill: none;
      }

      .cls-13, .cls-14 {
        stroke-linecap: round;
        stroke-linejoin: round;
      }

      .cls-5 {
        fill: #2d2d2d;
      }

      .cls-14 {
        stroke: #717171;
      }

      .cls-6 {
        fill: #3d3d3d;
      }

      .cls-7 {
        fill: #e2e2e2;
      }

      .cls-8 {
        fill: #4f4f4f;
      }

      .cls-9 {
        fill: #e84e0f;
      }

      .cls-10 {
        fill: #3a3a3a;
      }

      .cls-11 {
        fill: #424241;
      }

      .cls-12 {
        fill: #aaa;
      }
    </style>
  </defs>
  <g id="mounting_2_dark" data-name="mounting 2 dark">
    <g id="LINE">
      <g>
        <g>
          <path class="cls-3" d="m146.04,221.62l2.45.89h0c-.65.44-1.39.72-2.16.86-2.89.49-5.64-1.32-6.38-4.09-.05-.18-.09-.35-.12-.53.6.01,1.59.38,2.69,1.02.05.03.11.06.16.09.95.56,1.97,1.19,2.98,1.61.12.06.25.1.38.15Z"/>
          <polygon class="cls-7" points="80.15 148.25 201.47 106.2 201.47 141.43 104.67 174.98 80.01 166 80.15 148.25"/>
          <path class="cls-9" d="m201.47,0v5.25l-112.32,38.92c-1.43-1.11-4.55-1.89-8.17-1.92-3.76-.03-7,.77-8.36,1.92l-.15.13-.38.32c-.49.42-.73.86-.73,1.29h0s-.03,4.44-.03,4.44L.5,74.9v-10.4L186.59,0h14.88Z"/>
          <polygon class="cls-5" points="186.59 0 .5 64.5 .5 12.02 35.18 0 186.59 0"/>
          <polygon class="cls-1" points=".5 164.59 201.47 94.94 201.47 106.2 80.15 148.25 55.11 156.93 55.1 156.93 48.24 159.31 42.3 161.37 42.29 161.37 40.51 161.99 38.12 162.82 38.11 162.82 37.51 163.03 37.5 163.03 .5 175.86 .5 164.59"/>
          <polygon class="cls-2" points=".5 159.14 201.47 89.48 201.47 94.94 .5 164.59 .5 159.14"/>
          <path class="cls-12" d="m167.6,229.47c-.61-.22-1.15-.61-1.6-1.16l-5.97-7.26c-.15-.19-.25-.46-.27-.77-.06-.84.43-1.79,1.09-2.1l2.85-1.38c.16-.08.31-.26.38-.48l.16-.44c.08-.25.25-.44.43-.5l11.4-3.95c.08-.03.16-.03.23-.01.13.05.24.16.3.29l.14.34s.02.03.02.05l.03.03s.01.01.02.02.01.01.02.01c0,.01.01.01.02.01.05.02.11.03.17.01l2.85-.6c.16-.03.31-.02.45.03.04.01.09.03.13.06.12.07.23.16.31.27.1.13.17.28.21.43.05.16.07.34.07.51,0,.18-.03.36-.08.54-.05.17-.11.34-.2.5l-6.11,11.46c-.33.61-.71,1.19-1.13,1.7-.42.52-.88.97-1.36,1.35-.49.38-1,.68-1.51.9-.52.21-1.05.33-1.56.36-.52.03-1.02-.05-1.49-.22Z"/>
          <path class="cls-12" d="m164.15,207l12.15,4.42c-.07-.02-.15-.02-.23.01l-11.4,3.95-9.85-3.58.31-.86c1.11.4,2.64.66,4.32.67,2.2.02,4.12-.38,5.21-.99.59-.32.94-.72.94-1.14.01-.6-.68-1.15-1.79-1.56l.34-.92Z"/>
          <path class="cls-12" d="m153.34,209.38c0-1.2,2.76-2.15,6.15-2.13,1.69.01,3.21.27,4.32.67,1.11.41,1.8.96,1.79,1.56,0,.42-.35.82-.94,1.14-1.09.61-3.01,1.01-5.21.99-1.68-.01-3.21-.27-4.32-.67s-1.8-.95-1.79-1.56Z"/>
          <path class="cls-12" d="m153.34,209.38c-.01.61.68,1.16,1.79,1.56l-.31.86-22.86-8.29,11.41-3.96h0s.34.01.34.01l1.54.56,18.9,6.88-.34.92c-1.11-.4-2.63-.66-4.32-.67-3.39-.02-6.14.93-6.15,2.13Z"/>
          <path class="cls-12" d="m147.72,199.74l32.6,11.87c-.14-.05-.29-.06-.45-.03l-2.85.6c-.06.02-.12.01-.17-.01,0,0-.02,0-.02-.01t-.02-.01s-.02,0-.02-.02l-.03-.03s0-.03-.02-.05l-.14-.34c-.06-.13-.17-.24-.3-.29l-12.15-4.42-18.9-6.88,1.93-.41c.18-.04.37-.03.54.03Z"/>
          <path class="cls-12" d="m154.82,211.8l9.85,3.58c-.18.06-.35.25-.43.5l-.16.44c-.07.22-.22.4-.38.48l-32.72-11.86s.06-.03.09-.06c.03-.02.06-.05.09-.08s.06-.07.08-.11c.03-.04.06-.08.08-.13s.05-.1.06-.15l.16-.44s.02-.08.04-.12c.02-.03.04-.07.07-.1.02-.04.05-.07.08-.1s.07-.06.11-.08c.03-.03.08-.05.12-.06l22.86,8.29Z"/>
          <path class="cls-12" d="m159.76,220.28c.02.31.12.58.27.77l-32.59-11.87s-.06-.03-.08-.05c-.08-.11-.15-.23-.2-.36-.05-.15-.09-.31-.09-.48-.01-.17,0-.35.04-.53.03-.18.09-.35.16-.52.08-.16.17-.32.28-.46s.24-.26.38-.35c.06-.05.13-.09.2-.12.03-.02.08-.02.12,0l32.6,11.87c-.66.31-1.15,1.26-1.09,2.1Z"/>
          <path class="cls-12" d="m130.98,204.94l32.72,11.86-2.85,1.38-32.6-11.87s-.09-.02-.12,0l.35-.17,2.5-1.2Z"/>
          <path class="cls-12" d="m166,228.31c.45.55.99.94,1.6,1.16l-6.33-2.3h0c-.51-.19-1.01-.4-1.46-.6-.8-.36-1.64-.77-2.43-1.15s-1.53-.71-2.16-.93c-.62-.23-1.22-.39-1.71-.48s-.87-.11-1.1-.13c-.13-.01-.23-.02-.27-.04h-.01l-3.64-1.33-2.45-.89c-.13-.05-.26-.09-.38-.15-1.01-.42-2.03-1.05-2.98-1.61-.05-.03-.11-.06-.16-.09-1.1-.64-2.09-1.01-2.69-1.02h-.1c-.43.03-.59.23-.47.36.03.04.08.07.16.1l-4.41-1.6c-.66-.25-1.24-.67-1.68-1.22l-5.97-7.26s.05.04.08.05l32.59,11.87,5.97,7.26Z"/>
          <path class="cls-11" d="m115.18,98.18l86.29-29.91v4.25l-83.93,29.09c-.16-.39-.35-.76-.58-1.12-.06-.64-.27-1.22-.67-1.66-.18-.19-.42-.37-.69-.5-.13-.06-.27-.11-.42-.15Z"/>
          <path class="cls-5" d="m109.06,97.18l92.41-32.03v3.12l-86.29,29.91c-1.78-.51-3.88-.85-6.12-1Z"/>
          <path class="cls-5" d="m111.15,110.93c2.42.88,2.41,2.28-.02,3.12l-30.8,10.68.05-6.24,22-7.62c2.43-.85,6.36-.82,8.77.06Z"/>
          <path class="cls-7" d="m111.09,182.67c.76.48.92,1.85.34,3.06l-5.1-1.86,3.73-1.29c.37-.13.73-.1,1.03.09Z"/>
          <path class="cls-7" d="m80.01,166l24.66,8.98c-1.32.46-2.41,2.25-2.42,3.99l-22.28-8.11.04-4.86Z"/>
          <path class="cls-7" d="m102.92,184.71s.08.03.12.05l-.12-.05Z"/>
          <polygon class="cls-7" points="102.25 178.97 102.22 183.19 79.93 175.08 79.97 170.86 102.25 178.97"/>
          <path class="cls-2" d="m104.58,98.24c-.75-.09-1.47-.2-2.16-.27-.85-.1-1.65-.16-2.37-.13-.72.02-1.38.13-1.96.33l-17.6,6.09.02-2.2,17.05-5.91c.71-.25,1.5-.36,2.33-.36s1.69.11,2.59.26c.72.13,1.47.28,2.22.44,1.12.23,2.23.46,3.47.61.3.03.59.06.89.08,2.24.15,4.34.49,6.12,1,.15.04.29.09.42.15.27.13.51.31.69.5.4.44.61,1.02.67,1.66-1.91-.97-4.82-1.64-8.09-1.86-.27-.02-.55-.03-.82-.04-1.25-.06-2.36-.2-3.47-.35Z"/>
          <path class="cls-7" d="m85.57,202.68l6.59,2.4c-1.37.48-2.71.36-3.8-.34-.97-.62-1.9-1.3-2.79-2.06Z"/>
          <path class="cls-6" d="m91.72,111.15l.02-2.32c.02-2.21-5.02-4.05-11.25-4.1v-.47l17.6-6.09c.58-.2,1.24-.31,1.96-.33.72-.03,1.52.03,2.37.13.69.07,1.41.18,2.16.27,1.11.15,2.22.29,3.47.35.27.01.55.02.82.04,3.27.22,6.18.89,8.09,1.86.23.36.42.73.58,1.12,1.59,3.88,2.01,7.42,1.35,10.01-1.44-2.39-8.02-3.95-14.71-3.49-2.34.16-4.48.55-6.18,1.14l-6.31,2.19h-.01c.03-.1.04-.2.04-.31Z"/>
          <path class="cls-12" d="m90.54,46.06l-.07,9.49c0,.46-.26.9-.73,1.29l-.21.17c-1.54,1.14-4.85,1.91-8.68,1.88-3.8-.04-7.08-.84-8.62-1.99l-.23-.2c-.46-.4-.71-.84-.71-1.3l.04-5.05.03-4.43c0,1.34,2.23,2.62,5.92,3.19,4.89.75,10.51-.03,12.53-1.76.49-.41.73-.84.73-1.29Z"/>
          <path class="cls-5" d="m201.47,5.25v50.2l-115.07,39.88v-.75s.04-4.03.04-4.03l.03-4.03.03-4.03.03-4.03.04-4.03.03-4.03.03-4.03.03-4.03.03-3.84c1.09-.32,1.96-.73,2.52-1.21l.32-.28.21-.17c.47-.39.73-.83.73-1.29l.07-9.49c.01-.44-.23-.88-.71-1.3l-.37-.32-.15-.13c-.05-.06-.1-.1-.16-.14L201.47,5.25Z"/>
          <path class="cls-7" d="m103.04,184.76c.23.08.48.08.76-.01l2.52-.88h0l5.1,1.86c-1.97,4.16-4.26,8.09-6.82,11.72l-18.27-6.65,1.46-.51c.88-.3,1.61-1.5,1.62-2.66l.03-4.22c.01-1.21-.49-2.07-1.24-2.35l-8.3-3.02v-1.7s23.01,8.37,23.01,8.37l.12.05Z"/>
          <polygon class="cls-7" points="87.07 181.08 .5 211.09 .5 175.86 37.5 163.03 37.51 163.03 87.07 181.08"/>
          <path class="cls-12" d="m75.02,58.41c2.49.77,6.03,1.04,9.26.59.88-.12,1.69-.29,2.41-.5l-.03,3.84h-.85c-3.06,1.88-6.93,1.89-10,.01h-.82s.03-3.94.03-3.94Z"/>
          <path class="cls-12" d="m86.66,62.34l-.03,4.03h-.85c-3.06,1.88-6.93,1.89-10,.01h-.82s.03-4.04.03-4.04h.82c3.07,1.89,6.94,1.88,10,0h.85Z"/>
          <path class="cls-12" d="m86.63,66.37l-.03,4.03h-.85c-3.06,1.88-6.93,1.88-10,0h-.83s.04-4.04.04-4.04h.82c3.07,1.89,6.94,1.88,10-.01h.85Z"/>
          <path class="cls-12" d="m86.6,70.4l-.03,4.03h-.85c-3.07,1.88-6.93,1.88-10.01.01h-.82s.03-4.04.03-4.04h.83c3.07,1.88,6.94,1.88,10-.01h.85Z"/>
          <path class="cls-12" d="m86.57,74.43l-.04,4.03h-.84c-3.07,1.88-6.93,1.88-10.01.01h-.82s.03-4.04.03-4.04h.82c3.08,1.88,6.94,1.88,10.01,0h.85Z"/>
          <path class="cls-12" d="m86.53,78.46l-.03,4.03h-.84c-3.07,1.88-6.94,1.88-10.01,0h-.82s.03-4.04.03-4.04h.82c3.08,1.88,6.94,1.88,10.01-.01h.84Z"/>
          <path class="cls-12" d="m86.5,82.49l-.03,4.03h-.85c-3.06,1.88-6.93,1.88-10,.01h-.82s.03-4.04.03-4.04h.82c3.07,1.88,6.94,1.88,10.01-.01h.84Z"/>
          <path class="cls-12" d="m86.47,86.52l-.03,4.03h-.85c-3.06,1.88-6.93,1.88-10,.01h-.83s.04-4.04.04-4.04h.82c3.07,1.88,6.94,1.88,10-.01h.85Z"/>
          <path class="cls-12" d="m86.44,90.55l-.03,4.03h-.85c-3.06,1.88-6.93,1.88-10,.01h-.83s.03-4.04.03-4.04h.83c3.07,1.88,6.94,1.88,10,0h.85Z"/>
          <path class="cls-12" d="m75.56,94.59c3.07,1.87,6.94,1.87,10-.02h.85s-.01.76-.01.76v1.74c-.02.62-.34,1.2-.87,1.53-1.53.94-3.27,1.42-5,1.42-1.53,0-3.07-.37-4.47-1.11-.19-.09-.36-.19-.54-.3-.5-.28-.81-.81-.81-1.39l.02-2.64h.83Z"/>
          <path class="cls-7" d="m86.34,190.8l18.27,6.65c-.51.75-1.05,1.49-1.6,2.21l-20.6-7.5,3.93-1.36Z"/>
          <path class="cls-12" d="m84.65,44.54c.46,1.48.86,2.03,1.33,1.8-.03.04-.06.07-.09.1-.32.2-.75.39-1.26.54l.02-2.44Z"/>
          <path class="cls-6" d="m80.46,108.94c1.95.01,3.86.36,5,1-1.06.56-2.86.93-4.92.93h-.1l.02-1.93Z"/>
          <path class="cls-12" d="m85.46,109.94c-1.14-.64-3.05-.99-5-1l.02-2.32c3.31.02,5.97.99,5.96,2.17,0,.43-.36.82-.98,1.15Z"/>
          <path class="cls-10" d="m86.4,95.33l115.07-39.88v9.7l-92.41,32.03c-.3-.02-.59-.05-.89-.08-1.24-.15-2.35-.38-3.47-.61-.75-.16-1.5-.31-2.22-.44-.9-.15-1.77-.26-2.59-.26s-1.62.11-2.33.36l-17.05,5.91.02-2.04c1.73,0,3.47-.48,5-1.42.53-.33.85-.91.86-1.53v-1.74Z"/>
          <path class="cls-12" d="m80.49,104.73c6.23.05,11.27,1.89,11.25,4.1-.02,2.2-5.02,3.95-11.2,3.92v-1.88c2.06,0,3.86-.37,4.92-.93.62-.33.98-.72.98-1.15.01-1.18-2.65-2.15-5.96-2.17v-1.89Z"/>
          <path class="cls-7" d="m99.18,202.65l-19.39-7.06c-.01-.08-.01-.16-.01-.24.01-1.26.8-2.55,1.75-2.89l.88-.3,20.6,7.5c-1.11,1.47-2.45,2.52-3.83,2.99Z"/>
          <path class="cls-2" d="m80.41,115.38l-.03,3.11-29.95,10.38c-.74-.72-1.47-1.51-2.17-2.36l32.15-11.13Z"/>
          <path class="cls-7" d="m79.79,195.59l19.39,7.06-7.02,2.43-6.59-2.4s-.01,0-.01,0c-2.02-1.7-3.85-3.74-5.45-6.09-.18-.27-.29-.61-.32-1Z"/>
          <path class="cls-5" d="m80.38,118.49l-.05,6.24-21.99,7.62c-.71.25-1.57.43-2.52.53h-.01c-1.78-.92-3.62-2.28-5.38-4.01l29.95-10.38Z"/>
          <path class="cls-12" d="m80.93,48.67c-4.98-.04-9.01-1.51-9-3.28,0-.38.19-.75.54-1.09l.15-.13c1.36-1.15,4.6-1.95,8.36-1.92,3.62.03,6.74.81,8.17,1.92.06.04.11.08.16.14l.15.13c.34.34.52.71.52,1.09-.01,1.77-4.06,3.18-9.05,3.14Zm.04-5.2c-3.09-.03-5.61.85-5.62,1.95,0,.43.39.84,1.06,1.17.76.38,1.88.67,3.18.79.43.04.88.07,1.35.07,1.41.01,2.7-.17,3.69-.46h0c.51-.16.94-.35,1.26-.55.42-.28.67-.6.67-.94.01-1.1-2.49-2.01-5.59-2.03Z"/>
          <path class="cls-6" d="m80.44,110.87c-2.1-.02-3.94-.42-5-1.01.45-.24,1.05-.45,1.75-.6,1.01-.23,2.15-.33,3.27-.32l-.02,1.93Z"/>
          <path class="cls-12" d="m80.46,108.94c-1.12-.01-2.26.09-3.27.32-.7.15-1.3.36-1.75.6-.61-.34-.96-.74-.96-1.17,0-1.17,2.69-2.1,5.99-2.07h.01l-.02,2.32Z"/>
          <polygon class="cls-7" points="80.15 148.25 80.01 166 55.11 156.93 80.15 148.25"/>
          <polygon class="cls-7" points="80.01 166 79.97 170.86 48.24 159.31 55.1 156.93 55.11 156.93 80.01 166"/>
          <path class="cls-12" d="m79.62,44.03c1.75,1.03,3.27,1.18,5.03.51l-.02,2.44h0c-.99.3-2.28.48-3.69.47-.47,0-.92-.03-1.35-.07l.03-3.35Z"/>
          <polygon class="cls-7" points="79.97 170.86 79.93 175.08 42.3 161.37 48.24 159.31 79.97 170.86"/>
          <polygon class="cls-7" points="42.3 161.37 79.93 175.08 79.92 176.34 40.51 161.99 42.29 161.37 42.3 161.37"/>
          <polygon class="cls-7" points="79.92 176.34 79.91 178.04 38.12 162.82 40.51 161.99 79.92 176.34"/>
          <path class="cls-7" d="m79.91,178.04l8.3,3.02c-.34-.12-.73-.12-1.14.02l-49.56-18.05.6-.21h.01l41.79,15.22Z"/>
          <path class="cls-12" d="m80.43,112.75c-6.22-.05-11.26-1.88-11.26-4.09h0c0-.18.03-.34.09-.5.64-1.81,4.71-3.23,9.83-3.41h0c.46-.02.92-.02,1.39-.02v1.89h-.02c-3.3-.03-5.98.9-5.99,2.07,0,.43.35.83.96,1.17,1.06.59,2.9.99,5,1.01h.1v1.88h-.11Z"/>
          <path class="cls-12" d="m76.41,46.59c-.14-.29-.31-.71-.49-1.28,1.29.4,2.4,0,3.7-1.28l-.03,3.35c-1.3-.12-2.42-.41-3.18-.79Z"/>
          <path class="cls-12" d="m75.35,45.42c.01-1.1,2.53-1.98,5.62-1.95,3.1.02,5.6.93,5.59,2.03,0,.34-.25.66-.67.94.03-.03.06-.06.09-.1-.47.23-.87-.32-1.33-1.8-1.76.67-3.28.52-5.03-.51-1.3,1.29-2.41,1.68-3.7,1.28.18.57.35.99.49,1.28-.67-.33-1.06-.74-1.06-1.17Z"/>
          <path class="cls-5" d="m75.52,98.61c.18.11.35.21.54.3h0S.5,125.11.5,125.11v-50.21l70.83-24.55-.04,5.05c0,.46.25.9.71,1.3l.23.2.28.26c.57.5,1.44.92,2.51,1.25l-.03,3.93-.03,4.03-.04,4.03-.03,4.03-.03,4.03-.03,4.03-.03,4.03-.04,4.03-.03,4.03-.02,2.64c0,.58.31,1.11.81,1.39Z"/>
          <path class="cls-12" d="m89.83,44.76c.48.42.72.86.71,1.3,0,.45-.24.88-.73,1.29-2.02,1.73-7.64,2.51-12.53,1.76-3.69-.57-5.92-1.85-5.92-3.19h0c0-.44.24-.88.73-1.3l.38-.32c-.35.34-.54.71-.54,1.09-.01,1.77,4.02,3.24,9,3.28,4.99.04,9.04-1.37,9.05-3.14,0-.38-.18-.75-.52-1.09l.37.32Z"/>
          <path class="cls-12" d="m69.17,108.66c0,2.21,5.04,4.04,11.26,4.09h.11c6.18.03,11.18-1.72,11.2-3.92l-.02,2.32c0,.11,0,.21-.04.31-.46,2.06-5.34,3.66-11.27,3.61-6.23-.05-11.27-1.88-11.25-4.1v-2.31Z"/>
          <path class="cls-6" d="m69.17,108.65h0s0,2.32,0,2.32c-.02,2.22,5.02,4.05,11.25,4.1v.31l-32.15,11.13c-.19-.22-.38-.45-.56-.69-.27-.36-.57-.7-.89-1.02-1.14-.59-2.3-1.17-3.48-1.72-.47-.22-.88-.45-1.24-.7-.13-.16-.23-.33-.31-.5-.04-.09-.08-.19-.1-.29-.04-.14-.06-.3-.06-.47,0-.33.08-.72.22-1.13.15-.41.36-.83.62-1.24.33-.51.75-.99,1.23-1.38s1.02-.7,1.6-.9l23.97-8.31c-.06.16-.09.32-.09.49Z"/>
          <path class="cls-2" d="m98,109.27c1.7-.59,3.84-.98,6.18-1.14,6.69-.46,13.27,1.1,14.71,3.49-.5,1.99-1.64,3.43-3.38,4.03l-52.8,18.3c-1.93.67-4.35.24-6.89-1.07.95-.1,1.81-.28,2.52-.53l21.99-7.62,30.8-10.68c2.43-.84,2.44-2.24.02-3.12-2.41-.88-6.34-.91-8.77-.06l-22,7.62.03-3.11v-.31c5.93.05,10.81-1.55,11.27-3.61h.01l6.31-2.19Z"/>
          <path class="cls-8" d="m117.54,101.61l83.93-29.09v16.96L.5,159.14v-16.96l47.2-16.36c.18.24.37.47.56.69.7.85,1.43,1.64,2.17,2.36,1.76,1.73,3.6,3.09,5.38,4.01h.01c2.54,1.31,4.96,1.74,6.89,1.07l52.8-18.3c1.74-.6,2.88-2.04,3.38-4.03.66-2.59.24-6.13-1.35-10.01Z"/>
          <path class="cls-11" d="m46.81,124.8c.32.32.62.66.89,1.02L.5,142.18v-4.25l42.83-14.85c1.18.55,2.34,1.13,3.48,1.72Z"/>
          <path class="cls-5" d="m43.33,123.08L.5,137.93v-3.12l40.17-13.92c.24.52.72,1.03,1.42,1.49.36.25.77.48,1.24.7Z"/>
          <path class="cls-2" d="m79.09,104.75c-5.12.18-9.19,1.6-9.83,3.41l-23.97,8.31c-.58.2-1.12.51-1.6.9s-.9.87-1.23,1.38c-.26.41-.47.83-.62,1.24-.14.41-.22.8-.22,1.13,0,.17.02.33.06.47.02.1.06.2.1.29.08.17.18.34.31.5-.7-.46-1.18-.97-1.42-1.49-.05-.12-.08-.24-.11-.36-.03-.17-.05-.36-.05-.55.01-.4.09-.85.24-1.32s.38-.97.67-1.44c.37-.6.84-1.17,1.4-1.65.57-.49,1.23-.88,1.94-1.12l35.75-12.39-.02,2.2-1.39.49h0Z"/>
          <path class="cls-10" d="m40.56,120.53c.03.12.06.24.11.36L.5,134.81v-9.7l75.56-26.19h0c1.4.73,2.94,1.1,4.47,1.1l-.02,2.04-35.75,12.39c-.71.24-1.37.63-1.94,1.12-.56.48-1.03,1.05-1.4,1.65-.29.47-.52.97-.67,1.44s-.23.92-.24,1.32c0,.19.02.38.05.55Z"/>
          <polygon class="cls-8" points="35.18 0 .5 12.02 .5 6.57 19.43 0 35.18 0"/>
          <polygon class="cls-10" points="19.43 0 .5 6.57 .5 0 19.43 0"/>
        </g>
        <g>
          <path class="cls-13" d="m128.25,206.31s-.09-.02-.12,0"/>
          <path class="cls-13" d="m127.36,209.13s.05.04.08.05"/>
          <path class="cls-13" d="m139.73,218.75c-.43.03-.59.23-.47.36.03.04.08.07.16.1"/>
          <path class="cls-13" d="m180.32,211.61c-.14-.05-.29-.06-.45-.03"/>
          <line class="cls-13" x1="179.87" y1="211.58" x2="177.02" y2="212.18"/>
          <path class="cls-13" d="m176.85,212.17s.11.03.17.01"/>
          <path class="cls-13" d="m176.3,211.42c-.07-.02-.15-.02-.23.01"/>
          <path class="cls-13" d="m164.67,215.38c-.18.06-.35.25-.43.5"/>
          <line class="cls-13" x1="176.07" y1="211.43" x2="164.67" y2="215.38"/>
          <path class="cls-13" d="m174.65,225.38s-.02-.04-.06-.08"/>
          <path class="cls-13" d="m166,228.31c.45.55.99.94,1.6,1.16"/>
          <line class="cls-13" x1="160.03" y1="221.05" x2="166" y2="228.31"/>
          <path class="cls-13" d="m160.85,218.18c-.66.31-1.15,1.26-1.09,2.1.02.31.12.58.27.77"/>
          <line class="cls-13" x1="163.7" y1="216.8" x2="160.85" y2="218.18"/>
          <path class="cls-13" d="m163.7,216.8c.16-.08.31-.26.38-.48"/>
          <line class="cls-13" x1="164.24" y1="215.88" x2="164.08" y2="216.32"/>
          <path class="cls-13" d="m146.04,221.62c-.13-.05-.26-.09-.38-.15-1.01-.42-2.03-1.05-2.98-1.61-.05-.03-.11-.06-.16-.09"/>
          <path class="cls-13" d="m142.52,219.77c-1.1-.64-2.09-1.01-2.69-1.02h-.1"/>
          <line class="cls-13" x1="127.44" y1="209.18" x2="160.03" y2="221.05"/>
          <line class="cls-13" x1="128.25" y1="206.31" x2="160.85" y2="218.18"/>
          <line class="cls-4" x1=".5" y1="12.02" x2="35.18"/>
          <line class="cls-4" x1="19.43" x2=".5" y2="6.57"/>
          <line class="cls-4" x1=".5" y1="64.5" x2="186.59"/>
          <line class="cls-13" x1="92.16" y1="205.08" x2="85.57" y2="202.68"/>
          <line class="cls-13" x1="99.18" y1="202.65" x2="79.79" y2="195.59"/>
          <line class="cls-13" x1="103.01" y1="199.66" x2="82.41" y2="192.16"/>
          <line class="cls-13" x1="111.43" y1="185.73" x2="106.33" y2="183.87"/>
          <polyline class="cls-13" points="102.22 183.19 79.93 175.08 42.3 161.37"/>
          <polyline class="cls-13" points="102.25 178.97 79.97 170.86 48.24 159.31"/>
          <polyline class="cls-13" points="55.11 156.93 80.01 166 104.67 174.98"/>
          <line class="cls-13" x1="37.51" y1="163.03" x2="87.07" y2="181.08"/>
          <path class="cls-13" d="m152.14,223.84s.14.03.27.04c.23.02.61.04,1.1.13s1.09.25,1.71.48c.63.22,1.37.55,2.16.93s1.63.79,2.43,1.15c.45.2.95.41,1.46.59"/>
          <path class="cls-13" d="m155.09,208.39c-.66.27-1.11.6-1.3.95"/>
          <path class="cls-13" d="m155.09,208.39c.28-.09.59-.17.93-.24.33-.07.69-.13,1.07-.17.68-.07,1.41-.1,2.14-.08.73.03,1.46.1,2.13.23.67.12,1.28.28,1.79.49.51.2.92.43,1.2.69.28.25.44.52.45.79,0,.17-.04.35-.14.52,0,.01-.01.01-.01.02"/>
          <path class="cls-13" d="m163.81,207.92c-1.11-.4-2.63-.66-4.32-.67-3.39-.02-6.14.93-6.15,2.13-.01.61.68,1.16,1.79,1.56s2.64.66,4.32.67c2.2.02,4.12-.38,5.21-.99.59-.32.94-.72.94-1.14.01-.6-.68-1.15-1.79-1.56Z"/>
          <path class="cls-13" d="m143.37,199.56c.11-.04.23-.04.34-.01"/>
          <line class="cls-13" x1="131.96" y1="203.51" x2="143.37" y2="199.55"/>
          <path class="cls-13" d="m131.96,203.51s-.09.03-.12.06c-.04.02-.08.05-.11.08s-.06.06-.08.1c-.03.03-.05.07-.07.1-.02.04-.03.08-.04.12"/>
          <line class="cls-13" x1="131.38" y1="204.41" x2="131.54" y2="203.97"/>
          <path class="cls-13" d="m131.38,204.41c-.01.05-.04.1-.06.15s-.05.09-.08.13c-.02.04-.05.08-.08.11s-.06.06-.09.08c-.03.03-.06.04-.09.06"/>
          <polyline class="cls-13" points="128.13 206.31 128.48 206.14 130.98 204.94"/>
          <path class="cls-13" d="m127.36,209.13c-.08-.11-.15-.23-.2-.36-.05-.15-.09-.31-.09-.48-.01-.17,0-.35.04-.53.03-.18.09-.35.16-.52.08-.16.17-.32.28-.46s.24-.26.38-.35c.06-.05.13-.09.2-.12"/>
          <line class="cls-13" x1="133.33" y1="216.39" x2="127.36" y2="209.13"/>
          <path class="cls-13" d="m135.01,217.61c-.66-.25-1.24-.67-1.68-1.22"/>
          <path class="cls-13" d="m147.72,199.74c-.17-.06-.36-.07-.54-.03"/>
          <line class="cls-13" x1="145.25" y1="200.12" x2="147.18" y2="199.71"/>
          <line class="cls-13" x1="135.01" y1="217.61" x2="139.42" y2="219.21"/>
          <line class="cls-13" x1="147.72" y1="199.74" x2="180.32" y2="211.61"/>
          <polyline class="cls-13" points="143.71 199.56 145.25 200.12 164.15 207 176.3 211.42"/>
          <path class="cls-13" d="m176.6,211.71c-.06-.13-.17-.24-.3-.29"/>
          <line class="cls-13" x1="176.74" y1="212.05" x2="176.6" y2="211.71"/>
          <path class="cls-13" d="m176.74,212.05s.02.03.02.05l.03.03s.01.01.02.02.01.01.02.01c0,.01.01.01.02.01"/>
          <path class="cls-13" d="m180.76,213.92c.09-.16.15-.33.2-.5.05-.18.07-.36.08-.54,0-.17-.02-.35-.07-.51-.04-.15-.11-.3-.21-.43-.08-.11-.19-.2-.31-.27-.04-.03-.09-.05-.13-.06"/>
          <line class="cls-13" x1="174.65" y1="225.38" x2="180.76" y2="213.92"/>
          <path class="cls-13" d="m167.6,229.47c.47.17.97.25,1.49.22.51-.03,1.04-.15,1.56-.36.51-.22,1.02-.52,1.51-.9.48-.38.94-.83,1.36-1.35.42-.51.8-1.09,1.13-1.7"/>
          <polyline class="cls-13" points="146.04 221.62 148.49 222.51 152.13 223.84"/>
          <line class="cls-13" x1="161.27" y1="227.17" x2="167.6" y2="229.47"/>
          <path class="cls-13" d="m139.95,219.28h-.19c-.13-.01-.24-.03-.34-.07"/>
          <path class="cls-13" d="m148.49,222.52c-.65.43-1.39.71-2.16.85-2.89.49-5.64-1.32-6.38-4.09-.05-.18-.09-.35-.12-.53"/>
          <line class="cls-4" x1=".5" y1="74.9" x2="71.33" y2="50.35"/>
          <line class="cls-4" x1="89.15" y1="44.17" x2="201.47" y2="5.25"/>
          <path class="cls-13" d="m85.89,46.44s.06-.06.09-.1"/>
          <path class="cls-13" d="m75.92,45.31c.18.57.35.99.49,1.28h0"/>
          <path class="cls-13" d="m75.92,45.31c1.29.4,2.4,0,3.7-1.28"/>
          <path class="cls-13" d="m84.65,44.54c-1.76.67-3.28.52-5.03-.51"/>
          <path class="cls-13" d="m85.98,46.34c-.47.23-.87-.32-1.33-1.8"/>
          <path class="cls-13" d="m84.63,46.98c.51-.15.94-.34,1.26-.54.42-.28.67-.6.67-.94.01-1.1-2.49-2.01-5.59-2.03-3.09-.03-5.61.85-5.62,1.95,0,.43.39.84,1.06,1.17.76.38,1.88.67,3.18.79.43.04.88.07,1.35.07,1.41.01,2.7-.17,3.69-.46"/>
          <path class="cls-13" d="m89.31,44.31c-.05-.06-.1-.1-.16-.14-1.43-1.11-4.55-1.89-8.17-1.92-3.76-.03-7,.77-8.36,1.92"/>
          <path class="cls-13" d="m72.47,44.3c-.35.34-.54.71-.54,1.09-.01,1.77,4.02,3.24,9,3.28,4.99.04,9.04-1.37,9.05-3.14,0-.38-.18-.75-.52-1.09"/>
          <path class="cls-13" d="m71.36,45.92c0,1.34,2.23,2.62,5.92,3.19,4.89.75,10.51-.03,12.53-1.76.49-.41.73-.84.73-1.29.01-.44-.23-.88-.71-1.3"/>
          <path class="cls-13" d="m72.09,44.62c-.49.42-.73.86-.73,1.29"/>
          <path class="cls-13" d="m89.74,56.84c.47-.39.73-.83.73-1.29"/>
          <path class="cls-13" d="m72.23,56.9c1.54,1.15,4.82,1.95,8.62,1.99,3.83.03,7.14-.74,8.68-1.88"/>
          <path class="cls-13" d="m71.29,55.4c0,.46.25.9.71,1.3"/>
          <path class="cls-13" d="m72.51,57.16c.57.5,1.44.92,2.51,1.25,2.49.77,6.03,1.04,9.26.59.88-.12,1.69-.29,2.41-.5,1.09-.32,1.96-.73,2.52-1.21"/>
          <line class="cls-13" x1="79.59" y1="47.38" x2="79.62" y2="44.03"/>
          <polyline class="cls-13" points="84.63 46.99 84.63 46.98 84.65 44.54"/>
          <polyline class="cls-13" points="89.31 44.31 89.46 44.44 89.83 44.76"/>
          <polyline class="cls-13" points="72.62 44.17 72.47 44.3 72.09 44.62"/>
          <line class="cls-13" x1="90.54" y1="46.06" x2="90.47" y2="55.55"/>
          <polyline class="cls-13" points="71.36 45.91 71.36 45.92 71.33 50.35 71.29 55.4"/>
          <polyline class="cls-13" points="72.51 57.16 72.23 56.9 72 56.7"/>
          <polyline class="cls-13" points="89.21 57.29 89.53 57.01 89.74 56.84"/>
          <path class="cls-13" d="m80.48,106.62h-.01c-3.3-.03-5.98.9-5.99,2.07,0,.43.35.83.96,1.17,1.06.59,2.9.99,5,1.01h.1c2.06,0,3.86-.37,4.92-.93.62-.33.98-.72.98-1.15.01-1.18-2.65-2.15-5.96-2.17Z"/>
          <path class="cls-13" d="m85.46,109.94c-1.14-.64-3.05-.99-5-1-1.12-.01-2.26.09-3.27.32-.7.15-1.3.36-1.75.6"/>
          <path class="cls-13" d="m79.09,104.75c-5.12.18-9.19,1.6-9.83,3.41-.06.16-.09.32-.09.49"/>
          <path class="cls-13" d="m69.17,108.66c0,2.21,5.04,4.04,11.26,4.09h.11c6.18.03,11.18-1.72,11.2-3.92.02-2.21-5.02-4.05-11.25-4.1-.47,0-.93,0-1.39.02"/>
          <path class="cls-13" d="m69.16,110.97c-.02,2.22,5.02,4.05,11.25,4.1,5.93.05,10.81-1.55,11.27-3.61.03-.1.04-.2.04-.31"/>
          <line class="cls-13" x1="91.74" y1="108.83" x2="91.72" y2="111.15"/>
          <polyline class="cls-13" points="69.17 108.65 69.17 108.66 69.16 110.97"/>
          <path class="cls-13" d="m80.11,196.59c1.6,2.35,3.43,4.39,5.45,6.09,0,0,0,.01.01,0,.89.76,1.82,1.44,2.79,2.06"/>
          <path class="cls-13" d="m88.36,204.74c1.09.7,2.43.82,3.8.34"/>
          <line class="cls-13" x1="99.18" y1="202.65" x2="92.16" y2="205.08"/>
          <path class="cls-13" d="m99.18,202.65c1.38-.47,2.72-1.52,3.83-2.99"/>
          <path class="cls-13" d="m103.01,199.66c.55-.72,1.09-1.46,1.6-2.21,2.56-3.63,4.85-7.56,6.82-11.72"/>
          <path class="cls-13" d="m111.43,185.73c.58-1.21.42-2.58-.34-3.06-.3-.19-.66-.22-1.03-.09"/>
          <polyline class="cls-13" points="103.8 184.75 106.32 183.87 106.33 183.87 110.06 182.58"/>
          <path class="cls-13" d="m102.22,183.19c0,.74.27,1.29.7,1.52.04.02.08.03.12.05.23.08.48.08.76-.01"/>
          <line class="cls-13" x1="102.25" y1="178.97" x2="102.22" y2="183.19"/>
          <path class="cls-13" d="m104.67,174.98c-1.32.46-2.41,2.25-2.42,3.99"/>
          <path class="cls-13" d="m89.45,183.41c.01-1.21-.49-2.07-1.24-2.35-.34-.12-.73-.12-1.14.02"/>
          <line class="cls-13" x1="89.42" y1="187.63" x2="89.45" y2="183.41"/>
          <path class="cls-13" d="m87.8,190.29c.88-.3,1.61-1.5,1.62-2.66"/>
          <polyline class="cls-13" points="81.53 192.46 82.41 192.16 86.34 190.8 87.8 190.29"/>
          <path class="cls-13" d="m81.53,192.46c-.95.34-1.74,1.63-1.75,2.89,0,.08,0,.16.01.24.03.39.14.73.32,1"/>
          <line class="cls-13" x1="87.07" y1="181.08" x2=".5" y2="211.09"/>
          <line class="cls-13" x1="201.47" y1="141.43" x2="104.67" y2="174.98"/>
          <polyline class="cls-13" points="103.04 184.76 102.92 184.71 79.92 176.34 40.51 161.99"/>
          <polyline class="cls-13" points="88.21 181.06 79.91 178.04 38.12 162.82"/>
          <line class="cls-13" x1="79.09" y1="104.75" x2="79.1" y2="104.75"/>
          <polyline class="cls-13" points=".5 175.86 37.5 163.03 37.51 163.03 38.11 162.82 38.12 162.82 40.51 161.99 42.29 161.37 42.3 161.37 48.24 159.31 55.1 156.93 55.11 156.93 80.15 148.25 201.47 106.2"/>
          <polyline class="cls-13" points="79.91 178.04 79.92 176.34 79.93 175.08 79.97 170.86 80.01 166 80.15 148.25"/>
          <polyline class="cls-13" points="80.33 124.73 80.38 118.49 80.41 115.38 80.41 115.07"/>
          <polyline class="cls-13" points="80.44 110.87 80.46 108.94 80.48 106.62 80.49 104.73 80.49 104.26 80.51 102.06 80.53 100.02"/>
          <polyline class="cls-13" points="86.34 190.8 104.61 197.45 128.48 206.14"/>
          <polyline class="cls-4" points=".5 0 .5 6.57 .5 12.02 .5 64.5 .5 74.9 .5 125.11 .5 134.81 .5 137.93 .5 142.18 .5 159.14 .5 164.59 .5 175.86 .5 211.09 .5 262.54 .5 271.62 201.47 271.62 201.47 262.54"/>
          <polyline class="cls-13" points="131.96 203.51 154.82 211.8 164.67 215.38"/>
          <line class="cls-13" x1="163.7" y1="216.8" x2="130.98" y2="204.94"/>
          <path class="cls-13" d="m75.52,98.61c.18.11.35.21.54.3,1.4.74,2.94,1.11,4.47,1.11,1.73,0,3.47-.48,5-1.42"/>
          <path class="cls-13" d="m85.53,98.6c.53-.33.85-.91.86-1.53"/>
          <path class="cls-13" d="m74.71,97.22c0,.58.31,1.11.81,1.39"/>
          <path class="cls-14" d="m75.56,94.59c3.07,1.87,6.94,1.87,10-.02"/>
          <path class="cls-14" d="m75.59,90.56c3.07,1.87,6.94,1.87,10-.02"/>
          <path class="cls-14" d="m75.62,86.53c3.07,1.87,6.94,1.87,10-.02"/>
          <path class="cls-14" d="m75.65,82.5c3.07,1.87,6.94,1.87,10.01-.02"/>
          <path class="cls-14" d="m75.68,78.47c3.08,1.87,6.94,1.87,10.01-.02"/>
          <path class="cls-14" d="m75.71,74.44c3.08,1.87,6.94,1.87,10.01-.02"/>
          <path class="cls-14" d="m75.75,70.41c3.07,1.87,6.94,1.87,10-.02"/>
          <path class="cls-14" d="m75.78,66.38c3.07,1.88,6.94,1.87,10-.02"/>
          <path class="cls-14" d="m75.81,62.35c3.07,1.88,6.94,1.87,10-.02"/>
          <polyline class="cls-13" points="74.71 97.22 74.73 94.58 74.76 90.55 74.8 86.52 74.83 82.49 74.86 78.46 74.89 74.43 74.92 70.4 74.96 66.37 74.99 62.34 75.02 58.41"/>
          <polyline class="cls-13" points="86.39 97.07 86.4 95.33 86.41 94.58 86.44 90.55 86.47 86.52 86.5 82.49 86.53 78.46 86.57 74.43 86.6 70.4 86.63 66.37 86.66 62.34 86.69 58.5"/>
        </g>
      </g>
    </g>
  </g>
</svg>