<?xml version="1.0" encoding="UTF-8"?>
<svg id="Layer_2" data-name="Layer 2" xmlns="http://www.w3.org/2000/svg" viewBox="0 0 201.97 271.62">
  <defs>
    <style>
      .cls-1 {
        fill: #474747;
      }

      .cls-1, .cls-2, .cls-3, .cls-4, .cls-5, .cls-6, .cls-7, .cls-8, .cls-9, .cls-10, .cls-11, .cls-12 {
        stroke-width: 0px;
      }

      .cls-2 {
        fill: #5e5e5e;
      }

      .cls-3 {
        fill: #e5e5e5;
      }

      .cls-4, .cls-13, .cls-14 {
        fill: none;
      }

      .cls-13 {
        stroke: #000;
      }

      .cls-13, .cls-14 {
        stroke-linecap: round;
        stroke-linejoin: round;
      }

      .cls-5 {
        fill: #2d2d2d;
      }

      .cls-14 {
        stroke: #717171;
      }

      .cls-6 {
        fill: #3d3d3d;
      }

      .cls-7 {
        fill: #e2e2e2;
      }

      .cls-8 {
        fill: #4f4f4f;
      }

      .cls-9 {
        fill: #e84e0f;
      }

      .cls-10 {
        fill: #3a3a3a;
      }

      .cls-11 {
        fill: #424241;
      }

      .cls-12 {
        fill: #aaa;
      }
    </style>
  </defs>
  <g id="mounting_2_light" data-name="mounting 2 light">
    <g id="LINE">
      <g>
        <g>
          <polygon class="cls-7" points="201.47 106.19 201.47 141.42 104.67 174.97 80.01 165.99 80.15 148.24 201.47 106.19"/>
          <polygon class="cls-1" points="201.47 94.93 201.47 106.19 80.15 148.24 55.11 156.92 55.1 156.92 48.24 159.3 42.29 161.37 40.51 161.98 38.11 162.82 37.51 163.02 37.5 163.02 .5 175.85 .5 164.59 201.47 94.93"/>
          <polygon class="cls-2" points="201.47 89.47 201.47 94.93 .5 164.59 .5 159.13 201.47 89.47"/>
          <path class="cls-8" d="m118.89,111.61c.66-2.59.24-6.12-1.35-10l83.93-29.1v16.96L.5,159.13v-16.96l47.2-16.36c.19.24.38.47.56.7h.01c.7.85,1.42,1.64,2.16,2.36h0c1.76,1.73,3.59,3.08,5.37,4h.01c2.54,1.31,4.96,1.74,6.89,1.07l52.8-18.3c1.74-.6,2.88-2.04,3.38-4.03Z"/>
          <path class="cls-11" d="m201.47,68.27v4.24l-83.93,29.1c-.16-.39-.36-.77-.58-1.13-.06-.64-.27-1.22-.67-1.65-.18-.19-.42-.37-.69-.5-.14-.06-.27-.12-.42-.16l86.29-29.9Z"/>
          <path class="cls-5" d="m201.47,65.15v3.12l-86.29,29.9c-1.78-.5-3.88-.85-6.12-.99l92.41-32.03Z"/>
          <path class="cls-10" d="m201.47,55.44v9.71l-92.41,32.03c-.3-.03-.6-.05-.89-.09-1.24-.14-2.35-.38-3.47-.61-.75-.15-1.5-.31-2.22-.43-.9-.16-1.77-.27-2.59-.27s-1.62.11-2.33.36l-17.05,5.91.02-2.04c1.73,0,3.47-.47,5-1.42.53-.33.85-.9.86-1.52v-1.74s115.08-39.89,115.08-39.89Z"/>
          <path class="cls-5" d="m201.47,5.24v50.2l-115.07,39.89v-.76s.04-4.03.04-4.03l.03-4.03.03-4.03.03-4.03.04-4.03.03-4.03.03-4.03.03-4.03.03-3.83h0c1.09-.33,1.96-.74,2.52-1.22l.51-.43h.02c.47-.41.73-.84.73-1.3l.07-9.49c0-.44-.23-.89-.71-1.31l-.37-.32-.15-.13c-.05-.06-.1-.1-.16-.13L201.47,5.24Z"/>
          <path class="cls-9" d="m201.47,0v5.24l-112.32,38.93c-1.43-1.12-4.54-1.9-8.17-1.92-3.88-.03-7.2.81-8.48,2.02l-.03.03-.38.32c-.5.42-.73.85-.73,1.28h0s-.03,4.45-.03,4.45L.5,74.9v-10.4L186.59,0h14.88Z"/>
          <polygon class="cls-5" points="186.59 0 .5 64.5 .5 12.02 35.17 0 186.59 0"/>
          <path class="cls-12" d="m174.65,225.37c-.33.61-.71,1.19-1.13,1.71-.42.51-.88.97-1.37,1.35-.48.38-.99.68-1.5.89-.52.21-1.05.34-1.56.36-.52.03-1.02-.04-1.49-.21-.61-.23-1.15-.62-1.6-1.16l-5.97-7.27c-.15-.19-.25-.45-.27-.76-.06-.85.42-1.79,1.08-2.11l2.86-1.37c.16-.08.31-.26.38-.48l.16-.45c.08-.24.25-.43.43-.5l11.4-3.95c.08-.03.16-.03.23,0,.13.05.24.15.29.28h0l.14.35s.02.03.02.04l.03.03s0,.02.02.02l.02.02s.01,0,.02.01c.05.02.11.02.17.01l2.85-.61c.16-.03.31-.02.45.03.04.02.09.04.13.06.12.07.23.17.31.28.1.12.17.27.21.43.05.16.07.33.07.51-.01.17-.03.35-.08.53s-.11.35-.2.51l-6.11,11.45Z"/>
          <path class="cls-12" d="m147.72,199.73l32.6,11.87c-.14-.05-.29-.06-.45-.03l-2.85.61c-.06.01-.12.01-.17-.01,0-.01-.02-.01-.02-.01l-.02-.02s-.02,0-.02-.02l-.03-.03s0-.03-.02-.04l-.14-.35h0c-.05-.13-.16-.23-.29-.28l-12.15-4.43-18.91-6.88,1.94-.41c.18-.04.37-.03.54.03Z"/>
          <path class="cls-12" d="m176.3,211.42c-.07-.03-.15-.03-.23,0l-11.4,3.95-9.85-3.58.31-.86c1.1.41,2.63.66,4.32.68,2.19.01,4.11-.38,5.2-.98h0c.6-.33.95-.73.95-1.16.01-.6-.68-1.15-1.79-1.55l.34-.93,12.15,4.43Z"/>
          <path class="cls-12" d="m167.6,229.47l-6.33-2.31c-.51-.19-1.01-.39-1.46-.59-.8-.36-1.64-.78-2.43-1.15-.79-.38-1.53-.71-2.16-.94-.62-.23-1.23-.39-1.71-.48-.49-.08-.87-.11-1.1-.13-.13-.01-.23-.02-.27-.04h-.01l-3.64-1.32-2.46-.9c-.12-.04-.25-.09-.37-.14-1.02-.42-2.03-1.06-2.98-1.62-.05-.03-.11-.06-.16-.09-1.1-.64-2.09-1.01-2.69-1.02h-.1c-.43.03-.59.23-.47.36l.06.06-4.31-1.56c-.66-.25-1.24-.67-1.68-1.21l-5.97-7.27s.05.05.08.06l32.59,11.86,5.97,7.27c.45.54.99.93,1.6,1.16Z"/>
          <path class="cls-12" d="m164.65,210.62h0c-1.09.61-3.01,1-5.2.99-1.69-.02-3.22-.27-4.32-.68-1.11-.4-1.8-.95-1.79-1.55,0-1.2,2.76-2.16,6.15-2.13,1.69.01,3.21.26,4.32.67,1.11.4,1.8.95,1.79,1.55,0,.43-.35.83-.95,1.15Z"/>
          <path class="cls-12" d="m154.82,211.79l9.85,3.58c-.18.07-.35.26-.43.5l-.16.45c-.07.22-.22.4-.38.48l-32.72-11.87s.06-.03.09-.05c.02-.03.06-.05.09-.09.03-.03.06-.06.08-.1.03-.05.06-.09.08-.14.02-.04.04-.09.06-.14l.15-.45s.03-.08.05-.11c.02-.04.04-.08.07-.11.02-.03.05-.07.08-.1s.07-.05.11-.08c.03-.02.07-.04.12-.06l22.86,8.29Z"/>
          <path class="cls-12" d="m164.15,206.99l-.34.93c-1.11-.41-2.63-.66-4.32-.67-3.39-.03-6.14.93-6.15,2.13-.01.6.68,1.15,1.79,1.55l-.31.86-22.86-8.29,11.41-3.95c.11-.04.23-.04.34,0l1.53.56,18.91,6.88Z"/>
          <path class="cls-12" d="m163.7,216.8l-2.86,1.37-32.59-11.87s-.09-.01-.12,0l.35-.17,2.5-1.2,32.72,11.87Z"/>
          <path class="cls-12" d="m128.25,206.3l32.59,11.87c-.66.32-1.14,1.26-1.08,2.11.02.31.12.57.27.76l-32.59-11.86s-.06-.03-.08-.06c-.09-.1-.15-.23-.2-.36-.06-.15-.09-.31-.09-.47-.01-.18,0-.36.04-.53.03-.18.09-.36.16-.52.08-.17.17-.32.28-.46s.24-.26.38-.36c.06-.04.13-.08.2-.12.03-.01.08-.01.12,0Z"/>
          <path class="cls-3" d="m146.03,221.61l2.46.9c-.65.43-1.39.72-2.16.85-2.89.49-5.63-1.31-6.38-4.08-.05-.18-.09-.36-.12-.54.6.01,1.59.38,2.69,1.02.05.03.11.06.16.09.95.56,1.96,1.2,2.98,1.62.12.05.25.1.37.14Z"/>
          <path class="cls-6" d="m117.54,101.61c1.59,3.88,2.01,7.41,1.35,10-1.44-2.38-8.02-3.95-14.71-3.49-2.34.16-4.48.56-6.18,1.15l-6.31,2.18h0c.03-.1.04-.2.04-.31l.02-2.32c.02-2.21-5.02-4.05-11.25-4.09v-.47l17.6-6.1c.58-.2,1.24-.31,1.96-.33s1.52.03,2.37.13c.69.08,1.41.18,2.16.28,1.11.14,2.22.29,3.47.34.27.01.55.03.82.04,3.27.22,6.18.89,8.09,1.86.22.36.42.74.58,1.13Z"/>
          <path class="cls-2" d="m116.29,98.83c.4.43.61,1.01.67,1.65-1.91-.97-4.82-1.64-8.09-1.86-.27-.01-.55-.03-.82-.04-1.25-.05-2.36-.2-3.47-.34-.75-.1-1.47-.2-2.16-.28-.85-.1-1.65-.15-2.37-.13s-1.38.13-1.96.33l-17.6,6.1.02-2.21,17.05-5.91c.71-.25,1.5-.36,2.33-.36s1.69.11,2.59.27c.72.12,1.47.28,2.22.43,1.12.23,2.23.47,3.47.61.29.04.59.06.89.09,2.24.14,4.34.49,6.12.99.15.04.28.1.42.16.27.13.51.31.69.5Z"/>
          <path class="cls-2" d="m80.41,115.37v-.31c5.93.05,10.8-1.54,11.27-3.61h0l6.31-2.18c1.7-.59,3.84-.99,6.18-1.15,6.69-.46,13.27,1.11,14.71,3.49-.5,1.99-1.64,3.43-3.38,4.03l-52.8,18.3c-1.93.67-4.35.24-6.89-1.07.95-.1,1.81-.28,2.51-.52l22-7.63,30.8-10.67c2.43-.85,2.44-2.24.02-3.12-2.41-.88-6.34-.91-8.77-.07l-22,7.63.03-3.12Z"/>
          <path class="cls-7" d="m111.09,182.66c.76.48.92,1.86.34,3.07l-5.11-1.86,3.74-1.3c.37-.13.73-.1,1.03.09Z"/>
          <path class="cls-5" d="m111.15,110.93c2.42.88,2.41,2.27-.02,3.12l-30.8,10.67.05-6.23,22-7.63c2.43-.84,6.36-.81,8.77.07Z"/>
          <path class="cls-7" d="m102.91,184.7h0c.26.13.56.15.89.04l2.52-.87,5.11,1.86c-1.97,4.16-4.26,8.09-6.81,11.71l-18.27-6.65,1.45-.5c.88-.31,1.61-1.5,1.62-2.67l.03-4.22c0-1.2-.49-2.07-1.24-2.34l-.17-.06-8.13-2.96v-1.71s23,8.37,23,8.37Z"/>
          <path class="cls-7" d="m80.01,165.99l24.66,8.98c-1.32.46-2.41,2.25-2.42,4l-22.28-8.11.04-4.87Z"/>
          <path class="cls-7" d="m86.35,190.79l18.27,6.65c-.52.75-1.06,1.49-1.61,2.22l-20.59-7.51,3.92-1.36h0Z"/>
          <path class="cls-7" d="m82.42,192.15l20.59,7.51c-1.11,1.46-2.46,2.51-3.83,2.99l-19.39-7.06c-.01-.08-.01-.16-.01-.24.01-1.27.8-2.56,1.75-2.89l.88-.31h0Z"/>
          <polygon class="cls-7" points="102.25 178.97 102.21 183.19 79.93 175.08 79.97 170.86 102.25 178.97"/>
          <path class="cls-7" d="m99.18,202.65l-7.02,2.43-6.59-2.41h-.01c-2.02-1.7-3.85-3.74-5.45-6.08-.18-.27-.29-.61-.32-1l19.39,7.06Z"/>
          <path class="cls-7" d="m85.57,202.67l6.59,2.41c-1.37.48-2.71.35-3.81-.35-.96-.61-1.89-1.3-2.78-2.06Z"/>
          <path class="cls-12" d="m80.49,104.73c6.23.04,11.27,1.88,11.25,4.09-.02,2.2-4.99,3.94-11.14,3.92v-1.88c2.03,0,3.81-.36,4.86-.92.62-.33.98-.73.98-1.16.01-1.17-2.65-2.14-5.96-2.17v-1.88Z"/>
          <path class="cls-12" d="m91.74,108.82l-.02,2.32c0,.11,0,.21-.04.31-.47,2.07-5.34,3.66-11.27,3.61-6.23-.04-11.27-1.88-11.25-4.09v-2.31c0,2.2,5.04,4.04,11.27,4.08h.17c6.15.02,11.12-1.72,11.14-3.92Z"/>
          <path class="cls-12" d="m89.83,44.75c.48.42.72.87.71,1.31s-.25.88-.73,1.29c-2.03,1.72-7.64,2.51-12.53,1.75-3.69-.57-5.92-1.85-5.92-3.19h0c0-.44.23-.87.73-1.29l.38-.32c-.35.33-.54.7-.54,1.08-.02,1.77,4.01,3.24,9,3.28s9.04-1.36,9.05-3.14c0-.38-.18-.75-.52-1.09l.37.32Z"/>
          <path class="cls-12" d="m90.54,46.06l-.07,9.49c0,.46-.26.89-.73,1.29h-.02c-1.45,1.23-4.88,2.07-8.87,2.04-3.92-.03-7.29-.89-8.76-2.1l-.09-.08c-.46-.4-.71-.84-.71-1.3l.04-5.05.03-4.44c0,1.34,2.23,2.62,5.92,3.19,4.89.76,10.5-.03,12.53-1.75.48-.41.72-.85.73-1.29Z"/>
          <path class="cls-12" d="m72.5,44.27c1.28-1.21,4.6-2.05,8.48-2.02,3.63.02,6.74.8,8.17,1.92.06.03.11.07.16.13l.15.13c.34.34.52.71.52,1.09-.01,1.78-4.06,3.18-9.05,3.14s-9.02-1.51-9-3.28c0-.38.19-.75.54-1.08l.03-.03Zm14.06,1.23c.01-1.1-2.5-2.01-5.59-2.04-3.09-.02-5.61.85-5.62,1.95,0,.44.39.85,1.07,1.17h0c.76.39,1.88.67,3.17.79.43.04.88.07,1.35.07,1.41.01,2.7-.16,3.69-.46.51-.15.93-.34,1.26-.55h0c.42-.28.66-.59.66-.93Z"/>
          <path class="cls-7" d="m79.91,178.04l8.13,2.96c-.29-.07-.62-.05-.97.07l-49.56-18.05.6-.2,41.8,15.22Z"/>
          <polygon class="cls-7" points="87.07 181.07 .5 211.08 .5 175.85 37.5 163.02 37.51 163.02 87.07 181.07"/>
          <path class="cls-12" d="m86.69,58.5l-.03,3.83h-.85c-3.06,1.88-6.93,1.89-10,.01h-.82s.03-3.94.03-3.94c2.48.77,6.03,1.04,9.26.59.89-.12,1.7-.29,2.41-.49Z"/>
          <path class="cls-12" d="m86.66,62.33l-.03,4.03h-.85c-3.06,1.88-6.93,1.89-10,0h-.82s.03-4.04.03-4.04h.82c3.07,1.89,6.94,1.88,10-.01h.85Z"/>
          <path class="cls-12" d="m86.63,66.36l-.03,4.03h-.85c-3.06,1.88-6.93,1.89-10,.01h-.83s.04-4.04.04-4.04h.82c3.07,1.89,6.94,1.88,10-.01h.85Z"/>
          <path class="cls-12" d="m86.6,70.39l-.03,4.03h-.85c-3.07,1.88-6.93,1.89-10.01.01h-.82s.03-4.04.03-4.04h.83c3.07,1.89,6.94,1.88,10,0h.85Z"/>
          <path class="cls-12" d="m86.57,74.42l-.04,4.03h-.84c-3.07,1.88-6.94,1.89-10.01.01h-.82s.03-4.04.03-4.04h.82c3.08,1.89,6.94,1.88,10.01-.01h.85Z"/>
          <path class="cls-12" d="m80.97,43.46c3.09.03,5.6.94,5.59,2.04,0,.34-.24.65-.66.93.03-.04.05-.06.08-.09-.47.22-.87-.32-1.33-1.8-1.76.67-3.28.51-5.03-.52-1.3,1.3-2.42,1.68-3.7,1.28.18.57.35.99.5,1.28-.68-.32-1.07-.73-1.07-1.17.01-1.1,2.53-1.97,5.62-1.95Z"/>
          <path class="cls-12" d="m86.53,78.45l-.03,4.03h-.84c-3.07,1.88-6.94,1.89-10.01.01h-.82s.03-4.04.03-4.04h.82c3.07,1.89,6.94,1.88,10.01-.01h.84Z"/>
          <path class="cls-12" d="m86.5,82.48l-.03,4.03h-.85c-3.06,1.88-6.93,1.89-10,.01h-.82s.03-4.04.03-4.04h.82c3.07,1.89,6.94,1.88,10.01,0h.84Z"/>
          <path class="cls-12" d="m86.47,86.51l-.03,4.03h-.85c-3.06,1.88-6.93,1.89-10,.01h-.83s.04-4.04.04-4.04h.82c3.07,1.89,6.94,1.88,10-.01h.85Z"/>
          <path class="cls-12" d="m86.44,90.54l-.03,4.03h-.85c-3.06,1.88-6.93,1.89-10,.01h-.83s.03-4.04.03-4.04h.83c3.07,1.89,6.94,1.88,10-.01h.85Z"/>
          <path class="cls-12" d="m80.48,106.61c3.31.03,5.97,1,5.96,2.17,0,.43-.36.83-.98,1.16h0c-1.14-.64-3.05-.99-5-1.01l.02-2.32Z"/>
          <path class="cls-12" d="m86.41,94.57v.76s-.02,1.74-.02,1.74c-.01.62-.33,1.19-.86,1.52-1.53.95-3.27,1.42-5,1.42-1.53.01-3.07-.36-4.47-1.1,0,0,0,.01,0,0-.18-.09-.36-.19-.53-.3-.5-.28-.81-.82-.81-1.4l.02-2.64h.83c3.07,1.89,6.94,1.88,10-.01h.85Z"/>
          <path class="cls-12" d="m85.98,46.34s-.05.05-.08.09h0c-.33.21-.75.4-1.26.55l.02-2.44c.46,1.48.86,2.02,1.33,1.8Z"/>
          <path class="cls-6" d="m85.46,109.93h0c-1.05.57-2.83.93-4.86.93h-.16l.02-1.93c1.95.02,3.86.37,5,1Z"/>
          <path class="cls-12" d="m84.65,44.54l-.02,2.44c-.99.3-2.28.47-3.69.46-.47,0-.92-.03-1.35-.07l.03-3.35c1.75,1.03,3.27,1.19,5.03.52Z"/>
          <path class="cls-12" d="m80.6,110.86v1.88h-.17c-6.23-.04-11.26-1.88-11.26-4.08h0c0-.18.03-.35.09-.51.66-1.82,4.72-3.22,9.83-3.4h0c.45-.02.92-.02,1.39-.02v1.88h-.02c-3.3-.03-5.98.9-5.99,2.08,0,.43.35.83.96,1.17h.01c1.06.58,2.9.98,4.99,1h.16Z"/>
          <path class="cls-10" d="m80.53,100.01l-.02,2.04-35.75,12.39c-.71.25-1.37.64-1.94,1.12-.56.48-1.04,1.06-1.4,1.65-.3.48-.52.97-.67,1.44-.16.47-.23.92-.24,1.32,0,.19.01.38.05.55.02.13.06.25.11.36L.5,134.81v-9.71l75.55-26.19s0,0,0,0c1.4.74,2.94,1.11,4.47,1.1Z"/>
          <path class="cls-2" d="m80.51,102.05l-.02,2.21-1.39.49h0c-5.11.18-9.17,1.58-9.83,3.4l-23.97,8.31c-.58.2-1.12.51-1.6.9-.48.4-.9.88-1.23,1.38-.26.41-.47.84-.62,1.24-.14.41-.22.8-.22,1.14,0,.16.02.32.05.46.03.11.07.2.11.3.08.17.18.34.32.51-.7-.47-1.19-.98-1.43-1.51-.05-.11-.09-.23-.11-.36-.04-.17-.05-.36-.05-.55.01-.4.08-.85.24-1.32.15-.47.37-.96.67-1.44.36-.59.84-1.17,1.4-1.65.57-.48,1.23-.87,1.94-1.12l35.75-12.39Z"/>
          <path class="cls-12" d="m80.48,106.61l-.02,2.32c-1.12-.01-2.26.09-3.27.32-.7.16-1.29.36-1.74.61h-.01c-.61-.34-.96-.74-.96-1.17,0-1.18,2.69-2.11,5.99-2.08h.01Z"/>
          <path class="cls-6" d="m80.46,108.93l-.02,1.93c-2.09-.02-3.93-.42-4.99-1,.45-.25,1.04-.45,1.74-.61,1.01-.23,2.15-.33,3.27-.32Z"/>
          <path class="cls-6" d="m80.41,115.06v.31l-32.14,11.14h-.01c-.18-.23-.37-.46-.56-.7-.27-.35-.57-.69-.89-1.01-1.14-.6-2.31-1.17-3.48-1.72-.46-.22-.87-.45-1.23-.69-.14-.17-.24-.34-.32-.51-.04-.1-.08-.19-.11-.3-.03-.14-.05-.3-.05-.46,0-.34.08-.73.22-1.14.15-.4.36-.83.62-1.24.33-.5.75-.98,1.23-1.38.48-.39,1.02-.7,1.6-.9l23.97-8.31c-.06.16-.09.33-.09.5h0s0,2.32,0,2.32c-.02,2.21,5.02,4.05,11.25,4.09Z"/>
          <path class="cls-2" d="m80.41,115.37l-.03,3.12-29.94,10.38h0c-.74-.72-1.46-1.51-2.16-2.36l32.14-11.14Z"/>
          <path class="cls-5" d="m80.38,118.49l-.05,6.23-22,7.63c-.7.24-1.56.42-2.51.52h-.01c-1.78-.92-3.61-2.27-5.37-4l29.94-10.38Z"/>
          <polygon class="cls-7" points="80.15 148.24 80.01 165.99 55.11 156.92 80.15 148.24"/>
          <polygon class="cls-7" points="80.01 165.99 79.97 170.86 48.24 159.3 55.1 156.92 55.11 156.92 80.01 165.99"/>
          <polygon class="cls-7" points="48.24 159.3 79.97 170.86 79.93 175.08 42.29 161.37 48.24 159.3"/>
          <polygon class="cls-7" points="79.93 175.08 79.92 176.33 40.51 161.98 42.29 161.37 79.93 175.08"/>
          <polygon class="cls-7" points="79.92 176.33 79.91 178.04 38.11 162.82 40.51 161.98 79.92 176.33"/>
          <path class="cls-12" d="m79.62,44.02l-.03,3.35c-1.29-.12-2.41-.4-3.17-.78h0c-.15-.3-.32-.72-.5-1.29,1.28.4,2.4.02,3.7-1.28Z"/>
          <path class="cls-5" d="m76.05,98.91L.5,125.1v-50.2l70.83-24.55-.04,5.05c0,.46.25.9.71,1.3l.09.08.42.37c.57.5,1.44.92,2.51,1.25l-.03,3.93-.03,4.03-.04,4.03-.03,4.03-.03,4.03-.03,4.03-.03,4.03-.04,4.03-.03,4.03-.02,2.64c0,.58.31,1.12.81,1.4.17.11.35.21.53.3Z"/>
          <path class="cls-11" d="m47.7,125.81L.5,142.17v-4.25l42.83-14.84c1.17.55,2.34,1.12,3.48,1.72.32.32.62.66.89,1.01Z"/>
          <path class="cls-5" d="m43.33,123.08L.5,137.92v-3.11l40.17-13.93c.24.53.73,1.04,1.43,1.51.36.24.77.47,1.23.69Z"/>
          <polygon class="cls-8" points="35.17 0 .5 12.02 .5 6.56 19.43 0 35.17 0"/>
          <polygon class="cls-10" points="19.43 0 .5 6.56 .5 0 19.43 0"/>
        </g>
        <g>
          <path class="cls-13" d="m128.25,206.3s-.09-.01-.12,0"/>
          <path class="cls-13" d="m127.36,209.12s.05.05.08.06"/>
          <path class="cls-13" d="m139.73,218.74c-.43.03-.59.23-.47.36l.06.06"/>
          <path class="cls-13" d="m180.32,211.6c-.14-.05-.29-.06-.45-.03"/>
          <line class="cls-13" x1="179.87" y1="211.57" x2="177.02" y2="212.18"/>
          <path class="cls-13" d="m176.85,212.17s.11.02.17.01"/>
          <path class="cls-13" d="m176.3,211.42c-.07-.03-.15-.03-.23,0"/>
          <path class="cls-13" d="m164.67,215.37c-.18.07-.35.26-.43.5"/>
          <line class="cls-13" x1="176.07" y1="211.42" x2="164.67" y2="215.37"/>
          <path class="cls-13" d="m174.65,225.37s-.02-.04-.06-.07"/>
          <path class="cls-13" d="m166,228.31c.45.54.99.93,1.6,1.16"/>
          <line class="cls-13" x1="160.03" y1="221.04" x2="166" y2="228.31"/>
          <path class="cls-13" d="m160.84,218.17c-.66.32-1.14,1.26-1.08,2.11.02.31.12.57.27.76"/>
          <line class="cls-13" x1="163.7" y1="216.8" x2="160.84" y2="218.17"/>
          <path class="cls-13" d="m163.7,216.8c.16-.08.31-.26.38-.48"/>
          <line class="cls-13" x1="164.24" y1="215.87" x2="164.08" y2="216.32"/>
          <path class="cls-13" d="m146.03,221.61c-.12-.04-.25-.09-.37-.14-1.02-.42-2.03-1.06-2.98-1.62-.05-.03-.11-.06-.16-.09"/>
          <path class="cls-13" d="m142.52,219.76c-1.1-.64-2.09-1.01-2.69-1.02h-.1"/>
          <line class="cls-13" x1="127.44" y1="209.18" x2="160.03" y2="221.04"/>
          <line class="cls-13" x1="128.25" y1="206.3" x2="160.84" y2="218.17"/>
          <line class="cls-4" x1=".5" y1="12.02" x2="35.17"/>
          <line class="cls-4" x1="19.43" x2=".5" y2="6.56"/>
          <line class="cls-4" x1=".5" y1="64.5" x2="186.59"/>
          <line class="cls-13" x1="92.16" y1="205.08" x2="85.57" y2="202.67"/>
          <line class="cls-13" x1="99.18" y1="202.65" x2="79.79" y2="195.59"/>
          <line class="cls-13" x1="103.01" y1="199.66" x2="82.42" y2="192.15"/>
          <line class="cls-13" x1="111.43" y1="185.73" x2="106.32" y2="183.87"/>
          <polyline class="cls-13" points="102.21 183.19 79.93 175.08 42.29 161.37"/>
          <polyline class="cls-13" points="102.25 178.97 79.97 170.86 48.24 159.3"/>
          <polyline class="cls-13" points="55.11 156.92 80.01 165.99 104.67 174.97"/>
          <line class="cls-13" x1="37.51" y1="163.02" x2="87.07" y2="181.07"/>
          <path class="cls-13" d="m152.14,223.83s.14.03.27.04c.23.02.61.05,1.1.13.48.09,1.09.25,1.71.48.63.23,1.37.56,2.16.94.79.37,1.63.79,2.43,1.15.45.2.95.4,1.46.59"/>
          <path class="cls-13" d="m155.09,208.39c-.66.26-1.11.59-1.3.94"/>
          <path class="cls-13" d="m155.09,208.39c.28-.1.59-.18.93-.25.33-.07.69-.12,1.07-.17.68-.07,1.41-.1,2.14-.07.73.02,1.45.1,2.13.22.67.12,1.28.29,1.79.49s.92.44,1.2.69.43.52.45.79c0,.19-.04.35-.15.53"/>
          <path class="cls-13" d="m163.81,207.92c-1.11-.41-2.63-.66-4.32-.67-3.39-.03-6.14.93-6.15,2.13-.01.6.68,1.15,1.79,1.55,1.1.41,2.63.66,4.32.68,2.19.01,4.11-.38,5.2-.98h0c.6-.33.95-.73.95-1.16.01-.6-.68-1.15-1.79-1.55Z"/>
          <path class="cls-13" d="m143.37,199.55c.11-.04.23-.04.34,0"/>
          <line class="cls-13" x1="131.96" y1="203.5" x2="143.37" y2="199.55"/>
          <path class="cls-13" d="m131.96,203.5s-.09.04-.12.06c-.04.03-.08.05-.11.08s-.06.07-.08.1c-.03.03-.05.07-.07.11-.02.03-.03.07-.05.11"/>
          <line class="cls-13" x1="131.38" y1="204.41" x2="131.53" y2="203.96"/>
          <path class="cls-13" d="m131.38,204.41c-.02.05-.04.1-.06.14-.02.05-.05.09-.08.14-.02.04-.05.07-.08.1-.03.04-.07.06-.09.09-.03.02-.06.04-.09.05"/>
          <polyline class="cls-13" points="128.13 206.3 128.48 206.13 130.98 204.93"/>
          <path class="cls-13" d="m127.36,209.12c-.09-.1-.15-.23-.2-.36-.06-.15-.09-.31-.09-.47-.01-.18,0-.36.04-.53.03-.18.09-.36.16-.52.08-.17.17-.32.28-.46s.24-.26.38-.36c.06-.04.13-.08.2-.12"/>
          <line class="cls-13" x1="133.33" y1="216.39" x2="127.36" y2="209.12"/>
          <path class="cls-13" d="m135.01,217.6c-.66-.25-1.24-.67-1.68-1.21"/>
          <path class="cls-13" d="m147.72,199.73c-.17-.06-.36-.07-.54-.03"/>
          <line class="cls-13" x1="145.24" y1="200.11" x2="147.18" y2="199.7"/>
          <polyline class="cls-13" points="135.01 217.6 139.32 219.16 139.42 219.2"/>
          <line class="cls-13" x1="147.72" y1="199.73" x2="180.32" y2="211.6"/>
          <polyline class="cls-13" points="143.71 199.55 145.24 200.11 164.15 206.99 176.3 211.42"/>
          <path class="cls-13" d="m176.59,211.7c-.05-.13-.16-.23-.29-.28"/>
          <line class="cls-13" x1="176.74" y1="212.05" x2="176.6" y2="211.7"/>
          <path class="cls-13" d="m176.74,212.05s.02.03.02.04l.03.03s0,.02.02.02l.02.02s.01,0,.02.01"/>
          <path class="cls-13" d="m180.76,213.92c.09-.16.15-.33.2-.51s.07-.36.08-.53c0-.18-.02-.35-.07-.51-.04-.16-.11-.31-.21-.43-.08-.11-.19-.21-.31-.28-.04-.02-.09-.04-.13-.06"/>
          <line class="cls-13" x1="174.65" y1="225.37" x2="180.76" y2="213.92"/>
          <path class="cls-13" d="m167.6,229.47c.47.17.97.24,1.49.21.51-.02,1.04-.15,1.56-.36.51-.21,1.02-.51,1.5-.89.49-.38.95-.84,1.37-1.35.42-.52.8-1.1,1.13-1.71"/>
          <polyline class="cls-13" points="146.03 221.61 148.49 222.51 152.13 223.83"/>
          <line class="cls-13" x1="161.27" y1="227.16" x2="167.6" y2="229.47"/>
          <path class="cls-13" d="m139.94,219.28c-.06,0-.12,0-.18-.01-.13-.01-.24-.03-.34-.07"/>
          <path class="cls-13" d="m148.49,222.51c-.65.43-1.39.72-2.16.85-2.89.49-5.63-1.31-6.38-4.08-.05-.18-.09-.36-.12-.54"/>
          <line class="cls-4" x1=".5" y1="74.9" x2="71.33" y2="50.35"/>
          <line class="cls-4" x1="89.15" y1="44.17" x2="201.47" y2="5.24"/>
          <path class="cls-13" d="m85.9,46.43s.05-.06.08-.09"/>
          <path class="cls-13" d="m75.92,45.3c.18.57.35.99.5,1.28"/>
          <path class="cls-13" d="m75.92,45.3c1.28.4,2.4.02,3.7-1.28"/>
          <path class="cls-13" d="m84.65,44.54c-1.76.67-3.28.51-5.03-.52"/>
          <path class="cls-13" d="m85.98,46.34c-.47.22-.87-.32-1.33-1.8"/>
          <path class="cls-13" d="m85.9,46.43c.42-.28.66-.59.66-.93.01-1.1-2.5-2.01-5.59-2.04-3.09-.02-5.61.85-5.62,1.95,0,.44.39.85,1.07,1.17h0c.76.39,1.88.67,3.17.79.43.04.88.07,1.35.07,1.41.01,2.7-.16,3.69-.46.51-.15.93-.34,1.26-.55h0Z"/>
          <path class="cls-13" d="m89.31,44.3c-.05-.06-.1-.1-.16-.13-1.43-1.12-4.54-1.9-8.17-1.92-3.88-.03-7.2.81-8.48,2.02"/>
          <path class="cls-13" d="m72.47,44.3c-.35.33-.54.7-.54,1.08-.02,1.77,4.01,3.24,9,3.28s9.04-1.36,9.05-3.14c0-.38-.18-.75-.52-1.09"/>
          <path class="cls-13" d="m71.36,45.91c0,1.34,2.23,2.62,5.92,3.19,4.89.76,10.5-.03,12.53-1.75.48-.41.72-.85.73-1.29s-.23-.89-.71-1.31"/>
          <path class="cls-13" d="m72.09,44.62c-.5.42-.73.85-.73,1.28"/>
          <path class="cls-13" d="m89.74,56.84c.47-.4.73-.83.73-1.29"/>
          <path class="cls-13" d="m72.09,56.78c1.47,1.21,4.84,2.07,8.76,2.1,3.99.03,7.42-.81,8.87-2.03"/>
          <path class="cls-13" d="m71.29,55.4c0,.46.25.9.71,1.3"/>
          <path class="cls-13" d="m86.69,58.49c1.09-.32,1.96-.73,2.52-1.21"/>
          <path class="cls-13" d="m72.51,57.15c.57.5,1.44.92,2.51,1.25,2.48.77,6.03,1.04,9.26.59.89-.12,1.7-.29,2.41-.49"/>
          <line class="cls-13" x1="79.59" y1="47.37" x2="79.62" y2="44.02"/>
          <line class="cls-13" x1="84.63" y1="46.98" x2="84.65" y2="44.54"/>
          <polyline class="cls-13" points="89.31 44.3 89.46 44.43 89.83 44.75"/>
          <polyline class="cls-13" points="72.62 44.17 72.5 44.27 72.47 44.3 72.09 44.62"/>
          <line class="cls-13" x1="90.54" y1="46.06" x2="90.47" y2="55.55"/>
          <polyline class="cls-13" points="71.36 45.9 71.36 45.91 71.33 50.35 71.29 55.4"/>
          <polyline class="cls-13" points="72.51 57.15 72.09 56.78 72 56.7"/>
          <polyline class="cls-13" points="89.21 57.28 89.72 56.85 89.74 56.84"/>
          <path class="cls-13" d="m75.45,109.86c1.06.58,2.9.98,4.99,1h.16c2.03,0,3.81-.36,4.86-.92.62-.33.98-.73.98-1.16.01-1.17-2.65-2.14-5.96-2.17h-.01c-3.3-.03-5.98.9-5.99,2.08,0,.43.35.83.96,1.17"/>
          <path class="cls-13" d="m85.46,109.93c-1.14-.63-3.05-.98-5-1-1.12-.01-2.26.09-3.27.32-.7.16-1.29.36-1.74.61h-.01"/>
          <path class="cls-13" d="m79.09,104.75c-5.11.18-9.17,1.58-9.83,3.4-.06.16-.09.33-.09.5"/>
          <path class="cls-13" d="m69.17,108.66c0,2.2,5.03,4.04,11.26,4.08h.17c6.15.02,11.12-1.72,11.14-3.92.02-2.21-5.02-4.05-11.25-4.09-.47,0-.94,0-1.39.02"/>
          <path class="cls-13" d="m69.16,110.97c-.02,2.21,5.02,4.05,11.25,4.09,5.93.05,10.8-1.54,11.27-3.61.03-.1.04-.2.04-.31"/>
          <line class="cls-13" x1="91.74" y1="108.82" x2="91.72" y2="111.14"/>
          <polyline class="cls-13" points="69.17 108.65 69.17 108.66 69.16 110.97"/>
          <path class="cls-13" d="m80.11,196.59c1.6,2.34,3.43,4.38,5.45,6.08h.01c.89.76,1.82,1.45,2.78,2.06"/>
          <path class="cls-13" d="m88.35,204.73c1.1.7,2.44.83,3.81.35"/>
          <line class="cls-13" x1="99.18" y1="202.65" x2="92.16" y2="205.08"/>
          <path class="cls-13" d="m99.18,202.65c1.37-.48,2.72-1.53,3.83-2.99"/>
          <path class="cls-13" d="m103.01,199.66c.55-.73,1.09-1.47,1.61-2.22,2.55-3.62,4.84-7.55,6.81-11.71"/>
          <path class="cls-13" d="m111.43,185.73c.58-1.21.42-2.59-.34-3.07-.3-.19-.66-.22-1.03-.09"/>
          <polyline class="cls-13" points="103.8 184.74 106.32 183.87 110.06 182.57"/>
          <path class="cls-13" d="m102.21,183.19c0,.73.28,1.28.7,1.5.26.14.56.16.89.05"/>
          <line class="cls-13" x1="102.25" y1="178.97" x2="102.21" y2="183.19"/>
          <path class="cls-13" d="m104.67,174.97c-1.32.46-2.41,2.25-2.42,4"/>
          <path class="cls-13" d="m88.04,181c-.29-.07-.62-.05-.97.07"/>
          <path class="cls-13" d="m89.45,183.4c0-1.2-.49-2.07-1.24-2.34"/>
          <line class="cls-13" x1="89.42" y1="187.62" x2="89.45" y2="183.4"/>
          <path class="cls-13" d="m87.8,190.29c.88-.31,1.61-1.5,1.62-2.67"/>
          <line class="cls-13" x1="86.35" y1="190.79" x2="87.8" y2="190.29"/>
          <polyline class="cls-13" points="81.53 192.46 82.41 192.15 82.42 192.15 86.34 190.79"/>
          <path class="cls-13" d="m81.53,192.46c-.95.33-1.74,1.62-1.75,2.89,0,.08,0,.16.01.24.03.39.14.73.32,1"/>
          <line class="cls-13" x1="87.07" y1="181.07" x2=".5" y2="211.08"/>
          <line class="cls-13" x1="201.47" y1="141.42" x2="104.67" y2="174.97"/>
          <polyline class="cls-13" points="103.04 184.75 102.91 184.7 79.92 176.33 40.51 161.98"/>
          <polyline class="cls-13" points="88.21 181.06 88.04 181 79.91 178.04 38.11 162.82"/>
          <line class="cls-13" x1="79.09" y1="104.75" x2="79.1" y2="104.75"/>
          <polyline class="cls-13" points=".5 175.85 37.5 163.02 37.51 163.02 38.11 162.82 40.51 161.98 42.29 161.37 48.24 159.3 55.1 156.92 55.11 156.92 80.15 148.24 201.47 106.19"/>
          <polyline class="cls-13" points="79.91 178.04 79.92 176.33 79.93 175.08 79.97 170.86 80.01 165.99 80.15 148.24"/>
          <polyline class="cls-13" points="80.33 124.72 80.38 118.49 80.41 115.37 80.41 115.06"/>
          <polyline class="cls-13" points="80.44 110.86 80.46 108.93 80.48 106.61 80.49 104.73 80.49 104.26 80.51 102.05 80.53 100.01"/>
          <polyline class="cls-13" points="86.34 190.79 86.35 190.79 104.62 197.44 128.48 206.13"/>
          <polyline class="cls-4" points=".5 0 .5 6.56 .5 12.02 .5 64.5 .5 74.9 .5 125.1 .5 134.81 .5 137.92 .5 142.17 .5 159.13 .5 164.59 .5 175.85 .5 211.08 .5 262.53 .5 271.62 201.47 271.62 201.47 262.53"/>
          <polyline class="cls-13" points="131.96 203.5 154.82 211.79 164.67 215.37"/>
          <line class="cls-13" x1="163.7" y1="216.8" x2="130.98" y2="204.93"/>
          <path class="cls-13" d="m76.06,98.91c1.4.74,2.94,1.11,4.47,1.1,1.73,0,3.47-.47,5-1.42"/>
          <path class="cls-13" d="m75.52,98.61c.17.11.35.21.53.3"/>
          <path class="cls-13" d="m85.53,98.59c.53-.33.85-.9.86-1.52"/>
          <path class="cls-13" d="m74.71,97.21c0,.58.31,1.12.81,1.4"/>
          <path class="cls-14" d="m75.56,94.58c3.07,1.88,6.94,1.87,10-.02"/>
          <path class="cls-14" d="m75.59,90.55c3.07,1.88,6.94,1.87,10-.02"/>
          <path class="cls-14" d="m75.62,86.52c3.07,1.88,6.94,1.87,10-.02"/>
          <path class="cls-14" d="m75.65,82.49c3.07,1.88,6.94,1.87,10.01-.02"/>
          <path class="cls-14" d="m75.68,78.46c3.07,1.88,6.94,1.87,10.01-.02"/>
          <path class="cls-14" d="m75.71,74.43c3.08,1.88,6.94,1.87,10.01-.02"/>
          <path class="cls-14" d="m75.75,70.4c3.07,1.88,6.94,1.87,10-.02"/>
          <path class="cls-14" d="m75.78,66.37c3.07,1.88,6.94,1.87,10-.02"/>
          <path class="cls-14" d="m75.81,62.34c3.07,1.88,6.94,1.87,10-.02"/>
          <polyline class="cls-13" points="74.71 97.21 74.73 94.57 74.76 90.54 74.8 86.51 74.83 82.48 74.86 78.45 74.89 74.42 74.92 70.39 74.96 66.36 74.99 62.33 75.02 58.4"/>
          <polyline class="cls-13" points="86.39 97.07 86.4 95.33 86.41 94.57 86.44 90.54 86.47 86.51 86.5 82.48 86.53 78.45 86.57 74.42 86.6 70.39 86.63 66.36 86.66 62.33 86.69 58.5 86.69 58.49"/>
        </g>
      </g>
    </g>
  </g>
</svg>