<?xml version="1.0" encoding="UTF-8"?>
<svg id="Layer_1" data-name="Layer 1" xmlns="http://www.w3.org/2000/svg" viewBox="0 0 301.497 74.82">
  <defs>
    <style>
      .cls-1 {
        fill: #e65125;
      }

      .cls-2 {
        stroke: #e6e7e8;
        stroke-linecap: round;
        stroke-linejoin: round;
        stroke-width: 1.5px;
      }

      .cls-2, .cls-3 {
        fill: none;
      }

      .cls-4 {
        fill: #e6e7e8;
      }

      .cls-5 {
        fill: #525252;
      }
    </style>
  </defs>
  <g id="LINE">
    <g>
      <g>
        <path class="cls-5" d="M300.747,6.936v38.316h-136.72V6.936h43.085c.238,0,.52.054.738.149.054.02.114.05.168.079,3.056,1.625,5.582,2.967,7.677,4.081.168.089.332.213.461.337.168.168.327.406.416.629.084.198.139.451.149.674h31.332c.005-.223.064-.475.144-.674.094-.223.253-.461.421-.629.129-.124.292-.248.461-.337,2.09-1.114,4.621-2.457,7.677-4.081.054-.03.109-.059.163-.079.223-.094.505-.149.743-.149h43.085Z"/>
        <polygon class="cls-1" points="246.696 9.948 246.696 12.885 218.074 12.885 218.074 10.349 219.658 8.764 245.285 8.764 246.686 9.948 246.696 9.948"/>
        <path class="cls-5" d="M137.485,6.936v38.316l-136.735.005V6.936h43.125c.243,0,.52.059.743.149.054.025.109.05.168.079,3.056,1.625,5.582,2.967,7.677,4.081.168.089.332.213.456.342.168.168.332.406.421.624.084.203.139.451.144.674h31.337c.005-.223.059-.471.144-.674.094-.218.253-.456.421-.624.124-.129.292-.253.461-.342,2.09-1.114,4.621-2.457,7.672-4.081.059-.03.114-.054.168-.079.223-.089.505-.149.743-.149h43.056Z"/>
        <polygon class="cls-1" points="83.463 1.909 83.463 12.885 54.841 12.885 54.841 1.909 56.005 .75 82.305 .75 83.463 1.909"/>
      </g>
      <g>
        <path class="cls-2" d="M93.518,7.164c-3.051,1.625-5.582,2.967-7.672,4.081"/>
        <line class="cls-2" x1="56.005" y1=".75" x2="82.305" y2=".75"/>
        <line class="cls-2" x1="219.658" y1="8.764" x2="245.285" y2="8.764"/>
        <path class="cls-2" d="M215.696,11.245c-2.095-1.114-4.621-2.457-7.677-4.081"/>
        <polyline class="cls-2" points="216.721 12.885 218.074 12.885 246.696 12.885 248.053 12.885"/>
        <path class="cls-2" d="M257.662,6.936c-.238,0-.52.054-.743.149-.054.02-.109.05-.163.079"/>
        <path class="cls-2" d="M249.079,11.245c-.168.089-.332.213-.461.337-.168.168-.327.406-.421.629-.079.198-.139.451-.144.674"/>
        <line class="cls-2" x1="219.658" y1="8.764" x2="218.074" y2="10.349"/>
        <line class="cls-2" x1="300.747" y1="6.936" x2="257.662" y2="6.936"/>
        <line class="cls-2" x1="82.305" y1=".75" x2="83.463" y2="1.909"/>
        <path class="cls-2" d="M94.429,6.936c-.238,0-.52.059-.743.149-.054.025-.109.05-.168.079"/>
        <line class="cls-2" x1="56.005" y1=".75" x2="54.841" y2="1.909"/>
        <polyline class="cls-2" points="53.484 12.885 54.841 12.885 83.463 12.885 84.821 12.885"/>
        <path class="cls-2" d="M85.846,11.245c-.168.089-.337.213-.461.342-.168.168-.327.406-.421.624-.084.203-.139.451-.144.674"/>
        <line class="cls-2" x1="43.875" y1="6.936" x2=".75" y2="6.936"/>
        <line class="cls-2" x1="83.463" y1="12.885" x2="83.463" y2="1.909"/>
        <path class="cls-2" d="M52.463,11.245c-2.095-1.114-4.621-2.457-7.677-4.081"/>
        <path class="cls-2" d="M44.786,7.164c-.059-.03-.114-.054-.168-.079-.223-.089-.5-.149-.743-.149"/>
        <line class="cls-2" x1="54.841" y1="12.885" x2="54.841" y2="1.909"/>
        <path class="cls-2" d="M53.484,12.885c-.005-.223-.059-.471-.144-.674-.089-.218-.253-.456-.421-.624-.124-.129-.287-.253-.456-.342"/>
        <line class="cls-2" x1="246.696" y1="12.885" x2="246.696" y2="9.948"/>
        <line class="cls-2" x1="218.074" y1="12.885" x2="218.074" y2="10.349"/>
        <path class="cls-2" d="M256.756,7.164c-3.056,1.625-5.587,2.967-7.677,4.081"/>
        <path class="cls-2" d="M216.721,12.885c-.01-.223-.064-.475-.149-.674-.089-.223-.248-.461-.416-.629-.129-.124-.292-.248-.461-.337"/>
        <path class="cls-2" d="M208.019,7.164c-.054-.03-.114-.059-.168-.079-.218-.094-.5-.149-.738-.149"/>
        <line class="cls-2" x1="137.485" y1="6.936" x2="94.429" y2="6.936"/>
        <line class="cls-2" x1="207.113" y1="6.936" x2="164.027" y2="6.936"/>
        <line class="cls-2" x1="245.285" y1="8.764" x2="246.686" y2="9.948"/>
      </g>
    </g>
  </g>
  <g>
    <rect class="cls-3" x="15.263" y="39.578" width="107.779" height="28.933"/>
    <path class="cls-4" d="M59.986,51.694c.48.185.896.44,1.248.769s.62.72.804,1.176c.184.456.276.956.276,1.5v9.841c0,.544-.092,1.044-.276,1.5-.184.456-.452.849-.804,1.177s-.768.584-1.248.768c-.48.185-1.024.276-1.632.276h-5.28c-.592,0-1.132-.092-1.62-.276-.488-.184-.908-.439-1.26-.768s-.62-.721-.804-1.177-.276-.956-.276-1.5v-9.841c0-.544.092-1.044.276-1.5s.452-.848.804-1.176.772-.584,1.26-.769c.488-.184,1.028-.275,1.62-.275h5.28c.608,0,1.152.092,1.632.275ZM52.713,54.526c-.32.312-.48.677-.48,1.093v8.881c0,.416.16.779.48,1.092.32.312.72.468,1.2.468h3.601c.48,0,.88-.156,1.2-.468.32-.312.48-.676.48-1.092v-8.881c0-.416-.16-.78-.48-1.093-.32-.312-.72-.468-1.2-.468h-3.601c-.48,0-.88.156-1.2.468Z"/>
    <path class="cls-4" d="M65.193,68.46v-16.802h11.521v1.801l-.84.84h-7.561v5.16h6v2.641h-6v6.36h-3.12Z"/>
    <path class="cls-4" d="M78.633,68.46v-16.802h11.521v1.801l-.84.84h-7.561v5.16h6v2.641h-6v6.36h-3.12Z"/>
  </g>
  <g>
    <rect class="cls-3" x="178.497" y="39.578" width="107.779" height="28.933"/>
    <path class="cls-4" d="M228.74,51.694c.479.185.896.44,1.248.769.352.328.619.72.803,1.176.185.456.277.956.277,1.5v9.841c0,.544-.093,1.044-.277,1.5-.184.456-.451.849-.803,1.177-.353.328-.769.584-1.248.768-.48.185-1.025.276-1.633.276h-5.28c-.593,0-1.132-.092-1.62-.276-.488-.184-.908-.439-1.26-.768-.353-.328-.621-.721-.805-1.177s-.275-.956-.275-1.5v-9.841c0-.544.092-1.044.275-1.5s.452-.848.805-1.176c.352-.328.771-.584,1.26-.769.488-.184,1.027-.275,1.62-.275h5.28c.607,0,1.152.092,1.633.275ZM221.467,54.526c-.32.312-.48.677-.48,1.093v8.881c0,.416.16.779.48,1.092.32.312.721.468,1.2.468h3.601c.48,0,.88-.156,1.199-.468.32-.312.48-.676.48-1.092v-8.881c0-.416-.16-.78-.48-1.093-.319-.312-.719-.468-1.199-.468h-3.601c-.479,0-.88.156-1.2.468Z"/>
    <path class="cls-4" d="M243.667,63.18l-.36-4.32v-7.201h3.121v16.802h-3.24l-6.241-11.521h-.239l.359,4.32v7.2h-3.12v-16.802h3.24l6.241,11.521h.239Z"/>
  </g>
</svg>