<?xml version="1.0" encoding="UTF-8"?>
<svg id="Layer_1" data-name="Layer 1" xmlns="http://www.w3.org/2000/svg" viewBox="0 0 614.12 401">
  <g id="CIRCLE">
    <g>
      <g>
        <path d="M482.73,340.19c.03,4.34-1.7,8.5-4.79,11.56l-43.87,43.87c-3.05,3.09-7.22,4.81-11.56,4.79-.36-.27-.72-.54-1.09-.82-.79-.58-1.62-1.17-2.54-1.75-.78-.5-1.62-1-2.57-1.5-.68-.36-1.42-.72-2.22-1.07-.8-.36-1.66-.72-2.58-1.08-1.35-.52-2.82-1.04-4.35-1.56-1.59-.55-3.27-1.09-4.97-1.63-.9-.29-1.8-.57-2.71-.86,9.48.28,18.9-1.62,27.53-5.56,5.6-2.69,10.71-6.3,15.13-10.66l14.1-14.11c4.37-4.41,7.97-9.53,10.67-15.13,3.94-8.62,5.84-18.04,5.56-27.52.28.9.57,1.81.85,2.7.54,1.71,1.09,3.38,1.63,4.98.52,1.53,1.05,2.99,1.57,4.34.36.92.71,1.79,1.07,2.59s.72,1.54,1.08,2.22c.49.94.99,1.79,1.49,2.57.58.91,1.17,1.74,1.76,2.54.27.37.54.73.81,1.09Z" style="fill: #383838; stroke-width: 0px;"/>
        <path d="M482.73,60.82v279.37c-.27-.36-.54-.72-.81-1.09-.59-.8-1.18-1.63-1.76-2.54-.5-.78-1-1.63-1.49-2.57-.36-.68-.72-1.42-1.08-2.22s-.71-1.67-1.07-2.59c-.52-1.35-1.05-2.81-1.57-4.34-.54-1.6-1.09-3.27-1.63-4.98-.28-.89-.57-1.8-.85-2.7l-.12-4.83c-.04-1.61-.07-3.23-.1-4.84V93.52c.03-1.61.06-3.23.1-4.84l.12-4.83c.28-.9.57-1.81.85-2.71.54-1.7,1.09-3.37,1.63-4.97.52-1.53,1.05-2.99,1.57-4.34.36-.92.71-1.79,1.07-2.59s.72-1.54,1.08-2.22c.49-.94.99-1.79,1.49-2.57.58-.91,1.17-1.74,1.76-2.54.27-.37.54-.73.81-1.09Z" style="fill: #383838; stroke-width: 0px;"/>
        <path d="M477.94,49.26c3.09,3.06,4.82,7.22,4.79,11.56-.27.36-.54.72-.81,1.09-.59.8-1.18,1.63-1.76,2.54-.5.78-1,1.63-1.49,2.57-.36.68-.72,1.42-1.08,2.22s-.71,1.67-1.07,2.59c-.52,1.35-1.05,2.81-1.57,4.34-.54,1.6-1.09,3.27-1.63,4.97-.28.9-.57,1.81-.85,2.71.28-9.48-1.62-18.9-5.56-27.52-2.7-5.6-6.3-10.72-10.67-15.13l-14.1-14.11c-4.42-4.36-9.53-7.97-15.13-10.66-8.63-3.94-18.05-5.84-27.53-5.56.91-.29,1.81-.57,2.71-.86,1.7-.54,3.38-1.08,4.97-1.63,1.53-.52,3-1.04,4.35-1.56.92-.36,1.78-.72,2.58-1.08s1.54-.71,2.22-1.07c.95-.5,1.79-1,2.57-1.5.92-.58,1.75-1.17,2.54-1.75.37-.28.73-.55,1.09-.82,4.34-.02,8.51,1.7,11.56,4.79l43.87,43.87Z" style="fill: #383838; stroke-width: 0px;"/>
        <path d="M466.91,56.33c3.94,8.62,5.84,18.04,5.56,27.52l-.12,4.83c-.04,1.61-.07,3.23-.1,4.84v213.97c.03,1.61.06,3.23.1,4.84l.12,4.83c.28,9.48-1.62,18.9-5.56,27.52-2.7,5.6-6.3,10.72-10.67,15.13l-14.1,14.11c-4.42,4.36-9.53,7.97-15.13,10.66-8.63,3.94-18.05,5.84-27.53,5.56-1.61-.04-3.22-.08-4.83-.11-1.61-.04-3.22-.07-4.84-.11h-54.45c-.56-.14-1.13-.39-1.7-.73-1.05-.64-2.08-1.6-3.07-2.92-.8-1.06-1.57-2.33-2.28-3.83-.44-.93-.86-1.96-1.24-3.03h62.74l1.16,2.27c1.66.02,3.31.04,4.97.07,1.65.02,3.3.05,4.95.08,4,.07,8.01-.15,11.96-.85,3.95-.69,7.83-1.88,11.47-3.62,4.61-2.22,8.79-5.23,12.36-8.9l14.1-14.1c3.67-3.57,6.68-7.76,8.9-12.37,1.74-3.63,2.93-7.51,3.63-11.46.69-3.95.92-7.97.85-11.97l-.09-4.95c-.02-1.65-.05-3.3-.07-4.96l-2.26-1.16V93.52l2.26-1.16c.02-1.66.05-3.31.07-4.96.03-1.65.06-3.31.09-4.95.07-4-.16-8.02-.85-11.97-.7-3.95-1.89-7.83-3.63-11.46-2.22-4.61-5.23-8.8-8.9-12.37l-14.1-14.1c-3.57-3.67-7.75-6.68-12.36-8.9-3.64-1.74-7.52-2.93-11.47-3.62-3.95-.7-7.96-.92-11.96-.85-1.65.03-3.3.05-4.95.08-1.66.03-3.31.05-4.97.07l-1.16,2.27h-62.74c.26-.73.53-1.43.82-2.1.46-1.07.96-2.04,1.47-2.92.68-1.15,1.4-2.13,2.12-2.92.63-.68,1.27-1.24,1.91-1.67.66-.43,1.32-.73,1.97-.9h54.45c1.62-.04,3.23-.07,4.84-.11,1.61-.03,3.22-.07,4.83-.11,9.48-.28,18.9,1.62,27.53,5.56,5.6,2.69,10.71,6.3,15.13,10.66l14.1,14.11c4.37,4.41,7.97,9.53,10.67,15.13Z" style="fill: #303030; stroke-width: 0px;"/>
        <path d="M463.31,70.48c.69,3.95.92,7.97.85,11.97-.03,1.64-.06,3.3-.09,4.95-.02,1.65-.05,3.3-.07,4.96l-2.26,1.16c-4-7.81-9.2-14.95-15.4-21.16l-35.37-35.36c-6.2-6.21-13.34-11.41-21.16-15.4l1.16-2.27c1.66-.02,3.31-.04,4.97-.07,1.65-.03,3.3-.05,4.95-.08,4-.07,8.01.15,11.96.85,3.95.69,7.83,1.88,11.47,3.62,4.61,2.22,8.79,5.23,12.36,8.9l14.1,14.1c3.67,3.57,6.68,7.76,8.9,12.37,1.74,3.63,2.93,7.51,3.63,11.46Z" style="fill: #282828; stroke-width: 0px;"/>
        <path d="M464.16,318.56c.07,4-.16,8.02-.85,11.97-.7,3.95-1.89,7.83-3.63,11.46-2.22,4.61-5.23,8.8-8.9,12.37l-14.1,14.1c-3.57,3.67-7.75,6.68-12.36,8.9-3.64,1.74-7.52,2.93-11.47,3.62-3.95.7-7.96.92-11.96.85-1.65-.03-3.3-.06-4.95-.08-1.66-.03-3.31-.05-4.97-.07l-1.16-2.27c7.82-3.99,14.96-9.19,21.16-15.4l35.37-35.36c6.2-6.21,11.4-13.35,15.4-21.16l2.26,1.16c.02,1.66.05,3.31.07,4.96l.09,4.95Z" style="fill: #282828; stroke-width: 0px;"/>
        <path d="M461.74,93.52v213.97c-4,7.81-9.2,14.95-15.4,21.16l-35.37,35.36c-6.2,6.21-13.34,11.41-21.16,15.4h-62.74c-1.08-1.55-1.75-3.36-1.91-5.27l-2.31-26.4c-1.94-22.1-21.42-38.45-43.52-36.52-19.42,1.7-34.82,17.1-36.52,36.52l-2.31,26.4c-.17,1.91-.83,3.72-1.92,5.27h-62.74c-7.81-3.99-14.95-9.19-21.16-15.4l-35.36-35.36c-6.2-6.21-11.4-13.35-15.4-21.16V93.52c4-7.81,9.2-14.95,15.4-21.16l35.36-35.36c6.21-6.21,13.35-11.41,21.16-15.4h62.74c1.09,1.55,1.75,3.36,1.92,5.27l2.31,26.4c1.93,22.1,21.42,38.45,43.52,36.52,19.42-1.7,34.82-17.1,36.52-36.52l2.31-26.4c.16-1.91.83-3.72,1.91-5.27h62.74c7.82,3.99,14.96,9.19,21.16,15.4l35.37,35.36c6.2,6.21,11.4,13.35,15.4,21.16ZM455.3,305.43V95.58c0-.31-.08-.62-.23-.9-3.56-6.53-8.03-12.51-13.29-17.77l-35.36-35.36c-5.26-5.25-11.24-9.73-17.77-13.28-.27-.15-.58-.23-.9-.23h-54.5c-1.08,0-1.79.65-1.88,1.72l-2.11,24.07c-1.97,22.54-19.83,40.4-42.37,42.37-25.64,2.25-48.25-16.72-50.5-42.37l-2.1-24.07c-.1-1.07-.8-1.72-1.88-1.72h-54.5c-.32,0-.63.08-.91.23-6.52,3.55-12.51,8.03-17.76,13.28l-35.36,35.36c-5.26,5.26-9.73,11.24-13.29,17.77-.15.28-.23.59-.23.9v209.85c0,.31.08.62.23.9,3.56,6.53,8.03,12.51,13.29,17.77l35.36,35.36c5.25,5.25,11.24,9.73,17.76,13.28.28.15.59.23.91.23h54.5c1.08,0,1.78-.65,1.88-1.72l2.1-24.07c1.97-22.54,19.84-40.4,42.38-42.37,25.64-2.25,48.25,16.72,50.49,42.37l2.11,24.07c.09,1.07.8,1.72,1.88,1.72h54.5c.32,0,.63-.08.9-.23,6.53-3.55,12.51-8.03,17.77-13.28l35.36-35.36c5.26-5.26,9.73-11.24,13.29-17.77.15-.28.23-.59.23-.9Z" style="fill: #212121; stroke-width: 0px;"/>
        <path d="M455.3,95.58v209.85c0,.31-.08.62-.23.9-3.56,6.53-8.03,12.51-13.29,17.77l-35.36,35.36c-5.26,5.25-11.24,9.73-17.77,13.28-.27.15-.58.23-.9.23h-54.5c-1.08,0-1.79-.65-1.88-1.72l-2.11-24.07c-2.24-25.65-24.85-44.62-50.49-42.37-22.54,1.97-40.41,19.83-42.38,42.37l-2.1,24.07c-.1,1.07-.8,1.72-1.88,1.72h-54.5c-.32,0-.63-.08-.91-.23-6.52-3.55-12.51-8.03-17.76-13.28l-35.36-35.36c-5.26-5.26-9.73-11.24-13.29-17.77-.15-.28-.23-.59-.23-.9V95.58c0-.31.08-.62.23-.9,3.56-6.53,8.03-12.51,13.29-17.77l35.36-35.36c5.25-5.25,11.24-9.73,17.76-13.28.28-.15.59-.23.91-.23h54.5c1.08,0,1.78.65,1.88,1.72l2.1,24.07c2.25,25.65,24.86,44.62,50.5,42.37,22.54-1.97,40.4-19.83,42.37-42.37l2.11-24.07c.09-1.07.8-1.72,1.88-1.72h54.5c.32,0,.63.08.9.23,6.53,3.55,12.51,8.03,17.77,13.28l35.36,35.36c5.26,5.26,9.73,11.24,13.29,17.77.15.28.23.59.23.9ZM437.68,115.13c0-31-25.13-56.14-56.14-56.14s-56.14,25.14-56.14,56.14,25.14,56.14,56.14,56.14,56.14-25.13,56.14-56.14ZM426.11,297.88c0-25.35-20.55-45.9-45.9-45.9s-45.91,20.55-45.91,45.9,20.55,45.91,45.91,45.91,45.9-20.55,45.9-45.91ZM369.01,213.31c0-18.57-15.06-33.62-33.62-33.62s-33.62,15.05-33.62,33.62,15.05,33.62,33.62,33.62,33.62-15.05,33.62-33.62ZM288.2,200.5c0-44.22-35.85-80.07-80.07-80.07s-80.08,35.85-80.08,80.07,35.85,80.08,80.08,80.08,80.07-35.85,80.07-80.08Z" style="fill: #282828; stroke-width: 0px;"/>
        <path d="M422.51.6c-.36.27-.72.54-1.09.82-.79.58-1.62,1.17-2.54,1.75-.78.5-1.62,1-2.57,1.5-.68.36-1.42.71-2.22,1.07s-1.66.72-2.58,1.08c-1.35.52-2.82,1.04-4.35,1.56-1.59.55-3.27,1.09-4.97,1.63-.9.29-1.8.57-2.71.86-1.61.04-3.22.08-4.83.11-1.61.04-3.22.07-4.84.11h-54.45l-2.38-5.81h-100.3l-2.38,5.81h-54.46c-1.61-.04-3.22-.07-4.83-.11-1.62-.03-3.23-.07-4.83-.11-.91-.29-1.81-.57-2.71-.86-1.7-.54-3.38-1.08-4.97-1.63-1.54-.52-3-1.04-4.35-1.56-.92-.36-1.78-.72-2.59-1.08-.8-.36-1.53-.71-2.22-1.07-.94-.5-1.78-1-2.56-1.5-.92-.58-1.75-1.17-2.54-1.75-.37-.28-.73-.55-1.09-.82h279.36Z" style="fill: #383838; stroke-width: 0px;"/>
        <path d="M422.51,400.41H143.15c.36-.27.72-.54,1.09-.82.79-.58,1.62-1.17,2.54-1.75.78-.5,1.62-1,2.56-1.5.69-.36,1.42-.72,2.22-1.07.81-.36,1.67-.72,2.59-1.08,1.35-.52,2.81-1.04,4.35-1.56,1.59-.55,3.27-1.09,4.97-1.63.9-.29,1.8-.57,2.71-.86,1.6-.04,3.21-.08,4.83-.11,1.61-.04,3.22-.07,4.83-.11h54.46l2.38,5.81h100.3l2.38-5.81h54.45c1.62.04,3.23.07,4.84.11,1.61.03,3.22.07,4.83.11.91.29,1.81.57,2.71.86,1.7.54,3.38,1.08,4.97,1.63,1.53.52,3,1.04,4.35,1.56.92.36,1.78.72,2.58,1.08.8.35,1.54.71,2.22,1.07.95.5,1.79,1,2.57,1.5.92.58,1.75,1.17,2.54,1.75.37.28.73.55,1.09.82Z" style="fill: #383838; stroke-width: 0px;"/>
        <path d="M381.54,58.99c31.01,0,56.14,25.14,56.14,56.14s-25.13,56.14-56.14,56.14-56.14-25.13-56.14-56.14,25.14-56.14,56.14-56.14ZM432.14,115.13c0-27.94-22.65-50.6-50.6-50.6s-50.6,22.66-50.6,50.6,22.66,50.6,50.6,50.6,50.6-22.65,50.6-50.6Z" style="fill: #303030; stroke-width: 0px;"/>
        <path d="M418.07,104.46c3.81,6.6,3.81,14.74,0,21.34l-.51.88c-1.71-.98-3.71-1.3-5.64-.9l1.53-2.64c2.86-4.96,2.86-11.06,0-16.01l-1.53-2.65c1.93.41,3.93.08,5.64-.9l.51.88Z" style="fill: #383838; stroke-width: 0px;"/>
        <path d="M381.54,64.53c27.95,0,50.6,22.66,50.6,50.6s-22.65,50.6-50.6,50.6-50.6-22.65-50.6-50.6,22.66-50.6,50.6-50.6ZM426.9,115.13c0-25.05-20.31-45.35-45.36-45.35s-45.35,20.3-45.35,45.35,20.3,45.36,45.35,45.36,45.36-20.31,45.36-45.36Z" style="fill: #282828; stroke-width: 0px;"/>
        <path d="M413.56,96.65l4,6.93c-1.71.98-3.71,1.31-5.64.9-.29-.06-.58-.14-.86-.23-4.2-1.38-6.49-5.9-5.11-10.1.62-1.87,1.9-3.45,3.6-4.43l4.01,6.93Z" style="fill: #1c1c1c; stroke-width: 0px;"/>
        <path d="M417.56,126.68l-4,6.94-4.01,6.93c-1.7-.99-2.98-2.57-3.6-4.44-.09-.28-.17-.57-.23-.86-.9-4.32,1.87-8.56,6.2-9.47,1.93-.4,3.93-.08,5.64.9Z" style="fill: #1c1c1c; stroke-width: 0px;"/>
        <path d="M381.54,69.78c25.05,0,45.36,20.3,45.36,45.35s-20.31,45.36-45.36,45.36-45.35-20.31-45.35-45.36,20.3-45.35,45.35-45.35ZM424.23,115.13c0-23.57-19.11-42.68-42.69-42.68s-42.68,19.11-42.68,42.68,19.11,42.69,42.68,42.69,42.69-19.11,42.69-42.69Z" style="fill: #191919; stroke-width: 0px;"/>
        <path d="M413.45,107.13c2.86,4.95,2.86,11.05,0,16.01l-1.53,2.64c-4.33.91-7.1,5.15-6.2,9.47.06.29.14.58.23.86l-1.52,2.65c-2.86,4.95-8.15,8-13.87,8h-3.05c-2.95-3.29-8.01-3.57-11.3-.63-.23.2-.44.41-.63.63h-3.06c-5.72,0-11-3.05-13.86-8l-1.53-2.65c1.38-4.2-.91-8.72-5.1-10.1-.29-.09-.57-.17-.87-.23l-1.52-2.64c-2.86-4.96-2.86-11.06,0-16.01l1.52-2.65c4.33-.9,7.11-5.14,6.2-9.47-.06-.29-.14-.58-.23-.86l1.53-2.65c2.86-4.95,8.14-8,13.86-8h3.06c2.94,3.29,8,3.58,11.3.63.22-.2.43-.41.63-.63h3.05c5.72,0,11.01,3.05,13.87,8l1.52,2.65c-1.38,4.2.91,8.72,5.11,10.1.28.09.57.17.86.23l1.53,2.65ZM408.83,120.47c1.9-3.3,1.9-7.37,0-10.67l-9.03-15.63c-1.9-3.3-5.42-5.33-9.24-5.33h-18.04c-3.81,0-7.33,2.03-9.24,5.33l-9.02,15.63c-1.91,3.3-1.91,7.37,0,10.67l9.02,15.62c1.91,3.3,5.43,5.34,9.24,5.34h18.04c3.82,0,7.34-2.04,9.24-5.34l9.03-15.62Z" style="fill: #282828; stroke-width: 0px;"/>
        <path d="M380.21,251.98c25.35,0,45.9,20.55,45.9,45.9s-20.55,45.91-45.9,45.91-45.91-20.55-45.91-45.91,20.55-45.9,45.91-45.9ZM421.79,297.88c0-22.96-18.62-41.58-41.58-41.58s-41.58,18.62-41.58,41.58,18.61,41.59,41.58,41.59,41.58-18.62,41.58-41.59Z" style="fill: #383838; stroke-width: 0px;"/>
        <path d="M381.54,72.45c23.58,0,42.69,19.11,42.69,42.68s-19.11,42.69-42.69,42.69-42.68-19.11-42.68-42.69,19.11-42.68,42.68-42.68ZM418.07,125.8c3.81-6.6,3.81-14.74,0-21.34l-.51-.88-4-6.93-4.01-6.93-.5-.88c-3.82-6.61-10.86-10.68-18.49-10.68h-18.04c-7.62,0-14.67,4.07-18.48,10.68l-.51.88-4,6.93-4.01,6.93-.5.88c-3.82,6.6-3.82,14.74,0,21.34l.5.88,4.01,6.94,4,6.93.51.88c3.81,6.6,10.86,10.67,18.48,10.67h18.04c7.63,0,14.67-4.07,18.49-10.67l.5-.88,4.01-6.93,4-6.94.51-.88Z" style="fill: #282828; stroke-width: 0px;"/>
        <path d="M380.21,256.3c22.96,0,41.58,18.62,41.58,41.58s-18.62,41.59-41.58,41.59-41.58-18.62-41.58-41.59,18.61-41.58,41.58-41.58ZM415.5,297.88c0-19.49-15.8-35.29-35.29-35.29s-35.29,15.8-35.29,35.29,15.8,35.3,35.29,35.3,35.29-15.81,35.29-35.3Z" style="fill: #303030; stroke-width: 0px;"/>
        <path d="M409.05,88.84l.5.88c-1.7.98-2.98,2.56-3.6,4.43l-1.52-2.65c-2.86-4.95-8.15-8-13.87-8h-3.05c1.31-1.47,2.04-3.37,2.04-5.34h1.01c7.63,0,14.67,4.07,18.49,10.68Z" style="fill: #383838; stroke-width: 0px;"/>
        <path d="M409.55,140.55l-.5.88c-3.82,6.6-10.86,10.67-18.49,10.67h-1.01c0-1.97-.73-3.87-2.04-5.34h3.05c5.72,0,11.01-3.05,13.87-8l1.52-2.65c.62,1.87,1.9,3.45,3.6,4.44Z" style="fill: #383838; stroke-width: 0px;"/>
        <path d="M408.83,109.8c1.9,3.3,1.9,7.37,0,10.67l-9.03,15.62c-1.9,3.3-5.42,5.34-9.24,5.34h-18.04c-3.81,0-7.33-2.04-9.24-5.34l-9.02-15.62c-1.91-3.3-1.91-7.37,0-10.67l9.02-15.63c1.91-3.3,5.43-5.33,9.24-5.33h18.04c3.82,0,7.34,2.03,9.24,5.33l9.03,15.63ZM404.2,117.8c.96-1.65.96-3.69,0-5.34l-9.02-15.62c-.95-1.65-2.71-2.67-4.62-2.67h-18.04c-1.91,0-3.67,1.02-4.62,2.67l-9.02,15.62c-.95,1.65-.95,3.69,0,5.34l9.02,15.62c.95,1.65,2.71,2.67,4.62,2.67h18.04c1.91,0,3.67-1.02,4.62-2.67l9.02-15.62Z" style="fill: #1c1c1c; stroke-width: 0px;"/>
        <path d="M380.21,262.59c19.49,0,35.29,15.8,35.29,35.29s-15.8,35.3-35.29,35.3-35.29-15.81-35.29-35.3,15.8-35.29,35.29-35.29ZM413.29,297.88c0-18.27-14.81-33.08-33.08-33.08s-33.09,14.81-33.09,33.08,14.82,33.09,33.09,33.09,33.08-14.81,33.08-33.09Z" style="fill: #191919; stroke-width: 0px;"/>
        <path d="M404.2,112.46c.96,1.65.96,3.69,0,5.34l-9.02,15.62c-.95,1.65-2.71,2.67-4.62,2.67h-18.04c-1.91,0-3.67-1.02-4.62-2.67l-9.02-15.62c-.95-1.65-.95-3.69,0-5.34l9.02-15.62c.95-1.65,2.71-2.67,4.62-2.67h18.04c1.91,0,3.67,1.02,4.62,2.67l9.02,15.62Z" style="fill: #282828; stroke-width: 0px;"/>
        <path d="M380.21,264.8c18.27,0,33.08,14.81,33.08,33.08s-14.81,33.09-33.08,33.09-33.09-14.81-33.09-33.09,14.82-33.08,33.09-33.08ZM411.01,297.88c0-17.01-13.79-30.8-30.8-30.8s-30.8,13.79-30.8,30.8,13.79,30.81,30.8,30.81,30.8-13.79,30.8-30.81Z" style="fill: #383838; stroke-width: 0px;"/>
        <path d="M380.21,267.08c17.01,0,30.8,13.79,30.8,30.8s-13.79,30.81-30.8,30.81-30.8-13.79-30.8-30.81,13.79-30.8,30.8-30.8Z" style="fill: #282828; stroke-width: 0px;"/>
        <path d="M381.54,78.16h8.01c0,1.97-.73,3.87-2.04,5.34-.2.22-.41.43-.63.63-3.3,2.95-8.36,2.66-11.3-.63-1.32-1.47-2.04-3.37-2.04-5.34h8Z" style="fill: #1c1c1c; stroke-width: 0px;"/>
        <path d="M389.55,152.1h-16.01c0-1.97.72-3.87,2.04-5.34.19-.22.4-.43.63-.63,3.29-2.94,8.35-2.66,11.3.63,1.31,1.47,2.04,3.37,2.04,5.34Z" style="fill: #1c1c1c; stroke-width: 0px;"/>
        <path d="M375.58,83.5h-3.06c-5.72,0-11,3.05-13.86,8l-1.53,2.65c-.61-1.87-1.9-3.45-3.6-4.43l.51-.88c3.81-6.61,10.86-10.68,18.48-10.68h1.02c0,1.97.72,3.87,2.04,5.34Z" style="fill: #383838; stroke-width: 0px;"/>
        <path d="M372.52,146.76h3.06c-1.32,1.47-2.04,3.37-2.04,5.34h-1.02c-7.62,0-14.67-4.07-18.48-10.67l-.51-.88c1.7-.99,2.99-2.57,3.6-4.44l1.53,2.65c2.86,4.95,8.14,8,13.86,8Z" style="fill: #383838; stroke-width: 0px;"/>
        <path d="M335.39,179.69c18.56,0,33.62,15.05,33.62,33.62s-15.06,33.62-33.62,33.62-33.62-15.05-33.62-33.62,15.05-33.62,33.62-33.62ZM356.79,213.31c0-11.82-9.58-21.4-21.4-21.4s-21.4,9.58-21.4,21.4,9.58,21.4,21.4,21.4,21.4-9.58,21.4-21.4Z" style="fill: #1c1c1c; stroke-width: 0px;"/>
        <path d="M357.36,95.01c.91,4.33-1.87,8.57-6.2,9.47-1.92.41-3.93.08-5.64-.9l4.01-6.93,4-6.93c1.7.98,2.99,2.56,3.6,4.43.09.28.17.57.23.86Z" style="fill: #1c1c1c; stroke-width: 0px;"/>
        <path d="M352.03,126.01c4.19,1.38,6.48,5.9,5.1,10.1-.61,1.87-1.9,3.45-3.6,4.44l-4-6.93-4.01-6.94c1.71-.98,3.72-1.3,5.64-.9.3.06.58.14.87.23Z" style="fill: #1c1c1c; stroke-width: 0px;"/>
        <path d="M335.39,191.91c11.82,0,21.4,9.58,21.4,21.4s-9.58,21.4-21.4,21.4-21.4-9.58-21.4-21.4,9.58-21.4,21.4-21.4ZM355.13,213.31c0-10.9-8.84-19.74-19.74-19.74s-19.75,8.84-19.75,19.74,8.84,19.74,19.75,19.74,19.74-8.84,19.74-19.74Z" style="fill: #191919; stroke-width: 0px;"/>
        <path d="M351.16,104.48l-1.52,2.65c-2.86,4.95-2.86,11.05,0,16.01l1.52,2.64c-1.92-.4-3.93-.08-5.64.9l-.5-.88c-3.82-6.6-3.82-14.74,0-21.34l.5-.88c1.71.98,3.72,1.31,5.64.9Z" style="fill: #383838; stroke-width: 0px;"/>
        <path d="M335.39,193.57c10.9,0,19.74,8.84,19.74,19.74s-8.84,19.74-19.74,19.74-19.75-8.84-19.75-19.74,8.84-19.74,19.75-19.74ZM353.53,213.31c0-10.02-8.12-18.14-18.14-18.14s-18.14,8.12-18.14,18.14,8.12,18.14,18.14,18.14,18.14-8.12,18.14-18.14Z" style="fill: #fff; stroke-width: 0px;"/>
        <circle cx="335.39" cy="213.31" r="18.14" style="fill: #fff; stroke-width: 0px;"/>
        <path d="M332.98,5.28l2.38,5.81c-1,.09-2,.27-3,.56-.98.29-1.96.67-2.91,1.14-1.1.56-2.2,1.26-3.23,2.09-.78.63-1.52,1.34-2.22,2.13-.44.5-.85,1.02-1.23,1.56-1.64,2.3-2.65,5.01-2.91,7.83l-2.31,26.41c-1.47,16.85-14.83,30.21-31.68,31.68-19.18,1.68-36.09-12.51-37.76-31.68l-2.31-26.41c-.27-2.82-1.27-5.53-2.91-7.83-.56-.8-1.2-1.56-1.87-2.24-1.07-1.1-2.23-2.02-3.45-2.77-1.51-.94-3.08-1.6-4.68-2.02-.86-.22-1.73-.38-2.59-.45l2.38-5.81c1.23.21,2.46.58,3.68,1.1,1.39.6,2.77,1.41,4.1,2.44,1.01.78,1.99,1.69,2.89,2.71.57.64,1.11,1.33,1.6,2.03,1.62,2.34,2.61,5.09,2.84,7.97l2.72,31.07c1.56,17.84,17.3,31.05,35.15,29.49,15.68-1.38,28.11-13.81,29.49-29.49l2.71-31.07c.24-2.88,1.22-5.63,2.85-7.97.34-.48.69-.95,1.06-1.4.6-.72,1.23-1.4,1.88-2.02.65-.61,1.33-1.17,2.02-1.68,1.01-.73,2.05-1.34,3.1-1.84,1.38-.65,2.8-1.1,4.21-1.34Z" style="fill: #383838; stroke-width: 0px;"/>
        <path d="M335.36,389.92l-2.38,5.81c-1.23-.21-2.46-.58-3.68-1.1-1.4-.6-2.77-1.41-4.1-2.44-1.02-.78-1.99-1.69-2.89-2.71-.57-.64-1.11-1.33-1.6-2.03-1.63-2.34-2.61-5.09-2.85-7.97l-2.71-31.07c-1.56-17.84-17.3-31.05-35.15-29.49-15.68,1.38-28.12,13.81-29.49,29.49l-2.72,31.07c-.23,2.88-1.22,5.63-2.84,7.97-.34.48-.69.95-1.06,1.4-.6.72-1.23,1.4-1.88,2.02-.65.61-1.33,1.17-2.03,1.68-1.01.73-2.04,1.34-3.09,1.84-1.38.65-2.8,1.1-4.21,1.34l-2.38-5.81c.99-.09,2-.27,3-.56.98-.29,1.96-.67,2.9-1.14,1.11-.56,2.21-1.26,3.24-2.09.78-.63,1.52-1.34,2.22-2.13.43-.5.85-1.02,1.23-1.56,1.64-2.3,2.64-5.01,2.91-7.83l2.31-26.41c1.47-16.85,14.83-30.21,31.68-31.68,19.18-1.68,36.09,12.51,37.76,31.68l2.31,26.41c.26,2.82,1.27,5.53,2.91,7.83.56.8,1.2,1.56,1.87,2.24,1.07,1.1,2.23,2.02,3.45,2.77,1.51.94,3.08,1.6,4.67,2.02.87.22,1.74.38,2.6.45Z" style="fill: #383838; stroke-width: 0px;"/>
        <path d="M333.66,389.19c.57.34,1.14.59,1.7.73-.86-.07-1.73-.23-2.6-.45-1.59-.42-3.16-1.08-4.67-2.02-1.22-.75-2.38-1.67-3.45-2.77-.67-.68-1.31-1.44-1.87-2.24-1.64-2.3-2.65-5.01-2.91-7.83l-2.31-26.41c-1.67-19.17-18.58-33.36-37.76-31.68-16.85,1.47-30.21,14.83-31.68,31.68l-2.31,26.41c-.27,2.82-1.27,5.53-2.91,7.83-.38.54-.8,1.06-1.23,1.56-.7.79-1.44,1.5-2.22,2.13-1.03.83-2.13,1.53-3.24,2.09-.94.47-1.92.85-2.9,1.14-1,.29-2.01.47-3,.56.65-.17,1.31-.47,1.97-.9.64-.43,1.28-.99,1.9-1.67.73-.79,1.45-1.77,2.13-2.92.51-.88,1.01-1.85,1.47-2.92.28-.67.56-1.37.81-2.1,1.09-1.55,1.75-3.36,1.92-5.27l2.31-26.4c1.7-19.42,17.1-34.82,36.52-36.52,22.1-1.93,41.58,14.42,43.52,36.52l2.31,26.4c.16,1.91.83,3.72,1.91,5.27.38,1.07.8,2.1,1.24,3.03.71,1.5,1.48,2.77,2.28,3.83.99,1.32,2.02,2.28,3.07,2.92Z" style="fill: #303030; stroke-width: 0px;"/>
        <path d="M335.36,11.09c-.65.17-1.31.47-1.97.9-.64.43-1.28.99-1.91,1.67-.72.79-1.44,1.77-2.12,2.92-.51.88-1.01,1.85-1.47,2.92-.29.67-.56,1.37-.82,2.1-1.08,1.55-1.75,3.36-1.91,5.27l-2.31,26.4c-1.7,19.42-17.1,34.82-36.52,36.52-22.1,1.93-41.59-14.42-43.52-36.52l-2.31-26.4c-.17-1.91-.83-3.72-1.92-5.27-.37-1.07-.79-2.1-1.23-3.03-.71-1.5-1.48-2.78-2.28-3.83-.99-1.32-2.02-2.28-3.07-2.92-.57-.34-1.14-.59-1.7-.73.86.07,1.73.23,2.59.45,1.6.42,3.17,1.08,4.68,2.02,1.22.75,2.38,1.67,3.45,2.77.67.68,1.31,1.44,1.87,2.24,1.64,2.3,2.64,5.01,2.91,7.83l2.31,26.41c1.67,19.17,18.58,33.36,37.76,31.68,16.85-1.47,30.21-14.83,31.68-31.68l2.31-26.41c.26-2.82,1.27-5.53,2.91-7.83.38-.54.79-1.06,1.23-1.56.7-.79,1.44-1.5,2.22-2.13,1.03-.83,2.13-1.53,3.23-2.09.95-.47,1.93-.85,2.91-1.14,1-.29,2-.47,3-.56Z" style="fill: #303030; stroke-width: 0px;"/>
        <path d="M232.68,5.28h100.3c-1.91.12-3.83.39-5.71.79-1.42.3-2.82.68-4.18,1.15-.94.32-1.86.68-2.73,1.08-.89.4-1.74.83-2.54,1.31-.49.3-.97.61-1.42.92-2.18,3.1-3.5,6.74-3.83,10.54l-2.72,31.06c-1.15,13.12-11.54,23.51-24.66,24.66-14.92,1.31-28.08-9.73-29.38-24.66l-2.72-31.06c-.33-3.8-1.66-7.44-3.83-10.54-.66-.46-1.38-.91-2.15-1.33-1.21-.67-2.53-1.25-3.9-1.76-1.79-.65-3.66-1.16-5.55-1.52-1.65-.32-3.32-.53-4.98-.64ZM300.93,49.77c0-10-8.1-18.1-18.1-18.1s-18.1,8.1-18.1,18.1,8.1,18.1,18.1,18.1,18.1-8.11,18.1-18.1Z" style="fill: #1e1e1e; stroke-width: 0px;"/>
        <path d="M332.98,395.73h-100.3c1.9-.12,3.83-.39,5.7-.79,1.42-.3,2.82-.68,4.19-1.15.94-.32,1.85-.68,2.73-1.08.89-.4,1.74-.83,2.53-1.31.5-.3.98-.61,1.43-.92,2.17-3.1,3.5-6.74,3.83-10.54l2.72-31.06c1.14-13.12,11.54-23.51,24.65-24.66,14.93-1.31,28.09,9.73,29.39,24.66l2.72,31.06c.33,3.8,1.65,7.44,3.83,10.54.66.46,1.38.91,2.14,1.33,1.22.67,2.53,1.25,3.91,1.76,1.79.65,3.65,1.16,5.55,1.52,1.64.32,3.32.53,4.98.64ZM300.93,351.24c0-10-8.1-18.1-18.1-18.1s-18.1,8.1-18.1,18.1,8.1,18.1,18.1,18.1,18.1-8.1,18.1-18.1Z" style="fill: #1e1e1e; stroke-width: 0px;"/>
        <path d="M329.3,394.63c1.22.52,2.45.89,3.68,1.1-1.66-.11-3.34-.32-4.98-.64-1.9-.36-3.76-.87-5.55-1.52-1.38-.51-2.69-1.09-3.91-1.76-.76-.42-1.48-.87-2.14-1.33-2.18-3.1-3.5-6.74-3.83-10.54l-2.72-31.06c-1.3-14.93-14.46-25.97-29.39-24.66-13.11,1.15-23.51,11.54-24.65,24.66l-2.72,31.06c-.33,3.8-1.66,7.44-3.83,10.54-.45.31-.93.62-1.43.92-.79.48-1.64.91-2.53,1.31-.88.4-1.79.76-2.73,1.08-1.37.47-2.77.85-4.19,1.15-1.87.4-3.8.67-5.7.79,1.41-.24,2.83-.69,4.21-1.34,1.05-.5,2.08-1.11,3.09-1.84.7-.51,1.38-1.07,2.03-1.68.65-.62,1.28-1.3,1.88-2.02.37-.45.72-.92,1.06-1.4,1.62-2.34,2.61-5.09,2.84-7.97l2.72-31.07c1.37-15.68,13.81-28.11,29.49-29.49,17.85-1.56,33.59,11.65,35.15,29.49l2.71,31.07c.24,2.88,1.22,5.63,2.85,7.97.49.7,1.03,1.39,1.6,2.03.9,1.02,1.87,1.93,2.89,2.71,1.33,1.03,2.7,1.84,4.1,2.44Z" style="fill: #282828; stroke-width: 0px;"/>
        <path d="M332.98,5.28c-1.41.24-2.83.69-4.21,1.34-1.05.5-2.09,1.11-3.1,1.84-.69.51-1.37,1.07-2.02,1.68-.65.62-1.28,1.3-1.88,2.02-.37.45-.72.92-1.06,1.4-1.63,2.34-2.61,5.09-2.85,7.97l-2.71,31.07c-1.38,15.68-13.81,28.11-29.49,29.49-17.85,1.56-33.59-11.65-35.15-29.49l-2.72-31.07c-.23-2.88-1.22-5.63-2.84-7.97-.49-.7-1.03-1.39-1.6-2.03-.9-1.02-1.88-1.93-2.89-2.71-1.33-1.03-2.71-1.84-4.1-2.44-1.22-.52-2.45-.89-3.68-1.1,1.66.11,3.33.32,4.98.64,1.89.36,3.76.87,5.55,1.52,1.37.51,2.69,1.09,3.9,1.76.77.42,1.49.87,2.15,1.33,2.17,3.1,3.5,6.74,3.83,10.54l2.72,31.06c1.3,14.93,14.46,25.97,29.38,24.66,13.12-1.15,23.51-11.54,24.66-24.66l2.72-31.06c.33-3.8,1.65-7.44,3.83-10.54.45-.31.93-.62,1.42-.92.8-.48,1.65-.91,2.54-1.31.87-.4,1.79-.76,2.73-1.08,1.36-.47,2.76-.85,4.18-1.15,1.88-.4,3.8-.67,5.71-.79Z" style="fill: #282828; stroke-width: 0px;"/>
        <path d="M282.83,31.67c10,0,18.1,8.1,18.1,18.1s-8.1,18.1-18.1,18.1-18.1-8.11-18.1-18.1,8.1-18.1,18.1-18.1ZM297.31,49.77c0-8-6.48-14.48-14.48-14.48s-14.48,6.48-14.48,14.48,6.48,14.48,14.48,14.48,14.48-6.48,14.48-14.48Z" style="fill: #282828; stroke-width: 0px;"/>
        <path d="M282.83,333.14c10,0,18.1,8.1,18.1,18.1s-8.1,18.1-18.1,18.1-18.1-8.1-18.1-18.1,8.1-18.1,18.1-18.1ZM298.26,351.24c0-8.52-6.91-15.43-15.43-15.43s-15.44,6.91-15.44,15.43,6.91,15.44,15.44,15.44,15.43-6.91,15.43-15.44Z" style="fill: #282828; stroke-width: 0px;"/>
        <path d="M279.24,191.03c-1.16,3.05-1.75,6.26-1.75,9.48h-1.33c0-15.4-5.11-29.6-13.74-40.99l1.1-.84c2,3.05,4.62,5.68,7.73,7.7h0c.16.12.32.23.49.33,3.94,7.4,6.55,15.44,7.72,23.75-.08.19-.15.38-.22.57Z" style="fill: #ad0000; stroke-width: 0px;"/>
        <path d="M279.24,209.98c.07.19.14.38.22.57-1.17,8.31-3.78,16.35-7.72,23.75-.17.1-.33.21-.49.32-3.11,2.03-5.73,4.66-7.73,7.71l-1.1-.84c8.63-11.4,13.74-25.6,13.74-40.99h1.33c0,3.22.59,6.43,1.75,9.48Z" style="fill: #ad0000; stroke-width: 0px;"/>
        <path d="M279.24,191.03c.85,6.29.85,12.66,0,18.95-1.16-3.05-1.75-6.26-1.75-9.47s.59-6.43,1.75-9.48Z" style="fill: #700; stroke-width: 0px;"/>
        <path d="M208.13,120.43c44.22,0,80.07,35.85,80.07,80.07s-35.85,80.08-80.07,80.08-80.08-35.85-80.08-80.08,35.85-80.07,80.08-80.07ZM286.32,200.5c0-43.18-35.01-78.18-78.19-78.18s-78.19,35-78.19,78.18,35.01,78.19,78.19,78.19,78.19-35,78.19-78.19Z" style="fill: #383838; stroke-width: 0px;"/>
        <path d="M271.25,166.38c-3.11-2.02-5.73-4.65-7.73-7.7-1.53-2.33-2.69-4.91-3.43-7.65,4.37,4.59,8.13,9.76,11.16,15.35Z" style="fill: #700; stroke-width: 0px;"/>
        <path d="M263.52,242.33c2-3.05,4.62-5.68,7.73-7.71-3.03,5.6-6.78,10.76-11.16,15.36.74-2.74,1.9-5.31,3.43-7.65Z" style="fill: #700; stroke-width: 0px;"/>
        <path d="M208.13,122.32c43.18,0,78.19,35,78.19,78.18s-35.01,78.19-78.19,78.19-78.19-35-78.19-78.19,35.01-78.18,78.19-78.18ZM279.24,191.03c.07-.19.14-.38.22-.57-1.17-8.31-3.78-16.35-7.72-23.75-.17-.1-.33-.21-.49-.32h0c-3.03-5.6-6.79-10.77-11.16-15.36h-.01c-.05-.2-.1-.39-.15-.58-5.83-6.03-12.67-11-20.21-14.68-.2.02-.4.03-.6.03-5.73-2.74-11.81-4.72-18.05-5.87-.16-.12-.31-.24-.46-.37-8.26-1.45-16.71-1.45-24.97,0-.15.12-.3.25-.45.37h-.01c-6.25,1.15-12.32,3.13-18.05,5.87-.2,0-.4-.01-.6-.03-7.54,3.68-14.38,8.65-20.2,14.68l-.15.57h0c-4.38,4.6-8.14,9.77-11.16,15.36h0c-.16.12-.32.23-.49.33-3.94,7.4-6.55,15.44-7.72,23.75l.21.54h0c-.84,6.31-.84,12.7,0,19h0c-.07.19-.14.37-.21.55,1.17,8.31,3.78,16.35,7.72,23.75.17.1.33.21.49.32,3.02,5.6,6.77,10.76,11.16,15.36h0c.05.2.1.39.15.58,5.82,6.03,12.66,11,20.2,14.68.2-.02.4-.03.6-.03,5.73,2.74,11.8,4.72,18.05,5.87h.01c.15.12.3.25.45.37,8.26,1.45,16.71,1.45,24.97,0,.15-.13.3-.25.46-.37,6.24-1.15,12.32-3.13,18.05-5.87.2,0,.4,0,.6.03,7.54-3.68,14.38-8.65,20.21-14.68l.15-.57h.01c4.38-4.61,8.13-9.77,11.16-15.37.16-.11.32-.22.49-.32,3.94-7.4,6.55-15.44,7.72-23.75-.08-.19-.15-.38-.22-.57.85-6.29.85-12.66,0-18.95Z" style="fill: #303030; stroke-width: 0px;"/>
        <path d="M239.12,135.8c.2,0,.4-.01.6-.03,7.54,3.68,14.38,8.65,20.21,14.68l.15.57h.01c.74,2.75,1.9,5.33,3.43,7.66l-1.1.84c-8.26-10.94-19.75-19.3-33.06-23.66l.41-1.26c3,.95,6.16,1.36,9.35,1.2Z" style="fill: #ad0000; stroke-width: 0px;"/>
        <path d="M239.12,265.21c-3.19-.16-6.35.25-9.35,1.2l-.4-1.25c13.3-4.37,24.8-12.73,33.05-23.67l1.1.84c-1.53,2.34-2.69,4.91-3.43,7.65h-.01c-.05.2-.1.39-.15.58-5.83,6.03-12.67,11-20.21,14.68-.2-.02-.4-.03-.6-.03Z" style="fill: #ad0000; stroke-width: 0px;"/>
        <path d="M262.42,159.52c8.63,11.39,13.74,25.59,13.74,40.98s-5.11,29.59-13.74,40.99c-8.25,10.94-19.75,19.3-33.05,23.67-6.69,2.19-13.82,3.38-21.24,3.38s-14.56-1.19-21.24-3.38c-13.31-4.37-24.8-12.73-33.06-23.67-8.62-11.4-13.73-25.6-13.73-40.99s5.11-29.59,13.73-40.98c8.26-10.94,19.76-19.31,33.07-23.66,6.68-2.2,13.82-3.39,21.23-3.39s14.55,1.19,21.23,3.39c13.31,4.36,24.8,12.72,33.06,23.66Z" style="fill: #700; stroke-width: 0px;"/>
        <path d="M239.12,135.8c-3.19.16-6.35-.25-9.35-1.2-3.14-.99-6.1-2.56-8.7-4.67,6.24,1.15,12.32,3.13,18.05,5.87Z" style="fill: #700; stroke-width: 0px;"/>
        <path d="M229.77,266.41c3-.95,6.16-1.36,9.35-1.2-5.73,2.74-11.81,4.72-18.05,5.87,2.6-2.11,5.56-3.68,8.7-4.67Z" style="fill: #700; stroke-width: 0px;"/>
        <path d="M238.58,21.6h-62.74l-1.15-2.27c-1.66-.02-3.32-.04-4.97-.07s-3.3-.05-4.95-.08c-4-.07-8.01.15-11.96.85-3.95.69-7.83,1.88-11.47,3.62-4.61,2.22-8.79,5.23-12.36,8.9l-14.11,14.1c-3.66,3.57-6.67,7.76-8.89,12.37-1.75,3.63-2.93,7.51-3.63,11.46s-.92,7.97-.85,11.97c.03,1.64.06,3.3.09,4.95.02,1.65.05,3.3.07,4.96l2.26,1.16v213.97l-2.26,1.16c-.02,1.66-.05,3.31-.07,4.96l-.09,4.95c-.07,4,.15,8.02.85,11.97s1.88,7.83,3.63,11.46c2.22,4.61,5.23,8.8,8.89,12.37l14.11,14.1c3.57,3.67,7.75,6.68,12.36,8.9,3.64,1.74,7.52,2.93,11.47,3.62,3.95.7,7.96.92,11.96.85,1.65-.03,3.3-.06,4.95-.08,1.65-.03,3.31-.05,4.97-.07l1.15-2.27h62.74c-.25.73-.53,1.43-.81,2.1-.46,1.07-.96,2.04-1.47,2.92-.68,1.15-1.4,2.13-2.13,2.92-.62.68-1.26,1.24-1.9,1.67-.66.43-1.32.73-1.97.9h-54.46c-1.61.04-3.22.07-4.83.11-1.62.03-3.23.07-4.83.11-9.48.28-18.9-1.62-27.53-5.56-5.6-2.69-10.71-6.3-15.13-10.66l-14.1-14.11c-4.37-4.41-7.98-9.53-10.67-15.13-3.94-8.62-5.84-18.04-5.56-27.52l.12-4.83c.03-1.61.07-3.23.1-4.84V93.52c-.03-1.61-.07-3.23-.1-4.84l-.12-4.83c-.28-9.48,1.62-18.9,5.56-27.52,2.69-5.6,6.3-10.72,10.67-15.13l14.1-14.11c4.42-4.36,9.53-7.97,15.13-10.66,8.63-3.94,18.05-5.84,27.53-5.56,1.6.04,3.21.08,4.83.11,1.61.04,3.22.07,4.83.11h54.46c.56.14,1.13.39,1.7.73,1.05.64,2.08,1.6,3.07,2.92.8,1.05,1.57,2.33,2.28,3.83.44.93.86,1.96,1.23,3.03Z" style="fill: #303030; stroke-width: 0px;"/>
        <path d="M229.77,134.6l-.41,1.26c-6.68-2.2-13.82-3.39-21.23-3.39s-14.55,1.19-21.23,3.39l-.41-1.26c3.13-.99,6.09-2.56,8.69-4.67h.01c.15-.12.3-.25.45-.37,8.26-1.45,16.71-1.45,24.97,0,.15.13.3.25.46.37,2.6,2.11,5.56,3.68,8.7,4.67Z" style="fill: #ad0000; stroke-width: 0px;"/>
        <path d="M229.37,265.16l.4,1.25c-3.14.99-6.1,2.56-8.7,4.67-.16.12-.31.24-.46.37-8.26,1.45-16.71,1.45-24.97,0-.15-.12-.3-.25-.45-.37h-.01c-2.6-2.11-5.56-3.68-8.69-4.67l.4-1.25c6.68,2.19,13.82,3.38,21.24,3.38s14.55-1.19,21.24-3.38Z" style="fill: #ad0000; stroke-width: 0px;"/>
        <path d="M195.18,129.93c-2.6,2.11-5.56,3.68-8.69,4.67-3,.95-6.17,1.36-9.36,1.2,5.73-2.74,11.8-4.72,18.05-5.87Z" style="fill: #700; stroke-width: 0px;"/>
        <path d="M186.49,266.41c3.13.99,6.09,2.56,8.69,4.67-6.25-1.15-12.32-3.13-18.05-5.87,3.19-.16,6.36.25,9.36,1.2Z" style="fill: #700; stroke-width: 0px;"/>
        <path d="M177.13,135.8c3.19.16,6.36-.25,9.36-1.2l.41,1.26c-13.31,4.35-24.81,12.72-33.07,23.66l-1.09-.84c1.53-2.33,2.69-4.91,3.43-7.65h0c.05-.2.1-.39.15-.58,5.82-6.03,12.66-11,20.2-14.68.2.02.4.03.6.03Z" style="fill: #ad0000; stroke-width: 0px;"/>
        <path d="M177.13,265.21c-.2,0-.4,0-.6.03-7.54-3.68-14.38-8.65-20.2-14.68l-.15-.57h0c-.74-2.75-1.9-5.32-3.43-7.66l1.09-.84c8.26,10.94,19.75,19.3,33.06,23.67l-.4,1.25c-3-.95-6.17-1.36-9.36-1.2Z" style="fill: #ad0000; stroke-width: 0px;"/>
        <path d="M174.69,19.33l1.15,2.27c-7.81,3.99-14.95,9.19-21.16,15.4l-35.36,35.36c-6.2,6.21-11.4,13.35-15.4,21.16l-2.26-1.16c-.02-1.66-.05-3.31-.07-4.96-.03-1.65-.06-3.31-.09-4.95-.07-4,.15-8.02.85-11.97s1.88-7.83,3.63-11.46c2.22-4.61,5.23-8.8,8.89-12.37l14.11-14.1c3.57-3.67,7.75-6.68,12.36-8.9,3.64-1.74,7.52-2.93,11.47-3.62,3.95-.7,7.96-.92,11.96-.85,1.65.03,3.3.05,4.95.08s3.31.05,4.97.07Z" style="fill: #282828; stroke-width: 0px;"/>
        <path d="M175.84,379.41l-1.15,2.27c-1.66.02-3.32.04-4.97.07-1.65.02-3.3.05-4.95.08-4,.07-8.01-.15-11.96-.85-3.95-.69-7.83-1.88-11.47-3.62-4.61-2.22-8.79-5.23-12.36-8.9l-14.11-14.1c-3.66-3.57-6.67-7.76-8.89-12.37-1.75-3.63-2.93-7.51-3.63-11.46s-.92-7.97-.85-11.97l.09-4.95c.02-1.65.05-3.3.07-4.96l2.26-1.16c4,7.81,9.2,14.95,15.4,21.16l35.36,35.36c6.21,6.21,13.35,11.41,21.16,15.4Z" style="fill: #282828; stroke-width: 0px;"/>
        <path d="M166.18,10.87c-9.48-.28-18.9,1.62-27.53,5.56-5.6,2.69-10.71,6.3-15.13,10.66l-14.1,14.11c-4.37,4.41-7.98,9.53-10.67,15.13-3.94,8.62-5.84,18.04-5.56,27.52-.28-.9-.57-1.81-.85-2.71-.55-1.7-1.09-3.37-1.63-4.97-.52-1.53-1.05-2.99-1.57-4.34-.36-.92-.71-1.79-1.07-2.59s-.72-1.54-1.08-2.22c-.5-.94-.99-1.79-1.49-2.57-.59-.91-1.17-1.74-1.76-2.54-.27-.37-.54-.73-.82-1.09-.02-4.34,1.71-8.5,4.79-11.56L131.59,5.39c3.05-3.09,7.22-4.81,11.56-4.79.36.27.72.54,1.09.82.79.58,1.62,1.17,2.54,1.75.78.5,1.62,1,2.56,1.5.69.36,1.42.71,2.22,1.07.81.36,1.67.72,2.59,1.08,1.35.52,2.81,1.04,4.35,1.56,1.59.55,3.27,1.09,4.97,1.63.9.29,1.8.57,2.71.86Z" style="fill: #383838; stroke-width: 0px;"/>
        <path d="M166.18,390.14c-.91.29-1.81.57-2.71.86-1.7.54-3.38,1.08-4.97,1.63-1.54.52-3,1.04-4.35,1.56-.92.36-1.78.72-2.59,1.08-.8.35-1.53.71-2.22,1.07-.94.5-1.78,1-2.56,1.5-.92.58-1.75,1.17-2.54,1.75-.37.28-.73.55-1.09.82-4.34.02-8.51-1.7-11.56-4.79l-43.88-43.87c-3.08-3.06-4.81-7.22-4.79-11.56.28-.36.55-.72.82-1.09.59-.8,1.17-1.63,1.76-2.54.5-.78.99-1.63,1.49-2.57.36-.68.72-1.42,1.08-2.22s.71-1.67,1.07-2.59c.52-1.35,1.05-2.81,1.57-4.34.54-1.6,1.08-3.27,1.63-4.98.28-.89.57-1.8.85-2.7-.28,9.48,1.62,18.9,5.56,27.52,2.69,5.6,6.3,10.72,10.67,15.13l14.1,14.11c4.42,4.36,9.53,7.97,15.13,10.66,8.63,3.94,18.05,5.84,27.53,5.56Z" style="fill: #383838; stroke-width: 0px;"/>
        <path d="M152.74,158.68l1.09.84c-8.62,11.39-13.73,25.59-13.73,40.98h-1.33c0-3.22-.59-6.44-1.76-9.49h0c-.07-.19-.14-.37-.21-.55,1.17-8.31,3.78-16.35,7.72-23.75.17-.1.33-.21.49-.32h0c3.11-2.03,5.73-4.66,7.73-7.71Z" style="fill: #ad0000; stroke-width: 0px;"/>
        <path d="M153.83,241.49l-1.09.84c-2-3.05-4.62-5.68-7.73-7.71-.16-.11-.32-.22-.49-.32-3.94-7.4-6.55-15.44-7.72-23.75l.21-.54h0c1.17-3.06,1.76-6.28,1.76-9.5h1.33c0,15.38,5.11,29.58,13.73,40.98Z" style="fill: #ad0000; stroke-width: 0px;"/>
        <path d="M156.17,151.03c-.74,2.74-1.9,5.32-3.43,7.65-2,3.05-4.62,5.68-7.73,7.7,3.02-5.59,6.78-10.76,11.16-15.35Z" style="fill: #700; stroke-width: 0px;"/>
        <path d="M152.74,242.33c1.53,2.34,2.69,4.91,3.43,7.65-4.39-4.6-8.14-9.76-11.16-15.36,3.11,2.03,5.73,4.66,7.73,7.71Z" style="fill: #700; stroke-width: 0px;"/>
        <path d="M137.01,191.01c1.17,3.05,1.76,6.27,1.76,9.5s-.59,6.44-1.76,9.49c-.84-6.3-.84-12.69,0-18.99Z" style="fill: #700; stroke-width: 0px;"/>
        <rect x="86.42" y="8.66" width="30.95" height="21.82" transform="translate(16.02 77.8) rotate(-45.01)" style="fill: #161616; stroke-width: 0px;"/>
        <path d="M93.41,93.52v213.97c-.03,1.61-.07,3.23-.1,4.84l-.12,4.83c-.28.9-.57,1.81-.85,2.7-.55,1.71-1.09,3.38-1.63,4.98-.52,1.53-1.05,2.99-1.57,4.34-.36.92-.71,1.79-1.07,2.59s-.72,1.54-1.08,2.22c-.5.94-.99,1.79-1.49,2.57-.59.91-1.17,1.74-1.76,2.54-.27.37-.54.73-.82,1.09V60.82c.28.36.55.72.82,1.09.59.8,1.17,1.63,1.76,2.54.5.78.99,1.63,1.49,2.57.36.68.72,1.42,1.08,2.22s.71,1.67,1.07,2.59c.52,1.35,1.05,2.81,1.57,4.34.54,1.6,1.08,3.27,1.63,4.97.28.9.57,1.81.85,2.71l.12,4.83c.03,1.61.07,3.23.1,4.84Z" style="fill: #383838; stroke-width: 0px;"/>
      </g>
      <g>
        <circle cx="335.39" cy="213.31" r="21.4" style="fill: none; stroke: #000; stroke-linecap: round; stroke-linejoin: round;"/>
        <circle cx="282.83" cy="49.77" r="14.48" style="fill: none; stroke: #000; stroke-linecap: round; stroke-linejoin: round;"/>
        <line x1="82.92" y1="60.82" x2="82.92" y2="340.19" style="fill: none; stroke: #000; stroke-linecap: round; stroke-linejoin: round;"/>
        <path d="M143.15.6c-4.34-.02-8.51,1.7-11.56,4.79" style="fill: none; stroke: #000; stroke-linecap: round; stroke-linejoin: round;"/>
        <line x1="422.51" y1=".6" x2="143.15" y2=".6" style="fill: none; stroke: #000; stroke-linecap: round; stroke-linejoin: round;"/>
        <path d="M434.07,5.39c-3.05-3.09-7.22-4.81-11.56-4.79" style="fill: none; stroke: #000; stroke-linecap: round; stroke-linejoin: round;"/>
        <line x1="477.94" y1="49.26" x2="434.07" y2="5.39" style="fill: none; stroke: #000; stroke-linecap: round; stroke-linejoin: round;"/>
        <path d="M482.73,60.82c.03-4.34-1.7-8.5-4.79-11.56" style="fill: none; stroke: #000; stroke-linecap: round; stroke-linejoin: round;"/>
        <line x1="482.73" y1="340.19" x2="482.73" y2="60.82" style="fill: none; stroke: #000; stroke-linecap: round; stroke-linejoin: round;"/>
        <path d="M477.94,351.75c3.09-3.06,4.82-7.22,4.79-11.56" style="fill: none; stroke: #000; stroke-linecap: round; stroke-linejoin: round;"/>
        <line x1="434.07" y1="395.62" x2="477.94" y2="351.75" style="fill: none; stroke: #000; stroke-linecap: round; stroke-linejoin: round;"/>
        <path d="M422.51,400.41c4.34.02,8.51-1.7,11.56-4.79" style="fill: none; stroke: #000; stroke-linecap: round; stroke-linejoin: round;"/>
        <line x1="143.15" y1="400.41" x2="422.51" y2="400.41" style="fill: none; stroke: #000; stroke-linecap: round; stroke-linejoin: round;"/>
        <path d="M131.59,395.62c3.05,3.09,7.22,4.81,11.56,4.79" style="fill: none; stroke: #000; stroke-linecap: round; stroke-linejoin: round;"/>
        <line x1="87.71" y1="351.75" x2="131.59" y2="395.62" style="fill: none; stroke: #000; stroke-linecap: round; stroke-linejoin: round;"/>
        <path d="M82.92,340.19c-.02,4.34,1.71,8.5,4.79,11.56" style="fill: none; stroke: #000; stroke-linecap: round; stroke-linejoin: round;"/>
        <path d="M87.71,49.26c-3.08,3.06-4.81,7.22-4.79,11.56" style="fill: none; stroke: #000; stroke-linecap: round; stroke-linejoin: round;"/>
        <line x1="131.59" y1="5.39" x2="87.71" y2="49.26" style="fill: none; stroke: #000; stroke-linecap: round; stroke-linejoin: round;"/>
        <line x1="143.01" y1=".5" x2="422.65" y2=".5" style="fill: none; stroke: #000; stroke-linecap: round; stroke-linejoin: round;"/>
        <path d="M131.73,5.17c2.98-2.99,7.04-4.67,11.28-4.67" style="fill: none; stroke: #000; stroke-linecap: round; stroke-linejoin: round;"/>
        <polyline points="87.49 49.4 98.67 38.23 120.55 16.34 131.73 5.17" style="fill: none; stroke: #000; stroke-linecap: round; stroke-linejoin: round;"/>
        <path d="M82.83,60.69c0-4.25,1.68-8.3,4.66-11.29" style="fill: none; stroke: #000; stroke-linecap: round; stroke-linejoin: round;"/>
        <line x1="82.83" y1="340.32" x2="82.83" y2="60.69" style="fill: none; stroke: #000; stroke-linecap: round; stroke-linejoin: round;"/>
        <path d="M87.49,351.61c-2.98-2.99-4.66-7.05-4.66-11.29" style="fill: none; stroke: #000; stroke-linecap: round; stroke-linejoin: round;"/>
        <line x1="131.73" y1="395.84" x2="87.49" y2="351.61" style="fill: none; stroke: #000; stroke-linecap: round; stroke-linejoin: round;"/>
        <path d="M143.01,400.5c-4.24,0-8.3-1.67-11.28-4.66" style="fill: none; stroke: #000; stroke-linecap: round; stroke-linejoin: round;"/>
        <line x1="422.65" y1="400.5" x2="143.01" y2="400.5" style="fill: none; stroke: #000; stroke-linecap: round; stroke-linejoin: round;"/>
        <path d="M433.93,395.84c-2.99,2.99-7.04,4.66-11.28,4.66" style="fill: none; stroke: #000; stroke-linecap: round; stroke-linejoin: round;"/>
        <line x1="478.17" y1="351.61" x2="433.93" y2="395.84" style="fill: none; stroke: #000; stroke-linecap: round; stroke-linejoin: round;"/>
        <path d="M482.83,340.32c0,4.24-1.68,8.3-4.66,11.29" style="fill: none; stroke: #000; stroke-linecap: round; stroke-linejoin: round;"/>
        <line x1="482.83" y1="60.69" x2="482.83" y2="340.32" style="fill: none; stroke: #000; stroke-linecap: round; stroke-linejoin: round;"/>
        <path d="M478.17,49.4c2.98,2.99,4.66,7.04,4.66,11.29" style="fill: none; stroke: #000; stroke-linecap: round; stroke-linejoin: round;"/>
        <line x1="433.93" y1="5.17" x2="478.17" y2="49.4" style="fill: none; stroke: #000; stroke-linecap: round; stroke-linejoin: round;"/>
        <path d="M422.65.5c4.24,0,8.29,1.68,11.28,4.67" style="fill: none; stroke: #000; stroke-linecap: round; stroke-linejoin: round;"/>
        <path d="M426.9,115.13c0-25.05-20.31-45.35-45.36-45.35s-45.35,20.3-45.35,45.35,20.3,45.36,45.35,45.36,45.36-20.31,45.36-45.36Z" style="fill: none; stroke: #000; stroke-linecap: round; stroke-linejoin: round;"/>
        <path d="M338.86,115.13c0-23.57,19.11-42.68,42.68-42.68s42.69,19.11,42.69,42.68-19.11,42.69-42.69,42.69-42.68-19.11-42.68-42.69Z" style="fill: none; stroke: #000; stroke-linecap: round; stroke-linejoin: round;"/>
        <line x1="409.55" y1="89.72" x2="409.05" y2="88.84" style="fill: none; stroke: #000; stroke-linecap: round; stroke-linejoin: round;"/>
        <line x1="413.56" y1="96.65" x2="409.55" y2="89.72" style="fill: none; stroke: #000; stroke-linecap: round; stroke-linejoin: round;"/>
        <line x1="417.56" y1="103.58" x2="413.56" y2="96.65" style="fill: none; stroke: #000; stroke-linecap: round; stroke-linejoin: round;"/>
        <line x1="418.07" y1="104.46" x2="417.56" y2="103.58" style="fill: none; stroke: #000; stroke-linecap: round; stroke-linejoin: round;"/>
        <path d="M409.05,88.84c-3.82-6.61-10.86-10.68-18.49-10.68" style="fill: none; stroke: #000; stroke-linecap: round; stroke-linejoin: round;"/>
        <line x1="409.55" y1="140.55" x2="413.56" y2="133.62" style="fill: none; stroke: #000; stroke-linecap: round; stroke-linejoin: round;"/>
        <line x1="409.05" y1="141.43" x2="409.55" y2="140.55" style="fill: none; stroke: #000; stroke-linecap: round; stroke-linejoin: round;"/>
        <line x1="373.54" y1="78.16" x2="372.52" y2="78.16" style="fill: none; stroke: #000; stroke-linecap: round; stroke-linejoin: round;"/>
        <line x1="381.54" y1="78.16" x2="373.54" y2="78.16" style="fill: none; stroke: #000; stroke-linecap: round; stroke-linejoin: round;"/>
        <line x1="389.55" y1="78.16" x2="381.54" y2="78.16" style="fill: none; stroke: #000; stroke-linecap: round; stroke-linejoin: round;"/>
        <line x1="390.56" y1="78.16" x2="389.55" y2="78.16" style="fill: none; stroke: #000; stroke-linecap: round; stroke-linejoin: round;"/>
        <path d="M372.52,78.16c-7.62,0-14.67,4.07-18.48,10.68" style="fill: none; stroke: #000; stroke-linecap: round; stroke-linejoin: round;"/>
        <line x1="373.54" y1="152.1" x2="381.54" y2="152.1" style="fill: none; stroke: #000; stroke-linecap: round; stroke-linejoin: round;"/>
        <line x1="372.52" y1="152.1" x2="373.54" y2="152.1" style="fill: none; stroke: #000; stroke-linecap: round; stroke-linejoin: round;"/>
        <line x1="345.52" y1="103.58" x2="345.02" y2="104.46" style="fill: none; stroke: #000; stroke-linecap: round; stroke-linejoin: round;"/>
        <line x1="349.53" y1="96.65" x2="345.52" y2="103.58" style="fill: none; stroke: #000; stroke-linecap: round; stroke-linejoin: round;"/>
        <line x1="353.53" y1="89.72" x2="349.53" y2="96.65" style="fill: none; stroke: #000; stroke-linecap: round; stroke-linejoin: round;"/>
        <line x1="354.04" y1="88.84" x2="353.53" y2="89.72" style="fill: none; stroke: #000; stroke-linecap: round; stroke-linejoin: round;"/>
        <path d="M345.02,104.46c-3.82,6.6-3.82,14.74,0,21.34" style="fill: none; stroke: #000; stroke-linecap: round; stroke-linejoin: round;"/>
        <line x1="345.52" y1="126.68" x2="349.53" y2="133.62" style="fill: none; stroke: #000; stroke-linecap: round; stroke-linejoin: round;"/>
        <line x1="345.02" y1="125.8" x2="345.52" y2="126.68" style="fill: none; stroke: #000; stroke-linecap: round; stroke-linejoin: round;"/>
        <path d="M387.51,146.76c1.31,1.47,2.04,3.37,2.04,5.34" style="fill: none; stroke: #000; stroke-linecap: round; stroke-linejoin: round;"/>
        <path d="M375.58,146.76c.19-.22.4-.43.63-.63,3.29-2.94,8.35-2.66,11.3.63" style="fill: none; stroke: #000; stroke-linecap: round; stroke-linejoin: round;"/>
        <path d="M373.54,152.1c0-1.97.72-3.87,2.04-5.34" style="fill: none; stroke: #000; stroke-linecap: round; stroke-linejoin: round;"/>
        <line x1="413.56" y1="133.62" x2="417.56" y2="126.68" style="fill: none; stroke: #000; stroke-linecap: round; stroke-linejoin: round;"/>
        <path d="M411.92,125.78c1.93-.4,3.93-.08,5.64.9" style="fill: none; stroke: #000; stroke-linecap: round; stroke-linejoin: round;"/>
        <path d="M405.95,136.11c-.09-.28-.17-.57-.23-.86-.9-4.32,1.87-8.56,6.2-9.47" style="fill: none; stroke: #000; stroke-linecap: round; stroke-linejoin: round;"/>
        <path d="M409.55,140.55c-1.7-.99-2.98-2.57-3.6-4.44" style="fill: none; stroke: #000; stroke-linecap: round; stroke-linejoin: round;"/>
        <line x1="381.54" y1="152.1" x2="389.55" y2="152.1" style="fill: none; stroke: #000; stroke-linecap: round; stroke-linejoin: round;"/>
        <line x1="349.53" y1="133.62" x2="353.53" y2="140.55" style="fill: none; stroke: #000; stroke-linecap: round; stroke-linejoin: round;"/>
        <path d="M357.13,136.11c-.61,1.87-1.9,3.45-3.6,4.44" style="fill: none; stroke: #000; stroke-linecap: round; stroke-linejoin: round;"/>
        <path d="M351.16,125.78c.3.06.58.14.87.23,4.19,1.38,6.48,5.9,5.1,10.1" style="fill: none; stroke: #000; stroke-linecap: round; stroke-linejoin: round;"/>
        <path d="M345.52,126.68c1.71-.98,3.72-1.3,5.64-.9" style="fill: none; stroke: #000; stroke-linecap: round; stroke-linejoin: round;"/>
        <line x1="372.52" y1="88.84" x2="390.56" y2="88.84" style="fill: none; stroke: #000; stroke-linecap: round; stroke-linejoin: round;"/>
        <path d="M390.56,88.84c3.82,0,7.34,2.03,9.24,5.33" style="fill: none; stroke: #000; stroke-linecap: round; stroke-linejoin: round;"/>
        <line x1="399.8" y1="94.17" x2="408.83" y2="109.8" style="fill: none; stroke: #000; stroke-linecap: round; stroke-linejoin: round;"/>
        <path d="M408.83,109.8c1.9,3.3,1.9,7.37,0,10.67" style="fill: none; stroke: #000; stroke-linecap: round; stroke-linejoin: round;"/>
        <line x1="408.83" y1="120.47" x2="399.8" y2="136.09" style="fill: none; stroke: #000; stroke-linecap: round; stroke-linejoin: round;"/>
        <path d="M399.8,136.09c-1.9,3.3-5.42,5.34-9.24,5.34" style="fill: none; stroke: #000; stroke-linecap: round; stroke-linejoin: round;"/>
        <line x1="390.56" y1="141.43" x2="372.52" y2="141.43" style="fill: none; stroke: #000; stroke-linecap: round; stroke-linejoin: round;"/>
        <path d="M372.52,141.43c-3.81,0-7.33-2.04-9.24-5.34" style="fill: none; stroke: #000; stroke-linecap: round; stroke-linejoin: round;"/>
        <line x1="363.28" y1="136.09" x2="354.26" y2="120.47" style="fill: none; stroke: #000; stroke-linecap: round; stroke-linejoin: round;"/>
        <path d="M354.26,120.47c-1.91-3.3-1.91-7.37,0-10.67" style="fill: none; stroke: #000; stroke-linecap: round; stroke-linejoin: round;"/>
        <line x1="354.26" y1="109.8" x2="363.28" y2="94.17" style="fill: none; stroke: #000; stroke-linecap: round; stroke-linejoin: round;"/>
        <path d="M363.28,94.17c1.91-3.3,5.43-5.33,9.24-5.33" style="fill: none; stroke: #000; stroke-linecap: round; stroke-linejoin: round;"/>
        <line x1="413.45" y1="123.14" x2="411.92" y2="125.78" style="fill: none; stroke: #000; stroke-linecap: round; stroke-linejoin: round;"/>
        <path d="M413.45,107.13c2.86,4.95,2.86,11.05,0,16.01" style="fill: none; stroke: #000; stroke-linecap: round; stroke-linejoin: round;"/>
        <line x1="411.92" y1="104.48" x2="413.45" y2="107.13" style="fill: none; stroke: #000; stroke-linecap: round; stroke-linejoin: round;"/>
        <path d="M411.92,104.48c-.29-.06-.58-.14-.86-.23-4.2-1.38-6.49-5.9-5.11-10.1" style="fill: none; stroke: #000; stroke-linecap: round; stroke-linejoin: round;"/>
        <line x1="404.43" y1="91.5" x2="405.95" y2="94.15" style="fill: none; stroke: #000; stroke-linecap: round; stroke-linejoin: round;"/>
        <path d="M390.56,83.5c5.72,0,11.01,3.05,13.87,8" style="fill: none; stroke: #000; stroke-linecap: round; stroke-linejoin: round;"/>
        <line x1="387.51" y1="83.5" x2="390.56" y2="83.5" style="fill: none; stroke: #000; stroke-linecap: round; stroke-linejoin: round;"/>
        <path d="M387.51,83.5c-.2.22-.41.43-.63.63-3.3,2.95-8.36,2.66-11.3-.63" style="fill: none; stroke: #000; stroke-linecap: round; stroke-linejoin: round;"/>
        <line x1="372.52" y1="83.5" x2="375.58" y2="83.5" style="fill: none; stroke: #000; stroke-linecap: round; stroke-linejoin: round;"/>
        <path d="M358.66,91.5c2.86-4.95,8.14-8,13.86-8" style="fill: none; stroke: #000; stroke-linecap: round; stroke-linejoin: round;"/>
        <line x1="357.13" y1="94.15" x2="358.66" y2="91.5" style="fill: none; stroke: #000; stroke-linecap: round; stroke-linejoin: round;"/>
        <path d="M357.13,94.15c.09.28.17.57.23.86.91,4.33-1.87,8.57-6.2,9.47" style="fill: none; stroke: #000; stroke-linecap: round; stroke-linejoin: round;"/>
        <line x1="349.64" y1="107.13" x2="351.16" y2="104.48" style="fill: none; stroke: #000; stroke-linecap: round; stroke-linejoin: round;"/>
        <path d="M349.64,123.14c-2.86-4.96-2.86-11.06,0-16.01" style="fill: none; stroke: #000; stroke-linecap: round; stroke-linejoin: round;"/>
        <line x1="351.16" y1="125.78" x2="349.64" y2="123.14" style="fill: none; stroke: #000; stroke-linecap: round; stroke-linejoin: round;"/>
        <line x1="358.66" y1="138.76" x2="357.13" y2="136.11" style="fill: none; stroke: #000; stroke-linecap: round; stroke-linejoin: round;"/>
        <path d="M372.52,146.76c-5.72,0-11-3.05-13.86-8" style="fill: none; stroke: #000; stroke-linecap: round; stroke-linejoin: round;"/>
        <line x1="375.58" y1="146.76" x2="372.52" y2="146.76" style="fill: none; stroke: #000; stroke-linecap: round; stroke-linejoin: round;"/>
        <line x1="390.56" y1="146.76" x2="387.51" y2="146.76" style="fill: none; stroke: #000; stroke-linecap: round; stroke-linejoin: round;"/>
        <path d="M404.43,138.76c-2.86,4.95-8.15,8-13.87,8" style="fill: none; stroke: #000; stroke-linecap: round; stroke-linejoin: round;"/>
        <line x1="405.95" y1="136.11" x2="404.43" y2="138.76" style="fill: none; stroke: #000; stroke-linecap: round; stroke-linejoin: round;"/>
        <line x1="417.56" y1="126.68" x2="418.07" y2="125.8" style="fill: none; stroke: #000; stroke-linecap: round; stroke-linejoin: round;"/>
        <line x1="389.55" y1="152.1" x2="390.56" y2="152.1" style="fill: none; stroke: #000; stroke-linecap: round; stroke-linejoin: round;"/>
        <line x1="353.53" y1="140.55" x2="354.04" y2="141.43" style="fill: none; stroke: #000; stroke-linecap: round; stroke-linejoin: round;"/>
        <path d="M351.16,104.48c-1.92.41-3.93.08-5.64-.9" style="fill: none; stroke: #000; stroke-linecap: round; stroke-linejoin: round;"/>
        <path d="M353.53,89.72c1.7.98,2.99,2.56,3.6,4.43" style="fill: none; stroke: #000; stroke-linecap: round; stroke-linejoin: round;"/>
        <path d="M375.58,83.5c-1.32-1.47-2.04-3.37-2.04-5.34" style="fill: none; stroke: #000; stroke-linecap: round; stroke-linejoin: round;"/>
        <path d="M389.55,78.16c0,1.97-.73,3.87-2.04,5.34" style="fill: none; stroke: #000; stroke-linecap: round; stroke-linejoin: round;"/>
        <path d="M405.95,94.15c.62-1.87,1.9-3.45,3.6-4.43" style="fill: none; stroke: #000; stroke-linecap: round; stroke-linejoin: round;"/>
        <path d="M417.56,103.58c-1.71.98-3.71,1.31-5.64.9" style="fill: none; stroke: #000; stroke-linecap: round; stroke-linejoin: round;"/>
        <path d="M354.04,141.43c3.81,6.6,10.86,10.67,18.48,10.67" style="fill: none; stroke: #000; stroke-linecap: round; stroke-linejoin: round;"/>
        <path d="M390.56,152.1c7.63,0,14.67-4.07,18.49-10.67" style="fill: none; stroke: #000; stroke-linecap: round; stroke-linejoin: round;"/>
        <path d="M418.07,125.8c3.81-6.6,3.81-14.74,0-21.34" style="fill: none; stroke: #000; stroke-linecap: round; stroke-linejoin: round;"/>
        <line x1="367.9" y1="133.42" x2="358.88" y2="117.8" style="fill: none; stroke: #000; stroke-linecap: round; stroke-linejoin: round;"/>
        <path d="M358.88,117.8c-.95-1.65-.95-3.69,0-5.34" style="fill: none; stroke: #000; stroke-linecap: round; stroke-linejoin: round;"/>
        <line x1="358.88" y1="112.46" x2="367.9" y2="96.84" style="fill: none; stroke: #000; stroke-linecap: round; stroke-linejoin: round;"/>
        <path d="M367.9,96.84c.95-1.65,2.71-2.67,4.62-2.67" style="fill: none; stroke: #000; stroke-linecap: round; stroke-linejoin: round;"/>
        <line x1="372.52" y1="94.17" x2="390.56" y2="94.17" style="fill: none; stroke: #000; stroke-linecap: round; stroke-linejoin: round;"/>
        <path d="M390.56,94.17c1.91,0,3.67,1.02,4.62,2.67" style="fill: none; stroke: #000; stroke-linecap: round; stroke-linejoin: round;"/>
        <line x1="395.18" y1="96.84" x2="404.2" y2="112.46" style="fill: none; stroke: #000; stroke-linecap: round; stroke-linejoin: round;"/>
        <path d="M404.2,112.46c.96,1.65.96,3.69,0,5.34" style="fill: none; stroke: #000; stroke-linecap: round; stroke-linejoin: round;"/>
        <line x1="404.2" y1="117.8" x2="395.18" y2="133.42" style="fill: none; stroke: #000; stroke-linecap: round; stroke-linejoin: round;"/>
        <path d="M395.18,133.42c-.95,1.65-2.71,2.67-4.62,2.67" style="fill: none; stroke: #000; stroke-linecap: round; stroke-linejoin: round;"/>
        <line x1="390.56" y1="136.09" x2="372.52" y2="136.09" style="fill: none; stroke: #000; stroke-linecap: round; stroke-linejoin: round;"/>
        <path d="M372.52,136.09c-1.91,0-3.67-1.02-4.62-2.67" style="fill: none; stroke: #000; stroke-linecap: round; stroke-linejoin: round;"/>
        <path d="M156.18,151.02l.15-.57" style="fill: none; stroke: #000; stroke-linecap: round; stroke-linejoin: round;"/>
        <path d="M145.01,166.38c3.11-2.02,5.73-4.65,7.73-7.7,1.53-2.33,2.69-4.91,3.43-7.65" style="fill: none; stroke: #000; stroke-linecap: round; stroke-linejoin: round;"/>
        <path d="M144.52,166.71c.17-.1.33-.21.49-.32" style="fill: none; stroke: #000; stroke-linecap: round; stroke-linejoin: round;"/>
        <path d="M195.19,129.93c.15-.12.3-.25.45-.37" style="fill: none; stroke: #000; stroke-linecap: round; stroke-linejoin: round;"/>
        <path d="M176.53,135.77c.2.02.4.03.6.03,3.19.16,6.36-.25,9.36-1.2,3.13-.99,6.09-2.56,8.69-4.67" style="fill: none; stroke: #000; stroke-linecap: round; stroke-linejoin: round;"/>
        <path d="M220.61,129.56c.15.13.3.25.46.37,2.6,2.11,5.56,3.68,8.7,4.67,3,.95,6.16,1.36,9.35,1.2.2,0,.4-.01.6-.03" style="fill: none; stroke: #000; stroke-linecap: round; stroke-linejoin: round;"/>
        <path d="M271.25,166.39c.16.11.32.22.49.32" style="fill: none; stroke: #000; stroke-linecap: round; stroke-linejoin: round;"/>
        <path d="M260.09,151.03c.74,2.74,1.9,5.32,3.43,7.65,2,3.05,4.62,5.68,7.73,7.7" style="fill: none; stroke: #000; stroke-linecap: round; stroke-linejoin: round;"/>
        <path d="M259.93,150.45l.15.57" style="fill: none; stroke: #000; stroke-linecap: round; stroke-linejoin: round;"/>
        <path d="M279.46,190.46c-.08.19-.15.38-.22.57-1.16,3.05-1.75,6.26-1.75,9.48s.59,6.42,1.75,9.47c.07.19.14.38.22.57" style="fill: none; stroke: #000; stroke-linecap: round; stroke-linejoin: round;"/>
        <path d="M260.08,249.99l-.15.57" style="fill: none; stroke: #000; stroke-linecap: round; stroke-linejoin: round;"/>
        <path d="M271.74,234.3c-.17.1-.33.21-.49.32-3.11,2.03-5.73,4.66-7.73,7.71-1.53,2.34-2.69,4.91-3.43,7.65" style="fill: none; stroke: #000; stroke-linecap: round; stroke-linejoin: round;"/>
        <path d="M239.72,265.24c-.2-.02-.4-.03-.6-.03-3.19-.16-6.35.25-9.35,1.2-3.14.99-6.1,2.56-8.7,4.67-.16.12-.31.24-.46.37" style="fill: none; stroke: #000; stroke-linecap: round; stroke-linejoin: round;"/>
        <path d="M195.18,271.08c-2.6-2.11-5.56-3.68-8.69-4.67-3-.95-6.17-1.36-9.36-1.2-.2,0-.4,0-.6.03" style="fill: none; stroke: #000; stroke-linecap: round; stroke-linejoin: round;"/>
        <path d="M195.64,271.45c-.15-.12-.3-.25-.45-.37" style="fill: none; stroke: #000; stroke-linecap: round; stroke-linejoin: round;"/>
        <path d="M156.17,249.98c-.74-2.74-1.9-5.31-3.43-7.65-2-3.05-4.62-5.68-7.73-7.71-.16-.11-.32-.22-.49-.32" style="fill: none; stroke: #000; stroke-linecap: round; stroke-linejoin: round;"/>
        <path d="M156.33,250.56l-.15-.57" style="fill: none; stroke: #000; stroke-linecap: round; stroke-linejoin: round;"/>
        <path d="M144.52,234.3c-3.94-7.4-6.55-15.44-7.72-23.75" style="fill: none; stroke: #000; stroke-linecap: round; stroke-linejoin: round;"/>
        <path d="M176.53,265.24c-7.54-3.68-14.38-8.65-20.2-14.68" style="fill: none; stroke: #000; stroke-linecap: round; stroke-linejoin: round;"/>
        <path d="M220.61,271.45c-8.26,1.45-16.71,1.45-24.97,0" style="fill: none; stroke: #000; stroke-linecap: round; stroke-linejoin: round;"/>
        <path d="M259.93,250.56c-5.83,6.03-12.67,11-20.21,14.68" style="fill: none; stroke: #000; stroke-linecap: round; stroke-linejoin: round;"/>
        <path d="M279.46,210.55c-1.17,8.31-3.78,16.35-7.72,23.75" style="fill: none; stroke: #000; stroke-linecap: round; stroke-linejoin: round;"/>
        <path d="M271.74,166.71c3.94,7.4,6.55,15.44,7.72,23.75" style="fill: none; stroke: #000; stroke-linecap: round; stroke-linejoin: round;"/>
        <path d="M239.72,135.77c7.54,3.68,14.38,8.65,20.21,14.68" style="fill: none; stroke: #000; stroke-linecap: round; stroke-linejoin: round;"/>
        <path d="M195.64,129.56c8.26-1.45,16.71-1.45,24.97,0" style="fill: none; stroke: #000; stroke-linecap: round; stroke-linejoin: round;"/>
        <path d="M156.33,150.45c5.82-6.03,12.66-11,20.2-14.68" style="fill: none; stroke: #000; stroke-linecap: round; stroke-linejoin: round;"/>
        <path d="M137.01,191l-.21-.54" style="fill: none; stroke: #000; stroke-linecap: round; stroke-linejoin: round;"/>
        <path d="M137.01,210c1.17-3.05,1.76-6.27,1.76-9.49s-.59-6.45-1.76-9.5" style="fill: none; stroke: #000; stroke-linecap: round; stroke-linejoin: round;"/>
        <path d="M136.8,210.55l.21-.54" style="fill: none; stroke: #000; stroke-linecap: round; stroke-linejoin: round;"/>
        <path d="M140.1,200.5c0-15.39,5.11-29.59,13.73-40.98,8.26-10.94,19.76-19.31,33.07-23.66,6.68-2.2,13.82-3.39,21.23-3.39s14.55,1.19,21.23,3.39c13.31,4.36,24.8,12.72,33.06,23.66,8.63,11.39,13.74,25.59,13.74,40.98s-5.11,29.59-13.74,40.99c-8.25,10.94-19.75,19.3-33.05,23.67-6.69,2.19-13.82,3.38-21.24,3.38s-14.56-1.19-21.24-3.38c-13.31-4.37-24.8-12.73-33.06-23.67-8.62-11.4-13.73-25.6-13.73-40.99Z" style="fill: none; stroke: #000; stroke-linecap: round; stroke-linejoin: round;"/>
        <path d="M136.8,190.46c1.17-8.31,3.78-16.35,7.72-23.75" style="fill: none; stroke: #000; stroke-linecap: round; stroke-linejoin: round;"/>
        <path d="M355.13,213.31c0-10.9-8.84-19.74-19.74-19.74s-19.75,8.84-19.75,19.74,8.84,19.74,19.75,19.74,19.74-8.84,19.74-19.74Z" style="fill: none; stroke: #000; stroke-linecap: round; stroke-linejoin: round;"/>
        <circle cx="335.39" cy="213.31" r="18.14" style="fill: none; stroke: #000; stroke-linecap: round; stroke-linejoin: round;"/>
        <line x1="105.12" y1=".91" x2="83.24" y2="22.8" style="fill: none; stroke: #000; stroke-linecap: round; stroke-linejoin: round;"/>
        <line x1="98.67" y1="38.23" x2="83.24" y2="22.8" style="fill: none; stroke: #000; stroke-linecap: round; stroke-linejoin: round;"/>
        <line x1="120.55" y1="16.34" x2="105.12" y2=".91" style="fill: none; stroke: #000; stroke-linecap: round; stroke-linejoin: round;"/>
        <path d="M344.92,297.88c0-19.49,15.8-35.29,35.29-35.29s35.29,15.8,35.29,35.29-15.8,35.3-35.29,35.3-35.29-15.81-35.29-35.3Z" style="fill: none; stroke: #000; stroke-linecap: round; stroke-linejoin: round;"/>
        <path d="M267.39,351.24c0-8.52,6.91-15.43,15.44-15.43s15.43,6.91,15.43,15.43-6.91,15.44-15.43,15.44-15.44-6.91-15.44-15.44Z" style="fill: none; stroke: #000; stroke-linecap: round; stroke-linejoin: round;"/>
        <circle cx="381.54" cy="115.13" r="56.14" style="fill: none; stroke: #000; stroke-linecap: round; stroke-linejoin: round;"/>
        <circle cx="381.54" cy="115.13" r="50.6" style="fill: none; stroke: #000; stroke-linecap: round; stroke-linejoin: round;"/>
        <path d="M338.63,297.88c0-22.96,18.61-41.58,41.58-41.58s41.58,18.62,41.58,41.58-18.62,41.59-41.58,41.59-41.58-18.62-41.58-41.59Z" style="fill: none; stroke: #000; stroke-linecap: round; stroke-linejoin: round;"/>
        <path d="M301.77,213.31c0-18.57,15.05-33.62,33.62-33.62s33.62,15.05,33.62,33.62-15.06,33.62-33.62,33.62-33.62-15.05-33.62-33.62Z" style="fill: none; stroke: #000; stroke-linecap: round; stroke-linejoin: round;"/>
        <path d="M334.3,297.88c0-25.35,20.55-45.9,45.91-45.9s45.9,20.55,45.9,45.9-20.55,45.91-45.9,45.91-45.91-20.55-45.91-45.91Z" style="fill: none; stroke: #000; stroke-linecap: round; stroke-linejoin: round;"/>
        <path d="M288.2,200.5c0-44.22-35.85-80.07-80.07-80.07s-80.08,35.85-80.08,80.07,35.85,80.08,80.08,80.08,80.07-35.85,80.07-80.08Z" style="fill: none; stroke: #000; stroke-linecap: round; stroke-linejoin: round;"/>
        <line x1="110.36" y1="305.43" x2="110.36" y2="95.58" style="fill: none; stroke: #000; stroke-linecap: round; stroke-linejoin: round;"/>
        <path d="M110.36,305.43c0,.31.08.62.23.9" style="fill: none; stroke: #000; stroke-linecap: round; stroke-linejoin: round;"/>
        <path d="M123.88,324.1c-5.26-5.26-9.73-11.24-13.29-17.77" style="fill: none; stroke: #000; stroke-linecap: round; stroke-linejoin: round;"/>
        <line x1="159.24" y1="359.46" x2="123.88" y2="324.1" style="fill: none; stroke: #000; stroke-linecap: round; stroke-linejoin: round;"/>
        <path d="M177,372.74c-6.52-3.55-12.51-8.03-17.76-13.28" style="fill: none; stroke: #000; stroke-linecap: round; stroke-linejoin: round;"/>
        <path d="M177,372.74c.28.15.59.23.91.23" style="fill: none; stroke: #000; stroke-linecap: round; stroke-linejoin: round;"/>
        <line x1="232.41" y1="372.97" x2="177.91" y2="372.97" style="fill: none; stroke: #000; stroke-linecap: round; stroke-linejoin: round;"/>
        <path d="M234.29,371.25c-.1,1.07-.8,1.72-1.88,1.72" style="fill: none; stroke: #000; stroke-linecap: round; stroke-linejoin: round;"/>
        <line x1="236.39" y1="347.18" x2="234.29" y2="371.25" style="fill: none; stroke: #000; stroke-linecap: round; stroke-linejoin: round;"/>
        <path d="M329.26,347.18c-2.24-25.65-24.85-44.62-50.49-42.37-22.54,1.97-40.41,19.83-42.38,42.37" style="fill: none; stroke: #000; stroke-linecap: round; stroke-linejoin: round;"/>
        <line x1="331.37" y1="371.25" x2="329.26" y2="347.18" style="fill: none; stroke: #000; stroke-linecap: round; stroke-linejoin: round;"/>
        <path d="M333.25,372.97c-1.08,0-1.79-.65-1.88-1.72" style="fill: none; stroke: #000; stroke-linecap: round; stroke-linejoin: round;"/>
        <line x1="387.75" y1="372.97" x2="333.25" y2="372.97" style="fill: none; stroke: #000; stroke-linecap: round; stroke-linejoin: round;"/>
        <path d="M387.75,372.97c.32,0,.63-.08.9-.23" style="fill: none; stroke: #000; stroke-linecap: round; stroke-linejoin: round;"/>
        <path d="M406.42,359.46c-5.26,5.25-11.24,9.73-17.77,13.28" style="fill: none; stroke: #000; stroke-linecap: round; stroke-linejoin: round;"/>
        <line x1="441.78" y1="324.1" x2="406.42" y2="359.46" style="fill: none; stroke: #000; stroke-linecap: round; stroke-linejoin: round;"/>
        <path d="M455.07,306.33c-3.56,6.53-8.03,12.51-13.29,17.77" style="fill: none; stroke: #000; stroke-linecap: round; stroke-linejoin: round;"/>
        <path d="M455.07,306.33c.15-.28.23-.59.23-.9" style="fill: none; stroke: #000; stroke-linecap: round; stroke-linejoin: round;"/>
        <line x1="455.3" y1="95.58" x2="455.3" y2="305.43" style="fill: none; stroke: #000; stroke-linecap: round; stroke-linejoin: round;"/>
        <path d="M455.3,95.58c0-.31-.08-.62-.23-.9" style="fill: none; stroke: #000; stroke-linecap: round; stroke-linejoin: round;"/>
        <path d="M441.78,76.91c5.26,5.26,9.73,11.24,13.29,17.77" style="fill: none; stroke: #000; stroke-linecap: round; stroke-linejoin: round;"/>
        <line x1="406.42" y1="41.55" x2="441.78" y2="76.91" style="fill: none; stroke: #000; stroke-linecap: round; stroke-linejoin: round;"/>
        <path d="M388.65,28.27c6.53,3.55,12.51,8.03,17.77,13.28" style="fill: none; stroke: #000; stroke-linecap: round; stroke-linejoin: round;"/>
        <path d="M388.65,28.27c-.27-.15-.58-.23-.9-.23" style="fill: none; stroke: #000; stroke-linecap: round; stroke-linejoin: round;"/>
        <line x1="333.25" y1="28.04" x2="387.75" y2="28.04" style="fill: none; stroke: #000; stroke-linecap: round; stroke-linejoin: round;"/>
        <path d="M331.37,29.76c.09-1.07.8-1.72,1.88-1.72" style="fill: none; stroke: #000; stroke-linecap: round; stroke-linejoin: round;"/>
        <line x1="329.26" y1="53.83" x2="331.37" y2="29.76" style="fill: none; stroke: #000; stroke-linecap: round; stroke-linejoin: round;"/>
        <path d="M236.39,53.83c2.25,25.65,24.86,44.62,50.5,42.37,22.54-1.97,40.4-19.83,42.37-42.37" style="fill: none; stroke: #000; stroke-linecap: round; stroke-linejoin: round;"/>
        <line x1="234.29" y1="29.76" x2="236.39" y2="53.83" style="fill: none; stroke: #000; stroke-linecap: round; stroke-linejoin: round;"/>
        <path d="M232.41,28.04c1.08,0,1.78.65,1.88,1.72" style="fill: none; stroke: #000; stroke-linecap: round; stroke-linejoin: round;"/>
        <line x1="177.91" y1="28.04" x2="232.41" y2="28.04" style="fill: none; stroke: #000; stroke-linecap: round; stroke-linejoin: round;"/>
        <path d="M177.91,28.04c-.32,0-.63.08-.91.23" style="fill: none; stroke: #000; stroke-linecap: round; stroke-linejoin: round;"/>
        <path d="M159.24,41.55c5.25-5.25,11.24-9.73,17.76-13.28" style="fill: none; stroke: #000; stroke-linecap: round; stroke-linejoin: round;"/>
        <line x1="123.88" y1="76.91" x2="159.24" y2="41.55" style="fill: none; stroke: #000; stroke-linecap: round; stroke-linejoin: round;"/>
        <path d="M110.59,94.68c3.56-6.53,8.03-12.51,13.29-17.77" style="fill: none; stroke: #000; stroke-linecap: round; stroke-linejoin: round;"/>
        <path d="M110.59,94.68c-.15.28-.23.59-.23.9" style="fill: none; stroke: #000; stroke-linecap: round; stroke-linejoin: round;"/>
        <path d="M129.94,200.5c0-43.18,35.01-78.18,78.19-78.18s78.19,35,78.19,78.18-35.01,78.19-78.19,78.19-78.19-35-78.19-78.19Z" style="fill: none; stroke: #000; stroke-linecap: round; stroke-linejoin: round;"/>
        <path d="M145.01,234.62c3.02,5.6,6.77,10.76,11.16,15.36h0" style="fill: none; stroke: #000; stroke-linecap: round; stroke-linejoin: round;"/>
        <path d="M177.11,265.2s.01.01.02.01c5.73,2.74,11.8,4.72,18.05,5.87h.01" style="fill: none; stroke: #000; stroke-linecap: round; stroke-linejoin: round;"/>
        <path d="M221.07,271.08c6.24-1.15,12.32-3.13,18.05-5.87.01,0,.01-.01.02-.01" style="fill: none; stroke: #000; stroke-linecap: round; stroke-linejoin: round;"/>
        <path d="M260.08,249.99h.01c4.38-4.61,8.13-9.77,11.16-15.37" style="fill: none; stroke: #000; stroke-linecap: round; stroke-linejoin: round;"/>
        <path d="M279.24,210.01v-.03c.85-6.29.85-12.66,0-18.95v-.03" style="fill: none; stroke: #000; stroke-linecap: round; stroke-linejoin: round;"/>
        <path d="M271.25,166.39h0c-3.03-5.6-6.79-10.77-11.16-15.36h-.01" style="fill: none; stroke: #000; stroke-linecap: round; stroke-linejoin: round;"/>
        <path d="M239.14,135.81s0-.01-.02-.01c-5.73-2.74-11.81-4.72-18.05-5.87" style="fill: none; stroke: #000; stroke-linecap: round; stroke-linejoin: round;"/>
        <path d="M195.19,129.93h-.01c-6.25,1.15-12.32,3.13-18.05,5.87-.01,0-.01.01-.02.01" style="fill: none; stroke: #000; stroke-linecap: round; stroke-linejoin: round;"/>
        <path d="M156.18,151.02h0c-4.38,4.6-8.14,9.77-11.16,15.36h0" style="fill: none; stroke: #000; stroke-linecap: round; stroke-linejoin: round;"/>
        <path d="M137.01,191h0c-.84,6.31-.84,12.7,0,19h0" style="fill: none; stroke: #000; stroke-linecap: round; stroke-linejoin: round;"/>
        <circle cx="282.83" cy="49.77" r="18.1" style="fill: none; stroke: #000; stroke-linecap: round; stroke-linejoin: round;"/>
        <path d="M253.09,21.07c-.33-3.8-1.66-7.44-3.83-10.54" style="fill: none; stroke: #000; stroke-linecap: round; stroke-linejoin: round;"/>
        <line x1="255.81" y1="52.13" x2="253.09" y2="21.07" style="fill: none; stroke: #000; stroke-linecap: round; stroke-linejoin: round;"/>
        <path d="M309.85,52.13c-1.15,13.12-11.54,23.51-24.66,24.66-14.92,1.31-28.08-9.73-29.38-24.66" style="fill: none; stroke: #000; stroke-linecap: round; stroke-linejoin: round;"/>
        <line x1="312.57" y1="21.07" x2="309.85" y2="52.13" style="fill: none; stroke: #000; stroke-linecap: round; stroke-linejoin: round;"/>
        <path d="M316.4,10.53c-2.18,3.1-3.5,6.74-3.83,10.54" style="fill: none; stroke: #000; stroke-linecap: round; stroke-linejoin: round;"/>
        <line x1="93.41" y1="93.52" x2="93.41" y2="307.49" style="fill: none; stroke: #000; stroke-linecap: round; stroke-linejoin: round;"/>
        <path d="M93.19,83.85l.12,4.83c.03,1.61.07,3.23.1,4.84" style="fill: none; stroke: #000; stroke-linecap: round; stroke-linejoin: round;"/>
        <path d="M82.92,60.82c.28.36.55.72.82,1.09.59.8,1.17,1.63,1.76,2.54.5.78.99,1.63,1.49,2.57.36.68.72,1.42,1.08,2.22s.71,1.67,1.07,2.59c.52,1.35,1.05,2.81,1.57,4.34.54,1.6,1.08,3.27,1.63,4.97.28.9.57,1.81.85,2.71" style="fill: none; stroke: #000; stroke-linecap: round; stroke-linejoin: round;"/>
        <path d="M93.19,317.16c-.28.9-.57,1.81-.85,2.7-.55,1.71-1.09,3.38-1.63,4.98-.52,1.53-1.05,2.99-1.57,4.34-.36.92-.71,1.79-1.07,2.59s-.72,1.54-1.08,2.22c-.5.94-.99,1.79-1.49,2.57-.59.91-1.17,1.74-1.76,2.54-.27.37-.54.73-.82,1.09" style="fill: none; stroke: #000; stroke-linecap: round; stroke-linejoin: round;"/>
        <path d="M93.41,307.49c-.03,1.61-.07,3.23-.1,4.84l-.12,4.83" style="fill: none; stroke: #000; stroke-linecap: round; stroke-linejoin: round;"/>
        <path d="M244.95,13.56c1.62,2.34,2.61,5.09,2.84,7.97" style="fill: none; stroke: #000; stroke-linecap: round; stroke-linejoin: round;"/>
        <path d="M245.8,26.4c-.27-2.82-1.27-5.53-2.91-7.83" style="fill: none; stroke: #000; stroke-linecap: round; stroke-linejoin: round;"/>
        <path d="M232.68,5.28c1.23.21,2.46.58,3.68,1.1,1.39.6,2.77,1.41,4.1,2.44,1.01.78,1.99,1.69,2.89,2.71.57.64,1.11,1.33,1.6,2.03" style="fill: none; stroke: #000; stroke-linecap: round; stroke-linejoin: round;"/>
        <line x1="232.68" y1="5.28" x2="230.3" y2="11.09" style="fill: none; stroke: #000; stroke-linecap: round; stroke-linejoin: round;"/>
        <path d="M242.89,18.57c-.56-.8-1.2-1.56-1.87-2.24-1.07-1.1-2.23-2.02-3.45-2.77-1.51-.94-3.08-1.6-4.68-2.02-.86-.22-1.73-.38-2.59-.45" style="fill: none; stroke: #000; stroke-linecap: round; stroke-linejoin: round;"/>
        <path d="M238.58,21.6c1.09,1.55,1.75,3.36,1.92,5.27" style="fill: none; stroke: #000; stroke-linecap: round; stroke-linejoin: round;"/>
        <line x1="240.5" y1="26.87" x2="242.81" y2="53.27" style="fill: none; stroke: #000; stroke-linecap: round; stroke-linejoin: round;"/>
        <line x1="248.11" y1="52.81" x2="245.8" y2="26.4" style="fill: none; stroke: #000; stroke-linecap: round; stroke-linejoin: round;"/>
        <path d="M255.81,348.88c1.14-13.12,11.54-23.51,24.65-24.66,14.93-1.31,28.09,9.73,29.39,24.66" style="fill: none; stroke: #000; stroke-linecap: round; stroke-linejoin: round;"/>
        <line x1="253.09" y1="379.94" x2="255.81" y2="348.88" style="fill: none; stroke: #000; stroke-linecap: round; stroke-linejoin: round;"/>
        <path d="M249.26,390.48c2.17-3.1,3.5-6.74,3.83-10.54" style="fill: none; stroke: #000; stroke-linecap: round; stroke-linejoin: round;"/>
        <path d="M312.57,379.94c.33,3.8,1.65,7.44,3.83,10.54" style="fill: none; stroke: #000; stroke-linecap: round; stroke-linejoin: round;"/>
        <line x1="309.85" y1="348.88" x2="312.57" y2="379.94" style="fill: none; stroke: #000; stroke-linecap: round; stroke-linejoin: round;"/>
        <circle cx="282.83" cy="351.24" r="18.1" style="fill: none; stroke: #000; stroke-linecap: round; stroke-linejoin: round;"/>
        <path d="M315.15,348.41c-1.56-17.84-17.3-31.05-35.15-29.49-15.68,1.38-28.12,13.81-29.49,29.49" style="fill: none; stroke: #000; stroke-linecap: round; stroke-linejoin: round;"/>
        <path d="M248.11,348.2c1.47-16.85,14.83-30.21,31.68-31.68,19.18-1.68,36.09,12.51,37.76,31.68" style="fill: none; stroke: #000; stroke-linecap: round; stroke-linejoin: round;"/>
        <path d="M322.85,347.74c-1.94-22.1-21.42-38.45-43.52-36.52-19.42,1.7-34.82,17.1-36.52,36.52" style="fill: none; stroke: #000; stroke-linecap: round; stroke-linejoin: round;"/>
        <line x1="103.92" y1="307.49" x2="103.92" y2="93.52" style="fill: none; stroke: #000; stroke-linecap: round; stroke-linejoin: round;"/>
        <path d="M119.32,328.65c-6.2-6.21-11.4-13.35-15.4-21.16" style="fill: none; stroke: #000; stroke-linecap: round; stroke-linejoin: round;"/>
        <line x1="154.68" y1="364.01" x2="119.32" y2="328.65" style="fill: none; stroke: #000; stroke-linecap: round; stroke-linejoin: round;"/>
        <path d="M175.84,379.41c-7.81-3.99-14.95-9.19-21.16-15.4" style="fill: none; stroke: #000; stroke-linecap: round; stroke-linejoin: round;"/>
        <line x1="238.58" y1="379.41" x2="175.84" y2="379.41" style="fill: none; stroke: #000; stroke-linecap: round; stroke-linejoin: round;"/>
        <path d="M240.5,374.14c-.17,1.91-.83,3.72-1.92,5.27" style="fill: none; stroke: #000; stroke-linecap: round; stroke-linejoin: round;"/>
        <line x1="242.81" y1="347.74" x2="240.5" y2="374.14" style="fill: none; stroke: #000; stroke-linecap: round; stroke-linejoin: round;"/>
        <line x1="325.16" y1="374.14" x2="322.85" y2="347.74" style="fill: none; stroke: #000; stroke-linecap: round; stroke-linejoin: round;"/>
        <path d="M327.07,379.41c-1.08-1.55-1.75-3.36-1.91-5.27" style="fill: none; stroke: #000; stroke-linecap: round; stroke-linejoin: round;"/>
        <line x1="389.81" y1="379.41" x2="327.07" y2="379.41" style="fill: none; stroke: #000; stroke-linecap: round; stroke-linejoin: round;"/>
        <path d="M410.97,364.01c-6.2,6.21-13.34,11.41-21.16,15.4" style="fill: none; stroke: #000; stroke-linecap: round; stroke-linejoin: round;"/>
        <line x1="446.34" y1="328.65" x2="410.97" y2="364.01" style="fill: none; stroke: #000; stroke-linecap: round; stroke-linejoin: round;"/>
        <path d="M461.74,307.49c-4,7.81-9.2,14.95-15.4,21.16" style="fill: none; stroke: #000; stroke-linecap: round; stroke-linejoin: round;"/>
        <line x1="461.74" y1="93.52" x2="461.74" y2="307.49" style="fill: none; stroke: #000; stroke-linecap: round; stroke-linejoin: round;"/>
        <path d="M446.34,72.36c6.2,6.21,11.4,13.35,15.4,21.16" style="fill: none; stroke: #000; stroke-linecap: round; stroke-linejoin: round;"/>
        <line x1="410.97" y1="37" x2="446.34" y2="72.36" style="fill: none; stroke: #000; stroke-linecap: round; stroke-linejoin: round;"/>
        <path d="M389.81,21.6c7.82,3.99,14.96,9.19,21.16,15.4" style="fill: none; stroke: #000; stroke-linecap: round; stroke-linejoin: round;"/>
        <line x1="327.07" y1="21.6" x2="389.81" y2="21.6" style="fill: none; stroke: #000; stroke-linecap: round; stroke-linejoin: round;"/>
        <path d="M325.16,26.87c.16-1.91.83-3.72,1.91-5.27" style="fill: none; stroke: #000; stroke-linecap: round; stroke-linejoin: round;"/>
        <line x1="322.85" y1="53.27" x2="325.16" y2="26.87" style="fill: none; stroke: #000; stroke-linecap: round; stroke-linejoin: round;"/>
        <path d="M242.81,53.27c1.93,22.1,21.42,38.45,43.52,36.52,19.42-1.7,34.82-17.1,36.52-36.52" style="fill: none; stroke: #000; stroke-linecap: round; stroke-linejoin: round;"/>
        <line x1="175.84" y1="21.6" x2="238.58" y2="21.6" style="fill: none; stroke: #000; stroke-linecap: round; stroke-linejoin: round;"/>
        <path d="M154.68,37c6.21-6.21,13.35-11.41,21.16-15.4" style="fill: none; stroke: #000; stroke-linecap: round; stroke-linejoin: round;"/>
        <line x1="119.32" y1="72.36" x2="154.68" y2="37" style="fill: none; stroke: #000; stroke-linecap: round; stroke-linejoin: round;"/>
        <path d="M103.92,93.52c4-7.81,9.2-14.95,15.4-21.16" style="fill: none; stroke: #000; stroke-linecap: round; stroke-linejoin: round;"/>
        <path d="M250.51,52.6c1.56,17.84,17.3,31.05,35.15,29.49,15.68-1.38,28.11-13.81,29.49-29.49" style="fill: none; stroke: #000; stroke-linecap: round; stroke-linejoin: round;"/>
        <path d="M317.55,52.81c-1.47,16.85-14.83,30.21-31.68,31.68-19.18,1.68-36.09-12.51-37.76-31.68" style="fill: none; stroke: #000; stroke-linecap: round; stroke-linejoin: round;"/>
        <path d="M472.25,93.52c.03-1.61.06-3.23.1-4.84l.12-4.83" style="fill: none; stroke: #000; stroke-linecap: round; stroke-linejoin: round;"/>
        <line x1="472.25" y1="307.49" x2="472.25" y2="93.52" style="fill: none; stroke: #000; stroke-linecap: round; stroke-linejoin: round;"/>
        <path d="M472.47,317.16l-.12-4.83c-.04-1.61-.07-3.23-.1-4.84" style="fill: none; stroke: #000; stroke-linecap: round; stroke-linejoin: round;"/>
        <path d="M482.73,340.19c-.27-.36-.54-.72-.81-1.09-.59-.8-1.18-1.63-1.76-2.54-.5-.78-1-1.63-1.49-2.57-.36-.68-.72-1.42-1.08-2.22s-.71-1.67-1.07-2.59c-.52-1.35-1.05-2.81-1.57-4.34-.54-1.6-1.09-3.27-1.63-4.98-.28-.89-.57-1.8-.85-2.7" style="fill: none; stroke: #000; stroke-linecap: round; stroke-linejoin: round;"/>
        <path d="M472.47,83.85c.28-.9.57-1.81.85-2.71.54-1.7,1.09-3.37,1.63-4.97.52-1.53,1.05-2.99,1.57-4.34.36-.92.71-1.79,1.07-2.59s.72-1.54,1.08-2.22c.49-.94.99-1.79,1.49-2.57.58-.91,1.17-1.74,1.76-2.54.27-.37.54-.73.81-1.09" style="fill: none; stroke: #000; stroke-linecap: round; stroke-linejoin: round;"/>
        <line x1="456.24" y1="41.2" x2="442.14" y2="27.09" style="fill: none; stroke: #000; stroke-linecap: round; stroke-linejoin: round;"/>
        <line x1="436.68" y1="32.55" x2="450.78" y2="46.65" style="fill: none; stroke: #000; stroke-linecap: round; stroke-linejoin: round;"/>
        <path d="M459.68,59.02c-2.22-4.61-5.23-8.8-8.9-12.37" style="fill: none; stroke: #000; stroke-linecap: round; stroke-linejoin: round;"/>
        <path d="M466.91,56.33c-2.7-5.6-6.3-10.72-10.67-15.13" style="fill: none; stroke: #000; stroke-linecap: round; stroke-linejoin: round;"/>
        <path d="M436.68,32.55c-3.57-3.67-7.75-6.68-12.36-8.9" style="fill: none; stroke: #000; stroke-linecap: round; stroke-linejoin: round;"/>
        <path d="M141.34,23.65c-4.61,2.22-8.79,5.23-12.36,8.9" style="fill: none; stroke: #000; stroke-linecap: round; stroke-linejoin: round;"/>
        <path d="M138.65,16.43c-5.6,2.69-10.71,6.3-15.13,10.66" style="fill: none; stroke: #000; stroke-linecap: round; stroke-linejoin: round;"/>
        <line x1="123.52" y1="27.09" x2="109.42" y2="41.2" style="fill: none; stroke: #000; stroke-linecap: round; stroke-linejoin: round;"/>
        <line x1="114.87" y1="46.65" x2="128.98" y2="32.55" style="fill: none; stroke: #000; stroke-linecap: round; stroke-linejoin: round;"/>
        <path d="M114.87,46.65c-3.66,3.57-6.67,7.76-8.89,12.37" style="fill: none; stroke: #000; stroke-linecap: round; stroke-linejoin: round;"/>
        <path d="M464,308.65c.02,1.66.05,3.31.07,4.96l.09,4.95" style="fill: none; stroke: #000; stroke-linecap: round; stroke-linejoin: round;"/>
        <path d="M464.16,318.56c.07,4-.16,8.02-.85,11.97-.7,3.95-1.89,7.83-3.63,11.46" style="fill: none; stroke: #000; stroke-linecap: round; stroke-linejoin: round;"/>
        <line x1="464" y1="308.65" x2="461.74" y2="307.49" style="fill: none; stroke: #000; stroke-linecap: round; stroke-linejoin: round;"/>
        <path d="M424.32,377.36c4.61-2.22,8.79-5.23,12.36-8.9" style="fill: none; stroke: #000; stroke-linecap: round; stroke-linejoin: round;"/>
        <path d="M427.01,384.58c5.6-2.69,10.71-6.3,15.13-10.66" style="fill: none; stroke: #000; stroke-linecap: round; stroke-linejoin: round;"/>
        <line x1="442.14" y1="373.92" x2="456.24" y2="359.81" style="fill: none; stroke: #000; stroke-linecap: round; stroke-linejoin: round;"/>
        <line x1="450.78" y1="354.36" x2="436.68" y2="368.46" style="fill: none; stroke: #000; stroke-linecap: round; stroke-linejoin: round;"/>
        <path d="M450.78,354.36c3.67-3.57,6.68-7.76,8.9-12.37" style="fill: none; stroke: #000; stroke-linecap: round; stroke-linejoin: round;"/>
        <path d="M123.52,373.92c4.42,4.36,9.53,7.97,15.13,10.66" style="fill: none; stroke: #000; stroke-linecap: round; stroke-linejoin: round;"/>
        <path d="M128.98,368.46c3.57,3.67,7.75,6.68,12.36,8.9" style="fill: none; stroke: #000; stroke-linecap: round; stroke-linejoin: round;"/>
        <path d="M399.48,390.14c9.48.28,18.9-1.62,27.53-5.56" style="fill: none; stroke: #000; stroke-linecap: round; stroke-linejoin: round;"/>
        <path d="M399.48,390.14c.91.29,1.81.57,2.71.86,1.7.54,3.38,1.08,4.97,1.63,1.53.52,3,1.04,4.35,1.56.92.36,1.78.72,2.58,1.08.8.35,1.54.71,2.22,1.07.95.5,1.79,1,2.57,1.5.92.58,1.75,1.17,2.54,1.75.37.28.73.55,1.09.82" style="fill: none; stroke: #000; stroke-linecap: round; stroke-linejoin: round;"/>
        <path d="M466.91,344.68c3.94-8.62,5.84-18.04,5.56-27.52" style="fill: none; stroke: #000; stroke-linecap: round; stroke-linejoin: round;"/>
        <path d="M456.24,359.81c4.37-4.41,7.97-9.53,10.67-15.13" style="fill: none; stroke: #000; stroke-linecap: round; stroke-linejoin: round;"/>
        <path d="M472.47,83.85c.28-9.48-1.62-18.9-5.56-27.52" style="fill: none; stroke: #000; stroke-linecap: round; stroke-linejoin: round;"/>
        <path d="M422.51.6c-.36.27-.72.54-1.09.82-.79.58-1.62,1.17-2.54,1.75-.78.5-1.62,1-2.57,1.5-.68.36-1.42.71-2.22,1.07s-1.66.72-2.58,1.08c-1.35.52-2.82,1.04-4.35,1.56-1.59.55-3.27,1.09-4.97,1.63-.9.29-1.8.57-2.71.86" style="fill: none; stroke: #000; stroke-linecap: round; stroke-linejoin: round;"/>
        <path d="M427.01,16.43c-8.63-3.94-18.05-5.84-27.53-5.56" style="fill: none; stroke: #000; stroke-linecap: round; stroke-linejoin: round;"/>
        <path d="M442.14,27.09c-4.42-4.36-9.53-7.97-15.13-10.66" style="fill: none; stroke: #000; stroke-linecap: round; stroke-linejoin: round;"/>
        <path d="M166.18,10.87c-.91-.29-1.81-.57-2.71-.86-1.7-.54-3.38-1.08-4.97-1.63-1.54-.52-3-1.04-4.35-1.56-.92-.36-1.78-.72-2.59-1.08-.8-.36-1.53-.71-2.22-1.07-.94-.5-1.78-1-2.56-1.5-.92-.58-1.75-1.17-2.54-1.75-.37-.28-.73-.55-1.09-.82" style="fill: none; stroke: #000; stroke-linecap: round; stroke-linejoin: round;"/>
        <path d="M175.84,11.09c-1.61-.04-3.22-.07-4.83-.11-1.62-.03-3.23-.07-4.83-.11" style="fill: none; stroke: #000; stroke-linecap: round; stroke-linejoin: round;"/>
        <line x1="230.3" y1="11.09" x2="175.84" y2="11.09" style="fill: none; stroke: #000; stroke-linecap: round; stroke-linejoin: round;"/>
        <line x1="332.98" y1="5.28" x2="232.68" y2="5.28" style="fill: none; stroke: #000; stroke-linecap: round; stroke-linejoin: round;"/>
        <line x1="335.36" y1="11.09" x2="332.98" y2="5.28" style="fill: none; stroke: #000; stroke-linecap: round; stroke-linejoin: round;"/>
        <line x1="389.81" y1="11.09" x2="335.36" y2="11.09" style="fill: none; stroke: #000; stroke-linecap: round; stroke-linejoin: round;"/>
        <path d="M399.48,10.87c-1.61.04-3.22.08-4.83.11-1.61.04-3.22.07-4.84.11" style="fill: none; stroke: #000; stroke-linecap: round; stroke-linejoin: round;"/>
        <path d="M390.97,19.33c1.66-.02,3.31-.04,4.97-.07,1.65-.03,3.3-.05,4.95-.08" style="fill: none; stroke: #000; stroke-linecap: round; stroke-linejoin: round;"/>
        <path d="M400.89,19.18c4-.07,8.01.15,11.96.85,3.95.69,7.83,1.88,11.47,3.62" style="fill: none; stroke: #000; stroke-linecap: round; stroke-linejoin: round;"/>
        <path d="M101.66,92.36c-.02-1.66-.05-3.31-.07-4.96-.03-1.65-.06-3.31-.09-4.95" style="fill: none; stroke: #000; stroke-linecap: round; stroke-linejoin: round;"/>
        <path d="M101.5,82.45c-.07-4,.15-8.02.85-11.97s1.88-7.83,3.63-11.46" style="fill: none; stroke: #000; stroke-linecap: round; stroke-linejoin: round;"/>
        <path d="M464.16,82.45c-.03,1.64-.06,3.3-.09,4.95-.02,1.65-.05,3.3-.07,4.96" style="fill: none; stroke: #000; stroke-linecap: round; stroke-linejoin: round;"/>
        <path d="M459.68,59.02c1.74,3.63,2.93,7.51,3.63,11.46.69,3.95.92,7.97.85,11.97" style="fill: none; stroke: #000; stroke-linecap: round; stroke-linejoin: round;"/>
        <path d="M98.75,344.68c2.69,5.6,6.3,10.72,10.67,15.13" style="fill: none; stroke: #000; stroke-linecap: round; stroke-linejoin: round;"/>
        <path d="M93.19,317.16c-.28,9.48,1.62,18.9,5.56,27.52" style="fill: none; stroke: #000; stroke-linecap: round; stroke-linejoin: round;"/>
        <line x1="109.42" y1="359.81" x2="123.52" y2="373.92" style="fill: none; stroke: #000; stroke-linecap: round; stroke-linejoin: round;"/>
        <path d="M143.15,400.41c.36-.27.72-.54,1.09-.82.79-.58,1.62-1.17,2.54-1.75.78-.5,1.62-1,2.56-1.5.69-.36,1.42-.72,2.22-1.07.81-.36,1.67-.72,2.59-1.08,1.35-.52,2.81-1.04,4.35-1.56,1.59-.55,3.27-1.09,4.97-1.63.9-.29,1.8-.57,2.71-.86" style="fill: none; stroke: #000; stroke-linecap: round; stroke-linejoin: round;"/>
        <path d="M138.65,384.58c8.63,3.94,18.05,5.84,27.53,5.56" style="fill: none; stroke: #000; stroke-linecap: round; stroke-linejoin: round;"/>
        <line x1="390.97" y1="19.33" x2="389.81" y2="21.6" style="fill: none; stroke: #000; stroke-linecap: round; stroke-linejoin: round;"/>
        <line x1="461.74" y1="93.52" x2="464" y2="92.36" style="fill: none; stroke: #000; stroke-linecap: round; stroke-linejoin: round;"/>
        <path d="M141.34,23.65c3.64-1.74,7.52-2.93,11.47-3.62,3.95-.7,7.96-.92,11.96-.85" style="fill: none; stroke: #000; stroke-linecap: round; stroke-linejoin: round;"/>
        <path d="M164.77,19.18c1.65.03,3.3.05,4.95.08s3.31.05,4.97.07" style="fill: none; stroke: #000; stroke-linecap: round; stroke-linejoin: round;"/>
        <line x1="101.66" y1="92.36" x2="103.92" y2="93.52" style="fill: none; stroke: #000; stroke-linecap: round; stroke-linejoin: round;"/>
        <line x1="175.84" y1="21.6" x2="174.69" y2="19.33" style="fill: none; stroke: #000; stroke-linecap: round; stroke-linejoin: round;"/>
        <path d="M400.89,381.83c-1.65-.03-3.3-.06-4.95-.08-1.66-.03-3.31-.05-4.97-.07" style="fill: none; stroke: #000; stroke-linecap: round; stroke-linejoin: round;"/>
        <path d="M424.32,377.36c-3.64,1.74-7.52,2.93-11.47,3.62-3.95.7-7.96.92-11.96.85" style="fill: none; stroke: #000; stroke-linecap: round; stroke-linejoin: round;"/>
        <line x1="389.81" y1="379.41" x2="390.97" y2="381.68" style="fill: none; stroke: #000; stroke-linecap: round; stroke-linejoin: round;"/>
        <line x1="174.69" y1="381.68" x2="175.84" y2="379.41" style="fill: none; stroke: #000; stroke-linecap: round; stroke-linejoin: round;"/>
        <path d="M164.77,381.83c-4,.07-8.01-.15-11.96-.85-3.95-.69-7.83-1.88-11.47-3.62" style="fill: none; stroke: #000; stroke-linecap: round; stroke-linejoin: round;"/>
        <path d="M174.69,381.68c-1.66.02-3.32.04-4.97.07-1.65.02-3.3.05-4.95.08" style="fill: none; stroke: #000; stroke-linecap: round; stroke-linejoin: round;"/>
        <path d="M105.98,341.99c2.22,4.61,5.23,8.8,8.89,12.37" style="fill: none; stroke: #000; stroke-linecap: round; stroke-linejoin: round;"/>
        <line x1="128.98" y1="368.46" x2="114.87" y2="354.36" style="fill: none; stroke: #000; stroke-linecap: round; stroke-linejoin: round;"/>
        <path d="M101.5,318.56l.09-4.95c.02-1.65.05-3.3.07-4.96" style="fill: none; stroke: #000; stroke-linecap: round; stroke-linejoin: round;"/>
        <path d="M105.98,341.99c-1.75-3.63-2.93-7.51-3.63-11.46s-.92-7.97-.85-11.97" style="fill: none; stroke: #000; stroke-linecap: round; stroke-linejoin: round;"/>
        <line x1="103.92" y1="307.49" x2="101.66" y2="308.65" style="fill: none; stroke: #000; stroke-linecap: round; stroke-linejoin: round;"/>
        <path d="M166.18,10.87c-9.48-.28-18.9,1.62-27.53,5.56" style="fill: none; stroke: #000; stroke-linecap: round; stroke-linejoin: round;"/>
        <path d="M98.75,56.33c-3.94,8.62-5.84,18.04-5.56,27.52" style="fill: none; stroke: #000; stroke-linecap: round; stroke-linejoin: round;"/>
        <path d="M109.42,41.2c-4.37,4.41-7.98,9.53-10.67,15.13" style="fill: none; stroke: #000; stroke-linecap: round; stroke-linejoin: round;"/>
        <path d="M389.81,389.92c1.62.04,3.23.07,4.84.11,1.61.03,3.22.07,4.83.11" style="fill: none; stroke: #000; stroke-linecap: round; stroke-linejoin: round;"/>
        <path d="M166.18,390.14c1.6-.04,3.21-.08,4.83-.11,1.61-.04,3.22-.07,4.83-.11" style="fill: none; stroke: #000; stroke-linecap: round; stroke-linejoin: round;"/>
        <path d="M327.07,21.6c.26-.73.53-1.43.82-2.1.46-1.07.96-2.04,1.47-2.92.68-1.15,1.4-2.13,2.12-2.92.63-.68,1.27-1.24,1.91-1.67.66-.43,1.32-.73,1.97-.9" style="fill: none; stroke: #000; stroke-linecap: round; stroke-linejoin: round;"/>
        <path d="M238.58,379.41c-.25.73-.53,1.43-.81,2.1-.46,1.07-.96,2.04-1.47,2.92-.68,1.15-1.4,2.13-2.13,2.92-.62.68-1.26,1.24-1.9,1.67-.66.43-1.32.73-1.97.9" style="fill: none; stroke: #000; stroke-linecap: round; stroke-linejoin: round;"/>
        <line x1="175.84" y1="389.92" x2="230.3" y2="389.92" style="fill: none; stroke: #000; stroke-linecap: round; stroke-linejoin: round;"/>
        <line x1="335.36" y1="389.92" x2="389.81" y2="389.92" style="fill: none; stroke: #000; stroke-linecap: round; stroke-linejoin: round;"/>
        <line x1="332.98" y1="395.73" x2="335.36" y2="389.92" style="fill: none; stroke: #000; stroke-linecap: round; stroke-linejoin: round;"/>
        <line x1="232.68" y1="395.73" x2="332.98" y2="395.73" style="fill: none; stroke: #000; stroke-linecap: round; stroke-linejoin: round;"/>
        <line x1="230.3" y1="389.92" x2="232.68" y2="395.73" style="fill: none; stroke: #000; stroke-linecap: round; stroke-linejoin: round;"/>
        <path d="M230.3,11.09c.56.14,1.13.39,1.7.73,1.05.64,2.08,1.6,3.07,2.92.8,1.05,1.57,2.33,2.28,3.83.44.93.86,1.96,1.23,3.03" style="fill: none; stroke: #000; stroke-linecap: round; stroke-linejoin: round;"/>
        <path d="M335.36,11.09c-1,.09-2,.27-3,.56-.98.29-1.96.67-2.91,1.14-1.1.56-2.2,1.26-3.23,2.09-.78.63-1.52,1.34-2.22,2.13-.44.5-.85,1.02-1.23,1.56" style="fill: none; stroke: #000; stroke-linecap: round; stroke-linejoin: round;"/>
        <path d="M322.77,18.57c-1.64,2.3-2.65,5.01-2.91,7.83" style="fill: none; stroke: #000; stroke-linecap: round; stroke-linejoin: round;"/>
        <line x1="319.86" y1="26.4" x2="317.55" y2="52.81" style="fill: none; stroke: #000; stroke-linecap: round; stroke-linejoin: round;"/>
        <path d="M332.98,5.28c-1.91.12-3.83.39-5.71.79-1.42.3-2.82.68-4.18,1.15-.94.32-1.86.68-2.73,1.08-.89.4-1.74.83-2.54,1.31-.49.3-.97.61-1.42.92" style="fill: none; stroke: #000; stroke-linecap: round; stroke-linejoin: round;"/>
        <path d="M249.26,10.53c-.66-.46-1.38-.91-2.15-1.33-1.21-.67-2.53-1.25-3.9-1.76-1.79-.65-3.66-1.16-5.55-1.52-1.65-.32-3.32-.53-4.98-.64" style="fill: none; stroke: #000; stroke-linecap: round; stroke-linejoin: round;"/>
        <path d="M335.36,389.92c-.56-.14-1.13-.39-1.7-.73-1.05-.64-2.08-1.6-3.07-2.92-.8-1.06-1.57-2.33-2.28-3.83-.44-.93-.86-1.96-1.24-3.03" style="fill: none; stroke: #000; stroke-linecap: round; stroke-linejoin: round;"/>
        <path d="M230.3,389.92c.99-.09,2-.27,3-.56.98-.29,1.96-.67,2.9-1.14,1.11-.56,2.21-1.26,3.24-2.09.78-.63,1.52-1.34,2.22-2.13.43-.5.85-1.02,1.23-1.56" style="fill: none; stroke: #000; stroke-linecap: round; stroke-linejoin: round;"/>
        <path d="M242.89,382.44c1.64-2.3,2.64-5.01,2.91-7.83" style="fill: none; stroke: #000; stroke-linecap: round; stroke-linejoin: round;"/>
        <line x1="245.8" y1="374.61" x2="248.11" y2="348.2" style="fill: none; stroke: #000; stroke-linecap: round; stroke-linejoin: round;"/>
        <line x1="317.55" y1="348.2" x2="319.86" y2="374.61" style="fill: none; stroke: #000; stroke-linecap: round; stroke-linejoin: round;"/>
        <path d="M319.86,374.61c.26,2.82,1.27,5.53,2.91,7.83" style="fill: none; stroke: #000; stroke-linecap: round; stroke-linejoin: round;"/>
        <path d="M322.77,382.44c.56.8,1.2,1.56,1.87,2.24,1.07,1.1,2.23,2.02,3.45,2.77,1.51.94,3.08,1.6,4.67,2.02.87.22,1.74.38,2.6.45" style="fill: none; stroke: #000; stroke-linecap: round; stroke-linejoin: round;"/>
        <path d="M232.68,395.73c1.9-.12,3.83-.39,5.7-.79,1.42-.3,2.82-.68,4.19-1.15.94-.32,1.85-.68,2.73-1.08.89-.4,1.74-.83,2.53-1.31.5-.3.98-.61,1.43-.92" style="fill: none; stroke: #000; stroke-linecap: round; stroke-linejoin: round;"/>
        <path d="M316.4,390.48c.66.46,1.38.91,2.14,1.33,1.22.67,2.53,1.25,3.91,1.76,1.79.65,3.65,1.16,5.55,1.52,1.64.32,3.32.53,4.98.64" style="fill: none; stroke: #000; stroke-linecap: round; stroke-linejoin: round;"/>
        <line x1="247.79" y1="21.53" x2="250.51" y2="52.6" style="fill: none; stroke: #000; stroke-linecap: round; stroke-linejoin: round;"/>
        <line x1="315.15" y1="52.6" x2="317.86" y2="21.53" style="fill: none; stroke: #000; stroke-linecap: round; stroke-linejoin: round;"/>
        <path d="M320.71,13.56c.34-.48.69-.95,1.06-1.4.6-.72,1.23-1.4,1.88-2.02.65-.61,1.33-1.17,2.02-1.68,1.01-.73,2.05-1.34,3.1-1.84,1.38-.65,2.8-1.1,4.21-1.34" style="fill: none; stroke: #000; stroke-linecap: round; stroke-linejoin: round;"/>
        <path d="M317.86,21.53c.24-2.88,1.22-5.63,2.85-7.97" style="fill: none; stroke: #000; stroke-linecap: round; stroke-linejoin: round;"/>
        <path d="M320.71,387.45c-1.63-2.34-2.61-5.09-2.85-7.97" style="fill: none; stroke: #000; stroke-linecap: round; stroke-linejoin: round;"/>
        <path d="M332.98,395.73c-1.23-.21-2.46-.58-3.68-1.1-1.4-.6-2.77-1.41-4.1-2.44-1.02-.78-1.99-1.69-2.89-2.71-.57-.64-1.11-1.33-1.6-2.03" style="fill: none; stroke: #000; stroke-linecap: round; stroke-linejoin: round;"/>
        <line x1="317.86" y1="379.48" x2="315.15" y2="348.41" style="fill: none; stroke: #000; stroke-linecap: round; stroke-linejoin: round;"/>
        <line x1="250.51" y1="348.41" x2="247.79" y2="379.48" style="fill: none; stroke: #000; stroke-linecap: round; stroke-linejoin: round;"/>
        <path d="M244.95,387.45c-.34.48-.69.95-1.06,1.4-.6.72-1.23,1.4-1.88,2.02-.65.61-1.33,1.17-2.03,1.68-1.01.73-2.04,1.34-3.09,1.84-1.38.65-2.8,1.1-4.21,1.34" style="fill: none; stroke: #000; stroke-linecap: round; stroke-linejoin: round;"/>
        <path d="M247.79,379.48c-.23,2.88-1.22,5.63-2.84,7.97" style="fill: none; stroke: #000; stroke-linecap: round; stroke-linejoin: round;"/>
        <path d="M349.41,297.88c0-17.01,13.79-30.8,30.8-30.8s30.8,13.79,30.8,30.8-13.79,30.81-30.8,30.81-30.8-13.79-30.8-30.81Z" style="fill: none; stroke: #000; stroke-linecap: round; stroke-linejoin: round;"/>
        <path d="M413.29,297.88c0-18.27-14.81-33.08-33.08-33.08s-33.09,14.81-33.09,33.08,14.82,33.09,33.09,33.09,33.08-14.81,33.08-33.09Z" style="fill: none; stroke: #000; stroke-linecap: round; stroke-linejoin: round;"/>
      </g>
    </g>
  </g>
  <line x1="42.46" y1="201.98" x2="207.9" y2="201.6" style="fill: none; stroke: #e84e0f; stroke-linecap: round; stroke-linejoin: round; stroke-width: 3px;"/>
  <circle cx="208.36" cy="201.8" r="7.69" style="fill: #e84e0f; stroke-width: 0px;"/>
  <line x1="535.42" y1="298.72" x2="381.49" y2="298.93" style="fill: none; stroke: #e84e0f; stroke-linecap: round; stroke-linejoin: round; stroke-width: 3px;"/>
  <circle cx="381.95" cy="299.13" r="7.69" style="fill: #e84e0f; stroke-width: 0px;"/>
  <line x1="537.63" y1="211.88" x2="334.56" y2="213.12" style="fill: none; stroke: #e84e0f; stroke-linecap: round; stroke-linejoin: round; stroke-width: 3px;"/>
  <circle cx="335.02" cy="213.32" r="7.69" style="fill: #e84e0f; stroke-width: 0px;"/>
  <line x1="530.12" y1="115.13" x2="380.66" y2="115.03" style="fill: none; stroke: #e84e0f; stroke-linecap: round; stroke-linejoin: round; stroke-width: 3px;"/>
  <circle cx="381.12" cy="115.23" r="7.69" style="fill: #e84e0f; stroke-width: 0px;"/>
  <path d="M16.4,219.98h-7.8v-35.1H1.1v-4.5l9.3-2.4h6v42Z" style="fill: #e84e0f; stroke: #e84e0f; stroke-miterlimit: 10;"/>
  <path d="M571.65,104.79c0-1.04-.4-1.95-1.2-2.73-.8-.78-1.8-1.17-3-1.17h-15l-2.1-2.1v-4.5h19.2c3,0,5.4.82,7.2,2.46,1.8,1.64,2.7,3.82,2.7,6.54v3.6c0,1.12-.15,2.13-.45,3.03-.3.9-.73,1.77-1.29,2.61-.56.84-1.25,1.67-2.07,2.49s-1.75,1.71-2.79,2.67l-12.6,11.4v.6h19.5v6.6h-30.3v-6.6l19.2-17.4c.64-.56,1.3-1.3,1.98-2.22s1.02-1.98,1.02-3.18v-2.1Z" style="fill: #e84e0f; stroke: #e84e0f; stroke-miterlimit: 10;"/>
  <path d="M552.59,225.48h17.7c1.2,0,2.2-.39,3-1.17.8-.78,1.2-1.69,1.2-2.73v-3.6c0-1.04-.4-1.95-1.2-2.73-.8-.78-1.8-1.17-3-1.17h-11.1v-6.6l12-10.2v-.6h-16.26l-2.04-2.04v-4.56h28.2v6.6l-12,10.2v.6h3.3c1.52,0,2.88.23,4.08.69s2.24,1.1,3.12,1.92c.88.82,1.55,1.8,2.01,2.94.46,1.14.69,2.39.69,3.75v6c0,1.36-.23,2.61-.69,3.75s-1.13,2.12-2.01,2.94c-.88.82-1.92,1.46-3.12,1.92s-2.56.69-4.08.69h-19.8v-6.6Z" style="fill: #e84e0f; stroke: #e84e0f; stroke-miterlimit: 10;"/>
  <path d="M577.95,302.56h4.8v6.6h-4.8v9h-7.8v-9h-20.7v-6.6l18.9-26.4h9.6v26.4ZM558.15,301.96v.6h12v-16.5h-.6l-11.4,15.9Z" style="fill: #e84e0f; stroke: #e84e0f; stroke-miterlimit: 10;"/>
</svg>