<?xml version="1.0" encoding="UTF-8"?>
<svg xmlns="http://www.w3.org/2000/svg" viewBox="0 0 769.179 209.417">
  <defs>
    <style>
      .cls-1, .cls-2, .cls-3 {
        fill: none;
      }

      .cls-4 {
        fill: #e6e7e8;
      }

      .cls-2 {
        stroke-width: 6.5px;
      }

      .cls-2, .cls-3 {
        stroke: #e6e7e8;
        stroke-miterlimit: 10;
      }

      .cls-3 {
        stroke-linecap: round;
      }
    </style>
  </defs>
  <g id="Layer_1" data-name="Layer 1">
    <g>
      <path class="cls-4" d="M456.017,82.466c-.706-.218-.403-2.057-.451-2.701l44.388-.3-.002,3.001h-43.935Z"/>
      <path class="cls-4" d="M487.999,74.922c.347-1.838,1.586-2.946,1.98-4.978,1.502-7.746-2.632-10.147-4.657-16.483-1.592-4.985-.256-9.903,2.481-14.17,3.569,1.8,1.195,3.622.437,6.122-3.111,10.25,11.125,18.89,2.845,29.836-1.415,1.871-1.606.344-3.086-.327Z"/>
      <path class="cls-4" d="M465.913,39.286l2.211,1.984c-.84,1.813-2.004,3.379-2.284,5.436-.917,6.74,3.036,10.189,4.859,15.979,1.565,4.973.715,9.783-2.685,13.751l-2.219-1.961c1.992-2.819,2.67-5.792,2.362-9.249-.404-4.544-4.323-8.748-5.317-13.277-.9-4.098.461-9.412,3.073-12.664Z"/>
      <path class="cls-4" d="M476.706,39.291l2.256,2.234c-1.511,2.194-2.455,4.793-2.427,7.507.086,8.337,7.968,12.155,5.212,22.279-.654,2.402-2.679,7.175-4.884,3.218,1.782-3.547,2.927-6.386,2.011-10.423-1.027-4.524-4.881-8.66-5.31-13.284-.409-4.403.805-7.885,3.141-11.531Z"/>
    </g>
    <g>
      <path class="cls-4" d="M280.216,24.305c3.958-.674,7.871.964,8.87,5.082.516,2.126-.162,6.693-.398,9.089-.814,8.282-2.213,16.538-3.071,24.82-.957,3.743-6.294,3.927-7.046-.001-.883-9.605-3.202-19.713-3.688-29.302-.202-3.981.516-8.867,5.333-9.688Z"/>
      <path class="cls-4" d="M280.815,71.691c7.335-1.259,8.583,9.133,2.009,10.104-6.779,1.002-7.923-9.089-2.009-10.104Z"/>
    </g>
    <g>
      <path class="cls-4" d="M77.07,70.629c.209,1.724.85,5.869-.035,7.315-.379.618-2.572,1.853-3.118,1.086l-1.651-7.199c-.404-.089-.337.312-.439.6-.731,2.079-1.504,6.505-4.506,6.323-.578-.035-1.257-.27-1.207-.944,1.7-8.637,3.268-17.307,6.151-25.631,1.243-3.589,3.437-7.7,4.312-11.283,1.221-4.999,1.304-10.736,2.492-15.802l7.446-12.641,6.906,11.367c-.871,2.769-2.334,5.659-2.519,8.609-.287,4.596,2.135,6.178,4.401,9.617.667,1.013,1.032,2.394,1.727,3.372,1.164,1.638,6.636,5.387,6.382,7-.142.898-1.215,1.862-2.178,1.721-1.004-.147-3.447-2.321-4.582-2.945-10.915-5.996-23.057,5.073-18.143,16.343,1.33,3.05,3.677,3.965,5.771,5.925,2.72,2.544,2.687,11.073-1.806,5.705l-5.404-8.538Z"/>
      <path class="cls-4" d="M89.306,50.623c17.152-.901,15.951,25.126-.66,23.272-13.604-1.518-13.18-22.545.66-23.272ZM88.391,52.412c-11.83,1.615-10.363,20.967,2.885,19.679,12.754-1.24,11.244-21.608-2.885-19.679Z"/>
      <path class="cls-4" d="M94.054,58.441c4.291,4.405-1.358,11.764-6.713,8.362-6.84-4.345,1.27-13.95,6.713-8.362ZM89.591,58.086c-4.727.64-4.557,9.472,1.959,7.98,4.198-.961,2.842-8.631-1.959-7.98Z"/>
      <path class="cls-4" d="M84.562,64.927l.601,2.701-2.697-.902c1.114-1.061-.085-1.856-.274-3.172-.345-2.397.352-5.673,2.22-7.323.699-.618,1.995-.834,1.353.152-.4.614-1.287,1.119-1.752,1.848-1.201,1.882-1.372,4.892-.356,6.882l.904-.186Z"/>
    </g>
    <g>
      <rect class="cls-1" y="102.624" width="173.04" height="103.804"/>
      <path class="cls-4" d="M27.343,128.569v-12.885h5.476c1.377,0,2.377.116,3.001.347s1.124.643,1.499,1.235.562,1.269.562,2.03c0,.967-.284,1.765-.853,2.395s-1.418,1.027-2.549,1.191c.562.328,1.027.688,1.393,1.081s.86,1.09,1.481,2.092l1.573,2.514h-3.111l-1.881-2.804c-.668-1.002-1.125-1.633-1.371-1.894s-.507-.439-.782-.536-.712-.145-1.31-.145h-.527v5.379h-2.602ZM29.944,121.134h1.925c1.248,0,2.027-.053,2.338-.158s.554-.287.729-.545.264-.58.264-.967c0-.434-.116-.784-.347-1.05s-.558-.435-.98-.505c-.211-.029-.844-.044-1.898-.044h-2.03v3.27Z"/>
      <path class="cls-4" d="M39.744,123.771c0-.82.202-1.614.606-2.382s.977-1.354,1.718-1.758,1.569-.606,2.483-.606c1.412,0,2.569.458,3.472,1.375s1.354,2.076,1.354,3.476c0,1.412-.456,2.583-1.367,3.511s-2.058,1.393-3.441,1.393c-.855,0-1.671-.193-2.448-.58s-1.367-.954-1.771-1.701-.606-1.657-.606-2.729ZM42.275,123.902c0,.926.22,1.635.659,2.127s.981.738,1.626.738,1.185-.246,1.622-.738.655-1.207.655-2.145c0-.914-.218-1.617-.655-2.109s-.977-.738-1.622-.738-1.187.246-1.626.738-.659,1.201-.659,2.127Z"/>
      <path class="cls-4" d="M55.591,119.235v1.969h-1.688v3.762c0,.762.016,1.206.048,1.332s.105.23.22.312.253.123.417.123c.229,0,.56-.079.993-.237l.211,1.916c-.574.246-1.225.369-1.951.369-.445,0-.847-.075-1.204-.224s-.62-.343-.787-.58-.283-.558-.347-.962c-.053-.287-.079-.867-.079-1.74v-4.069h-1.134v-1.969h1.134v-1.854l2.479-1.441v3.296h1.688Z"/>
      <path class="cls-4" d="M59.15,122.083l-2.241-.404c.252-.902.686-1.57,1.301-2.004s1.529-.65,2.742-.65c1.102,0,1.922.13,2.461.391s.918.592,1.138.993.33,1.138.33,2.21l-.026,2.883c0,.82.04,1.425.119,1.815s.227.807.444,1.252h-2.443c-.064-.164-.144-.407-.237-.729-.041-.146-.07-.243-.088-.29-.422.41-.873.718-1.354.923s-.993.308-1.538.308c-.961,0-1.718-.261-2.272-.782s-.831-1.181-.831-1.978c0-.527.126-.998.378-1.411s.605-.729,1.059-.949,1.109-.412,1.964-.576c1.154-.217,1.954-.419,2.399-.606v-.246c0-.475-.117-.813-.352-1.015s-.677-.303-1.327-.303c-.439,0-.782.086-1.028.259s-.445.476-.598.91ZM62.455,124.087c-.316.105-.817.231-1.503.378s-1.134.29-1.345.431c-.322.229-.483.519-.483.87,0,.346.129.645.387.896s.586.378.984.378c.445,0,.87-.146,1.274-.439.299-.223.495-.495.589-.817.064-.211.097-.612.097-1.204v-.492Z"/>
      <path class="cls-4" d="M71.596,119.235v1.969h-1.688v3.762c0,.762.016,1.206.048,1.332s.105.23.22.312.253.123.417.123c.229,0,.56-.079.993-.237l.211,1.916c-.574.246-1.225.369-1.951.369-.445,0-.847-.075-1.204-.224s-.62-.343-.787-.58-.283-.558-.347-.962c-.053-.287-.079-.867-.079-1.74v-4.069h-1.134v-1.969h1.134v-1.854l2.479-1.441v3.296h1.688Z"/>
      <path class="cls-4" d="M73.31,117.97v-2.285h2.47v2.285h-2.47ZM73.31,128.569v-9.334h2.47v9.334h-2.47Z"/>
      <path class="cls-4" d="M86.801,128.569h-2.47v-4.764c0-1.008-.053-1.66-.158-1.956s-.277-.526-.514-.69-.523-.246-.857-.246c-.428,0-.812.117-1.151.352s-.573.545-.699.932-.189,1.102-.189,2.145v4.228h-2.47v-9.334h2.294v1.371c.814-1.055,1.84-1.582,3.076-1.582.545,0,1.043.098,1.494.294s.792.447,1.024.751.393.65.483,1.037.136.94.136,1.661v5.801Z"/>
      <path class="cls-4" d="M89.077,129.185l2.821.343c.047.328.155.554.325.677.234.176.604.264,1.107.264.645,0,1.128-.097,1.45-.29.217-.129.381-.337.492-.624.076-.205.114-.583.114-1.134v-1.362c-.738,1.008-1.67,1.512-2.795,1.512-1.254,0-2.247-.53-2.979-1.591-.574-.838-.861-1.881-.861-3.129,0-1.564.376-2.76,1.129-3.586s1.689-1.239,2.808-1.239c1.154,0,2.106.507,2.856,1.521v-1.31h2.312v8.376c0,1.102-.091,1.925-.272,2.47s-.437.973-.765,1.283-.766.554-1.314.729-1.241.264-2.079.264c-1.582,0-2.704-.271-3.366-.813s-.993-1.229-.993-2.061c0-.082.003-.182.009-.299ZM91.283,123.709c0,.99.192,1.715.576,2.175s.857.69,1.419.69c.604,0,1.113-.236,1.529-.708s.624-1.17.624-2.096c0-.967-.199-1.685-.598-2.153s-.902-.703-1.512-.703c-.592,0-1.08.23-1.463.69s-.576,1.162-.576,2.105Z"/>
      <path class="cls-4" d="M104.432,125.906l2.479-.378c.105.48.319.845.642,1.094s.773.374,1.354.374c.639,0,1.119-.117,1.441-.352.217-.164.325-.384.325-.659,0-.188-.059-.343-.176-.466-.123-.117-.398-.226-.826-.325-1.992-.439-3.255-.841-3.788-1.204-.738-.504-1.107-1.204-1.107-2.101,0-.809.319-1.488.958-2.039s1.629-.826,2.971-.826c1.277,0,2.227.208,2.848.624s1.049,1.031,1.283,1.846l-2.329.431c-.1-.363-.289-.642-.567-.835s-.675-.29-1.191-.29c-.65,0-1.116.091-1.397.272-.188.129-.281.296-.281.501,0,.176.082.325.246.448.223.164.992.396,2.307.694s2.234.665,2.755,1.099c.516.439.773,1.052.773,1.837,0,.855-.357,1.591-1.072,2.206s-1.772.923-3.173.923c-1.271,0-2.278-.258-3.019-.773s-1.226-1.216-1.455-2.101Z"/>
      <path class="cls-4" d="M117.773,115.685v4.737c.797-.932,1.749-1.397,2.856-1.397.568,0,1.081.105,1.538.316s.801.48,1.033.809.39.691.475,1.09.127,1.017.127,1.854v5.476h-2.47v-4.931c0-.979-.047-1.6-.141-1.863s-.259-.473-.497-.628-.535-.233-.892-.233c-.41,0-.776.1-1.099.299s-.558.5-.708.901-.224.995-.224,1.78v4.676h-2.47v-12.885h2.47Z"/>
      <path class="cls-4" d="M128.153,122.083l-2.241-.404c.252-.902.686-1.57,1.301-2.004s1.529-.65,2.742-.65c1.102,0,1.922.13,2.461.391s.918.592,1.138.993.33,1.138.33,2.21l-.026,2.883c0,.82.04,1.425.119,1.815s.227.807.444,1.252h-2.443c-.064-.164-.144-.407-.237-.729-.041-.146-.07-.243-.088-.29-.422.41-.873.718-1.354.923s-.993.308-1.538.308c-.961,0-1.718-.261-2.272-.782s-.831-1.181-.831-1.978c0-.527.126-.998.378-1.411s.605-.729,1.059-.949,1.109-.412,1.964-.576c1.154-.217,1.954-.419,2.399-.606v-.246c0-.475-.117-.813-.352-1.015s-.677-.303-1.327-.303c-.439,0-.782.086-1.028.259s-.445.476-.598.91ZM131.458,124.087c-.316.105-.817.231-1.503.378s-1.134.29-1.345.431c-.322.229-.483.519-.483.87,0,.346.129.645.387.896s.586.378.984.378c.445,0,.87-.146,1.274-.439.299-.223.495-.495.589-.817.064-.211.097-.612.097-1.204v-.492Z"/>
      <path class="cls-4" d="M135.237,119.235h1.371v-.703c0-.785.083-1.371.25-1.758s.475-.702.923-.945,1.015-.365,1.701-.365c.703,0,1.392.105,2.065.316l-.334,1.723c-.393-.094-.771-.141-1.134-.141-.357,0-.614.083-.769.25s-.233.488-.233.962v.659h1.846v1.942h-1.846v7.392h-2.47v-7.392h-1.371v-1.942Z"/>
      <path class="cls-4" d="M146.593,119.235v1.969h-1.688v3.762c0,.762.016,1.206.048,1.332s.105.23.22.312.253.123.417.123c.229,0,.56-.079.993-.237l.211,1.916c-.574.246-1.225.369-1.951.369-.445,0-.847-.075-1.204-.224s-.62-.343-.787-.58-.283-.558-.347-.962c-.053-.287-.079-.867-.079-1.74v-4.069h-1.134v-1.969h1.134v-1.854l2.479-1.441v3.296h1.688Z"/>
      <path class="cls-4" d="M14.985,150.17v-12.885h5.476c1.377,0,2.377.116,3.001.347s1.124.643,1.499,1.235.562,1.269.562,2.03c0,.967-.284,1.765-.853,2.395s-1.418,1.027-2.549,1.191c.562.328,1.027.688,1.393,1.081s.86,1.09,1.481,2.092l1.573,2.514h-3.111l-1.881-2.804c-.668-1.002-1.125-1.633-1.371-1.894s-.507-.439-.782-.536-.712-.145-1.31-.145h-.527v5.379h-2.602ZM17.587,142.734h1.925c1.248,0,2.027-.053,2.338-.158s.554-.287.729-.545.264-.58.264-.967c0-.434-.116-.784-.347-1.05s-.558-.435-.98-.505c-.211-.029-.844-.044-1.898-.044h-2.03v3.27Z"/>
      <path class="cls-4" d="M27.387,145.371c0-.82.202-1.614.606-2.382s.977-1.354,1.718-1.758,1.569-.606,2.483-.606c1.412,0,2.569.458,3.472,1.375s1.354,2.076,1.354,3.476c0,1.412-.456,2.583-1.367,3.511s-2.058,1.393-3.441,1.393c-.855,0-1.671-.193-2.448-.58s-1.367-.954-1.771-1.701-.606-1.657-.606-2.729ZM29.918,145.503c0,.926.22,1.635.659,2.127s.981.738,1.626.738,1.185-.246,1.622-.738.655-1.207.655-2.145c0-.914-.218-1.617-.655-2.109s-.977-.738-1.622-.738-1.187.246-1.626.738-.659,1.201-.659,2.127Z"/>
      <path class="cls-4" d="M43.233,140.836v1.969h-1.688v3.762c0,.762.016,1.206.048,1.332s.105.23.22.312.253.123.417.123c.229,0,.56-.079.993-.237l.211,1.916c-.574.246-1.225.369-1.951.369-.445,0-.847-.075-1.204-.224s-.62-.343-.787-.58-.283-.558-.347-.962c-.053-.287-.079-.867-.079-1.74v-4.069h-1.134v-1.969h1.134v-1.854l2.479-1.441v3.296h1.688Z"/>
      <path class="cls-4" d="M44.947,139.57v-2.285h2.47v2.285h-2.47ZM44.947,150.17v-9.334h2.47v9.334h-2.47Z"/>
      <path class="cls-4" d="M55.354,147.199l2.461.413c-.316.902-.816,1.589-1.499,2.061s-1.537.708-2.562.708c-1.623,0-2.824-.53-3.604-1.591-.615-.85-.923-1.922-.923-3.217,0-1.547.404-2.758,1.213-3.634s1.831-1.314,3.067-1.314c1.389,0,2.484.458,3.287,1.375s1.187,2.322,1.151,4.214h-6.188c.018.732.217,1.302.598,1.709s.855.611,1.424.611c.387,0,.712-.105.976-.316s.463-.551.598-1.02ZM55.494,144.703c-.018-.715-.202-1.258-.554-1.63s-.779-.558-1.283-.558c-.539,0-.984.196-1.336.589s-.524.926-.519,1.6h3.691Z"/>
      <path class="cls-4" d="M62.323,150.17h-2.47v-9.334h2.294v1.327c.393-.627.746-1.04,1.059-1.239s.669-.299,1.068-.299c.562,0,1.104.155,1.626.466l-.765,2.153c-.416-.27-.803-.404-1.16-.404-.346,0-.639.095-.879.286s-.429.535-.567,1.033-.207,1.541-.207,3.129v2.883Z"/>
      <path class="cls-4" d="M72.369,147.199l2.461.413c-.316.902-.816,1.589-1.499,2.061s-1.537.708-2.562.708c-1.623,0-2.824-.53-3.604-1.591-.615-.85-.923-1.922-.923-3.217,0-1.547.404-2.758,1.213-3.634s1.831-1.314,3.067-1.314c1.389,0,2.484.458,3.287,1.375s1.187,2.322,1.151,4.214h-6.188c.018.732.217,1.302.598,1.709s.855.611,1.424.611c.387,0,.712-.105.976-.316s.463-.551.598-1.02ZM72.51,144.703c-.018-.715-.202-1.258-.554-1.63s-.779-.558-1.283-.558c-.539,0-.984.196-1.336.589s-.524.926-.519,1.6h3.691Z"/>
      <path class="cls-4" d="M85.465,150.17h-2.47v-4.764c0-1.008-.053-1.66-.158-1.956s-.277-.526-.514-.69-.523-.246-.857-.246c-.428,0-.812.117-1.151.352s-.573.545-.699.932-.189,1.102-.189,2.145v4.228h-2.47v-9.334h2.294v1.371c.814-1.055,1.84-1.582,3.076-1.582.545,0,1.043.098,1.494.294s.792.447,1.024.751.393.65.483,1.037.136.94.136,1.661v5.801Z"/>
      <path class="cls-4" d="M96.53,150.17h-2.294v-1.371c-.381.533-.831.93-1.349,1.191s-1.042.391-1.569.391c-1.072,0-1.991-.432-2.755-1.296s-1.147-2.07-1.147-3.617c0-1.582.372-2.785,1.116-3.608s1.685-1.235,2.821-1.235c1.043,0,1.945.434,2.707,1.301v-4.641h2.47v12.885ZM89.938,145.3c0,.996.138,1.717.413,2.162.398.645.955.967,1.67.967.568,0,1.052-.242,1.45-.725s.598-1.206.598-2.167c0-1.072-.193-1.844-.58-2.316s-.882-.708-1.485-.708c-.586,0-1.077.233-1.472.699s-.593,1.162-.593,2.087Z"/>
      <path class="cls-4" d="M104.37,147.199l2.461.413c-.316.902-.816,1.589-1.499,2.061s-1.537.708-2.562.708c-1.623,0-2.824-.53-3.604-1.591-.615-.85-.923-1.922-.923-3.217,0-1.547.404-2.758,1.213-3.634s1.831-1.314,3.067-1.314c1.389,0,2.484.458,3.287,1.375s1.187,2.322,1.151,4.214h-6.188c.018.732.217,1.302.598,1.709s.855.611,1.424.611c.387,0,.712-.105.976-.316s.463-.551.598-1.02ZM104.511,144.703c-.018-.715-.202-1.258-.554-1.63s-.779-.558-1.283-.558c-.539,0-.984.196-1.336.589s-.524.926-.519,1.6h3.691Z"/>
      <path class="cls-4" d="M115.822,150.17l-3.076-12.885h2.663l1.942,8.851,2.355-8.851h3.094l2.259,9,1.978-9h2.619l-3.129,12.885h-2.76l-2.566-9.633-2.558,9.633h-2.821Z"/>
      <path class="cls-4" d="M136.046,147.199l2.461.413c-.316.902-.816,1.589-1.499,2.061s-1.537.708-2.562.708c-1.623,0-2.824-.53-3.604-1.591-.615-.85-.923-1.922-.923-3.217,0-1.547.404-2.758,1.213-3.634s1.831-1.314,3.067-1.314c1.389,0,2.484.458,3.287,1.375s1.187,2.322,1.151,4.214h-6.188c.018.732.217,1.302.598,1.709s.855.611,1.424.611c.387,0,.712-.105.976-.316s.463-.551.598-1.02ZM136.187,144.703c-.018-.715-.202-1.258-.554-1.63s-.779-.558-1.283-.558c-.539,0-.984.196-1.336.589s-.524.926-.519,1.6h3.691Z"/>
      <path class="cls-4" d="M140.651,150.17v-12.885h2.47v12.885h-2.47Z"/>
      <path class="cls-4" d="M145.652,150.17v-12.885h2.47v12.885h-2.47Z"/>
      <path class="cls-4" d="M156.059,147.199l2.461.413c-.316.902-.816,1.589-1.499,2.061s-1.537.708-2.562.708c-1.623,0-2.824-.53-3.604-1.591-.615-.85-.923-1.922-.923-3.217,0-1.547.404-2.758,1.213-3.634s1.831-1.314,3.067-1.314c1.389,0,2.484.458,3.287,1.375s1.187,2.322,1.151,4.214h-6.188c.018.732.217,1.302.598,1.709s.855.611,1.424.611c.387,0,.712-.105.976-.316s.463-.551.598-1.02ZM156.199,144.703c-.018-.715-.202-1.258-.554-1.63s-.779-.558-1.283-.558c-.539,0-.984.196-1.336.589s-.524.926-.519,1.6h3.691Z"/>
      <path class="cls-4" d="M47.443,171.77h-2.83l-1.125-2.927h-5.15l-1.063,2.927h-2.76l5.019-12.885h2.751l5.159,12.885ZM42.653,166.672l-1.775-4.781-1.74,4.781h3.516Z"/>
      <path class="cls-4" d="M51.17,171.77h-2.47v-9.334h2.294v1.327c.393-.627.746-1.04,1.059-1.239s.669-.299,1.068-.299c.562,0,1.104.155,1.626.466l-.765,2.153c-.416-.27-.803-.404-1.16-.404-.346,0-.639.095-.879.286s-.429.535-.567,1.033-.207,1.541-.207,3.129v2.883Z"/>
      <path class="cls-4" d="M55.705,171.77v-12.885h2.47v4.641c.762-.867,1.664-1.301,2.707-1.301,1.137,0,2.077.412,2.821,1.235s1.116,2.005,1.116,3.546c0,1.594-.379,2.821-1.138,3.683s-1.68,1.292-2.764,1.292c-.533,0-1.059-.133-1.578-.4s-.965-.661-1.34-1.182v1.371h-2.294ZM58.157,166.901c0,.967.152,1.682.457,2.145.428.656.996.984,1.705.984.545,0,1.009-.233,1.393-.699s.576-1.2.576-2.202c0-1.066-.193-1.835-.58-2.307s-.882-.708-1.485-.708c-.592,0-1.084.23-1.477.69s-.589,1.159-.589,2.096Z"/>
      <path class="cls-4" d="M69.17,171.77h-2.47v-9.334h2.294v1.327c.393-.627.746-1.04,1.059-1.239s.669-.299,1.068-.299c.562,0,1.104.155,1.626.466l-.765,2.153c-.416-.27-.803-.404-1.16-.404-.346,0-.639.095-.879.286s-.429.535-.567,1.033-.207,1.541-.207,3.129v2.883Z"/>
      <path class="cls-4" d="M79.216,168.799l2.461.413c-.316.902-.816,1.589-1.499,2.061s-1.537.708-2.562.708c-1.623,0-2.824-.53-3.604-1.591-.615-.85-.923-1.922-.923-3.217,0-1.547.404-2.758,1.213-3.634s1.831-1.314,3.067-1.314c1.389,0,2.484.458,3.287,1.375s1.187,2.322,1.151,4.214h-6.188c.018.732.217,1.302.598,1.709s.855.611,1.424.611c.387,0,.712-.105.976-.316s.463-.551.598-1.02ZM79.356,166.303c-.018-.715-.202-1.258-.554-1.63s-.779-.558-1.283-.558c-.539,0-.984.196-1.336.589s-.524.926-.519,1.6h3.691Z"/>
      <path class="cls-4" d="M91.187,171.77h-2.47v-9.334h2.294v1.327c.393-.627.746-1.04,1.059-1.239s.669-.299,1.068-.299c.562,0,1.104.155,1.626.466l-.765,2.153c-.416-.27-.803-.404-1.16-.404-.346,0-.639.095-.879.286s-.429.535-.567,1.033-.207,1.541-.207,3.129v2.883Z"/>
      <path class="cls-4" d="M95.256,166.971c0-.82.202-1.614.606-2.382s.977-1.354,1.718-1.758,1.569-.606,2.483-.606c1.412,0,2.569.458,3.472,1.375s1.354,2.076,1.354,3.476c0,1.412-.456,2.583-1.367,3.511s-2.058,1.393-3.441,1.393c-.855,0-1.671-.193-2.448-.58s-1.367-.954-1.771-1.701-.606-1.657-.606-2.729ZM97.787,167.103c0,.926.22,1.635.659,2.127s.981.738,1.626.738,1.185-.246,1.622-.738.655-1.207.655-2.145c0-.914-.218-1.617-.655-2.109s-.977-.738-1.622-.738-1.187.246-1.626.738-.659,1.201-.659,2.127Z"/>
      <path class="cls-4" d="M111.103,162.436v1.969h-1.688v3.762c0,.762.016,1.206.048,1.332s.105.23.22.312.253.123.417.123c.229,0,.56-.079.993-.237l.211,1.916c-.574.246-1.225.369-1.951.369-.445,0-.847-.075-1.204-.224s-.62-.343-.787-.58-.283-.558-.347-.962c-.053-.287-.079-.867-.079-1.74v-4.069h-1.134v-1.969h1.134v-1.854l2.479-1.441v3.296h1.688Z"/>
      <path class="cls-4" d="M114.662,165.283l-2.241-.404c.252-.902.686-1.57,1.301-2.004s1.529-.65,2.742-.65c1.102,0,1.922.13,2.461.391s.918.592,1.138.993.33,1.138.33,2.21l-.026,2.883c0,.82.04,1.425.119,1.815s.227.807.444,1.252h-2.443c-.064-.164-.144-.407-.237-.729-.041-.146-.07-.243-.088-.29-.422.41-.873.718-1.354.923s-.993.308-1.538.308c-.961,0-1.718-.261-2.272-.782s-.831-1.181-.831-1.978c0-.527.126-.998.378-1.411s.605-.729,1.059-.949,1.109-.412,1.964-.576c1.154-.217,1.954-.419,2.399-.606v-.246c0-.475-.117-.813-.352-1.015s-.677-.303-1.327-.303c-.439,0-.782.086-1.028.259s-.445.476-.598.91ZM117.967,167.287c-.316.105-.817.231-1.503.378s-1.134.29-1.345.431c-.322.229-.483.519-.483.87,0,.346.129.645.387.896s.586.378.984.378c.445,0,.87-.146,1.274-.439.299-.223.495-.495.589-.817.064-.211.097-.612.097-1.204v-.492Z"/>
      <path class="cls-4" d="M127.107,162.436v1.969h-1.688v3.762c0,.762.016,1.206.048,1.332s.105.23.22.312.253.123.417.123c.229,0,.56-.079.993-.237l.211,1.916c-.574.246-1.225.369-1.951.369-.445,0-.847-.075-1.204-.224s-.62-.343-.787-.58-.283-.558-.347-.962c-.053-.287-.079-.867-.079-1.74v-4.069h-1.134v-1.969h1.134v-1.854l2.479-1.441v3.296h1.688Z"/>
      <path class="cls-4" d="M128.821,161.17v-2.285h2.47v2.285h-2.47ZM128.821,171.77v-9.334h2.47v9.334h-2.47Z"/>
      <path class="cls-4" d="M132.741,162.436h1.371v-.703c0-.785.083-1.371.25-1.758s.475-.702.923-.945,1.015-.365,1.701-.365c.703,0,1.392.105,2.065.316l-.334,1.723c-.393-.094-.771-.141-1.134-.141-.357,0-.614.083-.769.25s-.233.488-.233.962v.659h1.846v1.942h-1.846v7.392h-2.47v-7.392h-1.371v-1.942Z"/>
      <path class="cls-4" d="M35.319,193.37v-12.885h9.554v2.18h-6.952v2.856h6.469v2.171h-6.469v3.507h7.198v2.171h-9.8Z"/>
      <path class="cls-4" d="M49.725,184.036v9.044c0,1.189-.078,2.028-.233,2.519-.155.488-.454.871-.896,1.146s-1.006.413-1.692.413c-.246,0-.511-.022-.795-.065-.284-.045-.59-.11-.918-.198l.431-2.109c.117.023.227.042.33.058.103.014.198.021.286.021.252,0,.458-.055.62-.162.161-.109.268-.239.321-.392s.079-.609.079-1.371v-8.903h2.47ZM47.255,182.77v-2.285h2.47v2.285h-2.47Z"/>
      <path class="cls-4" d="M57.714,190.399l2.461.413c-.316.902-.816,1.59-1.499,2.062s-1.537.707-2.562.707c-1.623,0-2.824-.53-3.604-1.591-.615-.85-.923-1.922-.923-3.217,0-1.547.404-2.758,1.213-3.634s1.831-1.314,3.067-1.314c1.389,0,2.484.458,3.287,1.375s1.187,2.322,1.151,4.214h-6.188c.018.732.217,1.303.598,1.709.381.408.855.611,1.424.611.387,0,.712-.105.976-.316s.463-.551.598-1.02ZM57.855,187.903c-.018-.715-.202-1.258-.554-1.63s-.779-.558-1.283-.558c-.539,0-.984.196-1.336.589s-.524.926-.519,1.6h3.691Z"/>
      <path class="cls-4" d="M67.092,193.985l2.821.343c.047.328.155.554.325.677.234.176.604.264,1.107.264.645,0,1.128-.097,1.45-.29.217-.129.381-.337.492-.624.076-.205.114-.583.114-1.134v-1.362c-.738,1.008-1.67,1.512-2.795,1.512-1.254,0-2.247-.53-2.979-1.591-.574-.838-.861-1.881-.861-3.129,0-1.564.376-2.76,1.129-3.586s1.689-1.239,2.808-1.239c1.154,0,2.106.507,2.856,1.521v-1.31h2.312v8.376c0,1.102-.091,1.925-.272,2.47s-.437.973-.765,1.283-.766.554-1.314.729-1.241.264-2.079.264c-1.582,0-2.704-.271-3.366-.813s-.993-1.229-.993-2.061c0-.082.003-.182.009-.299ZM69.298,188.509c0,.99.192,1.716.576,2.175.384.461.857.69,1.419.69.604,0,1.113-.235,1.529-.708.416-.471.624-1.17.624-2.096,0-.967-.199-1.685-.598-2.153s-.902-.703-1.512-.703c-.592,0-1.08.23-1.463.69s-.576,1.162-.576,2.105Z"/>
      <path class="cls-4" d="M78.315,182.77v-2.285h2.47v2.285h-2.47ZM78.315,193.37v-9.334h2.47v9.334h-2.47Z"/>
      <path class="cls-4" d="M85.681,193.37h-2.47v-9.334h2.294v1.327c.393-.627.746-1.04,1.059-1.239s.669-.299,1.068-.299c.562,0,1.104.155,1.626.466l-.765,2.153c-.416-.27-.803-.404-1.16-.404-.346,0-.639.095-.879.286s-.429.535-.567,1.033-.207,1.541-.207,3.129v2.883Z"/>
      <path class="cls-4" d="M92.167,186.883l-2.241-.404c.252-.902.686-1.57,1.301-2.004s1.529-.65,2.742-.65c1.102,0,1.922.13,2.461.391s.918.592,1.138.993.33,1.138.33,2.21l-.026,2.883c0,.82.04,1.426.119,1.815s.227.807.444,1.252h-2.443c-.064-.164-.144-.407-.237-.729-.041-.146-.07-.243-.088-.29-.422.41-.873.718-1.354.923s-.993.308-1.538.308c-.961,0-1.718-.261-2.272-.782s-.831-1.181-.831-1.978c0-.527.126-.998.378-1.41.252-.414.605-.73,1.059-.949.454-.221,1.109-.412,1.964-.576,1.154-.217,1.954-.419,2.399-.606v-.246c0-.475-.117-.813-.352-1.015s-.677-.303-1.327-.303c-.439,0-.782.086-1.028.259s-.445.476-.598.91ZM95.472,188.887c-.316.105-.817.231-1.503.378s-1.134.29-1.345.431c-.322.229-.483.519-.483.87,0,.346.129.645.387.896s.586.378.984.378c.445,0,.87-.146,1.274-.439.299-.223.495-.495.589-.817.064-.211.097-.612.097-1.204v-.492Z"/>
      <path class="cls-4" d="M104.612,184.036v1.969h-1.688v3.762c0,.762.016,1.206.048,1.332s.105.229.22.312.253.123.417.123c.229,0,.56-.079.993-.237l.211,1.916c-.574.246-1.225.369-1.951.369-.445,0-.847-.074-1.204-.225-.357-.148-.62-.342-.787-.58-.167-.236-.283-.558-.347-.962-.053-.287-.079-.867-.079-1.74v-4.069h-1.134v-1.969h1.134v-1.854l2.479-1.441v3.296h1.688Z"/>
      <path class="cls-4" d="M105.755,188.571c0-.82.202-1.614.606-2.382s.977-1.354,1.718-1.758,1.569-.606,2.483-.606c1.412,0,2.569.458,3.472,1.375s1.354,2.076,1.354,3.476c0,1.412-.456,2.583-1.367,3.512s-2.058,1.393-3.441,1.393c-.855,0-1.671-.193-2.448-.58s-1.367-.953-1.771-1.701c-.404-.746-.606-1.656-.606-2.729ZM108.286,188.703c0,.926.22,1.635.659,2.127s.981.738,1.626.738,1.185-.246,1.622-.738.655-1.207.655-2.145c0-.914-.218-1.617-.655-2.109s-.977-.738-1.622-.738-1.187.246-1.626.738-.659,1.201-.659,2.127Z"/>
      <path class="cls-4" d="M119.686,193.37h-2.47v-9.334h2.294v1.327c.393-.627.746-1.04,1.059-1.239s.669-.299,1.068-.299c.562,0,1.104.155,1.626.466l-.765,2.153c-.416-.27-.803-.404-1.16-.404-.346,0-.639.095-.879.286s-.429.535-.567,1.033-.207,1.541-.207,3.129v2.883Z"/>
      <path class="cls-4" d="M124.326,182.77v-2.285h2.47v2.285h-2.47ZM124.326,193.37v-9.334h2.47v9.334h-2.47Z"/>
      <path class="cls-4" d="M128.756,188.571c0-.82.202-1.614.606-2.382s.977-1.354,1.718-1.758,1.569-.606,2.483-.606c1.412,0,2.569.458,3.472,1.375s1.354,2.076,1.354,3.476c0,1.412-.456,2.583-1.367,3.512s-2.058,1.393-3.441,1.393c-.855,0-1.671-.193-2.448-.58s-1.367-.953-1.771-1.701c-.404-.746-.606-1.656-.606-2.729ZM131.287,188.703c0,.926.22,1.635.659,2.127s.981.738,1.626.738,1.185-.246,1.622-.738.655-1.207.655-2.145c0-.914-.218-1.617-.655-2.109s-.977-.738-1.622-.738-1.187.246-1.626.738-.659,1.201-.659,2.127Z"/>
    </g>
    <g>
      <rect class="cls-1" x="195.546" y="102.624" width="173.04" height="103.804"/>
      <path class="cls-4" d="M232.891,128.569v-12.885h2.602v5.071h5.098v-5.071h2.602v12.885h-2.602v-5.634h-5.098v5.634h-2.602Z"/>
      <path class="cls-4" d="M245.864,117.97v-2.285h2.47v2.285h-2.47ZM245.864,128.569v-9.334h2.47v9.334h-2.47Z"/>
      <path class="cls-4" d="M250.636,129.185l2.821.343c.047.328.155.554.325.677.234.176.604.264,1.107.264.645,0,1.128-.097,1.45-.29.217-.129.381-.337.492-.624.076-.205.114-.583.114-1.134v-1.362c-.738,1.008-1.67,1.512-2.795,1.512-1.254,0-2.247-.53-2.979-1.591-.574-.838-.861-1.881-.861-3.129,0-1.564.376-2.76,1.129-3.586s1.689-1.239,2.808-1.239c1.154,0,2.106.507,2.856,1.521v-1.31h2.312v8.376c0,1.102-.091,1.925-.272,2.47s-.437.973-.765,1.283-.766.554-1.314.729-1.241.264-2.079.264c-1.582,0-2.704-.271-3.366-.813s-.993-1.229-.993-2.061c0-.082.003-.182.009-.299ZM252.842,123.709c0,.99.192,1.715.576,2.175s.857.69,1.419.69c.604,0,1.113-.236,1.529-.708s.624-1.17.624-2.096c0-.967-.199-1.685-.598-2.153s-.902-.703-1.512-.703c-.592,0-1.08.23-1.463.69s-.576,1.162-.576,2.105Z"/>
      <path class="cls-4" d="M264.321,115.685v4.737c.797-.932,1.749-1.397,2.856-1.397.568,0,1.081.105,1.538.316s.801.48,1.033.809.39.691.475,1.09.127,1.017.127,1.854v5.476h-2.47v-4.931c0-.979-.047-1.6-.141-1.863s-.259-.473-.497-.628-.535-.233-.892-.233c-.41,0-.776.1-1.099.299s-.558.5-.708.901-.224.995-.224,1.78v4.676h-2.47v-12.885h2.47Z"/>
      <path class="cls-4" d="M282.136,119.235v1.969h-1.688v3.762c0,.762.016,1.206.048,1.332s.105.23.22.312.253.123.417.123c.229,0,.56-.079.993-.237l.211,1.916c-.574.246-1.225.369-1.951.369-.445,0-.847-.075-1.204-.224s-.62-.343-.787-.58-.283-.558-.347-.962c-.053-.287-.079-.867-.079-1.74v-4.069h-1.134v-1.969h1.134v-1.854l2.479-1.441v3.296h1.688Z"/>
      <path class="cls-4" d="M283.279,123.771c0-.82.202-1.614.606-2.382s.977-1.354,1.718-1.758,1.569-.606,2.483-.606c1.412,0,2.569.458,3.472,1.375.902.917,1.353,2.076,1.353,3.476,0,1.412-.455,2.583-1.366,3.511s-2.058,1.393-3.441,1.393c-.855,0-1.671-.193-2.448-.58s-1.367-.954-1.771-1.701-.606-1.657-.606-2.729ZM285.81,123.902c0,.926.22,1.635.659,2.127s.981.738,1.626.738,1.185-.246,1.622-.738.655-1.207.655-2.145c0-.914-.218-1.617-.655-2.109s-.977-.738-1.622-.738-1.187.246-1.626.738-.659,1.201-.659,2.127Z"/>
      <path class="cls-4" d="M297.209,128.569h-2.47v-9.334h2.294v1.327c.393-.627.746-1.04,1.06-1.239s.669-.299,1.067-.299c.562,0,1.104.155,1.626.466l-.765,2.153c-.416-.27-.803-.404-1.16-.404-.346,0-.639.095-.879.286s-.429.535-.566,1.033-.207,1.541-.207,3.129v2.883Z"/>
      <path class="cls-4" d="M307.949,132.12v-4.693c-.322.416-.724.746-1.204.989s-.999.365-1.556.365c-1.061,0-1.934-.398-2.619-1.195-.809-.932-1.213-2.194-1.213-3.788,0-1.5.38-2.67,1.139-3.511s1.7-1.261,2.825-1.261c.621,0,1.159.132,1.613.396s.856.662,1.208,1.195v-1.38h2.276v12.885h-2.47ZM308.028,123.788c0-.955-.194-1.666-.584-2.131s-.878-.699-1.464-.699c-.598,0-1.097.237-1.498.712s-.603,1.228-.603,2.259c0,1.025.193,1.765.58,2.219s.864.681,1.433.681,1.066-.255,1.494-.765.642-1.269.642-2.276Z"/>
      <path class="cls-4" d="M318.988,128.569v-1.397c-.34.498-.786.891-1.34,1.178s-1.139.431-1.754.431c-.627,0-1.189-.138-1.688-.413s-.858-.662-1.081-1.16-.334-1.187-.334-2.065v-5.906h2.47v4.289c0,1.312.046,2.117.137,2.413s.256.53.496.703.545.259.914.259c.422,0,.8-.116,1.134-.347s.562-.519.686-.861.185-1.182.185-2.518v-3.938h2.47v9.334h-2.294Z"/>
      <path class="cls-4" d="M329.245,125.599l2.461.413c-.316.902-.815,1.589-1.498,2.061s-1.537.708-2.562.708c-1.623,0-2.824-.53-3.604-1.591-.615-.85-.923-1.922-.923-3.217,0-1.547.404-2.758,1.213-3.634s1.831-1.314,3.067-1.314c1.389,0,2.484.458,3.287,1.375s1.187,2.322,1.151,4.214h-6.188c.018.732.217,1.302.598,1.709s.855.611,1.424.611c.387,0,.712-.105.976-.316s.463-.551.598-1.02ZM329.386,123.103c-.018-.715-.202-1.258-.554-1.63s-.779-.558-1.283-.558c-.539,0-.984.196-1.336.589s-.524.926-.519,1.6h3.691Z"/>
      <path class="cls-4" d="M197.871,150.17v-12.885h2.602v5.071h5.098v-5.071h2.602v12.885h-2.602v-5.634h-5.098v5.634h-2.602Z"/>
      <path class="cls-4" d="M210.272,145.371c0-.82.202-1.614.606-2.382s.977-1.354,1.718-1.758,1.569-.606,2.483-.606c1.412,0,2.569.458,3.472,1.375s1.354,2.076,1.354,3.476c0,1.412-.456,2.583-1.367,3.511s-2.058,1.393-3.441,1.393c-.855,0-1.671-.193-2.448-.58s-1.367-.954-1.771-1.701-.606-1.657-.606-2.729ZM212.804,145.503c0,.926.22,1.635.659,2.127s.981.738,1.626.738,1.185-.246,1.622-.738.655-1.207.655-2.145c0-.914-.218-1.617-.655-2.109s-.977-.738-1.622-.738-1.187.246-1.626.738-.659,1.201-.659,2.127Z"/>
      <path class="cls-4" d="M224.3,137.285v4.737c.797-.932,1.749-1.397,2.856-1.397.568,0,1.081.105,1.538.316s.801.48,1.033.809.39.691.475,1.09.127,1.017.127,1.854v5.476h-2.47v-4.931c0-.979-.047-1.6-.141-1.863s-.259-.473-.497-.628-.535-.233-.892-.233c-.41,0-.776.1-1.099.299s-.558.5-.708.901-.224.995-.224,1.78v4.676h-2.47v-12.885h2.47Z"/>
      <path class="cls-4" d="M238.239,147.199l2.461.413c-.316.902-.816,1.589-1.499,2.061s-1.537.708-2.562.708c-1.623,0-2.824-.53-3.604-1.591-.615-.85-.923-1.922-.923-3.217,0-1.547.404-2.758,1.213-3.634s1.831-1.314,3.067-1.314c1.389,0,2.484.458,3.287,1.375s1.187,2.322,1.151,4.214h-6.188c.018.732.217,1.302.598,1.709s.855.611,1.424.611c.387,0,.712-.105.976-.316s.463-.551.598-1.02ZM238.38,144.703c-.018-.715-.202-1.258-.554-1.63s-.779-.558-1.283-.558c-.539,0-.984.196-1.336.589s-.524.926-.519,1.6h3.691Z"/>
      <path class="cls-4" d="M241.975,147.506l2.479-.378c.105.48.319.845.642,1.094s.773.374,1.354.374c.639,0,1.119-.117,1.441-.352.217-.164.325-.384.325-.659,0-.188-.059-.343-.176-.466-.123-.117-.398-.226-.826-.325-1.992-.439-3.255-.841-3.788-1.204-.738-.504-1.107-1.204-1.107-2.101,0-.809.319-1.488.958-2.039s1.629-.826,2.971-.826c1.277,0,2.227.208,2.848.624s1.049,1.031,1.283,1.846l-2.329.431c-.1-.363-.289-.642-.567-.835s-.675-.29-1.191-.29c-.65,0-1.116.091-1.397.272-.188.129-.281.296-.281.501,0,.176.082.325.246.448.223.164.992.396,2.307.694s2.234.665,2.755,1.099c.516.439.773,1.052.773,1.837,0,.855-.357,1.591-1.072,2.206s-1.772.923-3.173.923c-1.271,0-2.278-.258-3.019-.773s-1.226-1.216-1.455-2.101Z"/>
      <path class="cls-4" d="M257.865,137.285h4.755c1.072,0,1.89.082,2.452.246.756.223,1.403.618,1.942,1.187s.949,1.264,1.23,2.087.422,1.838.422,3.045c0,1.061-.132,1.975-.396,2.742-.322.938-.782,1.696-1.38,2.276-.451.439-1.061.782-1.828,1.028-.574.182-1.342.272-2.303.272h-4.896v-12.885ZM260.467,139.464v8.534h1.942c.727,0,1.251-.041,1.573-.123.422-.105.772-.284,1.05-.536s.505-.667.681-1.244.264-1.364.264-2.36-.088-1.761-.264-2.294-.422-.949-.738-1.248-.718-.501-1.204-.606c-.363-.082-1.075-.123-2.136-.123h-1.169Z"/>
      <path class="cls-4" d="M273.22,150.17h-2.47v-9.334h2.294v1.327c.393-.627.746-1.04,1.059-1.239s.669-.299,1.068-.299c.562,0,1.104.155,1.626.466l-.765,2.153c-.416-.27-.803-.404-1.16-.404-.346,0-.639.095-.879.286s-.429.535-.567,1.033-.207,1.541-.207,3.129v2.883Z"/>
      <path class="cls-4" d="M283.266,147.199l2.461.413c-.316.902-.816,1.589-1.499,2.061s-1.537.708-2.562.708c-1.623,0-2.824-.53-3.604-1.591-.615-.85-.923-1.922-.923-3.217,0-1.547.404-2.758,1.213-3.634s1.831-1.314,3.067-1.314c1.389,0,2.484.458,3.287,1.375s1.187,2.322,1.151,4.214h-6.188c.018.732.217,1.302.598,1.709s.855.611,1.424.611c.387,0,.712-.105.976-.316s.463-.551.598-1.02ZM283.406,144.703c-.018-.715-.202-1.258-.554-1.63s-.779-.558-1.283-.558c-.539,0-.984.196-1.336.589s-.524.926-.519,1.6h3.691Z"/>
      <path class="cls-4" d="M290.332,137.285v4.737c.797-.932,1.749-1.397,2.856-1.397.568,0,1.081.105,1.538.316s.801.48,1.032.809.39.691.475,1.09.128,1.017.128,1.854v5.476h-2.47v-4.931c0-.979-.047-1.6-.141-1.863s-.26-.473-.497-.628-.534-.233-.892-.233c-.41,0-.776.1-1.099.299s-.558.5-.708.901-.224.995-.224,1.78v4.676h-2.47v-12.885h2.47Z"/>
      <path class="cls-4" d="M298.682,140.836h2.276v1.274c.814-.99,1.784-1.485,2.909-1.485.598,0,1.116.123,1.556.369s.8.618,1.081,1.116c.41-.498.853-.87,1.327-1.116s.981-.369,1.521-.369c.686,0,1.266.139,1.74.417s.829.687,1.063,1.226c.17.398.255,1.043.255,1.934v5.968h-2.47v-5.335c0-.926-.085-1.523-.255-1.793-.229-.352-.58-.527-1.055-.527-.346,0-.671.105-.976.316s-.524.52-.659.927-.202,1.05-.202,1.929v4.482h-2.47v-5.115c0-.908-.044-1.494-.132-1.758s-.225-.46-.409-.589-.435-.193-.751-.193c-.381,0-.724.103-1.028.308s-.523.501-.655.888-.197,1.028-.197,1.925v4.535h-2.47v-9.334Z"/>
      <path class="cls-4" d="M314.3,145.371c0-.82.202-1.614.606-2.382s.977-1.354,1.718-1.758,1.569-.606,2.483-.606c1.412,0,2.569.458,3.472,1.375s1.354,2.076,1.354,3.476c0,1.412-.456,2.583-1.367,3.511s-2.058,1.393-3.44,1.393c-.855,0-1.672-.193-2.448-.58s-1.366-.954-1.771-1.701-.606-1.657-.606-2.729ZM316.831,145.503c0,.926.22,1.635.659,2.127s.981.738,1.626.738,1.185-.246,1.621-.738.655-1.207.655-2.145c0-.914-.219-1.617-.655-2.109s-.977-.738-1.621-.738-1.187.246-1.626.738-.659,1.201-.659,2.127Z"/>
      <path class="cls-4" d="M325.682,140.836h2.276v1.274c.814-.99,1.784-1.485,2.909-1.485.598,0,1.116.123,1.556.369s.8.618,1.081,1.116c.41-.498.853-.87,1.327-1.116s.981-.369,1.521-.369c.686,0,1.266.139,1.74.417s.829.687,1.063,1.226c.17.398.255,1.043.255,1.934v5.968h-2.47v-5.335c0-.926-.085-1.523-.255-1.793-.229-.352-.58-.527-1.055-.527-.346,0-.671.105-.976.316s-.524.52-.659.927-.202,1.05-.202,1.929v4.482h-2.47v-5.115c0-.908-.044-1.494-.132-1.758s-.225-.46-.409-.589-.435-.193-.751-.193c-.381,0-.724.103-1.028.308s-.523.501-.655.888-.197,1.028-.197,1.925v4.535h-2.47v-9.334Z"/>
      <path class="cls-4" d="M347.276,147.199l2.461.413c-.316.902-.816,1.589-1.499,2.061s-1.536.708-2.562.708c-1.623,0-2.824-.53-3.604-1.591-.615-.85-.923-1.922-.923-3.217,0-1.547.404-2.758,1.213-3.634s1.831-1.314,3.067-1.314c1.389,0,2.484.458,3.287,1.375s1.187,2.322,1.151,4.214h-6.188c.018.732.217,1.302.598,1.709s.855.611,1.424.611c.387,0,.712-.105.976-.316s.463-.551.598-1.02ZM347.417,144.703c-.018-.715-.202-1.258-.554-1.63s-.779-.558-1.283-.558c-.539,0-.984.196-1.336.589s-.524.926-.519,1.6h3.691Z"/>
      <path class="cls-4" d="M360.372,150.17h-2.47v-4.764c0-1.008-.053-1.66-.158-1.956s-.277-.526-.515-.69-.522-.246-.856-.246c-.428,0-.812.117-1.151.352s-.573.545-.699.932-.188,1.102-.188,2.145v4.228h-2.47v-9.334h2.294v1.371c.814-1.055,1.84-1.582,3.076-1.582.545,0,1.043.098,1.494.294s.792.447,1.023.751.393.65.483,1.037.137.94.137,1.661v5.801Z"/>
      <path class="cls-4" d="M367.157,140.836v1.969h-1.688v3.762c0,.762.016,1.206.048,1.332s.105.23.22.312.254.123.418.123c.229,0,.56-.079.993-.237l.211,1.916c-.574.246-1.225.369-1.951.369-.445,0-.847-.075-1.204-.224s-.62-.343-.787-.58-.282-.558-.347-.962c-.053-.287-.079-.867-.079-1.74v-4.069h-1.134v-1.969h1.134v-1.854l2.479-1.441v3.296h1.688Z"/>
      <path class="cls-4" d="M236.099,167.032l2.522.8c-.387,1.406-1.03,2.451-1.929,3.133s-2.041,1.024-3.423,1.024c-1.711,0-3.117-.584-4.219-1.753s-1.652-2.767-1.652-4.794c0-2.145.554-3.81,1.661-4.997s2.563-1.78,4.368-1.78c1.576,0,2.856.466,3.841,1.397.586.551,1.025,1.342,1.318,2.373l-2.575.615c-.152-.668-.47-1.195-.954-1.582s-1.071-.58-1.762-.58c-.955,0-1.73.343-2.325,1.028s-.892,1.796-.892,3.331c0,1.629.293,2.789.879,3.48s1.348,1.037,2.285,1.037c.691,0,1.286-.22,1.784-.659s.855-1.131,1.072-2.074Z"/>
      <path class="cls-4" d="M240.265,166.971c0-.82.202-1.614.606-2.382s.977-1.354,1.718-1.758,1.569-.606,2.483-.606c1.412,0,2.569.458,3.472,1.375s1.354,2.076,1.354,3.476c0,1.412-.456,2.583-1.367,3.511s-2.058,1.393-3.441,1.393c-.855,0-1.671-.193-2.448-.58s-1.367-.954-1.771-1.701-.606-1.657-.606-2.729ZM242.796,167.103c0,.926.22,1.635.659,2.127s.981.738,1.626.738,1.185-.246,1.622-.738.655-1.207.655-2.145c0-.914-.218-1.617-.655-2.109s-.977-.738-1.622-.738-1.187.246-1.626.738-.659,1.201-.659,2.127Z"/>
      <path class="cls-4" d="M257.975,171.77v-1.397c-.34.498-.787.891-1.34,1.178s-1.138.431-1.753.431c-.627,0-1.189-.138-1.688-.413s-.858-.662-1.081-1.16-.334-1.187-.334-2.065v-5.906h2.47v4.289c0,1.312.045,2.117.136,2.413s.256.53.497.703.545.259.914.259c.422,0,.8-.116,1.134-.347s.562-.519.686-.861.185-1.182.185-2.518v-3.938h2.47v9.334h-2.294Z"/>
      <path class="cls-4" d="M262.756,162.436h2.303v1.371c.299-.469.703-.85,1.213-1.143s1.075-.439,1.696-.439c1.084,0,2.004.425,2.76,1.274s1.134,2.033,1.134,3.551c0,1.559-.381,2.77-1.143,3.634s-1.685,1.296-2.769,1.296c-.516,0-.983-.103-1.402-.308s-.86-.557-1.323-1.055v4.702h-2.47v-12.885ZM265.2,166.944c0,1.049.208,1.824.624,2.325s.923.751,1.521.751c.574,0,1.052-.23,1.433-.69s.571-1.214.571-2.263c0-.979-.196-1.705-.589-2.18s-.879-.712-1.459-.712c-.604,0-1.104.233-1.503.699s-.598,1.156-.598,2.07Z"/>
      <path class="cls-4" d="M273.822,171.77v-12.885h2.47v12.885h-2.47Z"/>
      <path class="cls-4" d="M284.228,168.799l2.461.413c-.316.902-.816,1.589-1.499,2.061s-1.537.708-2.562.708c-1.623,0-2.824-.53-3.604-1.591-.615-.85-.923-1.922-.923-3.217,0-1.547.404-2.758,1.213-3.634s1.831-1.314,3.067-1.314c1.389,0,2.484.458,3.287,1.375s1.187,2.322,1.151,4.214h-6.188c.018.732.217,1.302.598,1.709s.855.611,1.424.611c.387,0,.712-.105.976-.316s.463-.551.598-1.02ZM284.369,166.303c-.018-.715-.202-1.258-.554-1.63s-.779-.558-1.283-.558c-.539,0-.984.196-1.336.589s-.524.926-.519,1.6h3.691Z"/>
      <path class="cls-4" d="M299.239,168.799l2.461.413c-.316.902-.815,1.589-1.498,2.061s-1.537.708-2.562.708c-1.623,0-2.824-.53-3.604-1.591-.615-.85-.923-1.922-.923-3.217,0-1.547.404-2.758,1.213-3.634s1.831-1.314,3.067-1.314c1.389,0,2.484.458,3.287,1.375s1.187,2.322,1.151,4.214h-6.188c.018.732.217,1.302.598,1.709s.855.611,1.424.611c.387,0,.712-.105.976-.316s.463-.551.598-1.02ZM299.38,166.303c-.018-.715-.202-1.258-.554-1.63s-.779-.558-1.283-.558c-.539,0-.984.196-1.336.589s-.524.926-.519,1.6h3.691ZM296.225,161.293l1.213-2.628h2.769l-2.417,2.628h-1.564Z"/>
      <path class="cls-4" d="M303.845,171.77v-12.885h2.47v12.885h-2.47Z"/>
      <path class="cls-4" d="M314.251,168.799l2.461.413c-.316.902-.815,1.589-1.498,2.061s-1.537.708-2.562.708c-1.623,0-2.824-.53-3.604-1.591-.615-.85-.923-1.922-.923-3.217,0-1.547.404-2.758,1.213-3.634s1.831-1.314,3.067-1.314c1.389,0,2.484.458,3.287,1.375s1.187,2.322,1.151,4.214h-6.188c.018.732.217,1.302.598,1.709s.855.611,1.424.611c.387,0,.712-.105.976-.316s.463-.551.598-1.02ZM314.392,166.303c-.018-.715-.202-1.258-.554-1.63s-.779-.558-1.283-.558c-.539,0-.984.196-1.336.589s-.524.926-.519,1.6h3.691Z"/>
      <path class="cls-4" d="M321.423,171.77l-3.762-9.334h2.593l1.758,4.764.51,1.591c.135-.404.22-.671.255-.8.082-.264.17-.527.264-.791l1.775-4.764h2.54l-3.709,9.334h-2.224Z"/>
      <path class="cls-4" d="M334.272,168.799l2.461.413c-.316.902-.815,1.589-1.498,2.061s-1.537.708-2.562.708c-1.623,0-2.824-.53-3.604-1.591-.615-.85-.923-1.922-.923-3.217,0-1.547.404-2.758,1.213-3.634s1.831-1.314,3.067-1.314c1.389,0,2.484.458,3.287,1.375s1.187,2.322,1.151,4.214h-6.188c.018.732.217,1.302.598,1.709s.855.611,1.424.611c.387,0,.712-.105.976-.316s.463-.551.598-1.02ZM334.413,166.303c-.018-.715-.202-1.258-.554-1.63s-.779-.558-1.283-.558c-.539,0-.984.196-1.336.589s-.524.926-.519,1.6h3.691ZM331.258,161.293l1.213-2.628h2.769l-2.417,2.628h-1.564Z"/>
      <path class="cls-4" d="M260.994,193.37h-2.83l-1.125-2.927h-5.15l-1.063,2.927h-2.76l5.019-12.885h2.751l5.159,12.885ZM256.204,188.272l-1.775-4.781-1.74,4.781h3.516Z"/>
      <path class="cls-4" d="M262.356,193.37v-12.885h2.47v12.885h-2.47Z"/>
      <path class="cls-4" d="M271.638,184.036v1.969h-1.688v3.762c0,.762.016,1.206.048,1.332s.105.229.22.312.253.123.417.123c.229,0,.56-.079.993-.237l.211,1.916c-.574.246-1.225.369-1.951.369-.445,0-.847-.074-1.204-.225-.357-.148-.62-.342-.787-.58-.167-.236-.283-.558-.347-.962-.053-.287-.079-.867-.079-1.74v-4.069h-1.134v-1.969h1.134v-1.854l2.479-1.441v3.296h1.688Z"/>
      <path class="cls-4" d="M272.78,188.571c0-.82.202-1.614.606-2.382s.977-1.354,1.718-1.758,1.569-.606,2.483-.606c1.412,0,2.569.458,3.472,1.375s1.354,2.076,1.354,3.476c0,1.412-.456,2.583-1.367,3.512s-2.058,1.393-3.441,1.393c-.855,0-1.671-.193-2.448-.58s-1.367-.953-1.771-1.701c-.404-.746-.606-1.656-.606-2.729ZM275.312,188.703c0,.926.22,1.635.659,2.127s.981.738,1.626.738,1.185-.246,1.622-.738.655-1.207.655-2.145c0-.914-.218-1.617-.655-2.109s-.977-.738-1.622-.738-1.187.246-1.626.738-.659,1.201-.659,2.127Z"/>
      <path class="cls-4" d="M289.277,184.036h2.303v1.371c.299-.469.703-.85,1.213-1.143s1.075-.439,1.696-.439c1.084,0,2.004.425,2.76,1.274s1.134,2.033,1.134,3.551c0,1.559-.381,2.771-1.143,3.634-.762.865-1.685,1.297-2.769,1.297-.516,0-.983-.103-1.402-.308s-.859-.557-1.322-1.055v4.702h-2.47v-12.885ZM291.721,188.545c0,1.049.208,1.823.624,2.325.416.5.923.751,1.521.751.574,0,1.052-.229,1.433-.69.381-.459.571-1.214.571-2.263,0-.979-.196-1.705-.589-2.18s-.879-.712-1.459-.712c-.604,0-1.104.233-1.503.699s-.598,1.156-.598,2.07Z"/>
      <path class="cls-4" d="M302.188,186.883l-2.241-.404c.252-.902.686-1.57,1.301-2.004s1.529-.65,2.742-.65c1.102,0,1.922.13,2.461.391s.918.592,1.138.993.33,1.138.33,2.21l-.026,2.883c0,.82.039,1.426.118,1.815s.228.807.444,1.252h-2.443c-.064-.164-.144-.407-.237-.729-.041-.146-.07-.243-.088-.29-.422.41-.873.718-1.354.923s-.993.308-1.538.308c-.961,0-1.719-.261-2.272-.782s-.83-1.181-.83-1.978c0-.527.126-.998.378-1.41.252-.414.604-.73,1.059-.949.454-.221,1.109-.412,1.965-.576,1.154-.217,1.954-.419,2.399-.606v-.246c0-.475-.117-.813-.352-1.015s-.677-.303-1.327-.303c-.439,0-.782.086-1.028.259s-.445.476-.598.91ZM305.493,188.887c-.316.105-.817.231-1.503.378s-1.134.29-1.345.431c-.322.229-.483.519-.483.87,0,.346.129.645.387.896s.586.378.984.378c.445,0,.87-.146,1.274-.439.299-.223.495-.495.589-.817.064-.211.097-.612.097-1.204v-.492Z"/>
      <path class="cls-4" d="M312.718,193.37h-2.47v-9.334h2.294v1.327c.393-.627.745-1.04,1.059-1.239s.67-.299,1.068-.299c.562,0,1.104.155,1.626.466l-.765,2.153c-.416-.27-.803-.404-1.16-.404-.346,0-.639.095-.879.286s-.43.535-.567,1.033-.206,1.541-.206,3.129v2.883Z"/>
    </g>
    <g>
      <rect class="cls-1" x="391.092" y="102.624" width="173.04" height="103.804"/>
      <path class="cls-4" d="M429.417,128.569v-12.885h2.602v5.071h5.098v-5.071h2.602v12.885h-2.602v-5.634h-5.098v5.634h-2.602Z"/>
      <path class="cls-4" d="M441.818,123.771c0-.82.202-1.614.606-2.382s.977-1.354,1.718-1.758,1.569-.606,2.483-.606c1.412,0,2.569.458,3.472,1.375s1.354,2.076,1.354,3.476c0,1.412-.456,2.583-1.367,3.511s-2.058,1.393-3.44,1.393c-.855,0-1.672-.193-2.448-.58s-1.366-.954-1.771-1.701-.606-1.657-.606-2.729ZM444.35,123.902c0,.926.22,1.635.659,2.127s.981.738,1.626.738,1.185-.246,1.621-.738.655-1.207.655-2.145c0-.914-.219-1.617-.655-2.109s-.977-.738-1.621-.738-1.187.246-1.626.738-.659,1.201-.659,2.127Z"/>
      <path class="cls-4" d="M457.665,119.235v1.969h-1.688v3.762c0,.762.016,1.206.048,1.332s.105.23.22.312.254.123.418.123c.229,0,.56-.079.993-.237l.211,1.916c-.574.246-1.225.369-1.951.369-.445,0-.847-.075-1.204-.224s-.62-.343-.787-.58-.282-.558-.347-.962c-.053-.287-.079-.867-.079-1.74v-4.069h-1.134v-1.969h1.134v-1.854l2.479-1.441v3.296h1.688Z"/>
      <path class="cls-4" d="M463.51,125.906l2.479-.378c.105.48.319.845.642,1.094s.773.374,1.354.374c.639,0,1.119-.117,1.441-.352.217-.164.325-.384.325-.659,0-.188-.059-.343-.176-.466-.123-.117-.398-.226-.826-.325-1.992-.439-3.255-.841-3.788-1.204-.738-.504-1.107-1.204-1.107-2.101,0-.809.319-1.488.958-2.039s1.629-.826,2.971-.826c1.277,0,2.227.208,2.848.624s1.049,1.031,1.283,1.846l-2.329.431c-.1-.363-.289-.642-.567-.835s-.675-.29-1.19-.29c-.65,0-1.116.091-1.397.272-.188.129-.281.296-.281.501,0,.176.082.325.246.448.223.164.991.396,2.307.694s2.234.665,2.756,1.099c.516.439.773,1.052.773,1.837,0,.855-.357,1.591-1.072,2.206s-1.772.923-3.173.923c-1.271,0-2.278-.258-3.02-.773s-1.226-1.216-1.454-2.101Z"/>
      <path class="cls-4" d="M480.534,128.569v-1.397c-.34.498-.787.891-1.341,1.178s-1.138.431-1.753.431c-.627,0-1.189-.138-1.688-.413s-.858-.662-1.081-1.16-.334-1.187-.334-2.065v-5.906h2.47v4.289c0,1.312.045,2.117.136,2.413s.257.53.497.703.545.259.914.259c.422,0,.8-.116,1.134-.347s.562-.519.686-.861.185-1.182.185-2.518v-3.938h2.47v9.334h-2.294Z"/>
      <path class="cls-4" d="M487.75,128.569h-2.47v-9.334h2.294v1.327c.393-.627.745-1.04,1.059-1.239s.67-.299,1.068-.299c.562,0,1.104.155,1.626.466l-.765,2.153c-.416-.27-.803-.404-1.16-.404-.346,0-.639.095-.879.286s-.43.535-.567,1.033-.206,1.541-.206,3.129v2.883Z"/>
      <path class="cls-4" d="M491.31,119.235h1.371v-.703c0-.785.083-1.371.25-1.758s.475-.702.923-.945,1.016-.365,1.701-.365c.703,0,1.392.105,2.065.316l-.334,1.723c-.393-.094-.771-.141-1.134-.141-.357,0-.614.083-.77.25s-.232.488-.232.962v.659h1.846v1.942h-1.846v7.392h-2.47v-7.392h-1.371v-1.942Z"/>
      <path class="cls-4" d="M500.23,122.083l-2.241-.404c.252-.902.686-1.57,1.301-2.004s1.529-.65,2.742-.65c1.102,0,1.922.13,2.461.391s.918.592,1.138.993.33,1.138.33,2.21l-.026,2.883c0,.82.039,1.425.118,1.815s.228.807.444,1.252h-2.443c-.064-.164-.144-.407-.237-.729-.041-.146-.07-.243-.088-.29-.422.41-.873.718-1.354.923s-.993.308-1.538.308c-.961,0-1.719-.261-2.272-.782s-.83-1.181-.83-1.978c0-.527.126-.998.378-1.411s.604-.729,1.059-.949,1.109-.412,1.965-.576c1.154-.217,1.954-.419,2.399-.606v-.246c0-.475-.117-.813-.352-1.015s-.677-.303-1.327-.303c-.439,0-.782.086-1.028.259s-.445.476-.598.91ZM503.535,124.087c-.316.105-.817.231-1.503.378s-1.134.29-1.345.431c-.322.229-.483.519-.483.87,0,.346.129.645.387.896s.586.378.984.378c.445,0,.87-.146,1.274-.439.299-.223.495-.495.589-.817.064-.211.097-.612.097-1.204v-.492Z"/>
      <path class="cls-4" d="M516.534,121.995l-2.435.439c-.082-.486-.269-.853-.559-1.099s-.666-.369-1.129-.369c-.615,0-1.106.212-1.473.637s-.549,1.135-.549,2.131c0,1.107.186,1.89.558,2.347s.872.686,1.499.686c.469,0,.853-.133,1.151-.4s.51-.725.633-1.375l2.426.413c-.252,1.113-.735,1.954-1.45,2.522s-1.673.853-2.874.853c-1.365,0-2.454-.431-3.266-1.292s-1.217-2.054-1.217-3.577c0-1.541.407-2.741,1.222-3.599s1.916-1.288,3.305-1.288c1.137,0,2.04.245,2.711.734s1.153,1.235,1.446,2.237Z"/>
      <path class="cls-4" d="M523.812,125.599l2.461.413c-.316.902-.816,1.589-1.499,2.061s-1.536.708-2.562.708c-1.623,0-2.824-.53-3.604-1.591-.615-.85-.923-1.922-.923-3.217,0-1.547.404-2.758,1.213-3.634s1.831-1.314,3.067-1.314c1.389,0,2.484.458,3.287,1.375s1.187,2.322,1.151,4.214h-6.188c.018.732.217,1.302.598,1.709s.855.611,1.424.611c.387,0,.712-.105.976-.316s.463-.551.598-1.02ZM523.952,123.103c-.018-.715-.202-1.258-.554-1.63s-.779-.558-1.283-.558c-.539,0-.984.196-1.336.589s-.524.926-.519,1.6h3.691Z"/>
      <path class="cls-4" d="M404.904,150.17v-12.885h2.602v5.071h5.098v-5.071h2.602v12.885h-2.602v-5.634h-5.098v5.634h-2.602Z"/>
      <path class="cls-4" d="M423.282,147.199l2.461.413c-.316.902-.816,1.589-1.499,2.061s-1.536.708-2.562.708c-1.623,0-2.824-.53-3.604-1.591-.615-.85-.923-1.922-.923-3.217,0-1.547.404-2.758,1.213-3.634s1.831-1.314,3.067-1.314c1.389,0,2.484.458,3.287,1.375s1.187,2.322,1.151,4.214h-6.188c.018.732.217,1.302.598,1.709s.855.611,1.424.611c.387,0,.712-.105.976-.316s.463-.551.598-1.02ZM423.423,144.703c-.018-.715-.202-1.258-.554-1.63s-.779-.558-1.283-.558c-.539,0-.984.196-1.336.589s-.524.926-.519,1.6h3.691Z"/>
      <path class="cls-4" d="M427.888,139.57v-2.285h2.47v2.285h-2.47ZM427.888,150.17v-9.334h2.47v9.334h-2.47Z"/>
      <path class="cls-4" d="M432.818,150.17v-8.367c0-1.172.104-2.062.312-2.672s.611-1.106,1.209-1.49,1.374-.576,2.329-.576c1.195,0,2.089.255,2.681.765s.888,1.143.888,1.898c0,.51-.16,1.056-.479,1.639s-.502.939-.549,1.068-.07.24-.07.334c0,.193.073.396.22.606.094.135.445.51,1.055,1.125s1.02,1.137,1.23,1.564.316.87.316,1.327c0,.85-.295,1.56-.884,2.131s-1.334.857-2.236.857c-.621,0-1.187-.16-1.696-.479s-.894-.713-1.151-1.182l1.723-1.011c.123.229.261.401.413.519s.319.176.501.176c.24,0,.443-.086.61-.259s.251-.388.251-.646c0-.24-.088-.483-.264-.729-.1-.146-.504-.554-1.213-1.222-.99-.949-1.485-1.696-1.485-2.241,0-.346.19-.914.571-1.705.299-.609.475-.996.527-1.16s.079-.334.079-.51c0-.258-.097-.478-.29-.659s-.451-.272-.773-.272c-.293,0-.547.076-.761.229s-.358.349-.435.589c-.105.322-.158.984-.158,1.986v8.367h-2.47Z"/>
      <path class="cls-4" d="M449.289,147.199l2.461.413c-.316.902-.816,1.589-1.499,2.061s-1.536.708-2.562.708c-1.623,0-2.824-.53-3.604-1.591-.615-.85-.923-1.922-.923-3.217,0-1.547.404-2.758,1.213-3.634s1.831-1.314,3.067-1.314c1.389,0,2.484.458,3.287,1.375s1.187,2.322,1.151,4.214h-6.188c.018.732.217,1.302.598,1.709s.855.611,1.424.611c.387,0,.712-.105.976-.316s.463-.551.598-1.02ZM449.43,144.703c-.018-.715-.202-1.258-.554-1.63s-.779-.558-1.283-.558c-.539,0-.984.196-1.336.589s-.524.926-.519,1.6h3.691Z"/>
      <path class="cls-4" d="M458.386,143.806c0-1.312.196-2.414.589-3.305.293-.656.692-1.245,1.199-1.767s1.062-.908,1.666-1.16c.803-.34,1.729-.51,2.777-.51,1.898,0,3.417.589,4.557,1.767s1.71,2.815,1.71,4.913c0,2.08-.565,3.708-1.696,4.882s-2.643,1.762-4.535,1.762c-1.916,0-3.439-.584-4.57-1.753s-1.696-2.779-1.696-4.83ZM461.066,143.718c0,1.459.337,2.565,1.011,3.318s1.529,1.129,2.566,1.129,1.888-.374,2.553-1.121.998-1.868.998-3.362c0-1.477-.324-2.578-.972-3.305s-1.507-1.09-2.579-1.09-1.937.368-2.593,1.103-.984,1.844-.984,3.327Z"/>
      <path class="cls-4" d="M472.791,150.17v-12.885h2.47v4.641c.762-.867,1.664-1.301,2.707-1.301,1.137,0,2.077.412,2.821,1.235s1.116,2.005,1.116,3.546c0,1.594-.38,2.821-1.139,3.683s-1.68,1.292-2.764,1.292c-.533,0-1.06-.133-1.578-.4s-.965-.661-1.34-1.182v1.371h-2.294ZM475.243,145.3c0,.967.152,1.682.457,2.145.428.656.996.984,1.705.984.545,0,1.009-.233,1.393-.699s.576-1.2.576-2.202c0-1.066-.193-1.835-.58-2.307s-.882-.708-1.485-.708c-.592,0-1.084.23-1.477.69s-.589,1.159-.589,2.096Z"/>
      <path class="cls-4" d="M489.297,147.199l2.461.413c-.316.902-.816,1.589-1.499,2.061s-1.536.708-2.562.708c-1.623,0-2.824-.53-3.604-1.591-.615-.85-.923-1.922-.923-3.217,0-1.547.404-2.758,1.213-3.634s1.831-1.314,3.067-1.314c1.389,0,2.484.458,3.287,1.375s1.187,2.322,1.151,4.214h-6.188c.018.732.217,1.302.598,1.709s.855.611,1.424.611c.387,0,.712-.105.976-.316s.463-.551.598-1.02ZM489.438,144.703c-.018-.715-.202-1.258-.554-1.63s-.779-.558-1.283-.558c-.539,0-.984.196-1.336.589s-.524.926-.519,1.6h3.691Z"/>
      <path class="cls-4" d="M496.267,150.17h-2.47v-9.334h2.294v1.327c.393-.627.745-1.04,1.059-1.239s.67-.299,1.068-.299c.562,0,1.104.155,1.626.466l-.765,2.153c-.416-.27-.803-.404-1.16-.404-.346,0-.639.095-.879.286s-.43.535-.567,1.033-.206,1.541-.206,3.129v2.883Z"/>
      <path class="cls-4" d="M499.826,140.836h1.371v-.703c0-.785.083-1.371.25-1.758s.475-.702.923-.945,1.016-.365,1.701-.365c.703,0,1.392.105,2.065.316l-.334,1.723c-.393-.094-.771-.141-1.134-.141-.357,0-.614.083-.77.25s-.232.488-.232.962v.659h1.846v1.942h-1.846v7.392h-2.47v-7.392h-1.371v-1.942Z"/>
      <path class="cls-4" d="M506.901,150.17v-12.885h2.47v12.885h-2.47Z"/>
      <path class="cls-4" d="M513.748,143.683l-2.241-.404c.252-.902.686-1.57,1.301-2.004s1.529-.65,2.742-.65c1.102,0,1.922.13,2.461.391s.918.592,1.138.993.33,1.138.33,2.21l-.026,2.883c0,.82.039,1.425.118,1.815s.228.807.444,1.252h-2.443c-.064-.164-.144-.407-.237-.729-.041-.146-.07-.243-.088-.29-.422.41-.873.718-1.354.923s-.993.308-1.538.308c-.961,0-1.719-.261-2.272-.782s-.83-1.181-.83-1.978c0-.527.126-.998.378-1.411s.604-.729,1.059-.949,1.109-.412,1.965-.576c1.154-.217,1.954-.419,2.399-.606v-.246c0-.475-.117-.813-.352-1.015s-.677-.303-1.327-.303c-.439,0-.782.086-1.028.259s-.445.476-.598.91ZM512.685,139.183v-2.118h2.118v2.118h-2.118ZM517.053,145.687c-.316.105-.817.231-1.503.378s-1.134.29-1.345.431c-.322.229-.483.519-.483.87,0,.346.129.645.387.896s.586.378.984.378c.445,0,.87-.146,1.274-.439.299-.223.495-.495.589-.817.064-.211.097-.612.097-1.204v-.492ZM516.464,139.183v-2.118h2.127v2.118h-2.127Z"/>
      <path class="cls-4" d="M530.052,143.595l-2.435.439c-.082-.486-.269-.853-.559-1.099s-.666-.369-1.129-.369c-.615,0-1.106.212-1.473.637s-.549,1.135-.549,2.131c0,1.107.186,1.89.558,2.347s.872.686,1.499.686c.469,0,.853-.133,1.151-.4s.51-.725.633-1.375l2.426.413c-.252,1.113-.735,1.954-1.45,2.522s-1.673.853-2.874.853c-1.365,0-2.454-.431-3.266-1.292s-1.217-2.054-1.217-3.577c0-1.541.407-2.741,1.222-3.599s1.916-1.288,3.305-1.288c1.137,0,2.04.245,2.711.734s1.153,1.235,1.446,2.237Z"/>
      <path class="cls-4" d="M534.385,137.285v4.737c.797-.932,1.749-1.397,2.856-1.397.568,0,1.081.105,1.538.316s.801.48,1.032.809.39.691.475,1.09.128,1.017.128,1.854v5.476h-2.47v-4.931c0-.979-.047-1.6-.141-1.863s-.26-.473-.497-.628-.534-.233-.892-.233c-.41,0-.776.1-1.099.299s-.559.5-.708.901-.224.995-.224,1.78v4.676h-2.47v-12.885h2.47Z"/>
      <path class="cls-4" d="M548.324,147.199l2.461.413c-.316.902-.816,1.589-1.499,2.061s-1.536.708-2.562.708c-1.623,0-2.824-.53-3.604-1.591-.615-.85-.923-1.922-.923-3.217,0-1.547.404-2.758,1.213-3.634s1.831-1.314,3.067-1.314c1.389,0,2.484.458,3.287,1.375s1.187,2.322,1.151,4.214h-6.188c.018.732.217,1.302.598,1.709s.855.611,1.424.611c.387,0,.712-.105.976-.316s.463-.551.598-1.02ZM548.465,144.703c-.018-.715-.202-1.258-.554-1.63s-.779-.558-1.283-.558c-.539,0-.984.196-1.336.589s-.524.926-.519,1.6h3.691Z"/>
      <path class="cls-4" d="M411.236,167.577l2.531-.246c.152.85.462,1.474.928,1.872s1.094.598,1.885.598c.838,0,1.47-.177,1.895-.532s.637-.769.637-1.244c0-.305-.089-.564-.268-.778s-.491-.4-.937-.558c-.305-.105-.999-.293-2.083-.562-1.395-.346-2.373-.771-2.936-1.274-.791-.709-1.187-1.573-1.187-2.593,0-.656.187-1.27.559-1.841s.908-1.006,1.608-1.305,1.545-.448,2.535-.448c1.617,0,2.835.354,3.652,1.063s1.246,1.655,1.287,2.839l-2.602.114c-.111-.662-.35-1.138-.716-1.428s-.916-.435-1.648-.435c-.756,0-1.348.155-1.775.466-.275.199-.413.466-.413.8,0,.305.129.565.387.782.328.275,1.125.562,2.391.861s2.202.608,2.809.927,1.081.756,1.424,1.31.514,1.238.514,2.052c0,.738-.205,1.43-.615,2.074s-.99,1.124-1.74,1.437-1.685.47-2.804.47c-1.629,0-2.88-.376-3.753-1.129s-1.395-1.85-1.564-3.292Z"/>
      <path class="cls-4" d="M430.027,171.77v-1.397c-.34.498-.786.891-1.34,1.178s-1.139.431-1.754.431c-.627,0-1.189-.138-1.688-.413s-.858-.662-1.081-1.16-.334-1.187-.334-2.065v-5.906h2.47v4.289c0,1.312.046,2.117.137,2.413s.256.53.496.703.545.259.914.259c.422,0,.8-.116,1.134-.347s.562-.519.686-.861.185-1.182.185-2.518v-3.938h2.47v9.334h-2.294Z"/>
      <path class="cls-4" d="M437.243,171.77h-2.47v-9.334h2.294v1.327c.393-.627.746-1.04,1.06-1.239s.669-.299,1.067-.299c.562,0,1.104.155,1.626.466l-.765,2.153c-.416-.27-.803-.404-1.16-.404-.346,0-.639.095-.879.286s-.429.535-.566,1.033-.207,1.541-.207,3.129v2.883Z"/>
      <path class="cls-4" d="M440.803,162.436h1.371v-.703c0-.785.084-1.371.251-1.758s.475-.702.923-.945,1.015-.365,1.7-.365c.703,0,1.392.105,2.065.316l-.334,1.723c-.393-.094-.771-.141-1.134-.141-.357,0-.613.083-.769.25s-.233.488-.233.962v.659h1.846v1.942h-1.846v7.392h-2.47v-7.392h-1.371v-1.942Z"/>
      <path class="cls-4" d="M449.724,165.283l-2.241-.404c.252-.902.686-1.57,1.301-2.004s1.529-.65,2.742-.65c1.102,0,1.922.13,2.461.391s.919.592,1.139.993.329,1.138.329,2.21l-.026,2.883c0,.82.04,1.425.119,1.815s.227.807.443,1.252h-2.443c-.064-.164-.144-.407-.237-.729-.041-.146-.07-.243-.088-.29-.422.41-.873.718-1.354.923s-.993.308-1.538.308c-.961,0-1.718-.261-2.271-.782s-.831-1.181-.831-1.978c0-.527.126-.998.378-1.411s.605-.729,1.06-.949,1.108-.412,1.964-.576c1.154-.217,1.954-.419,2.399-.606v-.246c0-.475-.117-.813-.352-1.015s-.677-.303-1.327-.303c-.439,0-.782.086-1.028.259s-.445.476-.598.91ZM453.028,167.287c-.316.105-.817.231-1.503.378s-1.134.29-1.345.431c-.322.229-.483.519-.483.87,0,.346.129.645.387.896s.586.378.984.378c.445,0,.87-.146,1.274-.439.299-.223.495-.495.589-.817.064-.211.097-.612.097-1.204v-.492Z"/>
      <path class="cls-4" d="M466.027,165.195l-2.435.439c-.082-.486-.268-.853-.558-1.099s-.667-.369-1.13-.369c-.615,0-1.105.212-1.472.637s-.55,1.135-.55,2.131c0,1.107.187,1.89.559,2.347s.871.686,1.498.686c.469,0,.853-.133,1.151-.4s.51-.725.633-1.375l2.426.413c-.252,1.113-.735,1.954-1.45,2.522s-1.673.853-2.874.853c-1.365,0-2.453-.431-3.265-1.292s-1.218-2.054-1.218-3.577c0-1.541.407-2.741,1.222-3.599s1.916-1.288,3.305-1.288c1.137,0,2.041.245,2.712.734s1.152,1.235,1.445,2.237Z"/>
      <path class="cls-4" d="M473.305,168.799l2.461.413c-.316.902-.815,1.589-1.498,2.061s-1.537.708-2.562.708c-1.623,0-2.824-.53-3.604-1.591-.615-.85-.923-1.922-.923-3.217,0-1.547.404-2.758,1.213-3.634s1.831-1.314,3.067-1.314c1.389,0,2.484.458,3.287,1.375s1.187,2.322,1.151,4.214h-6.188c.018.732.217,1.302.598,1.709s.855.611,1.424.611c.387,0,.712-.105.976-.316s.463-.551.598-1.02ZM473.445,166.303c-.018-.715-.202-1.258-.554-1.63s-.779-.558-1.283-.558c-.539,0-.984.196-1.336.589s-.524.926-.519,1.6h3.691Z"/>
      <path class="cls-4" d="M491.05,165.195l-2.435.439c-.082-.486-.268-.853-.558-1.099s-.667-.369-1.13-.369c-.615,0-1.105.212-1.472.637s-.55,1.135-.55,2.131c0,1.107.187,1.89.559,2.347s.871.686,1.498.686c.469,0,.853-.133,1.151-.4s.51-.725.633-1.375l2.426.413c-.252,1.113-.735,1.954-1.45,2.522s-1.673.853-2.874.853c-1.365,0-2.453-.431-3.265-1.292s-1.218-2.054-1.218-3.577c0-1.541.407-2.741,1.222-3.599s1.916-1.288,3.305-1.288c1.137,0,2.041.245,2.712.734s1.152,1.235,1.445,2.237Z"/>
      <path class="cls-4" d="M495.383,158.885v4.737c.797-.932,1.749-1.397,2.856-1.397.568,0,1.081.105,1.538.316s.802.48,1.033.809.39.691.475,1.09.127,1.017.127,1.854v5.476h-2.47v-4.931c0-.979-.047-1.6-.141-1.863s-.259-.473-.496-.628-.535-.233-.893-.233c-.41,0-.776.1-1.099.299s-.558.5-.707.901-.225.995-.225,1.78v4.676h-2.47v-12.885h2.47Z"/>
      <path class="cls-4" d="M505.763,165.283l-2.241-.404c.252-.902.686-1.57,1.301-2.004s1.529-.65,2.742-.65c1.102,0,1.922.13,2.461.391s.919.592,1.139.993.329,1.138.329,2.21l-.026,2.883c0,.82.04,1.425.119,1.815s.227.807.443,1.252h-2.443c-.064-.164-.144-.407-.237-.729-.041-.146-.07-.243-.088-.29-.422.41-.873.718-1.354.923s-.993.308-1.538.308c-.961,0-1.718-.261-2.271-.782s-.831-1.181-.831-1.978c0-.527.126-.998.378-1.411s.605-.729,1.06-.949,1.108-.412,1.964-.576c1.154-.217,1.954-.419,2.399-.606v-.246c0-.475-.117-.813-.352-1.015s-.677-.303-1.327-.303c-.439,0-.782.086-1.028.259s-.445.476-.598.91ZM509.067,167.287c-.316.105-.817.231-1.503.378s-1.134.29-1.345.431c-.322.229-.483.519-.483.87,0,.346.129.645.387.896s.586.378.984.378c.445,0,.87-.146,1.274-.439.299-.223.495-.495.589-.817.064-.211.097-.612.097-1.204v-.492Z"/>
      <path class="cls-4" d="M520.071,171.77v-1.397c-.34.498-.786.891-1.34,1.178s-1.139.431-1.754.431c-.627,0-1.189-.138-1.688-.413s-.858-.662-1.081-1.16-.334-1.187-.334-2.065v-5.906h2.47v4.289c0,1.312.046,2.117.137,2.413s.256.53.496.703.545.259.914.259c.422,0,.8-.116,1.134-.347s.562-.519.686-.861.185-1.182.185-2.518v-3.938h2.47v9.334h-2.294Z"/>
      <path class="cls-4" d="M533.483,171.77h-2.294v-1.371c-.381.533-.83.93-1.349,1.191s-1.042.391-1.569.391c-1.072,0-1.99-.432-2.755-1.296s-1.147-2.07-1.147-3.617c0-1.582.372-2.785,1.116-3.608s1.685-1.235,2.821-1.235c1.043,0,1.945.434,2.707,1.301v-4.641h2.47v12.885ZM526.892,166.901c0,.996.138,1.717.413,2.162.398.645.955.967,1.67.967.568,0,1.052-.242,1.45-.725s.598-1.206.598-2.167c0-1.072-.193-1.844-.58-2.316s-.882-.708-1.485-.708c-.586,0-1.076.233-1.472.699s-.594,1.162-.594,2.087Z"/>
      <path class="cls-4" d="M541.323,168.799l2.461.413c-.316.902-.815,1.589-1.498,2.061s-1.537.708-2.562.708c-1.623,0-2.824-.53-3.604-1.591-.615-.85-.923-1.922-.923-3.217,0-1.547.404-2.758,1.213-3.634s1.831-1.314,3.067-1.314c1.389,0,2.484.458,3.287,1.375s1.187,2.322,1.151,4.214h-6.188c.018.732.217,1.302.598,1.709s.855.611,1.424.611c.387,0,.712-.105.976-.316s.463-.551.598-1.02ZM541.464,166.303c-.018-.715-.202-1.258-.554-1.63s-.779-.558-1.283-.558c-.539,0-.984.196-1.336.589s-.524.926-.519,1.6h3.691Z"/>
      <path class="cls-4" d="M398.73,189.177l2.531-.246c.152.85.462,1.474.928,1.872s1.094.598,1.885.598c.838,0,1.47-.177,1.895-.531s.637-.77.637-1.244c0-.305-.089-.563-.268-.777s-.491-.4-.937-.559c-.305-.105-.999-.293-2.083-.562-1.395-.346-2.373-.771-2.936-1.274-.791-.709-1.187-1.573-1.187-2.593,0-.656.187-1.27.559-1.841s.908-1.006,1.608-1.305,1.545-.448,2.535-.448c1.617,0,2.835.354,3.652,1.063s1.246,1.655,1.287,2.839l-2.602.114c-.111-.662-.35-1.138-.716-1.428s-.916-.435-1.648-.435c-.756,0-1.348.155-1.775.466-.275.199-.413.466-.413.8,0,.305.129.565.387.782.328.275,1.125.562,2.391.861s2.202.608,2.809.927,1.081.756,1.424,1.31c.343.553.514,1.237.514,2.052,0,.738-.205,1.43-.615,2.074s-.99,1.124-1.74,1.437c-.75.313-1.685.471-2.804.471-1.629,0-2.88-.376-3.753-1.129s-1.395-1.851-1.564-3.292Z"/>
      <path class="cls-4" d="M417.521,193.37v-1.397c-.34.498-.786.891-1.34,1.178s-1.139.431-1.754.431c-.627,0-1.189-.138-1.688-.413s-.858-.662-1.081-1.16-.334-1.187-.334-2.065v-5.906h2.47v4.289c0,1.312.046,2.117.137,2.412.091.297.256.531.496.703.24.174.545.26.914.26.422,0,.8-.115,1.134-.348.334-.23.562-.518.686-.861.123-.342.185-1.182.185-2.518v-3.938h2.47v9.334h-2.294Z"/>
      <path class="cls-4" d="M422.302,184.036h2.303v1.371c.299-.469.703-.85,1.213-1.143s1.075-.439,1.696-.439c1.084,0,2.004.425,2.76,1.274s1.134,2.033,1.134,3.551c0,1.559-.381,2.771-1.143,3.634-.762.865-1.685,1.297-2.769,1.297-.516,0-.982-.103-1.401-.308s-.86-.557-1.323-1.055v4.702h-2.47v-12.885ZM424.745,188.545c0,1.049.208,1.823.624,2.325.416.5.923.751,1.521.751.574,0,1.052-.229,1.433-.69.381-.459.571-1.214.571-2.263,0-.979-.196-1.705-.589-2.18s-.879-.712-1.459-.712c-.604,0-1.104.233-1.503.699s-.598,1.156-.598,2.07Z"/>
      <path class="cls-4" d="M438.772,190.399l2.461.413c-.316.902-.815,1.59-1.498,2.062s-1.537.707-2.562.707c-1.623,0-2.824-.53-3.604-1.591-.615-.85-.923-1.922-.923-3.217,0-1.547.404-2.758,1.213-3.634s1.831-1.314,3.067-1.314c1.389,0,2.484.458,3.287,1.375s1.187,2.322,1.151,4.214h-6.188c.018.732.217,1.303.598,1.709.381.408.855.611,1.424.611.387,0,.712-.105.976-.316s.463-.551.598-1.02ZM438.913,187.903c-.018-.715-.202-1.258-.554-1.63s-.779-.558-1.283-.558c-.539,0-.984.196-1.336.589s-.524.926-.519,1.6h3.691Z"/>
      <path class="cls-4" d="M445.742,193.37h-2.47v-9.334h2.294v1.327c.393-.627.746-1.04,1.06-1.239s.669-.299,1.067-.299c.562,0,1.104.155,1.626.466l-.765,2.153c-.416-.27-.803-.404-1.16-.404-.346,0-.639.095-.879.286s-.429.535-.566,1.033-.207,1.541-.207,3.129v2.883Z"/>
      <path class="cls-4" d="M449.302,184.036h1.371v-.703c0-.785.084-1.371.251-1.758s.475-.702.923-.945,1.015-.365,1.7-.365c.703,0,1.392.105,2.065.316l-.334,1.723c-.393-.094-.771-.141-1.134-.141-.357,0-.613.083-.769.25s-.233.488-.233.962v.659h1.846v1.942h-1.846v7.392h-2.47v-7.392h-1.371v-1.942Z"/>
      <path class="cls-4" d="M456.377,182.77v-2.285h2.47v2.285h-2.47ZM456.377,193.37v-9.334h2.47v9.334h-2.47Z"/>
      <path class="cls-4" d="M469.517,186.796l-2.435.439c-.082-.486-.268-.853-.558-1.099s-.667-.369-1.13-.369c-.615,0-1.105.212-1.472.637s-.55,1.135-.55,2.131c0,1.107.187,1.89.559,2.347s.871.686,1.498.686c.469,0,.853-.133,1.151-.399s.51-.726.633-1.376l2.426.413c-.252,1.113-.735,1.954-1.45,2.522s-1.673.853-2.874.853c-1.365,0-2.453-.431-3.265-1.292s-1.218-2.054-1.218-3.577c0-1.541.407-2.741,1.222-3.599s1.916-1.288,3.305-1.288c1.137,0,2.041.245,2.712.734s1.152,1.235,1.445,2.237Z"/>
      <path class="cls-4" d="M471.389,182.77v-2.285h2.47v2.285h-2.47ZM471.389,193.37v-9.334h2.47v9.334h-2.47Z"/>
      <path class="cls-4" d="M481.795,190.399l2.461.413c-.316.902-.815,1.59-1.498,2.062s-1.537.707-2.562.707c-1.623,0-2.824-.53-3.604-1.591-.615-.85-.923-1.922-.923-3.217,0-1.547.404-2.758,1.213-3.634s1.831-1.314,3.067-1.314c1.389,0,2.484.458,3.287,1.375s1.187,2.322,1.151,4.214h-6.188c.018.732.217,1.303.598,1.709.381.408.855.611,1.424.611.387,0,.712-.105.976-.316s.463-.551.598-1.02ZM481.936,187.903c-.018-.715-.202-1.258-.554-1.63s-.779-.558-1.283-.558c-.539,0-.984.196-1.336.589s-.524.926-.519,1.6h3.691Z"/>
      <path class="cls-4" d="M499.54,186.796l-2.435.439c-.082-.486-.268-.853-.558-1.099s-.667-.369-1.13-.369c-.615,0-1.105.212-1.472.637s-.55,1.135-.55,2.131c0,1.107.187,1.89.559,2.347s.871.686,1.498.686c.469,0,.853-.133,1.151-.399s.51-.726.633-1.376l2.426.413c-.252,1.113-.735,1.954-1.45,2.522s-1.673.853-2.874.853c-1.365,0-2.453-.431-3.265-1.292s-1.218-2.054-1.218-3.577c0-1.541.407-2.741,1.222-3.599s1.916-1.288,3.305-1.288c1.137,0,2.041.245,2.712.734s1.152,1.235,1.445,2.237Z"/>
      <path class="cls-4" d="M503.258,186.883l-2.241-.404c.252-.902.686-1.57,1.301-2.004s1.529-.65,2.742-.65c1.102,0,1.922.13,2.461.391s.919.592,1.139.993.329,1.138.329,2.21l-.026,2.883c0,.82.04,1.426.119,1.815s.227.807.443,1.252h-2.443c-.064-.164-.144-.407-.237-.729-.041-.146-.07-.243-.088-.29-.422.41-.873.718-1.354.923s-.993.308-1.538.308c-.961,0-1.718-.261-2.271-.782s-.831-1.181-.831-1.978c0-.527.126-.998.378-1.41.252-.414.605-.73,1.06-.949.454-.221,1.108-.412,1.964-.576,1.154-.217,1.954-.419,2.399-.606v-.246c0-.475-.117-.813-.352-1.015s-.677-.303-1.327-.303c-.439,0-.782.086-1.028.259s-.445.476-.598.91ZM506.563,188.887c-.316.105-.817.231-1.503.378s-1.134.29-1.345.431c-.322.229-.483.519-.483.87,0,.346.129.645.387.896s.586.378.984.378c.445,0,.87-.146,1.274-.439.299-.223.495-.495.589-.817.064-.211.097-.612.097-1.204v-.492Z"/>
      <path class="cls-4" d="M511.423,193.37v-12.885h2.47v12.885h-2.47Z"/>
      <path class="cls-4" d="M516.424,182.77v-2.285h2.47v2.285h-2.47ZM516.424,193.37v-9.334h2.47v9.334h-2.47Z"/>
      <path class="cls-4" d="M526.83,190.399l2.461.413c-.316.902-.815,1.59-1.498,2.062s-1.537.707-2.562.707c-1.623,0-2.824-.53-3.604-1.591-.615-.85-.923-1.922-.923-3.217,0-1.547.404-2.758,1.213-3.634s1.831-1.314,3.067-1.314c1.389,0,2.484.458,3.287,1.375s1.187,2.322,1.151,4.214h-6.188c.018.732.217,1.303.598,1.709.381.408.855.611,1.424.611.387,0,.712-.105.976-.316s.463-.551.598-1.02ZM526.971,187.903c-.018-.715-.202-1.258-.554-1.63s-.779-.558-1.283-.558c-.539,0-.984.196-1.336.589s-.524.926-.519,1.6h3.691Z"/>
      <path class="cls-4" d="M539.926,193.37h-2.47v-4.764c0-1.008-.053-1.66-.158-1.956s-.276-.526-.514-.69-.523-.246-.857-.246c-.428,0-.812.117-1.151.352s-.572.545-.698.932-.189,1.102-.189,2.145v4.228h-2.47v-9.334h2.294v1.371c.814-1.055,1.84-1.582,3.076-1.582.545,0,1.043.098,1.494.294s.793.447,1.024.751.393.65.483,1.037.136.94.136,1.661v5.801Z"/>
      <path class="cls-4" d="M546.711,184.036v1.969h-1.688v3.762c0,.762.017,1.206.049,1.332s.105.229.22.312.253.123.417.123c.229,0,.56-.079.993-.237l.211,1.916c-.574.246-1.225.369-1.951.369-.445,0-.847-.074-1.204-.225-.357-.148-.619-.342-.786-.58-.167-.236-.283-.558-.348-.962-.053-.287-.079-.867-.079-1.74v-4.069h-1.134v-1.969h1.134v-1.854l2.479-1.441v3.296h1.688Z"/>
      <path class="cls-4" d="M553.83,190.399l2.461.413c-.316.902-.815,1.59-1.498,2.062s-1.537.707-2.562.707c-1.623,0-2.824-.53-3.604-1.591-.615-.85-.923-1.922-.923-3.217,0-1.547.404-2.758,1.213-3.634s1.831-1.314,3.067-1.314c1.389,0,2.484.458,3.287,1.375s1.187,2.322,1.151,4.214h-6.188c.018.732.217,1.303.598,1.709.381.408.855.611,1.424.611.387,0,.712-.105.976-.316s.463-.551.598-1.02ZM553.971,187.903c-.018-.715-.202-1.258-.554-1.63s-.779-.558-1.283-.558c-.539,0-.984.196-1.336.589s-.524.926-.519,1.6h3.691Z"/>
    </g>
    <g>
      <rect class="cls-1" x="577.128" y="99.634" width="192.051" height="109.783"/>
      <path class="cls-4" d="M593.292,124.377l2.531-.246c.152.85.461,1.474.927,1.872s1.095.598,1.886.598c.838,0,1.469-.177,1.894-.532s.638-.769.638-1.244c0-.305-.09-.564-.269-.778s-.49-.4-.936-.558c-.305-.105-.999-.293-2.083-.562-1.395-.346-2.373-.771-2.936-1.274-.791-.709-1.187-1.573-1.187-2.593,0-.656.186-1.27.558-1.841s.908-1.006,1.608-1.305,1.546-.448,2.536-.448c1.617,0,2.834.354,3.651,1.063s1.247,1.655,1.288,2.839l-2.602.114c-.111-.662-.351-1.138-.717-1.428s-.915-.435-1.647-.435c-.756,0-1.348.155-1.775.466-.275.199-.413.466-.413.8,0,.305.129.565.387.782.328.275,1.125.562,2.391.861s2.201.608,2.808.927,1.081.756,1.424,1.31.515,1.238.515,2.052c0,.738-.205,1.43-.615,2.074s-.99,1.124-1.74,1.437-1.685.47-2.804.47c-1.629,0-2.88-.376-3.753-1.129s-1.395-1.85-1.564-3.292Z"/>
      <path class="cls-4" d="M612.083,128.569v-1.397c-.34.498-.787.891-1.341,1.178s-1.138.431-1.753.431c-.627,0-1.189-.138-1.688-.413s-.858-.662-1.081-1.16-.334-1.187-.334-2.065v-5.906h2.47v4.289c0,1.312.045,2.117.136,2.413s.257.53.497.703.545.259.914.259c.422,0,.8-.116,1.134-.347s.562-.519.686-.861.185-1.182.185-2.518v-3.938h2.47v9.334h-2.294Z"/>
      <path class="cls-4" d="M625.495,128.569h-2.294v-1.371c-.381.533-.831.93-1.35,1.191s-1.041.391-1.568.391c-1.072,0-1.991-.432-2.756-1.296s-1.146-2.07-1.146-3.617c0-1.582.372-2.785,1.116-3.608s1.685-1.235,2.821-1.235c1.043,0,1.945.434,2.707,1.301v-4.641h2.47v12.885ZM618.903,123.7c0,.996.138,1.717.413,2.162.398.645.955.967,1.67.967.568,0,1.052-.242,1.45-.725s.598-1.206.598-2.167c0-1.072-.193-1.844-.58-2.316s-.882-.708-1.485-.708c-.586,0-1.077.233-1.473.699s-.593,1.162-.593,2.087Z"/>
      <path class="cls-4" d="M636.49,128.569h-2.294v-1.371c-.381.533-.831.93-1.35,1.191s-1.041.391-1.568.391c-1.072,0-1.991-.432-2.756-1.296s-1.146-2.07-1.146-3.617c0-1.582.372-2.785,1.116-3.608s1.685-1.235,2.821-1.235c1.043,0,1.945.434,2.707,1.301v-4.641h2.47v12.885ZM629.898,123.7c0,.996.138,1.717.413,2.162.398.645.955.967,1.67.967.568,0,1.052-.242,1.45-.725s.598-1.206.598-2.167c0-1.072-.193-1.844-.58-2.316s-.882-.708-1.485-.708c-.586,0-1.077.233-1.473.699s-.593,1.162-.593,2.087Z"/>
      <path class="cls-4" d="M644.33,125.599l2.461.413c-.316.902-.816,1.589-1.499,2.061s-1.536.708-2.562.708c-1.623,0-2.824-.53-3.604-1.591-.615-.85-.923-1.922-.923-3.217,0-1.547.404-2.758,1.213-3.634s1.831-1.314,3.067-1.314c1.389,0,2.484.458,3.287,1.375s1.187,2.322,1.151,4.214h-6.188c.018.732.217,1.302.598,1.709s.855.611,1.424.611c.387,0,.712-.105.976-.316s.463-.551.598-1.02ZM644.471,123.103c-.018-.715-.202-1.258-.554-1.63s-.779-.558-1.283-.558c-.539,0-.984.196-1.336.589s-.524.926-.519,1.6h3.691Z"/>
      <path class="cls-4" d="M657.426,128.569h-2.47v-4.764c0-1.008-.053-1.66-.158-1.956s-.277-.526-.515-.69-.522-.246-.856-.246c-.428,0-.812.117-1.151.352s-.573.545-.699.932-.188,1.102-.188,2.145v4.228h-2.47v-9.334h2.294v1.371c.814-1.055,1.84-1.582,3.076-1.582.545,0,1.043.098,1.494.294s.792.447,1.023.751.393.65.483,1.037.137.94.137,1.661v5.801Z"/>
      <path class="cls-4" d="M664.747,119.235h2.276v1.274c.814-.99,1.784-1.485,2.909-1.485.598,0,1.116.123,1.556.369s.8.618,1.081,1.116c.41-.498.853-.87,1.327-1.116s.981-.369,1.521-.369c.686,0,1.266.139,1.74.417s.829.687,1.063,1.226c.17.398.255,1.043.255,1.934v5.968h-2.47v-5.335c0-.926-.085-1.523-.255-1.793-.229-.352-.58-.527-1.055-.527-.346,0-.671.105-.976.316s-.524.52-.659.927-.202,1.05-.202,1.929v4.482h-2.47v-5.115c0-.908-.044-1.494-.132-1.758s-.225-.46-.409-.589-.435-.193-.751-.193c-.381,0-.724.103-1.028.308s-.523.501-.655.888-.197,1.028-.197,1.925v4.535h-2.47v-9.334Z"/>
      <path class="cls-4" d="M680.365,123.771c0-.82.202-1.614.606-2.382s.977-1.354,1.718-1.758,1.569-.606,2.483-.606c1.412,0,2.569.458,3.472,1.375s1.354,2.076,1.354,3.476c0,1.412-.456,2.583-1.367,3.511s-2.058,1.393-3.44,1.393c-.855,0-1.672-.193-2.448-.58s-1.366-.954-1.771-1.701-.606-1.657-.606-2.729ZM682.896,123.902c0,.926.22,1.635.659,2.127s.981.738,1.626.738,1.185-.246,1.621-.738.655-1.207.655-2.145c0-.914-.219-1.617-.655-2.109s-.977-.738-1.621-.738-1.187.246-1.626.738-.659,1.201-.659,2.127Z"/>
      <path class="cls-4" d="M694.498,128.569l-3.762-9.334h2.593l1.758,4.764.51,1.591c.135-.404.22-.671.255-.8.082-.264.17-.527.264-.791l1.775-4.764h2.54l-3.709,9.334h-2.224Z"/>
      <path class="cls-4" d="M707.348,125.599l2.461.413c-.316.902-.816,1.589-1.499,2.061s-1.536.708-2.562.708c-1.623,0-2.824-.53-3.604-1.591-.615-.85-.923-1.922-.923-3.217,0-1.547.404-2.758,1.213-3.634s1.831-1.314,3.067-1.314c1.389,0,2.484.458,3.287,1.375s1.187,2.322,1.151,4.214h-6.188c.018.732.217,1.302.598,1.709s.855.611,1.424.611c.387,0,.712-.105.976-.316s.463-.551.598-1.02ZM707.488,123.103c-.018-.715-.202-1.258-.554-1.63s-.779-.558-1.283-.558c-.539,0-.984.196-1.336.589s-.524.926-.519,1.6h3.691Z"/>
      <path class="cls-4" d="M711.769,119.235h2.276v1.274c.814-.99,1.784-1.485,2.909-1.485.598,0,1.116.123,1.556.369s.8.618,1.081,1.116c.41-.498.853-.87,1.327-1.116s.981-.369,1.521-.369c.686,0,1.266.139,1.74.417s.829.687,1.063,1.226c.17.398.255,1.043.255,1.934v5.968h-2.47v-5.335c0-.926-.085-1.523-.255-1.793-.229-.352-.58-.527-1.055-.527-.346,0-.671.105-.976.316s-.524.52-.659.927-.202,1.05-.202,1.929v4.482h-2.47v-5.115c0-.908-.044-1.494-.132-1.758s-.225-.46-.409-.589-.435-.193-.751-.193c-.381,0-.724.103-1.028.308s-.523.501-.655.888-.197,1.028-.197,1.925v4.535h-2.47v-9.334Z"/>
      <path class="cls-4" d="M733.363,125.599l2.461.413c-.316.902-.816,1.589-1.499,2.061s-1.536.708-2.562.708c-1.623,0-2.824-.53-3.604-1.591-.615-.85-.923-1.922-.923-3.217,0-1.547.404-2.758,1.213-3.634s1.831-1.314,3.067-1.314c1.389,0,2.484.458,3.287,1.375s1.187,2.322,1.151,4.214h-6.188c.018.732.217,1.302.598,1.709s.855.611,1.424.611c.387,0,.712-.105.976-.316s.463-.551.598-1.02ZM733.504,123.103c-.018-.715-.202-1.258-.554-1.63s-.779-.558-1.283-.558c-.539,0-.984.196-1.336.589s-.524.926-.519,1.6h3.691Z"/>
      <path class="cls-4" d="M746.459,128.569h-2.47v-4.764c0-1.008-.053-1.66-.158-1.956s-.277-.526-.515-.69-.522-.246-.856-.246c-.428,0-.812.117-1.151.352s-.573.545-.699.932-.188,1.102-.188,2.145v4.228h-2.47v-9.334h2.294v1.371c.814-1.055,1.84-1.582,3.076-1.582.545,0,1.043.098,1.494.294s.792.447,1.023.751.393.65.483,1.037.137.94.137,1.661v5.801Z"/>
      <path class="cls-4" d="M753.244,119.235v1.969h-1.688v3.762c0,.762.016,1.206.048,1.332s.105.23.22.312.254.123.418.123c.229,0,.56-.079.993-.237l.211,1.916c-.574.246-1.225.369-1.951.369-.445,0-.847-.075-1.204-.224s-.62-.343-.787-.58-.282-.558-.347-.962c-.053-.287-.079-.867-.079-1.74v-4.069h-1.134v-1.969h1.134v-1.854l2.479-1.441v3.296h1.688Z"/>
      <path class="cls-4" d="M584.454,150.17v-12.885h4.175c1.582,0,2.613.064,3.094.193.738.193,1.356.614,1.854,1.261s.747,1.484.747,2.509c0,.791-.144,1.456-.431,1.995s-.651.962-1.094,1.27-.893.511-1.35.611c-.621.123-1.521.185-2.698.185h-1.696v4.86h-2.602ZM587.056,139.464v3.656h1.424c1.025,0,1.711-.067,2.057-.202s.617-.346.813-.633.294-.621.294-1.002c0-.469-.138-.855-.413-1.16s-.624-.495-1.046-.571c-.311-.059-.935-.088-1.872-.088h-1.257Z"/>
      <path class="cls-4" d="M596.442,150.17v-12.885h2.47v12.885h-2.47Z"/>
      <path class="cls-4" d="M600.872,145.371c0-.82.202-1.614.606-2.382s.978-1.354,1.719-1.758,1.568-.606,2.482-.606c1.412,0,2.569.458,3.472,1.375s1.354,2.076,1.354,3.476c0,1.412-.455,2.583-1.366,3.511s-2.059,1.393-3.441,1.393c-.855,0-1.671-.193-2.447-.58s-1.367-.954-1.771-1.701-.606-1.657-.606-2.729ZM602.639,139.183v-2.118h2.118v2.118h-2.118ZM603.403,145.503c0,.926.22,1.635.659,2.127s.981.738,1.626.738,1.186-.246,1.622-.738.654-1.207.654-2.145c0-.914-.218-1.617-.654-2.109s-.978-.738-1.622-.738-1.187.246-1.626.738-.659,1.201-.659,2.127ZM606.418,139.183v-2.118h2.127v2.118h-2.127Z"/>
      <path class="cls-4" d="M616.719,140.836v1.969h-1.688v3.762c0,.762.017,1.206.049,1.332s.105.23.22.312.253.123.417.123c.229,0,.56-.079.993-.237l.211,1.916c-.574.246-1.225.369-1.951.369-.445,0-.847-.075-1.204-.224s-.619-.343-.786-.58-.283-.558-.348-.962c-.053-.287-.079-.867-.079-1.74v-4.069h-1.134v-1.969h1.134v-1.854l2.479-1.441v3.296h1.688Z"/>
      <path class="cls-4" d="M617.439,150.17v-1.925l3.498-4.017c.574-.656.999-1.122,1.274-1.397-.287.018-.665.029-1.134.035l-3.296.018v-2.048h7.717v1.749l-3.568,4.113-1.257,1.362c.686-.041,1.11-.062,1.274-.062h3.823v2.171h-8.332Z"/>
      <path class="cls-4" d="M627.433,150.17v-12.885h2.47v12.885h-2.47Z"/>
      <path class="cls-4" d="M632.434,139.57v-2.285h2.47v2.285h-2.47ZM632.434,150.17v-9.334h2.47v9.334h-2.47Z"/>
      <path class="cls-4" d="M645.573,143.595l-2.435.439c-.082-.486-.268-.853-.558-1.099s-.667-.369-1.13-.369c-.615,0-1.105.212-1.472.637s-.55,1.135-.55,2.131c0,1.107.187,1.89.559,2.347s.871.686,1.498.686c.469,0,.853-.133,1.151-.4s.51-.725.633-1.375l2.426.413c-.252,1.113-.735,1.954-1.45,2.522s-1.673.853-2.874.853c-1.365,0-2.453-.431-3.265-1.292s-1.218-2.054-1.218-3.577c0-1.541.407-2.741,1.222-3.599s1.916-1.288,3.305-1.288c1.137,0,2.041.245,2.712.734s1.152,1.235,1.445,2.237Z"/>
      <path class="cls-4" d="M649.906,137.285v4.737c.797-.932,1.749-1.397,2.856-1.397.568,0,1.081.105,1.538.316s.802.48,1.033.809.39.691.475,1.09.127,1.017.127,1.854v5.476h-2.47v-4.931c0-.979-.047-1.6-.141-1.863s-.259-.473-.496-.628-.535-.233-.893-.233c-.41,0-.776.1-1.099.299s-.558.5-.707.901-.225.995-.225,1.78v4.676h-2.47v-12.885h2.47Z"/>
      <path class="cls-4" d="M663.846,147.199l2.461.413c-.316.902-.815,1.589-1.498,2.061s-1.537.708-2.562.708c-1.623,0-2.824-.53-3.604-1.591-.615-.85-.923-1.922-.923-3.217,0-1.547.404-2.758,1.213-3.634s1.831-1.314,3.067-1.314c1.389,0,2.484.458,3.287,1.375s1.187,2.322,1.151,4.214h-6.188c.018.732.217,1.302.598,1.709s.855.611,1.424.611c.387,0,.712-.105.976-.316s.463-.551.598-1.02ZM663.986,144.703c-.018-.715-.202-1.258-.554-1.63s-.779-.558-1.283-.558c-.539,0-.984.196-1.336.589s-.524.926-.519,1.6h3.691Z"/>
      <path class="cls-4" d="M673.479,137.285h5.15c1.02,0,1.78.042,2.281.127s.949.262,1.345.532.725.628.988,1.077.396.951.396,1.507c0,.604-.162,1.157-.487,1.661s-.767.882-1.323,1.134c.785.229,1.389.618,1.811,1.169s.633,1.198.633,1.942c0,.586-.136,1.156-.408,1.709s-.645.996-1.116,1.327-1.054.535-1.745.611c-.434.047-1.479.076-3.138.088h-4.386v-12.885ZM676.08,139.429v2.979h1.705c1.014,0,1.644-.015,1.89-.044.445-.053.796-.207,1.051-.461s.382-.59.382-1.006c0-.398-.109-.722-.329-.971s-.547-.4-.98-.453c-.258-.029-.999-.044-2.224-.044h-1.494ZM676.08,144.553v3.445h2.408c.938,0,1.532-.026,1.784-.079.387-.07.702-.242.945-.514s.364-.637.364-1.094c0-.387-.094-.715-.281-.984s-.458-.466-.812-.589-1.124-.185-2.308-.185h-2.101Z"/>
      <path class="cls-4" d="M691.856,147.199l2.461.413c-.316.902-.815,1.589-1.498,2.061s-1.537.708-2.562.708c-1.623,0-2.824-.53-3.604-1.591-.615-.85-.923-1.922-.923-3.217,0-1.547.404-2.758,1.213-3.634s1.831-1.314,3.067-1.314c1.389,0,2.484.458,3.287,1.375s1.187,2.322,1.151,4.214h-6.188c.018.732.217,1.302.598,1.709s.855.611,1.424.611c.387,0,.712-.105.976-.316s.463-.551.598-1.02ZM691.997,144.703c-.018-.715-.202-1.258-.554-1.63s-.779-.558-1.283-.558c-.539,0-.984.196-1.336.589s-.524.926-.519,1.6h3.691Z"/>
      <path class="cls-4" d="M698.202,150.17l-2.953-9.334h2.399l1.749,6.117,1.608-6.117h2.382l1.556,6.117,1.784-6.117h2.435l-2.997,9.334h-2.373l-1.608-6.003-1.582,6.003h-2.399Z"/>
      <path class="cls-4" d="M715.868,147.199l2.461.413c-.316.902-.815,1.589-1.498,2.061s-1.537.708-2.562.708c-1.623,0-2.824-.53-3.604-1.591-.615-.85-.923-1.922-.923-3.217,0-1.547.404-2.758,1.213-3.634s1.831-1.314,3.067-1.314c1.389,0,2.484.458,3.287,1.375s1.187,2.322,1.151,4.214h-6.188c.018.732.217,1.302.598,1.709s.855.611,1.424.611c.387,0,.712-.105.976-.316s.463-.551.598-1.02ZM716.009,144.703c-.018-.715-.202-1.258-.554-1.63s-.779-.558-1.283-.558c-.539,0-.984.196-1.336.589s-.524.926-.519,1.6h3.691Z"/>
      <path class="cls-4" d="M720.245,150.785l2.821.343c.047.328.155.554.325.677.234.176.604.264,1.107.264.645,0,1.128-.097,1.45-.29.217-.129.381-.337.492-.624.076-.205.114-.583.114-1.134v-1.362c-.738,1.008-1.67,1.512-2.795,1.512-1.254,0-2.247-.53-2.979-1.591-.574-.838-.861-1.881-.861-3.129,0-1.564.377-2.76,1.13-3.586s1.688-1.239,2.808-1.239c1.154,0,2.106.507,2.856,1.521v-1.31h2.312v8.376c0,1.102-.091,1.925-.272,2.47s-.437.973-.765,1.283-.766.554-1.313.729-1.241.264-2.079.264c-1.582,0-2.704-.271-3.366-.813s-.993-1.229-.993-2.061c0-.082.003-.182.009-.299ZM722.451,145.309c0,.99.192,1.715.576,2.175s.856.69,1.419.69c.604,0,1.113-.236,1.529-.708s.624-1.17.624-2.096c0-.967-.199-1.685-.598-2.153s-.902-.703-1.512-.703c-.592,0-1.079.23-1.463.69s-.576,1.162-.576,2.105Z"/>
      <path class="cls-4" d="M737.612,150.17v-1.397c-.34.498-.786.891-1.34,1.178s-1.139.431-1.754.431c-.627,0-1.189-.138-1.688-.413s-.858-.662-1.081-1.16-.334-1.187-.334-2.065v-5.906h2.47v4.289c0,1.312.046,2.117.137,2.413s.256.53.496.703.545.259.914.259c.422,0,.8-.116,1.134-.347s.562-.519.686-.861.185-1.182.185-2.518v-3.938h2.47v9.334h-2.294Z"/>
      <path class="cls-4" d="M750.954,150.17h-2.47v-4.764c0-1.008-.053-1.66-.158-1.956s-.276-.526-.514-.69-.523-.246-.857-.246c-.428,0-.812.117-1.151.352s-.572.545-.698.932-.189,1.102-.189,2.145v4.228h-2.47v-9.334h2.294v1.371c.814-1.055,1.84-1.582,3.076-1.582.545,0,1.043.098,1.494.294s.793.447,1.024.751.393.65.483,1.037.136.94.136,1.661v5.801Z"/>
      <path class="cls-4" d="M753.23,150.785l2.821.343c.047.328.155.554.325.677.234.176.604.264,1.107.264.645,0,1.128-.097,1.45-.29.217-.129.381-.337.492-.624.076-.205.114-.583.114-1.134v-1.362c-.738,1.008-1.67,1.512-2.795,1.512-1.254,0-2.247-.53-2.979-1.591-.574-.838-.861-1.881-.861-3.129,0-1.564.377-2.76,1.13-3.586s1.688-1.239,2.808-1.239c1.154,0,2.106.507,2.856,1.521v-1.31h2.312v8.376c0,1.102-.091,1.925-.272,2.47s-.437.973-.765,1.283-.766.554-1.313.729-1.241.264-2.079.264c-1.582,0-2.704-.271-3.366-.813s-.993-1.229-.993-2.061c0-.082.003-.182.009-.299ZM755.437,145.309c0,.99.192,1.715.576,2.175s.856.69,1.419.69c.604,0,1.113-.236,1.529-.708s.624-1.17.624-2.096c0-.967-.199-1.685-.598-2.153s-.902-.703-1.512-.703c-.592,0-1.079.23-1.463.69s-.576,1.162-.576,2.105Z"/>
      <path class="cls-4" d="M586.419,171.769v-12.885h3.894l2.338,8.789,2.312-8.789h3.902v12.885h-2.417v-10.143l-2.558,10.143h-2.505l-2.549-10.143v10.143h-2.417Z"/>
      <path class="cls-4" d="M600.859,166.97c0-.82.202-1.614.606-2.382s.977-1.354,1.718-1.758,1.569-.606,2.483-.606c1.412,0,2.569.458,3.472,1.375s1.354,2.076,1.354,3.476c0,1.412-.456,2.583-1.367,3.511s-2.058,1.393-3.44,1.393c-.855,0-1.672-.193-2.448-.58s-1.366-.954-1.771-1.701-.606-1.657-.606-2.729ZM603.391,167.102c0,.926.22,1.635.659,2.127s.981.738,1.626.738,1.185-.246,1.621-.738.655-1.207.655-2.145c0-.914-.219-1.617-.655-2.109s-.977-.738-1.621-.738-1.187.246-1.626.738-.659,1.201-.659,2.127Z"/>
      <path class="cls-4" d="M618.569,171.769v-1.397c-.34.498-.787.891-1.341,1.178s-1.138.431-1.753.431c-.627,0-1.189-.138-1.688-.413s-.858-.662-1.081-1.16-.334-1.187-.334-2.065v-5.906h2.47v4.289c0,1.312.045,2.117.136,2.413s.257.53.497.703.545.259.914.259c.422,0,.8-.116,1.134-.347s.562-.519.686-.861.185-1.182.185-2.518v-3.938h2.47v9.334h-2.294Z"/>
      <path class="cls-4" d="M625.987,171.769l-3.762-9.334h2.593l1.758,4.764.51,1.591c.135-.404.22-.671.255-.8.082-.264.17-.527.264-.791l1.775-4.764h2.54l-3.709,9.334h-2.224Z"/>
      <path class="cls-4" d="M638.837,168.798l2.461.413c-.316.902-.816,1.589-1.499,2.061s-1.536.708-2.562.708c-1.623,0-2.824-.53-3.604-1.591-.615-.85-.923-1.922-.923-3.217,0-1.547.404-2.758,1.213-3.634s1.831-1.314,3.067-1.314c1.389,0,2.484.458,3.287,1.375s1.187,2.322,1.151,4.214h-6.188c.018.732.217,1.302.598,1.709s.855.611,1.424.611c.387,0,.712-.105.976-.316s.463-.551.598-1.02ZM638.978,166.302c-.018-.715-.202-1.258-.554-1.63s-.779-.558-1.283-.558c-.539,0-.984.196-1.336.589s-.524.926-.519,1.6h3.691Z"/>
      <path class="cls-4" d="M643.258,162.435h2.276v1.274c.814-.99,1.784-1.485,2.909-1.485.598,0,1.116.123,1.556.369s.8.618,1.081,1.116c.41-.498.853-.87,1.327-1.116s.981-.369,1.521-.369c.686,0,1.266.139,1.74.417s.829.687,1.063,1.226c.17.398.255,1.043.255,1.934v5.968h-2.47v-5.335c0-.926-.085-1.523-.255-1.793-.229-.352-.58-.527-1.055-.527-.346,0-.671.105-.976.316s-.524.52-.659.927-.202,1.05-.202,1.929v4.482h-2.47v-5.115c0-.908-.044-1.494-.132-1.758s-.225-.46-.409-.589-.435-.193-.751-.193c-.381,0-.724.103-1.028.308s-.523.501-.655.888-.197,1.028-.197,1.925v4.535h-2.47v-9.334Z"/>
      <path class="cls-4" d="M664.853,168.798l2.461.413c-.316.902-.816,1.589-1.499,2.061s-1.536.708-2.562.708c-1.623,0-2.824-.53-3.604-1.591-.615-.85-.923-1.922-.923-3.217,0-1.547.404-2.758,1.213-3.634s1.831-1.314,3.067-1.314c1.389,0,2.484.458,3.287,1.375s1.187,2.322,1.151,4.214h-6.188c.018.732.217,1.302.598,1.709s.855.611,1.424.611c.387,0,.712-.105.976-.316s.463-.551.598-1.02ZM664.993,166.302c-.018-.715-.202-1.258-.554-1.63s-.779-.558-1.283-.558c-.539,0-.984.196-1.336.589s-.524.926-.519,1.6h3.691Z"/>
      <path class="cls-4" d="M677.948,171.769h-2.47v-4.764c0-1.008-.053-1.66-.158-1.956s-.277-.526-.515-.69-.522-.246-.856-.246c-.428,0-.812.117-1.151.352s-.573.545-.699.932-.188,1.102-.188,2.145v4.228h-2.47v-9.334h2.294v1.371c.814-1.055,1.84-1.582,3.076-1.582.545,0,1.043.098,1.494.294s.792.447,1.023.751.393.65.483,1.037.137.94.137,1.661v5.801Z"/>
      <path class="cls-4" d="M684.733,162.435v1.969h-1.688v3.762c0,.762.016,1.206.048,1.332s.105.23.22.312.254.123.418.123c.229,0,.56-.079.993-.237l.211,1.916c-.574.246-1.225.369-1.951.369-.445,0-.847-.075-1.204-.224s-.62-.343-.787-.58-.282-.558-.347-.962c-.053-.287-.079-.867-.079-1.74v-4.069h-1.134v-1.969h1.134v-1.854l2.479-1.441v3.296h1.688Z"/>
      <path class="cls-4" d="M691.343,171.769v-12.885h2.47v4.641c.762-.867,1.664-1.301,2.707-1.301,1.137,0,2.077.412,2.821,1.235s1.116,2.005,1.116,3.546c0,1.594-.38,2.821-1.139,3.683s-1.68,1.292-2.764,1.292c-.533,0-1.06-.133-1.578-.4s-.965-.661-1.34-1.182v1.371h-2.294ZM693.795,166.9c0,.967.152,1.682.457,2.145.428.656.996.984,1.705.984.545,0,1.009-.233,1.393-.699s.576-1.2.576-2.202c0-1.066-.193-1.835-.58-2.307s-.882-.708-1.485-.708c-.592,0-1.084.23-1.477.69s-.589,1.159-.589,2.096Z"/>
      <path class="cls-4" d="M704.808,171.769h-2.47v-9.334h2.294v1.327c.393-.627.745-1.04,1.059-1.239s.67-.299,1.068-.299c.562,0,1.104.155,1.626.466l-.765,2.153c-.416-.27-.803-.404-1.16-.404-.346,0-.639.095-.879.286s-.43.535-.567,1.033-.206,1.541-.206,3.129v2.883Z"/>
      <path class="cls-4" d="M715.592,171.769v-1.397c-.34.498-.787.891-1.341,1.178s-1.138.431-1.753.431c-.627,0-1.189-.138-1.688-.413s-.858-.662-1.081-1.16-.334-1.187-.334-2.065v-5.906h2.47v4.289c0,1.312.045,2.117.136,2.413s.257.53.497.703.545.259.914.259c.422,0,.8-.116,1.134-.347s.562-.519.686-.861.185-1.182.185-2.518v-3.938h2.47v9.334h-2.294Z"/>
      <path class="cls-4" d="M719.573,169.106l2.479-.378c.105.48.319.845.642,1.094s.773.374,1.354.374c.639,0,1.119-.117,1.441-.352.217-.164.325-.384.325-.659,0-.188-.059-.343-.176-.466-.123-.117-.398-.226-.826-.325-1.992-.439-3.255-.841-3.788-1.204-.738-.504-1.107-1.204-1.107-2.101,0-.809.319-1.488.958-2.039s1.629-.826,2.971-.826c1.277,0,2.227.208,2.848.624s1.049,1.031,1.283,1.846l-2.329.431c-.1-.363-.289-.642-.567-.835s-.675-.29-1.19-.29c-.65,0-1.116.091-1.397.272-.188.129-.281.296-.281.501,0,.176.082.325.246.448.223.164.991.396,2.307.694s2.234.665,2.756,1.099c.516.439.773,1.052.773,1.837,0,.855-.357,1.591-1.072,2.206s-1.772.923-3.173.923c-1.271,0-2.278-.258-3.02-.773s-1.226-1.216-1.454-2.101Z"/>
      <path class="cls-4" d="M736.554,175.32v-4.693c-.322.416-.724.746-1.204.989s-.999.365-1.556.365c-1.061,0-1.934-.398-2.619-1.195-.809-.932-1.213-2.194-1.213-3.788,0-1.5.379-2.67,1.138-3.511s1.701-1.261,2.826-1.261c.621,0,1.158.132,1.612.396s.857.662,1.209,1.195v-1.38h2.276v12.885h-2.47ZM736.633,166.988c0-.955-.195-1.666-.585-2.131s-.877-.699-1.463-.699c-.598,0-1.098.237-1.499.712s-.602,1.228-.602,2.259c0,1.025.193,1.765.58,2.219s.864.681,1.433.681,1.066-.255,1.494-.765.642-1.269.642-2.276Z"/>
      <path class="cls-4" d="M747.593,171.769v-1.397c-.34.498-.787.891-1.341,1.178s-1.138.431-1.753.431c-.627,0-1.189-.138-1.688-.413s-.858-.662-1.081-1.16-.334-1.187-.334-2.065v-5.906h2.47v4.289c0,1.312.045,2.117.136,2.413s.257.53.497.703.545.259.914.259c.422,0,.8-.116,1.134-.347s.562-.519.686-.861.185-1.182.185-2.518v-3.938h2.47v9.334h-2.294Z"/>
      <path class="cls-4" d="M757.85,168.798l2.461.413c-.316.902-.816,1.589-1.499,2.061s-1.536.708-2.562.708c-1.623,0-2.824-.53-3.604-1.591-.615-.85-.923-1.922-.923-3.217,0-1.547.404-2.758,1.213-3.634s1.831-1.314,3.067-1.314c1.389,0,2.484.458,3.287,1.375s1.187,2.322,1.151,4.214h-6.188c.018.732.217,1.302.598,1.709s.855.611,1.424.611c.387,0,.712-.105.976-.316s.463-.551.598-1.02ZM757.99,166.302c-.018-.715-.202-1.258-.554-1.63s-.779-.558-1.283-.558c-.539,0-.984.196-1.336.589s-.524.926-.519,1.6h3.691Z"/>
      <path class="cls-4" d="M580.926,193.37v-12.885h3.894l2.338,8.789,2.312-8.789h3.902v12.885h-2.417v-10.143l-2.558,10.143h-2.505l-2.549-10.143v10.143h-2.417Z"/>
      <path class="cls-4" d="M595.366,188.571c0-.82.202-1.614.606-2.382s.977-1.354,1.718-1.758,1.569-.606,2.483-.606c1.412,0,2.569.458,3.472,1.375s1.354,2.076,1.354,3.476c0,1.412-.456,2.583-1.367,3.512s-2.058,1.393-3.44,1.393c-.855,0-1.672-.193-2.448-.58s-1.366-.953-1.771-1.701c-.404-.746-.606-1.656-.606-2.729ZM597.897,188.703c0,.926.22,1.635.659,2.127s.981.738,1.626.738,1.185-.246,1.621-.738.655-1.207.655-2.145c0-.914-.219-1.617-.655-2.109s-.977-.738-1.621-.738-1.187.246-1.626.738-.659,1.201-.659,2.127Z"/>
      <path class="cls-4" d="M609.499,193.37l-3.762-9.334h2.593l1.758,4.764.51,1.591c.135-.404.22-.671.255-.8.082-.264.17-.527.264-.791l1.775-4.764h2.54l-3.709,9.334h-2.224Z"/>
      <path class="cls-4" d="M616.943,182.77v-2.285h2.47v2.285h-2.47ZM616.943,193.37v-9.334h2.47v9.334h-2.47Z"/>
      <path class="cls-4" d="M621.76,184.036h2.276v1.274c.814-.99,1.784-1.485,2.909-1.485.598,0,1.116.123,1.556.369s.8.618,1.081,1.116c.41-.498.853-.87,1.327-1.116s.981-.369,1.521-.369c.686,0,1.266.139,1.74.417s.829.687,1.063,1.226c.17.398.255,1.043.255,1.934v5.968h-2.47v-5.335c0-.926-.085-1.523-.255-1.793-.229-.352-.58-.527-1.055-.527-.346,0-.671.105-.976.316s-.524.52-.659.927c-.135.407-.202,1.05-.202,1.929v4.482h-2.47v-5.115c0-.908-.044-1.494-.132-1.758s-.225-.46-.409-.589-.435-.193-.751-.193c-.381,0-.724.103-1.028.308s-.523.501-.655.888-.197,1.028-.197,1.925v4.535h-2.47v-9.334Z"/>
      <path class="cls-4" d="M637.949,182.77v-2.285h2.47v2.285h-2.47ZM637.949,193.37v-9.334h2.47v9.334h-2.47Z"/>
      <path class="cls-4" d="M648.355,190.399l2.461.413c-.316.902-.816,1.59-1.499,2.062s-1.536.707-2.562.707c-1.623,0-2.824-.53-3.604-1.591-.615-.85-.923-1.922-.923-3.217,0-1.547.404-2.758,1.213-3.634s1.831-1.314,3.067-1.314c1.389,0,2.484.458,3.287,1.375s1.187,2.322,1.151,4.214h-6.188c.018.732.217,1.303.598,1.709.381.408.855.611,1.424.611.387,0,.712-.105.976-.316s.463-.551.598-1.02ZM648.496,187.903c-.018-.715-.202-1.258-.554-1.63s-.779-.558-1.283-.558c-.539,0-.984.196-1.336.589s-.524.926-.519,1.6h3.691Z"/>
      <path class="cls-4" d="M661.451,193.37h-2.47v-4.764c0-1.008-.053-1.66-.158-1.956s-.277-.526-.515-.69-.522-.246-.856-.246c-.428,0-.812.117-1.151.352s-.573.545-.699.932-.188,1.102-.188,2.145v4.228h-2.47v-9.334h2.294v1.371c.814-1.055,1.84-1.582,3.076-1.582.545,0,1.043.098,1.494.294s.792.447,1.023.751.393.65.483,1.037.137.94.137,1.661v5.801Z"/>
      <path class="cls-4" d="M668.236,184.036v1.969h-1.688v3.762c0,.762.016,1.206.048,1.332s.105.229.22.312.254.123.418.123c.229,0,.56-.079.993-.237l.211,1.916c-.574.246-1.225.369-1.951.369-.445,0-.847-.074-1.204-.225-.357-.148-.62-.342-.787-.58-.167-.236-.282-.558-.347-.962-.053-.287-.079-.867-.079-1.74v-4.069h-1.134v-1.969h1.134v-1.854l2.479-1.441v3.296h1.688Z"/>
      <path class="cls-4" d="M669.379,188.571c0-.82.202-1.614.606-2.382s.977-1.354,1.718-1.758,1.569-.606,2.483-.606c1.412,0,2.569.458,3.472,1.375s1.354,2.076,1.354,3.476c0,1.412-.456,2.583-1.367,3.512s-2.058,1.393-3.44,1.393c-.855,0-1.672-.193-2.448-.58s-1.366-.953-1.771-1.701c-.404-.746-.606-1.656-.606-2.729ZM671.91,188.703c0,.926.22,1.635.659,2.127s.981.738,1.626.738,1.185-.246,1.621-.738.655-1.207.655-2.145c0-.914-.219-1.617-.655-2.109s-.977-.738-1.621-.738-1.187.246-1.626.738-.659,1.201-.659,2.127Z"/>
      <path class="cls-4" d="M688.311,193.37h-2.47v-9.334h2.294v1.327c.393-.627.745-1.04,1.059-1.239s.67-.299,1.068-.299c.562,0,1.104.155,1.626.466l-.765,2.153c-.416-.27-.803-.404-1.16-.404-.346,0-.639.095-.879.286s-.43.535-.567,1.033-.206,1.541-.206,3.129v2.883Z"/>
      <path class="cls-4" d="M698.356,190.399l2.461.413c-.316.902-.816,1.59-1.499,2.062s-1.536.707-2.562.707c-1.623,0-2.824-.53-3.604-1.591-.615-.85-.923-1.922-.923-3.217,0-1.547.404-2.758,1.213-3.634s1.831-1.314,3.067-1.314c1.389,0,2.484.458,3.287,1.375s1.187,2.322,1.151,4.214h-6.188c.018.732.217,1.303.598,1.709.381.408.855.611,1.424.611.387,0,.712-.105.976-.316s.463-.551.598-1.02ZM698.497,187.903c-.018-.715-.202-1.258-.554-1.63s-.779-.558-1.283-.558c-.539,0-.984.196-1.336.589s-.524.926-.519,1.6h3.691Z"/>
      <path class="cls-4" d="M702.892,184.036h2.303v1.371c.299-.469.703-.85,1.213-1.143s1.075-.439,1.696-.439c1.084,0,2.004.425,2.76,1.274s1.134,2.033,1.134,3.551c0,1.559-.381,2.771-1.143,3.634-.762.865-1.685,1.297-2.769,1.297-.516,0-.983-.103-1.402-.308s-.859-.557-1.322-1.055v4.702h-2.47v-12.885ZM705.335,188.545c0,1.049.208,1.823.624,2.325.416.5.923.751,1.521.751.574,0,1.052-.229,1.433-.69.381-.459.571-1.214.571-2.263,0-.979-.196-1.705-.589-2.18s-.879-.712-1.459-.712c-.604,0-1.104.233-1.503.699s-.598,1.156-.598,2.07Z"/>
      <path class="cls-4" d="M719.362,190.399l2.461.413c-.316.902-.816,1.59-1.499,2.062s-1.536.707-2.562.707c-1.623,0-2.824-.53-3.604-1.591-.615-.85-.923-1.922-.923-3.217,0-1.547.404-2.758,1.213-3.634s1.831-1.314,3.067-1.314c1.389,0,2.484.458,3.287,1.375s1.187,2.322,1.151,4.214h-6.188c.018.732.217,1.303.598,1.709.381.408.855.611,1.424.611.387,0,.712-.105.976-.316s.463-.551.598-1.02ZM719.503,187.903c-.018-.715-.202-1.258-.554-1.63s-.779-.558-1.283-.558c-.539,0-.984.196-1.336.589s-.524.926-.519,1.6h3.691Z"/>
      <path class="cls-4" d="M732.458,193.37h-2.47v-4.764c0-1.008-.053-1.66-.158-1.956s-.277-.526-.515-.69-.522-.246-.856-.246c-.428,0-.812.117-1.151.352s-.573.545-.699.932-.188,1.102-.188,2.145v4.228h-2.47v-9.334h2.294v1.371c.814-1.055,1.84-1.582,3.076-1.582.545,0,1.043.098,1.494.294s.792.447,1.023.751.393.65.483,1.037.137.94.137,1.661v5.801Z"/>
      <path class="cls-4" d="M739.243,184.036v1.969h-1.688v3.762c0,.762.016,1.206.048,1.332s.105.229.22.312.254.123.418.123c.229,0,.56-.079.993-.237l.211,1.916c-.574.246-1.225.369-1.951.369-.445,0-.847-.074-1.204-.225-.357-.148-.62-.342-.787-.58-.167-.236-.282-.558-.347-.962-.053-.287-.079-.867-.079-1.74v-4.069h-1.134v-1.969h1.134v-1.854l2.479-1.441v3.296h1.688Z"/>
      <path class="cls-4" d="M740.957,182.77v-2.285h2.47v2.285h-2.47ZM740.957,193.37v-9.334h2.47v9.334h-2.47Z"/>
      <path class="cls-4" d="M754.448,193.37h-2.47v-4.764c0-1.008-.053-1.66-.158-1.956s-.277-.526-.515-.69-.522-.246-.856-.246c-.428,0-.812.117-1.151.352s-.573.545-.699.932-.188,1.102-.188,2.145v4.228h-2.47v-9.334h2.294v1.371c.814-1.055,1.84-1.582,3.076-1.582.545,0,1.043.098,1.494.294s.792.447,1.023.751.393.65.483,1.037.137.94.137,1.661v5.801Z"/>
      <path class="cls-4" d="M756.382,188.571c0-.82.202-1.614.606-2.382s.977-1.354,1.718-1.758,1.569-.606,2.483-.606c1.412,0,2.569.458,3.472,1.375s1.354,2.076,1.354,3.476c0,1.412-.456,2.583-1.367,3.512s-2.058,1.393-3.44,1.393c-.855,0-1.672-.193-2.448-.58s-1.366-.953-1.771-1.701c-.404-.746-.606-1.656-.606-2.729ZM758.913,188.703c0,.926.22,1.635.659,2.127s.981.738,1.626.738,1.185-.246,1.621-.738.655-1.207.655-2.145c0-.914-.219-1.617-.655-2.109s-.977-.738-1.621-.738-1.187.246-1.626.738-.659,1.201-.659,2.127Z"/>
    </g>
    <g>
      <path class="cls-4" d="M658.681,56.081c-.498.912-1.357,2.428-1.092,3.467.265,1.092.784,1.209.689,2.618-.106,1.516-1.823,6.573,1.601,5.205,2.406-.965,6.021-4.081,7.834-5.99.498-.53.954-1.177,1.452-1.686,2.141-2.205,3.986-1.876,6.795-2.258,2.237-.307,4.421-.848,6.636-1.23.721-.127,1.866-.138,2.481-.339.392-.127.678-.456.71-.859.127-1.696-3.191-3.085-4.113-4.357-.329-.456-.445-1.23-.837-1.611-.382-.371-2.035-.89-2.608-1.06-8.004-2.449-15.531.975-19.548,8.099ZM662.328,75.11c3.202,2.852,8.809,4.633,13.018,3.52,1.145-.307,1.187-.753.997-1.855-.382-2.247-1.77-6.085-3.318-7.76-2.544-2.756-5.756-2.025-8.385.17-.604.519-1.156,1.145-1.77,1.654-.392.329-1.802,1.209-1.961,1.527-.498.965.763,2.152,1.421,2.746ZM674.646,81.947c-9.499.7-17.746-5.067-20.259-14.216-3.117-11.354,6.043-23.185,17.577-23.842,8.067-.456,15.064,4.018,18.584,11.174,5.799,11.81-3.096,25.951-15.902,26.884ZM689.276,61.858c-.011-.307-.053-.901-.138-1.177-.233-.742-.954-.774-1.622-.7-.668.085-1.505.371-2.205.498-2.905.541-6.445.763-7.665,3.997-1.018,2.714.763,6.721,2.258,9.032,1.209,1.887,2.12,2.905,4.145,1.145,3.223-2.809,5.407-8.555,5.226-12.795Z"/>
      <path class="cls-4" d="M652.745,74.018l2.046,5.226c-.095.074-1.41-.753-1.611-.869-1.251-.763-2.459-1.59-3.679-2.396l1.505-.244c-1.081-1.569-1.993-3.255-2.629-5.057-1.739-4.951-1.558-10.749.594-15.541,0-.095-1.368-.159-1.537-.212-.064-.021-.032-.074-.032-.117l4.325-3.965-.604,5.884c-.339-.254-.562-.763-.837-1.05-.053-.064-.074-.117-.18-.095-.212.742-.519,1.442-.731,2.184-1.442,4.802-1.028,9.87,1.145,14.375.488,1.028,1.134,1.972,1.696,2.958.085.074.35-.912.403-.997.032-.074,0-.106.127-.085Z"/>
    </g>
    <path class="cls-3" d="M693.183,67.6c-1.841,7.589-8.197,13.584-15.834,15.121"/>
    <path class="cls-3" d="M693.307,71.484c-1.986,4.833-5.88,8.79-10.644,10.92"/>
  </g>
  <g id="Layer_2" data-name="Layer 2">
    <path class="cls-2" d="M85.654,3.75l-48.486,83.98c-.385.667.096,1.5.866,1.5h96.972c.77,0,1.251-.833.866-1.5L87.386,3.75c-.385-.667-1.347-.667-1.732,0Z"/>
    <path class="cls-2" d="M476.743,3.75l-48.486,83.98c-.385.667.096,1.5.866,1.5h96.972c.77,0,1.251-.833.866-1.5L478.475,3.75c-.385-.667-1.347-.667-1.732,0Z"/>
    <path class="cls-2" d="M281.199,3.75l-48.486,83.98c-.385.667.096,1.5.866,1.5h96.972c.77,0,1.251-.833.866-1.5L282.931,3.75c-.385-.667-1.347-.667-1.732,0Z"/>
    <path class="cls-2" d="M672.288,3.75l-48.486,83.98c-.385.667.096,1.5.866,1.5h96.972c.77,0,1.251-.833.866-1.5L674.02,3.75c-.385-.667-1.347-.667-1.732,0Z"/>
  </g>
</svg>