<?xml version="1.0" encoding="UTF-8"?>
<svg id="Layer_1" data-name="Layer 1" xmlns="http://www.w3.org/2000/svg" viewBox="0 0 2438 1609">
  <defs>
    <style>
      .cls-1 {
        stroke: #231f20;
        stroke-width: 6px;
      }

      .cls-1, .cls-2, .cls-3, .cls-4, .cls-5, .cls-6 {
        fill: none;
        stroke-linejoin: round;
      }

      .cls-2 {
        stroke: #1cbc00;
      }

      .cls-2, .cls-3, .cls-4, .cls-5 {
        stroke-linecap: round;
        stroke-width: 10px;
      }

      .cls-3 {
        stroke: #ff2400;
      }

      .cls-7 {
        fill: #231f20;
      }

      .cls-8 {
        isolation: isolate;
      }

      .cls-4 {
        stroke: #0570d1;
      }

      .cls-5 {
        stroke: #e84e0f;
      }

      .cls-6 {
        stroke: rgba(89, 89, 89, .75);
        stroke-width: 2px;
      }
    </style>
  </defs>
  <path class="cls-1" d="M223.5,1409.5V171.5"/>
  <path class="cls-1" d="M223.5,1409.5h2141"/>
  <g class="cls-8">
    <g class="cls-8">
      <path class="cls-7" d="M172.4,1169.32c1.86,0,3.35.56,4.47,1.68,1.12,1.12,1.68,2.61,1.68,4.47v6.15c0,1.86-.56,3.35-1.68,4.47-1.12,1.12-2.61,1.68-4.47,1.68h-15.58v-7.79h12.3v-3.28h-11.89v-17.63h20.5v5.33l-2.46,2.46h-8.61v2.46h5.74Z"/>
      <path class="cls-7" d="M181.83,1164.81c0-1.86.56-3.35,1.68-4.47,1.12-1.12,2.61-1.68,4.47-1.68h10.66c1.86,0,3.35.56,4.47,1.68,1.12,1.12,1.68,2.61,1.68,4.47v17.22c0,1.86-.56,3.35-1.68,4.47-1.12,1.12-2.61,1.68-4.47,1.68h-10.66c-1.86,0-3.35-.56-4.47-1.68-1.12-1.12-1.68-2.61-1.68-4.47v-17.22ZM191.26,1166.45v13.94h4.1v-13.94h-4.1Z"/>
    </g>
  </g>
  <g class="cls-8">
    <g class="cls-8">
      <path class="cls-7" d="M142.82,912.23h7.38v28.7h-9.43v-20.5h-5.33v-5.33l7.38-2.87Z"/>
      <path class="cls-7" d="M154.71,917.97c0-1.86.56-3.35,1.68-4.47,1.12-1.12,2.61-1.68,4.47-1.68h10.66c1.86,0,3.35.56,4.47,1.68,1.12,1.12,1.68,2.61,1.68,4.47v17.22c0,1.86-.56,3.35-1.68,4.47-1.12,1.12-2.61,1.68-4.47,1.68h-10.66c-1.86,0-3.35-.56-4.47-1.68-1.12-1.12-1.68-2.61-1.68-4.47v-17.22ZM164.14,919.61v13.94h4.1v-13.94h-4.1Z"/>
      <path class="cls-7" d="M181.77,917.97c0-1.86.56-3.35,1.68-4.47,1.12-1.12,2.61-1.68,4.47-1.68h10.66c1.86,0,3.35.56,4.47,1.68,1.12,1.12,1.68,2.61,1.68,4.47v17.22c0,1.86-.56,3.35-1.68,4.47-1.12,1.12-2.61,1.68-4.47,1.68h-10.66c-1.86,0-3.35-.56-4.47-1.68-1.12-1.12-1.68-2.61-1.68-4.47v-17.22ZM191.2,919.61v13.94h4.1v-13.94h-4.1Z"/>
    </g>
  </g>
  <g class="cls-8">
    <g class="cls-8">
      <path class="cls-7" d="M144.96,665.83h7.38v28.7h-9.43v-20.5h-5.33v-5.33l7.38-2.87Z"/>
      <path class="cls-7" d="M172.43,676.08c1.86,0,3.35.56,4.47,1.68,1.12,1.12,1.68,2.61,1.68,4.47v6.15c0,1.86-.56,3.35-1.68,4.47-1.12,1.12-2.61,1.68-4.47,1.68h-15.58v-7.79h12.3v-3.28h-11.89v-17.63h20.5v5.33l-2.46,2.46h-8.61v2.46h5.74Z"/>
      <path class="cls-7" d="M181.86,671.57c0-1.86.56-3.35,1.68-4.47,1.12-1.12,2.61-1.68,4.47-1.68h10.66c1.86,0,3.35.56,4.47,1.68,1.12,1.12,1.68,2.61,1.68,4.47v17.22c0,1.86-.56,3.35-1.68,4.47-1.12,1.12-2.61,1.68-4.47,1.68h-10.66c-1.86,0-3.35-.56-4.47-1.68-1.12-1.12-1.68-2.61-1.68-4.47v-17.22ZM191.29,673.21v13.94h4.1v-13.94h-4.1Z"/>
    </g>
  </g>
  <g class="cls-8">
    <g class="cls-8">
      <path class="cls-7" d="M181.85,1442.45c0-1.86.56-3.35,1.68-4.47,1.12-1.12,2.61-1.68,4.47-1.68h10.66c1.86,0,3.35.56,4.47,1.68,1.12,1.12,1.68,2.61,1.68,4.47v17.22c0,1.86-.56,3.35-1.68,4.47-1.12,1.12-2.61,1.68-4.47,1.68h-10.66c-1.86,0-3.35-.56-4.47-1.68-1.12-1.12-1.68-2.61-1.68-4.47v-17.22ZM191.28,1444.09v13.94h4.1v-13.94h-4.1Z"/>
    </g>
  </g>
  <g class="cls-8">
    <g class="cls-8">
      <path class="cls-7" d="M452.45,1436.71h7.38v28.7h-9.43v-20.5h-5.33v-5.33l7.38-2.87Z"/>
      <path class="cls-7" d="M464.33,1442.45c0-1.86.56-3.35,1.68-4.47,1.12-1.12,2.61-1.68,4.47-1.68h10.66c1.86,0,3.35.56,4.47,1.68,1.12,1.12,1.68,2.61,1.68,4.47v17.22c0,1.86-.56,3.35-1.68,4.47-1.12,1.12-2.61,1.68-4.47,1.68h-10.66c-1.86,0-3.35-.56-4.47-1.68-1.12-1.12-1.68-2.61-1.68-4.47v-17.22ZM473.77,1444.09v13.94h4.1v-13.94h-4.1Z"/>
    </g>
  </g>
  <g class="cls-8">
    <g class="cls-8">
      <path class="cls-7" d="M733.49,1458.03v8.2h-22.14v-7.79l12.3-11.48v-1.64h-9.43l-2.46-2.46v-5.33h15.58c1.86,0,3.35.56,4.47,1.68,1.12,1.12,1.68,2.61,1.68,4.47v3.28c0,.66-.14,1.3-.41,1.93-.27.63-.6,1.22-.98,1.76-.38.55-.79,1.03-1.21,1.46-.42.42-.79.76-1.09,1l-5.33,4.51v.41h9.02Z"/>
      <path class="cls-7" d="M736.77,1443.27c0-1.86.56-3.35,1.68-4.47,1.12-1.12,2.61-1.68,4.47-1.68h10.66c1.86,0,3.35.56,4.47,1.68,1.12,1.12,1.68,2.61,1.68,4.47v17.22c0,1.86-.56,3.35-1.68,4.47-1.12,1.12-2.61,1.68-4.47,1.68h-10.66c-1.86,0-3.35-.56-4.47-1.68-1.12-1.12-1.68-2.61-1.68-4.47v-17.22ZM746.2,1444.91v13.94h4.1v-13.94h-4.1Z"/>
    </g>
  </g>
  <g class="cls-8">
    <g class="cls-8">
      <path class="cls-7" d="M992.03,1448.19v.41h.82c1.86,0,3.35.56,4.47,1.68s1.68,2.61,1.68,4.47v4.92c0,1.86-.56,3.35-1.68,4.47-1.12,1.12-2.61,1.68-4.47,1.68h-15.99v-7.79h12.71v-2.87h-8.2v-6.15l5.74-3.69v-.41h-7.79l-2.46-2.46v-5.33h20.91v7.38l-5.74,3.69Z"/>
      <path class="cls-7" d="M1002.28,1442.86c0-1.86.56-3.35,1.68-4.47,1.12-1.12,2.61-1.68,4.47-1.68h10.66c1.86,0,3.35.56,4.47,1.68,1.12,1.12,1.68,2.61,1.68,4.47v17.22c0,1.86-.56,3.35-1.68,4.47-1.12,1.12-2.61,1.68-4.47,1.68h-10.66c-1.86,0-3.35-.56-4.47-1.68-1.12-1.12-1.68-2.61-1.68-4.47v-17.22ZM1011.71,1444.5v13.94h4.1v-13.94h-4.1Z"/>
    </g>
  </g>
  <g class="cls-8">
    <g class="cls-8">
      <path class="cls-7" d="M1257.37,1465.41v-4.92h-12.3v-7.38l10.25-16.4h11.89v15.99h2.46v7.79h-2.46v4.92h-9.84ZM1257.37,1447.78l-2.87,4.92h3.28v-4.92h-.41Z"/>
      <path class="cls-7" d="M1272.54,1442.45c0-1.86.56-3.35,1.68-4.47,1.12-1.12,2.61-1.68,4.47-1.68h10.66c1.86,0,3.35.56,4.47,1.68,1.12,1.12,1.68,2.61,1.68,4.47v17.22c0,1.86-.56,3.35-1.68,4.47s-2.61,1.68-4.47,1.68h-10.66c-1.86,0-3.35-.56-4.47-1.68s-1.68-2.61-1.68-4.47v-17.22ZM1281.97,1444.09v13.94h4.1v-13.94h-4.1Z"/>
    </g>
  </g>
  <g class="cls-8">
    <g class="cls-8">
      <path class="cls-7" d="M1529.3,1446.96c1.86,0,3.35.56,4.47,1.68s1.68,2.61,1.68,4.47v6.15c0,1.86-.56,3.35-1.68,4.47s-2.61,1.68-4.47,1.68h-15.58v-7.79h12.3v-3.28h-11.89v-17.63h20.5v5.33l-2.46,2.46h-8.61v2.46h5.74Z"/>
      <path class="cls-7" d="M1538.73,1442.45c0-1.86.56-3.35,1.68-4.47s2.61-1.68,4.47-1.68h10.66c1.86,0,3.35.56,4.47,1.68s1.68,2.61,1.68,4.47v17.22c0,1.86-.56,3.35-1.68,4.47-1.12,1.12-2.61,1.68-4.47,1.68h-10.66c-1.86,0-3.35-.56-4.47-1.68-1.12-1.12-1.68-2.61-1.68-4.47v-17.22ZM1548.16,1444.09v13.94h4.1v-13.94h-4.1Z"/>
    </g>
  </g>
  <g class="cls-8">
    <g class="cls-8">
      <path class="cls-7" d="M1781.72,1443.27c0-1.86.56-3.35,1.68-4.47,1.12-1.12,2.61-1.68,4.47-1.68h15.17v5.33l-2.46,2.46h-9.43v2.87h6.97c1.86,0,3.35.56,4.47,1.68,1.12,1.12,1.68,2.61,1.68,4.47v6.15c0,1.86-.56,3.35-1.68,4.47-1.12,1.12-2.61,1.68-4.47,1.68h-10.25c-1.86,0-3.35-.56-4.47-1.68s-1.68-2.61-1.68-4.47v-16.81ZM1791.15,1454.75v3.69h3.69v-3.69h-3.69Z"/>
      <path class="cls-7" d="M1807.55,1442.86c0-1.86.56-3.35,1.68-4.47s2.61-1.68,4.47-1.68h10.66c1.86,0,3.35.56,4.47,1.68s1.68,2.61,1.68,4.47v17.22c0,1.86-.56,3.35-1.68,4.47-1.12,1.12-2.61,1.68-4.47,1.68h-10.66c-1.86,0-3.35-.56-4.47-1.68-1.12-1.12-1.68-2.61-1.68-4.47v-17.22ZM1816.98,1444.5v13.94h4.1v-13.94h-4.1Z"/>
    </g>
  </g>
  <g class="cls-8">
    <g class="cls-8">
      <path class="cls-7" d="M2053,1465.41v-4.1l7.58-16.4v-.41h-11.27v-7.79h21.73v7.38l-9.39,21.32h-8.65Z"/>
      <path class="cls-7" d="M2073.5,1442.45c0-1.86.56-3.35,1.68-4.47s2.61-1.68,4.47-1.68h10.66c1.86,0,3.35.56,4.47,1.68s1.68,2.61,1.68,4.47v17.22c0,1.86-.56,3.35-1.68,4.47-1.12,1.12-2.61,1.68-4.47,1.68h-10.66c-1.86,0-3.35-.56-4.47-1.68-1.12-1.12-1.68-2.61-1.68-4.47v-17.22ZM2082.93,1444.09v13.94h4.1v-13.94h-4.1Z"/>
    </g>
  </g>
  <g class="cls-8">
    <g class="cls-8">
      <path class="cls-7" d="M58.45,846.68l2.46,2.46v9.64h3.69v-8h8.2v8h8.61v9.43h-28.7v-21.53h5.74Z"/>
      <path class="cls-7" d="M65.01,844.63c-.71,0-1.39-.14-2.03-.43-.64-.29-1.21-.68-1.7-1.17-.49-.49-.88-1.06-1.17-1.7s-.43-1.32-.43-2.03v-10.87c0-.71.14-1.39.43-2.03s.68-1.21,1.17-1.7,1.06-.88,1.7-1.17c.64-.29,1.32-.43,2.03-.43h11.48c.71,0,1.39.14,2.03.43.64.29,1.21.68,1.7,1.17s.88,1.06,1.17,1.7.43,1.32.43,2.03v10.87c0,.71-.14,1.39-.43,2.03s-.68,1.21-1.17,1.7c-.49.49-1.06.88-1.7,1.17-.64.29-1.32.43-2.03.43h-11.48ZM67.06,832.12v3.49h7.38v-3.49h-7.38Z"/>
      <path class="cls-7" d="M59.68,803.84h7.79v6.56h13.94v9.02h-21.32v-6.56l2.25-1.03v-.2c-.49-.25-.94-.56-1.35-.94-.36-.33-.66-.71-.92-1.15s-.39-.97-.39-1.6v-4.1Z"/>
      <path class="cls-7" d="M74.03,792.77v-9.84h7.38v13.53c0,.71-.14,1.39-.43,2.03-.29.64-.68,1.21-1.17,1.7-.49.49-1.06.88-1.7,1.17-.64.29-1.32.43-2.03.43h-10.66c-.71,0-1.39-.14-2.03-.43-.64-.29-1.21-.68-1.7-1.17-.49-.49-.88-1.06-1.17-1.7-.29-.64-.43-1.32-.43-2.03v-13.53h5.12l2.25,2.05v7.79h6.56Z"/>
      <path class="cls-7" d="M81.41,774.93c0,.71-.14,1.39-.43,2.03-.29.64-.68,1.21-1.17,1.7-.49.49-1.06.88-1.7,1.17-.64.29-1.32.43-2.03.43h-11.07c-.71,0-1.39-.14-2.03-.43-.64-.29-1.21-.68-1.7-1.17-.49-.49-.88-1.06-1.17-1.7-.29-.64-.43-1.32-.43-2.03v-10.25c0-.74.14-1.43.43-2.07.29-.64.68-1.21,1.17-1.7.49-.49,1.06-.87,1.7-1.15s1.32-.41,2.03-.41h8.61v11.89h1.23v-10.87h6.56v14.56ZM65.83,771.24h2.05v-2.87h-2.05v2.87Z"/>
      <path class="cls-7" d="M81.41,735.16v-3.69h7.79v13.12h-39.77v-13.12h7.79v3.69h24.19Z"/>
      <path class="cls-7" d="M81.41,714.66l-12.71,4.92v.41l8.61-.82h4.1v9.43h-28.7v-9.84l12.71-4.92v-.41l-8.61.82h-4.1v-9.43h28.7v9.84Z"/>
      <path class="cls-7" d="M57.22,698.26v3.69h-7.79v-13.12h39.77v13.12h-7.79v-3.69h-24.19Z"/>
    </g>
  </g>
  <g class="cls-8">
    <g class="cls-8">
      <path class="cls-7" d="M1193.31,1509.3h23.37v5.74l-2.46,2.46h-4.51v20.5h-9.43v-20.5h-6.97v-8.2Z"/>
      <path class="cls-7" d="M1234.72,1516.27v7.79h-6.56v13.94h-9.02v-21.32h6.56l1.03,2.25h.21c.25-.49.56-.94.94-1.35.33-.36.71-.66,1.15-.92s.97-.39,1.6-.39h4.1Z"/>
      <path class="cls-7" d="M1250.71,1538l-1.03-2.25h-.21c-.25.49-.55.93-.9,1.31-.36.38-.75.7-1.19.96s-.97.39-1.6.39h-4.1c-.71,0-1.39-.14-2.03-.43s-1.21-.68-1.7-1.17c-.49-.49-.88-1.06-1.17-1.7s-.43-1.32-.43-2.03v-2.87c0-.71.14-1.39.43-2.03.29-.64.68-1.21,1.17-1.7s1.06-.88,1.7-1.17,1.32-.43,2.03-.43h6.56v-1.64h-9.84v-6.56h13.53c.71,0,1.39.14,2.03.43.64.29,1.21.68,1.7,1.17.49.49.88,1.06,1.17,1.7.29.64.43,1.32.43,2.03v15.99h-6.56ZM1248.25,1531.85v-1.64h-2.87v1.64h2.87Z"/>
      <path class="cls-7" d="M1265.26,1538l-5.74-17.63v-3.69h9.22l1.64,12.71h.41l1.64-12.71h9.22v3.69l-5.74,17.63h-10.66Z"/>
      <path class="cls-7" d="M1289.04,1538c-.71,0-1.39-.14-2.03-.43s-1.21-.68-1.7-1.17-.88-1.06-1.17-1.7-.43-1.32-.43-2.03v-11.07c0-.71.14-1.39.43-2.03s.68-1.21,1.17-1.7c.49-.49,1.06-.88,1.7-1.17s1.32-.43,2.03-.43h10.25c.74,0,1.43.14,2.07.43.64.29,1.21.68,1.7,1.17.49.49.87,1.06,1.15,1.7s.41,1.32.41,2.03v8.61h-11.89v1.23h10.87v6.56h-14.56ZM1292.73,1522.42v2.05h2.87v-2.05h-2.87Z"/>
      <path class="cls-7" d="M1317.74,1530.62h2.25v7.38h-5.95c-.71,0-1.39-.14-2.03-.43s-1.21-.68-1.7-1.17c-.49-.49-.88-1.06-1.17-1.7s-.43-1.32-.43-2.03v-23.37h9.02v21.32Z"/>
      <path class="cls-7" d="M1343.37,1538h3.69v7.79h-13.12v-39.77h13.12v7.79h-3.69v24.19Z"/>
      <path class="cls-7" d="M1368.99,1518.93c.25-.49.56-.94.94-1.35.33-.36.71-.66,1.15-.92s.97-.39,1.6-.39h4.71c.71,0,1.39.14,2.03.43.64.29,1.21.68,1.7,1.17.49.49.88,1.06,1.17,1.7.29.64.43,1.32.43,2.03v16.4h-9.02v-14.35h-3.08v14.35h-9.02v-14.35h-3.07v14.35h-9.02v-21.32h6.56l1.03,2.25h.21c.25-.49.56-.94.94-1.35.33-.36.71-.66,1.15-.92s.97-.39,1.6-.39h4.1c.63,0,1.17.14,1.62.41.45.27.84.57,1.17.9.36.41.66.86.9,1.35h.21Z"/>
      <path class="cls-7" d="M1406.1,1518.93c.25-.49.56-.94.94-1.35.33-.36.71-.66,1.15-.92s.97-.39,1.6-.39h4.71c.71,0,1.39.14,2.03.43s1.21.68,1.7,1.17c.49.49.88,1.06,1.17,1.7s.43,1.32.43,2.03v16.4h-9.02v-14.35h-3.08v14.35h-9.02v-14.35h-3.08v14.35h-9.02v-21.32h6.56l1.03,2.25h.21c.25-.49.56-.94.94-1.35.33-.36.71-.66,1.15-.92s.97-.39,1.6-.39h4.1c.63,0,1.17.14,1.62.41s.84.57,1.17.9c.36.41.66.86.9,1.35h.21Z"/>
      <path class="cls-7" d="M1425.78,1513.81h-3.69v-7.79h13.12v39.77h-13.12v-7.79h3.69v-24.19Z"/>
    </g>
  </g>
  <g class="cls-8">
    <g class="cls-8">
      <path class="cls-7" d="M994.78,119.08v20.48h19.2v12.16h-24.32c-2.9,0-5.23-.88-6.98-2.62-1.75-1.75-2.62-4.07-2.62-6.98v-25.6c0-2.9.87-5.23,2.62-6.98,1.75-1.75,4.07-2.62,6.98-2.62h24.32v8.32l-3.84,3.84h-15.36Z"/>
      <path class="cls-7" d="M1033.5,140.2h3.52v11.52h-9.28c-1.11,0-2.17-.22-3.17-.67-1-.45-1.89-1.06-2.66-1.82-.77-.77-1.38-1.65-1.82-2.66-.45-1-.67-2.06-.67-3.17v-36.48h14.08v33.28Z"/>
      <path class="cls-7" d="M1049.82,152.36c-1.11,0-2.17-.22-3.17-.67-1-.45-1.89-1.06-2.66-1.82-.77-.77-1.38-1.65-1.82-2.66-.45-1-.67-2.06-.67-3.17v-25.6h14.08v22.4h5.44v-22.4h14.08v33.28h-10.24l-1.6-3.52h-.32c-.38.77-.85,1.45-1.41,2.05-.55.6-1.17,1.1-1.86,1.5s-1.51.61-2.5.61h-7.36Z"/>
      <path class="cls-7" d="M1103.26,129.96h-6.4v10.24h7.68v11.52h-13.44c-1.11,0-2.17-.22-3.17-.67s-1.89-1.06-2.66-1.82c-.77-.77-1.38-1.65-1.82-2.66-.45-1-.67-2.06-.67-3.17v-13.44h-3.84v-11.52h4.48l4.48-8.32h8.96v8.32h6.4v11.52Z"/>
      <path class="cls-7" d="M1122.46,140.2h15.36v11.52h-21.12c-1.11,0-2.17-.22-3.17-.67s-1.89-1.06-2.66-1.82c-.77-.77-1.38-1.65-1.82-2.66-.45-1-.67-2.06-.67-3.17v-16.64c0-1.11.22-2.17.67-3.17.45-1,1.06-1.89,1.82-2.66.77-.77,1.65-1.38,2.66-1.82s2.06-.67,3.17-.67h21.12v8l-3.2,3.52h-12.16v10.24Z"/>
      <path class="cls-7" d="M1157.34,129.96v21.76h-14.08v-44.8h14.08v11.52h11.2c1.11,0,2.17.22,3.17.67s1.89,1.06,2.66,1.82c.77.77,1.38,1.65,1.82,2.66.45,1,.67,2.06.67,3.17v24.96h-14.08v-21.76h-5.44Z"/>
      <path class="cls-7" d="M1200.54,114.6c0-1.11.22-2.17.67-3.17.45-1,1.06-1.89,1.82-2.66.77-.77,1.65-1.38,2.66-1.82,1-.45,2.06-.67,3.17-.67h17.28v8l-3.2,3.52h-8.32v4.48h8v11.52h-8v17.92h-14.08v-37.12Z"/>
      <path class="cls-7" d="M1227.42,126.12c0-1.11.22-2.17.67-3.17.45-1,1.06-1.89,1.82-2.66s1.65-1.38,2.66-1.82c1-.45,2.06-.67,3.17-.67h16.96c1.11,0,2.17.22,3.17.67,1,.45,1.89,1.06,2.66,1.82s1.38,1.65,1.82,2.66c.45,1,.67,2.06.67,3.17v17.92c0,1.11-.22,2.17-.67,3.17s-1.06,1.89-1.82,2.66-1.65,1.38-2.66,1.82c-1,.45-2.06.67-3.17.67h-16.96c-1.11,0-2.17-.22-3.17-.67-1-.45-1.89-1.06-2.66-1.82s-1.38-1.65-1.82-2.66-.67-2.06-.67-3.17v-17.92ZM1246.94,129.32h-5.44v11.52h5.44v-11.52Z"/>
      <path class="cls-7" d="M1291.1,117.8v12.16h-10.24v21.76h-14.08v-33.28h10.24l1.6,3.52h.32c.38-.77.88-1.47,1.47-2.11.51-.55,1.11-1.03,1.79-1.44s1.51-.61,2.5-.61h6.4Z"/>
      <path class="cls-7" d="M1308.38,140.2h15.36v11.52h-21.12c-1.11,0-2.17-.22-3.17-.67-1-.45-1.89-1.06-2.66-1.82-.77-.77-1.38-1.65-1.82-2.66-.45-1-.67-2.06-.67-3.17v-16.64c0-1.11.22-2.17.67-3.17s1.06-1.89,1.82-2.66,1.65-1.38,2.66-1.82c1-.45,2.06-.67,3.17-.67h21.12v8l-3.2,3.52h-12.16v10.24Z"/>
      <path class="cls-7" d="M1336.22,151.72c-1.11,0-2.17-.22-3.17-.67-1-.45-1.89-1.06-2.66-1.82-.77-.77-1.38-1.65-1.82-2.66-.45-1-.67-2.06-.67-3.17v-17.28c0-1.11.22-2.17.67-3.17.45-1,1.06-1.89,1.82-2.66s1.65-1.38,2.66-1.82c1-.45,2.06-.67,3.17-.67h16c1.15,0,2.23.22,3.23.67,1,.45,1.89,1.06,2.66,1.82.77.77,1.37,1.65,1.79,2.66.43,1,.64,2.06.64,3.17v13.44h-18.56v1.92h16.96v10.24h-22.72ZM1341.98,127.4v3.2h4.48v-3.2h-4.48Z"/>
      <path class="cls-7" d="M1413.33,121.96c.38-.77.87-1.47,1.47-2.11.51-.55,1.11-1.03,1.79-1.44s1.51-.61,2.5-.61h7.36c1.11,0,2.17.22,3.17.67,1,.45,1.89,1.06,2.66,1.82.77.77,1.38,1.65,1.82,2.66.45,1,.67,2.06.67,3.17v25.6h-14.08v-22.4h-4.8v22.4h-14.08v-22.4h-4.8v22.4h-14.08v-33.28h10.24l1.6,3.52h.32c.38-.77.88-1.47,1.47-2.11.51-.55,1.11-1.03,1.79-1.44s1.51-.61,2.5-.61h6.4c.98,0,1.82.21,2.53.64s1.31.9,1.82,1.41c.55.64,1.02,1.34,1.41,2.11h.32Z"/>
      <path class="cls-7" d="M1440.22,126.12c0-1.11.22-2.17.67-3.17.45-1,1.06-1.89,1.82-2.66s1.65-1.38,2.66-1.82c1-.45,2.06-.67,3.17-.67h16.96c1.11,0,2.17.22,3.17.67,1,.45,1.89,1.06,2.66,1.82s1.38,1.65,1.82,2.66c.45,1,.67,2.06.67,3.17v17.92c0,1.11-.22,2.17-.67,3.17s-1.06,1.89-1.82,2.66-1.65,1.38-2.66,1.82c-1,.45-2.06.67-3.17.67h-16.96c-1.11,0-2.17-.22-3.17-.67-1-.45-1.89-1.06-2.66-1.82s-1.38-1.65-1.82-2.66-.67-2.06-.67-3.17v-17.92ZM1459.73,129.32h-5.44v11.52h5.44v-11.52Z"/>
      <path class="cls-7" d="M1487.25,152.36c-1.11,0-2.17-.22-3.17-.67-1-.45-1.89-1.06-2.66-1.82s-1.38-1.65-1.82-2.66-.67-2.06-.67-3.17v-17.28c0-1.11.22-2.17.67-3.17s1.06-1.89,1.82-2.66,1.65-1.38,2.66-1.82c1-.45,2.06-.67,3.17-.67h11.2v-11.52h14.08v44.8h-10.24l-1.6-3.52h-.32c-.38.77-.85,1.45-1.41,2.05-.55.6-1.17,1.1-1.86,1.5s-1.51.61-2.5.61h-7.36ZM1493.01,129.96v10.88h5.44v-10.88h-5.44Z"/>
      <path class="cls-7" d="M1527.25,151.72c-1.11,0-2.17-.22-3.17-.67-1-.45-1.89-1.06-2.66-1.82-.77-.77-1.38-1.65-1.82-2.66-.45-1-.67-2.06-.67-3.17v-17.28c0-1.11.22-2.17.67-3.17.45-1,1.06-1.89,1.82-2.66s1.65-1.38,2.66-1.82c1-.45,2.06-.67,3.17-.67h16c1.15,0,2.23.22,3.23.67,1,.45,1.89,1.06,2.66,1.82.77.77,1.37,1.65,1.79,2.66.43,1,.64,2.06.64,3.17v13.44h-18.56v1.92h16.96v10.24h-22.72ZM1533.01,127.4v3.2h4.48v-3.2h-4.48Z"/>
      <path class="cls-7" d="M1555.42,126.76c0-1.11.22-2.17.67-3.17.45-1,1.06-1.89,1.82-2.66.77-.77,1.65-1.38,2.66-1.82,1-.45,2.06-.67,3.17-.67h20.48v6.72l-3.2,3.52h-11.52v1.28l8.32,1.6c2.26.38,4.11,1.3,5.54,2.75,1.43,1.45,2.14,3.31,2.14,5.57v3.52c0,1.11-.22,2.17-.67,3.17-.45,1-1.06,1.89-1.82,2.66-.77.77-1.65,1.38-2.66,1.82-1,.45-2.06.67-3.17.67h-21.76v-10.24h16v-1.28l-8.32-1.6c-2.26-.38-4.11-1.3-5.54-2.75-1.43-1.45-2.14-3.31-2.14-5.57v-3.52Z"/>
    </g>
  </g>
  <path class="cls-6" d="M491.73,171.62v1238M758.86,171.62v1238M1026.98,171.62v1238M1294.12,171.62v1238M1561.26,171.62v1238M1829.38,171.62v1238M2096.52,171.62v1238M2363.5,171.62v1238"/>
  <g class="cls-8">
    <g class="cls-8">
      <path class="cls-7" d="M2322.3,1465.82c-1.86,0-3.35-.56-4.47-1.68-1.12-1.12-1.68-2.61-1.68-4.47v-3.28c0-1.23.23-2.21.7-2.93.46-.72.98-1.29,1.56-1.7.66-.44,1.41-.74,2.26-.9v-.41c-.77-.16-1.45-.45-2.05-.86-.55-.38-1.02-.9-1.43-1.56-.41-.66-.61-1.56-.61-2.71v-2.87c0-1.86.56-3.35,1.68-4.47,1.12-1.12,2.61-1.68,4.47-1.68h10.25c1.86,0,3.35.56,4.47,1.68,1.12,1.12,1.68,2.61,1.68,4.47v2.87c0,1.15-.21,2.06-.64,2.73-.42.67-.89,1.18-1.41,1.54-.6.41-1.29.7-2.05.86v.41c.85.16,1.6.46,2.26.9.6.41,1.13.98,1.58,1.7.45.72.68,1.7.68,2.93v3.28c0,1.86-.56,3.35-1.68,4.47s-2.61,1.68-4.47,1.68h-11.07ZM2325.58,1454.75v3.28h4.51v-3.28h-4.51ZM2325.99,1444.09v2.87h3.69v-2.87h-3.69Z"/>
      <path class="cls-7" d="M2342.8,1442.45c0-1.86.56-3.35,1.68-4.47,1.12-1.12,2.61-1.68,4.47-1.68h10.66c1.86,0,3.35.56,4.47,1.68s1.68,2.61,1.68,4.47v17.22c0,1.86-.56,3.35-1.68,4.47-1.12,1.12-2.61,1.68-4.47,1.68h-10.66c-1.86,0-3.35-.56-4.47-1.68-1.12-1.12-1.68-2.61-1.68-4.47v-17.22ZM2352.23,1444.09v13.94h4.1v-13.94h-4.1Z"/>
    </g>
  </g>
  <g class="cls-8">
    <g class="cls-8">
      <path class="cls-7" d="M151.44,440.01v8.2h-22.14v-7.79l12.3-11.48v-1.64h-9.43l-2.46-2.46v-5.33h15.58c1.86,0,3.35.56,4.47,1.68,1.12,1.12,1.68,2.61,1.68,4.47v3.28c0,.66-.14,1.3-.41,1.93-.27.63-.6,1.22-.98,1.76-.38.55-.79,1.03-1.21,1.46-.42.42-.79.76-1.09,1l-5.33,4.51v.41h9.02Z"/>
      <path class="cls-7" d="M154.72,425.25c0-1.86.56-3.35,1.68-4.47,1.12-1.12,2.61-1.68,4.47-1.68h10.66c1.86,0,3.35.56,4.47,1.68,1.12,1.12,1.68,2.61,1.68,4.47v17.22c0,1.86-.56,3.35-1.68,4.47-1.12,1.12-2.61,1.68-4.47,1.68h-10.66c-1.86,0-3.35-.56-4.47-1.68-1.12-1.12-1.68-2.61-1.68-4.47v-17.22ZM164.15,426.89v13.94h4.1v-13.94h-4.1Z"/>
      <path class="cls-7" d="M181.78,425.25c0-1.86.56-3.35,1.68-4.47,1.12-1.12,2.61-1.68,4.47-1.68h10.66c1.86,0,3.35.56,4.47,1.68,1.12,1.12,1.68,2.61,1.68,4.47v17.22c0,1.86-.56,3.35-1.68,4.47-1.12,1.12-2.61,1.68-4.47,1.68h-10.66c-1.86,0-3.35-.56-4.47-1.68-1.12-1.12-1.68-2.61-1.68-4.47v-17.22ZM191.21,426.89v13.94h4.1v-13.94h-4.1Z"/>
    </g>
  </g>
  <g class="cls-8">
    <g class="cls-8">
      <path class="cls-7" d="M153.36,192.05v8.2h-22.14v-7.79l12.3-11.48v-1.64h-9.43l-2.46-2.46v-5.33h15.58c1.86,0,3.35.56,4.47,1.68,1.12,1.12,1.68,2.61,1.68,4.47v3.28c0,.66-.14,1.3-.41,1.93-.27.63-.6,1.22-.98,1.76-.38.55-.79,1.03-1.21,1.46-.42.42-.79.76-1.09,1l-5.33,4.51v.41h9.02Z"/>
      <path class="cls-7" d="M172.22,181.8c1.86,0,3.35.56,4.47,1.68,1.12,1.12,1.68,2.61,1.68,4.47v6.15c0,1.86-.56,3.35-1.68,4.47-1.12,1.12-2.61,1.68-4.47,1.68h-15.58v-7.79h12.3v-3.28h-11.89v-17.63h20.5v5.33l-2.46,2.46h-8.61v2.46h5.74Z"/>
      <path class="cls-7" d="M181.65,177.29c0-1.86.56-3.35,1.68-4.47,1.12-1.12,2.61-1.68,4.47-1.68h10.66c1.86,0,3.35.56,4.47,1.68,1.12,1.12,1.68,2.61,1.68,4.47v17.22c0,1.86-.56,3.35-1.68,4.47-1.12,1.12-2.61,1.68-4.47,1.68h-10.66c-1.86,0-3.35-.56-4.47-1.68-1.12-1.12-1.68-2.61-1.68-4.47v-17.22ZM191.08,178.93v13.94h4.1v-13.94h-4.1Z"/>
    </g>
  </g>
  <path class="cls-4" d="M250,1401.46l28.72-22.94,27.56-23,28.62-23,28.62-24,28.62-23,27.57-23,28.62-23.01,28.62-23,28.62-22,27.56-23,28.62-22,28.62-22,28.62-21,28.62-21,27.56-21,28.62-20,28.63-20,28.62-19,27.56-19,28.62-18,28.62-18,28.62-17.01,27.56-16,28.62-16,28.62-15,28.62-15,28.62-13,27.56-13,28.63-13,28.62-12,28.62-11,27.56-11,28.62-10,28.62-9,28.62-9,27.56-8,28.62-8,28.62-7,28.62-7,28.63-6,27.56-6,28.62-5,28.62-5,28.62-5,27.56-4,28.62-4,28.62-4,28.62-3,27.56-4,28.62-3,28.63-3,28.62-3,28.62-3,27.56-3,28.62-3,28.62-4,28.62-3,27.56-3,28.62-4,28.62-3,28.62-4,27.57-4,28.62-5,28.62-5,28.62-5.01,28.62-5,27.56-6,28.62-6,28.62-7,28.62-7,27.56-8,28.62-8,28.62-8,28.46-10.03"/>
  <path class="cls-5" d="M250,1376.46l28.72-35.94,27.56-35,28.62-34,28.62-34.01,28.62-34,27.57-32,28.62-33,28.62-31,28.62-30,27.56-30,28.62-29,28.62-28,28.62-27,28.62-26.01,27.56-25,28.62-24,28.63-23,28.62-22,27.56-21,28.62-20,28.62-18,28.62-18,27.56-16,28.62-15,28.62-15,28.62-13,28.62-12,27.56-12,28.63-10,28.62-10,28.62-8,27.56-8,28.62-8.01,28.62-6,28.62-6,27.56-5,28.62-5,28.62-5,28.62-4,28.63-3,27.56-4,28.62-3,28.62-3,28.62-2,27.56-3,28.62-3,28.62-3,28.62-2,27.56-3,28.62-3,28.63-4,28.62-3,28.62-4,27.56-5,28.62-4,28.62-5,28.62-6,27.56-6,28.62-6,28.62-7,28.62-8,27.57-8,28.62-9,28.46-10.03"/>
  <path class="cls-3" d="M250,1355.46l28.72-45.94,27.56-44,28.62-43.01,28.62-41,28.62-40,27.57-39,28.62-38,28.62-36,28.62-35,27.56-33,28.62-32.01,28.62-31,28.62-29,28.62-28,27.56-26,28.62-25,28.63-23,28.62-22,27.56-21,28.62-19,28.62-17,28.62-17,27.56-15,28.62-13,28.62-13.01,28.62-11,28.62-10,27.56-9,28.63-9,28.62-7,28.62-6,27.56-6,28.62-5,28.62-5,28.62-4,27.56-3,28.62-3,28.62-3,28.62-2,28.63-3,27.56-2,28.62-2,28.62-3,28.62-2,27.56-3,28.62-2,28.62-3,28.62-3,27.56-4,28.62-4,28.63-4,28.62-5,28.62-6,27.56-6,28.62-6,28.62-8,28.62-8,27.56-8,28.62-10,28.47-10.03"/>
  <path class="cls-2" d="M250,1391.46l28.72-28.94,27.56-28,28.62-29,28.62-28,28.62-28.01,27.57-27,28.62-27,28.62-27,28.62-27,27.56-26,28.62-25,28.62-25,28.62-25,28.62-24,27.56-23,28.62-22,28.63-22,28.62-21.01,27.56-20,28.62-20,28.62-18,28.62-18,27.56-17,28.62-16,28.62-15,28.62-15,28.62-13,27.56-13,28.63-12,28.62-11,28.62-11,27.56-9,28.62-9,28.62-8,28.62-8,27.56-7,28.62-7,28.62-6,28.62-5,28.63-5,27.56-5,28.62-4,28.62-4,28.62-3,27.56-4,28.62-3,28.62-3.01,28.62-3,27.56-3,28.62-3,28.63-3,28.62-3,28.62-3,27.56-3,28.62-4,28.62-3,28.62-4,27.56-5,28.62-4,28.62-5,28.62-5,27.57-6,28.62-6,28.62-7,28.62-7,28.62-7,27.56-9,28.62-9,28.62-9,28.46-10.03"/>
  <path class="cls-6" d="M223.5,1159.77h2141M223.5,911.77h2141M223.5,664.76h2141M223.5,416.75h2141M223.5,169.72h2141"/>
</svg>