<?xml version="1.0" encoding="UTF-8"?>
<svg id="Layer_1" data-name="Layer 1" xmlns="http://www.w3.org/2000/svg" viewBox="0 0 2438 1609">
  <defs>
    <style>
      .cls-1, .cls-2 {
        stroke: #fff;
      }

      .cls-1, .cls-2, .cls-3, .cls-4, .cls-5 {
        fill: none;
        stroke-linejoin: round;
      }

      .cls-1, .cls-5 {
        stroke-linecap: round;
        stroke-width: 10px;
      }

      .cls-6 {
        fill: #fff;
      }

      .cls-2 {
        stroke-width: 6px;
      }

      .cls-3 {
        stroke: #666;
      }

      .cls-3, .cls-4 {
        stroke-width: 2px;
      }

      .cls-7 {
        isolation: isolate;
      }

      .cls-4 {
        stroke: rgba(102, 102, 102, .7);
      }

      .cls-5 {
        stroke: #e84e0f;
      }
    </style>
  </defs>
  <path class="cls-4" d="M529.6,171.5v1238M835.6,171.5v1238M1141.6,171.5v1238M1446.6,171.5v1238M1752.6,171.5v1238M2058.6,171.5v1238M2364.5,171.5v1238"/>
  <path class="cls-2" d="M223.5,1409.5V171.5"/>
  <path class="cls-2" d="M223.5,1409.5h2141"/>
  <g class="cls-7">
    <g class="cls-7">
      <path class="cls-6" d="M155.605,1208.726c0-1.859.561-3.349,1.681-4.47,1.121-1.12,2.61-1.681,4.469-1.681h15.17v5.33l-2.46,2.46h-9.43v2.87h6.97c1.859,0,3.348.561,4.469,1.681,1.121,1.121,1.681,2.61,1.681,4.47v6.149c0,1.858-.56,3.349-1.681,4.469-1.121,1.121-2.61,1.682-4.469,1.682h-10.25c-1.859,0-3.349-.561-4.469-1.682-1.121-1.12-1.681-2.61-1.681-4.469v-16.81ZM165.035,1220.205v3.69h3.69v-3.69h-3.69Z"/>
      <path class="cls-6" d="M181.435,1208.315c0-1.859.561-3.349,1.681-4.47,1.121-1.12,2.61-1.681,4.469-1.681h10.66c1.858,0,3.348.561,4.469,1.681,1.121,1.121,1.681,2.61,1.681,4.47v17.22c0,1.858-.561,3.349-1.681,4.469-1.121,1.121-2.61,1.682-4.469,1.682h-10.66c-1.859,0-3.349-.561-4.469-1.682-1.121-1.12-1.681-2.61-1.681-4.469v-17.22ZM190.865,1209.955v13.94h4.1v-13.94h-4.1Z"/>
    </g>
  </g>
  <g class="cls-7">
    <g class="cls-7">
      <path class="cls-6" d="M145.351,992.575h7.38v28.7h-9.43v-20.5h-5.33v-5.33l7.38-2.87Z"/>
      <path class="cls-6" d="M178.15,1013.075v8.2h-22.14v-7.79l12.3-11.48v-1.64h-9.43l-2.46-2.46v-5.33h15.58c1.859,0,3.349.561,4.469,1.681,1.121,1.121,1.681,2.61,1.681,4.47v3.279c0,.656-.136,1.299-.41,1.928-.273.628-.602,1.216-.984,1.763-.383.547-.786,1.032-1.21,1.455-.423.424-.786.759-1.086,1.005l-5.33,4.51v.41h9.02Z"/>
      <path class="cls-6" d="M181.43,998.315c0-1.859.561-3.349,1.681-4.47,1.121-1.12,2.61-1.681,4.469-1.681h10.66c1.858,0,3.348.561,4.469,1.681,1.121,1.121,1.681,2.61,1.681,4.47v17.22c0,1.858-.561,3.349-1.681,4.469-1.121,1.121-2.61,1.682-4.469,1.682h-10.66c-1.859,0-3.349-.561-4.469-1.682-1.121-1.12-1.681-2.61-1.681-4.469v-17.22ZM190.86,999.955v13.94h4.1v-13.94h-4.1Z"/>
    </g>
  </g>
  <g class="cls-7">
    <g class="cls-7">
      <path class="cls-6" d="M144.531,792.575h7.38v28.7h-9.43v-20.5h-5.33v-5.33l7.38-2.87Z"/>
      <path class="cls-6" d="M161.75,821.686c-1.858,0-3.348-.561-4.469-1.682-1.121-1.12-1.681-2.61-1.681-4.469v-3.28c0-1.229.232-2.207.697-2.931.464-.725.984-1.292,1.558-1.702.656-.438,1.408-.738,2.255-.901v-.41c-.766-.164-1.449-.451-2.05-.861-.546-.383-1.025-.902-1.435-1.558-.41-.656-.615-1.559-.615-2.706v-2.87c0-1.859.56-3.349,1.681-4.47,1.121-1.12,2.61-1.681,4.469-1.681h10.25c1.859,0,3.349.561,4.469,1.681,1.121,1.121,1.681,2.61,1.681,4.47v2.87c0,1.147-.212,2.057-.636,2.727-.424.669-.895,1.182-1.415,1.537-.601.41-1.285.697-2.05.861v.41c.847.163,1.599.464,2.255.901.601.41,1.127.978,1.579,1.702.451.724.676,1.701.676,2.931v3.28c0,1.858-.56,3.349-1.681,4.469-1.121,1.121-2.61,1.682-4.469,1.682h-11.07ZM165.031,810.615v3.28h4.51v-3.28h-4.51ZM165.441,799.955v2.87h3.69v-2.87h-3.69Z"/>
      <path class="cls-6" d="M182.25,798.315c0-1.859.561-3.349,1.681-4.47,1.121-1.12,2.61-1.681,4.469-1.681h10.66c1.858,0,3.348.561,4.469,1.681,1.121,1.121,1.681,2.61,1.681,4.47v17.22c0,1.858-.561,3.349-1.681,4.469-1.121,1.121-2.61,1.682-4.469,1.682h-10.66c-1.859,0-3.349-.561-4.469-1.682-1.121-1.12-1.681-2.61-1.681-4.469v-17.22ZM191.68,799.955v13.94h4.1v-13.94h-4.1Z"/>
    </g>
  </g>
  <g class="cls-7">
    <g class="cls-7">
      <path class="cls-6" d="M153.42,608.075v8.2h-22.14v-7.79l12.3-11.48v-1.64h-9.43l-2.46-2.46v-5.33h15.58c1.859,0,3.349.561,4.469,1.681,1.121,1.121,1.681,2.61,1.681,4.47v3.279c0,.656-.136,1.299-.41,1.928-.273.628-.602,1.216-.984,1.763-.383.547-.786,1.032-1.21,1.455-.423.424-.786.759-1.086,1.005l-5.33,4.51v.41h9.02Z"/>
      <path class="cls-6" d="M167.36,616.275v-4.92h-12.3v-7.38l10.25-16.4h11.89v15.99h2.46v7.79h-2.46v4.92h-9.84ZM167.36,598.645l-2.87,4.92h3.28v-4.92h-.41Z"/>
      <path class="cls-6" d="M182.53,593.315c0-1.859.561-3.349,1.681-4.47,1.121-1.12,2.61-1.681,4.469-1.681h10.66c1.858,0,3.348.561,4.469,1.681,1.121,1.121,1.681,2.61,1.681,4.47v17.22c0,1.858-.561,3.349-1.681,4.469-1.121,1.121-2.61,1.682-4.469,1.682h-10.66c-1.859,0-3.349-.561-4.469-1.682-1.121-1.12-1.681-2.61-1.681-4.469v-17.22ZM191.96,594.955v13.94h4.1v-13.94h-4.1Z"/>
    </g>
  </g>
  <g class="cls-7">
    <g class="cls-7">
      <path class="cls-6" d="M146.451,194.336v.41h.82c1.859,0,3.349.56,4.469,1.681s1.681,2.61,1.681,4.469v4.92c0,1.859-.56,3.349-1.681,4.47-1.121,1.12-2.61,1.681-4.469,1.681h-15.99v-7.79h12.71v-2.87h-8.2v-6.15l5.74-3.689v-.41h-7.79l-2.46-2.46v-5.33h20.91v7.38l-5.74,3.69Z"/>
      <path class="cls-6" d="M156.7,189.417c0-1.859.561-3.349,1.681-4.47,1.121-1.12,2.61-1.681,4.469-1.681h15.17v5.33l-2.46,2.46h-9.43v2.87h6.97c1.859,0,3.348.561,4.469,1.681,1.121,1.121,1.681,2.61,1.681,4.47v6.149c0,1.858-.56,3.349-1.681,4.469-1.121,1.121-2.61,1.682-4.469,1.682h-10.25c-1.859,0-3.349-.561-4.469-1.682-1.121-1.12-1.681-2.61-1.681-4.469v-16.81ZM166.13,200.896v3.69h3.69v-3.69h-3.69Z"/>
      <path class="cls-6" d="M182.53,189.006c0-1.859.561-3.349,1.681-4.47,1.121-1.12,2.61-1.681,4.469-1.681h10.66c1.858,0,3.348.561,4.469,1.681,1.121,1.121,1.681,2.61,1.681,4.47v17.22c0,1.858-.561,3.349-1.681,4.469-1.121,1.121-2.61,1.682-4.469,1.682h-10.66c-1.859,0-3.349-.561-4.469-1.682-1.121-1.12-1.681-2.61-1.681-4.469v-17.22ZM191.96,190.646v13.94h4.1v-13.94h-4.1Z"/>
    </g>
  </g>
  <g class="cls-7">
    <g class="cls-7">
      <path class="cls-6" d="M181.85,1442.447c0-1.859.561-3.349,1.681-4.47,1.121-1.12,2.61-1.681,4.469-1.681h10.66c1.858,0,3.348.561,4.469,1.681,1.121,1.121,1.681,2.61,1.681,4.47v17.22c0,1.858-.561,3.349-1.681,4.469-1.121,1.121-2.61,1.682-4.469,1.682h-10.66c-1.859,0-3.349-.561-4.469-1.682-1.121-1.12-1.681-2.61-1.681-4.469v-17.22ZM191.28,1444.087v13.94h4.1v-13.94h-4.1Z"/>
    </g>
  </g>
  <g class="cls-7">
    <g class="cls-7">
      <path class="cls-6" d="M468.428,1436.707h7.38v28.7h-9.43v-20.5h-5.33v-5.33l7.38-2.87Z"/>
      <path class="cls-6" d="M480.318,1442.447c0-1.859.561-3.349,1.681-4.47,1.121-1.12,2.61-1.681,4.469-1.681h10.66c1.858,0,3.348.561,4.469,1.681,1.121,1.121,1.681,2.61,1.681,4.47v17.22c0,1.858-.561,3.349-1.681,4.469-1.121,1.121-2.61,1.682-4.469,1.682h-10.66c-1.859,0-3.349-.561-4.469-1.682-1.121-1.12-1.681-2.61-1.681-4.469v-17.22ZM489.748,1444.087v13.94h4.1v-13.94h-4.1Z"/>
    </g>
  </g>
  <g class="cls-7">
    <g class="cls-7">
      <path class="cls-6" d="M789.498,1457.207v8.2h-22.14v-7.79l12.3-11.48v-1.64h-9.43l-2.46-2.46v-5.33h15.58c1.859,0,3.349.561,4.469,1.681,1.121,1.121,1.681,2.61,1.681,4.47v3.279c0,.656-.136,1.299-.41,1.928-.273.628-.602,1.216-.984,1.763-.383.547-.786,1.032-1.21,1.455-.423.424-.786.759-1.086,1.005l-5.33,4.51v.41h9.02Z"/>
      <path class="cls-6" d="M792.778,1442.447c0-1.859.561-3.349,1.681-4.47,1.121-1.12,2.61-1.681,4.469-1.681h10.66c1.858,0,3.348.561,4.469,1.681,1.121,1.121,1.681,2.61,1.681,4.47v17.22c0,1.858-.561,3.349-1.681,4.469-1.121,1.121-2.61,1.682-4.469,1.682h-10.66c-1.859,0-3.349-.561-4.469-1.682-1.121-1.12-1.681-2.61-1.681-4.469v-17.22ZM802.208,1444.087v13.94h4.1v-13.94h-4.1Z"/>
    </g>
  </g>
  <g class="cls-7">
    <g class="cls-7">
      <path class="cls-6" d="M1088.429,1447.777v.41h.819c1.859,0,3.349.56,4.47,1.681,1.12,1.121,1.681,2.61,1.681,4.469v4.92c0,1.859-.561,3.349-1.681,4.47-1.121,1.12-2.61,1.681-4.47,1.681h-15.99v-7.79h12.711v-2.87h-8.2v-6.15l5.74-3.689v-.41h-7.79l-2.461-2.46v-5.33h20.91v7.38l-5.739,3.69Z"/>
      <path class="cls-6" d="M1098.678,1442.447c0-1.859.561-3.349,1.682-4.47s2.61-1.681,4.469-1.681h10.66c1.858,0,3.349.561,4.469,1.681s1.682,2.61,1.682,4.47v17.22c0,1.858-.561,3.349-1.682,4.469-1.12,1.121-2.61,1.682-4.469,1.682h-10.66c-1.858,0-3.349-.561-4.469-1.682-1.121-1.12-1.682-2.61-1.682-4.469v-17.22ZM1108.108,1444.087v13.94h4.1v-13.94h-4.1Z"/>
    </g>
  </g>
  <g class="cls-7">
    <g class="cls-7">
      <path class="cls-6" d="M1391.148,1465.407v-4.92h-12.3v-7.38l10.25-16.4h11.89v15.99h2.46v7.79h-2.46v4.92h-9.84ZM1391.148,1447.777l-2.87,4.92h3.28v-4.92h-.41Z"/>
      <path class="cls-6" d="M1406.317,1442.447c0-1.859.561-3.349,1.682-4.47s2.61-1.681,4.469-1.681h10.66c1.858,0,3.349.561,4.469,1.681s1.682,2.61,1.682,4.47v17.22c0,1.858-.561,3.349-1.682,4.469-1.12,1.121-2.61,1.682-4.469,1.682h-10.66c-1.858,0-3.349-.561-4.469-1.682-1.121-1.12-1.682-2.61-1.682-4.469v-17.22ZM1415.748,1444.087v13.94h4.1v-13.94h-4.1Z"/>
    </g>
  </g>
  <g class="cls-7">
    <g class="cls-7">
      <path class="cls-6" d="M1701.969,1446.957c1.858,0,3.348.561,4.469,1.681,1.12,1.121,1.681,2.61,1.681,4.47v6.149c0,1.859-.561,3.349-1.681,4.47-1.121,1.12-2.61,1.681-4.469,1.681h-15.581v-7.79h12.301v-3.28h-11.891v-17.63h20.5v5.33l-2.46,2.46h-8.609v2.46h5.74Z"/>
      <path class="cls-6" d="M1711.397,1442.447c0-1.859.561-3.349,1.681-4.47,1.121-1.12,2.61-1.681,4.47-1.681h10.66c1.858,0,3.348.561,4.469,1.681,1.12,1.121,1.681,2.61,1.681,4.47v17.22c0,1.858-.561,3.349-1.681,4.469s-2.61,1.682-4.469,1.682h-10.66c-1.859,0-3.349-.561-4.47-1.682s-1.681-2.61-1.681-4.469v-17.22ZM1720.827,1444.087v13.94h4.101v-13.94h-4.101Z"/>
    </g>
  </g>
  <g class="cls-7">
    <g class="cls-7">
      <path class="cls-6" d="M1992.388,1442.857c0-1.859.561-3.349,1.682-4.47s2.61-1.681,4.469-1.681h15.17v5.33l-2.46,2.46h-9.43v2.87h6.97c1.859,0,3.349.561,4.47,1.681,1.12,1.121,1.681,2.61,1.681,4.47v6.149c0,1.858-.561,3.349-1.681,4.469s-2.61,1.682-4.47,1.682h-10.25c-1.858,0-3.349-.561-4.469-1.682-1.121-1.12-1.682-2.61-1.682-4.469v-16.81ZM2001.818,1454.337v3.69h3.689v-3.69h-3.689Z"/>
      <path class="cls-6" d="M2018.218,1442.447c0-1.859.561-3.349,1.681-4.47,1.121-1.12,2.61-1.681,4.47-1.681h10.66c1.858,0,3.348.561,4.469,1.681,1.12,1.121,1.681,2.61,1.681,4.47v17.22c0,1.858-.561,3.349-1.681,4.469s-2.61,1.682-4.469,1.682h-10.66c-1.859,0-3.349-.561-4.47-1.682s-1.681-2.61-1.681-4.469v-17.22ZM2027.647,1444.087v13.94h4.101v-13.94h-4.101Z"/>
    </g>
  </g>
  <g class="cls-7">
    <g class="cls-7">
      <path class="cls-6" d="M2300.338,1465.407v-4.1l7.586-16.4v-.41h-11.275v-7.79h21.73v7.38l-9.39,21.32h-8.651Z"/>
      <path class="cls-6" d="M2320.838,1442.447c0-1.859.561-3.349,1.681-4.47,1.12-1.12,2.61-1.681,4.47-1.681h10.66c1.857,0,3.348.561,4.469,1.681,1.12,1.121,1.681,2.61,1.681,4.47v17.22c0,1.858-.561,3.349-1.681,4.469s-2.611,1.682-4.469,1.682h-10.66c-1.859,0-3.35-.561-4.47-1.682-1.12-1.12-1.681-2.61-1.681-4.469v-17.22ZM2330.268,1444.087v13.94h4.1v-13.94h-4.1Z"/>
    </g>
  </g>
  <g class="cls-7">
    <g class="cls-7">
      <path class="cls-6" d="M58.45,846.68l2.46,2.46v9.636h3.689v-7.996h8.2v7.996h8.61v9.43h-28.7v-21.525h5.74Z"/>
      <path class="cls-6" d="M65.009,844.631c-.71,0-1.387-.145-2.029-.431-.643-.287-1.21-.677-1.701-1.169-.492-.492-.882-1.059-1.169-1.701-.287-.643-.431-1.318-.431-2.029v-10.865c0-.711.144-1.387.431-2.029s.677-1.21,1.169-1.702,1.059-.882,1.701-1.169c.643-.286,1.319-.43,2.029-.43h11.48c.711,0,1.387.144,2.029.43.643.287,1.21.678,1.701,1.169s.882,1.06,1.169,1.702.431,1.318.431,2.029v10.865c0,.711-.144,1.387-.431,2.029-.287.643-.677,1.209-1.169,1.701-.491.492-1.059.882-1.701,1.169-.643.286-1.318.431-2.029.431h-11.48ZM67.059,832.125v3.485h7.381v-3.485h-7.381Z"/>
      <path class="cls-6" d="M59.679,803.835h7.79v6.56h13.94v9.021h-21.32v-6.561l2.255-1.025v-.204c-.492-.246-.942-.561-1.353-.943-.355-.328-.663-.71-.923-1.147s-.39-.971-.39-1.6v-4.1Z"/>
      <path class="cls-6" d="M74.03,792.766v-9.84h7.38v13.53c0,.711-.144,1.387-.431,2.03-.287.642-.677,1.209-1.168,1.701-.492.492-1.06.882-1.702,1.169-.643.287-1.318.43-2.029.43h-10.66c-.711,0-1.387-.144-2.029-.43-.643-.287-1.21-.677-1.701-1.169-.492-.492-.882-1.059-1.169-1.701-.287-.643-.431-1.319-.431-2.03v-13.53h5.125l2.255,2.05v7.79h6.561Z"/>
      <path class="cls-6" d="M81.41,774.931c0,.711-.144,1.387-.431,2.03-.287.642-.677,1.209-1.168,1.701-.492.492-1.06.882-1.702,1.169-.643.287-1.318.43-2.029.43h-11.07c-.71,0-1.387-.144-2.029-.43-.643-.287-1.21-.677-1.701-1.169-.492-.492-.882-1.059-1.169-1.701-.287-.643-.431-1.319-.431-2.03v-10.25c0-.738.144-1.428.431-2.07.287-.643.677-1.209,1.169-1.702.491-.492,1.059-.875,1.701-1.148s1.319-.41,2.029-.41h8.61v11.89h1.229v-10.865h6.561v14.555ZM65.83,771.241h2.05v-2.87h-2.05v2.87Z"/>
      <path class="cls-6" d="M81.41,735.162v-3.69h7.79v13.12h-39.771v-13.12h7.79v3.69h24.19Z"/>
      <path class="cls-6" d="M81.41,714.662l-12.71,4.92v.41l8.61-.82h4.1v9.43h-28.7v-9.84l12.71-4.92v-.41l-8.61.82h-4.1v-9.43h28.7v9.84Z"/>
      <path class="cls-6" d="M57.219,698.262v3.69h-7.79v-13.12h39.771v13.12h-7.79v-3.69h-24.19Z"/>
    </g>
  </g>
  <g class="cls-7">
    <g class="cls-7">
      <path class="cls-6" d="M1193.31,1509.3h23.37v5.74l-2.46,2.46h-4.51v20.5h-9.43v-20.5h-6.97v-8.2Z"/>
      <path class="cls-6" d="M1234.721,1516.27v7.79h-6.561v13.94h-9.021v-21.32h6.561l1.025,2.255h.205c.245-.492.56-.942.942-1.353.328-.355.711-.663,1.148-.923s.97-.39,1.599-.39h4.101Z"/>
      <path class="cls-6" d="M1250.71,1538l-1.025-2.255h-.205c-.246.492-.547.929-.901,1.312-.355.383-.752.704-1.189.964s-.971.39-1.599.39h-4.101c-.71,0-1.387-.144-2.029-.431s-1.21-.677-1.701-1.169c-.492-.491-.882-1.059-1.169-1.701s-.431-1.318-.431-2.029v-2.87c0-.711.144-1.388.431-2.029.287-.643.677-1.21,1.169-1.702s1.059-.881,1.701-1.168,1.319-.431,2.029-.431h6.561v-1.64h-9.84v-6.561h13.529c.711,0,1.388.144,2.03.431.642.287,1.209.677,1.701,1.169.492.491.882,1.059,1.168,1.701.287.643.431,1.318.431,2.029v15.99h-6.56ZM1248.25,1531.85v-1.64h-2.87v1.64h2.87Z"/>
      <path class="cls-6" d="M1265.264,1538l-5.739-17.63v-3.69h9.225l1.64,12.71h.41l1.641-12.71h9.225v3.69l-5.74,17.63h-10.66Z"/>
      <path class="cls-6" d="M1289.044,1538c-.711,0-1.387-.144-2.029-.431s-1.21-.677-1.701-1.168-.882-1.06-1.169-1.702-.431-1.318-.431-2.029v-11.07c0-.71.144-1.387.431-2.029s.677-1.21,1.169-1.701c.491-.492,1.059-.882,1.701-1.169s1.318-.431,2.029-.431h10.25c.738,0,1.429.144,2.07.431.643.287,1.21.677,1.702,1.169.492.491.874,1.059,1.147,1.701s.41,1.319.41,2.029v8.61h-11.89v1.229h10.865v6.561h-14.556ZM1292.734,1522.42v2.05h2.87v-2.05h-2.87Z"/>
      <path class="cls-6" d="M1317.744,1530.62h2.255v7.38h-5.945c-.71,0-1.387-.144-2.029-.431s-1.209-.677-1.701-1.168c-.492-.492-.882-1.06-1.169-1.702s-.431-1.318-.431-2.029v-23.37h9.021v21.32Z"/>
      <path class="cls-6" d="M1343.368,1538h3.69v7.79h-13.12v-39.771h13.12v7.79h-3.69v24.19Z"/>
      <path class="cls-6" d="M1368.994,1518.935c.245-.492.56-.942.942-1.353.328-.355.711-.663,1.148-.923s.97-.39,1.599-.39h4.715c.711,0,1.388.144,2.03.431.642.287,1.209.677,1.701,1.169.492.491.882,1.059,1.168,1.701.287.643.431,1.319.431,2.029v16.4h-9.02v-14.351h-3.075v14.351h-9.021v-14.351h-3.074v14.351h-9.021v-21.32h6.56l1.025,2.255h.205c.246-.492.561-.942.943-1.353.328-.355.71-.663,1.147-.923s.971-.39,1.6-.39h4.1c.629,0,1.169.137,1.619.41.451.273.841.574,1.169.902.355.41.656.86.902,1.353h.205Z"/>
      <path class="cls-6" d="M1406.099,1518.935c.246-.492.561-.942.943-1.353.328-.355.71-.663,1.147-.923s.971-.39,1.6-.39h4.715c.711,0,1.387.144,2.029.431s1.21.677,1.701,1.169c.492.491.882,1.059,1.169,1.701s.431,1.319.431,2.029v16.4h-9.021v-14.351h-3.075v14.351h-9.02v-14.351h-3.075v14.351h-9.021v-21.32h6.561l1.025,2.255h.205c.245-.492.56-.942.942-1.353.328-.355.711-.663,1.148-.923s.97-.39,1.599-.39h4.101c.628,0,1.168.137,1.619.41s.841.574,1.168.902c.355.41.656.86.902,1.353h.205Z"/>
      <path class="cls-6" d="M1425.778,1513.81h-3.689v-7.79h13.12v39.771h-13.12v-7.79h3.689v-24.19Z"/>
    </g>
  </g>
  <g class="cls-7">
    <g class="cls-7">
      <path class="cls-6" d="M1026.122,117.805v20.479h19.198v12.159h-24.318c-2.901,0-5.227-.875-6.976-2.624s-2.624-4.074-2.624-6.976v-25.598c0-2.901.875-5.227,2.624-6.976s4.074-2.624,6.976-2.624h24.318v8.319l-3.84,3.84h-15.358Z"/>
      <path class="cls-6" d="M1064.842,138.923h3.52v11.52h-9.279c-1.109,0-2.165-.224-3.168-.672s-1.888-1.056-2.656-1.824-1.376-1.653-1.823-2.655c-.448-1.003-.672-2.059-.672-3.168v-36.478h14.079v33.277Z"/>
      <path class="cls-6" d="M1081.161,151.082c-1.108,0-2.165-.224-3.167-.672-1.003-.447-1.889-1.056-2.656-1.823-.768-.769-1.376-1.653-1.824-2.656-.447-1.003-.672-2.059-.672-3.168v-25.598h14.079v22.398h5.439v-22.398h14.079v33.277h-10.239l-1.6-3.52h-.32c-.384.768-.853,1.45-1.407,2.048-.555.597-1.174,1.099-1.856,1.504s-1.515.607-2.496.607h-7.359Z"/>
      <path class="cls-6" d="M1134.601,128.684h-6.399v10.239h7.68v11.52h-13.439c-1.109,0-2.165-.224-3.168-.672-1.002-.448-1.888-1.056-2.655-1.824-.769-.768-1.376-1.653-1.824-2.655-.448-1.003-.672-2.059-.672-3.168v-13.439h-3.84v-11.519h4.479l4.479-8.319h8.96v8.319h6.399v11.519Z"/>
      <path class="cls-6" d="M1153.801,138.923h15.358v11.52h-21.118c-1.109,0-2.165-.224-3.168-.672-1.002-.448-1.888-1.056-2.655-1.824-.769-.768-1.376-1.653-1.824-2.655-.448-1.003-.672-2.059-.672-3.168v-16.639c0-1.109.224-2.165.672-3.168s1.056-1.888,1.824-2.656,1.653-1.375,2.655-1.823c1.003-.448,2.059-.672,3.168-.672h21.118v7.999l-3.199,3.52h-12.159v10.239Z"/>
      <path class="cls-6" d="M1188.681,128.684v21.759h-14.079v-44.797h14.079v11.52h11.198c1.109,0,2.166.224,3.168.672,1.003.448,1.888,1.056,2.656,1.823.768.769,1.376,1.653,1.823,2.656.448,1.003.673,2.059.673,3.168v24.958h-14.079v-21.759h-5.439Z"/>
      <path class="cls-6" d="M1256.519,116.524c1.109,0,2.165.225,3.168.673,1.003.447,1.888,1.056,2.656,1.823.768.769,1.375,1.653,1.823,2.656.448,1.002.672,2.059.672,3.168v17.278c0,1.109-.224,2.165-.672,3.168-.448,1.002-1.056,1.888-1.823,2.655s-1.653,1.376-2.656,1.824-2.059.672-3.168.672h-11.199v10.879h-14.079v-44.156h10.239l1.601,3.52h.319c.384-.768.875-1.472,1.472-2.112.513-.554,1.109-1.034,1.792-1.439s1.515-.608,2.496-.608h7.359ZM1250.759,138.923v-10.879h-5.439v10.879h5.439Z"/>
      <path class="cls-6" d="M1294.918,116.524v12.159h-10.239v21.759h-14.079v-33.277h10.239l1.601,3.52h.319c.384-.768.875-1.472,1.472-2.112.513-.554,1.109-1.034,1.792-1.439s1.515-.608,2.496-.608h6.399Z"/>
      <path class="cls-6" d="M1306.438,150.442c-1.109,0-2.165-.224-3.168-.672-1.002-.448-1.888-1.056-2.655-1.824-.769-.768-1.376-1.653-1.824-2.655-.448-1.003-.672-2.059-.672-3.168v-17.278c0-1.109.224-2.166.672-3.168.448-1.003,1.056-1.888,1.824-2.656s1.653-1.376,2.655-1.823c1.003-.448,2.059-.673,3.168-.673h15.999c1.151,0,2.229.225,3.231.673,1.003.447,1.888,1.056,2.656,1.823.768.769,1.365,1.653,1.792,2.656.427,1.002.64,2.059.64,3.168v13.438h-18.559v1.92h16.959v10.239h-22.719ZM1312.198,126.124v3.2h4.479v-3.2h-4.479Z"/>
      <path class="cls-6" d="M1351.238,138.923h3.52v11.52h-9.279c-1.109,0-2.165-.224-3.168-.672s-1.888-1.056-2.656-1.824-1.376-1.653-1.823-2.655c-.448-1.003-.672-2.059-.672-3.168v-36.478h14.079v33.277Z"/>
      <path class="cls-6" d="M1358.599,124.845c0-1.109.224-2.166.672-3.168.448-1.003,1.056-1.888,1.824-2.656s1.653-1.376,2.655-1.823c1.003-.448,2.059-.673,3.168-.673h16.959c1.109,0,2.165.225,3.168.673,1.002.447,1.888,1.056,2.655,1.823s1.376,1.653,1.824,2.656c.448,1.002.672,2.059.672,3.168v17.918c0,1.109-.224,2.165-.672,3.168s-1.056,1.888-1.824,2.656-1.653,1.376-2.655,1.823c-1.003.448-2.059.672-3.168.672h-16.959c-1.109,0-2.165-.224-3.168-.672-1.002-.447-1.888-1.056-2.655-1.823s-1.376-1.653-1.824-2.656-.672-2.059-.672-3.168v-17.918ZM1378.117,128.044h-5.439v11.52h5.439v-11.52Z"/>
      <path class="cls-6" d="M1419.077,150.442l-1.601-3.52h-.319c-.384.768-.854,1.45-1.408,2.048-.555.597-1.173,1.099-1.855,1.504s-1.515.607-2.496.607h-6.399c-1.109,0-2.165-.224-3.168-.672-1.003-.447-1.888-1.056-2.656-1.823-.768-.769-1.376-1.653-1.823-2.656-.448-1.003-.672-2.059-.672-3.168v-4.479c0-1.109.224-2.165.672-3.168.447-1.002,1.056-1.888,1.823-2.655s1.653-1.376,2.656-1.824,2.059-.672,3.168-.672h10.239v-2.56h-15.359v-10.239h21.119c1.108,0,2.165.224,3.167.672,1.003.448,1.889,1.056,2.656,1.823.768.769,1.376,1.653,1.824,2.656.447,1.003.672,2.059.672,3.168v24.958h-10.239ZM1415.237,140.843v-2.56h-4.479v2.56h4.479Z"/>
      <path class="cls-6" d="M1443.077,151.082c-1.109,0-2.165-.224-3.168-.672-1.002-.447-1.888-1.056-2.655-1.823s-1.376-1.653-1.824-2.656-.672-2.059-.672-3.168v-17.278c0-1.109.224-2.165.672-3.168s1.056-1.888,1.824-2.656,1.653-1.375,2.655-1.823c1.003-.448,2.059-.672,3.168-.672h11.199v-11.52h14.079v44.797h-10.239l-1.6-3.52h-.32c-.384.768-.854,1.45-1.408,2.048-.555.597-1.173,1.099-1.855,1.504s-1.515.607-2.496.607h-7.359ZM1448.837,128.684v10.88h5.439v-10.88h-5.439Z"/>
    </g>
  </g>
  <path class="cls-3" d="M223,1194.54h2142M223,989.53h2142M223,785.52h2142M223,580.52h2142M223,376.51h2142M223,171.46h2142"/>
  <g class="cls-7">
    <g class="cls-7">
      <path class="cls-6" d="M145.655,393.645v.41h.82c1.859,0,3.349.56,4.469,1.681s1.681,2.61,1.681,4.469v4.92c0,1.859-.56,3.349-1.681,4.47-1.121,1.12-2.61,1.681-4.469,1.681h-15.99v-7.79h12.71v-2.87h-8.2v-6.15l5.74-3.689v-.41h-7.79l-2.46-2.46v-5.33h20.91v7.38l-5.74,3.69Z"/>
      <path class="cls-6" d="M155.904,388.315c0-1.859.561-3.349,1.681-4.47,1.121-1.12,2.61-1.681,4.469-1.681h10.66c1.858,0,3.348.561,4.469,1.681,1.121,1.121,1.681,2.61,1.681,4.47v17.22c0,1.858-.561,3.349-1.681,4.469-1.121,1.121-2.61,1.682-4.469,1.682h-10.66c-1.859,0-3.349-.561-4.469-1.682-1.121-1.12-1.681-2.61-1.681-4.469v-17.22ZM165.334,389.955v13.94h4.1v-13.94h-4.1Z"/>
      <path class="cls-6" d="M182.964,388.315c0-1.859.561-3.349,1.681-4.47,1.121-1.12,2.61-1.681,4.469-1.681h10.66c1.858,0,3.348.561,4.469,1.681,1.121,1.121,1.681,2.61,1.681,4.47v17.22c0,1.858-.561,3.349-1.681,4.469-1.121,1.121-2.61,1.682-4.469,1.682h-10.66c-1.859,0-3.349-.561-4.469-1.682-1.121-1.12-1.681-2.61-1.681-4.469v-17.22ZM192.394,389.955v13.94h4.1v-13.94h-4.1Z"/>
    </g>
  </g>
  <path class="cls-5" d="M230,1162l31.086-24.93,32.059-24,32.059-24.01,31.024-23,32.059-23,31.024-23,32.059-22,32.069-22,31.024-22,32.059-20,31.024-20,32.059-20,32.059-19,31.024-18,32.059-18,31.024-16,32.059-16,31.035-16.01,32.059-14,32.059-14,31.024-13,32.059-13,31.024-11,32.059-11,32.059-10,31.024-10,32.059-9,31.035-8,32.059-7,32.059-7,31.024-6,32.059-6,31.024-5,32.059-4,32.059-4,31.024-4,32.059-4,31.035-3,32.059-2,32.059-3,31.024-2,32.059-2,31.024-2,32.059-2,32.059-2,31.024-2,32.059-1,31.035-2,32.059-2,31.024-2,32.059-2,32.059-2,31.024-3,32.059-3,31.024-2,32.059-4,32.059-3,31.035-4,32.059-4,31.024-5,32.059-5,32.059-5,31.024-6,32.059-7,31.024-6,32.059-8,31.934-7.05"/>
  <path class="cls-1" d="M230,1361.5l31.086-24.92,32.059-24,32.059-24,31.024-24,32.059-23,31.024-22,32.059-23,32.069-21,31.024-22,32.059-20,31.024-21.01,32.059-19,32.059-19,31.024-18,32.059-18,31.024-17,32.059-16,31.035-15,32.059-15,32.059-14,31.024-13,32.059-12,31.024-12,32.059-11,32.059-10,31.024-9,32.059-9,31.035-8,32.059-7,32.059-7,31.024-6,32.059-6,31.024-5,32.059-5,32.059-4,31.024-3,32.059-4,31.035-3,32.059-3,32.059-2,31.024-2,32.059-3,31.024-1,32.059-2.01,32.059-2,31.024-2,32.059-2,31.035-1,32.059-2,31.024-2,32.059-2,32.059-3,31.024-2,32.059-3,31.024-3,32.059-3,32.059-3,31.035-4,32.059-5,31.024-4,32.059-5,32.059-6,31.024-5,32.059-7,31.024-7,32.059-7,31.934-8.06"/>
</svg>