<?xml version="1.0" encoding="UTF-8"?>
<svg id="Layer_1" data-name="Layer 1" xmlns="http://www.w3.org/2000/svg" viewBox="0 0 448 286">
  <defs>
    <style>
      .cls-1 {
        stroke-linecap: round;
        stroke-linejoin: round;
      }

      .cls-1, .cls-2 {
        fill: none;
        stroke: #231f20;
      }

      .cls-2 {
        stroke-miterlimit: 10;
      }
    </style>
  </defs>
  <line class="cls-2" x1="91.27" y1="38.25" x2="123.76" y2="38.25"/>
  <path class="cls-2" d="M425.72,159.11v26.41h3.58"/>
  <polyline class="cls-2" points="310.97 38.25 425.72 38.25 425.72 120.69"/>
  <path class="cls-2" d="M425.72,152.9v1.57"/>
  <line class="cls-2" x1="68.92" y1="38.25" x2="86.54" y2="38.25"/>
  <line class="cls-2" x1="160.98" y1="38.25" x2="256.33" y2="38.25"/>
  <line class="cls-2" x1="276.12" y1="38.25" x2="310.97" y2="38.25"/>
  <line class="cls-2" x1="425.72" y1="120.69" x2="425.72" y2="144.71"/>
  <line class="cls-2" x1="258.66" y1="38.25" x2="276.12" y2="38.25"/>
  <line class="cls-2" x1="256.33" y1="38.25" x2="258.66" y2="38.25"/>
  <line class="cls-2" x1="123.76" y1="38.25" x2="156.25" y2="38.25"/>
  <line class="cls-2" x1="425.72" y1="157.31" x2="425.72" y2="159.11"/>
  <line class="cls-2" x1="425.72" y1="154.47" x2="425.72" y2="157.31"/>
  <line class="cls-2" x1="425.72" y1="144.71" x2="425.72" y2="149.9"/>
  <line class="cls-2" x1="425.72" y1="149.9" x2="425.72" y2="152.9"/>
  <path class="cls-2" d="M429.3,185.52h-3.58v1.64"/>
  <line class="cls-2" x1="156.25" y1="38.25" x2="160.98" y2="38.25"/>
  <line class="cls-2" x1="86.54" y1="38.25" x2="91.27" y2="38.25"/>
  <line class="cls-2" x1="62.12" y1="38.25" x2="68.92" y2="38.25"/>
  <path class="cls-1" d="M76.31,79.96c-4.75,19.39,7.11,38.96,26.5,43.72.18-.74.37-1.49.55-2.23.18-.74.37-1.49.55-2.23h0c-16.93-4.15-27.28-21.23-23.14-38.16-4.15,16.93,6.21,34.01,23.14,38.16h0l1.64-6.7c-13.22-3.24-21.31-16.59-18.07-29.81,3.24-13.22,16.59-21.31,29.81-18.07l6.47-26.39h-32.49l-10.5,42.81-4.46-1.09Z"/>
  <path class="cls-1" d="M301.04,201.9l.44-.22c-.17-.33-.51-.55-.88-.55v.49c.19,0,.36.11.44.27Z"/>
  <rect class="cls-1" x="301.17" y="201.75" width=".49" height=".69" transform="translate(-58.56 156.13) rotate(-26.57)"/>
  <path class="cls-1" d="M38.38,152.21c-1.19,4.44-1.86,9.01-1.99,13.61,0,.03,0,.05,0,.08,0,.03,0,.05,0,.08l-.51,19.55h114.68l.26-31.05h.06s-.03-.01-.05-.02c.02,0,.03.01.05.02h124.05v-3.55c-10.94-3.55-17.49-11.49-17.6-21.33l-.99-91.34h-95.35l-11.83,48.23c.42,7.5-1.41,14.95-5.25,21.41-10.67,17.94-33.86,23.84-51.8,13.17-17.94-10.66-23.83-33.85-13.18-51.79l7.61-31.02h-17.62l-30.49,113.8-.02.08-.02.08Z"/>
  <polygon class="cls-1" points="300.6 201.62 300.6 201.13 297.1 201.13 294.7 201.13 282.34 201.13 277.17 201.13 277.17 201.62 300.6 201.62"/>
  <polygon class="cls-1" points="78.94 69.26 78.93 69.27 76.31 79.96 80.77 81.06 91.27 38.25 86.54 38.25 78.93 69.27 78.94 69.26"/>
  <path class="cls-1" d="M282.38,187.68v-.02c0-.11.67-.22,1.91-.33.6-.05,1.31-.11,2.11-.16h-4.9c.3.17.59.34.89.51Z"/>
  <path class="cls-1" d="M424.9,185.52h-8.07l-.92,1.64h9.8v-1.64h-.82Z"/>
  <path class="cls-1" d="M297.1,187.66v.33-.33ZM296.58,188.14c-.39.06-.97.11-1.73.17-.73.05-1.59.1-2.55.16-1,.06-2.08.11-3.17.17-1.05.05-2.1.1-3.09.16-1.03.06-1.97.11-2.77.17-.77.05-1.39.1-1.83.16-.46.06-.72.11-.75.17-.01.02,0,.03.03.05-.03-.02-.04-.03-.03-.05.04-.05.29-.11.75-.17.44-.06,1.07-.11,1.83-.16.8-.05,1.74-.11,2.77-.17.99-.06,2.04-.11,3.09-.16,1.1-.05,2.17-.11,3.17-.17.96-.06,1.83-.11,2.55-.16.75-.05,1.34-.11,1.73-.17.35-.05.53-.1.53-.15,0,.05-.18.1-.53.15ZM297.1,190.29v.33-.33ZM296.64,190.75c-.36.06-.92.11-1.65.17-.7.05-1.55.1-2.5.16-.98.06-2.05.11-3.14.17-1.05.05-2.1.1-3.1.16-1.03.06-1.99.11-2.81.17-.79.05-1.43.1-1.9.16-.49.06-.78.11-.85.17-.03.02-.02.04.01.06-.04-.02-.04-.04-.01-.06.07-.05.36-.11.85-.17.47-.05,1.12-.11,1.9-.16.82-.05,1.77-.11,2.81-.17,1-.05,2.05-.11,3.1-.16,1.09-.05,2.16-.11,3.14-.17.95-.05,1.8-.11,2.5-.16.73-.05,1.29-.11,1.65-.17.3-.05.46-.09.46-.14,0,.05-.15.09-.46.14ZM297.1,192.92v.33-.33ZM296.72,193.37c-.32.06-.84.11-1.52.16-.69.05-1.53.11-2.48.16-.94.06-1.98.11-3.04.16-1.07.05-2.15.11-3.17.16-1.02.06-1.97.11-2.8.17-.83.05-1.52.11-2.04.16-.51.06-.83.11-.95.17-.06.03-.06.05-.02.08.56.32,1.12.65,1.68.97v-.02.31-.29c-.56-.32-1.12-.65-1.68-.97,0,0,0,0,0,0,0,0,0,0,0,0,0,0,0,0,0,0,0,0,0,0,0,0-.04-.03-.04-.05.02-.08.12-.05.44-.11.95-.17.51-.06,1.2-.11,2.04-.16.83-.05,1.78-.11,2.8-.17,1.03-.06,2.1-.11,3.17-.16,1.06-.05,2.09-.11,3.04-.16.95-.06,1.79-.11,2.48-.16.68-.05,1.2-.11,1.52-.16.25-.04.38-.09.38-.13,0,.04-.13.08-.38.13ZM297.1,195.54v.33-.33ZM280.7,197.22c-.06-.03-.03-.07.08-.1.18-.05.56-.11,1.13-.17.56-.05,1.29-.1,2.15-.16.87-.05,1.86-.11,2.9-.17,1.03-.05,2.11-.1,3.16-.16,1.06-.05,2.08-.11,3-.17.91-.05,1.71-.11,2.34-.16.64-.05,1.11-.11,1.37-.17.17-.04.26-.07.26-.1,0,.03-.09.07-.26.1-.27.06-.73.11-1.37.17-.64.05-1.43.1-2.34.16-.92.06-1.94.11-3,.17-1.05.05-2.12.1-3.16.16-1.04.06-2.03.11-2.9.17-.86.05-1.59.1-2.15.16-.57.06-.95.11-1.13.17-.12.04-.14.07-.08.1ZM297.07,195.51c-.56-.32-1.12-.65-1.68-.97v.02c0,.11-.67.22-1.91.33s-2.85.22-4.6.33c-1.75.11-3.37.22-4.6.33-1.05.09-1.7.19-1.87.28-.57.33-1.14.66-1.72,1,.57-.33,1.14-.66,1.72-1,.16-.1.81-.19,1.87-.28,1.24-.11,2.85-.22,4.6-.33,1.75-.11,3.37-.22,4.6-.33s1.91-.22,1.91-.33v-.31s-.03.02-.04.02c-.16.09-.81.19-1.87.28-1.24.11-2.85.22-4.6.33-1.75.11-3.37.22-4.6.33-1.24.11-1.91.22-1.91.33,0-.11.67-.22,1.91-.33,1.24-.11,2.85-.22,4.6-.33,1.75-.11,3.37-.22,4.6-.33,1.05-.09,1.7-.19,1.87-.28.01,0,.03-.02.04-.02h0s0,0,0,0c.56-.32,1.12-.65,1.68-.97-.56.32-1.12.65-1.68.97v.29c.56.32,1.12.65,1.68.97ZM297.07,192.88c-.56-.32-1.12-.65-1.68-.97v.02c0,.11-.67.22-1.91.33s-2.85.22-4.6.33c-1.75.11-3.37.22-4.6.33-1.05.09-1.7.19-1.87.28-.57.33-1.14.66-1.72,1,.57-.33,1.14-.66,1.72-1,.16-.1.81-.19,1.87-.28,1.24-.11,2.85-.22,4.6-.33,1.75-.11,3.37-.22,4.6-.33s1.91-.22,1.91-.33v-.31s-.03.02-.04.02c-.16.1-.81.19-1.87.28-1.24.11-2.85.22-4.6.33-1.75.11-3.37.22-4.6.33-1.24.11-1.91.22-1.91.33v.31-.29c-.56-.32-1.12-.65-1.68-.97.56.32,1.12.65,1.68.97v-.02c0-.11.67-.22,1.91-.33,1.24-.11,2.85-.22,4.6-.33,1.75-.11,3.37-.22,4.6-.33,1.05-.09,1.7-.19,1.87-.28.01,0,.03-.02.04-.02h0s0,0,0,0c.56-.32,1.12-.65,1.68-.97-.56.32-1.12.65-1.68.97v.29c.56.32,1.12.65,1.68.97ZM297.07,190.25c-.56-.32-1.12-.65-1.68-.97v.02c0,.11-.67.22-1.91.33-1.24.11-2.85.22-4.6.33-1.75.11-3.37.22-4.6.33-1.05.09-1.7.19-1.87.28-.01,0-.03.02-.04.02h0c-.56.32-1.12.65-1.68.97.56-.32,1.12-.65,1.68-.97v-.29c-.56-.32-1.12-.65-1.68-.97.56.32,1.12.65,1.68.97v-.02c0-.11.67-.22,1.91-.33,1.24-.11,2.85-.22,4.6-.33,1.75-.11,3.37-.22,4.6-.33,1.05-.09,1.7-.19,1.87-.28.01,0,.03-.02.04-.02h0s0,0,0,0c.56-.32,1.12-.65,1.68-.97-.56.32-1.12.65-1.68.97v.29c.56.32,1.12.65,1.68.97ZM282.42,187.94c2.97-.45,5.96-.71,8.96-.75-3,.05-5.99.3-8.96.75ZM281.14,188.83c.37-.06.93-.11,1.67-.17.71-.05,1.56-.1,2.51-.16.99-.06,2.06-.11,3.15-.17,1.05-.05,2.1-.1,3.1-.16,1.03-.06,1.98-.11,2.8-.17.78-.05,1.42-.1,1.89-.16.48-.06.76-.11.82-.17.02-.02.02-.04-.02-.06.03.02.04.04.02.06-.06.05-.34.11-.82.17-.46.05-1.1.11-1.89.16-.81.05-1.76.11-2.8.17-1,.05-2.05.11-3.1.16-1.09.05-2.16.11-3.15.17-.95.05-1.8.11-2.51.16-.74.05-1.31.11-1.67.17-.31.05-.47.1-.47.14,0-.05.16-.09.47-.14ZM280.67,188.97v.33-.33ZM281.21,191.45c.39-.06.98-.11,1.74-.17.73-.05,1.6-.1,2.56-.16,1-.06,2.08-.11,3.18-.17,1.05-.05,2.1-.1,3.09-.16,1.03-.06,1.97-.11,2.76-.17.77-.05,1.39-.1,1.82-.16.46-.06.71-.11.74-.17,0-.02,0-.03-.03-.05.03.02.04.03.03.05-.03.05-.29.11-.74.17-.44.06-1.06.11-1.82.16-.8.05-1.74.11-2.76.17-.99.06-2.04.11-3.09.16-1.1.05-2.18.11-3.18.17-.96.06-1.83.11-2.56.16-.76.05-1.35.11-1.74.17-.35.05-.54.1-.54.15,0-.05.18-.1.54-.15ZM280.67,191.6v.33-.33ZM281.24,194.07c.4-.06,1.01-.11,1.78-.17.74-.05,1.62-.11,2.59-.16,1.01-.06,2.09-.11,3.19-.17,1.06-.05,2.1-.11,3.09-.16,1.02-.06,1.95-.11,2.74-.17.76-.05,1.36-.11,1.79-.16.44-.06.68-.11.69-.17,0-.01,0-.03-.03-.04.02.01.03.03.03.04-.02.05-.25.11-.69.17-.42.06-1.03.11-1.79.16-.79.05-1.72.11-2.74.17-.98.06-2.03.11-3.09.16-1.1.05-2.18.11-3.19.17-.97.06-1.85.11-2.59.16-.77.05-1.37.11-1.78.17-.38.05-.57.11-.57.16,0-.05.19-.1.57-.16ZM280.67,194.23v.33-.33ZM280.67,196.86c0-.05.2-.11.6-.16.41-.06,1.02-.11,1.8-.17.75-.05,1.63-.11,2.6-.16,1.01-.06,2.1-.11,3.2-.17,1.06-.05,2.1-.11,3.09-.16,1.02-.06,1.95-.11,2.73-.17.75-.05,1.35-.11,1.77-.16.43-.06.66-.11.66-.17,0-.01,0-.02-.03-.04.02.01.03.02.03.04,0,.05-.23.11-.66.17-.42.06-1.02.11-1.77.16-.78.05-1.71.11-2.73.17-.98.06-2.03.11-3.09.16-1.1.05-2.19.11-3.2.17-.97.06-1.86.11-2.6.16-.78.05-1.39.11-1.8.17-.39.05-.6.11-.6.16v.33-.33ZM280.67,199.49h0c0-.05.21-.11.61-.16.42-.06,1.03-.11,1.81-.17.75-.05,1.64-.11,2.61-.16,1.01-.06,2.1-.11,3.2-.17,1.06-.05,2.1-.11,3.08-.16,1.02-.06,1.94-.11,2.72-.17.75-.05,1.34-.11,1.75-.16.43-.06.65-.11.65-.17,0-.01-.01-.02-.03-.03-.56-.32-1.12-.65-1.68-.97v.02c0,.11-.67.22-1.91.33s-2.85.22-4.6.33c-1.75.11-3.37.22-4.6.33-1.05.09-1.7.19-1.87.28-.57.33-1.14.66-1.72,1,.57-.33,1.14-.66,1.72-1,.16-.1.81-.19,1.87-.28,1.24-.11,2.85-.22,4.6-.33,1.75-.11,3.37-.22,4.6-.33s1.91-.22,1.91-.33v-.31s-.03.02-.04.02c-.16.1-.81.19-1.87.28-1.24.11-2.85.22-4.6.33-1.75.11-3.37.22-4.6.33-1.24.11-1.91.22-1.91.33v.31-.29c-.56-.32-1.12-.65-1.68-.97.56.32,1.12.65,1.68.97v-.02c0-.11.67-.22,1.91-.33,1.24-.11,2.85-.22,4.6-.33,1.75-.11,3.37-.22,4.6-.33,1.05-.09,1.7-.19,1.87-.28.01,0,.03-.02.04-.02h0c.56-.32,1.12-.65,1.68-.97-.56.32-1.12.65-1.68.97v.29c.56.32,1.12.65,1.68.97.02.01.03.02.03.03,0,.05-.22.11-.65.17-.41.06-1.01.11-1.75.16-.78.05-1.7.11-2.72.17-.98.06-2.03.11-3.08.16-1.1.05-2.19.11-3.2.17-.97.06-1.86.11-2.61.16-.78.05-1.39.11-1.81.17-.4.06-.61.11-.61.16h0v.33-.33ZM282.34,201.13s.02-.01.04-.02v-.29c-.56-.32-1.12-.65-1.68-.97-.07-.04-.01-.08.18-.13.25-.06.7-.11,1.33-.17.62-.05,1.39-.1,2.28-.16.91-.06,1.93-.11,3-.17,1.04-.05,2.11-.1,3.14-.16,1.06-.06,2.06-.11,2.94-.17.87-.05,1.61-.1,2.19-.16.59-.06,1-.11,1.2-.17.09-.03.14-.05.14-.08v-.33.33h0s0,0,0,0c0,.03-.05.05-.14.08-.2.06-.61.11-1.2.17-.58.05-1.32.1-2.19.16-.89.06-1.89.11-2.94.17-1.03.05-2.1.1-3.14.16-1.07.06-2.08.11-3,.17-.89.05-1.67.1-2.28.16-.63.06-1.08.11-1.33.17-.2.04-.26.09-.18.13.56.32,1.12.65,1.68.97v-.02c0-.11.67-.22,1.91-.33,1.24-.11,2.85-.22,4.6-.33,1.75-.11,3.37-.22,4.6-.33,1.05-.09,1.7-.19,1.87-.28.01,0,.03-.02.04-.02h0c.56-.32,1.12-.65,1.68-.97-.56.32-1.12.65-1.68.97v.29c.56.32,1.12.65,1.68.97.02.01.03.02.03.03,0,.05-.21.11-.63.17-.41.06-1,.11-1.74.16-.01,0-.02,0-.04,0h2.41v-.33.33h3.5c.37,0,.71.21.88.55l.31.61c.15.3.45.51.78.54l5.86.6c.5.05.97.25,1.35.57,1.04.88,1.16,2.44.28,3.47l-12.41,14.58c-.4.47-.84.91-1.3,1.3-4.84,4.12-12.1,3.53-16.21-1.3l-12.41-14.58c-.32-.38-.52-.85-.57-1.35-.14-1.35.85-2.56,2.2-2.7l5.86-.6c.34-.03.63-.24.78-.54l.31-.61c.17-.33.51-.55.88-.55h5.17ZM355.78,226.74c0,7.26-5.89,13.15-13.15,13.15h-117.33l-.99-.99-.99.99h-117.33c-7.26,0-13.15-5.89-13.15-13.15v-26.29c0-7.26,5.89-13.15,13.15-13.15h34.51c2.72,0,4.93,2.21,4.93,4.93v6.57c0,1.82-1.47,3.29-3.29,3.29h-12.87c-1.97,0-3.56,1.59-3.56,3.56,0,.76.24,1.5.69,2.11,4.82,6.55,10.59,12.34,17.12,17.2-6.53-4.85-12.29-10.65-17.12-17.2-.45-.61-.69-1.35-.69-2.11,0-1.97,1.59-3.56,3.56-3.56h12.87c1.82,0,3.29-1.47,3.29-3.29v-6.57c0-2.72-2.21-4.93-4.93-4.93h-34.51c-7.26,0-13.15,5.89-13.15,13.15v26.29c0,7.26,5.89,13.15,13.15,13.15h117.33l.99-.99.99.99h117.33c7.26,0,13.15-5.89,13.15-13.15v-26.29c0-7.26-5.89-13.15-13.15-13.15h-34.51c-2.72,0-4.93,2.21-4.93,4.93v6.57c0,1.82,1.47,3.29,3.29,3.29h12.87c.76,0,1.5.24,2.11.69,1.58,1.17,1.92,3.4.76,4.98-4.82,6.55-10.59,12.34-17.12,17.2-2.27,1.69-5.02,2.6-7.85,2.6h-14.41s-.06,0-.1,0c0,0,0,0,0,0,0,0,0,0,0,0-2.79-.02-5.51-.93-7.75-2.59-6.53-4.85-12.29-10.65-17.12-17.2-.45-.61-.69-1.35-.69-2.11,0-1.97,1.59-3.56,3.56-3.56h12.87c1.82,0,3.29-1.47,3.29-3.29v-6.57c0-2.72-2.21-4.93-4.93-4.93h-95.31c-2.72,0-4.93,2.21-4.93,4.93v6.57c0,1.82,1.47,3.29,3.29,3.29h12.87c.76,0,1.5.24,2.11.69,1.58,1.17,1.92,3.4.76,4.98-4.82,6.55-10.59,12.34-17.12,17.2-2.27,1.69-5.02,2.6-7.85,2.6h-14.41c-2.83,0-5.58-.91-7.85-2.6,2.27,1.69,5.02,2.6,7.85,2.6h14.41c2.83,0,5.58-.91,7.85-2.6,6.53-4.85,12.29-10.65,17.12-17.2,1.17-1.58.83-3.81-.76-4.98-.61-.45-1.35-.69-2.11-.69h-12.87c-1.82,0-3.29-1.47-3.29-3.29v-6.57c0-2.72,2.21-4.93,4.93-4.93h95.31c2.72,0,4.93,2.21,4.93,4.93v6.57c0,1.82-1.47,3.29-3.29,3.29h-12.87c-1.97,0-3.56,1.59-3.56,3.56,0,.76.24,1.5.69,2.11,4.82,6.55,10.59,12.34,17.12,17.2,2.24,1.67,4.96,2.57,7.75,2.59-1.21-1.36-1.93-3.07-2.06-4.88.13,1.81.85,3.53,2.06,4.88.03,0,.06,0,.1,0h12.18c1.21-1.36,1.93-3.07,2.06-4.89-.13,1.81-.85,3.53-2.06,4.89h2.24c2.83,0,5.58-.91,7.85-2.6,6.53-4.85,12.29-10.65,17.12-17.2,1.17-1.58.83-3.81-.76-4.98-.61-.45-1.35-.69-2.11-.69h-12.87c-1.82,0-3.29-1.47-3.29-3.29v-6.57c0-2.72,2.21-4.93,4.93-4.93h34.51c7.26,0,13.15,5.89,13.15,13.15v26.29ZM122.44,213.6c0,5.45-4.41,9.86-9.86,9.86s-9.86-4.41-9.86-9.86,4.41-9.86,9.86-9.86,9.86,4.41,9.86,9.86ZM191.82,219.88c4.83-6.65,10.62-12.53,17.19-17.46,2.28-1.71,5.04-2.63,7.89-2.63h14.85c2.84,0,5.61.92,7.89,2.63,6.57,4.93,12.36,10.81,17.19,17.46.41.56.63,1.24.63,1.93,0,1.82-1.47,3.29-3.29,3.29h-59.69c-.69,0-1.37-.22-1.93-.63-1.47-1.07-1.8-3.12-.73-4.59ZM326.2,213.6c0-5.45,4.41-9.86,9.86-9.86s9.86,4.41,9.86,9.86-4.41,9.86-9.86,9.86-9.86-4.41-9.86-9.86Z"/>
  <path class="cls-1" d="M276.29,201.68l.44.22c.08-.17.25-.27.44-.27v-.49c-.37,0-.71.21-.88.55Z"/>
  <path class="cls-1" d="M194.48,225.1h59.69c1.82,0,3.29-1.47,3.29-3.29,0-.69-.22-1.37-.63-1.93-4.83-6.65-10.62-12.53-17.19-17.46-2.28-1.71-5.04-2.63-7.89-2.63h-14.85c-2.84,0-5.61.92-7.89,2.63-6.57,4.93-12.36,10.81-17.19,17.46-1.07,1.47-.74,3.52.73,4.59.56.41,1.24.63,1.93.63Z"/>
  <path class="cls-1" d="M38.41,152.13l.02-.08-6.39-1.54s-.01.05-.02.08c0,.03-.01.05-.02.08l6.39,1.54.02-.08Z"/>
  <rect class="cls-1" x="294.09" y="214.36" width="19.15" height=".49" transform="translate(-56.58 306.77) rotate(-49.6)"/>
  <path class="cls-1" d="M302.52,203.32c-.5-.05-.95-.36-1.17-.81l-.31-.61c-.08-.17-.25-.27-.44-.27h-23.43c-.19,0-.36.11-.44.27l-.31.61c-.23.45-.67.76-1.17.81.5-.05.95-.36,1.17-.81l-.44-.22c-.15.3-.45.51-.78.54l.05.49-5.86.6c-1.08.11-1.87,1.08-1.76,2.16.04.4.2.77.46,1.08l12.41,14.58c3.94,4.63,10.89,5.19,15.52,1.25.45-.38.87-.8,1.25-1.25l12.41-14.58c.71-.83.61-2.07-.22-2.78-.3-.26-.68-.42-1.08-.46l-5.86-.6.05-.49c-.34-.03-.63-.24-.78-.54l-.44.22c.23.45.67.76,1.17.81Z"/>
  <path class="cls-1" d="M309.46,204.38c.83.71.93,1.95.22,2.78l.38.32c.88-1.04.76-2.59-.28-3.47-.38-.32-.85-.52-1.35-.57l-.05.49c.4.04.77.2,1.08.46Z"/>
  <rect class="cls-1" x="305.23" y="200.43" width=".49" height="5.89" transform="translate(71.95 486.47) rotate(-84.13)"/>
  <path class="cls-1" d="M296.02,222.99c-4.63,3.94-11.58,3.38-15.52-1.25l-.38.32c4.12,4.84,11.38,5.42,16.21,1.3.47-.4.91-.84,1.3-1.3l-.38-.32c-.38.45-.8.87-1.25,1.25Z"/>
  <path class="cls-1" d="M421.81,161.19c-1.77.88-3.51,1.64-5.16,2.17l.18,22.16h8.89v-26.41c-1.31.74-2.62,1.44-3.91,2.08Z"/>
  <rect class="cls-1" x="273.86" y="205.04" width=".49" height="19.15" transform="translate(-73.73 228.83) rotate(-40.4)"/>
  <polygon class="cls-1" points="416.82 185.52 415.9 187.16 415.91 187.16 415.92 187.16 416.83 185.52 416.83 185.52 416.82 185.52"/>
  <path class="cls-1" d="M411.43,164.07h-38.44c-4.19,0-8.22.98-11.43,2.79l.15,18.66h55.13l-.18-22.16c-1.65.47-3.42.71-5.23.71Z"/>
  <polygon class="cls-1" points="38.43 152.05 68.92 38.25 62.12 38.25 32.04 150.51 38.43 152.05"/>
  <path class="cls-1" d="M284.28,200.8c1.24-.11,2.85-.22,4.6-.33,1.75-.11,3.37-.22,4.6-.33,1.24-.11,1.91-.22,1.91-.33v-.31s-.03.02-.04.02c-.16.1-.81.19-1.87.28-1.24.11-2.85.22-4.6.33-1.75.11-3.37.22-4.6.33-1.24.11-1.91.22-1.91.33v.31s.03-.02.04-.02c.16-.09.81-.19,1.87-.28Z"/>
  <path class="cls-1" d="M295.36,189.02c-.16.1-.81.19-1.87.28-1.24.11-2.85.22-4.6.33-1.75.11-3.37.22-4.6.33-1.24.11-1.91.22-1.91.33v.31s.03-.02.04-.02c.16-.1.81-.19,1.87-.28,1.24-.11,2.85-.22,4.6-.33,1.75-.11,3.37-.22,4.6-.33,1.24-.11,1.91-.22,1.91-.33v-.31s-.03.02-.04.02Z"/>
  <polygon class="cls-1" points="361.7 185.52 360.79 187.16 415.9 187.16 416.82 185.52 361.7 185.52"/>
  <path class="cls-1" d="M294.73,201.13c.74-.05,1.33-.11,1.74-.16.42-.06.64-.11.63-.17,0-.01-.01-.02-.03-.03-.56-.32-1.12-.65-1.68-.97v.02c0,.11-.67.22-1.91.33-1.24.11-2.85.22-4.6.33-1.75.11-3.37.22-4.6.33-1.05.09-1.7.19-1.87.28-.01,0-.03.02-.04.02h0s-.02.01-.04.02h12.36s.02,0,.04,0Z"/>
  <path class="cls-1" d="M267.63,206.09c-.11-1.08.68-2.05,1.76-2.16l-.05-.49c-1.35.14-2.34,1.35-2.2,2.7.05.5.25.97.57,1.35l.38-.32c-.26-.3-.42-.68-.46-1.08Z"/>
  <rect class="cls-1" x="269.35" y="203.13" width="5.89" height=".49" transform="translate(-19.36 28.9) rotate(-5.87)"/>
  <path class="cls-1" d="M38.38,152.21l-6.39-1.54c-1.31,4.94-2.04,10.02-2.17,15.13l6.57.02c.13-4.6.8-9.17,1.99-13.61Z"/>
  <rect class="cls-1" x="276.01" y="201.85" width=".69" height=".49" transform="translate(-27.99 358.9) rotate(-63.43)"/>
  <polygon class="cls-1" points="167.52 185.52 167.51 185.52 168.43 187.16 168.43 187.16 168.44 187.16 167.52 185.52 167.52 185.52"/>
  <polygon class="cls-1" points="35.88 185.52 35.88 185.52 36.51 187.16 150.54 187.16 150.54 185.52 35.88 185.52"/>
  <path class="cls-1" d="M163.64,185.52h-13.08v1.64h17.88l-.92-1.64h-3.88Z"/>
  <rect class="cls-1" x="150.54" y="185.52" width=".01" height="1.64"/>
  <path class="cls-1" d="M36.39,165.9s0-.05,0-.08l-6.57-.02s0,.06,0,.09v.09s6.57,0,6.57,0c0-.03,0-.05,0-.08Z"/>
  <polygon class="cls-1" points="35.88 185.52 36.39 165.97 29.81 165.97 29.3 185.52 29.3 185.52 35.88 185.52 35.88 185.52"/>
  <polygon class="cls-1" points="361.7 185.52 361.69 185.52 360.78 187.16 360.78 187.16 360.79 187.16 361.7 185.52 361.7 185.52"/>
  <polygon class="cls-1" points="29.3 185.52 30.9 187.16 36.51 187.16 35.88 185.52 29.3 185.52"/>
  <polygon class="cls-1" points="344.75 185.52 344.75 185.52 344.75 187.16 344.76 187.16 344.76 185.52 344.75 185.52"/>
  <polygon class="cls-1" points="167.52 185.52 168.44 187.16 223.56 187.16 222.64 185.52 167.52 185.52"/>
  <polygon class="cls-1" points="239.6 185.52 239.6 187.16 281.49 187.16 286.4 187.16 296.28 187.16 344.75 187.16 344.75 185.52 239.6 185.52"/>
  <path class="cls-1" d="M357.82,185.52h-13.06v1.64h16.02l.92-1.64h-3.88Z"/>
  <polygon class="cls-1" points="239.59 185.52 239.59 185.52 239.59 187.16 239.6 187.16 239.6 185.52 239.59 185.52"/>
  <polygon class="cls-1" points="222.65 185.52 222.64 185.52 223.56 187.16 223.56 187.16 223.57 187.16 222.65 185.52 222.65 185.52"/>
  <path class="cls-1" d="M235.1,185.52h-12.44l.92,1.64h16.02v-1.64h-4.49Z"/>
  <path class="cls-1" d="M355.33,86.85c-8.12-10.5-6.2-25.59,4.29-33.71-1.4.57-2.65,1.44-3.66,2.57-8.37,9.36-8.37,23.51,0,32.86,1.01,1.13,2.26,2.01,3.66,2.57-1.61-1.24-3.05-2.69-4.29-4.29Z"/>
  <path class="cls-1" d="M274.92,148.12v-2.03l.82-.82h15.69c-6.96-4.19-12.49-12.69-14.39-22.09l-17.4,6.42c-.1,8.56,5.55,15.42,15.27,18.53Z"/>
  <path class="cls-1" d="M364.05,144.71c2.41.91,4.96,1.37,7.53,1.37h23.56c2.57,0,5.13-.46,7.53-1.37,9.73-3.67,15.41-13.81,13.45-24.02-1.93-10.06-10.73-17.33-20.98-17.33h-23.56c-10.24,0-19.05,7.27-20.98,17.33-1.96,10.21,3.72,20.35,13.45,24.02ZM351.77,119.3c2.99-10.94,14.29-17.39,25.23-14.39,3.87-1.06,7.97-.96,11.78.28,4.13-1.35,8.59-1.35,12.72,0,10.79,3.51,16.68,15.11,13.17,25.89-3.51,10.79-15.11,16.68-25.89,13.17-3.81,1.24-7.91,1.34-11.78.28-3.55.97-7.29.97-10.84,0-10.94-2.99-17.39-14.29-14.39-25.23Z"/>
  <path class="cls-1" d="M364.05,144.71c-9.73-3.67-15.41-13.81-13.45-24.02h-38.74v24.02h52.19Z"/>
  <path class="cls-1" d="M211.36,164.07h-38.44c-1.8,0-3.58-.24-5.23-.71l-.18,22.16h55.13l.15-18.66c-3.22-1.81-7.24-2.79-11.43-2.79Z"/>
  <path class="cls-1" d="M291.43,145.26h10.6l.82.82v3.82h122.87v-5.19h-23.04c-2.41.91-4.96,1.37-7.53,1.37h-23.56c-2.57,0-5.13-.46-7.53-1.37h-52.19c-3.32,0-6.6.26-9.61.77,3.01-.51,6.29-.77,9.61-.77v-24.02c-13.07.08-25.59.97-34.82,2.48,1.9,9.4,7.43,17.9,14.39,22.09Z"/>
  <path class="cls-1" d="M162.53,161.19c1.77.88,3.51,1.64,5.16,2.17.28-1.36,1.03-2.54,1.88-2.96-6.38-1.48-12.64-3.46-18.71-5.93h-.06c1.02.62,2.04,1.25,3.07,1.86,2.92,1.76,5.82,3.45,8.66,4.86Z"/>
  <path class="cls-1" d="M162.53,161.19c-2.83-1.41-5.73-3.1-8.66-4.86-1.02-.62-2.05-1.24-3.07-1.86l-.26,31.05h16.96l.18-22.16c-1.65-.53-3.39-1.29-5.16-2.17Z"/>
  <polygon class="cls-1" points="274.92 160.87 302.85 160.87 302.85 159.03 302.85 154.47 302.85 152.9 302.85 149.9 302.85 146.08 274.92 146.08 274.92 148.12 274.92 150.92 274.92 154.47 274.92 159.03 274.92 160.87"/>
  <path class="cls-1" d="M169.58,160.4c1.65.31,3.42.48,5.23.48h27.85s.07,0,.12-.02l.25-.25h7.39l.17.17v.03h0s0,0,0,0h0s-.03.05-.1.07h.2s-.05-.04-.09-.07c.04.02.07.05.09.07h0,0s0,0,0,0h.11s-.07,0-.12-.02c.05.01.09.02.12.02h16.11c.55,0,1.11-.05,1.65-.14.82-.12,1.7-.3,2.62-.51.82-.18,1.67-.37,2.55-.55.93-.19,1.9-.36,2.89-.47.98-.12,1.99-.18,2.98-.18h35.33v-4.56h-124.05c6.07,2.47,12.33,4.45,18.71,5.93,0,0,0,0,0,0ZM203.77,160.54c.37-.12.83-.27,1.34-.38.51-.11,1.08-.18,1.61-.18s1.1.07,1.61.18c.51.11.98.26,1.34.38.07.02.14.05.2.07-.07-.02-.13-.05-.2-.07-.37-.12-.83-.27-1.34-.38-.51-.11-1.08-.18-1.61-.18s-1.1.07-1.61.18c-.51.11-.98.26-1.34.38-.07.02-.14.05-.2.07.07-.02.13-.05.2-.07Z"/>
  <path class="cls-1" d="M259.65,129.59c-.62,0-1.45,0-2.32,0,.11,9.84,6.65,17.78,17.6,21.33v-2.8c-9.72-3.11-15.37-9.97-15.27-18.53Z"/>
  <path class="cls-1" d="M226.5,165.69c-.64.53-1.25,1.36-1.66,2.24,4.5,2.4,9.63,3.67,14.87,3.68v-2.24c-4.65,0-9.21-1.27-13.21-3.68Z"/>
  <path class="cls-1" d="M344.63,171.6c5.24,0,10.37-1.27,14.87-3.68-.4-.88-1.01-1.7-1.66-2.24-4,2.41-8.56,3.68-13.21,3.68v2.24Z"/>
  <path class="cls-1" d="M348.01,161.83c3.11-.18,6.2-.49,9.28-.94-3.08.45-6.17.76-9.28.94.08,0,.16.01.23.02-.08,0-.16-.01-.23-.02-1.08.06-2.17.11-3.25.14,1.08-.03,2.17-.07,3.25-.14-1.08-.11-2.16-.17-3.25-.18v.31h-105.17v-.31c-1.09,0-2.17.07-3.25.18,1.08.06,2.17.11,3.25.14-1.08-.03-2.17-.07-3.25-.14-.08,0-.16.01-.23.02.08,0,.16-.01.23-.02-3.11-.18-6.2-.49-9.28-.94,3.08.45,6.17.76,9.28.94,1.08-.11,2.16-.17,3.25-.18v-2.63c-1,0-2,.06-2.98.18-.98.12-1.95.28-2.89.47-.88.18-1.73.37-2.55.55-.92.2-1.8.39-2.62.51l.18.33-.18-.33c-.55.08-1.1.13-1.65.14l.03.04-.03-.04h-1.11c.42,0,.84.02,1.26.05-.42-.03-.84-.04-1.26-.05h-12.55c4.19,0,8.22,1.23,11.43,3.49.61.43,1.22.87,1.82,1.33h131.34c.6-.45,1.21-.89,1.82-1.33,3.22-2.26,7.24-3.49,11.43-3.49h-12.55c-.42,0-.84.02-1.26.05.42-.03.84-.04,1.26-.05h-1.11l-.03.04.03-.04c-.55,0-1.11-.05-1.65-.14l-.18.33.18-.33c-.49-.07-1-.17-1.53-.27-1.14-.23-2.36-.52-3.64-.78-.93-.19-1.9-.36-2.89-.47s-1.99-.18-2.98-.18v2.63c1.09,0,2.17.07,3.25.18Z"/>
  <path class="cls-1" d="M366.17,144.53c3.55.97,7.29.97,10.84,0v-.85.85c3.87,1.06,7.97.96,11.78-.28v-9.67h-.12,6.48c5.45,0,9.86-4.41,9.86-9.86s-4.41-9.86-9.86-9.86h-6.48.12v-9.67c-3.81-1.24-7.91-1.34-11.78-.28v.85-.85c-10.94-2.99-22.24,3.45-25.23,14.39-2.99,10.94,3.45,22.24,14.39,25.23ZM371.58,105c10.89,0,19.72,8.83,19.72,19.72s-8.83,19.72-19.72,19.72-19.72-8.83-19.72-19.72,8.83-19.72,19.72-19.72Z"/>
  <polygon class="cls-1" points="344.63 169.36 239.72 169.36 239.72 169.36 239.72 171.6 344.63 171.6 344.63 169.36 344.63 169.36"/>
  <path class="cls-1" d="M395.15,114.86c5.45,0,9.86,4.41,9.86,9.86s-4.41,9.86-9.86,9.86h-6.36v9.67c10.79,3.51,22.38-2.38,25.89-13.17,3.51-10.79-2.38-22.38-13.17-25.89-4.13-1.35-8.59-1.35-12.72,0v9.67h6.36Z"/>
  <polygon class="cls-1" points="291.43 145.26 275.74 145.26 274.92 146.08 302.85 146.08 302.03 145.26 291.43 145.26"/>
  <polygon class="cls-1" points="302.07 161.66 344.76 161.66 344.76 159.03 302.85 159.03 302.85 160.87 302.07 161.66"/>
  <path class="cls-1" d="M239.72,169.36h0s104.92,0,104.92,0h0c4.65,0,9.21-1.27,13.21-3.68h-131.34c4,2.41,8.56,3.68,13.21,3.68Z"/>
  <path class="cls-1" d="M224.85,167.92c-.68-.36-1.36-.72-2.05-1.06l-.15,18.66h16.96l.11-13.92c-5.24,0-10.37-1.27-14.87-3.68Z"/>
  <path class="cls-1" d="M356.39,90.21c1.6,1.58,3.76,2.47,6.01,2.47h23.88c2.25,0,4.41-.89,6.01-2.47,0,0,0,0,.01-.01h.01c9.97-9.93,10.01-26.06.08-36.03-.02-.02-.04-.04-.06-.06h-.01s0-.02-.01-.02c-1.6-1.59-3.77-2.49-6.03-2.49h-23.88c-2.26,0-4.43.89-6.03,2.49h-.01s0,.02-.01.02c-9.96,9.94-9.98,26.06-.04,36.02.02.02.04.04.06.06h.01s0,.02.01.02ZM355.96,88.57c-8.37-9.36-8.37-23.51,0-32.86,1.01-1.13,2.26-2.01,3.66-2.57,1.17-.47,2.42-.72,3.69-.72h22.05c1.26,0,2.52.24,3.69.72,1.4.57,2.65,1.44,3.66,2.57,8.37,9.36,8.37,23.51,0,32.86-1.01,1.13-2.26,2.01-3.66,2.57-1.17.47-2.42.72-3.69.72h-22.05c-1.26,0-2.52-.24-3.69-.72-1.4-.57-2.65-1.44-3.66-2.57Z"/>
  <path class="cls-1" d="M117.29,64.63c13.22,3.24,21.31,16.59,18.07,29.81-3.24,13.22-16.59,21.31-29.81,18.07l-1.64,6.7c16.92,4.15,34.01-6.2,38.16-23.13h0l14.18-57.84h-32.49l-6.47,26.39Z"/>
  <path class="cls-1" d="M302.85,159.03h41.9c1,0,2,.06,2.98.18s1.95.28,2.89.47c1.28.26,2.5.55,3.64.78.53.11,1.04.2,1.53.27.55.08,1.1.13,1.65.14h52.1c1.8,0,3.58-.16,5.23-.48,0,0,0,0,0,0,3.7-.86,7.35-1.9,10.95-3.09v-2.83h-122.87v4.56Z"/>
  <path class="cls-1" d="M355.33,86.85c1.24,1.61,2.69,3.05,4.29,4.29,1.17.47,2.42.72,3.69.72h22.05c1.26,0,2.52-.24,3.69-.72,10.5-8.12,12.42-23.22,4.29-33.71-1.24-1.61-2.69-3.05-4.29-4.29-1.17-.47-2.42-.72-3.69-.72h-22.05c-1.26,0-2.52.24-3.69.72-10.5,8.12-12.42,23.22-4.29,33.71ZM374.33,55.26c9.32,0,16.88,7.56,16.88,16.88s-7.56,16.88-16.88,16.88-16.88-7.56-16.88-16.88,7.56-16.88,16.88-16.88Z"/>
  <path class="cls-1" d="M402.68,144.71h23.04v-24.02h-9.6c1.96,10.21-3.72,20.35-13.45,24.02Z"/>
  <path class="cls-1" d="M393.34,57.43c8.12,10.5,6.2,25.59-4.29,33.71,1.4-.57,2.65-1.44,3.66-2.57,8.37-9.36,8.37-23.51,0-32.86-1.01-1.13-2.26-2.01-3.66-2.57,1.61,1.24,3.05,2.69,4.29,4.29Z"/>
  <polygon class="cls-1" points="356.38 90.2 356.37 90.19 355.18 91.33 355.19 91.34 355.21 91.35 356.39 90.21 356.38 90.2"/>
  <rect class="cls-1" x="302.85" y="149.9" width="122.87" height="3"/>
  <path class="cls-1" d="M344.63,171.6l.11,13.92h16.96l-.15-18.66c-.69.34-1.37.7-2.05,1.06-4.5,2.4-9.63,3.67-14.87,3.68Z"/>
  <path class="cls-1" d="M359.67,164.36c-.61.43-1.22.87-1.82,1.33.64.53,1.25,1.36,1.66,2.24.68-.36,1.36-.72,2.05-1.06-.4-1.04-1.12-1.98-1.88-2.5Z"/>
  <path class="cls-1" d="M371.1,160.87c-4.19,0-8.22,1.23-11.43,3.49.77.52,1.48,1.47,1.88,2.5,3.22-1.81,7.24-2.79,11.43-2.79-.03-1.78-.86-3.2-1.88-3.2Z"/>
  <path class="cls-1" d="M356.39,90.21l-1.18,1.14c1.91,1.9,4.49,2.97,7.19,2.97v-1.64c-2.25,0-4.41-.89-6.01-2.47Z"/>
  <polygon class="cls-1" points="239.72 171.6 239.6 185.52 344.75 185.52 344.63 171.6 239.72 171.6"/>
  <path class="cls-1" d="M414.77,160.4c.85.42,1.6,1.6,1.88,2.96,1.65-.53,3.39-1.29,5.16-2.17,1.29-.64,2.59-1.34,3.91-2.08v-1.8c-3.6,1.19-7.25,2.24-10.95,3.09Z"/>
  <path class="cls-1" d="M414.77,160.4s0,0,0,0c0,0,0,0,0,0,0,0,0,0,0,0-1.65.31-3.42.48-5.23.48,1.02,0,1.86,1.42,1.88,3.2,1.8,0,3.58-.24,5.23-.71-.28-1.36-1.03-2.54-1.88-2.96Z"/>
  <path class="cls-1" d="M409.54,160.87h-38.44c1.02,0,1.86,1.42,1.88,3.2h38.44c-.03-1.78-.86-3.2-1.88-3.2Z"/>
  <rect class="cls-1" x="302.85" y="152.9" width="122.87" height="1.57"/>
  <rect class="cls-1" x="362.39" y="49.96" width="23.88" height="1.64"/>
  <path class="cls-1" d="M356.35,54.1h.01s-1.13-1.2-1.13-1.2c0,0,0,0-.01.01,0,0,0,0-.01.01l1.14,1.19h.01Z"/>
  <path class="cls-1" d="M392.3,54.09l1.13-1.19c-1.91-1.88-4.48-2.94-7.16-2.94v1.64c2.26,0,4.43.89,6.03,2.49Z"/>
  <path class="cls-1" d="M362.39,51.6v-1.64c-2.68,0-5.25,1.06-7.16,2.94l1.13,1.19c1.6-1.59,3.77-2.49,6.03-2.49Z"/>
  <path class="cls-1" d="M392.31,54.1h.01s1.14-1.17,1.14-1.17c0,0,0,0-.01-.01,0,0,0,0-.01-.01l-1.13,1.19h.01Z"/>
  <path class="cls-1" d="M386.27,92.68v1.64c2.69,0,5.28-1.07,7.19-2.97l-1.18-1.14c-1.6,1.58-3.76,2.47-6.01,2.47Z"/>
  <polygon class="cls-1" points="362.39 92.68 362.39 94.32 362.39 94.32 386.27 94.32 386.27 94.32 386.27 92.68 362.39 92.68"/>
  <polygon class="cls-1" points="275.74 161.69 275.7 161.66 239.59 161.66 239.59 161.97 272.45 161.97 272.45 161.69 275.74 161.69"/>
  <polygon class="cls-1" points="392.29 90.2 392.28 90.21 393.46 91.35 393.47 91.34 393.48 91.33 392.3 90.19 392.29 90.2"/>
  <path class="cls-1" d="M226.5,165.69c-.6-.45-1.21-.89-1.82-1.33-.77.52-1.48,1.47-1.88,2.5.69.34,1.37.7,2.05,1.06.4-.88,1.01-1.7,1.66-2.24Z"/>
  <path class="cls-1" d="M146.53,97.18l-4.46-1.09c-4.15,16.92-21.24,27.28-38.16,23.13h0c-.18.74-.37,1.49-.55,2.23-.18.74-.37,1.49-.55,2.23,19.39,4.75,38.96-7.11,43.72-26.5Z"/>
  <path class="cls-1" d="M135.36,94.44c3.24-13.22-4.85-26.57-18.07-29.81-13.22-3.24-26.57,4.85-29.81,18.07-3.24,13.22,4.85,26.57,18.07,29.81,13.22,3.24,26.57-4.85,29.81-18.07ZM88.41,88.57c0-12.71,10.3-23,23-23s23,10.3,23,23-10.3,23-23,23-23-10.3-23-23Z"/>
  <path class="cls-1" d="M102.81,123.68c-19.39-4.75-31.26-24.33-26.5-43.72l2.62-10.69c-10.66,17.94-4.76,41.12,13.18,51.79,17.94,10.67,41.13,4.77,51.8-13.17,3.84-6.46,5.67-13.91,5.25-21.41l-2.62,10.7c-4.75,19.39-24.33,31.26-43.72,26.5Z"/>
  <polygon class="cls-1" points="142.07 96.09 142.07 96.09 142.07 96.09 146.53 97.18 149.15 86.48 149.15 86.47 149.15 86.48 160.98 38.25 156.25 38.25 142.07 96.09 142.07 96.09"/>
  <path class="cls-1" d="M277.05,123.17c9.23-1.51,21.75-2.4,34.82-2.48l-.89-82.45h-34.85l.92,84.92Z"/>
  <polygon class="cls-1" points="276.12 38.25 258.66 38.25 259.65 129.59 277.05 123.17 276.12 38.25"/>
  <path class="cls-1" d="M350.61,120.69c1.93-10.06,10.73-17.33,20.98-17.33h23.56c10.24,0,19.05,7.27,20.98,17.33h9.6V38.25h-114.75l.89,82.45h38.74ZM355.21,52.92s0,0,.01-.01c0,0,0,0,.01-.01,1.91-1.88,4.48-2.94,7.16-2.94h23.88c2.68,0,5.25,1.06,7.16,2.94,0,0,0,0,.01.01,0,0,0,0,.01.01.02.02.04.04.07.07,10.58,10.6,10.56,27.77-.04,38.34,0,0,0,0-.01.01,0,0,0,0-.01.01-1.91,1.9-4.49,2.97-7.19,2.97h0s-23.88,0-23.88,0h0c-2.69,0-5.28-1.07-7.19-2.97,0,0,0,0-.01-.01,0,0,0,0-.01-.01-.02-.02-.04-.04-.07-.07-10.56-10.61-10.52-27.78.09-38.34Z"/>
  <path class="cls-1" d="M259.65,129.59l-.99-91.34h-2.32l.99,91.34c.87,0,1.71,0,2.32,0Z"/>
  <path class="cls-1" d="M355.18,91.33l1.18-1.14s-.04-.04-.06-.06c-9.94-9.96-9.92-26.08.04-36.02l-1.14-1.19c-10.61,10.56-10.65,27.73-.09,38.34.02.02.04.04.07.07Z"/>
  <path class="cls-1" d="M392.38,54.17c9.92,9.97,9.89,26.1-.08,36.02l1.18,1.14c10.6-10.58,10.62-27.74.04-38.34-.02-.02-.04-.04-.07-.07l-1.14,1.19s.04.04.06.06Z"/>
  <path class="cls-1" d="M202.78,160.86s-.09.02-.12.02h.11l.02-.02Z"/>
  <polygon class="cls-1" points="302.03 161.69 275.74 161.69 272.45 161.69 272.45 161.97 305.32 161.97 305.32 161.69 302.03 161.69"/>
  <polygon class="cls-1" points="275.7 161.66 274.92 160.87 274.92 159.03 239.59 159.03 239.59 161.66 275.7 161.66"/>
  <path class="cls-1" d="M209.85,160.77s0,0,0,0c0,0,0,0,0,0-.29.03-.64.07-1.05.1h1.68c.07-.02.1-.04.1-.06h0v-.04h-.73s0,0,0,0Z"/>
  <path class="cls-1" d="M174.8,160.87c-1.8,0-3.58-.16-5.23-.48,0,0,0,0,0,0,0,0,0,0,0,0,0,0,0,0,0,0-.85.42-1.6,1.6-1.88,2.96,1.65.47,3.42.71,5.23.71.03-1.78.86-3.2,1.88-3.2Z"/>
  <path class="cls-1" d="M208.81,160.87c.4-.03.76-.06,1.05-.1-.6.04-1.2.08-1.8.1.6-.02,1.2-.05,1.8-.1,0,0,0,0,0,0h0,.73l-.17-.17h-7.39l-.25.25-.02.02h6.04Z"/>
  <path class="cls-1" d="M224.68,164.36c-3.22-2.26-7.24-3.49-11.43-3.49-1.02,0-1.86,1.42-1.88,3.2,4.19,0,8.22.98,11.43,2.79.4-1.04,1.12-1.98,1.88-2.5Z"/>
  <path class="cls-1" d="M213.24,160.87h-2.56s0,0,0,0c0,0,0,0,0,0h-35.88c-1.02,0-1.86,1.42-1.88,3.2h38.44c.03-1.78.86-3.2,1.88-3.2Z"/>
  <polygon class="cls-1" points="275.74 161.69 302.03 161.69 302.07 161.66 302.85 160.87 274.92 160.87 275.7 161.66 275.74 161.69"/>
  <polygon class="cls-1" points="305.32 161.69 305.32 161.97 344.76 161.97 344.76 161.66 302.07 161.66 302.03 161.69 305.32 161.69"/>
  <circle class="cls-1" cx="336.06" cy="213.6" r="9.86"/>
  <circle class="cls-1" cx="112.58" cy="213.6" r="9.86"/>
  <path class="cls-1" d="M134.42,88.57c0-12.71-10.3-23-23-23s-23,10.3-23,23,10.3,23,23,23,23-10.3,23-23ZM91.7,88.57c0-10.89,8.83-19.72,19.72-19.72s19.72,8.83,19.72,19.72-8.83,19.72-19.72,19.72-19.72-8.83-19.72-19.72Z"/>
  <path class="cls-1" d="M131.14,88.57c0-10.89-8.83-19.72-19.72-19.72s-19.72,8.83-19.72,19.72,8.83,19.72,19.72,19.72,19.72-8.83,19.72-19.72ZM101.56,88.57c0-5.45,4.41-9.86,9.86-9.86s9.86,4.41,9.86,9.86-4.41,9.86-9.86,9.86-9.86-4.41-9.86-9.86Z"/>
  <polygon class="cls-1" points="120.53 85.92 113.68 79.36 104.57 82.01 102.31 91.22 109.16 97.79 118.27 95.13 120.53 85.92"/>
  <path class="cls-1" d="M121.28,88.57c0-5.45-4.41-9.86-9.86-9.86s-9.86,4.41-9.86,9.86,4.41,9.86,9.86,9.86,9.86-4.41,9.86-9.86ZM102.31,91.22l2.26-9.21,9.11-2.65,6.85,6.56-2.26,9.21-9.11,2.65-6.85-6.56Z"/>
  <path class="cls-1" d="M371.58,132.31l-6.57-3.79c1.36,2.35,3.86,3.79,6.57,3.79Z"/>
  <path class="cls-1" d="M365.01,120.93c-1.36,2.35-1.36,5.24,0,7.59v-7.59Z"/>
  <polygon class="cls-1" points="371.58 132.31 378.16 128.52 378.16 120.93 371.58 117.13 365.01 120.93 365.01 128.52 371.58 132.31"/>
  <path class="cls-1" d="M371.58,144.44c10.89,0,19.72-8.83,19.72-19.72s-8.83-19.72-19.72-19.72-19.72,8.83-19.72,19.72,8.83,19.72,19.72,19.72ZM365.01,120.93c1.36-2.35,3.86-3.79,6.57-3.79s5.22,1.45,6.57,3.79c1.36,2.35,1.36,5.24,0,7.59s-3.86,3.79-6.57,3.79-5.22-1.45-6.57-3.79-1.36-5.24,0-7.59Z"/>
  <path class="cls-1" d="M371.58,117.13l6.57,3.79c-1.36-2.35-3.86-3.79-6.57-3.79Z"/>
  <path class="cls-1" d="M365.01,120.93l6.57-3.79c-2.71,0-5.22,1.45-6.57,3.79Z"/>
  <path class="cls-1" d="M378.16,128.52l-6.57,3.79c2.71,0,5.22-1.45,6.57-3.79Z"/>
  <path class="cls-1" d="M378.16,120.93v7.59c1.36-2.35,1.36-5.24,0-7.59Z"/>
  <path class="cls-1" d="M374.33,89.02c9.32,0,16.88-7.56,16.88-16.88s-7.56-16.88-16.88-16.88-16.88,7.56-16.88,16.88,7.56,16.88,16.88,16.88ZM374.33,56.28c8.76,0,15.86,7.1,15.86,15.86s-7.1,15.86-15.86,15.86-15.86-7.1-15.86-15.86,7.1-15.86,15.86-15.86Z"/>
  <circle class="cls-1" cx="374.33" cy="72.14" r="15.86"/>
</svg>