<?xml version="1.0" encoding="UTF-8"?>
<svg id="Layer_4" data-name="Layer 4" xmlns="http://www.w3.org/2000/svg" viewBox="0 0 448 286">
  <defs>
    <style>
      .cls-1 {
        stroke-miterlimit: 10;
      }

      .cls-1, .cls-2 {
        fill: none;
        stroke: #f1f2f2;
      }

      .cls-2 {
        stroke-linecap: round;
        stroke-linejoin: round;
      }
    </style>
  </defs>
  <g>
    <line class="cls-1" x1="91.27" y1="38.25" x2="123.76" y2="38.25"/>
    <path class="cls-1" d="M425.72,159.11v26.41h3.58"/>
    <polyline class="cls-1" points="310.97 38.25 425.72 38.25 425.72 120.69"/>
    <path class="cls-1" d="M425.72,152.9v1.57"/>
    <line class="cls-1" x1="68.92" y1="38.25" x2="86.54" y2="38.25"/>
    <line class="cls-1" x1="160.98" y1="38.25" x2="256.33" y2="38.25"/>
    <line class="cls-1" x1="276.12" y1="38.25" x2="310.97" y2="38.25"/>
    <line class="cls-1" x1="425.72" y1="120.69" x2="425.72" y2="144.71"/>
    <line class="cls-1" x1="258.66" y1="38.25" x2="276.12" y2="38.25"/>
    <line class="cls-1" x1="256.33" y1="38.25" x2="258.66" y2="38.25"/>
    <line class="cls-1" x1="123.76" y1="38.25" x2="156.25" y2="38.25"/>
    <line class="cls-1" x1="425.72" y1="157.31" x2="425.72" y2="159.11"/>
    <line class="cls-1" x1="425.72" y1="154.47" x2="425.72" y2="157.31"/>
    <line class="cls-1" x1="425.72" y1="144.71" x2="425.72" y2="149.9"/>
    <line class="cls-1" x1="425.72" y1="149.9" x2="425.72" y2="152.9"/>
    <path class="cls-1" d="M429.3,185.52h-3.58v1.64"/>
    <line class="cls-1" x1="156.25" y1="38.25" x2="160.98" y2="38.25"/>
    <line class="cls-1" x1="86.54" y1="38.25" x2="91.27" y2="38.25"/>
    <line class="cls-1" x1="62.12" y1="38.25" x2="68.92" y2="38.25"/>
    <path class="cls-2" d="M76.31,79.96c-4.75,19.39,7.11,38.96,26.5,43.72.18-.74.37-1.49.55-2.23.18-.74.37-1.49.55-2.23h0c-16.93-4.15-27.28-21.23-23.14-38.16-4.15,16.93,6.21,34.01,23.14,38.16h0l1.64-6.7c-13.22-3.24-21.31-16.59-18.07-29.81,3.24-13.22,16.59-21.31,29.81-18.07l6.47-26.39h-32.49l-10.5,42.81-4.46-1.09Z"/>
    <path class="cls-2" d="M38.38,152.21c-1.19,4.44-1.86,9.01-1.99,13.61,0,.03,0,.05,0,.08,0,.03,0,.05,0,.08l-.51,19.55h114.68l.26-31.05h.06s-.03-.01-.05-.02c.02,0,.03.01.05.02h124.05v-3.55c-10.94-3.55-17.49-11.49-17.6-21.33l-.99-91.34h-95.35l-11.83,48.23c.42,7.5-1.41,14.95-5.25,21.41-10.67,17.94-33.86,23.84-51.8,13.17-17.94-10.66-23.83-33.85-13.18-51.79l7.61-31.02h-17.62l-30.49,113.8-.02.08-.02.08Z"/>
    <polygon class="cls-2" points="78.94 69.26 78.93 69.27 76.31 79.96 80.77 81.06 91.27 38.25 86.54 38.25 78.93 69.27 78.94 69.26"/>
    <path class="cls-2" d="M424.9,185.52h-8.07l-.92,1.64h9.8v-1.64h-.82Z"/>
    <path class="cls-2" d="M38.41,152.13l.02-.08-6.39-1.54s-.01.05-.02.08c0,.03-.01.05-.02.08l6.39,1.54.02-.08Z"/>
    <path class="cls-2" d="M421.81,161.19c-1.77.88-3.51,1.64-5.16,2.17l.18,22.16h8.89v-26.41c-1.31.74-2.62,1.44-3.91,2.08Z"/>
    <polygon class="cls-2" points="416.82 185.52 415.9 187.16 415.91 187.16 415.92 187.16 416.83 185.52 416.83 185.52 416.82 185.52"/>
    <path class="cls-2" d="M411.43,164.07h-38.44c-4.19,0-8.22.98-11.43,2.79l.15,18.66h55.13l-.18-22.16c-1.65.47-3.42.71-5.23.71Z"/>
    <polygon class="cls-2" points="38.43 152.05 68.92 38.25 62.12 38.25 32.04 150.51 38.43 152.05"/>
    <polygon class="cls-2" points="361.7 185.52 360.79 187.16 415.9 187.16 416.82 185.52 361.7 185.52"/>
    <path class="cls-2" d="M38.38,152.21l-6.39-1.54c-1.31,4.94-2.04,10.02-2.17,15.13l6.57.02c.13-4.6.8-9.17,1.99-13.61Z"/>
    <polygon class="cls-2" points="167.52 185.52 167.51 185.52 168.43 187.16 168.43 187.16 168.44 187.16 167.52 185.52 167.52 185.52"/>
    <polygon class="cls-2" points="35.88 185.52 35.88 185.52 36.51 187.16 150.54 187.16 150.54 185.52 35.88 185.52"/>
    <path class="cls-2" d="M163.64,185.52h-13.08v1.64h17.88l-.92-1.64h-3.88Z"/>
    <rect class="cls-2" x="150.54" y="185.52" width=".01" height="1.64"/>
    <path class="cls-2" d="M36.39,165.9s0-.05,0-.08l-6.57-.02s0,.06,0,.09v.09s6.57,0,6.57,0c0-.03,0-.05,0-.08Z"/>
    <polygon class="cls-2" points="35.88 185.52 36.39 165.97 29.81 165.97 29.3 185.52 29.3 185.52 35.88 185.52 35.88 185.52"/>
    <polygon class="cls-2" points="361.7 185.52 361.69 185.52 360.78 187.16 360.78 187.16 360.79 187.16 361.7 185.52 361.7 185.52"/>
    <polygon class="cls-2" points="29.3 185.52 30.9 187.16 36.51 187.16 35.88 185.52 29.3 185.52"/>
    <polygon class="cls-2" points="344.75 185.52 344.75 185.52 344.75 187.16 344.76 187.16 344.76 185.52 344.75 185.52"/>
    <polygon class="cls-2" points="167.52 185.52 168.44 187.16 223.56 187.16 222.64 185.52 167.52 185.52"/>
    <polygon class="cls-2" points="239.6 185.52 239.6 187.16 281.49 187.16 286.4 187.16 296.28 187.16 344.75 187.16 344.75 185.52 239.6 185.52"/>
    <path class="cls-2" d="M357.82,185.52h-13.06v1.64h16.02l.92-1.64h-3.88Z"/>
    <polygon class="cls-2" points="239.59 185.52 239.59 185.52 239.59 187.16 239.6 187.16 239.6 185.52 239.59 185.52"/>
    <polygon class="cls-2" points="222.65 185.52 222.64 185.52 223.56 187.16 223.56 187.16 223.57 187.16 222.65 185.52 222.65 185.52"/>
    <path class="cls-2" d="M235.1,185.52h-12.44l.92,1.64h16.02v-1.64h-4.49Z"/>
    <path class="cls-2" d="M355.33,86.85c-8.12-10.5-6.2-25.59,4.29-33.71-1.4.57-2.65,1.44-3.66,2.57-8.37,9.36-8.37,23.51,0,32.86,1.01,1.13,2.26,2.01,3.66,2.57-1.61-1.24-3.05-2.69-4.29-4.29Z"/>
    <path class="cls-2" d="M274.92,148.12v-2.03l.82-.82h15.69c-6.96-4.19-12.49-12.69-14.39-22.09l-17.4,6.42c-.1,8.56,5.55,15.42,15.27,18.53Z"/>
    <path class="cls-2" d="M364.05,144.71c2.41.91,4.96,1.37,7.53,1.37h23.56c2.57,0,5.13-.46,7.53-1.37,9.73-3.67,15.41-13.81,13.45-24.02-1.93-10.06-10.73-17.33-20.98-17.33h-23.56c-10.24,0-19.05,7.27-20.98,17.33-1.96,10.21,3.72,20.35,13.45,24.02ZM351.77,119.3c2.99-10.94,14.29-17.39,25.23-14.39,3.87-1.06,7.97-.96,11.78.28,4.13-1.35,8.59-1.35,12.72,0,10.79,3.51,16.68,15.11,13.17,25.89-3.51,10.79-15.11,16.68-25.89,13.17-3.81,1.24-7.91,1.34-11.78.28-3.55.97-7.29.97-10.84,0-10.94-2.99-17.39-14.29-14.39-25.23Z"/>
    <path class="cls-2" d="M364.05,144.71c-9.73-3.67-15.41-13.81-13.45-24.02h-38.74v24.02h52.19Z"/>
    <path class="cls-2" d="M211.36,164.07h-38.44c-1.8,0-3.58-.24-5.23-.71l-.18,22.16h55.13l.15-18.66c-3.22-1.81-7.24-2.79-11.43-2.79Z"/>
    <path class="cls-2" d="M291.43,145.26h10.6l.82.82v3.82h122.87v-5.19h-23.04c-2.41.91-4.96,1.37-7.53,1.37h-23.56c-2.57,0-5.13-.46-7.53-1.37h-52.19c-3.32,0-6.6.26-9.61.77,3.01-.51,6.29-.77,9.61-.77v-24.02c-13.07.08-25.59.97-34.82,2.48,1.9,9.4,7.43,17.9,14.39,22.09Z"/>
    <path class="cls-2" d="M162.53,161.19c1.77.88,3.51,1.64,5.16,2.17.28-1.36,1.03-2.54,1.88-2.96-6.38-1.48-12.64-3.46-18.71-5.93h-.06c1.02.62,2.04,1.25,3.07,1.86,2.92,1.76,5.82,3.45,8.66,4.86Z"/>
    <path class="cls-2" d="M162.53,161.19c-2.83-1.41-5.73-3.1-8.66-4.86-1.02-.62-2.05-1.24-3.07-1.86l-.26,31.05h16.96l.18-22.16c-1.65-.53-3.39-1.29-5.16-2.17Z"/>
    <polygon class="cls-2" points="274.92 160.87 302.85 160.87 302.85 159.03 302.85 154.47 302.85 152.9 302.85 149.9 302.85 146.08 274.92 146.08 274.92 148.12 274.92 150.92 274.92 154.47 274.92 159.03 274.92 160.87"/>
    <path class="cls-2" d="M169.58,160.4c1.65.31,3.42.48,5.23.48h27.85s.07,0,.12-.02l.25-.25h7.39l.17.17v.03h0s0,0,0,0h0s-.03.05-.1.07h.2s-.05-.04-.09-.07c.04.02.07.05.09.07h0,0s0,0,0,0h.11s-.07,0-.12-.02c.05.01.09.02.12.02h16.11c.55,0,1.11-.05,1.65-.14.82-.12,1.7-.3,2.62-.51.82-.18,1.67-.37,2.55-.55.93-.19,1.9-.36,2.89-.47.98-.12,1.99-.18,2.98-.18h35.33v-4.56h-124.05c6.07,2.47,12.33,4.45,18.71,5.93,0,0,0,0,0,0ZM203.77,160.54c.37-.12.83-.27,1.34-.38.51-.11,1.08-.18,1.61-.18s1.1.07,1.61.18c.51.11.98.26,1.34.38.07.02.14.05.2.07-.07-.02-.13-.05-.2-.07-.37-.12-.83-.27-1.34-.38-.51-.11-1.08-.18-1.61-.18s-1.1.07-1.61.18c-.51.11-.98.26-1.34.38-.07.02-.14.05-.2.07.07-.02.13-.05.2-.07Z"/>
    <path class="cls-2" d="M259.65,129.59c-.62,0-1.45,0-2.32,0,.11,9.84,6.65,17.78,17.6,21.33v-2.8c-9.72-3.11-15.37-9.97-15.27-18.53Z"/>
    <path class="cls-2" d="M226.5,165.69c-.64.53-1.25,1.36-1.66,2.24,4.5,2.4,9.63,3.67,14.87,3.68v-2.24c-4.65,0-9.21-1.27-13.21-3.68Z"/>
    <path class="cls-2" d="M344.63,171.6c5.24,0,10.37-1.27,14.87-3.68-.4-.88-1.01-1.7-1.66-2.24-4,2.41-8.56,3.68-13.21,3.68v2.24Z"/>
    <path class="cls-2" d="M348.01,161.83c3.11-.18,6.2-.49,9.28-.94-3.08.45-6.17.76-9.28.94.08,0,.16.01.23.02-.08,0-.16-.01-.23-.02-1.08.06-2.17.11-3.25.14,1.08-.03,2.17-.07,3.25-.14-1.08-.11-2.16-.17-3.25-.18v.31h-105.17v-.31c-1.09,0-2.17.07-3.25.18,1.08.06,2.17.11,3.25.14-1.08-.03-2.17-.07-3.25-.14-.08,0-.16.01-.23.02.08,0,.16-.01.23-.02-3.11-.18-6.2-.49-9.28-.94,3.08.45,6.17.76,9.28.94,1.08-.11,2.16-.17,3.25-.18v-2.63c-1,0-2,.06-2.98.18-.98.12-1.95.28-2.89.47-.88.18-1.73.37-2.55.55-.92.2-1.8.39-2.62.51l.18.33-.18-.33c-.55.08-1.1.13-1.65.14l.03.04-.03-.04h-1.11c.42,0,.84.02,1.26.05-.42-.03-.84-.04-1.26-.05h-12.55c4.19,0,8.22,1.23,11.43,3.49.61.43,1.22.87,1.82,1.33h131.34c.6-.45,1.21-.89,1.82-1.33,3.22-2.26,7.24-3.49,11.43-3.49h-12.55c-.42,0-.84.02-1.26.05.42-.03.84-.04,1.26-.05h-1.11l-.03.04.03-.04c-.55,0-1.11-.05-1.65-.14l-.18.33.18-.33c-.49-.07-1-.17-1.53-.27-1.14-.23-2.36-.52-3.64-.78-.93-.19-1.9-.36-2.89-.47s-1.99-.18-2.98-.18v2.63c1.09,0,2.17.07,3.25.18Z"/>
    <path class="cls-2" d="M366.17,144.53c3.55.97,7.29.97,10.84,0v-.85.85c3.87,1.06,7.97.96,11.78-.28v-9.67h-.12,6.48c5.45,0,9.86-4.41,9.86-9.86s-4.41-9.86-9.86-9.86h-6.48.12v-9.67c-3.81-1.24-7.91-1.34-11.78-.28v.85-.85c-10.94-2.99-22.24,3.45-25.23,14.39-2.99,10.94,3.45,22.24,14.39,25.23ZM371.58,105c10.89,0,19.72,8.83,19.72,19.72s-8.83,19.72-19.72,19.72-19.72-8.83-19.72-19.72,8.83-19.72,19.72-19.72Z"/>
    <polygon class="cls-2" points="344.63 169.36 239.72 169.36 239.72 169.36 239.72 171.6 344.63 171.6 344.63 169.36 344.63 169.36"/>
    <path class="cls-2" d="M395.15,114.86c5.45,0,9.86,4.41,9.86,9.86s-4.41,9.86-9.86,9.86h-6.36v9.67c10.79,3.51,22.38-2.38,25.89-13.17,3.51-10.79-2.38-22.38-13.17-25.89-4.13-1.35-8.59-1.35-12.72,0v9.67h6.36Z"/>
    <polygon class="cls-2" points="291.43 145.26 275.74 145.26 274.92 146.08 302.85 146.08 302.03 145.26 291.43 145.26"/>
    <polygon class="cls-2" points="302.07 161.66 344.76 161.66 344.76 159.03 302.85 159.03 302.85 160.87 302.07 161.66"/>
    <path class="cls-2" d="M239.72,169.36h0s104.92,0,104.92,0h0c4.65,0,9.21-1.27,13.21-3.68h-131.34c4,2.41,8.56,3.68,13.21,3.68Z"/>
    <path class="cls-2" d="M224.85,167.92c-.68-.36-1.36-.72-2.05-1.06l-.15,18.66h16.96l.11-13.92c-5.24,0-10.37-1.27-14.87-3.68Z"/>
    <path class="cls-2" d="M356.39,90.21c1.6,1.58,3.76,2.47,6.01,2.47h23.88c2.25,0,4.41-.89,6.01-2.47,0,0,0,0,.01-.01h.01c9.97-9.93,10.01-26.06.08-36.03-.02-.02-.04-.04-.06-.06h-.01s0-.02-.01-.02c-1.6-1.59-3.77-2.49-6.03-2.49h-23.88c-2.26,0-4.43.89-6.03,2.49h-.01s0,.02-.01.02c-9.96,9.94-9.98,26.06-.04,36.02.02.02.04.04.06.06h.01s0,.02.01.02ZM355.96,88.57c-8.37-9.36-8.37-23.51,0-32.86,1.01-1.13,2.26-2.01,3.66-2.57,1.17-.47,2.42-.72,3.69-.72h22.05c1.26,0,2.52.24,3.69.72,1.4.57,2.65,1.44,3.66,2.57,8.37,9.36,8.37,23.51,0,32.86-1.01,1.13-2.26,2.01-3.66,2.57-1.17.47-2.42.72-3.69.72h-22.05c-1.26,0-2.52-.24-3.69-.72-1.4-.57-2.65-1.44-3.66-2.57Z"/>
    <path class="cls-2" d="M117.29,64.63c13.22,3.24,21.31,16.59,18.07,29.81-3.24,13.22-16.59,21.31-29.81,18.07l-1.64,6.7c16.92,4.15,34.01-6.2,38.16-23.13h0l14.18-57.84h-32.49l-6.47,26.39Z"/>
    <path class="cls-2" d="M302.85,159.03h41.9c1,0,2,.06,2.98.18s1.95.28,2.89.47c1.28.26,2.5.55,3.64.78.53.11,1.04.2,1.53.27.55.08,1.1.13,1.65.14h52.1c1.8,0,3.58-.16,5.23-.48,0,0,0,0,0,0,3.7-.86,7.35-1.9,10.95-3.09v-2.83h-122.87v4.56Z"/>
    <path class="cls-2" d="M355.33,86.85c1.24,1.61,2.69,3.05,4.29,4.29,1.17.47,2.42.72,3.69.72h22.05c1.26,0,2.52-.24,3.69-.72,10.5-8.12,12.42-23.22,4.29-33.71-1.24-1.61-2.69-3.05-4.29-4.29-1.17-.47-2.42-.72-3.69-.72h-22.05c-1.26,0-2.52.24-3.69.72-10.5,8.12-12.42,23.22-4.29,33.71ZM374.33,55.26c9.32,0,16.88,7.56,16.88,16.88s-7.56,16.88-16.88,16.88-16.88-7.56-16.88-16.88,7.56-16.88,16.88-16.88Z"/>
    <path class="cls-2" d="M402.68,144.71h23.04v-24.02h-9.6c1.96,10.21-3.72,20.35-13.45,24.02Z"/>
    <path class="cls-2" d="M393.34,57.43c8.12,10.5,6.2,25.59-4.29,33.71,1.4-.57,2.65-1.44,3.66-2.57,8.37-9.36,8.37-23.51,0-32.86-1.01-1.13-2.26-2.01-3.66-2.57,1.61,1.24,3.05,2.69,4.29,4.29Z"/>
    <polygon class="cls-2" points="356.38 90.2 356.37 90.19 355.18 91.33 355.19 91.34 355.21 91.35 356.39 90.21 356.38 90.2"/>
    <rect class="cls-2" x="302.85" y="149.9" width="122.87" height="3"/>
    <path class="cls-2" d="M344.63,171.6l.11,13.92h16.96l-.15-18.66c-.69.34-1.37.7-2.05,1.06-4.5,2.4-9.63,3.67-14.87,3.68Z"/>
    <path class="cls-2" d="M359.67,164.36c-.61.43-1.22.87-1.82,1.33.64.53,1.25,1.36,1.66,2.24.68-.36,1.36-.72,2.05-1.06-.4-1.04-1.12-1.98-1.88-2.5Z"/>
    <path class="cls-2" d="M371.1,160.87c-4.19,0-8.22,1.23-11.43,3.49.77.52,1.48,1.47,1.88,2.5,3.22-1.81,7.24-2.79,11.43-2.79-.03-1.78-.86-3.2-1.88-3.2Z"/>
    <path class="cls-2" d="M356.39,90.21l-1.18,1.14c1.91,1.9,4.49,2.97,7.19,2.97v-1.64c-2.25,0-4.41-.89-6.01-2.47Z"/>
    <polygon class="cls-2" points="239.72 171.6 239.6 185.52 344.75 185.52 344.63 171.6 239.72 171.6"/>
    <path class="cls-2" d="M414.77,160.4c.85.42,1.6,1.6,1.88,2.96,1.65-.53,3.39-1.29,5.16-2.17,1.29-.64,2.59-1.34,3.91-2.08v-1.8c-3.6,1.19-7.25,2.24-10.95,3.09Z"/>
    <path class="cls-2" d="M414.77,160.4s0,0,0,0c0,0,0,0,0,0,0,0,0,0,0,0-1.65.31-3.42.48-5.23.48,1.02,0,1.86,1.42,1.88,3.2,1.8,0,3.58-.24,5.23-.71-.28-1.36-1.03-2.54-1.88-2.96Z"/>
    <path class="cls-2" d="M409.54,160.87h-38.44c1.02,0,1.86,1.42,1.88,3.2h38.44c-.03-1.78-.86-3.2-1.88-3.2Z"/>
    <rect class="cls-2" x="302.85" y="152.9" width="122.87" height="1.57"/>
    <rect class="cls-2" x="362.39" y="49.96" width="23.88" height="1.64"/>
    <path class="cls-2" d="M356.35,54.1h.01s-1.13-1.2-1.13-1.2c0,0,0,0-.01.01,0,0,0,0-.01.01l1.14,1.19h.01Z"/>
    <path class="cls-2" d="M392.3,54.09l1.13-1.19c-1.91-1.88-4.48-2.94-7.16-2.94v1.64c2.26,0,4.43.89,6.03,2.49Z"/>
    <path class="cls-2" d="M362.39,51.6v-1.64c-2.68,0-5.25,1.06-7.16,2.94l1.13,1.19c1.6-1.59,3.77-2.49,6.03-2.49Z"/>
    <path class="cls-2" d="M392.31,54.1h.01s1.14-1.17,1.14-1.17c0,0,0,0-.01-.01,0,0,0,0-.01-.01l-1.13,1.19h.01Z"/>
    <path class="cls-2" d="M386.27,92.68v1.64c2.69,0,5.28-1.07,7.19-2.97l-1.18-1.14c-1.6,1.58-3.76,2.47-6.01,2.47Z"/>
    <polygon class="cls-2" points="362.39 92.68 362.39 94.32 362.39 94.32 386.27 94.32 386.27 94.32 386.27 92.68 362.39 92.68"/>
    <polygon class="cls-2" points="275.74 161.69 275.7 161.66 239.59 161.66 239.59 161.97 272.45 161.97 272.45 161.69 275.74 161.69"/>
    <polygon class="cls-2" points="392.29 90.2 392.28 90.21 393.46 91.35 393.47 91.34 393.48 91.33 392.3 90.19 392.29 90.2"/>
    <path class="cls-2" d="M226.5,165.69c-.6-.45-1.21-.89-1.82-1.33-.77.52-1.48,1.47-1.88,2.5.69.34,1.37.7,2.05,1.06.4-.88,1.01-1.7,1.66-2.24Z"/>
    <path class="cls-2" d="M146.53,97.18l-4.46-1.09c-4.15,16.92-21.24,27.28-38.16,23.13h0c-.18.74-.37,1.49-.55,2.23-.18.74-.37,1.49-.55,2.23,19.39,4.75,38.96-7.11,43.72-26.5Z"/>
    <path class="cls-2" d="M135.36,94.44c3.24-13.22-4.85-26.57-18.07-29.81-13.22-3.24-26.57,4.85-29.81,18.07-3.24,13.22,4.85,26.57,18.07,29.81,13.22,3.24,26.57-4.85,29.81-18.07ZM88.41,88.57c0-12.71,10.3-23,23-23s23,10.3,23,23-10.3,23-23,23-23-10.3-23-23Z"/>
    <path class="cls-2" d="M102.81,123.68c-19.39-4.75-31.26-24.33-26.5-43.72l2.62-10.69c-10.66,17.94-4.76,41.12,13.18,51.79,17.94,10.67,41.13,4.77,51.8-13.17,3.84-6.46,5.67-13.91,5.25-21.41l-2.62,10.7c-4.75,19.39-24.33,31.26-43.72,26.5Z"/>
    <polygon class="cls-2" points="142.07 96.09 142.07 96.09 142.07 96.09 146.53 97.18 149.15 86.48 149.15 86.47 149.15 86.48 160.98 38.25 156.25 38.25 142.07 96.09 142.07 96.09"/>
    <path class="cls-2" d="M277.05,123.17c9.23-1.51,21.75-2.4,34.82-2.48l-.89-82.45h-34.85l.92,84.92Z"/>
    <polygon class="cls-2" points="276.12 38.25 258.66 38.25 259.65 129.59 277.05 123.17 276.12 38.25"/>
    <path class="cls-2" d="M350.61,120.69c1.93-10.06,10.73-17.33,20.98-17.33h23.56c10.24,0,19.05,7.27,20.98,17.33h9.6V38.25h-114.75l.89,82.45h38.74ZM355.21,52.92s0,0,.01-.01c0,0,0,0,.01-.01,1.91-1.88,4.48-2.94,7.16-2.94h23.88c2.68,0,5.25,1.06,7.16,2.94,0,0,0,0,.01.01,0,0,0,0,.01.01.02.02.04.04.07.07,10.58,10.6,10.56,27.77-.04,38.34,0,0,0,0-.01.01,0,0,0,0-.01.01-1.91,1.9-4.49,2.97-7.19,2.97h0s-23.88,0-23.88,0h0c-2.69,0-5.28-1.07-7.19-2.97,0,0,0,0-.01-.01,0,0,0,0-.01-.01-.02-.02-.04-.04-.07-.07-10.56-10.61-10.52-27.78.09-38.34Z"/>
    <path class="cls-2" d="M259.65,129.59l-.99-91.34h-2.32l.99,91.34c.87,0,1.71,0,2.32,0Z"/>
    <path class="cls-2" d="M355.18,91.33l1.18-1.14s-.04-.04-.06-.06c-9.94-9.96-9.92-26.08.04-36.02l-1.14-1.19c-10.61,10.56-10.65,27.73-.09,38.34.02.02.04.04.07.07Z"/>
    <path class="cls-2" d="M392.38,54.17c9.92,9.97,9.89,26.1-.08,36.02l1.18,1.14c10.6-10.58,10.62-27.74.04-38.34-.02-.02-.04-.04-.07-.07l-1.14,1.19s.04.04.06.06Z"/>
    <path class="cls-2" d="M202.78,160.86s-.09.02-.12.02h.11l.02-.02Z"/>
    <polygon class="cls-2" points="302.03 161.69 275.74 161.69 272.45 161.69 272.45 161.97 305.32 161.97 305.32 161.69 302.03 161.69"/>
    <polygon class="cls-2" points="275.7 161.66 274.92 160.87 274.92 159.03 239.59 159.03 239.59 161.66 275.7 161.66"/>
    <path class="cls-2" d="M209.85,160.77s0,0,0,0c0,0,0,0,0,0-.29.03-.64.07-1.05.1h1.68c.07-.02.1-.04.1-.06h0v-.04h-.73s0,0,0,0Z"/>
    <path class="cls-2" d="M174.8,160.87c-1.8,0-3.58-.16-5.23-.48,0,0,0,0,0,0,0,0,0,0,0,0,0,0,0,0,0,0-.85.42-1.6,1.6-1.88,2.96,1.65.47,3.42.71,5.23.71.03-1.78.86-3.2,1.88-3.2Z"/>
    <path class="cls-2" d="M208.81,160.87c.4-.03.76-.06,1.05-.1-.6.04-1.2.08-1.8.1.6-.02,1.2-.05,1.8-.1,0,0,0,0,0,0h0,.73l-.17-.17h-7.39l-.25.25-.02.02h6.04Z"/>
    <path class="cls-2" d="M224.68,164.36c-3.22-2.26-7.24-3.49-11.43-3.49-1.02,0-1.86,1.42-1.88,3.2,4.19,0,8.22.98,11.43,2.79.4-1.04,1.12-1.98,1.88-2.5Z"/>
    <path class="cls-2" d="M213.24,160.87h-2.56s0,0,0,0c0,0,0,0,0,0h-35.88c-1.02,0-1.86,1.42-1.88,3.2h38.44c.03-1.78.86-3.2,1.88-3.2Z"/>
    <polygon class="cls-2" points="275.74 161.69 302.03 161.69 302.07 161.66 302.85 160.87 274.92 160.87 275.7 161.66 275.74 161.69"/>
    <polygon class="cls-2" points="305.32 161.69 305.32 161.97 344.76 161.97 344.76 161.66 302.07 161.66 302.03 161.69 305.32 161.69"/>
    <path class="cls-2" d="M134.42,88.57c0-12.71-10.3-23-23-23s-23,10.3-23,23,10.3,23,23,23,23-10.3,23-23ZM91.7,88.57c0-10.89,8.83-19.72,19.72-19.72s19.72,8.83,19.72,19.72-8.83,19.72-19.72,19.72-19.72-8.83-19.72-19.72Z"/>
    <path class="cls-2" d="M131.14,88.57c0-10.89-8.83-19.72-19.72-19.72s-19.72,8.83-19.72,19.72,8.83,19.72,19.72,19.72,19.72-8.83,19.72-19.72ZM101.56,88.57c0-5.45,4.41-9.86,9.86-9.86s9.86,4.41,9.86,9.86-4.41,9.86-9.86,9.86-9.86-4.41-9.86-9.86Z"/>
    <polygon class="cls-2" points="120.53 85.92 113.68 79.36 104.57 82.01 102.31 91.22 109.16 97.79 118.27 95.13 120.53 85.92"/>
    <path class="cls-2" d="M121.28,88.57c0-5.45-4.41-9.86-9.86-9.86s-9.86,4.41-9.86,9.86,4.41,9.86,9.86,9.86,9.86-4.41,9.86-9.86ZM102.31,91.22l2.26-9.21,9.11-2.65,6.85,6.56-2.26,9.21-9.11,2.65-6.85-6.56Z"/>
    <path class="cls-2" d="M371.58,132.31l-6.57-3.79c1.36,2.35,3.86,3.79,6.57,3.79Z"/>
    <path class="cls-2" d="M365.01,120.93c-1.36,2.35-1.36,5.24,0,7.59v-7.59Z"/>
    <polygon class="cls-2" points="371.58 132.31 378.16 128.52 378.16 120.93 371.58 117.13 365.01 120.93 365.01 128.52 371.58 132.31"/>
    <path class="cls-2" d="M371.58,144.44c10.89,0,19.72-8.83,19.72-19.72s-8.83-19.72-19.72-19.72-19.72,8.83-19.72,19.72,8.83,19.72,19.72,19.72ZM365.01,120.93c1.36-2.35,3.86-3.79,6.57-3.79s5.22,1.45,6.57,3.79c1.36,2.35,1.36,5.24,0,7.59s-3.86,3.79-6.57,3.79-5.22-1.45-6.57-3.79-1.36-5.24,0-7.59Z"/>
    <path class="cls-2" d="M371.58,117.13l6.57,3.79c-1.36-2.35-3.86-3.79-6.57-3.79Z"/>
    <path class="cls-2" d="M365.01,120.93l6.57-3.79c-2.71,0-5.22,1.45-6.57,3.79Z"/>
    <path class="cls-2" d="M378.16,128.52l-6.57,3.79c2.71,0,5.22-1.45,6.57-3.79Z"/>
    <path class="cls-2" d="M378.16,120.93v7.59c1.36-2.35,1.36-5.24,0-7.59Z"/>
    <path class="cls-2" d="M374.33,89.02c9.32,0,16.88-7.56,16.88-16.88s-7.56-16.88-16.88-16.88-16.88,7.56-16.88,16.88,7.56,16.88,16.88,16.88ZM374.33,56.28c8.76,0,15.86,7.1,15.86,15.86s-7.1,15.86-15.86,15.86-15.86-7.1-15.86-15.86,7.1-15.86,15.86-15.86Z"/>
    <circle class="cls-2" cx="374.33" cy="72.14" r="15.86"/>
  </g>
  <rect class="cls-2" x="19.18" y="187.16" width="420" height="15"/>
  <g>
    <g id="LINE">
      <line class="cls-2" x1="299.29" y1="222.21" x2="278.48" y2="222.21"/>
    </g>
    <g id="LINE-2" data-name="LINE">
      <line class="cls-2" x1="295.46" y1="219.47" x2="282.32" y2="219.47"/>
    </g>
    <g id="LINE-3" data-name="LINE">
      <line class="cls-2" x1="282.32" y1="219.47" x2="275.75" y2="219.47"/>
    </g>
    <g id="LINE-4" data-name="LINE">
      <line class="cls-2" x1="302.03" y1="219.47" x2="295.46" y2="219.47"/>
    </g>
    <g id="SPLINE">
      <path class="cls-2" d="M288.89,218.52c2.4.65,4.54.95,6.57.95"/>
    </g>
    <g id="SPLINE-2" data-name="SPLINE">
      <path class="cls-2" d="M282.32,219.47c2.03,0,4.17-.3,6.57-.95"/>
    </g>
    <g id="LINE-5" data-name="LINE">
      <line class="cls-2" x1="275.75" y1="206.73" x2="275.75" y2="205.78"/>
    </g>
    <g id="SPLINE-3" data-name="SPLINE">
      <path class="cls-2" d="M282.32,205.78c-2.03,0-4.17.3-6.57.95"/>
    </g>
    <g id="SPLINE-4" data-name="SPLINE">
      <path class="cls-2" d="M288.89,206.73c-2.4-.65-4.54-.95-6.57-.95"/>
    </g>
    <g id="SPLINE-5" data-name="SPLINE">
      <path class="cls-2" d="M295.46,205.78c-2.03,0-4.17.3-6.57.95"/>
    </g>
    <g id="SPLINE-6" data-name="SPLINE">
      <path class="cls-2" d="M302.03,206.73c-2.4-.65-4.54-.95-6.57-.95"/>
    </g>
    <g id="LINE-6" data-name="LINE">
      <line class="cls-2" x1="302.03" y1="205.78" x2="302.03" y2="206.73"/>
    </g>
    <g id="LINE-7" data-name="LINE">
      <line class="cls-2" x1="275.75" y1="219.47" x2="275.75" y2="218.52"/>
    </g>
    <g id="LINE-8" data-name="LINE">
      <line class="cls-2" x1="275.75" y1="218.52" x2="275.75" y2="206.73"/>
    </g>
    <g id="SPLINE-7" data-name="SPLINE">
      <path class="cls-2" d="M275.75,218.52c2.4.65,4.54.95,6.57.95"/>
    </g>
    <g id="LINE-9" data-name="LINE">
      <line class="cls-2" x1="288.89" y1="218.52" x2="288.89" y2="206.73"/>
    </g>
    <g id="SPLINE-8" data-name="SPLINE">
      <path class="cls-2" d="M295.46,219.47c2.03,0,4.17-.3,6.57-.95"/>
    </g>
    <g id="LINE-10" data-name="LINE">
      <line class="cls-2" x1="302.03" y1="218.52" x2="302.03" y2="206.73"/>
    </g>
    <g id="LINE-11" data-name="LINE">
      <line class="cls-2" x1="302.03" y1="218.52" x2="302.03" y2="219.47"/>
    </g>
    <g id="ARC">
      <path class="cls-2" d="M302.03,219.47c0,1.51-1.23,2.74-2.74,2.74"/>
    </g>
    <g id="ARC-2" data-name="ARC">
      <path class="cls-2" d="M278.48,222.21c-1.51,0-2.74-1.23-2.74-2.74"/>
    </g>
    <g id="LINE-12" data-name="LINE">
      <line class="cls-2" x1="272.46" y1="205.78" x2="305.31" y2="205.78"/>
    </g>
    <g id="LINE-13" data-name="LINE">
      <line class="cls-2" x1="272.46" y1="202.17" x2="305.31" y2="202.17"/>
    </g>
    <g id="LINE-14" data-name="LINE">
      <line class="cls-2" x1="272.46" y1="205.78" x2="272.46" y2="202.17"/>
    </g>
    <g id="LINE-15" data-name="LINE">
      <line class="cls-2" x1="305.31" y1="205.78" x2="305.31" y2="202.17"/>
    </g>
  </g>
</svg>