<?xml version="1.0" encoding="UTF-8"?>
<svg xmlns="http://www.w3.org/2000/svg" viewBox="0 0 2438 1609">
  <defs>
    <style>
      .cls-1 {
        stroke: #231f20;
        stroke-width: 6px;
      }

      .cls-1, .cls-2, .cls-3, .cls-4, .cls-5 {
        fill: none;
        stroke-linejoin: round;
      }

      .cls-2 {
        stroke: #1cbc00;
      }

      .cls-2, .cls-3 {
        stroke-linecap: round;
        stroke-width: 10px;
      }

      .cls-6 {
        fill: #231f20;
      }

      .cls-7 {
        isolation: isolate;
      }

      .cls-3 {
        stroke: #0570d1;
      }

      .cls-4 {
        stroke: rgba(102, 102, 102, .7);
        stroke-width: 2px;
      }

      .cls-5 {
        stroke: #e84e0f;
        stroke-width: 8px;
      }
    </style>
  </defs>
  <g id="Layer_1" data-name="Layer 1">
    <path class="cls-4" d="M223.5,1161.6h2141M223.5,913.6h2141M223.5,666.5h2141M223.5,418.5h2141M223.5,171.5h2141"/>
    <path class="cls-4" d="M529.6,171.5v1238M835.6,171.5v1238M1141.6,171.5v1238M1446.6,171.5v1238M1752.6,171.5v1238M2058.6,171.5v1238M2364.5,171.5v1238"/>
    <path class="cls-1" d="M223.5,1409.5V171.5"/>
    <path class="cls-1" d="M223.5,1409.5h2141"/>
    <path class="cls-2" d="M240,1335.17l32.16-37.13,32.06-37.23,31.03-35.16,32.06-36.2,31.03-34.13,32.06-34.13,32.06-34.13,31.03-32.06,32.06-32.06,31.03-31.03,32.06-31.03,32.06-28.96,31.03-27.92,32.06-27.92,31.03-25.85,32.06-25.85,31.03-23.79,32.06-23.79,32.06-21.72,31.03-20.68,32.06-19.65,31.03-18.62,32.06-17.58,32.06-16.55,31.03-14.48,32.06-14.48,31.03-13.44,32.06-11.38,32.06-11.38,31.03-10.34,32.06-9.31,31.03-8.27,32.06-8.27,32.06-6.21,31.03-6.21,32.06-6.21,31.03-5.17,32.06-4.14,32.06-4.14,31.03-4.14,32.06-3.1,31.03-3.1,32.06-3.1,32.06-3.1,31.03-2.07,32.06-3.1,31.03-2.07,32.06-3.1,31.03-3.1,32.06-2.07,32.06-4.14,31.03-3.1,32.06-3.1,31.03-4.14,32.06-5.17,32.06-4.14,31.03-5.17,32.06-6.21,31.03-6.21,32.06-7.24,32.06-7.24,31.03-8.27,32.06-9.31,31.03-9.31,32.06-10.34,32.06-10.34,30.82-12.41"/>
    <path class="cls-3" d="M240,1399.29l32.16-5.07,32.06-4.14,31.03-5.17,32.06-5.17,31.03-5.17,32.06-5.17,32.06-5.17,31.03-5.17,32.06-5.17,31.03-5.17,32.06-5.17,32.06-5.17,31.03-5.17,32.06-5.17,31.03-4.14,32.06-5.17,31.03-4.14,32.06-5.17,32.06-5.17,31.03-4.14,32.06-5.17,31.03-5.17,32.06-5.17,32.06-5.17,31.03-5.17,32.06-5.17,31.03-5.17,32.06-5.17,32.06-5.17,31.03-5.17,32.06-5.17,31.03-5.17,32.06-4.14,32.06-5.17,31.03-5.17,32.06-5.17,31.03-4.14,32.06-5.17,32.06-4.14,31.03-5.17,32.06-4.14,31.03-5.17,32.06-4.14,32.06-5.17,31.03-4.14,32.06-4.14,31.03-5.17,32.06-4.14,31.03-5.17,32.06-4.14,32.06-5.17,31.03-4.14,32.06-5.17,31.03-5.17,32.06-4.14,32.06-5.17,31.03-5.17,32.06-6.21,31.03-5.17,32.06-5.17,32.06-5.17,31.03-6.21,32.06-5.17,31.03-6.21,32.06-5.17,32.06-6.21,30.82-5.27"/>
    <g class="cls-7">
      <g class="cls-7">
        <path class="cls-6" d="M170.74,1183.11c1.86,0,3.35.56,4.47,1.68,1.12,1.12,1.68,2.61,1.68,4.47v6.15c0,1.86-.56,3.35-1.68,4.47-1.12,1.12-2.61,1.68-4.47,1.68h-15.58v-7.79h12.3v-3.28h-11.89v-17.63h20.5v5.33l-2.46,2.46h-8.61v2.46h5.74Z"/>
        <path class="cls-6" d="M180.17,1178.6c0-1.86.56-3.35,1.68-4.47,1.12-1.12,2.61-1.68,4.47-1.68h10.66c1.86,0,3.35.56,4.47,1.68,1.12,1.12,1.68,2.61,1.68,4.47v17.22c0,1.86-.56,3.35-1.68,4.47-1.12,1.12-2.61,1.68-4.47,1.68h-10.66c-1.86,0-3.35-.56-4.47-1.68-1.12-1.12-1.68-2.61-1.68-4.47v-17.22ZM189.6,1180.24v13.94h4.1v-13.94h-4.1Z"/>
      </g>
    </g>
    <g class="cls-7">
      <g class="cls-7">
        <path class="cls-6" d="M140,924.86h7.38v28.7h-9.43v-20.5h-5.33v-5.33l7.38-2.87Z"/>
        <path class="cls-6" d="M151.89,930.6c0-1.86.56-3.35,1.68-4.47,1.12-1.12,2.61-1.68,4.47-1.68h10.66c1.86,0,3.35.56,4.47,1.68,1.12,1.12,1.68,2.61,1.68,4.47v17.22c0,1.86-.56,3.35-1.68,4.47-1.12,1.12-2.61,1.68-4.47,1.68h-10.66c-1.86,0-3.35-.56-4.47-1.68-1.12-1.12-1.68-2.61-1.68-4.47v-17.22ZM161.32,932.24v13.94h4.1v-13.94h-4.1Z"/>
        <path class="cls-6" d="M178.95,930.6c0-1.86.56-3.35,1.68-4.47,1.12-1.12,2.61-1.68,4.47-1.68h10.66c1.86,0,3.35.56,4.47,1.68,1.12,1.12,1.68,2.61,1.68,4.47v17.22c0,1.86-.56,3.35-1.68,4.47-1.12,1.12-2.61,1.68-4.47,1.68h-10.66c-1.86,0-3.35-.56-4.47-1.68-1.12-1.12-1.68-2.61-1.68-4.47v-17.22ZM188.38,932.24v13.94h4.1v-13.94h-4.1Z"/>
      </g>
    </g>
    <g class="cls-7">
      <g class="cls-7">
        <path class="cls-6" d="M140,677.86h7.38v28.7h-9.43v-20.5h-5.33v-5.33l7.38-2.87Z"/>
        <path class="cls-6" d="M167.47,688.11c1.86,0,3.35.56,4.47,1.68,1.12,1.12,1.68,2.61,1.68,4.47v6.15c0,1.86-.56,3.35-1.68,4.47-1.12,1.12-2.61,1.68-4.47,1.68h-15.58v-7.79h12.3v-3.28h-11.89v-17.63h20.5v5.33l-2.46,2.46h-8.61v2.46h5.74Z"/>
        <path class="cls-6" d="M176.9,683.6c0-1.86.56-3.35,1.68-4.47,1.12-1.12,2.61-1.68,4.47-1.68h10.66c1.86,0,3.35.56,4.47,1.68,1.12,1.12,1.68,2.61,1.68,4.47v17.22c0,1.86-.56,3.35-1.68,4.47-1.12,1.12-2.61,1.68-4.47,1.68h-10.66c-1.86,0-3.35-.56-4.47-1.68-1.12-1.12-1.68-2.61-1.68-4.47v-17.22ZM186.33,685.24v13.94h4.1v-13.94h-4.1Z"/>
      </g>
    </g>
    <g class="cls-7">
      <g class="cls-7">
        <path class="cls-6" d="M155.17,450.36v8.2h-22.14v-7.79l12.3-11.48v-1.64h-9.43l-2.46-2.46v-5.33h15.58c1.86,0,3.35.56,4.47,1.68,1.12,1.12,1.68,2.61,1.68,4.47v3.28c0,.66-.14,1.3-.41,1.93-.27.63-.6,1.22-.98,1.76-.38.55-.79,1.03-1.21,1.46-.42.42-.79.76-1.09,1l-5.33,4.51v.41h9.02Z"/>
        <path class="cls-6" d="M158.45,435.6c0-1.86.56-3.35,1.68-4.47,1.12-1.12,2.61-1.68,4.47-1.68h10.66c1.86,0,3.35.56,4.47,1.68,1.12,1.12,1.68,2.61,1.68,4.47v17.22c0,1.86-.56,3.35-1.68,4.47-1.12,1.12-2.61,1.68-4.47,1.68h-10.66c-1.86,0-3.35-.56-4.47-1.68-1.12-1.12-1.68-2.61-1.68-4.47v-17.22ZM167.88,437.24v13.94h4.1v-13.94h-4.1Z"/>
        <path class="cls-6" d="M185.51,435.6c0-1.86.56-3.35,1.68-4.47,1.12-1.12,2.61-1.68,4.47-1.68h10.66c1.86,0,3.35.56,4.47,1.68,1.12,1.12,1.68,2.61,1.68,4.47v17.22c0,1.86-.56,3.35-1.68,4.47-1.12,1.12-2.61,1.68-4.47,1.68h-10.66c-1.86,0-3.35-.56-4.47-1.68-1.12-1.12-1.68-2.61-1.68-4.47v-17.22ZM194.94,437.24v13.94h4.1v-13.94h-4.1Z"/>
      </g>
    </g>
    <g class="cls-7">
      <g class="cls-7">
        <path class="cls-6" d="M155.99,203.77v8.2h-22.14v-7.79l12.3-11.48v-1.64h-9.43l-2.46-2.46v-5.33h15.58c1.86,0,3.35.56,4.47,1.68,1.12,1.12,1.68,2.61,1.68,4.47v3.28c0,.66-.14,1.3-.41,1.93-.27.63-.6,1.22-.98,1.76-.38.55-.79,1.03-1.21,1.46-.42.42-.79.76-1.09,1l-5.33,4.51v.41h9.02Z"/>
        <path class="cls-6" d="M174.85,193.52c1.86,0,3.35.56,4.47,1.68,1.12,1.12,1.68,2.61,1.68,4.47v6.15c0,1.86-.56,3.35-1.68,4.47-1.12,1.12-2.61,1.68-4.47,1.68h-15.58v-7.79h12.3v-3.28h-11.89v-17.63h20.5v5.33l-2.46,2.46h-8.61v2.46h5.74Z"/>
        <path class="cls-6" d="M184.28,189.01c0-1.86.56-3.35,1.68-4.47,1.12-1.12,2.61-1.68,4.47-1.68h10.66c1.86,0,3.35.56,4.47,1.68,1.12,1.12,1.68,2.61,1.68,4.47v17.22c0,1.86-.56,3.35-1.68,4.47-1.12,1.12-2.61,1.68-4.47,1.68h-10.66c-1.86,0-3.35-.56-4.47-1.68-1.12-1.12-1.68-2.61-1.68-4.47v-17.22ZM193.71,190.65v13.94h4.1v-13.94h-4.1Z"/>
      </g>
    </g>
    <g class="cls-7">
      <g class="cls-7">
        <path class="cls-6" d="M181.85,1442.45c0-1.86.56-3.35,1.68-4.47,1.12-1.12,2.61-1.68,4.47-1.68h10.66c1.86,0,3.35.56,4.47,1.68,1.12,1.12,1.68,2.61,1.68,4.47v17.22c0,1.86-.56,3.35-1.68,4.47-1.12,1.12-2.61,1.68-4.47,1.68h-10.66c-1.86,0-3.35-.56-4.47-1.68-1.12-1.12-1.68-2.61-1.68-4.47v-17.22ZM191.28,1444.09v13.94h4.1v-13.94h-4.1Z"/>
      </g>
    </g>
    <g class="cls-7">
      <g class="cls-7">
        <path class="cls-6" d="M468.43,1436.71h7.38v28.7h-9.43v-20.5h-5.33v-5.33l7.38-2.87Z"/>
        <path class="cls-6" d="M480.32,1442.45c0-1.86.56-3.35,1.68-4.47,1.12-1.12,2.61-1.68,4.47-1.68h10.66c1.86,0,3.35.56,4.47,1.68,1.12,1.12,1.68,2.61,1.68,4.47v17.22c0,1.86-.56,3.35-1.68,4.47-1.12,1.12-2.61,1.68-4.47,1.68h-10.66c-1.86,0-3.35-.56-4.47-1.68-1.12-1.12-1.68-2.61-1.68-4.47v-17.22ZM489.75,1444.09v13.94h4.1v-13.94h-4.1Z"/>
      </g>
    </g>
    <g class="cls-7">
      <g class="cls-7">
        <path class="cls-6" d="M789.5,1457.21v8.2h-22.14v-7.79l12.3-11.48v-1.64h-9.43l-2.46-2.46v-5.33h15.58c1.86,0,3.35.56,4.47,1.68,1.12,1.12,1.68,2.61,1.68,4.47v3.28c0,.66-.14,1.3-.41,1.93-.27.63-.6,1.22-.98,1.76-.38.55-.79,1.03-1.21,1.46-.42.42-.79.76-1.09,1l-5.33,4.51v.41h9.02Z"/>
        <path class="cls-6" d="M792.78,1442.45c0-1.86.56-3.35,1.68-4.47,1.12-1.12,2.61-1.68,4.47-1.68h10.66c1.86,0,3.35.56,4.47,1.68,1.12,1.12,1.68,2.61,1.68,4.47v17.22c0,1.86-.56,3.35-1.68,4.47-1.12,1.12-2.61,1.68-4.47,1.68h-10.66c-1.86,0-3.35-.56-4.47-1.68-1.12-1.12-1.68-2.61-1.68-4.47v-17.22ZM802.21,1444.09v13.94h4.1v-13.94h-4.1Z"/>
      </g>
    </g>
    <g class="cls-7">
      <g class="cls-7">
        <path class="cls-6" d="M1088.43,1447.78v.41h.82c1.86,0,3.35.56,4.47,1.68,1.12,1.12,1.68,2.61,1.68,4.47v4.92c0,1.86-.56,3.35-1.68,4.47-1.12,1.12-2.61,1.68-4.47,1.68h-15.99v-7.79h12.71v-2.87h-8.2v-6.15l5.74-3.69v-.41h-7.79l-2.46-2.46v-5.33h20.91v7.38l-5.74,3.69Z"/>
        <path class="cls-6" d="M1098.68,1442.45c0-1.86.56-3.35,1.68-4.47s2.61-1.68,4.47-1.68h10.66c1.86,0,3.35.56,4.47,1.68s1.68,2.61,1.68,4.47v17.22c0,1.86-.56,3.35-1.68,4.47-1.12,1.12-2.61,1.68-4.47,1.68h-10.66c-1.86,0-3.35-.56-4.47-1.68-1.12-1.12-1.68-2.61-1.68-4.47v-17.22ZM1108.11,1444.09v13.94h4.1v-13.94h-4.1Z"/>
      </g>
    </g>
    <g class="cls-7">
      <g class="cls-7">
        <path class="cls-6" d="M1391.15,1465.41v-4.92h-12.3v-7.38l10.25-16.4h11.89v15.99h2.46v7.79h-2.46v4.92h-9.84ZM1391.15,1447.78l-2.87,4.92h3.28v-4.92h-.41Z"/>
        <path class="cls-6" d="M1406.32,1442.45c0-1.86.56-3.35,1.68-4.47s2.61-1.68,4.47-1.68h10.66c1.86,0,3.35.56,4.47,1.68s1.68,2.61,1.68,4.47v17.22c0,1.86-.56,3.35-1.68,4.47-1.12,1.12-2.61,1.68-4.47,1.68h-10.66c-1.86,0-3.35-.56-4.47-1.68-1.12-1.12-1.68-2.61-1.68-4.47v-17.22ZM1415.75,1444.09v13.94h4.1v-13.94h-4.1Z"/>
      </g>
    </g>
    <g class="cls-7">
      <g class="cls-7">
        <path class="cls-6" d="M1701.97,1446.96c1.86,0,3.35.56,4.47,1.68,1.12,1.12,1.68,2.61,1.68,4.47v6.15c0,1.86-.56,3.35-1.68,4.47-1.12,1.12-2.61,1.68-4.47,1.68h-15.58v-7.79h12.3v-3.28h-11.89v-17.63h20.5v5.33l-2.46,2.46h-8.61v2.46h5.74Z"/>
        <path class="cls-6" d="M1711.4,1442.45c0-1.86.56-3.35,1.68-4.47,1.12-1.12,2.61-1.68,4.47-1.68h10.66c1.86,0,3.35.56,4.47,1.68,1.12,1.12,1.68,2.61,1.68,4.47v17.22c0,1.86-.56,3.35-1.68,4.47s-2.61,1.68-4.47,1.68h-10.66c-1.86,0-3.35-.56-4.47-1.68s-1.68-2.61-1.68-4.47v-17.22ZM1720.83,1444.09v13.94h4.1v-13.94h-4.1Z"/>
      </g>
    </g>
    <g class="cls-7">
      <g class="cls-7">
        <path class="cls-6" d="M1992.39,1442.86c0-1.86.56-3.35,1.68-4.47s2.61-1.68,4.47-1.68h15.17v5.33l-2.46,2.46h-9.43v2.87h6.97c1.86,0,3.35.56,4.47,1.68,1.12,1.12,1.68,2.61,1.68,4.47v6.15c0,1.86-.56,3.35-1.68,4.47s-2.61,1.68-4.47,1.68h-10.25c-1.86,0-3.35-.56-4.47-1.68-1.12-1.12-1.68-2.61-1.68-4.47v-16.81ZM2001.82,1454.34v3.69h3.69v-3.69h-3.69Z"/>
        <path class="cls-6" d="M2018.22,1442.45c0-1.86.56-3.35,1.68-4.47,1.12-1.12,2.61-1.68,4.47-1.68h10.66c1.86,0,3.35.56,4.47,1.68,1.12,1.12,1.68,2.61,1.68,4.47v17.22c0,1.86-.56,3.35-1.68,4.47s-2.61,1.68-4.47,1.68h-10.66c-1.86,0-3.35-.56-4.47-1.68s-1.68-2.61-1.68-4.47v-17.22ZM2027.65,1444.09v13.94h4.1v-13.94h-4.1Z"/>
      </g>
    </g>
    <g class="cls-7">
      <g class="cls-7">
        <path class="cls-6" d="M2300.34,1465.41v-4.1l7.59-16.4v-.41h-11.28v-7.79h21.73v7.38l-9.39,21.32h-8.65Z"/>
        <path class="cls-6" d="M2320.84,1442.45c0-1.86.56-3.35,1.68-4.47,1.12-1.12,2.61-1.68,4.47-1.68h10.66c1.86,0,3.35.56,4.47,1.68,1.12,1.12,1.68,2.61,1.68,4.47v17.22c0,1.86-.56,3.35-1.68,4.47s-2.61,1.68-4.47,1.68h-10.66c-1.86,0-3.35-.56-4.47-1.68-1.12-1.12-1.68-2.61-1.68-4.47v-17.22ZM2330.27,1444.09v13.94h4.1v-13.94h-4.1Z"/>
      </g>
    </g>
    <g class="cls-7">
      <g class="cls-7">
        <path class="cls-6" d="M58.45,846.68l2.46,2.46v9.64h3.69v-8h8.2v8h8.61v9.43h-28.7v-21.53h5.74Z"/>
        <path class="cls-6" d="M65.01,844.63c-.71,0-1.39-.14-2.03-.43-.64-.29-1.21-.68-1.7-1.17-.49-.49-.88-1.06-1.17-1.7s-.43-1.32-.43-2.03v-10.87c0-.71.14-1.39.43-2.03s.68-1.21,1.17-1.7,1.06-.88,1.7-1.17c.64-.29,1.32-.43,2.03-.43h11.48c.71,0,1.39.14,2.03.43.64.29,1.21.68,1.7,1.17s.88,1.06,1.17,1.7.43,1.32.43,2.03v10.87c0,.71-.14,1.39-.43,2.03s-.68,1.21-1.17,1.7c-.49.49-1.06.88-1.7,1.17-.64.29-1.32.43-2.03.43h-11.48ZM67.06,832.12v3.49h7.38v-3.49h-7.38Z"/>
        <path class="cls-6" d="M59.68,803.84h7.79v6.56h13.94v9.02h-21.32v-6.56l2.25-1.03v-.2c-.49-.25-.94-.56-1.35-.94-.36-.33-.66-.71-.92-1.15s-.39-.97-.39-1.6v-4.1Z"/>
        <path class="cls-6" d="M74.03,792.77v-9.84h7.38v13.53c0,.71-.14,1.39-.43,2.03-.29.64-.68,1.21-1.17,1.7-.49.49-1.06.88-1.7,1.17-.64.29-1.32.43-2.03.43h-10.66c-.71,0-1.39-.14-2.03-.43-.64-.29-1.21-.68-1.7-1.17-.49-.49-.88-1.06-1.17-1.7-.29-.64-.43-1.32-.43-2.03v-13.53h5.12l2.25,2.05v7.79h6.56Z"/>
        <path class="cls-6" d="M81.41,774.93c0,.71-.14,1.39-.43,2.03-.29.64-.68,1.21-1.17,1.7-.49.49-1.06.88-1.7,1.17-.64.29-1.32.43-2.03.43h-11.07c-.71,0-1.39-.14-2.03-.43-.64-.29-1.21-.68-1.7-1.17-.49-.49-.88-1.06-1.17-1.7-.29-.64-.43-1.32-.43-2.03v-10.25c0-.74.14-1.43.43-2.07.29-.64.68-1.21,1.17-1.7.49-.49,1.06-.87,1.7-1.15s1.32-.41,2.03-.41h8.61v11.89h1.23v-10.87h6.56v14.56ZM65.83,771.24h2.05v-2.87h-2.05v2.87Z"/>
        <path class="cls-6" d="M81.41,735.16v-3.69h7.79v13.12h-39.77v-13.12h7.79v3.69h24.19Z"/>
        <path class="cls-6" d="M81.41,714.66l-12.71,4.92v.41l8.61-.82h4.1v9.43h-28.7v-9.84l12.71-4.92v-.41l-8.61.82h-4.1v-9.43h28.7v9.84Z"/>
        <path class="cls-6" d="M57.22,698.26v3.69h-7.79v-13.12h39.77v13.12h-7.79v-3.69h-24.19Z"/>
      </g>
    </g>
    <g class="cls-7">
      <g class="cls-7">
        <path class="cls-6" d="M1193.31,1509.3h23.37v5.74l-2.46,2.46h-4.51v20.5h-9.43v-20.5h-6.97v-8.2Z"/>
        <path class="cls-6" d="M1234.72,1516.27v7.79h-6.56v13.94h-9.02v-21.32h6.56l1.03,2.25h.21c.25-.49.56-.94.94-1.35.33-.36.71-.66,1.15-.92s.97-.39,1.6-.39h4.1Z"/>
        <path class="cls-6" d="M1250.71,1538l-1.03-2.25h-.21c-.25.49-.55.93-.9,1.31-.36.38-.75.7-1.19.96s-.97.39-1.6.39h-4.1c-.71,0-1.39-.14-2.03-.43s-1.21-.68-1.7-1.17c-.49-.49-.88-1.06-1.17-1.7s-.43-1.32-.43-2.03v-2.87c0-.71.14-1.39.43-2.03.29-.64.68-1.21,1.17-1.7s1.06-.88,1.7-1.17,1.32-.43,2.03-.43h6.56v-1.64h-9.84v-6.56h13.53c.71,0,1.39.14,2.03.43.64.29,1.21.68,1.7,1.17.49.49.88,1.06,1.17,1.7.29.64.43,1.32.43,2.03v15.99h-6.56ZM1248.25,1531.85v-1.64h-2.87v1.64h2.87Z"/>
        <path class="cls-6" d="M1265.26,1538l-5.74-17.63v-3.69h9.22l1.64,12.71h.41l1.64-12.71h9.22v3.69l-5.74,17.63h-10.66Z"/>
        <path class="cls-6" d="M1289.04,1538c-.71,0-1.39-.14-2.03-.43s-1.21-.68-1.7-1.17-.88-1.06-1.17-1.7-.43-1.32-.43-2.03v-11.07c0-.71.14-1.39.43-2.03s.68-1.21,1.17-1.7c.49-.49,1.06-.88,1.7-1.17s1.32-.43,2.03-.43h10.25c.74,0,1.43.14,2.07.43.64.29,1.21.68,1.7,1.17.49.49.87,1.06,1.15,1.7s.41,1.32.41,2.03v8.61h-11.89v1.23h10.87v6.56h-14.56ZM1292.73,1522.42v2.05h2.87v-2.05h-2.87Z"/>
        <path class="cls-6" d="M1317.74,1530.62h2.25v7.38h-5.95c-.71,0-1.39-.14-2.03-.43s-1.21-.68-1.7-1.17c-.49-.49-.88-1.06-1.17-1.7s-.43-1.32-.43-2.03v-23.37h9.02v21.32Z"/>
        <path class="cls-6" d="M1343.37,1538h3.69v7.79h-13.12v-39.77h13.12v7.79h-3.69v24.19Z"/>
        <path class="cls-6" d="M1368.99,1518.93c.25-.49.56-.94.94-1.35.33-.36.71-.66,1.15-.92s.97-.39,1.6-.39h4.71c.71,0,1.39.14,2.03.43.64.29,1.21.68,1.7,1.17.49.49.88,1.06,1.17,1.7.29.64.43,1.32.43,2.03v16.4h-9.02v-14.35h-3.08v14.35h-9.02v-14.35h-3.07v14.35h-9.02v-21.32h6.56l1.03,2.25h.21c.25-.49.56-.94.94-1.35.33-.36.71-.66,1.15-.92s.97-.39,1.6-.39h4.1c.63,0,1.17.14,1.62.41.45.27.84.57,1.17.9.36.41.66.86.9,1.35h.21Z"/>
        <path class="cls-6" d="M1406.1,1518.93c.25-.49.56-.94.94-1.35.33-.36.71-.66,1.15-.92s.97-.39,1.6-.39h4.71c.71,0,1.39.14,2.03.43s1.21.68,1.7,1.17c.49.49.88,1.06,1.17,1.7s.43,1.32.43,2.03v16.4h-9.02v-14.35h-3.08v14.35h-9.02v-14.35h-3.08v14.35h-9.02v-21.32h6.56l1.03,2.25h.21c.25-.49.56-.94.94-1.35.33-.36.71-.66,1.15-.92s.97-.39,1.6-.39h4.1c.63,0,1.17.14,1.62.41s.84.57,1.17.9c.36.41.66.86.9,1.35h.21Z"/>
        <path class="cls-6" d="M1425.78,1513.81h-3.69v-7.79h13.12v39.77h-13.12v-7.79h3.69v-24.19Z"/>
      </g>
    </g>
    <g class="cls-7">
      <g class="cls-7">
        <path class="cls-6" d="M1023.28,105.65h36.48v8.96l-3.84,3.84h-7.04v32h-14.72v-32h-10.88v-12.8Z"/>
        <path class="cls-6" d="M1087.92,116.52v12.16h-10.24v21.76h-14.08v-33.28h10.24l1.6,3.52h.32c.38-.77.87-1.47,1.47-2.11.51-.55,1.11-1.03,1.79-1.44s1.51-.61,2.5-.61h6.4Z"/>
        <path class="cls-6" d="M1112.88,150.44l-1.6-3.52h-.32c-.38.77-.85,1.45-1.41,2.05-.55.6-1.17,1.1-1.86,1.5s-1.51.61-2.5.61h-6.4c-1.11,0-2.17-.22-3.17-.67-1-.45-1.89-1.06-2.66-1.82-.77-.77-1.38-1.65-1.82-2.66s-.67-2.06-.67-3.17v-4.48c0-1.11.22-2.17.67-3.17.45-1,1.06-1.89,1.82-2.66.77-.77,1.65-1.38,2.66-1.82,1-.45,2.06-.67,3.17-.67h10.24v-2.56h-15.36v-10.24h21.12c1.11,0,2.17.22,3.17.67,1,.45,1.89,1.06,2.66,1.82.77.77,1.38,1.65,1.82,2.66.45,1,.67,2.06.67,3.17v24.96h-10.24ZM1109.04,140.84v-2.56h-4.48v2.56h4.48Z"/>
        <path class="cls-6" d="M1135.6,150.44l-8.96-27.52v-5.76h14.4l2.56,19.84h.64l2.56-19.84h14.4v5.76l-8.96,27.52h-16.64Z"/>
        <path class="cls-6" d="M1172.72,150.44c-1.11,0-2.17-.22-3.17-.67s-1.89-1.06-2.66-1.82c-.77-.77-1.38-1.65-1.82-2.66-.45-1-.67-2.06-.67-3.17v-17.28c0-1.11.22-2.17.67-3.17.45-1,1.06-1.89,1.82-2.66.77-.77,1.65-1.38,2.66-1.82,1-.45,2.06-.67,3.17-.67h16c1.15,0,2.23.22,3.23.67,1,.45,1.89,1.06,2.66,1.82.77.77,1.37,1.65,1.79,2.66.43,1,.64,2.06.64,3.17v13.44h-18.56v1.92h16.96v10.24h-22.72ZM1178.48,126.12v3.2h4.48v-3.2h-4.48Z"/>
        <path class="cls-6" d="M1217.52,138.92h3.52v11.52h-9.28c-1.11,0-2.17-.22-3.17-.67-1-.45-1.89-1.06-2.66-1.82-.77-.77-1.38-1.65-1.82-2.66-.45-1-.67-2.06-.67-3.17v-36.48h14.08v33.28Z"/>
        <path class="cls-6" d="M1241.52,124.84c0-1.11.22-2.17.67-3.17.45-1,1.06-1.89,1.82-2.66.77-.77,1.65-1.38,2.66-1.82,1-.45,2.06-.67,3.17-.67h16.96c1.11,0,2.17.22,3.17.67,1,.45,1.89,1.06,2.66,1.82s1.38,1.65,1.82,2.66c.45,1,.67,2.06.67,3.17v17.92c0,1.11-.22,2.17-.67,3.17-.45,1-1.06,1.89-1.82,2.66s-1.65,1.38-2.66,1.82c-1,.45-2.06.67-3.17.67h-16.96c-1.11,0-2.17-.22-3.17-.67-1-.45-1.89-1.06-2.66-1.82-.77-.77-1.38-1.65-1.82-2.66-.45-1-.67-2.06-.67-3.17v-17.92ZM1261.04,128.04h-5.44v11.52h5.44v-11.52Z"/>
        <path class="cls-6" d="M1306.16,116.52c1.11,0,2.16.22,3.17.67,1,.45,1.89,1.06,2.66,1.82.77.77,1.38,1.65,1.82,2.66.45,1,.67,2.06.67,3.17v17.28c0,1.11-.22,2.17-.67,3.17-.45,1-1.06,1.89-1.82,2.66s-1.65,1.38-2.66,1.82-2.06.67-3.17.67h-11.2v10.88h-14.08v-44.16h10.24l1.6,3.52h.32c.38-.77.87-1.47,1.47-2.11.51-.55,1.11-1.03,1.79-1.44.68-.41,1.51-.61,2.5-.61h7.36ZM1300.4,138.92v-10.88h-5.44v10.88h5.44Z"/>
        <path class="cls-6" d="M1342,128.68h-6.4v10.24h7.68v11.52h-13.44c-1.11,0-2.17-.22-3.17-.67-1-.45-1.89-1.06-2.66-1.82-.77-.77-1.38-1.65-1.82-2.66-.45-1-.67-2.06-.67-3.17v-13.44h-3.84v-11.52h4.48l4.48-8.32h8.96v8.32h6.4v11.52Z"/>
        <path class="cls-6" d="M1362.48,114.6h-14.08v-10.88h14.08v10.88ZM1362.48,150.44h-14.08v-32.64h14.08v32.64Z"/>
        <path class="cls-6" d="M1368.88,124.84c0-1.11.22-2.17.67-3.17.45-1,1.05-1.89,1.82-2.66.77-.77,1.65-1.38,2.66-1.82,1-.45,2.06-.67,3.17-.67h16.96c1.11,0,2.17.22,3.17.67,1,.45,1.89,1.06,2.66,1.82.77.77,1.38,1.65,1.82,2.66.45,1,.67,2.06.67,3.17v17.92c0,1.11-.22,2.17-.67,3.17s-1.06,1.89-1.82,2.66c-.77.77-1.65,1.38-2.66,1.82-1,.45-2.06.67-3.17.67h-16.96c-1.11,0-2.17-.22-3.17-.67-1-.45-1.89-1.06-2.66-1.82-.77-.77-1.38-1.65-1.82-2.66-.45-1-.67-2.06-.67-3.17v-17.92ZM1388.39,128.04h-5.44v11.52h5.44v-11.52Z"/>
        <path class="cls-6" d="M1433.51,116.52c1.11,0,2.17.22,3.17.67,1,.45,1.89,1.06,2.66,1.82.77.77,1.38,1.65,1.82,2.66.45,1,.67,2.06.67,3.17v25.6h-14.08v-22.4h-5.44v22.4h-14.08v-33.28h10.24l1.6,3.52h.32c.38-.77.88-1.47,1.47-2.11.51-.55,1.11-1.03,1.79-1.44.68-.41,1.52-.61,2.5-.61h7.36Z"/>
        <path class="cls-6" d="M1446,125.48c0-1.11.22-2.17.67-3.17.45-1,1.06-1.89,1.82-2.66s1.65-1.38,2.66-1.82,2.06-.67,3.17-.67h20.48v6.72l-3.2,3.52h-11.52v1.28l8.32,1.6c2.26.38,4.11,1.3,5.54,2.75,1.43,1.45,2.14,3.31,2.14,5.57v3.52c0,1.11-.22,2.17-.67,3.17-.45,1-1.06,1.89-1.82,2.66s-1.65,1.38-2.66,1.82-2.06.67-3.17.67h-21.76v-10.24h16v-1.28l-8.32-1.6c-2.26-.38-4.11-1.3-5.54-2.75-1.43-1.45-2.14-3.31-2.14-5.57v-3.52Z"/>
      </g>
    </g>
  </g>
  <g id="Layer_2" data-name="Layer 2">
    <line class="cls-5" x1="1752.6" y1="171.5" x2="1752.6" y2="1409.5"/>
    <line class="cls-5" x1="1141.6" y1="1409.5" x2="1141.6" y2="171.5"/>
    <line class="cls-5" x1="2364.5" y1="171.5" x2="2364.5" y2="1409.5"/>
  </g>
</svg>