<?xml version="1.0" encoding="UTF-8"?>
<svg id="Layer_1" data-name="Layer 1" xmlns="http://www.w3.org/2000/svg" viewBox="0 0 736 462.67">
  <defs>
    <style>
      .cls-1 {
        fill: #5d5d5d;
      }

      .cls-2 {
        fill: #333;
      }

      .cls-3 {
        fill: gray;
      }

      .cls-4 {
        fill: #231f20;
      }

      .cls-5 {
        fill: #4c4c4d;
      }

      .cls-6, .cls-7 {
        fill: #e65025;
      }

      .cls-7 {
        stroke: #231f20;
      }

      .cls-7, .cls-8 {
        stroke-miterlimit: 10;
      }

      .cls-9 {
        stroke: #000;
        stroke-linecap: round;
        stroke-linejoin: round;
      }

      .cls-9, .cls-8 {
        fill: none;
      }

      .cls-8 {
        stroke: #e65025;
      }

      .cls-10 {
        fill: #505150;
      }

      .cls-11 {
        fill: #666766;
      }

      .cls-12 {
        fill: #707071;
      }

      .cls-13 {
        fill: #e6e6e6;
      }
    </style>
  </defs>
  <g>
    <g>
      <rect class="cls-2" x="646.74" y="425.56" width="64.6" height="2.68"/>
      <polygon class="cls-11" points="711.34 402.86 711.34 425.56 646.74 425.56 646.93 402.86 711.34 402.86"/>
      <rect class="cls-3" x="646.93" y="399.22" width="64.41" height="3.64"/>
      <path class="cls-5" d="M711.34,393.22v6h-64.41c-7.59,0-15.02-2.07-21.54-6h85.95Z"/>
      <path class="cls-5" d="M641.43,386.94c1.76.1,3.53.18,5.3.22h64.61v6.06h-85.95c-.98-.74-1.97-1.46-2.97-2.16-5.25-3.69-11.81-5.69-18.64-5.69h20.45c.62.01,1.24.03,1.85.07l-.04-.07h.26v.04c5.02.73,10.07,1.24,15.13,1.53Z"/>
      <rect class="cls-3" x="646.73" y="386.65" width="64.61" height=".51"/>
      <rect class="cls-3" x="646.73" y="382.37" width="64.61" height="4.28"/>
      <path class="cls-5" d="M711.34,374.94v7.43h-64.61c-1.63,0-3.26.1-4.87.29-1.6.19-3.18.47-4.7.77-1.43.29-2.82.6-4.15.9-1.5.33-2.93.63-4.27.82-.8.13-1.63.2-2.44.22h-85.19c-2.94,0-5.83-.26-8.52-.77h-.01c-10.4-2.41-20.6-5.64-30.5-9.66h209.26Z"/>
      <path class="cls-11" d="M711.34,361.3v13.64h-209.26s-.05-.02-.08-.03v-2.53h172.51c15.14,0,27.91-4.09,36.83-11.08Z"/>
      <path class="cls-3" d="M711.34,356.32v4.98c-8.92,6.99-21.69,11.08-36.83,11.08v-4.89c15.69.31,28.59-3.86,36.83-11.17Z"/>
      <path class="cls-5" d="M711.34,330.74v25.58c-8.24,7.31-21.14,11.48-36.83,11.17l-11.99-4.43c14.14-4.48,26.54-20.5,30.3-39.15l18.52,6.83Z"/>
      <path class="cls-5" d="M711.34,143.04v187.7l-18.52-6.83,2.14-197.38c1.02.73,1.97,1.54,2.84,2.45l13.54,14.06Z"/>
      <path class="cls-3" d="M711.34,135.46v7.58l-13.54-14.06c.8-1.52,2.24-2.91,3.79-3.65l9.75,10.13Z"/>
      <polygon class="cls-11" points="711.34 125.33 711.34 135.46 701.59 125.33 711.34 125.33"/>
      <path class="cls-1" d="M711.34,117.48v7.85h-9.75c-.87-1.13-1.82-2.15-2.84-3.06-1.64-1.46-3.46-2.51-5.4-3.24-3.03-1.15-6.35-1.55-9.82-1.55h27.81Z"/>
      <path class="cls-3" d="M698.75,122.27c1.02.91,1.97,1.93,2.84,3.06-1.55.74-2.99,2.13-3.79,3.65-.87-.91-1.82-1.72-2.84-2.45.69-1.86,2.17-3.52,3.79-4.26Z"/>
      <path class="cls-3" d="M698.75,122.27c-1.62.74-3.1,2.4-3.79,4.26-1.53-1.17-3.24-2.01-5.06-2.6-2.84-.92-5.95-1.24-9.2-1.24.04-2.9,1.3-5.21,2.83-5.21,3.47,0,6.79.4,9.82,1.55,1.94.73,3.76,1.78,5.4,3.24Z"/>
      <path class="cls-1" d="M694.96,126.53l-2.14,197.38c-15.04-2.46-35.46-3.92-56.76-4.04l.7-65.21c3.18-8.72,3.29-18.27.3-27.06l1.13-104.9c15.03,0,29.76,0,42.51,0,3.25,0,6.36.32,9.2,1.24,1.82.59,3.53,1.43,5.06,2.6Z"/>
      <path class="cls-3" d="M638.19,117.48h45.34c-1.53,0-2.79,2.31-2.83,5.21-12.75,0-27.48,0-42.51,0v-5.22Z"/>
      <path class="cls-1" d="M692.82,323.91c-3.76,18.65-16.16,34.67-30.3,39.15-6.71-2.48-15.75-3.92-25.28-4.03-.36-5.16-.75-10.33-1.18-15.49v-23.67c21.3.12,41.72,1.58,56.76,4.04Z"/>
      <polygon class="cls-3" points="674.51 367.49 674.51 372.38 502 372.38 373.54 372.38 136.73 372.38 136.73 367.49 629.76 367.49 674.51 367.49"/>
      <path class="cls-1" d="M674.51,367.49h-44.75v-1.78c4.45,0,7.95-1.31,7.81-2.93l-.33-3.75c9.53.11,18.57,1.55,25.28,4.03l11.99,4.43Z"/>
      <path class="cls-3" d="M646.93,399.22v3.64c-8.53,0-16.9-2.07-24.24-5.99.66-1.44,1.65-2.78,2.7-3.65,6.52,3.93,13.95,6,21.54,6Z"/>
      <path class="cls-3" d="M646.93,402.86l-.19,22.7h-27.64l.25-30.42c1.12.56,2.23,1.13,3.34,1.73,7.34,3.92,15.71,5.99,24.24,5.99Z"/>
      <path class="cls-3" d="M628.74,385.15c1.34-.19,2.77-.49,4.27-.82,1.33-.3,2.72-.61,4.15-.9,1.52-.3,3.1-.58,4.7-.77,1.61-.19,3.24-.29,4.87-.29v4.28c-1.77.01-3.54.11-5.3.29-5.06-.29-10.11-.8-15.13-1.53v-.04c.81-.02,1.64-.09,2.44-.22Z"/>
      <path class="cls-2" d="M646.72,425.56v2.68h-26.11l-1.5-2.68h27.61Z"/>
      <polygon class="cls-3" points="638.19 117.48 638.19 122.7 266.32 122.7 266.32 117.48 277.04 117.48 278.07 117.48 280.82 117.48 289.88 117.48 292.63 117.48 292.97 117.48 298.33 117.48 432.78 117.48 438.27 117.48 438.57 117.48 441.38 117.48 450.69 117.48 453.45 117.48 638.19 117.48"/>
      <path class="cls-11" d="M638.19,122.7l-1.13,104.9c-5.62-16.51-21.12-27.61-38.55-27.61h-117.88c-22.48,0-40.71,18.23-40.72,40.72,0,11.24,4.56,21.42,11.93,28.79,7.37,7.37,17.55,11.93,28.79,11.93h117.88c17.11,0,32.39-10.7,38.25-26.77l-.7,65.21h-1.93c-3.71-22.63-25.06-37.97-47.69-34.27-17.6,2.88-31.39,16.67-34.27,34.27h-207c-3.15-16.4-17.5-28.26-34.2-28.26h-38.42c-16.7,0-31.05,11.86-34.2,28.26h-63.16l-2.14-197.17h50l.02,1.53c-14.03,12.05-15.63,33.18-3.59,47.21,12.05,14.02,33.2,15.63,47.23,3.58,14.03-12.04,15.63-33.18,3.58-47.2-1.21-1.41-2.54-2.72-3.97-3.91v-1.21h371.87ZM308.26,272c17.28-17.24,17.31-45.23.07-62.51-.04-.03-.07-.07-.11-.1-.01-.01-.01-.02-.02-.03,0,0-.02-.01-.02-.02-3.11-3.07-7.31-4.79-11.68-4.79h-38.93c-4.37,0-8.57,1.72-11.68,4.79,0,.01-.01.02-.02.02,0,0-.01.02-.02.03-17.3,17.22-17.36,45.2-.14,62.5.03.04.07.08.1.11,0,.01.02.01.02.02.01.01.02.01.02.02,3.11,3.1,7.33,4.84,11.72,4.84h38.93c4.39,0,8.61-1.74,11.72-4.84l.02-.02s.01-.01.02-.02Z"/>
      <path class="cls-3" d="M637.57,362.78c.14,1.62-3.36,2.93-7.81,2.93v-5.04c1.51.26,2.61-.84,2.47-2.45.23,2.61,2.55,4.59,5.34,4.56Z"/>
      <path class="cls-3" d="M637.06,227.6c2.99,8.79,2.88,18.34-.3,27.06l-5.08-1.71c2.79-7.57,2.91-15.86.35-23.5l5.03-1.85Z"/>
      <path class="cls-10" d="M637.24,359.03l.33,3.75c-2.79.03-5.11-1.95-5.34-4.56l-.33-3.75c.23,2.61,2.55,4.59,5.34,4.56Z"/>
      <path class="cls-10" d="M637.24,359.03c-2.79.03-5.11-1.95-5.34-4.56l-1.18-13.56c.14,1.64,2.49,2.8,5.34,2.63.43,5.16.82,10.33,1.18,15.49Z"/>
      <path class="cls-3" d="M637.06,227.6l-5.03,1.85c-4.84-14.4-18.33-24.1-33.52-24.1v-5.36c17.43,0,32.93,11.1,38.55,27.61Z"/>
      <path class="cls-3" d="M631.68,252.95l5.08,1.71c-5.86,16.07-21.14,26.77-38.25,26.77v-5.36c14.81,0,28.05-9.23,33.17-23.12Z"/>
      <path class="cls-11" d="M636.06,319.87v23.67l-1.55-20.14c-.09-1.18-.22-2.36-.38-3.53h1.93Z"/>
      <path class="cls-10" d="M634.51,323.4l1.55,20.14c-2.85.17-5.2-.99-5.34-2.63l-1.54-17.62c.03.31,2.41.36,5.33.11Z"/>
      <path class="cls-10" d="M634.13,319.87c.16,1.17.29,2.35.38,3.53-2.92.25-5.3.2-5.33-.11-.08-.91-.19-1.8-.33-2.69.19.04,2.49-.27,5.28-.73Z"/>
      <path class="cls-5" d="M632.03,229.45c2.56,7.64,2.44,15.93-.35,23.5-5.12,13.89-18.36,23.12-33.17,23.12h-105.1v-.53c4.24,0,8.3-.76,12.05-2.14h93.05c18.05,0,32.68-14.64,32.68-32.69s-14.63-32.68-32.68-32.68h-93.05c-3.75-1.38-7.81-2.14-12.05-2.14v-.54h105.1c15.19,0,28.68,9.7,33.52,24.1Z"/>
      <path class="cls-3" d="M632.23,358.22c.14,1.61-.96,2.71-2.47,2.45l-3.25-37.15,2.67-.23,1.54,17.62,1.18,13.56.33,3.75Z"/>
      <path class="cls-1" d="M629.76,365.71v1.78H136.73l12-4.43c7-2.58,16.52-4.03,26.46-4.03h85.08c3.93,1.48,8.09,2.23,12.28,2.23h38.42c4.19,0,8.35-.75,12.28-2.23h225.81l-.33,3.75c-.14,1.62,3.35,2.93,7.81,2.93h73.22Z"/>
      <rect class="cls-3" x="556.54" y="360.67" width="73.22" height="5.04"/>
      <path class="cls-12" d="M583.56,320.43c-1.09,1.75-1.75,3.8-1.75,6.01,0,6.26,5.07,11.34,11.34,11.34s11.34-5.08,11.34-11.34c0-2.21-.66-4.26-1.75-6.01-2.01-3.19-5.54-5.33-9.59-5.33s-7.58,2.14-9.59,5.33ZM626.51,323.52l3.25,37.15h-73.22l3.25-37.15c1.42-16.19,14.25-29.02,30.44-30.44,18.42-1.61,34.67,12.02,36.28,30.44Z"/>
      <path class="cls-3" d="M628.85,320.6c.14.89.25,1.78.33,2.69l-2.67.23c-1.61-18.42-17.86-32.05-36.28-30.44-16.19,1.42-29.02,14.25-30.44,30.44l-2.67-.23c.08-.91.19-1.81.34-2.69,2.64-16.21,15.96-28.74,32.54-30.19,1.07-.09,2.14-.14,3.19-.14,17.65,0,32.81,12.86,35.66,30.33Z"/>
      <path class="cls-10" d="M634.13,319.87c-2.79.46-5.09.77-5.28.73-2.85-17.47-18.01-30.33-35.66-30.33-1.05,0-2.12.05-3.19.14-16.58,1.45-29.9,13.98-32.54,30.19-.01.07-2.38-.25-5.29-.73,2.88-17.6,16.67-31.39,34.27-34.27,22.63-3.7,43.98,11.64,47.69,34.27Z"/>
      <path class="cls-3" d="M622.42,391.06c1,.7,1.99,1.42,2.97,2.16-1.05.87-2.04,2.21-2.7,3.65-1.11-.6-2.22-1.17-3.34-1.73.65-1.69,1.82-3.24,3.07-4.08Z"/>
      <path class="cls-5" d="M598.51,208.03c18.05,0,32.68,14.63,32.68,32.68s-14.63,32.69-32.68,32.69v-2.68c16.57,0,30-13.44,30-30.01s-13.43-30-30-30v-2.68Z"/>
      <path class="cls-5" d="M598.51,210.71c16.57,0,30,13.43,30,30s-13.43,30.01-30,30.01h-87.41c10.25-6.06,17.13-17.23,17.13-30.01s-6.88-23.94-17.13-30h87.41Z"/>
      <polygon class="cls-2" points="619.1 425.56 620.59 428.24 530.73 428.24 529.24 425.56 619.1 425.56"/>
      <path class="cls-3" d="M622.42,391.06c-1.25.84-2.42,2.39-3.07,4.08-5.25-2.95-11.81-4.55-18.64-4.55.04-2.9,1.4-5.22,3.07-5.22,6.83,0,13.39,2,18.64,5.69Z"/>
      <path class="cls-5" d="M619.35,395.14l-.25,30.42h-89.88l.3-36.13c2.69.77,5.58,1.16,8.52,1.16h62.67c6.83,0,13.39,1.6,18.64,4.55Z"/>
      <path class="cls-3" d="M541.11,385.37h62.67c-1.67,0-3.03,2.32-3.07,5.22h-62.67c.04-2.9,1.4-5.22,3.07-5.22Z"/>
      <path class="cls-2" d="M602.74,320.43c1.09,1.75,1.75,3.8,1.75,6.01,0,6.26-5.08,11.34-11.34,11.34s-11.34-5.08-11.34-11.34c0-2.21.66-4.26,1.75-6.01h19.18Z"/>
      <path class="cls-2" d="M602.74,320.43h-19.18c2.01-3.19,5.54-5.33,9.59-5.33s7.58,2.14,9.59,5.33Z"/>
      <polygon class="cls-3" points="598.51 276.07 598.51 281.43 480.63 281.43 480.63 276.07 493.41 276.07 598.51 276.07"/>
      <path class="cls-5" d="M598.51,270.72v2.68h-93.05c1.97-.73,3.86-1.63,5.64-2.68h87.41Z"/>
      <path class="cls-5" d="M598.51,208.03v2.68h-87.41c-1.78-1.05-3.67-1.95-5.64-2.68h93.05Z"/>
      <polygon class="cls-3" points="598.51 199.99 598.51 205.35 493.41 205.35 480.63 205.35 480.63 199.99 598.51 199.99"/>
      <path class="cls-3" d="M559.79,323.52l-3.25,37.15c-1.51.26-2.62-.84-2.47-2.45l.32-3.76,2.73-31.17,2.67.23Z"/>
      <path class="cls-10" d="M552.17,319.87c2.91.48,5.28.8,5.29.73-.15.88-.26,1.78-.34,2.69-.03.31-2.41.36-5.34.11.09-1.18.22-2.36.39-3.53Z"/>
      <path class="cls-10" d="M557.12,323.29l-2.73,31.17c-.22,2.61-2.55,4.6-5.33,4.57l2.72-35.63c2.93.25,5.31.2,5.34-.11Z"/>
      <path class="cls-3" d="M556.54,360.67v5.04c-4.46,0-7.95-1.31-7.81-2.93,2.79.03,5.11-1.95,5.34-4.56-.15,1.61.96,2.71,2.47,2.45Z"/>
      <path class="cls-10" d="M554.39,354.46l-.32,3.76c-.23,2.61-2.55,4.59-5.34,4.56l.33-3.75c2.78.03,5.11-1.96,5.33-4.57Z"/>
      <path class="cls-11" d="M345.17,319.87h207c-.17,1.17-.3,2.35-.39,3.53l-2.72,35.63h-225.81c15.86-5.98,25.11-22.51,21.92-39.16Z"/>
      <path class="cls-3" d="M532.58,384.6h.01c2.69.51,5.58.77,8.52.77-1.67,0-3.03,2.32-3.07,5.22-2.94,0-5.83-.39-8.52-1.16.45-2.21,1.68-4.15,3.06-4.83Z"/>
      <path class="cls-3" d="M532.58,384.6c-1.38.68-2.61,2.62-3.06,4.83-2.7-.86-5.53-2.1-8.42-3.53-4.62-2.3-9.35-5.06-14.11-7.93-1.67-1-3.34-2.02-5-3.03h.09c9.9,4.02,20.1,7.25,30.5,9.66Z"/>
      <path class="cls-2" d="M529.22,425.56l1.49,2.68h-29.14v-2.68h27.65Z"/>
      <path class="cls-1" d="M529.52,389.43l-.3,36.13h-27.65l.42-50.62c1.66,1.01,3.33,2.03,5,3.03,4.76,2.87,9.49,5.63,14.11,7.93,2.89,1.43,5.72,2.67,8.42,3.53Z"/>
      <path class="cls-12" d="M493.41,206.51c18.89,0,34.2,15.31,34.2,34.2s-15.31,34.21-34.2,34.21-34.21-15.32-34.21-34.21,15.32-34.2,34.21-34.2ZM525.36,240.71c0-17.65-14.3-31.95-31.95-31.95s-31.96,14.3-31.96,31.95,14.31,31.96,31.96,31.96,31.95-14.31,31.95-31.96Z"/>
      <path class="cls-12" d="M493.41,210.15c16.88,0,30.56,13.68,30.56,30.56s-13.68,30.57-30.56,30.57-30.57-13.69-30.57-30.57,13.69-30.56,30.57-30.56ZM518.86,240.71c0-14.05-11.4-25.45-25.45-25.45s-25.45,11.4-25.45,25.45,11.39,25.45,25.45,25.45,25.45-11.39,25.45-25.45Z"/>
      <path class="cls-2" d="M493.41,215.26c14.05,0,25.45,11.4,25.45,25.45s-11.4,25.45-25.45,25.45-25.45-11.39-25.45-25.45,11.39-25.45,25.45-25.45ZM506.8,240.71c0-7.4-5.99-13.39-13.39-13.39s-13.4,5.99-13.4,13.39,6,13.4,13.4,13.4,13.39-6,13.39-13.4Z"/>
      <path class="cls-2" d="M493.41,227.32c7.4,0,13.39,5.99,13.39,13.39s-5.99,13.4-13.39,13.4-13.4-6-13.4-13.4,6-13.39,13.4-13.39ZM501.44,245.35c1.66-2.87,1.66-6.41,0-9.28-1.65-2.87-4.72-4.64-8.03-4.64s-6.38,1.77-8.04,4.64-1.66,6.41,0,9.28,4.72,4.64,8.04,4.64,6.38-1.77,8.03-4.64Z"/>
      <path class="cls-11" d="M502.08,374.94h-.09l-.42,50.62h-127.6l-.42-50.62h-.09s.06-.02.08-.03v-2.53h128.46v2.53s.05.02.08.03Z"/>
      <path class="cls-2" d="M501.44,236.07c1.66,2.87,1.66,6.41,0,9.28v-9.28Z"/>
      <rect class="cls-2" x="373.99" y="425.56" width="127.56" height="2.68"/>
      <polygon class="cls-2" points="501.44 236.07 501.44 245.35 493.41 249.99 485.37 245.35 485.37 236.07 493.41 231.43 501.44 236.07"/>
      <path class="cls-2" d="M501.44,236.07l-8.03-4.64c3.31,0,6.38,1.77,8.03,4.64Z"/>
      <path class="cls-2" d="M493.41,249.99l8.03-4.64c-1.65,2.87-4.72,4.64-8.03,4.64Z"/>
      <path class="cls-5" d="M493.41,275.54v.53h-12.78c-19.53,0-35.36-15.83-35.36-35.36s15.83-35.36,35.36-35.36h12.78v.54c-4.24,0-8.3.76-12.06,2.14h-.72c-18.05,0-32.68,14.63-32.68,32.68,0,9.02,3.66,17.2,9.57,23.11,5.91,5.92,14.09,9.58,23.11,9.58h.72c3.76,1.38,7.82,2.14,12.06,2.14Z"/>
      <path class="cls-2" d="M493.41,231.43l-8.04,4.64c1.66-2.87,4.72-4.64,8.04-4.64Z"/>
      <path class="cls-2" d="M485.37,245.35l8.04,4.64c-3.32,0-6.38-1.77-8.04-4.64Z"/>
      <path class="cls-2" d="M485.37,236.07v9.28c-1.66-2.87-1.66-6.41,0-9.28Z"/>
      <path class="cls-3" d="M480.63,276.07v5.36c-11.24,0-21.42-4.56-28.79-11.93-7.37-7.37-11.93-17.55-11.93-28.79.01-22.49,18.24-40.72,40.72-40.72v5.36c-19.53,0-35.36,15.83-35.36,35.36s15.83,35.36,35.36,35.36Z"/>
      <path class="cls-5" d="M459.02,219.92c-6.56,6.84-9.8,16.65-7.81,26.64,1.14,5.76,3.92,10.89,7.81,14.94,4.17,4.33,9.6,7.42,15.75,8.64,1.84,1.17,3.8,2.17,5.86,2.98v.28c-9.02,0-17.2-3.66-23.11-9.58-5.91-5.91-9.57-14.09-9.57-23.11,0-18.05,14.63-32.68,32.68-32.68v.28c-2.05.81-4.01,1.81-5.85,2.97-6.25,1.25-11.65,4.37-15.76,8.64Z"/>
      <path class="cls-5" d="M474.78,211.28c-9.74,6.18-16.2,17.05-16.2,29.43s6.46,23.26,16.19,29.43c-6.15-1.22-11.58-4.31-15.75-8.64-7.73-12.78-7.73-28.79,0-41.58,4.11-4.27,9.51-7.39,15.76-8.64Z"/>
      <path class="cls-2" d="M459.02,261.5c-3.89-4.05-6.67-9.18-7.81-14.94-1.99-9.99,1.25-19.8,7.81-26.64-7.73,12.79-7.73,28.8,0,41.58Z"/>
      <path class="cls-3" d="M453.45,117.46v.02h-2.76v-.03c-8.7-38.79-27.22-74.35-53.39-103.53h3.65c25.75,29.32,43.94,64.87,52.5,103.54Z"/>
      <path class="cls-11" d="M450.69,117.45v.03h-9.31v-.02c-9.18-39.22-28.82-74.92-56.44-103.54h12.36c26.17,29.18,44.69,64.74,53.39,103.53Z"/>
      <path class="cls-3" d="M441.38,117.46v.02h-2.81c-9.35-39.38-29.34-75.13-57.43-103.56h3.8c27.62,28.62,47.26,64.32,56.44,103.54Z"/>
      <path class="cls-5" d="M438.27,117.46v.02h-5.49v-.02c-9.45-38.48-29.35-73.31-57.14-100.89-.89-.89-1.8-1.78-2.71-2.65h7.69c28.18,28.39,48.25,64.14,57.65,103.54Z"/>
      <path class="cls-11" d="M432.78,117.46v.02h-134.45V39.91c0-2.19,1.34-4.17,3.38-4.98,11.16-4.43,20.79-11.74,28.02-21.01h43.2c.91.87,1.82,1.76,2.71,2.65,27.79,27.58,47.69,62.41,57.14,100.89Z"/>
      <path class="cls-2" d="M373.97,425.56v2.68h-29.14l1.49-2.68h27.65Z"/>
      <path class="cls-1" d="M373.55,374.94l.42,50.62h-27.65l-.29-36.13c2.69-.86,5.53-2.1,8.41-3.53,4.61-2.29,9.34-5.05,14.11-7.93,1.67-1,3.34-2.02,5-3.03Z"/>
      <path class="cls-3" d="M373.46,374.94h.09c-1.66,1.01-3.33,2.03-5,3.03-4.77,2.88-9.5,5.64-14.11,7.93-2.88,1.43-5.72,2.67-8.41,3.53-.46-2.21-1.69-4.15-3.07-4.83,10.41-2.41,20.61-5.64,30.5-9.66Z"/>
      <path class="cls-11" d="M373.54,372.38v2.53s-.05.02-.08.03H16.77v-211.11h67.65l1.85,170.54c.25,22.46,20.89,38.01,50.46,38.01h236.81Z"/>
      <path class="cls-5" d="M16.77,374.94h356.69c-9.89,4.02-20.09,7.25-30.5,9.66h-.01c-2.69.51-5.58.77-8.52.77h-85.19c-.81-.02-1.63-.09-2.43-.22-.81-.11-1.64-.27-2.5-.44-1.86-.38-3.84-.86-5.93-1.28-1.52-.3-3.1-.58-4.7-.77-1.61-.19-3.24-.29-4.86-.29H57.36c-1.62,0-3.25.1-4.86.29-1.6.19-3.18.47-4.7.77-1.44.29-2.82.6-4.16.9-1.5.33-2.92.63-4.27.82-.8.13-1.62.2-2.43.22h-20.17v-10.43Z"/>
      <path class="cls-5" d="M346.03,389.43l.29,36.13h-89.87l-.25-30.42c5.24-2.95,11.81-4.55,18.64-4.55h62.67c2.93,0,5.83-.39,8.52-1.16Z"/>
      <polygon class="cls-2" points="346.31 425.56 344.81 428.24 254.95 428.24 256.45 425.56 346.31 425.56"/>
      <path class="cls-12" d="M345.17,319.87c3.19,16.65-6.06,33.18-21.92,39.16-3.93,1.48-8.09,2.23-12.28,2.23h-38.42c-4.19,0-8.35-.75-12.28-2.23-15.86-5.98-25.11-22.51-21.92-39.16,3.15-16.4,17.5-28.26,34.2-28.26h38.42c16.7,0,31.05,11.86,34.2,28.26ZM342.81,336.81c5.72-17.59-3.89-36.48-21.47-42.21-6.74-2.2-14.01-2.2-20.75,0-6.22-2.03-12.89-2.19-19.2-.46-17.84-4.88-36.26,5.62-41.14,23.46s5.63,36.26,23.47,41.14c5.78,1.58,11.89,1.58,17.67,0,6.31,1.72,12.98,1.56,19.2-.46,17.59,5.73,36.49-3.89,42.22-21.47Z"/>
      <path class="cls-3" d="M342.96,384.6c1.38.68,2.61,2.62,3.07,4.83-2.69.77-5.59,1.16-8.52,1.16-.05-2.9-1.41-5.22-3.08-5.22,2.94,0,5.83-.26,8.52-.77h.01Z"/>
      <path class="cls-5" d="M321.34,294.6c17.58,5.73,27.19,24.62,21.47,42.21-5.73,17.58-24.63,27.2-42.22,21.47v-15.77h10.38c8.87,0,16.07-7.19,16.07-16.07s-7.2-16.08-16.07-16.08h-10.38v-15.76c6.74-2.2,14.01-2.2,20.75,0Z"/>
      <path class="cls-3" d="M337.51,390.59h-62.67c-.05-2.9-1.41-5.22-3.07-5.22h62.66c1.67,0,3.03,2.32,3.08,5.22Z"/>
      <path class="cls-5" d="M322.74,13.92h6.99c-7.23,9.27-16.86,16.58-28.02,21.01l-1.98-4.97c8.9-3.54,16.74-9.07,23.01-16.04Z"/>
      <path class="cls-2" d="M310.97,310.36c8.87,0,16.07,7.2,16.07,16.08s-7.2,16.07-16.07,16.07h-10.57c2.73-4.73,4.3-10.22,4.3-16.07s-1.57-11.36-4.31-16.08h10.58Z"/>
      <path class="cls-3" d="M318.49,13.92h3.78c-6.24,6.87-14.02,12.32-22.85,15.79l-1-2.56c7.62-3,14.43-7.54,20.07-13.23Z"/>
      <path class="cls-11" d="M303.19,13.92h15.3c-5.64,5.69-12.45,10.23-20.07,13.23l-.04.02c-5.13,2.01-8.5,6.96-8.5,12.46v77.85h-9.06V40.1c.02-9.72,5.88-18.48,14.86-22.21l.02-.02c2.64-1.09,5.12-2.44,7.49-3.95Z"/>
      <path class="cls-12" d="M308.33,209.49c17.24,17.28,17.21,45.27-.07,62.51l-1.93-1.86c16.25-16.18,16.31-42.47.13-58.72-.03-.03-.06-.07-.1-.1l1.86-1.93s.07.07.11.1Z"/>
      <path class="cls-13" d="M308.02,216.73c13.24,17.11,10.11,41.72-7,54.96-1.91.77-3.95,1.17-6.01,1.17h-35.94c-2.07,0-4.11-.4-6.02-1.17-2.62-2.02-4.97-4.38-6.99-7-13.25-17.11-10.12-41.71,6.99-54.96,1.91-.77,3.95-1.16,6.02-1.16h35.94c2.06,0,4.1.39,6.01,1.16,2.62,2.03,4.97,4.38,7,7ZM304.56,240.71c0-15.2-12.32-27.52-27.52-27.52s-27.53,12.32-27.53,27.52,12.33,27.53,27.53,27.53,27.52-12.33,27.52-27.53Z"/>
      <path class="cls-12" d="M306.29,270.18l1.93,1.86c-3.11,3.1-7.33,4.84-11.72,4.84v-2.68c3.67,0,7.19-1.45,9.79-4.02Z"/>
      <path class="cls-12" d="M308.18,209.34l-1.85,1.94c-2.61-2.6-6.14-4.05-9.83-4.05v-2.68c4.37,0,8.57,1.72,11.68,4.79Z"/>
      <path class="cls-5" d="M306.46,211.42c16.18,16.25,16.12,42.54-.13,58.72l-.02.02-.02.02c-2.6,2.57-6.12,4.02-9.79,4.02h-38.93c-3.67,0-7.18-1.45-9.79-4.02,0-.01,0-.02-.02-.02l-.02-.02s-.06-.07-.1-.1c-16.2-16.23-16.17-42.52.07-58.72,0-.01.01-.01.01-.02.01-.01.02-.01.02-.02,2.61-2.6,6.15-4.05,9.83-4.05h38.93c3.69,0,7.22,1.45,9.83,4.05l.02.02s0,.01,0,.02c.04.03.07.07.1.1ZM306.99,267.5c13.64-15.25,13.64-38.32,0-53.58-1.65-1.83-3.69-3.27-5.97-4.19-1.91-.77-3.95-1.16-6.01-1.16h-35.94c-2.07,0-4.11.39-6.02,1.16-2.28.92-4.32,2.36-5.97,4.19-13.64,15.26-13.64,38.33,0,53.58,1.65,1.84,3.69,3.27,5.97,4.19,1.91.77,3.95,1.17,6.02,1.17h35.94c2.06,0,4.1-.4,6.01-1.17,2.28-.92,4.32-2.35,5.97-4.19Z"/>
      <path class="cls-3" d="M297.63,13.92h5.56c-2.37,1.51-4.85,2.86-7.49,3.95l-1.05-2.53c1.02-.43,2-.93,2.98-1.42Z"/>
      <path class="cls-5" d="M299.73,29.96l1.98,4.97c-2.04.81-3.38,2.79-3.38,4.98h-5.36c0-4.39,2.68-8.33,6.76-9.95Z"/>
      <path class="cls-5" d="M300.59,342.51v15.77c-6.22,2.02-12.89,2.18-19.2.46v-1.38c8.1-2.31,14.89-7.72,19.01-14.85h.19Z"/>
      <path class="cls-5" d="M300.59,294.6v15.76h-.2c-4.12-7.13-10.91-12.53-19-14.84v-1.38c6.31-1.73,12.98-1.57,19.2.46Z"/>
      <path class="cls-6" d="M281.39,357.36c-2.81.8-5.77,1.23-8.84,1.23-17.75,0-32.14-14.4-32.14-32.15s14.39-32.15,32.14-32.15c3.07,0,6.03.43,8.84,1.23,8.09,2.31,14.88,7.71,19,14.84,2.74,4.72,4.31,10.22,4.31,16.08s-1.57,11.34-4.3,16.07c-4.12,7.13-10.91,12.54-19.01,14.85ZM283.27,332.62c2.21-3.82,2.21-8.54,0-12.37s-6.3-6.19-10.72-6.19-8.5,2.36-10.71,6.19-2.21,8.55,0,12.37c2.21,3.83,6.29,6.19,10.71,6.19s8.51-2.36,10.72-6.19Z"/>
      <path class="cls-3" d="M298.38,27.17l1,2.56c-4.06,1.61-6.73,5.53-6.75,9.9h-2.75c0-5.5,3.37-10.45,8.5-12.46Z"/>
      <rect class="cls-5" x="292.97" y="39.91" width="5.36" height="77.57"/>
      <path class="cls-13" d="M277.04,213.19c15.2,0,27.52,12.32,27.52,27.52s-12.32,27.53-27.52,27.53-27.53-12.33-27.53-27.53,12.33-27.52,27.53-27.52ZM302.89,240.71c0-14.27-11.58-25.85-25.85-25.85s-25.85,11.58-25.85,25.85,11.57,25.85,25.85,25.85,25.85-11.57,25.85-25.85Z"/>
      <path class="cls-5" d="M270.99,13.92h25.52c-.75.36-1.48.75-2.26,1.06-8.29,3.39-14.33,10.69-16.12,19.46v-.17h0c0-7.43-2.54-14.58-7.14-20.35Z"/>
      <rect class="cls-12" x="257.57" y="274.2" width="38.93" height="2.68"/>
      <rect class="cls-12" x="257.57" y="204.55" width="38.93" height="2.68"/>
      <circle class="cls-13" cx="277.04" cy="240.71" r="25.85"/>
      <path class="cls-3" d="M294.62,15.35l1.06,2.54c-8.98,3.73-14.84,12.49-14.86,22.21h-2.75c0-10.84,6.54-20.61,16.55-24.75Z"/>
      <rect class="cls-3" x="289.88" y="39.68" width="2.75" height="77.8"/>
      <path class="cls-6" d="M283.27,320.25c2.21,3.83,2.21,8.55,0,12.37v-12.37Z"/>
      <polygon class="cls-6" points="283.27 320.25 283.27 332.62 272.55 338.81 261.84 332.62 261.84 320.25 272.55 314.06 283.27 320.25"/>
      <path class="cls-6" d="M283.27,320.25l-10.72-6.19c4.42,0,8.51,2.36,10.72,6.19Z"/>
      <path class="cls-6" d="M272.55,338.81l10.72-6.19c-2.21,3.83-6.3,6.19-10.72,6.19Z"/>
      <path class="cls-5" d="M281.39,357.36v1.38c-5.78,1.58-11.89,1.58-17.67,0-17.84-4.88-28.35-23.3-23.47-41.14s23.3-28.34,41.14-23.46v1.38c-2.81-.8-5.77-1.23-8.84-1.23-17.75,0-32.14,14.39-32.14,32.15s14.39,32.15,32.14,32.15c3.07,0,6.03-.43,8.84-1.23Z"/>
      <rect class="cls-3" x="278.07" y="40.14" width="2.75" height="77.34"/>
      <path class="cls-3" d="M271.77,385.37c1.66,0,3.02,2.32,3.07,5.22-6.83,0-13.4,1.6-18.64,4.55-.66-1.69-1.82-3.24-3.08-4.08,5.25-3.69,11.81-5.69,18.65-5.69Z"/>
      <path class="cls-2" d="M262.15,123.37c.21-.19.44-.34.7-.44.21-.07.45-.13.71-.14.26-.02.54.01.79.07.42.09.82.27,1.2.5.27.16.52.34.77.55,1.43,1.19,2.76,2.5,3.97,3.91,12.05,14.02,10.45,35.16-3.58,47.2-14.03,12.05-35.18,10.44-47.23-3.58-12.04-14.03-10.44-35.16,3.59-47.21.24-.2.5-.39.76-.56.38-.23.78-.41,1.19-.51.26-.06.53-.1.79-.09s.51.06.71.14c.26.09.5.24.72.42.38-.26.77-.5,1.17-.74,10.36-6.19,22.8-5.87,32.56-.23.08.04.16.09.24.14h.01c.28.17.56.33.84.51l.09.06ZM255.6,156.68c2.21-3.83,2.21-8.55,0-12.38-2.21-3.82-6.29-6.18-10.71-6.18s-8.51,2.36-10.72,6.18c-2.21,3.83-2.21,8.55,0,12.38s6.3,6.18,10.72,6.18,8.5-2.35,10.71-6.18Z"/>
      <path class="cls-6" d="M272.55,314.06l-10.71,6.19c2.21-3.83,6.29-6.19,10.71-6.19Z"/>
      <path class="cls-6" d="M261.84,332.62l10.71,6.19c-4.42,0-8.5-2.36-10.71-6.19Z"/>
      <path class="cls-5" d="M249.46,385.44c.61-.04,1.23-.06,1.85-.07h20.46c-6.84,0-13.4,2-18.65,5.69-1,.7-1.99,1.42-2.97,2.16H36.03c-.98-.74-1.97-1.46-2.97-2.16-4.65-3.26-10.31-5.19-16.29-5.6v-.09h18.1c.62.01,1.23.03,1.85.07l-.04-.07h.26v.04c5.02.73,10.06,1.24,15.13,1.53,1.76.1,3.53.18,5.29.22h171.46c1.76-.04,3.53-.12,5.29-.22,5.07-.29,10.11-.8,15.13-1.53v-.04h.26l-.04.07Z"/>
      <path class="cls-3" d="M266.32,117.48v5.22c-2.33,0-4.39.04-5.1.1h-.01c-.08-.05-.16-.1-.24-.14h0c.1-2.89,2.46-5.18,5.35-5.18Z"/>
      <path class="cls-6" d="M261.84,320.25v12.37c-2.21-3.82-2.21-8.54,0-12.37Z"/>
      <path class="cls-11" d="M260.27,359.03h-85.08v-39.16h63.16c-3.19,16.65,6.06,33.18,21.92,39.16Z"/>
      <path class="cls-12" d="M257.57,274.2v2.68c-4.39,0-8.61-1.74-11.72-4.84l1.93-1.86c2.61,2.57,6.12,4.02,9.79,4.02Z"/>
      <path class="cls-12" d="M257.57,204.55v2.68c-3.68,0-7.22,1.45-9.83,4.05l-1.85-1.94c3.11-3.07,7.31-4.79,11.68-4.79Z"/>
      <path class="cls-3" d="M256.2,395.14l.25,30.42h-27.65l-.19-22.7c8.54,0,16.9-2.07,24.24-5.99,1.11-.6,2.22-1.17,3.35-1.73Z"/>
      <path class="cls-2" d="M256.43,425.56l-1.5,2.68h-26.11v-2.68h27.61Z"/>
      <path class="cls-2" d="M255.6,144.3c2.21,3.83,2.21,8.55,0,12.38v-12.38Z"/>
      <polygon class="cls-2" points="255.6 144.3 255.6 156.68 244.89 162.86 234.17 156.68 234.17 144.3 244.89 138.12 255.6 144.3"/>
      <path class="cls-2" d="M255.6,144.3l-10.71-6.18c4.42,0,8.5,2.36,10.71,6.18Z"/>
      <path class="cls-2" d="M244.89,162.86l10.71-6.18c-2.21,3.83-6.29,6.18-10.71,6.18Z"/>
      <path class="cls-3" d="M256.2,395.14c-1.13.56-2.24,1.13-3.35,1.73-.66-1.44-1.65-2.78-2.7-3.65.98-.74,1.97-1.46,2.97-2.16,1.26.84,2.42,2.39,3.08,4.08Z"/>
      <path class="cls-3" d="M250.15,393.22c1.05.87,2.04,2.21,2.7,3.65-7.34,3.92-15.7,5.99-24.24,5.99v-3.64c7.59,0,15.02-2.07,21.54-6Z"/>
      <path class="cls-5" d="M36.03,393.22h214.12c-6.52,3.93-13.95,6-21.54,6H57.57c-7.59,0-15.02-2.07-21.54-6Z"/>
      <path class="cls-3" d="M246.81,385.15c.8.13,1.62.2,2.43.22v.04c-5.02.73-10.06,1.24-15.13,1.53-1.76-.18-3.52-.28-5.29-.29v-4.28c1.62,0,3.25.1,4.86.29,1.6.19,3.18.47,4.7.77,2.09.42,4.07.9,5.93,1.28.86.17,1.69.33,2.5.44Z"/>
      <path class="cls-12" d="M247.74,270.14l-1.93,1.86s-.07-.07-.1-.11c-17.22-17.3-17.16-45.28.14-62.5l1.86,1.93c-16.24,16.2-16.27,42.49-.07,58.72.04.03.07.07.1.1Z"/>
      <path class="cls-5" d="M247.08,213.92c1.65-1.83,3.69-3.27,5.97-4.19-17.11,13.25-20.24,37.85-6.99,54.96,2.02,2.62,4.37,4.98,6.99,7-2.28-.92-4.32-2.35-5.97-4.19-13.64-15.25-13.64-38.32,0-53.58Z"/>
      <path class="cls-2" d="M244.89,138.12l-10.72,6.18c2.21-3.82,6.3-6.18,10.72-6.18Z"/>
      <path class="cls-2" d="M234.17,156.68l10.72,6.18c-4.42,0-8.51-2.35-10.72-6.18Z"/>
      <path class="cls-2" d="M234.17,144.3v12.38c-2.21-3.83-2.21-8.55,0-12.38Z"/>
      <rect class="cls-3" x="57.36" y="382.37" width="171.46" height="4.28"/>
      <rect class="cls-2" x="57.38" y="425.56" width="171.42" height="2.68"/>
      <polygon class="cls-11" points="228.61 402.86 228.8 425.56 57.38 425.56 57.57 402.86 228.61 402.86"/>
      <rect class="cls-3" x="57.57" y="399.22" width="171.04" height="3.64"/>
      <path class="cls-3" d="M228.41,122.76c0-.08-2.4-.11-5.36-.06v-5.22c2.93,0,5.31,2.35,5.36,5.28Z"/>
      <rect class="cls-3" x="173.05" y="117.48" width="50" height="5.22"/>
      <path class="cls-1" d="M175.19,319.87v39.16c-9.94,0-19.46,1.45-26.46,4.03-14.14-4.48-26.54-20.5-30.3-39.15,15.04-2.46,35.46-3.92,56.76-4.04Z"/>
      <path class="cls-1" d="M173.05,122.7l2.14,197.17c-21.3.12-41.72,1.58-56.76,4.04l-2.14-197.38c2.04-1.56,4.39-2.53,6.92-3.11,2.32-.53,4.78-.73,7.34-.73,12.75,0,27.48,0,42.5,0Z"/>
      <path class="cls-3" d="M173.05,117.48v5.22c-15.02,0-29.75,0-42.5,0-.04-2.9-1.3-5.21-2.84-5.21h45.34Z"/>
      <path class="cls-5" d="M148.73,363.06l-12,4.43c-27.8.56-46.9-12.99-46.67-33.12l28.37-10.46c3.76,18.65,16.16,34.67,30.3,39.15Z"/>
      <path class="cls-3" d="M136.73,367.49v4.89c-29.57,0-50.21-15.55-50.46-38.01,1.42-.01,2.79-.01,3.79,0-.23,20.13,18.87,33.68,46.67,33.12Z"/>
      <path class="cls-3" d="M127.71,117.48c1.54,0,2.8,2.31,2.84,5.21-2.56,0-5.02.2-7.34.73-2.53.58-4.88,1.55-6.92,3.11-.69-1.86-2.17-3.52-3.79-4.26,2.18-1.95,4.69-3.16,7.38-3.88,2.48-.66,5.11-.91,7.83-.91Z"/>
      <path class="cls-1" d="M16.77,117.48h110.94c-2.72,0-5.35.25-7.83.91-2.69.72-5.2,1.93-7.38,3.88-1.02.91-1.97,1.93-2.84,3.06H16.77v-7.85Z"/>
      <path class="cls-5" d="M116.29,126.53l2.14,197.38-28.37,10.46-1.85-170.54c-.06-5.49,1.99-10.72,5.73-14.6l19.51-20.25c.87-.91,1.82-1.72,2.84-2.45Z"/>
      <path class="cls-3" d="M112.5,122.27c1.62.74,3.1,2.4,3.79,4.26-1.02.73-1.97,1.54-2.84,2.45-.81-1.52-2.24-2.91-3.79-3.65.87-1.13,1.82-2.15,2.84-3.06Z"/>
      <path class="cls-3" d="M113.45,128.98l-19.51,20.25c-.8-1.52-2.24-2.9-3.79-3.65l19.51-20.25c1.55.74,2.98,2.13,3.79,3.65Z"/>
      <polygon class="cls-11" points="109.66 125.33 90.15 145.58 16.77 145.58 16.77 125.33 109.66 125.33"/>
      <path class="cls-3" d="M90.15,145.58c1.55.75,2.99,2.13,3.79,3.65-3.74,3.88-5.79,9.11-5.73,14.6-1-.02-2.36-.02-3.79,0-.05-6.86,2-13.39,5.73-18.25Z"/>
      <path class="cls-3" d="M16.77,145.58h73.38c-3.73,4.86-5.78,11.39-5.73,18.25H16.77v-18.25Z"/>
      <path class="cls-3" d="M88.21,163.83l1.85,170.54c-1-.01-2.37-.01-3.79,0l-1.85-170.54c1.43-.02,2.79-.02,3.79,0Z"/>
      <path class="cls-3" d="M57.57,399.22v3.64c-8.54,0-16.9-2.07-24.24-5.99.66-1.44,1.65-2.78,2.7-3.65,6.52,3.93,13.95,6,21.54,6Z"/>
      <path class="cls-3" d="M57.57,402.86l-.19,22.7h-27.65l.25-30.42c1.13.56,2.24,1.13,3.35,1.73,7.34,3.92,15.7,5.99,24.24,5.99Z"/>
      <path class="cls-2" d="M57.36,425.56v2.68h-26.11l-1.5-2.68h27.61Z"/>
      <path class="cls-3" d="M39.37,385.15c1.35-.19,2.77-.49,4.27-.82,1.34-.3,2.72-.61,4.16-.9,1.52-.3,3.1-.58,4.7-.77,1.61-.19,3.24-.29,4.86-.29v4.28c-1.77.01-3.53.11-5.29.29-5.07-.29-10.11-.8-15.13-1.53v-.04c.81-.02,1.63-.09,2.43-.22Z"/>
      <path class="cls-3" d="M33.06,391.06c1,.7,1.99,1.42,2.97,2.16-1.05.87-2.04,2.21-2.7,3.65-1.11-.6-2.22-1.17-3.35-1.73.66-1.69,1.82-3.24,3.08-4.08Z"/>
      <polygon class="cls-2" points="29.73 425.56 31.23 428.24 16.77 428.24 16.77 425.56 29.73 425.56"/>
      <path class="cls-3" d="M33.06,391.06c-1.26.84-2.42,2.39-3.08,4.08-3.83-2.16-8.37-3.58-13.21-4.2v-5.48c5.98.41,11.64,2.34,16.29,5.6Z"/>
      <path class="cls-5" d="M29.98,395.14l-.25,30.42h-12.96v-34.62c4.84.62,9.38,2.04,13.21,4.2Z"/>
    </g>
    <g>
      <line class="cls-9" x1="373.99" y1="428.24" x2="501.55" y2="428.24"/>
      <polyline class="cls-9" points="501.55 425.56 501.55 428.24 501.57 428.24"/>
      <line class="cls-9" x1="57.38" y1="428.24" x2="228.8" y2="428.24"/>
      <line class="cls-9" x1="228.82" y1="428.24" x2="254.93" y2="428.24"/>
      <polyline class="cls-9" points="373.97 428.24 373.99 428.24 373.99 425.56"/>
      <polyline class="cls-9" points="57.36 428.24 57.38 428.24 57.38 425.56"/>
      <polyline class="cls-9" points="228.8 425.56 228.8 428.24 228.82 428.24 228.82 425.56"/>
      <polyline class="cls-9" points="344.81 428.24 344.82 428.24 344.83 428.24"/>
      <path class="cls-9" d="M256.43,425.56l-1.5,2.68h.02"/>
      <polyline class="cls-9" points="346.32 425.56 344.83 428.24 373.97 428.24 373.97 425.56"/>
      <polyline class="cls-9" points="256.45 425.56 254.95 428.24 344.81 428.24 346.31 425.56"/>
      <line class="cls-9" x1="480.63" y1="205.35" x2="480.63" y2="199.99"/>
      <line class="cls-9" x1="480.63" y1="276.07" x2="480.63" y2="281.43"/>
      <polyline class="cls-9" points="31.25 428.24 57.36 428.24 57.36 425.56"/>
      <line class="cls-9" x1="636.76" y1="254.66" x2="631.68" y2="252.95"/>
      <line class="cls-9" x1="598.51" y1="276.07" x2="598.51" y2="281.43"/>
      <line class="cls-9" x1="711.34" y1="330.74" x2="711.34" y2="143.04"/>
      <line class="cls-9" x1="598.51" y1="199.99" x2="598.51" y2="205.35"/>
      <line class="cls-9" x1="632.03" y1="229.45" x2="637.06" y2="227.6"/>
      <path class="cls-9" d="M598.51,205.35h-117.88c-19.53,0-35.36,15.83-35.36,35.36s15.83,35.36,35.36,35.36h117.88c14.81,0,28.05-9.23,33.17-23.12,2.79-7.57,2.91-15.86.35-23.5-4.84-14.4-18.33-24.1-33.52-24.1Z"/>
      <line class="cls-9" x1="481.38" y1="273.4" x2="481.35" y2="273.4"/>
      <line class="cls-9" x1="481.35" y1="273.4" x2="480.63" y2="273.4"/>
      <line class="cls-9" x1="480.63" y1="273.12" x2="480.63" y2="273.4"/>
      <line class="cls-9" x1="480.63" y1="208.31" x2="480.63" y2="208.03"/>
      <line class="cls-9" x1="481.38" y1="208.03" x2="481.35" y2="208.03"/>
      <line class="cls-9" x1="481.35" y1="208.03" x2="480.63" y2="208.03"/>
      <path class="cls-9" d="M480.63,208.03c-18.05,0-32.68,14.63-32.68,32.68,0,9.02,3.66,17.2,9.57,23.11,5.91,5.92,14.09,9.58,23.11,9.58"/>
      <path class="cls-9" d="M474.77,270.14c-6.15-1.22-11.58-4.31-15.75-8.64"/>
      <path class="cls-9" d="M474.78,211.28c-6.25,1.25-11.65,4.37-15.76,8.64-7.73,12.79-7.73,28.8,0,41.58"/>
      <path class="cls-9" d="M459.05,219.87s-.02.04-.03.05"/>
      <path class="cls-9" d="M459.02,261.5c-3.89-4.05-6.67-9.18-7.81-14.94-1.99-9.99,1.25-19.8,7.81-26.64"/>
      <path class="cls-9" d="M459.02,261.5l.03.06"/>
      <path class="cls-9" d="M598.51,208.03c18.05,0,32.68,14.63,32.68,32.68s-14.63,32.69-32.68,32.69"/>
      <line class="cls-9" x1="505.46" y1="208.03" x2="598.51" y2="208.03"/>
      <line class="cls-9" x1="598.51" y1="210.71" x2="598.51" y2="208.03"/>
      <line class="cls-9" x1="511.1" y1="210.71" x2="598.51" y2="210.71"/>
      <path class="cls-9" d="M598.51,270.72c16.57,0,30-13.44,30-30.01s-13.43-30-30-30"/>
      <line class="cls-9" x1="511.1" y1="270.72" x2="598.51" y2="270.72"/>
      <line class="cls-9" x1="598.51" y1="273.4" x2="598.51" y2="270.72"/>
      <line class="cls-9" x1="505.46" y1="273.4" x2="598.51" y2="273.4"/>
      <line class="cls-9" x1="16.77" y1="163.83" x2="16.77" y2="374.94"/>
      <line class="cls-9" x1="711.34" y1="374.94" x2="711.34" y2="361.3"/>
      <path class="cls-9" d="M502,374.91s.05.02.08.03"/>
      <polyline class="cls-9" points="373.97 425.56 373.99 425.56 501.55 425.56 501.57 425.56"/>
      <path class="cls-9" d="M373.54,374.91s-.05.02-.08.03"/>
      <line class="cls-9" x1="16.77" y1="385.37" x2="16.77" y2="385.46"/>
      <path class="cls-9" d="M36.93,385.45c-.07-.01-.14-.01-.21-.01"/>
      <path class="cls-9" d="M36.72,385.44c-.62-.04-1.23-.06-1.85-.07"/>
      <line class="cls-9" x1="36.72" y1="385.44" x2="36.68" y2="385.37"/>
      <line class="cls-9" x1="39.67" y1="385.7" x2="39.37" y2="385.15"/>
      <path class="cls-9" d="M36.94,385.41c5.02.73,10.06,1.24,15.13,1.53"/>
      <path class="cls-9" d="M51.68,386.97l.39-.03"/>
      <path class="cls-9" d="M57.36,387.16c-1.76-.04-3.53-.12-5.29-.22"/>
      <path class="cls-9" d="M52.07,386.94c1.76-.18,3.52-.28,5.29-.29"/>
      <line class="cls-9" x1="246.51" y1="385.7" x2="246.81" y2="385.15"/>
      <line class="cls-9" x1="249.46" y1="385.44" x2="249.5" y2="385.37"/>
      <path class="cls-9" d="M249.25,385.45c.07-.01.14-.01.21-.01"/>
      <path class="cls-9" d="M249.46,385.44c.61-.04,1.23-.06,1.85-.07"/>
      <path class="cls-9" d="M250.15,393.22c.98-.74,1.97-1.46,2.97-2.16"/>
      <path class="cls-9" d="M228.82,387.16c1.76-.04,3.53-.12,5.29-.22-1.76-.18-3.52-.28-5.29-.29"/>
      <path class="cls-9" d="M234.5,386.97l-.39-.03"/>
      <path class="cls-9" d="M249.24,385.41c-5.02.73-10.06,1.24-15.13,1.53"/>
      <polyline class="cls-9" points="57.36 386.65 57.36 387.16 228.82 387.16 228.82 386.65"/>
      <polyline class="cls-9" points="57.36 382.37 57.36 386.65 228.82 386.65 228.82 382.37"/>
      <path class="cls-9" d="M33.33,396.87c.66-1.44,1.65-2.78,2.7-3.65-.98-.74-1.97-1.46-2.97-2.16"/>
      <path class="cls-9" d="M29.98,395.14c.66-1.69,1.82-3.24,3.08-4.08-4.65-3.26-10.31-5.19-16.29-5.6v5.48"/>
      <path class="cls-9" d="M31.23,428.24h.02l-1.5-2.68"/>
      <path class="cls-9" d="M271.77,385.37c-6.84,0-13.4,2-18.65,5.69,1.26.84,2.42,2.39,3.08,4.08"/>
      <path class="cls-9" d="M250.15,393.22H36.03c6.52,3.93,13.95,6,21.54,6"/>
      <path class="cls-9" d="M252.85,396.87c-.66-1.44-1.65-2.78-2.7-3.65-6.52,3.93-13.95,6-21.54,6"/>
      <path class="cls-9" d="M271.77,385.37c1.66,0,3.02,2.32,3.07,5.22"/>
      <path class="cls-9" d="M334.43,385.37c1.67,0,3.03,2.32,3.08,5.22"/>
      <path class="cls-9" d="M342.95,384.61h.01"/>
      <line class="cls-9" x1="692.82" y1="323.91" x2="694.96" y2="126.53"/>
      <path class="cls-9" d="M637.06,227.6c2.99,8.79,2.88,18.34-.3,27.06"/>
      <path class="cls-9" d="M260.97,122.65c.1-2.88,2.46-5.17,5.35-5.17"/>
      <path class="cls-9" d="M227.24,123.63c-9.34,6.12-14.5,16.37-14.5,26.89,0,5.61,1.47,11.28,4.55,16.45,1.36,2.28,3,4.38,4.87,6.25s3.97,3.51,6.25,4.87"/>
      <path class="cls-9" d="M227.24,123.63c.38-.26.77-.5,1.17-.74"/>
      <path class="cls-9" d="M228.41,122.89c10.36-6.19,22.8-5.87,32.56-.23"/>
      <path class="cls-9" d="M260.97,122.66c.08.04.16.09.24.14h.01"/>
      <path class="cls-9" d="M261.37,178.09c10.08-6.02,15.67-16.68,15.67-27.63,0-5.61-1.47-11.28-4.55-16.45-1.43-2.4-3.12-4.54-5.02-6.41-1.64-1.61-3.42-3.03-5.32-4.23"/>
      <path class="cls-9" d="M262.15,123.37l-.09-.06c-.28-.18-.56-.34-.84-.51"/>
      <path class="cls-9" d="M261.22,122.8c.71-.06,2.77-.1,5.1-.1"/>
      <line class="cls-9" x1="262.14" y1="123.37" x2="262.15" y2="123.37"/>
      <path class="cls-9" d="M262.15,123.37c.21-.19.44-.34.7-.44.21-.07.45-.13.71-.14.26-.02.54.01.79.07.42.09.82.27,1.2.5.27.16.52.34.77.55"/>
      <path class="cls-9" d="M227.24,123.63c-.22-.18-.46-.33-.72-.42-.2-.08-.45-.13-.71-.14s-.53.03-.79.09c-.41.1-.81.28-1.19.51-.26.17-.52.36-.76.56"/>
      <path class="cls-9" d="M228.41,122.89v-.13c0-.08-2.4-.11-5.36-.06"/>
      <path class="cls-9" d="M223.05,117.48c2.93,0,5.31,2.35,5.36,5.28"/>
      <path class="cls-9" d="M234.17,156.68c-2.21-3.83-2.21-8.55,0-12.38"/>
      <polyline class="cls-9" points="127.71 117.48 16.77 117.48 16.77 125.33"/>
      <polyline class="cls-9" points="109.66 125.33 16.77 125.33 16.77 145.58"/>
      <polyline class="cls-9" points="228.61 402.86 228.61 399.22 57.57 399.22 57.57 402.86"/>
      <path class="cls-9" d="M29.73,425.56h27.65"/>
      <path class="cls-9" d="M57.57,402.86c-8.54,0-16.9-2.07-24.24-5.99-1.11-.6-2.22-1.17-3.35-1.73"/>
      <path class="cls-9" d="M29.73,425.56l.25-30.42c-3.83-2.16-8.37-3.58-13.21-4.2v34.62"/>
      <polyline class="cls-9" points="90.15 145.58 16.77 145.58 16.77 163.83 84.42 163.83"/>
      <path class="cls-9" d="M346.03,389.43c-2.69.77-5.59,1.16-8.52,1.16h-62.67c-6.83,0-13.4,1.6-18.64,4.55"/>
      <path class="cls-9" d="M256.45,425.56h89.87"/>
      <path class="cls-9" d="M228.8,425.56h27.65l-.25-30.42c-1.13.56-2.24,1.13-3.35,1.73-7.34,3.92-15.7,5.99-24.24,5.99"/>
      <polygon class="cls-9" points="57.57 402.86 57.38 425.56 228.8 425.56 228.61 402.86 57.57 402.86"/>
      <path class="cls-9" d="M373.46,374.94H16.77v10.43h20.17c.81-.02,1.63-.09,2.43-.22,1.35-.19,2.77-.49,4.27-.82,1.34-.3,2.72-.61,4.16-.9,1.52-.3,3.1-.58,4.7-.77,1.61-.19,3.24-.29,4.86-.29h171.46c1.62,0,3.25.1,4.86.29,1.6.19,3.18.47,4.7.77,2.09.42,4.07.9,5.93,1.28.86.17,1.69.33,2.5.44.8.13,1.62.2,2.43.22h85.19c2.94,0,5.83-.26,8.52-.77h.01"/>
      <path class="cls-9" d="M373.55,374.94h-.09c-9.89,4.02-20.09,7.25-30.5,9.66,1.38.68,2.61,2.62,3.07,4.83"/>
      <path class="cls-9" d="M373.55,374.94c-1.66,1.01-3.33,2.03-5,3.03-4.77,2.88-9.5,5.64-14.11,7.93-2.88,1.43-5.72,2.67-8.41,3.53l.29,36.13h27.65l-.42-50.62Z"/>
      <path class="cls-9" d="M557.46,320.6c-.01.07-2.38-.25-5.29-.73"/>
      <path class="cls-9" d="M628.84,320.6s0,.01.01,0"/>
      <path class="cls-9" d="M628.85,320.6c.19.04,2.49-.27,5.28-.73"/>
      <line class="cls-9" x1="296.5" y1="207.23" x2="296.5" y2="204.55"/>
      <line class="cls-9" x1="257.57" y1="207.23" x2="257.57" y2="204.55"/>
      <line class="cls-9" x1="308.18" y1="209.34" x2="306.33" y2="211.28"/>
      <line class="cls-9" x1="308.22" y1="209.39" x2="306.36" y2="211.32"/>
      <line class="cls-9" x1="306.33" y1="270.14" x2="308.26" y2="272"/>
      <path class="cls-9" d="M112.5,122.27c-1.02.91-1.97,1.93-2.84,3.06"/>
      <line class="cls-9" x1="308.22" y1="272.04" x2="306.29" y2="270.18"/>
      <path class="cls-9" d="M113.45,128.98c-.81-1.52-2.24-2.91-3.79-3.65l-19.51,20.25"/>
      <path class="cls-9" d="M93.94,149.23c-.8-1.52-2.24-2.9-3.79-3.65-3.73,4.86-5.78,11.39-5.73,18.25"/>
      <path class="cls-9" d="M266.32,122.7v1.21c1.43,1.19,2.76,2.5,3.97,3.91,12.05,14.02,10.45,35.16-3.58,47.2-14.03,12.05-35.18,10.44-47.23-3.58-12.04-14.03-10.44-35.16,3.59-47.21l-.02-1.53"/>
      <path class="cls-9" d="M636.06,319.87l.7-65.21c-5.86,16.07-21.14,26.77-38.25,26.77h-117.88c-11.24,0-21.42-4.56-28.79-11.93-7.37-7.37-11.93-17.55-11.93-28.79.01-22.49,18.24-40.72,40.72-40.72h117.88c17.43,0,32.93,11.1,38.55,27.61l1.13-104.9"/>
      <path class="cls-9" d="M552.17,319.87c2.88-17.6,16.67-31.39,34.27-34.27,22.63-3.7,43.98,11.64,47.69,34.27"/>
      <path class="cls-9" d="M245.81,272s-.07-.07-.1-.11c-17.22-17.3-17.16-45.28.14-62.5"/>
      <path class="cls-9" d="M245.89,209.34c3.11-3.07,7.31-4.79,11.68-4.79h38.93c4.37,0,8.57,1.72,11.68,4.79,0,.01.01.02.02.02.01,0,.01.02.02.03.04.03.07.07.11.1,17.24,17.28,17.21,45.27-.07,62.51-.01.01-.02.01-.02.02l-.02.02c-3.11,3.1-7.33,4.84-11.72,4.84"/>
      <path class="cls-9" d="M88.21,163.83c-1-.02-2.36-.02-3.79,0l1.85,170.54"/>
      <polyline class="cls-9" points="173.05 122.7 223.05 122.7 223.05 117.48 173.05 117.48"/>
      <path class="cls-9" d="M127.71,117.48c-2.72,0-5.35.25-7.83.91-2.69.72-5.2,1.93-7.38,3.88,1.62.74,3.1,2.4,3.79,4.26"/>
      <path class="cls-9" d="M173.05,122.7v-5.22h-45.34c1.54,0,2.8,2.31,2.84,5.21"/>
      <path class="cls-9" d="M90.06,334.37c-1-.01-2.37-.01-3.79,0,.25,22.46,20.89,38.01,50.46,38.01"/>
      <line class="cls-9" x1="295.68" y1="17.89" x2="294.62" y2="15.35"/>
      <line class="cls-9" x1="280.82" y1="40.1" x2="278.07" y2="40.09"/>
      <path class="cls-9" d="M278.07,40.09c0-10.83,6.54-20.6,16.55-24.74"/>
      <path class="cls-9" d="M277.58,39.76c0-1.78.19-3.57.55-5.32"/>
      <line class="cls-9" x1="278.13" y1="34.27" x2="277.58" y2="34.27"/>
      <line class="cls-9" x1="292.63" y1="39.63" x2="289.88" y2="39.63"/>
      <line class="cls-9" x1="280.82" y1="40.14" x2="278.07" y2="40.14"/>
      <path class="cls-9" d="M278.07,117.48V40.09c-.07-.05-.14-.09-.22-.14-.08-.06-.17-.12-.25-.18h-.02v-5.5"/>
      <line class="cls-9" x1="277.04" y1="34.6" x2="277.04" y2="117.48"/>
      <line class="cls-9" x1="292.63" y1="39.68" x2="289.88" y2="39.68"/>
      <polyline class="cls-9" points="257.57 276.88 296.5 276.88 296.5 274.2"/>
      <path class="cls-9" d="M247.74,270.14l-1.93,1.86s.02.01.02.02c.01.01.02.01.02.02"/>
      <path class="cls-9" d="M247.78,270.18l-1.93,1.86c3.11,3.1,7.33,4.84,11.72,4.84v-2.68"/>
      <path class="cls-9" d="M247.71,211.32c-16.24,16.2-16.27,42.49-.07,58.72.04.03.07.07.1.1l.02.02s.01.01.02.02c2.61,2.57,6.12,4.02,9.79,4.02h38.93c3.67,0,7.19-1.45,9.79-4.02l.02-.02.02-.02c16.25-16.18,16.31-42.47.13-58.72-.03-.03-.06-.07-.1-.1,0-.01,0-.01,0-.02l-.02-.02c-2.61-2.6-6.14-4.05-9.83-4.05h-38.93c-3.68,0-7.22,1.45-9.83,4.05"/>
      <polyline class="cls-9" points="280.82 117.48 278.07 117.48 277.04 117.48 266.32 117.48 266.32 122.7 638.19 122.7"/>
      <line class="cls-9" x1="292.63" y1="117.48" x2="289.88" y2="117.48"/>
      <path class="cls-9" d="M301.02,271.69c2.28-.92,4.32-2.35,5.97-4.19,13.64-15.25,13.64-38.32,0-53.58-1.65-1.83-3.69-3.27-5.97-4.19"/>
      <path class="cls-9" d="M253.05,271.69c1.91.77,3.95,1.17,6.02,1.17h35.94c2.06,0,4.1-.4,6.01-1.17,17.11-13.24,20.24-37.85,7-54.96-2.03-2.62-4.38-4.97-7-7-1.91-.77-3.95-1.16-6.01-1.16h-35.94c-2.07,0-4.11.39-6.02,1.16"/>
      <path class="cls-9" d="M253.05,271.69c-2.62-2.02-4.97-4.38-6.99-7-13.25-17.11-10.12-41.71,6.99-54.96-2.28.92-4.32,2.36-5.97,4.19-13.64,15.26-13.64,38.33,0,53.58,1.65,1.84,3.69,3.27,5.97,4.19Z"/>
      <path class="cls-9" d="M247.71,211.32s.01-.01.01-.02c.01-.01.02-.01.02-.02l-1.85-1.94s-.01.02-.02.02c0,0-.01.02-.02.03l1.86,1.93Z"/>
      <polyline class="cls-9" points="501.57 425.56 501.57 428.24 530.71 428.24"/>
      <line class="cls-9" x1="530.73" y1="428.24" x2="620.59" y2="428.24"/>
      <path class="cls-9" d="M529.22,425.56l1.49,2.68h.02l-1.49-2.68"/>
      <polyline class="cls-9" points="619.1 425.56 620.59 428.24 620.6 428.24 620.61 428.24"/>
      <line class="cls-9" x1="502.08" y1="374.94" x2="501.99" y2="374.94"/>
      <path class="cls-9" d="M711.34,382.37v-7.43h-209.26c9.9,4.02,20.1,7.25,30.5,9.66"/>
      <path class="cls-9" d="M529.52,389.43c-2.7-.86-5.53-2.1-8.42-3.53-4.62-2.3-9.35-5.06-14.11-7.93-1.67-1-3.34-2.02-5-3.03l-.42,50.62h27.65"/>
      <polyline class="cls-9" points="619.11 425.56 620.61 428.24 646.72 428.24"/>
      <line class="cls-9" x1="322.27" y1="13.92" x2="318.49" y2="13.92"/>
      <polygon class="cls-9" points="29.73 425.56 16.77 425.56 16.77 428.24 31.23 428.24 29.73 425.56"/>
      <polyline class="cls-9" points="646.74 428.24 711.34 428.24 711.34 425.56"/>
      <polyline class="cls-9" points="646.72 425.56 646.72 428.24 646.74 428.24 646.74 425.56"/>
      <line class="cls-9" x1="711.34" y1="125.33" x2="711.34" y2="117.48"/>
      <path class="cls-9" d="M619.1,425.56h27.64"/>
      <path class="cls-9" d="M622.69,396.87c-1.11-.6-2.22-1.17-3.34-1.73"/>
      <line class="cls-9" x1="683.53" y1="117.48" x2="711.34" y2="117.48"/>
      <polyline class="cls-9" points="298.33 117.48 432.78 117.48 438.27 117.48 438.57 117.48 441.38 117.48 450.69 117.48 453.45 117.48 638.19 117.48"/>
      <path class="cls-9" d="M432.78,117.46c-9.45-38.48-29.35-73.31-57.14-100.89-.89-.89-1.8-1.78-2.71-2.65h-43.2"/>
      <path class="cls-9" d="M438.27,117.46c-9.4-39.4-29.47-75.15-57.65-103.54h-7.69"/>
      <path class="cls-9" d="M438.57,117.47c-9.35-39.37-29.34-75.12-57.43-103.55h-.52"/>
      <path class="cls-9" d="M441.38,117.46c-9.18-39.22-28.82-74.92-56.44-103.54h-3.8"/>
      <path class="cls-9" d="M450.69,117.45c-8.7-38.79-27.22-74.35-53.39-103.53h-12.36"/>
      <path class="cls-9" d="M453.45,117.46c-8.56-38.67-26.75-74.22-52.5-103.54h-3.65"/>
      <polyline class="cls-9" points="646.93 402.86 646.74 425.56 711.34 425.56 711.34 402.86"/>
      <line class="cls-9" x1="711.34" y1="399.22" x2="711.34" y2="393.22"/>
      <line class="cls-9" x1="711.34" y1="387.16" x2="711.34" y2="386.65"/>
      <path class="cls-9" d="M619.35,395.14c.65-1.69,1.82-3.24,3.07-4.08"/>
      <path class="cls-9" d="M532.59,384.61s-.01-.01-.01-.01c-1.38.68-2.61,2.62-3.06,4.83"/>
      <path class="cls-9" d="M541.11,385.37c-2.94,0-5.83-.26-8.52-.77h-.01"/>
      <path class="cls-9" d="M278.13,34.26h0v.18c1.79-8.77,7.83-16.07,16.12-19.46"/>
      <line class="cls-9" x1="296.51" y1="13.92" x2="270.99" y2="13.92"/>
      <path class="cls-9" d="M538.04,390.59c-2.94,0-5.83-.39-8.52-1.16l-.3,36.13h89.88l.25-30.42c-5.25-2.95-11.81-4.55-18.64-4.55"/>
      <path class="cls-9" d="M674.51,372.38c15.14,0,27.91-4.09,36.83-11.08v-4.98"/>
      <path class="cls-9" d="M277.58,34.26c0-7.44-2.61-14.62-7.3-20.34h-.81c4.86,5.77,7.57,13.08,7.57,20.68l.54-.33h0s.55-.01.55-.01c0-7.42-2.54-14.57-7.14-20.34h-.71"/>
      <path class="cls-9" d="M538.04,390.59h62.67c.04-2.9,1.4-5.22,3.07-5.22h-62.67c-1.67,0-3.03,2.32-3.07,5.22Z"/>
      <polyline class="cls-9" points="136.73 367.49 136.73 372.38 373.54 372.38 502 372.38 674.51 372.38 674.51 367.49"/>
      <path class="cls-9" d="M297.63,13.92h-1.12c-.75.36-1.48.75-2.26,1.06l.2.2c.06.05.11.11.17.17h.01s.01-.01.02-.01"/>
      <path class="cls-9" d="M646.93,399.22c-7.59,0-15.02-2.07-21.54-6-1.05.87-2.04,2.21-2.7,3.65,7.34,3.92,15.71,5.99,24.24,5.99"/>
      <path class="cls-9" d="M303.19,13.92h-5.56c-.98.49-1.96.99-2.98,1.42l1.05,2.53"/>
      <rect class="cls-9" x="646.93" y="399.22" width="64.41" height="3.64"/>
      <path class="cls-9" d="M298.42,27.15c7.62-3,14.43-7.54,20.07-13.23h-15.3c-2.37,1.51-4.85,2.86-7.49,3.95l-.02.02c-8.98,3.73-14.84,12.49-14.86,22.21v77.38h9.06V39.63c0-5.5,3.37-10.45,8.5-12.46"/>
      <polyline class="cls-9" points="646.73 386.65 711.34 386.65 711.34 382.37 646.73 382.37"/>
      <path class="cls-9" d="M624.23,385.37h-20.45c6.83,0,13.39,2,18.64,5.69,1,.7,1.99,1.42,2.97,2.16h85.95v-6.06h-64.61v-.51"/>
      <path class="cls-9" d="M626.29,385.45c-.07-.01-.14-.01-.21-.01"/>
      <path class="cls-9" d="M626.08,385.44c-.61-.04-1.23-.06-1.85-.07"/>
      <polyline class="cls-9" points="626.08 385.44 626.04 385.37 624.23 385.37"/>
      <path class="cls-9" d="M629.03,385.7l-.29-.55c-.8.13-1.63.2-2.44.22h-.26"/>
      <path class="cls-9" d="M646.73,386.65v-4.28c-1.63,0-3.26.1-4.87.29-1.6.19-3.18.47-4.7.77-1.43.29-2.82.6-4.15.9-1.5.33-2.93.63-4.27.82"/>
      <path class="cls-9" d="M626.3,385.41c5.02.73,10.07,1.24,15.13,1.53"/>
      <path class="cls-9" d="M641.05,386.97c.12,0,.25-.02.38-.03"/>
      <path class="cls-9" d="M646.73,387.16c-1.77-.04-3.54-.12-5.3-.22"/>
      <path class="cls-9" d="M641.43,386.94c1.76-.18,3.53-.28,5.3-.29"/>
      <polyline class="cls-9" points="697.8 128.98 711.34 143.04 711.34 135.46"/>
      <polyline class="cls-9" points="299.42 29.71 298.42 27.15 298.38 27.17 299.38 29.73"/>
      <line class="cls-9" x1="602.77" y1="320.43" x2="602.74" y2="320.43"/>
      <line class="cls-9" x1="583.53" y1="320.43" x2="583.56" y2="320.43"/>
      <path class="cls-9" d="M90.06,334.37c-.23,20.13,18.87,33.68,46.67,33.12"/>
      <path class="cls-9" d="M629.18,323.29c-.08-.91-.19-1.8-.33-2.69-2.85-17.47-18.01-30.33-35.66-30.33-1.05,0-2.12.05-3.19.14-16.58,1.45-29.9,13.98-32.54,30.19-.15.88-.26,1.78-.34,2.69"/>
      <path class="cls-9" d="M559.79,323.52c1.42-16.19,14.25-29.02,30.44-30.44,18.42-1.61,34.67,12.02,36.28,30.44"/>
      <path class="cls-9" d="M557.12,323.29c-.03.31-2.41.36-5.34.11"/>
      <polyline class="cls-9" points="556.54 360.67 559.79 323.52 557.12 323.29 554.39 354.46"/>
      <path class="cls-9" d="M116.29,126.53c-1.02.73-1.97,1.54-2.84,2.45l-19.51,20.25c-3.74,3.88-5.79,9.11-5.73,14.6l1.85,170.54,28.37-10.46"/>
      <path class="cls-9" d="M175.19,319.87l-2.14-197.17c-15.02,0-29.75,0-42.5,0-2.56,0-5.02.2-7.34.73-2.53.58-4.88,1.55-6.92,3.11l2.14,197.38"/>
      <path class="cls-9" d="M175.19,319.87c-21.3.12-41.72,1.58-56.76,4.04,3.76,18.65,16.16,34.67,30.3,39.15"/>
      <line class="cls-9" x1="281.39" y1="295.53" x2="281.39" y2="295.52"/>
      <line class="cls-9" x1="281.39" y1="295.52" x2="281.39" y2="294.14"/>
      <path class="cls-9" d="M300.39,310.36h.2"/>
      <line class="cls-9" x1="300.39" y1="342.51" x2="300.4" y2="342.51"/>
      <path class="cls-9" d="M300.4,342.51h.19"/>
      <line class="cls-9" x1="281.39" y1="357.36" x2="281.39" y2="357.35"/>
      <line class="cls-9" x1="281.39" y1="357.36" x2="281.39" y2="358.74"/>
      <path class="cls-9" d="M345.17,319.87c-3.15-16.4-17.5-28.26-34.2-28.26h-38.42c-16.7,0-31.05,11.86-34.2,28.26"/>
      <path class="cls-9" d="M300.59,358.28c-6.22,2.02-12.89,2.18-19.2.46-5.78,1.58-11.89,1.58-17.67,0-17.84-4.88-28.35-23.3-23.47-41.14s23.3-28.34,41.14-23.46c6.31-1.73,12.98-1.57,19.2.46"/>
      <polyline class="cls-9" points="629.18 323.29 626.51 323.52 629.76 360.67"/>
      <line class="cls-9" x1="629.76" y1="360.67" x2="556.54" y2="360.67"/>
      <line class="cls-9" x1="631.9" y1="354.47" x2="632.23" y2="358.22"/>
      <path class="cls-9" d="M637.57,362.78c-2.79.03-5.11-1.95-5.34-4.56.14,1.61-.96,2.71-2.47,2.45v5.04"/>
      <path class="cls-9" d="M554.07,358.22l.32-3.76c-.22,2.61-2.55,4.6-5.33,4.57"/>
      <path class="cls-9" d="M556.54,365.71v-5.04c-1.51.26-2.62-.84-2.47-2.45-.23,2.61-2.55,4.59-5.34,4.56"/>
      <path class="cls-9" d="M692.82,323.91c-15.04-2.46-35.46-3.92-56.76-4.04"/>
      <path class="cls-9" d="M549.06,359.03l2.72-35.63c.09-1.18.22-2.36.39-3.53h-207c3.19,16.65-6.06,33.18-21.92,39.16"/>
      <path class="cls-9" d="M630.72,340.91l1.18,13.56c.23,2.61,2.55,4.59,5.34,4.56-.36-5.16-.75-10.33-1.18-15.49"/>
      <path class="cls-9" d="M636.06,343.54v-23.67h-1.93c.16,1.17.29,2.35.38,3.53"/>
      <path class="cls-9" d="M300.59,310.36h10.38c8.87,0,16.07,7.2,16.07,16.08s-7.2,16.07-16.07,16.07h-10.38v15.77c17.59,5.73,36.49-3.89,42.22-21.47,5.72-17.59-3.89-36.48-21.47-42.21-6.74-2.2-14.01-2.2-20.75,0v15.76Z"/>
      <path class="cls-9" d="M260.27,359.03c-15.86-5.98-25.11-22.51-21.92-39.16h-63.16v39.16"/>
      <path class="cls-9" d="M683.53,117.48h-45.34v5.22c15.03,0,29.76,0,42.51,0"/>
      <path class="cls-9" d="M698.75,122.27c-1.64-1.46-3.46-2.51-5.4-3.24-3.03-1.15-6.35-1.55-9.82-1.55-1.53,0-2.79,2.31-2.83,5.21,3.25,0,6.36.32,9.2,1.24,1.82.59,3.53,1.43,5.06,2.6"/>
      <path class="cls-9" d="M662.52,363.06c-6.71-2.48-15.75-3.92-25.28-4.03l.33,3.75c.14,1.62-3.36,2.93-7.81,2.93h-73.22c-4.46,0-7.95-1.31-7.81-2.93l.33-3.75h-225.81c-3.93,1.48-8.09,2.23-12.28,2.23h-38.42c-4.19,0-8.35-.75-12.28-2.23h-85.08c-9.94,0-19.46,1.45-26.46,4.03l-12,4.43h537.78"/>
      <path class="cls-9" d="M636.06,343.54l-1.55-20.14c-2.92.25-5.3.2-5.33-.11l1.54,17.62c.14,1.64,2.49,2.8,5.34,2.63Z"/>
      <polyline class="cls-9" points="292.63 39.68 292.63 117.48 292.97 117.48"/>
      <path class="cls-9" d="M299.42,29.71s-.01.01-.02.01c0,0-.01,0-.02.01-4.06,1.61-6.73,5.53-6.75,9.9v.05c.07.04.13.09.2.13.05.04.1.07.14.1"/>
      <path class="cls-9" d="M322.74,13.92h-.47c-6.24,6.87-14.02,12.32-22.85,15.79.06.05.12.1.18.14.04.04.09.07.13.11"/>
      <path class="cls-9" d="M301.71,34.93c11.16-4.43,20.79-11.74,28.02-21.01h-6.99c-6.27,6.97-14.11,12.5-23.01,16.04"/>
      <polyline class="cls-9" points="292.97 39.91 292.97 117.48 298.33 117.48 298.33 39.91"/>
      <path class="cls-9" d="M292.97,39.91h5.36c0-2.19,1.34-4.17,3.38-4.98l-1.98-4.97c-4.08,1.62-6.76,5.56-6.76,9.95Z"/>
      <path class="cls-9" d="M694.96,126.53c1.02.73,1.97,1.54,2.84,2.45.8-1.52,2.24-2.91,3.79-3.65-.87-1.13-1.82-2.15-2.84-3.06-1.62.74-3.1,2.4-3.79,4.26Z"/>
      <path class="cls-9" d="M234.17,156.68c2.21,3.83,6.3,6.18,10.72,6.18"/>
      <path class="cls-9" d="M244.89,162.86c4.42,0,8.5-2.35,10.71-6.18"/>
      <polyline class="cls-9" points="234.17 144.3 234.17 156.68 244.89 162.86 255.6 156.68"/>
      <path class="cls-9" d="M255.6,144.3v12.38c2.21-3.83,2.21-8.55,0-12.38Z"/>
      <path class="cls-9" d="M692.82,323.91c-3.76,18.65-16.16,34.67-30.3,39.15l11.99,4.43c15.69.31,28.59-3.86,36.83-11.17v-25.58l-18.52-6.83Z"/>
      <path class="cls-9" d="M234.17,144.3l10.72-6.18c-4.42,0-8.51,2.36-10.72,6.18Z"/>
      <polygon class="cls-9" points="711.34 125.33 701.59 125.33 711.34 135.46 711.34 125.33"/>
      <path class="cls-9" d="M244.89,138.12l10.71,6.18c-2.21-3.82-6.29-6.18-10.71-6.18Z"/>
      <path class="cls-9" d="M511.1,270.72c10.25-6.06,17.13-17.23,17.13-30.01s-6.88-23.94-17.13-30c-1.78-1.05-3.67-1.95-5.64-2.68-3.75-1.38-7.81-2.14-12.05-2.14s-8.3.76-12.06,2.14c-.24.09-.48.19-.72.28-2.05.81-4.01,1.81-5.85,2.97-9.74,6.18-16.2,17.05-16.2,29.43s6.46,23.26,16.19,29.43c1.84,1.17,3.8,2.17,5.86,2.98.24.09.48.19.72.28,3.76,1.38,7.82,2.14,12.06,2.14s8.3-.76,12.05-2.14c1.97-.73,3.86-1.63,5.64-2.68Z"/>
      <path class="cls-9" d="M493.41,274.92c18.89,0,34.2-15.32,34.2-34.21s-15.31-34.2-34.2-34.2-34.21,15.31-34.21,34.2,15.32,34.21,34.21,34.21Z"/>
      <path class="cls-9" d="M493.41,272.67c17.65,0,31.95-14.31,31.95-31.96s-14.3-31.95-31.95-31.95-31.96,14.3-31.96,31.95,14.31,31.96,31.96,31.96Z"/>
      <circle class="cls-9" cx="493.41" cy="240.71" r="31.42"/>
      <path class="cls-9" d="M493.41,271.71c17.12,0,30.99-13.88,30.99-31s-13.87-30.99-30.99-30.99-31,13.87-31,30.99,13.88,31,31,31Z"/>
      <path class="cls-9" d="M493.41,271.28c16.88,0,30.56-13.69,30.56-30.57s-13.68-30.56-30.56-30.56-30.57,13.68-30.57,30.56,13.69,30.57,30.57,30.57Z"/>
      <path class="cls-9" d="M583.56,320.43c-1.09,1.75-1.75,3.8-1.75,6.01,0,6.26,5.07,11.34,11.34,11.34s11.34-5.08,11.34-11.34c0-2.21-.66-4.26-1.75-6.01"/>
      <path class="cls-9" d="M602.74,320.43c-2.01-3.19-5.54-5.33-9.59-5.33s-7.58,2.14-9.59,5.33h19.18Z"/>
      <path class="cls-9" d="M281.39,295.52c-2.81-.8-5.77-1.23-8.84-1.23-17.75,0-32.14,14.39-32.14,32.15s14.39,32.15,32.14,32.15c3.07,0,6.03-.43,8.84-1.23,8.1-2.31,14.89-7.72,19.01-14.85,2.73-4.73,4.3-10.22,4.3-16.07s-1.57-11.36-4.31-16.08c-4.12-7.13-10.91-12.53-19-14.84Z"/>
      <path class="cls-9" d="M272.55,314.06c4.42,0,8.51,2.36,10.72,6.19s2.21,8.55,0,12.37c-2.21,3.83-6.3,6.19-10.72,6.19s-8.5-2.36-10.71-6.19c-2.21-3.82-2.21-8.54,0-12.37"/>
      <polyline class="cls-9" points="261.84 320.25 261.84 332.62 272.55 338.81 283.27 332.62 283.27 320.25 272.55 314.06"/>
      <path class="cls-9" d="M261.84,320.25l10.71-6.19c-4.42,0-8.5,2.36-10.71,6.19Z"/>
      <circle class="cls-9" cx="493.41" cy="240.71" r="25.45"/>
      <path class="cls-9" d="M493.41,254.11c7.4,0,13.39-6,13.39-13.4s-5.99-13.39-13.39-13.39-13.4,5.99-13.4,13.39,6,13.4,13.4,13.4Z"/>
      <path class="cls-9" d="M493.41,231.43c3.31,0,6.38,1.77,8.03,4.64,1.66,2.87,1.66,6.41,0,9.28"/>
      <polyline class="cls-9" points="501.44 245.35 501.44 236.07 493.41 231.43"/>
      <path class="cls-9" d="M501.44,245.35l-8.03,4.64c3.31,0,6.38-1.77,8.03-4.64Z"/>
      <path class="cls-9" d="M493.41,249.99l-8.04-4.64c1.66,2.87,4.72,4.64,8.04,4.64Z"/>
      <path class="cls-9" d="M485.37,245.35v-9.28c-1.66,2.87-1.66,6.41,0,9.28Z"/>
      <path class="cls-9" d="M485.37,236.07l8.04-4.64c-3.32,0-6.38,1.77-8.04,4.64Z"/>
      <path class="cls-9" d="M277.04,213.19c-15.2,0-27.53,12.32-27.53,27.52s12.33,27.53,27.53,27.53,27.52-12.33,27.52-27.53-12.32-27.52-27.52-27.52Z"/>
      <circle class="cls-9" cx="277.04" cy="240.71" r="25.85"/>
    </g>
  </g>
  <g>
    <g>
      <line class="cls-8" x1="366.46" y1="292.94" x2="370.96" y2="292.94"/>
      <path class="cls-7" d="M427.35,303.44h-9.4v-21h9.4v21ZM408.55,303.44h-9.4v-21h9.4v21ZM389.75,303.44h-9.4v-21h9.4v21Z"/>
      <line class="cls-8" x1="436.75" y1="292.94" x2="441.25" y2="292.94"/>
      <polygon class="cls-7" points="371.05 308.65 343.85 292.94 371.05 277.23 371.05 308.65"/>
      <polygon class="cls-7" points="436.65 308.65 463.85 292.94 436.65 277.23 436.65 308.65"/>
    </g>
    <g>
      <rect class="cls-4" x="360.14" y="286.94" width="3" height="12"/>
      <rect class="cls-4" x="355.71" y="291.44" width="12" height="3"/>
    </g>
    <rect class="cls-4" x="442.77" y="286.94" width="3" height="12"/>
  </g>
</svg>