<?xml version="1.0" encoding="UTF-8" standalone="no"?>
<!-- Created with Inkscape (http://www.inkscape.org/) -->

<svg
   width="1044.8251mm"
   height="563.66052mm"
   viewBox="0 0 1044.8251 563.66052"
   version="1.1"
   id="svg132364"
   inkscape:version="1.1.2 (0a00cf5339, 2022-02-04, custom)"
   sodipodi:docname="hazards.svg"
   xmlns:inkscape="http://www.inkscape.org/namespaces/inkscape"
   xmlns:sodipodi="http://sodipodi.sourceforge.net/DTD/sodipodi-0.dtd"
   xmlns:xlink="http://www.w3.org/1999/xlink"
   xmlns="http://www.w3.org/2000/svg"
   xmlns:svg="http://www.w3.org/2000/svg">
  <sodipodi:namedview
     id="namedview132366"
     pagecolor="#ffffff"
     bordercolor="#666666"
     borderopacity="1.0"
     inkscape:pageshadow="2"
     inkscape:pageopacity="0.0"
     inkscape:pagecheckerboard="0"
     inkscape:document-units="mm"
     showgrid="false"
     fit-margin-top="0"
     fit-margin-left="0"
     fit-margin-right="0"
     fit-margin-bottom="0"
     inkscape:zoom="0.27496365"
     inkscape:cx="1689.3142"
     inkscape:cy="1149.2428"
     inkscape:window-width="2560"
     inkscape:window-height="1377"
     inkscape:window-x="-8"
     inkscape:window-y="-8"
     inkscape:window-maximized="1"
     inkscape:current-layer="layer1" />
  <defs
     id="defs132361">
    <marker
       style="overflow:visible"
       id="Arrow1Sstart-4"
       refX="0"
       refY="0"
       orient="auto"
       inkscape:stockid="Arrow1Sstart"
       inkscape:isstock="true">
      <path
         transform="matrix(0.2,0,0,0.2,1.2,0)"
         style="fill:context-stroke;fill-rule:evenodd;stroke:context-stroke;stroke-width:1pt"
         d="M 0,0 5,-5 -12.5,0 5,5 Z"
         id="path15036-4" />
    </marker>
    <marker
       style="overflow:visible"
       id="Arrow2Send"
       refX="0"
       refY="0"
       orient="auto"
       inkscape:stockid="Arrow2Send"
       inkscape:isstock="true">
      <path
         transform="matrix(-0.3,0,0,-0.3,0.69,0)"
         d="M 8.7185878,4.0337352 -2.2072895,0.01601326 8.7185884,-4.0017078 c -1.7454984,2.3720609 -1.7354408,5.6174519 -6e-7,8.035443 z"
         style="fill:context-stroke;fill-rule:evenodd;stroke:context-stroke;stroke-width:0.625;stroke-linejoin:round"
         id="path9087" />
    </marker>
    <inkscape:path-effect
       effect="fillet_chamfer"
       id="path-effect128013"
       is_visible="true"
       lpeversion="1"
       satellites_param="F,0,0,1,0,5.2916667,0,1 @ F,0,0,1,0,5.2916667,0,1 @ F,0,0,1,0,5.2916667,0,1 @ F,0,0,1,0,5.2916667,0,1 @ F,0,0,1,0,5.2916667,0,1 @ F,0,0,1,0,5.2916667,0,1 @ F,0,0,1,0,5.2916667,0,1 @ F,0,0,1,0,5.2916667,0,1 @ F,0,0,1,0,5.2916667,0,1 @ F,0,0,1,0,5.2916667,0,1 @ F,0,0,1,0,5.2916667,0,1 @ F,0,0,1,0,5.2916667,0,1 @ F,0,0,1,0,5.2916667,0,1 @ F,0,0,1,0,5.2916667,0,1 @ F,0,0,1,0,4.7712603,0,1 @ F,0,0,1,0,4.973345,0,1"
       unit="px"
       method="auto"
       mode="F"
       radius="20"
       chamfer_steps="1"
       flexible="false"
       use_knot_distance="true"
       apply_no_radius="true"
       apply_with_radius="true"
       only_selected="false"
       hide_knots="false" />
    <inkscape:path-effect
       effect="fillet_chamfer"
       id="path-effect128019"
       is_visible="true"
       lpeversion="1"
       satellites_param="F,0,0,1,0,2.9104167,0,1 @ F,0,0,1,0,2.9104167,0,1 @ F,0,0,1,0,2.9104167,0,1 @ F,0,0,1,0,2.9104167,0,1 @ F,0,0,1,0,2.9104167,0,1 @ F,0,0,1,0,2.9104167,0,1 @ F,0,0,1,0,2.9104167,0,1"
       unit="px"
       method="auto"
       mode="F"
       radius="11"
       chamfer_steps="1"
       flexible="false"
       use_knot_distance="true"
       apply_no_radius="true"
       apply_with_radius="true"
       only_selected="false"
       hide_knots="false" />
    <pattern
       inkscape:collect="always"
       xlink:href="#pattern8786-1"
       id="pattern128191"
       patternTransform="matrix(4.3468461,3.6398091,0.72787441,-0.86926484,-1679.9825,-697.2308)" />
    <pattern
       inkscape:collect="always"
       xlink:href="#Strips1_2-6"
       id="pattern8786-1"
       patternTransform="matrix(4.3468461,3.6398091,0.72787441,-0.86926484,-507.9238,-3557.6651)" />
    <pattern
       inkscape:collect="always"
       patternUnits="userSpaceOnUse"
       width="3"
       height="1"
       patternTransform="translate(0,0) scale(10,10)"
       id="Strips1_2-6"
       inkscape:stockid="Stripes 1:2">
      <rect
         style="fill:#ffcc00;stroke:none"
         x="0"
         y="-0.5"
         width="1"
         height="2"
         id="rect7703-3" />
    </pattern>
    <pattern
       inkscape:collect="always"
       xlink:href="#pattern8786-1-5"
       id="pattern128189"
       patternTransform="matrix(4.3468461,3.6398091,0.72787441,-0.86926484,-2411.3857,-840.809)" />
    <pattern
       inkscape:collect="always"
       xlink:href="#Strips1_2-6-0"
       id="pattern8786-1-5"
       patternTransform="matrix(4.3468461,3.6398091,0.72787441,-0.86926484,-1239.327,-3701.2433)" />
    <pattern
       inkscape:collect="always"
       patternUnits="userSpaceOnUse"
       width="3"
       height="1"
       patternTransform="translate(0,0) scale(10,10)"
       id="Strips1_2-6-0"
       inkscape:stockid="Stripes 1:2">
      <rect
         style="fill:#ffcc00;stroke:none"
         x="0"
         y="-0.5"
         width="1"
         height="2"
         id="rect7703-3-5" />
    </pattern>
    <inkscape:path-effect
       effect="fillet_chamfer"
       id="path-effect128039"
       is_visible="true"
       lpeversion="1"
       satellites_param="F,0,0,1,0,5.2916667,0,1 @ F,0,0,1,0,5.2916667,0,1 @ F,0,0,1,0,5.2916667,0,1 @ F,0,0,1,0,5.2916667,0,1 @ F,0,0,1,0,5.2916667,0,1 @ F,0,0,1,0,5.2916667,0,1 @ F,0,0,1,0,5.2916667,0,1 @ F,0,0,1,0,5.2916667,0,1 @ F,0,0,1,0,5.2916667,0,1 @ F,0,0,1,0,5.2916667,0,1 @ F,0,0,1,0,5.2916667,0,1 @ F,0,0,1,0,5.2916667,0,1 @ F,0,0,1,0,5.2916667,0,1 @ F,0,0,1,0,5.2916667,0,1 @ F,0,0,1,0,4.7712603,0,1 @ F,0,0,1,0,4.973345,0,1"
       unit="px"
       method="auto"
       mode="F"
       radius="20"
       chamfer_steps="1"
       flexible="false"
       use_knot_distance="true"
       apply_no_radius="true"
       apply_with_radius="true"
       only_selected="false"
       hide_knots="false" />
    <inkscape:path-effect
       effect="fillet_chamfer"
       id="path-effect128045"
       is_visible="true"
       lpeversion="1"
       satellites_param="F,0,0,1,0,2.9104167,0,1 @ F,0,0,1,0,2.9104167,0,1 @ F,0,0,1,0,2.9104167,0,1 @ F,0,0,1,0,2.9104167,0,1 @ F,0,0,1,0,2.9104167,0,1 @ F,0,0,1,0,2.9104167,0,1 @ F,0,0,1,0,2.9104167,0,1"
       unit="px"
       method="auto"
       mode="F"
       radius="11"
       chamfer_steps="1"
       flexible="false"
       use_knot_distance="true"
       apply_no_radius="true"
       apply_with_radius="true"
       only_selected="false"
       hide_knots="false" />
    <inkscape:path-effect
       effect="fillet_chamfer"
       id="path-effect128065"
       is_visible="true"
       lpeversion="1"
       satellites_param="F,0,0,1,0,3.96875,0,1 @ F,0,0,1,0,3.96875,0,1 @ F,0,0,1,0,3.96875,0,1 @ F,0,0,1,0,3.96875,0,1 @ F,0,0,1,0,3.96875,0,1 @ F,0,0,1,0,3.96875,0,1 @ F,0,0,1,0,3.96875,0,1"
       unit="px"
       method="auto"
       mode="F"
       radius="15"
       chamfer_steps="1"
       flexible="false"
       use_knot_distance="true"
       apply_no_radius="true"
       apply_with_radius="true"
       only_selected="false"
       hide_knots="false" />
    <inkscape:path-effect
       effect="fillet_chamfer"
       id="path-effect128079"
       is_visible="true"
       lpeversion="1"
       satellites_param="F,0,0,1,0,5.2916667,0,1 @ F,0,0,1,0,5.2916667,0,1 @ F,0,0,1,0,5.2916667,0,1 @ F,0,0,1,0,5.2916667,0,1 @ F,0,0,1,0,5.2916667,0,1 @ F,0,0,1,0,5.2916667,0,1 @ F,0,0,1,0,5.2916667,0,1 @ F,0,0,1,0,5.2916667,0,1 @ F,0,0,1,0,5.2916667,0,1 @ F,0,0,1,0,5.2916667,0,1 @ F,0,0,1,0,5.2916667,0,1 @ F,0,0,1,0,5.2916667,0,1 @ F,0,0,1,0,5.2916667,0,1 @ F,0,0,1,0,5.2916667,0,1 @ F,0,0,1,0,4.7712603,0,1 @ F,0,0,1,0,4.973345,0,1"
       unit="px"
       method="auto"
       mode="F"
       radius="20"
       chamfer_steps="1"
       flexible="false"
       use_knot_distance="true"
       apply_no_radius="true"
       apply_with_radius="true"
       only_selected="false"
       hide_knots="false" />
    <inkscape:path-effect
       effect="fillet_chamfer"
       id="path-effect128091"
       is_visible="true"
       lpeversion="1"
       satellites_param="F,0,0,1,0,5.2916667,0,1 @ F,0,0,1,0,5.2916667,0,1 @ F,0,0,1,0,5.2916667,0,1 @ F,0,0,1,0,5.2916667,0,1 @ F,0,0,1,0,5.2916667,0,1 @ F,0,0,1,0,5.2916667,0,1 @ F,0,0,1,0,5.2916667,0,1 @ F,0,0,1,0,5.2916667,0,1 @ F,0,0,1,0,5.2916667,0,1 @ F,0,0,1,0,5.2916667,0,1 @ F,0,0,1,0,5.2916667,0,1 @ F,0,0,1,0,5.2916667,0,1 @ F,0,0,1,0,5.2916667,0,1 @ F,0,0,1,0,5.2916667,0,1 @ F,0,0,1,0,4.7712603,0,1 @ F,0,0,1,0,4.973345,0,1"
       unit="px"
       method="auto"
       mode="F"
       radius="20"
       chamfer_steps="1"
       flexible="false"
       use_knot_distance="true"
       apply_no_radius="true"
       apply_with_radius="true"
       only_selected="false"
       hide_knots="false" />
    <inkscape:path-effect
       effect="fillet_chamfer"
       id="path-effect128097"
       is_visible="true"
       lpeversion="1"
       satellites_param="F,0,0,1,0,2.9104167,0,1 @ F,0,0,1,0,2.9104167,0,1 @ F,0,0,1,0,2.9104167,0,1 @ F,0,0,1,0,2.9104167,0,1 @ F,0,0,1,0,2.9104167,0,1 @ F,0,0,1,0,2.9104167,0,1 @ F,0,0,1,0,2.9104167,0,1"
       unit="px"
       method="auto"
       mode="F"
       radius="11"
       chamfer_steps="1"
       flexible="false"
       use_knot_distance="true"
       apply_no_radius="true"
       apply_with_radius="true"
       only_selected="false"
       hide_knots="false" />
    <inkscape:path-effect
       effect="fillet_chamfer"
       id="path-effect128103"
       is_visible="true"
       lpeversion="1"
       satellites_param="F,0,0,1,0,2.9104167,0,1 @ F,0,0,1,0,2.9104167,0,1 @ F,0,0,1,0,2.9104167,0,1 @ F,0,0,1,0,2.9104167,0,1 @ F,0,0,1,0,2.9104167,0,1 @ F,0,0,1,0,2.9104167,0,1 @ F,0,0,1,0,2.9104167,0,1"
       unit="px"
       method="auto"
       mode="F"
       radius="11"
       chamfer_steps="1"
       flexible="false"
       use_knot_distance="true"
       apply_no_radius="true"
       apply_with_radius="true"
       only_selected="false"
       hide_knots="false" />
    <inkscape:path-effect
       effect="fillet_chamfer"
       id="path-effect128127"
       is_visible="true"
       lpeversion="1"
       satellites_param="F,0,0,1,0,3.96875,0,1 @ F,0,0,1,0,3.96875,0,1 @ F,0,0,1,0,3.96875,0,1 @ F,0,0,1,0,3.96875,0,1 @ F,0,0,1,0,3.96875,0,1 @ F,0,0,1,0,3.96875,0,1 @ F,0,0,1,0,3.96875,0,1"
       unit="px"
       method="auto"
       mode="F"
       radius="15"
       chamfer_steps="1"
       flexible="false"
       use_knot_distance="true"
       apply_no_radius="true"
       apply_with_radius="true"
       only_selected="false"
       hide_knots="false" />
    <marker
       style="overflow:visible"
       id="Arrow2Send-9"
       refX="0"
       refY="0"
       orient="auto"
       inkscape:stockid="Arrow2Send"
       inkscape:isstock="true">
      <path
         transform="matrix(-0.3,0,0,-0.3,0.69,0)"
         d="M 8.7185878,4.0337352 -2.2072895,0.01601326 8.7185884,-4.0017078 c -1.7454984,2.3720609 -1.7354408,5.6174519 -6e-7,8.035443 z"
         style="fill:context-stroke;fill-rule:evenodd;stroke:context-stroke;stroke-width:0.625;stroke-linejoin:round"
         id="path9087-6" />
    </marker>
  </defs>
  <g
     inkscape:label="Layer 1"
     inkscape:groupmode="layer"
     id="layer1"
     transform="translate(403.00015,180.78899)">
    <rect
       style="fill:#ffffff;stroke:none;stroke-width:7.66058;stroke-linecap:round;stroke-linejoin:round;stroke-miterlimit:4;stroke-dasharray:none;paint-order:stroke markers fill"
       id="rect127989"
       width="1044.8251"
       height="563.66052"
       x="-403.00015"
       y="-180.78899"
       ry="0"
       inkscape:export-filename="C:\Users\Tero\Documents\Work\git\simucube-docs.github.io\docs\ActivePedal\assets\hazards white bg.png"
       inkscape:export-xdpi="50.019501"
       inkscape:export-ydpi="50.019501"
       rx="0" />
    <rect
       style="fill:#ffffff;stroke:#000000;stroke-width:7.06527;stroke-linecap:round;stroke-linejoin:round;stroke-miterlimit:4;stroke-dasharray:none;paint-order:stroke markers fill"
       id="rect127991"
       width="956.7674"
       height="171.41644"
       x="-357.9628"
       y="-137.75334"
       ry="16.495403"
       inkscape:export-filename="C:\Users\Tero\Documents\Work\git\simucube-docs.github.io\docs\ActivePedal\assets\hazards.png"
       inkscape:export-xdpi="60.014366"
       inkscape:export-ydpi="60.014366"
       rx="16.495403" />
    <g
       id="g128001"
       transform="matrix(0.74409846,0,0,0.74409846,-676.45067,2215.0126)"
       inkscape:export-filename="C:\Users\Tero\Documents\Work\git\simucube-docs.github.io\docs\ActivePedal\assets\hazards.png"
       inkscape:export-xdpi="60.014366"
       inkscape:export-ydpi="60.014366">
      <path
         style="fill:#666666;stroke:none;stroke-width:1.66259;stroke-linecap:butt;stroke-linejoin:miter;stroke-miterlimit:4;stroke-dasharray:none;stroke-opacity:1"
         d="m 1135.9051,-2980.9622 c 0.6118,-0.8735 46.1315,-74.7699 46.1315,-74.7699 l -3.213,-1.9329 -10.4842,16.953 -2.9307,-1.6993 c 7.1743,-19.9177 19.6965,-40.9201 32.8098,-52.8694 l 2.732,1.7026 -8.2625,14.3711 6.4225,3.6672 c 4.4536,2.4286 5.4876,4.796 4.363,8.7902 l -6.5664,11.2417 -14.9124,25.3759 c -1.8459,3.3377 -0.2838,9.0282 -1.6307,11.6349 l -30.1226,47.2586 c -7.0868,9.8594 -20.6995,-0.5525 -14.3363,-9.7237 z"
         id="path127993"
         sodipodi:nodetypes="ccccccccccccccc"
         inkscape:transform-center-x="-39.697663"
         inkscape:transform-center-y="-83.580914" />
      <path
         style="fill:#000000;stroke:#000000;stroke-width:1.66259;stroke-linecap:butt;stroke-linejoin:miter;stroke-miterlimit:4;stroke-dasharray:none;stroke-opacity:1"
         d="m 1134.2879,-2977.5203 c 0.1745,-1.0521 9.3094,-87.3612 9.3094,-87.3612 l -3.7327,-0.3555 -2.1329,19.8185 -3.3771,-0.2667 c -2.133,-21.0626 0.089,-45.4135 6.7543,-61.8549 l 3.1994,0.3555 -1.2443,16.5302 7.3764,0.5333 c 5.0657,0.2666 7.0209,1.9552 7.7319,6.0432 l -1.0664,12.9753 -2.4885,29.3278 c -0.223,3.8076 3.6438,8.2651 3.5549,11.1979 l -6.7543,55.6339 c -2.1329,11.9533 -18.9075,8.4427 -17.1301,-2.5773 z"
         id="path127995"
         sodipodi:nodetypes="ccccccccccccccc" />
      <circle
         style="fill:#ffffff;stroke:none;stroke-width:1.28473;stroke-linejoin:round;stroke-miterlimit:4;stroke-dasharray:none;paint-order:stroke markers fill"
         id="circle127997"
         cx="1142.8864"
         cy="-2976.5427"
         r="6.0432978" />
      <path
         style="fill:none;stroke:#000000;stroke-width:5.32029;stroke-linecap:butt;stroke-linejoin:miter;stroke-miterlimit:4;stroke-dasharray:none;stroke-opacity:1;marker-start:url(#Arrow1Sstart-4);marker-end:url(#Arrow2Send)"
         d="m 1159.8173,-3121.1988 c 17.8044,2.1334 29.8909,5.7238 43.5479,13.1569"
         id="path127999"
         sodipodi:nodetypes="cc" />
    </g>
    <g
       id="g128009"
       transform="rotate(-8.5026312,-7507.6153,8120.4959)"
       style="opacity:0.313008"
       inkscape:export-filename="C:\Users\Tero\Documents\Work\git\simucube-docs.github.io\docs\ActivePedal\assets\hazards.png"
       inkscape:export-xdpi="60.014366"
       inkscape:export-ydpi="60.014366">
      <path
         style="fill:#d45500;fill-opacity:1;stroke:#000000;stroke-width:2.5;stroke-linecap:butt;stroke-linejoin:miter;stroke-miterlimit:4;stroke-dasharray:none;stroke-opacity:1"
         d="m 948.29326,1395.2121 1.0429,-3.6254 a 11.818209,11.818209 130.16967 0 1 6.23074,-7.381 l 0.6697,-0.3224 a 14.237277,14.237277 174.67931 0 1 9.87753,-0.9199 15.36957,15.36957 34.145561 0 1 7.99668,5.4234 15.284468,15.284468 32.340834 0 0 7.41337,4.6939 l 139.25512,46.1836 a 23.086684,23.086684 5.4382369 0 0 10.2694,0.9776 l 1.035,-0.1357 a 17.872816,17.872816 9.0211694 0 1 10.0223,1.5912 12.860616,12.860616 48.300185 0 1 5.7776,6.4846 l 0.8161,1.7488 a 11.825298,11.825298 89.090696 0 1 0.1533,9.659 l -1.5007,3.5017 a 13.836735,13.836735 134.12725 0 1 -6.8826,7.0955 12.602045,12.602045 178.35578 0 1 -8.4565,0.2427 l -0.1381,-0.035 a 19.826168,19.826168 29.225567 0 1 -8.9237,-4.9926 20.551738,20.551738 29.619427 0 0 -7.8264,-4.4495 l -140.41968,-47.9826 a 18.654088,18.654088 3.0285322 0 0 -10.16738,-0.538 14.75379,14.75379 5.4080779 0 1 -7.52126,-0.712 l -1.68141,-0.5096 a 10.29681,10.29681 42.641319 0 1 -6.5886,-6.0673 15.413305,15.413305 87.385893 0 1 -0.45341,-9.9309 z"
         id="path128003"
         sodipodi:nodetypes="ccccccccccccccccc"
         inkscape:path-effect="#path-effect128013"
         inkscape:original-d="m 946.83033,1400.2975 3.96876,-13.7962 10.20532,-4.9136 9.82742,2.6458 5.6697,7.1815 149.30047,49.515 11.5284,-1.5119 8.3154,3.9687 5.2917,11.3392 -5.6697,13.2293 -8.1265,3.7798 -10.3943,-2.6459 -6.6146,-6.4256 -150.43447,-51.4048 -8.1151,1.845 -11.00711,-3.336 z" />
      <path
         style="fill:none;stroke:#000000;stroke-width:4;stroke-linecap:butt;stroke-linejoin:miter;stroke-miterlimit:4;stroke-dasharray:none;stroke-opacity:1"
         d="m 1058.1443,1418.4404 c 23.6235,-47.436 79.564,-15.8751 77.6741,21.9226"
         id="path128005"
         sodipodi:nodetypes="cc" />
      <rect
         style="opacity:1;fill:#808080;fill-opacity:1;stroke:#000000;stroke-width:2.61859;stroke-linejoin:round;stroke-miterlimit:4;stroke-dasharray:none;paint-order:normal"
         id="rect128007"
         width="39.752506"
         height="21.555935"
         x="1441.623"
         y="998.58319"
         transform="rotate(18.933708)" />
    </g>
    <path
       style="opacity:0.29878;fill:#808080;stroke:#000000;stroke-width:2.5;stroke-linecap:butt;stroke-linejoin:miter;stroke-miterlimit:4;stroke-dasharray:none;stroke-opacity:1"
       d="m 68.101604,264.65397 c -0.07547,-4.62207 0.03765,-13.51181 0.106555,-18.10748 0.0241,-1.60717 -1.082866,-3.5597 -2.476184,-4.36116 l -10.05515,-5.78386 a 5.0503544,5.0503544 179.95417 0 0 -5.043325,0.004 l -8.8699,5.121 a 5.0409702,5.0409702 120.0001 0 0 -2.5205,4.36562 v 4.05476 a 8.1523648,8.1523648 70.353295 0 0 1.843143,5.16283 l 1.672014,2.04328 a 8.1523648,8.1523648 70.353295 0 1 1.843143,5.16283 v 2.73176 a 2.8615062,2.8615062 44.514495 0 0 2.909999,2.8611 l 17.833402,-0.30226 c 1.607148,-0.0272 2.783015,-1.34708 2.756803,-2.95245 z"
       id="path128015"
       sodipodi:nodetypes="cccccccc"
       inkscape:path-effect="#path-effect128019"
       inkscape:original-d="m 68.2548,267.5571 c -0.4009,-1.2027 0,-23.9206 0,-23.9206 l -15.1008,-8.6862 -13.9109,8.0314 v 9.8756 l 5.3583,6.5481 v 8.5526 z"
       inkscape:export-filename="C:\Users\Tero\Documents\Work\git\simucube-docs.github.io\docs\ActivePedal\assets\hazards.png"
       inkscape:export-xdpi="60.014366"
       inkscape:export-ydpi="60.014366" />
    <g
       id="g128027"
       transform="rotate(27.117944,2133.3922,-1623.2724)"
       inkscape:transform-center-x="-40.013128"
       inkscape:transform-center-y="-75.886805"
       style="opacity:0.313008"
       inkscape:export-filename="C:\Users\Tero\Documents\Work\git\simucube-docs.github.io\docs\ActivePedal\assets\hazards.png"
       inkscape:export-xdpi="60.014366"
       inkscape:export-ydpi="60.014366">
      <path
         style="fill:#4d4d4d;stroke:#000000;stroke-width:2.5;stroke-linecap:butt;stroke-linejoin:miter;stroke-miterlimit:4;stroke-dasharray:none;stroke-opacity:1"
         d="m 912.65866,1158.8085 c 0,-1.6036 14.96711,-129.893 14.96711,-129.893 l -5.61268,-0.5345 -2.67269,29.9342 -5.61266,-0.5346 c -3.20723,-31.6714 -0.13362,-60.26927 9.88899,-84.9917 l 4.81084,0.53454 -1.60362,16.83798 11.09169,0.8018 c 7.61718,0.4009 10.55715,2.93999 11.62623,9.08718 l 4.2763,22.4506 -10.69078,41.6941 c -0.33539,5.7254 6.54811,11.8935 6.41448,16.3035 l -10.69078,84.7244 z"
         id="path128021"
         sodipodi:nodetypes="ccccccccccccccc" />
      <path
         style="fill:#808080;stroke:#000000;stroke-width:2.5;stroke-linecap:butt;stroke-linejoin:miter;stroke-miterlimit:4;stroke-dasharray:none;stroke-opacity:1"
         d="m 937.51474,1036.6663 25.12329,-0.8018 c 4.9445,-0.4009 10.0227,5.2786 10.5572,9.2208 0.9354,6.1472 -2.8732,10.7576 -8.2854,12.9626 l -26.86056,10.5572 c -5.41221,2.4054 -10.28988,-1.7373 -10.28988,-5.88 l 2.6727,-19.9116 c 0.40091,-2.6727 4.14268,-6.0135 7.08265,-6.1472 z"
         id="path128023"
         sodipodi:nodetypes="cccccccc" />
      <circle
         style="opacity:1;fill:#4d4d4d;stroke:none;stroke-width:2.5;stroke-linejoin:round;stroke-miterlimit:4;stroke-dasharray:none;paint-order:stroke markers fill"
         id="circle128025"
         cx="961.70264"
         cy="1046.8225"
         r="8.15172" />
    </g>
    <path
       style="fill:url(#pattern128191);fill-opacity:1;stroke:none;stroke-width:0.264583px;stroke-linecap:butt;stroke-linejoin:miter;stroke-opacity:1"
       d="m 254.1931,118.5109 299.7675,109.3209 6.6016,9.7035 0.8227,39.5332 -302.6409,-3.1781 z"
       id="path128029"
       sodipodi:nodetypes="cccccc"
       inkscape:export-filename="C:\Users\Tero\Documents\Work\git\simucube-docs.github.io\docs\ActivePedal\assets\hazards.png"
       inkscape:export-xdpi="60.014366"
       inkscape:export-ydpi="60.014366" />
    <path
       style="fill:url(#pattern128189);fill-opacity:1;stroke:none;stroke-width:0.264583px;stroke-linecap:butt;stroke-linejoin:miter;stroke-opacity:1"
       d="M -295.69271,117.5115 C -203.30982,57.6474 -159.016,93.2182 -89.544,123.5197 l -113.73214,210.2568 -20.31879,0.5172 z"
       id="path128031"
       sodipodi:nodetypes="ccccc"
       inkscape:export-filename="C:\Users\Tero\Documents\Work\git\simucube-docs.github.io\docs\ActivePedal\assets\hazards.png"
       inkscape:export-xdpi="60.014366"
       inkscape:export-ydpi="60.014366" />
    <path
       style="fill:#ffffff;fill-opacity:1;stroke:#000000;stroke-width:3;stroke-linecap:round;stroke-linejoin:round;stroke-miterlimit:4;stroke-dasharray:none"
       d="m -244.48546,308.3033 c -3.6045,12.7129 -19.3276,20.7388 -32.1703,16.4216 -1.6296,-0.5479 -6.3397,-2.6567 -10.467,-4.6866 -21.6323,-10.6381 -30.7331,-13.689 -42.4221,-14.2209 -5.844,-0.2659 -9.7456,-0.1443 -16.2751,0.5071 -2.3762,0.2371 -3.021,-1.5319 -3.0774,-1.5389 -0.057,0 0.1303,-10.7057 2.0597,-26.1669 l 3.508,-28.1115 0.9947,-0.121 c 0.5472,-0.067 2.9768,0.4949 5.3991,1.2491 6.8468,2.1311 8.9117,2.14 13.532,0.058 7.7373,-3.486 14.7078,-10.3745 27.6427,-27.3176 3.1279,-4.097 8.6934,-11.1828 12.3679,-15.7458 22.0561,-27.3914 27.6097,-35.1625 31.1779,-43.6287 0.8596,-2.039 1.2525,-3.7542 1.6931,-7.3932 1.4408,-11.8991 5.0152,-19.7189 9.7438,-21.3212 0.9741,-0.33 2.1035,-0.5548 2.5099,-0.4992 1.437,0.1953 3.6705,1.914 4.9703,3.8235 1.8403,2.7039 2.7615,5.7151 4.9708,16.2517 l 1.9243,9.1761 -0.6828,5.3541 c -0.6737,5.2804 -0.7168,5.4494 -3.5554,12.2023 -5.4158,12.8815 -10.3115,26.578 -13.2215,36.9894 -2.8966,10.3636 -3.4109,13.0169 -4.9625,25.6061 -1.322,10.7248 -1.5101,13.1609 -1.3673,17.7062 0.3467,11.0347 1.7441,20.2732 4.5204,29.885 2.148,7.4374 2.4282,11.1204 1.1804,15.5211 z"
       id="path128033"
       sodipodi:nodetypes="cscsscscccsscssscsscscsssscc"
       inkscape:export-filename="C:\Users\Tero\Documents\Work\git\simucube-docs.github.io\docs\ActivePedal\assets\hazards.png"
       inkscape:export-xdpi="60.014366"
       inkscape:export-ydpi="60.014366" />
    <path
       style="fill:#d45500;fill-opacity:1;stroke:#000000;stroke-width:2.5;stroke-linecap:butt;stroke-linejoin:miter;stroke-miterlimit:4;stroke-dasharray:none;stroke-opacity:1"
       d="m 275.55594,187.68548 1.04292,-3.62536 a 11.818264,11.818264 130.16973 0 1 6.23075,-7.381 l 0.66968,-0.32244 a 14.237249,14.237249 174.67931 0 1 9.87753,-0.91991 15.369554,15.369554 34.145612 0 1 7.99666,5.42344 15.284466,15.284466 32.340832 0 0 7.41337,4.69394 l 139.2552,46.1835 a 23.086687,23.086687 5.4382351 0 0 10.26939,0.97766 l 1.03492,-0.13572 a 17.872816,17.872816 9.0211694 0 1 10.02237,1.59118 12.860616,12.860616 48.300185 0 1 5.77756,6.48464 l 0.81612,1.74878 a 11.825298,11.825298 89.090696 0 1 0.1533,9.65902 l -1.50072,3.50168 a 13.836735,13.836735 134.12725 0 1 -6.88255,7.09548 12.602045,12.602045 178.35578 0 1 -8.45657,0.24275 l -0.13804,-0.0351 a 19.826168,19.826168 29.225567 0 1 -8.92374,-4.99253 20.551735,20.551735 29.619425 0 0 -7.82638,-4.44952 L 301.96799,205.44327 a 18.654091,18.654091 3.0285305 0 0 -10.16738,-0.53793 14.753783,14.753783 5.4080869 0 1 -7.52126,-0.71204 l -1.6814,-0.50959 a 10.296825,10.296825 42.6413 0 1 -6.58861,-6.0673 15.41322,15.41322 87.385938 0 1 -0.4534,-9.93093 z"
       id="path128035"
       sodipodi:nodetypes="ccccccccccccccccc"
       inkscape:path-effect="#path-effect128039"
       inkscape:original-d="m 274.093,192.7709 3.9688,-13.7962 10.2053,-4.9136 9.8274,2.6458 5.6697,7.1815 149.3005,49.515 11.5284,-1.5119 8.3154,3.9687 5.2917,11.3392 -5.6697,13.2293 -8.1265,3.7798 -10.3943,-2.6459 -6.6146,-6.4256 -150.4345,-51.4048 -8.1151,1.845 -11.0071,-3.336 z"
       inkscape:export-filename="C:\Users\Tero\Documents\Work\git\simucube-docs.github.io\docs\ActivePedal\assets\hazards.png"
       inkscape:export-xdpi="60.014366"
       inkscape:export-ydpi="60.014366" />
    <path
       style="fill:#808080;stroke:#000000;stroke-width:2.5;stroke-linecap:butt;stroke-linejoin:miter;stroke-miterlimit:4;stroke-dasharray:none;stroke-opacity:1"
       d="m 476.4353,263.62317 c -0.0755,-4.62207 0.0377,-13.51181 0.10656,-18.10748 0.0241,-1.60717 -1.08287,-3.5597 -2.47618,-4.36116 l -10.05516,-5.78386 a 5.0503544,5.0503544 179.95417 0 0 -5.04332,0.004 l -8.8699,5.121 a 5.0409702,5.0409702 120.0001 0 0 -2.5205,4.36562 v 4.05476 a 8.1523648,8.1523648 70.353295 0 0 1.84314,5.16283 l 1.67202,2.04328 a 8.1523648,8.1523648 70.353295 0 1 1.84314,5.16283 l 0,2.73176 a 2.8615062,2.8615062 44.514495 0 0 2.91,2.8611 l 17.8334,-0.30226 c 1.60715,-0.0272 2.78302,-1.34708 2.7568,-2.95245 z"
       id="path128041"
       sodipodi:nodetypes="cccccccc"
       inkscape:path-effect="#path-effect128045"
       inkscape:original-d="m 476.5885,266.5263 c -0.4009,-1.2027 0,-23.9206 0,-23.9206 l -15.1008,-8.6862 -13.9109,8.0314 v 9.8756 l 5.3583,6.5481 v 8.5526 z"
       inkscape:export-filename="C:\Users\Tero\Documents\Work\git\simucube-docs.github.io\docs\ActivePedal\assets\hazards.png"
       inkscape:export-xdpi="60.014366"
       inkscape:export-ydpi="60.014366" />
    <path
       style="opacity:1;fill:#333333;stroke:#000000;stroke-width:2.5;stroke-linejoin:round;stroke-miterlimit:4;stroke-dasharray:none;paint-order:normal"
       id="path128047"
       width="339.69958"
       height="58.532024"
       x="255.42287"
       y="264.52179"
       sodipodi:type="rect"
       inkscape:export-filename="C:\Users\Tero\Documents\Work\git\simucube-docs.github.io\docs\ActivePedal\assets\hazards.png"
       inkscape:export-xdpi="60.014366"
       inkscape:export-ydpi="60.014366"
       d="m 255.42287,264.52179 h 339.69958 v 58.53202 H 255.42287 Z" />
    <path
       style="fill:none;stroke:#000000;stroke-width:4;stroke-linecap:butt;stroke-linejoin:miter;stroke-miterlimit:4;stroke-dasharray:none;stroke-opacity:1"
       d="m 385.407,210.9138 c 23.6235,-47.436 79.564,-15.8751 77.6741,21.9226"
       id="path128049"
       sodipodi:nodetypes="cc"
       inkscape:export-filename="C:\Users\Tero\Documents\Work\git\simucube-docs.github.io\docs\ActivePedal\assets\hazards.png"
       inkscape:export-xdpi="60.014366"
       inkscape:export-ydpi="60.014366" />
    <g
       id="g128057"
       transform="translate(-672.7373,-856.869)"
       inkscape:export-filename="C:\Users\Tero\Documents\Work\git\simucube-docs.github.io\docs\ActivePedal\assets\hazards.png"
       inkscape:export-xdpi="60.014366"
       inkscape:export-ydpi="60.014366">
      <path
         style="fill:#4d4d4d;stroke:#000000;stroke-width:2.5;stroke-linecap:butt;stroke-linejoin:miter;stroke-miterlimit:4;stroke-dasharray:none;stroke-opacity:1"
         d="m 912.65866,1158.8085 c 0,-1.6036 14.96711,-129.893 14.96711,-129.893 l -5.61268,-0.5345 -2.67269,29.9342 -5.61266,-0.5346 c -3.20723,-31.6714 -0.13362,-60.26927 9.88899,-84.9917 l 4.81084,0.53454 -1.60362,16.83798 11.09169,0.8018 c 7.61718,0.4009 10.55715,2.93999 11.62623,9.08718 l 4.2763,22.4506 -10.69078,41.6941 c -0.33539,5.7254 6.54811,11.8935 6.41448,16.3035 l -10.69078,84.7244 z"
         id="path128051"
         sodipodi:nodetypes="ccccccccccccccc" />
      <path
         style="fill:#808080;stroke:#000000;stroke-width:2.5;stroke-linecap:butt;stroke-linejoin:miter;stroke-miterlimit:4;stroke-dasharray:none;stroke-opacity:1"
         d="m 937.51474,1036.6663 25.12329,-0.8018 c 4.9445,-0.4009 10.0227,5.2786 10.5572,9.2208 0.9354,6.1472 -2.8732,10.7576 -8.2854,12.9626 l -26.86056,10.5572 c -5.41221,2.4054 -10.28988,-1.7373 -10.28988,-5.88 l 2.6727,-19.9116 c 0.40091,-2.6727 4.14268,-6.0135 7.08265,-6.1472 z"
         id="path128053"
         sodipodi:nodetypes="cccccccc" />
      <circle
         style="opacity:1;fill:#4d4d4d;stroke:none;stroke-width:2.5;stroke-linejoin:round;stroke-miterlimit:4;stroke-dasharray:none;paint-order:stroke markers fill"
         id="circle128055"
         cx="961.70264"
         cy="1046.8225"
         r="8.15172" />
    </g>
    <rect
       style="fill:#808080;fill-opacity:1;stroke:#000000;stroke-width:2.61859;stroke-linejoin:round;stroke-miterlimit:4;stroke-dasharray:none;paint-order:normal"
       id="rect128059"
       width="39.752506"
       height="21.555935"
       x="413.47342"
       y="74.675713"
       transform="rotate(18.933708)"
       inkscape:export-filename="C:\Users\Tero\Documents\Work\git\simucube-docs.github.io\docs\ActivePedal\assets\hazards.png"
       inkscape:export-xdpi="60.014366"
       inkscape:export-ydpi="60.014366" />
    <path
       style="fill:#808080;stroke:#000000;stroke-width:2.5;stroke-linecap:butt;stroke-linejoin:miter;stroke-miterlimit:4;stroke-dasharray:none;stroke-opacity:1"
       d="m 233.5069,328.70675 0,-21.9966 a 18.601822,18.601822 102.04364 0 1 1.61976,-7.59192 l 6.91668,-15.47166 a 3.9803775,3.9803775 159.00347 0 1 5.24765,-2.01402 l 25.88572,11.4816 a 6.1019692,6.1019692 56.959831 0 1 3.62789,5.5779 v 7.2968 a 3.96875,3.96875 45 0 0 3.96875,3.96875 h 310.915 a 3.96875,3.96875 45 0 1 3.96875,3.96875 v 13.7113 a 3.9804834,3.9804834 134.91543 0 1 -3.96873,3.98047 l -354.21274,1.04566 a 3.9570512,3.9570512 44.915429 0 1 -3.96873,-3.95703 z"
       id="path128061"
       inkscape:path-effect="#path-effect128065"
       inkscape:original-d="m 233.5069,332.6755 v -29.9341 l 10.1562,-22.718 33.1415,14.6999 v 15.2343 h 318.8525 v 21.6488 z"
       inkscape:export-filename="C:\Users\Tero\Documents\Work\git\simucube-docs.github.io\docs\ActivePedal\assets\hazards.png"
       inkscape:export-xdpi="60.014366"
       inkscape:export-ydpi="60.014366" />
    <circle
       style="fill:#4d4d4d;stroke:none;stroke-width:2.5;stroke-linejoin:round;stroke-miterlimit:4;stroke-dasharray:none;paint-order:stroke markers fill"
       id="circle128067"
       cx="252.48293"
       cy="302.20685"
       r="11.759859"
       inkscape:export-filename="C:\Users\Tero\Documents\Work\git\simucube-docs.github.io\docs\ActivePedal\assets\hazards.png"
       inkscape:export-xdpi="60.014366"
       inkscape:export-ydpi="60.014366" />
    <g
       id="g128075"
       transform="translate(-1134.5248,-1206.4958)"
       inkscape:export-filename="C:\Users\Tero\Documents\Work\git\simucube-docs.github.io\docs\ActivePedal\assets\hazards.png"
       inkscape:export-xdpi="60.014366"
       inkscape:export-ydpi="60.014366">
      <path
         style="fill:#d45500;fill-opacity:1;stroke:#000000;stroke-width:2.5;stroke-linecap:butt;stroke-linejoin:miter;stroke-miterlimit:4;stroke-dasharray:none;stroke-opacity:1"
         d="m 948.29326,1395.2121 1.0429,-3.6254 a 11.818209,11.818209 130.16967 0 1 6.23074,-7.381 l 0.6697,-0.3224 a 14.237277,14.237277 174.67931 0 1 9.87753,-0.9199 15.36957,15.36957 34.145561 0 1 7.99668,5.4234 15.284468,15.284468 32.340834 0 0 7.41337,4.6939 l 139.25512,46.1836 a 23.086684,23.086684 5.4382369 0 0 10.2694,0.9776 l 1.035,-0.1357 a 17.872816,17.872816 9.0211694 0 1 10.0223,1.5912 12.860616,12.860616 48.300185 0 1 5.7776,6.4846 l 0.8161,1.7488 a 11.825298,11.825298 89.090696 0 1 0.1533,9.659 l -1.5007,3.5017 a 13.836735,13.836735 134.12725 0 1 -6.8826,7.0955 12.602045,12.602045 178.35578 0 1 -8.4565,0.2427 l -0.1381,-0.035 a 19.826168,19.826168 29.225567 0 1 -8.9237,-4.9926 20.551738,20.551738 29.619427 0 0 -7.8264,-4.4495 l -140.41968,-47.9826 a 18.654088,18.654088 3.0285322 0 0 -10.16738,-0.538 14.75379,14.75379 5.4080779 0 1 -7.52126,-0.712 l -1.68141,-0.5096 a 10.29681,10.29681 42.641319 0 1 -6.5886,-6.0673 15.413305,15.413305 87.385893 0 1 -0.45341,-9.9309 z"
         id="path128069"
         sodipodi:nodetypes="ccccccccccccccccc"
         inkscape:path-effect="#path-effect128079"
         inkscape:original-d="m 946.83033,1400.2975 3.96876,-13.7962 10.20532,-4.9136 9.82742,2.6458 5.6697,7.1815 149.30047,49.515 11.5284,-1.5119 8.3154,3.9687 5.2917,11.3392 -5.6697,13.2293 -8.1265,3.7798 -10.3943,-2.6459 -6.6146,-6.4256 -150.43447,-51.4048 -8.1151,1.845 -11.00711,-3.336 z" />
      <path
         style="fill:none;stroke:#000000;stroke-width:4;stroke-linecap:butt;stroke-linejoin:miter;stroke-miterlimit:4;stroke-dasharray:none;stroke-opacity:1"
         d="m 1058.1443,1418.4404 c 23.6235,-47.436 79.564,-15.8751 77.6741,21.9226"
         id="path128071"
         sodipodi:nodetypes="cc" />
      <rect
         style="opacity:1;fill:#808080;fill-opacity:1;stroke:#000000;stroke-width:2.61859;stroke-linejoin:round;stroke-miterlimit:4;stroke-dasharray:none;paint-order:normal"
         id="rect128073"
         width="39.752506"
         height="21.555935"
         x="1441.623"
         y="998.58319"
         transform="rotate(18.933708)" />
    </g>
    <g
       id="g128087"
       transform="rotate(-2.1372343,-31692.007,30523.288)"
       style="opacity:0.479675"
       inkscape:export-filename="C:\Users\Tero\Documents\Work\git\simucube-docs.github.io\docs\ActivePedal\assets\hazards.png"
       inkscape:export-xdpi="60.014366"
       inkscape:export-ydpi="60.014366">
      <path
         style="fill:#d45500;fill-opacity:1;stroke:#000000;stroke-width:2.5;stroke-linecap:butt;stroke-linejoin:miter;stroke-miterlimit:4;stroke-dasharray:none;stroke-opacity:1"
         d="m 948.29326,1395.2121 1.0429,-3.6254 a 11.818209,11.818209 130.16967 0 1 6.23074,-7.381 l 0.6697,-0.3224 a 14.237277,14.237277 174.67931 0 1 9.87753,-0.9199 15.36957,15.36957 34.145561 0 1 7.99668,5.4234 15.284468,15.284468 32.340834 0 0 7.41337,4.6939 l 139.25512,46.1836 a 23.086684,23.086684 5.4382369 0 0 10.2694,0.9776 l 1.035,-0.1357 a 17.872816,17.872816 9.0211694 0 1 10.0223,1.5912 12.860616,12.860616 48.300185 0 1 5.7776,6.4846 l 0.8161,1.7488 a 11.825298,11.825298 89.090696 0 1 0.1533,9.659 l -1.5007,3.5017 a 13.836735,13.836735 134.12725 0 1 -6.8826,7.0955 12.602045,12.602045 178.35578 0 1 -8.4565,0.2427 l -0.1381,-0.035 a 19.826168,19.826168 29.225567 0 1 -8.9237,-4.9926 20.551738,20.551738 29.619427 0 0 -7.8264,-4.4495 l -140.41968,-47.9826 a 18.654088,18.654088 3.0285322 0 0 -10.16738,-0.538 14.75379,14.75379 5.4080779 0 1 -7.52126,-0.712 l -1.68141,-0.5096 a 10.29681,10.29681 42.641319 0 1 -6.5886,-6.0673 15.413305,15.413305 87.385893 0 1 -0.45341,-9.9309 z"
         id="path128081"
         sodipodi:nodetypes="ccccccccccccccccc"
         inkscape:path-effect="#path-effect128091"
         inkscape:original-d="m 946.83033,1400.2975 3.96876,-13.7962 10.20532,-4.9136 9.82742,2.6458 5.6697,7.1815 149.30047,49.515 11.5284,-1.5119 8.3154,3.9687 5.2917,11.3392 -5.6697,13.2293 -8.1265,3.7798 -10.3943,-2.6459 -6.6146,-6.4256 -150.43447,-51.4048 -8.1151,1.845 -11.00711,-3.336 z" />
      <path
         style="fill:none;stroke:#000000;stroke-width:4;stroke-linecap:butt;stroke-linejoin:miter;stroke-miterlimit:4;stroke-dasharray:none;stroke-opacity:1"
         d="m 1058.1443,1418.4404 c 23.6235,-47.436 79.564,-15.8751 77.6741,21.9226"
         id="path128083"
         sodipodi:nodetypes="cc" />
      <rect
         style="opacity:1;fill:#808080;fill-opacity:1;stroke:#000000;stroke-width:2.61859;stroke-linejoin:round;stroke-miterlimit:4;stroke-dasharray:none;paint-order:normal"
         id="rect128085"
         width="39.752506"
         height="21.555935"
         x="1441.623"
         y="998.58319"
         transform="rotate(18.933708)" />
    </g>
    <path
       style="opacity:0.522358;fill:#808080;stroke:#000000;stroke-width:2.5;stroke-linecap:butt;stroke-linejoin:miter;stroke-miterlimit:4;stroke-dasharray:none;stroke-opacity:1"
       d="m 42.651004,264.65397 c -0.07547,-4.62207 0.03765,-13.51181 0.106555,-18.10748 0.0241,-1.60717 -1.082866,-3.5597 -2.476184,-4.36116 l -10.05515,-5.78386 a 5.0503544,5.0503544 179.95417 0 0 -5.043325,0.004 l -8.8699,5.121 a 5.0409702,5.0409702 120.0001 0 0 -2.5205,4.36562 v 4.05476 a 8.1523648,8.1523648 70.353295 0 0 1.843143,5.16283 l 1.672014,2.04328 a 8.1523648,8.1523648 70.353295 0 1 1.843143,5.16283 v 2.73176 a 2.8615062,2.8615062 44.514495 0 0 2.909999,2.8611 l 17.833402,-0.30226 c 1.607148,-0.0272 2.783015,-1.34708 2.756803,-2.95245 z"
       id="path128093"
       sodipodi:nodetypes="cccccccc"
       inkscape:path-effect="#path-effect128097"
       inkscape:original-d="m 42.8042,267.5571 c -0.4009,-1.2027 0,-23.9206 0,-23.9206 l -15.1008,-8.6862 -13.9109,8.0314 v 9.8756 l 5.3583,6.5481 v 8.5526 z"
       inkscape:export-filename="C:\Users\Tero\Documents\Work\git\simucube-docs.github.io\docs\ActivePedal\assets\hazards.png"
       inkscape:export-xdpi="60.014366"
       inkscape:export-ydpi="60.014366" />
    <path
       style="fill:#808080;stroke:#000000;stroke-width:2.5;stroke-linecap:butt;stroke-linejoin:miter;stroke-miterlimit:4;stroke-dasharray:none;stroke-opacity:1"
       d="m 14.647704,264.65397 c -0.07547,-4.62207 0.03765,-13.51181 0.106555,-18.10748 0.0241,-1.60717 -1.082866,-3.5597 -2.476184,-4.36116 L 2.2229246,236.40147 a 5.0503544,5.0503544 179.95417 0 0 -5.0433243,0.004 l -8.8699003,5.121 a 5.0409702,5.0409702 120.0001 0 0 -2.5205,4.36562 v 4.05476 a 8.1523648,8.1523648 70.353295 0 0 1.843143,5.16283 l 1.672014,2.04328 a 8.1523648,8.1523648 70.353295 0 1 1.843143,5.16283 v 2.73176 a 2.8615062,2.8615062 44.514495 0 0 2.9099988,2.8611 l 17.8334022,-0.30226 c 1.607148,-0.0272 2.783015,-1.34708 2.756803,-2.95245 z"
       id="path128099"
       sodipodi:nodetypes="cccccccc"
       inkscape:path-effect="#path-effect128103"
       inkscape:original-d="m 14.8009,267.5571 c -0.4009,-1.2027 0,-23.9206 0,-23.9206 l -15.1008,-8.6862 -13.9109,8.0314 v 9.8756 l 5.3583,6.5481 v 8.5526 z"
       inkscape:export-filename="C:\Users\Tero\Documents\Work\git\simucube-docs.github.io\docs\ActivePedal\assets\hazards.png"
       inkscape:export-xdpi="60.014366"
       inkscape:export-ydpi="60.014366" />
    <path
       style="opacity:1;fill:#333333;stroke:#000000;stroke-width:2.5;stroke-linejoin:round;stroke-miterlimit:4;stroke-dasharray:none;paint-order:normal"
       id="path128105"
       width="339.69958"
       height="58.532024"
       x="-206.36455"
       y="265.55231"
       sodipodi:type="rect"
       inkscape:export-filename="C:\Users\Tero\Documents\Work\git\simucube-docs.github.io\docs\ActivePedal\assets\hazards.png"
       inkscape:export-xdpi="60.014366"
       inkscape:export-ydpi="60.014366"
       d="m -206.36455,265.55231 h 339.69959 v 58.53202 h -339.69959 z" />
    <g
       id="g128113"
       transform="rotate(12.543456,4255.5554,-4424.9136)"
       inkscape:transform-center-x="-28.161804"
       inkscape:transform-center-y="-84.621909"
       style="opacity:0.479675"
       inkscape:export-filename="C:\Users\Tero\Documents\Work\git\simucube-docs.github.io\docs\ActivePedal\assets\hazards.png"
       inkscape:export-xdpi="60.014366"
       inkscape:export-ydpi="60.014366">
      <path
         style="fill:#4d4d4d;stroke:#000000;stroke-width:2.5;stroke-linecap:butt;stroke-linejoin:miter;stroke-miterlimit:4;stroke-dasharray:none;stroke-opacity:1"
         d="m 912.65866,1158.8085 c 0,-1.6036 14.96711,-129.893 14.96711,-129.893 l -5.61268,-0.5345 -2.67269,29.9342 -5.61266,-0.5346 c -3.20723,-31.6714 -0.13362,-60.26927 9.88899,-84.9917 l 4.81084,0.53454 -1.60362,16.83798 11.09169,0.8018 c 7.61718,0.4009 10.55715,2.93999 11.62623,9.08718 l 4.2763,22.4506 -10.69078,41.6941 c -0.33539,5.7254 6.54811,11.8935 6.41448,16.3035 l -10.69078,84.7244 z"
         id="path128107"
         sodipodi:nodetypes="ccccccccccccccc" />
      <path
         style="fill:#808080;stroke:#000000;stroke-width:2.5;stroke-linecap:butt;stroke-linejoin:miter;stroke-miterlimit:4;stroke-dasharray:none;stroke-opacity:1"
         d="m 937.51474,1036.6663 25.12329,-0.8018 c 4.9445,-0.4009 10.0227,5.2786 10.5572,9.2208 0.9354,6.1472 -2.8732,10.7576 -8.2854,12.9626 l -26.86056,10.5572 c -5.41221,2.4054 -10.28988,-1.7373 -10.28988,-5.88 l 2.6727,-19.9116 c 0.40091,-2.6727 4.14268,-6.0135 7.08265,-6.1472 z"
         id="path128109"
         sodipodi:nodetypes="cccccccc" />
      <circle
         style="opacity:1;fill:#4d4d4d;stroke:none;stroke-width:2.5;stroke-linejoin:round;stroke-miterlimit:4;stroke-dasharray:none;paint-order:stroke markers fill"
         id="circle128111"
         cx="961.70264"
         cy="1046.8225"
         r="8.15172" />
    </g>
    <g
       id="g128121"
       transform="translate(-1134.5248,-855.8382)"
       inkscape:export-filename="C:\Users\Tero\Documents\Work\git\simucube-docs.github.io\docs\ActivePedal\assets\hazards.png"
       inkscape:export-xdpi="60.014366"
       inkscape:export-ydpi="60.014366">
      <path
         style="fill:#4d4d4d;stroke:#000000;stroke-width:2.5;stroke-linecap:butt;stroke-linejoin:miter;stroke-miterlimit:4;stroke-dasharray:none;stroke-opacity:1"
         d="m 912.65866,1158.8085 c 0,-1.6036 14.96711,-129.893 14.96711,-129.893 l -5.61268,-0.5345 -2.67269,29.9342 -5.61266,-0.5346 c -3.20723,-31.6714 -0.13362,-60.26927 9.88899,-84.9917 l 4.81084,0.53454 -1.60362,16.83798 11.09169,0.8018 c 7.61718,0.4009 10.55715,2.93999 11.62623,9.08718 l 4.2763,22.4506 -10.69078,41.6941 c -0.33539,5.7254 6.54811,11.8935 6.41448,16.3035 l -10.69078,84.7244 z"
         id="path128115"
         sodipodi:nodetypes="ccccccccccccccc" />
      <path
         style="fill:#808080;stroke:#000000;stroke-width:2.5;stroke-linecap:butt;stroke-linejoin:miter;stroke-miterlimit:4;stroke-dasharray:none;stroke-opacity:1"
         d="m 937.51474,1036.6663 25.12329,-0.8018 c 4.9445,-0.4009 10.0227,5.2786 10.5572,9.2208 0.9354,6.1472 -2.8732,10.7576 -8.2854,12.9626 l -26.86056,10.5572 c -5.41221,2.4054 -10.28988,-1.7373 -10.28988,-5.88 l 2.6727,-19.9116 c 0.40091,-2.6727 4.14268,-6.0135 7.08265,-6.1472 z"
         id="path128117"
         sodipodi:nodetypes="cccccccc" />
      <circle
         style="opacity:1;fill:#4d4d4d;stroke:none;stroke-width:2.5;stroke-linejoin:round;stroke-miterlimit:4;stroke-dasharray:none;paint-order:stroke markers fill"
         id="circle128119"
         cx="961.70264"
         cy="1046.8225"
         r="8.15172" />
    </g>
    <path
       style="fill:#808080;stroke:#000000;stroke-width:2.5;stroke-linecap:butt;stroke-linejoin:miter;stroke-miterlimit:4;stroke-dasharray:none;stroke-opacity:1"
       d="m -228.28066,329.73755 v -21.9966 a 18.601822,18.601822 102.04364 0 1 1.61976,-7.59192 l 6.91668,-15.47166 a 3.9803775,3.9803775 159.00347 0 1 5.24765,-2.01402 l 25.88572,11.4816 a 6.1019692,6.1019692 56.959831 0 1 3.62789,5.5779 v 7.2968 a 3.96875,3.96875 45 0 0 3.96875,3.96875 l 310.91496,0 a 3.96875,3.96875 45 0 1 3.96875,3.96875 v 13.7113 a 3.9804834,3.9804834 134.91543 0 1 -3.96873,3.98047 l -354.2127,1.04566 a 3.9570512,3.9570512 44.915429 0 1 -3.96873,-3.95703 z"
       id="path128123"
       inkscape:path-effect="#path-effect128127"
       inkscape:original-d="m -228.28066,333.7063 v -29.9341 l 10.1562,-22.718 33.1415,14.6999 v 15.2343 H 133.8695 v 21.6488 z"
       inkscape:export-filename="C:\Users\Tero\Documents\Work\git\simucube-docs.github.io\docs\ActivePedal\assets\hazards.png"
       inkscape:export-xdpi="60.014366"
       inkscape:export-ydpi="60.014366" />
    <circle
       style="fill:#4d4d4d;stroke:none;stroke-width:2.5;stroke-linejoin:round;stroke-miterlimit:4;stroke-dasharray:none;paint-order:stroke markers fill"
       id="circle128129"
       cx="-209.30449"
       cy="303.23761"
       r="11.759859"
       inkscape:export-filename="C:\Users\Tero\Documents\Work\git\simucube-docs.github.io\docs\ActivePedal\assets\hazards.png"
       inkscape:export-xdpi="60.014366"
       inkscape:export-ydpi="60.014366" />
    <path
       style="fill:none;stroke:#000000;stroke-width:10;stroke-linecap:round;stroke-linejoin:miter;stroke-miterlimit:4;stroke-dasharray:none;stroke-opacity:1;marker-end:url(#Arrow2Send-9)"
       d="m -88.585,123.3781 c 0,0 -59.3301,-32.1896 -130.65226,-33.452"
       id="path128131"
       sodipodi:nodetypes="cc"
       inkscape:export-filename="C:\Users\Tero\Documents\Work\git\simucube-docs.github.io\docs\ActivePedal\assets\hazards.png"
       inkscape:export-xdpi="60.014366"
       inkscape:export-ydpi="60.014366" />
    <g
       id="g128139"
       transform="matrix(1.3149051,0,0,1.3149051,-4850.1481,-2619.2083)"
       inkscape:export-filename="C:\Users\Tero\Documents\Work\git\simucube-docs.github.io\docs\ActivePedal\assets\hazards.png"
       inkscape:export-xdpi="60.014366"
       inkscape:export-ydpi="60.014366">
      <path
         style="fill:#ffcc00;stroke:#000000;stroke-width:0.264583px;stroke-linecap:butt;stroke-linejoin:miter;stroke-opacity:1"
         d="m 3440.6492,1998.6853 -5.1376,-5.2845 50.4957,-86.3125 6.0182,-0.2936 49.4683,85.4318 -1.9081,6.0184 z"
         id="path128133" />
      <path
         style="fill:#000000;stroke-width:0.193403"
         d="m 3439.8371,2002.5255 c -2.3256,-0.3923 -4.9672,-2.405 -6.0805,-4.6329 -1.0952,-2.1919 -1.2702,-4.766 -0.467,-6.8724 0.3198,-0.8389 2.767,-5.1352 14.0411,-24.6511 1.3826,-2.3933 3.443,-5.9616 4.5787,-7.9295 1.1355,-1.9679 3.8748,-6.7111 6.0873,-10.5404 2.2125,-3.8294 4.6511,-8.0504 5.4192,-9.3801 0.768,-1.3296 3.1312,-5.4201 5.2516,-9.0899 2.1203,-3.6698 5.9832,-10.3608 8.5841,-14.8689 3.0152,-5.226 5.0668,-8.5704 5.6609,-9.2282 1.7694,-1.959 4.8958,-3.038 7.588,-2.6189 3.3173,0.5165 5.1013,2.0578 7.7537,6.699 0.9726,1.7019 4.0055,6.9671 6.7399,11.7007 2.7343,4.7335 6.6302,11.4784 8.6575,14.9887 2.0273,3.5103 5.0957,8.8192 6.8186,11.7976 1.7229,2.9784 5.2679,9.1141 7.8777,13.6348 2.6098,4.5208 7.3379,12.7018 10.507,18.1799 3.169,5.4782 5.983,10.4825 6.2531,11.1207 0.6784,1.6026 0.6983,4.4739 0.042,6.1392 -0.9393,2.3851 -2.9004,4.3018 -5.3424,5.2213 l -1.1604,0.4371 -48.9309,0.027 c -26.912,0.015 -49.3579,-0.045 -49.8797,-0.1333 z m 98.14,-6.6657 c 0.6688,-0.3459 1.1541,-1.1932 1.1541,-2.0155 0,-0.5554 -1.1851,-2.6737 -10.3399,-18.482 -0.9856,-1.7019 -3.5757,-6.184 -5.7558,-9.9602 -3.8444,-6.6593 -4.9448,-8.5631 -7.2374,-12.5228 -1.0074,-1.7398 -5.5977,-9.7038 -6.4934,-11.2658 -0.2134,-0.3722 -1.0201,-1.7647 -1.7923,-3.0944 -0.7724,-1.3296 -1.8799,-3.2443 -2.4612,-4.2548 -0.5812,-1.0106 -1.7386,-3.0123 -2.5719,-4.4483 -1.3901,-2.3954 -2.7427,-4.7402 -5.4111,-9.3801 -4.682,-8.1414 -5.9987,-10.3239 -6.518,-10.8042 -0.5226,-0.4834 -0.7088,-0.5415 -1.4641,-0.4563 -1.1234,0.1266 -1.4453,0.4726 -3.0982,3.331 -0.7381,1.2765 -2.3241,4.018 -3.5242,6.0922 -1.2002,2.0743 -3.1798,5.512 -4.399,7.6394 -1.2193,2.1275 -2.2831,3.9551 -2.3641,4.0615 -0.081,0.1064 -0.3866,0.6286 -0.6793,1.1604 -0.2926,0.5319 -2.794,4.8834 -5.5587,9.6702 -6.1888,10.715 -6.9205,11.9804 -8.6109,14.892 -1.2496,2.1522 -2.6577,4.5875 -7.4362,12.8613 -1.0137,1.7551 -3.6537,6.3242 -5.8666,10.1536 -2.2129,3.8293 -4.8466,8.3985 -5.8527,10.1536 -1.006,1.7552 -1.9487,3.3629 -2.095,3.5726 -0.331,0.475 -0.3331,1.6001 -0.01,2.1928 0.1364,0.2458 0.5032,0.6151 0.8151,0.8208 0.5568,0.367 1.4485,0.3738 48.7824,0.3751 42.7206,0 48.28,-0.032 48.7826,-0.2921 z"
         id="path128135"
         sodipodi:nodetypes="sssssssssssssssssssscssscsssssssssssssssssssssscsccc" />
      <path
         id="path128137"
         style="fill:#000000;stroke-width:0.338645"
         d="m 3472.6204,1946.8198 c -0.9493,0 -0.9607,1.2884 -0.9607,7.9244 v 7.5797 l 1.0376,1.4317 c 0.5706,0.7877 2.5974,3.3638 4.5032,5.7237 4.6884,5.8055 5.9345,7.7124 8.7307,13.3496 1.3165,2.6541 2.5559,5.0242 2.7541,5.2676 0.2857,0.3512 0.5234,0.2532 1.1497,-0.476 1.0394,-1.2094 1.0035,-1.7357 -0.3964,-5.893 -0.6516,-1.9356 -1.185,-3.7836 -1.185,-4.1069 0,-0.8117 0.6495,-0.9337 4.7407,-0.8934 2.1024,0.021 3.9632,-0.133 4.5515,-0.3765 0.8685,-0.3592 1.1187,-0.3213 1.9594,0.3005 0.7723,0.5711 1.5176,0.7259 3.746,0.7784 3.523,0.083 4.5704,-0.2004 4.8489,-1.3102 0.2917,-1.1621 0.078,-1.296 -2.2177,-1.3786 -2.3157,-0.084 -3.5901,-0.6631 -5.1914,-2.3606 -1.0017,-1.0616 -1.2561,-1.1773 -1.8664,-0.8511 -0.4351,0.2332 -2.778,0.378 -6.105,0.378 -6.0852,0 -6.4035,-0.1158 -6.0139,-2.1926 0.1223,-0.6512 0.049,-1.8339 -0.1633,-2.6283 -0.5615,-2.1035 -12.1238,-19.8455 -13.104,-20.108 -0.3304,-0.088 -0.5987,-0.1579 -0.818,-0.1584 z m 18.3288,0.6173 h -7e-4 c -1.9041,0 -3.3687,0.075 -3.5671,0.1871 -0.7314,0.4108 -0.707,11.009 0.026,11.2903 0.4232,0.1625 0.5078,1.1412 0.5078,5.9052 v 5.7108 l 4.4871,0.093 h 8e-4 c 2.468,0.051 4.7531,0.038 5.0793,-0.03 0.5499,-0.1158 0.5928,-0.9425 0.5928,-11.5812 v -11.4584 l -5.1057,-0.1013 c -0.7018,-0.014 -1.3859,-0.02 -2.0208,-0.018 z m 0.1824,10.4166 h 1.6935 1.6928 l 0.1026,1.5236 c 0.07,1.0351 0.3189,1.6904 0.7766,2.0437 0.6617,0.511 0.648,0.5666 -0.7801,3.1253 -0.7996,1.4328 -1.5295,2.6074 -1.6235,2.6086 -0.2534,0 -3.0478,-4.9061 -3.0478,-5.3566 0,-0.2142 0.2207,-0.3889 0.4904,-0.3889 0.3527,0 0.52,-0.4995 0.5928,-1.7784 z m 16.5449,2.2572 c -0.026,0 -0.055,0 -0.088,0 -0.2618,0.038 -0.7379,0.2858 -1.7247,0.7859 -0.9194,0.4656 -1.8665,0.8502 -2.1056,0.8614 -0.2392,0.013 -1.3864,0.9034 -2.5507,1.9893 -1.9351,1.8053 -2.1171,2.094 -2.1171,3.3713 0,0.7685 0.1,1.3972 0.2224,1.3972 0.1223,0 0.7108,-0.3723 1.3081,-0.8282 0.5974,-0.4554 1.4933,-0.9314 1.991,-1.0564 0.5069,-0.1276 1.123,-0.649 1.4015,-1.187 0.2728,-0.5283 1.1796,-1.4302 2.015,-2.0049 1.6813,-1.1569 2.3078,-2.0525 1.9988,-2.8575 -0.1132,-0.2956 -0.1641,-0.4639 -0.3503,-0.4758 z m -4.8012,7.6722 c -0.6192,0.022 -1.1403,0.2286 -1.6607,0.6173 -1.2165,0.9081 -1.2706,1.2508 -0.3624,2.2924 0.7279,0.8351 0.8504,0.8651 1.9138,0.461 1.0843,-0.4119 1.1769,-0.3842 2.0318,0.6166 0.4928,0.5766 1.2005,1.215 1.5733,1.4182 0.8898,0.4857 1.0579,0.2464 1.3259,-1.8873 l 0.2242,-1.79 -1.9601,-0.8798 c -1.1831,-0.5308 -2.0725,-0.8108 -2.8146,-0.8471 -0.092,0 -0.1828,0 -0.2712,0 z" />
    </g>
    <g
       id="g128157"
       transform="matrix(0.88315865,0,0,0.88315865,-1200.4671,2649.5489)"
       inkscape:export-filename="C:\Users\Tero\Documents\Work\git\simucube-docs.github.io\docs\ActivePedal\assets\hazards.png"
       inkscape:export-xdpi="60.014366"
       inkscape:export-ydpi="60.014366">
      <path
         style="fill:#000000;stroke:#000000;stroke-width:16.6935;stroke-linecap:round;stroke-linejoin:round;stroke-miterlimit:4;stroke-dasharray:none;stroke-opacity:1"
         d="m 1227.0392,-3000.4727 15.1136,-77.1097 73.1001,0.3082 14.4967,76.1847 z"
         id="path128147" />
      <circle
         style="fill:none;stroke:#000000;stroke-width:12;stroke-linejoin:round;stroke-miterlimit:4;stroke-dasharray:none;paint-order:stroke markers fill"
         id="circle128149"
         cx="1278.2097"
         cy="-3101.8481"
         r="17.367985" />
      <text
         xml:space="preserve"
         style="font-style:normal;font-variant:normal;font-weight:bold;font-stretch:normal;font-size:34.6434px;line-height:1.25;font-family:aria;-inkscape-font-specification:'aria Bold';text-align:center;text-anchor:middle;fill:#ffffff;fill-opacity:1;stroke:none;stroke-width:0.866088"
         x="1277.8693"
         y="-3048.3113"
         id="text128155"><tspan
           sodipodi:role="line"
           id="tspan128151"
           style="font-style:normal;font-variant:normal;font-weight:bold;font-stretch:normal;font-family:aria;-inkscape-font-specification:'aria Bold';text-align:center;text-anchor:middle;fill:#ffffff;stroke-width:0.866088"
           x="1277.8693"
           y="-3048.3113">kg</tspan><tspan
           sodipodi:role="line"
           style="font-style:normal;font-variant:normal;font-weight:bold;font-stretch:normal;font-family:aria;-inkscape-font-specification:'aria Bold';text-align:center;text-anchor:middle;fill:#ffffff;stroke-width:0.866088"
           x="1277.8693"
           y="-3005.0071"
           id="tspan128153">lbs</tspan></text>
    </g>
    <text
       xml:space="preserve"
       style="font-style:normal;font-variant:normal;font-weight:normal;font-stretch:normal;font-size:24.8774px;line-height:1.25;font-family:TTSupermolot-Bold;-inkscape-font-specification:TTSupermolot-Bold;stroke-width:0.621938"
       x="-0.11631719"
       y="-59.069992"
       id="text128165"
       inkscape:export-filename="C:\Users\Tero\Documents\Work\git\simucube-docs.github.io\docs\ActivePedal\assets\hazards.png"
       inkscape:export-xdpi="60.014366"
       inkscape:export-ydpi="60.014366"><tspan
         sodipodi:role="line"
         id="tspan128159"
         style="font-style:normal;font-variant:normal;font-weight:normal;font-stretch:normal;font-family:TTSupermolot-Bold;-inkscape-font-specification:TTSupermolot-Bold;stroke-width:0.621938"
         x="-0.11631719"
         y="-59.069992">170 kg</tspan><tspan
         sodipodi:role="line"
         style="font-style:normal;font-variant:normal;font-weight:normal;font-stretch:normal;font-family:TTSupermolot-Bold;-inkscape-font-specification:TTSupermolot-Bold;stroke-width:0.621938"
         x="-0.11631719"
         y="-27.973242"
         id="tspan128161">375 lbs</tspan><tspan
         sodipodi:role="line"
         style="font-style:normal;font-variant:normal;font-weight:normal;font-stretch:normal;font-family:TTSupermolot-Bold;-inkscape-font-specification:TTSupermolot-Bold;stroke-width:0.621938"
         x="-0.11631719"
         y="3.1235065"
         id="tspan128163">1670 N</tspan></text>
    <text
       xml:space="preserve"
       style="font-style:normal;font-variant:normal;font-weight:normal;font-stretch:normal;font-size:24.8774px;line-height:1.25;font-family:TTSupermolot-Bold;-inkscape-font-specification:TTSupermolot-Bold;stroke-width:0.621938"
       x="246.28163"
       y="-45.733566"
       id="text128171"
       inkscape:export-filename="C:\Users\Tero\Documents\Work\git\simucube-docs.github.io\docs\ActivePedal\assets\hazards.png"
       inkscape:export-xdpi="60.014366"
       inkscape:export-ydpi="60.014366"><tspan
         sodipodi:role="line"
         style="font-style:normal;font-variant:normal;font-weight:normal;font-stretch:normal;font-family:TTSupermolot-Bold;-inkscape-font-specification:TTSupermolot-Bold;stroke-width:0.621938"
         x="246.28163"
         y="-45.733566"
         id="tspan128167">100 mm</tspan><tspan
         sodipodi:role="line"
         style="font-style:normal;font-variant:normal;font-weight:normal;font-stretch:normal;font-family:TTSupermolot-Bold;-inkscape-font-specification:TTSupermolot-Bold;stroke-width:0.621938"
         x="246.28163"
         y="-14.636817"
         id="tspan128169">4 &quot;</tspan></text>
    <path
       style="fill:#000000;stroke-width:0.0630275"
       d="m 449.3522,7.3262 c -11.0474,-0.7008 -21.5076,-5.1546 -29.707,-12.6488 -7.6478,-6.9901 -12.9058,-16.3012 -14.8812,-26.3515 -0.6569,-3.3427 -0.9187,-6.0788 -0.9168,-9.5875 0,-4.2256 0.4455,-7.8576 1.447,-11.8503 2.9147,-11.621 10.0932,-21.807 20.0923,-28.5103 5.8914,-3.9494 12.4016,-6.5099 19.3961,-7.6289 2.6129,-0.4178 4.6459,-0.569 7.6579,-0.5694 2.4252,0 3.4797,0.05 5.2943,0.2507 8.757,0.9701 16.8408,4.152 23.8225,9.3769 9.8151,7.3452 16.4627,17.9932 18.7176,29.9813 0.8599,4.572 1.0505,9.6664 0.5366,14.3377 -1.4381,13.0695 -8.0624,24.9171 -18.4732,33.0395 -7.7386,6.0379 -16.985,9.5314 -26.9029,10.1647 -1.1472,0.073 -4.9035,0.071 -6.0832,0 z m 6.6532,-7.8381 c 5.3557,-0.5063 10.0297,-1.8222 14.6186,-4.1161 4.5672,-2.2829 8.4686,-5.2112 11.9056,-8.9362 8.0964,-8.7746 11.9245,-20.6471 10.4958,-32.5517 -1.4739,-12.2812 -8.4531,-23.2333 -18.9829,-29.7891 -5.3606,-3.3373 -11.075,-5.2799 -17.5997,-5.9831 -1.268,-0.1366 -5.3485,-0.1946 -6.7308,-0.096 -3.4921,0.2499 -6.7178,0.8773 -9.9618,1.9371 -14.0238,4.582 -24.5741,16.5117 -27.3878,30.9685 -1.955,10.045 -0.098,20.4218 5.209,29.1149 2.1102,3.4562 4.5629,6.3943 7.7439,9.2762 3.2544,2.9485 7.6026,5.6485 11.841,7.3525 4.3546,1.7507 8.3783,2.6276 13.488,2.9395 0.835,0.052 4.4102,-0.026 5.3611,-0.1168 z m -4.0692,-3.8088 c -0.604,-0.1986 -1.1127,-0.6767 -1.3044,-1.2261 -0.1014,-0.2908 -0.1137,-0.5705 -0.1137,-2.5949 0,-2.0319 0.012,-2.3033 0.1148,-2.5981 0.1616,-0.463 0.5771,-0.9027 1.057,-1.1181 0.3451,-0.1547 0.4464,-0.1719 0.8723,-0.1473 0.7563,0.045 1.2927,0.3919 1.6584,1.0762 0.1395,0.261 0.1426,0.3137 0.1608,2.6672 0.017,2.2918 0.013,2.4169 -0.1108,2.7467 -0.1674,0.4474 -0.4722,0.7984 -0.8911,1.0265 -0.2701,0.1469 -0.4279,0.1861 -0.8105,0.2011 -0.2614,0.011 -0.5461,-0.01 -0.6328,-0.034 z M 434.524,-8.9945 c -0.6191,-0.1553 -1.162,-0.6267 -1.3773,-1.1956 -0.1037,-0.2743 -0.1254,-0.4467 -0.1044,-0.8258 0.03,-0.5384 -0.079,-0.3118 1.3408,-2.804 0.9266,-1.6276 1.2838,-2.0687 1.8232,-2.2522 0.3906,-0.1328 0.9971,-0.1356 1.3764,-0.01 0.6114,0.2082 1.157,0.9058 1.2251,1.5659 0.063,0.61 -0.014,0.8448 -0.623,1.9066 -0.3148,0.5488 -0.7997,1.3949 -1.0775,1.8802 -0.2777,0.4853 -0.5875,0.9877 -0.6885,1.1164 -0.3684,0.47 -1.2858,0.7677 -1.8948,0.6149 z m 35.0211,0.01 c -0.3408,-0.087 -0.7473,-0.3131 -0.9489,-0.5262 -0.337,-0.3563 -2.3381,-3.8886 -2.4498,-4.3245 -0.1709,-0.6673 0.024,-1.3131 0.5489,-1.8144 0.3904,-0.3732 0.6406,-0.4808 1.195,-0.5136 0.9459,-0.056 1.4448,0.2659 2.0566,1.3277 0.2041,0.3545 0.7014,1.2167 1.1051,1.9161 0.4036,0.6995 0.767,1.4031 0.8074,1.5636 0.2209,0.8775 -0.2627,1.8716 -1.0878,2.2357 -0.3299,0.1455 -0.9301,0.212 -1.2265,0.1356 z M 421.4749,-21.877 c -0.7746,-0.2762 -1.2616,-0.981 -1.2656,-1.8313 0,-0.5373 0.194,-1.0133 0.5658,-1.3712 0.2916,-0.2804 3.8525,-2.3489 4.2168,-2.4494 0.3879,-0.1071 1.0188,-0.038 1.3944,0.1527 1.1496,0.5834 1.4065,2.1859 0.4947,3.0848 -0.223,0.22 -3.5699,2.1956 -4.0815,2.4094 -0.2841,0.1187 -0.9984,0.1214 -1.3246,0.01 z m 60.6831,0.014 c -0.265,-0.095 -3.9409,-2.2346 -4.1066,-2.3898 -0.075,-0.07 -0.2299,-0.302 -0.3446,-0.5156 -0.184,-0.3424 -0.2084,-0.4446 -0.207,-0.8612 0,-0.3545 0.038,-0.5558 0.1481,-0.8048 0.1835,-0.4166 0.7077,-0.9088 1.1156,-1.0479 0.3667,-0.1249 0.9322,-0.1304 1.2668,-0.013 0.4482,0.1582 3.8799,2.1787 4.1571,2.4475 0.3973,0.3856 0.5455,0.8079 0.5114,1.4573 -0.022,0.4232 -0.06,0.5801 -0.1958,0.8119 -0.2232,0.3806 -0.6757,0.771 -1.0361,0.8938 -0.3295,0.1123 -1.0249,0.1235 -1.3089,0.021 z m -30.5369,-12.9053 c -2.028,-0.2709 -3.8393,-1.5095 -4.8222,-3.2976 -0.5664,-1.0304 -0.8185,-2.117 -0.7703,-3.3206 0.027,-0.6882 0.1408,-1.3304 0.8948,-5.0738 0.4748,-2.3572 1.5535,-7.7218 2.3973,-11.9212 0.8437,-4.1996 1.5764,-7.7165 1.6282,-7.8155 0.1206,-0.2304 0.453,-0.5431 0.7352,-0.6916 0.3257,-0.1715 1.0811,-0.1608 1.4225,0.02 0.3212,0.1701 0.6839,0.5664 0.774,0.8457 0.038,0.1173 0.312,1.3901 0.6093,2.8287 0.2973,1.4387 0.9212,4.445 1.3862,6.681 0.789,3.7935 1.8471,8.8992 2.6503,12.7887 0.3979,1.9268 0.4535,2.4617 0.3454,3.321 -0.1766,1.4026 -0.7379,2.6121 -1.6746,3.6078 -0.583,0.6197 -0.9844,0.9307 -1.6768,1.299 -1.2259,0.652 -2.5785,0.9046 -3.8993,0.7282 z m -34.5135,-4.538 c -0.4064,-0.084 -0.684,-0.2212 -0.969,-0.4786 -0.9917,-0.896 -0.7687,-2.5715 0.4198,-3.1552 l 0.366,-0.1797 h 2.4896 c 2.4632,0 2.4924,0 2.7557,0.1422 0.6795,0.3631 1.0264,0.8893 1.075,1.6302 0.021,0.321 0,0.5412 -0.079,0.7728 -0.1434,0.4317 -0.6228,0.9532 -1.0568,1.1493 -0.3279,0.1482 -0.3609,0.1503 -2.5381,0.1612 -1.2134,0.01 -2.3221,-0.014 -2.4641,-0.043 z m 66.1121,0 c -0.6143,-0.1273 -1.128,-0.5419 -1.3955,-1.1261 -0.4236,-0.9252 -0.03,-2.0291 0.8971,-2.5186 l 0.3191,-0.1684 2.3533,-0.019 c 2.6527,-0.021 2.7814,-0.01 3.3026,0.4108 0.1997,0.1594 0.3663,0.3731 0.5041,0.6465 0.178,0.353 0.2058,0.4725 0.2058,0.8824 0,0.7964 -0.3922,1.3988 -1.1574,1.7775 -0.2865,0.1418 -0.3355,0.1449 -2.5296,0.1566 -1.2307,0.01 -2.3555,-0.013 -2.4995,-0.043 z m -58.1126,-15.5673 c -0.331,-0.069 -0.3031,-0.054 -2.3993,-1.2669 -0.9622,-0.5567 -1.843,-1.1018 -1.9572,-1.2113 -0.557,-0.5344 -0.7139,-1.4703 -0.3682,-2.1963 0.1868,-0.392 0.5182,-0.7271 0.9353,-0.9454 0.2174,-0.1137 0.3765,-0.142 0.8065,-0.144 0.4831,0 0.5728,0.017 0.9139,0.198 0.9018,0.4778 3.5508,2.0433 3.7741,2.2303 0.5802,0.486 0.7917,1.5011 0.4625,2.22 -0.3748,0.8188 -1.3027,1.2964 -2.1676,1.1156 z m 54.0256,0.023 c -1.344,-0.3159 -1.9926,-1.5235 -1.4718,-2.7405 0.2003,-0.468 0.5659,-0.754 2.0706,-1.6196 0.78,-0.4487 1.6166,-0.931 1.8593,-1.0718 0.5358,-0.3109 0.9375,-0.4189 1.3857,-0.3727 0.6971,0.073 1.2285,0.4399 1.5421,1.0675 0.164,0.3282 0.1921,0.455 0.1921,0.8684 0,0.4142 -0.028,0.5399 -0.1936,0.8713 -0.2431,0.4867 -0.3868,0.6034 -1.614,1.3105 -0.5484,0.3161 -1.3517,0.7794 -1.7849,1.0299 -0.4334,0.2504 -0.8781,0.493 -0.9883,0.539 -0.2256,0.094 -0.8058,0.163 -0.9972,0.118 z m -42.8649,-11.4801 c -0.693,-0.2484 -0.747,-0.3198 -2.3272,-3.0717 -0.8644,-1.5057 -0.9114,-1.6158 -0.912,-2.1431 0,-1.0724 0.8318,-1.9196 1.8902,-1.922 0.9035,0 1.3891,0.3604 2.068,1.5439 0.2388,0.4159 0.7105,1.2358 1.0485,1.8217 0.338,0.586 0.6543,1.178 0.7029,1.3158 0.2016,0.5713 0.056,1.3558 -0.3432,1.861 -0.4511,0.5695 -1.432,0.8436 -2.1272,0.5944 z m 31.2364,0.028 c -0.8479,-0.2444 -1.407,-0.9934 -1.4015,-1.8773 0,-0.539 0.032,-0.6014 1.2429,-2.7104 1.1027,-1.9205 1.3569,-2.2457 1.9217,-2.459 0.5041,-0.1902 1.1723,-0.147 1.6378,0.1061 0.7985,0.4342 1.2099,1.4642 0.9166,2.2954 -0.1384,0.3922 -2.1714,3.8779 -2.4088,4.13 -0.4476,0.4751 -1.2739,0.6981 -1.9087,0.5152 z m -15.4586,-4.1426 c -0.6086,-0.1522 -1.0932,-0.5529 -1.3624,-1.1269 l -0.1651,-0.3521 v -2.3649 -2.3648 l 0.2077,-0.4219 c 0.3512,-0.7132 0.9202,-1.0717 1.7147,-1.0802 0.6227,-0.01 1.0233,0.1678 1.4456,0.6299 0.5116,0.5598 0.5154,0.5855 0.4946,3.34 -0.017,2.321 -0.022,2.396 -0.1577,2.6716 -0.3932,0.7971 -1.3624,1.2731 -2.1774,1.0693 z m 40.8189,-4.331 c -2.1567,-2.5768 -4.3342,-4.7518 -6.9119,-6.9037 l -0.6805,-0.5679 0.1577,-0.164 c 0.6086,-0.6333 3.0577,-3.0493 3.1704,-3.1277 0.1348,-0.094 0.1392,-0.1324 0.137,-1.1822 0,-1.9519 0.2649,-2.8219 1.1472,-3.7086 0.7136,-0.7174 1.7267,-1.127 2.7877,-1.127 0.6901,0 1.1835,0.1227 1.8394,0.4571 0.4844,0.247 0.6615,0.4144 4.5132,4.2647 4.2194,4.2178 4.2924,4.3 4.6026,5.1735 0.1967,0.554 0.2138,1.8591 0.031,2.3951 -0.4669,1.3711 -1.4249,2.2903 -2.7273,2.617 -0.9471,0.2375 -2.6848,0.2209 -3.9543,-0.038 l -0.6293,-0.1283 -1.3913,1.3901 c -0.7652,0.7646 -1.4094,1.3902 -1.4316,1.3902 -0.022,0 -0.3192,-0.3332 -0.6602,-0.7405 z m -46.2517,-19.0219 c -0.071,-0.5653 -0.2775,-1.2273 -0.5209,-1.6669 -0.2983,-0.539 -1.1226,-1.358 -1.6386,-1.6282 -0.8392,-0.4393 -0.9718,-0.4647 -2.6959,-0.5174 -1.7429,-0.053 -2.0016,-0.098 -2.7576,-0.4769 -0.6073,-0.3045 -1.3812,-1.0792 -1.6648,-1.6669 -0.4299,-0.8902 -0.4308,-0.8981 -0.4308,-3.6837 0,-2.2202 0.014,-2.5693 0.1118,-2.9262 0.1839,-0.6658 0.4821,-1.1952 0.9526,-1.6913 0.5061,-0.5336 0.9467,-0.8187 1.6464,-1.0661 l 0.5035,-0.1779 h 12.3535 12.3534 l 0.4727,0.1682 c 0.7111,0.253 1.0547,0.469 1.5815,0.9938 0.5215,0.5197 0.8566,1.1026 1.0333,1.7978 0.1395,0.5491 0.1398,5.1894 0,5.7405 -0.3403,1.3442 -1.4624,2.4797 -2.8043,2.8378 -0.3056,0.082 -0.802,0.1205 -1.9539,0.1534 -1.4368,0.041 -1.5762,0.055 -2.0064,0.2068 -1.0866,0.3823 -1.9391,1.1503 -2.4343,2.1929 -0.2265,0.4771 -0.4092,1.1722 -0.4112,1.5646 v 0.2142 l -0.457,-0.039 c -4.0376,-0.3445 -6.6394,-0.364 -9.8796,-0.074 -1.4431,0.129 -1.3014,0.1558 -1.3528,-0.2554 z"
       id="path128173"
       inkscape:export-filename="C:\Users\Tero\Documents\Work\git\simucube-docs.github.io\docs\ActivePedal\assets\hazards.png"
       inkscape:export-xdpi="60.014366"
       inkscape:export-ydpi="60.014366" />
    <text
       xml:space="preserve"
       style="font-style:normal;font-variant:normal;font-weight:normal;font-stretch:normal;font-size:24.8774px;line-height:1.25;font-family:TTSupermolot-Bold;-inkscape-font-specification:TTSupermolot-Bold;stroke-width:0.621938"
       x="522.08093"
       y="-34.047287"
       id="text128179"
       inkscape:export-filename="C:\Users\Tero\Documents\Work\git\simucube-docs.github.io\docs\ActivePedal\assets\hazards.png"
       inkscape:export-xdpi="60.014366"
       inkscape:export-ydpi="60.014366"><tspan
         sodipodi:role="line"
         style="font-style:normal;font-variant:normal;font-weight:normal;font-stretch:normal;font-family:TTSupermolot-Bold;-inkscape-font-specification:TTSupermolot-Bold;stroke-width:0.621938"
         x="522.08093"
         y="-34.047287"
         id="tspan128175">0.1 s</tspan><tspan
         sodipodi:role="line"
         style="font-style:normal;font-variant:normal;font-weight:normal;font-stretch:normal;font-family:TTSupermolot-Bold;-inkscape-font-specification:TTSupermolot-Bold;stroke-width:0.621938"
         x="522.08093"
         y="-2.9505377"
         id="tspan128177" /></text>
    <text
       xml:space="preserve"
       style="font-size:55.4204px;line-height:1.25;font-family:TTSupermolot-Regular;-inkscape-font-specification:TTSupermolot-Regular;stroke-width:1.38551"
       x="107.51564"
       y="-32.268478"
       id="text128183"
       inkscape:export-filename="C:\Users\Tero\Documents\Work\git\simucube-docs.github.io\docs\ActivePedal\assets\hazards.png"
       inkscape:export-xdpi="60.014366"
       inkscape:export-ydpi="60.014366"><tspan
         sodipodi:role="line"
         id="tspan128181"
         style="stroke-width:1.38551"
         x="107.51564"
         y="-32.268478">+</tspan></text>
    <text
       xml:space="preserve"
       style="font-size:55.4204px;line-height:1.25;font-family:TTSupermolot-Regular;-inkscape-font-specification:TTSupermolot-Regular;stroke-width:1.38551"
       x="355.54544"
       y="-32.268478"
       id="text128187"
       inkscape:export-filename="C:\Users\Tero\Documents\Work\git\simucube-docs.github.io\docs\ActivePedal\assets\hazards.png"
       inkscape:export-xdpi="60.014366"
       inkscape:export-ydpi="60.014366"><tspan
         sodipodi:role="line"
         id="tspan128185"
         style="stroke-width:1.38551"
         x="355.54544"
         y="-32.268478">+</tspan></text>
    <path
       style="fill:none;stroke:#000000;stroke-width:3.53263;stroke-linecap:butt;stroke-linejoin:miter;stroke-miterlimit:4;stroke-dasharray:none;stroke-opacity:1"
       d="M -157.9724,-138.5826 V 34.0319"
       id="path128442" />
  </g>
</svg>
