<?xml version="1.0" encoding="UTF-8"?>
<svg id="Layer_2" data-name="Layer 2" xmlns="http://www.w3.org/2000/svg" viewBox="0 0 596.05 392.06">
  <defs>
    <style>
      .cls-1 {
        stroke-width: .71px;
      }

      .cls-1, .cls-2, .cls-3 {
        fill: none;
        stroke: #fff;
        stroke-linecap: round;
        stroke-linejoin: round;
      }

      .cls-2 {
        stroke-width: 2px;
      }

      .cls-3 {
        stroke-width: 1.42px;
      }

      .cls-4 {
        fill: #e84e0f;
        stroke-width: 0px;
      }
    </style>
  </defs>
  <g id="dark">
    <g id="nuoli">
      <g id="LINE">
        <g>
          <path class="cls-4" d="m431.5,176.33c.17-.3.42-.54.66-.64.16-.06.3-.06.41-.01h.02c.17.11.27.34.23.66l-2.76,22.42c-.05.45-.36.95-.73,1.18l-16.08,10.21c-.22.14-.44.17-.59.08-.31-.17-.31-.74,0-1.27l3.52-6.1c.3-.52.3-1.09,0-1.27h-.01c-.09-.05-.18-.1-.28-.14-16.28-8.36-41.95,7.14-57.5,34.79-2.12,3.76-3.98,7.64-5.55,11.56-.22.55-.69.96-1.06.93l-12.05-1.08h0c-.06-.01-.11-.02-.15-.05h-.01c-.24-.15-.29-.56-.11-1.03,2.26-5.66,4.94-11.26,8.01-16.68,21.57-38.04,56.95-59.17,79.26-47.45.14.07.27.14.4.21.31.17.8-.12,1.1-.64l3.28-5.68Z"/>
          <g>
            <path class="cls-2" d="m430.06,198.76c-.05.45-.36.95-.73,1.18"/>
            <line class="cls-2" x1="430.06" y1="198.76" x2="432.82" y2="176.34"/>
            <path class="cls-2" d="m412.27,208.74c-.31.52-.31,1.09,0,1.27"/>
            <line class="cls-2" x1="412.27" y1="208.74" x2="415.79" y2="202.64"/>
            <path class="cls-2" d="m415.87,201.43l.02.02c.2.24.16.73-.1,1.19"/>
            <path class="cls-2" d="m339.06,246.35c-.18.46-.13.88.12,1.03"/>
            <path class="cls-2" d="m426.73,182.42c-22.29-12.18-57.96,8.98-79.65,47.25-3.07,5.41-5.76,11.01-8.02,16.68"/>
            <path class="cls-2" d="m427.83,181.78c-.3.53-.79.81-1.1.64"/>
            <line class="cls-2" x1="431.11" y1="176.1" x2="427.83" y2="181.78"/>
            <path class="cls-2" d="m432.21,175.47c-.31-.18-.8.11-1.1.63"/>
            <path class="cls-2" d="m432.59,175.69c.17.1.27.33.23.65"/>
            <path class="cls-2" d="m431.5,176.33c.17-.3.42-.54.66-.64.16-.06.3-.06.41-.01"/>
            <line class="cls-2" x1="431.5" y1="176.33" x2="428.22" y2="182.01"/>
            <path class="cls-2" d="m427.12,182.65c.31.17.8-.12,1.1-.64"/>
            <path class="cls-2" d="m427.12,182.65c-.13-.07-.26-.14-.4-.21-22.31-11.72-57.69,9.41-79.26,47.45-3.07,5.42-5.75,11.02-8.01,16.68"/>
            <path class="cls-2" d="m416.18,202.86c.3-.52.3-1.09,0-1.27h-.01"/>
            <line class="cls-2" x1="416.18" y1="202.86" x2="412.66" y2="208.96"/>
            <path class="cls-2" d="m413.25,210.15c-.22.14-.44.17-.59.08-.31-.17-.31-.74,0-1.27"/>
            <line class="cls-2" x1="413.25" y1="210.15" x2="429.33" y2="199.94"/>
            <path class="cls-2" d="m352.84,247.8c-.22.55-.69.96-1.06.93"/>
            <path class="cls-2" d="m352.84,247.8c1.57-3.92,3.43-7.8,5.55-11.56,15.55-27.65,41.22-43.15,57.5-34.79.1.04.19.09.28.14"/>
            <path class="cls-2" d="m339.56,247.59c-.24-.14-.29-.55-.11-1.02"/>
            <path class="cls-2" d="m339.73,247.65h0c-.06-.01-.11-.02-.15-.05"/>
            <line class="cls-2" x1="339.73" y1="247.65" x2="351.78" y2="248.73"/>
            <polyline class="cls-2" points="432.21 175.47 432.57 175.68 432.59 175.69 432.6 175.69"/>
            <line class="cls-2" x1="412.27" y1="210.01" x2="412.66" y2="210.23"/>
            <polyline class="cls-2" points="339.18 247.38 339.56 247.59 339.57 247.6"/>
          </g>
        </g>
      </g>
    </g>
    <g id="Layer_6" data-name="Layer 6">
      <g id="LINE-2" data-name="LINE">
        <line class="cls-3" x1="428.4" y1="290.37" x2="394.85" y2="271"/>
      </g>
      <g id="LINE-3" data-name="LINE">
        <line class="cls-3" x1="443.16" y1="260.76" x2="411.36" y2="242.4"/>
      </g>
      <g id="ELLIPSE">
        <path class="cls-3" d="m384.08,280.67c-8.36-4.83-8.36-20.48,0-34.95,8.36-14.48,21.91-22.3,30.27-17.48"/>
      </g>
      <g id="ELLIPSE-2" data-name="ELLIPSE">
        <path class="cls-3" d="m407.53,278.32c-2.92,2.4-5.94,4.14-8.86,5.12-11.57,3.85-18.96-5-16.51-19.76s13.81-29.86,25.37-33.71c11.57-3.85,18.96,5,16.51,19.76"/>
      </g>
      <g id="ELLIPSE-3" data-name="ELLIPSE">
        <path class="cls-3" d="m131.19,133.09c-3.28-5.31-3.28-13.91,0-23.01,5.5-15.26,18.45-27.37,28.91-27.06"/>
      </g>
      <g id="SPLINE">
        <path class="cls-3" d="m185.67,83.5c-2.53-1.46-5.32-2.45-8.08-2.95-3-.54-5.97-.53-8.74-.13-3.44.49-6.6,1.56-9.49,2.95-3.74,1.8-7.07,4.15-10.07,6.85-3.32,2.98-6.24,6.41-8.75,10.13s-4.56,7.64-6.14,11.78-2.7,8.47-3.16,12.89-.3,8.91.92,13.47c.96,3.61,2.63,7.28,5.26,10.54,1.88,2.33,4.27,4.42,6.97,5.98"/>
      </g>
      <g id="LINE-4" data-name="LINE">
        <line class="cls-3" x1="367.57" y1="283.85" x2="144.39" y2="155"/>
      </g>
      <g id="LINE-5" data-name="LINE">
        <line class="cls-3" x1="408.84" y1="212.35" x2="392.49" y2="202.91"/>
      </g>
      <g id="LINE-6" data-name="LINE">
        <line class="cls-3" x1="377.31" y1="194.14" x2="185.67" y2="83.5"/>
      </g>
      <g id="SPLINE-2" data-name="SPLINE">
        <path class="cls-3" d="m408.84,212.35c2.53,1.46,4.78,3.38,6.6,5.52,1.97,2.33,3.44,4.9,4.48,7.5,1.18,2.96,1.83,5.94,2.12,8.88"/>
      </g>
      <g id="SPLINE-3" data-name="SPLINE">
        <path class="cls-3" d="m393.14,284.33c-1.63.74-3.35,1.37-5.15,1.86-3.6.97-7.62,1.37-11.76.71-2.96-.47-5.96-1.49-8.66-3.05"/>
      </g>
      <g id="LINE-7" data-name="LINE">
        <line class="cls-3" x1="387.97" y1="282.92" x2="384.08" y2="280.67"/>
      </g>
      <g id="LINE-8" data-name="LINE">
        <line class="cls-3" x1="418.24" y1="230.48" x2="414.35" y2="228.24"/>
      </g>
      <g id="ELLIPSE-4" data-name="ELLIPSE">
        <path class="cls-3" d="m20.54,34.13c-1.89,1.15-3.34,3.01-4.22,5.46"/>
      </g>
      <g id="ELLIPSE-5" data-name="ELLIPSE">
        <path class="cls-3" d="m39.69,80.06c2.56.46,4.9.14,6.84-.93"/>
      </g>
      <g id="ELLIPSE-6" data-name="ELLIPSE">
        <path class="cls-3" d="m15.11,43.89c.93-9.38,7.71-13.29,16.3-9.41,10.09,4.57,19.15,18.22,20.24,30.5,1.09,12.28-6.21,18.53-16.3,13.97"/>
      </g>
      <g id="ELLIPSE-7" data-name="ELLIPSE">
        <ellipse class="cls-3" cx="33.38" cy="56.72" rx="19.07" ry="33.02" transform="translate(-23.89 24.29) rotate(-30)"/>
      </g>
      <g id="ELLIPSE-8" data-name="ELLIPSE">
        <path class="cls-3" d="m33.43,29.56c-12.93-7.43-23.4-1.37-23.4,13.57"/>
      </g>
      <g id="ELLIPSE-9" data-name="ELLIPSE">
        <path class="cls-3" d="m33.48,83.74c12.93,7.47,23.42,1.43,23.45-13.48"/>
      </g>
      <g id="ELLIPSE-10" data-name="ELLIPSE">
        <ellipse class="cls-3" cx="33.38" cy="56.72" rx="19.22" ry="33.3" transform="translate(-23.89 24.29) rotate(-30)"/>
      </g>
      <g id="ELLIPSE-11" data-name="ELLIPSE">
        <ellipse class="cls-3" cx="29.49" cy="58.97" rx="12.23" ry="21.19" transform="translate(-25.53 22.64) rotate(-30)"/>
      </g>
      <g id="ELLIPSE-12" data-name="ELLIPSE">
        <ellipse class="cls-3" cx="29.49" cy="58.97" rx="7.94" ry="13.76" transform="translate(-25.53 22.64) rotate(-30)"/>
      </g>
      <g id="SPLINE-4" data-name="SPLINE">
        <path class="cls-3" d="m131.19,133.09c-.16.25-.33.51-.51.76"/>
      </g>
      <g id="SPLINE-5" data-name="SPLINE">
        <path class="cls-3" d="m130.68,105.42c.41,1.06.78,2.08,1.12,3.05"/>
      </g>
      <g id="LINE-9" data-name="LINE">
        <line class="cls-3" x1="118.67" y1="98.49" x2="130.68" y2="105.42"/>
      </g>
      <g id="SPLINE-6" data-name="SPLINE">
        <path class="cls-3" d="m115.91,99.34c.18-.3.39-.57.61-.76.28-.23.68-.41,1.08-.41.31,0,.71.11,1.06.31"/>
      </g>
      <g id="SPLINE-7" data-name="SPLINE">
        <path class="cls-3" d="m114.3,102.77c.42-1.16.95-2.29,1.61-3.43"/>
      </g>
      <g id="SPLINE-8" data-name="SPLINE">
        <path class="cls-3" d="m111.55,108.59c.94-1.75,1.98-3.68,2.75-5.83"/>
      </g>
      <g id="SPLINE-9" data-name="SPLINE">
        <path class="cls-3" d="m114.3,117.6c-.77-3.03-1.82-6.17-2.75-9"/>
      </g>
      <g id="SPLINE-10" data-name="SPLINE">
        <path class="cls-3" d="m115.91,122.89c-.66-1.9-1.2-3.66-1.61-5.29"/>
      </g>
      <g id="SPLINE-11" data-name="SPLINE">
        <path class="cls-3" d="m118.67,126.91c-.35-.2-.75-.55-1.06-.91-.4-.46-.8-1.09-1.08-1.65-.23-.45-.44-.96-.61-1.47"/>
      </g>
      <g id="LINE-10" data-name="LINE">
        <line class="cls-3" x1="130.68" y1="133.85" x2="118.67" y2="126.91"/>
      </g>
      <g id="ELLIPSE-13" data-name="ELLIPSE">
        <path class="cls-3" d="m161.42,82.45c-9.29-3.07-22.75,6.56-30.06,21.51-.24.48-.46.97-.68,1.46"/>
      </g>
      <g id="ELLIPSE-14" data-name="ELLIPSE">
        <path class="cls-3" d="m130.68,133.85c.22.23.45.46.68.67"/>
      </g>
      <g id="LINE-11" data-name="LINE">
        <line class="cls-3" x1="10.03" y1="43.24" x2="10.03" y2="43.13"/>
      </g>
      <g id="LINE-12" data-name="LINE">
        <line class="cls-3" x1="33.38" y1="83.68" x2="33.48" y2="83.74"/>
      </g>
      <g id="ARC">
        <path class="cls-3" d="m14.52,51.01c-.13-3.89.48-7.77,1.8-11.43"/>
      </g>
      <g id="ARC-2" data-name="ARC">
        <path class="cls-3" d="m39.69,80.06c-3.83-.68-7.5-2.09-10.8-4.15"/>
      </g>
      <g id="SPLINE-12" data-name="SPLINE">
        <path class="cls-3" d="m74.28,21.7c-2.07-2.74-4.3-5.29-6.62-7.6s-4.75-4.38-7.22-6.16-4.99-3.26-7.49-4.41-5-1.96-7.44-2.41-4.81-.53-7.05-.23"/>
      </g>
      <g id="ARC-3" data-name="ARC">
        <path class="cls-3" d="m87.83,39.89c-4.46-6.11-8.97-12.17-13.55-18.19"/>
      </g>
      <g id="ARC-4" data-name="ARC">
        <path class="cls-3" d="m90.82,43.76c-1.04-1.26-2.03-2.55-2.99-3.87"/>
      </g>
      <g id="ARC-5" data-name="ARC">
        <path class="cls-3" d="m93.8,46.62c-1.08-.86-2.08-1.82-2.98-2.87"/>
      </g>
      <g id="ARC-6" data-name="ARC">
        <path class="cls-3" d="m100.8,52.81c-2.24-2.17-4.58-4.23-7-6.18"/>
      </g>
      <g id="ARC-7" data-name="ARC">
        <path class="cls-3" d="m52.82,98.9c-.39.06-.77.12-1.16.17"/>
      </g>
      <g id="ARC-8" data-name="ARC">
        <path class="cls-3" d="m5.84,19.71C13.81,9.39,25.53,2.63,38.45.89"/>
      </g>
      <g id="ARC-9" data-name="ARC">
        <path class="cls-3" d="m104.97,55.97c-1.52-.87-2.92-1.94-4.17-3.17"/>
      </g>
      <g id="SPLINE-13" data-name="SPLINE">
        <path class="cls-3" d="m69.1,96.32c.28-.04.68-.09,1.19-.11s1.14-.01,1.86.05,1.54.19,2.42.39,1.82.49,2.78.86,1.92.83,2.84,1.37"/>
      </g>
      <g id="LINE-13" data-name="LINE">
        <line class="cls-3" x1="69.1" y1="96.32" x2="52.82" y2="98.9"/>
      </g>
      <g id="SPLINE-14" data-name="SPLINE">
        <path class="cls-3" d="m51.66,99.07c-3.08.41-6.39.1-9.79-.88s-7.2-2.79-10.78-5.18-7.14-5.46-10.43-8.99-6.33-7.52-8.98-11.79-4.91-8.8-6.67-13.39-3.02-9.23-3.7-13.69-.8-8.77-.31-12.68,1.57-7.42,3.25-10.36c.48-.85,1.01-1.64,1.59-2.39"/>
      </g>
      <g id="LINE-14" data-name="LINE">
        <line class="cls-3" x1="131.82" y1="78.53" x2="133.43" y2="77.6"/>
      </g>
      <g id="SPLINE-15" data-name="SPLINE">
        <path class="cls-3" d="m133.43,77.6c1.13-.65,2.29-1.22,3.47-1.69s2.38-.83,3.6-1.08,2.45-.37,3.69-.36,2.47.17,3.68.48,2.37.79,3.45,1.41"/>
      </g>
      <g id="LINE-15" data-name="LINE">
        <line class="cls-3" x1="161.67" y1="82.35" x2="151.31" y2="76.37"/>
      </g>
      <g id="LINE-16" data-name="LINE">
        <line class="cls-3" x1="131.4" y1="134.78" x2="121.04" y2="128.81"/>
      </g>
      <g id="ARC-10" data-name="ARC">
        <path class="cls-3" d="m121.04,128.81c-1.24-.72-2.37-1.63-3.34-2.69"/>
      </g>
      <g id="LINE-17" data-name="LINE">
        <line class="cls-3" x1="114.6" y1="118.73" x2="80.2" y2="98.87"/>
      </g>
      <g id="LINE-18" data-name="LINE">
        <line class="cls-3" x1="138.52" y1="75.34" x2="104.97" y2="55.97"/>
      </g>
      <g id="ELLIPSE-15" data-name="ELLIPSE">
        <path class="cls-3" d="m545.63,372.17c2.56.46,4.9.14,6.84-.93"/>
      </g>
      <g id="ELLIPSE-16" data-name="ELLIPSE">
        <path class="cls-3" d="m526.48,326.23c-1.89,1.15-3.34,3.01-4.22,5.46"/>
      </g>
      <g id="ELLIPSE-17" data-name="ELLIPSE">
        <path class="cls-3" d="m521.05,336c.93-9.38,7.71-13.29,16.3-9.41,10.09,4.57,19.15,18.22,20.24,30.5s-6.21,18.53-16.3,13.97"/>
      </g>
      <g id="ELLIPSE-18" data-name="ELLIPSE">
        <ellipse class="cls-3" cx="539.32" cy="348.83" rx="19.07" ry="33.02" transform="translate(-102.16 316.39) rotate(-30)"/>
      </g>
      <g id="ELLIPSE-19" data-name="ELLIPSE">
        <path class="cls-3" d="m539.42,375.85c12.93,7.47,23.42,1.43,23.45-13.48"/>
      </g>
      <g id="ELLIPSE-20" data-name="ELLIPSE">
        <path class="cls-3" d="m539.37,321.67c-12.93-7.43-23.4-1.37-23.4,13.57"/>
      </g>
      <g id="ELLIPSE-21" data-name="ELLIPSE">
        <ellipse class="cls-3" cx="539.32" cy="348.83" rx="19.22" ry="33.3" transform="translate(-102.16 316.39) rotate(-30)"/>
      </g>
      <g id="ELLIPSE-22" data-name="ELLIPSE">
        <ellipse class="cls-3" cx="535.43" cy="351.07" rx="12.23" ry="21.19" transform="translate(-103.8 314.75) rotate(-30)"/>
      </g>
      <g id="ELLIPSE-23" data-name="ELLIPSE">
        <ellipse class="cls-3" cx="535.43" cy="351.07" rx="7.94" ry="13.76" transform="translate(-103.8 314.75) rotate(-30)"/>
      </g>
      <g id="SPLINE-16" data-name="SPLINE">
        <path class="cls-3" d="m428.4,281.73c.53-1.1,1.18-2.19,1.95-3.29"/>
      </g>
      <g id="LINE-19" data-name="LINE">
        <line class="cls-3" x1="428.4" y1="301.32" x2="428.4" y2="281.73"/>
      </g>
      <g id="SPLINE-17" data-name="SPLINE">
        <path class="cls-3" d="m430.35,306.86c-.77-1.99-1.42-3.83-1.95-5.54"/>
      </g>
      <g id="LINE-20" data-name="LINE">
        <line class="cls-3" x1="442.36" y1="313.8" x2="430.35" y2="306.86"/>
      </g>
      <g id="SPLINE-18" data-name="SPLINE">
        <path class="cls-3" d="m445.11,312.95c-.18.3-.39.57-.61.76-.28.23-.68.41-1.08.41-.31,0-.71-.11-1.06-.31"/>
      </g>
      <g id="SPLINE-19" data-name="SPLINE">
        <path class="cls-3" d="m446.72,309.52c-.42,1.16-.95,2.29-1.61,3.43"/>
      </g>
      <g id="SPLINE-20" data-name="SPLINE">
        <path class="cls-3" d="m449.47,303.69c-.94,1.75-1.98,3.68-2.75,5.83"/>
      </g>
      <g id="SPLINE-21" data-name="SPLINE">
        <path class="cls-3" d="m446.72,294.69c.77,3.03,1.82,6.17,2.75,9"/>
      </g>
      <g id="SPLINE-22" data-name="SPLINE">
        <path class="cls-3" d="m445.11,289.4c.66,1.9,1.2,3.66,1.61,5.29"/>
      </g>
      <g id="SPLINE-23" data-name="SPLINE">
        <path class="cls-3" d="m442.36,285.37c.35.2.75.55,1.06.91.4.46.8,1.09,1.08,1.65.23.45.44.96.61,1.47"/>
      </g>
      <g id="LINE-21" data-name="LINE">
        <line class="cls-3" x1="430.35" y1="278.44" x2="442.36" y2="285.37"/>
      </g>
      <g id="SPLINE-24" data-name="SPLINE">
        <path class="cls-3" d="m480.14,269.18c-.18-.51-.39-1.01-.61-1.47-.28-.56-.68-1.2-1.08-1.65-.03-.04-.06-.07-.1-.11"/>
      </g>
      <g id="SPLINE-25" data-name="SPLINE">
        <path class="cls-3" d="m481.44,273.33c-.36-1.3-.8-2.69-1.31-4.15"/>
      </g>
      <g id="ELLIPSE-24" data-name="ELLIPSE">
        <path class="cls-3" d="m432.73,308.76c-.87-.5-1.67-1.14-2.38-1.89"/>
      </g>
      <g id="ELLIPSE-25" data-name="ELLIPSE">
        <path class="cls-3" d="m445.92,258.95c-7.46,4.31-14.26,13.16-17.51,22.79"/>
      </g>
      <g id="ELLIPSE-26" data-name="ELLIPSE">
        <path class="cls-3" d="m430.35,278.44c.71-1.58,1.5-3.13,2.38-4.64,8.36-14.48,21.91-22.3,30.27-17.48"/>
      </g>
      <g id="LINE-22" data-name="LINE">
        <line class="cls-3" x1="515.97" y1="335.34" x2="515.97" y2="335.23"/>
      </g>
      <g id="LINE-23" data-name="LINE">
        <line class="cls-3" x1="539.32" y1="375.79" x2="539.42" y2="375.85"/>
      </g>
      <g id="ARC-11" data-name="ARC">
        <path class="cls-3" d="m520.46,343.12c-.13-3.89.48-7.77,1.8-11.43"/>
      </g>
      <g id="ARC-12" data-name="ARC">
        <path class="cls-3" d="m545.63,372.17c-3.83-.68-7.5-2.09-10.8-4.15"/>
      </g>
      <g id="SPLINE-26" data-name="SPLINE">
        <path class="cls-3" d="m590.21,372.35c1.9-2.46,3.28-5.49,4.13-8.92s1.18-7.63.9-11.93-1.16-8.91-2.57-13.53c-1.41-4.6-3.35-9.24-5.72-13.67s-5.17-8.65-8.27-12.47c-3.1-3.82-6.49-7.23-10.01-10.05s-7.2-5.08-10.82-6.61-7.21-2.35-10.59-2.37c-.97,0-1.93.05-2.86.18"/>
      </g>
      <g id="ARC-13" data-name="ARC">
        <path class="cls-3" d="m590.21,372.35c-7.97,10.32-19.69,17.09-32.61,18.83"/>
      </g>
      <g id="ARC-14" data-name="ARC">
        <path class="cls-3" d="m543.23,293.16c.39-.06.77-.12,1.16-.17"/>
      </g>
      <g id="SPLINE-27" data-name="SPLINE">
        <path class="cls-3" d="m515.85,293.19c.92.53,1.89.99,2.84,1.37s1.9.66,2.78.86,1.7.32,2.42.39,1.35.07,1.86.05.91-.07,1.19-.11"/>
      </g>
      <g id="ARC-15" data-name="ARC">
        <path class="cls-3" d="m495.25,339.26c-1.25-1.23-2.65-2.29-4.17-3.17"/>
      </g>
      <g id="LINE-24" data-name="LINE">
        <line class="cls-3" x1="526.95" y1="295.75" x2="543.23" y2="293.16"/>
      </g>
      <g id="ARC-16" data-name="ARC">
        <path class="cls-3" d="m502.25,345.44c-2.43-1.95-4.77-4.01-7-6.18"/>
      </g>
      <g id="ARC-17" data-name="ARC">
        <path class="cls-3" d="m505.23,348.31c-.9-1.05-1.9-2.01-2.98-2.87"/>
      </g>
      <g id="ARC-18" data-name="ARC">
        <path class="cls-3" d="m508.22,352.18c-.96-1.32-1.96-2.61-2.99-3.87"/>
      </g>
      <g id="ARC-19" data-name="ARC">
        <path class="cls-3" d="m521.77,370.37c-4.58-6.02-9.09-12.08-13.55-18.19"/>
      </g>
      <g id="SPLINE-28" data-name="SPLINE">
        <path class="cls-3" d="m557.6,391.18c-2.24.3-4.62.22-7.05-.23s-4.93-1.26-7.44-2.41-5.02-2.63-7.49-4.41-4.9-3.85-7.22-6.16-4.55-4.87-6.62-7.6"/>
      </g>
      <g id="SPLINE-29" data-name="SPLINE">
        <path class="cls-3" d="m444.73,315.69c1.08.62,2.25,1.1,3.45,1.41s2.44.47,3.68.48,2.47-.11,3.69-.36c.66-.13,1.32-.3,1.98-.51"/>
      </g>
      <g id="LINE-25" data-name="LINE">
        <line class="cls-3" x1="432.73" y1="308.76" x2="444.73" y2="315.69"/>
      </g>
      <g id="LINE-26" data-name="LINE">
        <line class="cls-3" x1="445.92" y1="258.95" x2="447.86" y2="257.82"/>
      </g>
      <g id="LINE-27" data-name="LINE">
        <line class="cls-3" x1="463" y1="256.32" x2="475.01" y2="263.26"/>
      </g>
      <g id="ARC-20" data-name="ARC">
        <path class="cls-3" d="m478.34,265.95c-.97-1.06-2.09-1.97-3.34-2.69"/>
      </g>
      <g id="LINE-28" data-name="LINE">
        <line class="cls-3" x1="479.37" y1="272.13" x2="515.85" y2="293.19"/>
      </g>
      <g id="LINE-29" data-name="LINE">
        <line class="cls-3" x1="454.6" y1="315.03" x2="491.08" y2="336.09"/>
      </g>
      <g id="ELLIPSE-27" data-name="ELLIPSE">
        <path class="cls-1" d="m144.39,155c-11.4-6.58-11.4-27.92,0-47.67s29.88-30.41,41.28-23.83"/>
      </g>
      <g id="ELLIPSE-28" data-name="ELLIPSE">
        <path class="cls-1" d="m408.84,212.35c-11.4-6.58-29.88,4.09-41.28,23.83-11.4,19.74-11.4,41.08,0,47.67"/>
      </g>
      <g id="ARC-21" data-name="ARC">
        <path class="cls-1" d="m67.36,57.61c-1.06-1.29-2.08-2.6-3.05-3.95"/>
      </g>
      <g id="ARC-22" data-name="ARC">
        <path class="cls-1" d="m64.31,53.66c-4.45-6.1-8.96-12.15-13.53-18.16"/>
      </g>
      <g id="ELLIPSE-29" data-name="ELLIPSE">
        <path class="cls-1" d="m50.78,98.03c-10.6,1.75-24.2-6.11-34.81-20.1C1.02,58.21-3.31,32.71,6.3,20.99c9.61-11.72,29.53-5.22,44.48,14.51"/>
      </g>
      <g id="ARC-23" data-name="ARC">
        <path class="cls-1" d="m50.78,98.03c4.53-.73,9.04-1.57,13.53-2.54"/>
      </g>
      <g id="ARC-24" data-name="ARC">
        <path class="cls-1" d="m64.31,95.49c1.01-.22,2.03-.36,3.05-.42"/>
      </g>
      <g id="LINE-30" data-name="LINE">
        <line class="cls-1" x1="67.36" y1="57.61" x2="67.36" y2="95.07"/>
      </g>
      <g id="ELLIPSE-30" data-name="ELLIPSE">
        <path class="cls-1" d="m73.93,21.75c.19-.08.32-.1.35-.06"/>
      </g>
      <g id="ELLIPSE-31" data-name="ELLIPSE">
        <path class="cls-1" d="m38.45.89c10.91-1.47,24.7,6.65,35.48,20.87"/>
      </g>
      <g id="ARC-25" data-name="ARC">
        <path class="cls-1" d="m87.59,39.91c-4.5-6.09-9.06-12.14-13.67-18.16"/>
      </g>
      <g id="ELLIPSE-32" data-name="ELLIPSE">
        <path class="cls-1" d="m87.59,39.91c.13-.05.21-.06.23-.03"/>
      </g>
      <g id="ARC-26" data-name="ARC">
        <path class="cls-1" d="m90.61,43.73c-1.04-1.24-2.05-2.52-3.02-3.82"/>
      </g>
      <g id="ELLIPSE-33" data-name="ELLIPSE">
        <path class="cls-1" d="m90.61,43.73c.1-.02.17-.01.21.03"/>
      </g>
      <g id="ELLIPSE-34" data-name="ELLIPSE">
        <path class="cls-1" d="m93.82,46.74c0-.06,0-.1-.02-.12"/>
      </g>
      <g id="ARC-27" data-name="ARC">
        <path class="cls-1" d="m93.82,46.74c-1.17-.89-2.25-1.9-3.21-3.01"/>
      </g>
      <g id="SPLINE-30" data-name="SPLINE">
        <path class="cls-1" d="m93.82,46.74c2.42,1.92,4.79,3.9,6.98,6.06"/>
      </g>
      <g id="ELLIPSE-35" data-name="ELLIPSE">
        <path class="cls-1" d="m52.82,98.9c-.21.03-.42.06-.63.09"/>
      </g>
      <g id="ELLIPSE-36" data-name="ELLIPSE">
        <path class="cls-1" d="m52.19,34.31C36.72,13.89,16.12,7.17,6.17,19.3c-.11.14-.22.28-.33.42"/>
      </g>
      <g id="ELLIPSE-37" data-name="ELLIPSE">
        <path class="cls-1" d="m51.66,99.07c.18-.02.35-.05.53-.08"/>
      </g>
      <g id="ELLIPSE-38" data-name="ELLIPSE">
        <path class="cls-1" d="m52.19,34.31c6.99-7.17,14.75-11.65,21.74-12.55"/>
      </g>
      <g id="ELLIPSE-39" data-name="ELLIPSE">
        <path class="cls-1" d="m80.2,98.87c-6.84-3.95-6.84-16.75,0-28.6s17.93-18.25,24.77-14.3"/>
      </g>
      <g id="ELLIPSE-40" data-name="ELLIPSE">
        <path class="cls-1" d="m87.59,39.91c-6.81-.63-15.21,4.22-22.02,12.71"/>
      </g>
      <g id="ARC-28" data-name="ARC">
        <path class="cls-1" d="m68.44,56.53c-1-1.27-1.95-2.57-2.87-3.9"/>
      </g>
      <g id="ARC-29" data-name="ARC">
        <path class="cls-1" d="m68.44,56.53c.88,1.14,1.45,2.48,1.67,3.91"/>
      </g>
      <g id="SPLINE-31" data-name="SPLINE">
        <path class="cls-1" d="m70.11,95.84c.69-.32,1.36-.82,1.94-2.09.44-.97.83-2.43.98-4.82.07-1.11.09-2.42.06-3.85-.07-2.84-.37-6.09-.74-9.23-.14-1.23-.3-2.45-.46-3.67-.44-3.31-.94-6.52-1.44-9.66-.11-.7-.23-1.39-.34-2.08"/>
      </g>
      <g id="SPLINE-32" data-name="SPLINE">
        <path class="cls-1" d="m68.44,96.04c.41-.03.75-.05,1.02-.07.3-.03.52-.06.64-.12"/>
      </g>
      <g id="ARC-30" data-name="ARC">
        <path class="cls-1" d="m65.57,96.45c.94-.22,1.9-.36,2.87-.42"/>
      </g>
      <g id="ELLIPSE-41" data-name="ELLIPSE">
        <path class="cls-1" d="m65.57,96.45c1.13.1,2.31.06,3.53-.14"/>
      </g>
      <g id="ARC-31" data-name="ARC">
        <path class="cls-1" d="m52.19,98.99c4.49-.72,8.95-1.57,13.39-2.54"/>
      </g>
      <g id="ELLIPSE-42" data-name="ELLIPSE">
        <path class="cls-1" d="m70.11,95.84c-.68-.13-1.21-.68-1.32-1.37"/>
      </g>
      <g id="SPLINE-33" data-name="SPLINE">
        <path class="cls-1" d="m68.79,94.47c-.12.13-.32.24-.58.35-.23.09-.51.17-.85.26"/>
      </g>
      <g id="ELLIPSE-43" data-name="ELLIPSE">
        <path class="cls-1" d="m67.36,95.07c.2.54.62.91,1.08.97"/>
      </g>
      <g id="ELLIPSE-44" data-name="ELLIPSE">
        <path class="cls-1" d="m70.11,60.43c-.68.17-1.21.42-1.32.63"/>
      </g>
      <g id="SPLINE-34" data-name="SPLINE">
        <path class="cls-1" d="m68.79,61.07c.15.68.29,1.35.44,2.03.65,3.06,1.28,6.17,1.85,9.34.21,1.16.4,2.34.59,3.51.46,3,.83,6.08.93,8.74.05,1.35.02,2.57-.07,3.59-.2,2.21-.68,3.52-1.24,4.37-.73,1.12-1.6,1.53-2.48,1.81"/>
      </g>
      <g id="ELLIPSE-45" data-name="ELLIPSE">
        <path class="cls-1" d="m68.44,56.53c-.47.36-.88.78-1.08,1.09"/>
      </g>
      <g id="ARC-32" data-name="ARC">
        <path class="cls-1" d="m67.36,57.61c.72,1.03,1.21,2.21,1.42,3.45"/>
      </g>
      <g id="ELLIPSE-46" data-name="ELLIPSE">
        <path class="cls-1" d="m65.57,52.63c-.52.35-1.01.76-1.27,1.04"/>
      </g>
      <g id="ARC-33" data-name="ARC">
        <path class="cls-1" d="m65.57,52.63c-4.38-6.16-8.84-12.27-13.39-18.32"/>
      </g>
      <g id="ELLIPSE-47" data-name="ELLIPSE">
        <path class="cls-1" d="m52.19,34.31c-.57.38-1.13.86-1.41,1.2"/>
      </g>
      <g id="ELLIPSE-48" data-name="ELLIPSE">
        <path class="cls-1" d="m52.19,98.99c-.57.08-1.13-.31-1.41-.96"/>
      </g>
      <g id="ELLIPSE-49" data-name="ELLIPSE">
        <path class="cls-1" d="m65.57,96.45c-.52-.01-1.01-.39-1.27-.96"/>
      </g>
      <g id="LINE-31" data-name="LINE">
        <line class="cls-1" x1="68.79" y1="94.47" x2="68.79" y2="61.07"/>
      </g>
      <g id="ELLIPSE-50" data-name="ELLIPSE">
        <path class="cls-1" d="m114.3,102.77c2.69-10.04,9.69-19.72,17.51-24.24"/>
      </g>
      <g id="ELLIPSE-51" data-name="ELLIPSE">
        <path class="cls-1" d="m137.01,75.87c-8.62-.09-19.16,9.96-23.55,22.45-1.25,3.56-1.91,7.08-1.91,10.27"/>
      </g>
      <g id="ELLIPSE-52" data-name="ELLIPSE">
        <path class="cls-1" d="m133.43,77.6c-7.21,4.16-13.88,12.44-17.51,21.74"/>
      </g>
      <g id="ELLIPSE-53" data-name="ELLIPSE">
        <path class="cls-1" d="m118.67,98.49c.71-1.58,1.5-3.13,2.38-4.64,8.36-14.48,21.91-22.3,30.27-17.48"/>
      </g>
      <g id="ELLIPSE-54" data-name="ELLIPSE">
        <path class="cls-1" d="m121.04,128.81c-.87-.5-1.67-1.14-2.38-1.89"/>
      </g>
      <g id="ELLIPSE-55" data-name="ELLIPSE">
        <path class="cls-1" d="m111.55,108.59c0,3.94.99,7.21,2.86,9.43"/>
      </g>
      <g id="ARC-34" data-name="ARC">
        <path class="cls-1" d="m508.39,351.88c-.98-1.35-2-2.67-3.05-3.95"/>
      </g>
      <g id="ARC-35" data-name="ARC">
        <path class="cls-1" d="m521.92,370.04c-4.57-6.01-9.08-12.06-13.53-18.16"/>
      </g>
      <g id="ELLIPSE-56" data-name="ELLIPSE">
        <path class="cls-1" d="m521.92,307.51c10.6-1.75,24.2,6.11,34.81,20.1,14.95,19.73,19.28,45.23,9.67,56.95s-29.53,5.22-44.48-14.51"/>
      </g>
      <g id="ARC-36" data-name="ARC">
        <path class="cls-1" d="m508.39,310.05c4.49-.97,9-1.82,13.53-2.54"/>
      </g>
      <g id="ARC-37" data-name="ARC">
        <path class="cls-1" d="m505.34,310.48c1.03-.06,2.05-.2,3.05-.42"/>
      </g>
      <g id="LINE-32" data-name="LINE">
        <line class="cls-1" x1="505.34" y1="347.93" x2="505.34" y2="310.48"/>
      </g>
      <g id="ELLIPSE-57" data-name="ELLIPSE">
        <path class="cls-1" d="m544.39,292.99c10.71-1.44,24.23,6.37,34.95,20.18,15.65,20.18,20.52,46.68,10.87,59.18"/>
      </g>
      <g id="ELLIPSE-58" data-name="ELLIPSE">
        <path class="cls-1" d="m543.23,293.16c-6.83,1.08-14.34,5.51-21.11,12.46"/>
      </g>
      <g id="ELLIPSE-59" data-name="ELLIPSE">
        <path class="cls-1" d="m557.6,391.18c15.65-2.11,20.52-22.98,10.87-46.63-9.65-23.65-30.16-41.11-45.82-39-.18.02-.35.05-.53.08"/>
      </g>
      <g id="ELLIPSE-60" data-name="ELLIPSE">
        <path class="cls-1" d="m515.85,293.19c-6.84-3.95-17.93,2.45-24.77,14.3-6.84,11.85-6.84,24.65,0,28.6"/>
      </g>
      <g id="SPLINE-35" data-name="SPLINE">
        <path class="cls-1" d="m502.23,309.92c-3.35,1.86-6.62,3.86-9.39,6.39-2.12,1.94-3.94,4.22-4.68,6.96-.34,1.27-.44,2.62-.26,3.97.35,2.68,1.73,5.3,3.48,7.64.69.92,1.43,1.8,2.21,2.65.54.59,1.09,1.16,1.66,1.72"/>
      </g>
      <g id="SPLINE-36" data-name="SPLINE">
        <path class="cls-1" d="m505.44,308.83c-.43.04-.91.14-1.42.3-.57.18-1.18.45-1.8.79"/>
      </g>
      <g id="ARC-38" data-name="ARC">
        <path class="cls-1" d="m505.44,308.83c1.02-.09,2.03-.26,3.02-.5"/>
      </g>
      <g id="ELLIPSE-61" data-name="ELLIPSE">
        <path class="cls-1" d="m508.45,308.32c5.62-7,12.39-11.61,18.49-12.58"/>
      </g>
      <g id="ARC-39" data-name="ARC">
        <path class="cls-1" d="m508.45,308.32c4.53-1.04,9.08-1.94,13.67-2.7"/>
      </g>
      <g id="ELLIPSE-62" data-name="ELLIPSE">
        <path class="cls-1" d="m502.23,309.92c-.03.54.22,1.25.64,1.77"/>
      </g>
      <g id="ARC-40" data-name="ARC">
        <path class="cls-1" d="m502.87,311.68c.74-.55,1.58-.96,2.47-1.2"/>
      </g>
      <g id="ELLIPSE-63" data-name="ELLIPSE">
        <path class="cls-1" d="m505.34,310.48c-.2-.54-.16-1.17.1-1.65"/>
      </g>
      <g id="ELLIPSE-64" data-name="ELLIPSE">
        <path class="cls-1" d="m502.25,345.44c.08.06.31-.07.62-.36"/>
      </g>
      <g id="SPLINE-37" data-name="SPLINE">
        <path class="cls-1" d="m502.87,345.08c-.55-.45-1.09-.89-1.63-1.35-2.43-2.04-4.79-4.15-6.9-6.43-.77-.84-1.51-1.7-2.19-2.58-1.73-2.27-3.11-4.77-3.45-7.28-.18-1.27-.08-2.53.26-3.7.74-2.53,2.55-4.59,4.64-6.33,2.74-2.27,5.97-4.05,9.27-5.73"/>
      </g>
      <g id="ELLIPSE-65" data-name="ELLIPSE">
        <path class="cls-1" d="m505.23,348.31c-.05-.06-.01-.19.11-.38"/>
      </g>
      <g id="ARC-41" data-name="ARC">
        <path class="cls-1" d="m505.34,347.93c-.75-1.01-1.57-1.97-2.47-2.85"/>
      </g>
      <g id="ELLIPSE-66" data-name="ELLIPSE">
        <path class="cls-1" d="m508.22,352.18s.03-.14.17-.3"/>
      </g>
      <g id="ELLIPSE-67" data-name="ELLIPSE">
        <path class="cls-1" d="m521.77,370.37s.02-.16.15-.32"/>
      </g>
      <g id="ELLIPSE-68" data-name="ELLIPSE">
        <path class="cls-1" d="m522.12,305.62c-.4.48-.48,1.24-.21,1.89"/>
      </g>
      <g id="ELLIPSE-69" data-name="ELLIPSE">
        <path class="cls-1" d="m508.45,308.32c-.3.48-.32,1.16-.06,1.73"/>
      </g>
      <g id="LINE-33" data-name="LINE">
        <line class="cls-1" x1="502.87" y1="311.68" x2="502.87" y2="345.08"/>
      </g>
      <g id="ELLIPSE-70" data-name="ELLIPSE">
        <path class="cls-1" d="m446.72,309.52c1.7,4.38,5.18,6.73,9.67,6.55"/>
      </g>
      <g id="ELLIPSE-71" data-name="ELLIPSE">
        <path class="cls-1" d="m454.6,315.03c-3.28-1.9-5.13-5.97-5.13-11.34"/>
      </g>
      <g id="ELLIPSE-72" data-name="ELLIPSE">
        <path class="cls-1" d="m457.45,316.67c-5.2,1.42-9.64.08-12.34-3.73"/>
      </g>
      <g id="ELLIPSE-73" data-name="ELLIPSE">
        <path class="cls-1" d="m442.36,313.8c.71.76,1.5,1.39,2.38,1.89"/>
      </g>
      <g id="ELLIPSE-74" data-name="ELLIPSE">
        <path class="cls-1" d="m475.01,263.26c-8.36-4.83-21.91,3-30.27,17.48-.87,1.51-1.67,3.06-2.38,4.64"/>
      </g>
      <g id="ELLIPSE-75" data-name="ELLIPSE">
        <path class="cls-1" d="m445.11,289.4c1.76-4.52,4.29-8.89,7.32-12.67,9.67-12.09,22.08-15.47,27.71-7.55"/>
      </g>
      <g id="ELLIPSE-76" data-name="ELLIPSE">
        <path class="cls-1" d="m481.16,273.17c-4.33-8.29-15.42-6.58-24.77,3.81-4.49,4.99-7.97,11.36-9.67,17.71"/>
      </g>
      <g id="ELLIPSE-77" data-name="ELLIPSE">
        <path class="cls-1" d="m449.47,303.69c0-5.36,1.85-11.57,5.13-17.26,6.84-11.85,17.93-18.25,24.77-14.3"/>
      </g>
    </g>
  </g>
</svg>