<?xml version="1.0" encoding="UTF-8"?>
<svg id="Layer_1" data-name="Layer 1" xmlns="http://www.w3.org/2000/svg" xmlns:xlink="http://www.w3.org/1999/xlink" viewBox="0 0 172.709 158.363">
  <defs>
    <style>
      .cls-1 {
        fill: #e65025;
      }

      .cls-2, .cls-3, .cls-4 {
        fill: none;
      }

      .cls-5 {
        fill: #444545;
      }

      .cls-6 {
        fill: #919191;
      }

      .cls-7 {
        fill: #565656;
      }

      .cls-3 {
        stroke-width: 1.417px;
      }

      .cls-3, .cls-4 {
        stroke: #000;
        stroke-linecap: round;
        stroke-linejoin: round;
      }

      .cls-4 {
        stroke-width: .709px;
      }

      .cls-8 {
        clip-path: url(#clippath);
      }
    </style>
    <clipPath id="clippath">
      <path class="cls-2" d="M165.53,19.043c3.06,2.18,5.06,5.75,5.06,9.77v117.55c0,6.6-5.4,12-12,12H12c-6.6,0-12-5.4-12-12V28.813c0-3.42,1.45-6.52,3.78-8.71,1.41-1.35,3.15-2.35,5.09-2.87.58-.16,1.18-.28,1.8-.35.43-.04.88-.07,1.33-.07h146.59c.51,0,1,.03,1.49.1,2.01.25,3.87,1,5.45,2.13Z"/>
    </clipPath>
  </defs>
  <g class="cls-8">
    <path class="cls-5" d="M118.52,16.813l-1.87,7.17c-.13.49-.57.82-1.07.82h-60.14c-.61,0-1.1-.49-1.1-1.1v-6.89h64.18Z"/>
    <path class="cls-7" d="M165.53,19.133v23.48h-5.64v-23.48c0-.75.06-1.49.19-2.22,2.01.25,3.87,1,5.45,2.13v.09Z"/>
    <path class="cls-7" d="M3.78,20.103c1.41-1.35,3.15-2.35,5.09-2.87l.95.74c-.26.33-.4.74-.4,1.16v41.91H3.78V20.103Z"/>
    <path class="cls-7" d="M125.96,16.813l-2.34,8.99c-.96,3.65-4.26,6.21-8.04,6.21h-60.14c-4.58,0-8.3-3.72-8.3-8.31v-6.89h7.2v6.89c0,.61.49,1.1,1.1,1.1h60.14c.5,0,.94-.33,1.07-.82l1.87-7.17h7.44Z"/>
    <path class="cls-7" d="M62.09,42.613h103.44l1.89,1.88h-62.75c-.63,0-1.37.19-2.13.52-.62.28-1.25.65-1.83,1.05-.05.03-.1.06-.14.08-.13.08-.26.15-.4.2s-.29.08-.47.06c-.26-.02-.53-.03-.79-.03h-17.22c-.27,0-.53.01-.8.03-.03.01-.07.01-.11.01-.15,0-.31-.05-.46-.11-.16-.07-.3-.16-.43-.24-.58-.4-1.21-.77-1.84-1.05-.75-.33-1.49-.52-2.12-.52H13.18l1.88-1.88h47.03Z"/>
    <path class="cls-5" d="M13.18,44.493v16.55h-3.76V19.133c0-.42.14-.83.4-1.16l.85-1.09c.43-.04.88-.07,1.33-.07h35.14v6.89c0,4.59,3.72,8.31,8.3,8.31h60.14c3.78,0,7.08-2.56,8.04-6.21l2.34-8.99h32.63c.51,0,1,.03,1.49.1-.13.73-.19,1.47-.19,2.22v23.48h-15.23v-.1h-4.33c-1.53-2.38-3.72-4.28-6.3-5.45h-12.23c-2.58,1.17-4.76,3.07-6.3,5.45h-4.32v.1h-41.76v-.1h-4.32c-1.54-2.38-3.72-4.28-6.31-5.45h-12.22c-2.58,1.17-4.77,3.07-6.3,5.45h-4.33v.1H13.18v1.88Z"/>
    <path class="cls-5" d="M99.7,46.403c.18.02.33-.01.47-.06s.27-.12.4-.2c.04-.02.09-.05.14-.08.58-.4,1.21-.77,1.83-1.05.76-.33,1.5-.52,2.13-.52h62.75v16.92H13.18v-16.92h62.75c.63,0,1.37.19,2.12.52.63.28,1.26.65,1.84,1.05.13.08.27.17.43.24.15.06.31.11.46.11.04,0,.08,0,.11-.01.27-.02.53-.03.8-.03h17.22c.26,0,.53.01.79.03Z"/>
    <path class="cls-6" d="M149.36,71.343l-.94,2.3-2-.82c.2-.46.31-.97.31-1.48v-1.46c0-2.6-2.11-4.7-4.71-4.7h-.47c-.26,0-.47.21-.47.47v3.76c0,.26-.21.47-.47.47h-3.29c-1.04,0-1.88-.84-1.88-1.88v-3.76c0-1.56,1.26-2.83,2.82-2.83h12.04v2.64l-.94.94v6.35Z"/>
    <path class="cls-6" d="M61.35,103.733l-.79.43-1.23,1.52-1.52,1.23-.43.79v1.3l.83.93,5.33,2.15,10.19,10.1,1.52,4.54v1.47l4.7,4.7h20.69l4.71-4.7v-1.47l1.52-4.54,10.19-10.1,5.33-2.15.82-.93v-1.3l-.42-.79-1.52-1.23-1.24-1.52-.78-.43h-.17l-.57-.56v-8.28l.57-.56h.17l.78-.43,1.24-1.52,1.52-1.23.42-.79v-1.3l-.82-.93-5.33-2.14-10.19-10.1-1.52-4.55v-1.46l-4.71-4.7h-20.69l-4.7,4.7v1.46l-1.52,4.55-10.19,10.1-5.33,2.14-.83.93v1.3l.43.79,1.52,1.23,1.23,1.52.79.43h.17l.57.56v8.28l-.57.56h-.17ZM47.55,106.913l-2.23-2.23,2.06-2.07c1.15,1.7,3.09,2.82,5.3,2.82,3.53,0,6.4-2.87,6.4-6.4s-2.87-6.39-6.4-6.39c-1.33,0-2.55.4-3.57,1.09l-2.07-2.07.51-.51.43-.79v-2.44l-.81-.93-2.42-.99.88-2.14c.92.39,1.92.6,2.93.6h8.25c1.61,0,3.19-.53,4.49-1.49,3.57-2.66,6.74-5.81,9.43-9.36.49-.65.76-1.45.76-2.27v-1.46c0-2.6-2.1-4.7-4.7-4.7h-.47c-.26,0-.47.21-.47.47v3.76c0,.26-.21.47-.47.47h-3.29c-1.04,0-1.88-.84-1.88-1.88v-3.76c0-1.56,1.26-2.83,2.82-2.83h54.54c1.56,0,2.82,1.27,2.82,2.83v3.76c0,1.04-.84,1.88-1.88,1.88h-3.29c-.26,0-.47-.21-.47-.47v-3.76c0-.26-.21-.47-.47-.47h-.47c-2.6,0-4.7,2.1-4.7,4.7v1.46c0,.82.27,1.62.76,2.27,2.69,3.55,5.86,6.7,9.43,9.36,1.3.96,2.87,1.49,4.49,1.49h8.25c1.01,0,2.01-.21,2.93-.6l.88,2.14-2.42.99-.81.93v2.44l.42.79,1.52,1.23,1.24,1.52.78.43h2.44l.93-.81,1.91-4.67,6.05-6.75.02-1.35-1.73-1.74-1.36.03-2.84,2.55-1.62-1.81c2.03-1.89,3.91-3.95,5.58-6.17.19-.24.34-.51.46-.79l2,.82-.89,2.19v1.32l2.23,2.23,1.32.01,2.21-.9.83,2.04c-.28.12-.54.27-.79.46-3.54,2.68-6.69,5.86-9.35,9.43-.97,1.3-1.49,2.87-1.49,4.49v8.25c0,1.01.2,2,.59,2.92l-2.14.87-.98-2.41-.94-.81h-2.43l-.79.43-1.23,1.52-1.52,1.23-.43.79v2.44l.81.93,2.42.99-.88,2.14c-.92-.39-1.92-.59-2.93-.59h-8.25c-1.62,0-3.19.52-4.49,1.49-3.57,2.65-6.74,5.8-9.43,9.35-.49.65-.76,1.45-.76,2.27v1.47c0,2.59,2.1,4.7,4.7,4.7h.47c.26,0,.47-.21.47-.47v-3.76c0-.26.21-.47.47-.47h3.29c1.04,0,1.88.84,1.88,1.88v3.76c0,1.56-1.26,2.82-2.82,2.82h-54.54c-1.56,0-2.82-1.26-2.82-2.82v-3.76c0-1.04.84-1.88,1.88-1.88h3.29c.26,0,.47.21.47.47v3.76c0,.26.21.47.47.47h.47c2.6,0,4.7-2.11,4.7-4.7v-1.47c0-.82-.27-1.62-.76-2.27-2.69-3.55-5.86-6.7-9.43-9.35-1.3-.97-2.88-1.49-4.49-1.49h-8.25c-1.01,0-2.01.2-2.93.59l-.88-2.14,2.42-.99.81-.93v-2.44l-.43-.79ZM134.31,99.033c0-3.53-2.86-6.39-6.39-6.39s-6.4,2.86-6.4,6.39,2.86,6.4,6.4,6.4,6.39-2.87,6.39-6.4Z"/>
    <path class="cls-6" d="M33.87,71.343c0,.51.11,1.02.31,1.48l-2,.82-.94-2.3v-6.35l-.94-.94v-2.64h12.04c1.55,0,2.82,1.27,2.82,2.83v3.76c0,1.04-.84,1.88-1.88,1.88h-3.29c-.26,0-.47-.21-.47-.47v-3.76c0-.26-.22-.47-.47-.47h-.47c-2.6,0-4.71,2.1-4.71,4.7v1.46Z"/>
    <path class="cls-6" d="M31.24,133.083v-6.36l.94-2.3,2,.82c-.2.46-.31.97-.31,1.48v1.47c0,2.59,2.11,4.7,4.71,4.7h.47c.25,0,.47-.21.47-.47v-3.76c0-.26.21-.47.47-.47h3.29c1.04,0,1.88.84,1.88,1.88v3.76c0,1.56-1.27,2.82-2.82,2.82h-12.04v-2.63l.94-.94Z"/>
    <path class="cls-6" d="M158.01,61.413c.07,0,.15,0,.22.01l-.14,2.63h-7.79v-2.64h7.71Z"/>
    <path class="cls-6" d="M38.6,116.483l3.9-3.5,2.25-.92.88,2.14c-.55.24-1.08.54-1.56.9-1.34.99-2.62,2.06-3.85,3.19l-1.62-1.81Z"/>
    <path class="cls-6" d="M17.7,129.203l4.81,4.82-.14,2.62c-3.99-.11-7.2-3.32-7.3-7.3l2.63-.14Z"/>
    <path class="cls-6" d="M157.07,80.223h-1.47c-.51,0-1.01.11-1.48.31l-.83-2.04,2.28-.92,6.36.02.94-.93h2.66v12.03c0,1.56-1.26,2.82-2.82,2.82h-3.76c-1.04,0-1.88-.84-1.88-1.88v-3.29c0-.26.21-.47.47-.47h3.76c.26,0,.47-.21.47-.47v-.47c0-2.6-2.1-4.71-4.7-4.71Z"/>
    <path class="cls-6" d="M149.36,133.083l.94.94v2.63h-12.04c-1.56,0-2.82-1.26-2.82-2.82v-3.76c0-1.04.84-1.88,1.88-1.88h3.29c.26,0,.47.21.47.47v3.76c0,.26.21.47.47.47h.47c2.6,0,4.71-2.11,4.71-4.7v-1.47c0-.51-.11-1.02-.31-1.48l2-.82.94,2.3v6.36Z"/>
    <path class="cls-6" d="M22.51,134.023h7.79v2.63h-7.71c-.07,0-.15,0-.22-.01l.14-2.62Z"/>
    <path class="cls-6" d="M165.52,68.733l-2.63.14-4.8-4.82.14-2.63c3.99.11,7.19,3.32,7.29,7.31Z"/>
    <path class="cls-6" d="M17.7,68.873l.03,7.79h-2.67v-7.72c0-.07,0-.14.01-.21l2.63.14Z"/>
    <path class="cls-6" d="M165.53,68.943v7.72h-2.66l.02-7.79,2.63-.14c.01.07.01.14.01.21Z"/>
    <path class="cls-6" d="M35.24,84.953l3.49,3.9.92,2.25-2.14.88c-.23-.55-.53-1.07-.89-1.56-1-1.34-2.06-2.62-3.19-3.85l1.81-1.62Z"/>
    <path class="cls-6" d="M143.98,107.653c1,1.34,2.06,2.62,3.19,3.84l-1.81,1.62-3.49-3.89-.93-2.27,2.14-.87c.24.56.54,1.08.9,1.57Z"/>
    <path class="cls-6" d="M42.5,85.083l-3.9-3.49,1.62-1.81c1.23,1.13,2.51,2.19,3.85,3.19.48.36,1.01.66,1.56.89l-.88,2.14-2.25-.92Z"/>
    <path class="cls-6" d="M135.85,112.063l2.25.92,3.9,3.49-1.62,1.82c-1.23-1.13-2.51-2.2-3.85-3.19-.49-.36-1.01-.66-1.56-.9l.88-2.14Z"/>
    <path class="cls-6" d="M162.89,129.203l2.63.14c-.1,3.98-3.3,7.19-7.29,7.3l-.14-2.62,4.8-4.82Z"/>
    <path class="cls-6" d="M136.53,82.973c1.34-1,2.62-2.06,3.85-3.19l1.62,1.81-3.9,3.49-2.25.92-.88-2.14c.55-.23,1.07-.53,1.56-.89Z"/>
    <path class="cls-6" d="M22.59,61.413h7.71v2.64h-7.79l-.14-2.63c.07-.01.15-.01.22-.01Z"/>
    <path class="cls-6" d="M165.53,129.133c0,.07,0,.14-.01.21l-2.63-.14-.02-7.79h2.66v7.72Z"/>
    <path class="cls-6" d="M158.09,134.023l.14,2.62c-.07.01-.15.01-.22.01h-7.71v-2.63h7.79Z"/>
    <path class="cls-6" d="M27.26,80.993c-.65-.5-1.45-.77-2.27-.77h-1.46c-2.6,0-4.7,2.11-4.7,4.71v.47c0,.26.21.47.47.47h3.76c.26,0,.47.21.47.47v3.29c0,1.04-.84,1.88-1.88,1.88h-3.76c-1.56,0-2.83-1.26-2.83-2.82v-12.03h2.67l.94.93,6.36-.02,4.49,1.82,1.32-.01,2.23-2.23v-1.32l-.89-2.19,2-.82c.12.28.27.55.46.79,1.67,2.22,3.55,4.28,5.58,6.17l-1.62,1.81-2.85-2.55-1.35-.03-1.74,1.74.03,1.35,2.55,2.85-1.81,1.62c-1.89-2.03-3.95-3.91-6.17-5.58Z"/>
    <path class="cls-6" d="M22.37,61.423l.14,2.63-4.81,4.82-2.63-.14c.1-3.99,3.31-7.2,7.3-7.31Z"/>
    <path class="cls-6" d="M38.1,94.913c0-1.01-.2-2.01-.59-2.93l2.14-.88.99,2.42.93.81h2.44l.79-.43,2.24-2.24,2.07,2.07c-1.7,1.15-2.82,3.09-2.82,5.3,0,1.33.4,2.56,1.09,3.58l-2.06,2.07-.52-.52-.79-.43h-2.44l-.93.82-1.91,4.67-6.04,6.74-.03,1.36,1.74,1.73,1.35-.02,2.85-2.55,1.62,1.81c-2.03,1.88-3.91,3.94-5.58,6.16-.19.24-.34.51-.46.79l-2-.82.89-2.18v-1.33l-2.23-2.23-1.32-.01-2.23.9-.82-2.03c.28-.12.55-.28.79-.46,3.55-2.69,6.7-5.86,9.36-9.43.96-1.3,1.48-2.88,1.48-4.49v-8.25Z"/>
    <path class="cls-6" d="M17.7,129.203l-2.63.14c-.01-.07-.01-.14-.01-.21v-7.72h2.67l-.03,7.79Z"/>
    <path class="cls-6" d="M18.83,112.673v.47c0,2.6,2.1,4.7,4.7,4.7h1.46c.51,0,1.02-.11,1.48-.3l.82,2.03-2.26.92-6.36-.02-.94.94h-2.67v-12.03c0-1.56,1.27-2.82,2.83-2.82h3.76c1.04,0,1.88.84,1.88,1.88v3.29c0,.26-.21.47-.47.47h-3.76c-.26,0-.47.21-.47.47Z"/>
    <path class="cls-6" d="M155.6,117.843h1.47c2.6,0,4.7-2.1,4.7-4.7v-.47c0-.26-.21-.47-.47-.47h-3.76c-.26,0-.47-.21-.47-.47v-3.29c0-1.04.84-1.88,1.88-1.88h3.76c1.56,0,2.82,1.26,2.82,2.82v12.03h-2.66l-.94-.94-6.36.02-4.49-1.82-1.32.01-2.23,2.23v1.33l.89,2.18-2,.82c-.12-.28-.27-.55-.46-.79-1.67-2.22-3.55-4.28-5.58-6.16l1.62-1.82,2.85,2.55,1.35.03,1.74-1.74-.03-1.35-2.55-2.85,1.81-1.62c1.89,2.04,3.95,3.91,6.16,5.59.66.49,1.45.76,2.27.76Z"/>
    <path class="cls-1" d="M140.33,42.513h-24.83c1.54-2.38,3.72-4.28,6.3-5.45h12.23c2.58,1.17,4.77,3.07,6.3,5.45Z"/>
    <path class="cls-1" d="M139.69,71.643c.47.41.53,1.12.13,1.6l-7.1,8.34c-.22.26-.46.5-.72.71-2.65,2.26-6.63,1.94-8.88-.71l-7.1-8.34c-.15-.18-.24-.39-.27-.62-.06-.62.39-1.17,1.01-1.24l3.35-.34c.29-.03.54-.21.67-.47l.18-.35c.05-.09.15-.15.25-.15h13.41c.11,0,.21.06.25.15l.18.35c.13.26.38.44.67.47l3.35.34c.23.03.44.12.62.26Z"/>
    <path class="cls-1" d="M135.31,61.413v9.06c0-.01-.01-.01-.01-.02l-.17-.35c-.1-.19-.29-.32-.51-.32h-13.41c-.21,0-.41.13-.5.32l-.18.35c0,.01-.01.01-.01.02v-9.06h14.79Z"/>
    <rect class="cls-1" x="121.21" y="69.783" width="13.41" height=".29"/>
    <path class="cls-1" d="M65.1,42.513h-24.83c1.53-2.38,3.72-4.28,6.3-5.45h12.22c2.59,1.17,4.77,3.07,6.31,5.45Z"/>
    <path class="cls-1" d="M64.45,71.643c.48.41.54,1.12.13,1.6l-7.1,8.34c-.22.26-.46.5-.71.71-2.65,2.26-6.63,1.94-8.89-.71l-7.1-8.34c-.15-.18-.24-.39-.26-.62-.07-.62.39-1.17,1.01-1.24l3.35-.34c.29-.03.54-.21.67-.47l.17-.35c.05-.09.15-.15.26-.15h13.41c.1,0,.2.06.25.15l.17.35c.13.26.39.44.67.47l3.36.34c.23.03.44.12.61.26Z"/>
    <path class="cls-1" d="M60.08,61.413v9.06c0-.01-.01-.01-.01-.02l-.18-.35c-.09-.19-.29-.32-.5-.32h-13.41c-.22,0-.41.13-.51.32l-.17.35c0,.01-.01.01-.02.02v-9.06h14.8Z"/>
    <rect class="cls-1" x="45.98" y="69.783" width="13.41" height=".29"/>
    <path class="cls-3" d="M121.52,99.033c0-3.53,2.86-6.39,6.4-6.39s6.39,2.86,6.39,6.39-2.86,6.4-6.39,6.4-6.4-2.87-6.4-6.4Z"/>
    <path class="cls-3" d="M47.38,102.613c-.69-1.02-1.09-2.25-1.09-3.58,0-2.21,1.12-4.15,2.82-5.3,1.02-.69,2.24-1.09,3.57-1.09,3.53,0,6.4,2.86,6.4,6.39s-2.87,6.4-6.4,6.4c-2.21,0-4.15-1.12-5.3-2.82Z"/>
    <path class="cls-3" d="M118.51,128.193c1.04,0,1.88.84,1.88,1.88"/>
    <line class="cls-3" x1="120.39" y1="130.073" x2="120.39" y2="133.833"/>
    <path class="cls-3" d="M120.39,133.833c0,1.56-1.26,2.82-2.82,2.82"/>
    <line class="cls-3" x1="117.57" y1="136.653" x2="63.03" y2="136.653"/>
    <path class="cls-3" d="M63.03,136.653c-1.56,0-2.82-1.26-2.82-2.82"/>
    <line class="cls-3" x1="60.21" y1="133.833" x2="60.21" y2="130.073"/>
    <path class="cls-3" d="M60.21,130.073c0-1.04.84-1.88,1.88-1.88"/>
    <line class="cls-3" x1="62.09" y1="128.193" x2="65.38" y2="128.193"/>
    <path class="cls-3" d="M65.38,128.193c.26,0,.47.21.47.47"/>
    <line class="cls-3" x1="65.85" y1="128.663" x2="65.85" y2="132.423"/>
    <path class="cls-3" d="M66.32,132.893c-.26,0-.47-.21-.47-.47"/>
    <line class="cls-3" x1="66.32" y1="132.893" x2="66.79" y2="132.893"/>
    <path class="cls-3" d="M71.49,128.193c0,2.59-2.1,4.7-4.7,4.7"/>
    <line class="cls-3" x1="71.49" y1="128.193" x2="71.49" y2="126.723"/>
    <path class="cls-3" d="M70.73,124.453c.49.65.76,1.45.76,2.27"/>
    <path class="cls-3" d="M61.3,115.103c3.57,2.65,6.74,5.8,9.43,9.35"/>
    <path class="cls-3" d="M56.81,113.613c1.61,0,3.19.52,4.49,1.49"/>
    <line class="cls-3" x1="56.81" y1="113.613" x2="48.56" y2="113.613"/>
    <path class="cls-3" d="M44.07,115.103c.48-.36,1.01-.66,1.56-.9.92-.39,1.92-.59,2.93-.59"/>
    <path class="cls-3" d="M34.64,124.453c1.67-2.22,3.55-4.28,5.58-6.16,1.23-1.13,2.51-2.2,3.85-3.19"/>
    <path class="cls-3" d="M33.87,126.723c0-.51.11-1.02.31-1.48.12-.28.27-.55.46-.79"/>
    <line class="cls-3" x1="33.87" y1="126.723" x2="33.87" y2="128.193"/>
    <path class="cls-3" d="M38.58,132.893c-2.6,0-4.71-2.11-4.71-4.7"/>
    <line class="cls-3" x1="38.58" y1="132.893" x2="39.05" y2="132.893"/>
    <path class="cls-3" d="M39.52,132.423c0,.26-.22.47-.47.47"/>
    <line class="cls-3" x1="39.52" y1="132.423" x2="39.52" y2="128.663"/>
    <path class="cls-3" d="M39.52,128.663c0-.26.21-.47.47-.47"/>
    <line class="cls-3" x1="39.99" y1="128.193" x2="43.28" y2="128.193"/>
    <path class="cls-3" d="M43.28,128.193c1.04,0,1.88.84,1.88,1.88"/>
    <line class="cls-3" x1="45.16" y1="130.073" x2="45.16" y2="133.833"/>
    <path class="cls-3" d="M45.16,133.833c0,1.56-1.27,2.82-2.82,2.82"/>
    <polyline class="cls-3" points="42.34 136.653 30.3 136.653 22.59 136.653"/>
    <path class="cls-3" d="M22.59,136.653c-.07,0-.15,0-.22-.01-3.99-.11-7.2-3.32-7.3-7.3-.01-.07-.01-.14-.01-.21"/>
    <polyline class="cls-3" points="15.06 129.133 15.06 121.413 15.06 109.383"/>
    <path class="cls-3" d="M15.06,109.383c0-1.56,1.27-2.82,2.83-2.82"/>
    <line class="cls-3" x1="17.89" y1="106.563" x2="21.65" y2="106.563"/>
    <path class="cls-3" d="M21.65,106.563c1.04,0,1.88.84,1.88,1.88"/>
    <line class="cls-3" x1="23.53" y1="108.443" x2="23.53" y2="111.733"/>
    <path class="cls-3" d="M23.53,111.733c0,.26-.21.47-.47.47"/>
    <line class="cls-3" x1="23.06" y1="112.203" x2="19.3" y2="112.203"/>
    <path class="cls-3" d="M18.83,112.673c0-.26.21-.47.47-.47"/>
    <line class="cls-3" x1="18.83" y1="112.673" x2="18.83" y2="113.143"/>
    <path class="cls-3" d="M23.53,117.843c-2.6,0-4.7-2.1-4.7-4.7"/>
    <line class="cls-3" x1="23.53" y1="117.843" x2="24.99" y2="117.843"/>
    <path class="cls-3" d="M27.26,117.083c-.24.18-.51.34-.79.46-.46.19-.97.3-1.48.3"/>
    <path class="cls-3" d="M36.62,107.653c-2.66,3.57-5.81,6.74-9.36,9.43"/>
    <path class="cls-3" d="M38.1,103.163c0,1.61-.52,3.19-1.48,4.49"/>
    <line class="cls-3" x1="38.1" y1="103.163" x2="38.1" y2="94.913"/>
    <path class="cls-3" d="M36.62,90.423c.36.49.66,1.01.89,1.56.39.92.59,1.92.59,2.93"/>
    <path class="cls-3" d="M27.26,80.993c2.22,1.67,4.28,3.55,6.17,5.58,1.13,1.23,2.19,2.51,3.19,3.85"/>
    <path class="cls-3" d="M24.99,80.223c.82,0,1.62.27,2.27.77"/>
    <line class="cls-3" x1="24.99" y1="80.223" x2="23.53" y2="80.223"/>
    <path class="cls-3" d="M18.83,84.933c0-2.6,2.1-4.71,4.7-4.71"/>
    <line class="cls-3" x1="18.83" y1="84.933" x2="18.83" y2="85.403"/>
    <path class="cls-3" d="M19.3,85.873c-.26,0-.47-.21-.47-.47"/>
    <line class="cls-3" x1="19.3" y1="85.873" x2="23.06" y2="85.873"/>
    <path class="cls-3" d="M23.06,85.873c.26,0,.47.21.47.47"/>
    <line class="cls-3" x1="23.53" y1="86.343" x2="23.53" y2="89.633"/>
    <path class="cls-3" d="M23.53,89.633c0,1.04-.84,1.88-1.88,1.88"/>
    <line class="cls-3" x1="21.65" y1="91.513" x2="17.89" y2="91.513"/>
    <path class="cls-3" d="M17.89,91.513c-1.56,0-2.83-1.26-2.83-2.82"/>
    <polyline class="cls-3" points="15.06 88.693 15.06 76.663 15.06 68.943"/>
    <path class="cls-3" d="M15.06,68.943c0-.07,0-.14.01-.21.1-3.99,3.31-7.2,7.3-7.31.07-.01.15-.01.22-.01"/>
    <polyline class="cls-3" points="22.59 61.413 30.3 61.413 42.34 61.413"/>
    <path class="cls-3" d="M42.34,61.413c1.55,0,2.82,1.27,2.82,2.83"/>
    <line class="cls-3" x1="45.16" y1="64.243" x2="45.16" y2="68.003"/>
    <path class="cls-3" d="M45.16,68.003c0,1.04-.84,1.88-1.88,1.88"/>
    <line class="cls-3" x1="43.28" y1="69.883" x2="39.99" y2="69.883"/>
    <path class="cls-3" d="M39.99,69.883c-.26,0-.47-.21-.47-.47"/>
    <line class="cls-3" x1="39.52" y1="69.413" x2="39.52" y2="65.653"/>
    <path class="cls-3" d="M39.05,65.183c.25,0,.47.21.47.47"/>
    <line class="cls-3" x1="39.05" y1="65.183" x2="38.58" y2="65.183"/>
    <path class="cls-3" d="M33.87,69.883c0-2.6,2.11-4.7,4.71-4.7"/>
    <line class="cls-3" x1="33.87" y1="69.883" x2="33.87" y2="71.343"/>
    <path class="cls-3" d="M34.64,73.613c-.19-.24-.34-.51-.46-.79-.2-.46-.31-.97-.31-1.48"/>
    <path class="cls-3" d="M44.07,82.973c-1.34-1-2.62-2.06-3.85-3.19-2.03-1.89-3.91-3.95-5.58-6.17"/>
    <path class="cls-3" d="M48.56,84.463c-1.01,0-2.01-.21-2.93-.6-.55-.23-1.08-.53-1.56-.89"/>
    <polyline class="cls-3" points="48.56 84.463 48.81 84.463 56.55 84.463 56.81 84.463"/>
    <path class="cls-3" d="M61.3,82.973c-1.3.96-2.88,1.49-4.49,1.49"/>
    <path class="cls-3" d="M70.73,73.613c-2.69,3.55-5.86,6.7-9.43,9.36"/>
    <path class="cls-3" d="M71.49,71.343c0,.82-.27,1.62-.76,2.27"/>
    <line class="cls-3" x1="71.49" y1="71.343" x2="71.49" y2="69.883"/>
    <path class="cls-3" d="M66.79,65.183c2.6,0,4.7,2.1,4.7,4.7"/>
    <line class="cls-3" x1="66.79" y1="65.183" x2="66.32" y2="65.183"/>
    <path class="cls-3" d="M65.85,65.653c0-.26.21-.47.47-.47"/>
    <line class="cls-3" x1="65.85" y1="65.653" x2="65.85" y2="69.413"/>
    <path class="cls-3" d="M65.85,69.413c0,.26-.21.47-.47.47"/>
    <line class="cls-3" x1="65.38" y1="69.883" x2="62.09" y2="69.883"/>
    <path class="cls-3" d="M62.09,69.883c-1.04,0-1.88-.84-1.88-1.88"/>
    <line class="cls-3" x1="60.21" y1="68.003" x2="60.21" y2="64.243"/>
    <path class="cls-3" d="M60.21,64.243c0-1.56,1.26-2.83,2.82-2.83"/>
    <line class="cls-3" x1="63.03" y1="61.413" x2="117.57" y2="61.413"/>
    <path class="cls-3" d="M117.57,61.413c1.56,0,2.82,1.27,2.82,2.83"/>
    <line class="cls-3" x1="120.39" y1="64.243" x2="120.39" y2="68.003"/>
    <path class="cls-3" d="M120.39,68.003c0,1.04-.84,1.88-1.88,1.88"/>
    <line class="cls-3" x1="118.51" y1="69.883" x2="115.22" y2="69.883"/>
    <path class="cls-3" d="M115.22,69.883c-.26,0-.47-.21-.47-.47"/>
    <line class="cls-3" x1="114.75" y1="69.413" x2="114.75" y2="65.653"/>
    <path class="cls-3" d="M114.28,65.183c.26,0,.47.21.47.47"/>
    <line class="cls-3" x1="114.28" y1="65.183" x2="113.81" y2="65.183"/>
    <path class="cls-3" d="M109.11,69.883c0-2.6,2.1-4.7,4.7-4.7"/>
    <line class="cls-3" x1="109.11" y1="69.883" x2="109.11" y2="71.343"/>
    <path class="cls-3" d="M109.87,73.613c-.49-.65-.76-1.45-.76-2.27"/>
    <path class="cls-3" d="M119.3,82.973c-3.57-2.66-6.74-5.81-9.43-9.36"/>
    <path class="cls-3" d="M123.79,84.463c-1.62,0-3.19-.53-4.49-1.49"/>
    <polyline class="cls-3" points="123.79 84.463 124.05 84.463 131.79 84.463 132.04 84.463"/>
    <path class="cls-3" d="M136.53,82.973c-.49.36-1.01.66-1.56.89-.92.39-1.92.6-2.93.6"/>
    <path class="cls-3" d="M145.96,73.613c-1.67,2.22-3.55,4.28-5.58,6.17-1.23,1.13-2.51,2.19-3.85,3.19"/>
    <path class="cls-3" d="M146.73,71.343c0,.51-.11,1.02-.31,1.48-.12.28-.27.55-.46.79"/>
    <line class="cls-3" x1="146.73" y1="71.343" x2="146.73" y2="69.883"/>
    <path class="cls-3" d="M142.02,65.183c2.6,0,4.71,2.1,4.71,4.7"/>
    <line class="cls-3" x1="142.02" y1="65.183" x2="141.55" y2="65.183"/>
    <path class="cls-3" d="M141.08,65.653c0-.26.21-.47.47-.47"/>
    <line class="cls-3" x1="141.08" y1="65.653" x2="141.08" y2="69.413"/>
    <path class="cls-3" d="M141.08,69.413c0,.26-.21.47-.47.47"/>
    <line class="cls-3" x1="140.61" y1="69.883" x2="137.32" y2="69.883"/>
    <path class="cls-3" d="M137.32,69.883c-1.04,0-1.88-.84-1.88-1.88"/>
    <line class="cls-3" x1="135.44" y1="68.003" x2="135.44" y2="64.243"/>
    <path class="cls-3" d="M135.44,64.243c0-1.56,1.26-2.83,2.82-2.83"/>
    <polyline class="cls-3" points="138.26 61.413 150.3 61.413 158.01 61.413"/>
    <path class="cls-3" d="M158.01,61.413c.07,0,.15,0,.22.01,3.99.11,7.19,3.32,7.29,7.31.01.07.01.14.01.21"/>
    <polyline class="cls-3" points="165.53 68.943 165.53 76.663 165.53 88.693"/>
    <path class="cls-3" d="M165.53,88.693c0,1.56-1.26,2.82-2.82,2.82"/>
    <line class="cls-3" x1="162.71" y1="91.513" x2="158.95" y2="91.513"/>
    <path class="cls-3" d="M158.95,91.513c-1.04,0-1.88-.84-1.88-1.88"/>
    <line class="cls-3" x1="157.07" y1="89.633" x2="157.07" y2="86.343"/>
    <path class="cls-3" d="M157.07,86.343c0-.26.21-.47.47-.47"/>
    <line class="cls-3" x1="157.54" y1="85.873" x2="161.3" y2="85.873"/>
    <path class="cls-3" d="M161.77,85.403c0,.26-.21.47-.47.47"/>
    <line class="cls-3" x1="161.77" y1="85.403" x2="161.77" y2="84.933"/>
    <path class="cls-3" d="M157.07,80.223c2.6,0,4.7,2.11,4.7,4.71"/>
    <line class="cls-3" x1="157.07" y1="80.223" x2="155.6" y2="80.223"/>
    <path class="cls-3" d="M153.33,80.993c.25-.19.51-.34.79-.46.47-.2.97-.31,1.48-.31"/>
    <path class="cls-3" d="M143.98,90.423c2.66-3.57,5.81-6.75,9.35-9.43"/>
    <path class="cls-3" d="M142.49,94.913c0-1.62.52-3.19,1.49-4.49"/>
    <line class="cls-3" x1="142.49" y1="94.913" x2="142.49" y2="103.163"/>
    <path class="cls-3" d="M143.98,107.653c-.36-.49-.66-1.01-.9-1.57-.39-.92-.59-1.91-.59-2.92"/>
    <path class="cls-3" d="M153.33,117.083c-2.21-1.68-4.27-3.55-6.16-5.59-1.13-1.22-2.19-2.5-3.19-3.84"/>
    <path class="cls-3" d="M155.6,117.843c-.82,0-1.61-.27-2.27-.76"/>
    <line class="cls-3" x1="155.6" y1="117.843" x2="157.07" y2="117.843"/>
    <path class="cls-3" d="M161.77,113.143c0,2.6-2.1,4.7-4.7,4.7"/>
    <line class="cls-3" x1="161.77" y1="113.143" x2="161.77" y2="112.673"/>
    <path class="cls-3" d="M161.3,112.203c.26,0,.47.21.47.47"/>
    <line class="cls-3" x1="161.3" y1="112.203" x2="157.54" y2="112.203"/>
    <path class="cls-3" d="M157.54,112.203c-.26,0-.47-.21-.47-.47"/>
    <line class="cls-3" x1="157.07" y1="111.733" x2="157.07" y2="108.443"/>
    <path class="cls-3" d="M157.07,108.443c0-1.04.84-1.88,1.88-1.88"/>
    <line class="cls-3" x1="158.95" y1="106.563" x2="162.71" y2="106.563"/>
    <path class="cls-3" d="M162.71,106.563c1.56,0,2.82,1.26,2.82,2.82"/>
    <polyline class="cls-3" points="165.53 109.383 165.53 121.413 165.53 129.133"/>
    <path class="cls-3" d="M165.53,129.133c0,.07,0,.14-.01.21-.1,3.98-3.3,7.19-7.29,7.3-.07.01-.15.01-.22.01"/>
    <polyline class="cls-3" points="158.01 136.653 150.3 136.653 138.26 136.653"/>
    <path class="cls-3" d="M138.26,136.653c-1.56,0-2.82-1.26-2.82-2.82"/>
    <line class="cls-3" x1="135.44" y1="133.833" x2="135.44" y2="130.073"/>
    <path class="cls-3" d="M135.44,130.073c0-1.04.84-1.88,1.88-1.88"/>
    <line class="cls-3" x1="137.32" y1="128.193" x2="140.61" y2="128.193"/>
    <path class="cls-3" d="M140.61,128.193c.26,0,.47.21.47.47"/>
    <line class="cls-3" x1="141.08" y1="128.663" x2="141.08" y2="132.423"/>
    <path class="cls-3" d="M141.55,132.893c-.26,0-.47-.21-.47-.47"/>
    <line class="cls-3" x1="141.55" y1="132.893" x2="142.02" y2="132.893"/>
    <path class="cls-3" d="M146.73,128.193c0,2.59-2.11,4.7-4.71,4.7"/>
    <line class="cls-3" x1="146.73" y1="128.193" x2="146.73" y2="126.723"/>
    <path class="cls-3" d="M145.96,124.453c.19.24.34.51.46.79.2.46.31.97.31,1.48"/>
    <path class="cls-3" d="M136.53,115.103c1.34.99,2.62,2.06,3.85,3.19,2.03,1.88,3.91,3.94,5.58,6.16"/>
    <path class="cls-3" d="M132.04,113.613c1.01,0,2.01.2,2.93.59.55.24,1.07.54,1.56.9"/>
    <line class="cls-3" x1="132.04" y1="113.613" x2="123.79" y2="113.613"/>
    <path class="cls-3" d="M119.3,115.103c1.3-.97,2.87-1.49,4.49-1.49"/>
    <path class="cls-3" d="M109.87,124.453c2.69-3.55,5.86-6.7,9.43-9.35"/>
    <path class="cls-3" d="M109.11,126.723c0-.82.27-1.62.76-2.27"/>
    <line class="cls-3" x1="109.11" y1="126.723" x2="109.11" y2="128.193"/>
    <path class="cls-3" d="M113.81,132.893c-2.6,0-4.7-2.11-4.7-4.7"/>
    <line class="cls-3" x1="113.81" y1="132.893" x2="114.28" y2="132.893"/>
    <path class="cls-3" d="M114.75,132.423c0,.26-.21.47-.47.47"/>
    <line class="cls-3" x1="114.75" y1="132.423" x2="114.75" y2="128.663"/>
    <path class="cls-3" d="M114.75,128.663c0-.26.21-.47.47-.47"/>
    <polyline class="cls-3" points="33.07 122.243 32.18 124.423 31.24 126.723"/>
    <line class="cls-3" x1="33.07" y1="120.913" x2="33.07" y2="122.243"/>
    <line class="cls-3" x1="30.84" y1="118.683" x2="33.07" y2="120.913"/>
    <line class="cls-3" x1="29.52" y1="118.673" x2="30.84" y2="118.683"/>
    <polyline class="cls-3" points="25.03 120.493 27.29 119.573 29.52 118.673"/>
    <line class="cls-3" x1="18.67" y1="120.473" x2="25.03" y2="120.493"/>
    <line class="cls-3" x1="17.73" y1="121.413" x2="18.67" y2="120.473"/>
    <line class="cls-3" x1="17.7" y1="129.203" x2="17.73" y2="121.413"/>
    <line class="cls-3" x1="22.51" y1="134.023" x2="17.7" y2="129.203"/>
    <line class="cls-3" x1="30.3" y1="134.023" x2="22.51" y2="134.023"/>
    <line class="cls-3" x1="31.24" y1="133.083" x2="30.3" y2="134.023"/>
    <line class="cls-3" x1="29.52" y1="79.393" x2="25.03" y2="77.573"/>
    <line class="cls-3" x1="30.84" y1="79.383" x2="29.52" y2="79.393"/>
    <line class="cls-3" x1="33.07" y1="77.153" x2="30.84" y2="79.383"/>
    <line class="cls-3" x1="33.07" y1="75.833" x2="33.07" y2="77.153"/>
    <polyline class="cls-3" points="31.24 71.343 32.18 73.643 33.07 75.833"/>
    <line class="cls-3" x1="31.24" y1="64.993" x2="31.24" y2="71.343"/>
    <line class="cls-3" x1="30.3" y1="64.053" x2="31.24" y2="64.993"/>
    <line class="cls-3" x1="22.51" y1="64.053" x2="30.3" y2="64.053"/>
    <line class="cls-3" x1="17.7" y1="68.873" x2="22.51" y2="64.053"/>
    <line class="cls-3" x1="17.73" y1="76.663" x2="17.7" y2="68.873"/>
    <line class="cls-3" x1="18.67" y1="77.593" x2="17.73" y2="76.663"/>
    <polyline class="cls-3" points="35.75 79.043 38.6 81.593 42.5 85.083"/>
    <line class="cls-3" x1="34.4" y1="79.013" x2="35.75" y2="79.043"/>
    <line class="cls-3" x1="32.66" y1="80.753" x2="34.4" y2="79.013"/>
    <line class="cls-3" x1="32.69" y1="82.103" x2="32.66" y2="80.753"/>
    <polyline class="cls-3" points="38.73 88.853 35.24 84.953 32.69 82.103"/>
    <polyline class="cls-3" points="40.64 93.523 39.65 91.103 38.73 88.853"/>
    <line class="cls-3" x1="41.57" y1="94.333" x2="40.64" y2="93.523"/>
    <line class="cls-3" x1="44.01" y1="94.333" x2="41.57" y2="94.333"/>
    <line class="cls-3" x1="44.8" y1="93.903" x2="44.01" y2="94.333"/>
    <polyline class="cls-3" points="47.55 91.153 47.04 91.663 44.8 93.903"/>
    <line class="cls-3" x1="47.98" y1="90.363" x2="47.55" y2="91.153"/>
    <line class="cls-3" x1="47.98" y1="87.923" x2="47.98" y2="90.363"/>
    <line class="cls-3" x1="47.17" y1="86.993" x2="47.98" y2="87.923"/>
    <line class="cls-3" x1="32.69" y1="115.963" x2="38.73" y2="109.223"/>
    <line class="cls-3" x1="32.66" y1="117.323" x2="32.69" y2="115.963"/>
    <line class="cls-3" x1="34.4" y1="119.053" x2="32.66" y2="117.323"/>
    <line class="cls-3" x1="35.75" y1="119.033" x2="34.4" y2="119.053"/>
    <polyline class="cls-3" points="42.5 112.983 38.6 116.483 35.75 119.033"/>
    <polyline class="cls-3" points="47.17 111.073 44.75 112.063 42.5 112.983"/>
    <line class="cls-3" x1="47.98" y1="110.143" x2="47.17" y2="111.073"/>
    <line class="cls-3" x1="47.98" y1="107.703" x2="47.98" y2="110.143"/>
    <line class="cls-3" x1="47.55" y1="106.913" x2="47.98" y2="107.703"/>
    <polyline class="cls-3" points="44.8 104.163 45.32 104.683 47.55 106.913"/>
    <line class="cls-3" x1="44.01" y1="103.733" x2="44.8" y2="104.163"/>
    <line class="cls-3" x1="41.57" y1="103.733" x2="44.01" y2="103.733"/>
    <line class="cls-3" x1="40.64" y1="104.553" x2="41.57" y2="103.733"/>
    <polyline class="cls-3" points="147.53 75.833 148.42 73.643 149.36 71.343"/>
    <line class="cls-3" x1="147.53" y1="77.153" x2="147.53" y2="75.833"/>
    <line class="cls-3" x1="149.76" y1="79.383" x2="147.53" y2="77.153"/>
    <line class="cls-3" x1="151.08" y1="79.393" x2="149.76" y2="79.383"/>
    <polyline class="cls-3" points="155.57 77.573 153.29 78.493 151.08 79.393"/>
    <line class="cls-3" x1="161.93" y1="77.593" x2="155.57" y2="77.573"/>
    <line class="cls-3" x1="162.87" y1="76.663" x2="161.93" y2="77.593"/>
    <line class="cls-3" x1="162.89" y1="68.873" x2="162.87" y2="76.663"/>
    <line class="cls-3" x1="158.09" y1="64.053" x2="162.89" y2="68.873"/>
    <line class="cls-3" x1="150.3" y1="64.053" x2="158.09" y2="64.053"/>
    <line class="cls-3" x1="149.36" y1="64.993" x2="150.3" y2="64.053"/>
    <polyline class="cls-3" points="133.43 86.993 135.85 86.003 138.1 85.083"/>
    <line class="cls-3" x1="132.62" y1="87.923" x2="133.43" y2="86.993"/>
    <line class="cls-3" x1="132.62" y1="90.363" x2="132.62" y2="87.923"/>
    <line class="cls-3" x1="133.04" y1="91.153" x2="132.62" y2="90.363"/>
    <line class="cls-3" x1="134.56" y1="92.383" x2="133.04" y2="91.153"/>
    <line class="cls-3" x1="135.8" y1="93.903" x2="134.56" y2="92.383"/>
    <line class="cls-3" x1="136.58" y1="94.333" x2="135.8" y2="93.903"/>
    <line class="cls-3" x1="139.02" y1="94.333" x2="136.58" y2="94.333"/>
    <line class="cls-3" x1="139.95" y1="93.523" x2="139.02" y2="94.333"/>
    <line class="cls-3" x1="141.86" y1="88.853" x2="139.95" y2="93.523"/>
    <line class="cls-3" x1="147.91" y1="82.103" x2="141.86" y2="88.853"/>
    <line class="cls-3" x1="147.93" y1="80.753" x2="147.91" y2="82.103"/>
    <line class="cls-3" x1="146.2" y1="79.013" x2="147.93" y2="80.753"/>
    <line class="cls-3" x1="144.84" y1="79.043" x2="146.2" y2="79.013"/>
    <line class="cls-3" x1="151.08" y1="118.673" x2="155.57" y2="120.493"/>
    <line class="cls-3" x1="149.76" y1="118.683" x2="151.08" y2="118.673"/>
    <line class="cls-3" x1="147.53" y1="120.913" x2="149.76" y2="118.683"/>
    <line class="cls-3" x1="147.53" y1="122.243" x2="147.53" y2="120.913"/>
    <polyline class="cls-3" points="149.36 126.723 148.42 124.423 147.53 122.243"/>
    <line class="cls-3" x1="149.36" y1="133.083" x2="149.36" y2="126.723"/>
    <line class="cls-3" x1="150.3" y1="134.023" x2="149.36" y2="133.083"/>
    <line class="cls-3" x1="158.09" y1="134.023" x2="150.3" y2="134.023"/>
    <line class="cls-3" x1="162.89" y1="129.203" x2="158.09" y2="134.023"/>
    <line class="cls-3" x1="162.87" y1="121.413" x2="162.89" y2="129.203"/>
    <line class="cls-3" x1="161.93" y1="120.473" x2="162.87" y2="121.413"/>
    <polyline class="cls-3" points="139.96 104.543 140.94 106.953 141.87 109.223"/>
    <line class="cls-3" x1="139.02" y1="103.733" x2="139.96" y2="104.543"/>
    <line class="cls-3" x1="136.59" y1="103.733" x2="139.02" y2="103.733"/>
    <line class="cls-3" x1="135.8" y1="104.163" x2="136.59" y2="103.733"/>
    <line class="cls-3" x1="134.57" y1="105.683" x2="135.8" y2="104.163"/>
    <line class="cls-3" x1="133.05" y1="106.913" x2="134.57" y2="105.683"/>
    <line class="cls-3" x1="132.62" y1="107.703" x2="133.05" y2="106.913"/>
    <line class="cls-3" x1="132.62" y1="110.143" x2="132.62" y2="107.703"/>
    <line class="cls-3" x1="133.43" y1="111.073" x2="132.62" y2="110.143"/>
    <polyline class="cls-3" points="138.1 112.983 135.85 112.063 133.43 111.073"/>
    <polyline class="cls-3" points="144.85 119.023 142 116.473 138.1 112.983"/>
    <line class="cls-3" x1="146.2" y1="119.053" x2="144.85" y2="119.023"/>
    <line class="cls-3" x1="147.94" y1="117.313" x2="146.2" y2="119.053"/>
    <line class="cls-3" x1="147.91" y1="115.963" x2="147.94" y2="117.313"/>
    <line class="cls-3" x1="63.54" y1="85.993" x2="73.73" y2="75.893"/>
    <line class="cls-3" x1="58.21" y1="88.133" x2="63.54" y2="85.993"/>
    <line class="cls-3" x1="57.38" y1="89.063" x2="58.21" y2="88.133"/>
    <line class="cls-3" x1="57.38" y1="90.363" x2="57.38" y2="89.063"/>
    <line class="cls-3" x1="57.81" y1="91.153" x2="57.38" y2="90.363"/>
    <line class="cls-3" x1="59.33" y1="92.383" x2="57.81" y2="91.153"/>
    <line class="cls-3" x1="60.56" y1="93.903" x2="59.33" y2="92.383"/>
    <line class="cls-3" x1="61.35" y1="94.333" x2="60.56" y2="93.903"/>
    <line class="cls-3" x1="61.52" y1="94.333" x2="61.35" y2="94.333"/>
    <line class="cls-3" x1="62.09" y1="94.893" x2="61.52" y2="94.333"/>
    <line class="cls-3" x1="62.09" y1="103.173" x2="62.09" y2="94.893"/>
    <line class="cls-3" x1="61.52" y1="103.733" x2="62.09" y2="103.173"/>
    <line class="cls-3" x1="61.35" y1="103.733" x2="61.52" y2="103.733"/>
    <line class="cls-3" x1="60.56" y1="104.163" x2="61.35" y2="103.733"/>
    <line class="cls-3" x1="59.33" y1="105.683" x2="60.56" y2="104.163"/>
    <line class="cls-3" x1="57.81" y1="106.913" x2="59.33" y2="105.683"/>
    <line class="cls-3" x1="57.38" y1="107.703" x2="57.81" y2="106.913"/>
    <line class="cls-3" x1="57.38" y1="109.003" x2="57.38" y2="107.703"/>
    <line class="cls-3" x1="58.21" y1="109.933" x2="57.38" y2="109.003"/>
    <line class="cls-3" x1="63.54" y1="112.083" x2="58.21" y2="109.933"/>
    <line class="cls-3" x1="73.73" y1="122.183" x2="63.54" y2="112.083"/>
    <line class="cls-3" x1="75.25" y1="126.723" x2="73.73" y2="122.183"/>
    <line class="cls-3" x1="75.25" y1="128.193" x2="75.25" y2="126.723"/>
    <line class="cls-3" x1="79.95" y1="132.893" x2="75.25" y2="128.193"/>
    <line class="cls-3" x1="100.64" y1="132.893" x2="79.95" y2="132.893"/>
    <line class="cls-3" x1="105.35" y1="128.193" x2="100.64" y2="132.893"/>
    <line class="cls-3" x1="105.35" y1="126.723" x2="105.35" y2="128.193"/>
    <line class="cls-3" x1="106.87" y1="122.183" x2="105.35" y2="126.723"/>
    <line class="cls-3" x1="117.06" y1="112.083" x2="106.87" y2="122.183"/>
    <line class="cls-3" x1="122.39" y1="109.933" x2="117.06" y2="112.083"/>
    <line class="cls-3" x1="123.21" y1="109.003" x2="122.39" y2="109.933"/>
    <line class="cls-3" x1="123.21" y1="107.703" x2="123.21" y2="109.003"/>
    <line class="cls-3" x1="122.79" y1="106.913" x2="123.21" y2="107.703"/>
    <line class="cls-3" x1="121.27" y1="105.683" x2="122.79" y2="106.913"/>
    <line class="cls-3" x1="120.03" y1="104.163" x2="121.27" y2="105.683"/>
    <line class="cls-3" x1="119.25" y1="103.733" x2="120.03" y2="104.163"/>
    <line class="cls-3" x1="119.08" y1="103.733" x2="119.25" y2="103.733"/>
    <line class="cls-3" x1="118.51" y1="103.173" x2="119.08" y2="103.733"/>
    <line class="cls-3" x1="118.51" y1="94.893" x2="118.51" y2="103.173"/>
    <line class="cls-3" x1="119.08" y1="94.333" x2="118.51" y2="94.893"/>
    <line class="cls-3" x1="119.25" y1="94.333" x2="119.08" y2="94.333"/>
    <line class="cls-3" x1="120.03" y1="93.903" x2="119.25" y2="94.333"/>
    <line class="cls-3" x1="121.27" y1="92.383" x2="120.03" y2="93.903"/>
    <line class="cls-3" x1="122.79" y1="91.153" x2="121.27" y2="92.383"/>
    <line class="cls-3" x1="123.21" y1="90.363" x2="122.79" y2="91.153"/>
    <line class="cls-3" x1="123.21" y1="89.063" x2="123.21" y2="90.363"/>
    <line class="cls-3" x1="122.39" y1="88.133" x2="123.21" y2="89.063"/>
    <line class="cls-3" x1="117.06" y1="85.993" x2="122.39" y2="88.133"/>
    <line class="cls-3" x1="106.87" y1="75.893" x2="117.06" y2="85.993"/>
    <line class="cls-3" x1="105.35" y1="71.343" x2="106.87" y2="75.893"/>
    <line class="cls-3" x1="105.35" y1="69.883" x2="105.35" y2="71.343"/>
    <line class="cls-3" x1="100.64" y1="65.183" x2="105.35" y2="69.883"/>
    <line class="cls-3" x1="79.95" y1="65.183" x2="100.64" y2="65.183"/>
    <line class="cls-3" x1="75.25" y1="69.883" x2="79.95" y2="65.183"/>
    <line class="cls-3" x1="75.25" y1="71.343" x2="75.25" y2="69.883"/>
    <line class="cls-3" x1="31.24" y1="126.723" x2="31.24" y2="133.083"/>
    <line class="cls-3" x1="25.03" y1="77.573" x2="18.67" y2="77.593"/>
    <polyline class="cls-3" points="42.5 85.083 44.75 86.003 47.17 86.993"/>
    <line class="cls-3" x1="38.73" y1="109.223" x2="40.64" y2="104.553"/>
    <line class="cls-3" x1="149.36" y1="71.343" x2="149.36" y2="64.993"/>
    <polyline class="cls-3" points="138.1 85.083 142 81.593 144.84 79.043"/>
    <line class="cls-3" x1="155.57" y1="120.493" x2="161.93" y2="120.473"/>
    <polyline class="cls-3" points="141.87 109.223 145.36 113.113 147.91 115.963"/>
    <line class="cls-3" x1="73.73" y1="75.893" x2="75.25" y2="71.343"/>
    <line class="cls-3" x1="115.22" y1="128.193" x2="118.51" y2="128.193"/>
    <path class="cls-3" d="M121.21,69.783c-.21,0-.41.13-.5.32"/>
    <line class="cls-3" x1="134.62" y1="69.783" x2="121.21" y2="69.783"/>
    <path class="cls-3" d="M135.13,70.103c-.1-.19-.29-.32-.51-.32"/>
    <line class="cls-3" x1="135.3" y1="70.453" x2="135.13" y2="70.103"/>
    <path class="cls-3" d="M135.75,70.763c-.18-.02-.35-.13-.44-.29,0-.01-.01-.01-.01-.02"/>
    <line class="cls-3" x1="139.1" y1="71.103" x2="135.75" y2="70.763"/>
    <path class="cls-3" d="M140.03,73.423c.51-.59.44-1.48-.16-1.99-.22-.19-.48-.3-.77-.33"/>
    <line class="cls-3" x1="132.93" y1="81.763" x2="140.03" y2="73.423"/>
    <path class="cls-3" d="M122.9,81.763c.1.12.21.24.34.35,2.38,2.44,6.29,2.66,8.94.4.15-.13.29-.26.42-.4.12-.11.23-.23.33-.35"/>
    <line class="cls-3" x1="115.8" y1="73.423" x2="122.9" y2="81.763"/>
    <path class="cls-3" d="M116.73,71.103c-.77.08-1.34.77-1.26,1.55.03.28.15.55.33.77"/>
    <line class="cls-3" x1="120.08" y1="70.763" x2="116.73" y2="71.103"/>
    <path class="cls-3" d="M120.53,70.453c0,.01-.01.01-.01.02-.08.16-.25.27-.44.29"/>
    <line class="cls-3" x1="120.71" y1="70.103" x2="120.53" y2="70.453"/>
    <path class="cls-3" d="M45.98,69.783c-.22,0-.41.13-.51.32"/>
    <line class="cls-3" x1="59.39" y1="69.783" x2="45.98" y2="69.783"/>
    <path class="cls-3" d="M59.89,70.103c-.09-.19-.29-.32-.5-.32"/>
    <line class="cls-3" x1="60.07" y1="70.453" x2="59.89" y2="70.103"/>
    <path class="cls-3" d="M60.51,70.763c-.18-.02-.35-.13-.43-.29,0-.01-.01-.01-.01-.02"/>
    <line class="cls-3" x1="63.87" y1="71.103" x2="60.51" y2="70.763"/>
    <path class="cls-3" d="M64.8,73.423c.5-.59.43-1.48-.16-1.99-.22-.19-.49-.3-.77-.33"/>
    <line class="cls-3" x1="57.69" y1="81.763" x2="64.8" y2="73.423"/>
    <path class="cls-3" d="M47.67,81.763c.1.12.21.24.33.35,2.38,2.44,6.3,2.66,8.95.4.15-.12.28-.25.42-.39.11-.12.22-.24.32-.36"/>
    <line class="cls-3" x1="40.57" y1="73.423" x2="47.67" y2="81.763"/>
    <path class="cls-3" d="M41.5,71.103c-.78.08-1.34.77-1.26,1.55.03.28.14.55.33.77"/>
    <line class="cls-3" x1="44.85" y1="70.763" x2="41.5" y2="71.103"/>
    <path class="cls-3" d="M45.3,70.453c0,.01-.01.01-.02.02-.08.16-.25.27-.43.29"/>
    <line class="cls-3" x1="45.47" y1="70.103" x2="45.3" y2="70.453"/>
    <path class="cls-3" d="M7.231,12.114l-1.861,2.379"/>
    <path class="cls-3" d="M5.37,14.493c-1.03,1.33-1.59,2.96-1.59,4.64"/>
    <polyline class="cls-3" points="3.78 19.133 3.78 20.103 3.78 61.043"/>
    <line class="cls-3" x1="9.42" y1="61.043" x2="13.18" y2="61.043"/>
    <line class="cls-3" x1="3.78" y1="61.043" x2="9.42" y2="61.043"/>
    <line class="cls-3" x1="9.42" y1="61.043" x2="9.42" y2="19.133"/>
    <line class="cls-3" x1="159.89" y1="19.133" x2="159.89" y2="42.613"/>
    <path class="cls-3" d="M162.68,11.023c-1.35,1.73-2.24,3.75-2.6,5.89-.13.73-.19,1.47-.19,2.22"/>
    <path class="cls-3" d="M170.742.709l-8.062,10.314"/>
    <path class="cls-3" d="M9.82,17.973c1.723-2.212,3.452-4.42,5.178-6.63"/>
    <path class="cls-3" d="M9.42,19.133c0-.42.14-.83.4-1.16"/>
    <line class="cls-3" x1="165.53" y1="42.613" x2="165.53" y2="19.133"/>
    <path class="cls-3" d="M165.53,19.133v-.09c.02-1.65.59-3.24,1.6-4.55"/>
    <path class="cls-3" d="M167.13,14.493l4.871-6.233"/>
    <line class="cls-3" x1="167.42" y1="44.493" x2="165.53" y2="42.613"/>
    <line class="cls-3" x1="146.73" y1="44.493" x2="167.42" y2="44.493"/>
    <polyline class="cls-3" points="165.53 42.613 159.89 42.613 146.73 42.613"/>
    <line class="cls-3" x1="146.73" y1="44.493" x2="118.51" y2="44.493"/>
    <polyline class="cls-3" points="118.51 42.613 144.66 42.613 146.73 42.613"/>
    <line class="cls-3" x1="104.67" y1="44.493" x2="118.51" y2="44.493"/>
    <polyline class="cls-3" points="118.51 42.613 111.18 42.613 103.47 42.613"/>
    <path class="cls-3" d="M100.71,46.063c.58-.4,1.21-.77,1.83-1.05.76-.33,1.5-.52,2.13-.52"/>
    <path class="cls-3" d="M100.71,46.063c-.05.03-.1.06-.14.08-.13.08-.26.15-.4.2s-.29.08-.47.06"/>
    <line class="cls-3" x1="99.7" y1="42.613" x2="103.47" y2="42.613"/>
    <path class="cls-3" d="M99.7,46.403c-.26-.02-.53-.03-.79-.03"/>
    <line class="cls-3" x1="80.89" y1="42.613" x2="99.7" y2="42.613"/>
    <path class="cls-3" d="M81.69,46.373c-.27,0-.53.01-.8.03"/>
    <line class="cls-3" x1="98.91" y1="46.373" x2="81.69" y2="46.373"/>
    <path class="cls-3" d="M80.89,46.403c-.03.01-.07.01-.11.01-.15,0-.31-.05-.46-.11-.16-.07-.3-.16-.43-.24"/>
    <line class="cls-3" x1="77.13" y1="42.613" x2="80.89" y2="42.613"/>
    <path class="cls-3" d="M75.93,44.493c.63,0,1.37.19,2.12.52.63.28,1.26.65,1.84,1.05"/>
    <polyline class="cls-3" points="77.13 42.613 69.42 42.613 62.09 42.613"/>
    <line class="cls-3" x1="62.09" y1="44.493" x2="75.93" y2="44.493"/>
    <polyline class="cls-3" points="33.87 42.613 35.94 42.613 62.09 42.613"/>
    <line class="cls-3" x1="62.09" y1="44.493" x2="33.87" y2="44.493"/>
    <line class="cls-3" x1="33.87" y1="42.613" x2="15.06" y2="42.613"/>
    <line class="cls-3" x1="13.18" y1="44.493" x2="15.06" y2="42.613"/>
    <line class="cls-3" x1="13.18" y1="44.493" x2="33.87" y2="44.493"/>
    <line class="cls-3" x1="13.5" y1="42.613" x2="15.06" y2="42.613"/>
    <line class="cls-3" x1="13.18" y1="44.493" x2="13.18" y2="43.083"/>
    <line class="cls-3" x1="13.5" y1="42.613" x2="13.18" y2="42.613"/>
    <line class="cls-3" x1="13.18" y1="43.083" x2="13.18" y2="42.613"/>
    <line class="cls-3" x1="167.42" y1="61.413" x2="167.42" y2="44.493"/>
    <line class="cls-3" x1="167.42" y1="61.413" x2="158.01" y2="61.413"/>
    <polyline class="cls-3" points="138.26 61.413 135.31 61.413 120.52 61.413 118.51 61.413"/>
    <line class="cls-3" x1="117.57" y1="61.413" x2="118.51" y2="61.413"/>
    <line class="cls-3" x1="62.09" y1="61.413" x2="63.03" y2="61.413"/>
    <polyline class="cls-3" points="62.09 61.413 60.08 61.413 45.28 61.413 42.34 61.413"/>
    <polyline class="cls-3" points="13.18 44.493 13.18 61.043 13.18 61.413"/>
    <line class="cls-3" x1="22.59" y1="61.413" x2="13.18" y2="61.413"/>
    <path class="cls-3" d="M132.61,82.123c-.06.83-.35,1.64-.82,2.34"/>
    <path class="cls-3" d="M124.05,84.463c-.48-.7-.76-1.51-.82-2.34"/>
    <path class="cls-3" d="M57.37,82.123c-.06.83-.34,1.64-.82,2.34"/>
    <path class="cls-3" d="M48.81,84.463c-.48-.7-.76-1.51-.82-2.34"/>
    <polyline class="cls-3" points="35.94 42.513 40.27 42.513 65.1 42.513 69.42 42.513"/>
    <line class="cls-3" x1="46.57" y1="37.063" x2="58.79" y2="37.063"/>
    <line class="cls-3" x1="60.08" y1="61.413" x2="60.08" y2="70.473"/>
    <line class="cls-3" x1="45.28" y1="61.413" x2="45.28" y2="70.473"/>
    <line class="cls-3" x1="69.42" y1="42.513" x2="69.42" y2="42.613"/>
    <line class="cls-3" x1="35.94" y1="42.513" x2="35.94" y2="42.613"/>
    <path class="cls-3" d="M40.27,42.513c1.53-2.38,3.72-4.28,6.3-5.45"/>
    <path class="cls-3" d="M58.79,37.063c2.59,1.17,4.77,3.07,6.31,5.45"/>
    <polyline class="cls-3" points="111.18 42.513 115.5 42.513 140.33 42.513 144.66 42.513"/>
    <line class="cls-3" x1="121.8" y1="37.063" x2="134.03" y2="37.063"/>
    <line class="cls-3" x1="135.31" y1="61.413" x2="135.31" y2="70.473"/>
    <line class="cls-3" x1="120.52" y1="61.413" x2="120.52" y2="70.473"/>
    <line class="cls-3" x1="144.66" y1="42.513" x2="144.66" y2="42.613"/>
    <line class="cls-3" x1="111.18" y1="42.513" x2="111.18" y2="42.613"/>
    <path class="cls-3" d="M115.5,42.513c1.54-2.38,3.72-4.28,6.3-5.45"/>
    <path class="cls-3" d="M134.03,37.063c2.58,1.17,4.77,3.07,6.3,5.45"/>
    <line class="cls-4" x1="120.96" y1="70.223" x2="120.71" y2="70.103"/>
    <path class="cls-4" d="M120.96,70.223c.05-.09.15-.15.25-.15"/>
    <line class="cls-4" x1="121.21" y1="69.783" x2="121.21" y2="70.073"/>
    <line class="cls-4" x1="134.62" y1="69.783" x2="134.62" y2="70.073"/>
    <line class="cls-4" x1="121.21" y1="70.073" x2="134.62" y2="70.073"/>
    <line class="cls-4" x1="135.13" y1="70.103" x2="134.87" y2="70.223"/>
    <path class="cls-4" d="M134.62,70.073c.11,0,.21.06.25.15"/>
    <line class="cls-4" x1="135.3" y1="70.453" x2="135.05" y2="70.573"/>
    <line class="cls-4" x1="134.87" y1="70.223" x2="135.05" y2="70.573"/>
    <line class="cls-4" x1="135.75" y1="70.763" x2="135.72" y2="71.043"/>
    <path class="cls-4" d="M135.05,70.573c.13.26.38.44.67.47"/>
    <line class="cls-4" x1="139.1" y1="71.103" x2="139.07" y2="71.383"/>
    <line class="cls-4" x1="135.72" y1="71.043" x2="139.07" y2="71.383"/>
    <line class="cls-4" x1="140.03" y1="73.423" x2="139.82" y2="73.243"/>
    <path class="cls-4" d="M139.07,71.383c.23.03.44.12.62.26.47.41.53,1.12.13,1.6"/>
    <line class="cls-4" x1="132.93" y1="81.763" x2="132.72" y2="81.583"/>
    <line class="cls-4" x1="139.82" y1="73.243" x2="132.72" y2="81.583"/>
    <line class="cls-4" x1="122.9" y1="81.763" x2="123.12" y2="81.583"/>
    <path class="cls-4" d="M132.72,81.583c-.22.26-.46.5-.72.71-2.65,2.26-6.63,1.94-8.88-.71"/>
    <line class="cls-4" x1="115.8" y1="73.423" x2="116.02" y2="73.243"/>
    <line class="cls-4" x1="123.12" y1="81.583" x2="116.02" y2="73.243"/>
    <line class="cls-4" x1="116.73" y1="71.103" x2="116.76" y2="71.383"/>
    <path class="cls-4" d="M116.02,73.243c-.15-.18-.24-.39-.27-.62-.06-.62.39-1.17,1.01-1.24"/>
    <line class="cls-4" x1="120.08" y1="70.763" x2="120.11" y2="71.043"/>
    <line class="cls-4" x1="116.76" y1="71.383" x2="120.11" y2="71.043"/>
    <line class="cls-4" x1="120.53" y1="70.453" x2="120.78" y2="70.573"/>
    <path class="cls-4" d="M120.11,71.043c.29-.03.54-.21.67-.47"/>
    <line class="cls-4" x1="120.78" y1="70.573" x2="120.96" y2="70.223"/>
    <line class="cls-4" x1="45.72" y1="70.223" x2="45.47" y2="70.103"/>
    <path class="cls-4" d="M45.72,70.223c.05-.09.15-.15.26-.15"/>
    <line class="cls-4" x1="45.98" y1="69.783" x2="45.98" y2="70.073"/>
    <line class="cls-4" x1="59.39" y1="69.783" x2="59.39" y2="70.073"/>
    <line class="cls-4" x1="45.98" y1="70.073" x2="59.39" y2="70.073"/>
    <line class="cls-4" x1="59.89" y1="70.103" x2="59.64" y2="70.223"/>
    <path class="cls-4" d="M59.39,70.073c.1,0,.2.06.25.15"/>
    <line class="cls-4" x1="60.07" y1="70.453" x2="59.81" y2="70.573"/>
    <line class="cls-4" x1="59.64" y1="70.223" x2="59.81" y2="70.573"/>
    <line class="cls-4" x1="60.51" y1="70.763" x2="60.48" y2="71.043"/>
    <path class="cls-4" d="M59.81,70.573c.13.26.39.44.67.47"/>
    <line class="cls-4" x1="63.87" y1="71.103" x2="63.84" y2="71.383"/>
    <line class="cls-4" x1="60.48" y1="71.043" x2="63.84" y2="71.383"/>
    <line class="cls-4" x1="64.8" y1="73.423" x2="64.58" y2="73.243"/>
    <path class="cls-4" d="M63.84,71.383c.23.03.44.12.61.26.48.41.54,1.12.13,1.6"/>
    <line class="cls-4" x1="57.69" y1="81.763" x2="57.48" y2="81.583"/>
    <line class="cls-4" x1="64.58" y1="73.243" x2="57.48" y2="81.583"/>
    <line class="cls-4" x1="47.67" y1="81.763" x2="47.88" y2="81.583"/>
    <path class="cls-4" d="M57.48,81.583c-.22.26-.46.5-.71.71-2.65,2.26-6.63,1.94-8.89-.71"/>
    <line class="cls-4" x1="40.57" y1="73.423" x2="40.78" y2="73.243"/>
    <line class="cls-4" x1="47.88" y1="81.583" x2="40.78" y2="73.243"/>
    <line class="cls-4" x1="41.5" y1="71.103" x2="41.53" y2="71.383"/>
    <path class="cls-4" d="M40.78,73.243c-.15-.18-.24-.39-.26-.62-.07-.62.39-1.17,1.01-1.24"/>
    <line class="cls-4" x1="44.85" y1="70.763" x2="44.88" y2="71.043"/>
    <line class="cls-4" x1="41.53" y1="71.383" x2="44.88" y2="71.043"/>
    <line class="cls-4" x1="45.3" y1="70.453" x2="45.55" y2="70.573"/>
    <path class="cls-4" d="M44.88,71.043c.29-.03.54-.21.67-.47"/>
    <line class="cls-4" x1="45.55" y1="70.573" x2="45.72" y2="70.223"/>
    <path class="cls-4" d="M54.34,23.703v-14.268"/>
    <path class="cls-4" d="M121.971,3.549c-1.772,6.812-3.545,13.624-5.321,20.435"/>
    <path class="cls-4" d="M116.65,23.983c-.13.49-.57.82-1.07.82"/>
    <line class="cls-4" x1="115.58" y1="24.803" x2="55.44" y2="24.803"/>
    <path class="cls-4" d="M55.44,24.803c-.61,0-1.1-.49-1.1-1.1"/>
    <line class="cls-4" x1="129.38" y1="3.683" x2="128.09" y2="3.343"/>
    <polyline class="cls-4" points="123.62 25.803 125.96 16.813 129.38 3.683"/>
    <path class="cls-4" d="M115.58,32.013c3.78,0,7.08-2.56,8.04-6.21"/>
    <line class="cls-4" x1="55.44" y1="32.013" x2="115.58" y2="32.013"/>
    <path class="cls-4" d="M47.14,23.703c0,4.59,3.72,8.31,8.3,8.31"/>
    <path class="cls-4" d="M47.14,9.435c0,4.756,0,9.512,0,14.268"/>
    <line class="cls-4" x1="167.13" y1="14.493" x2="162.68" y2="11.023"/>
    <polyline class="cls-4" points="5.37 14.493 8.87 17.233 9.82 17.973"/>
    <line class="cls-4" x1="13.18" y1="43.083" x2="13.5" y2="42.613"/>
  </g>
</svg>