<?xml version="1.0" encoding="UTF-8"?>
<svg xmlns="http://www.w3.org/2000/svg" viewBox="0 0 781.664 227.288">
  <defs>
    <style>
      .cls-1 {
        stroke: #000;
        stroke-linecap: round;
        stroke-linejoin: round;
        stroke-width: .75px;
      }

      .cls-1, .cls-2 {
        fill: none;
      }

      .cls-3 {
        fill: #e84e0f;
      }
    </style>
  </defs>
  <g id="Visible">
    <g id="LINE">
      <line class="cls-1" x1="418.178" y1="61.942" x2="417.618" y2="62.501"/>
    </g>
    <g id="LINE-2" data-name="LINE">
      <line class="cls-1" x1="418.178" y1="61.942" x2="427.681" y2="61.942"/>
    </g>
    <g id="ARC">
      <path class="cls-1" d="M737.71,193.574c-.68.706-.82,1.772-.347,2.63"/>
    </g>
    <g id="ARC-2" data-name="ARC">
      <path class="cls-1" d="M737.363,196.204c.228.413.347.877.347,1.349,0,1.544-1.251,2.795-2.795,2.795"/>
    </g>
    <g id="ARC-3" data-name="ARC">
      <path class="cls-1" d="M732.467,196.204c-.745,1.352-.253,3.052,1.099,3.797.413.228.877.347,1.349.347"/>
    </g>
    <g id="ARC-4" data-name="ARC">
      <path class="cls-1" d="M732.12,193.574c.68.706.82,1.772.347,2.63"/>
    </g>
    <g id="LINE-3" data-name="LINE">
      <line class="cls-1" x1="734.915" y1="200.349" x2="734.915" y2="196.204"/>
    </g>
    <g id="LINE-4" data-name="LINE">
      <line class="cls-1" x1="734.915" y1="193.574" x2="734.915" y2="196.204"/>
    </g>
    <g id="LINE-5" data-name="LINE">
      <line class="cls-1" x1="732.12" y1="193.574" x2="734.915" y2="193.574"/>
    </g>
    <g id="LINE-6" data-name="LINE">
      <line class="cls-1" x1="732.12" y1="81.834" x2="732.12" y2="193.574"/>
    </g>
    <g id="LINE-7" data-name="LINE">
      <line class="cls-1" x1="734.915" y1="81.834" x2="734.915" y2="193.574"/>
    </g>
    <g id="LINE-8" data-name="LINE">
      <line class="cls-1" x1="734.915" y1="193.574" x2="737.71" y2="193.574"/>
    </g>
    <g id="LINE-9" data-name="LINE">
      <line class="cls-1" x1="737.71" y1="81.834" x2="737.71" y2="193.574"/>
    </g>
    <g id="ARC-5" data-name="ARC">
      <path class="cls-1" d="M742.182,71.771c-5.557,0-10.063,4.505-10.063,10.063"/>
    </g>
    <g id="ARC-6" data-name="ARC">
      <path class="cls-1" d="M742.182,74.566c-4.014,0-7.267,3.254-7.267,7.267"/>
    </g>
    <g id="ARC-7" data-name="ARC">
      <path class="cls-1" d="M742.182,77.361c-2.47,0-4.472,2.002-4.472,4.472"/>
    </g>
    <g id="LINE-10" data-name="LINE">
      <line class="cls-1" x1="771.252" y1="71.771" x2="771.252" y2="74.566"/>
    </g>
    <g id="LINE-11" data-name="LINE">
      <line class="cls-1" x1="771.252" y1="71.771" x2="742.182" y2="71.771"/>
    </g>
    <g id="LINE-12" data-name="LINE">
      <line class="cls-1" x1="771.252" y1="74.566" x2="742.182" y2="74.566"/>
    </g>
    <g id="LINE-13" data-name="LINE">
      <line class="cls-1" x1="771.252" y1="74.566" x2="771.252" y2="77.361"/>
    </g>
    <g id="LINE-14" data-name="LINE">
      <line class="cls-1" x1="771.252" y1="77.361" x2="742.182" y2="77.361"/>
    </g>
    <g id="LINE-15" data-name="LINE">
      <line class="cls-1" x1="251.362" y1="61.942" x2="251.921" y2="62.501"/>
    </g>
    <g id="LINE-16" data-name="LINE">
      <line class="cls-1" x1="251.362" y1="61.942" x2="241.858" y2="61.942"/>
    </g>
  </g>
  <g id="Visible_Narrow" data-name="Visible Narrow">
    <g id="LINE-17" data-name="LINE">
      <line class="cls-1" x1="734.915" y1="196.204" x2="732.467" y2="196.204"/>
    </g>
    <g id="LINE-18" data-name="LINE">
      <line class="cls-1" x1="734.915" y1="81.834" x2="732.12" y2="81.834"/>
    </g>
    <g id="LINE-19" data-name="LINE">
      <line class="cls-1" x1="737.363" y1="196.204" x2="734.915" y2="196.204"/>
    </g>
    <g id="LINE-20" data-name="LINE">
      <line class="cls-1" x1="737.71" y1="81.834" x2="734.915" y2="81.834"/>
    </g>
    <g id="LINE-21" data-name="LINE">
      <line class="cls-1" x1="742.182" y1="74.566" x2="742.182" y2="71.771"/>
    </g>
    <g id="LINE-22" data-name="LINE">
      <line class="cls-1" x1="742.182" y1="77.361" x2="742.182" y2="74.566"/>
    </g>
    <g>
      <line class="cls-1" x1="172.11" y1="207.738" x2="172.11" y2="207.354"/>
      <path class="cls-1" d="M171.551,207.354c.186.038.373.038.559,0"/>
      <path class="cls-1" d="M169.738,207.738c.557,0,1.174-.131,1.813-.385"/>
      <line class="cls-1" x1="165.266" y1="212.211" x2="167.638" y2="212.211"/>
      <line class="cls-1" x1="172.11" y1="207.738" x2="167.638" y2="212.211"/>
      <line class="cls-1" x1="172.11" y1="88.664" x2="172.11" y2="207.354"/>
      <line class="cls-1" x1="171.551" y1="207.354" x2="171.551" y2="88.664"/>
      <line class="cls-1" x1="167.254" y1="88.664" x2="165.43" y2="90.489"/>
      <path class="cls-1" d="M165.43,90.489c-.734.734-1.146,1.729-1.146,2.767"/>
      <line class="cls-1" x1="164.284" y1="93.256" x2="164.284" y2="100.963"/>
      <path class="cls-1" d="M164.284,100.963c0,.79.239,1.562.687,2.214"/>
      <path class="cls-1" d="M164.97,103.177c1.738,2.532,2.668,5.532,2.668,8.603"/>
      <line class="cls-1" x1="167.638" y1="111.78" x2="167.638" y2="168.411"/>
      <path class="cls-1" d="M167.638,168.411c0,3.071-.93,6.071-2.668,8.603"/>
      <path class="cls-1" d="M164.97,177.014c-.447.652-.687,1.424-.687,2.214"/>
      <line class="cls-1" x1="164.284" y1="179.228" x2="164.284" y2="207.738"/>
      <line class="cls-1" x1="164.284" y1="207.738" x2="169.738" y2="207.738"/>
      <line class="cls-1" x1="165.266" y1="212.211" x2="164.284" y2="212.211"/>
      <line class="cls-1" x1="172.11" y1="88.664" x2="172.11" y2="84.751"/>
      <line class="cls-1" x1="171.551" y1="84.192" x2="172.11" y2="84.751"/>
      <line class="cls-1" x1="171.551" y1="84.192" x2="171.551" y2="88.664"/>
      <line class="cls-1" x1="176.694" y1="186.104" x2="176.694" y2="200.415"/>
      <line class="cls-1" x1="177.253" y1="199.856" x2="177.253" y2="186.663"/>
      <line class="cls-1" x1="176.694" y1="142.331" x2="176.694" y2="156.642"/>
      <line class="cls-1" x1="177.253" y1="156.083" x2="177.253" y2="142.89"/>
      <line class="cls-1" x1="165.402" y1="84.192" x2="171.551" y2="84.192"/>
      <path class="cls-1" d="M167.254,88.664c2.47-2.47,1.641-4.472-1.852-4.472"/>
      <line class="cls-1" x1="162.267" y1="87.326" x2="165.402" y2="84.192"/>
      <line class="cls-1" x1="159.811" y1="207.738" x2="159.811" y2="179.228"/>
      <path class="cls-1" d="M159.811,179.228c0-1.694.513-3.348,1.471-4.744"/>
      <path class="cls-1" d="M161.283,174.483c1.227-1.788,1.883-3.905,1.883-6.073"/>
      <line class="cls-1" x1="163.166" y1="168.411" x2="163.166" y2="111.78"/>
      <path class="cls-1" d="M163.166,111.78c0-2.168-.656-4.285-1.883-6.073"/>
      <path class="cls-1" d="M161.283,105.707c-.958-1.397-1.471-3.051-1.471-4.744"/>
      <line class="cls-1" x1="159.811" y1="100.963" x2="159.811" y2="93.256"/>
      <path class="cls-1" d="M159.811,93.256c0-2.224.883-4.357,2.456-5.929"/>
      <path class="cls-1" d="M164.284,212.211c-2.47,0-4.472-2.002-4.472-4.472"/>
      <line class="cls-1" x1="177.253" y1="199.856" x2="176.694" y2="200.415"/>
      <line class="cls-1" x1="177.253" y1="186.663" x2="176.694" y2="186.104"/>
      <line class="cls-1" x1="176.694" y1="200.415" x2="172.11" y2="200.415"/>
      <line class="cls-1" x1="176.694" y1="186.104" x2="172.11" y2="186.104"/>
      <line class="cls-1" x1="177.253" y1="156.083" x2="176.694" y2="156.642"/>
      <line class="cls-1" x1="177.253" y1="142.89" x2="176.694" y2="142.331"/>
      <line class="cls-1" x1="176.694" y1="156.642" x2="172.11" y2="156.642"/>
      <line class="cls-1" x1="176.694" y1="142.331" x2="172.11" y2="142.331"/>
      <line class="cls-1" x1="5.518" y1="207.738" x2="5.518" y2="207.354"/>
      <line class="cls-1" x1="5.518" y1="207.738" x2="9.99" y2="212.211"/>
      <line class="cls-1" x1="12.362" y1="212.211" x2="9.99" y2="212.211"/>
      <path class="cls-1" d="M7.89,207.738c-.557,0-1.174-.131-1.813-.385"/>
      <path class="cls-1" d="M6.077,207.354c-.186.038-.373.038-.559,0"/>
      <line class="cls-1" x1="6.077" y1="207.354" x2="6.077" y2="88.664"/>
      <line class="cls-1" x1="5.518" y1="88.664" x2="5.518" y2="207.354"/>
      <line class="cls-1" x1="13.345" y1="207.738" x2="7.89" y2="207.738"/>
      <line class="cls-1" x1="13.345" y1="179.228" x2="13.345" y2="207.738"/>
      <path class="cls-1" d="M12.658,177.014c.447.652.687,1.424.687,2.214"/>
      <path class="cls-1" d="M9.99,168.411c0,3.071.93,6.071,2.668,8.603"/>
      <line class="cls-1" x1="9.99" y1="111.78" x2="9.99" y2="168.411"/>
      <path class="cls-1" d="M12.658,103.177c-1.738,2.532-2.668,5.532-2.668,8.603"/>
      <path class="cls-1" d="M13.345,100.963c0,.79-.239,1.562-.687,2.214"/>
      <line class="cls-1" x1="13.345" y1="93.256" x2="13.345" y2="100.963"/>
      <path class="cls-1" d="M12.198,90.489c.734.734,1.146,1.729,1.146,2.767"/>
      <line class="cls-1" x1="10.374" y1="88.664" x2="12.198" y2="90.489"/>
      <line class="cls-1" x1="12.362" y1="212.211" x2="13.345" y2="212.211"/>
      <line class="cls-1" x1="6.077" y1="84.192" x2="6.077" y2="88.664"/>
      <line class="cls-1" x1="6.077" y1="84.192" x2="5.518" y2="84.751"/>
      <line class="cls-1" x1="5.518" y1="88.664" x2="5.518" y2="84.751"/>
      <line class="cls-1" x1=".934" y1="186.104" x2=".934" y2="200.415"/>
      <line class="cls-1" x1=".375" y1="199.856" x2=".375" y2="186.663"/>
      <line class="cls-1" x1=".934" y1="142.331" x2=".934" y2="156.642"/>
      <line class="cls-1" x1=".375" y1="156.083" x2=".375" y2="142.89"/>
      <line class="cls-1" x1="12.227" y1="84.192" x2="6.077" y2="84.192"/>
      <path class="cls-1" d="M10.374,88.664c-2.47-2.47-1.641-4.472,1.852-4.472"/>
      <line class="cls-1" x1="15.361" y1="87.326" x2="12.227" y2="84.192"/>
      <line class="cls-1" x1="17.817" y1="207.738" x2="17.817" y2="179.228"/>
      <path class="cls-1" d="M17.817,179.228c0-1.694-.513-3.348-1.471-4.744"/>
      <path class="cls-1" d="M16.346,174.483c-1.227-1.788-1.883-3.905-1.883-6.073"/>
      <line class="cls-1" x1="14.463" y1="168.411" x2="14.463" y2="111.78"/>
      <path class="cls-1" d="M14.463,111.78c0-2.168.656-4.285,1.883-6.073"/>
      <path class="cls-1" d="M16.346,105.707c.958-1.397,1.471-3.051,1.471-4.744"/>
      <line class="cls-1" x1="17.817" y1="100.963" x2="17.817" y2="93.256"/>
      <path class="cls-1" d="M17.817,93.256c0-2.224-.883-4.357-2.456-5.929"/>
      <path class="cls-1" d="M13.345,212.211c2.47,0,4.472-2.002,4.472-4.472"/>
      <line class="cls-1" x1=".375" y1="186.663" x2=".934" y2="186.104"/>
      <line class="cls-1" x1=".375" y1="199.856" x2=".934" y2="200.415"/>
      <line class="cls-1" x1="5.518" y1="200.415" x2=".934" y2="200.415"/>
      <line class="cls-1" x1="5.518" y1="186.104" x2=".934" y2="186.104"/>
      <line class="cls-1" x1=".375" y1="142.89" x2=".934" y2="142.331"/>
      <line class="cls-1" x1=".375" y1="156.083" x2=".934" y2="156.642"/>
      <line class="cls-1" x1="5.518" y1="156.642" x2=".934" y2="156.642"/>
      <line class="cls-1" x1="5.518" y1="142.331" x2=".934" y2="142.331"/>
      <path class="cls-1" d="M40.63,101.071c.363-1.186.042-2.477-.835-3.354"/>
      <path class="cls-1" d="M40.07,102.149c.251-.322.441-.688.56-1.078"/>
      <line class="cls-1" x1="27.78" y1="85.702" x2="39.795" y2="97.717"/>
      <path class="cls-1" d="M34.421,79.061c-1.834-1.834-4.807-1.834-6.641,0s-1.834,4.807,0,6.641"/>
      <line class="cls-1" x1="46.436" y1="91.076" x2="34.421" y2="79.061"/>
      <path class="cls-1" d="M49.79,91.911c.39-.12.756-.31,1.078-.56"/>
      <path class="cls-1" d="M46.436,91.076c.877.877,2.168,1.199,3.354.835"/>
      <path class="cls-1" d="M126.76,91.351c-1.766-1.375-3.606-2.653-5.511-3.829"/>
      <path class="cls-1" d="M56.379,87.522c-1.905,1.175-3.745,2.453-5.511,3.829"/>
      <path class="cls-1" d="M127.838,91.911c1.186.363,2.477.042,3.354-.835"/>
      <path class="cls-1" d="M126.76,91.351c.322.251.688.441,1.078.56"/>
      <line class="cls-1" x1="143.207" y1="79.061" x2="131.193" y2="91.076"/>
      <path class="cls-1" d="M149.848,85.702c1.834-1.834,1.834-4.807,0-6.641s-4.807-1.834-6.641,0"/>
      <line class="cls-1" x1="137.833" y1="97.717" x2="149.848" y2="85.702"/>
      <path class="cls-1" d="M136.998,101.071c.12.39.31.756.56,1.078"/>
      <path class="cls-1" d="M137.833,97.717c-.877.877-1.199,2.168-.835,3.354"/>
      <path class="cls-1" d="M137.559,178.041c1.375-1.766,2.653-3.606,3.829-5.511"/>
      <path class="cls-1" d="M141.387,107.66c-1.175-1.905-2.453-3.745-3.829-5.511"/>
      <path class="cls-1" d="M127.838,188.279c-.39.12-.756.31-1.078.56"/>
      <path class="cls-1" d="M121.249,192.668c1.905-1.175,3.745-2.453,5.511-3.829"/>
      <path class="cls-1" d="M129.1,189.837c-2.122,1.719-4.353,3.3-6.677,4.734"/>
      <path class="cls-1" d="M131.193,189.115c-.877-.877-2.168-1.199-3.354-.835"/>
      <path class="cls-1" d="M130.402,189.905c-.353-.353-.914-.382-1.302-.068"/>
      <line class="cls-1" x1="131.193" y1="189.115" x2="143.207" y2="201.129"/>
      <line class="cls-1" x1="142.416" y1="201.92" x2="130.402" y2="189.905"/>
      <path class="cls-1" d="M143.207,201.129c1.834,1.834,4.807,1.834,6.641,0s1.834-4.807,0-6.641"/>
      <path class="cls-1" d="M150.638,193.697c2.27,2.27,2.27,5.952,0,8.222s-5.952,2.27-8.222,0"/>
      <line class="cls-1" x1="149.848" y1="194.488" x2="137.833" y2="182.474"/>
      <line class="cls-1" x1="138.624" y1="181.683" x2="150.638" y2="193.697"/>
      <path class="cls-1" d="M136.998,179.119c-.363,1.186-.042,2.477.835,3.354"/>
      <path class="cls-1" d="M138.556,180.381c-.314.387-.284.949.068,1.302"/>
      <path class="cls-1" d="M137.559,178.041c-.251.322-.441.688-.56,1.078"/>
      <path class="cls-1" d="M143.29,173.704c-1.434,2.324-3.015,4.555-4.734,6.677"/>
      <path class="cls-1" d="M138.556,99.809c1.719,2.122,3.3,4.353,4.734,6.677"/>
      <path class="cls-1" d="M138.624,98.507c-.353.353-.382.914-.068,1.302"/>
      <line class="cls-1" x1="150.638" y1="86.493" x2="138.624" y2="98.507"/>
      <path class="cls-1" d="M142.416,78.271c2.27-2.27,5.952-2.27,8.222,0s2.27,5.952,0,8.222"/>
      <line class="cls-1" x1="130.402" y1="90.285" x2="142.416" y2="78.271"/>
      <path class="cls-1" d="M129.1,90.353c.387.314.949.284,1.302-.068"/>
      <path class="cls-1" d="M122.423,85.619c2.324,1.434,4.555,3.015,6.677,4.734"/>
      <path class="cls-1" d="M109.508,81.956c4.561,0,9.033,1.268,12.915,3.663"/>
      <path class="cls-1" d="M121.249,87.522c-3.529-2.177-7.594-3.33-11.741-3.33"/>
      <path class="cls-1" d="M143.29,106.486c2.395,3.882,3.663,8.354,3.663,12.915"/>
      <path class="cls-1" d="M144.717,119.402c0-4.147-1.153-8.212-3.33-11.741"/>
      <line class="cls-1" x1="146.954" y1="119.402" x2="146.954" y2="160.789"/>
      <line class="cls-1" x1="144.717" y1="160.789" x2="144.717" y2="119.402"/>
      <path class="cls-1" d="M146.954,160.789c0,4.561-1.268,9.033-3.663,12.915"/>
      <path class="cls-1" d="M141.387,172.53c2.177-3.529,3.33-7.594,3.33-11.741"/>
      <path class="cls-1" d="M122.423,194.571c-3.882,2.395-8.354,3.663-12.915,3.663"/>
      <path class="cls-1" d="M109.508,195.999c4.147,0,8.212-1.153,11.741-3.33"/>
      <line class="cls-1" x1="109.508" y1="198.235" x2="68.12" y2="198.235"/>
      <line class="cls-1" x1="68.12" y1="195.999" x2="109.508" y2="195.999"/>
      <path class="cls-1" d="M68.12,198.235c-4.561,0-9.033-1.268-12.915-3.663"/>
      <path class="cls-1" d="M56.379,192.668c3.529,2.177,7.594,3.33,11.741,3.33"/>
      <path class="cls-1" d="M50.868,188.84c-.322-.251-.688-.441-1.078-.56"/>
      <path class="cls-1" d="M55.205,194.571c-2.324-1.434-4.555-3.015-6.677-4.734"/>
      <path class="cls-1" d="M50.868,188.84c1.766,1.375,3.606,2.653,5.511,3.829"/>
      <path class="cls-1" d="M49.79,188.279c-1.186-.363-2.477-.042-3.354.835"/>
      <path class="cls-1" d="M48.528,189.837c-.387-.314-.949-.284-1.302.068"/>
      <line class="cls-1" x1="34.421" y1="201.129" x2="46.436" y2="189.115"/>
      <line class="cls-1" x1="47.226" y1="189.905" x2="35.212" y2="201.92"/>
      <path class="cls-1" d="M27.78,194.488c-1.834,1.834-1.834,4.807,0,6.641s4.807,1.834,6.641,0"/>
      <path class="cls-1" d="M35.212,201.92c-2.27,2.27-5.952,2.27-8.222,0s-2.27-5.952,0-8.222"/>
      <line class="cls-1" x1="39.795" y1="182.474" x2="27.78" y2="194.488"/>
      <line class="cls-1" x1="26.99" y1="193.697" x2="39.004" y2="181.683"/>
      <path class="cls-1" d="M39.795,182.474c.877-.877,1.199-2.168.835-3.354"/>
      <path class="cls-1" d="M39.004,181.683c.353-.353.382-.914.068-1.302"/>
      <path class="cls-1" d="M40.63,179.119c-.12-.39-.31-.756-.56-1.078"/>
      <path class="cls-1" d="M36.241,172.53c1.175,1.905,2.453,3.745,3.829,5.511"/>
      <path class="cls-1" d="M39.072,180.381c-1.719-2.122-3.3-4.353-4.734-6.677"/>
      <path class="cls-1" d="M34.338,173.704c-2.395-3.882-3.663-8.354-3.663-12.915"/>
      <path class="cls-1" d="M32.911,160.789c0,4.147,1.153,8.212,3.33,11.741"/>
      <line class="cls-1" x1="30.675" y1="160.789" x2="30.675" y2="119.402"/>
      <line class="cls-1" x1="32.911" y1="119.402" x2="32.911" y2="160.789"/>
      <path class="cls-1" d="M30.675,119.402c0-4.561,1.268-9.033,3.663-12.915"/>
      <path class="cls-1" d="M36.241,107.66c-2.177,3.529-3.33,7.594-3.33,11.741"/>
      <path class="cls-1" d="M34.338,106.486c1.434-2.324,3.015-4.555,4.734-6.677"/>
      <path class="cls-1" d="M40.07,102.149c-1.375,1.766-2.653,3.606-3.829,5.511"/>
      <path class="cls-1" d="M39.072,99.809c.314-.387.284-.949-.068-1.302"/>
      <line class="cls-1" x1="39.004" y1="98.507" x2="26.99" y2="86.493"/>
      <path class="cls-1" d="M26.99,86.493c-2.27-2.27-2.27-5.952,0-8.222s5.952-2.27,8.222,0"/>
      <line class="cls-1" x1="35.212" y1="78.271" x2="47.226" y2="90.285"/>
      <path class="cls-1" d="M47.226,90.285c.353.353.914.382,1.302.068"/>
      <path class="cls-1" d="M48.528,90.353c2.122-1.719,4.353-3.3,6.677-4.734"/>
      <path class="cls-1" d="M55.205,85.619c3.882-2.395,8.354-3.663,12.915-3.663"/>
      <path class="cls-1" d="M68.12,84.192c-4.147,0-8.212,1.153-11.741,3.33"/>
      <line class="cls-1" x1="109.508" y1="84.192" x2="68.12" y2="84.192"/>
      <line class="cls-1" x1="68.12" y1="81.956" x2="109.508" y2="81.956"/>
      <path class="cls-1" d="M60.499,208.856c-.039,0-.077,0-.116,0"/>
      <path class="cls-1" d="M60.383,208.857c-2.128.023-4.202.678-5.956,1.882"/>
      <line class="cls-1" x1="117.129" y1="208.856" x2="60.499" y2="208.856"/>
      <path class="cls-1" d="M123.202,210.739c-1.755-1.204-3.828-1.859-5.956-1.882"/>
      <path class="cls-1" d="M117.246,208.857c-.039,0-.077,0-.116,0"/>
      <path class="cls-1" d="M123.94,211.191c1.23.669,2.607,1.019,4.007,1.019"/>
      <path class="cls-1" d="M123.202,210.739c.238.163.486.315.738.452"/>
      <line class="cls-1" x1="164.284" y1="212.211" x2="127.946" y2="212.211"/>
      <line class="cls-1" x1="152.464" y1="71.255" x2="165.402" y2="84.192"/>
      <path class="cls-1" d="M144.559,67.98c2.965,0,5.809,1.178,7.906,3.275"/>
      <line class="cls-1" x1="127.946" y1="67.98" x2="144.559" y2="67.98"/>
      <path class="cls-1" d="M123.94,68.999c-.252.137-.499.289-.738.452"/>
      <path class="cls-1" d="M127.946,67.98c-1.4,0-2.777.35-4.007,1.019"/>
      <line class="cls-1" x1="127.946" y1="211.092" x2="161.326" y2="211.092"/>
      <path class="cls-1" d="M125.202,209.945c.725.734,1.713,1.147,2.745,1.147"/>
      <path class="cls-1" d="M117.246,206.62c2.99,0,5.855,1.198,7.956,3.325"/>
      <line class="cls-1" x1="60.383" y1="206.62" x2="117.246" y2="206.62"/>
      <line class="cls-1" x1="16.303" y1="211.092" x2="49.682" y2="211.092"/>
      <line class="cls-1" x1="49.682" y1="212.211" x2="13.345" y2="212.211"/>
      <path class="cls-1" d="M49.682,211.092c1.032,0,2.02-.413,2.745-1.147"/>
      <path class="cls-1" d="M49.682,212.211c1.4,0,2.777-.35,4.007-1.019"/>
      <path class="cls-1" d="M52.427,209.945c2.101-2.128,4.966-3.325,7.956-3.325"/>
      <path class="cls-1" d="M53.689,211.191c.252-.137.499-.289.738-.452"/>
      <line class="cls-1" x1="164.611" y1="84.982" x2="151.674" y2="72.045"/>
      <path class="cls-1" d="M151.674,72.045c-1.887-1.887-4.447-2.947-7.115-2.947"/>
      <line class="cls-1" x1="144.559" y1="69.098" x2="127.946" y2="69.098"/>
      <path class="cls-1" d="M127.946,69.098c-1.032,0-2.02.413-2.745,1.147"/>
      <path class="cls-1" d="M125.202,70.245c-2.101,2.128-4.966,3.325-7.956,3.325"/>
      <line class="cls-1" x1="117.246" y1="73.57" x2="60.383" y2="73.57"/>
      <path class="cls-1" d="M60.383,73.57c-2.99,0-5.855-1.198-7.956-3.325"/>
      <path class="cls-1" d="M52.427,70.245c-.725-.734-1.713-1.147-2.745-1.147"/>
      <line class="cls-1" x1="49.682" y1="69.098" x2="32.34" y2="69.098"/>
      <path class="cls-1" d="M32.34,69.098c-2.459,0-4.796,1.069-6.405,2.929"/>
      <line class="cls-1" x1="25.936" y1="72.027" x2="12.998" y2="84.964"/>
      <path class="cls-1" d="M25.137,71.282c.274.256.54.504.799.745"/>
      <line class="cls-1" x1="12.227" y1="84.192" x2="25.137" y2="71.282"/>
      <path class="cls-1" d="M32.34,68.004c-2.707.177-5.258,1.332-7.177,3.251"/>
      <path class="cls-1" d="M25.137,71.282l.027-.027"/>
      <line class="cls-1" x1="33.07" y1="67.98" x2="49.682" y2="67.98"/>
      <path class="cls-1" d="M32.34,68.004c.243-.016.486-.024.729-.024"/>
      <path class="cls-1" d="M53.689,68.999c-1.23-.669-2.607-1.019-4.007-1.019"/>
      <path class="cls-1" d="M54.426,69.451c1.755,1.204,3.828,1.859,5.956,1.882"/>
      <path class="cls-1" d="M54.426,69.451c-.238-.163-.486-.315-.738-.452"/>
      <path class="cls-1" d="M117.246,71.333c2.128-.023,4.202-.678,5.956-1.882"/>
      <path class="cls-1" d="M117.129,71.334c.039,0,.077,0,.116,0"/>
      <line class="cls-1" x1="60.499" y1="71.334" x2="117.129" y2="71.334"/>
      <path class="cls-1" d="M60.383,71.333c.039,0,.077,0,.116,0"/>
      <line class="cls-1" x1="165.266" y1="212.211" x2="169.738" y2="207.738"/>
      <line class="cls-1" x1="171.551" y1="88.664" x2="172.11" y2="88.664"/>
      <line class="cls-1" x1="171.551" y1="88.664" x2="167.254" y2="88.664"/>
      <line class="cls-1" x1="164.284" y1="212.211" x2="164.284" y2="207.738"/>
      <line class="cls-1" x1="162.267" y1="87.326" x2="165.43" y2="90.489"/>
      <line class="cls-1" x1="164.284" y1="207.738" x2="159.811" y2="207.738"/>
      <line class="cls-1" x1="159.811" y1="179.228" x2="164.284" y2="179.228"/>
      <line class="cls-1" x1="161.283" y1="174.483" x2="164.97" y2="177.014"/>
      <line class="cls-1" x1="163.166" y1="168.411" x2="167.638" y2="168.411"/>
      <line class="cls-1" x1="163.166" y1="111.78" x2="167.638" y2="111.78"/>
      <line class="cls-1" x1="161.283" y1="105.707" x2="164.97" y2="103.177"/>
      <line class="cls-1" x1="159.811" y1="100.963" x2="164.284" y2="100.963"/>
      <line class="cls-1" x1="159.811" y1="93.256" x2="164.284" y2="93.256"/>
      <line class="cls-1" x1="12.362" y1="212.211" x2="7.89" y2="207.738"/>
      <line class="cls-1" x1="6.077" y1="88.664" x2="5.518" y2="88.664"/>
      <line class="cls-1" x1="6.077" y1="88.664" x2="10.374" y2="88.664"/>
      <line class="cls-1" x1="13.345" y1="212.211" x2="13.345" y2="207.738"/>
      <line class="cls-1" x1="15.361" y1="87.326" x2="12.198" y2="90.489"/>
      <line class="cls-1" x1="13.345" y1="207.738" x2="17.817" y2="207.738"/>
      <line class="cls-1" x1="17.817" y1="179.228" x2="13.345" y2="179.228"/>
      <line class="cls-1" x1="16.346" y1="174.483" x2="12.658" y2="177.014"/>
      <line class="cls-1" x1="14.463" y1="168.411" x2="9.99" y2="168.411"/>
      <line class="cls-1" x1="14.463" y1="111.78" x2="9.99" y2="111.78"/>
      <line class="cls-1" x1="16.346" y1="105.707" x2="12.658" y2="103.177"/>
      <line class="cls-1" x1="17.817" y1="100.963" x2="13.345" y2="100.963"/>
      <line class="cls-1" x1="17.817" y1="93.256" x2="13.345" y2="93.256"/>
      <line class="cls-1" x1="122.423" y1="194.571" x2="121.249" y2="192.668"/>
      <line class="cls-1" x1="129.1" y1="189.837" x2="127.838" y2="188.279"/>
      <line class="cls-1" x1="130.402" y1="189.905" x2="131.193" y2="189.115"/>
      <line class="cls-1" x1="142.416" y1="201.92" x2="143.207" y2="201.129"/>
      <line class="cls-1" x1="150.638" y1="193.697" x2="149.848" y2="194.488"/>
      <line class="cls-1" x1="138.624" y1="181.683" x2="137.833" y2="182.474"/>
      <line class="cls-1" x1="138.556" y1="180.381" x2="136.998" y2="179.119"/>
      <line class="cls-1" x1="143.29" y1="173.704" x2="141.387" y2="172.53"/>
      <line class="cls-1" x1="143.29" y1="106.486" x2="141.387" y2="107.66"/>
      <line class="cls-1" x1="138.556" y1="99.809" x2="136.998" y2="101.071"/>
      <line class="cls-1" x1="138.624" y1="98.507" x2="137.833" y2="97.717"/>
      <line class="cls-1" x1="150.638" y1="86.493" x2="149.848" y2="85.702"/>
      <line class="cls-1" x1="142.416" y1="78.271" x2="143.207" y2="79.061"/>
      <line class="cls-1" x1="130.402" y1="90.285" x2="131.193" y2="91.076"/>
      <line class="cls-1" x1="129.1" y1="90.353" x2="127.838" y2="91.911"/>
      <line class="cls-1" x1="122.423" y1="85.619" x2="121.249" y2="87.522"/>
      <line class="cls-1" x1="109.508" y1="81.956" x2="109.508" y2="84.192"/>
      <line class="cls-1" x1="146.954" y1="119.402" x2="144.717" y2="119.402"/>
      <line class="cls-1" x1="146.954" y1="160.789" x2="144.717" y2="160.789"/>
      <line class="cls-1" x1="109.508" y1="198.235" x2="109.508" y2="195.999"/>
      <line class="cls-1" x1="68.12" y1="198.235" x2="68.12" y2="195.999"/>
      <line class="cls-1" x1="55.205" y1="194.571" x2="56.379" y2="192.668"/>
      <line class="cls-1" x1="48.528" y1="189.837" x2="49.79" y2="188.279"/>
      <line class="cls-1" x1="47.226" y1="189.905" x2="46.436" y2="189.115"/>
      <line class="cls-1" x1="35.212" y1="201.92" x2="34.421" y2="201.129"/>
      <line class="cls-1" x1="26.99" y1="193.697" x2="27.78" y2="194.488"/>
      <line class="cls-1" x1="39.004" y1="181.683" x2="39.795" y2="182.474"/>
      <line class="cls-1" x1="39.072" y1="180.381" x2="40.63" y2="179.119"/>
      <line class="cls-1" x1="34.338" y1="173.704" x2="36.241" y2="172.53"/>
      <line class="cls-1" x1="30.675" y1="160.789" x2="32.911" y2="160.789"/>
      <line class="cls-1" x1="30.675" y1="119.402" x2="32.911" y2="119.402"/>
      <line class="cls-1" x1="34.338" y1="106.486" x2="36.241" y2="107.66"/>
      <line class="cls-1" x1="39.072" y1="99.809" x2="40.63" y2="101.071"/>
      <line class="cls-1" x1="39.004" y1="98.507" x2="39.795" y2="97.717"/>
      <line class="cls-1" x1="26.99" y1="86.493" x2="27.78" y2="85.702"/>
      <line class="cls-1" x1="35.212" y1="78.271" x2="34.421" y2="79.061"/>
      <line class="cls-1" x1="47.226" y1="90.285" x2="46.436" y2="91.076"/>
      <line class="cls-1" x1="48.528" y1="90.353" x2="49.79" y2="91.911"/>
      <line class="cls-1" x1="55.205" y1="85.619" x2="56.379" y2="87.522"/>
      <line class="cls-1" x1="68.12" y1="81.956" x2="68.12" y2="84.192"/>
      <line class="cls-1" x1="127.946" y1="212.211" x2="127.946" y2="211.092"/>
      <line class="cls-1" x1="123.94" y1="211.191" x2="125.202" y2="209.945"/>
      <line class="cls-1" x1="117.246" y1="208.857" x2="117.246" y2="206.62"/>
      <line class="cls-1" x1="60.383" y1="206.62" x2="60.383" y2="208.857"/>
      <line class="cls-1" x1="49.682" y1="211.092" x2="49.682" y2="212.211"/>
      <line class="cls-1" x1="52.427" y1="209.945" x2="53.689" y2="211.191"/>
      <line class="cls-1" x1="32.34" y1="68.004" x2="32.34" y2="69.098"/>
      <line class="cls-1" x1="49.682" y1="67.98" x2="49.682" y2="69.098"/>
      <line class="cls-1" x1="53.689" y1="68.999" x2="52.427" y2="70.245"/>
      <line class="cls-1" x1="60.383" y1="71.333" x2="60.383" y2="73.57"/>
      <line class="cls-1" x1="151.674" y1="72.045" x2="152.464" y2="71.255"/>
      <line class="cls-1" x1="144.559" y1="69.098" x2="144.559" y2="67.98"/>
      <line class="cls-1" x1="127.946" y1="69.098" x2="127.946" y2="67.98"/>
      <line class="cls-1" x1="125.202" y1="70.245" x2="123.94" y2="68.999"/>
      <line class="cls-1" x1="117.246" y1="73.57" x2="117.246" y2="71.333"/>
    </g>
    <g>
      <line class="cls-1" x1="417.618" y1="62.501" x2="417.618" y2="66.414"/>
      <line class="cls-1" x1="418.178" y1="66.414" x2="418.178" y2="61.942"/>
      <path class="cls-1" d="M418.178,181.016c0,.757-.192,1.502-.559,2.165"/>
      <line class="cls-1" x1="418.178" y1="66.414" x2="418.178" y2="181.016"/>
      <line class="cls-1" x1="417.618" y1="183.181" x2="417.618" y2="66.414"/>
      <line class="cls-1" x1="427.681" y1="61.942" x2="427.681" y2="66.414"/>
      <line class="cls-1" x1="417.618" y1="198.477" x2="417.618" y2="212.434"/>
      <line class="cls-1" x1="417.618" y1="198.477" x2="417.618" y2="195.723"/>
      <line class="cls-1" x1="417.618" y1="187.207" x2="417.618" y2="195.723"/>
      <line class="cls-1" x1="417.618" y1="187.207" x2="417.618" y2="185.488"/>
      <line class="cls-1" x1="417.618" y1="183.181" x2="417.618" y2="185.488"/>
      <line class="cls-1" x1="431.035" y1="66.414" x2="431.035" y2="65.296"/>
      <line class="cls-1" x1="431.035" y1="66.414" x2="431.035" y2="181.016"/>
      <line class="cls-1" x1="431.035" y1="182.134" x2="431.035" y2="181.016"/>
      <line class="cls-1" x1="431.035" y1="182.134" x2="431.035" y2="185.142"/>
      <line class="cls-1" x1="431.035" y1="185.142" x2="431.035" y2="193.658"/>
      <line class="cls-1" x1="431.035" y1="193.658" x2="431.035" y2="198.477"/>
      <line class="cls-1" x1="431.035" y1="198.477" x2="431.035" y2="212.434"/>
      <line class="cls-1" x1="427.681" y1="212.434" x2="427.681" y2="198.477"/>
      <line class="cls-1" x1="427.681" y1="198.477" x2="427.681" y2="195.723"/>
      <line class="cls-1" x1="427.681" y1="195.723" x2="427.681" y2="187.207"/>
      <line class="cls-1" x1="427.681" y1="187.207" x2="427.681" y2="185.488"/>
      <line class="cls-1" x1="427.681" y1="185.488" x2="431.035" y2="182.134"/>
      <line class="cls-1" x1="427.681" y1="181.016" x2="427.681" y2="185.488"/>
      <line class="cls-1" x1="427.681" y1="181.016" x2="427.681" y2="66.414"/>
      <line class="cls-1" x1="427.681" y1="61.942" x2="431.035" y2="65.296"/>
      <line class="cls-1" x1="427.681" y1="185.488" x2="417.618" y2="185.488"/>
      <line class="cls-1" x1="427.681" y1="212.434" x2="417.618" y2="212.434"/>
      <line class="cls-1" x1="251.362" y1="66.414" x2="251.362" y2="61.942"/>
      <line class="cls-1" x1="251.921" y1="62.501" x2="251.921" y2="66.414"/>
      <path class="cls-1" d="M251.362,181.016c0,.757.192,1.502.559,2.165"/>
      <line class="cls-1" x1="251.921" y1="183.181" x2="251.921" y2="66.414"/>
      <line class="cls-1" x1="251.362" y1="66.414" x2="251.362" y2="181.016"/>
      <line class="cls-1" x1="241.858" y1="61.942" x2="241.858" y2="66.414"/>
      <line class="cls-1" x1="251.921" y1="183.181" x2="251.921" y2="185.488"/>
      <line class="cls-1" x1="251.921" y1="187.207" x2="251.921" y2="185.488"/>
      <line class="cls-1" x1="251.921" y1="187.207" x2="251.921" y2="195.723"/>
      <line class="cls-1" x1="251.921" y1="198.477" x2="251.921" y2="195.723"/>
      <line class="cls-1" x1="251.921" y1="198.477" x2="251.921" y2="212.434"/>
      <line class="cls-1" x1="238.504" y1="198.477" x2="238.504" y2="212.434"/>
      <line class="cls-1" x1="238.504" y1="193.658" x2="238.504" y2="198.477"/>
      <line class="cls-1" x1="238.504" y1="185.142" x2="238.504" y2="193.658"/>
      <line class="cls-1" x1="238.504" y1="182.134" x2="238.504" y2="185.142"/>
      <line class="cls-1" x1="238.504" y1="182.134" x2="238.504" y2="181.016"/>
      <line class="cls-1" x1="238.504" y1="66.414" x2="238.504" y2="181.016"/>
      <line class="cls-1" x1="238.504" y1="66.414" x2="238.504" y2="65.296"/>
      <line class="cls-1" x1="241.858" y1="212.434" x2="241.858" y2="198.477"/>
      <line class="cls-1" x1="241.858" y1="198.477" x2="241.858" y2="195.723"/>
      <line class="cls-1" x1="241.858" y1="195.723" x2="241.858" y2="187.207"/>
      <line class="cls-1" x1="241.858" y1="187.207" x2="241.858" y2="185.488"/>
      <line class="cls-1" x1="241.858" y1="185.488" x2="238.504" y2="182.134"/>
      <line class="cls-1" x1="241.858" y1="181.016" x2="241.858" y2="185.488"/>
      <line class="cls-1" x1="241.858" y1="181.016" x2="241.858" y2="66.414"/>
      <line class="cls-1" x1="241.858" y1="61.942" x2="238.504" y2="65.296"/>
      <line class="cls-1" x1="241.858" y1="185.488" x2="251.921" y2="185.488"/>
      <line class="cls-1" x1="241.858" y1="212.434" x2="251.921" y2="212.434"/>
      <line class="cls-1" x1="446.129" y1="213.552" x2="458.428" y2="213.552"/>
      <line class="cls-1" x1="458.428" y1="213.552" x2="457.31" y2="212.434"/>
      <line class="cls-1" x1="457.31" y1="212.434" x2="446.129" y2="212.434"/>
      <line class="cls-1" x1="446.129" y1="213.552" x2="222.516" y2="213.552"/>
      <line class="cls-1" x1="222.516" y1="212.434" x2="446.129" y2="212.434"/>
      <line class="cls-1" x1="210.217" y1="213.552" x2="222.516" y2="213.552"/>
      <line class="cls-1" x1="222.516" y1="212.434" x2="211.335" y2="212.434"/>
      <line class="cls-1" x1="210.217" y1="213.552" x2="211.335" y2="212.434"/>
      <line class="cls-1" x1="458.428" y1="223.614" x2="446.129" y2="223.614"/>
      <line class="cls-1" x1="458.428" y1="223.614" x2="458.428" y2="213.552"/>
      <line class="cls-1" x1="446.129" y1="223.614" x2="222.516" y2="223.614"/>
      <line class="cls-1" x1="210.217" y1="213.552" x2="210.217" y2="223.614"/>
      <line class="cls-1" x1="222.516" y1="223.614" x2="210.217" y2="223.614"/>
      <line class="cls-1" x1="418.178" y1="66.414" x2="417.618" y2="66.414"/>
      <line class="cls-1" x1="427.681" y1="66.414" x2="418.178" y2="66.414"/>
      <line class="cls-1" x1="427.681" y1="198.477" x2="431.035" y2="198.477"/>
      <line class="cls-1" x1="427.681" y1="195.723" x2="431.035" y2="193.658"/>
      <line class="cls-1" x1="427.681" y1="187.207" x2="431.035" y2="185.142"/>
      <line class="cls-1" x1="427.681" y1="181.016" x2="431.035" y2="181.016"/>
      <line class="cls-1" x1="427.681" y1="66.414" x2="431.035" y2="66.414"/>
      <line class="cls-1" x1="418.178" y1="181.016" x2="427.681" y2="181.016"/>
      <line class="cls-1" x1="427.681" y1="187.207" x2="417.618" y2="187.207"/>
      <line class="cls-1" x1="417.618" y1="195.723" x2="427.681" y2="195.723"/>
      <line class="cls-1" x1="427.681" y1="198.477" x2="417.618" y2="198.477"/>
      <line class="cls-1" x1="251.362" y1="66.414" x2="251.921" y2="66.414"/>
      <line class="cls-1" x1="241.858" y1="66.414" x2="251.362" y2="66.414"/>
      <line class="cls-1" x1="241.858" y1="198.477" x2="238.504" y2="198.477"/>
      <line class="cls-1" x1="241.858" y1="195.723" x2="238.504" y2="193.658"/>
      <line class="cls-1" x1="241.858" y1="187.207" x2="238.504" y2="185.142"/>
      <line class="cls-1" x1="241.858" y1="181.016" x2="238.504" y2="181.016"/>
      <line class="cls-1" x1="241.858" y1="66.414" x2="238.504" y2="66.414"/>
      <line class="cls-1" x1="251.362" y1="181.016" x2="241.858" y2="181.016"/>
      <line class="cls-1" x1="241.858" y1="187.207" x2="251.921" y2="187.207"/>
      <line class="cls-1" x1="251.921" y1="195.723" x2="241.858" y2="195.723"/>
      <line class="cls-1" x1="241.858" y1="198.477" x2="251.921" y2="198.477"/>
      <line class="cls-1" x1="446.129" y1="213.552" x2="446.129" y2="212.434"/>
      <line class="cls-1" x1="222.516" y1="213.552" x2="222.516" y2="212.434"/>
      <line class="cls-1" x1="446.129" y1="213.552" x2="446.129" y2="223.614"/>
      <line class="cls-1" x1="222.516" y1="223.614" x2="222.516" y2="213.552"/>
    </g>
    <g>
      <circle class="cls-1" cx="610.028" cy="113.988" r="4.696"/>
      <circle class="cls-1" cx="610.028" cy="113.988" r="10.063"/>
      <circle class="cls-1" cx="637.98" cy="113.988" r="4.696"/>
      <circle class="cls-1" cx="637.98" cy="113.988" r="10.063"/>
      <circle class="cls-1" cx="665.931" cy="113.988" r="4.696"/>
      <circle class="cls-1" cx="665.931" cy="113.988" r="10.063"/>
      <circle class="cls-1" cx="610.028" cy="136.349" r="4.696"/>
      <circle class="cls-1" cx="610.028" cy="136.349" r="10.063"/>
      <circle class="cls-1" cx="637.98" cy="136.349" r="4.696"/>
      <circle class="cls-1" cx="637.98" cy="136.349" r="10.063"/>
      <circle class="cls-1" cx="665.931" cy="136.349" r="4.696"/>
      <circle class="cls-1" cx="665.931" cy="136.349" r="10.063"/>
      <circle class="cls-1" cx="610.028" cy="158.711" r="4.696"/>
      <circle class="cls-1" cx="610.028" cy="158.711" r="10.063"/>
      <circle class="cls-1" cx="637.98" cy="158.711" r="4.696"/>
      <circle class="cls-1" cx="637.98" cy="158.711" r="10.063"/>
      <circle class="cls-1" cx="665.931" cy="158.711" r="4.696"/>
      <circle class="cls-1" cx="665.931" cy="158.711" r="10.063"/>
      <circle class="cls-1" cx="610.028" cy="181.072" r="4.696"/>
      <circle class="cls-1" cx="610.028" cy="181.072" r="10.063"/>
      <circle class="cls-1" cx="637.98" cy="181.072" r="4.696"/>
      <circle class="cls-1" cx="637.98" cy="181.072" r="10.063"/>
      <circle class="cls-1" cx="665.931" cy="181.072" r="4.696"/>
      <circle class="cls-1" cx="665.931" cy="181.072" r="10.063"/>
      <circle class="cls-1" cx="610.028" cy="203.433" r="3.578"/>
      <circle class="cls-1" cx="610.028" cy="203.433" r="6.708"/>
      <circle class="cls-1" cx="637.98" cy="203.433" r="3.578"/>
      <circle class="cls-1" cx="637.98" cy="203.433" r="6.708"/>
      <circle class="cls-1" cx="665.931" cy="203.433" r="3.578"/>
      <circle class="cls-1" cx="665.931" cy="203.433" r="6.708"/>
      <circle class="cls-1" cx="637.98" cy="220.204" r="3.578"/>
      <circle class="cls-1" cx="637.98" cy="220.204" r="6.708"/>
      <circle class="cls-1" cx="665.931" cy="220.204" r="3.578"/>
      <circle class="cls-1" cx="665.931" cy="220.204" r="6.708"/>
      <line class="cls-1" x1="513.667" y1="186.952" x2="513.817" y2="186.952"/>
      <line class="cls-1" x1="513.667" y1="186.952" x2="505.696" y2="186.952"/>
      <line class="cls-1" x1="505.546" y1="186.952" x2="505.696" y2="186.952"/>
      <line class="cls-1" x1="505.546" y1="186.952" x2="505.442" y2="186.952"/>
      <line class="cls-1" x1="505.442" y1="186.952" x2="505.043" y2="186.952"/>
      <line class="cls-1" x1="505.043" y1="186.952" x2="503.05" y2="186.952"/>
      <line class="cls-1" x1="502.448" y1="186.952" x2="503.05" y2="186.952"/>
      <line class="cls-1" x1="516.313" y1="186.952" x2="516.915" y2="186.952"/>
      <line class="cls-1" x1="516.313" y1="186.952" x2="514.32" y2="186.952"/>
      <line class="cls-1" x1="514.32" y1="186.952" x2="513.921" y2="186.952"/>
      <line class="cls-1" x1="513.921" y1="186.952" x2="513.817" y2="186.952"/>
      <path class="cls-1" d="M513.667,204.363c.068-.135.12-.303.154-.446.115-.477.142-1.063.142-1.557s-.027-1.081-.142-1.557c-.035-.143-.087-.312-.154-.446"/>
      <line class="cls-1" x1="505.696" y1="210.186" x2="505.546" y2="210.186"/>
      <line class="cls-1" x1="505.696" y1="210.186" x2="513.667" y2="210.186"/>
      <line class="cls-1" x1="513.817" y1="210.186" x2="513.667" y2="210.186"/>
      <line class="cls-1" x1="513.817" y1="210.186" x2="513.921" y2="210.186"/>
      <line class="cls-1" x1="513.921" y1="210.186" x2="514.32" y2="210.186"/>
      <line class="cls-1" x1="514.32" y1="210.186" x2="516.313" y2="210.186"/>
      <line class="cls-1" x1="516.915" y1="210.186" x2="516.313" y2="210.186"/>
      <line class="cls-1" x1="503.05" y1="210.186" x2="502.448" y2="210.186"/>
      <line class="cls-1" x1="503.05" y1="210.186" x2="505.043" y2="210.186"/>
      <line class="cls-1" x1="505.043" y1="210.186" x2="505.442" y2="210.186"/>
      <line class="cls-1" x1="505.442" y1="210.186" x2="505.546" y2="210.186"/>
      <path class="cls-1" d="M505.696,200.356c-.068.135-.12.303-.154.446-.115.477-.142,1.063-.142,1.557s.027,1.081.142,1.557c.035.143.087.312.154.446"/>
      <circle class="cls-1" cx="509.682" cy="202.359" r="3.79"/>
      <path class="cls-1" d="M513.667,200.356c-1.107-2.201-3.788-3.088-5.989-1.982-.856.431-1.551,1.125-1.982,1.982"/>
      <path class="cls-1" d="M505.696,204.363c1.107,2.201,3.788,3.088,5.989,1.982.856-.431,1.551-1.125,1.982-1.982"/>
      <path class="cls-1" d="M502.28,187.12c0-.093.075-.168.168-.168"/>
      <path class="cls-1" d="M516.915,186.952c.093,0,.168.075.168.168"/>
      <line class="cls-1" x1="517.083" y1="187.12" x2="517.083" y2="210.018"/>
      <path class="cls-1" d="M517.083,210.018c0,.093-.075.168-.168.168"/>
      <path class="cls-1" d="M502.448,210.186c-.093,0-.168-.075-.168-.168"/>
      <line class="cls-1" x1="502.28" y1="187.12" x2="502.28" y2="210.018"/>
      <line class="cls-1" x1="536.028" y1="186.952" x2="536.178" y2="186.952"/>
      <line class="cls-1" x1="536.028" y1="186.952" x2="528.057" y2="186.952"/>
      <line class="cls-1" x1="527.907" y1="186.952" x2="528.057" y2="186.952"/>
      <line class="cls-1" x1="527.907" y1="186.952" x2="527.803" y2="186.952"/>
      <line class="cls-1" x1="527.803" y1="186.952" x2="527.404" y2="186.952"/>
      <line class="cls-1" x1="527.404" y1="186.952" x2="525.411" y2="186.952"/>
      <line class="cls-1" x1="524.809" y1="186.952" x2="525.411" y2="186.952"/>
      <line class="cls-1" x1="538.674" y1="186.952" x2="539.277" y2="186.952"/>
      <line class="cls-1" x1="538.674" y1="186.952" x2="536.681" y2="186.952"/>
      <line class="cls-1" x1="536.681" y1="186.952" x2="536.283" y2="186.952"/>
      <line class="cls-1" x1="536.283" y1="186.952" x2="536.178" y2="186.952"/>
      <path class="cls-1" d="M536.028,204.363c.068-.135.12-.303.154-.446.115-.477.142-1.063.142-1.557s-.027-1.081-.142-1.557c-.035-.143-.087-.312-.154-.446"/>
      <line class="cls-1" x1="528.057" y1="210.186" x2="527.907" y2="210.186"/>
      <line class="cls-1" x1="528.057" y1="210.186" x2="536.028" y2="210.186"/>
      <line class="cls-1" x1="536.178" y1="210.186" x2="536.028" y2="210.186"/>
      <line class="cls-1" x1="536.178" y1="210.186" x2="536.283" y2="210.186"/>
      <line class="cls-1" x1="536.283" y1="210.186" x2="536.681" y2="210.186"/>
      <line class="cls-1" x1="536.681" y1="210.186" x2="538.674" y2="210.186"/>
      <line class="cls-1" x1="539.277" y1="210.186" x2="538.674" y2="210.186"/>
      <line class="cls-1" x1="525.411" y1="210.186" x2="524.809" y2="210.186"/>
      <line class="cls-1" x1="525.411" y1="210.186" x2="527.404" y2="210.186"/>
      <line class="cls-1" x1="527.404" y1="210.186" x2="527.803" y2="210.186"/>
      <line class="cls-1" x1="527.803" y1="210.186" x2="527.907" y2="210.186"/>
      <path class="cls-1" d="M528.057,200.356c-.068.135-.12.303-.154.446-.115.477-.142,1.063-.142,1.557s.027,1.081.142,1.557c.035.143.087.312.154.446"/>
      <circle class="cls-1" cx="532.043" cy="202.359" r="3.79"/>
      <path class="cls-1" d="M536.028,200.356c-1.107-2.201-3.788-3.088-5.989-1.982-.856.431-1.551,1.125-1.982,1.982"/>
      <path class="cls-1" d="M528.057,204.363c1.107,2.201,3.788,3.088,5.989,1.982.856-.431,1.551-1.125,1.982-1.982"/>
      <path class="cls-1" d="M524.641,187.12c0-.093.075-.168.168-.168"/>
      <path class="cls-1" d="M539.277,186.952c.093,0,.168.075.168.168"/>
      <line class="cls-1" x1="539.444" y1="187.12" x2="539.444" y2="210.018"/>
      <path class="cls-1" d="M539.444,210.018c0,.093-.075.168-.168.168"/>
      <path class="cls-1" d="M524.809,210.186c-.093,0-.168-.075-.168-.168"/>
      <line class="cls-1" x1="524.641" y1="187.12" x2="524.641" y2="210.018"/>
      <line class="cls-1" x1="558.39" y1="186.952" x2="558.54" y2="186.952"/>
      <line class="cls-1" x1="558.39" y1="186.952" x2="550.419" y2="186.952"/>
      <line class="cls-1" x1="550.269" y1="186.952" x2="550.419" y2="186.952"/>
      <line class="cls-1" x1="550.269" y1="186.952" x2="550.164" y2="186.952"/>
      <line class="cls-1" x1="550.164" y1="186.952" x2="549.766" y2="186.952"/>
      <line class="cls-1" x1="549.766" y1="186.952" x2="547.773" y2="186.952"/>
      <line class="cls-1" x1="547.17" y1="186.952" x2="547.773" y2="186.952"/>
      <line class="cls-1" x1="561.036" y1="186.952" x2="561.638" y2="186.952"/>
      <line class="cls-1" x1="561.036" y1="186.952" x2="559.043" y2="186.952"/>
      <line class="cls-1" x1="559.043" y1="186.952" x2="558.644" y2="186.952"/>
      <line class="cls-1" x1="558.644" y1="186.952" x2="558.54" y2="186.952"/>
      <path class="cls-1" d="M558.39,204.363c.068-.135.12-.303.154-.446.115-.477.142-1.063.142-1.557s-.027-1.081-.142-1.557c-.035-.143-.087-.312-.154-.446"/>
      <line class="cls-1" x1="550.419" y1="210.186" x2="550.269" y2="210.186"/>
      <line class="cls-1" x1="550.419" y1="210.186" x2="558.39" y2="210.186"/>
      <line class="cls-1" x1="558.54" y1="210.186" x2="558.39" y2="210.186"/>
      <line class="cls-1" x1="558.54" y1="210.186" x2="558.644" y2="210.186"/>
      <line class="cls-1" x1="558.644" y1="210.186" x2="559.043" y2="210.186"/>
      <line class="cls-1" x1="559.043" y1="210.186" x2="561.036" y2="210.186"/>
      <line class="cls-1" x1="561.638" y1="210.186" x2="561.036" y2="210.186"/>
      <line class="cls-1" x1="547.773" y1="210.186" x2="547.17" y2="210.186"/>
      <line class="cls-1" x1="547.773" y1="210.186" x2="549.766" y2="210.186"/>
      <line class="cls-1" x1="549.766" y1="210.186" x2="550.164" y2="210.186"/>
      <line class="cls-1" x1="550.164" y1="210.186" x2="550.269" y2="210.186"/>
      <path class="cls-1" d="M550.419,200.356c-.068.135-.12.303-.154.446-.115.477-.142,1.063-.142,1.557s.027,1.081.142,1.557c.035.143.087.312.154.446"/>
      <circle class="cls-1" cx="554.404" cy="202.359" r="3.79"/>
      <path class="cls-1" d="M558.39,200.356c-1.107-2.201-3.788-3.088-5.989-1.982-.856.431-1.551,1.125-1.982,1.982"/>
      <path class="cls-1" d="M550.419,204.363c1.107,2.201,3.788,3.088,5.989,1.982.856-.431,1.551-1.125,1.982-1.982"/>
      <path class="cls-1" d="M547.003,187.12c0-.093.075-.168.168-.168"/>
      <path class="cls-1" d="M561.638,186.952c.093,0,.168.075.168.168"/>
      <line class="cls-1" x1="561.806" y1="187.12" x2="561.806" y2="210.018"/>
      <path class="cls-1" d="M561.806,210.018c0,.093-.075.168-.168.168"/>
      <path class="cls-1" d="M547.17,210.186c-.093,0-.168-.075-.168-.168"/>
      <line class="cls-1" x1="547.003" y1="187.12" x2="547.003" y2="210.018"/>
      <line class="cls-1" x1="580.751" y1="186.952" x2="580.901" y2="186.952"/>
      <line class="cls-1" x1="580.751" y1="186.952" x2="572.78" y2="186.952"/>
      <line class="cls-1" x1="572.63" y1="186.952" x2="572.78" y2="186.952"/>
      <line class="cls-1" x1="572.63" y1="186.952" x2="572.526" y2="186.952"/>
      <line class="cls-1" x1="572.526" y1="186.952" x2="572.127" y2="186.952"/>
      <line class="cls-1" x1="572.127" y1="186.952" x2="570.134" y2="186.952"/>
      <line class="cls-1" x1="569.532" y1="186.952" x2="570.134" y2="186.952"/>
      <line class="cls-1" x1="583.397" y1="186.952" x2="583.999" y2="186.952"/>
      <line class="cls-1" x1="583.397" y1="186.952" x2="581.404" y2="186.952"/>
      <line class="cls-1" x1="581.404" y1="186.952" x2="581.005" y2="186.952"/>
      <line class="cls-1" x1="581.005" y1="186.952" x2="580.901" y2="186.952"/>
      <path class="cls-1" d="M580.751,204.363c.068-.135.12-.303.154-.446.115-.477.142-1.063.142-1.557s-.027-1.081-.142-1.557c-.035-.143-.087-.312-.154-.446"/>
      <line class="cls-1" x1="572.78" y1="210.186" x2="572.63" y2="210.186"/>
      <line class="cls-1" x1="572.78" y1="210.186" x2="580.751" y2="210.186"/>
      <line class="cls-1" x1="580.901" y1="210.186" x2="580.751" y2="210.186"/>
      <line class="cls-1" x1="580.901" y1="210.186" x2="581.005" y2="210.186"/>
      <line class="cls-1" x1="581.005" y1="210.186" x2="581.404" y2="210.186"/>
      <line class="cls-1" x1="581.404" y1="210.186" x2="583.397" y2="210.186"/>
      <line class="cls-1" x1="583.999" y1="210.186" x2="583.397" y2="210.186"/>
      <line class="cls-1" x1="570.134" y1="210.186" x2="569.532" y2="210.186"/>
      <line class="cls-1" x1="570.134" y1="210.186" x2="572.127" y2="210.186"/>
      <line class="cls-1" x1="572.127" y1="210.186" x2="572.526" y2="210.186"/>
      <line class="cls-1" x1="572.526" y1="210.186" x2="572.63" y2="210.186"/>
      <path class="cls-1" d="M572.78,200.356c-.068.135-.12.303-.154.446-.115.477-.142,1.063-.142,1.557s.027,1.081.142,1.557c.035.143.087.312.154.446"/>
      <circle class="cls-1" cx="576.766" cy="202.359" r="3.79"/>
      <path class="cls-1" d="M580.751,200.356c-1.107-2.201-3.788-3.088-5.989-1.982-.856.431-1.551,1.125-1.982,1.982"/>
      <path class="cls-1" d="M572.78,204.363c1.107,2.201,3.788,3.088,5.989,1.982.856-.431,1.551-1.125,1.982-1.982"/>
      <path class="cls-1" d="M569.364,187.12c0-.093.075-.168.168-.168"/>
      <path class="cls-1" d="M583.999,186.952c.093,0,.168.075.168.168"/>
      <line class="cls-1" x1="584.167" y1="187.12" x2="584.167" y2="210.018"/>
      <path class="cls-1" d="M584.167,210.018c0,.093-.075.168-.168.168"/>
      <path class="cls-1" d="M569.532,210.186c-.093,0-.168-.075-.168-.168"/>
      <line class="cls-1" x1="569.364" y1="187.12" x2="569.364" y2="210.018"/>
      <line class="cls-1" x1="499.451" y1="74.576" x2="519.353" y2="74.576"/>
      <line class="cls-1" x1="513.799" y1="93.993" x2="505.005" y2="93.993"/>
      <line class="cls-1" x1="505.787" y1="94.701" x2="513.017" y2="94.701"/>
      <line class="cls-1" x1="499.451" y1="72.899" x2="519.353" y2="72.899"/>
      <line class="cls-1" x1="505.768" y1="69.656" x2="513.036" y2="69.656"/>
      <path class="cls-1" d="M504.366,74.576c.353,0,.639.286.639.639"/>
      <path class="cls-1" d="M513.799,75.215c0-.353.286-.639.639-.639"/>
      <line class="cls-1" x1="513.799" y1="75.215" x2="513.799" y2="93.993"/>
      <line class="cls-1" x1="505.005" y1="75.215" x2="505.005" y2="93.993"/>
      <line class="cls-1" x1="505.787" y1="94.701" x2="505.005" y2="93.993"/>
      <line class="cls-1" x1="513.017" y1="94.701" x2="513.799" y2="93.993"/>
      <line class="cls-1" x1="519.353" y1="72.899" x2="519.353" y2="74.576"/>
      <line class="cls-1" x1="499.451" y1="72.899" x2="499.451" y2="74.576"/>
      <path class="cls-1" d="M502.023,72.899c.911-1.418,2.211-2.544,3.746-3.242"/>
      <path class="cls-1" d="M513.036,69.656c1.534.698,2.835,1.824,3.746,3.242"/>
      <line class="cls-1" x1="521.813" y1="74.576" x2="541.714" y2="74.576"/>
      <line class="cls-1" x1="536.161" y1="93.993" x2="527.366" y2="93.993"/>
      <line class="cls-1" x1="528.148" y1="94.701" x2="535.378" y2="94.701"/>
      <line class="cls-1" x1="521.813" y1="72.899" x2="541.714" y2="72.899"/>
      <line class="cls-1" x1="528.13" y1="69.656" x2="535.397" y2="69.656"/>
      <path class="cls-1" d="M526.727,74.576c.353,0,.639.286.639.639"/>
      <path class="cls-1" d="M536.161,75.215c0-.353.286-.639.639-.639"/>
      <line class="cls-1" x1="536.161" y1="75.215" x2="536.161" y2="93.993"/>
      <line class="cls-1" x1="527.366" y1="75.215" x2="527.366" y2="93.993"/>
      <line class="cls-1" x1="528.148" y1="94.701" x2="527.366" y2="93.993"/>
      <line class="cls-1" x1="535.378" y1="94.701" x2="536.161" y2="93.993"/>
      <line class="cls-1" x1="541.714" y1="72.899" x2="541.714" y2="74.576"/>
      <line class="cls-1" x1="521.813" y1="72.899" x2="521.813" y2="74.576"/>
      <path class="cls-1" d="M524.384,72.899c.911-1.418,2.211-2.544,3.746-3.242"/>
      <path class="cls-1" d="M535.397,69.656c1.534.698,2.835,1.824,3.746,3.242"/>
      <line class="cls-1" x1="544.174" y1="74.576" x2="564.075" y2="74.576"/>
      <line class="cls-1" x1="558.522" y1="93.993" x2="549.727" y2="93.993"/>
      <line class="cls-1" x1="550.51" y1="94.701" x2="557.74" y2="94.701"/>
      <line class="cls-1" x1="544.174" y1="72.899" x2="564.075" y2="72.899"/>
      <line class="cls-1" x1="550.491" y1="69.656" x2="557.758" y2="69.656"/>
      <path class="cls-1" d="M549.088,74.576c.353,0,.639.286.639.639"/>
      <path class="cls-1" d="M558.522,75.215c0-.353.286-.639.639-.639"/>
      <line class="cls-1" x1="558.522" y1="75.215" x2="558.522" y2="93.993"/>
      <line class="cls-1" x1="549.727" y1="75.215" x2="549.727" y2="93.993"/>
      <line class="cls-1" x1="550.51" y1="94.701" x2="549.727" y2="93.993"/>
      <line class="cls-1" x1="557.74" y1="94.701" x2="558.522" y2="93.993"/>
      <line class="cls-1" x1="564.075" y1="72.899" x2="564.075" y2="74.576"/>
      <line class="cls-1" x1="544.174" y1="72.899" x2="544.174" y2="74.576"/>
      <path class="cls-1" d="M546.745,72.899c.911-1.418,2.211-2.544,3.746-3.242"/>
      <path class="cls-1" d="M557.758,69.656c1.534.698,2.835,1.824,3.746,3.242"/>
      <line class="cls-1" x1="566.535" y1="74.576" x2="586.437" y2="74.576"/>
      <line class="cls-1" x1="580.883" y1="93.993" x2="572.089" y2="93.993"/>
      <line class="cls-1" x1="572.871" y1="94.701" x2="580.101" y2="94.701"/>
      <line class="cls-1" x1="566.535" y1="72.899" x2="586.437" y2="72.899"/>
      <line class="cls-1" x1="572.852" y1="69.656" x2="580.12" y2="69.656"/>
      <path class="cls-1" d="M571.45,74.576c.353,0,.639.286.639.639"/>
      <path class="cls-1" d="M580.883,75.215c0-.353.286-.639.639-.639"/>
      <line class="cls-1" x1="580.883" y1="75.215" x2="580.883" y2="93.993"/>
      <line class="cls-1" x1="572.089" y1="75.215" x2="572.089" y2="93.993"/>
      <line class="cls-1" x1="572.871" y1="94.701" x2="572.089" y2="93.993"/>
      <line class="cls-1" x1="580.101" y1="94.701" x2="580.883" y2="93.993"/>
      <line class="cls-1" x1="586.437" y1="72.899" x2="586.437" y2="74.576"/>
      <line class="cls-1" x1="566.535" y1="72.899" x2="566.535" y2="74.576"/>
      <path class="cls-1" d="M569.107,72.899c.911-1.418,2.211-2.544,3.746-3.242"/>
      <path class="cls-1" d="M580.12,69.656c1.534.698,2.835,1.824,3.746,3.242"/>
      <line class="cls-1" x1="588.897" y1="74.576" x2="608.798" y2="74.576"/>
      <line class="cls-1" x1="603.245" y1="93.993" x2="594.45" y2="93.993"/>
      <line class="cls-1" x1="595.232" y1="94.701" x2="602.462" y2="94.701"/>
      <line class="cls-1" x1="588.897" y1="72.899" x2="608.798" y2="72.899"/>
      <line class="cls-1" x1="595.214" y1="69.656" x2="602.481" y2="69.656"/>
      <path class="cls-1" d="M593.811,74.576c.353,0,.639.286.639.639"/>
      <path class="cls-1" d="M603.245,75.215c0-.353.286-.639.639-.639"/>
      <line class="cls-1" x1="603.245" y1="75.215" x2="603.245" y2="93.993"/>
      <line class="cls-1" x1="594.45" y1="75.215" x2="594.45" y2="93.993"/>
      <line class="cls-1" x1="595.232" y1="94.701" x2="594.45" y2="93.993"/>
      <line class="cls-1" x1="602.462" y1="94.701" x2="603.245" y2="93.993"/>
      <line class="cls-1" x1="608.798" y1="72.899" x2="608.798" y2="74.576"/>
      <line class="cls-1" x1="588.897" y1="72.899" x2="588.897" y2="74.576"/>
      <path class="cls-1" d="M591.468,72.899c.911-1.418,2.211-2.544,3.746-3.242"/>
      <path class="cls-1" d="M602.481,69.656c1.534.698,2.835,1.824,3.746,3.242"/>
      <line class="cls-1" x1="611.258" y1="74.576" x2="631.16" y2="74.576"/>
      <line class="cls-1" x1="625.606" y1="93.993" x2="616.811" y2="93.993"/>
      <line class="cls-1" x1="617.594" y1="94.701" x2="624.824" y2="94.701"/>
      <line class="cls-1" x1="611.258" y1="72.899" x2="631.16" y2="72.899"/>
      <line class="cls-1" x1="617.575" y1="69.656" x2="624.842" y2="69.656"/>
      <path class="cls-1" d="M616.172,74.576c.353,0,.639.286.639.639"/>
      <path class="cls-1" d="M625.606,75.215c0-.353.286-.639.639-.639"/>
      <line class="cls-1" x1="625.606" y1="75.215" x2="625.606" y2="93.993"/>
      <line class="cls-1" x1="616.811" y1="75.215" x2="616.811" y2="93.993"/>
      <line class="cls-1" x1="617.594" y1="94.701" x2="616.811" y2="93.993"/>
      <line class="cls-1" x1="624.824" y1="94.701" x2="625.606" y2="93.993"/>
      <line class="cls-1" x1="631.16" y1="72.899" x2="631.16" y2="74.576"/>
      <line class="cls-1" x1="611.258" y1="72.899" x2="611.258" y2="74.576"/>
      <path class="cls-1" d="M613.829,72.899c.911-1.418,2.211-2.544,3.746-3.242"/>
      <path class="cls-1" d="M624.842,69.656c1.534.698,2.835,1.824,3.746,3.242"/>
      <line class="cls-1" x1="633.619" y1="74.576" x2="653.521" y2="74.576"/>
      <line class="cls-1" x1="647.967" y1="93.993" x2="639.173" y2="93.993"/>
      <line class="cls-1" x1="639.955" y1="94.701" x2="647.185" y2="94.701"/>
      <line class="cls-1" x1="633.619" y1="72.899" x2="653.521" y2="72.899"/>
      <line class="cls-1" x1="639.936" y1="69.656" x2="647.204" y2="69.656"/>
      <path class="cls-1" d="M638.534,74.576c.353,0,.639.286.639.639"/>
      <path class="cls-1" d="M647.967,75.215c0-.353.286-.639.639-.639"/>
      <line class="cls-1" x1="647.967" y1="75.215" x2="647.967" y2="93.993"/>
      <line class="cls-1" x1="639.173" y1="75.215" x2="639.173" y2="93.993"/>
      <line class="cls-1" x1="639.955" y1="94.701" x2="639.173" y2="93.993"/>
      <line class="cls-1" x1="647.185" y1="94.701" x2="647.967" y2="93.993"/>
      <line class="cls-1" x1="653.521" y1="72.899" x2="653.521" y2="74.576"/>
      <line class="cls-1" x1="633.619" y1="72.899" x2="633.619" y2="74.576"/>
      <path class="cls-1" d="M636.191,72.899c.911-1.418,2.211-2.544,3.746-3.242"/>
      <path class="cls-1" d="M647.204,69.656c1.534.698,2.835,1.824,3.746,3.242"/>
      <line class="cls-1" x1="655.981" y1="74.576" x2="675.882" y2="74.576"/>
      <line class="cls-1" x1="670.329" y1="93.993" x2="661.534" y2="93.993"/>
      <line class="cls-1" x1="662.316" y1="94.701" x2="669.546" y2="94.701"/>
      <line class="cls-1" x1="655.981" y1="72.899" x2="675.882" y2="72.899"/>
      <line class="cls-1" x1="662.298" y1="69.656" x2="669.565" y2="69.656"/>
      <path class="cls-1" d="M660.895,74.576c.353,0,.639.286.639.639"/>
      <path class="cls-1" d="M670.329,75.215c0-.353.286-.639.639-.639"/>
      <line class="cls-1" x1="670.329" y1="75.215" x2="670.329" y2="93.993"/>
      <line class="cls-1" x1="661.534" y1="75.215" x2="661.534" y2="93.993"/>
      <line class="cls-1" x1="662.316" y1="94.701" x2="661.534" y2="93.993"/>
      <line class="cls-1" x1="669.546" y1="94.701" x2="670.329" y2="93.993"/>
      <line class="cls-1" x1="675.882" y1="72.899" x2="675.882" y2="74.576"/>
      <line class="cls-1" x1="655.981" y1="72.899" x2="655.981" y2="74.576"/>
      <path class="cls-1" d="M658.552,72.899c.911-1.418,2.211-2.544,3.746-3.242"/>
      <path class="cls-1" d="M669.565,69.656c1.534.698,2.835,1.824,3.746,3.242"/>
      <line class="cls-1" x1="499.451" y1="109.236" x2="519.353" y2="109.236"/>
      <line class="cls-1" x1="513.799" y1="142.07" x2="505.005" y2="142.07"/>
      <line class="cls-1" x1="505.787" y1="142.778" x2="513.017" y2="142.778"/>
      <line class="cls-1" x1="499.451" y1="107.559" x2="519.353" y2="107.559"/>
      <line class="cls-1" x1="505.768" y1="104.317" x2="513.036" y2="104.317"/>
      <path class="cls-1" d="M504.366,109.236c.353,0,.639.286.639.639"/>
      <path class="cls-1" d="M513.799,109.875c0-.353.286-.639.639-.639"/>
      <line class="cls-1" x1="513.799" y1="109.875" x2="513.799" y2="142.07"/>
      <line class="cls-1" x1="505.005" y1="109.875" x2="505.005" y2="142.07"/>
      <line class="cls-1" x1="505.787" y1="142.778" x2="505.005" y2="142.07"/>
      <line class="cls-1" x1="513.017" y1="142.778" x2="513.799" y2="142.07"/>
      <line class="cls-1" x1="519.353" y1="107.559" x2="519.353" y2="109.236"/>
      <line class="cls-1" x1="499.451" y1="107.559" x2="499.451" y2="109.236"/>
      <path class="cls-1" d="M502.023,107.559c.911-1.418,2.211-2.544,3.746-3.242"/>
      <path class="cls-1" d="M513.036,104.317c1.534.698,2.835,1.824,3.746,3.242"/>
      <line class="cls-1" x1="521.813" y1="109.236" x2="541.714" y2="109.236"/>
      <line class="cls-1" x1="536.161" y1="142.07" x2="527.366" y2="142.07"/>
      <line class="cls-1" x1="528.148" y1="142.778" x2="535.378" y2="142.778"/>
      <line class="cls-1" x1="521.813" y1="107.559" x2="541.714" y2="107.559"/>
      <line class="cls-1" x1="528.13" y1="104.317" x2="535.397" y2="104.317"/>
      <path class="cls-1" d="M526.727,109.236c.353,0,.639.286.639.639"/>
      <path class="cls-1" d="M536.161,109.875c0-.353.286-.639.639-.639"/>
      <line class="cls-1" x1="536.161" y1="109.875" x2="536.161" y2="142.07"/>
      <line class="cls-1" x1="527.366" y1="109.875" x2="527.366" y2="142.07"/>
      <line class="cls-1" x1="528.148" y1="142.778" x2="527.366" y2="142.07"/>
      <line class="cls-1" x1="535.378" y1="142.778" x2="536.161" y2="142.07"/>
      <line class="cls-1" x1="541.714" y1="107.559" x2="541.714" y2="109.236"/>
      <line class="cls-1" x1="521.813" y1="107.559" x2="521.813" y2="109.236"/>
      <path class="cls-1" d="M524.384,107.559c.911-1.418,2.211-2.544,3.746-3.242"/>
      <path class="cls-1" d="M535.397,104.317c1.534.698,2.835,1.824,3.746,3.242"/>
      <line class="cls-1" x1="544.174" y1="109.236" x2="564.075" y2="109.236"/>
      <line class="cls-1" x1="558.522" y1="142.07" x2="549.727" y2="142.07"/>
      <line class="cls-1" x1="550.51" y1="142.778" x2="557.74" y2="142.778"/>
      <line class="cls-1" x1="544.174" y1="107.559" x2="564.075" y2="107.559"/>
      <line class="cls-1" x1="550.491" y1="104.317" x2="557.758" y2="104.317"/>
      <path class="cls-1" d="M549.088,109.236c.353,0,.639.286.639.639"/>
      <path class="cls-1" d="M558.522,109.875c0-.353.286-.639.639-.639"/>
      <line class="cls-1" x1="558.522" y1="109.875" x2="558.522" y2="142.07"/>
      <line class="cls-1" x1="549.727" y1="109.875" x2="549.727" y2="142.07"/>
      <line class="cls-1" x1="550.51" y1="142.778" x2="549.727" y2="142.07"/>
      <line class="cls-1" x1="557.74" y1="142.778" x2="558.522" y2="142.07"/>
      <line class="cls-1" x1="564.075" y1="107.559" x2="564.075" y2="109.236"/>
      <line class="cls-1" x1="544.174" y1="107.559" x2="544.174" y2="109.236"/>
      <path class="cls-1" d="M546.745,107.559c.911-1.418,2.211-2.544,3.746-3.242"/>
      <path class="cls-1" d="M557.758,104.317c1.534.698,2.835,1.824,3.746,3.242"/>
      <line class="cls-1" x1="566.535" y1="109.236" x2="586.437" y2="109.236"/>
      <line class="cls-1" x1="580.883" y1="142.07" x2="572.089" y2="142.07"/>
      <line class="cls-1" x1="572.871" y1="142.778" x2="580.101" y2="142.778"/>
      <line class="cls-1" x1="566.535" y1="107.559" x2="586.437" y2="107.559"/>
      <line class="cls-1" x1="572.852" y1="104.317" x2="580.12" y2="104.317"/>
      <path class="cls-1" d="M571.45,109.236c.353,0,.639.286.639.639"/>
      <path class="cls-1" d="M580.883,109.875c0-.353.286-.639.639-.639"/>
      <line class="cls-1" x1="580.883" y1="109.875" x2="580.883" y2="142.07"/>
      <line class="cls-1" x1="572.089" y1="109.875" x2="572.089" y2="142.07"/>
      <line class="cls-1" x1="572.871" y1="142.778" x2="572.089" y2="142.07"/>
      <line class="cls-1" x1="580.101" y1="142.778" x2="580.883" y2="142.07"/>
      <line class="cls-1" x1="586.437" y1="107.559" x2="586.437" y2="109.236"/>
      <line class="cls-1" x1="566.535" y1="107.559" x2="566.535" y2="109.236"/>
      <path class="cls-1" d="M569.107,107.559c.911-1.418,2.211-2.544,3.746-3.242"/>
      <path class="cls-1" d="M580.12,104.317c1.534.698,2.835,1.824,3.746,3.242"/>
      <line class="cls-1" x1="512.691" y1="176.872" x2="506.113" y2="176.872"/>
      <line class="cls-1" x1="506.734" y1="177.438" x2="512.07" y2="177.438"/>
      <line class="cls-1" x1="504.482" y1="152.841" x2="514.321" y2="152.841"/>
      <line class="cls-1" x1="503.812" y1="159.549" x2="514.992" y2="159.549"/>
      <line class="cls-1" x1="506.734" y1="177.438" x2="506.113" y2="176.872"/>
      <line class="cls-1" x1="512.07" y1="177.438" x2="512.691" y2="176.872"/>
      <path class="cls-1" d="M503.812,153.512c0-.37.3-.671.671-.671"/>
      <path class="cls-1" d="M514.321,152.841c.37,0,.671.3.671.671"/>
      <line class="cls-1" x1="514.992" y1="153.512" x2="514.992" y2="159.549"/>
      <line class="cls-1" x1="503.812" y1="153.512" x2="503.812" y2="159.549"/>
      <line class="cls-1" x1="512.691" y1="159.549" x2="512.691" y2="176.872"/>
      <line class="cls-1" x1="506.113" y1="159.549" x2="506.113" y2="176.872"/>
      <line class="cls-1" x1="529.462" y1="176.872" x2="522.884" y2="176.872"/>
      <line class="cls-1" x1="523.505" y1="177.438" x2="528.841" y2="177.438"/>
      <line class="cls-1" x1="521.253" y1="152.841" x2="531.092" y2="152.841"/>
      <line class="cls-1" x1="520.583" y1="159.549" x2="531.763" y2="159.549"/>
      <line class="cls-1" x1="523.505" y1="177.438" x2="522.884" y2="176.872"/>
      <line class="cls-1" x1="528.841" y1="177.438" x2="529.462" y2="176.872"/>
      <path class="cls-1" d="M520.583,153.512c0-.37.3-.671.671-.671"/>
      <path class="cls-1" d="M531.092,152.841c.37,0,.671.3.671.671"/>
      <line class="cls-1" x1="531.763" y1="153.512" x2="531.763" y2="159.549"/>
      <line class="cls-1" x1="520.583" y1="153.512" x2="520.583" y2="159.549"/>
      <line class="cls-1" x1="529.462" y1="159.549" x2="529.462" y2="176.872"/>
      <line class="cls-1" x1="522.884" y1="159.549" x2="522.884" y2="176.872"/>
      <line class="cls-1" x1="546.233" y1="176.872" x2="539.655" y2="176.872"/>
      <line class="cls-1" x1="540.276" y1="177.438" x2="545.612" y2="177.438"/>
      <line class="cls-1" x1="538.025" y1="152.841" x2="547.863" y2="152.841"/>
      <line class="cls-1" x1="537.354" y1="159.549" x2="548.534" y2="159.549"/>
      <line class="cls-1" x1="540.276" y1="177.438" x2="539.655" y2="176.872"/>
      <line class="cls-1" x1="545.612" y1="177.438" x2="546.233" y2="176.872"/>
      <path class="cls-1" d="M537.354,153.512c0-.37.3-.671.671-.671"/>
      <path class="cls-1" d="M547.863,152.841c.37,0,.671.3.671.671"/>
      <line class="cls-1" x1="548.534" y1="153.512" x2="548.534" y2="159.549"/>
      <line class="cls-1" x1="537.354" y1="153.512" x2="537.354" y2="159.549"/>
      <line class="cls-1" x1="546.233" y1="159.549" x2="546.233" y2="176.872"/>
      <line class="cls-1" x1="539.655" y1="159.549" x2="539.655" y2="176.872"/>
      <line class="cls-1" x1="563.004" y1="176.872" x2="556.426" y2="176.872"/>
      <line class="cls-1" x1="557.047" y1="177.438" x2="562.383" y2="177.438"/>
      <line class="cls-1" x1="554.796" y1="152.841" x2="564.635" y2="152.841"/>
      <line class="cls-1" x1="554.125" y1="159.549" x2="565.305" y2="159.549"/>
      <line class="cls-1" x1="557.047" y1="177.438" x2="556.426" y2="176.872"/>
      <line class="cls-1" x1="562.383" y1="177.438" x2="563.004" y2="176.872"/>
      <path class="cls-1" d="M554.125,153.512c0-.37.3-.671.671-.671"/>
      <path class="cls-1" d="M564.635,152.841c.37,0,.671.3.671.671"/>
      <line class="cls-1" x1="565.305" y1="153.512" x2="565.305" y2="159.549"/>
      <line class="cls-1" x1="554.125" y1="153.512" x2="554.125" y2="159.549"/>
      <line class="cls-1" x1="563.004" y1="159.549" x2="563.004" y2="176.872"/>
      <line class="cls-1" x1="556.426" y1="159.549" x2="556.426" y2="176.872"/>
      <line class="cls-1" x1="579.775" y1="176.872" x2="573.197" y2="176.872"/>
      <line class="cls-1" x1="573.818" y1="177.438" x2="579.154" y2="177.438"/>
      <line class="cls-1" x1="571.567" y1="152.841" x2="581.406" y2="152.841"/>
      <line class="cls-1" x1="570.896" y1="159.549" x2="582.076" y2="159.549"/>
      <line class="cls-1" x1="573.818" y1="177.438" x2="573.197" y2="176.872"/>
      <line class="cls-1" x1="579.154" y1="177.438" x2="579.775" y2="176.872"/>
      <path class="cls-1" d="M570.896,153.512c0-.37.3-.671.671-.671"/>
      <path class="cls-1" d="M581.406,152.841c.37,0,.671.3.671.671"/>
      <line class="cls-1" x1="582.076" y1="153.512" x2="582.076" y2="159.549"/>
      <line class="cls-1" x1="570.896" y1="153.512" x2="570.896" y2="159.549"/>
      <line class="cls-1" x1="579.775" y1="159.549" x2="579.775" y2="176.872"/>
      <line class="cls-1" x1="573.197" y1="159.549" x2="573.197" y2="176.872"/>
      <path class="cls-1" d="M513.967,187.12c0-.093-.067-.168-.15-.168"/>
      <line class="cls-1" x1="513.667" y1="187.12" x2="513.667" y2="186.952"/>
      <line class="cls-1" x1="513.967" y1="187.12" x2="513.667" y2="187.12"/>
      <line class="cls-1" x1="505.696" y1="187.12" x2="505.696" y2="186.952"/>
      <line class="cls-1" x1="505.696" y1="187.12" x2="513.667" y2="187.12"/>
      <path class="cls-1" d="M505.546,186.952c-.083,0-.15.075-.15.168"/>
      <line class="cls-1" x1="505.696" y1="187.12" x2="505.396" y2="187.12"/>
      <path class="cls-1" d="M505.442,186.952c-.083,0-.15.075-.15.168"/>
      <line class="cls-1" x1="505.292" y1="187.12" x2="505.396" y2="187.12"/>
      <path class="cls-1" d="M505.043,186.952c-.009,0-.017.075-.017.168"/>
      <line class="cls-1" x1="505.026" y1="187.12" x2="505.292" y2="187.12"/>
      <path class="cls-1" d="M503.05,186.952c-.009,0-.017.075-.017.168"/>
      <line class="cls-1" x1="503.033" y1="187.12" x2="505.026" y2="187.12"/>
      <line class="cls-1" x1="503.033" y1="187.12" x2="502.28" y2="187.12"/>
      <path class="cls-1" d="M516.313,186.952c.009,0,.017.075.017.168"/>
      <line class="cls-1" x1="517.083" y1="187.12" x2="516.33" y2="187.12"/>
      <path class="cls-1" d="M514.32,186.952c.009,0,.017.075.017.168"/>
      <line class="cls-1" x1="514.337" y1="187.12" x2="516.33" y2="187.12"/>
      <path class="cls-1" d="M513.921,186.952c.083,0,.15.075.15.168"/>
      <line class="cls-1" x1="514.071" y1="187.12" x2="514.337" y2="187.12"/>
      <line class="cls-1" x1="513.967" y1="187.12" x2="514.071" y2="187.12"/>
      <line class="cls-1" x1="516.33" y1="187.12" x2="516.33" y2="210.018"/>
      <line class="cls-1" x1="516.33" y1="210.018" x2="517.083" y2="210.018"/>
      <line class="cls-1" x1="514.337" y1="210.018" x2="514.337" y2="187.12"/>
      <line class="cls-1" x1="516.33" y1="210.018" x2="514.337" y2="210.018"/>
      <line class="cls-1" x1="514.071" y1="187.12" x2="514.071" y2="210.018"/>
      <line class="cls-1" x1="514.337" y1="210.018" x2="514.071" y2="210.018"/>
      <line class="cls-1" x1="513.967" y1="210.018" x2="513.967" y2="187.12"/>
      <line class="cls-1" x1="514.071" y1="210.018" x2="513.967" y2="210.018"/>
      <line class="cls-1" x1="513.667" y1="187.12" x2="513.667" y2="200.356"/>
      <line class="cls-1" x1="513.667" y1="204.363" x2="513.667" y2="210.018"/>
      <line class="cls-1" x1="513.667" y1="210.018" x2="513.967" y2="210.018"/>
      <path class="cls-1" d="M505.396,210.018c0,.093.067.168.15.168"/>
      <line class="cls-1" x1="505.696" y1="210.018" x2="505.696" y2="210.186"/>
      <line class="cls-1" x1="505.396" y1="210.018" x2="505.696" y2="210.018"/>
      <line class="cls-1" x1="513.667" y1="210.018" x2="513.667" y2="210.186"/>
      <line class="cls-1" x1="513.667" y1="210.018" x2="505.696" y2="210.018"/>
      <path class="cls-1" d="M513.817,210.186c.083,0,.15-.075.15-.168"/>
      <path class="cls-1" d="M513.921,210.186c.083,0,.15-.075.15-.168"/>
      <path class="cls-1" d="M514.32,210.186c.009,0,.017-.075.017-.168"/>
      <path class="cls-1" d="M516.313,210.186c.009,0,.017-.075.017-.168"/>
      <path class="cls-1" d="M503.05,210.186c-.009,0-.017-.075-.017-.168"/>
      <line class="cls-1" x1="502.28" y1="210.018" x2="503.033" y2="210.018"/>
      <path class="cls-1" d="M505.043,210.186c-.009,0-.017-.075-.017-.168"/>
      <line class="cls-1" x1="505.026" y1="210.018" x2="503.033" y2="210.018"/>
      <path class="cls-1" d="M505.442,210.186c-.083,0-.15-.075-.15-.168"/>
      <line class="cls-1" x1="505.292" y1="210.018" x2="505.026" y2="210.018"/>
      <line class="cls-1" x1="505.396" y1="210.018" x2="505.292" y2="210.018"/>
      <line class="cls-1" x1="503.033" y1="187.12" x2="503.033" y2="210.018"/>
      <line class="cls-1" x1="505.026" y1="187.12" x2="505.026" y2="210.018"/>
      <line class="cls-1" x1="505.292" y1="210.018" x2="505.292" y2="187.12"/>
      <line class="cls-1" x1="505.396" y1="187.12" x2="505.396" y2="210.018"/>
      <line class="cls-1" x1="505.696" y1="210.018" x2="505.696" y2="204.363"/>
      <line class="cls-1" x1="505.696" y1="200.356" x2="505.696" y2="187.12"/>
      <path class="cls-1" d="M536.328,187.12c0-.093-.067-.168-.15-.168"/>
      <line class="cls-1" x1="536.028" y1="187.12" x2="536.028" y2="186.952"/>
      <line class="cls-1" x1="536.328" y1="187.12" x2="536.028" y2="187.12"/>
      <line class="cls-1" x1="528.057" y1="187.12" x2="528.057" y2="186.952"/>
      <line class="cls-1" x1="528.057" y1="187.12" x2="536.028" y2="187.12"/>
      <path class="cls-1" d="M527.907,186.952c-.083,0-.15.075-.15.168"/>
      <line class="cls-1" x1="528.057" y1="187.12" x2="527.757" y2="187.12"/>
      <path class="cls-1" d="M527.803,186.952c-.083,0-.15.075-.15.168"/>
      <line class="cls-1" x1="527.653" y1="187.12" x2="527.757" y2="187.12"/>
      <path class="cls-1" d="M527.404,186.952c-.009,0-.017.075-.017.168"/>
      <line class="cls-1" x1="527.387" y1="187.12" x2="527.653" y2="187.12"/>
      <path class="cls-1" d="M525.411,186.952c-.009,0-.017.075-.017.168"/>
      <line class="cls-1" x1="525.394" y1="187.12" x2="527.387" y2="187.12"/>
      <line class="cls-1" x1="525.394" y1="187.12" x2="524.641" y2="187.12"/>
      <path class="cls-1" d="M538.674,186.952c.009,0,.017.075.017.168"/>
      <line class="cls-1" x1="539.444" y1="187.12" x2="538.692" y2="187.12"/>
      <path class="cls-1" d="M536.681,186.952c.009,0,.017.075.017.168"/>
      <line class="cls-1" x1="536.698" y1="187.12" x2="538.692" y2="187.12"/>
      <path class="cls-1" d="M536.283,186.952c.083,0,.15.075.15.168"/>
      <line class="cls-1" x1="536.433" y1="187.12" x2="536.698" y2="187.12"/>
      <line class="cls-1" x1="536.328" y1="187.12" x2="536.433" y2="187.12"/>
      <line class="cls-1" x1="538.692" y1="187.12" x2="538.692" y2="210.018"/>
      <line class="cls-1" x1="538.692" y1="210.018" x2="539.444" y2="210.018"/>
      <line class="cls-1" x1="536.698" y1="210.018" x2="536.698" y2="187.12"/>
      <line class="cls-1" x1="538.692" y1="210.018" x2="536.698" y2="210.018"/>
      <line class="cls-1" x1="536.433" y1="187.12" x2="536.433" y2="210.018"/>
      <line class="cls-1" x1="536.698" y1="210.018" x2="536.433" y2="210.018"/>
      <line class="cls-1" x1="536.328" y1="210.018" x2="536.328" y2="187.12"/>
      <line class="cls-1" x1="536.433" y1="210.018" x2="536.328" y2="210.018"/>
      <line class="cls-1" x1="536.028" y1="187.12" x2="536.028" y2="200.356"/>
      <line class="cls-1" x1="536.028" y1="204.363" x2="536.028" y2="210.018"/>
      <line class="cls-1" x1="536.028" y1="210.018" x2="536.328" y2="210.018"/>
      <path class="cls-1" d="M527.757,210.018c0,.093.067.168.15.168"/>
      <line class="cls-1" x1="528.057" y1="210.018" x2="528.057" y2="210.186"/>
      <line class="cls-1" x1="527.757" y1="210.018" x2="528.057" y2="210.018"/>
      <line class="cls-1" x1="536.028" y1="210.018" x2="536.028" y2="210.186"/>
      <line class="cls-1" x1="536.028" y1="210.018" x2="528.057" y2="210.018"/>
      <path class="cls-1" d="M536.178,210.186c.083,0,.15-.075.15-.168"/>
      <path class="cls-1" d="M536.283,210.186c.083,0,.15-.075.15-.168"/>
      <path class="cls-1" d="M536.681,210.186c.009,0,.017-.075.017-.168"/>
      <path class="cls-1" d="M538.674,210.186c.009,0,.017-.075.017-.168"/>
      <path class="cls-1" d="M525.411,210.186c-.009,0-.017-.075-.017-.168"/>
      <line class="cls-1" x1="524.641" y1="210.018" x2="525.394" y2="210.018"/>
      <path class="cls-1" d="M527.404,210.186c-.009,0-.017-.075-.017-.168"/>
      <line class="cls-1" x1="527.387" y1="210.018" x2="525.394" y2="210.018"/>
      <path class="cls-1" d="M527.803,210.186c-.083,0-.15-.075-.15-.168"/>
      <line class="cls-1" x1="527.653" y1="210.018" x2="527.387" y2="210.018"/>
      <line class="cls-1" x1="527.757" y1="210.018" x2="527.653" y2="210.018"/>
      <line class="cls-1" x1="525.394" y1="187.12" x2="525.394" y2="210.018"/>
      <line class="cls-1" x1="527.387" y1="187.12" x2="527.387" y2="210.018"/>
      <line class="cls-1" x1="527.653" y1="210.018" x2="527.653" y2="187.12"/>
      <line class="cls-1" x1="527.757" y1="187.12" x2="527.757" y2="210.018"/>
      <line class="cls-1" x1="528.057" y1="210.018" x2="528.057" y2="204.363"/>
      <line class="cls-1" x1="528.057" y1="200.356" x2="528.057" y2="187.12"/>
      <path class="cls-1" d="M558.69,187.12c0-.093-.067-.168-.15-.168"/>
      <line class="cls-1" x1="558.39" y1="187.12" x2="558.39" y2="186.952"/>
      <line class="cls-1" x1="558.69" y1="187.12" x2="558.39" y2="187.12"/>
      <line class="cls-1" x1="550.419" y1="187.12" x2="550.419" y2="186.952"/>
      <line class="cls-1" x1="550.419" y1="187.12" x2="558.39" y2="187.12"/>
      <path class="cls-1" d="M550.269,186.952c-.083,0-.15.075-.15.168"/>
      <line class="cls-1" x1="550.419" y1="187.12" x2="550.119" y2="187.12"/>
      <path class="cls-1" d="M550.164,186.952c-.083,0-.15.075-.15.168"/>
      <line class="cls-1" x1="550.014" y1="187.12" x2="550.119" y2="187.12"/>
      <path class="cls-1" d="M549.766,186.952c-.009,0-.017.075-.017.168"/>
      <line class="cls-1" x1="549.749" y1="187.12" x2="550.014" y2="187.12"/>
      <path class="cls-1" d="M547.773,186.952c-.009,0-.017.075-.017.168"/>
      <line class="cls-1" x1="547.755" y1="187.12" x2="549.749" y2="187.12"/>
      <line class="cls-1" x1="547.755" y1="187.12" x2="547.003" y2="187.12"/>
      <path class="cls-1" d="M561.036,186.952c.009,0,.017.075.017.168"/>
      <line class="cls-1" x1="561.806" y1="187.12" x2="561.053" y2="187.12"/>
      <path class="cls-1" d="M559.043,186.952c.009,0,.017.075.017.168"/>
      <line class="cls-1" x1="559.06" y1="187.12" x2="561.053" y2="187.12"/>
      <path class="cls-1" d="M558.644,186.952c.083,0,.15.075.15.168"/>
      <line class="cls-1" x1="558.794" y1="187.12" x2="559.06" y2="187.12"/>
      <line class="cls-1" x1="558.69" y1="187.12" x2="558.794" y2="187.12"/>
      <line class="cls-1" x1="561.053" y1="187.12" x2="561.053" y2="210.018"/>
      <line class="cls-1" x1="561.053" y1="210.018" x2="561.806" y2="210.018"/>
      <line class="cls-1" x1="559.06" y1="210.018" x2="559.06" y2="187.12"/>
      <line class="cls-1" x1="561.053" y1="210.018" x2="559.06" y2="210.018"/>
      <line class="cls-1" x1="558.794" y1="187.12" x2="558.794" y2="210.018"/>
      <line class="cls-1" x1="559.06" y1="210.018" x2="558.794" y2="210.018"/>
      <line class="cls-1" x1="558.69" y1="210.018" x2="558.69" y2="187.12"/>
      <line class="cls-1" x1="558.794" y1="210.018" x2="558.69" y2="210.018"/>
      <line class="cls-1" x1="558.39" y1="187.12" x2="558.39" y2="200.356"/>
      <line class="cls-1" x1="558.39" y1="204.363" x2="558.39" y2="210.018"/>
      <line class="cls-1" x1="558.39" y1="210.018" x2="558.69" y2="210.018"/>
      <path class="cls-1" d="M550.119,210.018c0,.093.067.168.15.168"/>
      <line class="cls-1" x1="550.419" y1="210.018" x2="550.419" y2="210.186"/>
      <line class="cls-1" x1="550.119" y1="210.018" x2="550.419" y2="210.018"/>
      <line class="cls-1" x1="558.39" y1="210.018" x2="558.39" y2="210.186"/>
      <line class="cls-1" x1="558.39" y1="210.018" x2="550.419" y2="210.018"/>
      <path class="cls-1" d="M558.54,210.186c.083,0,.15-.075.15-.168"/>
      <path class="cls-1" d="M558.644,210.186c.083,0,.15-.075.15-.168"/>
      <path class="cls-1" d="M559.043,210.186c.009,0,.017-.075.017-.168"/>
      <path class="cls-1" d="M561.036,210.186c.009,0,.017-.075.017-.168"/>
      <path class="cls-1" d="M547.773,210.186c-.009,0-.017-.075-.017-.168"/>
      <line class="cls-1" x1="547.003" y1="210.018" x2="547.755" y2="210.018"/>
      <path class="cls-1" d="M549.766,210.186c-.009,0-.017-.075-.017-.168"/>
      <line class="cls-1" x1="549.749" y1="210.018" x2="547.755" y2="210.018"/>
      <path class="cls-1" d="M550.164,210.186c-.083,0-.15-.075-.15-.168"/>
      <line class="cls-1" x1="550.014" y1="210.018" x2="549.749" y2="210.018"/>
      <line class="cls-1" x1="550.119" y1="210.018" x2="550.014" y2="210.018"/>
      <line class="cls-1" x1="547.755" y1="187.12" x2="547.755" y2="210.018"/>
      <line class="cls-1" x1="549.749" y1="187.12" x2="549.749" y2="210.018"/>
      <line class="cls-1" x1="550.014" y1="210.018" x2="550.014" y2="187.12"/>
      <line class="cls-1" x1="550.119" y1="187.12" x2="550.119" y2="210.018"/>
      <line class="cls-1" x1="550.419" y1="210.018" x2="550.419" y2="204.363"/>
      <line class="cls-1" x1="550.419" y1="200.356" x2="550.419" y2="187.12"/>
      <path class="cls-1" d="M581.051,187.12c0-.093-.067-.168-.15-.168"/>
      <line class="cls-1" x1="580.751" y1="187.12" x2="580.751" y2="186.952"/>
      <line class="cls-1" x1="581.051" y1="187.12" x2="580.751" y2="187.12"/>
      <line class="cls-1" x1="572.78" y1="187.12" x2="572.78" y2="186.952"/>
      <line class="cls-1" x1="572.78" y1="187.12" x2="580.751" y2="187.12"/>
      <path class="cls-1" d="M572.63,186.952c-.083,0-.15.075-.15.168"/>
      <line class="cls-1" x1="572.78" y1="187.12" x2="572.48" y2="187.12"/>
      <path class="cls-1" d="M572.526,186.952c-.083,0-.15.075-.15.168"/>
      <line class="cls-1" x1="572.376" y1="187.12" x2="572.48" y2="187.12"/>
      <path class="cls-1" d="M572.127,186.952c-.009,0-.017.075-.017.168"/>
      <line class="cls-1" x1="572.11" y1="187.12" x2="572.376" y2="187.12"/>
      <path class="cls-1" d="M570.134,186.952c-.009,0-.017.075-.017.168"/>
      <line class="cls-1" x1="570.117" y1="187.12" x2="572.11" y2="187.12"/>
      <line class="cls-1" x1="570.117" y1="187.12" x2="569.364" y2="187.12"/>
      <path class="cls-1" d="M583.397,186.952c.009,0,.017.075.017.168"/>
      <line class="cls-1" x1="584.167" y1="187.12" x2="583.414" y2="187.12"/>
      <path class="cls-1" d="M581.404,186.952c.009,0,.017.075.017.168"/>
      <line class="cls-1" x1="581.421" y1="187.12" x2="583.414" y2="187.12"/>
      <path class="cls-1" d="M581.005,186.952c.083,0,.15.075.15.168"/>
      <line class="cls-1" x1="581.155" y1="187.12" x2="581.421" y2="187.12"/>
      <line class="cls-1" x1="581.051" y1="187.12" x2="581.155" y2="187.12"/>
      <line class="cls-1" x1="583.414" y1="187.12" x2="583.414" y2="210.018"/>
      <line class="cls-1" x1="583.414" y1="210.018" x2="584.167" y2="210.018"/>
      <line class="cls-1" x1="581.421" y1="210.018" x2="581.421" y2="187.12"/>
      <line class="cls-1" x1="583.414" y1="210.018" x2="581.421" y2="210.018"/>
      <line class="cls-1" x1="581.155" y1="187.12" x2="581.155" y2="210.018"/>
      <line class="cls-1" x1="581.421" y1="210.018" x2="581.155" y2="210.018"/>
      <line class="cls-1" x1="581.051" y1="210.018" x2="581.051" y2="187.12"/>
      <line class="cls-1" x1="581.155" y1="210.018" x2="581.051" y2="210.018"/>
      <line class="cls-1" x1="580.751" y1="187.12" x2="580.751" y2="200.356"/>
      <line class="cls-1" x1="580.751" y1="204.363" x2="580.751" y2="210.018"/>
      <line class="cls-1" x1="580.751" y1="210.018" x2="581.051" y2="210.018"/>
      <path class="cls-1" d="M572.48,210.018c0,.093.067.168.15.168"/>
      <line class="cls-1" x1="572.78" y1="210.018" x2="572.78" y2="210.186"/>
      <line class="cls-1" x1="572.48" y1="210.018" x2="572.78" y2="210.018"/>
      <line class="cls-1" x1="580.751" y1="210.018" x2="580.751" y2="210.186"/>
      <line class="cls-1" x1="580.751" y1="210.018" x2="572.78" y2="210.018"/>
      <path class="cls-1" d="M580.901,210.186c.083,0,.15-.075.15-.168"/>
      <path class="cls-1" d="M581.005,210.186c.083,0,.15-.075.15-.168"/>
      <path class="cls-1" d="M581.404,210.186c.009,0,.017-.075.017-.168"/>
      <path class="cls-1" d="M583.397,210.186c.009,0,.017-.075.017-.168"/>
      <path class="cls-1" d="M570.134,210.186c-.009,0-.017-.075-.017-.168"/>
      <line class="cls-1" x1="569.364" y1="210.018" x2="570.117" y2="210.018"/>
      <path class="cls-1" d="M572.127,210.186c-.009,0-.017-.075-.017-.168"/>
      <line class="cls-1" x1="572.11" y1="210.018" x2="570.117" y2="210.018"/>
      <path class="cls-1" d="M572.526,210.186c-.083,0-.15-.075-.15-.168"/>
      <line class="cls-1" x1="572.376" y1="210.018" x2="572.11" y2="210.018"/>
      <line class="cls-1" x1="572.48" y1="210.018" x2="572.376" y2="210.018"/>
      <line class="cls-1" x1="570.117" y1="187.12" x2="570.117" y2="210.018"/>
      <line class="cls-1" x1="572.11" y1="187.12" x2="572.11" y2="210.018"/>
      <line class="cls-1" x1="572.376" y1="210.018" x2="572.376" y2="187.12"/>
      <line class="cls-1" x1="572.48" y1="187.12" x2="572.48" y2="210.018"/>
      <line class="cls-1" x1="572.78" y1="210.018" x2="572.78" y2="204.363"/>
      <line class="cls-1" x1="572.78" y1="200.356" x2="572.78" y2="187.12"/>
      <line class="cls-1" x1="513.799" y1="75.215" x2="505.005" y2="75.215"/>
      <line class="cls-1" x1="536.161" y1="75.215" x2="527.366" y2="75.215"/>
      <line class="cls-1" x1="558.522" y1="75.215" x2="549.727" y2="75.215"/>
      <line class="cls-1" x1="580.883" y1="75.215" x2="572.089" y2="75.215"/>
      <line class="cls-1" x1="603.245" y1="75.215" x2="594.45" y2="75.215"/>
      <line class="cls-1" x1="625.606" y1="75.215" x2="616.811" y2="75.215"/>
      <line class="cls-1" x1="647.967" y1="75.215" x2="639.173" y2="75.215"/>
      <line class="cls-1" x1="670.329" y1="75.215" x2="661.534" y2="75.215"/>
      <line class="cls-1" x1="513.799" y1="109.875" x2="505.005" y2="109.875"/>
      <line class="cls-1" x1="536.161" y1="109.875" x2="527.366" y2="109.875"/>
      <line class="cls-1" x1="558.522" y1="109.875" x2="549.727" y2="109.875"/>
      <line class="cls-1" x1="580.883" y1="109.875" x2="572.089" y2="109.875"/>
      <line class="cls-1" x1="514.992" y1="153.512" x2="503.812" y2="153.512"/>
      <line class="cls-1" x1="531.763" y1="153.512" x2="520.583" y2="153.512"/>
      <line class="cls-1" x1="548.534" y1="153.512" x2="537.354" y2="153.512"/>
      <line class="cls-1" x1="565.305" y1="153.512" x2="554.125" y2="153.512"/>
      <line class="cls-1" x1="582.076" y1="153.512" x2="570.896" y2="153.512"/>
    </g>
  </g>
  <g id="Layer_6" data-name="Layer 6">
    <g>
      <circle class="cls-3" cx="88.814" cy="30.123" r="29.873"/>
      <g>
        <rect class="cls-2" x="73.614" y="10.918" width="30.401" height="38.408"/>
        <path d="M93.933,48.491h-6.824v-30.707h-6.561v-3.937l8.136-2.1h5.249v36.743Z"/>
      </g>
    </g>
    <g>
      <path class="cls-3" d="M334.318.253c16.498,0,29.873,13.375,29.873,29.873s-13.375,29.864-29.873,29.864-29.864-13.375-29.864-29.864S317.829.253,334.318.253Z"/>
      <g>
        <rect class="cls-2" x="319.122" y="10.918" width="30.401" height="38.408"/>
        <path d="M340.229,20.934c0-.91-.351-1.706-1.05-2.389-.7-.682-1.575-1.023-2.625-1.023h-13.122l-1.838-1.837v-3.937h16.797c2.625,0,4.725.717,6.299,2.152,1.575,1.435,2.362,3.342,2.362,5.722v3.149c0,.98-.131,1.863-.394,2.651-.263.787-.639,1.548-1.129,2.283-.489.735-1.093,1.461-1.811,2.178-.717.717-1.531,1.496-2.44,2.336l-11.023,9.973v.525h17.06v5.774h-26.508v-5.774l16.797-15.222c.561-.49,1.138-1.137,1.732-1.942.595-.805.893-1.732.893-2.782v-1.837Z"/>
      </g>
    </g>
    <g>
      <path class="cls-3" d="M587.718.253c16.498,0,29.873,13.375,29.873,29.873s-13.375,29.864-29.873,29.864-29.864-13.375-29.864-29.864S571.229.253,587.718.253Z"/>
      <g>
        <rect class="cls-2" x="572.522" y="10.918" width="30.401" height="38.408"/>
        <path d="M574.076,42.718h15.485c1.05,0,1.924-.341,2.624-1.023.7-.683,1.05-1.479,1.05-2.389v-3.149c0-.91-.35-1.706-1.05-2.388-.7-.682-1.574-1.023-2.624-1.023h-9.711v-5.774l10.498-8.923v-.525h-14.225l-1.785-1.785v-3.989h24.671v5.774l-10.498,8.923v.525h2.887c1.329,0,2.52.201,3.569.604s1.959.962,2.729,1.68c.77.717,1.355,1.575,1.758,2.572.402.997.604,2.091.604,3.28v5.249c0,1.19-.202,2.284-.604,3.281-.402.998-.988,1.855-1.758,2.572-.771.717-1.68,1.277-2.729,1.68s-2.24.604-3.569.604h-17.322v-5.774Z"/>
      </g>
    </g>
    <g>
      <path class="cls-3" d="M751.538.253c16.498,0,29.873,13.375,29.873,29.873s-13.375,29.864-29.873,29.864-29.864-13.375-29.864-29.864S735.049.253,751.538.253Z"/>
      <g>
        <rect class="cls-2" x="732.906" y="9.053" width="32.86" height="40.273"/>
        <path d="M759.705,33.911h4.199v5.774h-4.199v7.874h-6.823v-7.874h-18.109v-5.774l16.534-23.096h8.398v23.096ZM742.383,33.386v.525h10.498v-14.435h-.525l-9.973,13.91Z"/>
      </g>
    </g>
  </g>
</svg>