<?xml version="1.0" encoding="UTF-8"?>
<svg id="Visible_Narrow" data-name="Visible Narrow" xmlns="http://www.w3.org/2000/svg" xmlns:xlink="http://www.w3.org/1999/xlink" viewBox="0 0 515.775 415.93">
  <defs>
    <style>
      .cls-1 {
        stroke: #000;
      }

      .cls-1, .cls-2, .cls-3, .cls-4 {
        fill: none;
      }

      .cls-1, .cls-4 {
        stroke-linecap: round;
        stroke-linejoin: round;
        stroke-width: .75px;
      }

      .cls-5 {
        fill: #494949;
      }

      .cls-6 {
        fill: #383838;
      }

      .cls-7 {
        fill: #303030;
      }

      .cls-8 {
        fill: #1c1c1c;
      }

      .cls-9 {
        fill: #fff;
      }

      .cls-9, .cls-3 {
        stroke-miterlimit: 10;
      }

      .cls-9, .cls-3, .cls-4 {
        stroke: #e6e7e8;
      }

      .cls-10 {
        fill: #2b2b2b;
      }

      .cls-11 {
        fill: #232323;
      }

      .cls-12 {
        fill: #565656;
      }

      .cls-13 {
        fill: #3d3d3d;
      }

      .cls-14 {
        clip-path: url(#clippath);
      }
    </style>
    <clipPath id="clippath">
      <path class="cls-2" d="M42.292,415.93h428.846c19.05,0,34.492-16.717,44.637-37.778V66.988c-10.145-20.182-25.588-36.899-44.637-36.899H42.292c-19.05,0-34.492,16.717-34.492,37.339v311.163c0,20.622,15.443,37.339,34.492,37.339Z"/>
    </clipPath>
  </defs>
  <g class="cls-14">
    <g id="LINE">
      <line class="cls-4" x1="104.396" y1="272.629" x2="104.395" y2="260.299"/>
    </g>
    <g id="LINE-2" data-name="LINE">
      <line class="cls-4" x1="104.475" y1="272.584" x2="104.474" y2="260.345"/>
    </g>
    <g id="SPLINE">
      <path class="cls-4" d="M105.458,274.505c-.677-.391-1.063-1.094-1.063-1.876"/>
    </g>
    <g id="SPLINE-2" data-name="SPLINE">
      <path class="cls-4" d="M105.537,274.46c-.677-.391-1.063-1.094-1.063-1.876"/>
    </g>
    <g id="LINE-3" data-name="LINE">
      <line class="cls-4" x1="112.607" y1="278.633" x2="105.458" y2="274.505"/>
    </g>
    <g id="LINE-4" data-name="LINE">
      <line class="cls-4" x1="112.686" y1="278.588" x2="105.537" y2="274.46"/>
    </g>
    <g id="SPLINE-3" data-name="SPLINE">
      <path class="cls-4" d="M113.671,277.984c0,.782-.401,1.031-1.064.649"/>
    </g>
    <g id="SPLINE-4" data-name="SPLINE">
      <path class="cls-4" d="M113.417,278.726c-.18.079-.428.036-.73-.139"/>
    </g>
    <g id="LINE-5" data-name="LINE">
      <line class="cls-4" x1="113.671" y1="265.654" x2="113.671" y2="277.984"/>
    </g>
    <g id="LINE-6" data-name="LINE">
      <line class="cls-4" x1="111.405" y1="264.346" x2="113.671" y2="265.654"/>
    </g>
    <g id="LINE-7" data-name="LINE">
      <line class="cls-4" x1="111.405" y1="275.752" x2="111.405" y2="264.346"/>
    </g>
    <g id="LINE-8" data-name="LINE">
      <line class="cls-4" x1="111.405" y1="275.752" x2="111.484" y2="275.706"/>
    </g>
    <g id="LINE-9" data-name="LINE">
      <line class="cls-4" x1="111.484" y1="275.706" x2="111.484" y2="264.392"/>
    </g>
    <g id="LINE-10" data-name="LINE">
      <line class="cls-4" x1="106.661" y1="273.012" x2="111.405" y2="275.752"/>
    </g>
    <g id="LINE-11" data-name="LINE">
      <line class="cls-4" x1="106.66" y1="261.607" x2="106.661" y2="273.012"/>
    </g>
    <g id="LINE-12" data-name="LINE">
      <line class="cls-4" x1="104.395" y1="260.299" x2="106.66" y2="261.607"/>
    </g>
    <g id="LINE-13" data-name="LINE">
      <line class="cls-4" x1="50.408" y1="242.722" x2="48.144" y2="241.415"/>
    </g>
    <g id="LINE-14" data-name="LINE">
      <line class="cls-4" x1="50.408" y1="242.63" x2="48.223" y2="241.369"/>
    </g>
    <g id="LINE-15" data-name="LINE">
      <line class="cls-4" x1="48.144" y1="241.415" x2="48.223" y2="241.369"/>
    </g>
    <g id="LINE-16" data-name="LINE">
      <line class="cls-4" x1="50.408" y1="229.13" x2="50.408" y2="242.722"/>
    </g>
    <g id="LINE-17" data-name="LINE">
      <line class="cls-4" x1="48.144" y1="227.822" x2="50.408" y2="229.13"/>
    </g>
    <g id="LINE-18" data-name="LINE">
      <line class="cls-4" x1="48.144" y1="241.415" x2="48.144" y2="227.822"/>
    </g>
    <g id="LINE-19" data-name="LINE">
      <line class="cls-4" x1="48.223" y1="241.369" x2="48.223" y2="227.868"/>
    </g>
    <g id="LINE-20" data-name="LINE">
      <line class="cls-4" x1="65.845" y1="251.635" x2="65.845" y2="244.305"/>
    </g>
    <g id="LINE-21" data-name="LINE">
      <line class="cls-4" x1="65.845" y1="251.635" x2="65.924" y2="251.589"/>
    </g>
    <g id="LINE-22" data-name="LINE">
      <line class="cls-4" x1="65.924" y1="251.589" x2="65.924" y2="244.26"/>
    </g>
    <g id="LINE-23" data-name="LINE">
      <line class="cls-4" x1="65.845" y1="244.305" x2="65.924" y2="244.26"/>
    </g>
    <g id="LINE-24" data-name="LINE">
      <line class="cls-4" x1="68.063" y1="252.915" x2="65.845" y2="251.635"/>
    </g>
    <g id="LINE-25" data-name="LINE">
      <line class="cls-4" x1="68.063" y1="252.824" x2="65.924" y2="251.589"/>
    </g>
    <g id="LINE-26" data-name="LINE">
      <line class="cls-4" x1="68.063" y1="239.323" x2="68.063" y2="252.915"/>
    </g>
    <g id="LINE-27" data-name="LINE">
      <line class="cls-4" x1="65.768" y1="237.998" x2="68.063" y2="239.323"/>
    </g>
    <g id="LINE-28" data-name="LINE">
      <line class="cls-4" x1="62.532" y1="244.421" x2="65.768" y2="237.998"/>
    </g>
    <g id="LINE-29" data-name="LINE">
      <line class="cls-4" x1="62.532" y1="244.421" x2="62.611" y2="244.376"/>
    </g>
    <g id="LINE-30" data-name="LINE">
      <line class="cls-4" x1="62.611" y1="244.376" x2="65.811" y2="238.023"/>
    </g>
    <g id="LINE-31" data-name="LINE">
      <line class="cls-4" x1="59.296" y1="234.261" x2="62.532" y2="244.421"/>
    </g>
    <g id="LINE-32" data-name="LINE">
      <line class="cls-4" x1="57" y1="232.936" x2="59.296" y2="234.261"/>
    </g>
    <g id="LINE-33" data-name="LINE">
      <line class="cls-4" x1="57" y1="246.528" x2="57" y2="232.936"/>
    </g>
    <g id="LINE-34" data-name="LINE">
      <line class="cls-4" x1="57" y1="246.528" x2="57.079" y2="246.483"/>
    </g>
    <g id="LINE-35" data-name="LINE">
      <line class="cls-4" x1="57.079" y1="246.483" x2="57.079" y2="232.981"/>
    </g>
    <g id="LINE-36" data-name="LINE">
      <line class="cls-4" x1="59.219" y1="247.809" x2="57" y2="246.528"/>
    </g>
    <g id="LINE-37" data-name="LINE">
      <line class="cls-4" x1="59.219" y1="247.718" x2="57.079" y2="246.483"/>
    </g>
    <g id="LINE-38" data-name="LINE">
      <line class="cls-4" x1="59.219" y1="240.48" x2="59.219" y2="247.809"/>
    </g>
    <g id="LINE-39" data-name="LINE">
      <line class="cls-4" x1="59.219" y1="240.48" x2="59.298" y2="240.434"/>
    </g>
    <g id="LINE-40" data-name="LINE">
      <line class="cls-4" x1="61.669" y1="247.836" x2="59.219" y2="240.48"/>
    </g>
    <g id="LINE-41" data-name="LINE">
      <line class="cls-4" x1="61.669" y1="247.836" x2="61.748" y2="247.79"/>
    </g>
    <g id="LINE-42" data-name="LINE">
      <line class="cls-4" x1="61.748" y1="247.79" x2="59.298" y2="240.434"/>
    </g>
    <g id="LINE-43" data-name="LINE">
      <line class="cls-4" x1="63.395" y1="248.832" x2="61.669" y2="247.836"/>
    </g>
    <g id="LINE-44" data-name="LINE">
      <line class="cls-4" x1="63.433" y1="248.763" x2="61.748" y2="247.79"/>
    </g>
    <g id="LINE-45" data-name="LINE">
      <line class="cls-4" x1="65.845" y1="244.305" x2="63.395" y2="248.832"/>
    </g>
    <g id="LINE-46" data-name="LINE">
      <line class="cls-4" x1="126.716" y1="284.697" x2="126.716" y2="281.637"/>
    </g>
    <g id="LINE-47" data-name="LINE">
      <line class="cls-4" x1="126.716" y1="284.697" x2="126.795" y2="284.652"/>
    </g>
    <g id="LINE-48" data-name="LINE">
      <line class="cls-4" x1="126.795" y1="284.652" x2="126.795" y2="281.591"/>
    </g>
    <g id="LINE-49" data-name="LINE">
      <line class="cls-4" x1="126.716" y1="281.637" x2="126.795" y2="281.591"/>
    </g>
    <g id="LINE-50" data-name="LINE">
      <line class="cls-4" x1="122.141" y1="282.055" x2="126.716" y2="284.697"/>
    </g>
    <g id="LINE-51" data-name="LINE">
      <line class="cls-4" x1="122.141" y1="278.053" x2="122.141" y2="282.055"/>
    </g>
    <g id="LINE-52" data-name="LINE">
      <line class="cls-4" x1="122.141" y1="278.053" x2="122.22" y2="278.007"/>
    </g>
    <g id="LINE-53" data-name="LINE">
      <line class="cls-4" x1="125.376" y1="279.921" x2="122.141" y2="278.053"/>
    </g>
    <g id="LINE-54" data-name="LINE">
      <line class="cls-4" x1="125.376" y1="279.921" x2="125.455" y2="279.875"/>
    </g>
    <g id="LINE-55" data-name="LINE">
      <line class="cls-4" x1="125.455" y1="279.875" x2="122.22" y2="278.007"/>
    </g>
    <g id="LINE-56" data-name="LINE">
      <line class="cls-4" x1="126.716" y1="281.637" x2="125.376" y2="279.921"/>
    </g>
    <g id="LINE-57" data-name="LINE">
      <line class="cls-4" x1="126.795" y1="281.591" x2="125.455" y2="279.875"/>
    </g>
    <g id="LINE-58" data-name="LINE">
      <line class="cls-4" x1="122.141" y1="276.166" x2="125.36" y2="278.025"/>
    </g>
    <g id="LINE-59" data-name="LINE">
      <line class="cls-4" x1="122.141" y1="272.626" x2="122.141" y2="276.166"/>
    </g>
    <g id="LINE-60" data-name="LINE">
      <line class="cls-4" x1="122.141" y1="272.626" x2="122.22" y2="272.581"/>
    </g>
    <g id="LINE-61" data-name="LINE">
      <line class="cls-4" x1="126.624" y1="275.215" x2="122.141" y2="272.626"/>
    </g>
    <g id="LINE-62" data-name="LINE">
      <line class="cls-4" x1="126.624" y1="275.215" x2="126.703" y2="275.169"/>
    </g>
    <g id="LINE-63" data-name="LINE">
      <line class="cls-4" x1="126.703" y1="275.169" x2="122.22" y2="272.581"/>
    </g>
    <g id="LINE-64" data-name="LINE">
      <line class="cls-4" x1="126.624" y1="277.794" x2="126.624" y2="275.215"/>
    </g>
    <g id="LINE-65" data-name="LINE">
      <line class="cls-4" x1="126.624" y1="277.794" x2="126.703" y2="277.749"/>
    </g>
    <g id="LINE-66" data-name="LINE">
      <line class="cls-4" x1="126.703" y1="277.749" x2="126.703" y2="275.169"/>
    </g>
    <g id="LINE-67" data-name="LINE">
      <line class="cls-4" x1="125.36" y1="278.025" x2="126.624" y2="277.794"/>
    </g>
    <g id="LINE-68" data-name="LINE">
      <line class="cls-4" x1="127.133" y1="279.992" x2="128.38" y2="281.531"/>
    </g>
    <g id="LINE-69" data-name="LINE">
      <line class="cls-4" x1="127.133" y1="279.992" x2="127.212" y2="279.947"/>
    </g>
    <g id="LINE-70" data-name="LINE">
      <line class="cls-4" x1="128.304" y1="279.867" x2="127.133" y2="279.992"/>
    </g>
    <g id="LINE-71" data-name="LINE">
      <line class="cls-4" x1="128.304" y1="279.867" x2="128.383" y2="279.821"/>
    </g>
    <g id="LINE-72" data-name="LINE">
      <line class="cls-4" x1="128.383" y1="279.821" x2="127.212" y2="279.947"/>
    </g>
    <g id="SPLINE-5" data-name="SPLINE">
      <path class="cls-4" d="M128.904,279.023c0,.604-.17.826-.6.844"/>
    </g>
    <g id="SPLINE-6" data-name="SPLINE">
      <path class="cls-4" d="M128.669,279.762c-.079.036-.173.054-.286.059"/>
    </g>
    <g id="LINE-73" data-name="LINE">
      <line class="cls-4" x1="128.904" y1="275.713" x2="128.904" y2="279.023"/>
    </g>
    <g id="SPLINE-7" data-name="SPLINE">
      <path class="cls-4" d="M127.856,273.844c.663.383,1.048,1.085,1.048,1.869"/>
    </g>
    <g id="LINE-74" data-name="LINE">
      <line class="cls-4" x1="119.876" y1="269.237" x2="127.856" y2="273.844"/>
    </g>
    <g id="LINE-75" data-name="LINE">
      <line class="cls-4" x1="119.876" y1="282.83" x2="119.876" y2="269.237"/>
    </g>
    <g id="LINE-76" data-name="LINE">
      <line class="cls-4" x1="119.876" y1="282.83" x2="119.955" y2="282.784"/>
    </g>
    <g id="LINE-77" data-name="LINE">
      <line class="cls-4" x1="119.955" y1="282.784" x2="119.955" y2="269.283"/>
    </g>
    <g id="LINE-78" data-name="LINE">
      <line class="cls-4" x1="127.918" y1="287.473" x2="119.876" y2="282.83"/>
    </g>
    <g id="LINE-79" data-name="LINE">
      <line class="cls-4" x1="127.998" y1="287.427" x2="119.955" y2="282.784"/>
    </g>
    <g id="SPLINE-8" data-name="SPLINE">
      <path class="cls-4" d="M128.997,286.832c0,.783-.4,1.033-1.078.641"/>
    </g>
    <g id="SPLINE-9" data-name="SPLINE">
      <path class="cls-4" d="M128.744,287.572c-.182.08-.435.035-.746-.145"/>
    </g>
    <g id="LINE-80" data-name="LINE">
      <line class="cls-4" x1="128.996" y1="283.079" x2="128.997" y2="286.832"/>
    </g>
    <g id="SPLINE-10" data-name="SPLINE">
      <path class="cls-4" d="M128.38,281.531c.432.516.616.926.616,1.548"/>
    </g>
    <g id="LINE-81" data-name="LINE">
      <line class="cls-4" x1="91.296" y1="259.4" x2="92.851" y2="264.493"/>
    </g>
    <g id="LINE-82" data-name="LINE">
      <line class="cls-4" x1="92.851" y1="256.102" x2="91.296" y2="259.4"/>
    </g>
    <g id="LINE-83" data-name="LINE">
      <line class="cls-4" x1="92.851" y1="256.102" x2="92.93" y2="256.056"/>
    </g>
    <g id="LINE-84" data-name="LINE">
      <line class="cls-4" x1="98.003" y1="259.077" x2="92.851" y2="256.102"/>
    </g>
    <g id="LINE-85" data-name="LINE">
      <line class="cls-4" x1="98.003" y1="258.985" x2="92.93" y2="256.056"/>
    </g>
    <g id="LINE-86" data-name="LINE">
      <line class="cls-4" x1="97.983" y1="256.396" x2="98.003" y2="259.077"/>
    </g>
    <g id="LINE-87" data-name="LINE">
      <line class="cls-4" x1="91.327" y1="252.553" x2="97.983" y2="256.396"/>
    </g>
    <g id="LINE-88" data-name="LINE">
      <line class="cls-4" x1="88.782" y1="257.948" x2="91.327" y2="252.553"/>
    </g>
    <g id="LINE-89" data-name="LINE">
      <line class="cls-4" x1="88.782" y1="257.948" x2="88.861" y2="257.903"/>
    </g>
    <g id="LINE-90" data-name="LINE">
      <line class="cls-4" x1="88.861" y1="257.903" x2="91.372" y2="252.579"/>
    </g>
    <g id="LINE-91" data-name="LINE">
      <line class="cls-4" x1="91.327" y1="266.281" x2="88.782" y2="257.948"/>
    </g>
    <g id="LINE-92" data-name="LINE">
      <line class="cls-4" x1="91.327" y1="266.281" x2="91.406" y2="266.235"/>
    </g>
    <g id="LINE-93" data-name="LINE">
      <line class="cls-4" x1="91.406" y1="266.235" x2="88.861" y2="257.903"/>
    </g>
    <g id="LINE-94" data-name="LINE">
      <line class="cls-4" x1="98.085" y1="270.183" x2="91.327" y2="266.281"/>
    </g>
    <g id="LINE-95" data-name="LINE">
      <line class="cls-4" x1="98.084" y1="270.091" x2="91.406" y2="266.235"/>
    </g>
    <g id="LINE-96" data-name="LINE">
      <line class="cls-4" x1="98.066" y1="267.504" x2="98.085" y2="270.183"/>
    </g>
    <g id="LINE-97" data-name="LINE">
      <line class="cls-4" x1="92.851" y1="264.493" x2="98.066" y2="267.504"/>
    </g>
    <g id="SPLINE-11" data-name="SPLINE">
      <path class="cls-4" d="M41.012,231.355c.416.508.555.908.555,1.477"/>
    </g>
    <g id="LINE-98" data-name="LINE">
      <line class="cls-4" x1="35.003" y1="224.346" x2="41.012" y2="231.355"/>
    </g>
    <g id="LINE-99" data-name="LINE">
      <line class="cls-4" x1="35.003" y1="222.3" x2="35.003" y2="224.346"/>
    </g>
    <g id="LINE-100" data-name="LINE">
      <line class="cls-4" x1="35.003" y1="222.3" x2="35.082" y2="222.254"/>
    </g>
    <g id="LINE-101" data-name="LINE">
      <line class="cls-4" x1="39.286" y1="224.772" x2="35.003" y2="222.3"/>
    </g>
    <g id="LINE-102" data-name="LINE">
      <line class="cls-4" x1="39.286" y1="224.772" x2="39.365" y2="224.726"/>
    </g>
    <g id="LINE-103" data-name="LINE">
      <line class="cls-4" x1="39.365" y1="224.726" x2="35.082" y2="222.254"/>
    </g>
    <g id="LINE-104" data-name="LINE">
      <line class="cls-4" x1="39.286" y1="226.627" x2="39.286" y2="224.772"/>
    </g>
    <g id="LINE-105" data-name="LINE">
      <line class="cls-4" x1="39.286" y1="226.627" x2="39.365" y2="226.581"/>
    </g>
    <g id="LINE-106" data-name="LINE">
      <line class="cls-4" x1="39.365" y1="226.581" x2="39.365" y2="224.726"/>
    </g>
    <g id="LINE-107" data-name="LINE">
      <line class="cls-4" x1="41.567" y1="228.868" x2="39.286" y2="226.627"/>
    </g>
    <g id="LINE-108" data-name="LINE">
      <line class="cls-4" x1="41.567" y1="228.745" x2="39.365" y2="226.581"/>
    </g>
    <g id="LINE-109" data-name="LINE">
      <line class="cls-4" x1="41.567" y1="225.271" x2="41.567" y2="228.868"/>
    </g>
    <g id="SPLINE-12" data-name="SPLINE">
      <path class="cls-4" d="M40.519,223.42c.648.374,1.049,1.068,1.049,1.851"/>
    </g>
    <g id="LINE-110" data-name="LINE">
      <line class="cls-4" x1="33.802" y1="219.542" x2="40.519" y2="223.42"/>
    </g>
    <g id="SPLINE-13" data-name="SPLINE">
      <path class="cls-4" d="M32.738,220.192c0-.784.4-1.033,1.064-.65"/>
    </g>
    <g id="SPLINE-14" data-name="SPLINE">
      <path class="cls-4" d="M32.817,220.146c0-.371.09-.622.254-.743"/>
    </g>
    <g id="LINE-111" data-name="LINE">
      <line class="cls-4" x1="32.738" y1="223.466" x2="32.738" y2="220.192"/>
    </g>
    <g id="LINE-112" data-name="LINE">
      <line class="cls-4" x1="32.817" y1="223.42" x2="32.817" y2="220.146"/>
    </g>
    <g id="SPLINE-15" data-name="SPLINE">
      <path class="cls-4" d="M33.278,224.915c-.416-.489-.54-.882-.54-1.45"/>
    </g>
    <g id="SPLINE-16" data-name="SPLINE">
      <path class="cls-4" d="M33.357,224.87c-.416-.489-.54-.882-.54-1.45"/>
    </g>
    <g id="LINE-113" data-name="LINE">
      <line class="cls-4" x1="39.286" y1="231.943" x2="33.278" y2="224.915"/>
    </g>
    <g id="LINE-114" data-name="LINE">
      <line class="cls-4" x1="39.286" y1="231.943" x2="39.365" y2="231.897"/>
    </g>
    <g id="LINE-115" data-name="LINE">
      <line class="cls-4" x1="39.365" y1="231.897" x2="33.357" y2="224.87"/>
    </g>
    <g id="LINE-116" data-name="LINE">
      <line class="cls-4" x1="39.286" y1="234.237" x2="39.286" y2="231.943"/>
    </g>
    <g id="LINE-117" data-name="LINE">
      <line class="cls-4" x1="39.286" y1="234.237" x2="39.365" y2="234.191"/>
    </g>
    <g id="LINE-118" data-name="LINE">
      <line class="cls-4" x1="39.365" y1="234.191" x2="39.365" y2="231.897"/>
    </g>
    <g id="LINE-119" data-name="LINE">
      <line class="cls-4" x1="35.003" y1="231.765" x2="39.286" y2="234.237"/>
    </g>
    <g id="LINE-120" data-name="LINE">
      <line class="cls-4" x1="35.003" y1="229.643" x2="35.003" y2="231.765"/>
    </g>
    <g id="LINE-121" data-name="LINE">
      <line class="cls-4" x1="32.738" y1="227.298" x2="35.003" y2="229.643"/>
    </g>
    <g id="LINE-122" data-name="LINE">
      <line class="cls-4" x1="32.738" y1="231.258" x2="32.738" y2="227.298"/>
    </g>
    <g id="LINE-123" data-name="LINE">
      <line class="cls-4" x1="32.817" y1="231.212" x2="32.817" y2="227.38"/>
    </g>
    <g id="SPLINE-17" data-name="SPLINE">
      <path class="cls-4" d="M33.802,233.135c-.663-.383-1.064-1.095-1.064-1.877"/>
    </g>
    <g id="SPLINE-18" data-name="SPLINE">
      <path class="cls-4" d="M33.881,233.089c-.663-.383-1.064-1.095-1.064-1.877"/>
    </g>
    <g id="LINE-124" data-name="LINE">
      <line class="cls-4" x1="40.504" y1="237.004" x2="33.802" y2="233.135"/>
    </g>
    <g id="LINE-125" data-name="LINE">
      <line class="cls-4" x1="40.583" y1="236.958" x2="33.881" y2="233.089"/>
    </g>
    <g id="SPLINE-19" data-name="SPLINE">
      <path class="cls-4" d="M41.567,236.355c0,.782-.401,1.031-1.064.649"/>
    </g>
    <g id="SPLINE-20" data-name="SPLINE">
      <path class="cls-4" d="M41.313,237.097c-.18.079-.428.036-.73-.139"/>
    </g>
    <g id="LINE-126" data-name="LINE">
      <line class="cls-4" x1="41.567" y1="232.832" x2="41.567" y2="236.355"/>
    </g>
    <g id="LINE-127" data-name="LINE">
      <line class="cls-4" x1="74.267" y1="255.235" x2="74.267" y2="242.905"/>
    </g>
    <g id="LINE-128" data-name="LINE">
      <line class="cls-4" x1="74.346" y1="255.189" x2="74.346" y2="242.95"/>
    </g>
    <g id="SPLINE-21" data-name="SPLINE">
      <path class="cls-4" d="M75.33,257.111c-.677-.391-1.063-1.094-1.063-1.876"/>
    </g>
    <g id="SPLINE-22" data-name="SPLINE">
      <path class="cls-4" d="M75.409,257.065c-.677-.391-1.063-1.094-1.063-1.876"/>
    </g>
    <g id="LINE-129" data-name="LINE">
      <line class="cls-4" x1="82.48" y1="261.239" x2="75.33" y2="257.111"/>
    </g>
    <g id="LINE-130" data-name="LINE">
      <line class="cls-4" x1="82.559" y1="261.194" x2="75.409" y2="257.065"/>
    </g>
    <g id="SPLINE-23" data-name="SPLINE">
      <path class="cls-4" d="M83.542,260.59c0,.782-.4,1.032-1.062.65"/>
    </g>
    <g id="SPLINE-24" data-name="SPLINE">
      <path class="cls-4" d="M83.288,261.332c-.18.079-.427.036-.729-.138"/>
    </g>
    <g id="LINE-131" data-name="LINE">
      <line class="cls-4" x1="83.542" y1="248.26" x2="83.542" y2="260.59"/>
    </g>
    <g id="LINE-132" data-name="LINE">
      <line class="cls-4" x1="81.277" y1="246.952" x2="83.542" y2="248.26"/>
    </g>
    <g id="LINE-133" data-name="LINE">
      <line class="cls-4" x1="81.278" y1="258.358" x2="81.277" y2="246.952"/>
    </g>
    <g id="LINE-134" data-name="LINE">
      <line class="cls-4" x1="81.278" y1="258.358" x2="81.357" y2="258.312"/>
    </g>
    <g id="LINE-135" data-name="LINE">
      <line class="cls-4" x1="81.357" y1="258.312" x2="81.357" y2="246.998"/>
    </g>
    <g id="LINE-136" data-name="LINE">
      <line class="cls-4" x1="76.533" y1="255.618" x2="81.278" y2="258.358"/>
    </g>
    <g id="LINE-137" data-name="LINE">
      <line class="cls-4" x1="76.533" y1="244.213" x2="76.533" y2="255.618"/>
    </g>
    <g id="LINE-138" data-name="LINE">
      <line class="cls-4" x1="74.267" y1="242.905" x2="76.533" y2="244.213"/>
    </g>
    <g id="LINE-139" data-name="LINE">
      <line class="cls-4" x1="137.451" y1="287.105" x2="137.451" y2="290.77"/>
    </g>
    <g id="LINE-140" data-name="LINE">
      <line class="cls-4" x1="137.451" y1="287.105" x2="137.53" y2="287.059"/>
    </g>
    <g id="LINE-141" data-name="LINE">
      <line class="cls-4" x1="140.871" y1="289.08" x2="137.451" y2="287.105"/>
    </g>
    <g id="LINE-142" data-name="LINE">
      <line class="cls-4" x1="140.871" y1="288.989" x2="137.53" y2="287.059"/>
    </g>
    <g id="LINE-143" data-name="LINE">
      <line class="cls-4" x1="140.871" y1="286.981" x2="140.871" y2="289.08"/>
    </g>
    <g id="LINE-144" data-name="LINE">
      <line class="cls-4" x1="137.451" y1="285.006" x2="140.871" y2="286.981"/>
    </g>
    <g id="LINE-145" data-name="LINE">
      <line class="cls-4" x1="137.451" y1="281.59" x2="137.451" y2="285.006"/>
    </g>
    <g id="LINE-146" data-name="LINE">
      <line class="cls-4" x1="137.451" y1="281.59" x2="137.53" y2="281.545"/>
    </g>
    <g id="LINE-147" data-name="LINE">
      <line class="cls-4" x1="143.322" y1="284.98" x2="137.451" y2="281.59"/>
    </g>
    <g id="LINE-148" data-name="LINE">
      <line class="cls-4" x1="143.322" y1="284.889" x2="137.53" y2="281.545"/>
    </g>
    <g id="LINE-149" data-name="LINE">
      <line class="cls-4" x1="143.321" y1="282.773" x2="143.322" y2="284.98"/>
    </g>
    <g id="LINE-150" data-name="LINE">
      <line class="cls-4" x1="135.186" y1="278.076" x2="143.321" y2="282.773"/>
    </g>
    <g id="LINE-151" data-name="LINE">
      <line class="cls-4" x1="135.186" y1="291.669" x2="135.186" y2="278.076"/>
    </g>
    <g id="LINE-152" data-name="LINE">
      <line class="cls-4" x1="135.186" y1="291.669" x2="135.265" y2="291.623"/>
    </g>
    <g id="LINE-153" data-name="LINE">
      <line class="cls-4" x1="135.265" y1="291.623" x2="135.265" y2="278.122"/>
    </g>
    <g id="LINE-154" data-name="LINE">
      <line class="cls-4" x1="143.398" y1="296.41" x2="135.186" y2="291.669"/>
    </g>
    <g id="LINE-155" data-name="LINE">
      <line class="cls-4" x1="143.398" y1="296.319" x2="135.265" y2="291.623"/>
    </g>
    <g id="LINE-156" data-name="LINE">
      <line class="cls-4" x1="143.398" y1="294.204" x2="143.398" y2="296.41"/>
    </g>
    <g id="LINE-157" data-name="LINE">
      <line class="cls-4" x1="137.451" y1="290.77" x2="143.398" y2="294.204"/>
    </g>
    <g id="LINE-158" data-name="LINE">
      <line class="cls-9" x1="33.527" y1="64.823" x2="33.527" y2="46.786"/>
    </g>
    <g id="ELLIPSE">
      <path class="cls-9" d="M32.138,69.497c.889-1.54,1.389-3.222,1.389-4.674"/>
    </g>
    <g id="LINE-159" data-name="LINE">
      <line class="cls-9" x1="22.466" y1="86.251" x2="32.138" y2="69.497"/>
    </g>
    <g id="ELLIPSE-2" data-name="ELLIPSE">
      <path class="cls-9" d="M19.112,89.791c1.258-.726,2.464-2,3.353-3.54"/>
    </g>
    <g id="LINE-160" data-name="LINE">
      <line class="cls-9" x1="3.491" y1="98.81" x2="19.112" y2="89.791"/>
    </g>
    <g id="ELLIPSE-3" data-name="ELLIPSE">
      <path class="cls-4" d="M35.611,272.266c-.035-.02-.07-.041-.105-.063"/>
    </g>
    <g id="LINE-161" data-name="LINE">
      <path class="cls-3" d="M40.641,34.464c9.425-6.421,19.425-10.421,28.461-16.432"/>
    </g>
    <g id="ELLIPSE-4" data-name="ELLIPSE">
      <path class="cls-3" d="M33.527,46.786c0-4.537,3.185-10.053,7.114-12.322"/>
    </g>
    <g id="LINE-162" data-name="LINE">
      <path class="cls-3" d="M36.373,32.274c7.694-4.231,15.694-9.231,23.831-13.759"/>
    </g>
    <g id="ELLIPSE-5" data-name="ELLIPSE">
      <path class="cls-3" d="M29.496,44.185c0-4.385,3.079-9.718,6.877-11.911"/>
    </g>
    <g id="LINE-163" data-name="LINE">
      <line class="cls-9" x1="29.496" y1="62.222" x2="29.496" y2="44.185"/>
    </g>
    <g id="ELLIPSE-6" data-name="ELLIPSE">
      <path class="cls-9" d="M28.038,67.13c.934-1.618,1.459-3.383,1.459-4.908"/>
    </g>
    <g id="LINE-164" data-name="LINE">
      <line class="cls-9" x1="18.365" y1="83.884" x2="28.038" y2="67.13"/>
    </g>
    <g id="ELLIPSE-7" data-name="ELLIPSE">
      <path class="cls-9" d="M14.844,87.601c1.321-.763,2.587-2.1,3.521-3.717"/>
    </g>
    <g id="LINE-165" data-name="LINE">
      <path class="cls-9" d="M3.542,94.126l11.301-6.525"/>
    </g>
    <g id="LINE-166" data-name="LINE">
      <line class="cls-9" x1="29.259" y1="44.322" x2="29.259" y2="62.359"/>
    </g>
    <g id="ELLIPSE-8" data-name="ELLIPSE">
      <path class="cls-9" d="M29.259,62.359c0,1.452-.5,3.134-1.389,4.674"/>
    </g>
    <g id="LINE-167" data-name="LINE">
      <line class="cls-9" x1="18.197" y1="83.787" x2="27.87" y2="67.033"/>
    </g>
    <g id="ELLIPSE-9" data-name="ELLIPSE">
      <path class="cls-9" d="M18.197,83.787c-.889,1.54-2.096,2.814-3.353,3.54"/>
    </g>
    <g id="LINE-168" data-name="LINE">
      <path class="cls-9" d="M3.542,93.852l11.301-6.525"/>
    </g>
    <g id="ELLIPSE-10" data-name="ELLIPSE">
      <path class="cls-4" d="M31.45,269.861c-.072-.038-.143-.079-.212-.123"/>
    </g>
    <g id="LINE-169" data-name="LINE">
      <path class="cls-3" d="M36.373,32l15.044-8.685,8.538-4.929"/>
    </g>
    <g id="ELLIPSE-11" data-name="ELLIPSE">
      <path class="cls-3" d="M29.259,44.322c0-4.537,3.185-10.053,7.114-12.322"/>
    </g>
    <g id="LINE-170" data-name="LINE">
      <path class="cls-4" d="M31.343,269.801c-5.039-2.909-10.077-5.818-15.116-8.727l-8.335-4.812"/>
    </g>
    <g id="LINE-171" data-name="LINE">
      <line class="cls-4" x1="104.396" y1="272.629" x2="104.475" y2="272.584"/>
    </g>
    <g id="LINE-172" data-name="LINE">
      <line class="cls-4" x1="105.458" y1="274.505" x2="105.537" y2="274.46"/>
    </g>
    <g id="LINE-173" data-name="LINE">
      <line class="cls-4" x1="112.607" y1="278.633" x2="112.686" y2="278.588"/>
    </g>
    <g id="LINE-174" data-name="LINE">
      <line class="cls-4" x1="127.918" y1="287.473" x2="127.998" y2="287.427"/>
    </g>
    <g id="LINE-175" data-name="LINE">
      <line class="cls-4" x1="32.738" y1="220.192" x2="32.817" y2="220.146"/>
    </g>
    <g id="LINE-176" data-name="LINE">
      <line class="cls-4" x1="32.738" y1="223.466" x2="32.817" y2="223.42"/>
    </g>
    <g id="LINE-177" data-name="LINE">
      <line class="cls-4" x1="33.278" y1="224.915" x2="33.357" y2="224.87"/>
    </g>
    <g id="LINE-178" data-name="LINE">
      <line class="cls-4" x1="32.738" y1="231.258" x2="32.817" y2="231.212"/>
    </g>
    <g id="LINE-179" data-name="LINE">
      <line class="cls-4" x1="33.802" y1="233.135" x2="33.881" y2="233.089"/>
    </g>
    <g id="LINE-180" data-name="LINE">
      <line class="cls-4" x1="40.504" y1="237.004" x2="40.583" y2="236.958"/>
    </g>
    <g id="LINE-181" data-name="LINE">
      <line class="cls-4" x1="74.267" y1="255.235" x2="74.346" y2="255.189"/>
    </g>
    <g id="LINE-182" data-name="LINE">
      <line class="cls-4" x1="75.33" y1="257.111" x2="75.409" y2="257.065"/>
    </g>
    <g id="LINE-183" data-name="LINE">
      <line class="cls-4" x1="82.48" y1="261.239" x2="82.559" y2="261.194"/>
    </g>
    <g id="LINE-184" data-name="LINE">
      <line class="cls-3" x1="40.408" y1="34.604" x2="36.373" y2="32.274"/>
    </g>
    <g id="LINE-185" data-name="LINE">
      <line class="cls-9" x1="33.531" y1="46.514" x2="29.496" y2="44.185"/>
    </g>
    <g id="LINE-186" data-name="LINE">
      <line class="cls-9" x1="33.527" y1="64.549" x2="29.496" y2="62.222"/>
    </g>
    <g id="LINE-187" data-name="LINE">
      <line class="cls-9" x1="32.138" y1="69.497" x2="28.038" y2="67.13"/>
    </g>
    <g id="LINE-188" data-name="LINE">
      <line class="cls-9" x1="22.466" y1="86.251" x2="18.365" y2="83.884"/>
    </g>
    <g id="LINE-189" data-name="LINE">
      <line class="cls-9" x1="18.875" y1="89.928" x2="14.844" y2="87.601"/>
    </g>
    <g id="LINE-190" data-name="LINE">
      <g>
        <g>
          <path class="cls-12" d="M395.117,377.853c-6.55,3.78-12.48,4.14-16.77,1.66l-.32-.19c-4.1-2.55-6.63-7.79-6.63-15.17v-65.71c0-15.12,10.62-33.51,23.72-41.07l47.42-27.38c6.42-3.71,12.24-4.12,16.51-1.81l.26.15c4.29,2.48,6.94,7.79,6.94,15.35v3.65c0-13.11-9.2-18.42-20.55-11.87l-47.42,27.38c-11.35,6.56-20.55,22.49-20.55,35.6v65.71c0,13.11,9.2,18.42,20.55,11.87l-3.16,1.83Z"/>
          <path class="cls-13" d="M373.987,376.863c-3.7-2.8-5.75-7.95-5.75-14.53v-65.72c0-15.12,10.62-33.51,23.71-41.07l47.43-27.38c5.8-3.35,11.38-4.12,15.7-2.2l.01.01c.36.15.72.33,1.06.53l2.9,1.68c-4.27-2.31-10.09-1.9-16.51,1.81l-47.42,27.38c-13.1,7.56-23.72,25.95-23.72,41.07v65.71c0,7.38,2.53,12.62,6.63,15.17l-2.84-1.64c-.42-.24-.82-.51-1.2-.82Z"/>
          <path class="cls-5" d="M423.737,352.193v-.01c-1.16-10.89-1.38-21.86-.68-32.79l-.07-.01c0-.08.01-.16.01-.24s0-.16.01-.25h-.01c.28-7.67.58-15.34.93-23.01h-.01c.01-.04.01-.09.01-.14,0-.04,0-.09.01-.14v-.36c-.03-.79-.28-1.54-.74-2.2-.41-.6-1-1.12-1.73-1.51-.49-.27-1.05-.47-1.64-.6-.61-.13-1.26-.19-1.92-.16-.87.03-1.74.21-2.55.53-1.12.43-2.11,1.1-2.88,1.92-.05.05-.1.11-.16.16-.05.06-.1.12-.15.17-1.97,2.1-3.78,4.35-5.42,6.72-.16.23-.32.45-.48.68-1.61,2.12-3.35,4.14-5.19,6.06h.01c-.05.06-.1.11-.15.16-.05.06-.1.11-.14.16-.48.52-.95,1.03-1.39,1.52-.53.6-1.03,1.17-1.5,1.72-.44.52-.85,1.03-1.22,1.53-.17.23-.34.46-.5.68-.26.38-.55.81-.81,1.27-.26.47-.5.97-.67,1.51-.14.46-.22.95-.22,1.45-.01.62.06,1.19.33,2.13.16.59.42,1.34.82,2.31.45,1.12,1.04,2.4,1.74,3.82.43.87.86,1.71,1.3,2.54.82,1.53,1.64,3.01,2.46,4.43,1.26,2.16,2.53,4.22,3.72,6.01.4.59.79,1.16,1.16,1.7.24.34.47.67.71,1,1.44,2.01,3.17,3.79,5.13,5.3.19.15.39.3.6.45l-.01.01c1.74,1.05,3.53,2.03,5.36,2.92l-10.45-4.62c-.66-.29-1.29-.61-1.9-.96-2.95-1.67-7.19-4.9-10.27-10.9-1.79-3.47-3.35-8.03-4.01-12.91-.38-2.8-.49-5.91-.08-9.17.33-2.58.97-5.2,2.02-7.91.66-1.7,1.45-3.36,2.37-4.98.93-1.66,1.98-3.25,3.09-4.77,2.32-3.16,5-6.07,7.65-8.63,3.95-3.8,9.6-8.5,15.76-12.06,6.64-3.83,13.13-5.91,17.88-6.46,2.45-.29,4.88-.22,6.94.51.79.29,1.52.66,2.18,1.14l7.67,5.6c-.04-.03-.09-.07-.14-.1-.24-.15-.52-.29-.84-.42-.19-.08-.39-.15-.6-.22l-.45-.15c-1.76-.49-3.6-.64-5.42-.45-.11,0-.21.01-.31.02-.53.05-.97.18-1.3.38-.48.3-.72.75-.64,1.3.05.35.22.72.51,1.1.25.33.58.66.99.98.02.01.04.03.06.04.54.42,1.19.8,1.9,1.15.84.4,1.77.73,2.7.98.26.07.52.13.77.19.06.01.11.03.17.04s.11.02.17.04c1.36.31,2.73.64,4.09,1.01.6.16,1.2.33,1.79.5,2.06.61,4.08,1.28,5.99,2.04l.15.06c1.93.77,3.82,1.65,5.55,2.69.65.39,1.28.8,1.88,1.24l18.41,13.44c.78.57,1.69,1.58,2.05,2.09.7,1,1.21,2.15,1.53,3.33.36,1.31.53,2.66.58,4.04.09,2.25-.1,4.57-.42,6.92-.57,4.03-1.53,8.19-2.76,12.33-1.93,6.51-4.73,13.15-8.1,19.4-2.14,3.99-4.52,7.94-7.24,11.48-.15.2-.33.39-.53.56-.21.17-.44.32-.7.44-.27.12-.56.22-.87.26-.31.05-.64.04-.97-.01-.33-.06-.66-.17-.95-.32-.01-.01-.02-.02-.04-.02l-.69-.39h-.01c-.16.06-.34.13-.53.21-.4.18-.86.41-1.34.68-.72.4-1.5.88-2.28,1.43-1.06.74-2.15,1.63-3.09,2.7-.54.61-1.05,1.3-1.46,2.03-.09.15-.2.32-.33.48s-.29.32-.48.46c-.19.15-.41.28-.65.39-.24.1-.51.17-.77.2-.25.03-.51.03-.75,0-1.86-.22-3.57-.76-5.14-1.46l-23.53-10.41-9.73-4.31.01-.01c.28.11.56.22.84.32ZM450.467,344.993c-.01.2-.02.4-.01.6-.08,6.22,1.93,11.26,6.01,13.62,8.02,4.63,21.03-2.88,29.06-16.78,8.02-13.91,8.02-28.93,0-33.56-4.12-2.38-9.54-1.56-14.93,1.67-2.56,1.53-5.11,3.61-7.51,6.15-2.41,2.55-4.66,5.56-6.62,8.96-3.82,6.61-5.82,13.47-6,19.34Z"/>
          <path class="cls-5" d="M470.597,356.173c10.91-6.55,19.58-21.97,19.36-34.45-.18-10.61-6.74-15.71-15.48-12.89-1.25.41-2.55.97-3.88,1.71,5.39-3.23,10.81-4.05,14.93-1.67,8.02,4.63,8.02,19.65,0,33.56-8.03,13.9-21.04,21.41-29.06,16.78-4.08-2.36-6.09-7.4-6.01-13.62,0,.41.02.8.05,1.19.08,1.2.26,2.31.51,3.35.16.68.37,1.33.6,1.94,2.8,7.33,10.29,9.32,18.98,4.1Z"/>
          <path class="cls-11" d="M470.157,338.203c-.77,1.01-1.67,1.85-2.59,2.38l-16.55,9.55c-.25-1.04-.43-2.15-.51-3.35l4.68-2.7,9.22-5.33c1.05-.61,2.08-1.6,2.91-2.83,6.02-8.89,8.81-19.43,7.16-27.09,8.74-2.82,15.3,2.28,15.48,12.89.22,12.48-8.45,27.9-19.36,34.45-8.69,5.22-16.18,3.23-18.98-4.1h.01c6.26-.99,13.22-6.21,18.53-13.87Z"/>
          <path class="cls-6" d="M474.477,308.833c1.65,7.66-1.14,18.2-7.16,27.09-.83,1.23-1.86,2.22-2.91,2.83l-9.22,5.33c4.36-2.52,7.9-8.65,7.9-13.7v-13.69c2.4-2.54,4.95-4.62,7.51-6.15,1.33-.74,2.63-1.3,3.88-1.71ZM470.827,317.513c.78-1.35.78-2.81,0-3.26s-2.05.28-2.83,1.63-.78,2.81,0,3.26,2.05-.28,2.83-1.63Z"/>
          <path class="cls-8" d="M470.827,314.253c.78.45.78,1.91,0,3.26s-2.05,2.08-2.83,1.63-.78-1.91,0-3.26,2.05-2.08,2.83-1.63Z"/>
          <path class="cls-6" d="M467.567,340.583c.92-.53,1.82-1.37,2.59-2.38-5.31,7.66-12.27,12.88-18.53,13.87h-.01c-.23-.61-.44-1.26-.6-1.94l16.55-9.55Z"/>
          <path class="cls-6" d="M380.987,358.503c.15.13.32.25.5.35,3.09,1.78,8.09-1.1,11.18-6.45s3.09-11.13,0-12.91c-.18-.11-.37-.2-.57-.26l-.01-.01c-3.1-1.15-7.7,1.7-10.6,6.72-2.91,5.04-3.08,10.46-.5,12.56ZM466.247,247.333v34.67l-.15-.06c-1.91-.76-3.93-1.43-5.99-2.04-.59-.17-1.19-.34-1.79-.5v-2c0-.36-.05-.7-.17-1.01q0-.01-.01-.02c-.01-.04-.03-.07-.04-.11l-.01-.01c-.12-.34-.25-.67-.38-1.01-.11-.27-.21-.55-.32-.82-.06-.16-.15-.32-.26-.46-.12-.16-.27-.3-.46-.45h-.01l-7.67-5.6c-.66-.48-1.39-.85-2.18-1.14-2.06-.73-4.49-.8-6.94-.51-4.75.55-11.24,2.63-17.88,6.46-6.16,3.56-11.81,8.26-15.76,12.06-2.65,2.56-5.33,5.47-7.65,8.63-1.11,1.52-2.16,3.11-3.09,4.77-.92,1.62-1.71,3.28-2.37,4.98-1.05,2.71-1.69,5.33-2.02,7.91-.41,3.26-.3,6.37.08,9.17.66,4.88,2.22,9.44,4.01,12.91,3.08,6,7.32,9.23,10.27,10.9.61.35,1.24.67,1.9.96l10.45,4.62c1.66.82,3.36,1.56,5.09,2.24l-.01.01,9.73,4.31-34.34,19.83c-11.35,6.55-20.55,1.24-20.55-11.87v-65.71c0-13.11,9.2-29.04,20.55-35.6l47.42-27.38c11.35-6.55,20.55-1.24,20.55,11.87ZM427.577,262.423c3.09-5.35,3.09-11.12,0-12.91-.18-.11-.37-.2-.57-.26l-.01-.01c-3.1-1.15-7.7,1.7-10.6,6.73-2.91,5.02-3.08,10.43-.52,12.54h.01c.16.14.33.26.51.36,3.09,1.79,8.09-1.1,11.18-6.45Z"/>
          <path class="cls-11" d="M463.087,316.693v13.69c0,5.05-3.54,11.18-7.9,13.7-1.71.98-3.35,1.3-4.72.91.18-5.87,2.18-12.73,6-19.34,1.96-3.4,4.21-6.41,6.62-8.96Z"/>
          <path class="cls-11" d="M458.317,277.403v2c-1.36-.37-2.73-.7-4.09-1.01-.06-.02-.11-.03-.17-.04s-.11-.03-.17-.04c-.25-.06-.51-.12-.77-.19-.93-.25-1.86-.58-2.7-.98-.71-.35-1.36-.73-1.9-1.15l-.05-.05c-.22-.29-.37-.57-.42-.83-.09-.42.04-.77.37-1.01.23-.16.55-.28.94-.34l.3-.03c1.75-.18,3.52-.03,5.23.43v.01c.17.05.33.1.48.16.24.08.47.17.68.26.35.15.67.31.94.48.3.19.55.39.74.61.15.18.27.36.36.57l.01.01c.01.04.03.07.04.11q.01.01.01.02c.12.31.17.65.17,1.01Z"/>
          <path class="cls-5" d="M454.887,274.163c-1.71-.46-3.48-.61-5.23-.43l-.3.03c-.39.06-.71.18-.94.34-.33.24-.46.59-.37,1.01.05.26.2.54.42.83l.05.05c-.02-.01-.04-.03-.06-.04-.41-.32-.74-.65-.99-.98-.29-.38-.46-.75-.51-1.1-.08-.55.16-1,.64-1.3.33-.2.77-.33,1.3-.38.1-.01.2-.02.31-.02,1.82-.19,3.66-.04,5.42.45l.45.15c.21.07.41.14.6.22.32.13.6.27.84.42.05.03.1.07.14.1h.01c.19.15.34.29.46.45.11.14.2.3.26.46.11.27.21.55.32.82.13.34.26.67.38,1.01-.09-.21-.21-.39-.36-.57-.19-.22-.44-.42-.74-.61-.27-.17-.59-.33-.94-.48-.21-.09-.44-.18-.68-.26-.15-.06-.31-.11-.48-.16v-.01Z"/>
          <path class="cls-6" d="M455.187,344.083l-4.68,2.7c-.03-.39-.05-.78-.05-1.19-.01-.2,0-.4.01-.6,1.37.39,3.01.07,4.72-.91Z"/>
          <path class="cls-5" d="M454.647,225.593c.14.12.29.24.43.37-4.32-1.92-9.9-1.15-15.7,2.2l-47.43,27.38-1.58.92c-12.22,7.05-22.13,24.22-22.13,38.33v4.97c-.37-.1-.72-.22-1.04-.35l-.08-.03c-1.43-.63-2.27-1.57-2.27-2.61v-1.83c0-2.24.25-4.63.73-7.09s1.19-4.98,2.12-7.5c1.14-3.08,2.59-6.14,4.3-9.05s3.67-5.67,5.79-8.15c3.41-3.99,7.23-7.25,11.05-9.46.04-.02.08-.05.12-.07.05-.02.09-.05.13-.07l46.83-27.04c.04-.03.09-.05.13-.07.04-.03.08-.05.12-.08,1.87-1.08,3.74-1.91,5.56-2.46,1.91-.58,3.76-.87,5.5-.84,2.12.03,4.09.52,5.8,1.46.56.3,1.08.64,1.58,1.04l.04.03Z"/>
          <path class="cls-13" d="M452.157,223.613l2.45,1.95c-.5-.4-1.02-.74-1.58-1.04-1.71-.94-3.68-1.43-5.8-1.46-1.74-.03-3.59.26-5.5.84-1.82.55-3.69,1.38-5.56,2.46-.04.03-.08.05-.12.08-.04.02-.09.04-.13.07l-46.83,27.04c-.04.02-.08.05-.13.07-.04.02-.08.05-.12.07-3.82,2.21-7.64,5.47-11.05,9.46-2.12,2.48-4.08,5.24-5.79,8.15s-3.16,5.97-4.3,9.05c-.93,2.52-1.64,5.04-2.12,7.5s-.73,4.85-.73,7.09v1.83c0,1.04.84,1.98,2.27,2.61l-8.97-3.77-3.21-1.34c-.7-.29-1.1-1.07-1.1-2.12l-1.77-.87c.38-.4.77-.81,1.17-1.21.59-.58,1.19-1.22,1.81-1.89,1.45-1.58,2.99-3.39,4.57-5.38,1.59-1.99,3.22-4.15,4.84-6.42,1.62-2.26,3.24-4.64,4.8-7.04,1.32-2.03,2.7-4.27,3.95-6.43,1.25-2.17,2.36-4.27,3.23-6.08,1.01-2.13,1.87-4.23,2.42-6.08.12-.38.22-.75.31-1.11,2.24-9,7.26-15.55,15.16-20.11.25-.14.5-.29.75-.42.25-.14.51-.28.77-.42,5.99-3.12,13.78-5.39,23.68-6.83.78-.11,1.58-.22,2.39-.32,1.69-.22,3.43-.41,5.23-.58h.01c.65-.06,1.32-.12,1.99-.18.62-.05,1.25-.1,1.87-.14,3-.21,5.93-.29,8.45-.2,2.15.07,4.33.27,6.22.62,1.88.36,3.48.87,4.69,1.45.68.33,1.27.7,1.78,1.1Z"/>
          <path class="cls-6" d="M427.577,249.513c3.09,1.79,3.09,7.56,0,12.91s-8.09,8.24-11.18,6.45c-.18-.1-.35-.22-.51-.36,3.37,1.23,8.34-2.22,11.11-7.7,2.38-4.73,2.38-9.57.01-11.56.2.06.39.15.57.26Z"/>
          <path class="cls-10" d="M427.007,249.253c2.37,1.99,2.37,6.83-.01,11.56-2.77,5.48-7.74,8.93-11.11,7.7h-.01c-2.56-2.11-2.39-7.52.52-12.54,2.9-5.03,7.5-7.88,10.6-6.73l.01.01ZM423.257,258.773v-3.16l-2.38-.22-1.1,1.37-1.27,1.58v3.17l2.37.21,2.38-2.95Z"/>
          <path class="cls-13" d="M424.427,219.383l2.72,1.58c-21.23-11.71-55.26,8.39-76,44.88-20.6,36.22-20.38,75.01.43,87.02l-3.16-1.83c-.12-.07-.24-.14-.36-.22-20.63-12.35-20.51-51.4.36-87.55,20.93-36.25,54.83-55.89,75.83-43.98.06.03.12.07.18.1Z"/>
          <path class="cls-5" d="M417.807,349.633c-1.83-.89-3.62-1.87-5.36-2.92l.01-.01c-.21-.15-.41-.3-.6-.45-1.96-1.51-3.69-3.29-5.13-5.3-.24-.33-.47-.66-.71-1-.37-.54-.76-1.11-1.16-1.7-1.19-1.79-2.46-3.85-3.72-6.01-.82-1.42-1.64-2.9-2.46-4.43-.44-.83-.87-1.67-1.3-2.54-.7-1.42-1.29-2.7-1.74-3.82-.4-.97-.66-1.72-.82-2.31-.27-.94-.34-1.51-.33-2.13,0-.5.08-.99.22-1.45.17-.54.41-1.04.67-1.51.26-.46.55-.89.81-1.27.16-.22.33-.45.5-.68.37-.5.78-1.01,1.22-1.53.47-.55.97-1.12,1.5-1.72.44-.49.91-1,1.39-1.52.04-.05.09-.1.14-.16.05-.05.1-.1.15-.16h-.01c1.84-1.92,3.58-3.94,5.19-6.06.16-.23.32-.45.48-.68,1.64-2.37,3.45-4.62,5.42-6.72.05-.05.1-.11.15-.17.06-.05.11-.11.16-.16.77-.82,1.76-1.49,2.88-1.92.81-.32,1.68-.5,2.55-.53.66-.03,1.31.03,1.92.16.59.13,1.15.33,1.64.6.73.39,1.32.91,1.73,1.51.46.66.71,1.41.74,2.2v.36c-.01.05-.01.1-.01.14,0,.05,0,.1-.01.14h.01c-.35,7.67-.65,15.34-.93,23.01h.01c-.01.09-.01.17-.01.25s-.01.16-.01.24l.07.01c-.7,10.93-.48,21.9.68,32.79v.01c-.28-.1-.56-.21-.84-.32-1.73-.68-3.43-1.42-5.09-2.24ZM422.837,296.363c-.01-.1-.01-.19-.02-.29-.07-.64-.31-1.24-.7-1.76-.35-.46-.82-.86-1.39-1.16-.39-.2-.82-.36-1.27-.46-.47-.1-.97-.15-1.47-.13-.67.02-1.34.15-1.99.38-.89.32-1.71.82-2.39,1.46-.1.1-.21.21-.31.32-1.91,2.03-3.66,4.2-5.24,6.49-.16.23-.32.47-.48.71-1.54,2.23-3.21,4.36-5.01,6.39h.01c-.05.06-.1.11-.14.17-.05.05-.1.11-.14.16-.47.55-.91,1.07-1.34,1.58-.52.61-1,1.19-1.45,1.75-.43.54-.82,1.05-1.18,1.54-.17.23-.33.45-.48.68-.25.36-.52.78-.76,1.21s-.45.87-.58,1.3c-.11.35-.17.69-.17,1.04-.01.42.03.8.26,1.59.15.5.39,1.16.78,2.08.45,1.06,1.04,2.31,1.76,3.7.43.85.87,1.68,1.31,2.49.82,1.51,1.64,2.96,2.45,4.35,1.24,2.12,2.47,4.13,3.59,5.88.38.58.74,1.13,1.09,1.66.22.33.45.66.68.99,1.42,1.97,3.11,3.72,5.04,5.2.21.16.42.32.63.47.44.32.94.65,1.49,1,.39.25.82.51,1.26.76.59.35,1.22.69,1.79,1,.35.18.69.36,1.02.52.34.16.66.32.96.46.44.2.85.37,1.18.49.35.13.63.22.83.26.09.02.17.03.23.03s.1-.01.12-.04c.01-.01.02-.01.03-.03,0-.01,0-.02-.01-.03l-.06.01c-.96-10.39-1.17-20.83-.61-31.24h-.07c0-.08,0-.15.01-.23v-.22c.17-7.42.41-14.83.74-22.25h-.01c.01-.09.01-.18.01-.28Z"/>
          <polygon class="cls-8" points="423.257 255.613 423.257 258.773 419.777 256.763 420.877 255.393 423.257 255.613"/>
          <polygon class="cls-8" points="423.257 258.773 420.877 261.723 418.507 260.353 418.507 258.343 419.777 256.763 423.257 258.773"/>
          <path class="cls-11" d="M422.817,296.073c.01.1.01.19.02.29,0,.1,0,.19-.01.28h.01c-.33,7.42-.57,14.83-.74,22.25v.22c-.01.08-.01.15-.01.23h.07c-.56,10.41-.35,20.85.61,31.24l.06-.01c.01.01.01.02.01.03-.01.02-.02.02-.03.03-.02.03-.06.04-.12.04s-.14-.01-.23-.03c-.2-.04-.48-.13-.83-.26-.33-.12-.74-.29-1.18-.49-.3-.14-.62-.3-.96-.46-.33-.16-.67-.34-1.02-.52-.57-.31-1.2-.65-1.79-1-.44-.25-.87-.51-1.26-.76-.55-.35-1.05-.68-1.49-1-.21-.15-.42-.31-.63-.47-1.93-1.48-3.62-3.23-5.04-5.2-.23-.33-.46-.66-.68-.99-.35-.53-.71-1.08-1.09-1.66-1.12-1.75-2.35-3.76-3.59-5.88-.81-1.39-1.63-2.84-2.45-4.35-.44-.81-.88-1.64-1.31-2.49-.72-1.39-1.31-2.64-1.76-3.7-.39-.92-.63-1.58-.78-2.08-.23-.79-.27-1.17-.26-1.59,0-.35.06-.69.17-1.04.13-.43.34-.87.58-1.3s.51-.85.76-1.21c.15-.23.31-.45.48-.68.36-.49.75-1,1.18-1.54.45-.56.93-1.14,1.45-1.75.43-.51.87-1.03,1.34-1.58.04-.05.09-.11.14-.16.04-.06.09-.11.14-.17h-.01c1.8-2.03,3.47-4.16,5.01-6.39.16-.24.32-.48.48-.71,1.58-2.29,3.33-4.46,5.24-6.49.1-.11.21-.22.31-.32.68-.64,1.5-1.14,2.39-1.46.65-.23,1.32-.36,1.99-.38.5-.02,1,.03,1.47.13.45.1.88.26,1.27.46.57.3,1.04.7,1.39,1.16.39.52.63,1.12.7,1.76Z"/>
          <path class="cls-12" d="M427.147,220.963c-1.8.17-3.54.36-5.23.58v-.01c-23.27-6.18-55.91,18.55-72.89,55.23-13.49,29.11-13.37,58.03.3,71.32.74,1.59,1.55,3.21,2.41,4.87-.05-.03-.11-.06-.16-.09-20.81-12.01-21.03-50.8-.43-87.02,20.74-36.49,54.77-56.59,76-44.88Z"/>
          <path class="cls-7" d="M419.527,221.853l-6.59.9c-5.47.75-11.24,2.75-17.09,5.94-.25.13-.51.27-.77.42-.25.13-.5.28-.75.42-28.3,16.34-51.32,55.63-52.14,88.55-.02.6-.03,1.21-.03,1.81,0,7.35,1.16,13.96,3.43,19.51l1.22,2.97.1.25c.48,1.18.99,2.34,1.52,3.52.16.36.33.73.5,1.09.13.28.26.56.4.85-13.67-13.29-13.79-42.21-.3-71.32,16.98-36.68,49.62-61.41,72.89-55.23v.01c-.81.1-1.61.21-2.39.32v-.01Z"/>
          <polygon class="cls-8" points="420.877 261.723 418.507 261.513 418.507 260.353 420.877 261.723"/>
          <path class="cls-5" d="M392.667,339.493c3.09,1.78,3.09,7.56,0,12.91s-8.09,8.23-11.18,6.45c-.18-.1-.35-.22-.5-.35,3.38,1.21,8.34-2.24,11.1-7.71,2.38-4.74,2.38-9.57.01-11.56.2.06.39.15.57.26Z"/>
          <path class="cls-10" d="M392.097,339.233c2.37,1.99,2.37,6.82-.01,11.56-2.76,5.47-7.72,8.92-11.1,7.71-2.58-2.1-2.41-7.52.5-12.56,2.9-5.02,7.5-7.87,10.6-6.72l.01.01ZM388.337,348.743v-3.16l-2.37-.21-1.1,1.37-1.27,1.58v3.16l2.37.21,2.37-2.95Z"/>
          <polygon class="cls-8" points="388.337 345.583 388.337 348.743 384.867 346.743 385.967 345.373 388.337 345.583"/>
          <polygon class="cls-8" points="388.337 348.743 385.967 351.693 383.597 350.333 383.597 348.323 384.867 346.743 388.337 348.743"/>
          <polygon class="cls-8" points="385.967 351.693 383.597 351.483 383.597 350.333 385.967 351.693"/>
          <path class="cls-11" d="M394.327,229.533c-7.9,4.56-12.92,11.11-15.16,20.11-.09.36-.19.73-.31,1.11-.55,1.85-1.41,3.95-2.42,6.08-.87,1.81-1.98,3.91-3.23,6.08-1.25,2.16-2.63,4.4-3.95,6.43-1.56,2.4-3.18,4.78-4.8,7.04-1.62,2.27-3.25,4.43-4.84,6.42-1.58,1.99-3.12,3.8-4.57,5.38-.62.67-1.22,1.31-1.81,1.89-.4.4-.79.81-1.17,1.21-1.14,1.23-2.19,2.47-3.14,3.73-.17.23-.34.46-.5.69-.57.84-1.11,1.77-1.62,2.77-1.02,2-1.9,4.27-2.59,6.66-.7,2.38-1.23,4.89-1.57,7.39-.25,1.87-.4,3.74-.46,5.56.82-32.92,23.84-72.21,52.14-88.55Z"/>
          <path class="cls-5" d="M373.987,376.863l-.01.01c-.32-.1-.63-.22-.93-.34l-.15-.06c-.31-.14-.61-.28-.9-.44-1.71-.94-3.16-2.32-4.3-4.08-1.86-2.88-2.85-6.8-2.85-11.29v-38.34c0-1.29,1.29-2.55,3.39-3.3v43.31c0,6.58,2.05,11.73,5.75,14.53Z"/>
          <path class="cls-13" d="M372.897,376.473l-2.96-1.24c-.23-.1-.45-.2-.68-.32-1.56-.76-3.18-1.94-4.8-3.47s-3.25-3.4-4.84-5.51c-1.58-2.11-3.12-4.47-4.57-6.94-.62-1.05-1.22-2.12-1.81-3.2-.52-.96-1.02-1.91-1.5-2.84-.86-1.66-1.67-3.28-2.41-4.87-.14-.29-.27-.57-.4-.85-.17-.36-.34-.73-.5-1.09-.53-1.18-1.04-2.34-1.52-3.52l-.1-.25c-1.02-2.51-1.9-5.02-2.59-7.54-.7-2.53-1.23-5.06-1.57-7.57-.33-2.5-.49-4.99-.49-7.37,0-.6.01-1.2.03-1.81.06-1.82.21-3.69.46-5.56.34-2.5.87-5.01,1.57-7.39.69-2.39,1.57-4.66,2.59-6.66.51-1,1.05-1.93,1.62-2.77.16-.23.33-.46.5-.69.95-1.26,2-2.5,3.14-3.73l1.77.87v25.56c0-2.02,1.44-4.48,3.2-5.5l2.7-1.56,3.96,2.29c.48.27,1.01.44,1.56.51.75.09,1.53-.02,2.29-.27.23-.07.46-.16.69-.26v6.1c-2.1.75-3.39,2.01-3.39,3.3v38.34c0,4.49.99,8.41,2.85,11.29,1.14,1.76,2.59,3.14,4.3,4.08.29.16.59.3.9.44Z"/>
          <path class="cls-10" d="M368.237,309.293v3.63c-.23.1-.46.19-.69.26-.76.25-1.54.36-2.29.27-.55-.07-1.08-.24-1.56-.51l-3.96-2.29-3.15-1.82c-.46-.27-.86-.65-1.17-1.13-1.76-2.76-.54-8.17,2.73-12.09l8.97,3.77.08.03c.32.13.67.25,1.04.35v2.43l-.69.86-1.47,1.83v4.22l2.16.19Z"/>
          <polygon class="cls-8" points="368.237 308.803 368.237 309.293 366.077 309.103 366.077 307.553 368.237 308.803"/>
          <polygon class="cls-8" points="368.237 303.433 368.237 308.803 366.077 307.553 366.077 306.123 368.237 303.433"/>
          <polygon class="cls-8" points="368.237 303.143 368.237 303.433 366.077 306.123 366.077 304.883 367.547 303.053 368.237 303.143"/>
          <path class="cls-6" d="M359.737,310.653l-2.7,1.56c-1.76,1.02-3.2,3.48-3.2,5.5v-25.56c0,1.05.4,1.83,1.1,2.12l3.21,1.34c-3.27,3.92-4.49,9.33-2.73,12.09.31.48.71.86,1.17,1.13l3.15,1.82Z"/>
        </g>
        <g>
          <path class="cls-3" d="M342.487,72.123c-.49.16-.98.39-1.48.67"/>
          <line class="cls-4" x1="179.757" y1="352.083" x2="179.757" y2="217.003"/>
          <path class="cls-4" d="M179.757,217.003c0-.58.05-1.18.16-1.81"/>
          <path class="cls-4" d="M179.917,353.703c-.11-.5-.16-1.04-.16-1.62"/>
          <line class="cls-3" x1="224.017" y1="140.343" x2="341.007" y2="72.793"/>
          <path class="cls-3" d="M222.527,141.383c.49-.41.99-.76,1.49-1.04"/>
          <line class="cls-3" x1="221.557" y1=".433" x2="344.107" y2="71.183"/>
          <line class="cls-4" x1="179.917" y1="355.573" x2="6.817" y2="255.633"/>
          <line class="cls-4" x1="179.917" y1="355.583" x2="35.607" y2="272.263"/>
          <path class="cls-3" d="M344.457,173.223c-.17-.04-.35-.08-.52-.11-8.87-1.93-19.47.23-30.52,6.52"/>
          <path class="cls-3" d="M357.567,180.783c-2.67-2.82-5.78-4.93-9.23-6.32-1.25-.51-2.54-.92-3.87-1.24"/>
          <path class="cls-4" d="M271.447,307.593c2.93,2.3,6.32,3.95,10.11,4.85"/>
          <path class="cls-4" d="M268.477,304.873c.91.98,1.9,1.89,2.95,2.71"/>
          <path class="cls-4" d="M268.077,304.443c.12.14.25.28.38.42"/>
          <path class="cls-4" d="M258.487,274.773c.08,12.7,3.49,22.95,9.57,29.66"/>
          <path class="cls-3" d="M285.097,314.483c-7.59-.94-13.96-4.62-18.57-10.72-5.54-7.33-8.13-17.47-8.04-28.99.14-21.48,9.59-47.76,26.6-69.5,8.87-11.34,18.65-19.99,28.33-25.65,18.8-10.99,37.18-10.67,47.67,3.17,0,.01.01.02.02.03"/>
          <path class="cls-3" d="M365.427,185.813c-.01-.02-.02-.03-.03-.05-13.26-25.22-47.07-19.96-75.56,11.77-28.5,31.74-40.88,77.96-27.64,103.24,5.66,10.81,15.46,16.46,27.65,15.96"/>
          <path class="cls-3" d="M362.647,129.503c-33.96-19.6-89.01,12.18-122.96,70.99-33.96,58.81-33.96,122.38,0,141.98"/>
          <polyline class="cls-3" points="179.917 191.173 179.917 200.663 179.917 215.193 179.917 353.703 179.917 355.573 179.917 355.583 179.917 378.093"/>
          <line class="cls-3" x1="179.917" y1="190.633" x2="179.917" y2="191.173"/>
          <path class="cls-4" d="M179.917,378.093c0,6.69,2.3,11.77,6.39,14.13"/>
          <path class="cls-3" d="M379.037,58.403c-4.09-2.36-9.64-1.81-15.43,1.53"/>
          <line class="cls-3" x1="201.727" y1="153.393" x2="201.257" y2="153.663"/>
          <polyline class="cls-3" points="363.607 59.933 342.497 72.123 342.487 72.123 222.527 141.383 209.947 148.643 201.727 153.393"/>
          <path class="cls-3" d="M179.917,190.633c0-2.43.3-4.95.87-7.5.35-1.56.8-3.13,1.34-4.7,2.07-6.03,5.48-11.94,9.67-16.76,1.09-1.25,2.23-2.43,3.41-3.51,1.92-1.76,3.95-3.29,6.05-4.5"/>
          <path class="cls-3" d="M201.727,153.393c-12.05,6.95-21.81,23.87-21.81,37.78"/>
          <path class="cls-4" d="M217.857,400.003c-6.03,3.48-11.48,3.81-15.43,1.52-3.95-2.27-6.39-7.16-6.39-14.12"/>
          <line class="cls-3" x1="196.037" y1="387.403" x2="196.037" y2="200.483"/>
          <line class="cls-3" x1="200.777" y1="200.483" x2="200.777" y2="387.403"/>
          <path class="cls-3" d="M196.037,200.483c0-13.91,9.77-30.83,21.82-37.78"/>
          <path class="cls-3" d="M220.227,166.803c-10.74,6.2-19.45,21.28-19.45,33.68"/>
          <line class="cls-3" x1="217.857" y1="162.703" x2="379.737" y2="69.243"/>
          <line class="cls-3" x1="382.107" y1="73.343" x2="220.227" y2="166.803"/>
          <line class="cls-3" x1="401.547" y1="81.833" x2="401.547" y2="84.573"/>
          <path class="cls-3" d="M395.157,67.713c3.95,2.27,6.39,7.16,6.39,14.12"/>
          <path class="cls-3" d="M379.737,69.243c5.91-3.41,11.26-3.8,15.19-1.66"/>
          <path class="cls-3" d="M401.547,84.573c0-12.4-8.7-17.43-19.44-11.23"/>
          <line class="cls-3" x1="401.547" y1="211.333" x2="401.547" y2="84.573"/>
          <line class="cls-4" x1="217.857" y1="400.003" x2="219.647" y2="398.963"/>
          <line class="cls-4" x1="220.227" y1="398.633" x2="330.007" y2="335.253"/>
          <path class="cls-4" d="M200.777,387.403c0,12.17,8.4,17.24,18.87,11.56.19-.11.38-.22.58-.33"/>
          <path class="cls-4" d="M219.717,369.513c1.71-1.12,3.45-1.43,4.75-.68,2.41,1.38,2.41,5.88,0,10.04-2.4,4.16-6.29,6.4-8.69,5.02-1.29-.75-1.88-2.38-1.78-4.39.07-1.73.67-3.72,1.78-5.65,1.1-1.9,2.51-3.41,3.94-4.34Z"/>
          <path class="cls-3" d="M381.817,88.763c1.7-1.11,3.44-1.42,4.74-.67,2.4,1.38,2.4,5.88,0,10.04s-6.3,6.4-8.7,5.02c-1.3-.75-1.9-2.42-1.78-4.46.09-1.71.68-3.68,1.78-5.58s2.5-3.4,3.94-4.34"/>
          <path class="cls-3" d="M219.717,182.353c1.71-1.12,3.45-1.43,4.75-.68,2.41,1.38,2.41,5.88,0,10.04-2.4,4.16-6.29,6.4-8.69,5.02-1.29-.75-1.88-2.38-1.78-4.39.07-1.73.67-3.72,1.78-5.65,1.1-1.9,2.51-3.41,3.94-4.34Z"/>
          <path class="cls-4" d="M210.557,213.943c2.62-1.62,5.26-2.03,7.26-.88,3.86,2.23,3.86,9.45,0,16.14-3.86,6.68-10.11,10.29-13.97,8.07-2.03-1.17-3-3.74-2.89-6.87.04-1.09.2-2.24.5-3.43.04-.16.08-.32.13-.48.1-.39.22-.79.36-1.19.47-1.38,1.1-2.79,1.9-4.17.28-.49.57-.96.89-1.41.72-1.09,1.51-2.07,2.34-2.94.21-.23.43-.44.64-.64.92-.89,1.88-1.63,2.84-2.2Z"/>
          <path class="cls-3" d="M352.587,91.173c.92-.89,1.88-1.64,2.84-2.21,2.62-1.61,5.26-2.03,7.26-.87,3.86,2.23,3.86,9.45,0,16.13-3.85,6.69-10.11,10.3-13.97,8.07-2.03-1.17-3-3.73-2.88-6.87.04-1.08.2-2.23.49-3.42.04-.16.08-.32.13-.48.1-.39.23-.79.36-1.19.47-1.38,1.1-2.79,1.9-4.17.28-.49.58-.96.89-1.42"/>
          <path class="cls-3" d="M349.617,94.743c.71-1.08,1.5-2.07,2.33-2.94l.63-.63"/>
          <path class="cls-4" d="M240.537,366.333c.71-1.08,1.51-2.06,2.33-2.93.21-.23.43-.44.64-.64.88-.85,1.8-1.57,2.72-2.14"/>
          <path class="cls-4" d="M246.297,360.593c2.64-1.64,5.31-2.07,7.32-.91,3.85,2.23,3.85,9.45,0,16.14-3.86,6.68-10.12,10.29-13.98,8.06-2.03-1.17-3-3.73-2.88-6.86.04-1.09.2-2.24.5-3.43.03-.16.07-.32.12-.48.1-.39.23-.79.36-1.19.47-1.38,1.1-2.79,1.9-4.17.28-.49.58-.96.89-1.42"/>
          <path class="cls-4" d="M213.987,379.433c0,.02,0,.05.01.07.24,3.23,2.79,4.29,5.72,2.35,2.95-1.95,5.17-6.19,4.96-9.48-.19-2.96-2.3-4.18-4.96-2.86"/>
          <path class="cls-4" d="M247.377,360.093c-.35.14-.71.3-1.08.5-.02.01-.05.02-.07.03"/>
          <path class="cls-4" d="M236.887,378.283c.03.21.06.41.11.61.99,4.21,4.81,5.47,9.23,2.7,5.01-3.14,8.9-10.28,8.69-15.95-.17-4.65-3.08-6.91-6.95-5.75-.19.06-.38.13-.58.2"/>
          <path class="cls-4" d="M236.757,377.023c.02.44.06.86.12,1.26"/>
          <path class="cls-3" d="M376.077,98.693c.21,3.28,2.77,4.37,5.72,2.42s5.18-6.19,4.97-9.48c-.19-2.95-2.3-4.17-4.95-2.87-.01,0-.01.01-.02.01"/>
          <path class="cls-3" d="M346.087,107.303c.99,4.21,4.8,5.46,9.21,2.7,5.02-3.15,8.91-10.29,8.7-15.96-.17-4.65-3.07-6.9-6.95-5.75-.19.06-.39.13-.59.2-.33.13-.68.28-1.03.47-.04.01-.09.04-.13.06"/>
          <path class="cls-3" d="M345.967,106.683c.03.21.07.42.11.62"/>
          <path class="cls-3" d="M345.837,105.423c.02.44.06.86.12,1.26"/>
          <path class="cls-3" d="M213.987,192.273c0,.02,0,.05.01.07.24,3.23,2.79,4.29,5.72,2.35,2.95-1.95,5.17-6.19,4.96-9.48-.19-2.96-2.3-4.18-4.96-2.86"/>
          <path class="cls-4" d="M201.087,231.663c.03.21.07.41.12.61.99,4.21,4.81,5.47,9.22,2.7,5.02-3.14,8.91-10.28,8.7-15.95-.18-4.65-3.08-6.91-6.95-5.75-.2.06-.4.13-.6.21-.33.12-.67.27-1.02.46-.04.01-.09.04-.13.06"/>
          <path class="cls-4" d="M200.957,230.403c.02.44.06.86.12,1.26"/>
          <path class="cls-4" d="M243.817,344.863c6.56,3.79,14.15,5.77,22.37,5.85,8.32.09,17.27-1.75,26.41-5.4,9.06-3.62,18.3-9.01,27.3-15.9"/>
          <path class="cls-3" d="M391.437,205.493c.21-1.6.39-3.2.54-4.78,1.09-11.3.68-21.97-1.22-31.45-1.89-9.47-5.28-17.77-10.01-24.47-3.83-5.41-8.54-9.77-13.97-12.9"/>
          <line class="cls-4" x1="243.817" y1="344.863" x2="239.687" y2="342.473"/>
          <line class="cls-3" x1="366.777" y1="131.893" x2="362.647" y2="129.503"/>
          <line class="cls-4" x1="202.427" y1="401.533" x2="186.307" y2="392.223"/>
          <polyline class="cls-3" points="395.157 67.713 394.927 67.583 379.037 58.403"/>
          <path class="cls-3" d="M343.897,173.093c.01.01.03.01.04.02.44.19.87.39,1.29.6.47.23.93.48,1.38.74"/>
          <path class="cls-4" d="M269.237,305.273c-.39-.27-.78-.54-1.16-.83q-.01,0-.02-.01"/>
          <path class="cls-4" d="M270.587,306.103c-.44-.25-.88-.52-1.31-.81"/>
          <path class="cls-3" d="M285.157,314.513c-4.14-2.51-7.59-6.22-10.16-11.02-12.66-23.69-1.16-67.32,25.69-97.44,20.64-23.16,44.35-31.6,59.96-23.49.15.07.29.15.44.23,1.52.83,2.96,1.82,4.31,2.97,2.65,2.25,4.95,5.13,6.83,8.64"/>
          <path class="cls-3" d="M300.687,318.323c-3.9.13-7.53-.41-10.84-1.59-1.48-.53-2.9-1.18-4.24-1.96"/>
          <path class="cls-1" d="M423.987,219.123c-20.91-11.98-54.75,7.47-75.75,43.62-21.09,36.3-21.26,75.69-.36,87.98.05.04.11.07.18.1.06.04.12.08.18.11"/>
          <path class="cls-1" d="M424.247,219.273c-.06-.04-.12-.07-.18-.1"/>
          <path class="cls-3" d="M378.217,219.253c8.08-4.79,16.17-7.5,23.62-7.75,5.47-.19,10.59.95,15.11,3.56"/>
          <path class="cls-3" d="M340.937,346.723c-4.52-2.61-8.06-6.47-10.63-11.3-3.41-6.38-5.11-14.45-5.11-23.5,0-15.88,5.25-34.8,15.74-52.97,10.23-17.72,23.56-31.47,36.96-39.51"/>
          <path class="cls-4" d="M325.197,308.273c0-32.26,22.65-71.49,50.59-87.62"/>
          <path class="cls-3" d="M291.007,312.733c-19.76-11.41-19.76-48.39,0-82.61,19.75-34.22,51.78-52.71,71.54-41.3"/>
          <polyline class="cls-4" points="285.157 314.513 285.097 314.483 281.557 312.443 275.237 308.793 270.587 306.103"/>
          <line class="cls-3" x1="285.607" y1="314.773" x2="285.157" y2="314.513"/>
          <polyline class="cls-3" points="361.617 183.123 361.107 182.823 360.647 182.563 357.567 180.783 351.247 177.133 346.607 174.453"/>
          <polyline class="cls-4" points="348.057 350.833 347.877 350.723 340.937 346.723"/>
          <polyline class="cls-4" points="424.067 219.173 423.987 219.123 416.947 215.063"/>
          <polyline class="cls-4" points="330.327 335.433 330.307 335.423 330.007 335.253 319.897 329.413 319.787 329.343 300.687 318.323 291.007 312.733"/>
          <polyline class="cls-3" points="401.877 211.523 401.837 211.503 401.547 211.333 391.437 205.493 391.327 205.433 372.227 194.403 362.547 188.823"/>
          <line class="cls-4" x1="378.217" y1="219.253" x2="378.947" y2="218.833"/>
          <line class="cls-3" x1="377.897" y1="219.443" x2="378.217" y2="219.253"/>
          <line class="cls-4" x1="375.787" y1="220.653" x2="377.897" y2="219.443"/>
          <line class="cls-4" x1="325.197" y1="308.273" x2="325.197" y2="311.923"/>
          <path class="cls-1" d="M353.837,317.713c0-2.02,1.44-4.48,3.2-5.5"/>
          <path class="cls-1" d="M364.847,322.323c0-1.29,1.29-2.55,3.39-3.3"/>
          <line class="cls-1" x1="359.737" y1="310.653" x2="357.037" y2="312.213"/>
          <path class="cls-1" d="M367.117,299.383c-1.43-.63-2.27-1.57-2.27-2.61"/>
          <path class="cls-1" d="M368.237,299.763c-.37-.1-.72-.22-1.04-.35"/>
          <path class="cls-1" d="M354.937,294.273c-.7-.29-1.1-1.07-1.1-2.12"/>
          <line class="cls-1" x1="364.847" y1="294.943" x2="364.847" y2="296.773"/>
          <line class="cls-1" x1="364.847" y1="322.323" x2="364.847" y2="360.663"/>
          <line class="cls-1" x1="353.837" y1="317.713" x2="353.837" y2="292.153"/>
          <path class="cls-1" d="M348.927,295.013c.95-1.26,2-2.5,3.14-3.73.38-.4.77-.81,1.17-1.21"/>
          <path class="cls-1" d="M353.237,355.793c-.52-.96-1.02-1.91-1.5-2.84-.86-1.66-1.67-3.28-2.41-4.87-.14-.29-.27-.57-.4-.85"/>
          <path class="cls-1" d="M373.047,376.533c.3.12.61.24.93.34"/>
          <path class="cls-1" d="M364.847,360.663c0,4.49.99,8.41,2.85,11.29,1.14,1.76,2.59,3.14,4.3,4.08.29.16.59.3.9.44"/>
          <path class="cls-1" d="M388.837,253.693c-3.82,2.21-7.64,5.47-11.05,9.46-2.12,2.48-4.08,5.24-5.79,8.15s-3.16,5.97-4.3,9.05c-.93,2.52-1.64,5.04-2.12,7.5s-.73,4.85-.73,7.09"/>
          <path class="cls-1" d="M454.607,225.563c-.5-.4-1.02-.74-1.58-1.04-1.71-.94-3.68-1.43-5.8-1.46-1.74-.03-3.59.26-5.5.84-1.82.55-3.69,1.38-5.56,2.46"/>
          <path class="cls-1" d="M455.077,225.963c-.14-.13-.29-.25-.43-.37"/>
          <line class="cls-1" x1="435.917" y1="226.513" x2="389.087" y2="253.553"/>
          <path class="cls-1" d="M436.167,226.363c-.04.03-.08.05-.12.08-.04.02-.09.04-.13.07"/>
          <path class="cls-1" d="M389.087,253.553c-.04.02-.08.05-.13.07-.04.02-.08.05-.12.07"/>
          <path class="cls-1" d="M353.237,355.793c.59,1.08,1.19,2.15,1.81,3.2,1.45,2.47,2.99,4.83,4.57,6.94,1.59,2.11,3.22,3.98,4.84,5.51s3.24,2.71,4.8,3.47c.23.12.45.22.68.32"/>
          <path class="cls-1" d="M379.167,249.643c-.09.36-.19.73-.31,1.11-.55,1.85-1.41,3.95-2.42,6.08-.87,1.81-1.98,3.91-3.23,6.08-1.25,2.16-2.63,4.4-3.95,6.43-1.56,2.4-3.18,4.78-4.8,7.04-1.62,2.27-3.25,4.43-4.84,6.42-1.58,1.99-3.12,3.8-4.57,5.38-.62.67-1.22,1.31-1.81,1.89"/>
          <path class="cls-1" d="M427.157,220.963c.65-.06,1.32-.12,1.99-.18"/>
          <path class="cls-1" d="M395.077,229.113c.25-.14.51-.28.77-.42,5.99-3.12,13.78-5.39,23.68-6.83.78-.11,1.58-.22,2.39-.32,1.69-.22,3.43-.41,5.23-.58"/>
          <path class="cls-1" d="M379.167,249.643c2.24-9,7.26-15.55,15.16-20.11"/>
          <path class="cls-1" d="M452.157,223.613c-.51-.4-1.1-.77-1.78-1.1-1.21-.58-2.81-1.09-4.69-1.45-1.89-.35-4.07-.55-6.22-.62-2.52-.09-5.45-.01-8.45.2-.62.04-1.25.09-1.87.14"/>
          <path class="cls-1" d="M342.157,319.893c0-.6.01-1.21.03-1.81.82-32.92,23.84-72.21,52.14-88.55"/>
          <path class="cls-1" d="M342.157,319.893c0-.6.01-1.2.03-1.81.06-1.82.21-3.69.46-5.56.34-2.5.87-5.01,1.57-7.39.69-2.39,1.57-4.66,2.59-6.66.51-1,1.05-1.93,1.62-2.77.16-.23.33-.46.5-.69"/>
          <path class="cls-1" d="M346.807,342.373c-1.02-2.51-1.9-5.02-2.59-7.54-.7-2.53-1.23-5.06-1.57-7.57-.33-2.5-.49-4.99-.49-7.37"/>
          <path class="cls-1" d="M348.927,347.233c-.17-.36-.34-.73-.5-1.09-.53-1.18-1.04-2.34-1.52-3.52"/>
          <path class="cls-1" d="M394.327,229.533c.25-.14.5-.29.75-.42.26-.15.52-.29.77-.42,5.85-3.19,11.62-5.19,17.09-5.94"/>
          <path class="cls-1" d="M349.327,348.083c-13.67-13.29-13.79-42.21-.3-71.32,16.98-36.68,49.62-61.41,72.89-55.23"/>
          <path class="cls-1" d="M351.737,352.953c-.05-.03-.11-.06-.16-.09-20.81-12.01-21.03-50.8-.43-87.02,20.74-36.49,54.77-56.59,76-44.88"/>
          <path class="cls-1" d="M348.417,351.033c-.12-.07-.24-.14-.36-.22-20.63-12.35-20.51-51.4.36-87.55,20.93-36.25,54.83-55.89,75.83-43.98.06.03.12.07.18.1"/>
          <path class="cls-1" d="M345.587,339.403c-2.27-5.55-3.43-12.16-3.43-19.51"/>
          <polyline class="cls-1" points="354.937 294.273 358.147 295.613 367.117 299.383 367.197 299.413"/>
          <polyline class="cls-1" points="369.937 375.233 372.897 376.473 373.047 376.533"/>
          <polyline class="cls-1" points="452.157 223.613 454.607 225.563 454.647 225.593"/>
          <polyline class="cls-1" points="412.937 222.753 419.527 221.853 420.617 221.703"/>
          <line class="cls-1" x1="351.577" y1="352.863" x2="348.417" y2="351.033"/>
          <polyline class="cls-1" points="427.157 220.963 427.147 220.963 424.427 219.383"/>
          <polyline class="cls-1" points="345.587 339.403 346.807 342.373 346.907 342.623"/>
          <path class="cls-1" d="M455.187,344.083c-1.71.98-3.35,1.3-4.72.91h-.01"/>
          <path class="cls-1" d="M463.087,330.383c0,5.05-3.54,11.18-7.9,13.7"/>
          <line class="cls-1" x1="463.087" y1="316.693" x2="463.087" y2="330.383"/>
          <line class="cls-1" x1="450.507" y1="346.783" x2="455.187" y2="344.083"/>
          <path class="cls-1" d="M470.827,317.513c-.78,1.35-2.05,2.08-2.83,1.63s-.78-1.91,0-3.26,2.05-2.08,2.83-1.63.78,1.91,0,3.26Z"/>
          <line class="cls-1" x1="455.187" y1="344.083" x2="464.407" y2="338.753"/>
          <path class="cls-1" d="M464.407,338.753c1.05-.61,2.08-1.6,2.91-2.83"/>
          <path class="cls-1" d="M474.477,308.833c1.65,7.66-1.14,18.2-7.16,27.09"/>
          <path class="cls-1" d="M467.567,340.583c.92-.53,1.82-1.37,2.59-2.38"/>
          <line class="cls-1" x1="467.567" y1="340.583" x2="451.017" y2="350.133"/>
          <path class="cls-1" d="M470.477,337.753c-.1.15-.21.3-.32.45-5.31,7.66-12.27,12.88-18.53,13.87"/>
          <path class="cls-1" d="M423.057,319.393c-.7,10.93-.48,21.9.68,32.79"/>
          <path class="cls-1" d="M423.807,352.173l.03.06"/>
          <path class="cls-1" d="M412.447,346.713c1.74,1.05,3.53,2.03,5.36,2.92,1.66.82,3.36,1.56,5.09,2.24.28.11.56.22.84.32.03.01.07.03.1.04"/>
          <path class="cls-1" d="M411.857,346.253c.19.15.39.3.6.45"/>
          <path class="cls-1" d="M406.727,340.953c1.44,2.01,3.17,3.79,5.13,5.3"/>
          <path class="cls-1" d="M406.017,339.953c.24.34.47.67.71,1"/>
          <path class="cls-1" d="M400.797,307.333c-.48.52-.95,1.03-1.39,1.52-.53.6-1.03,1.17-1.5,1.72-.44.52-.85,1.03-1.22,1.53-.17.23-.34.46-.5.68-.26.38-.55.81-.81,1.27-.26.47-.5.97-.67,1.51-.14.46-.22.95-.22,1.45-.01.62.06,1.19.33,2.13.16.59.42,1.34.82,2.31.45,1.12,1.04,2.4,1.74,3.82.43.87.86,1.71,1.3,2.54.82,1.53,1.64,3.01,2.46,4.43,1.26,2.16,2.53,4.22,3.72,6.01.4.59.79,1.16,1.16,1.7"/>
          <path class="cls-1" d="M407.357,345.013c-.66-.29-1.29-.61-1.9-.96-2.95-1.67-7.19-4.9-10.27-10.9-1.79-3.47-3.35-8.03-4.01-12.91-.38-2.8-.49-5.91-.08-9.17.33-2.58.97-5.2,2.02-7.91"/>
          <path class="cls-1" d="M393.117,303.163c.66-1.7,1.45-3.36,2.37-4.98.93-1.66,1.98-3.25,3.09-4.77,2.32-3.16,5-6.07,7.65-8.63,3.95-3.8,9.6-8.5,15.76-12.06"/>
          <path class="cls-1" d="M401.087,307.013c-.05.06-.1.11-.15.16-.05.06-.1.11-.14.16"/>
          <path class="cls-1" d="M406.267,300.953c-1.61,2.12-3.35,4.14-5.19,6.06"/>
          <path class="cls-1" d="M406.747,300.273c-.16.23-.32.45-.48.68"/>
          <path class="cls-1" d="M412.167,293.553c-1.97,2.1-3.78,4.35-5.42,6.72"/>
          <path class="cls-1" d="M412.477,293.223c-.05.05-.1.11-.16.16-.05.06-.1.12-.15.17"/>
          <path class="cls-1" d="M423.937,295.603v-.36c-.03-.79-.28-1.54-.74-2.2-.41-.6-1-1.12-1.73-1.51-.49-.27-1.05-.47-1.64-.6-.61-.13-1.26-.19-1.92-.16-.87.03-1.74.21-2.55.53-1.12.43-2.11,1.1-2.88,1.92"/>
          <path class="cls-1" d="M423.917,295.883c.01-.04.01-.09.01-.14,0-.04,0-.09.01-.14"/>
          <path class="cls-1" d="M423.927,295.883c-.35,7.67-.65,15.34-.93,23.01"/>
          <path class="cls-1" d="M422.987,319.383c0-.08.01-.16.01-.24s0-.16.01-.25"/>
          <path class="cls-1" d="M450.457,345.593c-.08,6.22,1.93,11.26,6.01,13.62,8.02,4.63,21.03-2.88,29.06-16.78,8.02-13.91,8.02-28.93,0-33.56-4.12-2.38-9.54-1.56-14.93,1.67-2.56,1.53-5.11,3.61-7.51,6.15-2.41,2.55-4.66,5.56-6.62,8.96-3.82,6.61-5.82,13.47-6,19.34-.01.2-.02.4-.01.6Z"/>
          <path class="cls-1" d="M375.187,377.683c-.42-.24-.82-.51-1.2-.82-3.7-2.8-5.75-7.95-5.75-14.53"/>
          <line class="cls-1" x1="368.237" y1="296.613" x2="368.237" y2="294.793"/>
          <polyline class="cls-1" points="368.237 362.333 368.237 319.023 368.237 312.923 368.237 309.293 368.237 308.803 368.237 303.433 368.237 303.143 368.237 302.193 368.237 299.763 368.237 296.613"/>
          <line class="cls-1" x1="391.947" y1="255.543" x2="390.367" y2="256.463"/>
          <path class="cls-1" d="M390.367,256.463c-12.22,7.05-22.13,24.22-22.13,38.33"/>
          <path class="cls-1" d="M368.237,296.613c0-15.12,10.62-33.51,23.71-41.07"/>
          <line class="cls-1" x1="391.947" y1="255.543" x2="439.377" y2="228.163"/>
          <path class="cls-1" d="M439.377,228.163c5.8-3.35,11.38-4.12,15.7-2.2l.01.01c.36.15.72.33,1.06.53"/>
          <line class="cls-1" x1="442.537" y1="229.993" x2="395.117" y2="257.373"/>
          <path class="cls-1" d="M395.117,257.373c-13.1,7.56-23.72,25.95-23.72,41.07"/>
          <line class="cls-1" x1="371.397" y1="298.443" x2="371.397" y2="364.153"/>
          <path class="cls-1" d="M378.347,379.513c4.29,2.48,10.22,2.12,16.77-1.66"/>
          <path class="cls-1" d="M371.397,364.153c0,7.38,2.53,12.62,6.63,15.17"/>
          <path class="cls-1" d="M415.877,268.513c-2.56-2.11-2.39-7.52.52-12.54,2.9-5.03,7.5-7.88,10.6-6.73"/>
          <path class="cls-1" d="M427.007,249.253c.2.06.39.15.57.26,3.09,1.79,3.09,7.56,0,12.91s-8.09,8.24-11.18,6.45c-.18-.1-.35-.22-.51-.36"/>
          <path class="cls-1" d="M392.097,339.233c.2.06.39.15.57.26,3.09,1.78,3.09,7.56,0,12.91s-8.09,8.23-11.18,6.45c-.18-.1-.35-.22-.5-.35-2.58-2.1-2.41-7.52.5-12.56,2.9-5.02,7.5-7.87,10.6-6.72"/>
          <line class="cls-1" x1="398.277" y1="262.843" x2="445.697" y2="235.463"/>
          <line class="cls-1" x1="466.247" y1="247.333" x2="466.247" y2="243.683"/>
          <path class="cls-1" d="M459.047,228.183c-4.27-2.31-10.09-1.9-16.51,1.81"/>
          <path class="cls-1" d="M466.247,243.683c0-7.56-2.65-12.87-6.94-15.35"/>
          <path class="cls-1" d="M445.697,235.463c11.35-6.55,20.55-1.24,20.55,11.87"/>
          <line class="cls-1" x1="466.247" y1="247.333" x2="466.247" y2="282.003"/>
          <line class="cls-1" x1="398.277" y1="376.023" x2="395.117" y2="377.853"/>
          <line class="cls-1" x1="432.617" y1="356.193" x2="398.277" y2="376.023"/>
          <path class="cls-1" d="M398.277,376.023c-11.35,6.55-20.55,1.24-20.55-11.87"/>
          <line class="cls-1" x1="377.727" y1="364.153" x2="377.727" y2="298.443"/>
          <path class="cls-1" d="M377.727,298.443c0-13.11,9.2-29.04,20.55-35.6"/>
          <path class="cls-1" d="M421.987,272.723c6.64-3.83,13.13-5.91,17.88-6.46,2.45-.29,4.88-.22,6.94.51.79.29,1.52.66,2.18,1.14"/>
          <path class="cls-1" d="M458.147,276.393c.12.31.17.65.17,1.01"/>
          <path class="cls-1" d="M455.367,274.333c.24.08.47.17.68.26.35.15.67.31.94.48.3.19.55.39.74.61.15.18.27.36.36.57"/>
          <path class="cls-1" d="M456.657,273.513c-.04-.03-.09-.07-.14-.1-.24-.15-.52-.29-.84-.42-.19-.08-.39-.15-.6-.22"/>
          <path class="cls-1" d="M457.387,274.423c-.06-.16-.15-.32-.26-.46-.12-.16-.27-.3-.46-.45"/>
          <path class="cls-1" d="M458.137,276.373q.01.01.01.02"/>
          <path class="cls-1" d="M449.657,273.733c1.75-.18,3.52-.03,5.23.43h.01"/>
          <path class="cls-1" d="M449.207,272.173c1.82-.19,3.66-.04,5.42.45"/>
          <path class="cls-1" d="M454.887,274.173c.17.05.33.1.48.16"/>
          <path class="cls-1" d="M454.627,272.623l.45.15"/>
          <path class="cls-1" d="M448.517,275.993l-.05-.05c-.22-.29-.37-.57-.42-.83-.09-.42.04-.77.37-1.01.23-.16.55-.28.94-.34"/>
          <path class="cls-1" d="M448.897,272.193c-.53.05-.97.18-1.3.38-.48.3-.72.75-.64,1.3.05.35.22.72.51,1.1.25.33.58.66.99.98.02.01.04.03.06.04.54.42,1.19.8,1.9,1.15.84.4,1.77.73,2.7.98.26.07.52.13.77.19"/>
          <path class="cls-1" d="M449.657,273.733l-.3.03"/>
          <path class="cls-1" d="M449.207,272.173c-.11,0-.21.01-.31.02"/>
          <path class="cls-1" d="M454.227,278.393c1.36.31,2.73.64,4.09,1.01.6.16,1.2.33,1.79.5,2.06.61,4.08,1.28,5.99,2.04l.15.06c1.93.77,3.82,1.65,5.55,2.69.65.39,1.28.8,1.88,1.24"/>
          <path class="cls-1" d="M453.887,278.313c.06.01.11.03.17.04s.11.02.17.04"/>
          <path class="cls-1" d="M408.257,340.483c1.42,1.97,3.11,3.72,5.04,5.2"/>
          <path class="cls-1" d="M422.807,350.633c-.02.03-.06.04-.12.04s-.14-.01-.23-.03c-.2-.04-.48-.13-.83-.26-.33-.12-.74-.29-1.18-.49-.3-.14-.62-.3-.96-.46-.33-.16-.67-.34-1.02-.52-.57-.31-1.2-.65-1.79-1-.44-.25-.87-.51-1.26-.76-.55-.35-1.05-.68-1.49-1"/>
          <path class="cls-1" d="M413.297,345.683c.21.16.42.32.63.47"/>
          <path class="cls-1" d="M422.157,319.343c-.56,10.41-.35,20.85.61,31.24"/>
          <path class="cls-1" d="M422.827,350.573c.01.01.01.02.01.03-.01.02-.02.02-.03.03"/>
          <path class="cls-1" d="M422.837,296.643c-.33,7.42-.57,14.83-.74,22.25"/>
          <path class="cls-1" d="M422.097,318.893v.22c-.01.08-.01.15-.01.23"/>
          <path class="cls-1" d="M413.607,294.403c.68-.64,1.5-1.14,2.39-1.46.65-.23,1.32-.36,1.99-.38.5-.02,1,.03,1.47.13.45.1.88.26,1.27.46.57.3,1.04.7,1.39,1.16.39.52.63,1.12.7,1.76.01.1.01.19.02.29"/>
          <path class="cls-1" d="M422.837,296.363c0,.1,0,.19-.01.28"/>
          <path class="cls-1" d="M413.297,294.723c-1.91,2.03-3.66,4.2-5.24,6.49"/>
          <path class="cls-1" d="M413.607,294.403c-.1.1-.21.21-.31.32"/>
          <path class="cls-1" d="M407.577,301.923c-1.54,2.23-3.21,4.36-5.01,6.39"/>
          <path class="cls-1" d="M408.057,301.213c-.16.23-.32.47-.48.71"/>
          <path class="cls-1" d="M407.577,339.493c-.35-.53-.71-1.08-1.09-1.66-1.12-1.75-2.35-3.76-3.59-5.88-.81-1.39-1.63-2.84-2.45-4.35-.44-.81-.88-1.64-1.31-2.49-.72-1.39-1.31-2.64-1.76-3.7-.39-.92-.63-1.58-.78-2.08-.23-.79-.27-1.17-.26-1.59,0-.35.06-.69.17-1.04.13-.43.34-.87.58-1.3s.51-.85.76-1.21c.15-.23.31-.45.48-.68.36-.49.75-1,1.18-1.54.45-.56.93-1.14,1.45-1.75.43-.51.87-1.03,1.34-1.58"/>
          <path class="cls-1" d="M402.297,308.643c.04-.05.09-.11.14-.16.04-.06.09-.11.14-.17"/>
          <path class="cls-1" d="M407.577,339.493c.22.33.45.66.68.99"/>
          <path class="cls-1" d="M470.597,310.543c1.33-.74,2.63-1.3,3.88-1.71,8.74-2.82,15.3,2.28,15.48,12.89.22,12.48-8.45,27.9-19.36,34.45-8.69,5.22-16.18,3.23-18.98-4.1-.23-.61-.44-1.26-.6-1.94-.25-1.04-.43-2.15-.51-3.35-.03-.39-.05-.78-.05-1.19-.01-.05-.01-.1-.01-.15"/>
          <path class="cls-1" d="M473.667,359.873c.02,0,.03.01.04.02"/>
          <path class="cls-1" d="M473.707,359.893c.29.15.62.26.95.32.33.05.66.06.97.01.31-.04.6-.14.87-.26.26-.12.49-.27.7-.44.2-.17.38-.36.53-.56"/>
          <path class="cls-1" d="M461.287,368.063c.24.03.5.03.75,0,.26-.03.53-.1.77-.2.24-.11.46-.24.65-.39.19-.14.35-.3.48-.46s.24-.33.33-.48"/>
          <path class="cls-1" d="M494.137,301.463c.7,1,1.21,2.15,1.53,3.33.36,1.31.53,2.66.58,4.04.09,2.25-.1,4.57-.42,6.92-.57,4.03-1.53,8.19-2.76,12.33-1.93,6.51-4.73,13.15-8.1,19.4-2.14,3.99-4.52,7.94-7.24,11.48"/>
          <path class="cls-1" d="M461.287,368.063c-1.86-.22-3.57-.76-5.14-1.46"/>
          <path class="cls-1" d="M492.087,299.373c.78.57,1.69,1.58,2.05,2.09"/>
          <path class="cls-1" d="M472.967,359.483c-.16.06-.34.13-.53.21-.4.18-.86.41-1.34.68-.72.4-1.5.88-2.28,1.43-1.06.74-2.15,1.63-3.09,2.7-.54.61-1.05,1.3-1.46,2.03"/>
          <path class="cls-1" d="M473.687,359.293s-.04,0-.11.02c-.09.01-.23.05-.39.1-.07.02-.14.04-.21.07"/>
          <polyline class="cls-1" points="456.147 366.603 432.617 356.193 422.887 351.883"/>
          <polyline class="cls-1" points="419.807 350.523 417.807 349.633 407.357 345.013"/>
          <path class="cls-1" d="M473.667,359.873l-.69-.39h-.01"/>
          <polyline class="cls-1" points="378.347 379.513 378.027 379.323 375.187 377.683"/>
          <polyline class="cls-1" points="459.307 228.333 459.047 228.183 456.147 226.503"/>
          <path class="cls-1" d="M457.387,274.423c.11.27.21.55.32.82"/>
          <path class="cls-1" d="M457.707,275.243c.13.34.26.67.38,1.01l.01.01c.01.04.03.07.04.11"/>
          <line class="cls-1" x1="458.317" y1="277.403" x2="458.317" y2="279.403"/>
          <line class="cls-1" x1="473.677" y1="285.933" x2="492.087" y2="299.373"/>
          <polyline class="cls-1" points="448.987 267.913 456.657 273.513 456.667 273.513"/>
          <polyline class="cls-1" points="383.597 348.323 384.867 346.743 385.967 345.373"/>
          <path class="cls-1" d="M392.087,339.223l.01.01c2.37,1.99,2.37,6.82-.01,11.56-2.76,5.47-7.72,8.92-11.1,7.71-.01,0-.02-.01-.03-.01"/>
          <line class="cls-1" x1="385.967" y1="345.373" x2="388.337" y2="345.583"/>
          <line class="cls-1" x1="388.337" y1="345.583" x2="388.337" y2="348.743"/>
          <line class="cls-1" x1="388.337" y1="348.743" x2="385.967" y2="351.693"/>
          <line class="cls-1" x1="385.967" y1="351.693" x2="383.597" y2="351.483"/>
          <polyline class="cls-1" points="383.597 351.483 383.597 350.333 383.597 348.323"/>
          <line class="cls-1" x1="388.337" y1="348.743" x2="384.867" y2="346.743"/>
          <line class="cls-1" x1="385.967" y1="351.693" x2="383.597" y2="350.333"/>
          <polyline class="cls-1" points="418.507 258.343 419.777 256.763 420.877 255.393"/>
          <path class="cls-1" d="M426.997,249.243l.01.01c2.37,1.99,2.37,6.83-.01,11.56-2.77,5.48-7.74,8.93-11.11,7.7h-.01"/>
          <line class="cls-1" x1="420.877" y1="255.393" x2="423.257" y2="255.613"/>
          <line class="cls-1" x1="423.257" y1="255.613" x2="423.257" y2="258.773"/>
          <line class="cls-1" x1="423.257" y1="258.773" x2="420.877" y2="261.723"/>
          <line class="cls-1" x1="420.877" y1="261.723" x2="418.507" y2="261.513"/>
          <polyline class="cls-1" points="418.507 261.513 418.507 260.353 418.507 258.343"/>
          <line class="cls-1" x1="423.257" y1="258.773" x2="419.777" y2="256.763"/>
          <line class="cls-1" x1="420.877" y1="261.723" x2="418.507" y2="260.353"/>
          <path class="cls-3" d="M354.577,97.613c-.8-2.3-.8-3.89,0-5.27"/>
          <path class="cls-3" d="M350.617,102.523c.59-2.17,1.78-3.66,3.96-4.91"/>
          <path class="cls-3" d="M346.667,102.173c.58-.34,1.78-.23,3.95.35"/>
          <path class="cls-3" d="M346.667,102.173c-.08-.23-.15-.45-.21-.65"/>
          <path class="cls-3" d="M354.577,92.343c-1.17-.31-2.01-.48-2.63-.54"/>
          <path class="cls-3" d="M346.327,101.993v.01c.91,2.43,3.7,2.37,6.25-.14,2.56-2.51,3.91-6.52,3.02-8.95-.5-1.35-1.6-1.99-3.01-1.74h-.01"/>
          <path class="cls-3" d="M356.457,88.503c1.29.89,1.93,2.59,1.93,4.66s-.64,4.52-1.93,6.9c-1.47,2.7-3.47,4.8-5.49,5.96-1.78,1.04-3.58,1.34-5,.66h-.01"/>
          <path class="cls-3" d="M357.047,88.303c.88,1,1.35,2.5,1.35,4.31"/>
          <path class="cls-3" d="M350.487,106.303c-1.57.91-3.09,1.26-4.4,1h-.01"/>
          <line class="cls-3" x1="346.817" y1="100.333" x2="350.617" y2="102.523"/>
          <polyline class="cls-3" points="349.607 94.743 349.617 94.743 354.577 97.613"/>
          <line class="cls-3" x1="350.967" y1="106.033" x2="350.487" y2="106.303"/>
          <line class="cls-3" x1="358.397" y1="93.163" x2="358.397" y2="92.613"/>
          <path class="cls-4" d="M209.697,222.583c-.79-2.3-.79-3.89,0-5.27"/>
          <path class="cls-4" d="M205.747,227.503c.58-2.18,1.78-3.66,3.95-4.92"/>
          <path class="cls-4" d="M201.797,227.153c.58-.34,1.77-.23,3.95.35"/>
          <path class="cls-4" d="M201.797,227.153c-.08-.23-.15-.45-.21-.66"/>
          <path class="cls-4" d="M209.697,217.313c-1.16-.31-2.01-.48-2.62-.53"/>
          <path class="cls-4" d="M201.457,226.973c.89,2.44,3.69,2.38,6.25-.13s3.91-6.52,3.01-8.96c-.49-1.34-1.59-1.98-3-1.74h-.01"/>
          <path class="cls-4" d="M211.577,213.483c1.29.89,1.94,2.59,1.94,4.66s-.65,4.52-1.94,6.9c-1.46,2.7-3.47,4.81-5.49,5.97-1.78,1.03-3.57,1.32-5,.65h-.01"/>
          <path class="cls-4" d="M212.177,213.273c.87,1,1.34,2.51,1.34,4.32"/>
          <path class="cls-4" d="M205.617,231.283c-1.57.91-3.11,1.25-4.41.99"/>
          <line class="cls-4" x1="201.947" y1="225.303" x2="205.747" y2="227.503"/>
          <polyline class="cls-4" points="204.727 219.713 204.737 219.723 209.697 222.583"/>
          <line class="cls-4" x1="206.087" y1="231.013" x2="205.617" y2="231.283"/>
          <line class="cls-4" x1="213.517" y1="218.143" x2="213.517" y2="217.593"/>
          <path class="cls-4" d="M245.497,369.203c-.8-2.3-.8-3.89,0-5.27"/>
          <path class="cls-4" d="M241.537,374.123c.59-2.18,1.78-3.66,3.96-4.92"/>
          <path class="cls-4" d="M237.587,373.763c.59-.33,1.78-.23,3.95.36"/>
          <path class="cls-4" d="M237.587,373.763c-.08-.22-.15-.44-.21-.65"/>
          <path class="cls-4" d="M245.497,363.933c-1.17-.31-2.01-.48-2.63-.53"/>
          <path class="cls-4" d="M237.257,373.593c.89,2.44,3.69,2.38,6.25-.13,2.55-2.51,3.9-6.52,3.01-8.96-.5-1.34-1.6-1.98-3.01-1.74"/>
          <path class="cls-4" d="M247.377,360.093h.01c1.28.9,1.92,2.6,1.92,4.67s-.64,4.52-1.93,6.9c-1.58,2.9-3.79,5.11-5.95,6.21-1.63.83-3.24,1.03-4.54.41h-.01"/>
          <path class="cls-4" d="M247.967,359.893c.88,1,1.35,2.5,1.35,4.32"/>
          <path class="cls-4" d="M241.407,377.903c-1.57.91-3.1,1.25-4.41.99"/>
          <line class="cls-4" x1="237.737" y1="371.923" x2="241.537" y2="374.123"/>
          <polyline class="cls-4" points="240.527 366.333 240.537 366.333 245.497 369.203"/>
          <polyline class="cls-4" points="241.887 377.633 241.437 377.883 241.407 377.903"/>
          <line class="cls-4" x1="249.317" y1="364.763" x2="249.317" y2="364.213"/>
          <line class="cls-1" x1="368.237" y1="309.293" x2="366.077" y2="309.103"/>
          <polyline class="cls-1" points="366.077 309.103 366.077 307.553 366.077 306.123 366.077 304.883"/>
          <polyline class="cls-1" points="366.077 304.883 367.547 303.053 368.237 302.193"/>
          <path class="cls-1" d="M356.587,308.833c-.46-.27-.86-.65-1.17-1.13-1.76-2.76-.54-8.17,2.73-12.09"/>
          <line class="cls-1" x1="368.237" y1="303.433" x2="366.077" y2="306.123"/>
          <line class="cls-1" x1="368.237" y1="303.143" x2="367.547" y2="303.053"/>
          <line class="cls-1" x1="368.237" y1="308.803" x2="366.077" y2="307.553"/>
          <path class="cls-1" d="M368.237,312.923c-.23.1-.46.19-.69.26-.76.25-1.54.36-2.29.27-.55-.07-1.08-.24-1.56-.51"/>
          <polyline class="cls-1" points="363.697 312.943 359.737 310.653 356.587 308.833"/>
          <line class="cls-3" x1="216.407" y1=".863" x2="341.007" y2="72.793"/>
          <line class="cls-3" x1="179.757" y1="217.003" x2="2.637" y2="114.743"/>
          <line class="cls-4" x1="179.757" y1="352.083" x2="6.847" y2="252.253"/>
          <line class="cls-3" x1="209.947" y1="148.643" x2="33.527" y2="46.783"/>
          <line class="cls-3" x1="195.207" y1="158.163" x2="33.527" y2="64.823"/>
          <line class="cls-3" x1="191.797" y1="161.673" x2="32.137" y2="69.493"/>
          <line class="cls-3" x1="182.127" y1="178.433" x2="22.467" y2="86.253"/>
          <line class="cls-3" x1="180.787" y1="183.133" x2="19.117" y2="89.793"/>
          <line class="cls-3" x1="179.917" y1="200.663" x2="3.487" y2="98.813"/>
          <line class="cls-3" x1="224.017" y1="140.343" x2="40.637" y2="34.463"/>
          <path class="cls-4" d="M275.237,308.793c-1.3-.32-2.58-.72-3.79-1.2-.01,0-.01-.01-.02-.01"/>
          <path class="cls-3" d="M348.297,174.433c.01.01.03.02.04.03,1.03.81,1.99,1.7,2.91,2.67"/>
          <path class="cls-3" d="M243.817,344.863c-33.95-19.6-33.95-83.17,0-141.98,33.96-58.81,89.01-90.6,122.96-70.99"/>
          <path class="cls-3" d="M391.327,205.433c7.57-58.75-24.46-91.42-71.55-72.99-47.08,18.44-91.4,81.01-98.97,139.76-7.58,58.75,24.45,91.42,71.54,72.99,9.09-3.56,18.35-8.91,27.44-15.85"/>
          <path class="cls-3" d="M345.227,173.713c-.25-.17-.5-.33-.76-.49h-.01"/>
          <path class="cls-4" d="M268.457,304.863c.01,0,.01.01.02.01.25.14.5.27.76.4.01.01.03.01.04.02"/>
          <line class="cls-4" x1="179.917" y1="378.093" x2="196.037" y2="387.403"/>
          <line class="cls-3" x1="179.917" y1="191.173" x2="196.037" y2="200.483"/>
          <line class="cls-3" x1="196.037" y1="200.483" x2="200.777" y2="200.483"/>
          <line class="cls-4" x1="200.777" y1="387.403" x2="196.037" y2="387.403"/>
          <line class="cls-3" x1="217.857" y1="162.703" x2="220.227" y2="166.803"/>
          <line class="cls-3" x1="379.737" y1="69.243" x2="382.107" y2="73.343"/>
          <line class="cls-3" x1="363.607" y1="59.933" x2="379.737" y2="69.243"/>
          <line class="cls-3" x1="201.727" y1="153.393" x2="217.857" y2="162.703"/>
        </g>
      </g>
    </g>
    <g id="LINE-191" data-name="LINE">
      <path class="cls-9" d="M29.259,44.322C19.589,38.739,9.92,33.156.25,27.573"/>
    </g>
    <g id="LINE-192" data-name="LINE">
      <path class="cls-9" d="M29.259,62.359c-9.66-5.107-19.116-10.59-28.509-16.17"/>
    </g>
    <g id="LINE-193" data-name="LINE">
      <path class="cls-9" d="M27.87,67.033c-8.835-4.764-17.542-9.761-26.196-14.846"/>
    </g>
    <g id="LINE-194" data-name="LINE">
      <path class="cls-9" d="M18.197,83.787c-5.195-2.999-10.39-5.999-15.585-8.998"/>
    </g>
    <g id="LINE-195" data-name="LINE">
      <path class="cls-9" d="M14.844,87.327l-12.198-7.042"/>
    </g>
    <g id="LINE-196" data-name="LINE">
      <path class="cls-3" d="M36.373,32c-7.306-4.957-15.306-7.957-21.85-12.615"/>
    </g>
  </g>
</svg>