<?xml version="1.0" encoding="UTF-8"?>
<svg id="Visible_Narrow" data-name="Visible Narrow" xmlns="http://www.w3.org/2000/svg" xmlns:xlink="http://www.w3.org/1999/xlink" viewBox="0 0 515.9 415.872">
  <defs>
    <style>
      .cls-1 {
        stroke: #000;
        stroke-linecap: round;
        stroke-linejoin: round;
        stroke-width: .75px;
      }

      .cls-1, .cls-2 {
        fill: none;
      }

      .cls-3 {
        fill: #494949;
      }

      .cls-4 {
        fill: #383838;
      }

      .cls-5 {
        fill: #303030;
      }

      .cls-6 {
        fill: #1c1c1c;
      }

      .cls-7 {
        fill: #2b2b2b;
      }

      .cls-8 {
        fill: #232323;
      }

      .cls-9 {
        fill: #565656;
      }

      .cls-10 {
        fill: #3d3d3d;
      }

      .cls-11 {
        clip-path: url(#clippath);
      }
    </style>
    <clipPath id="clippath">
      <path class="cls-2" d="M42.417,415.872h428.846c19.05,0,34.492-16.717,44.637-37.778V66.93c-10.145-20.182-25.588-36.899-44.637-36.899H42.417c-19.05,0-34.492,16.717-34.492,37.339v311.163c0,20.622,15.443,37.339,34.492,37.339Z"/>
    </clipPath>
  </defs>
  <g class="cls-11">
    <g id="LINE">
      <line class="cls-1" x1="104.521" y1="272.571" x2="104.52" y2="260.241"/>
    </g>
    <g id="LINE-2" data-name="LINE">
      <line class="cls-1" x1="104.6" y1="272.526" x2="104.599" y2="260.287"/>
    </g>
    <g id="SPLINE">
      <path class="cls-1" d="M105.583,274.447c-.677-.391-1.063-1.094-1.063-1.876"/>
    </g>
    <g id="SPLINE-2" data-name="SPLINE">
      <path class="cls-1" d="M105.662,274.402c-.677-.391-1.063-1.094-1.063-1.876"/>
    </g>
    <g id="LINE-3" data-name="LINE">
      <line class="cls-1" x1="112.732" y1="278.575" x2="105.583" y2="274.447"/>
    </g>
    <g id="LINE-4" data-name="LINE">
      <line class="cls-1" x1="112.811" y1="278.529" x2="105.662" y2="274.402"/>
    </g>
    <g id="SPLINE-3" data-name="SPLINE">
      <path class="cls-1" d="M113.796,277.926c0,.782-.401,1.031-1.064.649"/>
    </g>
    <g id="SPLINE-4" data-name="SPLINE">
      <path class="cls-1" d="M113.542,278.668c-.18.079-.428.036-.73-.139"/>
    </g>
    <g id="LINE-5" data-name="LINE">
      <line class="cls-1" x1="113.796" y1="265.596" x2="113.796" y2="277.926"/>
    </g>
    <g id="LINE-6" data-name="LINE">
      <line class="cls-1" x1="111.53" y1="264.288" x2="113.796" y2="265.596"/>
    </g>
    <g id="LINE-7" data-name="LINE">
      <line class="cls-1" x1="111.53" y1="275.694" x2="111.53" y2="264.288"/>
    </g>
    <g id="LINE-8" data-name="LINE">
      <line class="cls-1" x1="111.53" y1="275.694" x2="111.609" y2="275.648"/>
    </g>
    <g id="LINE-9" data-name="LINE">
      <line class="cls-1" x1="111.609" y1="275.648" x2="111.609" y2="264.334"/>
    </g>
    <g id="LINE-10" data-name="LINE">
      <line class="cls-1" x1="106.786" y1="272.954" x2="111.53" y2="275.694"/>
    </g>
    <g id="LINE-11" data-name="LINE">
      <line class="cls-1" x1="106.785" y1="261.549" x2="106.786" y2="272.954"/>
    </g>
    <g id="LINE-12" data-name="LINE">
      <line class="cls-1" x1="104.52" y1="260.241" x2="106.785" y2="261.549"/>
    </g>
    <g id="LINE-13" data-name="LINE">
      <line class="cls-1" x1="50.533" y1="242.664" x2="48.269" y2="241.357"/>
    </g>
    <g id="LINE-14" data-name="LINE">
      <line class="cls-1" x1="50.533" y1="242.572" x2="48.348" y2="241.311"/>
    </g>
    <g id="LINE-15" data-name="LINE">
      <line class="cls-1" x1="48.269" y1="241.357" x2="48.348" y2="241.311"/>
    </g>
    <g id="LINE-16" data-name="LINE">
      <line class="cls-1" x1="50.533" y1="229.072" x2="50.533" y2="242.664"/>
    </g>
    <g id="LINE-17" data-name="LINE">
      <line class="cls-1" x1="48.269" y1="227.764" x2="50.533" y2="229.072"/>
    </g>
    <g id="LINE-18" data-name="LINE">
      <line class="cls-1" x1="48.269" y1="241.357" x2="48.269" y2="227.764"/>
    </g>
    <g id="LINE-19" data-name="LINE">
      <line class="cls-1" x1="48.348" y1="241.311" x2="48.348" y2="227.81"/>
    </g>
    <g id="LINE-20" data-name="LINE">
      <line class="cls-1" x1="65.97" y1="251.577" x2="65.97" y2="244.247"/>
    </g>
    <g id="LINE-21" data-name="LINE">
      <line class="cls-1" x1="65.97" y1="251.577" x2="66.049" y2="251.531"/>
    </g>
    <g id="LINE-22" data-name="LINE">
      <line class="cls-1" x1="66.049" y1="251.531" x2="66.049" y2="244.202"/>
    </g>
    <g id="LINE-23" data-name="LINE">
      <line class="cls-1" x1="65.97" y1="244.247" x2="66.049" y2="244.202"/>
    </g>
    <g id="LINE-24" data-name="LINE">
      <line class="cls-1" x1="68.188" y1="252.857" x2="65.97" y2="251.577"/>
    </g>
    <g id="LINE-25" data-name="LINE">
      <line class="cls-1" x1="68.188" y1="252.766" x2="66.049" y2="251.531"/>
    </g>
    <g id="LINE-26" data-name="LINE">
      <line class="cls-1" x1="68.188" y1="239.265" x2="68.188" y2="252.857"/>
    </g>
    <g id="LINE-27" data-name="LINE">
      <line class="cls-1" x1="65.893" y1="237.94" x2="68.188" y2="239.265"/>
    </g>
    <g id="LINE-28" data-name="LINE">
      <line class="cls-1" x1="62.657" y1="244.363" x2="65.893" y2="237.94"/>
    </g>
    <g id="LINE-29" data-name="LINE">
      <line class="cls-1" x1="62.657" y1="244.363" x2="62.736" y2="244.318"/>
    </g>
    <g id="LINE-30" data-name="LINE">
      <line class="cls-1" x1="62.736" y1="244.318" x2="65.936" y2="237.965"/>
    </g>
    <g id="LINE-31" data-name="LINE">
      <line class="cls-1" x1="59.421" y1="234.203" x2="62.657" y2="244.363"/>
    </g>
    <g id="LINE-32" data-name="LINE">
      <line class="cls-1" x1="57.125" y1="232.878" x2="59.421" y2="234.203"/>
    </g>
    <g id="LINE-33" data-name="LINE">
      <line class="cls-1" x1="57.125" y1="246.47" x2="57.125" y2="232.878"/>
    </g>
    <g id="LINE-34" data-name="LINE">
      <line class="cls-1" x1="57.125" y1="246.47" x2="57.204" y2="246.425"/>
    </g>
    <g id="LINE-35" data-name="LINE">
      <line class="cls-1" x1="57.204" y1="246.425" x2="57.204" y2="232.923"/>
    </g>
    <g id="LINE-36" data-name="LINE">
      <line class="cls-1" x1="59.344" y1="247.751" x2="57.125" y2="246.47"/>
    </g>
    <g id="LINE-37" data-name="LINE">
      <line class="cls-1" x1="59.344" y1="247.66" x2="57.204" y2="246.425"/>
    </g>
    <g id="LINE-38" data-name="LINE">
      <line class="cls-1" x1="59.344" y1="240.422" x2="59.344" y2="247.751"/>
    </g>
    <g id="LINE-39" data-name="LINE">
      <line class="cls-1" x1="59.344" y1="240.422" x2="59.423" y2="240.376"/>
    </g>
    <g id="LINE-40" data-name="LINE">
      <line class="cls-1" x1="61.794" y1="247.778" x2="59.344" y2="240.422"/>
    </g>
    <g id="LINE-41" data-name="LINE">
      <line class="cls-1" x1="61.794" y1="247.778" x2="61.873" y2="247.732"/>
    </g>
    <g id="LINE-42" data-name="LINE">
      <line class="cls-1" x1="61.873" y1="247.732" x2="59.423" y2="240.376"/>
    </g>
    <g id="LINE-43" data-name="LINE">
      <line class="cls-1" x1="63.52" y1="248.774" x2="61.794" y2="247.778"/>
    </g>
    <g id="LINE-44" data-name="LINE">
      <line class="cls-1" x1="63.558" y1="248.705" x2="61.873" y2="247.732"/>
    </g>
    <g id="LINE-45" data-name="LINE">
      <line class="cls-1" x1="65.97" y1="244.247" x2="63.52" y2="248.774"/>
    </g>
    <g id="LINE-46" data-name="LINE">
      <line class="cls-1" x1="126.841" y1="284.639" x2="126.841" y2="281.579"/>
    </g>
    <g id="LINE-47" data-name="LINE">
      <line class="cls-1" x1="126.841" y1="284.639" x2="126.92" y2="284.593"/>
    </g>
    <g id="LINE-48" data-name="LINE">
      <line class="cls-1" x1="126.92" y1="284.593" x2="126.92" y2="281.533"/>
    </g>
    <g id="LINE-49" data-name="LINE">
      <line class="cls-1" x1="126.841" y1="281.579" x2="126.92" y2="281.533"/>
    </g>
    <g id="LINE-50" data-name="LINE">
      <line class="cls-1" x1="122.266" y1="281.997" x2="126.841" y2="284.639"/>
    </g>
    <g id="LINE-51" data-name="LINE">
      <line class="cls-1" x1="122.266" y1="277.995" x2="122.266" y2="281.997"/>
    </g>
    <g id="LINE-52" data-name="LINE">
      <line class="cls-1" x1="122.266" y1="277.995" x2="122.345" y2="277.949"/>
    </g>
    <g id="LINE-53" data-name="LINE">
      <line class="cls-1" x1="125.501" y1="279.863" x2="122.266" y2="277.995"/>
    </g>
    <g id="LINE-54" data-name="LINE">
      <line class="cls-1" x1="125.501" y1="279.863" x2="125.58" y2="279.817"/>
    </g>
    <g id="LINE-55" data-name="LINE">
      <line class="cls-1" x1="125.58" y1="279.817" x2="122.345" y2="277.949"/>
    </g>
    <g id="LINE-56" data-name="LINE">
      <line class="cls-1" x1="126.841" y1="281.579" x2="125.501" y2="279.863"/>
    </g>
    <g id="LINE-57" data-name="LINE">
      <line class="cls-1" x1="126.92" y1="281.533" x2="125.58" y2="279.817"/>
    </g>
    <g id="LINE-58" data-name="LINE">
      <line class="cls-1" x1="122.266" y1="276.108" x2="125.485" y2="277.967"/>
    </g>
    <g id="LINE-59" data-name="LINE">
      <line class="cls-1" x1="122.266" y1="272.568" x2="122.266" y2="276.108"/>
    </g>
    <g id="LINE-60" data-name="LINE">
      <line class="cls-1" x1="122.266" y1="272.568" x2="122.345" y2="272.523"/>
    </g>
    <g id="LINE-61" data-name="LINE">
      <line class="cls-1" x1="126.749" y1="275.157" x2="122.266" y2="272.568"/>
    </g>
    <g id="LINE-62" data-name="LINE">
      <line class="cls-1" x1="126.749" y1="275.157" x2="126.828" y2="275.111"/>
    </g>
    <g id="LINE-63" data-name="LINE">
      <line class="cls-1" x1="126.828" y1="275.111" x2="122.345" y2="272.523"/>
    </g>
    <g id="LINE-64" data-name="LINE">
      <line class="cls-1" x1="126.749" y1="277.736" x2="126.749" y2="275.157"/>
    </g>
    <g id="LINE-65" data-name="LINE">
      <line class="cls-1" x1="126.749" y1="277.736" x2="126.828" y2="277.691"/>
    </g>
    <g id="LINE-66" data-name="LINE">
      <line class="cls-1" x1="126.828" y1="277.691" x2="126.828" y2="275.111"/>
    </g>
    <g id="LINE-67" data-name="LINE">
      <line class="cls-1" x1="125.485" y1="277.967" x2="126.749" y2="277.736"/>
    </g>
    <g id="LINE-68" data-name="LINE">
      <line class="cls-1" x1="127.258" y1="279.934" x2="128.505" y2="281.473"/>
    </g>
    <g id="LINE-69" data-name="LINE">
      <line class="cls-1" x1="127.258" y1="279.934" x2="127.337" y2="279.889"/>
    </g>
    <g id="LINE-70" data-name="LINE">
      <line class="cls-1" x1="128.429" y1="279.809" x2="127.258" y2="279.934"/>
    </g>
    <g id="LINE-71" data-name="LINE">
      <line class="cls-1" x1="128.429" y1="279.809" x2="128.508" y2="279.763"/>
    </g>
    <g id="LINE-72" data-name="LINE">
      <line class="cls-1" x1="128.508" y1="279.763" x2="127.337" y2="279.889"/>
    </g>
    <g id="SPLINE-5" data-name="SPLINE">
      <path class="cls-1" d="M129.029,278.965c0,.604-.17.826-.6.844"/>
    </g>
    <g id="SPLINE-6" data-name="SPLINE">
      <path class="cls-1" d="M128.794,279.704c-.079.036-.173.054-.286.059"/>
    </g>
    <g id="LINE-73" data-name="LINE">
      <line class="cls-1" x1="129.029" y1="275.655" x2="129.029" y2="278.965"/>
    </g>
    <g id="SPLINE-7" data-name="SPLINE">
      <path class="cls-1" d="M127.981,273.786c.663.383,1.048,1.085,1.048,1.869"/>
    </g>
    <g id="LINE-74" data-name="LINE">
      <line class="cls-1" x1="120.001" y1="269.179" x2="127.981" y2="273.786"/>
    </g>
    <g id="LINE-75" data-name="LINE">
      <line class="cls-1" x1="120.001" y1="282.772" x2="120.001" y2="269.179"/>
    </g>
    <g id="LINE-76" data-name="LINE">
      <line class="cls-1" x1="120.001" y1="282.772" x2="120.08" y2="282.726"/>
    </g>
    <g id="LINE-77" data-name="LINE">
      <line class="cls-1" x1="120.08" y1="282.726" x2="120.08" y2="269.225"/>
    </g>
    <g id="LINE-78" data-name="LINE">
      <line class="cls-1" x1="128.043" y1="287.415" x2="120.001" y2="282.772"/>
    </g>
    <g id="LINE-79" data-name="LINE">
      <line class="cls-1" x1="128.123" y1="287.369" x2="120.08" y2="282.726"/>
    </g>
    <g id="SPLINE-8" data-name="SPLINE">
      <path class="cls-1" d="M129.122,286.774c0,.783-.4,1.033-1.078.641"/>
    </g>
    <g id="SPLINE-9" data-name="SPLINE">
      <path class="cls-1" d="M128.869,287.514c-.182.08-.435.035-.746-.145"/>
    </g>
    <g id="LINE-80" data-name="LINE">
      <line class="cls-1" x1="129.121" y1="283.021" x2="129.122" y2="286.774"/>
    </g>
    <g id="SPLINE-10" data-name="SPLINE">
      <path class="cls-1" d="M128.505,281.473c.432.516.616.926.616,1.548"/>
    </g>
    <g id="LINE-81" data-name="LINE">
      <line class="cls-1" x1="91.421" y1="259.342" x2="92.976" y2="264.435"/>
    </g>
    <g id="LINE-82" data-name="LINE">
      <line class="cls-1" x1="92.976" y1="256.044" x2="91.421" y2="259.342"/>
    </g>
    <g id="LINE-83" data-name="LINE">
      <line class="cls-1" x1="92.976" y1="256.044" x2="93.055" y2="255.998"/>
    </g>
    <g id="LINE-84" data-name="LINE">
      <line class="cls-1" x1="98.128" y1="259.019" x2="92.976" y2="256.044"/>
    </g>
    <g id="LINE-85" data-name="LINE">
      <line class="cls-1" x1="98.128" y1="258.927" x2="93.055" y2="255.998"/>
    </g>
    <g id="LINE-86" data-name="LINE">
      <line class="cls-1" x1="98.108" y1="256.338" x2="98.128" y2="259.019"/>
    </g>
    <g id="LINE-87" data-name="LINE">
      <line class="cls-1" x1="91.452" y1="252.495" x2="98.108" y2="256.338"/>
    </g>
    <g id="LINE-88" data-name="LINE">
      <line class="cls-1" x1="88.907" y1="257.89" x2="91.452" y2="252.495"/>
    </g>
    <g id="LINE-89" data-name="LINE">
      <line class="cls-1" x1="88.907" y1="257.89" x2="88.986" y2="257.845"/>
    </g>
    <g id="LINE-90" data-name="LINE">
      <line class="cls-1" x1="88.986" y1="257.845" x2="91.497" y2="252.521"/>
    </g>
    <g id="LINE-91" data-name="LINE">
      <line class="cls-1" x1="91.452" y1="266.223" x2="88.907" y2="257.89"/>
    </g>
    <g id="LINE-92" data-name="LINE">
      <line class="cls-1" x1="91.452" y1="266.223" x2="91.531" y2="266.177"/>
    </g>
    <g id="LINE-93" data-name="LINE">
      <line class="cls-1" x1="91.531" y1="266.177" x2="88.986" y2="257.845"/>
    </g>
    <g id="LINE-94" data-name="LINE">
      <line class="cls-1" x1="98.21" y1="270.125" x2="91.452" y2="266.223"/>
    </g>
    <g id="LINE-95" data-name="LINE">
      <line class="cls-1" x1="98.209" y1="270.033" x2="91.531" y2="266.177"/>
    </g>
    <g id="LINE-96" data-name="LINE">
      <line class="cls-1" x1="98.191" y1="267.445" x2="98.21" y2="270.125"/>
    </g>
    <g id="LINE-97" data-name="LINE">
      <line class="cls-1" x1="92.976" y1="264.435" x2="98.191" y2="267.445"/>
    </g>
    <g id="SPLINE-11" data-name="SPLINE">
      <path class="cls-1" d="M41.137,231.297c.416.508.555.908.555,1.477"/>
    </g>
    <g id="LINE-98" data-name="LINE">
      <line class="cls-1" x1="35.128" y1="224.288" x2="41.137" y2="231.297"/>
    </g>
    <g id="LINE-99" data-name="LINE">
      <line class="cls-1" x1="35.128" y1="222.242" x2="35.128" y2="224.288"/>
    </g>
    <g id="LINE-100" data-name="LINE">
      <line class="cls-1" x1="35.128" y1="222.242" x2="35.207" y2="222.196"/>
    </g>
    <g id="LINE-101" data-name="LINE">
      <line class="cls-1" x1="39.411" y1="224.714" x2="35.128" y2="222.242"/>
    </g>
    <g id="LINE-102" data-name="LINE">
      <line class="cls-1" x1="39.411" y1="224.714" x2="39.49" y2="224.668"/>
    </g>
    <g id="LINE-103" data-name="LINE">
      <line class="cls-1" x1="39.49" y1="224.668" x2="35.207" y2="222.196"/>
    </g>
    <g id="LINE-104" data-name="LINE">
      <line class="cls-1" x1="39.411" y1="226.569" x2="39.411" y2="224.714"/>
    </g>
    <g id="LINE-105" data-name="LINE">
      <line class="cls-1" x1="39.411" y1="226.569" x2="39.49" y2="226.523"/>
    </g>
    <g id="LINE-106" data-name="LINE">
      <line class="cls-1" x1="39.49" y1="226.523" x2="39.49" y2="224.668"/>
    </g>
    <g id="LINE-107" data-name="LINE">
      <line class="cls-1" x1="41.692" y1="228.81" x2="39.411" y2="226.569"/>
    </g>
    <g id="LINE-108" data-name="LINE">
      <line class="cls-1" x1="41.692" y1="228.687" x2="39.49" y2="226.523"/>
    </g>
    <g id="LINE-109" data-name="LINE">
      <line class="cls-1" x1="41.692" y1="225.213" x2="41.692" y2="228.81"/>
    </g>
    <g id="SPLINE-12" data-name="SPLINE">
      <path class="cls-1" d="M40.644,223.362c.648.374,1.049,1.068,1.049,1.851"/>
    </g>
    <g id="LINE-110" data-name="LINE">
      <line class="cls-1" x1="33.927" y1="219.484" x2="40.644" y2="223.362"/>
    </g>
    <g id="SPLINE-13" data-name="SPLINE">
      <path class="cls-1" d="M32.863,220.134c0-.784.4-1.033,1.064-.65"/>
    </g>
    <g id="SPLINE-14" data-name="SPLINE">
      <path class="cls-1" d="M32.942,220.088c0-.371.09-.622.254-.743"/>
    </g>
    <g id="LINE-111" data-name="LINE">
      <line class="cls-1" x1="32.863" y1="223.408" x2="32.863" y2="220.134"/>
    </g>
    <g id="LINE-112" data-name="LINE">
      <line class="cls-1" x1="32.942" y1="223.362" x2="32.942" y2="220.088"/>
    </g>
    <g id="SPLINE-15" data-name="SPLINE">
      <path class="cls-1" d="M33.403,224.857c-.416-.489-.54-.882-.54-1.45"/>
    </g>
    <g id="SPLINE-16" data-name="SPLINE">
      <path class="cls-1" d="M33.482,224.812c-.416-.489-.54-.882-.54-1.45"/>
    </g>
    <g id="LINE-113" data-name="LINE">
      <line class="cls-1" x1="39.411" y1="231.885" x2="33.403" y2="224.857"/>
    </g>
    <g id="LINE-114" data-name="LINE">
      <line class="cls-1" x1="39.411" y1="231.885" x2="39.49" y2="231.839"/>
    </g>
    <g id="LINE-115" data-name="LINE">
      <line class="cls-1" x1="39.49" y1="231.839" x2="33.482" y2="224.812"/>
    </g>
    <g id="LINE-116" data-name="LINE">
      <line class="cls-1" x1="39.411" y1="234.179" x2="39.411" y2="231.885"/>
    </g>
    <g id="LINE-117" data-name="LINE">
      <line class="cls-1" x1="39.411" y1="234.179" x2="39.49" y2="234.133"/>
    </g>
    <g id="LINE-118" data-name="LINE">
      <line class="cls-1" x1="39.49" y1="234.133" x2="39.49" y2="231.839"/>
    </g>
    <g id="LINE-119" data-name="LINE">
      <line class="cls-1" x1="35.128" y1="231.707" x2="39.411" y2="234.179"/>
    </g>
    <g id="LINE-120" data-name="LINE">
      <line class="cls-1" x1="35.128" y1="229.585" x2="35.128" y2="231.707"/>
    </g>
    <g id="LINE-121" data-name="LINE">
      <line class="cls-1" x1="32.863" y1="227.24" x2="35.128" y2="229.585"/>
    </g>
    <g id="LINE-122" data-name="LINE">
      <line class="cls-1" x1="32.863" y1="231.2" x2="32.863" y2="227.24"/>
    </g>
    <g id="LINE-123" data-name="LINE">
      <line class="cls-1" x1="32.942" y1="231.154" x2="32.942" y2="227.322"/>
    </g>
    <g id="SPLINE-17" data-name="SPLINE">
      <path class="cls-1" d="M33.927,233.077c-.663-.383-1.064-1.095-1.064-1.877"/>
    </g>
    <g id="SPLINE-18" data-name="SPLINE">
      <path class="cls-1" d="M34.006,233.031c-.663-.383-1.064-1.095-1.064-1.877"/>
    </g>
    <g id="LINE-124" data-name="LINE">
      <line class="cls-1" x1="40.629" y1="236.946" x2="33.927" y2="233.077"/>
    </g>
    <g id="LINE-125" data-name="LINE">
      <line class="cls-1" x1="40.708" y1="236.9" x2="34.006" y2="233.031"/>
    </g>
    <g id="SPLINE-19" data-name="SPLINE">
      <path class="cls-1" d="M41.692,236.297c0,.782-.401,1.031-1.064.649"/>
    </g>
    <g id="SPLINE-20" data-name="SPLINE">
      <path class="cls-1" d="M41.438,237.039c-.18.079-.428.036-.73-.139"/>
    </g>
    <g id="LINE-126" data-name="LINE">
      <line class="cls-1" x1="41.692" y1="232.774" x2="41.692" y2="236.297"/>
    </g>
    <g id="LINE-127" data-name="LINE">
      <line class="cls-1" x1="74.392" y1="255.177" x2="74.392" y2="242.847"/>
    </g>
    <g id="LINE-128" data-name="LINE">
      <line class="cls-1" x1="74.471" y1="255.131" x2="74.471" y2="242.892"/>
    </g>
    <g id="SPLINE-21" data-name="SPLINE">
      <path class="cls-1" d="M75.455,257.053c-.677-.391-1.063-1.094-1.063-1.876"/>
    </g>
    <g id="SPLINE-22" data-name="SPLINE">
      <path class="cls-1" d="M75.534,257.007c-.677-.391-1.063-1.094-1.063-1.876"/>
    </g>
    <g id="LINE-129" data-name="LINE">
      <line class="cls-1" x1="82.605" y1="261.181" x2="75.455" y2="257.053"/>
    </g>
    <g id="LINE-130" data-name="LINE">
      <line class="cls-1" x1="82.684" y1="261.136" x2="75.534" y2="257.007"/>
    </g>
    <g id="SPLINE-23" data-name="SPLINE">
      <path class="cls-1" d="M83.667,260.531c0,.782-.4,1.032-1.062.65"/>
    </g>
    <g id="SPLINE-24" data-name="SPLINE">
      <path class="cls-1" d="M83.413,261.274c-.18.079-.427.036-.729-.138"/>
    </g>
    <g id="LINE-131" data-name="LINE">
      <line class="cls-1" x1="83.667" y1="248.202" x2="83.667" y2="260.531"/>
    </g>
    <g id="LINE-132" data-name="LINE">
      <line class="cls-1" x1="81.402" y1="246.894" x2="83.667" y2="248.202"/>
    </g>
    <g id="LINE-133" data-name="LINE">
      <line class="cls-1" x1="81.403" y1="258.3" x2="81.402" y2="246.894"/>
    </g>
    <g id="LINE-134" data-name="LINE">
      <line class="cls-1" x1="81.403" y1="258.3" x2="81.482" y2="258.254"/>
    </g>
    <g id="LINE-135" data-name="LINE">
      <line class="cls-1" x1="81.482" y1="258.254" x2="81.482" y2="246.94"/>
    </g>
    <g id="LINE-136" data-name="LINE">
      <line class="cls-1" x1="76.658" y1="255.56" x2="81.403" y2="258.3"/>
    </g>
    <g id="LINE-137" data-name="LINE">
      <line class="cls-1" x1="76.658" y1="244.155" x2="76.658" y2="255.56"/>
    </g>
    <g id="LINE-138" data-name="LINE">
      <line class="cls-1" x1="74.392" y1="242.847" x2="76.658" y2="244.155"/>
    </g>
    <g id="LINE-139" data-name="LINE">
      <line class="cls-1" x1="137.576" y1="287.047" x2="137.576" y2="290.712"/>
    </g>
    <g id="LINE-140" data-name="LINE">
      <line class="cls-1" x1="137.576" y1="287.047" x2="137.655" y2="287.001"/>
    </g>
    <g id="LINE-141" data-name="LINE">
      <line class="cls-1" x1="140.996" y1="289.022" x2="137.576" y2="287.047"/>
    </g>
    <g id="LINE-142" data-name="LINE">
      <line class="cls-1" x1="140.996" y1="288.931" x2="137.655" y2="287.001"/>
    </g>
    <g id="LINE-143" data-name="LINE">
      <line class="cls-1" x1="140.996" y1="286.923" x2="140.996" y2="289.022"/>
    </g>
    <g id="LINE-144" data-name="LINE">
      <line class="cls-1" x1="137.576" y1="284.948" x2="140.996" y2="286.923"/>
    </g>
    <g id="LINE-145" data-name="LINE">
      <line class="cls-1" x1="137.576" y1="281.532" x2="137.576" y2="284.948"/>
    </g>
    <g id="LINE-146" data-name="LINE">
      <line class="cls-1" x1="137.576" y1="281.532" x2="137.655" y2="281.487"/>
    </g>
    <g id="LINE-147" data-name="LINE">
      <line class="cls-1" x1="143.447" y1="284.922" x2="137.576" y2="281.532"/>
    </g>
    <g id="LINE-148" data-name="LINE">
      <line class="cls-1" x1="143.447" y1="284.831" x2="137.655" y2="281.487"/>
    </g>
    <g id="LINE-149" data-name="LINE">
      <line class="cls-1" x1="143.446" y1="282.715" x2="143.447" y2="284.922"/>
    </g>
    <g id="LINE-150" data-name="LINE">
      <line class="cls-1" x1="135.311" y1="278.018" x2="143.446" y2="282.715"/>
    </g>
    <g id="LINE-151" data-name="LINE">
      <line class="cls-1" x1="135.311" y1="291.611" x2="135.311" y2="278.018"/>
    </g>
    <g id="LINE-152" data-name="LINE">
      <line class="cls-1" x1="135.311" y1="291.611" x2="135.39" y2="291.565"/>
    </g>
    <g id="LINE-153" data-name="LINE">
      <line class="cls-1" x1="135.39" y1="291.565" x2="135.39" y2="278.064"/>
    </g>
    <g id="LINE-154" data-name="LINE">
      <line class="cls-1" x1="143.523" y1="296.352" x2="135.311" y2="291.611"/>
    </g>
    <g id="LINE-155" data-name="LINE">
      <line class="cls-1" x1="143.523" y1="296.261" x2="135.39" y2="291.565"/>
    </g>
    <g id="LINE-156" data-name="LINE">
      <line class="cls-1" x1="143.523" y1="294.146" x2="143.523" y2="296.352"/>
    </g>
    <g id="LINE-157" data-name="LINE">
      <line class="cls-1" x1="137.576" y1="290.712" x2="143.523" y2="294.146"/>
    </g>
    <g id="LINE-158" data-name="LINE">
      <line class="cls-1" x1="33.652" y1="64.765" x2="33.652" y2="46.728"/>
    </g>
    <g id="ELLIPSE">
      <path class="cls-1" d="M32.263,69.439c.889-1.54,1.389-3.222,1.389-4.674"/>
    </g>
    <g id="LINE-159" data-name="LINE">
      <line class="cls-1" x1="22.591" y1="86.193" x2="32.263" y2="69.439"/>
    </g>
    <g id="ELLIPSE-2" data-name="ELLIPSE">
      <path class="cls-1" d="M19.237,89.733c1.258-.726,2.464-2,3.353-3.54"/>
    </g>
    <g id="LINE-160" data-name="LINE">
      <line class="cls-1" x1="3.616" y1="98.752" x2="19.237" y2="89.733"/>
    </g>
    <g id="ELLIPSE-3" data-name="ELLIPSE">
      <path class="cls-1" d="M35.736,272.208c-.035-.02-.07-.041-.105-.063"/>
    </g>
    <g id="LINE-161" data-name="LINE">
      <path class="cls-1" d="M40.766,34.406c9.425-6.421,19.425-10.421,28.461-16.432"/>
    </g>
    <g id="ELLIPSE-4" data-name="ELLIPSE">
      <path class="cls-1" d="M33.652,46.728c0-4.537,3.185-10.053,7.114-12.322"/>
    </g>
    <g id="LINE-162" data-name="LINE">
      <path class="cls-1" d="M36.498,32.216c7.694-4.231,15.694-9.231,23.831-13.759"/>
    </g>
    <g id="ELLIPSE-5" data-name="ELLIPSE">
      <path class="cls-1" d="M29.621,44.127c0-4.385,3.079-9.718,6.877-11.911"/>
    </g>
    <g id="LINE-163" data-name="LINE">
      <line class="cls-1" x1="29.621" y1="62.164" x2="29.621" y2="44.127"/>
    </g>
    <g id="ELLIPSE-6" data-name="ELLIPSE">
      <path class="cls-1" d="M28.163,67.072c.934-1.618,1.459-3.383,1.459-4.908"/>
    </g>
    <g id="LINE-164" data-name="LINE">
      <line class="cls-1" x1="18.49" y1="83.826" x2="28.163" y2="67.072"/>
    </g>
    <g id="ELLIPSE-7" data-name="ELLIPSE">
      <path class="cls-1" d="M14.969,87.543c1.321-.763,2.587-2.1,3.521-3.717"/>
    </g>
    <g id="LINE-165" data-name="LINE">
      <path class="cls-1" d="M3.667,94.068l11.301-6.525"/>
    </g>
    <g id="LINE-166" data-name="LINE">
      <line class="cls-1" x1="29.384" y1="44.264" x2="29.384" y2="62.301"/>
    </g>
    <g id="ELLIPSE-8" data-name="ELLIPSE">
      <path class="cls-1" d="M29.384,62.301c0,1.452-.5,3.134-1.389,4.674"/>
    </g>
    <g id="LINE-167" data-name="LINE">
      <line class="cls-1" x1="18.322" y1="83.729" x2="27.995" y2="66.975"/>
    </g>
    <g id="ELLIPSE-9" data-name="ELLIPSE">
      <path class="cls-1" d="M18.322,83.729c-.889,1.54-2.096,2.814-3.353,3.54"/>
    </g>
    <g id="LINE-168" data-name="LINE">
      <path class="cls-1" d="M3.667,93.794l11.301-6.525"/>
    </g>
    <g id="ELLIPSE-10" data-name="ELLIPSE">
      <path class="cls-1" d="M31.575,269.803c-.072-.038-.143-.079-.212-.123"/>
    </g>
    <g id="LINE-169" data-name="LINE">
      <path class="cls-1" d="M36.498,31.942l15.044-8.685,8.538-4.929"/>
    </g>
    <g id="ELLIPSE-11" data-name="ELLIPSE">
      <path class="cls-1" d="M29.384,44.264c0-4.537,3.185-10.053,7.114-12.322"/>
    </g>
    <g id="LINE-170" data-name="LINE">
      <path class="cls-1" d="M31.468,269.743c-5.039-2.909-10.077-5.818-15.116-8.727l-8.335-4.812"/>
    </g>
    <g id="LINE-171" data-name="LINE">
      <line class="cls-1" x1="104.521" y1="272.571" x2="104.6" y2="272.526"/>
    </g>
    <g id="LINE-172" data-name="LINE">
      <line class="cls-1" x1="105.583" y1="274.447" x2="105.662" y2="274.402"/>
    </g>
    <g id="LINE-173" data-name="LINE">
      <line class="cls-1" x1="112.732" y1="278.575" x2="112.811" y2="278.529"/>
    </g>
    <g id="LINE-174" data-name="LINE">
      <line class="cls-1" x1="128.043" y1="287.415" x2="128.123" y2="287.369"/>
    </g>
    <g id="LINE-175" data-name="LINE">
      <line class="cls-1" x1="32.863" y1="220.134" x2="32.942" y2="220.088"/>
    </g>
    <g id="LINE-176" data-name="LINE">
      <line class="cls-1" x1="32.863" y1="223.408" x2="32.942" y2="223.362"/>
    </g>
    <g id="LINE-177" data-name="LINE">
      <line class="cls-1" x1="33.403" y1="224.857" x2="33.482" y2="224.812"/>
    </g>
    <g id="LINE-178" data-name="LINE">
      <line class="cls-1" x1="32.863" y1="231.2" x2="32.942" y2="231.154"/>
    </g>
    <g id="LINE-179" data-name="LINE">
      <line class="cls-1" x1="33.927" y1="233.077" x2="34.006" y2="233.031"/>
    </g>
    <g id="LINE-180" data-name="LINE">
      <line class="cls-1" x1="40.629" y1="236.946" x2="40.708" y2="236.9"/>
    </g>
    <g id="LINE-181" data-name="LINE">
      <line class="cls-1" x1="74.392" y1="255.177" x2="74.471" y2="255.131"/>
    </g>
    <g id="LINE-182" data-name="LINE">
      <line class="cls-1" x1="75.455" y1="257.053" x2="75.534" y2="257.007"/>
    </g>
    <g id="LINE-183" data-name="LINE">
      <line class="cls-1" x1="82.605" y1="261.181" x2="82.684" y2="261.136"/>
    </g>
    <g id="LINE-184" data-name="LINE">
      <line class="cls-1" x1="40.533" y1="34.546" x2="36.498" y2="32.216"/>
    </g>
    <g id="LINE-185" data-name="LINE">
      <line class="cls-1" x1="33.656" y1="46.456" x2="29.621" y2="44.127"/>
    </g>
    <g id="LINE-186" data-name="LINE">
      <line class="cls-1" x1="33.652" y1="64.491" x2="29.621" y2="62.164"/>
    </g>
    <g id="LINE-187" data-name="LINE">
      <line class="cls-1" x1="32.263" y1="69.439" x2="28.163" y2="67.072"/>
    </g>
    <g id="LINE-188" data-name="LINE">
      <line class="cls-1" x1="22.591" y1="86.193" x2="18.49" y2="83.826"/>
    </g>
    <g id="LINE-189" data-name="LINE">
      <line class="cls-1" x1="19" y1="89.87" x2="14.969" y2="87.543"/>
    </g>
    <g id="LINE-190" data-name="LINE">
      <g>
        <g>
          <path class="cls-9" d="M395.242,377.795c-6.55,3.78-12.48,4.14-16.77,1.66l-.32-.19c-4.1-2.55-6.63-7.79-6.63-15.17v-65.71c0-15.12,10.62-33.51,23.72-41.07l47.42-27.38c6.42-3.71,12.24-4.12,16.51-1.81l.26.15c4.29,2.48,6.94,7.79,6.94,15.35v3.65c0-13.11-9.2-18.42-20.55-11.87l-47.42,27.38c-11.35,6.56-20.55,22.49-20.55,35.6v65.71c0,13.11,9.2,18.42,20.55,11.87l-3.16,1.83Z"/>
          <path class="cls-10" d="M374.112,376.805c-3.7-2.8-5.75-7.95-5.75-14.53v-65.72c0-15.12,10.62-33.51,23.71-41.07l47.43-27.38c5.8-3.35,11.38-4.12,15.7-2.2l.01.01c.36.15.72.33,1.06.53l2.9,1.68c-4.27-2.31-10.09-1.9-16.51,1.81l-47.42,27.38c-13.1,7.56-23.72,25.95-23.72,41.07v65.71c0,7.38,2.53,12.62,6.63,15.17l-2.84-1.64c-.42-.24-.82-.51-1.2-.82Z"/>
          <path class="cls-3" d="M423.862,352.135v-.01c-1.16-10.89-1.38-21.86-.68-32.79l-.07-.01c0-.08.01-.16.01-.24s0-.16.01-.25h-.01c.28-7.67.58-15.34.93-23.01h-.01c.01-.04.01-.09.01-.14,0-.04,0-.09.01-.14v-.36c-.03-.79-.28-1.54-.74-2.2-.41-.6-1-1.12-1.73-1.51-.49-.27-1.05-.47-1.64-.6-.61-.13-1.26-.19-1.92-.16-.87.03-1.74.21-2.55.53-1.12.43-2.11,1.1-2.88,1.92-.05.05-.1.11-.16.16-.05.06-.1.12-.15.17-1.97,2.1-3.78,4.35-5.42,6.72-.16.23-.32.45-.48.68-1.61,2.12-3.35,4.14-5.19,6.06h.01c-.05.06-.1.11-.15.16-.05.06-.1.11-.14.16-.48.52-.95,1.03-1.39,1.52-.53.6-1.03,1.17-1.5,1.72-.44.52-.85,1.03-1.22,1.53-.17.23-.34.46-.5.68-.26.38-.55.81-.81,1.27-.26.47-.5.97-.67,1.51-.14.46-.22.95-.22,1.45-.01.62.06,1.19.33,2.13.16.59.42,1.34.82,2.31.45,1.12,1.04,2.4,1.74,3.82.43.87.86,1.71,1.3,2.54.82,1.53,1.64,3.01,2.46,4.43,1.26,2.16,2.53,4.22,3.72,6.01.4.59.79,1.16,1.16,1.7.24.34.47.67.71,1,1.44,2.01,3.17,3.79,5.13,5.3.19.15.39.3.6.45l-.01.01c1.74,1.05,3.53,2.03,5.36,2.92l-10.45-4.62c-.66-.29-1.29-.61-1.9-.96-2.95-1.67-7.19-4.9-10.27-10.9-1.79-3.47-3.35-8.03-4.01-12.91-.38-2.8-.49-5.91-.08-9.17.33-2.58.97-5.2,2.02-7.91.66-1.7,1.45-3.36,2.37-4.98.93-1.66,1.98-3.25,3.09-4.77,2.32-3.16,5-6.07,7.65-8.63,3.95-3.8,9.6-8.5,15.76-12.06,6.64-3.83,13.13-5.91,17.88-6.46,2.45-.29,4.88-.22,6.94.51.79.29,1.52.66,2.18,1.14l7.67,5.6c-.04-.03-.09-.07-.14-.1-.24-.15-.52-.29-.84-.42-.19-.08-.39-.15-.6-.22l-.45-.15c-1.76-.49-3.6-.64-5.42-.45-.11,0-.21.01-.31.02-.53.05-.97.18-1.3.38-.48.3-.72.75-.64,1.3.05.35.22.72.51,1.1.25.33.58.66.99.98.02.01.04.03.06.04.54.42,1.19.8,1.9,1.15.84.4,1.77.73,2.7.98.26.07.52.13.77.19.06.01.11.03.17.04s.11.02.17.04c1.36.31,2.73.64,4.09,1.01.6.16,1.2.33,1.79.5,2.06.61,4.08,1.28,5.99,2.04l.15.06c1.93.77,3.82,1.65,5.55,2.69.65.39,1.28.8,1.88,1.24l18.41,13.44c.78.57,1.69,1.58,2.05,2.09.7,1,1.21,2.15,1.53,3.33.36,1.31.53,2.66.58,4.04.09,2.25-.1,4.57-.42,6.92-.57,4.03-1.53,8.19-2.76,12.33-1.93,6.51-4.73,13.15-8.1,19.4-2.14,3.99-4.52,7.94-7.24,11.48-.15.2-.33.39-.53.56-.21.17-.44.32-.7.44-.27.12-.56.22-.87.26-.31.05-.64.04-.97-.01-.33-.06-.66-.17-.95-.32-.01-.01-.02-.02-.04-.02l-.69-.39h-.01c-.16.06-.34.13-.53.21-.4.18-.86.41-1.34.68-.72.4-1.5.88-2.28,1.43-1.06.74-2.15,1.63-3.09,2.7-.54.61-1.05,1.3-1.46,2.03-.09.15-.2.32-.33.48s-.29.32-.48.46c-.19.15-.41.28-.65.39-.24.1-.51.17-.77.2-.25.03-.51.03-.75,0-1.86-.22-3.57-.76-5.14-1.46l-23.53-10.41-9.73-4.31.01-.01c.28.11.56.22.84.32ZM450.592,344.935c-.01.2-.02.4-.01.6-.08,6.22,1.93,11.26,6.01,13.62,8.02,4.63,21.03-2.88,29.06-16.78,8.02-13.91,8.02-28.93,0-33.56-4.12-2.38-9.54-1.56-14.93,1.67-2.56,1.53-5.11,3.61-7.51,6.15-2.41,2.55-4.66,5.56-6.62,8.96-3.82,6.61-5.82,13.47-6,19.34Z"/>
          <path class="cls-3" d="M470.722,356.115c10.91-6.55,19.58-21.97,19.36-34.45-.18-10.61-6.74-15.71-15.48-12.89-1.25.41-2.55.97-3.88,1.71,5.39-3.23,10.81-4.05,14.93-1.67,8.02,4.63,8.02,19.65,0,33.56-8.03,13.9-21.04,21.41-29.06,16.78-4.08-2.36-6.09-7.4-6.01-13.62,0,.41.02.8.05,1.19.08,1.2.26,2.31.51,3.35.16.68.37,1.33.6,1.94,2.8,7.33,10.29,9.32,18.98,4.1Z"/>
          <path class="cls-8" d="M470.282,338.145c-.77,1.01-1.67,1.85-2.59,2.38l-16.55,9.55c-.25-1.04-.43-2.15-.51-3.35l4.68-2.7,9.22-5.33c1.05-.61,2.08-1.6,2.91-2.83,6.02-8.89,8.81-19.43,7.16-27.09,8.74-2.82,15.3,2.28,15.48,12.89.22,12.48-8.45,27.9-19.36,34.45-8.69,5.22-16.18,3.23-18.98-4.1h.01c6.26-.99,13.22-6.21,18.53-13.87Z"/>
          <path class="cls-4" d="M474.602,308.775c1.65,7.66-1.14,18.2-7.16,27.09-.83,1.23-1.86,2.22-2.91,2.83l-9.22,5.33c4.36-2.52,7.9-8.65,7.9-13.7v-13.69c2.4-2.54,4.95-4.62,7.51-6.15,1.33-.74,2.63-1.3,3.88-1.71ZM470.952,317.455c.78-1.35.78-2.81,0-3.26s-2.05.28-2.83,1.63-.78,2.81,0,3.26,2.05-.28,2.83-1.63Z"/>
          <path class="cls-6" d="M470.952,314.195c.78.45.78,1.91,0,3.26s-2.05,2.08-2.83,1.63-.78-1.91,0-3.26,2.05-2.08,2.83-1.63Z"/>
          <path class="cls-4" d="M467.692,340.525c.92-.53,1.82-1.37,2.59-2.38-5.31,7.66-12.27,12.88-18.53,13.87h-.01c-.23-.61-.44-1.26-.6-1.94l16.55-9.55Z"/>
          <path class="cls-4" d="M381.112,358.445c.15.13.32.25.5.35,3.09,1.78,8.09-1.1,11.18-6.45s3.09-11.13,0-12.91c-.18-.11-.37-.2-.57-.26l-.01-.01c-3.1-1.15-7.7,1.7-10.6,6.72-2.91,5.04-3.08,10.46-.5,12.56ZM466.372,247.275v34.67l-.15-.06c-1.91-.76-3.93-1.43-5.99-2.04-.59-.17-1.19-.34-1.79-.5v-2c0-.36-.05-.7-.17-1.01q0-.01-.01-.02c-.01-.04-.03-.07-.04-.11l-.01-.01c-.12-.34-.25-.67-.38-1.01-.11-.27-.21-.55-.32-.82-.06-.16-.15-.32-.26-.46-.12-.16-.27-.3-.46-.45h-.01l-7.67-5.6c-.66-.48-1.39-.85-2.18-1.14-2.06-.73-4.49-.8-6.94-.51-4.75.55-11.24,2.63-17.88,6.46-6.16,3.56-11.81,8.26-15.76,12.06-2.65,2.56-5.33,5.47-7.65,8.63-1.11,1.52-2.16,3.11-3.09,4.77-.92,1.62-1.71,3.28-2.37,4.98-1.05,2.71-1.69,5.33-2.02,7.91-.41,3.26-.3,6.37.08,9.17.66,4.88,2.22,9.44,4.01,12.91,3.08,6,7.32,9.23,10.27,10.9.61.35,1.24.67,1.9.96l10.45,4.62c1.66.82,3.36,1.56,5.09,2.24l-.01.01,9.73,4.31-34.34,19.83c-11.35,6.55-20.55,1.24-20.55-11.87v-65.71c0-13.11,9.2-29.04,20.55-35.6l47.42-27.38c11.35-6.55,20.55-1.24,20.55,11.87ZM427.702,262.365c3.09-5.35,3.09-11.12,0-12.91-.18-.11-.37-.2-.57-.26l-.01-.01c-3.1-1.15-7.7,1.7-10.6,6.73-2.91,5.02-3.08,10.43-.52,12.54h.01c.16.14.33.26.51.36,3.09,1.79,8.09-1.1,11.18-6.45Z"/>
          <path class="cls-8" d="M463.212,316.635v13.69c0,5.05-3.54,11.18-7.9,13.7-1.71.98-3.35,1.3-4.72.91.18-5.87,2.18-12.73,6-19.34,1.96-3.4,4.21-6.41,6.62-8.96Z"/>
          <path class="cls-8" d="M458.442,277.345v2c-1.36-.37-2.73-.7-4.09-1.01-.06-.02-.11-.03-.17-.04s-.11-.03-.17-.04c-.25-.06-.51-.12-.77-.19-.93-.25-1.86-.58-2.7-.98-.71-.35-1.36-.73-1.9-1.15l-.05-.05c-.22-.29-.37-.57-.42-.83-.09-.42.04-.77.37-1.01.23-.16.55-.28.94-.34l.3-.03c1.75-.18,3.52-.03,5.23.43v.01c.17.05.33.1.48.16.24.08.47.17.68.26.35.15.67.31.94.48.3.19.55.39.74.61.15.18.27.36.36.57l.01.01c.01.04.03.07.04.11q.01.01.01.02c.12.31.17.65.17,1.01Z"/>
          <path class="cls-3" d="M455.012,274.105c-1.71-.46-3.48-.61-5.23-.43l-.3.03c-.39.06-.71.18-.94.34-.33.24-.46.59-.37,1.01.05.26.2.54.42.83l.05.05c-.02-.01-.04-.03-.06-.04-.41-.32-.74-.65-.99-.98-.29-.38-.46-.75-.51-1.1-.08-.55.16-1,.64-1.3.33-.2.77-.33,1.3-.38.1-.01.2-.02.31-.02,1.82-.19,3.66-.04,5.42.45l.45.15c.21.07.41.14.6.22.32.13.6.27.84.42.05.03.1.07.14.1h.01c.19.15.34.29.46.45.11.14.2.3.26.46.11.27.21.55.32.82.13.34.26.67.38,1.01-.09-.21-.21-.39-.36-.57-.19-.22-.44-.42-.74-.61-.27-.17-.59-.33-.94-.48-.21-.09-.44-.18-.68-.26-.15-.06-.31-.11-.48-.16v-.01Z"/>
          <path class="cls-4" d="M455.312,344.025l-4.68,2.7c-.03-.39-.05-.78-.05-1.19-.01-.2,0-.4.01-.6,1.37.39,3.01.07,4.72-.91Z"/>
          <path class="cls-3" d="M454.772,225.535c.14.12.29.24.43.37-4.32-1.92-9.9-1.15-15.7,2.2l-47.43,27.38-1.58.92c-12.22,7.05-22.13,24.22-22.13,38.33v4.97c-.37-.1-.72-.22-1.04-.35l-.08-.03c-1.43-.63-2.27-1.57-2.27-2.61v-1.83c0-2.24.25-4.63.73-7.09s1.19-4.98,2.12-7.5c1.14-3.08,2.59-6.14,4.3-9.05s3.67-5.67,5.79-8.15c3.41-3.99,7.23-7.25,11.05-9.46.04-.02.08-.05.12-.07.05-.02.09-.05.13-.07l46.83-27.04c.04-.03.09-.05.13-.07.04-.03.08-.05.12-.08,1.87-1.08,3.74-1.91,5.56-2.46,1.91-.58,3.76-.87,5.5-.84,2.12.03,4.09.52,5.8,1.46.56.3,1.08.64,1.58,1.04l.04.03Z"/>
          <path class="cls-10" d="M452.282,223.555l2.45,1.95c-.5-.4-1.02-.74-1.58-1.04-1.71-.94-3.68-1.43-5.8-1.46-1.74-.03-3.59.26-5.5.84-1.82.55-3.69,1.38-5.56,2.46-.04.03-.08.05-.12.08-.04.02-.09.04-.13.07l-46.83,27.04c-.04.02-.08.05-.13.07-.04.02-.08.05-.12.07-3.82,2.21-7.64,5.47-11.05,9.46-2.12,2.48-4.08,5.24-5.79,8.15s-3.16,5.97-4.3,9.05c-.93,2.52-1.64,5.04-2.12,7.5s-.73,4.85-.73,7.09v1.83c0,1.04.84,1.98,2.27,2.61l-8.97-3.77-3.21-1.34c-.7-.29-1.1-1.07-1.1-2.12l-1.77-.87c.38-.4.77-.81,1.17-1.21.59-.58,1.19-1.22,1.81-1.89,1.45-1.58,2.99-3.39,4.57-5.38,1.59-1.99,3.22-4.15,4.84-6.42,1.62-2.26,3.24-4.64,4.8-7.04,1.32-2.03,2.7-4.27,3.95-6.43,1.25-2.17,2.36-4.27,3.23-6.08,1.01-2.13,1.87-4.23,2.42-6.08.12-.38.22-.75.31-1.11,2.24-9,7.26-15.55,15.16-20.11.25-.14.5-.29.75-.42.25-.14.51-.28.77-.42,5.99-3.12,13.78-5.39,23.68-6.83.78-.11,1.58-.22,2.39-.32,1.69-.22,3.43-.41,5.23-.58h.01c.65-.06,1.32-.12,1.99-.18.62-.05,1.25-.1,1.87-.14,3-.21,5.93-.29,8.45-.2,2.15.07,4.33.27,6.22.62,1.88.36,3.48.87,4.69,1.45.68.33,1.27.7,1.78,1.1Z"/>
          <path class="cls-4" d="M427.702,249.455c3.09,1.79,3.09,7.56,0,12.91s-8.09,8.24-11.18,6.45c-.18-.1-.35-.22-.51-.36,3.37,1.23,8.34-2.22,11.11-7.7,2.38-4.73,2.38-9.57.01-11.56.2.06.39.15.57.26Z"/>
          <path class="cls-7" d="M427.132,249.195c2.37,1.99,2.37,6.83-.01,11.56-2.77,5.48-7.74,8.93-11.11,7.7h-.01c-2.56-2.11-2.39-7.52.52-12.54,2.9-5.03,7.5-7.88,10.6-6.73l.01.01ZM423.382,258.715v-3.16l-2.38-.22-1.1,1.37-1.27,1.58v3.17l2.37.21,2.38-2.95Z"/>
          <path class="cls-10" d="M424.552,219.325l2.72,1.58c-21.23-11.71-55.26,8.39-76,44.88-20.6,36.22-20.38,75.01.43,87.02l-3.16-1.83c-.12-.07-.24-.14-.36-.22-20.63-12.35-20.51-51.4.36-87.55,20.93-36.25,54.83-55.89,75.83-43.98.06.03.12.07.18.1Z"/>
          <path class="cls-3" d="M417.932,349.575c-1.83-.89-3.62-1.87-5.36-2.92l.01-.01c-.21-.15-.41-.3-.6-.45-1.96-1.51-3.69-3.29-5.13-5.3-.24-.33-.47-.66-.71-1-.37-.54-.76-1.11-1.16-1.7-1.19-1.79-2.46-3.85-3.72-6.01-.82-1.42-1.64-2.9-2.46-4.43-.44-.83-.87-1.67-1.3-2.54-.7-1.42-1.29-2.7-1.74-3.82-.4-.97-.66-1.72-.82-2.31-.27-.94-.34-1.51-.33-2.13,0-.5.08-.99.22-1.45.17-.54.41-1.04.67-1.51.26-.46.55-.89.81-1.27.16-.22.33-.45.5-.68.37-.5.78-1.01,1.22-1.53.47-.55.97-1.12,1.5-1.72.44-.49.91-1,1.39-1.52.04-.05.09-.1.14-.16.05-.05.1-.1.15-.16h-.01c1.84-1.92,3.58-3.94,5.19-6.06.16-.23.32-.45.48-.68,1.64-2.37,3.45-4.62,5.42-6.72.05-.05.1-.11.15-.17.06-.05.11-.11.16-.16.77-.82,1.76-1.49,2.88-1.92.81-.32,1.68-.5,2.55-.53.66-.03,1.31.03,1.92.16.59.13,1.15.33,1.64.6.73.39,1.32.91,1.73,1.51.46.66.71,1.41.74,2.2v.36c-.01.05-.01.1-.01.14,0,.05,0,.1-.01.14h.01c-.35,7.67-.65,15.34-.93,23.01h.01c-.01.09-.01.17-.01.25s-.01.16-.01.24l.07.01c-.7,10.93-.48,21.9.68,32.79v.01c-.28-.1-.56-.21-.84-.32-1.73-.68-3.43-1.42-5.09-2.24ZM422.962,296.305c-.01-.1-.01-.19-.02-.29-.07-.64-.31-1.24-.7-1.76-.35-.46-.82-.86-1.39-1.16-.39-.2-.82-.36-1.27-.46-.47-.1-.97-.15-1.47-.13-.67.02-1.34.15-1.99.38-.89.32-1.71.82-2.39,1.46-.1.1-.21.21-.31.32-1.91,2.03-3.66,4.2-5.24,6.49-.16.23-.32.47-.48.71-1.54,2.23-3.21,4.36-5.01,6.39h.01c-.05.06-.1.11-.14.17-.05.05-.1.11-.14.16-.47.55-.91,1.07-1.34,1.58-.52.61-1,1.19-1.45,1.75-.43.54-.82,1.05-1.18,1.54-.17.23-.33.45-.48.68-.25.36-.52.78-.76,1.21s-.45.87-.58,1.3c-.11.35-.17.69-.17,1.04-.01.42.03.8.26,1.59.15.5.39,1.16.78,2.08.45,1.06,1.04,2.31,1.76,3.7.43.85.87,1.68,1.31,2.49.82,1.51,1.64,2.96,2.45,4.35,1.24,2.12,2.47,4.13,3.59,5.88.38.58.74,1.13,1.09,1.66.22.33.45.66.68.99,1.42,1.97,3.11,3.72,5.04,5.2.21.16.42.32.63.47.44.32.94.65,1.49,1,.39.25.82.51,1.26.76.59.35,1.22.69,1.79,1,.35.18.69.36,1.02.52.34.16.66.32.96.46.44.2.85.37,1.18.49.35.13.63.22.83.26.09.02.17.03.23.03s.1-.01.12-.04c.01-.01.02-.01.03-.03,0-.01,0-.02-.01-.03l-.06.01c-.96-10.39-1.17-20.83-.61-31.24h-.07c0-.08,0-.15.01-.23v-.22c.17-7.42.41-14.83.74-22.25h-.01c.01-.09.01-.18.01-.28Z"/>
          <polygon class="cls-6" points="423.382 255.555 423.382 258.715 419.902 256.705 421.002 255.335 423.382 255.555"/>
          <polygon class="cls-6" points="423.382 258.715 421.002 261.665 418.632 260.295 418.632 258.285 419.902 256.705 423.382 258.715"/>
          <path class="cls-8" d="M422.942,296.015c.01.1.01.19.02.29,0,.1,0,.19-.01.28h.01c-.33,7.42-.57,14.83-.74,22.25v.22c-.01.08-.01.15-.01.23h.07c-.56,10.41-.35,20.85.61,31.24l.06-.01c.01.01.01.02.01.03-.01.02-.02.02-.03.03-.02.03-.06.04-.12.04s-.14-.01-.23-.03c-.2-.04-.48-.13-.83-.26-.33-.12-.74-.29-1.18-.49-.3-.14-.62-.3-.96-.46-.33-.16-.67-.34-1.02-.52-.57-.31-1.2-.65-1.79-1-.44-.25-.87-.51-1.26-.76-.55-.35-1.05-.68-1.49-1-.21-.15-.42-.31-.63-.47-1.93-1.48-3.62-3.23-5.04-5.2-.23-.33-.46-.66-.68-.99-.35-.53-.71-1.08-1.09-1.66-1.12-1.75-2.35-3.76-3.59-5.88-.81-1.39-1.63-2.84-2.45-4.35-.44-.81-.88-1.64-1.31-2.49-.72-1.39-1.31-2.64-1.76-3.7-.39-.92-.63-1.58-.78-2.08-.23-.79-.27-1.17-.26-1.59,0-.35.06-.69.17-1.04.13-.43.34-.87.58-1.3s.51-.85.76-1.21c.15-.23.31-.45.48-.68.36-.49.75-1,1.18-1.54.45-.56.93-1.14,1.45-1.75.43-.51.87-1.03,1.34-1.58.04-.05.09-.11.14-.16.04-.06.09-.11.14-.17h-.01c1.8-2.03,3.47-4.16,5.01-6.39.16-.24.32-.48.48-.71,1.58-2.29,3.33-4.46,5.24-6.49.1-.11.21-.22.31-.32.68-.64,1.5-1.14,2.39-1.46.65-.23,1.32-.36,1.99-.38.5-.02,1,.03,1.47.13.45.1.88.26,1.27.46.57.3,1.04.7,1.39,1.16.39.52.63,1.12.7,1.76Z"/>
          <path class="cls-9" d="M427.272,220.905c-1.8.17-3.54.36-5.23.58v-.01c-23.27-6.18-55.91,18.55-72.89,55.23-13.49,29.11-13.37,58.03.3,71.32.74,1.59,1.55,3.21,2.41,4.87-.05-.03-.11-.06-.16-.09-20.81-12.01-21.03-50.8-.43-87.02,20.74-36.49,54.77-56.59,76-44.88Z"/>
          <path class="cls-5" d="M419.652,221.795l-6.59.9c-5.47.75-11.24,2.75-17.09,5.94-.25.13-.51.27-.77.42-.25.13-.5.28-.75.42-28.3,16.34-51.32,55.63-52.14,88.55-.02.6-.03,1.21-.03,1.81,0,7.35,1.16,13.96,3.43,19.51l1.22,2.97.1.25c.48,1.18.99,2.34,1.52,3.52.16.36.33.73.5,1.09.13.28.26.56.4.85-13.67-13.29-13.79-42.21-.3-71.32,16.98-36.68,49.62-61.41,72.89-55.23v.01c-.81.1-1.61.21-2.39.32v-.01Z"/>
          <polygon class="cls-6" points="421.002 261.665 418.632 261.455 418.632 260.295 421.002 261.665"/>
          <path class="cls-3" d="M392.792,339.435c3.09,1.78,3.09,7.56,0,12.91s-8.09,8.23-11.18,6.45c-.18-.1-.35-.22-.5-.35,3.38,1.21,8.34-2.24,11.1-7.71,2.38-4.74,2.38-9.57.01-11.56.2.06.39.15.57.26Z"/>
          <path class="cls-7" d="M392.222,339.175c2.37,1.99,2.37,6.82-.01,11.56-2.76,5.47-7.72,8.92-11.1,7.71-2.58-2.1-2.41-7.52.5-12.56,2.9-5.02,7.5-7.87,10.6-6.72l.01.01ZM388.462,348.685v-3.16l-2.37-.21-1.1,1.37-1.27,1.58v3.16l2.37.21,2.37-2.95Z"/>
          <polygon class="cls-6" points="388.462 345.525 388.462 348.685 384.992 346.685 386.092 345.315 388.462 345.525"/>
          <polygon class="cls-6" points="388.462 348.685 386.092 351.635 383.722 350.275 383.722 348.265 384.992 346.685 388.462 348.685"/>
          <polygon class="cls-6" points="386.092 351.635 383.722 351.425 383.722 350.275 386.092 351.635"/>
          <path class="cls-8" d="M394.452,229.475c-7.9,4.56-12.92,11.11-15.16,20.11-.09.36-.19.73-.31,1.11-.55,1.85-1.41,3.95-2.42,6.08-.87,1.81-1.98,3.91-3.23,6.08-1.25,2.16-2.63,4.4-3.95,6.43-1.56,2.4-3.18,4.78-4.8,7.04-1.62,2.27-3.25,4.43-4.84,6.42-1.58,1.99-3.12,3.8-4.57,5.38-.62.67-1.22,1.31-1.81,1.89-.4.4-.79.81-1.17,1.21-1.14,1.23-2.19,2.47-3.14,3.73-.17.23-.34.46-.5.69-.57.84-1.11,1.77-1.62,2.77-1.02,2-1.9,4.27-2.59,6.66-.7,2.38-1.23,4.89-1.57,7.39-.25,1.87-.4,3.74-.46,5.56.82-32.92,23.84-72.21,52.14-88.55Z"/>
          <path class="cls-3" d="M374.112,376.805l-.01.01c-.32-.1-.63-.22-.93-.34l-.15-.06c-.31-.14-.61-.28-.9-.44-1.71-.94-3.16-2.32-4.3-4.08-1.86-2.88-2.85-6.8-2.85-11.29v-38.34c0-1.29,1.29-2.55,3.39-3.3v43.31c0,6.58,2.05,11.73,5.75,14.53Z"/>
          <path class="cls-10" d="M373.022,376.415l-2.96-1.24c-.23-.1-.45-.2-.68-.32-1.56-.76-3.18-1.94-4.8-3.47s-3.25-3.4-4.84-5.51c-1.58-2.11-3.12-4.47-4.57-6.94-.62-1.05-1.22-2.12-1.81-3.2-.52-.96-1.02-1.91-1.5-2.84-.86-1.66-1.67-3.28-2.41-4.87-.14-.29-.27-.57-.4-.85-.17-.36-.34-.73-.5-1.09-.53-1.18-1.04-2.34-1.52-3.52l-.1-.25c-1.02-2.51-1.9-5.02-2.59-7.54-.7-2.53-1.23-5.06-1.57-7.57-.33-2.5-.49-4.99-.49-7.37,0-.6.01-1.2.03-1.81.06-1.82.21-3.69.46-5.56.34-2.5.87-5.01,1.57-7.39.69-2.39,1.57-4.66,2.59-6.66.51-1,1.05-1.93,1.62-2.77.16-.23.33-.46.5-.69.95-1.26,2-2.5,3.14-3.73l1.77.87v25.56c0-2.02,1.44-4.48,3.2-5.5l2.7-1.56,3.96,2.29c.48.27,1.01.44,1.56.51.75.09,1.53-.02,2.29-.27.23-.07.46-.16.69-.26v6.1c-2.1.75-3.39,2.01-3.39,3.3v38.34c0,4.49.99,8.41,2.85,11.29,1.14,1.76,2.59,3.14,4.3,4.08.29.16.59.3.9.44Z"/>
          <path class="cls-7" d="M368.362,309.235v3.63c-.23.1-.46.19-.69.26-.76.25-1.54.36-2.29.27-.55-.07-1.08-.24-1.56-.51l-3.96-2.29-3.15-1.82c-.46-.27-.86-.65-1.17-1.13-1.76-2.76-.54-8.17,2.73-12.09l8.97,3.77.08.03c.32.13.67.25,1.04.35v2.43l-.69.86-1.47,1.83v4.22l2.16.19Z"/>
          <polygon class="cls-6" points="368.362 308.745 368.362 309.235 366.202 309.045 366.202 307.495 368.362 308.745"/>
          <polygon class="cls-6" points="368.362 303.375 368.362 308.745 366.202 307.495 366.202 306.065 368.362 303.375"/>
          <polygon class="cls-6" points="368.362 303.085 368.362 303.375 366.202 306.065 366.202 304.825 367.672 302.995 368.362 303.085"/>
          <path class="cls-4" d="M359.862,310.595l-2.7,1.56c-1.76,1.02-3.2,3.48-3.2,5.5v-25.56c0,1.05.4,1.83,1.1,2.12l3.21,1.34c-3.27,3.92-4.49,9.33-2.73,12.09.31.48.71.86,1.17,1.13l3.15,1.82Z"/>
        </g>
        <g>
          <path class="cls-1" d="M342.612,72.065c-.49.16-.98.39-1.48.67"/>
          <line class="cls-1" x1="179.882" y1="352.025" x2="179.882" y2="216.945"/>
          <path class="cls-1" d="M179.882,216.945c0-.58.05-1.18.16-1.81"/>
          <path class="cls-1" d="M180.042,353.645c-.11-.5-.16-1.04-.16-1.62"/>
          <line class="cls-1" x1="224.142" y1="140.285" x2="341.132" y2="72.735"/>
          <path class="cls-1" d="M222.652,141.325c.49-.41.99-.76,1.49-1.04"/>
          <line class="cls-1" x1="221.682" y1=".375" x2="344.232" y2="71.125"/>
          <line class="cls-1" x1="180.042" y1="355.515" x2="6.942" y2="255.575"/>
          <line class="cls-1" x1="180.042" y1="355.525" x2="35.732" y2="272.205"/>
          <path class="cls-1" d="M344.582,173.165c-.17-.04-.35-.08-.52-.11-8.87-1.93-19.47.23-30.52,6.52"/>
          <path class="cls-1" d="M357.692,180.725c-2.67-2.82-5.78-4.93-9.23-6.32-1.25-.51-2.54-.92-3.87-1.24"/>
          <path class="cls-1" d="M271.572,307.535c2.93,2.3,6.32,3.95,10.11,4.85"/>
          <path class="cls-1" d="M268.602,304.815c.91.98,1.9,1.89,2.95,2.71"/>
          <path class="cls-1" d="M268.202,304.385c.12.14.25.28.38.42"/>
          <path class="cls-1" d="M258.612,274.715c.08,12.7,3.49,22.95,9.57,29.66"/>
          <path class="cls-1" d="M285.222,314.425c-7.59-.94-13.96-4.62-18.57-10.72-5.54-7.33-8.13-17.47-8.04-28.99.14-21.48,9.59-47.76,26.6-69.5,8.87-11.34,18.65-19.99,28.33-25.65,18.8-10.99,37.18-10.67,47.67,3.17,0,.01.01.02.02.03"/>
          <path class="cls-1" d="M365.552,185.755c-.01-.02-.02-.03-.03-.05-13.26-25.22-47.07-19.96-75.56,11.77-28.5,31.74-40.88,77.96-27.64,103.24,5.66,10.81,15.46,16.46,27.65,15.96"/>
          <path class="cls-1" d="M362.772,129.445c-33.96-19.6-89.01,12.18-122.96,70.99-33.96,58.81-33.96,122.38,0,141.98"/>
          <polyline class="cls-1" points="180.042 191.115 180.042 200.605 180.042 215.135 180.042 353.645 180.042 355.515 180.042 355.525 180.042 378.035"/>
          <line class="cls-1" x1="180.042" y1="190.575" x2="180.042" y2="191.115"/>
          <path class="cls-1" d="M180.042,378.035c0,6.69,2.3,11.77,6.39,14.13"/>
          <path class="cls-1" d="M379.162,58.345c-4.09-2.36-9.64-1.81-15.43,1.53"/>
          <line class="cls-1" x1="201.852" y1="153.335" x2="201.382" y2="153.605"/>
          <polyline class="cls-1" points="363.732 59.875 342.622 72.065 342.612 72.065 222.652 141.325 210.072 148.585 201.852 153.335"/>
          <path class="cls-1" d="M180.042,190.575c0-2.43.3-4.95.87-7.5.35-1.56.8-3.13,1.34-4.7,2.07-6.03,5.48-11.94,9.67-16.76,1.09-1.25,2.23-2.43,3.41-3.51,1.92-1.76,3.95-3.29,6.05-4.5"/>
          <path class="cls-1" d="M201.852,153.335c-12.05,6.95-21.81,23.87-21.81,37.78"/>
          <path class="cls-1" d="M217.982,399.945c-6.03,3.48-11.48,3.81-15.43,1.52-3.95-2.27-6.39-7.16-6.39-14.12"/>
          <line class="cls-1" x1="196.162" y1="387.345" x2="196.162" y2="200.425"/>
          <line class="cls-1" x1="200.902" y1="200.425" x2="200.902" y2="387.345"/>
          <path class="cls-1" d="M196.162,200.425c0-13.91,9.77-30.83,21.82-37.78"/>
          <path class="cls-1" d="M220.352,166.745c-10.74,6.2-19.45,21.28-19.45,33.68"/>
          <line class="cls-1" x1="217.982" y1="162.645" x2="379.862" y2="69.185"/>
          <line class="cls-1" x1="382.232" y1="73.285" x2="220.352" y2="166.745"/>
          <line class="cls-1" x1="401.672" y1="81.775" x2="401.672" y2="84.515"/>
          <path class="cls-1" d="M395.282,67.655c3.95,2.27,6.39,7.16,6.39,14.12"/>
          <path class="cls-1" d="M379.862,69.185c5.91-3.41,11.26-3.8,15.19-1.66"/>
          <path class="cls-1" d="M401.672,84.515c0-12.4-8.7-17.43-19.44-11.23"/>
          <line class="cls-1" x1="401.672" y1="211.275" x2="401.672" y2="84.515"/>
          <line class="cls-1" x1="217.982" y1="399.945" x2="219.772" y2="398.905"/>
          <line class="cls-1" x1="220.352" y1="398.575" x2="330.132" y2="335.195"/>
          <path class="cls-1" d="M200.902,387.345c0,12.17,8.4,17.24,18.87,11.56.19-.11.38-.22.58-.33"/>
          <path class="cls-1" d="M219.842,369.455c1.71-1.12,3.45-1.43,4.75-.68,2.41,1.38,2.41,5.88,0,10.04-2.4,4.16-6.29,6.4-8.69,5.02-1.29-.75-1.88-2.38-1.78-4.39.07-1.73.67-3.72,1.78-5.65,1.1-1.9,2.51-3.41,3.94-4.34Z"/>
          <path class="cls-1" d="M381.942,88.705c1.7-1.11,3.44-1.42,4.74-.67,2.4,1.38,2.4,5.88,0,10.04s-6.3,6.4-8.7,5.02c-1.3-.75-1.9-2.42-1.78-4.46.09-1.71.68-3.68,1.78-5.58s2.5-3.4,3.94-4.34"/>
          <path class="cls-1" d="M219.842,182.295c1.71-1.12,3.45-1.43,4.75-.68,2.41,1.38,2.41,5.88,0,10.04-2.4,4.16-6.29,6.4-8.69,5.02-1.29-.75-1.88-2.38-1.78-4.39.07-1.73.67-3.72,1.78-5.65,1.1-1.9,2.51-3.41,3.94-4.34Z"/>
          <path class="cls-1" d="M210.682,213.885c2.62-1.62,5.26-2.03,7.26-.88,3.86,2.23,3.86,9.45,0,16.14-3.86,6.68-10.11,10.29-13.97,8.07-2.03-1.17-3-3.74-2.89-6.87.04-1.09.2-2.24.5-3.43.04-.16.08-.32.13-.48.1-.39.22-.79.36-1.19.47-1.38,1.1-2.79,1.9-4.17.28-.49.57-.96.89-1.41.72-1.09,1.51-2.07,2.34-2.94.21-.23.43-.44.64-.64.92-.89,1.88-1.63,2.84-2.2Z"/>
          <path class="cls-1" d="M352.712,91.115c.92-.89,1.88-1.64,2.84-2.21,2.62-1.61,5.26-2.03,7.26-.87,3.86,2.23,3.86,9.45,0,16.13-3.85,6.69-10.11,10.3-13.97,8.07-2.03-1.17-3-3.73-2.88-6.87.04-1.08.2-2.23.49-3.42.04-.16.08-.32.13-.48.1-.39.23-.79.36-1.19.47-1.38,1.1-2.79,1.9-4.17.28-.49.58-.96.89-1.42"/>
          <path class="cls-1" d="M349.742,94.685c.71-1.08,1.5-2.07,2.33-2.94l.63-.63"/>
          <path class="cls-1" d="M240.662,366.275c.71-1.08,1.51-2.06,2.33-2.93.21-.23.43-.44.64-.64.88-.85,1.8-1.57,2.72-2.14"/>
          <path class="cls-1" d="M246.422,360.535c2.64-1.64,5.31-2.07,7.32-.91,3.85,2.23,3.85,9.45,0,16.14-3.86,6.68-10.12,10.29-13.98,8.06-2.03-1.17-3-3.73-2.88-6.86.04-1.09.2-2.24.5-3.43.03-.16.07-.32.12-.48.1-.39.23-.79.36-1.19.47-1.38,1.1-2.79,1.9-4.17.28-.49.58-.96.89-1.42"/>
          <path class="cls-1" d="M214.112,379.375c0,.02,0,.05.01.07.24,3.23,2.79,4.29,5.72,2.35,2.95-1.95,5.17-6.19,4.96-9.48-.19-2.96-2.3-4.18-4.96-2.86"/>
          <path class="cls-1" d="M247.502,360.035c-.35.14-.71.3-1.08.5-.02.01-.05.02-.07.03"/>
          <path class="cls-1" d="M237.012,378.225c.03.21.06.41.11.61.99,4.21,4.81,5.47,9.23,2.7,5.01-3.14,8.9-10.28,8.69-15.95-.17-4.65-3.08-6.91-6.95-5.75-.19.06-.38.13-.58.2"/>
          <path class="cls-1" d="M236.882,376.965c.02.44.06.86.12,1.26"/>
          <path class="cls-1" d="M376.202,98.635c.21,3.28,2.77,4.37,5.72,2.42s5.18-6.19,4.97-9.48c-.19-2.95-2.3-4.17-4.95-2.87-.01,0-.01.01-.02.01"/>
          <path class="cls-1" d="M346.212,107.245c.99,4.21,4.8,5.46,9.21,2.7,5.02-3.15,8.91-10.29,8.7-15.96-.17-4.65-3.07-6.9-6.95-5.75-.19.06-.39.13-.59.2-.33.13-.68.28-1.03.47-.04.01-.09.04-.13.06"/>
          <path class="cls-1" d="M346.092,106.625c.03.21.07.42.11.62"/>
          <path class="cls-1" d="M345.962,105.365c.02.44.06.86.12,1.26"/>
          <path class="cls-1" d="M214.112,192.215c0,.02,0,.05.01.07.24,3.23,2.79,4.29,5.72,2.35,2.95-1.95,5.17-6.19,4.96-9.48-.19-2.96-2.3-4.18-4.96-2.86"/>
          <path class="cls-1" d="M201.212,231.605c.03.21.07.41.12.61.99,4.21,4.81,5.47,9.22,2.7,5.02-3.14,8.91-10.28,8.7-15.95-.18-4.65-3.08-6.91-6.95-5.75-.2.06-.4.13-.6.21-.33.12-.67.27-1.02.46-.04.01-.09.04-.13.06"/>
          <path class="cls-1" d="M201.082,230.345c.02.44.06.86.12,1.26"/>
          <path class="cls-1" d="M243.942,344.805c6.56,3.79,14.15,5.77,22.37,5.85,8.32.09,17.27-1.75,26.41-5.4,9.06-3.62,18.3-9.01,27.3-15.9"/>
          <path class="cls-1" d="M391.562,205.435c.21-1.6.39-3.2.54-4.78,1.09-11.3.68-21.97-1.22-31.45-1.89-9.47-5.28-17.77-10.01-24.47-3.83-5.41-8.54-9.77-13.97-12.9"/>
          <line class="cls-1" x1="243.942" y1="344.805" x2="239.812" y2="342.415"/>
          <line class="cls-1" x1="366.902" y1="131.835" x2="362.772" y2="129.445"/>
          <line class="cls-1" x1="202.552" y1="401.475" x2="186.432" y2="392.165"/>
          <polyline class="cls-1" points="395.282 67.655 395.052 67.525 379.162 58.345"/>
          <path class="cls-1" d="M344.022,173.035c.01.01.03.01.04.02.44.19.87.39,1.29.6.47.23.93.48,1.38.74"/>
          <path class="cls-1" d="M269.362,305.215c-.39-.27-.78-.54-1.16-.83q-.01,0-.02-.01"/>
          <path class="cls-1" d="M270.712,306.045c-.44-.25-.88-.52-1.31-.81"/>
          <path class="cls-1" d="M285.282,314.455c-4.14-2.51-7.59-6.22-10.16-11.02-12.66-23.69-1.16-67.32,25.69-97.44,20.64-23.16,44.35-31.6,59.96-23.49.15.07.29.15.44.23,1.52.83,2.96,1.82,4.31,2.97,2.65,2.25,4.95,5.13,6.83,8.64"/>
          <path class="cls-1" d="M300.812,318.265c-3.9.13-7.53-.41-10.84-1.59-1.48-.53-2.9-1.18-4.24-1.96"/>
          <path class="cls-1" d="M424.112,219.065c-20.91-11.98-54.75,7.47-75.75,43.62-21.09,36.3-21.26,75.69-.36,87.98.05.04.11.07.18.1.06.04.12.08.18.11"/>
          <path class="cls-1" d="M424.372,219.215c-.06-.04-.12-.07-.18-.1"/>
          <path class="cls-1" d="M378.342,219.195c8.08-4.79,16.17-7.5,23.62-7.75,5.47-.19,10.59.95,15.11,3.56"/>
          <path class="cls-1" d="M341.062,346.665c-4.52-2.61-8.06-6.47-10.63-11.3-3.41-6.38-5.11-14.45-5.11-23.5,0-15.88,5.25-34.8,15.74-52.97,10.23-17.72,23.56-31.47,36.96-39.51"/>
          <path class="cls-1" d="M325.322,308.215c0-32.26,22.65-71.49,50.59-87.62"/>
          <path class="cls-1" d="M291.132,312.675c-19.76-11.41-19.76-48.39,0-82.61,19.75-34.22,51.78-52.71,71.54-41.3"/>
          <polyline class="cls-1" points="285.732 314.715 285.282 314.455 285.222 314.425 281.682 312.385 275.362 308.735 270.712 306.045"/>
          <polyline class="cls-1" points="361.742 183.065 361.232 182.765 360.772 182.505 357.692 180.725 351.372 177.075 346.732 174.395"/>
          <polyline class="cls-1" points="348.182 350.775 348.002 350.665 341.062 346.665"/>
          <polyline class="cls-1" points="424.192 219.115 424.112 219.065 417.072 215.005"/>
          <polyline class="cls-1" points="330.452 335.375 330.432 335.365 330.132 335.195 320.022 329.355 319.912 329.285 300.812 318.265 291.132 312.675"/>
          <polyline class="cls-1" points="402.002 211.465 401.962 211.445 401.672 211.275 391.562 205.435 391.452 205.375 372.352 194.345 362.672 188.765"/>
          <polyline class="cls-1" points="375.912 220.595 378.022 219.385 378.342 219.195 379.072 218.775"/>
          <line class="cls-1" x1="325.322" y1="308.215" x2="325.322" y2="311.865"/>
          <path class="cls-1" d="M353.962,317.655c0-2.02,1.44-4.48,3.2-5.5"/>
          <path class="cls-1" d="M364.972,322.265c0-1.29,1.29-2.55,3.39-3.3"/>
          <line class="cls-1" x1="359.862" y1="310.595" x2="357.162" y2="312.155"/>
          <path class="cls-1" d="M367.242,299.325c-1.43-.63-2.27-1.57-2.27-2.61"/>
          <path class="cls-1" d="M368.362,299.705c-.37-.1-.72-.22-1.04-.35"/>
          <path class="cls-1" d="M355.062,294.215c-.7-.29-1.1-1.07-1.1-2.12"/>
          <line class="cls-1" x1="364.972" y1="294.885" x2="364.972" y2="296.715"/>
          <line class="cls-1" x1="364.972" y1="322.265" x2="364.972" y2="360.605"/>
          <line class="cls-1" x1="353.962" y1="317.655" x2="353.962" y2="292.095"/>
          <path class="cls-1" d="M349.052,294.955c.95-1.26,2-2.5,3.14-3.73.38-.4.77-.81,1.17-1.21"/>
          <path class="cls-1" d="M353.362,355.735c-.52-.96-1.02-1.91-1.5-2.84-.86-1.66-1.67-3.28-2.41-4.87-.14-.29-.27-.57-.4-.85"/>
          <path class="cls-1" d="M373.172,376.475c.3.12.61.24.93.34"/>
          <path class="cls-1" d="M364.972,360.605c0,4.49.99,8.41,2.85,11.29,1.14,1.76,2.59,3.14,4.3,4.08.29.16.59.3.9.44"/>
          <path class="cls-1" d="M388.962,253.635c-3.82,2.21-7.64,5.47-11.05,9.46-2.12,2.48-4.08,5.24-5.79,8.15s-3.16,5.97-4.3,9.05c-.93,2.52-1.64,5.04-2.12,7.5s-.73,4.85-.73,7.09"/>
          <path class="cls-1" d="M454.732,225.505c-.5-.4-1.02-.74-1.58-1.04-1.71-.94-3.68-1.43-5.8-1.46-1.74-.03-3.59.26-5.5.84-1.82.55-3.69,1.38-5.56,2.46"/>
          <path class="cls-1" d="M455.202,225.905c-.14-.13-.29-.25-.43-.37"/>
          <line class="cls-1" x1="436.042" y1="226.455" x2="389.212" y2="253.495"/>
          <path class="cls-1" d="M436.292,226.305c-.04.03-.08.05-.12.08-.04.02-.09.04-.13.07"/>
          <path class="cls-1" d="M389.212,253.495c-.04.02-.08.05-.13.07-.04.02-.08.05-.12.07"/>
          <path class="cls-1" d="M353.362,355.735c.59,1.08,1.19,2.15,1.81,3.2,1.45,2.47,2.99,4.83,4.57,6.94,1.59,2.11,3.22,3.98,4.84,5.51s3.24,2.71,4.8,3.47c.23.12.45.22.68.32"/>
          <path class="cls-1" d="M379.292,249.585c-.09.36-.19.73-.31,1.11-.55,1.85-1.41,3.95-2.42,6.08-.87,1.81-1.98,3.91-3.23,6.08-1.25,2.16-2.63,4.4-3.95,6.43-1.56,2.4-3.18,4.78-4.8,7.04-1.62,2.27-3.25,4.43-4.84,6.42-1.58,1.99-3.12,3.8-4.57,5.38-.62.67-1.22,1.31-1.81,1.89"/>
          <path class="cls-1" d="M427.282,220.905c.65-.06,1.32-.12,1.99-.18"/>
          <path class="cls-1" d="M395.202,229.055c.25-.14.51-.28.77-.42,5.99-3.12,13.78-5.39,23.68-6.83.78-.11,1.58-.22,2.39-.32,1.69-.22,3.43-.41,5.23-.58"/>
          <path class="cls-1" d="M379.292,249.585c2.24-9,7.26-15.55,15.16-20.11"/>
          <path class="cls-1" d="M452.282,223.555c-.51-.4-1.1-.77-1.78-1.1-1.21-.58-2.81-1.09-4.69-1.45-1.89-.35-4.07-.55-6.22-.62-2.52-.09-5.45-.01-8.45.2-.62.04-1.25.09-1.87.14"/>
          <path class="cls-1" d="M342.282,319.835c0-.6.01-1.21.03-1.81.82-32.92,23.84-72.21,52.14-88.55"/>
          <path class="cls-1" d="M342.282,319.835c0-.6.01-1.2.03-1.81.06-1.82.21-3.69.46-5.56.34-2.5.87-5.01,1.57-7.39.69-2.39,1.57-4.66,2.59-6.66.51-1,1.05-1.93,1.62-2.77.16-.23.33-.46.5-.69"/>
          <path class="cls-1" d="M346.932,342.315c-1.02-2.51-1.9-5.02-2.59-7.54-.7-2.53-1.23-5.06-1.57-7.57-.33-2.5-.49-4.99-.49-7.37"/>
          <path class="cls-1" d="M349.052,347.175c-.17-.36-.34-.73-.5-1.09-.53-1.18-1.04-2.34-1.52-3.52"/>
          <path class="cls-1" d="M394.452,229.475c.25-.14.5-.29.75-.42.26-.15.52-.29.77-.42,5.85-3.19,11.62-5.19,17.09-5.94"/>
          <path class="cls-1" d="M349.452,348.025c-13.67-13.29-13.79-42.21-.3-71.32,16.98-36.68,49.62-61.41,72.89-55.23"/>
          <path class="cls-1" d="M351.862,352.895c-.05-.03-.11-.06-.16-.09-20.81-12.01-21.03-50.8-.43-87.02,20.74-36.49,54.77-56.59,76-44.88"/>
          <path class="cls-1" d="M348.542,350.975c-.12-.07-.24-.14-.36-.22-20.63-12.35-20.51-51.4.36-87.55,20.93-36.25,54.83-55.89,75.83-43.98.06.03.12.07.18.1"/>
          <path class="cls-1" d="M345.712,339.345c-2.27-5.55-3.43-12.16-3.43-19.51"/>
          <polyline class="cls-1" points="355.062 294.215 358.272 295.555 367.242 299.325 367.322 299.355"/>
          <polyline class="cls-1" points="370.062 375.175 373.022 376.415 373.172 376.475"/>
          <polyline class="cls-1" points="452.282 223.555 454.732 225.505 454.772 225.535"/>
          <polyline class="cls-1" points="413.062 222.695 419.652 221.795 420.742 221.645"/>
          <line class="cls-1" x1="351.702" y1="352.805" x2="348.542" y2="350.975"/>
          <polyline class="cls-1" points="427.282 220.905 427.272 220.905 424.552 219.325"/>
          <polyline class="cls-1" points="345.712 339.345 346.932 342.315 347.032 342.565"/>
          <path class="cls-1" d="M455.312,344.025c-1.71.98-3.35,1.3-4.72.91h-.01"/>
          <path class="cls-1" d="M463.212,330.325c0,5.05-3.54,11.18-7.9,13.7"/>
          <line class="cls-1" x1="463.212" y1="316.635" x2="463.212" y2="330.325"/>
          <line class="cls-1" x1="450.632" y1="346.725" x2="455.312" y2="344.025"/>
          <path class="cls-1" d="M470.952,317.455c-.78,1.35-2.05,2.08-2.83,1.63s-.78-1.91,0-3.26,2.05-2.08,2.83-1.63.78,1.91,0,3.26Z"/>
          <line class="cls-1" x1="455.312" y1="344.025" x2="464.532" y2="338.695"/>
          <path class="cls-1" d="M464.532,338.695c1.05-.61,2.08-1.6,2.91-2.83"/>
          <path class="cls-1" d="M474.602,308.775c1.65,7.66-1.14,18.2-7.16,27.09"/>
          <path class="cls-1" d="M467.692,340.525c.92-.53,1.82-1.37,2.59-2.38"/>
          <line class="cls-1" x1="467.692" y1="340.525" x2="451.142" y2="350.075"/>
          <path class="cls-1" d="M470.602,337.695c-.1.15-.21.3-.32.45-5.31,7.66-12.27,12.88-18.53,13.87"/>
          <path class="cls-1" d="M423.182,319.335c-.7,10.93-.48,21.9.68,32.79"/>
          <path class="cls-1" d="M423.932,352.115l.03.06"/>
          <path class="cls-1" d="M412.572,346.655c1.74,1.05,3.53,2.03,5.36,2.92,1.66.82,3.36,1.56,5.09,2.24.28.11.56.22.84.32.03.01.07.03.1.04"/>
          <path class="cls-1" d="M411.982,346.195c.19.15.39.3.6.45"/>
          <path class="cls-1" d="M406.852,340.895c1.44,2.01,3.17,3.79,5.13,5.3"/>
          <path class="cls-1" d="M406.142,339.895c.24.34.47.67.71,1"/>
          <path class="cls-1" d="M400.922,307.275c-.48.52-.95,1.03-1.39,1.52-.53.6-1.03,1.17-1.5,1.72-.44.52-.85,1.03-1.22,1.53-.17.23-.34.46-.5.68-.26.38-.55.81-.81,1.27-.26.47-.5.97-.67,1.51-.14.46-.22.95-.22,1.45-.01.62.06,1.19.33,2.13.16.59.42,1.34.82,2.31.45,1.12,1.04,2.4,1.74,3.82.43.87.86,1.71,1.3,2.54.82,1.53,1.64,3.01,2.46,4.43,1.26,2.16,2.53,4.22,3.72,6.01.4.59.79,1.16,1.16,1.7"/>
          <path class="cls-1" d="M407.482,344.955c-.66-.29-1.29-.61-1.9-.96-2.95-1.67-7.19-4.9-10.27-10.9-1.79-3.47-3.35-8.03-4.01-12.91-.38-2.8-.49-5.91-.08-9.17.33-2.58.97-5.2,2.02-7.91"/>
          <path class="cls-1" d="M393.242,303.105c.66-1.7,1.45-3.36,2.37-4.98.93-1.66,1.98-3.25,3.09-4.77,2.32-3.16,5-6.07,7.65-8.63,3.95-3.8,9.6-8.5,15.76-12.06"/>
          <path class="cls-1" d="M401.212,306.955c-.05.06-.1.11-.15.16-.05.06-.1.11-.14.16"/>
          <path class="cls-1" d="M406.392,300.895c-1.61,2.12-3.35,4.14-5.19,6.06"/>
          <path class="cls-1" d="M406.872,300.215c-.16.23-.32.45-.48.68"/>
          <path class="cls-1" d="M412.292,293.495c-1.97,2.1-3.78,4.35-5.42,6.72"/>
          <path class="cls-1" d="M412.602,293.165c-.05.05-.1.11-.16.16-.05.06-.1.12-.15.17"/>
          <path class="cls-1" d="M424.062,295.545v-.36c-.03-.79-.28-1.54-.74-2.2-.41-.6-1-1.12-1.73-1.51-.49-.27-1.05-.47-1.64-.6-.61-.13-1.26-.19-1.92-.16-.87.03-1.74.21-2.55.53-1.12.43-2.11,1.1-2.88,1.92"/>
          <path class="cls-1" d="M424.042,295.825c.01-.04.01-.09.01-.14,0-.04,0-.09.01-.14"/>
          <path class="cls-1" d="M424.052,295.825c-.35,7.67-.65,15.34-.93,23.01"/>
          <path class="cls-1" d="M423.112,319.325c0-.08.01-.16.01-.24s0-.16.01-.25"/>
          <path class="cls-1" d="M450.582,345.535c-.08,6.22,1.93,11.26,6.01,13.62,8.02,4.63,21.03-2.88,29.06-16.78,8.02-13.91,8.02-28.93,0-33.56-4.12-2.38-9.54-1.56-14.93,1.67-2.56,1.53-5.11,3.61-7.51,6.15-2.41,2.55-4.66,5.56-6.62,8.96-3.82,6.61-5.82,13.47-6,19.34-.01.2-.02.4-.01.6Z"/>
          <path class="cls-1" d="M375.312,377.625c-.42-.24-.82-.51-1.2-.82-3.7-2.8-5.75-7.95-5.75-14.53"/>
          <line class="cls-1" x1="368.362" y1="296.555" x2="368.362" y2="294.735"/>
          <polyline class="cls-1" points="368.362 362.275 368.362 318.965 368.362 312.865 368.362 309.235 368.362 308.745 368.362 303.375 368.362 303.085 368.362 302.135 368.362 299.705 368.362 296.555"/>
          <line class="cls-1" x1="392.072" y1="255.485" x2="390.492" y2="256.405"/>
          <path class="cls-1" d="M390.492,256.405c-12.22,7.05-22.13,24.22-22.13,38.33"/>
          <path class="cls-1" d="M368.362,296.555c0-15.12,10.62-33.51,23.71-41.07"/>
          <line class="cls-1" x1="392.072" y1="255.485" x2="439.502" y2="228.105"/>
          <path class="cls-1" d="M439.502,228.105c5.8-3.35,11.38-4.12,15.7-2.2l.01.01c.36.15.72.33,1.06.53"/>
          <line class="cls-1" x1="442.662" y1="229.935" x2="395.242" y2="257.315"/>
          <path class="cls-1" d="M395.242,257.315c-13.1,7.56-23.72,25.95-23.72,41.07"/>
          <line class="cls-1" x1="371.522" y1="298.385" x2="371.522" y2="364.095"/>
          <path class="cls-1" d="M378.472,379.455c4.29,2.48,10.22,2.12,16.77-1.66"/>
          <path class="cls-1" d="M371.522,364.095c0,7.38,2.53,12.62,6.63,15.17"/>
          <path class="cls-1" d="M416.002,268.455c-2.56-2.11-2.39-7.52.52-12.54,2.9-5.03,7.5-7.88,10.6-6.73"/>
          <path class="cls-1" d="M427.132,249.195c.2.06.39.15.57.26,3.09,1.79,3.09,7.56,0,12.91s-8.09,8.24-11.18,6.45c-.18-.1-.35-.22-.51-.36"/>
          <path class="cls-1" d="M392.222,339.175c.2.06.39.15.57.26,3.09,1.78,3.09,7.56,0,12.91s-8.09,8.23-11.18,6.45c-.18-.1-.35-.22-.5-.35-2.58-2.1-2.41-7.52.5-12.56,2.9-5.02,7.5-7.87,10.6-6.72"/>
          <line class="cls-1" x1="398.402" y1="262.785" x2="445.822" y2="235.405"/>
          <line class="cls-1" x1="466.372" y1="247.275" x2="466.372" y2="243.625"/>
          <path class="cls-1" d="M459.172,228.125c-4.27-2.31-10.09-1.9-16.51,1.81"/>
          <path class="cls-1" d="M466.372,243.625c0-7.56-2.65-12.87-6.94-15.35"/>
          <path class="cls-1" d="M445.822,235.405c11.35-6.55,20.55-1.24,20.55,11.87"/>
          <line class="cls-1" x1="466.372" y1="247.275" x2="466.372" y2="281.945"/>
          <line class="cls-1" x1="398.402" y1="375.965" x2="395.242" y2="377.795"/>
          <line class="cls-1" x1="432.742" y1="356.135" x2="398.402" y2="375.965"/>
          <path class="cls-1" d="M398.402,375.965c-11.35,6.55-20.55,1.24-20.55-11.87"/>
          <line class="cls-1" x1="377.852" y1="364.095" x2="377.852" y2="298.385"/>
          <path class="cls-1" d="M377.852,298.385c0-13.11,9.2-29.04,20.55-35.6"/>
          <path class="cls-1" d="M422.112,272.665c6.64-3.83,13.13-5.91,17.88-6.46,2.45-.29,4.88-.22,6.94.51.79.29,1.52.66,2.18,1.14"/>
          <path class="cls-1" d="M458.272,276.335c.12.31.17.65.17,1.01"/>
          <path class="cls-1" d="M455.492,274.275c.24.08.47.17.68.26.35.15.67.31.94.48.3.19.55.39.74.61.15.18.27.36.36.57"/>
          <path class="cls-1" d="M456.782,273.455c-.04-.03-.09-.07-.14-.1-.24-.15-.52-.29-.84-.42-.19-.08-.39-.15-.6-.22"/>
          <path class="cls-1" d="M457.512,274.365c-.06-.16-.15-.32-.26-.46-.12-.16-.27-.3-.46-.45"/>
          <path class="cls-1" d="M458.262,276.315q.01.01.01.02"/>
          <path class="cls-1" d="M449.782,273.675c1.75-.18,3.52-.03,5.23.43h.01"/>
          <path class="cls-1" d="M449.332,272.115c1.82-.19,3.66-.04,5.42.45"/>
          <path class="cls-1" d="M455.012,274.115c.17.05.33.1.48.16"/>
          <path class="cls-1" d="M454.752,272.565l.45.15"/>
          <path class="cls-1" d="M448.642,275.935l-.05-.05c-.22-.29-.37-.57-.42-.83-.09-.42.04-.77.37-1.01.23-.16.55-.28.94-.34"/>
          <path class="cls-1" d="M449.022,272.135c-.53.05-.97.18-1.3.38-.48.3-.72.75-.64,1.3.05.35.22.72.51,1.1.25.33.58.66.99.98.02.01.04.03.06.04.54.42,1.19.8,1.9,1.15.84.4,1.77.73,2.7.98.26.07.52.13.77.19"/>
          <path class="cls-1" d="M449.782,273.675l-.3.03"/>
          <path class="cls-1" d="M449.332,272.115c-.11,0-.21.01-.31.02"/>
          <path class="cls-1" d="M454.352,278.335c1.36.31,2.73.64,4.09,1.01.6.16,1.2.33,1.79.5,2.06.61,4.08,1.28,5.99,2.04l.15.06c1.93.77,3.82,1.65,5.55,2.69.65.39,1.28.8,1.88,1.24"/>
          <path class="cls-1" d="M454.012,278.255c.06.01.11.03.17.04s.11.02.17.04"/>
          <path class="cls-1" d="M408.382,340.425c1.42,1.97,3.11,3.72,5.04,5.2"/>
          <path class="cls-1" d="M422.932,350.575c-.02.03-.06.04-.12.04s-.14-.01-.23-.03c-.2-.04-.48-.13-.83-.26-.33-.12-.74-.29-1.18-.49-.3-.14-.62-.3-.96-.46-.33-.16-.67-.34-1.02-.52-.57-.31-1.2-.65-1.79-1-.44-.25-.87-.51-1.26-.76-.55-.35-1.05-.68-1.49-1"/>
          <path class="cls-1" d="M413.422,345.625c.21.16.42.32.63.47"/>
          <path class="cls-1" d="M422.282,319.285c-.56,10.41-.35,20.85.61,31.24"/>
          <path class="cls-1" d="M422.952,350.515c.01.01.01.02.01.03-.01.02-.02.02-.03.03"/>
          <path class="cls-1" d="M422.962,296.585c-.33,7.42-.57,14.83-.74,22.25"/>
          <path class="cls-1" d="M422.222,318.835v.22c-.01.08-.01.15-.01.23"/>
          <path class="cls-1" d="M413.732,294.345c.68-.64,1.5-1.14,2.39-1.46.65-.23,1.32-.36,1.99-.38.5-.02,1,.03,1.47.13.45.1.88.26,1.27.46.57.3,1.04.7,1.39,1.16.39.52.63,1.12.7,1.76.01.1.01.19.02.29"/>
          <path class="cls-1" d="M422.962,296.305c0,.1,0,.19-.01.28"/>
          <path class="cls-1" d="M413.422,294.665c-1.91,2.03-3.66,4.2-5.24,6.49"/>
          <path class="cls-1" d="M413.732,294.345c-.1.1-.21.21-.31.32"/>
          <path class="cls-1" d="M407.702,301.865c-1.54,2.23-3.21,4.36-5.01,6.39"/>
          <path class="cls-1" d="M408.182,301.155c-.16.23-.32.47-.48.71"/>
          <path class="cls-1" d="M407.702,339.435c-.35-.53-.71-1.08-1.09-1.66-1.12-1.75-2.35-3.76-3.59-5.88-.81-1.39-1.63-2.84-2.45-4.35-.44-.81-.88-1.64-1.31-2.49-.72-1.39-1.31-2.64-1.76-3.7-.39-.92-.63-1.58-.78-2.08-.23-.79-.27-1.17-.26-1.59,0-.35.06-.69.17-1.04.13-.43.34-.87.58-1.3s.51-.85.76-1.21c.15-.23.31-.45.48-.68.36-.49.75-1,1.18-1.54.45-.56.93-1.14,1.45-1.75.43-.51.87-1.03,1.34-1.58"/>
          <path class="cls-1" d="M402.422,308.585c.04-.05.09-.11.14-.16.04-.06.09-.11.14-.17"/>
          <path class="cls-1" d="M407.702,339.435c.22.33.45.66.68.99"/>
          <path class="cls-1" d="M470.722,310.485c1.33-.74,2.63-1.3,3.88-1.71,8.74-2.82,15.3,2.28,15.48,12.89.22,12.48-8.45,27.9-19.36,34.45-8.69,5.22-16.18,3.23-18.98-4.1-.23-.61-.44-1.26-.6-1.94-.25-1.04-.43-2.15-.51-3.35-.03-.39-.05-.78-.05-1.19-.01-.05-.01-.1-.01-.15"/>
          <path class="cls-1" d="M473.792,359.815c.02,0,.03.01.04.02"/>
          <path class="cls-1" d="M473.832,359.835c.29.15.62.26.95.32.33.05.66.06.97.01.31-.04.6-.14.87-.26.26-.12.49-.27.7-.44.2-.17.38-.36.53-.56"/>
          <path class="cls-1" d="M461.412,368.005c.24.03.5.03.75,0,.26-.03.53-.1.77-.2.24-.11.46-.24.65-.39.19-.14.35-.3.48-.46s.24-.33.33-.48"/>
          <path class="cls-1" d="M494.262,301.405c.7,1,1.21,2.15,1.53,3.33.36,1.31.53,2.66.58,4.04.09,2.25-.1,4.57-.42,6.92-.57,4.03-1.53,8.19-2.76,12.33-1.93,6.51-4.73,13.15-8.1,19.4-2.14,3.99-4.52,7.94-7.24,11.48"/>
          <path class="cls-1" d="M461.412,368.005c-1.86-.22-3.57-.76-5.14-1.46"/>
          <path class="cls-1" d="M492.212,299.315c.78.57,1.69,1.58,2.05,2.09"/>
          <path class="cls-1" d="M473.092,359.425c-.16.06-.34.13-.53.21-.4.18-.86.41-1.34.68-.72.4-1.5.88-2.28,1.43-1.06.74-2.15,1.63-3.09,2.7-.54.61-1.05,1.3-1.46,2.03"/>
          <path class="cls-1" d="M473.812,359.235s-.04,0-.11.02c-.09.01-.23.05-.39.1-.07.02-.14.04-.21.07"/>
          <polyline class="cls-1" points="456.272 366.545 432.742 356.135 423.012 351.825"/>
          <polyline class="cls-1" points="419.932 350.465 417.932 349.575 407.482 344.955"/>
          <path class="cls-1" d="M473.792,359.815l-.69-.39h-.01"/>
          <polyline class="cls-1" points="378.472 379.455 378.152 379.265 375.312 377.625"/>
          <polyline class="cls-1" points="459.432 228.275 459.172 228.125 456.272 226.445"/>
          <path class="cls-1" d="M457.512,274.365c.11.27.21.55.32.82"/>
          <path class="cls-1" d="M457.832,275.185c.13.34.26.67.38,1.01l.01.01c.01.04.03.07.04.11"/>
          <line class="cls-1" x1="458.442" y1="277.345" x2="458.442" y2="279.345"/>
          <line class="cls-1" x1="473.802" y1="285.875" x2="492.212" y2="299.315"/>
          <polyline class="cls-1" points="449.112 267.855 456.782 273.455 456.792 273.455"/>
          <polyline class="cls-1" points="383.722 348.265 384.992 346.685 386.092 345.315"/>
          <path class="cls-1" d="M392.212,339.165l.01.01c2.37,1.99,2.37,6.82-.01,11.56-2.76,5.47-7.72,8.92-11.1,7.71-.01,0-.02-.01-.03-.01"/>
          <line class="cls-1" x1="386.092" y1="345.315" x2="388.462" y2="345.525"/>
          <line class="cls-1" x1="388.462" y1="345.525" x2="388.462" y2="348.685"/>
          <line class="cls-1" x1="388.462" y1="348.685" x2="386.092" y2="351.635"/>
          <line class="cls-1" x1="386.092" y1="351.635" x2="383.722" y2="351.425"/>
          <polyline class="cls-1" points="383.722 351.425 383.722 350.275 383.722 348.265"/>
          <line class="cls-1" x1="388.462" y1="348.685" x2="384.992" y2="346.685"/>
          <line class="cls-1" x1="386.092" y1="351.635" x2="383.722" y2="350.275"/>
          <polyline class="cls-1" points="418.632 258.285 419.902 256.705 421.002 255.335"/>
          <path class="cls-1" d="M427.122,249.185l.01.01c2.37,1.99,2.37,6.83-.01,11.56-2.77,5.48-7.74,8.93-11.11,7.7h-.01"/>
          <line class="cls-1" x1="421.002" y1="255.335" x2="423.382" y2="255.555"/>
          <line class="cls-1" x1="423.382" y1="255.555" x2="423.382" y2="258.715"/>
          <line class="cls-1" x1="423.382" y1="258.715" x2="421.002" y2="261.665"/>
          <line class="cls-1" x1="421.002" y1="261.665" x2="418.632" y2="261.455"/>
          <polyline class="cls-1" points="418.632 261.455 418.632 260.295 418.632 258.285"/>
          <line class="cls-1" x1="423.382" y1="258.715" x2="419.902" y2="256.705"/>
          <line class="cls-1" x1="421.002" y1="261.665" x2="418.632" y2="260.295"/>
          <path class="cls-1" d="M354.702,97.555c-.8-2.3-.8-3.89,0-5.27"/>
          <path class="cls-1" d="M350.742,102.465c.59-2.17,1.78-3.66,3.96-4.91"/>
          <path class="cls-1" d="M346.792,102.115c.58-.34,1.78-.23,3.95.35"/>
          <path class="cls-1" d="M346.792,102.115c-.08-.23-.15-.45-.21-.65"/>
          <path class="cls-1" d="M354.702,92.285c-1.17-.31-2.01-.48-2.63-.54"/>
          <path class="cls-1" d="M346.452,101.935v.01c.91,2.43,3.7,2.37,6.25-.14,2.56-2.51,3.91-6.52,3.02-8.95-.5-1.35-1.6-1.99-3.01-1.74h-.01"/>
          <path class="cls-1" d="M356.582,88.445c1.29.89,1.93,2.59,1.93,4.66s-.64,4.52-1.93,6.9c-1.47,2.7-3.47,4.8-5.49,5.96-1.78,1.04-3.58,1.34-5,.66h-.01"/>
          <path class="cls-1" d="M357.172,88.245c.88,1,1.35,2.5,1.35,4.31"/>
          <path class="cls-1" d="M350.612,106.245c-1.57.91-3.09,1.26-4.4,1h-.01"/>
          <line class="cls-1" x1="346.942" y1="100.275" x2="350.742" y2="102.465"/>
          <polyline class="cls-1" points="349.732 94.685 349.742 94.685 354.702 97.555"/>
          <line class="cls-1" x1="351.092" y1="105.975" x2="350.612" y2="106.245"/>
          <line class="cls-1" x1="358.522" y1="93.105" x2="358.522" y2="92.555"/>
          <path class="cls-1" d="M209.822,222.525c-.79-2.3-.79-3.89,0-5.27"/>
          <path class="cls-1" d="M205.872,227.445c.58-2.18,1.78-3.66,3.95-4.92"/>
          <path class="cls-1" d="M201.922,227.095c.58-.34,1.77-.23,3.95.35"/>
          <path class="cls-1" d="M201.922,227.095c-.08-.23-.15-.45-.21-.66"/>
          <path class="cls-1" d="M209.822,217.255c-1.16-.31-2.01-.48-2.62-.53"/>
          <path class="cls-1" d="M201.582,226.915c.89,2.44,3.69,2.38,6.25-.13s3.91-6.52,3.01-8.96c-.49-1.34-1.59-1.98-3-1.74h-.01"/>
          <path class="cls-1" d="M211.702,213.425c1.29.89,1.94,2.59,1.94,4.66s-.65,4.52-1.94,6.9c-1.46,2.7-3.47,4.81-5.49,5.97-1.78,1.03-3.57,1.32-5,.65h-.01"/>
          <path class="cls-1" d="M212.302,213.215c.87,1,1.34,2.51,1.34,4.32"/>
          <path class="cls-1" d="M205.742,231.225c-1.57.91-3.11,1.25-4.41.99"/>
          <line class="cls-1" x1="202.072" y1="225.245" x2="205.872" y2="227.445"/>
          <polyline class="cls-1" points="204.852 219.655 204.862 219.665 209.822 222.525"/>
          <line class="cls-1" x1="206.212" y1="230.955" x2="205.742" y2="231.225"/>
          <line class="cls-1" x1="213.642" y1="218.085" x2="213.642" y2="217.535"/>
          <path class="cls-1" d="M245.622,369.145c-.8-2.3-.8-3.89,0-5.27"/>
          <path class="cls-1" d="M241.662,374.065c.59-2.18,1.78-3.66,3.96-4.92"/>
          <path class="cls-1" d="M237.712,373.705c.59-.33,1.78-.23,3.95.36"/>
          <path class="cls-1" d="M237.712,373.705c-.08-.22-.15-.44-.21-.65"/>
          <path class="cls-1" d="M245.622,363.875c-1.17-.31-2.01-.48-2.63-.53"/>
          <path class="cls-1" d="M237.382,373.535c.89,2.44,3.69,2.38,6.25-.13,2.55-2.51,3.9-6.52,3.01-8.96-.5-1.34-1.6-1.98-3.01-1.74"/>
          <path class="cls-1" d="M247.502,360.035h.01c1.28.9,1.92,2.6,1.92,4.67s-.64,4.52-1.93,6.9c-1.58,2.9-3.79,5.11-5.95,6.21-1.63.83-3.24,1.03-4.54.41h-.01"/>
          <path class="cls-1" d="M248.092,359.835c.88,1,1.35,2.5,1.35,4.32"/>
          <path class="cls-1" d="M241.532,377.845c-1.57.91-3.1,1.25-4.41.99"/>
          <line class="cls-1" x1="237.862" y1="371.865" x2="241.662" y2="374.065"/>
          <polyline class="cls-1" points="240.652 366.275 240.662 366.275 245.622 369.145"/>
          <polyline class="cls-1" points="242.012 377.575 241.562 377.825 241.532 377.845"/>
          <line class="cls-1" x1="249.442" y1="364.705" x2="249.442" y2="364.155"/>
          <line class="cls-1" x1="368.362" y1="309.235" x2="366.202" y2="309.045"/>
          <polyline class="cls-1" points="366.202 309.045 366.202 307.495 366.202 306.065 366.202 304.825"/>
          <polyline class="cls-1" points="366.202 304.825 367.672 302.995 368.362 302.135"/>
          <path class="cls-1" d="M356.712,308.775c-.46-.27-.86-.65-1.17-1.13-1.76-2.76-.54-8.17,2.73-12.09"/>
          <line class="cls-1" x1="368.362" y1="303.375" x2="366.202" y2="306.065"/>
          <line class="cls-1" x1="368.362" y1="303.085" x2="367.672" y2="302.995"/>
          <line class="cls-1" x1="368.362" y1="308.745" x2="366.202" y2="307.495"/>
          <path class="cls-1" d="M368.362,312.865c-.23.1-.46.19-.69.26-.76.25-1.54.36-2.29.27-.55-.07-1.08-.24-1.56-.51"/>
          <polyline class="cls-1" points="363.822 312.885 359.862 310.595 356.712 308.775"/>
          <line class="cls-1" x1="216.532" y1=".805" x2="341.132" y2="72.735"/>
          <line class="cls-1" x1="179.882" y1="216.945" x2="2.762" y2="114.685"/>
          <line class="cls-1" x1="179.882" y1="352.025" x2="6.972" y2="252.195"/>
          <line class="cls-1" x1="210.072" y1="148.585" x2="33.652" y2="46.725"/>
          <line class="cls-1" x1="195.332" y1="158.105" x2="33.652" y2="64.765"/>
          <line class="cls-1" x1="191.922" y1="161.615" x2="32.262" y2="69.435"/>
          <line class="cls-1" x1="182.252" y1="178.375" x2="22.592" y2="86.195"/>
          <line class="cls-1" x1="180.912" y1="183.075" x2="19.242" y2="89.735"/>
          <line class="cls-1" x1="180.042" y1="200.605" x2="3.612" y2="98.755"/>
          <line class="cls-1" x1="224.142" y1="140.285" x2="40.762" y2="34.405"/>
          <path class="cls-1" d="M275.362,308.735c-1.3-.32-2.58-.72-3.79-1.2-.01,0-.01-.01-.02-.01"/>
          <path class="cls-1" d="M348.422,174.375c.01.01.03.02.04.03,1.03.81,1.99,1.7,2.91,2.67"/>
          <path class="cls-1" d="M243.942,344.805c-33.95-19.6-33.95-83.17,0-141.98,33.96-58.81,89.01-90.6,122.96-70.99"/>
          <path class="cls-1" d="M391.452,205.375c7.57-58.75-24.46-91.42-71.55-72.99-47.08,18.44-91.4,81.01-98.97,139.76-7.58,58.75,24.45,91.42,71.54,72.99,9.09-3.56,18.35-8.91,27.44-15.85"/>
          <path class="cls-1" d="M345.352,173.655c-.25-.17-.5-.33-.76-.49h-.01"/>
          <path class="cls-1" d="M268.582,304.805c.01,0,.01.01.02.01.25.14.5.27.76.4.01.01.03.01.04.02"/>
          <line class="cls-1" x1="180.042" y1="378.035" x2="196.162" y2="387.345"/>
          <line class="cls-1" x1="180.042" y1="191.115" x2="196.162" y2="200.425"/>
          <line class="cls-1" x1="196.162" y1="200.425" x2="200.902" y2="200.425"/>
          <line class="cls-1" x1="200.902" y1="387.345" x2="196.162" y2="387.345"/>
          <line class="cls-1" x1="217.982" y1="162.645" x2="220.352" y2="166.745"/>
          <line class="cls-1" x1="379.862" y1="69.185" x2="382.232" y2="73.285"/>
          <line class="cls-1" x1="363.732" y1="59.875" x2="379.862" y2="69.185"/>
          <line class="cls-1" x1="201.852" y1="153.335" x2="217.982" y2="162.645"/>
        </g>
      </g>
    </g>
    <g id="LINE-191" data-name="LINE">
      <path class="cls-1" d="M29.384,44.264C19.714,38.681,10.045,33.098.375,27.515"/>
    </g>
    <g id="LINE-192" data-name="LINE">
      <path class="cls-1" d="M29.384,62.301c-9.66-5.107-19.116-10.59-28.509-16.17"/>
    </g>
    <g id="LINE-193" data-name="LINE">
      <path class="cls-1" d="M27.995,66.975c-8.835-4.764-17.542-9.761-26.196-14.846"/>
    </g>
    <g id="LINE-194" data-name="LINE">
      <path class="cls-1" d="M18.322,83.729c-5.195-2.999-10.39-5.999-15.585-8.998"/>
    </g>
    <g id="LINE-195" data-name="LINE">
      <path class="cls-1" d="M14.969,87.269l-12.198-7.042"/>
    </g>
    <g id="LINE-196" data-name="LINE">
      <path class="cls-1" d="M36.498,31.942c-7.306-4.957-15.306-7.957-21.85-12.615"/>
    </g>
  </g>
</svg>