<?xml version="1.0" encoding="UTF-8"?>
<svg id="Tweak_Trail" xmlns="http://www.w3.org/2000/svg" version="1.1" viewBox="0 0 250.19 276.6">
  <!-- Generator: Adobe Illustrator 29.6.1, SVG Export Plug-In . SVG Version: 2.1.1 Build 9)  -->
  <defs>
    <style>
      .st0 {
        fill: #e84e0f;
      }

      .st1 {
        stroke-dasharray: 11.91 2.38 2.38 2.38 2.38 2.38;
      }

      .st1, .st2, .st3 {
        fill: none;
        stroke: #000;
        stroke-linecap: round;
        stroke-linejoin: round;
      }

      .st1, .st3 {
        stroke-width: .71px;
      }

      .st2 {
        stroke-width: 1.42px;
      }

      .st4 {
        fill: #e84d0f;
      }

      .st5 {
        fill: #ababab;
      }
    </style>
  </defs>
  <g>
    <g>
      <path class="st5" d="M204.4,84.46l-24.38,4.9,4.55,2.63h.02c.1.07.21.12.34.17.12.04.26.08.41.11.16.04.32.06.48.07s.33.01.5.01c.17-.01.33-.03.49-.06h.01l6.34-1.14c.35-.06.69-.18.99-.36h.02s10.23-6.33,10.23-6.33ZM198.52,70.05s-.01.01-.02.01l-18.75,11.59,38.94-7.83,1.45-.29c.19-.04.38-.09.54-.15.16-.07.3-.14.42-.21.11-.07.19-.15.25-.21.05-.06.08-.11.1-.15,0-.03,0-.04,0-.05h0v-.05c-.02-.23-.16-.46-.4-.65l-.05-.09c0-.05.01-.1.02-.16l-.44-.08c-2.54-1.8-5.15-3.57-7.84-5.29h-.44s.09,2.76.09,2.76l-.06.13.06.06c.01.17.08.31.18.39-.06-.05-.14-.08-.22-.12-.09-.04-.19-.08-.3-.11s-.22-.06-.35-.09c-.12-.02-.25-.04-.38-.05s-.27,0-.4,0l-10.82.24c-.13.01-.25.02-.38.03-.12.01-.24.03-.36.06-.11.02-.22.05-.33.09-.1.03-.2.07-.29.11-.08.04-.17.08-.23.12ZM168.97,98.49l-.16-.15s0-.06.01-.1l-.38-.05-6.74-3.9-.3.08.35,1.32.94,3.52.04.13c.02.05.03.1.04.15.72,3.79-1.01,7.94-4.71,11.27l-.17-.18-1.32-4.92-.16-.19.09-.08c3.77-3.34,5.54-7.53,4.8-11.37-.12-.62-.53-1.16-1.16-1.53l-.03-.02-12.22-7.05c-.63-.36-1.46-.54-2.33-.49h-.02s-.05,0-.08.01c-.53.03-1.06.08-1.58.15h0s-.06-2.06-.06-2.06c0-.19.01-.38.06-.55.04-.18.11-.36.19-.52s.18-.3.29-.44c.12-.14.24-.26.38-.38.13-.11.28-.22.43-.31h.02s2.53-1.57,2.53-1.57l.06,2.03c.01.17.03.35.08.52.04.12.08.24.14.35.08.18.19.34.32.51.13.16.28.31.45.46.34.29.76.55,1.24.75.48.21,1.01.37,1.58.47.57.11,1.16.16,1.76.15s1.19-.08,1.76-.2c.57-.13,1.11-.3,1.59-.53.48-.22.91-.49,1.25-.79.25-.22.47-.47.63-.72.06-.09.11-.17.15-.26s.08-.17.11-.26.06-.18.08-.27c.04-.18.05-.35.05-.53l-.08-2.72c0-.06-.01-.11-.02-.17h0c.1.01.21.02.31.03.63.05,1.29.03,1.92-.04s1.25-.19,1.82-.37c.56-.17,1.08-.39,1.52-.64.05-.04.1-.07.16-.1h.02s27.98-17.3,27.98-17.3c.01,0,.01-.01.02-.01,1.21-.7,2.6-1.07,4-1.08l17.64-.39c.3-.01.61,0,.92.02.3.02.6.06.9.12.29.05.58.12.86.2s.55.18.8.29c.25.12.5.24.72.38.01,0,.01.01.02.01,3.67,2.27,7.28,4.65,10.81,7.14.29.21.56.43.81.66.25.24.47.49.67.75s.37.54.52.83c.14.28.25.58.33.89s.13.62.14.93l.09,3.21c.02.38-.02.76-.11,1.13s-.23.73-.41,1.07c-.17.35-.39.68-.65.99s-.55.61-.87.88c-.32.26-.66.52-1.03.74h-.01s-.01.02-.02.02l-30.99,19.14-.02.02c-.79.47-1.67.79-2.59.95l-14.86,2.67-6.93,1.25-.67.12h-.01c-.24.05-.49.08-.74.09s-.5,0-.75-.01c-.23-.02-.47-.05-.69-.09-.02,0-.03-.01-.05-.01-.24-.05-.47-.12-.7-.2-.22-.08-.44-.18-.64-.3h-.02c-.11-.09-.17-.22-.19-.4v-.19l-.09-2.89.15-.07ZM177.31,92.08c.04-.17.05-.35.05-.52l-.09-2.72c0-.3-.08-.59-.21-.87-.17-.35-.43-.68-.77-.97-.06-.05-.12-.1-.19-.14-.05-.05-.11-.09-.17-.12-.1-.08-.2-.14-.31-.2-.04-.03-.08-.06-.13-.07-.08-.05-.16-.1-.25-.13-.06-.04-.12-.07-.19-.1-.21-.09-.42-.17-.65-.23-.17-.06-.35-.11-.53-.15-.13-.03-.27-.06-.41-.09h0c-.05-.01-.1-.02-.15-.02-.2-.04-.4-.06-.61-.08-.02,0-.04-.01-.06,0-.19-.02-.38-.03-.57-.03-.12-.01-.23-.01-.35-.01h-.14c-.08,0-.16.01-.23.02-.21,0-.41.02-.62.05-.12.01-.24.03-.35.05-.14.02-.29.05-.43.08-.57.12-1.1.3-1.59.52-.48.23-.9.5-1.25.8-.08.07-.16.15-.23.23-.03.02-.06.05-.08.08-.02.01-.03.03-.04.04-.08.09-.15.18-.2.27-.08.1-.14.2-.19.3-.02.02-.03.04-.04.06-.17.34-.25.7-.24,1.05l.08,2.72c.01.18.04.35.09.52.03.1.06.19.11.29,0,.02.01.04.02.06.17.35.43.68.77.97s.77.55,1.24.76c.48.21,1.02.36,1.58.47.57.1,1.17.15,1.76.14.6-.01,1.2-.08,1.77-.2.56-.12,1.1-.3,1.59-.52.48-.23.9-.5,1.25-.8.26-.23.46-.47.63-.72h0c.06-.09.11-.18.15-.26.04-.07.07-.15.09-.22.05-.11.08-.21.1-.31Z"/>
      <path class="st5" d="M221.46,72.75h0s0,.03,0,.06c-.02.04-.05.09-.1.15-.06.06-.14.14-.25.21-.12.07-.26.14-.42.21-.16.06-.35.11-.54.15l-1.45.29c-2-1.38-4.03-2.72-6.09-4.03-.01,0-.01,0-.02,0-.1-.08-.17-.22-.18-.39l-.06-.06.06-.13-.09-2.75h.44c2.69,1.71,5.3,3.48,7.84,5.28l.44.08c-.01.06-.02.11-.02.16l.05.09c.24.19.38.42.4.65v.04Z"/>
      <path class="st5" d="M180.37,103.62c.02.65-.4,1.28-1.17,1.76l-7.6,4.69c-.48.3-.96.66-1.43,1.07l-8.75,7.76-.16-.19-1.32-4.92-.16-.19s.06-.05.09-.08h0s9.61-8.53,9.61-8.53c.36-.32.73-.6,1.11-.83l2.77-1.72,6.93-1.25.07,2.43Z"/>
      <path class="st5" d="M177.36,91.56c0,.17-.01.35-.05.52-.02.1-.05.2-.1.31-.06.16-.14.32-.24.47h0c-.72,1.08-2.29,1.9-4.23,2.14-2.88.37-5.63-.65-6.38-2.29-.04-.1-.08-.19-.11-.29-.05-.17-.08-.34-.09-.52l-.08-2.72c-.01-.35.07-.71.24-1.05.01-.02.02-.04.04-.06-.17.34-.25.69-.24,1.05.05,1.84,2.59,3.24,5.66,3.15s5.51-1.66,5.45-3.49c-.02-.73-.44-1.39-1.13-1.92.07.04.13.09.19.14.34.29.6.62.77.97.13.28.21.57.21.87l.09,2.72Z"/>
      <path class="st5" d="M177.23,88.78c.06,1.83-2.38,3.4-5.45,3.49s-5.61-1.31-5.66-3.15c-.01-.36.07-.71.24-1.05.06-.1.12-.2.19-.3.06-.09.13-.18.2-.27.01-.01.02-.03.04-.04l.08-.08c.07-.08.15-.16.23-.23.35-.3.77-.57,1.25-.8.49-.22,1.02-.4,1.59-.52.14-.03.29-.06.43-.08.12-.02.24-.04.35-.05.21-.03.41-.04.62-.05.12-.01.25-.02.37-.02s.23,0,.35.01c.19,0,.38.01.57.03.02-.01.04,0,.06,0,.21.02.41.04.61.08.05,0,.1.01.15.02.15.03.29.06.42.09.18.04.36.09.53.15.3.09.58.2.84.33.09.04.17.08.25.13.05.01.09.04.13.07.11.06.21.13.31.2.06.03.12.07.17.12.69.53,1.11,1.19,1.13,1.92ZM171.7,89.72c1.63-.05,2.93-.88,2.9-1.86-.03-.97-1.38-1.72-3.01-1.67s-2.93.88-2.9,1.86c.03.97,1.38,1.72,3.01,1.67Z"/>
      <path class="st5" d="M176.97,92.87c-.17.25-.37.49-.63.72-.35.3-.77.57-1.25.8-.49.22-1.03.4-1.59.52-.57.12-1.17.19-1.77.2-.59,0-1.19-.04-1.76-.14-.56-.11-1.1-.26-1.58-.47-.47-.21-.9-.47-1.24-.76s-.6-.62-.77-.97c0-.02-.02-.04-.02-.06.75,1.64,3.5,2.66,6.38,2.29,1.94-.24,3.51-1.06,4.23-2.13Z"/>
      <path class="st5" d="M169.53,89.11s.04.03.07.04c.05.03.1.06.16.09h0c.06.04.14.07.21.1t.02.01c.48.2,1.07.31,1.71.29.07,0,.14-.01.21-.02.28,0,.55-.06.79-.12.79-.21,1.4-.61,1.65-1.1h0c.08-.17.12-.34.12-.51v-.02s-.01-.09-.02-.14c-.14-.87-1.38-1.51-2.86-1.47-1.47.05-2.65.76-2.76,1.62-.01.05-.01.11-.01.16v.02c.02.41.29.77.71,1.04h0ZM174.57,87.86c.03.97-1.26,1.79-2.87,1.84-1.62.05-2.95-.69-2.98-1.66-.03-.96,1.26-1.78,2.87-1.83,1.62-.05,2.95.69,2.98,1.65Z"/>
      <path class="st5" d="M173.6,88.77v-.06l-.03-.95c0,.06.01.11.03.16.03.05.07.1.12.13.05.04.12.06.19.07.05.01.11.01.17.01.07,0,.13.01.18.03s.08.05.1.09.01.09-.01.14h0c-.03.05-.06.1-.12.15s-.13.1-.2.13c-.07.04-.15.07-.23.1-.07.02-.14.04-.21.07-.09.03-.18.07-.27.12-.09.04-.17.09-.24.13s-.13.08-.18.12c-.04.04-.07.08-.09.11-.01.02-.02.05-.02.07s-.01.05-.04.08c-.02.01-.03.02-.05.03-.24.06-.51.11-.79.12h-.02c-.06,0-.11-.02-.15-.04s-.08-.03-.12-.04c-.06-.02-.13-.04-.22-.06-.08-.01-.17-.03-.27-.04-.09-.01-.19-.02-.29-.03s-.2-.02-.29-.02c-.06-.01-.13-.01-.19,0h-.03c.08-.06.14-.14.18-.23.04-.1.06-.21.06-.32,0,0,.02.01.04.01-.01-.1.03-.2.1-.27.06-.08.16-.14.28-.16.11-.02.24,0,.35.04.1.05.19.12.24.22.07.11.16.2.27.28s.24.13.38.15.28,0,.42-.04c.14-.04.27-.11.38-.19.1-.07.21-.12.33-.13.08-.02.17-.01.24.02Z"/>
      <path class="st5" d="M174.23,88.54c.06-.05.09-.1.12-.14-.25.49-.86.89-1.65,1.1.02-.01.03-.02.05-.03.03-.03.04-.06.04-.08s0-.05.02-.07c.02-.03.05-.07.09-.11.05-.04.11-.08.18-.12s.15-.09.24-.13c.09-.05.18-.09.27-.12.07-.03.14-.05.21-.07.08-.03.16-.06.23-.1.07-.03.14-.08.2-.13Z"/>
      <path class="st5" d="M173.76,86.93c.03.06.04.12.03.19-.01.06-.04.13-.08.2-.04.06-.07.11-.09.17-.03.07-.05.15-.05.23v.04l.03.95c-.08-.02-.16-.03-.25-.02-.13.02-.25.07-.35.14-.11.09-.23.15-.36.19-.09.03-.17.05-.26.05-.05,0-.1,0-.14-.01-.14-.02-.26-.07-.36-.14-.03-.02-.06-.04-.08-.07-.07-.06-.13-.13-.18-.21-.06-.1-.15-.18-.26-.23-.12-.04-.25-.06-.38-.04-.12.03-.23.08-.31.17-.06.08-.1.17-.1.27l-.06-1.93h0c0-.08.01-.15.04-.21.03-.07.08-.13.15-.17.06-.05.14-.08.22-.09.08-.02.17-.02.26,0,.08.02.16.06.23.1.06.05.11.1.15.17.04.06.08.11.12.16.06.06.14.12.22.17.09.04.18.07.28.08.09.02.19.01.29,0,.1-.02.2-.06.28-.1.07-.03.13-.07.19-.12.07-.05.14-.09.22-.11.08-.03.17-.04.25-.04.08.01.16.03.22.06.05.04.1.09.13.15Z"/>
      <path class="st5" d="M173.64,86.77h-.01c-.06-.02-.14-.04-.22-.05-.08,0-.17.01-.25.04-.08.02-.15.06-.22.11-.06.05-.12.09-.19.12-.08.04-.18.08-.28.1-.1.01-.2.02-.29,0-.1-.01-.19-.04-.28-.08-.08-.05-.16-.11-.22-.17-.04-.05-.08-.1-.12-.16-.04-.07-.09-.12-.15-.17-.07-.04-.15-.08-.23-.1-.09-.02-.18-.02-.26,0-.08.01-.16.04-.22.09-.07.04-.12.1-.15.17-.03.06-.04.13-.04.2h0c0,.07,0,.13-.01.18-.02.08-.05.16-.1.23-.04.06-.1.12-.17.16-.07.05-.15.08-.24.09-.09.02-.19.02-.28,0-.06,0-.13-.03-.21-.05s-.16-.03-.23-.03c-.08,0-.15.02-.21.05-.05.03-.1.07-.12.12s-.02.11,0,.17c.01.06.05.12.1.17.05.06.11.11.18.16.07.04.12.08.18.12.07.06.13.12.19.19.05.06.09.12.12.18.02.04.03.08.03.12v.03c0,.05-.03.08-.06.11-.02.03-.05.04-.09.06s-.07.04-.08.07c-.01.02,0,.06.02.09-.42-.27-.69-.63-.71-1.04v-.02c0-.05,0-.11.01-.16.14-.83,1.31-1.51,2.73-1.57.81-.03,1.55.15,2.08.46Z"/>
      <path class="st5" d="M171.62,88.64c.05.08.11.15.18.21.02.03.05.05.08.07.1.07.22.12.36.14.04.01.09.01.14.01.09,0,.17-.02.26-.05.13-.04.25-.1.36-.19.01.02.02.03.03.05-.11.08-.24.15-.38.19-.14.05-.28.06-.42.04s-.27-.07-.38-.15-.2-.17-.27-.28c-.05-.1-.14-.17-.24-.22-.11-.04-.24-.06-.35-.04-.12.02-.22.08-.28.16-.07.07-.11.17-.1.27-.02,0-.04-.01-.04-.01h0v-.03c0-.1.04-.19.1-.27.08-.09.19-.14.31-.17.13-.02.26,0,.38.04.11.05.2.13.26.23Z"/>
      <path class="st5" d="M171.91,89.62c-.07.01-.14.02-.21.02-.64.02-1.23-.09-1.71-.29.11.02.22.04.34.04h.03c.06-.01.13-.01.19,0,.09,0,.19.01.29.02s.2.02.29.03c.1,0,.19.03.27.04.09.02.16.04.22.06.04.01.08.02.12.04s.09.03.15.04h.02Z"/>
      <path class="st5" d="M170.51,102.55l-.65.4c-.42.26-.85.58-1.26.95l-9.62,8.52h-.01c-2.2,1.96-4.94,3.54-7.97,4.61.04-.04.08-.07.12-.11l.09-.08,6.75-5.99s.07-.06.1-.09c3.7-3.33,5.43-7.48,4.71-11.27-.01-.05-.02-.1-.04-.15l-.04-.13-.27-1.04,6.68,3.86h.02c.2.13.42.23.64.31.23.08.46.15.7.2.02,0,.03.01.05.01Z"/>
      <path class="st5" d="M169.1,102.03l-6.68-3.86-.67-2.48-.35-1.32.3-.08,6.74,3.9.38.05s-.01.07-.01.1l.16.15-.15.07.09,2.89v.19c.02.18.08.31.19.39Z"/>
      <path class="st5" d="M161.26,118.71l.16.19-.09.08c-3.57,3.17-8.45,5.38-13.6,6.14-.5.08-.99.19-1.48.33.24-.29.48-.57.73-.85.03-.03.05-.07.08-.1,1.33-1.53,2.17-3.22,2.45-4.91.01-.08.03-.16.05-.24.03-.14.08-.28.13-.42,3.84-1.08,7.36-2.93,10.09-5.33l.16.19,1.32,4.92Z"/>
      <path class="st5" d="M161.3,94.02c.74,3.84-1.03,8.03-4.8,11.37l-.05-.05-.8-.99-.04-.05c3.56-3.16,5.23-7.11,4.54-10.74-.09-.46-.38-.85-.84-1.12v-.02s.79.07.79.07v-.02s.04.02.04.02c.63.37,1.04.91,1.16,1.53Z"/>
      <path class="st5" d="M160.15,93.56c.69,3.63-.98,7.58-4.54,10.74l-6.84,6.06h-.01c-1.03.93-1.68,2.01-1.87,3.12v.02c-.35,2.04-1.58,4.07-3.49,5.76l-8.73,7.75s-.04.04-.06.05l-.16-.17-3.81-2.21-.16-.18,8.5-7.52s.06-.06.09-.08l.09-.09c.79-.7,1.39-1.51,1.72-2.35.21-.52.31-1.05.31-1.56s-.1-1.01-.31-1.46c-.34-.75-.94-1.39-1.75-1.85l-5.68-3.28.7-1.21c1.04.67,2.29,1.19,3.72,1.52,1.92.44,3.96.49,5.96.19.25-.02.5-.07.75-.11.3-.06.6-.12.89-.2.06,0,.12-.02.19-.04.28-.07.56-.14.84-.23.3-.08.59-.18.89-.29.18-.06.37-.13.55-.21t.02,0c3.07-1.2,5.73-3.19,7.28-5.7,2.54-4.11,1.36-8.52-2.9-10.81-.23-.19-.47-.36-.72-.52-.23-.15-.47-.29-.72-.42l.3-.52,8.07,4.66s.03.02.04.02c.46.27.75.66.84,1.12Z"/>
      <path class="st5" d="M145.46,84.94s.05-.01.08-.01h.02c.87-.05,1.7.13,2.33.49l12.22,7.05v.02s-.79-.07-.79-.07v.02s-.04-.01-.05-.02l-8.07-4.66-4.18-2.42c-.47-.27-1.09-.4-1.75-.36-.64.04-1.27.1-1.91.18.17-.03.35-.06.52-.07.52-.07,1.05-.12,1.58-.15Z"/>
      <path class="st5" d="M159.88,113.51h0s-.06.06-.09.09c-2.73,2.4-6.25,4.25-10.09,5.33.25-.67.69-1.33,1.31-1.9,3.03-1.07,5.77-2.65,7.97-4.6l.05.05.81.98.05.05Z"/>
      <path class="st5" d="M158.97,80.94c0,.18-.01.35-.05.53-.02.09-.05.18-.08.27-.03.08-.07.17-.11.26s-.09.17-.15.26c-.71,1.07-2.29,1.89-4.23,2.13-2.52.32-4.96-.42-6.03-1.72-.13-.17-.24-.33-.32-.51-.06-.11-.1-.23-.14-.35-.05-.17-.07-.35-.08-.52l-.06-2.03-.02-.69c-.02-.36.07-.72.24-1.06.01-.01.01-.03.03-.04-.16.33-.25.68-.24,1.04.06,1.83,2.59,3.24,5.66,3.15,3.07-.1,5.51-1.66,5.46-3.49-.02-.56-.26-1.07-.68-1.52.21.22.38.45.5.7.11.23.18.46.2.7,0,.06.02.11.02.17l.08,2.72Z"/>
      <path class="st5" d="M158.85,78.17c.05,1.83-2.39,3.39-5.46,3.49-3.07.09-5.6-1.32-5.66-3.15-.01-.36.08-.71.24-1.04.1-.19.23-.38.39-.57.01-.02.02-.03.04-.05.25-.27.56-.53.92-.76.12-.07.25-.15.39-.22.08-.05.17-.09.26-.13.48-.22,1.02-.4,1.59-.52.14-.03.29-.06.43-.08.15-.03.29-.05.44-.06.15-.02.29-.03.44-.04s.3-.02.45-.02c.19,0,.39,0,.58.01.14,0,.27,0,.4.02.26.03.52.06.78.11.28.05.56.12.82.19.14.04.26.09.39.13.13.05.25.1.37.15s.24.11.35.17c.11.05.22.11.32.18.21.12.39.25.56.4.1.09.2.18.28.27.42.45.66.96.68,1.52ZM153.31,79.1c1.63-.05,2.93-.88,2.9-1.85s-1.37-1.72-3-1.67-2.93.88-2.9,1.85c.03.98,1.37,1.72,3,1.67Z"/>
      <path class="st5" d="M157.89,110.58l.17.18s-.07.06-.1.09l-6.75,5.99-.16-.19-1.32-4.92-.17-.18s.07-.07.1-.1l6.75-5.98.16.19,1.32,4.92Z"/>
      <path class="st5" d="M151.59,78.73s.01,0,.01,0c.48.21,1.07.32,1.71.3.08,0,.17-.01.25-.02.26-.02.52-.06.75-.13.79-.2,1.4-.61,1.66-1.1h0c.08-.17.12-.34.12-.51v-.02c0-.05-.01-.09-.02-.14-.14-.86-1.38-1.51-2.86-1.46-1.47.05-2.67.75-2.77,1.62,0,.05,0,.1,0,.15v.03c.03.41.29.77.72,1.05.07.05.14.09.22.13.07.04.14.07.22.1ZM156.19,77.25c.02.96-1.26,1.78-2.88,1.83-1.61.05-2.95-.69-2.97-1.65-.03-.97,1.25-1.79,2.87-1.84,1.61-.05,2.95.69,2.98,1.66Z"/>
      <path class="st5" d="M155.76,96.44c.03,3.78-3.22,7.44-7.8,9.29t-.02,0c-.18.07-.37.14-.55.21-.3.11-.59.21-.89.29-.28.09-.56.16-.84.23-.07.02-.13.04-.19.04-.3.08-.59.14-.89.2-.25.04-.5.09-.75.11-5.12.68-9.51-1.09-11.25-4.16h0s-.61-2.27-.61-2.27l.15-.04c2.2,4.21,8.95,5.66,15.08,3.26,4.81-1.88,7.97-5.67,7.81-9.39l.14-.04.61,2.27Z"/>
      <path class="st5" d="M154.62,78.22h-.01c-.1.08-.23.15-.36.19-.08.03-.17.04-.25.04-.05.01-.1,0-.15,0-.13-.02-.26-.07-.36-.15-.03-.02-.05-.04-.08-.06-.07-.06-.12-.13-.17-.21h0c-.06-.1-.15-.18-.27-.23s-.25-.06-.37-.04c-.13.02-.24.08-.31.16s-.1.18-.1.28l-.06-1.93h0c-.01-.09.01-.16.04-.22s.08-.12.14-.17c.07-.04.15-.07.23-.09.08,0,.17,0,.25.01.09.02.17.05.23.1.06.04.12.1.16.17.03.05.07.11.12.15.06.07.13.13.22.17.08.05.18.08.27.09s.19,0,.29-.01.2-.05.29-.1c.06-.03.12-.07.18-.11.07-.05.15-.09.23-.12.08-.02.16-.04.24-.03.09,0,.16.03.22.06s.11.08.14.14c.02.06.03.13.02.19-.01.07-.03.14-.08.2-.03.06-.06.12-.08.18-.03.07-.05.15-.06.22v.05l.04,1h-.01c-.07-.02-.15-.03-.24-.02-.11.02-.23.06-.32.13-.01-.01-.03-.03-.03-.04Z"/>
      <path class="st5" d="M155.22,78.15v.07h-.01c-.09.04-.19.08-.28.12-.09.05-.17.09-.23.14-.07.04-.13.08-.18.12s-.08.08-.1.11c-.01.02-.02.04-.01.06h0s-.02.06-.05.08c-.01.01-.03.02-.05.03-.23.07-.49.11-.75.13h-.05c-.07-.01-.12-.03-.16-.05-.03-.01-.07-.03-.11-.04-.06-.02-.14-.03-.22-.05s-.18-.03-.27-.04c-.09-.02-.2-.03-.3-.04s-.2-.02-.28-.02h-.15c.06-.05.1-.12.14-.19.05-.1.07-.22.06-.34,0-.1.03-.2.1-.28s.17-.13.28-.15c.12-.02.24-.01.35.04.11.04.19.12.25.21.07.11.15.21.26.29.11.07.25.13.38.15.14.02.29,0,.43-.04s.26-.11.38-.2c.09-.07.21-.11.32-.13.09-.01.17,0,.24.02h.01Z"/>
      <path class="st5" d="M154.96,93.43l.19.74-.14.04c.16,3.72-3,7.51-7.81,9.39-6.13,2.4-12.88.95-15.08-3.26l-.15.04-.19-.72h0s-.15-.56-.15-.56c-.24-.88-.28-1.8-.15-2.72.08-.57.24-1.14.46-1.69.14-.37.31-.74.51-1.1.53-.93,1.23-1.81,2.08-2.61.86-.81,1.88-1.52,2.98-2.11,1.12-.6,2.33-1.07,3.57-1.39,1.25-.32,2.53-.5,3.79-.52s2.49.12,3.63.41c.86.22,1.66.53,2.4.91.25.13.49.27.72.42.25.16.49.33.72.52.58.46,1.08.99,1.5,1.58.44.64.77,1.35.97,2.09l.15.54ZM145.05,102.82c5.87-1.57,9.72-6.21,8.61-10.36s-6.77-6.24-12.64-4.66c-5.86,1.57-9.72,6.21-8.61,10.36s6.77,6.24,12.64,4.66Z"/>
      <path class="st5" d="M154.62,78.22s.02.03.03.04c-.12.09-.24.16-.38.2s-.29.06-.43.04c-.13-.02-.27-.08-.38-.15-.11-.08-.19-.18-.26-.29.02-.01.03-.02.04-.03.05.08.1.15.17.21.03.02.05.04.08.06.1.08.23.13.36.15.05,0,.1.01.15,0,.08,0,.17,0,.25-.04.13-.04.26-.11.36-.19h.01Z"/>
      <path class="st5" d="M153.66,92.46c1.11,4.15-2.74,8.79-8.61,10.36-5.87,1.58-11.53-.51-12.64-4.66s2.75-8.79,8.61-10.36c5.87-1.58,11.53.51,12.64,4.66Z"/>
      <path class="st5" d="M151.05,116.65l.16.19-.09.08s-.08.07-.12.11c-.62.57-1.06,1.23-1.31,1.9-.05.14-.1.28-.13.42l-.12-.03-1.32-4.92-.12-.02c.02-.09.03-.17.05-.26v-.02c.16-.9.68-1.79,1.51-2.55l.17.18,1.32,4.92Z"/>
      <path class="st5" d="M147.02,85.34l4.18,2.42-.3.52c-.74-.38-1.54-.69-2.4-.91-1.14-.29-2.37-.43-3.63-.41s-2.54.2-3.79.52c-1.24.32-2.45.79-3.57,1.39-1.1.59-2.12,1.3-2.98,2.11-.85.8-1.55,1.68-2.08,2.61-.2.36-.37.73-.51,1.1h0c-2.45,3.97-1.39,8.08,2.22,10.41l-.7,1.21-5.63-3.25c-.8-.47-1.81-.75-2.89-.83-.67-.05-1.37-.02-2.07.09s-1.39.29-2.06.54c-1.07.41-2.06,1-2.85,1.71-.03.02-.07.05-.1.08s-.06.05-.09.08l-8.55,7.58s-.03.03-.05.05l-.16-.17-3.82-2.2-.16-.18,8.66-7.68h.02c1.44-1.29,3.22-2.33,5.17-3.06.32-.12.65-.23.99-.34.34-.1.68-.19,1.03-.28h0c.16-.04.31-.08.47-.13.15-.05.3-.1.45-.16,1.08-.38,2.07-.95,2.88-1.66.01,0,.02-.01.03-.02l6.84-6.06c1.77-1.58,3.93-2.87,6.27-3.8.26-.1.53-.2.8-.3.33-.12.66-.23.99-.33.61-.19,1.23-.35,1.85-.49.62-.13,1.25-.25,1.88-.34.64-.08,1.27-.14,1.91-.18.66-.04,1.28.09,1.75.36Z"/>
      <path class="st5" d="M149.66,111.45s-.07.06-.1.1c-.83.76-1.35,1.65-1.51,2.55h-.06s-1.04-.59-1.04-.59h-.06v-.03c.19-1.11.84-2.19,1.87-3.11l.05.05.8.98.05.05Z"/>
      <path class="st5" d="M149.56,119.35c-.02.08-.04.16-.05.24-.28,1.69-1.12,3.38-2.45,4.91-.03.03-.05.07-.08.1-.25.28-.49.56-.73.85-.12.14-.23.28-.33.42l-.19-.15-1.36-5.08-.17-.2.09-.08h.01c1.98-1.77,3.27-3.86,3.7-5.98l.12.02,1.32,4.92.12.03Z"/>
      <path class="st5" d="M148.05,114.1v.02c-.02.09-.03.17-.05.26-.43,2.12-1.72,4.21-3.7,5.97l-.05-.05-.8-.98-.05-.06c1.91-1.69,3.14-3.72,3.49-5.76h.06s1.04.59,1.04.59h.06Z"/>
      <path class="st5" d="M124.6,148.59c-.08.9.08,1.7.5,2.25.25.32.57.53.94.63,2.04.53,3.22,2.57,3.22,5.42,0,.54-.04,1.11-.13,1.7-.02.11-.03.22-.04.33-.19,2.21,1.05,3.46,2.88,2.79.21-.08.41-.18.63-.31h0l3.01-1.74c1.96-1.13,3.54-3.87,3.54-6.12v-18.24c0-2.26-1.58-3.17-3.54-2.04-.12.07-.24.15-.36.24h-.01c-.18.13-.36.27-.54.43l-.27.23c-.57.51-1.12,1.05-1.65,1.63-.32.34-.63.68-.92,1.04-.68.81-1.32,1.67-1.92,2.58-1.17,1.77-2.39,3.49-3.68,5.14-.43.55-.78,1.15-1.05,1.76-.35.77-.56,1.56-.62,2.28ZM124.13,156.03c-1.66-.6-4.1.94-5.65,3.61-1.54,2.66-1.65,5.53-.33,6.69.1.09.21.17.33.24,1.66.96,4.34-.59,6-3.46s1.66-5.97,0-6.93c-.11-.06-.23-.12-.35-.15ZM145.92,125.87s-.08.09-.11.13l-.21.27c-1.37,1.85-2.2,4.11-2.2,6.02v28.6l-15.98,9.22h0s-3.11,1.8-3.11,1.8l-1,.58-4.57,2.64-6.67,3.85-.49-.85v-20.39l-.5-.31c.17-.27.34-.55.51-.82h-.01c.16-.3.33-.59.5-.88,1.52-2.61,3.38-4.97,5.43-6.88,3.13-2.93,6.09-6.37,8.72-10.15,2.8-4.02,5.96-7.61,9.33-10.6l8.64-7.66.17.2,1.36,5.08.19.15Z"/>
      <path class="st5" d="M111.87,145.58c.11-.12.23-.22.34-.33h0c.1-.1.21-.2.31-.31h0c.27-.26.54-.52.8-.79,2.59-2.6,5.03-5.53,7.25-8.72,2.79-4.02,5.95-7.61,9.32-10.6l8.16-7.23.39-.35c.06-.05.12-.11.18-.16.01-.01.02-.02.03-.02.64-.63,1.1-1.33,1.34-2.03.16-.45.22-.89.21-1.32-.02-.42-.13-.83-.31-1.21-.29-.6-.79-1.12-1.45-1.5l-11.16-6.44-.15-.09.03-.07.62-1.28.03-.07,5.63,3.25,5.68,3.28c.81.46,1.41,1.1,1.75,1.85.21.45.31.95.31,1.46s-.1,1.04-.31,1.56c-.33.84-.93,1.65-1.72,2.35l-.09.09s-.06.05-.09.08l-8.5,7.52-.06.06s-.01.01-.02.01c-3.44,3.06-6.68,6.75-9.54,10.86-2.56,3.67-5.42,7-8.46,9.86l-.05.05c-.91.84-1.78,1.77-2.61,2.77-.13.17-.27.33-.41.49-.58.64-1.24,1.28-1.93,1.85-.7.59-1.43,1.12-2.16,1.54-.09.05-.18.11-.27.15.19-.1.37-.21.54-.32.67-.42,1.33-.94,1.94-1.49.59-.54,1.13-1.12,1.59-1.69.11-.14.22-.28.34-.42.78-.95,1.61-1.83,2.47-2.63t.02-.01Z"/>
      <path class="st5" d="M140.21,113.72c.01.43-.05.87-.21,1.32-.24.7-.7,1.4-1.34,2.03-.01,0-.02,0-.03.02-.06.05-.12.11-.18.16l-.39.35-10.92-6.3c-.05-.03-.09-.05-.14-.07l.14-.27v-6.14l.15-.25,11.16,6.44c.66.38,1.16.9,1.45,1.5.18.38.29.79.31,1.21Z"/>
      <path class="st5" d="M138.06,117.6l-8.16,7.23c-3.37,2.99-6.53,6.58-9.32,10.6-2.22,3.19-4.66,6.12-7.25,8.72l-.6-.6-13.69-7.9-.15.27-.05-.03-.95-.15c.06-.1.12-.2.19-.29.06-.08.13-.16.2-.24l.2-.2.02-.02,25.86-22.93h.02c.46-.42.85-.84,1.19-1.3.15.02.3.04.45.07.08.02.15.04.23.07.27.09.52.2.75.33.05.02.09.04.14.07l10.92,6.3ZM123.27,128.79c2.69-.86,4.4-3.07,3.8-4.96-.59-1.88-3.26-2.71-5.96-1.86s-4.4,3.07-3.8,4.95c.59,1.89,3.26,2.72,5.96,1.87Z"/>
      <path class="st5" d="M137.74,153.4v.14c0,1.8-1.26,4-2.82,4.9l-.12.07-.13-.22-4.46-2.57-.13-.21c1.47-.91,2.65-2.97,2.71-4.7h.25s4.46,2.59,4.46,2.59h.24Z"/>
      <path class="st5" d="M137.74,135.3v18.1h-.24l-4.46-2.58h-.25v-15.03c.53-.58,1.08-1.12,1.65-1.63l.27-.23c.18-.16.36-.3.54-.43h.01c1.42-.63,2.48.14,2.48,1.8Z"/>
      <path class="st5" d="M135.51,128.05l.05.05c-3.37,2.99-6.53,6.58-9.33,10.6l-.05-.05-1.02-.73-.06-.04c2.85-4.1,6.08-7.77,9.51-10.82.02-.01.04-.03.06-.05l.04.05.8.99Z"/>
      <path class="st5" d="M134.67,158.29l.13.22-2.9,1.67c-1.43.83-2.64.29-2.81-1.26.01-.11.02-.22.04-.33.09-.59.13-1.16.13-1.7v-.9l.71-.41s.07-.04.11-.07l.13.21,4.46,2.57Z"/>
      <path class="st5" d="M134.45,126.89l.16.17c-3.43,3.05-6.66,6.72-9.51,10.82,0,0,0,.01-.01.01l-.2-.14-3.82-2.2-.21-.12c2.86-4.11,6.1-7.8,9.54-10.86t.02-.01l.06-.06.16.18,3.81,2.21Z"/>
      <path class="st5" d="M132.79,136v14.68l-7.57-4.37c.27-.61.62-1.21,1.05-1.76,1.29-1.65,2.51-3.37,3.68-5.14.6-.91,1.24-1.77,1.92-2.58l.92-.83Z"/>
      <path class="st5" d="M120.97,111.37c-.29.17-.55.37-.79.59-.41.38-.77.83-1.05,1.32-.12.2-.23.41-.32.62l-.16-.07v-7.59l-.21-.24.21-.18c.06-.05.13-.11.19-.16.71-.59,1.58-1.07,2.5-1.4.57-.2,1.16-.34,1.74-.42s1.16-.1,1.71-.05c.88.07,1.69.31,2.35.69l.15.09-.15.25v6.14l-.14.27c-.23-.13-.48-.24-.75-.33-.08-.03-.15-.05-.23-.07-.25-.08-.51-.13-.78-.18-.49-.08-1-.1-1.52-.08-.23,0-.46.04-.7.07h-.01c-.31.04-.61.11-.91.2-.03.01-.06.02-.08.03-.36.12-.72.29-1.05.5Z"/>
      <path class="st5" d="M127.07,123.83c.6,1.89-1.11,4.1-3.8,4.96-2.7.85-5.37.02-5.96-1.87-.6-1.88,1.1-4.1,3.8-4.95s5.37-.02,5.96,1.86Z"/>
      <path class="st5" d="M126.18,138.65l.05.05c-2.63,3.78-5.59,7.22-8.72,10.15l-.05-.05-.83-.96-.04-.05c3.06-2.87,5.93-6.21,8.5-9.9.01,0,.01-.01.01-.01l.06.04,1.02.73Z"/>
      <path class="st5" d="M124.89,137.75l.2.14c-2.57,3.69-5.44,7.03-8.5,9.9l-.04.04-.17-.17-3.82-2.2-.16-.17c3.04-2.86,5.9-6.19,8.46-9.86l.21.12,3.82,2.2Z"/>
      <path class="st5" d="M125.02,158.52v.82c0-1.05-.35-1.9-1.04-2.29-1.38-.8-3.62.49-5,2.88s-1.38,4.98,0,5.78c.69.39,1.59.27,2.5-.25l-.71.41c-.95.55-1.87.71-2.62.46-1.32-1.16-1.21-4.03.33-6.69,1.55-2.67,3.99-4.21,5.65-3.61.58.53.89,1.4.89,2.49Z"/>
      <path class="st5" d="M125.02,159.34c0,1.04-.35,2.28-1.04,3.48-.69,1.19-1.6,2.11-2.5,2.64-.91.52-1.81.64-2.5.25-1.38-.8-1.38-3.39,0-5.78s3.62-3.68,5-2.88c.69.39,1.04,1.24,1.04,2.29Z"/>
      <path class="st5" d="M118.8,105.61l.04.05c-.06.05-.13.11-.19.16l-.21.18-8.34,7.4-.04-.05-.8-.98-.05-.06,8.55-7.58s.06-.05.09-.08.07-.06.1-.08l.04.05.81.99Z"/>
      <path class="st5" d="M118.81,113.9c-.06.11-.11.23-.16.35-.44,1.05-.68,2.17-.7,3.31l-4.95,4.39v-.94c0-1.8-1.27-2.53-2.83-1.63-.25.14-.5.32-.73.53l-.27.24c-.38.34-.75.69-1.12,1.07-1.13,1.14-2.17,2.44-3.11,3.87-1.19,1.81-2.44,3.56-3.75,5.24-.77.99-1.27,2.21-1.35,3.28l-1.81,1.61c-.56.53-1,1.17-1.28,1.89-.16.39-.34.75-.52,1.07-.07.12-.13.23-.19.33-2.61,1.5-5.01,4.54-6.25,7.91l-.55-.32c-.18-.11-.35-.23-.5-.37-.52-.47-.86-1.13-1.05-1.83-.22-.82-.25-1.66-.17-2.46.08-.77.28-1.55.58-2.28.29-.71.68-1.38,1.14-1.95.11-.14.22-.28.34-.42.78-.95,1.61-1.83,2.47-2.63,3.14-2.94,6.09-6.37,8.73-10.16,2.79-4.02,5.96-7.61,9.32-10.6l8.34-7.4.21.24v7.59l.16.07Z"/>
      <path class="st5" d="M107.85,188.94c-.1.09-.21.18-.3.3-.01.01-.03.03-.05.04,0,0-.01,0-.01.01-.08.05-.13.02-.14-.06-.07-.7-.14-1.4-.2-2.09-.02-.24-.02-.47.02-.7.35-2.04.57-4.11.63-6.18h0c1.38-.06,2.73-.39,3.78-1l.49-.28,6.67-3.85-2.22,13.79c-.04.25-.17.52-.34.74l-4.92,6.11s-.03.03-.04.05c-.01.01-.02.01-.03.01-.07.04-.12.02-.14-.05l-1.28-6.58c-.17-.87-.99-1.03-1.83-.34-.03.02-.06.05-.09.08Z"/>
      <path class="st5" d="M80.51,155.67l-.05.02c-.21-.55-.39-1.1-.57-1.66.4-.01.8-.03,1.2-.04-.48-1.37-.91-2.91-1.2-4.47-.21-1.13-.34-2.27-.39-3.36-.02-.43-.03-.84-.02-1.24,0-.83.07-1.71.2-2.59.15-.99.4-1.98.75-2.88.09-.24.19-.48.3-.71.13-.3.28-.58.45-.86,1.6-2.74,3.55-5.21,5.69-7.23t.02-.01l.05-.05.16.17,3.82,2.21.16.17c-.88.82-1.74,1.74-2.55,2.73-.13.16-.26.33-.38.5-.49.7-.88,1.49-1.13,2.31-.27.85-.4,1.72-.41,2.56,0,.89.11,1.79.43,2.65.26.73.68,1.42,1.24,1.9.16.15.34.28.53.39l11.32,6.53c.19.11.38.2.58.26.68.23,1.42.21,2.14.04.7-.16,1.37-.44,2.01-.81.04-.01.08-.03.11-.06.09-.04.18-.1.27-.15.73-.42,1.46-.95,2.16-1.54.69-.57,1.35-1.21,1.93-1.85.14-.16.28-.32.41-.49.83-1,1.7-1.93,2.61-2.77l.05-.05.16.17,3.82,2.2.17.17c-2.13,2-4.08,4.47-5.68,7.19-.16.28-.33.56-.5.83s-.35.53-.53.8c-.58.85-1.2,1.67-1.82,2.48-.81,1.05-1.63,2.07-2.39,3.03-.62.77-1.2,1.51-1.73,2.21s-1.01,1.36-1.42,1.97c-.02.03-.17.26-.19.29l-1.05-.61-18.91-10.92-1.82.57Z"/>
      <path class="st5" d="M98.89,135.92l.15-.27,13.69,7.9.6.6c-.26.27-.53.53-.8.79h0c-.15.06-.3.11-.46.15-1.22.35-2.35.99-3.27,1.87-1.49,1.49-2.84,3.28-3.93,5.24-.51.28-1.06.52-1.64.67-.7.18-1.44.21-2.1.01-.2-.06-.38-.15-.56-.25l-9.55-5.51c1.22-2.82,2.99-5.45,5.05-7.51.79-.78,1.26-1.69,1.44-2.5.03-.13.05-.26.07-.39.04-.34.15-.68.32-.98l.95.15.05.03Z"/>
      <path class="st5" d="M113,121.01v.94l-4.95,4.39v-5.12c.37-.38.74-.73,1.12-1.07l.27-.24c.23-.21.48-.39.73-.53,1.56-.9,2.83-.17,2.83,1.63Z"/>
      <path class="st5" d="M112.08,155.73c-.17.29-.34.58-.5.87h.01c-.17.28-.34.56-.51.83-2.25,3.59-4.7,7.05-7.34,10.36-.42-.48-.84-.97-1.26-1.45.41-.61.89-1.27,1.42-1.97s1.11-1.44,1.73-2.21c.76-.96,1.58-1.98,2.39-3.03.62-.81,1.24-1.63,1.82-2.48.18-.27.36-.53.53-.8s.34-.55.5-.83l.06.04,1.09.63.06.04Z"/>
      <path class="st5" d="M111.58,178.13l.49.85-.49.28c-1.05.61-2.4.94-3.78.99-.86.05-1.72-.02-2.54-.19-.04-.01-.09-.02-.13-.03-.11-.02-.23-.05-.34-.09-.61-.16-1.19-.39-1.69-.68l-.23-.13.23-.4v-9.94c.21-.33.43-.65.66-.98l-.02-.02c2.64-3.31,5.09-6.77,7.34-10.36l.5.31v20.39Z"/>
      <path class="st5" d="M111.19,195.83h0s-.71.41-.71.41c-.23.14-.44.15-.6.06-.12-.06-.2-.19-.23-.36l-1.28-6.58c-.05-.3-.24-.46-.52-.42.03-.03.06-.06.09-.08.84-.69,1.66-.53,1.83.34l1.28,6.58c.02.07.07.09.14.05Z"/>
      <path class="st5" d="M110.06,113.35l.04.05c-3.36,2.99-6.53,6.58-9.32,10.6l-.06-.04-1.02-.74-.05-.04c2.85-4.1,6.08-7.77,9.51-10.82.02-.02.03-.04.05-.05l.05.06.8.98Z"/>
      <path class="st5" d="M99,190.02l-4.67-2.7c-.12-.07-.2-.19-.24-.36l-.91-4.7,13,7.5h0c.16.09.36.07.59-.06l.71-.41s.01-.01.01-.01c.02-.01.04-.03.05-.04.09-.12.2-.21.3-.3.28-.04.47.12.52.42l1.28,6.58c.03.17.11.3.23.36l-10.88-6.28Z"/>
      <path class="st5" d="M109,112.19l.16.17c-3.43,3.05-6.66,6.72-9.51,10.82,0,.01,0,.01-.02.02l-.2-.14-3.81-2.21-.2-.14c2.85-4.1,6.09-7.77,9.52-10.83.01,0,.02-.01.03-.02l.05-.05.16.18,3.82,2.2Z"/>
      <path class="st5" d="M107.8,180.25h0c-.06,2.08-.28,4.15-.63,6.19-.03,0-.06.01-.08.01-.12,0-.24.01-.36.02-.12,0-.23.01-.35.02s-.24.01-.35.02c-.12.01-.24.01-.36.02-.02,0-.05,0-.08.01-.28-.86-.54-1.72-.8-2.58v-1.38l.07-.04c.32-.02.64-.04.95-.06-.21-.8-.4-1.61-.55-2.42.82.17,1.68.24,2.54.19Z"/>
      <path class="st5" d="M107.49,189.29l-.71.41c-.23.13-.43.15-.59.05-.14-.07-.23-.22-.25-.44-.07-.7-.14-1.39-.2-2.09.11-.01.23-.02.35-.02.12-.01.23-.02.35-.02.12,0,.24-.02.35-.02.12-.01.24-.02.36-.02.06.69.13,1.39.2,2.09,0,.08.06.11.14.06Z"/>
      <path class="st5" d="M106.19,189.75h0s-13-7.49-13-7.49h0s-2.56-1.48-2.56-1.48c-.13-.08-.22-.24-.24-.45-.02-.26-.05-.5-.07-.76l11.58,6.68h0c.13.07.3.06.49-.05l1.7-.98c.39-.23.7-.78.7-1.23v-.03c.26.86.52,1.72.8,2.58.07.22.12.45.15.68.06.7.13,1.39.2,2.09.02.22.11.37.25.44Z"/>
      <path class="st5" d="M105.81,182.48l-.47-.27-.21-2.18s.09.02.13.03c.15.81.34,1.62.55,2.42Z"/>
      <path class="st5" d="M105.13,180.03l.21,2.18-.48.33-.07.04v-2.63h0c.11.03.23.06.34.08Z"/>
      <path class="st5" d="M104.79,183.96v.03c0,.45-.31,1-.7,1.23l-1.7.98c-.19.11-.36.12-.49.04-.14-.06-.22-.22-.22-.45v-7.35l1.19.69.23.13c.5.29,1.08.52,1.69.68h0v4.02Z"/>
      <path class="st5" d="M103.22,152.87c.58-.15,1.13-.39,1.64-.67-.64.37-1.31.65-2.01.81-.72.17-1.46.19-2.14-.04-.2-.06-.39-.15-.58-.26l-11.32-6.53c-.19-.11-.37-.24-.53-.39-.56-.48-.98-1.17-1.24-1.9-.32-.86-.44-1.76-.43-2.65.01-.84.14-1.71.41-2.56.25-.82.64-1.61,1.13-2.31.12-.17.25-.34.38-.5.81-.99,1.67-1.91,2.55-2.73l.05-.05.05.05.82.96.05.06c-.86.8-1.69,1.68-2.47,2.63-.12.14-.23.28-.34.42-.46.57-.85,1.24-1.14,1.95-.3.73-.5,1.51-.58,2.28-.08.8-.05,1.64.17,2.46.19.7.53,1.36,1.05,1.83.15.14.32.26.5.37l.55.32.64.36.58.34,9.55,5.51c.18.1.36.19.56.25.66.2,1.4.17,2.1-.01Z"/>
      <path class="st5" d="M80.46,155.69l.05-.02,1.82-.57,18.91,10.92,1.05.61s.17-.26.19-.29c.42.48.84.97,1.26,1.45l.02.02c-.23.33-.45.65-.66.98v9.94l-.23.4-1.19-.69v7.35c0,.23.08.39.22.45h0s-11.58-6.67-11.58-6.67h0s-8.22-4.75-8.22-4.75c-.13-.08-.21-.24-.21-.46v-7.35l-1.41-.82c-1.13-.65-1.76-1.53-1.76-2.45v-17.3c0,.99.07,2.02.2,3.05.2,1.58.56,3.15.98,4.54.18.56.36,1.11.57,1.66Z"/>
      <path class="st5" d="M100.72,123.96l.06.04c-2.64,3.79-5.59,7.22-8.73,10.16l-.05-.06-.82-.96-.05-.05c3.06-2.85,5.93-6.21,8.5-9.89.01,0,.02,0,.02-.02l.05.04,1.02.74Z"/>
      <path class="st5" d="M99.43,123.06l.2.14c-2.57,3.68-5.44,7.04-8.5,9.89l-.05.05-.16-.17-3.82-2.21-.16-.17c3.04-2.85,5.9-6.18,8.46-9.86,0-.01.01-.01.02-.02l.2.14,3.81,2.21Z"/>
      <path class="st5" d="M86.87,130.65c-2.14,2.02-4.09,4.49-5.69,7.23-.17.28-.32.56-.45.86-.11.23-.21.47-.3.71-.35.9-.6,1.89-.75,2.88-.13.88-.19,1.76-.2,2.59-.01.4,0,.81.02,1.24.05,1.09.18,2.23.39,3.36.29,1.56.72,3.1,1.2,4.47-.4.01-.8.03-1.2.04-.42-1.39-.78-2.96-.98-4.54-.13-1.03-.2-2.06-.2-3.05v-.35c.01-.43.03-.85.06-1.25.06-.84.19-1.73.38-2.6.22-1,.54-1.99.96-2.89.11-.24.23-.48.36-.71.16-.29.32-.59.49-.88,1.53-2.6,3.39-4.96,5.43-6.87,3.14-2.93,6.09-6.37,8.73-10.16h.28c-2.56,3.68-5.42,7.01-8.46,9.86l-.05.05s-.01.01-.02.01Z"/>
      <polygon class="st0" points="93 202.2 94.28 208.78 78.72 199.8 77.44 193.22 93 202.2"/>
    </g>
    <g>
      <path class="st3" d="M158.58,82.26c-.71,1.07-2.29,1.89-4.23,2.13-2.52.32-4.96-.42-6.03-1.72"/>
      <path class="st3" d="M158.84,81.74c-.03.08-.07.17-.11.26"/>
      <path class="st3" d="M158.84,78.75c-.34,1.44-2.18,2.62-4.57,2.92-3.04.38-5.95-.77-6.49-2.58"/>
      <path class="st3" d="M157.89,76.38c.1.09.2.18.28.27.42.45.66.96.68,1.52.05,1.83-2.39,3.39-5.46,3.49-3.07.09-5.6-1.32-5.66-3.15-.01-.36.08-.71.24-1.04.1-.19.23-.38.39-.57"/>
      <path class="st3" d="M151.99,75.14c.14-.03.29-.05.44-.06.14-.02.29-.04.44-.04.1,0,.21-.02.32-.02h.13c.2-.01.39,0,.58.01.14-.01.27,0,.4.02.57.05,1.11.15,1.6.3.14.04.27.08.39.13.13.04.25.09.37.15.12.04.24.1.35.17.11.05.22.11.32.18"/>
      <path class="st3" d="M148.4,76.85c.25-.27.56-.53.92-.76.12-.07.25-.15.39-.22"/>
      <path class="st3" d="M153.31,79.1c-1.63.05-2.97-.69-3-1.67-.03-.97,1.27-1.8,2.9-1.85s2.97.7,3,1.67-1.27,1.8-2.9,1.85Z"/>
      <path class="st3" d="M153.31,79.08c-1.61.05-2.95-.69-2.97-1.65-.03-.97,1.25-1.79,2.87-1.84,1.61-.05,2.95.69,2.98,1.66.02.96-1.26,1.78-2.88,1.83Z"/>
      <path class="st3" d="M155.21,78.15c-.07-.02-.15-.03-.24-.02-.11.02-.23.06-.32.13"/>
      <path class="st3" d="M154.65,78.26c-.12.09-.24.16-.38.2s-.29.06-.43.04c-.13-.02-.27-.08-.38-.15-.11-.08-.19-.18-.26-.29"/>
      <path class="st3" d="M153.2,78.06c-.06-.09-.14-.17-.25-.21-.11-.05-.23-.06-.35-.04-.11.02-.21.07-.28.15s-.1.18-.1.28"/>
      <path class="st3" d="M152.22,78.24c.01.12-.01.24-.06.34-.04.07-.08.14-.14.19"/>
      <line class="st3" x1="151.21" y1="78.53" x2="151.21" y2="78.34"/>
      <line class="st3" x1="151.15" y1="77.71" x2="151.12" y2="76.92"/>
      <path class="st3" d="M153.41,78.24c-.07-.06-.12-.13-.17-.21h0"/>
      <path class="st3" d="M153.41,78.24s.05.04.08.06c.1.08.23.13.36.15.05,0,.1.01.15,0,.08,0,.17,0,.25-.04.13-.04.26-.11.36-.19"/>
      <line class="st3" x1="154.61" y1="78.12" x2="154.56" y2="76.36"/>
      <line class="st3" x1="153.24" y1="77.93" x2="153.18" y2="76.16"/>
      <line class="st3" x1="155.71" y1="78" x2="155.69" y2="77.54"/>
      <path class="st3" d="M154.61,78.22h.01c.11-.08.22-.13.34-.14.09,0,.18,0,.25.02"/>
      <path class="st3" d="M152.19,78.2c0-.1.03-.2.1-.28s.18-.14.31-.16c.12-.02.25-.01.37.04s.21.13.27.22"/>
      <path class="st3" d="M154.65,78.26s-.03-.03-.03-.04"/>
      <path class="st3" d="M153.2,78.06s.03-.02.04-.03"/>
      <path class="st3" d="M152.19,78.22s.01.02.03.02"/>
      <path class="st3" d="M176.97,92.87c-.72,1.07-2.29,1.89-4.23,2.13-2.88.37-5.63-.65-6.38-2.29-.04-.1-.08-.19-.11-.29"/>
      <path class="st3" d="M177.21,92.39c-.06.16-.14.32-.24.47"/>
      <path class="st3" d="M177.22,89.36c-.33,1.45-2.18,2.63-4.57,2.93-3.04.38-5.95-.78-6.48-2.59"/>
      <path class="st3" d="M175.62,86.54c.11.06.21.13.31.2"/>
      <path class="st3" d="M174.4,86.01c.3.09.58.2.84.33.09.04.17.08.25.13"/>
      <path class="st3" d="M173.45,85.77c.15.03.29.06.42.09"/>
      <path class="st3" d="M172.69,85.67c.21.02.41.04.61.08"/>
      <path class="st3" d="M172.06,85.64c.19,0,.38.01.57.03"/>
      <path class="st3" d="M171.34,85.65c.07-.01.15-.02.23-.02h.14"/>
      <path class="st3" d="M170.37,85.75c.11-.02.23-.04.35-.05"/>
      <path class="st3" d="M166.79,87.46l.08-.08"/>
      <path class="st3" d="M176.1,86.86c.69.53,1.11,1.19,1.13,1.92.06,1.83-2.38,3.4-5.45,3.49s-5.61-1.31-5.66-3.15c-.01-.36.07-.71.24-1.05.06-.1.12-.2.19-.3.06-.09.13-.18.2-.27"/>
      <path class="st3" d="M171.7,89.72c-1.63.05-2.98-.7-3.01-1.67-.03-.98,1.27-1.81,2.9-1.86s2.98.7,3.01,1.67c.03.98-1.27,1.81-2.9,1.86Z"/>
      <path class="st3" d="M171.7,89.7c-1.62.05-2.95-.69-2.98-1.66-.03-.96,1.26-1.78,2.87-1.83,1.62-.05,2.95.69,2.98,1.65.03.97-1.26,1.79-2.87,1.84Z"/>
      <path class="st3" d="M173.6,88.77c-.07-.03-.16-.04-.24-.02-.12.01-.23.06-.33.13"/>
      <path class="st3" d="M173.03,88.88c-.11.08-.24.15-.38.19-.14.05-.28.06-.42.04s-.27-.07-.38-.15-.2-.17-.27-.28"/>
      <path class="st3" d="M171.58,88.68c-.05-.1-.14-.17-.24-.22-.11-.04-.24-.06-.35-.04-.12.02-.22.08-.28.16-.07.07-.11.17-.1.27"/>
      <path class="st3" d="M170.61,88.85c0,.12-.02.24-.07.35-.03.07-.08.13-.14.18"/>
      <line class="st3" x1="169.6" y1="89.15" x2="169.59" y2="88.95"/>
      <line class="st3" x1="169.53" y1="88.33" x2="169.51" y2="87.54"/>
      <path class="st3" d="M171.8,88.85c-.07-.06-.13-.13-.18-.21"/>
      <path class="st3" d="M171.8,88.85s.05.05.08.07c.1.07.22.12.36.14.04.01.09.01.14.01.09,0,.17-.02.26-.05.13-.04.25-.1.36-.19"/>
      <line class="st3" x1="173" y1="88.73" x2="172.94" y2="86.97"/>
      <line class="st3" x1="171.62" y1="88.54" x2="171.57" y2="86.78"/>
      <line class="st3" x1="174.09" y1="88.61" x2="174.08" y2="88.16"/>
      <path class="st3" d="M173,88.83c.1-.07.22-.12.35-.14.09-.01.17,0,.25.02"/>
      <path class="st3" d="M170.57,88.81c0-.1.04-.19.1-.27.08-.09.19-.14.31-.17.13-.02.26,0,.38.04.11.05.2.13.26.23"/>
      <path class="st3" d="M173.03,88.88s-.02-.03-.03-.05"/>
      <path class="st3" d="M171.59,88.67s.03-.02.03-.03"/>
      <path class="st3" d="M170.57,88.84s.02.01.04.01"/>
      <path class="st3" d="M228.94,78c0,.17-.06.32-.15.39"/>
      <path class="st3" d="M231.86,73.82c-.05,1.46-.99,2.87-2.64,3.97"/>
      <path class="st3" d="M169.1,102.03c-.11-.08-.17-.21-.19-.39"/>
      <line class="st3" x1="168.58" y1="101.42" x2="162.65" y2="97.99"/>
      <path class="st3" d="M172.7,102.56s.08-.16.08-.37"/>
      <path class="st3" d="M172.57,102.18c-1.25.19-2.55.01-3.5-.49"/>
      <path class="st3" d="M195.17,98.51s.08-.15.08-.37"/>
      <line class="st3" x1="194.12" y1="98.31" x2="173.9" y2="101.95"/>
      <path class="st3" d="M197.77,97.55c.11-.07.16-.21.16-.4"/>
      <path class="st3" d="M197.82,97.19c-.68.4-1.52.71-2.42.89"/>
      <line class="st3" x1="227.39" y1="78.93" x2="199.48" y2="96.17"/>
      <line class="st3" x1="145" y1="84.95" x2="144.99" y2="84.66"/>
      <path class="st3" d="M143.83,83.12c.05.55.42,1.07,1.06,1.46"/>
      <line class="st3" x1="168.82" y1="98.56" x2="168.91" y2="101.45"/>
      <line class="st3" x1="145.02" y1="84.66" x2="145.46" y2="84.92"/>
      <line class="st3" x1="161.7" y1="94.29" x2="168.44" y2="98.19"/>
      <line class="st3" x1="172.77" y1="101.99" x2="172.68" y2="99.1"/>
      <path class="st3" d="M168.97,98.49c.95.49,2.25.67,3.5.49"/>
      <line class="st3" x1="195.15" y1="95.06" x2="195.24" y2="97.94"/>
      <line class="st3" x1="173.8" y1="98.74" x2="194.02" y2="95.1"/>
      <line class="st3" x1="197.93" y1="96.96" x2="197.84" y2="94.08"/>
      <path class="st3" d="M195.3,94.87c.91-.18,1.74-.48,2.42-.89"/>
      <line class="st3" x1="228.85" y1="74.92" x2="228.94" y2="77.81"/>
      <line class="st3" x1="199.39" y1="92.96" x2="227.29" y2="75.72"/>
      <path class="st3" d="M229.12,74.59c1.65-1.11,2.59-2.52,2.65-3.98"/>
      <line class="st3" x1="204.06" y1="84.13" x2="180.8" y2="88.81"/>
      <path class="st3" d="M206.44,80.43c.06-.01.12-.01.18-.02,1.09-.09,2.08.36,2.21,1.01"/>
      <line class="st3" x1="206.26" y1="80.6" x2="206.34" y2="83.12"/>
      <path class="st3" d="M198.52,70.05c.11-.08.16-.22.16-.4"/>
      <line class="st3" x1="197.7" y1="70.23" x2="179.93" y2="81.2"/>
      <path class="st3" d="M212.4,69.39c.01.17.08.31.18.39"/>
      <path class="st3" d="M218.69,73.54c-1.94-1.35-3.93-2.67-5.95-3.96"/>
      <path class="st3" d="M210.91,69.04c.01.22.02.35.02.36"/>
      <path class="st3" d="M212.34,69.33c-.35-.21-.84-.33-1.34-.33"/>
      <path class="st3" d="M200.09,69.28c.01.22.01.35.02.36"/>
      <line class="st3" x1="210.37" y1="69.01" x2="200.63" y2="69.23"/>
      <path class="st3" d="M200.01,69.24c-.47.03-.92.15-1.27.35"/>
      <path class="st3" d="M221.06,72.06c.24.19.38.42.4.65"/>
      <line class="st3" x1="221.02" y1="72.09" x2="221.05" y2="73.14"/>
      <line class="st3" x1="175.83" y1="81.8" x2="175.79" y2="80.56"/>
      <path class="st3" d="M175.21,81.32c.01-.29.19-.57.52-.79"/>
      <line class="st3" x1="198.59" y1="66.57" x2="198.68" y2="69.46"/>
      <line class="st3" x1="176.93" y1="79.79" x2="197.45" y2="67.12"/>
      <path class="st3" d="M229.27,66.3c-.14-.09-.34-.08-.54.01"/>
      <path class="st3" d="M229.1,66.63c2.38,1.97,2.16,4.7-.54,6.63"/>
      <path class="st3" d="M228.17,73.59c.34.23.63.7.67,1.11"/>
      <path class="st3" d="M197.16,92.74c.35.23.63.7.67,1.11"/>
      <line class="st3" x1="226.56" y1="74.51" x2="198.65" y2="91.75"/>
      <path class="st3" d="M194.88,93.57c.13.31.24.85.26,1.26"/>
      <path class="st3" d="M197.01,92.76c-.57.34-1.26.59-2.02.74"/>
      <path class="st3" d="M172.41,97.62c.13.31.24.84.26,1.26"/>
      <line class="st3" x1="193.74" y1="93.73" x2="173.52" y2="97.37"/>
      <path class="st3" d="M169.44,97.2c-.31.23-.57.66-.62,1.04-.01.04-.01.07-.01.1"/>
      <path class="st3" d="M172.24,97.6c-.94.13-1.92,0-2.63-.37"/>
      <path class="st3" d="M145.62,83.45c-.35.24-.61.72-.63,1.13"/>
      <line class="st3" x1="168.31" y1="96.48" x2="146.86" y2="84.1"/>
      <path class="st3" d="M145.64,80.86c-.17-.09-.33-.11-.45-.04"/>
      <path class="st3" d="M145.51,83.31c-.95-.65-.96-1.64,0-2.33"/>
      <line class="st3" x1="145.78" y1="80.81" x2="147.62" y2="79.67"/>
      <path class="st3" d="M165.08,76.96c-.17-.09-.33-.1-.45-.04"/>
      <path class="st3" d="M159.23,78.28c2.04.13,4.1-.3,5.63-1.16"/>
      <path class="st3" d="M193.08,59.67c-.17-.1-.33-.11-.45-.05"/>
      <line class="st3" x1="166.51" y1="76.11" x2="191.71" y2="60.55"/>
      <path class="st3" d="M196.62,58.72c0-.11,0-.17,0-.18"/>
      <path class="st3" d="M193.25,59.6c.87-.5,2-.8,3.18-.86"/>
      <path class="st3" d="M214.27,58.32c-.01-.11,0-.17,0-.17"/>
      <line class="st3" x1="197.51" y1="58.72" x2="213.38" y2="58.36"/>
      <path class="st3" d="M217.97,59.2c.18-.1.36-.12.5-.04"/>
      <path class="st3" d="M214.47,58.34c1.25,0,2.43.29,3.32.79"/>
      <path class="st3" d="M218.49,59.56c3.33,2.08,6.56,4.21,9.68,6.4"/>
      <line class="st3" x1="187.28" y1="92.42" x2="192.99" y2="91.39"/>
      <path class="st3" d="M184.18,92.13c.72.37,1.69.51,2.63.37"/>
      <line class="st3" x1="177.44" y1="88.24" x2="183.72" y2="91.86"/>
      <path class="st3" d="M177.66,84.79c-1.16.28-1.92.95-1.94,1.68"/>
      <line class="st3" x1="204.54" y1="79.38" x2="179.25" y2="84.46"/>
      <path class="st3" d="M209.2,81.83c1-.8.75-1.92-.57-2.5-.65-.28-1.49-.39-2.3-.3"/>
      <line class="st3" x1="195.37" y1="90.4" x2="208.22" y2="82.46"/>
      <path class="st3" d="M193.39,91.32c.45-.09.86-.25,1.21-.45"/>
      <line class="st3" x1="196.71" y1="65.91" x2="176.2" y2="78.58"/>
      <path class="st3" d="M199.84,64.64c-.71.03-1.38.21-1.9.51"/>
      <line class="st3" x1="210.24" y1="64.41" x2="200.5" y2="64.62"/>
      <path class="st3" d="M212.93,64.88c-.54-.31-1.26-.49-2.02-.49"/>
      <path class="st3" d="M221.34,70.53c-2.55-1.81-5.17-3.58-7.87-5.31"/>
      <path class="st3" d="M220.59,73.65c1.53-.41,2.25-1.47,1.62-2.38-.07-.1-.16-.2-.27-.3"/>
      <line class="st3" x1="180.16" y1="81.78" x2="218.2" y2="74.14"/>
      <path class="st3" d="M174.8,79.47c-1.01.8-.76,1.92.56,2.5.65.28,1.49.39,2.3.3"/>
      <path class="st3" d="M193.3,91.31c-.05-.11-.1-.16-.14-.16"/>
      <path class="st3" d="M186.82,92.29s.09.06.14.16"/>
      <path class="st3" d="M184.57,91.99c-.13-.06-.3-.04-.47.06"/>
      <path class="st3" d="M177.1,87.68c-.07-.03-.13-.05-.22-.04"/>
      <path class="st3" d="M178.16,86.05c-.03-.42-.15-.95-.29-1.26"/>
      <path class="st3" d="M176.74,87.23c.04-.48.55-.91,1.3-1.09"/>
      <path class="st3" d="M206.26,80.4c-.03-.42-.15-.95-.29-1.26"/>
      <line class="st3" x1="179.56" y1="85.83" x2="204.85" y2="80.75"/>
      <path class="st3" d="M208.45,81.96c.12-.06.28-.05.46.04"/>
      <path class="st3" d="M194.17,90.78c.12-.06.28-.05.46.04"/>
      <line class="st3" x1="178.22" y1="88.22" x2="178.16" y2="86.22"/>
      <path class="st3" d="M175.11,79.32c.35.23.64.7.68,1.11"/>
      <path class="st3" d="M198.58,66.35c-.04-.41-.32-.88-.67-1.11"/>
      <path class="st3" d="M199.99,65.97c-.01-.42-.02-.96-.03-1.28"/>
      <path class="st3" d="M198.64,66.38c.35-.2.8-.32,1.27-.34"/>
      <path class="st3" d="M210.81,65.73c-.01-.42-.02-.96-.02-1.29"/>
      <line class="st3" x1="200.53" y1="66.02" x2="210.27" y2="65.81"/>
      <path class="st3" d="M212.3,66.09c.02-.41.3-.88.66-1.12"/>
      <path class="st3" d="M210.9,65.79c.51,0,.99.12,1.34.33"/>
      <path class="st3" d="M221.01,71.97c0-.05.01-.1.02-.16.07-.36.34-.75.67-.94"/>
      <path class="st3" d="M212.75,66.44c2.69,1.72,5.3,3.49,7.84,5.29"/>
      <path class="st3" d="M220.14,73.53c.05,0,.1.06.16.16"/>
      <path class="st3" d="M177.89,82.03c.05,0,.09.06.15.16"/>
      <polyline class="st3" points="212.4 69.2 212.31 66.45 212.31 66.31"/>
      <line class="st3" x1="210.82" y1="65.95" x2="210.91" y2="68.84"/>
      <line class="st3" x1="200.08" y1="69.08" x2="200" y2="66.2"/>
      <path class="st3" d="M145.05,102.82c-5.87,1.58-11.53-.51-12.64-4.66s2.75-8.79,8.61-10.36c5.87-1.58,11.53.51,12.64,4.66s-2.74,8.79-8.61,10.36Z"/>
      <path class="st3" d="M132.12,100.34c2.2,4.21,8.95,5.66,15.08,3.26,4.81-1.88,7.97-5.67,7.81-9.39"/>
      <line class="st3" x1="148.12" y1="114.4" x2="149.44" y2="119.32"/>
      <line class="st3" x1="145.73" y1="125.72" x2="144.37" y2="120.64"/>
      <line class="st3" x1="151.05" y1="116.65" x2="149.73" y2="111.73"/>
      <line class="st3" x1="156.57" y1="105.66" x2="157.89" y2="110.58"/>
      <line class="st3" x1="161.75" y1="95.69" x2="162.69" y2="99.21"/>
      <line class="st3" x1="112.85" y1="120.93" x2="110.31" y2="119.46"/>
      <line class="st3" x1="131.94" y1="160.24" x2="132.57" y2="161.34"/>
      <line class="st3" x1="135.59" y1="159.6" x2="134.95" y2="158.5"/>
      <line class="st3" x1="125.77" y1="150.23" x2="126.03" y2="151.4"/>
      <line class="st3" x1="137.82" y1="135.3" x2="139.09" y2="135.3"/>
      <line class="st3" x1="137.82" y1="153.54" x2="139.09" y2="153.54"/>
      <line class="st3" x1="125.72" y1="150.14" x2="125.15" y2="149.81"/>
      <line class="st3" x1="131.76" y1="160.1" x2="129.27" y2="158.66"/>
      <line class="st3" x1="134.67" y1="158.29" x2="130.21" y2="155.72"/>
      <line class="st3" x1="111.58" y1="178.13" x2="111.58" y2="157.74"/>
      <line class="st3" x1="123.02" y1="110.64" x2="123.19" y2="110.72"/>
      <line class="st3" x1="122.23" y1="110.89" x2="122.1" y2="110.85"/>
      <line class="st3" x1="134.45" y1="126.89" x2="130.64" y2="124.68"/>
      <line class="st3" x1="109" y1="112.19" x2="105.18" y2="109.99"/>
      <line class="st3" x1="138.95" y1="116.99" x2="138.48" y2="117.24"/>
      <line class="st3" x1="129.93" y1="124.82" x2="130.4" y2="124.57"/>
      <line class="st3" x1="120.59" y1="135.43" x2="120.85" y2="135.43"/>
      <line class="st3" x1="109.39" y1="148.22" x2="109.72" y2="148.12"/>
      <line class="st3" x1="112.32" y1="145.35" x2="111.87" y2="145.58"/>
      <line class="st3" x1="109.31" y1="148.6" x2="109.05" y2="148.64"/>
      <line class="st3" x1="100.54" y1="152.64" x2="100.15" y2="152.71"/>
      <line class="st3" x1="89.22" y1="146.1" x2="88.83" y2="146.17"/>
      <line class="st3" x1="89.18" y1="137.17" x2="88.2" y2="136.41"/>
      <line class="st3" x1="92" y1="134.1" x2="91.18" y2="133.14"/>
      <line class="st3" x1="88.58" y1="135.91" x2="89.52" y2="136.75"/>
      <line class="st3" x1="100.72" y1="123.96" x2="99.7" y2="123.22"/>
      <line class="st3" x1="110.06" y1="113.35" x2="109.26" y2="112.37"/>
      <line class="st3" x1="118.61" y1="105.77" x2="117.81" y2="104.78"/>
      <line class="st3" x1="127.17" y1="104.41" x2="127.79" y2="103.13"/>
      <line class="st3" x1="117.99" y1="104.62" x2="118.8" y2="105.61"/>
      <line class="st3" x1="138.49" y1="110.94" x2="139.1" y2="109.66"/>
      <line class="st3" x1="138.66" y1="117.07" x2="139.13" y2="116.83"/>
      <line class="st3" x1="90.92" y1="132.97" x2="87.1" y2="130.76"/>
      <line class="st3" x1="101.24" y1="166.02" x2="82.33" y2="155.1"/>
      <line class="st3" x1="116.38" y1="147.66" x2="112.56" y2="145.46"/>
      <line class="st3" x1="99.43" y1="123.06" x2="95.62" y2="120.85"/>
      <line class="st3" x1="138.45" y1="116.94" x2="138.45" y2="111.32"/>
      <line class="st3" x1="127.14" y1="110.96" x2="127.14" y2="104.82"/>
      <path class="st3" d="M102.48,166.34c.42.48.84.97,1.26,1.45l.02.02"/>
      <line class="st3" x1="102.33" y1="166.74" x2="103.06" y2="168.68"/>
      <path class="st3" d="M79.89,154.03c.4-.01.8-.03,1.2-.04"/>
      <line class="st3" x1="80.51" y1="155.67" x2="81.23" y2="154.56"/>
      <line class="st3" x1="80.71" y1="138.73" x2="80.48" y2="138.65"/>
      <line class="st3" x1="86.87" y1="130.65" x2="86.42" y2="130.88"/>
      <line class="st3" x1="80.97" y1="137.77" x2="81.17" y2="137.87"/>
      <line class="st3" x1="95.39" y1="120.73" x2="95.13" y2="120.73"/>
      <line class="st3" x1="104.94" y1="109.88" x2="104.47" y2="110.12"/>
      <line class="st3" x1="113.68" y1="102.13" x2="113.21" y2="102.38"/>
      <line class="st3" x1="124.7" y1="96.5" x2="124.23" y2="96.74"/>
      <line class="st3" x1="131.54" y1="90.43" x2="131.07" y2="90.68"/>
      <line class="st3" x1="145.29" y1="84.97" x2="145.46" y2="84.94"/>
      <line class="st3" x1="147.07" y1="85.35" x2="147.85" y2="85.42"/>
      <line class="st3" x1="159.32" y1="92.42" x2="160.1" y2="92.49"/>
      <line class="st3" x1="160.2" y1="93.59" x2="161.24" y2="94"/>
      <line class="st3" x1="155.65" y1="104.35" x2="156.45" y2="105.34"/>
      <line class="st3" x1="148.81" y1="110.42" x2="149.61" y2="111.4"/>
      <line class="st3" x1="146.95" y1="113.51" x2="147.99" y2="114.09"/>
      <line class="st3" x1="143.45" y1="119.32" x2="144.25" y2="120.3"/>
      <line class="st3" x1="134.71" y1="127.06" x2="135.51" y2="128.05"/>
      <line class="st3" x1="125.16" y1="137.92" x2="126.18" y2="138.65"/>
      <line class="st3" x1="116.63" y1="147.84" x2="117.46" y2="148.8"/>
      <line class="st3" x1="110.93" y1="155.06" x2="112.02" y2="155.69"/>
      <line class="st3" x1="111.52" y1="156.57" x2="110.43" y2="155.89"/>
      <line class="st3" x1="103.1" y1="169.32" x2="103.1" y2="178.73"/>
      <line class="st3" x1="124.89" y1="137.75" x2="121.07" y2="135.55"/>
      <line class="st3" x1="80.47" y1="165.67" x2="80.47" y2="156.25"/>
      <line class="st3" x1="100.69" y1="185.22" x2="82.87" y2="174.93"/>
      <line class="st3" x1="124.27" y1="172.71" x2="123.64" y2="172.34"/>
      <line class="st3" x1="118.65" y1="113.83" x2="118.65" y2="106.24"/>
      <line class="st3" x1="89.24" y1="145.65" x2="89.24" y2="137.66"/>
      <line class="st3" x1="137.61" y1="135.22" x2="135.11" y2="133.78"/>
      <line class="st3" x1="137.5" y1="153.4" x2="133.04" y2="150.82"/>
      <path class="st3" d="M107.17,186.44s-.06.01-.08.01c-.12,0-.24.01-.36.02-.12,0-.23.01-.35.02s-.24.01-.35.02c-.12.01-.24.01-.36.02-.02,0-.05,0-.08.01"/>
      <path class="st3" d="M112.06,145.09s.09.1.15.15"/>
      <line class="st3" x1="105.16" y1="188.86" x2="91.16" y2="180.78"/>
      <path class="st3" d="M96.75,137.11c.07-.03.13-.06.2-.1l.21-.09c.06-.04.13-.07.2-.1s.14-.07.21-.1"/>
      <path class="st3" d="M105.74,187.22c.11-.01.23-.02.35-.02.12-.01.23-.02.35-.02.12,0,.24-.02.35-.02.12-.01.24-.02.36-.02"/>
      <line class="st3" x1="107.28" y1="189.23" x2="106.01" y2="189.3"/>
      <line class="st3" x1="112.73" y1="143.55" x2="99.04" y2="135.65"/>
      <polyline class="st3" points="98.84 135.89 98.89 135.92 112.5 143.78"/>
      <line class="st3" x1="168.31" y1="103.73" x2="163.19" y2="100.78"/>
      <path class="st3" d="M98.48,135.01l-.21.09c-.06.04-.13.07-.2.1,0,.01-.02.01-.04.02"/>
      <line class="st3" x1="123.88" y1="112.31" x2="124.36" y2="112.06"/>
      <line class="st3" x1="110.98" y1="195.79" x2="109.72" y2="195.93"/>
      <line class="st3" x1="109.7" y1="189.21" x2="108.44" y2="189.35"/>
      <polyline class="st3" points="108.87 195.49 99.16 189.88 94.87 187.4"/>
      <line class="st3" x1="108.34" y1="189.34" x2="107.8" y2="189.02"/>
      <line class="st3" x1="159.83" y1="113.46" x2="159.02" y2="112.48"/>
      <line class="st3" x1="169.44" y1="104.93" x2="168.64" y2="103.95"/>
      <line class="st3" x1="170.56" y1="104.1" x2="169.9" y2="103.01"/>
      <line class="st3" x1="169.5" y1="102.74" x2="162.94" y2="98.95"/>
      <line class="st3" x1="108.15" y1="146.59" x2="96.7" y2="139.98"/>
      <line class="st3" x1="147.72" y1="125.07" x2="147.46" y2="124.09"/>
      <line class="st3" x1="179.09" y1="101.61" x2="179.2" y2="105.18"/>
      <line class="st3" x1="161.26" y1="118.71" x2="159.94" y2="113.79"/>
      <path class="st2" d="M156.07,77.11c-.19-.85-1.43-1.47-2.9-1.41-.22.01-.43.03-.63.08-1.13.19-1.97.78-2.1,1.49"/>
      <path class="st2" d="M155.97,77.77c.08-.16.12-.33.12-.5v-.02c0-.05-.01-.09-.02-.14-.14-.86-1.38-1.51-2.86-1.46-1.47.05-2.67.75-2.77,1.62,0,.05,0,.1,0,.15v.03c.03.41.29.77.72,1.05.07.05.14.09.22.13.07.04.14.07.22.1"/>
      <path class="st2" d="M151.6,78.73c.48.21,1.07.32,1.71.3.08,0,.17-.01.25-.02.26-.02.52-.06.75-.13.79-.2,1.4-.61,1.66-1.1"/>
      <path class="st2" d="M152.13,76.26h0c0,.07-.01.12-.02.18,0,.07-.05.15-.09.22-.05.07-.11.13-.18.17-.06.04-.15.07-.23.09-.09.01-.19.01-.28,0-.07-.01-.14-.02-.21-.04"/>
      <path class="st2" d="M153.18,76.07c-.04-.07-.1-.13-.16-.17-.06-.05-.14-.08-.23-.1-.08-.02-.17-.02-.25-.01-.08.02-.16.05-.23.09-.06.05-.11.11-.14.17s-.05.13-.04.21"/>
      <path class="st2" d="M153.18,76.07s.07.11.12.15c.06.07.13.13.22.17.08.05.18.08.27.09s.19,0,.29-.01.2-.05.29-.1c.06-.03.12-.07.18-.11"/>
      <path class="st2" d="M154.55,76.26c.07-.05.15-.09.23-.12.08-.02.16-.04.24-.03.09,0,.16.03.22.06s.11.08.14.14c.02.06.03.13.02.19-.01.07-.03.14-.08.2"/>
      <path class="st2" d="M155.32,76.7c-.03.06-.06.12-.08.18-.03.07-.05.15-.06.22v.05c.01.06.02.11.04.15.02.06.06.1.11.14.06.03.12.06.19.07.05.01.11.01.17.01"/>
      <path class="st2" d="M155.41,78.15c.08-.02.16-.05.23-.09.08-.04.15-.09.21-.14.05-.05.08-.09.12-.14h0c.02-.06.02-.11,0-.15-.01-.04-.05-.07-.1-.09-.04-.02-.11-.02-.18-.02"/>
      <path class="st2" d="M155.41,78.15c-.07.02-.13.05-.19.07h-.01c-.09.04-.19.08-.28.12-.09.05-.17.09-.23.14-.07.04-.13.08-.18.12s-.08.08-.1.11c-.01.02-.02.04-.01.06"/>
      <path class="st2" d="M154.41,78.78s-.02.05-.05.07c-.01.01-.03.02-.05.03"/>
      <path class="st2" d="M153.56,79.01h-.05c-.07-.01-.12-.03-.16-.05"/>
      <path class="st2" d="M153.35,78.96s-.07-.03-.11-.04c-.06-.02-.14-.03-.22-.05s-.18-.03-.27-.04c-.09-.02-.2-.03-.3-.04s-.2-.02-.28-.02h-.19"/>
      <path class="st2" d="M151.15,78.5s-.04-.07-.02-.1c.01-.03.03-.06.08-.07"/>
      <path class="st2" d="M151.98,78.77h-.04c-.12,0-.23-.01-.34-.04,0,0-.01,0-.01,0h-.02"/>
      <path class="st2" d="M151.36,78.16s-.03.08-.06.11c-.02.02-.06.04-.09.06"/>
      <path class="st2" d="M150.84,77.51c.06.04.12.08.17.13.07.05.14.12.19.18.06.07.1.13.12.18s.04.09.04.13"/>
      <path class="st2" d="M150.84,77.51c-.07-.04-.14-.1-.19-.15-.04-.06-.08-.12-.1-.18s-.01-.12.01-.17.06-.09.12-.12.13-.04.2-.05c.08,0,.16.01.24.04"/>
      <path class="st2" d="M151.94,78.77c.08-.06.14-.13.18-.22.05-.1.07-.21.07-.32"/>
      <path class="st2" d="M158.97,80.94c0,.18-.01.35-.05.53-.02.09-.05.18-.08.27s-.07.17-.11.26-.09.17-.15.26c-.16.25-.38.5-.63.72-.34.3-.77.57-1.25.79-.48.23-1.02.4-1.59.53-.57.12-1.16.19-1.76.2s-1.19-.04-1.76-.15c-.57-.1-1.1-.26-1.58-.47-.48-.2-.9-.46-1.24-.75-.17-.15-.32-.3-.45-.46-.13-.17-.24-.33-.32-.51-.06-.11-.1-.23-.14-.35-.05-.17-.07-.35-.08-.52"/>
      <line class="st2" x1="158.89" y1="78.22" x2="158.97" y2="80.94"/>
      <polyline class="st2" points="147.7 78.57 147.72 79.26 147.78 81.29"/>
      <path class="st2" d="M151.99,75.14c.15-.03.29-.05.44-.06.15-.02.29-.03.44-.04s.3-.02.45-.02c.19,0,.39,0,.58.01.14,0,.27,0,.4.02.26.03.52.06.78.11.28.05.56.12.82.19.14.04.26.09.39.13.13.05.25.1.37.15s.24.11.35.17c.11.05.22.11.32.18.21.12.39.25.56.4h.01c.1.09.19.18.27.27.21.22.38.45.5.7.11.23.18.46.2.7,0,.06.02.11.02.17"/>
      <path class="st3" d="M149.71,75.87c.08-.05.17-.09.26-.13.48-.22,1.02-.4,1.59-.52.14-.03.29-.06.43-.08"/>
      <path class="st2" d="M147.7,78.57c-.02-.36.07-.72.24-1.06.01-.01.01-.03.03-.04.09-.2.22-.39.39-.57.01-.02.02-.03.04-.05.09-.11.2-.22.32-.32.18-.16.38-.31.6-.44.12-.08.25-.15.39-.22"/>
      <polyline class="st2" points="155.22 78.22 155.22 78.15 155.18 77.15"/>
      <polyline class="st2" points="152.19 78.23 152.19 78.22 152.19 78.2 152.13 76.27"/>
      <polyline class="st2" points="151.37 78.63 151.36 78.16 151.36 78.13"/>
      <line class="st2" x1="154.41" y1="78.78" x2="154.41" y2="78.77"/>
      <path class="st2" d="M174.45,87.73c-.09-.38-.38-.72-.81-.96-.53-.31-1.27-.49-2.08-.46-1.42.06-2.59.74-2.73,1.57"/>
      <path class="st2" d="M174.35,88.39c.08-.16.12-.33.12-.5v-.02s-.01-.09-.02-.14c-.14-.87-1.38-1.51-2.86-1.47-1.47.05-2.65.76-2.76,1.62-.01.05-.01.11-.01.16v.02c.02.41.29.77.71,1.04"/>
      <path class="st2" d="M169.99,89.35c.48.2,1.07.31,1.71.29.07,0,.14-.01.21-.02.28,0,.55-.06.79-.12.79-.21,1.4-.61,1.65-1.1"/>
      <path class="st2" d="M169.76,89.25c.06.03.14.06.21.09"/>
      <path class="st2" d="M169.53,89.11s.04.03.07.04c.05.03.1.06.16.09"/>
      <path class="st2" d="M170.51,86.87h0c0,.07,0,.13-.01.18-.02.08-.05.16-.1.23-.04.06-.1.12-.17.16-.07.05-.15.08-.24.09-.09.02-.19.02-.28,0-.06,0-.13-.03-.21-.05"/>
      <path class="st2" d="M171.56,86.68c-.04-.07-.09-.12-.15-.17-.07-.04-.15-.08-.23-.1-.09-.02-.18-.02-.26,0-.08.01-.16.04-.22.09-.07.04-.12.1-.15.17-.03.06-.04.13-.04.2"/>
      <path class="st2" d="M171.56,86.68c.04.06.08.11.12.16.06.06.14.12.22.17.09.04.18.07.28.08.09.02.19.01.29,0,.1-.02.2-.06.28-.1.07-.03.13-.07.19-.12"/>
      <path class="st2" d="M172.94,86.87c.07-.05.14-.09.22-.11.08-.03.17-.04.25-.04.08.01.16.03.22.06.05.04.1.09.13.15s.04.12.03.19c-.01.06-.04.13-.08.2"/>
      <path class="st2" d="M173.71,87.32c-.04.06-.07.11-.09.17-.03.07-.05.15-.05.23v.04c0,.06.01.11.03.16.03.05.07.1.12.13.05.04.12.06.19.07.05.01.11.01.17.01"/>
      <path class="st2" d="M173.8,88.77c.08-.03.16-.06.23-.1.07-.03.14-.08.2-.13s.09-.1.12-.14h0c.02-.06.03-.11.01-.15s-.05-.07-.1-.09-.11-.03-.18-.03"/>
      <path class="st2" d="M173.8,88.77c-.07.02-.14.04-.21.07-.09.03-.18.07-.27.12-.09.04-.17.09-.24.13s-.13.08-.18.12c-.04.04-.07.08-.09.11-.01.02-.02.05-.02.07"/>
      <path class="st2" d="M172.79,89.39s-.01.05-.04.08c-.02.01-.03.02-.05.03"/>
      <path class="st2" d="M171.94,89.63s-.02-.01-.03-.01h-.02c-.06,0-.11-.02-.15-.04"/>
      <path class="st2" d="M171.74,89.58s-.08-.03-.12-.04c-.06-.02-.13-.04-.22-.06-.08-.01-.17-.03-.27-.04-.09-.01-.19-.02-.29-.03s-.2-.02-.29-.02c-.06-.01-.13-.01-.19,0"/>
      <path class="st2" d="M169.53,89.12h0v-.02s-.03-.07-.02-.09c.01-.03.04-.05.08-.07"/>
      <path class="st2" d="M170.36,89.39h-.03c-.12,0-.23-.02-.34-.04t-.02-.01h-.02"/>
      <path class="st2" d="M169.74,88.77c0,.05-.03.08-.06.11-.02.03-.05.04-.09.06"/>
      <path class="st2" d="M169.22,88.13c.07.04.12.08.18.12.07.06.13.12.19.19.05.06.09.12.12.18.02.04.03.08.03.12"/>
      <path class="st2" d="M169.22,88.13c-.07-.05-.13-.1-.18-.16-.05-.05-.09-.11-.1-.17-.02-.06-.02-.12,0-.17s.07-.09.12-.12c.06-.03.13-.05.21-.05.07,0,.15.01.23.03"/>
      <path class="st2" d="M170.33,89.39c.08-.06.14-.14.18-.23.04-.1.06-.21.06-.32"/>
      <path class="st2" d="M177.36,91.56c0,.17-.01.35-.05.52-.02.1-.05.2-.1.31-.02.07-.05.15-.09.22-.04.08-.09.17-.15.25h0c-.17.26-.37.5-.63.73-.35.3-.77.57-1.25.8-.49.22-1.03.4-1.59.52-.57.12-1.17.19-1.77.2-.59,0-1.19-.04-1.76-.14-.56-.11-1.1-.26-1.58-.47-.47-.21-.9-.47-1.24-.76s-.6-.62-.77-.97c0-.02-.02-.04-.02-.06-.05-.1-.08-.19-.11-.29-.05-.17-.08-.34-.09-.52"/>
      <line class="st2" x1="177.27" y1="88.84" x2="177.36" y2="91.56"/>
      <line class="st2" x1="166.08" y1="89.18" x2="166.16" y2="91.9"/>
      <path class="st2" d="M176.1,86.86c.07.04.13.09.19.14.34.29.6.62.77.97.13.28.21.57.21.87"/>
      <path class="st3" d="M175.93,86.74c.06.03.12.07.17.12"/>
      <path class="st2" d="M174.4,86.01c.23.06.44.14.65.23.07.03.13.06.19.1.09.03.17.08.25.13.05.01.09.04.13.07.11.06.21.12.31.2"/>
      <path class="st3" d="M173.87,85.86c.18.04.36.09.53.15"/>
      <path class="st2" d="M170.37,85.75c.12-.02.24-.04.35-.05.21-.03.41-.04.62-.05.12-.01.25-.02.37-.02s.23,0,.35.01c.19,0,.38.01.57.03.02-.01.04,0,.06,0,.21.02.41.04.61.08.05,0,.1.01.15.02h0c.14.03.28.06.41.09"/>
      <path class="st3" d="M166.87,87.38c.07-.08.15-.16.23-.23.35-.3.77-.57,1.25-.8.49-.22,1.02-.4,1.59-.52.14-.03.29-.06.43-.08"/>
      <path class="st2" d="M166.08,89.18c-.01-.35.07-.71.24-1.05.01-.02.02-.04.04-.06.05-.1.11-.2.19-.3.05-.09.12-.18.2-.27.01-.01.02-.03.04-.04.02-.03.05-.06.08-.08"/>
      <polyline class="st2" points="173.6 88.83 173.6 88.77 173.6 88.71 173.57 87.76"/>
      <polyline class="st2" points="170.57 88.84 170.57 88.83 170.57 88.81 170.51 86.88"/>
      <polyline class="st2" points="169.76 89.25 169.76 89.24 169.74 88.77 169.74 88.74"/>
      <path class="st2" d="M228.76,78.41s.01,0,.02,0h.01c.37-.23.71-.49,1.03-.75.32-.27.61-.57.87-.88s.48-.64.65-.99c.18-.34.32-.7.41-1.07s.13-.75.11-1.13"/>
      <polyline class="st2" points="169.12 102.04 169.1 102.03 162.42 98.17"/>
      <path class="st2" d="M169.12,102.04c.2.12.42.22.64.3.23.08.46.15.7.2.02,0,.03.01.05.01.22.04.46.07.69.09.25.02.5.02.75.01s.5-.04.74-.09"/>
      <polyline class="st2" points="195.16 98.52 180.3 101.19 173.37 102.44 172.7 102.56 172.69 102.56"/>
      <path class="st2" d="M197.75,97.57c-.79.47-1.67.79-2.59.95"/>
      <polyline class="st2" points="228.76 78.41 197.77 97.55 197.75 97.57"/>
      <line class="st2" x1="143.82" y1="83.03" x2="143.88" y2="85.08"/>
      <line class="st2" x1="231.77" y1="70.37" x2="231.86" y2="73.58"/>
      <line class="st2" x1="204.4" y1="84.46" x2="180.02" y2="89.36"/>
      <line class="st2" x1="198.5" y1="70.06" x2="179.75" y2="81.65"/>
      <path class="st2" d="M218.69,73.82c-2-1.38-4.03-2.72-6.09-4.03"/>
      <path class="st2" d="M210.93,69.4c.13,0,.27,0,.4,0s.26.03.38.05c.13.03.24.06.35.09s.21.07.3.11c.08.04.16.07.22.12.01,0,.01,0,.02,0"/>
      <line class="st2" x1="210.93" y1="69.4" x2="200.11" y2="69.64"/>
      <path class="st2" d="M198.5,70.06s.01-.01.02-.01c.06-.04.15-.08.23-.12.09-.04.19-.08.29-.11.11-.04.22-.07.33-.09.12-.03.24-.05.36-.06.13-.01.25-.02.38-.03"/>
      <path class="st2" d="M229.3,66.31c.29.21.56.43.81.66.25.24.47.49.67.75s.37.54.52.83c.14.28.25.58.33.89s.13.62.14.93"/>
      <path class="st2" d="M143.82,83.03c0-.19.01-.38.06-.55.04-.18.11-.36.19-.52s.18-.3.29-.44c.12-.14.24-.26.38-.38.13-.11.28-.22.43-.31"/>
      <polyline class="st2" points="145.17 80.83 145.19 80.82 147.72 79.26"/>
      <path class="st2" d="M158.88,78.05c.1.01.21.02.31.03.63.05,1.29.03,1.92-.04s1.25-.19,1.82-.37c.56-.17,1.08-.39,1.52-.64.05-.04.1-.07.16-.1"/>
      <polyline class="st2" points="164.61 76.93 164.63 76.92 192.61 59.63"/>
      <path class="st2" d="M196.63,58.54c-1.4.01-2.79.38-4,1.08,0,0,0,.01-.02.01"/>
      <line class="st2" x1="196.63" y1="58.54" x2="214.27" y2="58.15"/>
      <path class="st2" d="M214.27,58.15c.3-.01.61,0,.92.02.3.02.6.06.9.12.29.05.58.12.86.2s.55.18.8.29c.25.12.5.24.72.38.01,0,.01.01.02.01"/>
      <path class="st2" d="M229.3,66.31c-3.53-2.49-7.14-4.87-10.81-7.14"/>
      <polyline class="st2" points="193.16 91.15 186.82 92.29 186.81 92.29"/>
      <path class="st2" d="M184.59,92c.1.06.21.11.34.16.12.04.26.08.41.11.16.04.32.06.48.07s.33.01.5.01c.17-.01.33-.03.49-.06"/>
      <polyline class="st2" points="184.59 92 184.57 91.99 180.02 89.36 177.12 87.69"/>
      <path class="st2" d="M176.74,87.3v.03s.01.02.03.05c.01.02.03.05.06.08.02.03.06.07.11.11.04.04.1.07.16.11h.01s.01.01.01.01"/>
      <path class="st2" d="M208.43,81.97s.01-.01.02-.01c.07-.05.12-.08.17-.13.06-.04.1-.08.13-.12s.05-.07.06-.1c.02-.02.02-.04.02-.05.01-.01.01-.02.01-.03"/>
      <polyline class="st2" points="208.43 81.97 204.4 84.46 194.17 90.78 194.15 90.79"/>
      <path class="st2" d="M194.15,90.79c-.3.18-.64.3-.99.36"/>
      <path class="st2" d="M220.14,73.53c.19-.04.38-.09.54-.15.16-.07.3-.14.42-.21.11-.07.19-.15.25-.21.05-.06.08-.11.1-.15,0-.03,0-.04,0-.05h0"/>
      <polyline class="st2" points="220.14 73.53 218.69 73.82 179.75 81.65 179.74 81.65 177.89 82.03 177.88 82.03"/>
      <path class="st2" d="M175.21,81.37s0,.04.04.1c.03.05.1.12.2.2.09.06.2.13.34.18.14.07.31.12.49.16s.39.07.6.09c.22.01.44,0,.65-.02.12,0,.24-.03.35-.05"/>
      <path class="st2" d="M131.63,99.1c-.24-.88-.28-1.8-.15-2.72.08-.57.24-1.14.46-1.69.14-.37.31-.74.51-1.1.53-.93,1.23-1.81,2.08-2.61.86-.81,1.88-1.52,2.98-2.11,1.12-.6,2.33-1.07,3.57-1.39,1.25-.32,2.53-.5,3.79-.52s2.49.12,3.63.41c.86.22,1.66.53,2.4.91.25.13.49.27.72.42.25.16.49.33.72.52.58.46,1.08.99,1.5,1.58.44.64.77,1.35.97,2.09"/>
      <polyline class="st2" points="154.81 92.89 154.96 93.43 155.15 94.17 155.76 96.44"/>
      <polyline class="st2" points="131.78 99.66 131.97 100.38 132.58 102.64"/>
      <line class="st2" x1="131.63" y1="99.1" x2="131.78" y2="99.65"/>
      <path class="st2" d="M89.79,146.42c1.24-3.37,3.64-6.41,6.25-7.91"/>
      <line class="st2" x1="77.44" y1="193.22" x2="78.72" y2="199.8"/>
      <line class="st2" x1="77.86" y1="192.88" x2="77.44" y2="193.22"/>
      <polyline class="st2" points="77.86 192.88 88.34 198.93 93.42 201.86"/>
      <line class="st2" x1="93" y1="202.2" x2="77.44" y2="193.22"/>
      <line class="st2" x1="93.42" y1="201.86" x2="93" y2="202.2"/>
      <line class="st2" x1="93.42" y1="201.86" x2="94.69" y2="208.44"/>
      <line class="st2" x1="94.28" y1="208.78" x2="93" y2="202.2"/>
      <line class="st2" x1="94.69" y1="208.44" x2="94.28" y2="208.78"/>
      <line class="st2" x1="78.72" y1="199.8" x2="94.28" y2="208.78"/>
      <polyline class="st2" points="105.34 182.21 104.86 182.54 104.79 182.58"/>
      <line class="st2" x1="105.34" y1="182.21" x2="105.13" y2="180.03"/>
      <path class="st2" d="M125.02,158.52c0-1.09-.31-1.96-.89-2.49l-.02-.02"/>
      <path class="st2" d="M118.15,166.33c.75.25,1.67.09,2.62-.46"/>
      <path class="st2" d="M125.02,159.34c0,1.04-.35,2.28-1.04,3.48-.69,1.19-1.6,2.11-2.5,2.64-.91.52-1.81.64-2.5.25-1.38-.8-1.38-3.39,0-5.78s3.62-3.68,5-2.88c.69.39,1.04,1.24,1.04,2.29Z"/>
      <line class="st2" x1="121.48" y1="165.46" x2="120.77" y2="165.87"/>
      <line class="st2" x1="125.02" y1="159.34" x2="125.02" y2="158.52"/>
      <line class="st2" x1="143.4" y1="132.29" x2="143.4" y2="160.89"/>
      <path class="st2" d="M145.6,126.27c-1.37,1.85-2.2,4.11-2.2,6.02"/>
      <path class="st2" d="M146.98,124.6c-.25.28-.49.56-.73.85-.12.14-.23.28-.33.42-.04.04-.08.09-.11.13"/>
      <path class="st2" d="M145.81,126l-.21.27"/>
      <path class="st2" d="M149.51,119.59c-.28,1.69-1.12,3.38-2.45,4.91"/>
      <path class="st2" d="M151.12,116.92s-.08.07-.12.11c-.62.57-1.06,1.23-1.31,1.9-.05.14-.1.28-.13.42-.02.08-.04.16-.05.24"/>
      <polyline class="st2" points="157.96 110.85 151.21 116.84 151.12 116.92"/>
      <path class="st2" d="M162.77,99.49c.72,3.79-1.01,7.94-4.71,11.27-.03.03-.07.06-.1.09"/>
      <path class="st2" d="M162.73,99.34c.02.05.03.1.04.15"/>
      <path class="st2" d="M147.06,124.5s-.05.07-.08.1"/>
      <path class="st2" d="M144.29,120.36h.01c1.98-1.77,3.27-3.86,3.7-5.98.02-.09.03-.17.05-.26"/>
      <path class="st2" d="M148.05,114.12v-.02c.16-.9.68-1.79,1.51-2.55.03-.04.07-.07.1-.1"/>
      <polyline class="st2" points="149.66 111.45 156.41 105.47 156.5 105.39"/>
      <path class="st2" d="M156.5,105.39c3.77-3.34,5.54-7.53,4.8-11.37"/>
      <path class="st2" d="M161.3,94.02c-.12-.62-.53-1.16-1.16-1.53"/>
      <polyline class="st2" points="160.14 92.49 160.11 92.47 147.89 85.42"/>
      <path class="st2" d="M147.89,85.42c-.63-.36-1.46-.54-2.33-.49"/>
      <path class="st2" d="M138.64,86.32c-.27.09-.54.19-.8.3-2.54.98-4.88,2.37-6.8,4.07"/>
      <path class="st2" d="M145.56,84.93h-.02s-.05,0-.08.01c-.53.03-1.06.08-1.58.15-.17.01-.35.04-.52.07-.63.08-1.26.2-1.88.34s-1.24.3-1.85.49"/>
      <polyline class="st2" points="131.04 90.69 124.23 96.74 124.2 96.76"/>
      <path class="st2" d="M121.37,98.32c-.16.05-.31.09-.47.13"/>
      <path class="st2" d="M124.2,96.76c-.66.58-1.48,1.07-2.38,1.4"/>
      <path class="st2" d="M118.87,99.07c-2.15.78-4.11,1.92-5.69,3.32"/>
      <path class="st2" d="M120.9,98.45h0c-.35.09-.69.18-1.03.28"/>
      <path class="st2" d="M80.96,137.76c-.17.29-.33.59-.49.88"/>
      <path class="st2" d="M86.39,130.89c-2.04,1.91-3.9,4.27-5.43,6.87"/>
      <path class="st2" d="M95.12,120.73c-2.64,3.79-5.59,7.23-8.73,10.16"/>
      <path class="st2" d="M104.44,110.14c-3.36,2.98-6.53,6.58-9.32,10.59"/>
      <polyline class="st2" points="113.18 102.39 104.47 110.12 104.44 110.14"/>
      <line class="st2" x1="108.05" y1="126.34" x2="108.05" y2="121.22"/>
      <line class="st2" x1="109.44" y1="119.91" x2="109.17" y2="120.15"/>
      <path class="st2" d="M113,121.01c0-1.8-1.27-2.53-2.83-1.63-.25.14-.5.32-.73.53"/>
      <line class="st2" x1="113" y1="121.95" x2="113" y2="121.01"/>
      <line class="st2" x1="132.61" y1="161.4" x2="135.62" y2="159.66"/>
      <polyline class="st2" points="134.92 158.44 134.8 158.51 131.9 160.18"/>
      <path class="st2" d="M129.13,158.59c-.02.11-.03.22-.04.33-.19,2.21,1.05,3.46,2.88,2.79.21-.08.41-.18.63-.31h0"/>
      <path class="st2" d="M131.9,160.18c-1.43.83-2.64.29-2.81-1.26"/>
      <path class="st2" d="M126.04,151.47c2.04.53,3.22,2.57,3.22,5.42,0,.54-.04,1.11-.13,1.7"/>
      <path class="st2" d="M129.26,156.07v-.08c-.02-2.58-.93-4.51-2.49-5.41-.31-.19-.65-.33-1.02-.42"/>
      <path class="st2" d="M126.27,144.55c-.43.55-.78,1.15-1.05,1.76-.35.77-.56,1.56-.62,2.28-.08.9.08,1.7.5,2.25.25.32.57.53.94.63"/>
      <path class="st2" d="M125.75,150.16c-.37-.1-.66-.33-.86-.67-.14-.24-.24-.55-.29-.9v-.03"/>
      <path class="st2" d="M129.95,139.41c-1.17,1.77-2.39,3.49-3.68,5.14"/>
      <path class="st2" d="M134.44,134.16c-.57.51-1.12,1.05-1.65,1.63-.32.34-.63.68-.92,1.04-.68.81-1.32,1.67-1.92,2.58"/>
      <line class="st2" x1="134.71" y1="133.93" x2="134.44" y2="134.16"/>
      <path class="st2" d="M135.25,133.5c-.18.13-.36.27-.54.43"/>
      <path class="st2" d="M139.16,135.3c0-2.26-1.58-3.17-3.54-2.04-.12.07-.24.15-.36.24"/>
      <path class="st2" d="M135.25,133.5h.01c1.42-.63,2.48.14,2.48,1.8"/>
      <line class="st2" x1="139.16" y1="153.54" x2="139.16" y2="135.3"/>
      <polyline class="st2" points="137.74 135.3 137.74 153.4 137.74 153.54"/>
      <path class="st2" d="M135.62,159.66c1.96-1.13,3.54-3.87,3.54-6.12"/>
      <path class="st2" d="M137.74,153.54c0,1.8-1.26,4-2.82,4.9"/>
      <line class="st2" x1="129.97" y1="155.58" x2="129.26" y2="155.99"/>
      <polyline class="st2" points="135.56 128.1 144.2 120.44 144.29 120.36"/>
      <path class="st2" d="M126.23,138.7c2.8-4.02,5.96-7.61,9.33-10.6"/>
      <path class="st2" d="M117.51,148.85c3.13-2.93,6.09-6.37,8.72-10.15"/>
      <path class="st2" d="M112.08,155.73c1.52-2.61,3.38-4.97,5.43-6.88"/>
      <path class="st2" d="M112.08,155.73c-.17.29-.34.58-.5.87"/>
      <line class="st2" x1="127.42" y1="170.11" x2="143.4" y2="160.89"/>
      <polyline class="st2" points="111.58 179.26 112.07 178.98 118.74 175.13 123.31 172.49 124.31 171.91 127.42 170.12"/>
      <path class="st2" d="M124.13,156.03c.12.03.24.09.35.15,1.66.96,1.66,4.06,0,6.93s-4.34,4.42-6,3.46c-.12-.07-.23-.15-.33-.24-1.32-1.16-1.21-4.03.33-6.69,1.55-2.67,3.99-4.21,5.65-3.61Z"/>
      <line class="st2" x1="138.06" y1="117.6" x2="127.14" y2="111.3"/>
      <path class="st2" d="M126.11,110.85s-.06-.01-.09-.02c-.15-.03-.3-.05-.45-.07-.11-.02-.22-.04-.33-.04-.68-.08-1.36-.08-2.03,0"/>
      <path class="st2" d="M127.14,111.3c-.05-.03-.09-.05-.14-.07-.23-.13-.48-.24-.75-.33-.08-.03-.15-.05-.23-.07-.25-.08-.51-.13-.78-.18-.49-.08-1-.1-1.52-.08-.23,0-.46.04-.7.07h-.01"/>
      <path class="st2" d="M122.1,110.84s-.06.02-.08.03c-.36.12-.72.29-1.05.5-.29.17-.55.37-.79.59-.41.38-.77.83-1.05,1.32-.12.2-.23.41-.32.62-.06.11-.11.23-.16.35"/>
      <path class="st2" d="M122.24,110.89h0c-.42.1-.81.25-1.19.44"/>
      <path class="st2" d="M123.21,110.72h-.02c-.32.04-.64.1-.95.17"/>
      <path class="st2" d="M123.01,110.64c-.31.04-.61.11-.91.2"/>
      <path class="st2" d="M118.65,114.25c-.44,1.05-.68,2.17-.7,3.31"/>
      <line class="st2" x1="125.22" y1="146.31" x2="132.79" y2="150.68"/>
      <path class="st2" d="M143.83,106.81c-5.12.68-9.51-1.09-11.25-4.16h0c-.51-.9-.79-1.91-.8-2.99h0"/>
      <path class="st2" d="M145.47,106.5c-.29.08-.59.14-.89.2"/>
      <path class="st2" d="M146.5,106.23c-.28.09-.56.16-.84.23"/>
      <path class="st2" d="M147.94,105.73c-.18.07-.37.14-.55.21"/>
      <path class="st2" d="M154.96,93.43c.52.93.79,1.95.8,3.01.03,3.78-3.22,7.44-7.8,9.29"/>
      <path class="st2" d="M131.93,94.69c-2.45,3.97-1.39,8.08,2.22,10.41,1.04.67,2.29,1.19,3.72,1.52,1.92.44,3.96.49,5.96.19.25-.02.5-.07.75-.11.3-.06.59-.12.89-.2.06,0,.12-.02.19-.04.28-.07.56-.14.84-.23.3-.08.59-.18.89-.29.18-.06.37-.13.55-.21t.02,0c3.07-1.2,5.73-3.19,7.28-5.7,2.54-4.11,1.36-8.52-2.9-10.81"/>
      <polyline class="st2" points="130.42 124.56 130.48 124.5 138.98 116.98"/>
      <line class="st2" x1="143.4" y1="119.26" x2="134.67" y2="127.01"/>
      <path class="st2" d="M146.89,113.48v.02c-.35,2.04-1.58,4.07-3.49,5.76"/>
      <path class="st2" d="M148.77,110.36h-.01c-1.03.93-1.68,2.01-1.87,3.12"/>
      <line class="st2" x1="155.61" y1="104.3" x2="148.77" y2="110.36"/>
      <path class="st2" d="M160.15,93.56c.69,3.63-.98,7.58-4.54,10.74"/>
      <path class="st2" d="M159.27,92.42s.03.02.04.02c.46.27.75.66.84,1.12"/>
      <polyline class="st2" points="147.02 85.34 151.2 87.76 159.27 92.42"/>
      <path class="st2" d="M145.27,84.98c.66-.04,1.28.09,1.75.36"/>
      <path class="st2" d="M131.57,90.42c1.77-1.58,3.93-2.87,6.27-3.8.26-.1.53-.2.8-.3.33-.12.66-.23.99-.33.61-.19,1.23-.35,1.85-.49.62-.13,1.25-.25,1.88-.34.64-.08,1.27-.14,1.91-.18"/>
      <line class="st2" x1="124.73" y1="96.48" x2="131.57" y2="90.42"/>
      <path class="st2" d="M120.87,98.45h.02c.16-.04.32-.09.48-.13.15-.05.3-.1.45-.16,1.08-.38,2.07-.95,2.88-1.66.01,0,.02-.01.03-.02"/>
      <path class="st2" d="M113.7,102.12c1.44-1.28,3.22-2.32,5.17-3.05.32-.12.65-.23.99-.34.33-.1.67-.19,1.01-.28"/>
      <polyline class="st2" points="104.97 109.86 105.02 109.81 113.68 102.13 113.7 102.12"/>
      <line class="st2" x1="117.76" y1="104.73" x2="109.21" y2="112.31"/>
      <path class="st2" d="M117.95,104.57s-.07.05-.1.08-.06.05-.09.08"/>
      <path class="st2" d="M127.82,103.06c-.8-.47-1.81-.75-2.89-.83-.67-.05-1.37-.02-2.07.09s-1.39.29-2.06.54c-1.07.41-2.06,1-2.85,1.71"/>
      <polyline class="st2" points="139.13 109.59 133.45 106.31 127.82 103.06"/>
      <path class="st2" d="M139.16,116.81c.79-.7,1.39-1.51,1.72-2.35.21-.52.31-1.05.31-1.56s-.1-1.01-.31-1.46c-.34-.75-.94-1.39-1.75-1.85"/>
      <path class="st2" d="M138.98,116.98s.06-.06.09-.08l.09-.09"/>
      <polyline class="st2" points="138.45 117.25 138.06 117.6 129.9 124.83"/>
      <path class="st2" d="M120.86,135.43c2.86-4.11,6.1-7.8,9.54-10.86t.02-.01"/>
      <path class="st2" d="M129.9,124.83c-3.37,2.99-6.53,6.58-9.32,10.6"/>
      <path class="st2" d="M109.74,148.11c.83-1,1.7-1.93,2.61-2.77"/>
      <path class="st2" d="M111.85,145.59c-.86.8-1.69,1.68-2.47,2.63"/>
      <path class="st2" d="M112.35,145.34l.05-.05c3.04-2.86,5.9-6.19,8.46-9.86"/>
      <path class="st2" d="M112.52,144.94c-.1.11-.21.21-.31.3h0c-.11.12-.23.22-.34.34t-.02.01"/>
      <path class="st2" d="M120.58,135.43c-2.22,3.19-4.66,6.12-7.25,8.72-.26.27-.53.53-.8.79"/>
      <path class="st2" d="M104.86,152.2c-.51.28-1.06.52-1.64.67-.7.18-1.44.21-2.1.01-.2-.06-.38-.15-.56-.25"/>
      <path class="st2" d="M109.04,148.64c-.46.57-1,1.15-1.59,1.69-.61.55-1.27,1.07-1.94,1.49-.17.11-.35.22-.54.32"/>
      <path class="st2" d="M100.13,152.71c.19.11.38.2.58.26.68.23,1.42.21,2.14.04.7-.16,1.37-.44,2.01-.81.04-.01.08-.03.11-.06.09-.04.18-.1.27-.15.73-.42,1.46-.95,2.16-1.54.69-.57,1.35-1.21,1.93-1.85"/>
      <line class="st2" x1="88.81" y1="146.18" x2="100.13" y2="152.71"/>
      <polyline class="st2" points="100.56 152.63 91.01 147.12 90.43 146.78 89.79 146.42 89.24 146.1"/>
      <path class="st2" d="M88.15,136.37c-.49.7-.88,1.49-1.13,2.31-.27.85-.4,1.72-.41,2.56,0,.89.11,1.79.43,2.65.26.73.68,1.42,1.24,1.9.16.15.34.28.53.39"/>
      <path class="st2" d="M89.24,146.1c-.18-.11-.35-.23-.5-.37-.52-.47-.86-1.13-1.05-1.83-.22-.82-.25-1.66-.17-2.46.08-.77.28-1.55.58-2.28.29-.71.68-1.38,1.14-1.95"/>
      <path class="st2" d="M109.74,148.11c-.13.17-.27.33-.41.49"/>
      <path class="st2" d="M109.38,148.22c-.12.14-.23.28-.34.42"/>
      <path class="st2" d="M91.13,133.09l-.05.05c-.88.82-1.74,1.74-2.55,2.73"/>
      <path class="st2" d="M89.58,136.79c.78-.95,1.61-1.83,2.47-2.63"/>
      <path class="st2" d="M99.65,123.18s0,.01-.02.02c-2.57,3.68-5.44,7.04-8.5,9.89"/>
      <path class="st2" d="M92.05,134.16c3.14-2.94,6.09-6.37,8.73-10.16"/>
      <path class="st2" d="M109.21,112.31s-.03.03-.05.05c-3.43,3.05-6.66,6.72-9.51,10.82"/>
      <path class="st2" d="M100.78,124c2.79-4.02,5.96-7.61,9.32-10.6"/>
      <polyline class="st2" points="110.1 113.4 118.44 106 118.65 105.82"/>
      <path class="st2" d="M88.53,135.87c-.13.16-.26.33-.38.5"/>
      <path class="st2" d="M89.58,136.79c-.12.14-.23.28-.34.42"/>
      <path class="st2" d="M118.84,105.66c.71-.59,1.58-1.07,2.5-1.4.57-.2,1.16-.34,1.74-.42s1.16-.1,1.71-.05c.88.07,1.69.31,2.35.69"/>
      <polyline class="st2" points="127.14 104.48 127.29 104.57 138.45 111.01"/>
      <path class="st2" d="M138.45,111.01c.66.38,1.16.9,1.45,1.5.18.38.29.79.31,1.21.01.43-.05.87-.21,1.32-.24.7-.7,1.4-1.34,2.03-.01,0-.02,0-.03.02"/>
      <path class="st2" d="M118.84,105.66c-.06.05-.13.11-.19.16"/>
      <path class="st2" d="M138.63,117.09c-.06.05-.12.11-.18.16"/>
      <path class="st2" d="M81.18,137.88c1.6-2.74,3.55-5.21,5.69-7.23t.02-.01"/>
      <path class="st2" d="M81.18,137.88c-.17.28-.32.56-.45.86"/>
      <path class="st2" d="M81.09,153.99c-.48-1.37-.91-2.91-1.2-4.47-.21-1.13-.34-2.27-.39-3.36-.02-.43-.03-.84-.02-1.24,0-.83.07-1.71.2-2.59.15-.99.4-1.98.75-2.88.09-.24.19-.48.3-.71"/>
      <path class="st2" d="M81.28,154.49c-.02-.05-.17-.45-.19-.5"/>
      <path class="st2" d="M102.48,166.34s-.17.26-.19.29"/>
      <path class="st2" d="M110.37,155.85c-.17.27-.35.53-.53.8-.58.85-1.2,1.67-1.82,2.48-.81,1.05-1.63,2.07-2.39,3.03-.62.77-1.2,1.51-1.73,2.21s-1.01,1.36-1.42,1.97"/>
      <path class="st2" d="M110.87,155.02c-.16.28-.33.56-.5.83"/>
      <path class="st2" d="M116.59,147.79l-.04.04c-2.13,2-4.08,4.47-5.68,7.19"/>
      <path class="st2" d="M86.89,130.64l.05-.05c3.04-2.85,5.9-6.18,8.46-9.86"/>
      <path class="st2" d="M95.4,120.73s.01-.01.02-.02c2.85-4.1,6.09-7.77,9.52-10.83.01,0,.02-.01.03-.02"/>
      <path class="st2" d="M132.79,150.68v.13c-.06,1.73-1.24,3.79-2.71,4.7-.04.03-.07.05-.11.07"/>
      <polyline class="st2" points="132.79 135.77 132.79 135.79 132.79 136 132.79 150.68"/>
      <path class="st2" d="M103.76,167.81c-.23.33-.45.65-.66.98"/>
      <path class="st2" d="M79.89,154.03c.18.56.36,1.11.57,1.66,0,.01.01.03.01.04"/>
      <path class="st2" d="M80.47,138.64c-.13.23-.25.47-.36.71-.42.9-.74,1.89-.96,2.89-.19.87-.32,1.76-.38,2.6-.03.4-.05.82-.06,1.25v.35c0,.99.07,2.02.2,3.05.2,1.58.56,3.15.98,4.54"/>
      <path class="st2" d="M134.67,127.01s-.04.04-.06.05c-3.43,3.05-6.66,6.72-9.51,10.82"/>
      <path class="st2" d="M125.1,137.88s0,.01-.01.01c-2.57,3.69-5.44,7.03-8.5,9.9"/>
      <path class="st2" d="M111.59,156.61c-.17.27-.34.55-.51.82-2.25,3.59-4.7,7.05-7.34,10.36"/>
      <path class="st2" d="M103.1,179.26c.5.29,1.08.52,1.69.68.11.04.23.07.34.09.04.01.09.02.13.03.82.17,1.68.24,2.54.19,1.38-.05,2.73-.38,3.78-.99"/>
      <line class="st2" x1="80.47" y1="166.19" x2="81.88" y2="167.01"/>
      <line class="st2" x1="81.88" y1="167.01" x2="81.88" y2="174.36"/>
      <line class="st2" x1="101.68" y1="185.79" x2="101.68" y2="178.44"/>
      <polyline class="st2" points="101.68 178.44 102.87 179.13 103.1 179.26"/>
      <path class="st2" d="M78.71,163.74c0,.92.63,1.8,1.76,2.45"/>
      <path class="st2" d="M81.88,174.36c0,.22.08.38.21.46"/>
      <line class="st2" x1="124.31" y1="172.73" x2="124.31" y2="171.91"/>
      <path class="st2" d="M124.51,173.17c-.12-.07-.2-.22-.2-.44"/>
      <path class="st2" d="M125.02,173.13c-.2.12-.37.13-.5.05"/>
      <line class="st2" x1="126.71" y1="172.15" x2="125.02" y2="173.13"/>
      <path class="st2" d="M127.42,170.93c0,.45-.32,1-.71,1.22"/>
      <polyline class="st2" points="127.42 170.11 127.42 170.12 127.42 170.93"/>
      <path class="st2" d="M102.39,186.2c-.19.11-.36.12-.49.04-.14-.06-.22-.22-.22-.45"/>
      <line class="st2" x1="104.09" y1="185.22" x2="102.39" y2="186.2"/>
      <path class="st2" d="M104.79,183.99c0,.45-.31,1-.7,1.23"/>
      <polyline class="st2" points="104.79 179.95 104.79 182.58 104.79 183.96 104.79 183.99"/>
      <path class="st2" d="M101.19,130.33c-.77.99-1.27,2.21-1.35,3.28"/>
      <path class="st2" d="M104.94,125.09c-1.19,1.81-2.44,3.56-3.75,5.24"/>
      <path class="st2" d="M109.17,120.15c-.38.34-.75.69-1.12,1.07-1.13,1.14-2.17,2.44-3.11,3.87"/>
      <polyline class="st2" points="161.27 93.88 161.38 94.3 161.4 94.37 161.75 95.69 162.42 98.17 162.69 99.21 162.73 99.34"/>
      <line class="st2" x1="129.26" y1="156.89" x2="129.26" y2="156.07"/>
      <line class="st2" x1="126.77" y1="150.58" x2="124.89" y2="149.49"/>
      <path class="st2" d="M121.04,111.33s-.05.02-.07.04c-.04.01-.07.03-.1.05"/>
      <line class="st2" x1="78.71" y1="163.74" x2="78.71" y2="146.44"/>
      <line class="st2" x1="90.31" y1="179.56" x2="82.09" y2="174.82"/>
      <line class="st2" x1="101.89" y1="186.25" x2="90.31" y2="179.57"/>
      <polyline class="st2" points="124.52 173.18 124.51 173.17 123.31 172.49"/>
      <path class="st2" d="M105.26,180.06c.15.81.34,1.62.55,2.42"/>
      <line class="st2" x1="105.81" y1="182.48" x2="105.34" y2="182.21"/>
      <path class="st2" d="M105.81,182.48c-.31.02-.63.04-.95.06"/>
      <path class="st2" d="M104.79,183.96c.26.86.52,1.72.8,2.58"/>
      <path class="st2" d="M107.8,180.26c-.06,2.07-.28,4.14-.63,6.18"/>
      <path class="st2" d="M112.06,145.09c-1.22.35-2.35.99-3.27,1.87"/>
      <path class="st2" d="M108.79,146.96c-1.49,1.49-2.84,3.28-3.93,5.24"/>
      <path class="st2" d="M90.38,180.33c-.02-.26-.05-.5-.07-.76h0"/>
      <path class="st2" d="M105.74,187.22c.06.7.13,1.39.2,2.09"/>
      <path class="st2" d="M105.59,186.54c.07.22.12.45.15.68"/>
      <path class="st2" d="M96.75,137.11c-.16.39-.34.75-.52,1.07-.07.12-.13.23-.19.33-.78,1.29-1.26,1.55-2.29,2.75-.95,1.1-1.79,2.35-2.48,3.68-.31.6-.6,1.22-.84,1.84"/>
      <path class="st2" d="M98.03,135.22c-.56.53-1,1.17-1.28,1.89"/>
      <polyline class="st2" points="123.86 112.32 117.95 117.56 113 121.95 108.05 126.34 99.84 133.61 98.03 135.22"/>
      <path class="st2" d="M91.01,147.12c1.22-2.82,2.99-5.45,5.05-7.51"/>
      <path class="st2" d="M96.06,139.61c.79-.78,1.26-1.69,1.44-2.5.03-.13.05-.26.07-.39"/>
      <path class="st2" d="M107.17,186.44c-.04.23-.04.46-.02.7"/>
      <path class="st2" d="M107.35,189.23c-.07-.7-.14-1.4-.2-2.09"/>
      <path class="st2" d="M107.55,189.24s-.03.03-.05.04c0,0-.01,0-.01.01-.08.05-.13.02-.14-.06"/>
      <path class="st2" d="M109.77,189.2c-.17-.87-.99-1.03-1.83-.34-.03.02-.06.05-.09.08-.1.09-.21.18-.3.3"/>
      <line class="st2" x1="111.05" y1="195.78" x2="109.77" y2="189.2"/>
      <path class="st2" d="M111.26,195.77s-.03.03-.04.05c-.01.01-.02.01-.03.01-.07.04-.12.02-.14-.05"/>
      <line class="st2" x1="116.18" y1="189.66" x2="111.26" y2="195.77"/>
      <path class="st2" d="M116.52,188.92c-.04.25-.17.52-.34.74"/>
      <line class="st2" x1="118.74" y1="175.13" x2="116.52" y2="188.92"/>
      <line class="st2" x1="132.79" y1="136" x2="131.87" y2="136.83"/>
      <path class="st2" d="M112.53,144.94h0c-.15.06-.3.11-.46.15"/>
      <path class="st2" d="M98.08,135.45c.06-.08.13-.16.2-.24"/>
      <path class="st2" d="M123.27,128.79c-2.7.85-5.37.02-5.96-1.87-.6-1.88,1.1-4.1,3.8-4.95s5.37-.02,5.96,1.86c.6,1.89-1.11,4.1-3.8,4.96Z"/>
      <path class="st2" d="M158.98,112.42h-.01c-2.2,1.96-4.94,3.54-7.97,4.61"/>
      <line class="st2" x1="168.6" y1="103.9" x2="158.98" y2="112.42"/>
      <path class="st2" d="M124.38,112.05c.46-.41.85-.83,1.19-1.29h.01"/>
      <polyline class="st2" points="98.5 134.99 124.36 112.06 124.38 112.05"/>
      <path class="st2" d="M98.28,135.21l.2-.2.02-.02"/>
      <path class="st2" d="M98.08,135.45c-.07.09-.13.19-.19.29-.17.3-.28.64-.32.98"/>
      <path class="st2" d="M90.62,180.78c-.13-.08-.22-.24-.24-.45"/>
      <line class="st2" x1="94.09" y1="186.96" x2="93.18" y2="182.26"/>
      <path class="st2" d="M94.33,187.32c-.12-.07-.2-.19-.24-.36"/>
      <path class="st2" d="M180.37,103.62c.02.65-.4,1.28-1.17,1.76"/>
      <line class="st2" x1="179.2" y1="105.38" x2="171.6" y2="110.07"/>
      <path class="st2" d="M171.6,110.07c-.48.3-.96.66-1.43,1.07"/>
      <polyline class="st2" points="170.17 111.14 161.42 118.9 161.33 118.98"/>
      <path class="st2" d="M161.33,118.98c-3.57,3.17-8.45,5.38-13.6,6.14"/>
      <path class="st2" d="M147.73,125.12c-.5.08-.99.19-1.48.33"/>
      <path class="st2" d="M109.65,195.94c.03.17.11.3.23.36.16.09.37.08.6-.06"/>
      <line class="st2" x1="108.37" y1="189.36" x2="109.65" y2="195.94"/>
      <path class="st2" d="M107.84,188.94h.01c.28-.04.47.12.52.42"/>
      <path class="st2" d="M105.94,189.31c.02.22.11.37.25.44.16.1.36.08.59-.05"/>
      <path class="st2" d="M149.69,118.93c3.84-1.08,7.36-2.93,10.09-5.33.03-.03.06-.05.09-.08"/>
      <polyline class="st2" points="159.87 113.52 159.88 113.51 169.49 104.99"/>
      <path class="st2" d="M169.86,102.95c-.42.26-.85.58-1.26.95"/>
      <path class="st2" d="M169.49,104.99c.36-.32.73-.6,1.11-.83"/>
      <line class="st2" x1="170.51" y1="102.55" x2="169.86" y2="102.95"/>
      <line class="st2" x1="170.6" y1="104.16" x2="173.37" y2="102.44"/>
      <path class="st2" d="M125.24,110.71h0c-.36.57-.81,1.1-1.36,1.6t-.02.01"/>
      <line class="st2" x1="111.19" y1="195.84" x2="110.48" y2="196.24"/>
      <line class="st2" x1="107.49" y1="189.29" x2="106.78" y2="189.7"/>
      <polyline class="st2" points="109.88 196.3 99 190.02 94.33 187.32"/>
      <polyline class="st2" points="106.18 189.76 93.18 182.26 93.18 182.25 90.62 180.78"/>
      <line class="st2" x1="180.3" y1="101.19" x2="180.37" y2="103.62"/>
      <polyline class="st1" points="101.03 188.32 99.16 189.88 99 190.02 88.34 198.93"/>
    </g>
  </g>
  <text/>
  <path class="st4" d="M161.7,208.89c-13.59,0-24.61,11.02-24.61,24.61s11.02,24.61,24.61,24.61,24.61-11.02,24.61-24.61-11.02-24.61-24.61-24.61ZM171.51,241.23c0,.87-.15,1.66-.44,2.39-.29.72-.72,1.35-1.28,1.87s-1.22.93-1.98,1.22c-.76.29-1.63.44-2.59.44h-12.59v-4.2h11.26c.76,0,1.4-.25,1.91-.74.51-.5.76-1.07.76-1.74v-2.29c0-.66-.25-1.24-.76-1.74-.51-.5-1.14-.74-1.91-.74h-7.06v-4.2l7.63-6.49v-.38h-10.34l-1.3-1.3v-2.9h17.93v4.2l-7.63,6.49v.38h2.1c.97,0,1.83.15,2.59.44.76.29,1.42.7,1.98,1.22.56.52.99,1.14,1.28,1.87.29.72.44,1.52.44,2.38v3.82Z"/>
</svg>